<?xml version="1.0" encoding="UTF-8" standalone="no"?>
<!DOCTYPE svg PUBLIC "-//W3C//DTD SVG 1.1//EN"
 "http://www.w3.org/Graphics/SVG/1.1/DTD/svg11.dtd">
<!-- Generated by graphviz version 12.2.1 (20241206.2353)
 -->
<!-- Title: dependency&#45;cruiser output Pages: 1 -->
<svg width="1263pt" height="1515pt"
 viewBox="0.00 0.00 1262.50 1515.00" xmlns="http://www.w3.org/2000/svg" xmlns:xlink="http://www.w3.org/1999/xlink">
<g id="graph0" class="graph" transform="scale(1 1) rotate(0) translate(4 1511)">
<title>dependency&#45;cruiser output</title>
<polygon fill="white" stroke="none" points="-4,4 -4,-1511 1258.5,-1511 1258.5,4 -4,4"/>
<g id="clust1" class="cluster">
<title>cluster_src</title>
<path fill="#ffffff" stroke="black" stroke-width="2" d="M20,-8C20,-8 1234.5,-8 1234.5,-8 1240.5,-8 1246.5,-14 1246.5,-20 1246.5,-20 1246.5,-1487 1246.5,-1487 1246.5,-1493 1240.5,-1499 1234.5,-1499 1234.5,-1499 20,-1499 20,-1499 14,-1499 8,-1493 8,-1487 8,-1487 8,-20 8,-20 8,-14 14,-8 20,-8"/>
<text text-anchor="middle" x="627.25" y="-1486.45" font-family="Helvetica,sans-Serif" font-weight="bold" font-size="9.00">src</text>
</g>
<g id="clust2" class="cluster">
<title>cluster_src/js</title>
<path fill="#ffffff" stroke="black" stroke-width="2" d="M28,-16C28,-16 1226.5,-16 1226.5,-16 1232.5,-16 1238.5,-22 1238.5,-28 1238.5,-28 1238.5,-1460 1238.5,-1460 1238.5,-1466 1232.5,-1472 1226.5,-1472 1226.5,-1472 28,-1472 28,-1472 22,-1472 16,-1466 16,-1460 16,-1460 16,-28 16,-28 16,-22 22,-16 28,-16"/>
<text text-anchor="middle" x="627.25" y="-1459.45" font-family="Helvetica,sans-Serif" font-weight="bold" font-size="9.00">js</text>
</g>
<g id="clust3" class="cluster">
<title>cluster_src/js/application</title>
<path fill="#ffffff" stroke="black" stroke-width="2" d="M136.25,-1242C136.25,-1242 199,-1242 199,-1242 205,-1242 211,-1248 211,-1254 211,-1254 211,-1283 211,-1283 211,-1289 205,-1295 199,-1295 199,-1295 136.25,-1295 136.25,-1295 130.25,-1295 124.25,-1289 124.25,-1283 124.25,-1283 124.25,-1254 124.25,-1254 124.25,-1248 130.25,-1242 136.25,-1242"/>
<text text-anchor="middle" x="167.62" y="-1282.45" font-family="Helvetica,sans-Serif" font-weight="bold" font-size="9.00">application</text>
</g>
<g id="clust4" class="cluster">
<title>cluster_src/js/controller</title>
<path fill="#ffffff" stroke="black" stroke-width="2" d="M231,-1242C231,-1242 287.75,-1242 287.75,-1242 293.75,-1242 299.75,-1248 299.75,-1254 299.75,-1254 299.75,-1283 299.75,-1283 299.75,-1289 293.75,-1295 287.75,-1295 287.75,-1295 231,-1295 231,-1295 225,-1295 219,-1289 219,-1283 219,-1283 219,-1254 219,-1254 219,-1248 225,-1242 231,-1242"/>
<text text-anchor="middle" x="259.38" y="-1282.45" font-family="Helvetica,sans-Serif" font-weight="bold" font-size="9.00">controller</text>
</g>
<g id="clust5" class="cluster">
<title>cluster_src/js/data</title>
<path fill="#ffffff" stroke="black" stroke-width="2" d="M36,-618C36,-618 191.12,-618 191.12,-618 197.12,-618 203.12,-624 203.12,-630 203.12,-630 203.12,-659 203.12,-659 203.12,-665 197.12,-671 191.12,-671 191.12,-671 36,-671 36,-671 30,-671 24,-665 24,-659 24,-659 24,-630 24,-630 24,-624 30,-618 36,-618"/>
<text text-anchor="middle" x="113.56" y="-658.45" font-family="Helvetica,sans-Serif" font-weight="bold" font-size="9.00">data</text>
</g>
<g id="clust6" class="cluster">
<title>cluster_src/js/directable</title>
<path fill="#ffffff" stroke="black" stroke-width="2" d="M431.25,-24C431.25,-24 1218.5,-24 1218.5,-24 1224.5,-24 1230.5,-30 1230.5,-36 1230.5,-36 1230.5,-1184 1230.5,-1184 1230.5,-1190 1224.5,-1196 1218.5,-1196 1218.5,-1196 431.25,-1196 431.25,-1196 425.25,-1196 419.25,-1190 419.25,-1184 419.25,-1184 419.25,-36 419.25,-36 419.25,-30 425.25,-24 431.25,-24"/>
<text text-anchor="middle" x="824.88" y="-1183.45" font-family="Helvetica,sans-Serif" font-weight="bold" font-size="9.00">directable</text>
</g>
<g id="clust7" class="cluster">
<title>cluster_src/js/directable/dotmatrix</title>
<path fill="#ffffff" stroke="black" stroke-width="2" d="M474.25,-32C474.25,-32 1210.5,-32 1210.5,-32 1216.5,-32 1222.5,-38 1222.5,-44 1222.5,-44 1222.5,-755 1222.5,-755 1222.5,-761 1216.5,-767 1210.5,-767 1210.5,-767 474.25,-767 474.25,-767 468.25,-767 462.25,-761 462.25,-755 462.25,-755 462.25,-44 462.25,-44 462.25,-38 468.25,-32 474.25,-32"/>
<text text-anchor="middle" x="842.38" y="-754.45" font-family="Helvetica,sans-Serif" font-weight="bold" font-size="9.00">dotmatrix</text>
</g>
<g id="clust8" class="cluster">
<title>cluster_src/js/directable/dotmatrix/dot</title>
<path fill="#ffffff" stroke="black" stroke-width="2" d="M766.62,-194C766.62,-194 958.88,-194 958.88,-194 964.88,-194 970.88,-200 970.88,-206 970.88,-206 970.88,-235 970.88,-235 970.88,-241 964.88,-247 958.88,-247 958.88,-247 766.62,-247 766.62,-247 760.62,-247 754.62,-241 754.62,-235 754.62,-235 754.62,-206 754.62,-206 754.62,-200 760.62,-194 766.62,-194"/>
<text text-anchor="middle" x="862.75" y="-234.45" font-family="Helvetica,sans-Serif" font-weight="bold" font-size="9.00">dot</text>
</g>
<g id="clust9" class="cluster">
<title>cluster_src/js/directable/dotmatrix/grid</title>
<path fill="#ffffff" stroke="black" stroke-width="2" d="M875.25,-71C875.25,-71 996.5,-71 996.5,-71 1002.5,-71 1008.5,-77 1008.5,-83 1008.5,-83 1008.5,-174 1008.5,-174 1008.5,-180 1002.5,-186 996.5,-186 996.5,-186 875.25,-186 875.25,-186 869.25,-186 863.25,-180 863.25,-174 863.25,-174 863.25,-83 863.25,-83 863.25,-77 869.25,-71 875.25,-71"/>
<text text-anchor="middle" x="935.88" y="-173.45" font-family="Helvetica,sans-Serif" font-weight="bold" font-size="9.00">grid</text>
</g>
<g id="clust10" class="cluster">
<title>cluster_src/js/directable/dotmatrix/shape</title>
<path fill="#ffffff" stroke="black" stroke-width="2" d="M749.25,-255C749.25,-255 1202.5,-255 1202.5,-255 1208.5,-255 1214.5,-261 1214.5,-267 1214.5,-267 1214.5,-728 1214.5,-728 1214.5,-734 1208.5,-740 1202.5,-740 1202.5,-740 749.25,-740 749.25,-740 743.25,-740 737.25,-734 737.25,-728 737.25,-728 737.25,-267 737.25,-267 737.25,-261 743.25,-255 749.25,-255"/>
<text text-anchor="middle" x="975.88" y="-727.45" font-family="Helvetica,sans-Serif" font-weight="bold" font-size="9.00">shape</text>
</g>
<g id="clust11" class="cluster">
<title>cluster_src/js/directable/dotmatrix/shape/fill</title>
<path fill="#ffffff" stroke="black" stroke-width="2" d="M1028.5,-629C1028.5,-629 1194.5,-629 1194.5,-629 1200.5,-629 1206.5,-635 1206.5,-641 1206.5,-641 1206.5,-701 1206.5,-701 1206.5,-707 1200.5,-713 1194.5,-713 1194.5,-713 1028.5,-713 1028.5,-713 1022.5,-713 1016.5,-707 1016.5,-701 1016.5,-701 1016.5,-641 1016.5,-641 1016.5,-635 1022.5,-629 1028.5,-629"/>
<text text-anchor="middle" x="1111.5" y="-700.45" font-family="Helvetica,sans-Serif" font-weight="bold" font-size="9.00">fill</text>
</g>
<g id="clust12" class="cluster">
<title>cluster_src/js/directable/dotmatrix/shape/glyph</title>
<path fill="#ffffff" stroke="black" stroke-width="2" d="M760.25,-263C760.25,-263 840.25,-263 840.25,-263 846.25,-263 852.25,-269 852.25,-275 852.25,-275 852.25,-614 852.25,-614 852.25,-620 846.25,-626 840.25,-626 840.25,-626 760.25,-626 760.25,-626 754.25,-626 748.25,-620 748.25,-614 748.25,-614 748.25,-275 748.25,-275 748.25,-269 754.25,-263 760.25,-263"/>
<text text-anchor="middle" x="800.25" y="-613.45" font-family="Helvetica,sans-Serif" font-weight="bold" font-size="9.00">glyph</text>
</g>
<g id="clust13" class="cluster">
<title>cluster_src/js/directable/dotmatrix/shape/line</title>
<path fill="#ffffff" stroke="black" stroke-width="2" d="M883.88,-618C883.88,-618 987.88,-618 987.88,-618 993.88,-618 999.88,-624 999.88,-630 999.88,-630 999.88,-690 999.88,-690 999.88,-696 993.88,-702 987.88,-702 987.88,-702 883.88,-702 883.88,-702 877.88,-702 871.88,-696 871.88,-690 871.88,-690 871.88,-630 871.88,-630 871.88,-624 877.88,-618 883.88,-618"/>
<text text-anchor="middle" x="935.88" y="-689.45" font-family="Helvetica,sans-Serif" font-weight="bold" font-size="9.00">line</text>
</g>
<g id="clust14" class="cluster">
<title>cluster_src/js/directable/dotmatrix/shape/primative</title>
<path fill="#ffffff" stroke="black" stroke-width="2" d="M757.25,-634C757.25,-634 843.25,-634 843.25,-634 849.25,-634 855.25,-640 855.25,-646 855.25,-646 855.25,-675 855.25,-675 855.25,-681 849.25,-687 843.25,-687 843.25,-687 757.25,-687 757.25,-687 751.25,-687 745.25,-681 745.25,-675 745.25,-675 745.25,-646 745.25,-646 745.25,-640 751.25,-634 757.25,-634"/>
<text text-anchor="middle" x="800.25" y="-674.45" font-family="Helvetica,sans-Serif" font-weight="bold" font-size="9.00">primative</text>
</g>
<g id="clust15" class="cluster">
<title>cluster_src/js/directable/dotmatrix/view</title>
<path fill="#ffffff" stroke="black" stroke-width="2" d="M635,-40C635,-40 827.12,-40 827.12,-40 833.12,-40 839.12,-46 839.12,-52 839.12,-52 839.12,-174 839.12,-174 839.12,-180 833.12,-186 827.12,-186 827.12,-186 635,-186 635,-186 629,-186 623,-180 623,-174 623,-174 623,-52 623,-52 623,-46 629,-40 635,-40"/>
<text text-anchor="middle" x="731.06" y="-173.45" font-family="Helvetica,sans-Serif" font-weight="bold" font-size="9.00">view</text>
</g>
<g id="clust16" class="cluster">
<title>cluster_src/js/directable/frame</title>
<path fill="#ffffff" stroke="black" stroke-width="2" d="M480.62,-775C480.62,-775 565.88,-775 565.88,-775 571.88,-775 577.88,-781 577.88,-787 577.88,-787 577.88,-816 577.88,-816 577.88,-822 571.88,-828 565.88,-828 565.88,-828 480.62,-828 480.62,-828 474.62,-828 468.62,-822 468.62,-816 468.62,-816 468.62,-787 468.62,-787 468.62,-781 474.62,-775 480.62,-775"/>
<text text-anchor="middle" x="523.25" y="-815.45" font-family="Helvetica,sans-Serif" font-weight="bold" font-size="9.00">frame</text>
</g>
<g id="clust17" class="cluster">
<title>cluster_src/js/directable/rhythm</title>
<path fill="#ffffff" stroke="black" stroke-width="2" d="M439.25,-836C439.25,-836 716.88,-836 716.88,-836 722.88,-836 728.88,-842 728.88,-848 728.88,-848 728.88,-1035 728.88,-1035 728.88,-1041 722.88,-1047 716.88,-1047 716.88,-1047 439.25,-1047 439.25,-1047 433.25,-1047 427.25,-1041 427.25,-1035 427.25,-1035 427.25,-848 427.25,-848 427.25,-842 433.25,-836 439.25,-836"/>
<text text-anchor="middle" x="578.06" y="-1034.45" font-family="Helvetica,sans-Serif" font-weight="bold" font-size="9.00">rhythm</text>
</g>
<g id="clust18" class="cluster">
<title>cluster_src/js/directable/rhythm/asdr</title>
<path fill="#ffffff" stroke="black" stroke-width="2" d="M447.25,-844C447.25,-844 599.25,-844 599.25,-844 605.25,-844 611.25,-850 611.25,-856 611.25,-856 611.25,-947 611.25,-947 611.25,-953 605.25,-959 599.25,-959 599.25,-959 447.25,-959 447.25,-959 441.25,-959 435.25,-953 435.25,-947 435.25,-947 435.25,-856 435.25,-856 435.25,-850 441.25,-844 447.25,-844"/>
<text text-anchor="middle" x="523.25" y="-946.45" font-family="Helvetica,sans-Serif" font-weight="bold" font-size="9.00">asdr</text>
</g>
<g id="clust19" class="cluster">
<title>cluster_src/js/directable/rhythm/bpm</title>
<path fill="#ffffff" stroke="black" stroke-width="2" d="M468.25,-967C468.25,-967 578.25,-967 578.25,-967 584.25,-967 590.25,-973 590.25,-979 590.25,-979 590.25,-1008 590.25,-1008 590.25,-1014 584.25,-1020 578.25,-1020 578.25,-1020 468.25,-1020 468.25,-1020 462.25,-1020 456.25,-1014 456.25,-1008 456.25,-1008 456.25,-979 456.25,-979 456.25,-973 462.25,-967 468.25,-967"/>
<text text-anchor="middle" x="523.25" y="-1007.45" font-family="Helvetica,sans-Serif" font-weight="bold" font-size="9.00">bpm</text>
</g>
<g id="clust20" class="cluster">
<title>cluster_src/js/directable/rhythm2</title>
<path fill="#ffffff" stroke="black" stroke-width="2" d="M488.88,-1055C488.88,-1055 717.25,-1055 717.25,-1055 723.25,-1055 729.25,-1061 729.25,-1067 729.25,-1067 729.25,-1096 729.25,-1096 729.25,-1102 723.25,-1108 717.25,-1108 717.25,-1108 488.88,-1108 488.88,-1108 482.88,-1108 476.88,-1102 476.88,-1096 476.88,-1096 476.88,-1067 476.88,-1067 476.88,-1061 482.88,-1055 488.88,-1055"/>
<text text-anchor="middle" x="603.06" y="-1095.45" font-family="Helvetica,sans-Serif" font-weight="bold" font-size="9.00">rhythm2</text>
</g>
<g id="clust21" class="cluster">
<title>cluster_src/js/directable/title</title>
<path fill="#ffffff" stroke="black" stroke-width="2" d="M485.12,-1116C485.12,-1116 561.38,-1116 561.38,-1116 567.38,-1116 573.38,-1122 573.38,-1128 573.38,-1128 573.38,-1157 573.38,-1157 573.38,-1163 567.38,-1169 561.38,-1169 561.38,-1169 485.12,-1169 485.12,-1169 479.12,-1169 473.12,-1163 473.12,-1157 473.12,-1157 473.12,-1128 473.12,-1128 473.12,-1122 479.12,-1116 485.12,-1116"/>
<text text-anchor="middle" x="523.25" y="-1156.45" font-family="Helvetica,sans-Serif" font-weight="bold" font-size="9.00">title</text>
</g>
<g id="clust22" class="cluster">
<title>cluster_src/js/director</title>
<path fill="#ffffff" stroke="black" stroke-width="2" d="M339.25,-1116C339.25,-1116 387.75,-1116 387.75,-1116 393.75,-1116 399.75,-1122 399.75,-1128 399.75,-1128 399.75,-1157 399.75,-1157 399.75,-1163 393.75,-1169 387.75,-1169 387.75,-1169 339.25,-1169 339.25,-1169 333.25,-1169 327.25,-1163 327.25,-1157 327.25,-1157 327.25,-1128 327.25,-1128 327.25,-1122 333.25,-1116 339.25,-1116"/>
<text text-anchor="middle" x="363.5" y="-1156.45" font-family="Helvetica,sans-Serif" font-weight="bold" font-size="9.00">director</text>
</g>
<g id="clust23" class="cluster">
<title>cluster_src/js/enum</title>
<path fill="#ffffff" stroke="black" stroke-width="2" d="M631.25,-1361C631.25,-1361 712,-1361 712,-1361 718,-1361 724,-1367 724,-1373 724,-1373 724,-1402 724,-1402 724,-1408 718,-1414 712,-1414 712,-1414 631.25,-1414 631.25,-1414 625.25,-1414 619.25,-1408 619.25,-1402 619.25,-1402 619.25,-1373 619.25,-1373 619.25,-1367 625.25,-1361 631.25,-1361"/>
<text text-anchor="middle" x="671.62" y="-1401.45" font-family="Helvetica,sans-Serif" font-weight="bold" font-size="9.00">enum</text>
</g>
<g id="clust24" class="cluster">
<title>cluster_src/js/overlay</title>
<path fill="#ffffff" stroke="black" stroke-width="2" d="M339.62,-1204C339.62,-1204 702.62,-1204 702.62,-1204 708.62,-1204 714.62,-1210 714.62,-1216 714.62,-1216 714.62,-1341 714.62,-1341 714.62,-1347 708.62,-1353 702.62,-1353 702.62,-1353 339.62,-1353 339.62,-1353 333.62,-1353 327.62,-1347 327.62,-1341 327.62,-1341 327.62,-1216 327.62,-1216 327.62,-1210 333.62,-1204 339.62,-1204"/>
<text text-anchor="middle" x="521.12" y="-1340.45" font-family="Helvetica,sans-Serif" font-weight="bold" font-size="9.00">overlay</text>
</g>
<g id="clust25" class="cluster">
<title>cluster_src/js/overlay/displayFormat</title>
<path fill="#ffffff" stroke="black" stroke-width="2" d="M469.38,-1273C469.38,-1273 577.12,-1273 577.12,-1273 583.12,-1273 589.12,-1279 589.12,-1285 589.12,-1285 589.12,-1314 589.12,-1314 589.12,-1320 583.12,-1326 577.12,-1326 577.12,-1326 469.38,-1326 469.38,-1326 463.38,-1326 457.38,-1320 457.38,-1314 457.38,-1314 457.38,-1285 457.38,-1285 457.38,-1279 463.38,-1273 469.38,-1273"/>
<text text-anchor="middle" x="523.25" y="-1313.45" font-family="Helvetica,sans-Serif" font-weight="bold" font-size="9.00">displayFormat</text>
</g>
<g id="clust26" class="cluster">
<title>cluster_src/js/overlay/overlay</title>
<path fill="#ffffff" stroke="black" stroke-width="2" d="M483.62,-1212C483.62,-1212 562.88,-1212 562.88,-1212 568.88,-1212 574.88,-1218 574.88,-1224 574.88,-1224 574.88,-1253 574.88,-1253 574.88,-1259 568.88,-1265 562.88,-1265 562.88,-1265 483.62,-1265 483.62,-1265 477.62,-1265 471.62,-1259 471.62,-1253 471.62,-1253 471.62,-1224 471.62,-1224 471.62,-1218 477.62,-1212 483.62,-1212"/>
<text text-anchor="middle" x="523.25" y="-1252.45" font-family="Helvetica,sans-Serif" font-weight="bold" font-size="9.00">overlay</text>
</g>
<g id="clust27" class="cluster">
<title>cluster_src/js/render</title>
<path fill="#ffffff" stroke="black" stroke-width="2" d="M319.75,-1361C319.75,-1361 562.88,-1361 562.88,-1361 568.88,-1361 574.88,-1367 574.88,-1373 574.88,-1373 574.88,-1433 574.88,-1433 574.88,-1439 568.88,-1445 562.88,-1445 562.88,-1445 319.75,-1445 319.75,-1445 313.75,-1445 307.75,-1439 307.75,-1433 307.75,-1433 307.75,-1373 307.75,-1373 307.75,-1367 313.75,-1361 319.75,-1361"/>
<text text-anchor="middle" x="441.31" y="-1432.45" font-family="Helvetica,sans-Serif" font-weight="bold" font-size="9.00">render</text>
</g>
<!-- src/js/application/Application.js -->
<g id="node1" class="node">
<title>src/js/application/Application.js</title>
<g id="a_node1"><a xlink:href="src/js/application/Application.js" xlink:title="Application.js">
<path fill="#ffffcc" stroke="black" d="M196.83,-1268.25C196.83,-1268.25 138.42,-1268.25 138.42,-1268.25 135.33,-1268.25 132.25,-1265.17 132.25,-1262.08 132.25,-1262.08 132.25,-1255.92 132.25,-1255.92 132.25,-1252.83 135.33,-1249.75 138.42,-1249.75 138.42,-1249.75 196.83,-1249.75 196.83,-1249.75 199.92,-1249.75 203,-1252.83 203,-1255.92 203,-1255.92 203,-1262.08 203,-1262.08 203,-1265.17 199.92,-1268.25 196.83,-1268.25"/>
<text text-anchor="start" x="140.25" y="-1255.7" font-family="Helvetica,sans-Serif" font-size="9.00">Application.js</text>
</a>
</g>
</g>
<!-- src/js/controller/Controller.js -->
<g id="node2" class="node">
<title>src/js/controller/Controller.js</title>
<g id="a_node2"><a xlink:href="src/js/controller/Controller.js" xlink:title="Controller.js">
<path fill="#ffffcc" stroke="black" d="M285.58,-1268.25C285.58,-1268.25 233.17,-1268.25 233.17,-1268.25 230.08,-1268.25 227,-1265.17 227,-1262.08 227,-1262.08 227,-1255.92 227,-1255.92 227,-1252.83 230.08,-1249.75 233.17,-1249.75 233.17,-1249.75 285.58,-1249.75 285.58,-1249.75 288.67,-1249.75 291.75,-1252.83 291.75,-1255.92 291.75,-1255.92 291.75,-1262.08 291.75,-1262.08 291.75,-1265.17 288.67,-1268.25 285.58,-1268.25"/>
<text text-anchor="start" x="235" y="-1255.7" font-family="Helvetica,sans-Serif" font-size="9.00">Controller.js</text>
</a>
</g>
</g>
<!-- src/js/application/Application.js&#45;&gt;src/js/controller/Controller.js -->
<g id="edge1" class="edge">
<title>src/js/application/Application.js&#45;&gt;src/js/controller/Controller.js</title>
<path fill="none" stroke="#000000" stroke-width="2" stroke-opacity="0.200000" d="M203.32,-1259C208.13,-1259 213.11,-1259 218.01,-1259"/>
<polygon fill="#000000" fill-opacity="0.200000" stroke="#000000" stroke-width="2" stroke-opacity="0.200000" points="217.68,-1261.1 223.68,-1259 217.68,-1256.9 217.68,-1261.1"/>
</g>
<!-- src/js/director/Director.js -->
<g id="node3" class="node">
<title>src/js/director/Director.js</title>
<g id="a_node3"><a xlink:href="src/js/director/Director.js" xlink:title="Director.js">
<path fill="#ffffcc" stroke="black" d="M385.58,-1142.25C385.58,-1142.25 341.42,-1142.25 341.42,-1142.25 338.33,-1142.25 335.25,-1139.17 335.25,-1136.08 335.25,-1136.08 335.25,-1129.92 335.25,-1129.92 335.25,-1126.83 338.33,-1123.75 341.42,-1123.75 341.42,-1123.75 385.58,-1123.75 385.58,-1123.75 388.67,-1123.75 391.75,-1126.83 391.75,-1129.92 391.75,-1129.92 391.75,-1136.08 391.75,-1136.08 391.75,-1139.17 388.67,-1142.25 385.58,-1142.25"/>
<text text-anchor="start" x="343.25" y="-1129.7" font-family="Helvetica,sans-Serif" font-size="9.00">Director.js</text>
</a>
</g>
</g>
<!-- src/js/controller/Controller.js&#45;&gt;src/js/director/Director.js -->
<g id="edge2" class="edge">
<title>src/js/controller/Controller.js&#45;&gt;src/js/director/Director.js</title>
<path fill="none" stroke="#000000" stroke-width="2" stroke-opacity="0.200000" d="M268.05,-1249.53C285.35,-1228.19 327.56,-1176.11 349.21,-1149.4"/>
<polygon fill="#000000" fill-opacity="0.200000" stroke="#000000" stroke-width="2" stroke-opacity="0.200000" points="350.68,-1150.92 352.83,-1144.93 347.42,-1148.27 350.68,-1150.92"/>
</g>
<!-- src/js/overlay/Overlay.js -->
<g id="node4" class="node">
<title>src/js/overlay/Overlay.js</title>
<g id="a_node4"><a xlink:href="src/js/overlay/Overlay.js" xlink:title="Overlay.js">
<path fill="#ffffcc" stroke="black" d="M385.21,-1268.25C385.21,-1268.25 341.79,-1268.25 341.79,-1268.25 338.71,-1268.25 335.62,-1265.17 335.62,-1262.08 335.62,-1262.08 335.62,-1255.92 335.62,-1255.92 335.62,-1252.83 338.71,-1249.75 341.79,-1249.75 341.79,-1249.75 385.21,-1249.75 385.21,-1249.75 388.29,-1249.75 391.38,-1252.83 391.38,-1255.92 391.38,-1255.92 391.38,-1262.08 391.38,-1262.08 391.38,-1265.17 388.29,-1268.25 385.21,-1268.25"/>
<text text-anchor="start" x="343.62" y="-1255.7" font-family="Helvetica,sans-Serif" font-size="9.00">Overlay.js</text>
</a>
</g>
</g>
<!-- src/js/controller/Controller.js&#45;&gt;src/js/overlay/Overlay.js -->
<g id="edge3" class="edge">
<title>src/js/controller/Controller.js&#45;&gt;src/js/overlay/Overlay.js</title>
<path fill="none" stroke="#000000" stroke-width="2" stroke-opacity="0.200000" d="M292.13,-1259C303.03,-1259 315.31,-1259 326.53,-1259"/>
<polygon fill="#000000" fill-opacity="0.200000" stroke="#000000" stroke-width="2" stroke-opacity="0.200000" points="326.22,-1261.1 332.22,-1259 326.22,-1256.9 326.22,-1261.1"/>
</g>
<!-- src/js/render/RenderController.js -->
<g id="node5" class="node">
<title>src/js/render/RenderController.js</title>
<g id="a_node5"><a xlink:href="src/js/render/RenderController.js" xlink:title="RenderController.js">
<path fill="#ffffcc" stroke="black" d="M405.08,-1387.25C405.08,-1387.25 321.92,-1387.25 321.92,-1387.25 318.83,-1387.25 315.75,-1384.17 315.75,-1381.08 315.75,-1381.08 315.75,-1374.92 315.75,-1374.92 315.75,-1371.83 318.83,-1368.75 321.92,-1368.75 321.92,-1368.75 405.08,-1368.75 405.08,-1368.75 408.17,-1368.75 411.25,-1371.83 411.25,-1374.92 411.25,-1374.92 411.25,-1381.08 411.25,-1381.08 411.25,-1384.17 408.17,-1387.25 405.08,-1387.25"/>
<text text-anchor="start" x="323.75" y="-1374.7" font-family="Helvetica,sans-Serif" font-size="9.00">RenderController.js</text>
</a>
</g>
</g>
<!-- src/js/controller/Controller.js&#45;&gt;src/js/render/RenderController.js -->
<g id="edge4" class="edge">
<title>src/js/controller/Controller.js&#45;&gt;src/js/render/RenderController.js</title>
<path fill="none" stroke="#000000" stroke-width="2" stroke-opacity="0.200000" d="M262.6,-1268.66C267.51,-1287.86 280.99,-1331.11 307.75,-1356 311.22,-1359.23 315.22,-1362.01 319.45,-1364.39"/>
<polygon fill="#000000" fill-opacity="0.200000" stroke="#000000" stroke-width="2" stroke-opacity="0.200000" points="318.23,-1366.13 324.54,-1366.93 320.1,-1362.37 318.23,-1366.13"/>
</g>
<!-- src/js/directable/dotmatrix/DirectableDotMatrix.js -->
<g id="node8" class="node">
<title>src/js/directable/dotmatrix/DirectableDotMatrix.js</title>
<g id="a_node8"><a xlink:href="src/js/directable/dotmatrix/DirectableDotMatrix.js" xlink:title="DirectableDotMatrix.js">
<path fill="#ffffcc" stroke="black" d="M570.08,-403.25C570.08,-403.25 476.42,-403.25 476.42,-403.25 473.33,-403.25 470.25,-400.17 470.25,-397.08 470.25,-397.08 470.25,-390.92 470.25,-390.92 470.25,-387.83 473.33,-384.75 476.42,-384.75 476.42,-384.75 570.08,-384.75 570.08,-384.75 573.17,-384.75 576.25,-387.83 576.25,-390.92 576.25,-390.92 576.25,-397.08 576.25,-397.08 576.25,-400.17 573.17,-403.25 570.08,-403.25"/>
<text text-anchor="start" x="478.25" y="-390.7" font-family="Helvetica,sans-Serif" font-size="9.00">DirectableDotMatrix.js</text>
</a>
</g>
</g>
<!-- src/js/director/Director.js&#45;&gt;src/js/directable/dotmatrix/DirectableDotMatrix.js -->
<g id="edge28" class="edge">
<title>src/js/director/Director.js&#45;&gt;src/js/directable/dotmatrix/DirectableDotMatrix.js</title>
<path fill="none" stroke="#000000" stroke-width="2" stroke-opacity="0.200000" d="M365.54,-1123.45C370.17,-1081.59 390.02,-910.31 419.25,-772 448.9,-631.69 499.58,-466.1 516.53,-412.04"/>
<polygon fill="#000000" fill-opacity="0.200000" stroke="#000000" stroke-width="2" stroke-opacity="0.200000" points="518.5,-412.78 518.3,-406.43 514.5,-411.52 518.5,-412.78"/>
</g>
<!-- src/js/directable/title/DirectableTitle.js -->
<g id="node47" class="node">
<title>src/js/directable/title/DirectableTitle.js</title>
<g id="a_node47"><a xlink:href="src/js/directable/title/DirectableTitle.js" xlink:title="DirectableTitle.js">
<path fill="#ffffcc" stroke="black" d="M559.21,-1142.25C559.21,-1142.25 487.29,-1142.25 487.29,-1142.25 484.21,-1142.25 481.12,-1139.17 481.12,-1136.08 481.12,-1136.08 481.12,-1129.92 481.12,-1129.92 481.12,-1126.83 484.21,-1123.75 487.29,-1123.75 487.29,-1123.75 559.21,-1123.75 559.21,-1123.75 562.29,-1123.75 565.38,-1126.83 565.38,-1129.92 565.38,-1129.92 565.38,-1136.08 565.38,-1136.08 565.38,-1139.17 562.29,-1142.25 559.21,-1142.25"/>
<text text-anchor="start" x="489.12" y="-1129.7" font-family="Helvetica,sans-Serif" font-size="9.00">DirectableTitle.js</text>
</a>
</g>
</g>
<!-- src/js/director/Director.js&#45;&gt;src/js/directable/title/DirectableTitle.js -->
<g id="edge29" class="edge">
<title>src/js/director/Director.js&#45;&gt;src/js/directable/title/DirectableTitle.js</title>
<path fill="none" stroke="#000000" stroke-width="2" stroke-opacity="0.200000" d="M391.98,-1133C414.03,-1133 445.56,-1133 472.09,-1133"/>
<polygon fill="#000000" fill-opacity="0.200000" stroke="#000000" stroke-width="2" stroke-opacity="0.200000" points="471.84,-1135.1 477.84,-1133 471.84,-1130.9 471.84,-1135.1"/>
</g>
<!-- src/js/overlay/displayFormat/OverlayDisplayFormat.js -->
<g id="node50" class="node">
<title>src/js/overlay/displayFormat/OverlayDisplayFormat.js</title>
<g id="a_node50"><a xlink:href="src/js/overlay/displayFormat/OverlayDisplayFormat.js" xlink:title="OverlayDisplayFormat.js">
<path fill="#ffffcc" stroke="black" d="M574.96,-1299.25C574.96,-1299.25 471.54,-1299.25 471.54,-1299.25 468.46,-1299.25 465.38,-1296.17 465.38,-1293.08 465.38,-1293.08 465.38,-1286.92 465.38,-1286.92 465.38,-1283.83 468.46,-1280.75 471.54,-1280.75 471.54,-1280.75 574.96,-1280.75 574.96,-1280.75 578.04,-1280.75 581.12,-1283.83 581.12,-1286.92 581.12,-1286.92 581.12,-1293.08 581.12,-1293.08 581.12,-1296.17 578.04,-1299.25 574.96,-1299.25"/>
<text text-anchor="start" x="473.38" y="-1286.7" font-family="Helvetica,sans-Serif" font-size="9.00">OverlayDisplayFormat.js</text>
</a>
</g>
</g>
<!-- src/js/overlay/Overlay.js&#45;&gt;src/js/overlay/displayFormat/OverlayDisplayFormat.js -->
<g id="edge31" class="edge">
<title>src/js/overlay/Overlay.js&#45;&gt;src/js/overlay/displayFormat/OverlayDisplayFormat.js</title>
<path fill="none" stroke="#000000" stroke-width="2" stroke-opacity="0.200000" d="M391.62,-1264.33C411.55,-1268.25 439.39,-1273.72 464.25,-1278.6"/>
<polygon fill="#000000" fill-opacity="0.200000" stroke="#000000" stroke-width="2" stroke-opacity="0.200000" points="463.63,-1280.62 469.93,-1279.72 464.44,-1276.5 463.63,-1280.62"/>
</g>
<!-- src/js/overlay/overlay/OverlayOverlay.js -->
<g id="node51" class="node">
<title>src/js/overlay/overlay/OverlayOverlay.js</title>
<g id="a_node51"><a xlink:href="src/js/overlay/overlay/OverlayOverlay.js" xlink:title="OverlayOverlay.js">
<path fill="#ffffcc" stroke="black" d="M560.71,-1238.25C560.71,-1238.25 485.79,-1238.25 485.79,-1238.25 482.71,-1238.25 479.62,-1235.17 479.62,-1232.08 479.62,-1232.08 479.62,-1225.92 479.62,-1225.92 479.62,-1222.83 482.71,-1219.75 485.79,-1219.75 485.79,-1219.75 560.71,-1219.75 560.71,-1219.75 563.79,-1219.75 566.88,-1222.83 566.88,-1225.92 566.88,-1225.92 566.88,-1232.08 566.88,-1232.08 566.88,-1235.17 563.79,-1238.25 560.71,-1238.25"/>
<text text-anchor="start" x="487.62" y="-1225.7" font-family="Helvetica,sans-Serif" font-size="9.00">OverlayOverlay.js</text>
</a>
</g>
</g>
<!-- src/js/overlay/Overlay.js&#45;&gt;src/js/overlay/overlay/OverlayOverlay.js -->
<g id="edge32" class="edge">
<title>src/js/overlay/Overlay.js&#45;&gt;src/js/overlay/overlay/OverlayOverlay.js</title>
<path fill="none" stroke="#000000" stroke-width="2" stroke-opacity="0.200000" d="M391.62,-1253.84C413.22,-1249.73 444.11,-1243.86 470.42,-1238.86"/>
<polygon fill="#000000" fill-opacity="0.200000" stroke="#000000" stroke-width="2" stroke-opacity="0.200000" points="470.68,-1240.95 476.18,-1237.76 469.89,-1236.82 470.68,-1240.95"/>
</g>
<!-- src/js/render/RenderResizer.js -->
<g id="node53" class="node">
<title>src/js/render/RenderResizer.js</title>
<g id="a_node53"><a xlink:href="src/js/render/RenderResizer.js" xlink:title="RenderResizer.js">
<path fill="#ffffcc" stroke="black" d="M560.33,-1387.25C560.33,-1387.25 486.17,-1387.25 486.17,-1387.25 483.08,-1387.25 480,-1384.17 480,-1381.08 480,-1381.08 480,-1374.92 480,-1374.92 480,-1371.83 483.08,-1368.75 486.17,-1368.75 486.17,-1368.75 560.33,-1368.75 560.33,-1368.75 563.42,-1368.75 566.5,-1371.83 566.5,-1374.92 566.5,-1374.92 566.5,-1381.08 566.5,-1381.08 566.5,-1384.17 563.42,-1387.25 560.33,-1387.25"/>
<text text-anchor="start" x="488" y="-1374.7" font-family="Helvetica,sans-Serif" font-size="9.00">RenderResizer.js</text>
</a>
</g>
</g>
<!-- src/js/render/RenderController.js&#45;&gt;src/js/render/RenderResizer.js -->
<g id="edge36" class="edge">
<title>src/js/render/RenderController.js&#45;&gt;src/js/render/RenderResizer.js</title>
<path fill="none" stroke="#000000" stroke-width="2" stroke-opacity="0.200000" d="M411.4,-1378C430.06,-1378 451.6,-1378 470.69,-1378"/>
<polygon fill="#000000" fill-opacity="0.200000" stroke="#000000" stroke-width="2" stroke-opacity="0.200000" points="470.54,-1380.1 476.54,-1378 470.54,-1375.9 470.54,-1380.1"/>
</g>
<!-- src/js/render/RenderSurface.js -->
<g id="node54" class="node">
<title>src/js/render/RenderSurface.js</title>
<g id="a_node54"><a xlink:href="src/js/render/RenderSurface.js" xlink:title="RenderSurface.js">
<path fill="#ffffcc" stroke="black" d="M560.71,-1418.25C560.71,-1418.25 485.79,-1418.25 485.79,-1418.25 482.71,-1418.25 479.62,-1415.17 479.62,-1412.08 479.62,-1412.08 479.62,-1405.92 479.62,-1405.92 479.62,-1402.83 482.71,-1399.75 485.79,-1399.75 485.79,-1399.75 560.71,-1399.75 560.71,-1399.75 563.79,-1399.75 566.88,-1402.83 566.88,-1405.92 566.88,-1405.92 566.88,-1412.08 566.88,-1412.08 566.88,-1415.17 563.79,-1418.25 560.71,-1418.25"/>
<text text-anchor="start" x="487.62" y="-1405.7" font-family="Helvetica,sans-Serif" font-size="9.00">RenderSurface.js</text>
</a>
</g>
</g>
<!-- src/js/render/RenderController.js&#45;&gt;src/js/render/RenderSurface.js -->
<g id="edge37" class="edge">
<title>src/js/render/RenderController.js&#45;&gt;src/js/render/RenderSurface.js</title>
<path fill="none" stroke="#000000" stroke-width="2" stroke-opacity="0.200000" d="M397.65,-1387.73C404.74,-1389.63 412.21,-1391.49 419.25,-1393 435.75,-1396.53 453.89,-1399.61 470.29,-1402.1"/>
<polygon fill="#000000" fill-opacity="0.200000" stroke="#000000" stroke-width="2" stroke-opacity="0.200000" points="469.97,-1404.18 476.21,-1402.98 470.58,-1400.02 469.97,-1404.18"/>
</g>
<!-- src/js/data/Data.json -->
<g id="node6" class="node">
<title>src/js/data/Data.json</title>
<g id="a_node6"><a xlink:href="src/js/data/Data.json" xlink:title="Data.json">
<path fill="#ffee44" stroke="black" d="M188.96,-644.25C188.96,-644.25 146.29,-644.25 146.29,-644.25 143.21,-644.25 140.12,-641.17 140.12,-638.08 140.12,-638.08 140.12,-631.92 140.12,-631.92 140.12,-628.83 143.21,-625.75 146.29,-625.75 146.29,-625.75 188.96,-625.75 188.96,-625.75 192.04,-625.75 195.12,-628.83 195.12,-631.92 195.12,-631.92 195.12,-638.08 195.12,-638.08 195.12,-641.17 192.04,-644.25 188.96,-644.25"/>
<text text-anchor="start" x="148.12" y="-631.7" font-family="Helvetica,sans-Serif" font-size="9.00">Data.json</text>
</a>
</g>
</g>
<!-- src/js/data/DataController.js -->
<g id="node7" class="node">
<title>src/js/data/DataController.js</title>
<g id="a_node7"><a xlink:href="src/js/data/DataController.js" xlink:title="DataController.js">
<path fill="#ffffcc" stroke="black" d="M110.08,-644.25C110.08,-644.25 38.17,-644.25 38.17,-644.25 35.08,-644.25 32,-641.17 32,-638.08 32,-638.08 32,-631.92 32,-631.92 32,-628.83 35.08,-625.75 38.17,-625.75 38.17,-625.75 110.08,-625.75 110.08,-625.75 113.17,-625.75 116.25,-628.83 116.25,-631.92 116.25,-631.92 116.25,-638.08 116.25,-638.08 116.25,-641.17 113.17,-644.25 110.08,-644.25"/>
<text text-anchor="start" x="40" y="-631.7" font-family="Helvetica,sans-Serif" font-size="9.00">DataController.js</text>
</a>
</g>
</g>
<!-- src/js/data/DataController.js&#45;&gt;src/js/data/Data.json -->
<g id="edge5" class="edge">
<title>src/js/data/DataController.js&#45;&gt;src/js/data/Data.json</title>
<path fill="none" stroke="#000000" stroke-width="2" stroke-opacity="0.200000" d="M116.59,-635C121.37,-635 126.22,-635 130.92,-635"/>
<polygon fill="#000000" fill-opacity="0.200000" stroke="#000000" stroke-width="2" stroke-opacity="0.200000" points="130.69,-637.1 136.69,-635 130.69,-632.9 130.69,-637.1"/>
</g>
<!-- src/js/directable/dotmatrix/view/ViewManager.js -->
<g id="node9" class="node">
<title>src/js/directable/dotmatrix/view/ViewManager.js</title>
<g id="a_node9"><a xlink:href="src/js/directable/dotmatrix/view/ViewManager.js" xlink:title="ViewManager.js">
<path fill="#ffffcc" stroke="black" d="M706.08,-66.25C706.08,-66.25 637.17,-66.25 637.17,-66.25 634.08,-66.25 631,-63.17 631,-60.08 631,-60.08 631,-53.92 631,-53.92 631,-50.83 634.08,-47.75 637.17,-47.75 637.17,-47.75 706.08,-47.75 706.08,-47.75 709.17,-47.75 712.25,-50.83 712.25,-53.92 712.25,-53.92 712.25,-60.08 712.25,-60.08 712.25,-63.17 709.17,-66.25 706.08,-66.25"/>
<text text-anchor="start" x="639" y="-53.7" font-family="Helvetica,sans-Serif" font-size="9.00">ViewManager.js</text>
</a>
</g>
</g>
<!-- src/js/directable/dotmatrix/DirectableDotMatrix.js&#45;&gt;src/js/directable/dotmatrix/view/ViewManager.js -->
<g id="edge6" class="edge">
<title>src/js/directable/dotmatrix/DirectableDotMatrix.js&#45;&gt;src/js/directable/dotmatrix/view/ViewManager.js</title>
<path fill="none" stroke="#000000" stroke-width="2" stroke-opacity="0.200000" d="M524.05,-384.27C523.68,-341.16 528.05,-165.5 619.25,-73 620.48,-71.75 621.8,-70.6 623.21,-69.54"/>
<polygon fill="#000000" fill-opacity="0.200000" stroke="#000000" stroke-width="2" stroke-opacity="0.200000" points="624.12,-71.44 628.15,-66.52 621.93,-67.86 624.12,-71.44"/>
</g>
<!-- src/js/directable/dotmatrix/dot/DotManager.js -->
<g id="node11" class="node">
<title>src/js/directable/dotmatrix/dot/DotManager.js</title>
<g id="a_node11"><a xlink:href="src/js/directable/dotmatrix/dot/DotManager.js" xlink:title="DotManager.js">
<path fill="#ffffcc" stroke="black" d="M831.71,-220.25C831.71,-220.25 768.79,-220.25 768.79,-220.25 765.71,-220.25 762.62,-217.17 762.62,-214.08 762.62,-214.08 762.62,-207.92 762.62,-207.92 762.62,-204.83 765.71,-201.75 768.79,-201.75 768.79,-201.75 831.71,-201.75 831.71,-201.75 834.79,-201.75 837.88,-204.83 837.88,-207.92 837.88,-207.92 837.88,-214.08 837.88,-214.08 837.88,-217.17 834.79,-220.25 831.71,-220.25"/>
<text text-anchor="start" x="770.62" y="-207.7" font-family="Helvetica,sans-Serif" font-size="9.00">DotManager.js</text>
</a>
</g>
</g>
<!-- src/js/directable/dotmatrix/view/ViewManager.js&#45;&gt;src/js/directable/dotmatrix/dot/DotManager.js -->
<g id="edge19" class="edge">
<title>src/js/directable/dotmatrix/view/ViewManager.js&#45;&gt;src/js/directable/dotmatrix/dot/DotManager.js</title>
<path fill="none" stroke="#000000" stroke-width="2" stroke-opacity="0.200000" d="M712.59,-61.6C719,-64.06 724.93,-67.69 729.25,-73 745.54,-93.06 721.63,-168.42 737.25,-189 741.67,-194.82 747.75,-199.1 754.39,-202.26"/>
<polygon fill="#000000" fill-opacity="0.200000" stroke="#000000" stroke-width="2" stroke-opacity="0.200000" points="753.21,-204.05 759.56,-204.34 754.77,-200.15 753.21,-204.05"/>
</g>
<!-- src/js/directable/dotmatrix/grid/GridData.js -->
<g id="node12" class="node">
<title>src/js/directable/dotmatrix/grid/GridData.js</title>
<g id="a_node12"><a xlink:href="src/js/directable/dotmatrix/grid/GridData.js" xlink:title="GridData.js">
<path fill="#ffffcc" stroke="black" d="M960.58,-97.25C960.58,-97.25 911.17,-97.25 911.17,-97.25 908.08,-97.25 905,-94.17 905,-91.08 905,-91.08 905,-84.92 905,-84.92 905,-81.83 908.08,-78.75 911.17,-78.75 911.17,-78.75 960.58,-78.75 960.58,-78.75 963.67,-78.75 966.75,-81.83 966.75,-84.92 966.75,-84.92 966.75,-91.08 966.75,-91.08 966.75,-94.17 963.67,-97.25 960.58,-97.25"/>
<text text-anchor="start" x="913" y="-84.7" font-family="Helvetica,sans-Serif" font-size="9.00">GridData.js</text>
</a>
</g>
</g>
<!-- src/js/directable/dotmatrix/view/ViewManager.js&#45;&gt;src/js/directable/dotmatrix/grid/GridData.js -->
<g id="edge20" class="edge">
<title>src/js/directable/dotmatrix/view/ViewManager.js&#45;&gt;src/js/directable/dotmatrix/grid/GridData.js</title>
<path fill="none" stroke="#000000" stroke-width="2" stroke-opacity="0.200000" d="M706.87,-66.7C721.46,-70.8 735.54,-74.71 737.25,-75 791.65,-84.26 855.52,-87.02 895.6,-87.79"/>
<polygon fill="#000000" fill-opacity="0.200000" stroke="#000000" stroke-width="2" stroke-opacity="0.200000" points="895.46,-89.89 901.49,-87.89 895.52,-85.69 895.46,-89.89"/>
</g>
<!-- src/js/directable/dotmatrix/shape/ShapeManager.js -->
<g id="node16" class="node">
<title>src/js/directable/dotmatrix/shape/ShapeManager.js</title>
<g id="a_node16"><a xlink:href="src/js/directable/dotmatrix/shape/ShapeManager.js" xlink:title="ShapeManager.js">
<path fill="#ffffcc" stroke="black" d="M838.08,-713.25C838.08,-713.25 762.42,-713.25 762.42,-713.25 759.33,-713.25 756.25,-710.17 756.25,-707.08 756.25,-707.08 756.25,-700.92 756.25,-700.92 756.25,-697.83 759.33,-694.75 762.42,-694.75 762.42,-694.75 838.08,-694.75 838.08,-694.75 841.17,-694.75 844.25,-697.83 844.25,-700.92 844.25,-700.92 844.25,-707.08 844.25,-707.08 844.25,-710.17 841.17,-713.25 838.08,-713.25"/>
<text text-anchor="start" x="764.25" y="-700.7" font-family="Helvetica,sans-Serif" font-size="9.00">ShapeManager.js</text>
</a>
</g>
</g>
<!-- src/js/directable/dotmatrix/view/ViewManager.js&#45;&gt;src/js/directable/dotmatrix/shape/ShapeManager.js -->
<g id="edge21" class="edge">
<title>src/js/directable/dotmatrix/view/ViewManager.js&#45;&gt;src/js/directable/dotmatrix/shape/ShapeManager.js</title>
<path fill="none" stroke="#000000" stroke-width="2" stroke-opacity="0.200000" d="M712.55,-61.29C719.05,-63.77 725.02,-67.49 729.25,-73 750.11,-100.2 715.67,-663.36 737.25,-690 740.17,-693.61 743.8,-696.4 747.84,-698.56"/>
<polygon fill="#000000" fill-opacity="0.200000" stroke="#000000" stroke-width="2" stroke-opacity="0.200000" points="746.87,-700.43 753.21,-700.81 748.48,-696.56 746.87,-700.43"/>
</g>
<!-- src/js/directable/dotmatrix/view/ViewTest.js -->
<g id="node37" class="node">
<title>src/js/directable/dotmatrix/view/ViewTest.js</title>
<g id="a_node37"><a xlink:href="src/js/directable/dotmatrix/view/ViewTest.js" xlink:title="ViewTest.js">
<path fill="#ffffcc" stroke="black" d="M824.96,-69.25C824.96,-69.25 775.54,-69.25 775.54,-69.25 772.46,-69.25 769.38,-66.17 769.38,-63.08 769.38,-63.08 769.38,-56.92 769.38,-56.92 769.38,-53.83 772.46,-50.75 775.54,-50.75 775.54,-50.75 824.96,-50.75 824.96,-50.75 828.04,-50.75 831.12,-53.83 831.12,-56.92 831.12,-56.92 831.12,-63.08 831.12,-63.08 831.12,-66.17 828.04,-69.25 824.96,-69.25"/>
<text text-anchor="start" x="777.38" y="-56.7" font-family="Helvetica,sans-Serif" font-size="9.00">ViewTest.js</text>
</a>
</g>
</g>
<!-- src/js/directable/dotmatrix/view/ViewManager.js&#45;&gt;src/js/directable/dotmatrix/view/ViewTest.js -->
<g id="edge22" class="edge">
<title>src/js/directable/dotmatrix/view/ViewManager.js&#45;&gt;src/js/directable/dotmatrix/view/ViewTest.js</title>
<path fill="none" stroke="#000000" stroke-width="2" stroke-opacity="0.200000" d="M712.69,-57.95C727.95,-58.31 745.31,-58.72 760.45,-59.08"/>
<polygon fill="#000000" fill-opacity="0.200000" stroke="#000000" stroke-width="2" stroke-opacity="0.200000" points="760.01,-61.17 766.05,-59.21 760.11,-56.97 760.01,-61.17"/>
</g>
<!-- src/js/directable/dotmatrix/dot/Dot.js -->
<g id="node10" class="node">
<title>src/js/directable/dotmatrix/dot/Dot.js</title>
<g id="a_node10"><a xlink:href="src/js/directable/dotmatrix/dot/Dot.js" xlink:title="Dot.js">
<path fill="#ffffcc" stroke="black" d="M956.71,-220.25C956.71,-220.25 915.04,-220.25 915.04,-220.25 911.96,-220.25 908.88,-217.17 908.88,-214.08 908.88,-214.08 908.88,-207.92 908.88,-207.92 908.88,-204.83 911.96,-201.75 915.04,-201.75 915.04,-201.75 956.71,-201.75 956.71,-201.75 959.79,-201.75 962.88,-204.83 962.88,-207.92 962.88,-207.92 962.88,-214.08 962.88,-214.08 962.88,-217.17 959.79,-220.25 956.71,-220.25"/>
<text text-anchor="start" x="924.25" y="-207.7" font-family="Helvetica,sans-Serif" font-size="9.00">Dot.js</text>
</a>
</g>
</g>
<!-- src/js/directable/dotmatrix/dot/DotManager.js&#45;&gt;src/js/directable/dotmatrix/dot/Dot.js -->
<g id="edge8" class="edge">
<title>src/js/directable/dotmatrix/dot/DotManager.js&#45;&gt;src/js/directable/dotmatrix/dot/Dot.js</title>
<path fill="none" stroke="#000000" stroke-width="2" stroke-opacity="0.200000" d="M838.12,-211C857.37,-211 880.8,-211 899.79,-211"/>
<polygon fill="#000000" fill-opacity="0.200000" stroke="#000000" stroke-width="2" stroke-opacity="0.200000" points="899.69,-213.1 905.69,-211 899.69,-208.9 899.69,-213.1"/>
</g>
<!-- src/js/directable/dotmatrix/dot/DotManager.js&#45;&gt;src/js/directable/dotmatrix/grid/GridData.js -->
<g id="edge7" class="edge">
<title>src/js/directable/dotmatrix/dot/DotManager.js&#45;&gt;src/js/directable/dotmatrix/grid/GridData.js</title>
<path fill="none" stroke="#000000" stroke-width="2" stroke-opacity="0.200000" d="M838.1,-202.31C844.73,-199.15 850.9,-194.85 855.25,-189 866.56,-173.77 850.71,-118.23 863.25,-104 871.45,-94.69 883.78,-90.15 895.9,-88.1"/>
<polygon fill="#000000" fill-opacity="0.200000" stroke="#000000" stroke-width="2" stroke-opacity="0.200000" points="895.93,-90.21 901.63,-87.38 895.41,-86.04 895.93,-90.21"/>
</g>
<!-- src/js/directable/dotmatrix/grid/GridRenderer.js -->
<g id="node13" class="node">
<title>src/js/directable/dotmatrix/grid/GridRenderer.js</title>
<g id="a_node13"><a xlink:href="src/js/directable/dotmatrix/grid/GridRenderer.js" xlink:title="GridRenderer.js">
<path fill="#ccffcc" stroke="black" d="M969.96,-128.25C969.96,-128.25 901.79,-128.25 901.79,-128.25 898.71,-128.25 895.62,-125.17 895.62,-122.08 895.62,-122.08 895.62,-115.92 895.62,-115.92 895.62,-112.83 898.71,-109.75 901.79,-109.75 901.79,-109.75 969.96,-109.75 969.96,-109.75 973.04,-109.75 976.12,-112.83 976.12,-115.92 976.12,-115.92 976.12,-122.08 976.12,-122.08 976.12,-125.17 973.04,-128.25 969.96,-128.25"/>
<text text-anchor="start" x="903.62" y="-115.7" font-family="Helvetica,sans-Serif" font-size="9.00">GridRenderer.js</text>
</a>
</g>
</g>
<!-- src/js/directable/dotmatrix/grid/GridRendererComponent.js -->
<g id="node14" class="node">
<title>src/js/directable/dotmatrix/grid/GridRendererComponent.js</title>
<g id="a_node14"><a xlink:href="src/js/directable/dotmatrix/grid/GridRendererComponent.js" xlink:title="GridRendererComponent.js">
<path fill="#ccffcc" stroke="black" d="M994.33,-159.25C994.33,-159.25 877.42,-159.25 877.42,-159.25 874.33,-159.25 871.25,-156.17 871.25,-153.08 871.25,-153.08 871.25,-146.92 871.25,-146.92 871.25,-143.83 874.33,-140.75 877.42,-140.75 877.42,-140.75 994.33,-140.75 994.33,-140.75 997.42,-140.75 1000.5,-143.83 1000.5,-146.92 1000.5,-146.92 1000.5,-153.08 1000.5,-153.08 1000.5,-156.17 997.42,-159.25 994.33,-159.25"/>
<text text-anchor="start" x="879.25" y="-146.7" font-family="Helvetica,sans-Serif" font-size="9.00">GridRendererComponent.js</text>
</a>
</g>
</g>
<!-- src/js/directable/dotmatrix/shape/Shape.js -->
<g id="node15" class="node">
<title>src/js/directable/dotmatrix/shape/Shape.js</title>
<g id="a_node15"><a xlink:href="src/js/directable/dotmatrix/shape/Shape.js" xlink:title="Shape.js">
<path fill="#ffffcc" stroke="black" d="M1080.33,-597.25C1080.33,-597.25 1038.67,-597.25 1038.67,-597.25 1035.58,-597.25 1032.5,-594.17 1032.5,-591.08 1032.5,-591.08 1032.5,-584.92 1032.5,-584.92 1032.5,-581.83 1035.58,-578.75 1038.67,-578.75 1038.67,-578.75 1080.33,-578.75 1080.33,-578.75 1083.42,-578.75 1086.5,-581.83 1086.5,-584.92 1086.5,-584.92 1086.5,-591.08 1086.5,-591.08 1086.5,-594.17 1083.42,-597.25 1080.33,-597.25"/>
<text text-anchor="start" x="1041.5" y="-584.7" font-family="Helvetica,sans-Serif" font-size="9.00">Shape.js</text>
</a>
</g>
</g>
<!-- src/js/directable/dotmatrix/shape/fill/FillStrategyType.js -->
<g id="node17" class="node">
<title>src/js/directable/dotmatrix/shape/fill/FillStrategyType.js</title>
<g id="a_node17"><a xlink:href="src/js/directable/dotmatrix/shape/fill/FillStrategyType.js" xlink:title="FillStrategyType.js">
<path fill="#ffffcc" stroke="black" d="M1192.33,-655.25C1192.33,-655.25 1113.67,-655.25 1113.67,-655.25 1110.58,-655.25 1107.5,-652.17 1107.5,-649.08 1107.5,-649.08 1107.5,-642.92 1107.5,-642.92 1107.5,-639.83 1110.58,-636.75 1113.67,-636.75 1113.67,-636.75 1192.33,-636.75 1192.33,-636.75 1195.42,-636.75 1198.5,-639.83 1198.5,-642.92 1198.5,-642.92 1198.5,-649.08 1198.5,-649.08 1198.5,-652.17 1195.42,-655.25 1192.33,-655.25"/>
<text text-anchor="start" x="1115.5" y="-642.7" font-family="Helvetica,sans-Serif" font-size="9.00">FillStrategyType.js</text>
</a>
</g>
</g>
<!-- src/js/directable/dotmatrix/shape/ShapeManager.js&#45;&gt;src/js/directable/dotmatrix/shape/fill/FillStrategyType.js -->
<g id="edge9" class="edge">
<title>src/js/directable/dotmatrix/shape/ShapeManager.js&#45;&gt;src/js/directable/dotmatrix/shape/fill/FillStrategyType.js</title>
<path fill="none" stroke="#000000" stroke-width="2" stroke-opacity="0.200000" d="M844.65,-698.25C848.69,-696.19 852.35,-693.5 855.25,-690 872.16,-669.59 844.61,-589.84 863.25,-571 935.62,-497.83 1003.86,-510.26 1094.5,-559 1121.59,-573.57 1138.04,-607.11 1146.05,-628.03"/>
<polygon fill="#000000" fill-opacity="0.200000" stroke="#000000" stroke-width="2" stroke-opacity="0.200000" points="1144.03,-628.6 1148.03,-633.53 1147.98,-627.18 1144.03,-628.6"/>
</g>
<!-- src/js/directable/dotmatrix/shape/fill/FillType.js -->
<g id="node18" class="node">
<title>src/js/directable/dotmatrix/shape/fill/FillType.js</title>
<g id="a_node18"><a xlink:href="src/js/directable/dotmatrix/shape/fill/FillType.js" xlink:title="FillType.js">
<path fill="#ffffcc" stroke="black" d="M1175.46,-686.25C1175.46,-686.25 1130.54,-686.25 1130.54,-686.25 1127.46,-686.25 1124.38,-683.17 1124.38,-680.08 1124.38,-680.08 1124.38,-673.92 1124.38,-673.92 1124.38,-670.83 1127.46,-667.75 1130.54,-667.75 1130.54,-667.75 1175.46,-667.75 1175.46,-667.75 1178.54,-667.75 1181.62,-670.83 1181.62,-673.92 1181.62,-673.92 1181.62,-680.08 1181.62,-680.08 1181.62,-683.17 1178.54,-686.25 1175.46,-686.25"/>
<text text-anchor="start" x="1132.38" y="-673.7" font-family="Helvetica,sans-Serif" font-size="9.00">FillType.js</text>
</a>
</g>
</g>
<!-- src/js/directable/dotmatrix/shape/ShapeManager.js&#45;&gt;src/js/directable/dotmatrix/shape/fill/FillType.js -->
<g id="edge10" class="edge">
<title>src/js/directable/dotmatrix/shape/ShapeManager.js&#45;&gt;src/js/directable/dotmatrix/shape/fill/FillType.js</title>
<path fill="none" stroke="#000000" stroke-width="2" stroke-opacity="0.200000" d="M844.51,-698.13C848.58,-696.1 852.28,-693.45 855.25,-690 877.14,-664.61 841.53,-640.54 863.25,-615 909,-561.2 946.51,-582.42 1016.5,-573 1050.86,-568.38 1068.26,-550.35 1094.5,-573 1124.43,-598.83 1082.45,-630.41 1107.5,-661 1109.9,-663.93 1112.88,-666.32 1116.15,-668.28"/>
<polygon fill="#000000" fill-opacity="0.200000" stroke="#000000" stroke-width="2" stroke-opacity="0.200000" points="1115.13,-670.12 1121.45,-670.79 1116.93,-666.32 1115.13,-670.12"/>
</g>
<!-- src/js/directable/dotmatrix/shape/line/ShapeLineHorizontal.js -->
<g id="node19" class="node">
<title>src/js/directable/dotmatrix/shape/line/ShapeLineHorizontal.js</title>
<g id="a_node19"><a xlink:href="src/js/directable/dotmatrix/shape/line/ShapeLineHorizontal.js" xlink:title="ShapeLineHorizontal.js">
<path fill="#ffffcc" stroke="black" d="M985.71,-644.25C985.71,-644.25 886.04,-644.25 886.04,-644.25 882.96,-644.25 879.88,-641.17 879.88,-638.08 879.88,-638.08 879.88,-631.92 879.88,-631.92 879.88,-628.83 882.96,-625.75 886.04,-625.75 886.04,-625.75 985.71,-625.75 985.71,-625.75 988.79,-625.75 991.88,-628.83 991.88,-631.92 991.88,-631.92 991.88,-638.08 991.88,-638.08 991.88,-641.17 988.79,-644.25 985.71,-644.25"/>
<text text-anchor="start" x="887.88" y="-631.7" font-family="Helvetica,sans-Serif" font-size="9.00">ShapeLineHorizontal.js</text>
</a>
</g>
</g>
<!-- src/js/directable/dotmatrix/shape/ShapeManager.js&#45;&gt;src/js/directable/dotmatrix/shape/line/ShapeLineHorizontal.js -->
<g id="edge11" class="edge">
<title>src/js/directable/dotmatrix/shape/ShapeManager.js&#45;&gt;src/js/directable/dotmatrix/shape/line/ShapeLineHorizontal.js</title>
<path fill="none" stroke="#000000" stroke-width="2" stroke-opacity="0.200000" d="M844.71,-697.59C848.63,-695.64 852.25,-693.16 855.25,-690 867.44,-677.17 850.85,-663.62 863.25,-651 865.74,-648.47 868.54,-646.29 871.55,-644.43"/>
<polygon fill="#000000" fill-opacity="0.200000" stroke="#000000" stroke-width="2" stroke-opacity="0.200000" points="872.32,-646.4 876.71,-641.81 870.41,-642.66 872.32,-646.4"/>
</g>
<!-- src/js/directable/dotmatrix/shape/line/ShapeLineHorizontal.js&#45;&gt;src/js/directable/dotmatrix/shape/Shape.js -->
<g id="edge18" class="edge">
<title>src/js/directable/dotmatrix/shape/line/ShapeLineHorizontal.js&#45;&gt;src/js/directable/dotmatrix/shape/Shape.js</title>
<path fill="none" stroke="#000000" stroke-width="2" stroke-opacity="0.200000" d="M992.28,-630.41C998.09,-628.37 1003.65,-625.64 1008.5,-622 1014.86,-617.23 1010.72,-611.45 1016.5,-606 1018.89,-603.74 1021.61,-601.75 1024.49,-599.99"/>
<polygon fill="#000000" fill-opacity="0.200000" stroke="#000000" stroke-width="2" stroke-opacity="0.200000" points="1025.34,-601.91 1029.67,-597.26 1023.38,-598.19 1025.34,-601.91"/>
</g>
<!-- src/js/directable/dotmatrix/shape/line/ShapeLineHorizontal.js&#45;&gt;src/js/directable/dotmatrix/shape/fill/FillStrategyType.js -->
<g id="edge16" class="edge">
<title>src/js/directable/dotmatrix/shape/line/ShapeLineHorizontal.js&#45;&gt;src/js/directable/dotmatrix/shape/fill/FillStrategyType.js</title>
<path fill="none" stroke="#000000" stroke-width="2" stroke-opacity="0.200000" d="M992.08,-625.35C997.64,-624.27 1003.19,-623.14 1008.5,-622 1012.08,-621.23 1012.86,-620.45 1016.5,-620 1050.91,-615.76 1060.61,-612.69 1094.5,-620 1105.88,-622.45 1117.72,-627.35 1127.67,-632.24"/>
<polygon fill="#000000" fill-opacity="0.200000" stroke="#000000" stroke-width="2" stroke-opacity="0.200000" points="1126.56,-634.02 1132.85,-634.9 1128.48,-630.29 1126.56,-634.02"/>
</g>
<!-- src/js/directable/dotmatrix/shape/line/ShapeLineHorizontal.js&#45;&gt;src/js/directable/dotmatrix/shape/fill/FillType.js -->
<g id="edge17" class="edge">
<title>src/js/directable/dotmatrix/shape/line/ShapeLineHorizontal.js&#45;&gt;src/js/directable/dotmatrix/shape/fill/FillType.js</title>
<path fill="none" stroke="#000000" stroke-width="2" stroke-opacity="0.200000" d="M992.33,-627.07C1030.87,-622.77 1078.14,-620.26 1094.5,-631 1106.65,-638.98 1096.9,-651.06 1107.5,-661 1110.05,-663.4 1112.99,-665.44 1116.12,-667.18"/>
<polygon fill="#000000" fill-opacity="0.200000" stroke="#000000" stroke-width="2" stroke-opacity="0.200000" points="1115.08,-669.01 1121.4,-669.63 1116.85,-665.2 1115.08,-669.01"/>
</g>
<!-- src/js/directable/dotmatrix/shape/fill/Fill.js -->
<g id="node20" class="node">
<title>src/js/directable/dotmatrix/shape/fill/Fill.js</title>
<g id="a_node20"><a xlink:href="src/js/directable/dotmatrix/shape/fill/Fill.js" xlink:title="Fill.js">
<path fill="#ffffcc" stroke="black" d="M1080.33,-686.25C1080.33,-686.25 1038.67,-686.25 1038.67,-686.25 1035.58,-686.25 1032.5,-683.17 1032.5,-680.08 1032.5,-680.08 1032.5,-673.92 1032.5,-673.92 1032.5,-670.83 1035.58,-667.75 1038.67,-667.75 1038.67,-667.75 1080.33,-667.75 1080.33,-667.75 1083.42,-667.75 1086.5,-670.83 1086.5,-673.92 1086.5,-673.92 1086.5,-680.08 1086.5,-680.08 1086.5,-683.17 1083.42,-686.25 1080.33,-686.25"/>
<text text-anchor="start" x="1049" y="-673.7" font-family="Helvetica,sans-Serif" font-size="9.00">Fill.js</text>
</a>
</g>
</g>
<!-- src/js/directable/dotmatrix/shape/line/ShapeLineHorizontal.js&#45;&gt;src/js/directable/dotmatrix/shape/fill/Fill.js -->
<g id="edge14" class="edge">
<title>src/js/directable/dotmatrix/shape/line/ShapeLineHorizontal.js&#45;&gt;src/js/directable/dotmatrix/shape/fill/Fill.js</title>
<path fill="none" stroke="#000000" stroke-width="2" stroke-opacity="0.200000" d="M992.36,-643.37C998.03,-645.39 1003.53,-647.9 1008.5,-651 1013.33,-654.01 1011.9,-657.65 1016.5,-661 1018.83,-662.7 1021.37,-664.24 1024,-665.64"/>
<polygon fill="#000000" fill-opacity="0.200000" stroke="#000000" stroke-width="2" stroke-opacity="0.200000" points="1023,-667.49 1029.33,-668.12 1024.77,-663.68 1023,-667.49"/>
</g>
<!-- src/js/directable/dotmatrix/shape/fill/FillStrategy.js -->
<g id="node21" class="node">
<title>src/js/directable/dotmatrix/shape/fill/FillStrategy.js</title>
<g id="a_node21"><a xlink:href="src/js/directable/dotmatrix/shape/fill/FillStrategy.js" xlink:title="FillStrategy.js">
<path fill="#ffffcc" stroke="black" d="M1088.33,-655.25C1088.33,-655.25 1030.67,-655.25 1030.67,-655.25 1027.58,-655.25 1024.5,-652.17 1024.5,-649.08 1024.5,-649.08 1024.5,-642.92 1024.5,-642.92 1024.5,-639.83 1027.58,-636.75 1030.67,-636.75 1030.67,-636.75 1088.33,-636.75 1088.33,-636.75 1091.42,-636.75 1094.5,-639.83 1094.5,-642.92 1094.5,-642.92 1094.5,-649.08 1094.5,-649.08 1094.5,-652.17 1091.42,-655.25 1088.33,-655.25"/>
<text text-anchor="start" x="1032.5" y="-642.7" font-family="Helvetica,sans-Serif" font-size="9.00">FillStrategy.js</text>
</a>
</g>
</g>
<!-- src/js/directable/dotmatrix/shape/line/ShapeLineHorizontal.js&#45;&gt;src/js/directable/dotmatrix/shape/fill/FillStrategy.js -->
<g id="edge15" class="edge">
<title>src/js/directable/dotmatrix/shape/line/ShapeLineHorizontal.js&#45;&gt;src/js/directable/dotmatrix/shape/fill/FillStrategy.js</title>
<path fill="none" stroke="#000000" stroke-width="2" stroke-opacity="0.200000" d="M992.35,-640.02C1000.18,-640.73 1008.14,-641.45 1015.69,-642.13"/>
<polygon fill="#000000" fill-opacity="0.200000" stroke="#000000" stroke-width="2" stroke-opacity="0.200000" points="1015.15,-644.19 1021.31,-642.64 1015.53,-640 1015.15,-644.19"/>
</g>
<!-- src/js/directable/dotmatrix/shape/fill/Fill.js&#45;&gt;src/js/directable/dotmatrix/shape/fill/FillType.js -->
<g id="edge12" class="edge">
<title>src/js/directable/dotmatrix/shape/fill/Fill.js&#45;&gt;src/js/directable/dotmatrix/shape/fill/FillType.js</title>
<path fill="none" stroke="#000000" stroke-width="2" stroke-opacity="0.200000" d="M1086.97,-677C1095.77,-677 1105.73,-677 1115.17,-677"/>
<polygon fill="#000000" fill-opacity="0.200000" stroke="#000000" stroke-width="2" stroke-opacity="0.200000" points="1114.97,-679.1 1120.97,-677 1114.97,-674.9 1114.97,-679.1"/>
</g>
<!-- src/js/directable/dotmatrix/shape/fill/FillStrategy.js&#45;&gt;src/js/directable/dotmatrix/shape/fill/FillStrategyType.js -->
<g id="edge13" class="edge">
<title>src/js/directable/dotmatrix/shape/fill/FillStrategy.js&#45;&gt;src/js/directable/dotmatrix/shape/fill/FillStrategyType.js</title>
<path fill="none" stroke="#000000" stroke-width="2" stroke-opacity="0.200000" d="M1094.83,-646C1095.97,-646 1097.12,-646 1098.28,-646"/>
<polygon fill="#000000" fill-opacity="0.200000" stroke="#000000" stroke-width="2" stroke-opacity="0.200000" points="1098.22,-648.1 1104.22,-646 1098.22,-643.9 1098.22,-648.1"/>
</g>
<!-- src/js/directable/dotmatrix/shape/glyph/ShapeGlyph_A.js -->
<g id="node22" class="node">
<title>src/js/directable/dotmatrix/shape/glyph/ShapeGlyph_A.js</title>
<g id="a_node22"><a xlink:href="src/js/directable/dotmatrix/shape/glyph/ShapeGlyph_A.js" xlink:title="ShapeGlyph_A.js">
<path fill="#ccffcc" stroke="black" d="M837.71,-289.25C837.71,-289.25 762.79,-289.25 762.79,-289.25 759.71,-289.25 756.62,-286.17 756.62,-283.08 756.62,-283.08 756.62,-276.92 756.62,-276.92 756.62,-273.83 759.71,-270.75 762.79,-270.75 762.79,-270.75 837.71,-270.75 837.71,-270.75 840.79,-270.75 843.88,-273.83 843.88,-276.92 843.88,-276.92 843.88,-283.08 843.88,-283.08 843.88,-286.17 840.79,-289.25 837.71,-289.25"/>
<text text-anchor="start" x="764.62" y="-276.7" font-family="Helvetica,sans-Serif" font-size="9.00">ShapeGlyph_A.js</text>
</a>
</g>
</g>
<!-- src/js/directable/dotmatrix/shape/glyph/ShapeGlyph_B.js -->
<g id="node23" class="node">
<title>src/js/directable/dotmatrix/shape/glyph/ShapeGlyph_B.js</title>
<g id="a_node23"><a xlink:href="src/js/directable/dotmatrix/shape/glyph/ShapeGlyph_B.js" xlink:title="ShapeGlyph_B.js">
<path fill="#ccffcc" stroke="black" d="M837.71,-320.25C837.71,-320.25 762.79,-320.25 762.79,-320.25 759.71,-320.25 756.62,-317.17 756.62,-314.08 756.62,-314.08 756.62,-307.92 756.62,-307.92 756.62,-304.83 759.71,-301.75 762.79,-301.75 762.79,-301.75 837.71,-301.75 837.71,-301.75 840.79,-301.75 843.88,-304.83 843.88,-307.92 843.88,-307.92 843.88,-314.08 843.88,-314.08 843.88,-317.17 840.79,-320.25 837.71,-320.25"/>
<text text-anchor="start" x="764.62" y="-307.7" font-family="Helvetica,sans-Serif" font-size="9.00">ShapeGlyph_B.js</text>
</a>
</g>
</g>
<!-- src/js/directable/dotmatrix/shape/glyph/ShapeGlyph_C.js -->
<g id="node24" class="node">
<title>src/js/directable/dotmatrix/shape/glyph/ShapeGlyph_C.js</title>
<g id="a_node24"><a xlink:href="src/js/directable/dotmatrix/shape/glyph/ShapeGlyph_C.js" xlink:title="ShapeGlyph_C.js">
<path fill="#ccffcc" stroke="black" d="M838.08,-351.25C838.08,-351.25 762.42,-351.25 762.42,-351.25 759.33,-351.25 756.25,-348.17 756.25,-345.08 756.25,-345.08 756.25,-338.92 756.25,-338.92 756.25,-335.83 759.33,-332.75 762.42,-332.75 762.42,-332.75 838.08,-332.75 838.08,-332.75 841.17,-332.75 844.25,-335.83 844.25,-338.92 844.25,-338.92 844.25,-345.08 844.25,-345.08 844.25,-348.17 841.17,-351.25 838.08,-351.25"/>
<text text-anchor="start" x="764.25" y="-338.7" font-family="Helvetica,sans-Serif" font-size="9.00">ShapeGlyph_C.js</text>
</a>
</g>
</g>
<!-- src/js/directable/dotmatrix/shape/glyph/ShapeGlyph_D.js -->
<g id="node25" class="node">
<title>src/js/directable/dotmatrix/shape/glyph/ShapeGlyph_D.js</title>
<g id="a_node25"><a xlink:href="src/js/directable/dotmatrix/shape/glyph/ShapeGlyph_D.js" xlink:title="ShapeGlyph_D.js">
<path fill="#ccffcc" stroke="black" d="M838.08,-382.25C838.08,-382.25 762.42,-382.25 762.42,-382.25 759.33,-382.25 756.25,-379.17 756.25,-376.08 756.25,-376.08 756.25,-369.92 756.25,-369.92 756.25,-366.83 759.33,-363.75 762.42,-363.75 762.42,-363.75 838.08,-363.75 838.08,-363.75 841.17,-363.75 844.25,-366.83 844.25,-369.92 844.25,-369.92 844.25,-376.08 844.25,-376.08 844.25,-379.17 841.17,-382.25 838.08,-382.25"/>
<text text-anchor="start" x="764.25" y="-369.7" font-family="Helvetica,sans-Serif" font-size="9.00">ShapeGlyph_D.js</text>
</a>
</g>
</g>
<!-- src/js/directable/dotmatrix/shape/glyph/ShapeGlyph_E.js -->
<g id="node26" class="node">
<title>src/js/directable/dotmatrix/shape/glyph/ShapeGlyph_E.js</title>
<g id="a_node26"><a xlink:href="src/js/directable/dotmatrix/shape/glyph/ShapeGlyph_E.js" xlink:title="ShapeGlyph_E.js">
<path fill="#ccffcc" stroke="black" d="M837.71,-413.25C837.71,-413.25 762.79,-413.25 762.79,-413.25 759.71,-413.25 756.62,-410.17 756.62,-407.08 756.62,-407.08 756.62,-400.92 756.62,-400.92 756.62,-397.83 759.71,-394.75 762.79,-394.75 762.79,-394.75 837.71,-394.75 837.71,-394.75 840.79,-394.75 843.88,-397.83 843.88,-400.92 843.88,-400.92 843.88,-407.08 843.88,-407.08 843.88,-410.17 840.79,-413.25 837.71,-413.25"/>
<text text-anchor="start" x="764.62" y="-400.7" font-family="Helvetica,sans-Serif" font-size="9.00">ShapeGlyph_E.js</text>
</a>
</g>
</g>
<!-- src/js/directable/dotmatrix/shape/glyph/ShapeGlyph_F.js -->
<g id="node27" class="node">
<title>src/js/directable/dotmatrix/shape/glyph/ShapeGlyph_F.js</title>
<g id="a_node27"><a xlink:href="src/js/directable/dotmatrix/shape/glyph/ShapeGlyph_F.js" xlink:title="ShapeGlyph_F.js">
<path fill="#ccffcc" stroke="black" d="M836.96,-444.25C836.96,-444.25 763.54,-444.25 763.54,-444.25 760.46,-444.25 757.38,-441.17 757.38,-438.08 757.38,-438.08 757.38,-431.92 757.38,-431.92 757.38,-428.83 760.46,-425.75 763.54,-425.75 763.54,-425.75 836.96,-425.75 836.96,-425.75 840.04,-425.75 843.12,-428.83 843.12,-431.92 843.12,-431.92 843.12,-438.08 843.12,-438.08 843.12,-441.17 840.04,-444.25 836.96,-444.25"/>
<text text-anchor="start" x="765.38" y="-431.7" font-family="Helvetica,sans-Serif" font-size="9.00">ShapeGlyph_F.js</text>
</a>
</g>
</g>
<!-- src/js/directable/dotmatrix/shape/glyph/ShapeGlyph_G.js -->
<g id="node28" class="node">
<title>src/js/directable/dotmatrix/shape/glyph/ShapeGlyph_G.js</title>
<g id="a_node28"><a xlink:href="src/js/directable/dotmatrix/shape/glyph/ShapeGlyph_G.js" xlink:title="ShapeGlyph_G.js">
<path fill="#ccffcc" stroke="black" d="M838.08,-475.25C838.08,-475.25 762.42,-475.25 762.42,-475.25 759.33,-475.25 756.25,-472.17 756.25,-469.08 756.25,-469.08 756.25,-462.92 756.25,-462.92 756.25,-459.83 759.33,-456.75 762.42,-456.75 762.42,-456.75 838.08,-456.75 838.08,-456.75 841.17,-456.75 844.25,-459.83 844.25,-462.92 844.25,-462.92 844.25,-469.08 844.25,-469.08 844.25,-472.17 841.17,-475.25 838.08,-475.25"/>
<text text-anchor="start" x="764.25" y="-462.7" font-family="Helvetica,sans-Serif" font-size="9.00">ShapeGlyph_G.js</text>
</a>
</g>
</g>
<!-- src/js/directable/dotmatrix/shape/glyph/ShapeGlyph_H.js -->
<g id="node29" class="node">
<title>src/js/directable/dotmatrix/shape/glyph/ShapeGlyph_H.js</title>
<g id="a_node29"><a xlink:href="src/js/directable/dotmatrix/shape/glyph/ShapeGlyph_H.js" xlink:title="ShapeGlyph_H.js">
<path fill="#ccffcc" stroke="black" d="M838.08,-506.25C838.08,-506.25 762.42,-506.25 762.42,-506.25 759.33,-506.25 756.25,-503.17 756.25,-500.08 756.25,-500.08 756.25,-493.92 756.25,-493.92 756.25,-490.83 759.33,-487.75 762.42,-487.75 762.42,-487.75 838.08,-487.75 838.08,-487.75 841.17,-487.75 844.25,-490.83 844.25,-493.92 844.25,-493.92 844.25,-500.08 844.25,-500.08 844.25,-503.17 841.17,-506.25 838.08,-506.25"/>
<text text-anchor="start" x="764.25" y="-493.7" font-family="Helvetica,sans-Serif" font-size="9.00">ShapeGlyph_H.js</text>
</a>
</g>
</g>
<!-- src/js/directable/dotmatrix/shape/glyph/ShapeGlyph_I.js -->
<g id="node30" class="node">
<title>src/js/directable/dotmatrix/shape/glyph/ShapeGlyph_I.js</title>
<g id="a_node30"><a xlink:href="src/js/directable/dotmatrix/shape/glyph/ShapeGlyph_I.js" xlink:title="ShapeGlyph_I.js">
<path fill="#ccffcc" stroke="black" d="M835.83,-537.25C835.83,-537.25 764.67,-537.25 764.67,-537.25 761.58,-537.25 758.5,-534.17 758.5,-531.08 758.5,-531.08 758.5,-524.92 758.5,-524.92 758.5,-521.83 761.58,-518.75 764.67,-518.75 764.67,-518.75 835.83,-518.75 835.83,-518.75 838.92,-518.75 842,-521.83 842,-524.92 842,-524.92 842,-531.08 842,-531.08 842,-534.17 838.92,-537.25 835.83,-537.25"/>
<text text-anchor="start" x="766.5" y="-524.7" font-family="Helvetica,sans-Serif" font-size="9.00">ShapeGlyph_I.js</text>
</a>
</g>
</g>
<!-- src/js/directable/dotmatrix/shape/glyph/ShapeGlyph_J.js -->
<g id="node31" class="node">
<title>src/js/directable/dotmatrix/shape/glyph/ShapeGlyph_J.js</title>
<g id="a_node31"><a xlink:href="src/js/directable/dotmatrix/shape/glyph/ShapeGlyph_J.js" xlink:title="ShapeGlyph_J.js">
<path fill="#ccffcc" stroke="black" d="M836.96,-568.25C836.96,-568.25 763.54,-568.25 763.54,-568.25 760.46,-568.25 757.38,-565.17 757.38,-562.08 757.38,-562.08 757.38,-555.92 757.38,-555.92 757.38,-552.83 760.46,-549.75 763.54,-549.75 763.54,-549.75 836.96,-549.75 836.96,-549.75 840.04,-549.75 843.12,-552.83 843.12,-555.92 843.12,-555.92 843.12,-562.08 843.12,-562.08 843.12,-565.17 840.04,-568.25 836.96,-568.25"/>
<text text-anchor="start" x="765.38" y="-555.7" font-family="Helvetica,sans-Serif" font-size="9.00">ShapeGlyph_J.js</text>
</a>
</g>
</g>
<!-- src/js/directable/dotmatrix/shape/glyph/ShapeGlyph_K.js -->
<g id="node32" class="node">
<title>src/js/directable/dotmatrix/shape/glyph/ShapeGlyph_K.js</title>
<g id="a_node32"><a xlink:href="src/js/directable/dotmatrix/shape/glyph/ShapeGlyph_K.js" xlink:title="ShapeGlyph_K.js">
<path fill="#ccffcc" stroke="black" d="M837.71,-599.25C837.71,-599.25 762.79,-599.25 762.79,-599.25 759.71,-599.25 756.62,-596.17 756.62,-593.08 756.62,-593.08 756.62,-586.92 756.62,-586.92 756.62,-583.83 759.71,-580.75 762.79,-580.75 762.79,-580.75 837.71,-580.75 837.71,-580.75 840.79,-580.75 843.88,-583.83 843.88,-586.92 843.88,-586.92 843.88,-593.08 843.88,-593.08 843.88,-596.17 840.79,-599.25 837.71,-599.25"/>
<text text-anchor="start" x="764.62" y="-586.7" font-family="Helvetica,sans-Serif" font-size="9.00">ShapeGlyph_K.js</text>
</a>
</g>
</g>
<!-- src/js/directable/dotmatrix/shape/line/ShapeLineVertical.js -->
<g id="node33" class="node">
<title>src/js/directable/dotmatrix/shape/line/ShapeLineVertical.js</title>
<g id="a_node33"><a xlink:href="src/js/directable/dotmatrix/shape/line/ShapeLineVertical.js" xlink:title="ShapeLineVertical.js">
<path fill="#ccffcc" stroke="black" d="M979.71,-675.25C979.71,-675.25 892.04,-675.25 892.04,-675.25 888.96,-675.25 885.88,-672.17 885.88,-669.08 885.88,-669.08 885.88,-662.92 885.88,-662.92 885.88,-659.83 888.96,-656.75 892.04,-656.75 892.04,-656.75 979.71,-656.75 979.71,-656.75 982.79,-656.75 985.88,-659.83 985.88,-662.92 985.88,-662.92 985.88,-669.08 985.88,-669.08 985.88,-672.17 982.79,-675.25 979.71,-675.25"/>
<text text-anchor="start" x="893.88" y="-662.7" font-family="Helvetica,sans-Serif" font-size="9.00">ShapeLineVertical.js</text>
</a>
</g>
</g>
<!-- src/js/directable/dotmatrix/shape/primative/ShapeRectangle.js -->
<g id="node34" class="node">
<title>src/js/directable/dotmatrix/shape/primative/ShapeRectangle.js</title>
<g id="a_node34"><a xlink:href="src/js/directable/dotmatrix/shape/primative/ShapeRectangle.js" xlink:title="ShapeRectangle.js">
<path fill="#ccffcc" stroke="black" d="M841.08,-660.25C841.08,-660.25 759.42,-660.25 759.42,-660.25 756.33,-660.25 753.25,-657.17 753.25,-654.08 753.25,-654.08 753.25,-647.92 753.25,-647.92 753.25,-644.83 756.33,-641.75 759.42,-641.75 759.42,-641.75 841.08,-641.75 841.08,-641.75 844.17,-641.75 847.25,-644.83 847.25,-647.92 847.25,-647.92 847.25,-654.08 847.25,-654.08 847.25,-657.17 844.17,-660.25 841.08,-660.25"/>
<text text-anchor="start" x="761.25" y="-647.7" font-family="Helvetica,sans-Serif" font-size="9.00">ShapeRectangle.js</text>
</a>
</g>
</g>
<!-- src/js/directable/dotmatrix/view/View.js -->
<g id="node35" class="node">
<title>src/js/directable/dotmatrix/view/View.js</title>
<g id="a_node35"><a xlink:href="src/js/directable/dotmatrix/view/View.js" xlink:title="View.js">
<path fill="#ffffcc" stroke="black" d="M692.46,-97.25C692.46,-97.25 650.79,-97.25 650.79,-97.25 647.71,-97.25 644.62,-94.17 644.62,-91.08 644.62,-91.08 644.62,-84.92 644.62,-84.92 644.62,-81.83 647.71,-78.75 650.79,-78.75 650.79,-78.75 692.46,-78.75 692.46,-78.75 695.54,-78.75 698.62,-81.83 698.62,-84.92 698.62,-84.92 698.62,-91.08 698.62,-91.08 698.62,-94.17 695.54,-97.25 692.46,-97.25"/>
<text text-anchor="start" x="657.38" y="-84.7" font-family="Helvetica,sans-Serif" font-size="9.00">View.js</text>
</a>
</g>
</g>
<!-- src/js/directable/dotmatrix/view/ViewFloor.js -->
<g id="node36" class="node">
<title>src/js/directable/dotmatrix/view/ViewFloor.js</title>
<g id="a_node36"><a xlink:href="src/js/directable/dotmatrix/view/ViewFloor.js" xlink:title="ViewFloor.js">
<path fill="#ccffcc" stroke="black" d="M698.21,-128.25C698.21,-128.25 645.04,-128.25 645.04,-128.25 641.96,-128.25 638.88,-125.17 638.88,-122.08 638.88,-122.08 638.88,-115.92 638.88,-115.92 638.88,-112.83 641.96,-109.75 645.04,-109.75 645.04,-109.75 698.21,-109.75 698.21,-109.75 701.29,-109.75 704.38,-112.83 704.38,-115.92 704.38,-115.92 704.38,-122.08 704.38,-122.08 704.38,-125.17 701.29,-128.25 698.21,-128.25"/>
<text text-anchor="start" x="646.88" y="-115.7" font-family="Helvetica,sans-Serif" font-size="9.00">ViewFloor.js</text>
</a>
</g>
</g>
<!-- src/js/directable/dotmatrix/view/ViewTest.js&#45;&gt;src/js/directable/dotmatrix/grid/GridData.js -->
<g id="edge23" class="edge">
<title>src/js/directable/dotmatrix/view/ViewTest.js&#45;&gt;src/js/directable/dotmatrix/grid/GridData.js</title>
<path fill="none" stroke="#000000" stroke-width="2" stroke-opacity="0.200000" d="M831.57,-66.35C850.62,-70.35 875.38,-75.53 895.88,-79.83"/>
<polygon fill="#000000" fill-opacity="0.200000" stroke="#000000" stroke-width="2" stroke-opacity="0.200000" points="895.41,-81.88 901.71,-81.05 896.27,-77.76 895.41,-81.88"/>
</g>
<!-- src/js/directable/dotmatrix/view/ViewTest.js&#45;&gt;src/js/directable/dotmatrix/shape/fill/FillStrategyType.js -->
<g id="edge24" class="edge">
<title>src/js/directable/dotmatrix/view/ViewTest.js&#45;&gt;src/js/directable/dotmatrix/shape/fill/FillStrategyType.js</title>
<path fill="none" stroke="#000000" stroke-width="2" stroke-opacity="0.200000" d="M825.13,-50.4C880.46,-29.89 1018.51,10.92 1094.5,-58 1137.79,-97.27 1149.58,-532.75 1151.64,-627.76"/>
<polygon fill="#000000" fill-opacity="0.200000" stroke="#000000" stroke-width="2" stroke-opacity="0.200000" points="1149.53,-627.56 1151.76,-633.51 1153.73,-627.47 1149.53,-627.56"/>
</g>
<!-- src/js/directable/dotmatrix/view/ViewTest.js&#45;&gt;src/js/directable/dotmatrix/shape/fill/FillType.js -->
<g id="edge25" class="edge">
<title>src/js/directable/dotmatrix/view/ViewTest.js&#45;&gt;src/js/directable/dotmatrix/shape/fill/FillType.js</title>
<path fill="none" stroke="#000000" stroke-width="2" stroke-opacity="0.200000" d="M831.28,-52.14C874.42,-42.7 954.65,-32.25 1008.5,-68 1083.7,-117.93 1073.53,-164.2 1094.5,-252 1099.78,-274.11 1094.13,-642.61 1107.5,-661 1109.84,-664.22 1112.9,-666.8 1116.32,-668.86"/>
<polygon fill="#000000" fill-opacity="0.200000" stroke="#000000" stroke-width="2" stroke-opacity="0.200000" points="1115.16,-670.64 1121.48,-671.3 1116.95,-666.84 1115.16,-670.64"/>
</g>
<!-- src/js/directable/dotmatrix/view/ViewTextTest.js -->
<g id="node38" class="node">
<title>src/js/directable/dotmatrix/view/ViewTextTest.js</title>
<g id="a_node38"><a xlink:href="src/js/directable/dotmatrix/view/ViewTextTest.js" xlink:title="ViewTextTest.js">
<path fill="#ccffcc" stroke="black" d="M704.58,-159.25C704.58,-159.25 638.67,-159.25 638.67,-159.25 635.58,-159.25 632.5,-156.17 632.5,-153.08 632.5,-153.08 632.5,-146.92 632.5,-146.92 632.5,-143.83 635.58,-140.75 638.67,-140.75 638.67,-140.75 704.58,-140.75 704.58,-140.75 707.67,-140.75 710.75,-143.83 710.75,-146.92 710.75,-146.92 710.75,-153.08 710.75,-153.08 710.75,-156.17 707.67,-159.25 704.58,-159.25"/>
<text text-anchor="start" x="640.5" y="-146.7" font-family="Helvetica,sans-Serif" font-size="9.00">ViewTextTest.js</text>
</a>
</g>
</g>
<!-- src/js/directable/frame/DirectableFrame.js -->
<g id="node39" class="node">
<title>src/js/directable/frame/DirectableFrame.js</title>
<g id="a_node39"><a xlink:href="src/js/directable/frame/DirectableFrame.js" xlink:title="DirectableFrame.js">
<path fill="#ffffcc" stroke="black" d="M563.71,-801.25C563.71,-801.25 482.79,-801.25 482.79,-801.25 479.71,-801.25 476.62,-798.17 476.62,-795.08 476.62,-795.08 476.62,-788.92 476.62,-788.92 476.62,-785.83 479.71,-782.75 482.79,-782.75 482.79,-782.75 563.71,-782.75 563.71,-782.75 566.79,-782.75 569.88,-785.83 569.88,-788.92 569.88,-788.92 569.88,-795.08 569.88,-795.08 569.88,-798.17 566.79,-801.25 563.71,-801.25"/>
<text text-anchor="start" x="484.62" y="-788.7" font-family="Helvetica,sans-Serif" font-size="9.00">DirectableFrame.js</text>
</a>
</g>
</g>
<!-- src/js/directable/rhythm/DirectableRhythm.js -->
<g id="node40" class="node">
<title>src/js/directable/rhythm/DirectableRhythm.js</title>
<g id="a_node40"><a xlink:href="src/js/directable/rhythm/DirectableRhythm.js" xlink:title="DirectableRhythm.js">
<path fill="#ffffcc" stroke="black" d="M714.71,-993.25C714.71,-993.25 628.54,-993.25 628.54,-993.25 625.46,-993.25 622.38,-990.17 622.38,-987.08 622.38,-987.08 622.38,-980.92 622.38,-980.92 622.38,-977.83 625.46,-974.75 628.54,-974.75 628.54,-974.75 714.71,-974.75 714.71,-974.75 717.79,-974.75 720.88,-977.83 720.88,-980.92 720.88,-980.92 720.88,-987.08 720.88,-987.08 720.88,-990.17 717.79,-993.25 714.71,-993.25"/>
<text text-anchor="start" x="630.38" y="-980.7" font-family="Helvetica,sans-Serif" font-size="9.00">DirectableRhythm.js</text>
</a>
</g>
</g>
<!-- src/js/directable/rhythm/asdr/ASDRData.js -->
<g id="node41" class="node">
<title>src/js/directable/rhythm/asdr/ASDRData.js</title>
<g id="a_node41"><a xlink:href="src/js/directable/rhythm/asdr/ASDRData.js" xlink:title="ASDRData.js">
<path fill="#ccffcc" stroke="black" d="M552.08,-870.25C552.08,-870.25 494.42,-870.25 494.42,-870.25 491.33,-870.25 488.25,-867.17 488.25,-864.08 488.25,-864.08 488.25,-857.92 488.25,-857.92 488.25,-854.83 491.33,-851.75 494.42,-851.75 494.42,-851.75 552.08,-851.75 552.08,-851.75 555.17,-851.75 558.25,-854.83 558.25,-857.92 558.25,-857.92 558.25,-864.08 558.25,-864.08 558.25,-867.17 555.17,-870.25 552.08,-870.25"/>
<text text-anchor="start" x="496.25" y="-857.7" font-family="Helvetica,sans-Serif" font-size="9.00">ASDRData.js</text>
</a>
</g>
</g>
<!-- src/js/directable/rhythm/asdr/ASDREnvelope.js -->
<g id="node42" class="node">
<title>src/js/directable/rhythm/asdr/ASDREnvelope.js</title>
<g id="a_node42"><a xlink:href="src/js/directable/rhythm/asdr/ASDREnvelope.js" xlink:title="ASDREnvelope.js">
<path fill="#ffffcc" stroke="black" d="M561.83,-901.25C561.83,-901.25 484.67,-901.25 484.67,-901.25 481.58,-901.25 478.5,-898.17 478.5,-895.08 478.5,-895.08 478.5,-888.92 478.5,-888.92 478.5,-885.83 481.58,-882.75 484.67,-882.75 484.67,-882.75 561.83,-882.75 561.83,-882.75 564.92,-882.75 568,-885.83 568,-888.92 568,-888.92 568,-895.08 568,-895.08 568,-898.17 564.92,-901.25 561.83,-901.25"/>
<text text-anchor="start" x="486.5" y="-888.7" font-family="Helvetica,sans-Serif" font-size="9.00">ASDREnvelope.js</text>
</a>
</g>
</g>
<!-- src/js/directable/rhythm/asdr/DirectableRhythmASDRManager.js -->
<g id="node43" class="node">
<title>src/js/directable/rhythm/asdr/DirectableRhythmASDRManager.js</title>
<g id="a_node43"><a xlink:href="src/js/directable/rhythm/asdr/DirectableRhythmASDRManager.js" xlink:title="DirectableRhythmASDRManager.js">
<path fill="#ffffcc" stroke="black" d="M597.08,-932.25C597.08,-932.25 449.42,-932.25 449.42,-932.25 446.33,-932.25 443.25,-929.17 443.25,-926.08 443.25,-926.08 443.25,-919.92 443.25,-919.92 443.25,-916.83 446.33,-913.75 449.42,-913.75 449.42,-913.75 597.08,-913.75 597.08,-913.75 600.17,-913.75 603.25,-916.83 603.25,-919.92 603.25,-919.92 603.25,-926.08 603.25,-926.08 603.25,-929.17 600.17,-932.25 597.08,-932.25"/>
<text text-anchor="start" x="451.25" y="-919.7" font-family="Helvetica,sans-Serif" font-size="9.00">DirectableRhythmASDRManager.js</text>
</a>
</g>
</g>
<!-- src/js/directable/rhythm/bpm/DirectableRhythmBPM.js -->
<g id="node44" class="node">
<title>src/js/directable/rhythm/bpm/DirectableRhythmBPM.js</title>
<g id="a_node44"><a xlink:href="src/js/directable/rhythm/bpm/DirectableRhythmBPM.js" xlink:title="DirectableRhythmBPM.js">
<path fill="#ffffcc" stroke="black" d="M576.08,-993.25C576.08,-993.25 470.42,-993.25 470.42,-993.25 467.33,-993.25 464.25,-990.17 464.25,-987.08 464.25,-987.08 464.25,-980.92 464.25,-980.92 464.25,-977.83 467.33,-974.75 470.42,-974.75 470.42,-974.75 576.08,-974.75 576.08,-974.75 579.17,-974.75 582.25,-977.83 582.25,-980.92 582.25,-980.92 582.25,-987.08 582.25,-987.08 582.25,-990.17 579.17,-993.25 576.08,-993.25"/>
<text text-anchor="start" x="472.25" y="-980.7" font-family="Helvetica,sans-Serif" font-size="9.00">DirectableRhythmBPM.js</text>
</a>
</g>
</g>
<!-- src/js/directable/rhythm/bpm/DirectableRhythmBPM.js&#45;&gt;src/js/directable/rhythm/DirectableRhythm.js -->
<g id="edge26" class="edge">
<title>src/js/directable/rhythm/bpm/DirectableRhythmBPM.js&#45;&gt;src/js/directable/rhythm/DirectableRhythm.js</title>
<path fill="none" stroke="#000000" stroke-width="2" stroke-opacity="0.200000" d="M582.52,-984C592.63,-984 603.14,-984 613.23,-984"/>
<polygon fill="#000000" fill-opacity="0.200000" stroke="#000000" stroke-width="2" stroke-opacity="0.200000" points="612.94,-986.1 618.94,-984 612.94,-981.9 612.94,-986.1"/>
</g>
<!-- src/js/directable/rhythm2/ViewRhythm.js -->
<g id="node45" class="node">
<title>src/js/directable/rhythm2/ViewRhythm.js</title>
<g id="a_node45"><a xlink:href="src/js/directable/rhythm2/ViewRhythm.js" xlink:title="ViewRhythm.js">
<path fill="#ffffcc" stroke="black" d="M555.46,-1081.25C555.46,-1081.25 491.04,-1081.25 491.04,-1081.25 487.96,-1081.25 484.88,-1078.17 484.88,-1075.08 484.88,-1075.08 484.88,-1068.92 484.88,-1068.92 484.88,-1065.83 487.96,-1062.75 491.04,-1062.75 491.04,-1062.75 555.46,-1062.75 555.46,-1062.75 558.54,-1062.75 561.62,-1065.83 561.62,-1068.92 561.62,-1068.92 561.62,-1075.08 561.62,-1075.08 561.62,-1078.17 558.54,-1081.25 555.46,-1081.25"/>
<text text-anchor="start" x="492.88" y="-1068.7" font-family="Helvetica,sans-Serif" font-size="9.00">ViewRhythm.js</text>
</a>
</g>
</g>
<!-- src/js/directable/rhythm2/ViewRhythmTrack.js -->
<g id="node46" class="node">
<title>src/js/directable/rhythm2/ViewRhythmTrack.js</title>
<g id="a_node46"><a xlink:href="src/js/directable/rhythm2/ViewRhythmTrack.js" xlink:title="ViewRhythmTrack.js">
<path fill="#ffffcc" stroke="black" d="M715.08,-1081.25C715.08,-1081.25 628.17,-1081.25 628.17,-1081.25 625.08,-1081.25 622,-1078.17 622,-1075.08 622,-1075.08 622,-1068.92 622,-1068.92 622,-1065.83 625.08,-1062.75 628.17,-1062.75 628.17,-1062.75 715.08,-1062.75 715.08,-1062.75 718.17,-1062.75 721.25,-1065.83 721.25,-1068.92 721.25,-1068.92 721.25,-1075.08 721.25,-1075.08 721.25,-1078.17 718.17,-1081.25 715.08,-1081.25"/>
<text text-anchor="start" x="630" y="-1068.7" font-family="Helvetica,sans-Serif" font-size="9.00">ViewRhythmTrack.js</text>
</a>
</g>
</g>
<!-- src/js/directable/rhythm2/ViewRhythm.js&#45;&gt;src/js/directable/rhythm2/ViewRhythmTrack.js -->
<g id="edge27" class="edge">
<title>src/js/directable/rhythm2/ViewRhythm.js&#45;&gt;src/js/directable/rhythm2/ViewRhythmTrack.js</title>
<path fill="none" stroke="#000000" stroke-width="2" stroke-opacity="0.200000" d="M561.95,-1072C577.45,-1072 595.77,-1072 612.9,-1072"/>
<polygon fill="#000000" fill-opacity="0.200000" stroke="#000000" stroke-width="2" stroke-opacity="0.200000" points="612.7,-1074.1 618.7,-1072 612.7,-1069.9 612.7,-1074.1"/>
</g>
<!-- src/js/enum/DisplayFormats.js -->
<g id="node48" class="node">
<title>src/js/enum/DisplayFormats.js</title>
<g id="a_node48"><a xlink:href="src/js/enum/DisplayFormats.js" xlink:title="DisplayFormats.js">
<path fill="#ffffcc" stroke="black" d="M709.83,-1387.25C709.83,-1387.25 633.42,-1387.25 633.42,-1387.25 630.33,-1387.25 627.25,-1384.17 627.25,-1381.08 627.25,-1381.08 627.25,-1374.92 627.25,-1374.92 627.25,-1371.83 630.33,-1368.75 633.42,-1368.75 633.42,-1368.75 709.83,-1368.75 709.83,-1368.75 712.92,-1368.75 716,-1371.83 716,-1374.92 716,-1374.92 716,-1381.08 716,-1381.08 716,-1384.17 712.92,-1387.25 709.83,-1387.25"/>
<text text-anchor="start" x="635.25" y="-1374.7" font-family="Helvetica,sans-Serif" font-size="9.00">DisplayFormats.js</text>
</a>
</g>
</g>
<!-- src/js/index.js -->
<g id="node49" class="node">
<title>src/js/index.js</title>
<g id="a_node49"><a xlink:href="src/js/index.js" xlink:title="index.js">
<path fill="#ffffcc" stroke="black" d="M94.96,-1268.25C94.96,-1268.25 53.29,-1268.25 53.29,-1268.25 50.21,-1268.25 47.12,-1265.17 47.12,-1262.08 47.12,-1262.08 47.12,-1255.92 47.12,-1255.92 47.12,-1252.83 50.21,-1249.75 53.29,-1249.75 53.29,-1249.75 94.96,-1249.75 94.96,-1249.75 98.04,-1249.75 101.12,-1252.83 101.12,-1255.92 101.12,-1255.92 101.12,-1262.08 101.12,-1262.08 101.12,-1265.17 98.04,-1268.25 94.96,-1268.25"/>
<text text-anchor="start" x="58.38" y="-1255.7" font-family="Helvetica,sans-Serif" font-size="9.00">index.js</text>
</a>
</g>
</g>
<!-- src/js/index.js&#45;&gt;src/js/application/Application.js -->
<g id="edge30" class="edge">
<title>src/js/index.js&#45;&gt;src/js/application/Application.js</title>
<path fill="none" stroke="#000000" stroke-width="2" stroke-opacity="0.200000" d="M101.59,-1259C108.42,-1259 115.95,-1259 123.39,-1259"/>
<polygon fill="#000000" fill-opacity="0.200000" stroke="#000000" stroke-width="2" stroke-opacity="0.200000" points="123.01,-1261.1 129.01,-1259 123.01,-1256.9 123.01,-1261.1"/>
</g>
<!-- src/js/overlay/displayFormat/OverlayDisplayFormat.js&#45;&gt;src/js/enum/DisplayFormats.js -->
<g id="edge33" class="edge">
<title>src/js/overlay/displayFormat/OverlayDisplayFormat.js&#45;&gt;src/js/enum/DisplayFormats.js</title>
<path fill="none" stroke="#000000" stroke-width="2" stroke-opacity="0.200000" d="M536.33,-1299.59C553.89,-1313.25 587.8,-1338.58 619.25,-1356 624.85,-1359.1 630.98,-1362.07 636.99,-1364.76"/>
<polygon fill="#000000" fill-opacity="0.200000" stroke="#000000" stroke-width="2" stroke-opacity="0.200000" points="635.93,-1366.59 642.28,-1367.05 637.6,-1362.74 635.93,-1366.59"/>
</g>
<!-- src/js/overlay/OverlayUtil.js -->
<g id="node52" class="node">
<title>src/js/overlay/OverlayUtil.js</title>
<g id="a_node52"><a xlink:href="src/js/overlay/OverlayUtil.js" xlink:title="OverlayUtil.js">
<path fill="#ffffcc" stroke="black" d="M700.46,-1268.25C700.46,-1268.25 642.79,-1268.25 642.79,-1268.25 639.71,-1268.25 636.62,-1265.17 636.62,-1262.08 636.62,-1262.08 636.62,-1255.92 636.62,-1255.92 636.62,-1252.83 639.71,-1249.75 642.79,-1249.75 642.79,-1249.75 700.46,-1249.75 700.46,-1249.75 703.54,-1249.75 706.62,-1252.83 706.62,-1255.92 706.62,-1255.92 706.62,-1262.08 706.62,-1262.08 706.62,-1265.17 703.54,-1268.25 700.46,-1268.25"/>
<text text-anchor="start" x="644.62" y="-1255.7" font-family="Helvetica,sans-Serif" font-size="9.00">OverlayUtil.js</text>
</a>
</g>
</g>
<!-- src/js/overlay/displayFormat/OverlayDisplayFormat.js&#45;&gt;src/js/overlay/OverlayUtil.js -->
<g id="edge34" class="edge">
<title>src/js/overlay/displayFormat/OverlayDisplayFormat.js&#45;&gt;src/js/overlay/OverlayUtil.js</title>
<path fill="none" stroke="#000000" stroke-width="2" stroke-opacity="0.200000" d="M570.16,-1280.28C588.61,-1276.37 609.75,-1271.89 627.87,-1268.06"/>
<polygon fill="#000000" fill-opacity="0.200000" stroke="#000000" stroke-width="2" stroke-opacity="0.200000" points="628.1,-1270.15 633.53,-1266.86 627.22,-1266.04 628.1,-1270.15"/>
</g>
<!-- src/js/overlay/overlay/OverlayOverlay.js&#45;&gt;src/js/overlay/OverlayUtil.js -->
<g id="edge35" class="edge">
<title>src/js/overlay/overlay/OverlayOverlay.js&#45;&gt;src/js/overlay/OverlayUtil.js</title>
<path fill="none" stroke="#000000" stroke-width="2" stroke-opacity="0.200000" d="M566.98,-1237.76C586.07,-1241.67 608.52,-1246.27 627.63,-1250.19"/>
<polygon fill="#000000" fill-opacity="0.200000" stroke="#000000" stroke-width="2" stroke-opacity="0.200000" points="627.17,-1252.24 633.47,-1251.39 628.02,-1248.12 627.17,-1252.24"/>
</g>
<!-- src/js/render/RenderResizer.js&#45;&gt;src/js/enum/DisplayFormats.js -->
<g id="edge38" class="edge">
<title>src/js/render/RenderResizer.js&#45;&gt;src/js/enum/DisplayFormats.js</title>
<path fill="none" stroke="#000000" stroke-width="2" stroke-opacity="0.200000" d="M566.98,-1378C583.01,-1378 601.4,-1378 618.2,-1378"/>
<polygon fill="#000000" fill-opacity="0.200000" stroke="#000000" stroke-width="2" stroke-opacity="0.200000" points="617.8,-1380.1 623.8,-1378 617.8,-1375.9 617.8,-1380.1"/>
</g>
</g>
</svg>
