<?xml version="1.0" encoding="UTF-8" standalone="no"?>
<!DOCTYPE svg PUBLIC "-//W3C//DTD SVG 1.1//EN"
 "http://www.w3.org/Graphics/SVG/1.1/DTD/svg11.dtd">
<!-- Generated by graphviz version 12.2.1 (20241206.2353)
 -->
<!-- Title: dependency&#45;cruiser output Pages: 1 -->
<svg width="946pt" height="1335pt"
 viewBox="0.00 0.00 946.38 1335.00" xmlns="http://www.w3.org/2000/svg" xmlns:xlink="http://www.w3.org/1999/xlink">
<g id="graph0" class="graph" transform="scale(1 1) rotate(0) translate(4 1331)">
<title>dependency&#45;cruiser output</title>
<polygon fill="white" stroke="none" points="-4,4 -4,-1331 942.38,-1331 942.38,4 -4,4"/>
<g id="clust1" class="cluster">
<title>cluster_src</title>
<path fill="#ffffff" stroke="black" stroke-width="2" d="M20,-8C20,-8 918.38,-8 918.38,-8 924.38,-8 930.38,-14 930.38,-20 930.38,-20 930.38,-1307 930.38,-1307 930.38,-1313 924.38,-1319 918.38,-1319 918.38,-1319 20,-1319 20,-1319 14,-1319 8,-1313 8,-1307 8,-1307 8,-20 8,-20 8,-14 14,-8 20,-8"/>
<text text-anchor="middle" x="469.19" y="-1306.45" font-family="Helvetica,sans-Serif" font-weight="bold" font-size="9.00">src</text>
</g>
<g id="clust2" class="cluster">
<title>cluster_src/js</title>
<path fill="#ffffff" stroke="black" stroke-width="2" d="M28,-16C28,-16 910.38,-16 910.38,-16 916.38,-16 922.38,-22 922.38,-28 922.38,-28 922.38,-1280 922.38,-1280 922.38,-1286 916.38,-1292 910.38,-1292 910.38,-1292 28,-1292 28,-1292 22,-1292 16,-1286 16,-1280 16,-1280 16,-28 16,-28 16,-22 22,-16 28,-16"/>
<text text-anchor="middle" x="469.19" y="-1279.45" font-family="Helvetica,sans-Serif" font-weight="bold" font-size="9.00">js</text>
</g>
<g id="clust3" class="cluster">
<title>cluster_src/js/application</title>
<path fill="#ffffff" stroke="black" stroke-width="2" d="M274.88,-1212C274.88,-1212 337.62,-1212 337.62,-1212 343.62,-1212 349.62,-1218 349.62,-1224 349.62,-1224 349.62,-1253 349.62,-1253 349.62,-1259 343.62,-1265 337.62,-1265 337.62,-1265 274.88,-1265 274.88,-1265 268.88,-1265 262.88,-1259 262.88,-1253 262.88,-1253 262.88,-1224 262.88,-1224 262.88,-1218 268.88,-1212 274.88,-1212"/>
<text text-anchor="middle" x="306.25" y="-1252.45" font-family="Helvetica,sans-Serif" font-weight="bold" font-size="9.00">application</text>
</g>
<g id="clust4" class="cluster">
<title>cluster_src/js/controller</title>
<path fill="#ffffff" stroke="black" stroke-width="2" d="M80.75,-194C80.75,-194 137.5,-194 137.5,-194 143.5,-194 149.5,-200 149.5,-206 149.5,-206 149.5,-235 149.5,-235 149.5,-241 143.5,-247 137.5,-247 137.5,-247 80.75,-247 80.75,-247 74.75,-247 68.75,-241 68.75,-235 68.75,-235 68.75,-206 68.75,-206 68.75,-200 74.75,-194 80.75,-194"/>
<text text-anchor="middle" x="109.12" y="-234.45" font-family="Helvetica,sans-Serif" font-weight="bold" font-size="9.00">controller</text>
</g>
<g id="clust5" class="cluster">
<title>cluster_src/js/data</title>
<path fill="#ffffff" stroke="black" stroke-width="2" d="M71,-496C71,-496 329.75,-496 329.75,-496 335.75,-496 341.75,-502 341.75,-508 341.75,-508 341.75,-537 341.75,-537 341.75,-543 335.75,-549 329.75,-549 329.75,-549 71,-549 71,-549 65,-549 59,-543 59,-537 59,-537 59,-508 59,-508 59,-502 65,-496 71,-496"/>
<text text-anchor="middle" x="200.38" y="-536.45" font-family="Helvetica,sans-Serif" font-weight="bold" font-size="9.00">data</text>
</g>
<g id="clust6" class="cluster">
<title>cluster_src/js/directable</title>
<path fill="#ffffff" stroke="black" stroke-width="2" d="M206.25,-653C206.25,-653 619.5,-653 619.5,-653 625.5,-653 631.5,-659 631.5,-665 631.5,-665 631.5,-1044 631.5,-1044 631.5,-1050 625.5,-1056 619.5,-1056 619.5,-1056 206.25,-1056 206.25,-1056 200.25,-1056 194.25,-1050 194.25,-1044 194.25,-1044 194.25,-665 194.25,-665 194.25,-659 200.25,-653 206.25,-653"/>
<text text-anchor="middle" x="412.88" y="-1043.45" font-family="Helvetica,sans-Serif" font-weight="bold" font-size="9.00">directable</text>
</g>
<g id="clust7" class="cluster">
<title>cluster_src/js/directable/directables</title>
<path fill="#ffffff" stroke="black" stroke-width="2" d="M214.25,-661C214.25,-661 514.62,-661 514.62,-661 520.62,-661 526.62,-667 526.62,-673 526.62,-673 526.62,-1017 526.62,-1017 526.62,-1023 520.62,-1029 514.62,-1029 514.62,-1029 214.25,-1029 214.25,-1029 208.25,-1029 202.25,-1023 202.25,-1017 202.25,-1017 202.25,-673 202.25,-673 202.25,-667 208.25,-661 214.25,-661"/>
<text text-anchor="middle" x="364.44" y="-1016.45" font-family="Helvetica,sans-Serif" font-weight="bold" font-size="9.00">directables</text>
</g>
<g id="clust8" class="cluster">
<title>cluster_src/js/directable/directables/frame</title>
<path fill="#ffffff" stroke="black" stroke-width="2" d="M263.62,-888C263.62,-888 348.88,-888 348.88,-888 354.88,-888 360.88,-894 360.88,-900 360.88,-900 360.88,-929 360.88,-929 360.88,-935 354.88,-941 348.88,-941 348.88,-941 263.62,-941 263.62,-941 257.62,-941 251.62,-935 251.62,-929 251.62,-929 251.62,-900 251.62,-900 251.62,-894 257.62,-888 263.62,-888"/>
<text text-anchor="middle" x="306.25" y="-928.45" font-family="Helvetica,sans-Serif" font-weight="bold" font-size="9.00">frame</text>
</g>
<g id="clust9" class="cluster">
<title>cluster_src/js/directable/directables/rhythm</title>
<path fill="#ffffff" stroke="black" stroke-width="2" d="M222.25,-669C222.25,-669 506.62,-669 506.62,-669 512.62,-669 518.62,-675 518.62,-681 518.62,-681 518.62,-868 518.62,-868 518.62,-874 512.62,-880 506.62,-880 506.62,-880 222.25,-880 222.25,-880 216.25,-880 210.25,-874 210.25,-868 210.25,-868 210.25,-681 210.25,-681 210.25,-675 216.25,-669 222.25,-669"/>
<text text-anchor="middle" x="364.44" y="-867.45" font-family="Helvetica,sans-Serif" font-weight="bold" font-size="9.00">rhythm</text>
</g>
<g id="clust10" class="cluster">
<title>cluster_src/js/directable/directables/rhythm/asdr</title>
<path fill="#ffffff" stroke="black" stroke-width="2" d="M230.25,-677C230.25,-677 382.25,-677 382.25,-677 388.25,-677 394.25,-683 394.25,-689 394.25,-689 394.25,-780 394.25,-780 394.25,-786 388.25,-792 382.25,-792 382.25,-792 230.25,-792 230.25,-792 224.25,-792 218.25,-786 218.25,-780 218.25,-780 218.25,-689 218.25,-689 218.25,-683 224.25,-677 230.25,-677"/>
<text text-anchor="middle" x="306.25" y="-779.45" font-family="Helvetica,sans-Serif" font-weight="bold" font-size="9.00">asdr</text>
</g>
<g id="clust11" class="cluster">
<title>cluster_src/js/directable/directables/rhythm/bpm</title>
<path fill="#ffffff" stroke="black" stroke-width="2" d="M251.25,-800C251.25,-800 361.25,-800 361.25,-800 367.25,-800 373.25,-806 373.25,-812 373.25,-812 373.25,-841 373.25,-841 373.25,-847 367.25,-853 361.25,-853 361.25,-853 251.25,-853 251.25,-853 245.25,-853 239.25,-847 239.25,-841 239.25,-841 239.25,-812 239.25,-812 239.25,-806 245.25,-800 251.25,-800"/>
<text text-anchor="middle" x="306.25" y="-840.45" font-family="Helvetica,sans-Serif" font-weight="bold" font-size="9.00">bpm</text>
</g>
<g id="clust12" class="cluster">
<title>cluster_src/js/directable/directables/title</title>
<path fill="#ffffff" stroke="black" stroke-width="2" d="M268.12,-949C268.12,-949 344.38,-949 344.38,-949 350.38,-949 356.38,-955 356.38,-961 356.38,-961 356.38,-990 356.38,-990 356.38,-996 350.38,-1002 344.38,-1002 344.38,-1002 268.12,-1002 268.12,-1002 262.12,-1002 256.12,-996 256.12,-990 256.12,-990 256.12,-961 256.12,-961 256.12,-955 262.12,-949 268.12,-949"/>
<text text-anchor="middle" x="306.25" y="-989.45" font-family="Helvetica,sans-Serif" font-weight="bold" font-size="9.00">title</text>
</g>
<g id="clust13" class="cluster">
<title>cluster_src/js/director</title>
<path fill="#ffffff" stroke="black" stroke-width="2" d="M36,-557C36,-557 330.5,-557 330.5,-557 336.5,-557 342.5,-563 342.5,-569 342.5,-569 342.5,-633 342.5,-633 342.5,-639 336.5,-645 330.5,-645 330.5,-645 36,-645 36,-645 30,-645 24,-639 24,-633 24,-633 24,-569 24,-569 24,-563 30,-557 36,-557"/>
<text text-anchor="middle" x="183.25" y="-632.45" font-family="Helvetica,sans-Serif" font-weight="bold" font-size="9.00">director</text>
</g>
<g id="clust14" class="cluster">
<title>cluster_src/js/director/directors</title>
<path fill="#ffffff" stroke="black" stroke-width="2" d="M44,-565C44,-565 174.25,-565 174.25,-565 180.25,-565 186.25,-571 186.25,-577 186.25,-577 186.25,-606 186.25,-606 186.25,-612 180.25,-618 174.25,-618 174.25,-618 44,-618 44,-618 38,-618 32,-612 32,-606 32,-606 32,-577 32,-577 32,-571 38,-565 44,-565"/>
<text text-anchor="middle" x="109.12" y="-605.45" font-family="Helvetica,sans-Serif" font-weight="bold" font-size="9.00">directors</text>
</g>
<g id="clust15" class="cluster">
<title>cluster_src/js/event</title>
<path fill="#ffffff" stroke="black" stroke-width="2" d="M44.38,-1064C44.38,-1064 349.25,-1064 349.25,-1064 355.25,-1064 361.25,-1070 361.25,-1076 361.25,-1076 361.25,-1105 361.25,-1105 361.25,-1111 355.25,-1117 349.25,-1117 349.25,-1117 44.38,-1117 44.38,-1117 38.38,-1117 32.38,-1111 32.38,-1105 32.38,-1105 32.38,-1076 32.38,-1076 32.38,-1070 38.38,-1064 44.38,-1064"/>
<text text-anchor="middle" x="196.81" y="-1104.45" font-family="Helvetica,sans-Serif" font-weight="bold" font-size="9.00">event</text>
</g>
<g id="clust16" class="cluster">
<title>cluster_src/js/overlay</title>
<path fill="#ffffff" stroke="black" stroke-width="2" d="M282.38,-24C282.38,-24 902.38,-24 902.38,-24 908.38,-24 914.38,-30 914.38,-36 914.38,-36 914.38,-476 914.38,-476 914.38,-482 908.38,-488 902.38,-488 902.38,-488 282.38,-488 282.38,-488 276.38,-488 270.38,-482 270.38,-476 270.38,-476 270.38,-36 270.38,-36 270.38,-30 276.38,-24 282.38,-24"/>
<text text-anchor="middle" x="592.38" y="-475.45" font-family="Helvetica,sans-Serif" font-weight="bold" font-size="9.00">overlay</text>
</g>
<g id="clust17" class="cluster">
<title>cluster_src/js/overlay/capture</title>
<path fill="#ffffff" stroke="black" stroke-width="2" d="M420.62,-42C420.62,-42 502.12,-42 502.12,-42 508.12,-42 514.12,-48 514.12,-54 514.12,-54 514.12,-83 514.12,-83 514.12,-89 508.12,-95 502.12,-95 502.12,-95 420.62,-95 420.62,-95 414.62,-95 408.62,-89 408.62,-83 408.62,-83 408.62,-54 408.62,-54 408.62,-48 414.62,-42 420.62,-42"/>
<text text-anchor="middle" x="461.38" y="-82.45" font-family="Helvetica,sans-Serif" font-weight="bold" font-size="9.00">capture</text>
</g>
<g id="clust18" class="cluster">
<title>cluster_src/js/overlay/dispatcher</title>
<path fill="#ffffff" stroke="black" stroke-width="2" d="M665.38,-225C665.38,-225 894.38,-225 894.38,-225 900.38,-225 906.38,-231 906.38,-237 906.38,-237 906.38,-266 906.38,-266 906.38,-272 900.38,-278 894.38,-278 894.38,-278 665.38,-278 665.38,-278 659.38,-278 653.38,-272 653.38,-266 653.38,-266 653.38,-237 653.38,-237 653.38,-231 659.38,-225 665.38,-225"/>
<text text-anchor="middle" x="779.88" y="-265.45" font-family="Helvetica,sans-Serif" font-weight="bold" font-size="9.00">dispatcher</text>
</g>
<g id="clust19" class="cluster">
<title>cluster_src/js/overlay/format</title>
<path fill="#ffffff" stroke="black" stroke-width="2" d="M422.88,-103C422.88,-103 499.88,-103 499.88,-103 505.88,-103 511.88,-109 511.88,-115 511.88,-115 511.88,-144 511.88,-144 511.88,-150 505.88,-156 499.88,-156 499.88,-156 422.88,-156 422.88,-156 416.88,-156 410.88,-150 410.88,-144 410.88,-144 410.88,-115 410.88,-115 410.88,-109 416.88,-103 422.88,-103"/>
<text text-anchor="middle" x="461.38" y="-143.45" font-family="Helvetica,sans-Serif" font-weight="bold" font-size="9.00">format</text>
</g>
<g id="clust20" class="cluster">
<title>cluster_src/js/overlay/media</title>
<path fill="#ffffff" stroke="black" stroke-width="2" d="M424.38,-164C424.38,-164 498.38,-164 498.38,-164 504.38,-164 510.38,-170 510.38,-176 510.38,-176 510.38,-205 510.38,-205 510.38,-211 504.38,-217 498.38,-217 498.38,-217 424.38,-217 424.38,-217 418.38,-217 412.38,-211 412.38,-205 412.38,-205 412.38,-176 412.38,-176 412.38,-170 418.38,-164 424.38,-164"/>
<text text-anchor="middle" x="461.38" y="-204.45" font-family="Helvetica,sans-Serif" font-weight="bold" font-size="9.00">media</text>
</g>
<g id="clust21" class="cluster">
<title>cluster_src/js/overlay/overlay</title>
<path fill="#ffffff" stroke="black" stroke-width="2" d="M421.75,-225C421.75,-225 501,-225 501,-225 507,-225 513,-231 513,-237 513,-237 513,-266 513,-266 513,-272 507,-278 501,-278 501,-278 421.75,-278 421.75,-278 415.75,-278 409.75,-272 409.75,-266 409.75,-266 409.75,-237 409.75,-237 409.75,-231 415.75,-225 421.75,-225"/>
<text text-anchor="middle" x="461.38" y="-265.45" font-family="Helvetica,sans-Serif" font-weight="bold" font-size="9.00">overlay</text>
</g>
<g id="clust22" class="cluster">
<title>cluster_src/js/overlay/pathtracer</title>
<path fill="#ffffff" stroke="black" stroke-width="2" d="M415,-286C415,-286 507.75,-286 507.75,-286 513.75,-286 519.75,-292 519.75,-298 519.75,-298 519.75,-327 519.75,-327 519.75,-333 513.75,-339 507.75,-339 507.75,-339 415,-339 415,-339 409,-339 403,-333 403,-327 403,-327 403,-298 403,-298 403,-292 409,-286 415,-286"/>
<text text-anchor="middle" x="461.38" y="-326.45" font-family="Helvetica,sans-Serif" font-weight="bold" font-size="9.00">pathtracer</text>
</g>
<g id="clust23" class="cluster">
<title>cluster_src/js/overlay/rhythm</title>
<path fill="#ffffff" stroke="black" stroke-width="2" d="M421.38,-347C421.38,-347 501.38,-347 501.38,-347 507.38,-347 513.38,-353 513.38,-359 513.38,-359 513.38,-388 513.38,-388 513.38,-394 507.38,-400 501.38,-400 501.38,-400 421.38,-400 421.38,-400 415.38,-400 409.38,-394 409.38,-388 409.38,-388 409.38,-359 409.38,-359 409.38,-353 415.38,-347 421.38,-347"/>
<text text-anchor="middle" x="461.38" y="-387.45" font-family="Helvetica,sans-Serif" font-weight="bold" font-size="9.00">rhythm</text>
</g>
<g id="clust24" class="cluster">
<title>cluster_src/js/overlay/teleprompt</title>
<path fill="#ffffff" stroke="black" stroke-width="2" d="M414.25,-408C414.25,-408 508.5,-408 508.5,-408 514.5,-408 520.5,-414 520.5,-420 520.5,-420 520.5,-449 520.5,-449 520.5,-455 514.5,-461 508.5,-461 508.5,-461 414.25,-461 414.25,-461 408.25,-461 402.25,-455 402.25,-449 402.25,-449 402.25,-420 402.25,-420 402.25,-414 408.25,-408 414.25,-408"/>
<text text-anchor="middle" x="461.38" y="-448.45" font-family="Helvetica,sans-Serif" font-weight="bold" font-size="9.00">teleprompt</text>
</g>
<g id="clust25" class="cluster">
<title>cluster_src/js/renderer</title>
<path fill="#ffffff" stroke="black" stroke-width="2" d="M546.62,-1064C546.62,-1064 633.38,-1064 633.38,-1064 639.38,-1064 645.38,-1070 645.38,-1076 645.38,-1076 645.38,-1105 645.38,-1105 645.38,-1111 639.38,-1117 633.38,-1117 633.38,-1117 546.62,-1117 546.62,-1117 540.62,-1117 534.62,-1111 534.62,-1105 534.62,-1105 534.62,-1076 534.62,-1076 534.62,-1070 540.62,-1064 546.62,-1064"/>
<text text-anchor="middle" x="590" y="-1104.45" font-family="Helvetica,sans-Serif" font-weight="bold" font-size="9.00">renderer</text>
</g>
<g id="clust26" class="cluster">
<title>cluster_src/js/rhythm</title>
<path fill="#ffffff" stroke="black" stroke-width="2" d="M74.75,-1125C74.75,-1125 351.88,-1125 351.88,-1125 357.88,-1125 363.88,-1131 363.88,-1137 363.88,-1137 363.88,-1166 363.88,-1166 363.88,-1172 357.88,-1178 351.88,-1178 351.88,-1178 74.75,-1178 74.75,-1178 68.75,-1178 62.75,-1172 62.75,-1166 62.75,-1166 62.75,-1137 62.75,-1137 62.75,-1131 68.75,-1125 74.75,-1125"/>
<text text-anchor="middle" x="213.31" y="-1165.45" font-family="Helvetica,sans-Serif" font-weight="bold" font-size="9.00">rhythm</text>
</g>
<g id="clust27" class="cluster">
<title>cluster_src/js/view</title>
<path fill="#ffffff" stroke="black" stroke-width="2" d="M86.12,-1186C86.12,-1186 132.12,-1186 132.12,-1186 138.12,-1186 144.12,-1192 144.12,-1198 144.12,-1198 144.12,-1227 144.12,-1227 144.12,-1233 138.12,-1239 132.12,-1239 132.12,-1239 86.12,-1239 86.12,-1239 80.12,-1239 74.12,-1233 74.12,-1227 74.12,-1227 74.12,-1198 74.12,-1198 74.12,-1192 80.12,-1186 86.12,-1186"/>
<text text-anchor="middle" x="109.12" y="-1226.45" font-family="Helvetica,sans-Serif" font-weight="bold" font-size="9.00">view</text>
</g>
<!-- src/js/application/Application.js -->
<g id="node1" class="node">
<title>src/js/application/Application.js</title>
<g id="a_node1"><a xlink:href="src/js/application/Application.js" xlink:title="Application.js">
<path fill="#ffffcc" stroke="black" d="M335.46,-1238.25C335.46,-1238.25 277.04,-1238.25 277.04,-1238.25 273.96,-1238.25 270.88,-1235.17 270.88,-1232.08 270.88,-1232.08 270.88,-1225.92 270.88,-1225.92 270.88,-1222.83 273.96,-1219.75 277.04,-1219.75 277.04,-1219.75 335.46,-1219.75 335.46,-1219.75 338.54,-1219.75 341.62,-1222.83 341.62,-1225.92 341.62,-1225.92 341.62,-1232.08 341.62,-1232.08 341.62,-1235.17 338.54,-1238.25 335.46,-1238.25"/>
<text text-anchor="start" x="278.88" y="-1225.7" font-family="Helvetica,sans-Serif" font-size="9.00">Application.js</text>
</a>
</g>
</g>
<!-- src/js/controller/Controller.js -->
<g id="node2" class="node">
<title>src/js/controller/Controller.js</title>
<g id="a_node2"><a xlink:href="src/js/controller/Controller.js" xlink:title="Controller.js">
<path fill="#ffffcc" stroke="black" d="M135.33,-220.25C135.33,-220.25 82.92,-220.25 82.92,-220.25 79.83,-220.25 76.75,-217.17 76.75,-214.08 76.75,-214.08 76.75,-207.92 76.75,-207.92 76.75,-204.83 79.83,-201.75 82.92,-201.75 82.92,-201.75 135.33,-201.75 135.33,-201.75 138.42,-201.75 141.5,-204.83 141.5,-207.92 141.5,-207.92 141.5,-214.08 141.5,-214.08 141.5,-217.17 138.42,-220.25 135.33,-220.25"/>
<text text-anchor="start" x="84.75" y="-207.7" font-family="Helvetica,sans-Serif" font-size="9.00">Controller.js</text>
</a>
</g>
</g>
<!-- src/js/overlay/Overlay.js -->
<g id="node3" class="node">
<title>src/js/overlay/Overlay.js</title>
<g id="a_node3"><a xlink:href="src/js/overlay/Overlay.js" xlink:title="Overlay.js">
<path fill="#ffffcc" stroke="black" d="M327.96,-220.25C327.96,-220.25 284.54,-220.25 284.54,-220.25 281.46,-220.25 278.38,-217.17 278.38,-214.08 278.38,-214.08 278.38,-207.92 278.38,-207.92 278.38,-204.83 281.46,-201.75 284.54,-201.75 284.54,-201.75 327.96,-201.75 327.96,-201.75 331.04,-201.75 334.12,-204.83 334.12,-207.92 334.12,-207.92 334.12,-214.08 334.12,-214.08 334.12,-217.17 331.04,-220.25 327.96,-220.25"/>
<text text-anchor="start" x="286.38" y="-207.7" font-family="Helvetica,sans-Serif" font-size="9.00">Overlay.js</text>
</a>
</g>
</g>
<!-- src/js/controller/Controller.js&#45;&gt;src/js/overlay/Overlay.js -->
<g id="edge1" class="edge">
<title>src/js/controller/Controller.js&#45;&gt;src/js/overlay/Overlay.js</title>
<path fill="none" stroke="#000000" stroke-width="2" stroke-opacity="0.200000" d="M141.91,-211C176.75,-211 232.55,-211 269.05,-211"/>
<polygon fill="#000000" fill-opacity="0.200000" stroke="#000000" stroke-width="2" stroke-opacity="0.200000" points="268.87,-213.1 274.87,-211 268.87,-208.9 268.87,-213.1"/>
</g>
<!-- src/js/overlay/capture/OverlayCapture.js -->
<g id="node19" class="node">
<title>src/js/overlay/capture/OverlayCapture.js</title>
<g id="a_node19"><a xlink:href="src/js/overlay/capture/OverlayCapture.js" xlink:title="OverlayCapture.js">
<path fill="#ffffcc" stroke="black" d="M499.96,-68.25C499.96,-68.25 422.79,-68.25 422.79,-68.25 419.71,-68.25 416.62,-65.17 416.62,-62.08 416.62,-62.08 416.62,-55.92 416.62,-55.92 416.62,-52.83 419.71,-49.75 422.79,-49.75 422.79,-49.75 499.96,-49.75 499.96,-49.75 503.04,-49.75 506.12,-52.83 506.12,-55.92 506.12,-55.92 506.12,-62.08 506.12,-62.08 506.12,-65.17 503.04,-68.25 499.96,-68.25"/>
<text text-anchor="start" x="424.62" y="-55.7" font-family="Helvetica,sans-Serif" font-size="9.00">OverlayCapture.js</text>
</a>
</g>
</g>
<!-- src/js/overlay/Overlay.js&#45;&gt;src/js/overlay/capture/OverlayCapture.js -->
<g id="edge12" class="edge">
<title>src/js/overlay/Overlay.js&#45;&gt;src/js/overlay/capture/OverlayCapture.js</title>
<path fill="none" stroke="#000000" stroke-width="2" stroke-opacity="0.200000" d="M314.17,-201.39C328.96,-181.24 365.3,-133.64 402.25,-100 413.08,-90.14 426.36,-80.61 437.48,-73.23"/>
<polygon fill="#000000" fill-opacity="0.200000" stroke="#000000" stroke-width="2" stroke-opacity="0.200000" points="438.36,-75.16 442.25,-70.13 436.07,-71.64 438.36,-75.16"/>
</g>
<!-- src/js/overlay/dispatcher/OverlayDispatcher.js -->
<g id="node20" class="node">
<title>src/js/overlay/dispatcher/OverlayDispatcher.js</title>
<g id="a_node20"><a xlink:href="src/js/overlay/dispatcher/OverlayDispatcher.js" xlink:title="OverlayDispatcher.js">
<path fill="#ffffcc" stroke="black" d="M755.21,-251.25C755.21,-251.25 667.54,-251.25 667.54,-251.25 664.46,-251.25 661.38,-248.17 661.38,-245.08 661.38,-245.08 661.38,-238.92 661.38,-238.92 661.38,-235.83 664.46,-232.75 667.54,-232.75 667.54,-232.75 755.21,-232.75 755.21,-232.75 758.29,-232.75 761.38,-235.83 761.38,-238.92 761.38,-238.92 761.38,-245.08 761.38,-245.08 761.38,-248.17 758.29,-251.25 755.21,-251.25"/>
<text text-anchor="start" x="669.38" y="-238.7" font-family="Helvetica,sans-Serif" font-size="9.00">OverlayDispatcher.js</text>
</a>
</g>
</g>
<!-- src/js/overlay/Overlay.js&#45;&gt;src/js/overlay/dispatcher/OverlayDispatcher.js -->
<g id="edge13" class="edge">
<title>src/js/overlay/Overlay.js&#45;&gt;src/js/overlay/dispatcher/OverlayDispatcher.js</title>
<path fill="none" stroke="#000000" stroke-width="2" stroke-opacity="0.200000" d="M309.01,-201.63C315.23,-171.37 339.38,-76.1 402.25,-39 449.86,-10.91 476.1,-16.58 526.62,-39 615.06,-78.24 679.02,-183.39 701.53,-224.85"/>
<polygon fill="#000000" fill-opacity="0.200000" stroke="#000000" stroke-width="2" stroke-opacity="0.200000" points="699.6,-225.7 704.27,-230.01 703.31,-223.73 699.6,-225.7"/>
</g>
<!-- src/js/overlay/format/OverlayFormat.js -->
<g id="node21" class="node">
<title>src/js/overlay/format/OverlayFormat.js</title>
<g id="a_node21"><a xlink:href="src/js/overlay/format/OverlayFormat.js" xlink:title="OverlayFormat.js">
<path fill="#ffffcc" stroke="black" d="M497.71,-129.25C497.71,-129.25 425.04,-129.25 425.04,-129.25 421.96,-129.25 418.88,-126.17 418.88,-123.08 418.88,-123.08 418.88,-116.92 418.88,-116.92 418.88,-113.83 421.96,-110.75 425.04,-110.75 425.04,-110.75 497.71,-110.75 497.71,-110.75 500.79,-110.75 503.88,-113.83 503.88,-116.92 503.88,-116.92 503.88,-123.08 503.88,-123.08 503.88,-126.17 500.79,-129.25 497.71,-129.25"/>
<text text-anchor="start" x="426.88" y="-116.7" font-family="Helvetica,sans-Serif" font-size="9.00">OverlayFormat.js</text>
</a>
</g>
</g>
<!-- src/js/overlay/Overlay.js&#45;&gt;src/js/overlay/format/OverlayFormat.js -->
<g id="edge14" class="edge">
<title>src/js/overlay/Overlay.js&#45;&gt;src/js/overlay/format/OverlayFormat.js</title>
<path fill="none" stroke="#000000" stroke-width="2" stroke-opacity="0.200000" d="M323.64,-201.26C350.81,-185.11 405.29,-152.74 436.66,-134.09"/>
<polygon fill="#000000" fill-opacity="0.200000" stroke="#000000" stroke-width="2" stroke-opacity="0.200000" points="437.42,-136.09 441.5,-131.22 435.27,-132.48 437.42,-136.09"/>
</g>
<!-- src/js/overlay/media/OverlayMedia.js -->
<g id="node22" class="node">
<title>src/js/overlay/media/OverlayMedia.js</title>
<g id="a_node22"><a xlink:href="src/js/overlay/media/OverlayMedia.js" xlink:title="OverlayMedia.js">
<path fill="#ffffcc" stroke="black" d="M496.21,-190.25C496.21,-190.25 426.54,-190.25 426.54,-190.25 423.46,-190.25 420.38,-187.17 420.38,-184.08 420.38,-184.08 420.38,-177.92 420.38,-177.92 420.38,-174.83 423.46,-171.75 426.54,-171.75 426.54,-171.75 496.21,-171.75 496.21,-171.75 499.29,-171.75 502.38,-174.83 502.38,-177.92 502.38,-177.92 502.38,-184.08 502.38,-184.08 502.38,-187.17 499.29,-190.25 496.21,-190.25"/>
<text text-anchor="start" x="428.38" y="-177.7" font-family="Helvetica,sans-Serif" font-size="9.00">OverlayMedia.js</text>
</a>
</g>
</g>
<!-- src/js/overlay/Overlay.js&#45;&gt;src/js/overlay/media/OverlayMedia.js -->
<g id="edge15" class="edge">
<title>src/js/overlay/Overlay.js&#45;&gt;src/js/overlay/media/OverlayMedia.js</title>
<path fill="none" stroke="#000000" stroke-width="2" stroke-opacity="0.200000" d="M334.27,-205.71C355.55,-201.54 385.76,-195.62 411.29,-190.62"/>
<polygon fill="#000000" fill-opacity="0.200000" stroke="#000000" stroke-width="2" stroke-opacity="0.200000" points="411.64,-192.69 417.12,-189.47 410.83,-188.57 411.64,-192.69"/>
</g>
<!-- src/js/overlay/overlay/OverlayOverlay.js -->
<g id="node23" class="node">
<title>src/js/overlay/overlay/OverlayOverlay.js</title>
<g id="a_node23"><a xlink:href="src/js/overlay/overlay/OverlayOverlay.js" xlink:title="OverlayOverlay.js">
<path fill="#ffffcc" stroke="black" d="M498.83,-251.25C498.83,-251.25 423.92,-251.25 423.92,-251.25 420.83,-251.25 417.75,-248.17 417.75,-245.08 417.75,-245.08 417.75,-238.92 417.75,-238.92 417.75,-235.83 420.83,-232.75 423.92,-232.75 423.92,-232.75 498.83,-232.75 498.83,-232.75 501.92,-232.75 505,-235.83 505,-238.92 505,-238.92 505,-245.08 505,-245.08 505,-248.17 501.92,-251.25 498.83,-251.25"/>
<text text-anchor="start" x="425.75" y="-238.7" font-family="Helvetica,sans-Serif" font-size="9.00">OverlayOverlay.js</text>
</a>
</g>
</g>
<!-- src/js/overlay/Overlay.js&#45;&gt;src/js/overlay/overlay/OverlayOverlay.js -->
<g id="edge16" class="edge">
<title>src/js/overlay/Overlay.js&#45;&gt;src/js/overlay/overlay/OverlayOverlay.js</title>
<path fill="none" stroke="#000000" stroke-width="2" stroke-opacity="0.200000" d="M334.27,-216.47C354.86,-220.64 383.81,-226.5 408.78,-231.56"/>
<polygon fill="#000000" fill-opacity="0.200000" stroke="#000000" stroke-width="2" stroke-opacity="0.200000" points="408.17,-233.57 414.46,-232.71 409,-229.46 408.17,-233.57"/>
</g>
<!-- src/js/overlay/pathtracer/OverlayPathTracer.js -->
<g id="node24" class="node">
<title>src/js/overlay/pathtracer/OverlayPathTracer.js</title>
<g id="a_node24"><a xlink:href="src/js/overlay/pathtracer/OverlayPathTracer.js" xlink:title="OverlayPathTracer.js">
<path fill="#ffffcc" stroke="black" d="M505.58,-312.25C505.58,-312.25 417.17,-312.25 417.17,-312.25 414.08,-312.25 411,-309.17 411,-306.08 411,-306.08 411,-299.92 411,-299.92 411,-296.83 414.08,-293.75 417.17,-293.75 417.17,-293.75 505.58,-293.75 505.58,-293.75 508.67,-293.75 511.75,-296.83 511.75,-299.92 511.75,-299.92 511.75,-306.08 511.75,-306.08 511.75,-309.17 508.67,-312.25 505.58,-312.25"/>
<text text-anchor="start" x="419" y="-299.7" font-family="Helvetica,sans-Serif" font-size="9.00">OverlayPathTracer.js</text>
</a>
</g>
</g>
<!-- src/js/overlay/Overlay.js&#45;&gt;src/js/overlay/pathtracer/OverlayPathTracer.js -->
<g id="edge17" class="edge">
<title>src/js/overlay/Overlay.js&#45;&gt;src/js/overlay/pathtracer/OverlayPathTracer.js</title>
<path fill="none" stroke="#000000" stroke-width="2" stroke-opacity="0.200000" d="M318.27,-220.7C335.3,-235.31 369.5,-263.18 402.25,-281 408.38,-284.34 415.12,-287.39 421.78,-290.09"/>
<polygon fill="#000000" fill-opacity="0.200000" stroke="#000000" stroke-width="2" stroke-opacity="0.200000" points="420.93,-292.02 427.29,-292.23 422.45,-288.1 420.93,-292.02"/>
</g>
<!-- src/js/overlay/rhythm/OverlayRhythm.js -->
<g id="node25" class="node">
<title>src/js/overlay/rhythm/OverlayRhythm.js</title>
<g id="a_node25"><a xlink:href="src/js/overlay/rhythm/OverlayRhythm.js" xlink:title="OverlayRhythm.js">
<path fill="#ffffcc" stroke="black" d="M499.21,-373.25C499.21,-373.25 423.54,-373.25 423.54,-373.25 420.46,-373.25 417.38,-370.17 417.38,-367.08 417.38,-367.08 417.38,-360.92 417.38,-360.92 417.38,-357.83 420.46,-354.75 423.54,-354.75 423.54,-354.75 499.21,-354.75 499.21,-354.75 502.29,-354.75 505.38,-357.83 505.38,-360.92 505.38,-360.92 505.38,-367.08 505.38,-367.08 505.38,-370.17 502.29,-373.25 499.21,-373.25"/>
<text text-anchor="start" x="425.38" y="-360.7" font-family="Helvetica,sans-Serif" font-size="9.00">OverlayRhythm.js</text>
</a>
</g>
</g>
<!-- src/js/overlay/Overlay.js&#45;&gt;src/js/overlay/rhythm/OverlayRhythm.js -->
<g id="edge18" class="edge">
<title>src/js/overlay/Overlay.js&#45;&gt;src/js/overlay/rhythm/OverlayRhythm.js</title>
<path fill="none" stroke="#000000" stroke-width="2" stroke-opacity="0.200000" d="M311.78,-220.71C323.43,-244.68 356.72,-307.2 402.25,-342 406.64,-345.35 411.6,-348.25 416.72,-350.73"/>
<polygon fill="#000000" fill-opacity="0.200000" stroke="#000000" stroke-width="2" stroke-opacity="0.200000" points="415.74,-352.59 422.08,-353.08 417.43,-348.74 415.74,-352.59"/>
</g>
<!-- src/js/overlay/teleprompt/OverlayTeleprompt.js -->
<g id="node26" class="node">
<title>src/js/overlay/teleprompt/OverlayTeleprompt.js</title>
<g id="a_node26"><a xlink:href="src/js/overlay/teleprompt/OverlayTeleprompt.js" xlink:title="OverlayTeleprompt.js">
<path fill="#ffffcc" stroke="black" d="M506.33,-434.25C506.33,-434.25 416.42,-434.25 416.42,-434.25 413.33,-434.25 410.25,-431.17 410.25,-428.08 410.25,-428.08 410.25,-421.92 410.25,-421.92 410.25,-418.83 413.33,-415.75 416.42,-415.75 416.42,-415.75 506.33,-415.75 506.33,-415.75 509.42,-415.75 512.5,-418.83 512.5,-421.92 512.5,-421.92 512.5,-428.08 512.5,-428.08 512.5,-431.17 509.42,-434.25 506.33,-434.25"/>
<text text-anchor="start" x="418.25" y="-421.7" font-family="Helvetica,sans-Serif" font-size="9.00">OverlayTeleprompt.js</text>
</a>
</g>
</g>
<!-- src/js/overlay/Overlay.js&#45;&gt;src/js/overlay/teleprompt/OverlayTeleprompt.js -->
<g id="edge19" class="edge">
<title>src/js/overlay/Overlay.js&#45;&gt;src/js/overlay/teleprompt/OverlayTeleprompt.js</title>
<path fill="none" stroke="#000000" stroke-width="2" stroke-opacity="0.200000" d="M309.32,-220.49C316.52,-251.29 343.29,-349.54 402.25,-403 405.85,-406.26 409.98,-409.06 414.34,-411.45"/>
<polygon fill="#000000" fill-opacity="0.200000" stroke="#000000" stroke-width="2" stroke-opacity="0.200000" points="413.33,-413.3 419.65,-414.01 415.16,-409.51 413.33,-413.3"/>
</g>
<!-- src/js/data/Data.json -->
<g id="node4" class="node">
<title>src/js/data/Data.json</title>
<g id="a_node4"><a xlink:href="src/js/data/Data.json" xlink:title="Data.json">
<path fill="#ffee44" stroke="black" d="M327.58,-522.25C327.58,-522.25 284.92,-522.25 284.92,-522.25 281.83,-522.25 278.75,-519.17 278.75,-516.08 278.75,-516.08 278.75,-509.92 278.75,-509.92 278.75,-506.83 281.83,-503.75 284.92,-503.75 284.92,-503.75 327.58,-503.75 327.58,-503.75 330.67,-503.75 333.75,-506.83 333.75,-509.92 333.75,-509.92 333.75,-516.08 333.75,-516.08 333.75,-519.17 330.67,-522.25 327.58,-522.25"/>
<text text-anchor="start" x="286.75" y="-509.7" font-family="Helvetica,sans-Serif" font-size="9.00">Data.json</text>
</a>
</g>
</g>
<!-- src/js/data/DataController.js -->
<g id="node5" class="node">
<title>src/js/data/DataController.js</title>
<g id="a_node5"><a xlink:href="src/js/data/DataController.js" xlink:title="DataController.js">
<path fill="#ffffcc" stroke="black" d="M145.08,-522.25C145.08,-522.25 73.17,-522.25 73.17,-522.25 70.08,-522.25 67,-519.17 67,-516.08 67,-516.08 67,-509.92 67,-509.92 67,-506.83 70.08,-503.75 73.17,-503.75 73.17,-503.75 145.08,-503.75 145.08,-503.75 148.17,-503.75 151.25,-506.83 151.25,-509.92 151.25,-509.92 151.25,-516.08 151.25,-516.08 151.25,-519.17 148.17,-522.25 145.08,-522.25"/>
<text text-anchor="start" x="75" y="-509.7" font-family="Helvetica,sans-Serif" font-size="9.00">DataController.js</text>
</a>
</g>
</g>
<!-- src/js/data/DataController.js&#45;&gt;src/js/data/Data.json -->
<g id="edge2" class="edge">
<title>src/js/data/DataController.js&#45;&gt;src/js/data/Data.json</title>
<path fill="none" stroke="#000000" stroke-width="2" stroke-opacity="0.200000" d="M151.51,-513C186.48,-513 236.06,-513 269.37,-513"/>
<polygon fill="#000000" fill-opacity="0.200000" stroke="#000000" stroke-width="2" stroke-opacity="0.200000" points="269.28,-515.1 275.28,-513 269.28,-510.9 269.28,-515.1"/>
</g>
<!-- src/js/directable/Directable.js -->
<g id="node6" class="node">
<title>src/js/directable/Directable.js</title>
<g id="a_node6"><a xlink:href="src/js/directable/Directable.js" xlink:title="Directable.js">
<path fill="#ffffcc" stroke="black" d="M617.33,-914.25C617.33,-914.25 562.67,-914.25 562.67,-914.25 559.58,-914.25 556.5,-911.17 556.5,-908.08 556.5,-908.08 556.5,-901.92 556.5,-901.92 556.5,-898.83 559.58,-895.75 562.67,-895.75 562.67,-895.75 617.33,-895.75 617.33,-895.75 620.42,-895.75 623.5,-898.83 623.5,-901.92 623.5,-901.92 623.5,-908.08 623.5,-908.08 623.5,-911.17 620.42,-914.25 617.33,-914.25"/>
<text text-anchor="start" x="564.5" y="-901.7" font-family="Helvetica,sans-Serif" font-size="9.00">Directable.js</text>
</a>
</g>
</g>
<!-- src/js/directable/directables/frame/DirectableFrame.js -->
<g id="node7" class="node">
<title>src/js/directable/directables/frame/DirectableFrame.js</title>
<g id="a_node7"><a xlink:href="src/js/directable/directables/frame/DirectableFrame.js" xlink:title="DirectableFrame.js">
<path fill="#ffffcc" stroke="black" d="M346.71,-914.25C346.71,-914.25 265.79,-914.25 265.79,-914.25 262.71,-914.25 259.62,-911.17 259.62,-908.08 259.62,-908.08 259.62,-901.92 259.62,-901.92 259.62,-898.83 262.71,-895.75 265.79,-895.75 265.79,-895.75 346.71,-895.75 346.71,-895.75 349.79,-895.75 352.88,-898.83 352.88,-901.92 352.88,-901.92 352.88,-908.08 352.88,-908.08 352.88,-911.17 349.79,-914.25 346.71,-914.25"/>
<text text-anchor="start" x="267.62" y="-901.7" font-family="Helvetica,sans-Serif" font-size="9.00">DirectableFrame.js</text>
</a>
</g>
</g>
<!-- src/js/directable/directables/frame/DirectableFrame.js&#45;&gt;src/js/directable/Directable.js -->
<g id="edge3" class="edge">
<title>src/js/directable/directables/frame/DirectableFrame.js&#45;&gt;src/js/directable/Directable.js</title>
<path fill="none" stroke="#000000" stroke-width="2" stroke-opacity="0.200000" d="M353.15,-905C406.98,-905 495.47,-905 547.38,-905"/>
<polygon fill="#000000" fill-opacity="0.200000" stroke="#000000" stroke-width="2" stroke-opacity="0.200000" points="547.3,-907.1 553.3,-905 547.3,-902.9 547.3,-907.1"/>
</g>
<!-- src/js/directable/directables/rhythm/DirectableRhythm.js -->
<g id="node8" class="node">
<title>src/js/directable/directables/rhythm/DirectableRhythm.js</title>
<g id="a_node8"><a xlink:href="src/js/directable/directables/rhythm/DirectableRhythm.js" xlink:title="DirectableRhythm.js">
<path fill="#ffffcc" stroke="black" d="M504.46,-839.25C504.46,-839.25 418.29,-839.25 418.29,-839.25 415.21,-839.25 412.12,-836.17 412.12,-833.08 412.12,-833.08 412.12,-826.92 412.12,-826.92 412.12,-823.83 415.21,-820.75 418.29,-820.75 418.29,-820.75 504.46,-820.75 504.46,-820.75 507.54,-820.75 510.62,-823.83 510.62,-826.92 510.62,-826.92 510.62,-833.08 510.62,-833.08 510.62,-836.17 507.54,-839.25 504.46,-839.25"/>
<text text-anchor="start" x="420.12" y="-826.7" font-family="Helvetica,sans-Serif" font-size="9.00">DirectableRhythm.js</text>
</a>
</g>
</g>
<!-- src/js/directable/directables/rhythm/DirectableRhythm.js&#45;&gt;src/js/directable/Directable.js -->
<g id="edge4" class="edge">
<title>src/js/directable/directables/rhythm/DirectableRhythm.js&#45;&gt;src/js/directable/Directable.js</title>
<path fill="none" stroke="#000000" stroke-width="2" stroke-opacity="0.200000" d="M510.82,-836.6C516.32,-838.27 521.71,-840.37 526.62,-843 547.26,-854.04 565.55,-874.08 576.9,-888.39"/>
<polygon fill="#000000" fill-opacity="0.200000" stroke="#000000" stroke-width="2" stroke-opacity="0.200000" points="575.02,-889.39 580.34,-892.88 578.35,-886.84 575.02,-889.39"/>
</g>
<!-- src/js/directable/directables/rhythm/asdr/ASDRData.js -->
<g id="node9" class="node">
<title>src/js/directable/directables/rhythm/asdr/ASDRData.js</title>
<g id="a_node9"><a xlink:href="src/js/directable/directables/rhythm/asdr/ASDRData.js" xlink:title="ASDRData.js">
<path fill="#ccffcc" stroke="black" d="M335.08,-703.25C335.08,-703.25 277.42,-703.25 277.42,-703.25 274.33,-703.25 271.25,-700.17 271.25,-697.08 271.25,-697.08 271.25,-690.92 271.25,-690.92 271.25,-687.83 274.33,-684.75 277.42,-684.75 277.42,-684.75 335.08,-684.75 335.08,-684.75 338.17,-684.75 341.25,-687.83 341.25,-690.92 341.25,-690.92 341.25,-697.08 341.25,-697.08 341.25,-700.17 338.17,-703.25 335.08,-703.25"/>
<text text-anchor="start" x="279.25" y="-690.7" font-family="Helvetica,sans-Serif" font-size="9.00">ASDRData.js</text>
</a>
</g>
</g>
<!-- src/js/directable/directables/rhythm/asdr/ASDREnvelope.js -->
<g id="node10" class="node">
<title>src/js/directable/directables/rhythm/asdr/ASDREnvelope.js</title>
<g id="a_node10"><a xlink:href="src/js/directable/directables/rhythm/asdr/ASDREnvelope.js" xlink:title="ASDREnvelope.js">
<path fill="#ffffcc" stroke="black" d="M344.83,-734.25C344.83,-734.25 267.67,-734.25 267.67,-734.25 264.58,-734.25 261.5,-731.17 261.5,-728.08 261.5,-728.08 261.5,-721.92 261.5,-721.92 261.5,-718.83 264.58,-715.75 267.67,-715.75 267.67,-715.75 344.83,-715.75 344.83,-715.75 347.92,-715.75 351,-718.83 351,-721.92 351,-721.92 351,-728.08 351,-728.08 351,-731.17 347.92,-734.25 344.83,-734.25"/>
<text text-anchor="start" x="269.5" y="-721.7" font-family="Helvetica,sans-Serif" font-size="9.00">ASDREnvelope.js</text>
</a>
</g>
</g>
<!-- src/js/directable/directables/rhythm/asdr/DirectableRhythmASDRManager.js -->
<g id="node11" class="node">
<title>src/js/directable/directables/rhythm/asdr/DirectableRhythmASDRManager.js</title>
<g id="a_node11"><a xlink:href="src/js/directable/directables/rhythm/asdr/DirectableRhythmASDRManager.js" xlink:title="DirectableRhythmASDRManager.js">
<path fill="#ffffcc" stroke="black" d="M380.08,-765.25C380.08,-765.25 232.42,-765.25 232.42,-765.25 229.33,-765.25 226.25,-762.17 226.25,-759.08 226.25,-759.08 226.25,-752.92 226.25,-752.92 226.25,-749.83 229.33,-746.75 232.42,-746.75 232.42,-746.75 380.08,-746.75 380.08,-746.75 383.17,-746.75 386.25,-749.83 386.25,-752.92 386.25,-752.92 386.25,-759.08 386.25,-759.08 386.25,-762.17 383.17,-765.25 380.08,-765.25"/>
<text text-anchor="start" x="234.25" y="-752.7" font-family="Helvetica,sans-Serif" font-size="9.00">DirectableRhythmASDRManager.js</text>
</a>
</g>
</g>
<!-- src/js/directable/directables/rhythm/bpm/DirectableRhythmBPM.js -->
<g id="node12" class="node">
<title>src/js/directable/directables/rhythm/bpm/DirectableRhythmBPM.js</title>
<g id="a_node12"><a xlink:href="src/js/directable/directables/rhythm/bpm/DirectableRhythmBPM.js" xlink:title="DirectableRhythmBPM.js">
<path fill="#ffffcc" stroke="black" d="M359.08,-826.25C359.08,-826.25 253.42,-826.25 253.42,-826.25 250.33,-826.25 247.25,-823.17 247.25,-820.08 247.25,-820.08 247.25,-813.92 247.25,-813.92 247.25,-810.83 250.33,-807.75 253.42,-807.75 253.42,-807.75 359.08,-807.75 359.08,-807.75 362.17,-807.75 365.25,-810.83 365.25,-813.92 365.25,-813.92 365.25,-820.08 365.25,-820.08 365.25,-823.17 362.17,-826.25 359.08,-826.25"/>
<text text-anchor="start" x="255.25" y="-813.7" font-family="Helvetica,sans-Serif" font-size="9.00">DirectableRhythmBPM.js</text>
</a>
</g>
</g>
<!-- src/js/directable/directables/rhythm/bpm/DirectableRhythmBPM.js&#45;&gt;src/js/directable/directables/rhythm/DirectableRhythm.js -->
<g id="edge5" class="edge">
<title>src/js/directable/directables/rhythm/bpm/DirectableRhythmBPM.js&#45;&gt;src/js/directable/directables/rhythm/DirectableRhythm.js</title>
<path fill="none" stroke="#000000" stroke-width="2" stroke-opacity="0.200000" d="M365.58,-821.95C377.82,-822.99 390.72,-824.09 402.93,-825.12"/>
<polygon fill="#000000" fill-opacity="0.200000" stroke="#000000" stroke-width="2" stroke-opacity="0.200000" points="402.51,-827.19 408.66,-825.61 402.86,-823.01 402.51,-827.19"/>
</g>
<!-- src/js/directable/directables/title/DirectableTitle.js -->
<g id="node13" class="node">
<title>src/js/directable/directables/title/DirectableTitle.js</title>
<g id="a_node13"><a xlink:href="src/js/directable/directables/title/DirectableTitle.js" xlink:title="DirectableTitle.js">
<path fill="#ffffcc" stroke="black" d="M342.21,-975.25C342.21,-975.25 270.29,-975.25 270.29,-975.25 267.21,-975.25 264.12,-972.17 264.12,-969.08 264.12,-969.08 264.12,-962.92 264.12,-962.92 264.12,-959.83 267.21,-956.75 270.29,-956.75 270.29,-956.75 342.21,-956.75 342.21,-956.75 345.29,-956.75 348.38,-959.83 348.38,-962.92 348.38,-962.92 348.38,-969.08 348.38,-969.08 348.38,-972.17 345.29,-975.25 342.21,-975.25"/>
<text text-anchor="start" x="272.12" y="-962.7" font-family="Helvetica,sans-Serif" font-size="9.00">DirectableTitle.js</text>
</a>
</g>
</g>
<!-- src/js/directable/directables/title/DirectableTitle.js&#45;&gt;src/js/directable/Directable.js -->
<g id="edge6" class="edge">
<title>src/js/directable/directables/title/DirectableTitle.js&#45;&gt;src/js/directable/Directable.js</title>
<path fill="none" stroke="#000000" stroke-width="2" stroke-opacity="0.200000" d="M348.82,-957C402.18,-945.45 494.22,-925.52 547.53,-913.98"/>
<polygon fill="#000000" fill-opacity="0.200000" stroke="#000000" stroke-width="2" stroke-opacity="0.200000" points="547.68,-916.09 553.1,-912.77 546.79,-911.99 547.68,-916.09"/>
</g>
<!-- src/js/director/Director.js -->
<g id="node14" class="node">
<title>src/js/director/Director.js</title>
<g id="a_node14"><a xlink:href="src/js/director/Director.js" xlink:title="Director.js">
<path fill="#ffffcc" stroke="black" d="M328.33,-591.25C328.33,-591.25 284.17,-591.25 284.17,-591.25 281.08,-591.25 278,-588.17 278,-585.08 278,-585.08 278,-578.92 278,-578.92 278,-575.83 281.08,-572.75 284.17,-572.75 284.17,-572.75 328.33,-572.75 328.33,-572.75 331.42,-572.75 334.5,-575.83 334.5,-578.92 334.5,-578.92 334.5,-585.08 334.5,-585.08 334.5,-588.17 331.42,-591.25 328.33,-591.25"/>
<text text-anchor="start" x="286" y="-578.7" font-family="Helvetica,sans-Serif" font-size="9.00">Director.js</text>
</a>
</g>
</g>
<!-- src/js/director/directors/DirectorDanceRabbitDance.js -->
<g id="node15" class="node">
<title>src/js/director/directors/DirectorDanceRabbitDance.js</title>
<g id="a_node15"><a xlink:href="src/js/director/directors/DirectorDanceRabbitDance.js" xlink:title="DirectorDanceRabbitDance.js">
<path fill="#ffffcc" stroke="black" d="M172.08,-591.25C172.08,-591.25 46.17,-591.25 46.17,-591.25 43.08,-591.25 40,-588.17 40,-585.08 40,-585.08 40,-578.92 40,-578.92 40,-575.83 43.08,-572.75 46.17,-572.75 46.17,-572.75 172.08,-572.75 172.08,-572.75 175.17,-572.75 178.25,-575.83 178.25,-578.92 178.25,-578.92 178.25,-585.08 178.25,-585.08 178.25,-588.17 175.17,-591.25 172.08,-591.25"/>
<text text-anchor="start" x="48" y="-578.7" font-family="Helvetica,sans-Serif" font-size="9.00">DirectorDanceRabbitDance.js</text>
</a>
</g>
</g>
<!-- src/js/director/directors/DirectorDanceRabbitDance.js&#45;&gt;src/js/directable/directables/rhythm/bpm/DirectableRhythmBPM.js -->
<g id="edge7" class="edge">
<title>src/js/director/directors/DirectorDanceRabbitDance.js&#45;&gt;src/js/directable/directables/rhythm/bpm/DirectableRhythmBPM.js</title>
<path fill="none" stroke="#000000" stroke-width="2" stroke-opacity="0.200000" d="M110.77,-591.48C113.62,-625.12 127.99,-739.74 194.25,-795 206.6,-805.3 222.4,-811.26 238.18,-814.61"/>
<polygon fill="#000000" fill-opacity="0.200000" stroke="#000000" stroke-width="2" stroke-opacity="0.200000" points="237.66,-816.65 243.94,-815.66 238.42,-812.52 237.66,-816.65"/>
</g>
<!-- src/js/director/directors/DirectorDanceRabbitDance.js&#45;&gt;src/js/directable/directables/title/DirectableTitle.js -->
<g id="edge8" class="edge">
<title>src/js/director/directors/DirectorDanceRabbitDance.js&#45;&gt;src/js/directable/directables/title/DirectableTitle.js</title>
<path fill="none" stroke="#000000" stroke-width="2" stroke-opacity="0.200000" d="M110.96,-591.52C115.74,-643.49 141.16,-892.62 194.25,-944 210.18,-959.42 233.65,-965.52 254.9,-967.52"/>
<polygon fill="#000000" fill-opacity="0.200000" stroke="#000000" stroke-width="2" stroke-opacity="0.200000" points="254.69,-969.61 260.83,-967.93 254.99,-965.42 254.69,-969.61"/>
</g>
<!-- src/js/director/directors/DirectorDanceRabbitDance.js&#45;&gt;src/js/director/Director.js -->
<g id="edge9" class="edge">
<title>src/js/director/directors/DirectorDanceRabbitDance.js&#45;&gt;src/js/director/Director.js</title>
<path fill="none" stroke="#000000" stroke-width="2" stroke-opacity="0.200000" d="M178.64,-582C208.96,-582 243.4,-582 268.69,-582"/>
<polygon fill="#000000" fill-opacity="0.200000" stroke="#000000" stroke-width="2" stroke-opacity="0.200000" points="268.55,-584.1 274.55,-582 268.55,-579.9 268.55,-584.1"/>
</g>
<!-- src/js/event/ApplicationEvent.js -->
<g id="node16" class="node">
<title>src/js/event/ApplicationEvent.js</title>
<g id="a_node16"><a xlink:href="src/js/event/ApplicationEvent.js" xlink:title="ApplicationEvent.js">
<path fill="#ffffcc" stroke="black" d="M347.08,-1090.25C347.08,-1090.25 265.42,-1090.25 265.42,-1090.25 262.33,-1090.25 259.25,-1087.17 259.25,-1084.08 259.25,-1084.08 259.25,-1077.92 259.25,-1077.92 259.25,-1074.83 262.33,-1071.75 265.42,-1071.75 265.42,-1071.75 347.08,-1071.75 347.08,-1071.75 350.17,-1071.75 353.25,-1074.83 353.25,-1077.92 353.25,-1077.92 353.25,-1084.08 353.25,-1084.08 353.25,-1087.17 350.17,-1090.25 347.08,-1090.25"/>
<text text-anchor="start" x="267.25" y="-1077.7" font-family="Helvetica,sans-Serif" font-size="9.00">ApplicationEvent.js</text>
</a>
</g>
</g>
<!-- src/js/event/ApplicationEventDispatcher.js -->
<g id="node17" class="node">
<title>src/js/event/ApplicationEventDispatcher.js</title>
<g id="a_node17"><a xlink:href="src/js/event/ApplicationEventDispatcher.js" xlink:title="ApplicationEventDispatcher.js">
<path fill="#ffffcc" stroke="black" d="M171.71,-1090.25C171.71,-1090.25 46.54,-1090.25 46.54,-1090.25 43.46,-1090.25 40.38,-1087.17 40.38,-1084.08 40.38,-1084.08 40.38,-1077.92 40.38,-1077.92 40.38,-1074.83 43.46,-1071.75 46.54,-1071.75 46.54,-1071.75 171.71,-1071.75 171.71,-1071.75 174.79,-1071.75 177.88,-1074.83 177.88,-1077.92 177.88,-1077.92 177.88,-1084.08 177.88,-1084.08 177.88,-1087.17 174.79,-1090.25 171.71,-1090.25"/>
<text text-anchor="start" x="48.38" y="-1077.7" font-family="Helvetica,sans-Serif" font-size="9.00">ApplicationEventDispatcher.js</text>
</a>
</g>
</g>
<!-- src/js/event/ApplicationEventDispatcher.js&#45;&gt;src/js/event/ApplicationEvent.js -->
<g id="edge10" class="edge">
<title>src/js/event/ApplicationEventDispatcher.js&#45;&gt;src/js/event/ApplicationEvent.js</title>
<path fill="none" stroke="#000000" stroke-width="2" stroke-opacity="0.200000" d="M178.37,-1081C201.75,-1081 227.6,-1081 249.83,-1081"/>
<polygon fill="#000000" fill-opacity="0.200000" stroke="#000000" stroke-width="2" stroke-opacity="0.200000" points="249.77,-1083.1 255.77,-1081 249.77,-1078.9 249.77,-1083.1"/>
</g>
<!-- src/js/index.js -->
<g id="node18" class="node">
<title>src/js/index.js</title>
<g id="a_node18"><a xlink:href="src/js/index.js" xlink:title="index.js">
<path fill="#ffffcc" stroke="black" d="M129.96,-1265.25C129.96,-1265.25 88.29,-1265.25 88.29,-1265.25 85.21,-1265.25 82.12,-1262.17 82.12,-1259.08 82.12,-1259.08 82.12,-1252.92 82.12,-1252.92 82.12,-1249.83 85.21,-1246.75 88.29,-1246.75 88.29,-1246.75 129.96,-1246.75 129.96,-1246.75 133.04,-1246.75 136.12,-1249.83 136.12,-1252.92 136.12,-1252.92 136.12,-1259.08 136.12,-1259.08 136.12,-1262.17 133.04,-1265.25 129.96,-1265.25"/>
<text text-anchor="start" x="93.38" y="-1252.7" font-family="Helvetica,sans-Serif" font-size="9.00">index.js</text>
</a>
</g>
</g>
<!-- src/js/index.js&#45;&gt;src/js/application/Application.js -->
<g id="edge11" class="edge">
<title>src/js/index.js&#45;&gt;src/js/application/Application.js</title>
<path fill="none" stroke="#000000" stroke-width="2" stroke-opacity="0.200000" d="M136.44,-1252.36C168.51,-1247.92 223.16,-1240.36 261.57,-1235.04"/>
<polygon fill="#000000" fill-opacity="0.200000" stroke="#000000" stroke-width="2" stroke-opacity="0.200000" points="261.83,-1237.13 267.48,-1234.23 261.25,-1232.97 261.83,-1237.13"/>
</g>
<!-- src/js/overlay/OverlayUtil.js -->
<g id="node27" class="node">
<title>src/js/overlay/OverlayUtil.js</title>
<g id="a_node27"><a xlink:href="src/js/overlay/OverlayUtil.js" xlink:title="OverlayUtil.js">
<path fill="#ffffcc" stroke="black" d="M618.83,-251.25C618.83,-251.25 561.17,-251.25 561.17,-251.25 558.08,-251.25 555,-248.17 555,-245.08 555,-245.08 555,-238.92 555,-238.92 555,-235.83 558.08,-232.75 561.17,-232.75 561.17,-232.75 618.83,-232.75 618.83,-232.75 621.92,-232.75 625,-235.83 625,-238.92 625,-238.92 625,-245.08 625,-245.08 625,-248.17 621.92,-251.25 618.83,-251.25"/>
<text text-anchor="start" x="563" y="-238.7" font-family="Helvetica,sans-Serif" font-size="9.00">OverlayUtil.js</text>
</a>
</g>
</g>
<!-- src/js/overlay/capture/OverlayCapture.js&#45;&gt;src/js/overlay/OverlayUtil.js -->
<g id="edge21" class="edge">
<title>src/js/overlay/capture/OverlayCapture.js&#45;&gt;src/js/overlay/OverlayUtil.js</title>
<path fill="none" stroke="#000000" stroke-width="2" stroke-opacity="0.200000" d="M484.08,-68.73C497.77,-75.77 515,-86.43 526.62,-100 558.89,-137.66 577.01,-194.63 584.64,-223.63"/>
<polygon fill="#000000" fill-opacity="0.200000" stroke="#000000" stroke-width="2" stroke-opacity="0.200000" points="582.59,-224.09 586.1,-229.39 586.67,-223.06 582.59,-224.09"/>
</g>
<!-- src/js/overlay/dispatcher/OverlayDispatcherEvent.js -->
<g id="node28" class="node">
<title>src/js/overlay/dispatcher/OverlayDispatcherEvent.js</title>
<g id="a_node28"><a xlink:href="src/js/overlay/dispatcher/OverlayDispatcherEvent.js" xlink:title="OverlayDispatcherEvent.js">
<path fill="#ffffcc" stroke="black" d="M892.21,-251.25C892.21,-251.25 780.54,-251.25 780.54,-251.25 777.46,-251.25 774.38,-248.17 774.38,-245.08 774.38,-245.08 774.38,-238.92 774.38,-238.92 774.38,-235.83 777.46,-232.75 780.54,-232.75 780.54,-232.75 892.21,-232.75 892.21,-232.75 895.29,-232.75 898.38,-235.83 898.38,-238.92 898.38,-238.92 898.38,-245.08 898.38,-245.08 898.38,-248.17 895.29,-251.25 892.21,-251.25"/>
<text text-anchor="start" x="782.38" y="-238.7" font-family="Helvetica,sans-Serif" font-size="9.00">OverlayDispatcherEvent.js</text>
</a>
</g>
</g>
<!-- src/js/overlay/dispatcher/OverlayDispatcher.js&#45;&gt;src/js/overlay/dispatcher/OverlayDispatcherEvent.js -->
<g id="edge22" class="edge">
<title>src/js/overlay/dispatcher/OverlayDispatcher.js&#45;&gt;src/js/overlay/dispatcher/OverlayDispatcherEvent.js</title>
<path fill="none" stroke="#000000" stroke-width="2" stroke-opacity="0.200000" d="M761.7,-242C762.99,-242 764.29,-242 765.6,-242"/>
<polygon fill="#000000" fill-opacity="0.200000" stroke="#000000" stroke-width="2" stroke-opacity="0.200000" points="765.25,-244.1 771.25,-242 765.25,-239.9 765.25,-244.1"/>
</g>
<!-- src/js/overlay/format/OverlayFormat.js&#45;&gt;src/js/overlay/OverlayUtil.js -->
<g id="edge23" class="edge">
<title>src/js/overlay/format/OverlayFormat.js&#45;&gt;src/js/overlay/OverlayUtil.js</title>
<path fill="none" stroke="#000000" stroke-width="2" stroke-opacity="0.200000" d="M481.01,-129.6C494.51,-137.09 512.77,-148.31 526.62,-161 547.85,-180.43 567.22,-207.75 578.56,-225.16"/>
<polygon fill="#000000" fill-opacity="0.200000" stroke="#000000" stroke-width="2" stroke-opacity="0.200000" points="576.55,-225.93 581.55,-229.85 580.09,-223.67 576.55,-225.93"/>
</g>
<!-- src/js/overlay/media/OverlayMedia.js&#45;&gt;src/js/overlay/OverlayUtil.js -->
<g id="edge24" class="edge">
<title>src/js/overlay/media/OverlayMedia.js&#45;&gt;src/js/overlay/OverlayUtil.js</title>
<path fill="none" stroke="#000000" stroke-width="2" stroke-opacity="0.200000" d="M482.44,-190.67C503.65,-200.88 537.26,-217.08 561.06,-228.54"/>
<polygon fill="#000000" fill-opacity="0.200000" stroke="#000000" stroke-width="2" stroke-opacity="0.200000" points="559.99,-230.35 566.3,-231.07 561.81,-226.57 559.99,-230.35"/>
</g>
<!-- src/js/overlay/pathtracer/OverlayPathTracer.js&#45;&gt;src/js/overlay/OverlayUtil.js -->
<g id="edge25" class="edge">
<title>src/js/overlay/pathtracer/OverlayPathTracer.js&#45;&gt;src/js/overlay/OverlayUtil.js</title>
<path fill="none" stroke="#000000" stroke-width="2" stroke-opacity="0.200000" d="M495.31,-293.33C505.54,-289.91 516.72,-285.71 526.62,-281 541.19,-274.06 556.57,-264.48 568.41,-256.54"/>
<polygon fill="#000000" fill-opacity="0.200000" stroke="#000000" stroke-width="2" stroke-opacity="0.200000" points="569.37,-258.44 573.14,-253.32 567,-254.97 569.37,-258.44"/>
</g>
<!-- src/js/overlay/rhythm/OverlayRhythm.js&#45;&gt;src/js/overlay/OverlayUtil.js -->
<g id="edge26" class="edge">
<title>src/js/overlay/rhythm/OverlayRhythm.js&#45;&gt;src/js/overlay/OverlayUtil.js</title>
<path fill="none" stroke="#000000" stroke-width="2" stroke-opacity="0.200000" d="M504.27,-354.3C512.21,-351.22 520.07,-347.21 526.62,-342 554.36,-319.96 573.11,-281.99 582.34,-259.72"/>
<polygon fill="#000000" fill-opacity="0.200000" stroke="#000000" stroke-width="2" stroke-opacity="0.200000" points="584.23,-260.65 584.5,-254.3 580.33,-259.1 584.23,-260.65"/>
</g>
<!-- src/js/overlay/teleprompt/OverlayTeleprompt.js&#45;&gt;src/js/overlay/OverlayUtil.js -->
<g id="edge27" class="edge">
<title>src/js/overlay/teleprompt/OverlayTeleprompt.js&#45;&gt;src/js/overlay/OverlayUtil.js</title>
<path fill="none" stroke="#000000" stroke-width="2" stroke-opacity="0.200000" d="M507.4,-415.26C514.45,-412.22 521.18,-408.23 526.62,-403 567.93,-363.3 582.33,-293.13 586.97,-260.13"/>
<polygon fill="#000000" fill-opacity="0.200000" stroke="#000000" stroke-width="2" stroke-opacity="0.200000" points="589.01,-260.72 587.69,-254.5 584.85,-260.19 589.01,-260.72"/>
</g>
<!-- src/js/overlay/OverlayUtil.js&#45;&gt;src/js/overlay/dispatcher/OverlayDispatcher.js -->
<g id="edge20" class="edge">
<title>src/js/overlay/OverlayUtil.js&#45;&gt;src/js/overlay/dispatcher/OverlayDispatcher.js</title>
<path fill="none" stroke="#000000" stroke-width="2" stroke-opacity="0.200000" d="M625.21,-242C633.67,-242 642.96,-242 652.21,-242"/>
<polygon fill="#000000" fill-opacity="0.200000" stroke="#000000" stroke-width="2" stroke-opacity="0.200000" points="652.01,-244.1 658.01,-242 652.01,-239.9 652.01,-244.1"/>
</g>
<!-- src/js/renderer/RendererResizer.js -->
<g id="node29" class="node">
<title>src/js/renderer/RendererResizer.js</title>
<g id="a_node29"><a xlink:href="src/js/renderer/RendererResizer.js" xlink:title="RendererResizer.js">
<path fill="#ffffcc" stroke="black" d="M631.21,-1090.25C631.21,-1090.25 548.79,-1090.25 548.79,-1090.25 545.71,-1090.25 542.62,-1087.17 542.62,-1084.08 542.62,-1084.08 542.62,-1077.92 542.62,-1077.92 542.62,-1074.83 545.71,-1071.75 548.79,-1071.75 548.79,-1071.75 631.21,-1071.75 631.21,-1071.75 634.29,-1071.75 637.38,-1074.83 637.38,-1077.92 637.38,-1077.92 637.38,-1084.08 637.38,-1084.08 637.38,-1087.17 634.29,-1090.25 631.21,-1090.25"/>
<text text-anchor="start" x="550.62" y="-1077.7" font-family="Helvetica,sans-Serif" font-size="9.00">RendererResizer.js</text>
</a>
</g>
</g>
<!-- src/js/renderer/RendererResizer.js&#45;&gt;src/js/overlay/dispatcher/OverlayDispatcher.js -->
<g id="edge28" class="edge">
<title>src/js/renderer/RendererResizer.js&#45;&gt;src/js/overlay/dispatcher/OverlayDispatcher.js</title>
<path fill="none" stroke="#000000" stroke-width="2" stroke-opacity="0.200000" d="M630.37,-1071.31C636.19,-1068.26 641.52,-1064.26 645.38,-1059 694.18,-992.46 707.91,-375.59 710.05,-260.46"/>
<polygon fill="#000000" fill-opacity="0.200000" stroke="#000000" stroke-width="2" stroke-opacity="0.200000" points="712.15,-260.76 710.16,-254.72 707.95,-260.68 712.15,-260.76"/>
</g>
<!-- src/js/rhythm/ViewRhythm.js -->
<g id="node30" class="node">
<title>src/js/rhythm/ViewRhythm.js</title>
<g id="a_node30"><a xlink:href="src/js/rhythm/ViewRhythm.js" xlink:title="ViewRhythm.js">
<path fill="#ffffcc" stroke="black" d="M141.33,-1151.25C141.33,-1151.25 76.92,-1151.25 76.92,-1151.25 73.83,-1151.25 70.75,-1148.17 70.75,-1145.08 70.75,-1145.08 70.75,-1138.92 70.75,-1138.92 70.75,-1135.83 73.83,-1132.75 76.92,-1132.75 76.92,-1132.75 141.33,-1132.75 141.33,-1132.75 144.42,-1132.75 147.5,-1135.83 147.5,-1138.92 147.5,-1138.92 147.5,-1145.08 147.5,-1145.08 147.5,-1148.17 144.42,-1151.25 141.33,-1151.25"/>
<text text-anchor="start" x="78.75" y="-1138.7" font-family="Helvetica,sans-Serif" font-size="9.00">ViewRhythm.js</text>
</a>
</g>
</g>
<!-- src/js/rhythm/ViewRhythmTrack.js -->
<g id="node31" class="node">
<title>src/js/rhythm/ViewRhythmTrack.js</title>
<g id="a_node31"><a xlink:href="src/js/rhythm/ViewRhythmTrack.js" xlink:title="ViewRhythmTrack.js">
<path fill="#ffffcc" stroke="black" d="M349.71,-1151.25C349.71,-1151.25 262.79,-1151.25 262.79,-1151.25 259.71,-1151.25 256.62,-1148.17 256.62,-1145.08 256.62,-1145.08 256.62,-1138.92 256.62,-1138.92 256.62,-1135.83 259.71,-1132.75 262.79,-1132.75 262.79,-1132.75 349.71,-1132.75 349.71,-1132.75 352.79,-1132.75 355.88,-1135.83 355.88,-1138.92 355.88,-1138.92 355.88,-1145.08 355.88,-1145.08 355.88,-1148.17 352.79,-1151.25 349.71,-1151.25"/>
<text text-anchor="start" x="264.62" y="-1138.7" font-family="Helvetica,sans-Serif" font-size="9.00">ViewRhythmTrack.js</text>
</a>
</g>
</g>
<!-- src/js/rhythm/ViewRhythm.js&#45;&gt;src/js/rhythm/ViewRhythmTrack.js -->
<g id="edge29" class="edge">
<title>src/js/rhythm/ViewRhythm.js&#45;&gt;src/js/rhythm/ViewRhythmTrack.js</title>
<path fill="none" stroke="#000000" stroke-width="2" stroke-opacity="0.200000" d="M147.75,-1142C175.99,-1142 215.17,-1142 247.39,-1142"/>
<polygon fill="#000000" fill-opacity="0.200000" stroke="#000000" stroke-width="2" stroke-opacity="0.200000" points="247.25,-1144.1 253.25,-1142 247.25,-1139.9 247.25,-1144.1"/>
</g>
<!-- src/js/view/View.js -->
<g id="node32" class="node">
<title>src/js/view/View.js</title>
<g id="a_node32"><a xlink:href="src/js/view/View.js" xlink:title="View.js">
<path fill="#ccffcc" stroke="black" d="M129.96,-1212.25C129.96,-1212.25 88.29,-1212.25 88.29,-1212.25 85.21,-1212.25 82.12,-1209.17 82.12,-1206.08 82.12,-1206.08 82.12,-1199.92 82.12,-1199.92 82.12,-1196.83 85.21,-1193.75 88.29,-1193.75 88.29,-1193.75 129.96,-1193.75 129.96,-1193.75 133.04,-1193.75 136.12,-1196.83 136.12,-1199.92 136.12,-1199.92 136.12,-1206.08 136.12,-1206.08 136.12,-1209.17 133.04,-1212.25 129.96,-1212.25"/>
<text text-anchor="start" x="94.88" y="-1199.7" font-family="Helvetica,sans-Serif" font-size="9.00">View.js</text>
</a>
</g>
</g>
</g>
</svg>
