<?xml version="1.0" encoding="UTF-8" standalone="no"?>
<!DOCTYPE svg PUBLIC "-//W3C//DTD SVG 1.1//EN"
 "http://www.w3.org/Graphics/SVG/1.1/DTD/svg11.dtd">
<!-- Generated by graphviz version 12.2.1 (20241206.2353)
 -->
<!-- Title: dependency&#45;cruiser output Pages: 1 -->
<svg width="1145pt" height="1157pt"
 viewBox="0.00 0.00 1144.75 1157.00" xmlns="http://www.w3.org/2000/svg" xmlns:xlink="http://www.w3.org/1999/xlink">
<g id="graph0" class="graph" transform="scale(1 1) rotate(0) translate(4 1153)">
<title>dependency&#45;cruiser output</title>
<polygon fill="white" stroke="none" points="-4,4 -4,-1153 1140.75,-1153 1140.75,4 -4,4"/>
<g id="clust1" class="cluster">
<title>cluster_src</title>
<path fill="#ffffff" stroke="black" stroke-width="2" d="M20,-8C20,-8 1116.75,-8 1116.75,-8 1122.75,-8 1128.75,-14 1128.75,-20 1128.75,-20 1128.75,-1129 1128.75,-1129 1128.75,-1135 1122.75,-1141 1116.75,-1141 1116.75,-1141 20,-1141 20,-1141 14,-1141 8,-1135 8,-1129 8,-1129 8,-20 8,-20 8,-14 14,-8 20,-8"/>
<text text-anchor="middle" x="568.38" y="-1128.45" font-family="Helvetica,sans-Serif" font-weight="bold" font-size="9.00">src</text>
</g>
<g id="clust2" class="cluster">
<title>cluster_src/js</title>
<path fill="#ffffff" stroke="black" stroke-width="2" d="M28,-16C28,-16 1108.75,-16 1108.75,-16 1114.75,-16 1120.75,-22 1120.75,-28 1120.75,-28 1120.75,-1102 1120.75,-1102 1120.75,-1108 1114.75,-1114 1108.75,-1114 1108.75,-1114 28,-1114 28,-1114 22,-1114 16,-1108 16,-1102 16,-1102 16,-28 16,-28 16,-22 22,-16 28,-16"/>
<text text-anchor="middle" x="568.38" y="-1101.45" font-family="Helvetica,sans-Serif" font-weight="bold" font-size="9.00">js</text>
</g>
<g id="clust3" class="cluster">
<title>cluster_src/js/application</title>
<path fill="#ffffff" stroke="black" stroke-width="2" d="M274.88,-957C274.88,-957 337.62,-957 337.62,-957 343.62,-957 349.62,-963 349.62,-969 349.62,-969 349.62,-998 349.62,-998 349.62,-1004 343.62,-1010 337.62,-1010 337.62,-1010 274.88,-1010 274.88,-1010 268.88,-1010 262.88,-1004 262.88,-998 262.88,-998 262.88,-969 262.88,-969 262.88,-963 268.88,-957 274.88,-957"/>
<text text-anchor="middle" x="306.25" y="-997.45" font-family="Helvetica,sans-Serif" font-weight="bold" font-size="9.00">application</text>
</g>
<g id="clust4" class="cluster">
<title>cluster_src/js/controller</title>
<path fill="#ffffff" stroke="black" stroke-width="2" d="M423.12,-957C423.12,-957 479.88,-957 479.88,-957 485.88,-957 491.88,-963 491.88,-969 491.88,-969 491.88,-998 491.88,-998 491.88,-1004 485.88,-1010 479.88,-1010 479.88,-1010 423.12,-1010 423.12,-1010 417.12,-1010 411.12,-1004 411.12,-998 411.12,-998 411.12,-969 411.12,-969 411.12,-963 417.12,-957 423.12,-957"/>
<text text-anchor="middle" x="451.5" y="-997.45" font-family="Helvetica,sans-Serif" font-weight="bold" font-size="9.00">controller</text>
</g>
<g id="clust5" class="cluster">
<title>cluster_src/js/data</title>
<path fill="#ffffff" stroke="black" stroke-width="2" d="M71,-24C71,-24 329.75,-24 329.75,-24 335.75,-24 341.75,-30 341.75,-36 341.75,-36 341.75,-65 341.75,-65 341.75,-71 335.75,-77 329.75,-77 329.75,-77 71,-77 71,-77 65,-77 59,-71 59,-65 59,-65 59,-36 59,-36 59,-30 65,-24 71,-24"/>
<text text-anchor="middle" x="200.38" y="-64.45" font-family="Helvetica,sans-Serif" font-weight="bold" font-size="9.00">data</text>
</g>
<g id="clust6" class="cluster">
<title>cluster_src/js/directable</title>
<path fill="#ffffff" stroke="black" stroke-width="2" d="M206.25,-181C206.25,-181 618,-181 618,-181 624,-181 630,-187 630,-193 630,-193 630,-572 630,-572 630,-578 624,-584 618,-584 618,-584 206.25,-584 206.25,-584 200.25,-584 194.25,-578 194.25,-572 194.25,-572 194.25,-193 194.25,-193 194.25,-187 200.25,-181 206.25,-181"/>
<text text-anchor="middle" x="412.12" y="-571.45" font-family="Helvetica,sans-Serif" font-weight="bold" font-size="9.00">directable</text>
</g>
<g id="clust7" class="cluster">
<title>cluster_src/js/directable/directables</title>
<path fill="#ffffff" stroke="black" stroke-width="2" d="M214.25,-189C214.25,-189 504.75,-189 504.75,-189 510.75,-189 516.75,-195 516.75,-201 516.75,-201 516.75,-545 516.75,-545 516.75,-551 510.75,-557 504.75,-557 504.75,-557 214.25,-557 214.25,-557 208.25,-557 202.25,-551 202.25,-545 202.25,-545 202.25,-201 202.25,-201 202.25,-195 208.25,-189 214.25,-189"/>
<text text-anchor="middle" x="359.5" y="-544.45" font-family="Helvetica,sans-Serif" font-weight="bold" font-size="9.00">directables</text>
</g>
<g id="clust8" class="cluster">
<title>cluster_src/js/directable/directables/frame</title>
<path fill="#ffffff" stroke="black" stroke-width="2" d="M263.62,-416C263.62,-416 348.88,-416 348.88,-416 354.88,-416 360.88,-422 360.88,-428 360.88,-428 360.88,-457 360.88,-457 360.88,-463 354.88,-469 348.88,-469 348.88,-469 263.62,-469 263.62,-469 257.62,-469 251.62,-463 251.62,-457 251.62,-457 251.62,-428 251.62,-428 251.62,-422 257.62,-416 263.62,-416"/>
<text text-anchor="middle" x="306.25" y="-456.45" font-family="Helvetica,sans-Serif" font-weight="bold" font-size="9.00">frame</text>
</g>
<g id="clust9" class="cluster">
<title>cluster_src/js/directable/directables/rhythm</title>
<path fill="#ffffff" stroke="black" stroke-width="2" d="M222.25,-197C222.25,-197 496.75,-197 496.75,-197 502.75,-197 508.75,-203 508.75,-209 508.75,-209 508.75,-396 508.75,-396 508.75,-402 502.75,-408 496.75,-408 496.75,-408 222.25,-408 222.25,-408 216.25,-408 210.25,-402 210.25,-396 210.25,-396 210.25,-209 210.25,-209 210.25,-203 216.25,-197 222.25,-197"/>
<text text-anchor="middle" x="359.5" y="-395.45" font-family="Helvetica,sans-Serif" font-weight="bold" font-size="9.00">rhythm</text>
</g>
<g id="clust10" class="cluster">
<title>cluster_src/js/directable/directables/rhythm/asdr</title>
<path fill="#ffffff" stroke="black" stroke-width="2" d="M230.25,-205C230.25,-205 382.25,-205 382.25,-205 388.25,-205 394.25,-211 394.25,-217 394.25,-217 394.25,-308 394.25,-308 394.25,-314 388.25,-320 382.25,-320 382.25,-320 230.25,-320 230.25,-320 224.25,-320 218.25,-314 218.25,-308 218.25,-308 218.25,-217 218.25,-217 218.25,-211 224.25,-205 230.25,-205"/>
<text text-anchor="middle" x="306.25" y="-307.45" font-family="Helvetica,sans-Serif" font-weight="bold" font-size="9.00">asdr</text>
</g>
<g id="clust11" class="cluster">
<title>cluster_src/js/directable/directables/rhythm/bpm</title>
<path fill="#ffffff" stroke="black" stroke-width="2" d="M251.25,-328C251.25,-328 361.25,-328 361.25,-328 367.25,-328 373.25,-334 373.25,-340 373.25,-340 373.25,-369 373.25,-369 373.25,-375 367.25,-381 361.25,-381 361.25,-381 251.25,-381 251.25,-381 245.25,-381 239.25,-375 239.25,-369 239.25,-369 239.25,-340 239.25,-340 239.25,-334 245.25,-328 251.25,-328"/>
<text text-anchor="middle" x="306.25" y="-368.45" font-family="Helvetica,sans-Serif" font-weight="bold" font-size="9.00">bpm</text>
</g>
<g id="clust12" class="cluster">
<title>cluster_src/js/directable/directables/title</title>
<path fill="#ffffff" stroke="black" stroke-width="2" d="M268.12,-477C268.12,-477 344.38,-477 344.38,-477 350.38,-477 356.38,-483 356.38,-489 356.38,-489 356.38,-518 356.38,-518 356.38,-524 350.38,-530 344.38,-530 344.38,-530 268.12,-530 268.12,-530 262.12,-530 256.12,-524 256.12,-518 256.12,-518 256.12,-489 256.12,-489 256.12,-483 262.12,-477 268.12,-477"/>
<text text-anchor="middle" x="306.25" y="-517.45" font-family="Helvetica,sans-Serif" font-weight="bold" font-size="9.00">title</text>
</g>
<g id="clust13" class="cluster">
<title>cluster_src/js/director</title>
<path fill="#ffffff" stroke="black" stroke-width="2" d="M36,-85C36,-85 330.5,-85 330.5,-85 336.5,-85 342.5,-91 342.5,-97 342.5,-97 342.5,-161 342.5,-161 342.5,-167 336.5,-173 330.5,-173 330.5,-173 36,-173 36,-173 30,-173 24,-167 24,-161 24,-161 24,-97 24,-97 24,-91 30,-85 36,-85"/>
<text text-anchor="middle" x="183.25" y="-160.45" font-family="Helvetica,sans-Serif" font-weight="bold" font-size="9.00">director</text>
</g>
<g id="clust14" class="cluster">
<title>cluster_src/js/director/directors</title>
<path fill="#ffffff" stroke="black" stroke-width="2" d="M44,-93C44,-93 174.25,-93 174.25,-93 180.25,-93 186.25,-99 186.25,-105 186.25,-105 186.25,-134 186.25,-134 186.25,-140 180.25,-146 174.25,-146 174.25,-146 44,-146 44,-146 38,-146 32,-140 32,-134 32,-134 32,-105 32,-105 32,-99 38,-93 44,-93"/>
<text text-anchor="middle" x="109.12" y="-133.45" font-family="Helvetica,sans-Serif" font-weight="bold" font-size="9.00">directors</text>
</g>
<g id="clust15" class="cluster">
<title>cluster_src/js/event</title>
<path fill="#ffffff" stroke="black" stroke-width="2" d="M44.38,-710C44.38,-710 349.25,-710 349.25,-710 355.25,-710 361.25,-716 361.25,-722 361.25,-722 361.25,-751 361.25,-751 361.25,-757 355.25,-763 349.25,-763 349.25,-763 44.38,-763 44.38,-763 38.38,-763 32.38,-757 32.38,-751 32.38,-751 32.38,-722 32.38,-722 32.38,-716 38.38,-710 44.38,-710"/>
<text text-anchor="middle" x="196.81" y="-750.45" font-family="Helvetica,sans-Serif" font-weight="bold" font-size="9.00">event</text>
</g>
<g id="clust16" class="cluster">
<title>cluster_src/js/overlay</title>
<path fill="#ffffff" stroke="black" stroke-width="2" d="M564.62,-592C564.62,-592 1100.75,-592 1100.75,-592 1106.75,-592 1112.75,-598 1112.75,-604 1112.75,-604 1112.75,-922 1112.75,-922 1112.75,-928 1106.75,-934 1100.75,-934 1100.75,-934 564.62,-934 564.62,-934 558.62,-934 552.62,-928 552.62,-922 552.62,-922 552.62,-604 552.62,-604 552.62,-598 558.62,-592 564.62,-592"/>
<text text-anchor="middle" x="832.69" y="-921.45" font-family="Helvetica,sans-Serif" font-weight="bold" font-size="9.00">overlay</text>
</g>
<g id="clust17" class="cluster">
<title>cluster_src/js/overlay/capture</title>
<path fill="#ffffff" stroke="black" stroke-width="2" d="M672.25,-600C672.25,-600 753.75,-600 753.75,-600 759.75,-600 765.75,-606 765.75,-612 765.75,-612 765.75,-641 765.75,-641 765.75,-647 759.75,-653 753.75,-653 753.75,-653 672.25,-653 672.25,-653 666.25,-653 660.25,-647 660.25,-641 660.25,-641 660.25,-612 660.25,-612 660.25,-606 666.25,-600 672.25,-600"/>
<text text-anchor="middle" x="713" y="-640.45" font-family="Helvetica,sans-Serif" font-weight="bold" font-size="9.00">capture</text>
</g>
<g id="clust18" class="cluster">
<title>cluster_src/js/overlay/dispatcher</title>
<path fill="#ffffff" stroke="black" stroke-width="2" d="M863.75,-854C863.75,-854 1092.75,-854 1092.75,-854 1098.75,-854 1104.75,-860 1104.75,-866 1104.75,-866 1104.75,-895 1104.75,-895 1104.75,-901 1098.75,-907 1092.75,-907 1092.75,-907 863.75,-907 863.75,-907 857.75,-907 851.75,-901 851.75,-895 851.75,-895 851.75,-866 851.75,-866 851.75,-860 857.75,-854 863.75,-854"/>
<text text-anchor="middle" x="978.25" y="-894.45" font-family="Helvetica,sans-Serif" font-weight="bold" font-size="9.00">dispatcher</text>
</g>
<g id="clust19" class="cluster">
<title>cluster_src/js/overlay/format</title>
<path fill="#ffffff" stroke="black" stroke-width="2" d="M674.5,-661C674.5,-661 751.5,-661 751.5,-661 757.5,-661 763.5,-667 763.5,-673 763.5,-673 763.5,-702 763.5,-702 763.5,-708 757.5,-714 751.5,-714 751.5,-714 674.5,-714 674.5,-714 668.5,-714 662.5,-708 662.5,-702 662.5,-702 662.5,-673 662.5,-673 662.5,-667 668.5,-661 674.5,-661"/>
<text text-anchor="middle" x="713" y="-701.45" font-family="Helvetica,sans-Serif" font-weight="bold" font-size="9.00">format</text>
</g>
<g id="clust20" class="cluster">
<title>cluster_src/js/overlay/media</title>
<path fill="#ffffff" stroke="black" stroke-width="2" d="M676,-722C676,-722 750,-722 750,-722 756,-722 762,-728 762,-734 762,-734 762,-763 762,-763 762,-769 756,-775 750,-775 750,-775 676,-775 676,-775 670,-775 664,-769 664,-763 664,-763 664,-734 664,-734 664,-728 670,-722 676,-722"/>
<text text-anchor="middle" x="713" y="-762.45" font-family="Helvetica,sans-Serif" font-weight="bold" font-size="9.00">media</text>
</g>
<g id="clust21" class="cluster">
<title>cluster_src/js/overlay/overlay</title>
<path fill="#ffffff" stroke="black" stroke-width="2" d="M673.38,-844C673.38,-844 752.62,-844 752.62,-844 758.62,-844 764.62,-850 764.62,-856 764.62,-856 764.62,-885 764.62,-885 764.62,-891 758.62,-897 752.62,-897 752.62,-897 673.38,-897 673.38,-897 667.38,-897 661.38,-891 661.38,-885 661.38,-885 661.38,-856 661.38,-856 661.38,-850 667.38,-844 673.38,-844"/>
<text text-anchor="middle" x="713" y="-884.45" font-family="Helvetica,sans-Serif" font-weight="bold" font-size="9.00">overlay</text>
</g>
<g id="clust22" class="cluster">
<title>cluster_src/js/overlay/rhythm</title>
<path fill="#ffffff" stroke="black" stroke-width="2" d="M673,-783C673,-783 753,-783 753,-783 759,-783 765,-789 765,-795 765,-795 765,-824 765,-824 765,-830 759,-836 753,-836 753,-836 673,-836 673,-836 667,-836 661,-830 661,-824 661,-824 661,-795 661,-795 661,-789 667,-783 673,-783"/>
<text text-anchor="middle" x="713" y="-823.45" font-family="Helvetica,sans-Serif" font-weight="bold" font-size="9.00">rhythm</text>
</g>
<g id="clust23" class="cluster">
<title>cluster_src/js/rhythm</title>
<path fill="#ffffff" stroke="black" stroke-width="2" d="M74.75,-854C74.75,-854 351.88,-854 351.88,-854 357.88,-854 363.88,-860 363.88,-866 363.88,-866 363.88,-895 363.88,-895 363.88,-901 357.88,-907 351.88,-907 351.88,-907 74.75,-907 74.75,-907 68.75,-907 62.75,-901 62.75,-895 62.75,-895 62.75,-866 62.75,-866 62.75,-860 68.75,-854 74.75,-854"/>
<text text-anchor="middle" x="213.31" y="-894.45" font-family="Helvetica,sans-Serif" font-weight="bold" font-size="9.00">rhythm</text>
</g>
<g id="clust24" class="cluster">
<title>cluster_src/js/view</title>
<path fill="#ffffff" stroke="black" stroke-width="2" d="M536.75,-942C536.75,-942 640.25,-942 640.25,-942 646.25,-942 652.25,-948 652.25,-954 652.25,-954 652.25,-1075 652.25,-1075 652.25,-1081 646.25,-1087 640.25,-1087 640.25,-1087 536.75,-1087 536.75,-1087 530.75,-1087 524.75,-1081 524.75,-1075 524.75,-1075 524.75,-954 524.75,-954 524.75,-948 530.75,-942 536.75,-942"/>
<text text-anchor="middle" x="588.5" y="-1074.45" font-family="Helvetica,sans-Serif" font-weight="bold" font-size="9.00">view</text>
</g>
<g id="clust25" class="cluster">
<title>cluster_src/js/view/render</title>
<path fill="#ffffff" stroke="black" stroke-width="2" d="M544.75,-950C544.75,-950 632.25,-950 632.25,-950 638.25,-950 644.25,-956 644.25,-962 644.25,-962 644.25,-1022 644.25,-1022 644.25,-1028 638.25,-1034 632.25,-1034 632.25,-1034 544.75,-1034 544.75,-1034 538.75,-1034 532.75,-1028 532.75,-1022 532.75,-1022 532.75,-962 532.75,-962 532.75,-956 538.75,-950 544.75,-950"/>
<text text-anchor="middle" x="588.5" y="-1021.45" font-family="Helvetica,sans-Serif" font-weight="bold" font-size="9.00">render</text>
</g>
<!-- src/js/application/Application.js -->
<g id="node1" class="node">
<title>src/js/application/Application.js</title>
<g id="a_node1"><a xlink:href="src/js/application/Application.js" xlink:title="Application.js">
<path fill="#ffffcc" stroke="black" d="M335.46,-983.25C335.46,-983.25 277.04,-983.25 277.04,-983.25 273.96,-983.25 270.88,-980.17 270.88,-977.08 270.88,-977.08 270.88,-970.92 270.88,-970.92 270.88,-967.83 273.96,-964.75 277.04,-964.75 277.04,-964.75 335.46,-964.75 335.46,-964.75 338.54,-964.75 341.62,-967.83 341.62,-970.92 341.62,-970.92 341.62,-977.08 341.62,-977.08 341.62,-980.17 338.54,-983.25 335.46,-983.25"/>
<text text-anchor="start" x="278.88" y="-970.7" font-family="Helvetica,sans-Serif" font-size="9.00">Application.js</text>
</a>
</g>
</g>
<!-- src/js/controller/Controller.js -->
<g id="node2" class="node">
<title>src/js/controller/Controller.js</title>
<g id="a_node2"><a xlink:href="src/js/controller/Controller.js" xlink:title="Controller.js">
<path fill="#ffffcc" stroke="black" d="M477.71,-983.25C477.71,-983.25 425.29,-983.25 425.29,-983.25 422.21,-983.25 419.12,-980.17 419.12,-977.08 419.12,-977.08 419.12,-970.92 419.12,-970.92 419.12,-967.83 422.21,-964.75 425.29,-964.75 425.29,-964.75 477.71,-964.75 477.71,-964.75 480.79,-964.75 483.88,-967.83 483.88,-970.92 483.88,-970.92 483.88,-977.08 483.88,-977.08 483.88,-980.17 480.79,-983.25 477.71,-983.25"/>
<text text-anchor="start" x="427.12" y="-970.7" font-family="Helvetica,sans-Serif" font-size="9.00">Controller.js</text>
</a>
</g>
</g>
<!-- src/js/application/Application.js&#45;&gt;src/js/controller/Controller.js -->
<g id="edge1" class="edge">
<title>src/js/application/Application.js&#45;&gt;src/js/controller/Controller.js</title>
<path fill="none" stroke="#000000" stroke-width="2" stroke-opacity="0.200000" d="M341.93,-974C362.5,-974 388.68,-974 410.18,-974"/>
<polygon fill="#000000" fill-opacity="0.200000" stroke="#000000" stroke-width="2" stroke-opacity="0.200000" points="410.05,-976.1 416.05,-974 410.05,-971.9 410.05,-976.1"/>
</g>
<!-- src/js/overlay/Overlay.js -->
<g id="node3" class="node">
<title>src/js/overlay/Overlay.js</title>
<g id="a_node3"><a xlink:href="src/js/overlay/Overlay.js" xlink:title="Overlay.js">
<path fill="#ffffcc" stroke="black" d="M610.21,-907.25C610.21,-907.25 566.79,-907.25 566.79,-907.25 563.71,-907.25 560.62,-904.17 560.62,-901.08 560.62,-901.08 560.62,-894.92 560.62,-894.92 560.62,-891.83 563.71,-888.75 566.79,-888.75 566.79,-888.75 610.21,-888.75 610.21,-888.75 613.29,-888.75 616.38,-891.83 616.38,-894.92 616.38,-894.92 616.38,-901.08 616.38,-901.08 616.38,-904.17 613.29,-907.25 610.21,-907.25"/>
<text text-anchor="start" x="568.62" y="-894.7" font-family="Helvetica,sans-Serif" font-size="9.00">Overlay.js</text>
</a>
</g>
</g>
<!-- src/js/controller/Controller.js&#45;&gt;src/js/overlay/Overlay.js -->
<g id="edge2" class="edge">
<title>src/js/controller/Controller.js&#45;&gt;src/js/overlay/Overlay.js</title>
<path fill="none" stroke="#000000" stroke-width="2" stroke-opacity="0.200000" d="M469.6,-964.37C493.13,-951.13 535.65,-927.19 562.69,-911.97"/>
<polygon fill="#000000" fill-opacity="0.200000" stroke="#000000" stroke-width="2" stroke-opacity="0.200000" points="563.7,-913.81 567.9,-909.03 561.64,-910.15 563.7,-913.81"/>
</g>
<!-- src/js/view/View.js -->
<g id="node4" class="node">
<title>src/js/view/View.js</title>
<g id="a_node4"><a xlink:href="src/js/view/View.js" xlink:title="View.js">
<path fill="#ffffcc" stroke="black" d="M609.33,-1060.25C609.33,-1060.25 567.67,-1060.25 567.67,-1060.25 564.58,-1060.25 561.5,-1057.17 561.5,-1054.08 561.5,-1054.08 561.5,-1047.92 561.5,-1047.92 561.5,-1044.83 564.58,-1041.75 567.67,-1041.75 567.67,-1041.75 609.33,-1041.75 609.33,-1041.75 612.42,-1041.75 615.5,-1044.83 615.5,-1047.92 615.5,-1047.92 615.5,-1054.08 615.5,-1054.08 615.5,-1057.17 612.42,-1060.25 609.33,-1060.25"/>
<text text-anchor="start" x="574.25" y="-1047.7" font-family="Helvetica,sans-Serif" font-size="9.00">View.js</text>
</a>
</g>
</g>
<!-- src/js/controller/Controller.js&#45;&gt;src/js/view/View.js -->
<g id="edge3" class="edge">
<title>src/js/controller/Controller.js&#45;&gt;src/js/view/View.js</title>
<path fill="none" stroke="#000000" stroke-width="2" stroke-opacity="0.200000" d="M460.35,-983.32C472.61,-997.25 497.72,-1023.33 524.75,-1037 533.28,-1041.31 543.12,-1044.31 552.45,-1046.38"/>
<polygon fill="#000000" fill-opacity="0.200000" stroke="#000000" stroke-width="2" stroke-opacity="0.200000" points="551.91,-1048.42 558.2,-1047.52 552.72,-1044.3 551.91,-1048.42"/>
</g>
<!-- src/js/overlay/dispatcher/OverlayDispatcher.js -->
<g id="node20" class="node">
<title>src/js/overlay/dispatcher/OverlayDispatcher.js</title>
<g id="a_node20"><a xlink:href="src/js/overlay/dispatcher/OverlayDispatcher.js" xlink:title="OverlayDispatcher.js">
<path fill="#ffffcc" stroke="black" d="M953.58,-880.25C953.58,-880.25 865.92,-880.25 865.92,-880.25 862.83,-880.25 859.75,-877.17 859.75,-874.08 859.75,-874.08 859.75,-867.92 859.75,-867.92 859.75,-864.83 862.83,-861.75 865.92,-861.75 865.92,-861.75 953.58,-861.75 953.58,-861.75 956.67,-861.75 959.75,-864.83 959.75,-867.92 959.75,-867.92 959.75,-874.08 959.75,-874.08 959.75,-877.17 956.67,-880.25 953.58,-880.25"/>
<text text-anchor="start" x="867.75" y="-867.7" font-family="Helvetica,sans-Serif" font-size="9.00">OverlayDispatcher.js</text>
</a>
</g>
</g>
<!-- src/js/overlay/Overlay.js&#45;&gt;src/js/overlay/dispatcher/OverlayDispatcher.js -->
<g id="edge14" class="edge">
<title>src/js/overlay/Overlay.js&#45;&gt;src/js/overlay/dispatcher/OverlayDispatcher.js</title>
<path fill="none" stroke="#000000" stroke-width="2" stroke-opacity="0.200000" d="M616.71,-898.95C629.86,-899.36 645.87,-899.8 660.25,-900 707.13,-900.66 719.1,-904.68 765.75,-900 798.5,-896.71 834.85,-889.29 862.7,-882.78"/>
<polygon fill="#000000" fill-opacity="0.200000" stroke="#000000" stroke-width="2" stroke-opacity="0.200000" points="863.13,-884.83 868.48,-881.4 862.16,-880.75 863.13,-884.83"/>
</g>
<!-- src/js/overlay/overlay/OverlayOverlay.js -->
<g id="node21" class="node">
<title>src/js/overlay/overlay/OverlayOverlay.js</title>
<g id="a_node21"><a xlink:href="src/js/overlay/overlay/OverlayOverlay.js" xlink:title="OverlayOverlay.js">
<path fill="#ffffcc" stroke="black" d="M750.46,-870.25C750.46,-870.25 675.54,-870.25 675.54,-870.25 672.46,-870.25 669.38,-867.17 669.38,-864.08 669.38,-864.08 669.38,-857.92 669.38,-857.92 669.38,-854.83 672.46,-851.75 675.54,-851.75 675.54,-851.75 750.46,-851.75 750.46,-851.75 753.54,-851.75 756.62,-854.83 756.62,-857.92 756.62,-857.92 756.62,-864.08 756.62,-864.08 756.62,-867.17 753.54,-870.25 750.46,-870.25"/>
<text text-anchor="start" x="677.38" y="-857.7" font-family="Helvetica,sans-Serif" font-size="9.00">OverlayOverlay.js</text>
</a>
</g>
</g>
<!-- src/js/overlay/Overlay.js&#45;&gt;src/js/overlay/overlay/OverlayOverlay.js -->
<g id="edge15" class="edge">
<title>src/js/overlay/Overlay.js&#45;&gt;src/js/overlay/overlay/OverlayOverlay.js</title>
<path fill="none" stroke="#000000" stroke-width="2" stroke-opacity="0.200000" d="M616.55,-888.25C629.66,-883.67 645.69,-878.29 660.25,-874 661.32,-873.68 662.41,-873.37 663.51,-873.05"/>
<polygon fill="#000000" fill-opacity="0.200000" stroke="#000000" stroke-width="2" stroke-opacity="0.200000" points="663.93,-875.12 669.16,-871.49 662.81,-871.07 663.93,-875.12"/>
</g>
<!-- src/js/data/Data.json -->
<g id="node5" class="node">
<title>src/js/data/Data.json</title>
<g id="a_node5"><a xlink:href="src/js/data/Data.json" xlink:title="Data.json">
<path fill="#ffee44" stroke="black" d="M327.58,-50.25C327.58,-50.25 284.92,-50.25 284.92,-50.25 281.83,-50.25 278.75,-47.17 278.75,-44.08 278.75,-44.08 278.75,-37.92 278.75,-37.92 278.75,-34.83 281.83,-31.75 284.92,-31.75 284.92,-31.75 327.58,-31.75 327.58,-31.75 330.67,-31.75 333.75,-34.83 333.75,-37.92 333.75,-37.92 333.75,-44.08 333.75,-44.08 333.75,-47.17 330.67,-50.25 327.58,-50.25"/>
<text text-anchor="start" x="286.75" y="-37.7" font-family="Helvetica,sans-Serif" font-size="9.00">Data.json</text>
</a>
</g>
</g>
<!-- src/js/data/DataController.js -->
<g id="node6" class="node">
<title>src/js/data/DataController.js</title>
<g id="a_node6"><a xlink:href="src/js/data/DataController.js" xlink:title="DataController.js">
<path fill="#ffffcc" stroke="black" d="M145.08,-50.25C145.08,-50.25 73.17,-50.25 73.17,-50.25 70.08,-50.25 67,-47.17 67,-44.08 67,-44.08 67,-37.92 67,-37.92 67,-34.83 70.08,-31.75 73.17,-31.75 73.17,-31.75 145.08,-31.75 145.08,-31.75 148.17,-31.75 151.25,-34.83 151.25,-37.92 151.25,-37.92 151.25,-44.08 151.25,-44.08 151.25,-47.17 148.17,-50.25 145.08,-50.25"/>
<text text-anchor="start" x="75" y="-37.7" font-family="Helvetica,sans-Serif" font-size="9.00">DataController.js</text>
</a>
</g>
</g>
<!-- src/js/data/DataController.js&#45;&gt;src/js/data/Data.json -->
<g id="edge4" class="edge">
<title>src/js/data/DataController.js&#45;&gt;src/js/data/Data.json</title>
<path fill="none" stroke="#000000" stroke-width="2" stroke-opacity="0.200000" d="M151.51,-41C186.48,-41 236.06,-41 269.37,-41"/>
<polygon fill="#000000" fill-opacity="0.200000" stroke="#000000" stroke-width="2" stroke-opacity="0.200000" points="269.28,-43.1 275.28,-41 269.28,-38.9 269.28,-43.1"/>
</g>
<!-- src/js/directable/Directable.js -->
<g id="node7" class="node">
<title>src/js/directable/Directable.js</title>
<g id="a_node7"><a xlink:href="src/js/directable/Directable.js" xlink:title="Directable.js">
<path fill="#ffffcc" stroke="black" d="M615.83,-442.25C615.83,-442.25 561.17,-442.25 561.17,-442.25 558.08,-442.25 555,-439.17 555,-436.08 555,-436.08 555,-429.92 555,-429.92 555,-426.83 558.08,-423.75 561.17,-423.75 561.17,-423.75 615.83,-423.75 615.83,-423.75 618.92,-423.75 622,-426.83 622,-429.92 622,-429.92 622,-436.08 622,-436.08 622,-439.17 618.92,-442.25 615.83,-442.25"/>
<text text-anchor="start" x="563" y="-429.7" font-family="Helvetica,sans-Serif" font-size="9.00">Directable.js</text>
</a>
</g>
</g>
<!-- src/js/directable/directables/frame/DirectableFrame.js -->
<g id="node8" class="node">
<title>src/js/directable/directables/frame/DirectableFrame.js</title>
<g id="a_node8"><a xlink:href="src/js/directable/directables/frame/DirectableFrame.js" xlink:title="DirectableFrame.js">
<path fill="#ffffcc" stroke="black" d="M346.71,-442.25C346.71,-442.25 265.79,-442.25 265.79,-442.25 262.71,-442.25 259.62,-439.17 259.62,-436.08 259.62,-436.08 259.62,-429.92 259.62,-429.92 259.62,-426.83 262.71,-423.75 265.79,-423.75 265.79,-423.75 346.71,-423.75 346.71,-423.75 349.79,-423.75 352.88,-426.83 352.88,-429.92 352.88,-429.92 352.88,-436.08 352.88,-436.08 352.88,-439.17 349.79,-442.25 346.71,-442.25"/>
<text text-anchor="start" x="267.62" y="-429.7" font-family="Helvetica,sans-Serif" font-size="9.00">DirectableFrame.js</text>
</a>
</g>
</g>
<!-- src/js/directable/directables/frame/DirectableFrame.js&#45;&gt;src/js/directable/Directable.js -->
<g id="edge5" class="edge">
<title>src/js/directable/directables/frame/DirectableFrame.js&#45;&gt;src/js/directable/Directable.js</title>
<path fill="none" stroke="#000000" stroke-width="2" stroke-opacity="0.200000" d="M353.21,-433C406.68,-433 494.2,-433 545.78,-433"/>
<polygon fill="#000000" fill-opacity="0.200000" stroke="#000000" stroke-width="2" stroke-opacity="0.200000" points="545.64,-435.1 551.64,-433 545.64,-430.9 545.64,-435.1"/>
</g>
<!-- src/js/directable/directables/rhythm/DirectableRhythm.js -->
<g id="node9" class="node">
<title>src/js/directable/directables/rhythm/DirectableRhythm.js</title>
<g id="a_node9"><a xlink:href="src/js/directable/directables/rhythm/DirectableRhythm.js" xlink:title="DirectableRhythm.js">
<path fill="#ffffcc" stroke="black" d="M494.58,-368.25C494.58,-368.25 408.42,-368.25 408.42,-368.25 405.33,-368.25 402.25,-365.17 402.25,-362.08 402.25,-362.08 402.25,-355.92 402.25,-355.92 402.25,-352.83 405.33,-349.75 408.42,-349.75 408.42,-349.75 494.58,-349.75 494.58,-349.75 497.67,-349.75 500.75,-352.83 500.75,-355.92 500.75,-355.92 500.75,-362.08 500.75,-362.08 500.75,-365.17 497.67,-368.25 494.58,-368.25"/>
<text text-anchor="start" x="410.25" y="-355.7" font-family="Helvetica,sans-Serif" font-size="9.00">DirectableRhythm.js</text>
</a>
</g>
</g>
<!-- src/js/directable/directables/rhythm/DirectableRhythm.js&#45;&gt;src/js/directable/Directable.js -->
<g id="edge6" class="edge">
<title>src/js/directable/directables/rhythm/DirectableRhythm.js&#45;&gt;src/js/directable/Directable.js</title>
<path fill="none" stroke="#000000" stroke-width="2" stroke-opacity="0.200000" d="M501.11,-366.04C506.52,-367.64 511.84,-369.6 516.75,-372 539.28,-383.04 560.41,-403.01 573.61,-417.09"/>
<polygon fill="#000000" fill-opacity="0.200000" stroke="#000000" stroke-width="2" stroke-opacity="0.200000" points="571.79,-418.21 577.39,-421.22 574.89,-415.38 571.79,-418.21"/>
</g>
<!-- src/js/directable/directables/rhythm/asdr/ASDRData.js -->
<g id="node10" class="node">
<title>src/js/directable/directables/rhythm/asdr/ASDRData.js</title>
<g id="a_node10"><a xlink:href="src/js/directable/directables/rhythm/asdr/ASDRData.js" xlink:title="ASDRData.js">
<path fill="#ccffcc" stroke="black" d="M335.08,-231.25C335.08,-231.25 277.42,-231.25 277.42,-231.25 274.33,-231.25 271.25,-228.17 271.25,-225.08 271.25,-225.08 271.25,-218.92 271.25,-218.92 271.25,-215.83 274.33,-212.75 277.42,-212.75 277.42,-212.75 335.08,-212.75 335.08,-212.75 338.17,-212.75 341.25,-215.83 341.25,-218.92 341.25,-218.92 341.25,-225.08 341.25,-225.08 341.25,-228.17 338.17,-231.25 335.08,-231.25"/>
<text text-anchor="start" x="279.25" y="-218.7" font-family="Helvetica,sans-Serif" font-size="9.00">ASDRData.js</text>
</a>
</g>
</g>
<!-- src/js/directable/directables/rhythm/asdr/ASDREnvelope.js -->
<g id="node11" class="node">
<title>src/js/directable/directables/rhythm/asdr/ASDREnvelope.js</title>
<g id="a_node11"><a xlink:href="src/js/directable/directables/rhythm/asdr/ASDREnvelope.js" xlink:title="ASDREnvelope.js">
<path fill="#ffffcc" stroke="black" d="M344.83,-262.25C344.83,-262.25 267.67,-262.25 267.67,-262.25 264.58,-262.25 261.5,-259.17 261.5,-256.08 261.5,-256.08 261.5,-249.92 261.5,-249.92 261.5,-246.83 264.58,-243.75 267.67,-243.75 267.67,-243.75 344.83,-243.75 344.83,-243.75 347.92,-243.75 351,-246.83 351,-249.92 351,-249.92 351,-256.08 351,-256.08 351,-259.17 347.92,-262.25 344.83,-262.25"/>
<text text-anchor="start" x="269.5" y="-249.7" font-family="Helvetica,sans-Serif" font-size="9.00">ASDREnvelope.js</text>
</a>
</g>
</g>
<!-- src/js/directable/directables/rhythm/asdr/DirectableRhythmASDRManager.js -->
<g id="node12" class="node">
<title>src/js/directable/directables/rhythm/asdr/DirectableRhythmASDRManager.js</title>
<g id="a_node12"><a xlink:href="src/js/directable/directables/rhythm/asdr/DirectableRhythmASDRManager.js" xlink:title="DirectableRhythmASDRManager.js">
<path fill="#ffffcc" stroke="black" d="M380.08,-293.25C380.08,-293.25 232.42,-293.25 232.42,-293.25 229.33,-293.25 226.25,-290.17 226.25,-287.08 226.25,-287.08 226.25,-280.92 226.25,-280.92 226.25,-277.83 229.33,-274.75 232.42,-274.75 232.42,-274.75 380.08,-274.75 380.08,-274.75 383.17,-274.75 386.25,-277.83 386.25,-280.92 386.25,-280.92 386.25,-287.08 386.25,-287.08 386.25,-290.17 383.17,-293.25 380.08,-293.25"/>
<text text-anchor="start" x="234.25" y="-280.7" font-family="Helvetica,sans-Serif" font-size="9.00">DirectableRhythmASDRManager.js</text>
</a>
</g>
</g>
<!-- src/js/directable/directables/rhythm/bpm/DirectableRhythmBPM.js -->
<g id="node13" class="node">
<title>src/js/directable/directables/rhythm/bpm/DirectableRhythmBPM.js</title>
<g id="a_node13"><a xlink:href="src/js/directable/directables/rhythm/bpm/DirectableRhythmBPM.js" xlink:title="DirectableRhythmBPM.js">
<path fill="#ffffcc" stroke="black" d="M359.08,-354.25C359.08,-354.25 253.42,-354.25 253.42,-354.25 250.33,-354.25 247.25,-351.17 247.25,-348.08 247.25,-348.08 247.25,-341.92 247.25,-341.92 247.25,-338.83 250.33,-335.75 253.42,-335.75 253.42,-335.75 359.08,-335.75 359.08,-335.75 362.17,-335.75 365.25,-338.83 365.25,-341.92 365.25,-341.92 365.25,-348.08 365.25,-348.08 365.25,-351.17 362.17,-354.25 359.08,-354.25"/>
<text text-anchor="start" x="255.25" y="-341.7" font-family="Helvetica,sans-Serif" font-size="9.00">DirectableRhythmBPM.js</text>
</a>
</g>
</g>
<!-- src/js/directable/directables/rhythm/bpm/DirectableRhythmBPM.js&#45;&gt;src/js/directable/directables/rhythm/DirectableRhythm.js -->
<g id="edge7" class="edge">
<title>src/js/directable/directables/rhythm/bpm/DirectableRhythmBPM.js&#45;&gt;src/js/directable/directables/rhythm/DirectableRhythm.js</title>
<path fill="none" stroke="#000000" stroke-width="2" stroke-opacity="0.200000" d="M365.52,-350.69C374.58,-351.58 383.94,-352.49 392.98,-353.38"/>
<polygon fill="#000000" fill-opacity="0.200000" stroke="#000000" stroke-width="2" stroke-opacity="0.200000" points="392.71,-355.46 398.89,-353.96 393.12,-351.28 392.71,-355.46"/>
</g>
<!-- src/js/directable/directables/title/DirectableTitle.js -->
<g id="node14" class="node">
<title>src/js/directable/directables/title/DirectableTitle.js</title>
<g id="a_node14"><a xlink:href="src/js/directable/directables/title/DirectableTitle.js" xlink:title="DirectableTitle.js">
<path fill="#ffffcc" stroke="black" d="M342.21,-503.25C342.21,-503.25 270.29,-503.25 270.29,-503.25 267.21,-503.25 264.12,-500.17 264.12,-497.08 264.12,-497.08 264.12,-490.92 264.12,-490.92 264.12,-487.83 267.21,-484.75 270.29,-484.75 270.29,-484.75 342.21,-484.75 342.21,-484.75 345.29,-484.75 348.38,-487.83 348.38,-490.92 348.38,-490.92 348.38,-497.08 348.38,-497.08 348.38,-500.17 345.29,-503.25 342.21,-503.25"/>
<text text-anchor="start" x="272.12" y="-490.7" font-family="Helvetica,sans-Serif" font-size="9.00">DirectableTitle.js</text>
</a>
</g>
</g>
<!-- src/js/directable/directables/title/DirectableTitle.js&#45;&gt;src/js/directable/Directable.js -->
<g id="edge8" class="edge">
<title>src/js/directable/directables/title/DirectableTitle.js&#45;&gt;src/js/directable/Directable.js</title>
<path fill="none" stroke="#000000" stroke-width="2" stroke-opacity="0.200000" d="M348.6,-485C401.57,-473.47 492.85,-453.6 545.92,-442.05"/>
<polygon fill="#000000" fill-opacity="0.200000" stroke="#000000" stroke-width="2" stroke-opacity="0.200000" points="546.36,-444.1 551.78,-440.78 545.47,-440 546.36,-444.1"/>
</g>
<!-- src/js/director/Director.js -->
<g id="node15" class="node">
<title>src/js/director/Director.js</title>
<g id="a_node15"><a xlink:href="src/js/director/Director.js" xlink:title="Director.js">
<path fill="#ffffcc" stroke="black" d="M328.33,-119.25C328.33,-119.25 284.17,-119.25 284.17,-119.25 281.08,-119.25 278,-116.17 278,-113.08 278,-113.08 278,-106.92 278,-106.92 278,-103.83 281.08,-100.75 284.17,-100.75 284.17,-100.75 328.33,-100.75 328.33,-100.75 331.42,-100.75 334.5,-103.83 334.5,-106.92 334.5,-106.92 334.5,-113.08 334.5,-113.08 334.5,-116.17 331.42,-119.25 328.33,-119.25"/>
<text text-anchor="start" x="286" y="-106.7" font-family="Helvetica,sans-Serif" font-size="9.00">Director.js</text>
</a>
</g>
</g>
<!-- src/js/director/directors/DirectorDanceRabbitDance.js -->
<g id="node16" class="node">
<title>src/js/director/directors/DirectorDanceRabbitDance.js</title>
<g id="a_node16"><a xlink:href="src/js/director/directors/DirectorDanceRabbitDance.js" xlink:title="DirectorDanceRabbitDance.js">
<path fill="#ffffcc" stroke="black" d="M172.08,-119.25C172.08,-119.25 46.17,-119.25 46.17,-119.25 43.08,-119.25 40,-116.17 40,-113.08 40,-113.08 40,-106.92 40,-106.92 40,-103.83 43.08,-100.75 46.17,-100.75 46.17,-100.75 172.08,-100.75 172.08,-100.75 175.17,-100.75 178.25,-103.83 178.25,-106.92 178.25,-106.92 178.25,-113.08 178.25,-113.08 178.25,-116.17 175.17,-119.25 172.08,-119.25"/>
<text text-anchor="start" x="48" y="-106.7" font-family="Helvetica,sans-Serif" font-size="9.00">DirectorDanceRabbitDance.js</text>
</a>
</g>
</g>
<!-- src/js/director/directors/DirectorDanceRabbitDance.js&#45;&gt;src/js/directable/directables/rhythm/bpm/DirectableRhythmBPM.js -->
<g id="edge9" class="edge">
<title>src/js/director/directors/DirectorDanceRabbitDance.js&#45;&gt;src/js/directable/directables/rhythm/bpm/DirectableRhythmBPM.js</title>
<path fill="none" stroke="#000000" stroke-width="2" stroke-opacity="0.200000" d="M110.77,-119.48C113.62,-153.12 127.99,-267.74 194.25,-323 206.6,-333.3 222.4,-339.26 238.18,-342.61"/>
<polygon fill="#000000" fill-opacity="0.200000" stroke="#000000" stroke-width="2" stroke-opacity="0.200000" points="237.66,-344.65 243.94,-343.66 238.42,-340.52 237.66,-344.65"/>
</g>
<!-- src/js/director/directors/DirectorDanceRabbitDance.js&#45;&gt;src/js/directable/directables/title/DirectableTitle.js -->
<g id="edge10" class="edge">
<title>src/js/director/directors/DirectorDanceRabbitDance.js&#45;&gt;src/js/directable/directables/title/DirectableTitle.js</title>
<path fill="none" stroke="#000000" stroke-width="2" stroke-opacity="0.200000" d="M110.96,-119.52C115.74,-171.49 141.16,-420.62 194.25,-472 210.18,-487.42 233.65,-493.52 254.9,-495.52"/>
<polygon fill="#000000" fill-opacity="0.200000" stroke="#000000" stroke-width="2" stroke-opacity="0.200000" points="254.69,-497.61 260.83,-495.93 254.99,-493.42 254.69,-497.61"/>
</g>
<!-- src/js/director/directors/DirectorDanceRabbitDance.js&#45;&gt;src/js/director/Director.js -->
<g id="edge11" class="edge">
<title>src/js/director/directors/DirectorDanceRabbitDance.js&#45;&gt;src/js/director/Director.js</title>
<path fill="none" stroke="#000000" stroke-width="2" stroke-opacity="0.200000" d="M178.64,-110C208.96,-110 243.4,-110 268.69,-110"/>
<polygon fill="#000000" fill-opacity="0.200000" stroke="#000000" stroke-width="2" stroke-opacity="0.200000" points="268.55,-112.1 274.55,-110 268.55,-107.9 268.55,-112.1"/>
</g>
<!-- src/js/event/ApplicationEvent.js -->
<g id="node17" class="node">
<title>src/js/event/ApplicationEvent.js</title>
<g id="a_node17"><a xlink:href="src/js/event/ApplicationEvent.js" xlink:title="ApplicationEvent.js">
<path fill="#ffffcc" stroke="black" d="M347.08,-736.25C347.08,-736.25 265.42,-736.25 265.42,-736.25 262.33,-736.25 259.25,-733.17 259.25,-730.08 259.25,-730.08 259.25,-723.92 259.25,-723.92 259.25,-720.83 262.33,-717.75 265.42,-717.75 265.42,-717.75 347.08,-717.75 347.08,-717.75 350.17,-717.75 353.25,-720.83 353.25,-723.92 353.25,-723.92 353.25,-730.08 353.25,-730.08 353.25,-733.17 350.17,-736.25 347.08,-736.25"/>
<text text-anchor="start" x="267.25" y="-723.7" font-family="Helvetica,sans-Serif" font-size="9.00">ApplicationEvent.js</text>
</a>
</g>
</g>
<!-- src/js/event/ApplicationEventDispatcher.js -->
<g id="node18" class="node">
<title>src/js/event/ApplicationEventDispatcher.js</title>
<g id="a_node18"><a xlink:href="src/js/event/ApplicationEventDispatcher.js" xlink:title="ApplicationEventDispatcher.js">
<path fill="#ffffcc" stroke="black" d="M171.71,-736.25C171.71,-736.25 46.54,-736.25 46.54,-736.25 43.46,-736.25 40.38,-733.17 40.38,-730.08 40.38,-730.08 40.38,-723.92 40.38,-723.92 40.38,-720.83 43.46,-717.75 46.54,-717.75 46.54,-717.75 171.71,-717.75 171.71,-717.75 174.79,-717.75 177.88,-720.83 177.88,-723.92 177.88,-723.92 177.88,-730.08 177.88,-730.08 177.88,-733.17 174.79,-736.25 171.71,-736.25"/>
<text text-anchor="start" x="48.38" y="-723.7" font-family="Helvetica,sans-Serif" font-size="9.00">ApplicationEventDispatcher.js</text>
</a>
</g>
</g>
<!-- src/js/event/ApplicationEventDispatcher.js&#45;&gt;src/js/event/ApplicationEvent.js -->
<g id="edge12" class="edge">
<title>src/js/event/ApplicationEventDispatcher.js&#45;&gt;src/js/event/ApplicationEvent.js</title>
<path fill="none" stroke="#000000" stroke-width="2" stroke-opacity="0.200000" d="M178.37,-727C201.75,-727 227.6,-727 249.83,-727"/>
<polygon fill="#000000" fill-opacity="0.200000" stroke="#000000" stroke-width="2" stroke-opacity="0.200000" points="249.77,-729.1 255.77,-727 249.77,-724.9 249.77,-729.1"/>
</g>
<!-- src/js/index.js -->
<g id="node19" class="node">
<title>src/js/index.js</title>
<g id="a_node19"><a xlink:href="src/js/index.js" xlink:title="index.js">
<path fill="#ffffcc" stroke="black" d="M129.96,-983.25C129.96,-983.25 88.29,-983.25 88.29,-983.25 85.21,-983.25 82.12,-980.17 82.12,-977.08 82.12,-977.08 82.12,-970.92 82.12,-970.92 82.12,-967.83 85.21,-964.75 88.29,-964.75 88.29,-964.75 129.96,-964.75 129.96,-964.75 133.04,-964.75 136.12,-967.83 136.12,-970.92 136.12,-970.92 136.12,-977.08 136.12,-977.08 136.12,-980.17 133.04,-983.25 129.96,-983.25"/>
<text text-anchor="start" x="93.38" y="-970.7" font-family="Helvetica,sans-Serif" font-size="9.00">index.js</text>
</a>
</g>
</g>
<!-- src/js/index.js&#45;&gt;src/js/application/Application.js -->
<g id="edge13" class="edge">
<title>src/js/index.js&#45;&gt;src/js/application/Application.js</title>
<path fill="none" stroke="#000000" stroke-width="2" stroke-opacity="0.200000" d="M136.44,-974C168.51,-974 223.16,-974 261.57,-974"/>
<polygon fill="#000000" fill-opacity="0.200000" stroke="#000000" stroke-width="2" stroke-opacity="0.200000" points="261.45,-976.1 267.45,-974 261.45,-971.9 261.45,-976.1"/>
</g>
<!-- src/js/overlay/dispatcher/OverlayDispatcherEvent.js -->
<g id="node24" class="node">
<title>src/js/overlay/dispatcher/OverlayDispatcherEvent.js</title>
<g id="a_node24"><a xlink:href="src/js/overlay/dispatcher/OverlayDispatcherEvent.js" xlink:title="OverlayDispatcherEvent.js">
<path fill="#ffffcc" stroke="black" d="M1090.58,-880.25C1090.58,-880.25 978.92,-880.25 978.92,-880.25 975.83,-880.25 972.75,-877.17 972.75,-874.08 972.75,-874.08 972.75,-867.92 972.75,-867.92 972.75,-864.83 975.83,-861.75 978.92,-861.75 978.92,-861.75 1090.58,-861.75 1090.58,-861.75 1093.67,-861.75 1096.75,-864.83 1096.75,-867.92 1096.75,-867.92 1096.75,-874.08 1096.75,-874.08 1096.75,-877.17 1093.67,-880.25 1090.58,-880.25"/>
<text text-anchor="start" x="980.75" y="-867.7" font-family="Helvetica,sans-Serif" font-size="9.00">OverlayDispatcherEvent.js</text>
</a>
</g>
</g>
<!-- src/js/overlay/dispatcher/OverlayDispatcher.js&#45;&gt;src/js/overlay/dispatcher/OverlayDispatcherEvent.js -->
<g id="edge18" class="edge">
<title>src/js/overlay/dispatcher/OverlayDispatcher.js&#45;&gt;src/js/overlay/dispatcher/OverlayDispatcherEvent.js</title>
<path fill="none" stroke="#000000" stroke-width="2" stroke-opacity="0.200000" d="M960.07,-871C961.37,-871 962.67,-871 963.97,-871"/>
<polygon fill="#000000" fill-opacity="0.200000" stroke="#000000" stroke-width="2" stroke-opacity="0.200000" points="963.63,-873.1 969.63,-871 963.63,-868.9 963.63,-873.1"/>
</g>
<!-- src/js/overlay/OverlayUtil.js -->
<g id="node22" class="node">
<title>src/js/overlay/OverlayUtil.js</title>
<g id="a_node22"><a xlink:href="src/js/overlay/OverlayUtil.js" xlink:title="OverlayUtil.js">
<path fill="#ffffcc" stroke="black" d="M837.58,-779.25C837.58,-779.25 779.92,-779.25 779.92,-779.25 776.83,-779.25 773.75,-776.17 773.75,-773.08 773.75,-773.08 773.75,-766.92 773.75,-766.92 773.75,-763.83 776.83,-760.75 779.92,-760.75 779.92,-760.75 837.58,-760.75 837.58,-760.75 840.67,-760.75 843.75,-763.83 843.75,-766.92 843.75,-766.92 843.75,-773.08 843.75,-773.08 843.75,-776.17 840.67,-779.25 837.58,-779.25"/>
<text text-anchor="start" x="781.75" y="-766.7" font-family="Helvetica,sans-Serif" font-size="9.00">OverlayUtil.js</text>
</a>
</g>
</g>
<!-- src/js/overlay/overlay/OverlayOverlay.js&#45;&gt;src/js/overlay/OverlayUtil.js -->
<g id="edge21" class="edge">
<title>src/js/overlay/overlay/OverlayOverlay.js&#45;&gt;src/js/overlay/OverlayUtil.js</title>
<path fill="none" stroke="#000000" stroke-width="2" stroke-opacity="0.200000" d="M745.37,-851.35C752.57,-848.17 759.84,-844.11 765.75,-839 782.07,-824.89 793.94,-802.83 800.82,-787.46"/>
<polygon fill="#000000" fill-opacity="0.200000" stroke="#000000" stroke-width="2" stroke-opacity="0.200000" points="802.69,-788.43 803.1,-782.08 798.82,-786.79 802.69,-788.43"/>
</g>
<!-- src/js/overlay/OverlayUtil.js&#45;&gt;src/js/overlay/dispatcher/OverlayDispatcher.js -->
<g id="edge16" class="edge">
<title>src/js/overlay/OverlayUtil.js&#45;&gt;src/js/overlay/dispatcher/OverlayDispatcher.js</title>
<path fill="none" stroke="#000000" stroke-width="2" stroke-opacity="0.200000" d="M819.24,-779.68C836.36,-797.15 872.55,-834.07 893.28,-855.22"/>
<polygon fill="#000000" fill-opacity="0.200000" stroke="#000000" stroke-width="2" stroke-opacity="0.200000" points="891.61,-856.52 897.31,-859.33 894.61,-853.58 891.61,-856.52"/>
</g>
<!-- src/js/overlay/capture/OverlayCapture.js -->
<g id="node23" class="node">
<title>src/js/overlay/capture/OverlayCapture.js</title>
<g id="a_node23"><a xlink:href="src/js/overlay/capture/OverlayCapture.js" xlink:title="OverlayCapture.js">
<path fill="#ffffcc" stroke="black" d="M751.58,-626.25C751.58,-626.25 674.42,-626.25 674.42,-626.25 671.33,-626.25 668.25,-623.17 668.25,-620.08 668.25,-620.08 668.25,-613.92 668.25,-613.92 668.25,-610.83 671.33,-607.75 674.42,-607.75 674.42,-607.75 751.58,-607.75 751.58,-607.75 754.67,-607.75 757.75,-610.83 757.75,-613.92 757.75,-613.92 757.75,-620.08 757.75,-620.08 757.75,-623.17 754.67,-626.25 751.58,-626.25"/>
<text text-anchor="start" x="676.25" y="-613.7" font-family="Helvetica,sans-Serif" font-size="9.00">OverlayCapture.js</text>
</a>
</g>
</g>
<!-- src/js/overlay/capture/OverlayCapture.js&#45;&gt;src/js/overlay/OverlayUtil.js -->
<g id="edge17" class="edge">
<title>src/js/overlay/capture/OverlayCapture.js&#45;&gt;src/js/overlay/OverlayUtil.js</title>
<path fill="none" stroke="#000000" stroke-width="2" stroke-opacity="0.200000" d="M730.43,-626.64C741.71,-633.99 756.3,-645.03 765.75,-658 787.03,-687.21 798.79,-728.46 804.14,-751.89"/>
<polygon fill="#000000" fill-opacity="0.200000" stroke="#000000" stroke-width="2" stroke-opacity="0.200000" points="802.03,-752.09 805.35,-757.52 806.14,-751.21 802.03,-752.09"/>
</g>
<!-- src/js/overlay/format/OverlayFormat.js -->
<g id="node25" class="node">
<title>src/js/overlay/format/OverlayFormat.js</title>
<g id="a_node25"><a xlink:href="src/js/overlay/format/OverlayFormat.js" xlink:title="OverlayFormat.js">
<path fill="#ffffcc" stroke="black" d="M749.33,-687.25C749.33,-687.25 676.67,-687.25 676.67,-687.25 673.58,-687.25 670.5,-684.17 670.5,-681.08 670.5,-681.08 670.5,-674.92 670.5,-674.92 670.5,-671.83 673.58,-668.75 676.67,-668.75 676.67,-668.75 749.33,-668.75 749.33,-668.75 752.42,-668.75 755.5,-671.83 755.5,-674.92 755.5,-674.92 755.5,-681.08 755.5,-681.08 755.5,-684.17 752.42,-687.25 749.33,-687.25"/>
<text text-anchor="start" x="678.5" y="-674.7" font-family="Helvetica,sans-Serif" font-size="9.00">OverlayFormat.js</text>
</a>
</g>
</g>
<!-- src/js/overlay/format/OverlayFormat.js&#45;&gt;src/js/overlay/OverlayUtil.js -->
<g id="edge19" class="edge">
<title>src/js/overlay/format/OverlayFormat.js&#45;&gt;src/js/overlay/OverlayUtil.js</title>
<path fill="none" stroke="#000000" stroke-width="2" stroke-opacity="0.200000" d="M727.84,-687.71C738.65,-695.59 753.81,-707.28 765.75,-719 776.69,-729.73 787.64,-743.15 795.62,-753.53"/>
<polygon fill="#000000" fill-opacity="0.200000" stroke="#000000" stroke-width="2" stroke-opacity="0.200000" points="793.75,-754.53 799.04,-758.05 797.1,-752 793.75,-754.53"/>
</g>
<!-- src/js/overlay/media/OverlayMedia.js -->
<g id="node26" class="node">
<title>src/js/overlay/media/OverlayMedia.js</title>
<g id="a_node26"><a xlink:href="src/js/overlay/media/OverlayMedia.js" xlink:title="OverlayMedia.js">
<path fill="#ffffcc" stroke="black" d="M747.83,-748.25C747.83,-748.25 678.17,-748.25 678.17,-748.25 675.08,-748.25 672,-745.17 672,-742.08 672,-742.08 672,-735.92 672,-735.92 672,-732.83 675.08,-729.75 678.17,-729.75 678.17,-729.75 747.83,-729.75 747.83,-729.75 750.92,-729.75 754,-732.83 754,-735.92 754,-735.92 754,-742.08 754,-742.08 754,-745.17 750.92,-748.25 747.83,-748.25"/>
<text text-anchor="start" x="680" y="-735.7" font-family="Helvetica,sans-Serif" font-size="9.00">OverlayMedia.js</text>
</a>
</g>
</g>
<!-- src/js/overlay/media/OverlayMedia.js&#45;&gt;src/js/overlay/OverlayUtil.js -->
<g id="edge20" class="edge">
<title>src/js/overlay/media/OverlayMedia.js&#45;&gt;src/js/overlay/OverlayUtil.js</title>
<path fill="none" stroke="#000000" stroke-width="2" stroke-opacity="0.200000" d="M743.41,-748.72C751.87,-751.52 761.22,-754.61 770.11,-757.55"/>
<polygon fill="#000000" fill-opacity="0.200000" stroke="#000000" stroke-width="2" stroke-opacity="0.200000" points="769.22,-759.47 775.57,-759.36 770.54,-755.48 769.22,-759.47"/>
</g>
<!-- src/js/overlay/rhythm/OverlayRhythm.js -->
<g id="node27" class="node">
<title>src/js/overlay/rhythm/OverlayRhythm.js</title>
<g id="a_node27"><a xlink:href="src/js/overlay/rhythm/OverlayRhythm.js" xlink:title="OverlayRhythm.js">
<path fill="#ffffcc" stroke="black" d="M750.83,-809.25C750.83,-809.25 675.17,-809.25 675.17,-809.25 672.08,-809.25 669,-806.17 669,-803.08 669,-803.08 669,-796.92 669,-796.92 669,-793.83 672.08,-790.75 675.17,-790.75 675.17,-790.75 750.83,-790.75 750.83,-790.75 753.92,-790.75 757,-793.83 757,-796.92 757,-796.92 757,-803.08 757,-803.08 757,-806.17 753.92,-809.25 750.83,-809.25"/>
<text text-anchor="start" x="677" y="-796.7" font-family="Helvetica,sans-Serif" font-size="9.00">OverlayRhythm.js</text>
</a>
</g>
</g>
<!-- src/js/overlay/rhythm/OverlayRhythm.js&#45;&gt;src/js/overlay/OverlayUtil.js -->
<g id="edge22" class="edge">
<title>src/js/overlay/rhythm/OverlayRhythm.js&#45;&gt;src/js/overlay/OverlayUtil.js</title>
<path fill="none" stroke="#000000" stroke-width="2" stroke-opacity="0.200000" d="M744.44,-790.26C752.29,-787.75 760.86,-785.01 769.07,-782.38"/>
<polygon fill="#000000" fill-opacity="0.200000" stroke="#000000" stroke-width="2" stroke-opacity="0.200000" points="769.51,-784.44 774.58,-780.61 768.23,-780.44 769.51,-784.44"/>
</g>
<!-- src/js/rhythm/ViewRhythm.js -->
<g id="node28" class="node">
<title>src/js/rhythm/ViewRhythm.js</title>
<g id="a_node28"><a xlink:href="src/js/rhythm/ViewRhythm.js" xlink:title="ViewRhythm.js">
<path fill="#ffffcc" stroke="black" d="M141.33,-880.25C141.33,-880.25 76.92,-880.25 76.92,-880.25 73.83,-880.25 70.75,-877.17 70.75,-874.08 70.75,-874.08 70.75,-867.92 70.75,-867.92 70.75,-864.83 73.83,-861.75 76.92,-861.75 76.92,-861.75 141.33,-861.75 141.33,-861.75 144.42,-861.75 147.5,-864.83 147.5,-867.92 147.5,-867.92 147.5,-874.08 147.5,-874.08 147.5,-877.17 144.42,-880.25 141.33,-880.25"/>
<text text-anchor="start" x="78.75" y="-867.7" font-family="Helvetica,sans-Serif" font-size="9.00">ViewRhythm.js</text>
</a>
</g>
</g>
<!-- src/js/rhythm/ViewRhythmTrack.js -->
<g id="node29" class="node">
<title>src/js/rhythm/ViewRhythmTrack.js</title>
<g id="a_node29"><a xlink:href="src/js/rhythm/ViewRhythmTrack.js" xlink:title="ViewRhythmTrack.js">
<path fill="#ffffcc" stroke="black" d="M349.71,-880.25C349.71,-880.25 262.79,-880.25 262.79,-880.25 259.71,-880.25 256.62,-877.17 256.62,-874.08 256.62,-874.08 256.62,-867.92 256.62,-867.92 256.62,-864.83 259.71,-861.75 262.79,-861.75 262.79,-861.75 349.71,-861.75 349.71,-861.75 352.79,-861.75 355.88,-864.83 355.88,-867.92 355.88,-867.92 355.88,-874.08 355.88,-874.08 355.88,-877.17 352.79,-880.25 349.71,-880.25"/>
<text text-anchor="start" x="264.62" y="-867.7" font-family="Helvetica,sans-Serif" font-size="9.00">ViewRhythmTrack.js</text>
</a>
</g>
</g>
<!-- src/js/rhythm/ViewRhythm.js&#45;&gt;src/js/rhythm/ViewRhythmTrack.js -->
<g id="edge23" class="edge">
<title>src/js/rhythm/ViewRhythm.js&#45;&gt;src/js/rhythm/ViewRhythmTrack.js</title>
<path fill="none" stroke="#000000" stroke-width="2" stroke-opacity="0.200000" d="M147.75,-871C175.99,-871 215.17,-871 247.39,-871"/>
<polygon fill="#000000" fill-opacity="0.200000" stroke="#000000" stroke-width="2" stroke-opacity="0.200000" points="247.25,-873.1 253.25,-871 247.25,-868.9 247.25,-873.1"/>
</g>
<!-- src/js/view/render/RenderController.js -->
<g id="node30" class="node">
<title>src/js/view/render/RenderController.js</title>
<g id="a_node30"><a xlink:href="src/js/view/render/RenderController.js" xlink:title="RenderController.js">
<path fill="#ccffcc" stroke="black" d="M630.08,-976.25C630.08,-976.25 546.92,-976.25 546.92,-976.25 543.83,-976.25 540.75,-973.17 540.75,-970.08 540.75,-970.08 540.75,-963.92 540.75,-963.92 540.75,-960.83 543.83,-957.75 546.92,-957.75 546.92,-957.75 630.08,-957.75 630.08,-957.75 633.17,-957.75 636.25,-960.83 636.25,-963.92 636.25,-963.92 636.25,-970.08 636.25,-970.08 636.25,-973.17 633.17,-976.25 630.08,-976.25"/>
<text text-anchor="start" x="548.75" y="-963.7" font-family="Helvetica,sans-Serif" font-size="9.00">RenderController.js</text>
</a>
</g>
</g>
<!-- src/js/view/render/RenderResizer.js -->
<g id="node31" class="node">
<title>src/js/view/render/RenderResizer.js</title>
<g id="a_node31"><a xlink:href="src/js/view/render/RenderResizer.js" xlink:title="RenderResizer.js">
<path fill="#ffffcc" stroke="black" d="M625.58,-1007.25C625.58,-1007.25 551.42,-1007.25 551.42,-1007.25 548.33,-1007.25 545.25,-1004.17 545.25,-1001.08 545.25,-1001.08 545.25,-994.92 545.25,-994.92 545.25,-991.83 548.33,-988.75 551.42,-988.75 551.42,-988.75 625.58,-988.75 625.58,-988.75 628.67,-988.75 631.75,-991.83 631.75,-994.92 631.75,-994.92 631.75,-1001.08 631.75,-1001.08 631.75,-1004.17 628.67,-1007.25 625.58,-1007.25"/>
<text text-anchor="start" x="553.25" y="-994.7" font-family="Helvetica,sans-Serif" font-size="9.00">RenderResizer.js</text>
</a>
</g>
</g>
<!-- src/js/view/render/RenderResizer.js&#45;&gt;src/js/overlay/dispatcher/OverlayDispatcher.js -->
<g id="edge24" class="edge">
<title>src/js/view/render/RenderResizer.js&#45;&gt;src/js/overlay/dispatcher/OverlayDispatcher.js</title>
<path fill="none" stroke="#000000" stroke-width="2" stroke-opacity="0.200000" d="M632.16,-994.97C684.9,-989.66 775.97,-975.29 843.75,-937 865.65,-924.63 885.05,-902.74 896.84,-887.58"/>
<polygon fill="#000000" fill-opacity="0.200000" stroke="#000000" stroke-width="2" stroke-opacity="0.200000" points="898.23,-889.22 900.16,-883.16 894.87,-886.69 898.23,-889.22"/>
</g>
</g>
</svg>
