<?xml version="1.0" encoding="UTF-8" standalone="no"?>
<!DOCTYPE svg PUBLIC "-//W3C//DTD SVG 1.1//EN"
 "http://www.w3.org/Graphics/SVG/1.1/DTD/svg11.dtd">
<!-- Generated by graphviz version 12.2.1 (20241206.2353)
 -->
<!-- Title: dependency&#45;cruiser output Pages: 1 -->
<svg width="710pt" height="1270pt"
 viewBox="0.00 0.00 709.63 1270.00" xmlns="http://www.w3.org/2000/svg" xmlns:xlink="http://www.w3.org/1999/xlink">
<g id="graph0" class="graph" transform="scale(1 1) rotate(0) translate(4 1266)">
<title>dependency&#45;cruiser output</title>
<polygon fill="white" stroke="none" points="-4,4 -4,-1266 705.63,-1266 705.63,4 -4,4"/>
<g id="clust1" class="cluster">
<title>cluster_src</title>
<path fill="#ffffff" stroke="black" stroke-width="2" d="M22.75,-8C22.75,-8 681.63,-8 681.63,-8 687.63,-8 693.63,-14 693.63,-20 693.63,-20 693.63,-1242 693.63,-1242 693.63,-1248 687.63,-1254 681.63,-1254 681.63,-1254 22.75,-1254 22.75,-1254 16.75,-1254 10.75,-1248 10.75,-1242 10.75,-1242 10.75,-20 10.75,-20 10.75,-14 16.75,-8 22.75,-8"/>
<text text-anchor="middle" x="352.19" y="-1241.45" font-family="Helvetica,sans-Serif" font-weight="bold" font-size="9.00">src</text>
</g>
<g id="clust2" class="cluster">
<title>cluster_src/js</title>
<path fill="#ffffff" stroke="black" stroke-width="2" d="M30.75,-16C30.75,-16 673.63,-16 673.63,-16 679.63,-16 685.63,-22 685.63,-28 685.63,-28 685.63,-1215 685.63,-1215 685.63,-1221 679.63,-1227 673.63,-1227 673.63,-1227 30.75,-1227 30.75,-1227 24.75,-1227 18.75,-1221 18.75,-1215 18.75,-1215 18.75,-28 18.75,-28 18.75,-22 24.75,-16 30.75,-16"/>
<text text-anchor="middle" x="352.19" y="-1214.45" font-family="Helvetica,sans-Serif" font-weight="bold" font-size="9.00">js</text>
</g>
<g id="clust3" class="cluster">
<title>cluster_src/js/application</title>
<path fill="#ffffff" stroke="black" stroke-width="2" d="M417,-1079C417,-1079 665.63,-1079 665.63,-1079 671.63,-1079 677.63,-1085 677.63,-1091 677.63,-1091 677.63,-1182 677.63,-1182 677.63,-1188 671.63,-1194 665.63,-1194 665.63,-1194 417,-1194 417,-1194 411,-1194 405,-1188 405,-1182 405,-1182 405,-1091 405,-1091 405,-1085 411,-1079 417,-1079"/>
<text text-anchor="middle" x="541.31" y="-1181.45" font-family="Helvetica,sans-Serif" font-weight="bold" font-size="9.00">application</text>
</g>
<g id="clust4" class="cluster">
<title>cluster_src/js/controller</title>
<path fill="#ffffff" stroke="black" stroke-width="2" d="M83.5,-161C83.5,-161 140.25,-161 140.25,-161 146.25,-161 152.25,-167 152.25,-173 152.25,-173 152.25,-202 152.25,-202 152.25,-208 146.25,-214 140.25,-214 140.25,-214 83.5,-214 83.5,-214 77.5,-214 71.5,-208 71.5,-202 71.5,-202 71.5,-173 71.5,-173 71.5,-167 77.5,-161 83.5,-161"/>
<text text-anchor="middle" x="111.88" y="-201.45" font-family="Helvetica,sans-Serif" font-weight="bold" font-size="9.00">controller</text>
</g>
<g id="clust5" class="cluster">
<title>cluster_src/js/data</title>
<path fill="#ffffff" stroke="black" stroke-width="2" d="M73.75,-24C73.75,-24 332.5,-24 332.5,-24 338.5,-24 344.5,-30 344.5,-36 344.5,-36 344.5,-65 344.5,-65 344.5,-71 338.5,-77 332.5,-77 332.5,-77 73.75,-77 73.75,-77 67.75,-77 61.75,-71 61.75,-65 61.75,-65 61.75,-36 61.75,-36 61.75,-30 67.75,-24 73.75,-24"/>
<text text-anchor="middle" x="203.13" y="-64.45" font-family="Helvetica,sans-Serif" font-weight="bold" font-size="9.00">data</text>
</g>
<g id="clust6" class="cluster">
<title>cluster_src/js/directable</title>
<path fill="#ffffff" stroke="black" stroke-width="2" d="M209,-318C209,-318 636,-318 636,-318 642,-318 648,-324 648,-330 648,-330 648,-709 648,-709 648,-715 642,-721 636,-721 636,-721 209,-721 209,-721 203,-721 197,-715 197,-709 197,-709 197,-330 197,-330 197,-324 203,-318 209,-318"/>
<text text-anchor="middle" x="422.5" y="-708.45" font-family="Helvetica,sans-Serif" font-weight="bold" font-size="9.00">directable</text>
</g>
<g id="clust7" class="cluster">
<title>cluster_src/js/directable/directables</title>
<path fill="#ffffff" stroke="black" stroke-width="2" d="M217,-326C217,-326 523.38,-326 523.38,-326 529.38,-326 535.38,-332 535.38,-338 535.38,-338 535.38,-682 535.38,-682 535.38,-688 529.38,-694 523.38,-694 523.38,-694 217,-694 217,-694 211,-694 205,-688 205,-682 205,-682 205,-338 205,-338 205,-332 211,-326 217,-326"/>
<text text-anchor="middle" x="370.19" y="-681.45" font-family="Helvetica,sans-Serif" font-weight="bold" font-size="9.00">directables</text>
</g>
<g id="clust8" class="cluster">
<title>cluster_src/js/directable/directables/frame</title>
<path fill="#ffffff" stroke="black" stroke-width="2" d="M266.38,-334C266.38,-334 351.63,-334 351.63,-334 357.63,-334 363.63,-340 363.63,-346 363.63,-346 363.63,-375 363.63,-375 363.63,-381 357.63,-387 351.63,-387 351.63,-387 266.38,-387 266.38,-387 260.38,-387 254.38,-381 254.38,-375 254.38,-375 254.38,-346 254.38,-346 254.38,-340 260.38,-334 266.38,-334"/>
<text text-anchor="middle" x="309" y="-374.45" font-family="Helvetica,sans-Serif" font-weight="bold" font-size="9.00">frame</text>
</g>
<g id="clust9" class="cluster">
<title>cluster_src/js/directable/directables/rhythm</title>
<path fill="#ffffff" stroke="black" stroke-width="2" d="M225,-395C225,-395 515.38,-395 515.38,-395 521.38,-395 527.38,-401 527.38,-407 527.38,-407 527.38,-594 527.38,-594 527.38,-600 521.38,-606 515.38,-606 515.38,-606 225,-606 225,-606 219,-606 213,-600 213,-594 213,-594 213,-407 213,-407 213,-401 219,-395 225,-395"/>
<text text-anchor="middle" x="370.19" y="-593.45" font-family="Helvetica,sans-Serif" font-weight="bold" font-size="9.00">rhythm</text>
</g>
<g id="clust10" class="cluster">
<title>cluster_src/js/directable/directables/rhythm/asdr</title>
<path fill="#ffffff" stroke="black" stroke-width="2" d="M233,-403C233,-403 385,-403 385,-403 391,-403 397,-409 397,-415 397,-415 397,-506 397,-506 397,-512 391,-518 385,-518 385,-518 233,-518 233,-518 227,-518 221,-512 221,-506 221,-506 221,-415 221,-415 221,-409 227,-403 233,-403"/>
<text text-anchor="middle" x="309" y="-505.45" font-family="Helvetica,sans-Serif" font-weight="bold" font-size="9.00">asdr</text>
</g>
<g id="clust11" class="cluster">
<title>cluster_src/js/directable/directables/rhythm/bpm</title>
<path fill="#ffffff" stroke="black" stroke-width="2" d="M254,-526C254,-526 364,-526 364,-526 370,-526 376,-532 376,-538 376,-538 376,-567 376,-567 376,-573 370,-579 364,-579 364,-579 254,-579 254,-579 248,-579 242,-573 242,-567 242,-567 242,-538 242,-538 242,-532 248,-526 254,-526"/>
<text text-anchor="middle" x="309" y="-566.45" font-family="Helvetica,sans-Serif" font-weight="bold" font-size="9.00">bpm</text>
</g>
<g id="clust12" class="cluster">
<title>cluster_src/js/directable/directables/title</title>
<path fill="#ffffff" stroke="black" stroke-width="2" d="M270.88,-614C270.88,-614 347.13,-614 347.13,-614 353.13,-614 359.13,-620 359.13,-626 359.13,-626 359.13,-655 359.13,-655 359.13,-661 353.13,-667 347.13,-667 347.13,-667 270.88,-667 270.88,-667 264.88,-667 258.88,-661 258.88,-655 258.88,-655 258.88,-626 258.88,-626 258.88,-620 264.88,-614 270.88,-614"/>
<text text-anchor="middle" x="309" y="-654.45" font-family="Helvetica,sans-Serif" font-weight="bold" font-size="9.00">title</text>
</g>
<g id="clust13" class="cluster">
<title>cluster_src/js/director</title>
<path fill="#ffffff" stroke="black" stroke-width="2" d="M38.75,-222C38.75,-222 333.25,-222 333.25,-222 339.25,-222 345.25,-228 345.25,-234 345.25,-234 345.25,-298 345.25,-298 345.25,-304 339.25,-310 333.25,-310 333.25,-310 38.75,-310 38.75,-310 32.75,-310 26.75,-304 26.75,-298 26.75,-298 26.75,-234 26.75,-234 26.75,-228 32.75,-222 38.75,-222"/>
<text text-anchor="middle" x="186" y="-297.45" font-family="Helvetica,sans-Serif" font-weight="bold" font-size="9.00">director</text>
</g>
<g id="clust14" class="cluster">
<title>cluster_src/js/director/directors</title>
<path fill="#ffffff" stroke="black" stroke-width="2" d="M46.75,-230C46.75,-230 177,-230 177,-230 183,-230 189,-236 189,-242 189,-242 189,-271 189,-271 189,-277 183,-283 177,-283 177,-283 46.75,-283 46.75,-283 40.75,-283 34.75,-277 34.75,-271 34.75,-271 34.75,-242 34.75,-242 34.75,-236 40.75,-230 46.75,-230"/>
<text text-anchor="middle" x="111.88" y="-270.45" font-family="Helvetica,sans-Serif" font-weight="bold" font-size="9.00">directors</text>
</g>
<g id="clust15" class="cluster">
<title>cluster_src/js/overlay</title>
<path fill="#ffffff" stroke="black" stroke-width="2" d="M88,-739C88,-739 501.13,-739 501.13,-739 507.13,-739 513.13,-745 513.13,-751 513.13,-751 513.13,-1059 513.13,-1059 513.13,-1065 507.13,-1071 501.13,-1071 501.13,-1071 88,-1071 88,-1071 82,-1071 76,-1065 76,-1059 76,-1059 76,-751 76,-751 76,-745 82,-739 88,-739"/>
<text text-anchor="middle" x="294.56" y="-1058.45" font-family="Helvetica,sans-Serif" font-weight="bold" font-size="9.00">overlay</text>
</g>
<g id="clust16" class="cluster">
<title>cluster_src/js/overlay/capture</title>
<path fill="#ffffff" stroke="black" stroke-width="2" d="M268.25,-747C268.25,-747 349.75,-747 349.75,-747 355.75,-747 361.75,-753 361.75,-759 361.75,-759 361.75,-788 361.75,-788 361.75,-794 355.75,-800 349.75,-800 349.75,-800 268.25,-800 268.25,-800 262.25,-800 256.25,-794 256.25,-788 256.25,-788 256.25,-759 256.25,-759 256.25,-753 262.25,-747 268.25,-747"/>
<text text-anchor="middle" x="309" y="-787.45" font-family="Helvetica,sans-Serif" font-weight="bold" font-size="9.00">capture</text>
</g>
<g id="clust17" class="cluster">
<title>cluster_src/js/overlay/format</title>
<path fill="#ffffff" stroke="black" stroke-width="2" d="M270.5,-808C270.5,-808 347.5,-808 347.5,-808 353.5,-808 359.5,-814 359.5,-820 359.5,-820 359.5,-849 359.5,-849 359.5,-855 353.5,-861 347.5,-861 347.5,-861 270.5,-861 270.5,-861 264.5,-861 258.5,-855 258.5,-849 258.5,-849 258.5,-820 258.5,-820 258.5,-814 264.5,-808 270.5,-808"/>
<text text-anchor="middle" x="309" y="-848.45" font-family="Helvetica,sans-Serif" font-weight="bold" font-size="9.00">format</text>
</g>
<g id="clust18" class="cluster">
<title>cluster_src/js/overlay/media</title>
<path fill="#ffffff" stroke="black" stroke-width="2" d="M272,-869C272,-869 346,-869 346,-869 352,-869 358,-875 358,-881 358,-881 358,-910 358,-910 358,-916 352,-922 346,-922 346,-922 272,-922 272,-922 266,-922 260,-916 260,-910 260,-910 260,-881 260,-881 260,-875 266,-869 272,-869"/>
<text text-anchor="middle" x="309" y="-909.45" font-family="Helvetica,sans-Serif" font-weight="bold" font-size="9.00">media</text>
</g>
<g id="clust19" class="cluster">
<title>cluster_src/js/overlay/overlay</title>
<path fill="#ffffff" stroke="black" stroke-width="2" d="M269.38,-991C269.38,-991 348.63,-991 348.63,-991 354.63,-991 360.63,-997 360.63,-1003 360.63,-1003 360.63,-1032 360.63,-1032 360.63,-1038 354.63,-1044 348.63,-1044 348.63,-1044 269.38,-1044 269.38,-1044 263.38,-1044 257.38,-1038 257.38,-1032 257.38,-1032 257.38,-1003 257.38,-1003 257.38,-997 263.38,-991 269.38,-991"/>
<text text-anchor="middle" x="309" y="-1031.45" font-family="Helvetica,sans-Serif" font-weight="bold" font-size="9.00">overlay</text>
</g>
<g id="clust20" class="cluster">
<title>cluster_src/js/overlay/rhythm</title>
<path fill="#ffffff" stroke="black" stroke-width="2" d="M269,-930C269,-930 349,-930 349,-930 355,-930 361,-936 361,-942 361,-942 361,-971 361,-971 361,-977 355,-983 349,-983 349,-983 269,-983 269,-983 263,-983 257,-977 257,-971 257,-971 257,-942 257,-942 257,-936 263,-930 269,-930"/>
<text text-anchor="middle" x="309" y="-970.45" font-family="Helvetica,sans-Serif" font-weight="bold" font-size="9.00">rhythm</text>
</g>
<g id="clust21" class="cluster">
<title>cluster_src/js/rhythm</title>
<path fill="#ffffff" stroke="black" stroke-width="2" d="M77.5,-1147C77.5,-1147 354.63,-1147 354.63,-1147 360.63,-1147 366.63,-1153 366.63,-1159 366.63,-1159 366.63,-1188 366.63,-1188 366.63,-1194 360.63,-1200 354.63,-1200 354.63,-1200 77.5,-1200 77.5,-1200 71.5,-1200 65.5,-1194 65.5,-1188 65.5,-1188 65.5,-1159 65.5,-1159 65.5,-1153 71.5,-1147 77.5,-1147"/>
<text text-anchor="middle" x="216.06" y="-1187.45" font-family="Helvetica,sans-Serif" font-weight="bold" font-size="9.00">rhythm</text>
</g>
<g id="clust22" class="cluster">
<title>cluster_src/js/view</title>
<path fill="#ffffff" stroke="black" stroke-width="2" d="M286,-85C286,-85 654.13,-85 654.13,-85 660.13,-85 666.13,-91 666.13,-97 666.13,-97 666.13,-192 666.13,-192 666.13,-198 660.13,-204 654.13,-204 654.13,-204 286,-204 286,-204 280,-204 274,-198 274,-192 274,-192 274,-97 274,-97 274,-91 280,-85 286,-85"/>
<text text-anchor="middle" x="470.06" y="-191.45" font-family="Helvetica,sans-Serif" font-weight="bold" font-size="9.00">view</text>
</g>
<g id="clust23" class="cluster">
<title>cluster_src/js/view/render</title>
<path fill="#ffffff" stroke="black" stroke-width="2" d="M426.38,-93C426.38,-93 646.13,-93 646.13,-93 652.13,-93 658.13,-99 658.13,-105 658.13,-105 658.13,-165 658.13,-165 658.13,-171 652.13,-177 646.13,-177 646.13,-177 426.38,-177 426.38,-177 420.38,-177 414.38,-171 414.38,-165 414.38,-165 414.38,-105 414.38,-105 414.38,-99 420.38,-93 426.38,-93"/>
<text text-anchor="middle" x="536.25" y="-164.45" font-family="Helvetica,sans-Serif" font-weight="bold" font-size="9.00">render</text>
</g>
<!-- src/js/application/Application.js -->
<g id="node1" class="node">
<title>src/js/application/Application.js</title>
<g id="a_node1"><a xlink:href="src/js/application/Application.js" xlink:title="Application.js">
<path fill="#ffffcc" stroke="black" d="M499.33,-1105.25C499.33,-1105.25 440.92,-1105.25 440.92,-1105.25 437.83,-1105.25 434.75,-1102.17 434.75,-1099.08 434.75,-1099.08 434.75,-1092.92 434.75,-1092.92 434.75,-1089.83 437.83,-1086.75 440.92,-1086.75 440.92,-1086.75 499.33,-1086.75 499.33,-1086.75 502.42,-1086.75 505.5,-1089.83 505.5,-1092.92 505.5,-1092.92 505.5,-1099.08 505.5,-1099.08 505.5,-1102.17 502.42,-1105.25 499.33,-1105.25"/>
<text text-anchor="start" x="442.75" y="-1092.7" font-family="Helvetica,sans-Serif" font-size="9.00">Application.js</text>
</a>
</g>
</g>
<!-- src/js/controller/Controller.js -->
<g id="node2" class="node">
<title>src/js/controller/Controller.js</title>
<g id="a_node2"><a xlink:href="src/js/controller/Controller.js" xlink:title="Controller.js">
<path fill="#ffffcc" stroke="black" d="M138.08,-187.25C138.08,-187.25 85.67,-187.25 85.67,-187.25 82.58,-187.25 79.5,-184.17 79.5,-181.08 79.5,-181.08 79.5,-174.92 79.5,-174.92 79.5,-171.83 82.58,-168.75 85.67,-168.75 85.67,-168.75 138.08,-168.75 138.08,-168.75 141.17,-168.75 144.25,-171.83 144.25,-174.92 144.25,-174.92 144.25,-181.08 144.25,-181.08 144.25,-184.17 141.17,-187.25 138.08,-187.25"/>
<text text-anchor="start" x="87.5" y="-174.7" font-family="Helvetica,sans-Serif" font-size="9.00">Controller.js</text>
</a>
</g>
</g>
<!-- src/js/application/Application.js&#45;&gt;src/js/controller/Controller.js -->
<g id="edge1" class="edge">
<title>src/js/application/Application.js&#45;&gt;src/js/controller/Controller.js</title>
<path fill="none" stroke="#000000" stroke-width="2" stroke-opacity="0.200000" d="M434.38,-1092.08C423.18,-1088.99 411.89,-1083.55 405,-1074 391.11,-1054.74 413.36,-236.21 397,-219 381.66,-202.87 218.84,-211.33 197,-207 178.97,-203.42 159.53,-196.91 143.89,-190.96"/>
<polygon fill="#000000" fill-opacity="0.200000" stroke="#000000" stroke-width="2" stroke-opacity="0.200000" points="144.79,-189.05 138.44,-188.83 143.26,-192.97 144.79,-189.05"/>
</g>
<!-- src/js/application/ApplicationConfiguration.js -->
<g id="node3" class="node">
<title>src/js/application/ApplicationConfiguration.js</title>
<g id="a_node3"><a xlink:href="src/js/application/ApplicationConfiguration.js" xlink:title="ApplicationConfiguration.js">
<path fill="#ffffcc" stroke="black" d="M663.46,-1136.25C663.46,-1136.25 549.54,-1136.25 549.54,-1136.25 546.46,-1136.25 543.38,-1133.17 543.38,-1130.08 543.38,-1130.08 543.38,-1123.92 543.38,-1123.92 543.38,-1120.83 546.46,-1117.75 549.54,-1117.75 549.54,-1117.75 663.46,-1117.75 663.46,-1117.75 666.54,-1117.75 669.63,-1120.83 669.63,-1123.92 669.63,-1123.92 669.63,-1130.08 669.63,-1130.08 669.63,-1133.17 666.54,-1136.25 663.46,-1136.25"/>
<text text-anchor="start" x="551.38" y="-1123.7" font-family="Helvetica,sans-Serif" font-size="9.00">ApplicationConfiguration.js</text>
</a>
</g>
</g>
<!-- src/js/application/Application.js&#45;&gt;src/js/application/ApplicationConfiguration.js -->
<g id="edge2" class="edge">
<title>src/js/application/Application.js&#45;&gt;src/js/application/ApplicationConfiguration.js</title>
<path fill="none" stroke="#000000" stroke-width="2" stroke-opacity="0.200000" d="M505.73,-1103.98C520.7,-1107.44 538.51,-1111.54 554.91,-1115.33"/>
<polygon fill="#000000" fill-opacity="0.200000" stroke="#000000" stroke-width="2" stroke-opacity="0.200000" points="554.07,-1117.29 560.39,-1116.59 555.01,-1113.2 554.07,-1117.29"/>
</g>
<!-- src/js/application/ApplicationLogger.js -->
<g id="node4" class="node">
<title>src/js/application/ApplicationLogger.js</title>
<g id="a_node4"><a xlink:href="src/js/application/ApplicationLogger.js" xlink:title="ApplicationLogger.js">
<path fill="#ffffcc" stroke="black" d="M649.96,-1105.25C649.96,-1105.25 563.04,-1105.25 563.04,-1105.25 559.96,-1105.25 556.88,-1102.17 556.88,-1099.08 556.88,-1099.08 556.88,-1092.92 556.88,-1092.92 556.88,-1089.83 559.96,-1086.75 563.04,-1086.75 563.04,-1086.75 649.96,-1086.75 649.96,-1086.75 653.04,-1086.75 656.13,-1089.83 656.13,-1092.92 656.13,-1092.92 656.13,-1099.08 656.13,-1099.08 656.13,-1102.17 653.04,-1105.25 649.96,-1105.25"/>
<text text-anchor="start" x="564.88" y="-1092.7" font-family="Helvetica,sans-Serif" font-size="9.00">ApplicationLogger.js</text>
</a>
</g>
</g>
<!-- src/js/application/Application.js&#45;&gt;src/js/application/ApplicationLogger.js -->
<g id="edge3" class="edge">
<title>src/js/application/Application.js&#45;&gt;src/js/application/ApplicationLogger.js</title>
<path fill="none" stroke="#000000" stroke-width="2" stroke-opacity="0.200000" d="M505.73,-1096C518.55,-1096 533.45,-1096 547.76,-1096"/>
<polygon fill="#000000" fill-opacity="0.200000" stroke="#000000" stroke-width="2" stroke-opacity="0.200000" points="547.55,-1098.1 553.55,-1096 547.55,-1093.9 547.55,-1098.1"/>
</g>
<!-- src/js/overlay/Overlay.js -->
<g id="node7" class="node">
<title>src/js/overlay/Overlay.js</title>
<g id="a_node7"><a xlink:href="src/js/overlay/Overlay.js" xlink:title="Overlay.js">
<path fill="#ffffcc" stroke="black" d="M133.58,-1044.25C133.58,-1044.25 90.17,-1044.25 90.17,-1044.25 87.08,-1044.25 84,-1041.17 84,-1038.08 84,-1038.08 84,-1031.92 84,-1031.92 84,-1028.83 87.08,-1025.75 90.17,-1025.75 90.17,-1025.75 133.58,-1025.75 133.58,-1025.75 136.67,-1025.75 139.75,-1028.83 139.75,-1031.92 139.75,-1031.92 139.75,-1038.08 139.75,-1038.08 139.75,-1041.17 136.67,-1044.25 133.58,-1044.25"/>
<text text-anchor="start" x="92" y="-1031.7" font-family="Helvetica,sans-Serif" font-size="9.00">Overlay.js</text>
</a>
</g>
</g>
<!-- src/js/controller/Controller.js&#45;&gt;src/js/overlay/Overlay.js -->
<g id="edge5" class="edge">
<title>src/js/controller/Controller.js&#45;&gt;src/js/overlay/Overlay.js</title>
<path fill="none" stroke="#000000" stroke-width="2" stroke-opacity="0.200000" d="M79.09,-183.45C52.35,-189.96 17,-203.88 4.25,-233 -4.13,-252.14 2.77,-259.16 4.25,-280 25.24,-576 91.97,-932.41 108.26,-1016.57"/>
<polygon fill="#000000" fill-opacity="0.200000" stroke="#000000" stroke-width="2" stroke-opacity="0.200000" points="106.17,-1016.8 109.38,-1022.29 110.29,-1016 106.17,-1016.8"/>
</g>
<!-- src/js/view/View.js -->
<g id="node8" class="node">
<title>src/js/view/View.js</title>
<g id="a_node8"><a xlink:href="src/js/view/View.js" xlink:title="View.js">
<path fill="#ffffcc" stroke="black" d="M329.83,-148.25C329.83,-148.25 288.17,-148.25 288.17,-148.25 285.08,-148.25 282,-145.17 282,-142.08 282,-142.08 282,-135.92 282,-135.92 282,-132.83 285.08,-129.75 288.17,-129.75 288.17,-129.75 329.83,-129.75 329.83,-129.75 332.92,-129.75 336,-132.83 336,-135.92 336,-135.92 336,-142.08 336,-142.08 336,-145.17 332.92,-148.25 329.83,-148.25"/>
<text text-anchor="start" x="294.75" y="-135.7" font-family="Helvetica,sans-Serif" font-size="9.00">View.js</text>
</a>
</g>
</g>
<!-- src/js/controller/Controller.js&#45;&gt;src/js/view/View.js -->
<g id="edge6" class="edge">
<title>src/js/controller/Controller.js&#45;&gt;src/js/view/View.js</title>
<path fill="none" stroke="#000000" stroke-width="2" stroke-opacity="0.200000" d="M144.66,-171.65C179.8,-164.62 236.26,-153.34 272.74,-146.05"/>
<polygon fill="#000000" fill-opacity="0.200000" stroke="#000000" stroke-width="2" stroke-opacity="0.200000" points="273.12,-148.11 278.59,-144.88 272.29,-144 273.12,-148.11"/>
</g>
<!-- src/js/application/ApplicationDispatcher.js -->
<g id="node5" class="node">
<title>src/js/application/ApplicationDispatcher.js</title>
<g id="a_node5"><a xlink:href="src/js/application/ApplicationDispatcher.js" xlink:title="ApplicationDispatcher.js">
<path fill="#ffffcc" stroke="black" d="M521.08,-1136.25C521.08,-1136.25 419.17,-1136.25 419.17,-1136.25 416.08,-1136.25 413,-1133.17 413,-1130.08 413,-1130.08 413,-1123.92 413,-1123.92 413,-1120.83 416.08,-1117.75 419.17,-1117.75 419.17,-1117.75 521.08,-1117.75 521.08,-1117.75 524.17,-1117.75 527.25,-1120.83 527.25,-1123.92 527.25,-1123.92 527.25,-1130.08 527.25,-1130.08 527.25,-1133.17 524.17,-1136.25 521.08,-1136.25"/>
<text text-anchor="start" x="421" y="-1123.7" font-family="Helvetica,sans-Serif" font-size="9.00">ApplicationDispatcher.js</text>
</a>
</g>
</g>
<!-- src/js/application/ApplicationEvent.js -->
<g id="node6" class="node">
<title>src/js/application/ApplicationEvent.js</title>
<g id="a_node6"><a xlink:href="src/js/application/ApplicationEvent.js" xlink:title="ApplicationEvent.js">
<path fill="#ffffcc" stroke="black" d="M647.33,-1167.25C647.33,-1167.25 565.67,-1167.25 565.67,-1167.25 562.58,-1167.25 559.5,-1164.17 559.5,-1161.08 559.5,-1161.08 559.5,-1154.92 559.5,-1154.92 559.5,-1151.83 562.58,-1148.75 565.67,-1148.75 565.67,-1148.75 647.33,-1148.75 647.33,-1148.75 650.42,-1148.75 653.5,-1151.83 653.5,-1154.92 653.5,-1154.92 653.5,-1161.08 653.5,-1161.08 653.5,-1164.17 650.42,-1167.25 647.33,-1167.25"/>
<text text-anchor="start" x="567.5" y="-1154.7" font-family="Helvetica,sans-Serif" font-size="9.00">ApplicationEvent.js</text>
</a>
</g>
</g>
<!-- src/js/application/ApplicationDispatcher.js&#45;&gt;src/js/application/ApplicationEvent.js -->
<g id="edge4" class="edge">
<title>src/js/application/ApplicationDispatcher.js&#45;&gt;src/js/application/ApplicationEvent.js</title>
<path fill="none" stroke="#000000" stroke-width="2" stroke-opacity="0.200000" d="M513.27,-1136.72C526.53,-1139.78 541.31,-1143.19 555.08,-1146.37"/>
<polygon fill="#000000" fill-opacity="0.200000" stroke="#000000" stroke-width="2" stroke-opacity="0.200000" points="554.23,-1148.33 560.55,-1147.63 555.18,-1144.24 554.23,-1148.33"/>
</g>
<!-- src/js/overlay/Overlay.js&#45;&gt;src/js/application/ApplicationConfiguration.js -->
<g id="edge23" class="edge">
<title>src/js/overlay/Overlay.js&#45;&gt;src/js/application/ApplicationConfiguration.js</title>
<path fill="none" stroke="#000000" stroke-width="2" stroke-opacity="0.200000" d="M117.85,-1044.45C128.95,-1064.43 157.88,-1110.71 197,-1130 236.96,-1149.7 355.87,-1126.88 397,-1144 401.36,-1145.82 400.58,-1149.34 405,-1151 459.24,-1171.38 481.84,-1173.17 535.38,-1151 540.02,-1149.08 539.01,-1145.49 543.38,-1143 545.1,-1142.01 546.89,-1141.09 548.73,-1140.21"/>
<polygon fill="#000000" fill-opacity="0.200000" stroke="#000000" stroke-width="2" stroke-opacity="0.200000" points="549.49,-1142.17 554.21,-1137.92 547.87,-1138.3 549.49,-1142.17"/>
</g>
<!-- src/js/overlay/Overlay.js&#45;&gt;src/js/application/ApplicationLogger.js -->
<g id="edge25" class="edge">
<title>src/js/overlay/Overlay.js&#45;&gt;src/js/application/ApplicationLogger.js</title>
<path fill="none" stroke="#000000" stroke-width="2" stroke-opacity="0.200000" d="M119.15,-1044.48C131.57,-1062.34 161.2,-1100.64 197,-1117 278.14,-1154.08 316.1,-1096.4 397,-1134 401.56,-1136.12 400.35,-1140.08 405,-1142 431.77,-1153.09 512.4,-1159.65 535.38,-1142 546.32,-1133.59 533.58,-1121.72 543.38,-1112 545.15,-1110.24 547.1,-1108.66 549.17,-1107.25"/>
<polygon fill="#000000" fill-opacity="0.200000" stroke="#000000" stroke-width="2" stroke-opacity="0.200000" points="549.78,-1109.31 553.99,-1104.55 547.73,-1105.65 549.78,-1109.31"/>
</g>
<!-- src/js/overlay/Overlay.js&#45;&gt;src/js/application/ApplicationDispatcher.js -->
<g id="edge24" class="edge">
<title>src/js/overlay/Overlay.js&#45;&gt;src/js/application/ApplicationDispatcher.js</title>
<path fill="none" stroke="#000000" stroke-width="2" stroke-opacity="0.200000" d="M120.74,-1044.61C134.36,-1060.47 164.06,-1091.68 197,-1105 238.32,-1121.71 352.6,-1116.18 397,-1120 399.25,-1120.19 401.54,-1120.39 403.85,-1120.6"/>
<polygon fill="#000000" fill-opacity="0.200000" stroke="#000000" stroke-width="2" stroke-opacity="0.200000" points="403.65,-1122.69 409.82,-1121.14 404.03,-1118.51 403.65,-1122.69"/>
</g>
<!-- src/js/overlay/overlay/OverlayOverlay.js -->
<g id="node22" class="node">
<title>src/js/overlay/overlay/OverlayOverlay.js</title>
<g id="a_node22"><a xlink:href="src/js/overlay/overlay/OverlayOverlay.js" xlink:title="OverlayOverlay.js">
<path fill="#ffffcc" stroke="black" d="M346.46,-1017.25C346.46,-1017.25 271.54,-1017.25 271.54,-1017.25 268.46,-1017.25 265.38,-1014.17 265.38,-1011.08 265.38,-1011.08 265.38,-1004.92 265.38,-1004.92 265.38,-1001.83 268.46,-998.75 271.54,-998.75 271.54,-998.75 346.46,-998.75 346.46,-998.75 349.54,-998.75 352.63,-1001.83 352.63,-1004.92 352.63,-1004.92 352.63,-1011.08 352.63,-1011.08 352.63,-1014.17 349.54,-1017.25 346.46,-1017.25"/>
<text text-anchor="start" x="273.38" y="-1004.7" font-family="Helvetica,sans-Serif" font-size="9.00">OverlayOverlay.js</text>
</a>
</g>
</g>
<!-- src/js/overlay/Overlay.js&#45;&gt;src/js/overlay/overlay/OverlayOverlay.js -->
<g id="edge26" class="edge">
<title>src/js/overlay/Overlay.js&#45;&gt;src/js/overlay/overlay/OverlayOverlay.js</title>
<path fill="none" stroke="#000000" stroke-width="2" stroke-opacity="0.200000" d="M140.1,-1030.13C156.55,-1027.27 177.94,-1023.7 197,-1021 216.23,-1018.27 237.4,-1015.69 256.05,-1013.56"/>
<polygon fill="#000000" fill-opacity="0.200000" stroke="#000000" stroke-width="2" stroke-opacity="0.200000" points="256.24,-1015.65 261.97,-1012.89 255.77,-1011.48 256.24,-1015.65"/>
</g>
<!-- src/js/view/render/RenderController.js -->
<g id="node30" class="node">
<title>src/js/view/render/RenderController.js</title>
<g id="a_node30"><a xlink:href="src/js/view/render/RenderController.js" xlink:title="RenderController.js">
<path fill="#ffffcc" stroke="black" d="M511.71,-119.25C511.71,-119.25 428.54,-119.25 428.54,-119.25 425.46,-119.25 422.38,-116.17 422.38,-113.08 422.38,-113.08 422.38,-106.92 422.38,-106.92 422.38,-103.83 425.46,-100.75 428.54,-100.75 428.54,-100.75 511.71,-100.75 511.71,-100.75 514.79,-100.75 517.88,-103.83 517.88,-106.92 517.88,-106.92 517.88,-113.08 517.88,-113.08 517.88,-116.17 514.79,-119.25 511.71,-119.25"/>
<text text-anchor="start" x="430.38" y="-106.7" font-family="Helvetica,sans-Serif" font-size="9.00">RenderController.js</text>
</a>
</g>
</g>
<!-- src/js/view/View.js&#45;&gt;src/js/view/render/RenderController.js -->
<g id="edge35" class="edge">
<title>src/js/view/View.js&#45;&gt;src/js/view/render/RenderController.js</title>
<path fill="none" stroke="#000000" stroke-width="2" stroke-opacity="0.200000" d="M336.28,-134.21C357.13,-130.41 387.04,-124.96 413.19,-120.19"/>
<polygon fill="#000000" fill-opacity="0.200000" stroke="#000000" stroke-width="2" stroke-opacity="0.200000" points="413.39,-122.29 418.92,-119.15 412.64,-118.16 413.39,-122.29"/>
</g>
<!-- src/js/data/Data.json -->
<g id="node9" class="node">
<title>src/js/data/Data.json</title>
<g id="a_node9"><a xlink:href="src/js/data/Data.json" xlink:title="Data.json">
<path fill="#ffee44" stroke="black" d="M330.33,-50.25C330.33,-50.25 287.67,-50.25 287.67,-50.25 284.58,-50.25 281.5,-47.17 281.5,-44.08 281.5,-44.08 281.5,-37.92 281.5,-37.92 281.5,-34.83 284.58,-31.75 287.67,-31.75 287.67,-31.75 330.33,-31.75 330.33,-31.75 333.42,-31.75 336.5,-34.83 336.5,-37.92 336.5,-37.92 336.5,-44.08 336.5,-44.08 336.5,-47.17 333.42,-50.25 330.33,-50.25"/>
<text text-anchor="start" x="289.5" y="-37.7" font-family="Helvetica,sans-Serif" font-size="9.00">Data.json</text>
</a>
</g>
</g>
<!-- src/js/data/DataController.js -->
<g id="node10" class="node">
<title>src/js/data/DataController.js</title>
<g id="a_node10"><a xlink:href="src/js/data/DataController.js" xlink:title="DataController.js">
<path fill="#ffffcc" stroke="black" d="M147.83,-50.25C147.83,-50.25 75.92,-50.25 75.92,-50.25 72.83,-50.25 69.75,-47.17 69.75,-44.08 69.75,-44.08 69.75,-37.92 69.75,-37.92 69.75,-34.83 72.83,-31.75 75.92,-31.75 75.92,-31.75 147.83,-31.75 147.83,-31.75 150.92,-31.75 154,-34.83 154,-37.92 154,-37.92 154,-44.08 154,-44.08 154,-47.17 150.92,-50.25 147.83,-50.25"/>
<text text-anchor="start" x="77.75" y="-37.7" font-family="Helvetica,sans-Serif" font-size="9.00">DataController.js</text>
</a>
</g>
</g>
<!-- src/js/data/DataController.js&#45;&gt;src/js/data/Data.json -->
<g id="edge7" class="edge">
<title>src/js/data/DataController.js&#45;&gt;src/js/data/Data.json</title>
<path fill="none" stroke="#000000" stroke-width="2" stroke-opacity="0.200000" d="M154.26,-41C189.23,-41 238.81,-41 272.12,-41"/>
<polygon fill="#000000" fill-opacity="0.200000" stroke="#000000" stroke-width="2" stroke-opacity="0.200000" points="272.03,-43.1 278.03,-41 272.03,-38.9 272.03,-43.1"/>
</g>
<!-- src/js/directable/Directable.js -->
<g id="node11" class="node">
<title>src/js/directable/Directable.js</title>
<g id="a_node11"><a xlink:href="src/js/directable/Directable.js" xlink:title="Directable.js">
<path fill="#ffffcc" stroke="black" d="M633.83,-395.25C633.83,-395.25 579.17,-395.25 579.17,-395.25 576.08,-395.25 573,-392.17 573,-389.08 573,-389.08 573,-382.92 573,-382.92 573,-379.83 576.08,-376.75 579.17,-376.75 579.17,-376.75 633.83,-376.75 633.83,-376.75 636.92,-376.75 640,-379.83 640,-382.92 640,-382.92 640,-389.08 640,-389.08 640,-392.17 636.92,-395.25 633.83,-395.25"/>
<text text-anchor="start" x="581" y="-382.7" font-family="Helvetica,sans-Serif" font-size="9.00">Directable.js</text>
</a>
</g>
</g>
<!-- src/js/directable/directables/frame/DirectableFrame.js -->
<g id="node12" class="node">
<title>src/js/directable/directables/frame/DirectableFrame.js</title>
<g id="a_node12"><a xlink:href="src/js/directable/directables/frame/DirectableFrame.js" xlink:title="DirectableFrame.js">
<path fill="#ffffcc" stroke="black" d="M349.46,-360.25C349.46,-360.25 268.54,-360.25 268.54,-360.25 265.46,-360.25 262.38,-357.17 262.38,-354.08 262.38,-354.08 262.38,-347.92 262.38,-347.92 262.38,-344.83 265.46,-341.75 268.54,-341.75 268.54,-341.75 349.46,-341.75 349.46,-341.75 352.54,-341.75 355.63,-344.83 355.63,-347.92 355.63,-347.92 355.63,-354.08 355.63,-354.08 355.63,-357.17 352.54,-360.25 349.46,-360.25"/>
<text text-anchor="start" x="270.38" y="-347.7" font-family="Helvetica,sans-Serif" font-size="9.00">DirectableFrame.js</text>
</a>
</g>
</g>
<!-- src/js/directable/directables/frame/DirectableFrame.js&#45;&gt;src/js/application/ApplicationLogger.js -->
<g id="edge8" class="edge">
<title>src/js/directable/directables/frame/DirectableFrame.js&#45;&gt;src/js/application/ApplicationLogger.js</title>
<path fill="none" stroke="#000000" stroke-width="2" stroke-opacity="0.200000" d="M343.07,-360.6C362.32,-368.05 385.08,-380.47 397,-400 409.11,-419.84 390.38,-590.94 405,-609 442.61,-655.46 496.41,-596.67 535.38,-642 547.31,-655.88 540.98,-705.85 543.38,-724 561.38,-860.28 591.63,-1023.21 601.94,-1077.44"/>
<polygon fill="#000000" fill-opacity="0.200000" stroke="#000000" stroke-width="2" stroke-opacity="0.200000" points="599.87,-1077.79 603.06,-1083.29 603.99,-1077 599.87,-1077.79"/>
</g>
<!-- src/js/directable/directables/frame/DirectableFrame.js&#45;&gt;src/js/directable/Directable.js -->
<g id="edge9" class="edge">
<title>src/js/directable/directables/frame/DirectableFrame.js&#45;&gt;src/js/directable/Directable.js</title>
<path fill="none" stroke="#000000" stroke-width="2" stroke-opacity="0.200000" d="M355.85,-356.43C412.82,-363.18 509.2,-374.59 564.05,-381.09"/>
<polygon fill="#000000" fill-opacity="0.200000" stroke="#000000" stroke-width="2" stroke-opacity="0.200000" points="563.6,-383.15 569.81,-381.77 564.09,-378.98 563.6,-383.15"/>
</g>
<!-- src/js/directable/directables/rhythm/DirectableRhythm.js -->
<g id="node13" class="node">
<title>src/js/directable/directables/rhythm/DirectableRhythm.js</title>
<g id="a_node13"><a xlink:href="src/js/directable/directables/rhythm/DirectableRhythm.js" xlink:title="DirectableRhythm.js">
<path fill="#ffffcc" stroke="black" d="M513.21,-552.25C513.21,-552.25 427.04,-552.25 427.04,-552.25 423.96,-552.25 420.88,-549.17 420.88,-546.08 420.88,-546.08 420.88,-539.92 420.88,-539.92 420.88,-536.83 423.96,-533.75 427.04,-533.75 427.04,-533.75 513.21,-533.75 513.21,-533.75 516.29,-533.75 519.38,-536.83 519.38,-539.92 519.38,-539.92 519.38,-546.08 519.38,-546.08 519.38,-549.17 516.29,-552.25 513.21,-552.25"/>
<text text-anchor="start" x="428.88" y="-539.7" font-family="Helvetica,sans-Serif" font-size="9.00">DirectableRhythm.js</text>
</a>
</g>
</g>
<!-- src/js/directable/directables/rhythm/DirectableRhythm.js&#45;&gt;src/js/application/ApplicationLogger.js -->
<g id="edge10" class="edge">
<title>src/js/directable/directables/rhythm/DirectableRhythm.js&#45;&gt;src/js/application/ApplicationLogger.js</title>
<path fill="none" stroke="#000000" stroke-width="2" stroke-opacity="0.200000" d="M480.85,-552.74C495.6,-568.21 523.2,-600.04 535.38,-633 549.44,-671.09 538.25,-683.72 543.38,-724 560.73,-860.36 591.4,-1023.24 601.88,-1077.44"/>
<polygon fill="#000000" fill-opacity="0.200000" stroke="#000000" stroke-width="2" stroke-opacity="0.200000" points="599.81,-1077.81 603.01,-1083.3 603.93,-1077.01 599.81,-1077.81"/>
</g>
<!-- src/js/directable/directables/rhythm/DirectableRhythm.js&#45;&gt;src/js/directable/Directable.js -->
<g id="edge11" class="edge">
<title>src/js/directable/directables/rhythm/DirectableRhythm.js&#45;&gt;src/js/directable/Directable.js</title>
<path fill="none" stroke="#000000" stroke-width="2" stroke-opacity="0.200000" d="M519.58,-538.29C525.27,-536.31 530.7,-533.62 535.38,-530 576.83,-497.92 595.26,-435.01 602.09,-404.06"/>
<polygon fill="#000000" fill-opacity="0.200000" stroke="#000000" stroke-width="2" stroke-opacity="0.200000" points="604.08,-404.82 603.24,-398.52 599.97,-403.97 604.08,-404.82"/>
</g>
<!-- src/js/directable/directables/rhythm/asdr/ASDRData.js -->
<g id="node14" class="node">
<title>src/js/directable/directables/rhythm/asdr/ASDRData.js</title>
<g id="a_node14"><a xlink:href="src/js/directable/directables/rhythm/asdr/ASDRData.js" xlink:title="ASDRData.js">
<path fill="#ccffcc" stroke="black" d="M337.83,-429.25C337.83,-429.25 280.17,-429.25 280.17,-429.25 277.08,-429.25 274,-426.17 274,-423.08 274,-423.08 274,-416.92 274,-416.92 274,-413.83 277.08,-410.75 280.17,-410.75 280.17,-410.75 337.83,-410.75 337.83,-410.75 340.92,-410.75 344,-413.83 344,-416.92 344,-416.92 344,-423.08 344,-423.08 344,-426.17 340.92,-429.25 337.83,-429.25"/>
<text text-anchor="start" x="282" y="-416.7" font-family="Helvetica,sans-Serif" font-size="9.00">ASDRData.js</text>
</a>
</g>
</g>
<!-- src/js/directable/directables/rhythm/asdr/ASDREnvelope.js -->
<g id="node15" class="node">
<title>src/js/directable/directables/rhythm/asdr/ASDREnvelope.js</title>
<g id="a_node15"><a xlink:href="src/js/directable/directables/rhythm/asdr/ASDREnvelope.js" xlink:title="ASDREnvelope.js">
<path fill="#ffffcc" stroke="black" d="M347.58,-460.25C347.58,-460.25 270.42,-460.25 270.42,-460.25 267.33,-460.25 264.25,-457.17 264.25,-454.08 264.25,-454.08 264.25,-447.92 264.25,-447.92 264.25,-444.83 267.33,-441.75 270.42,-441.75 270.42,-441.75 347.58,-441.75 347.58,-441.75 350.67,-441.75 353.75,-444.83 353.75,-447.92 353.75,-447.92 353.75,-454.08 353.75,-454.08 353.75,-457.17 350.67,-460.25 347.58,-460.25"/>
<text text-anchor="start" x="272.25" y="-447.7" font-family="Helvetica,sans-Serif" font-size="9.00">ASDREnvelope.js</text>
</a>
</g>
</g>
<!-- src/js/directable/directables/rhythm/asdr/ASDREnvelope.js&#45;&gt;src/js/application/ApplicationLogger.js -->
<g id="edge12" class="edge">
<title>src/js/directable/directables/rhythm/asdr/ASDREnvelope.js&#45;&gt;src/js/application/ApplicationLogger.js</title>
<path fill="none" stroke="#000000" stroke-width="2" stroke-opacity="0.200000" d="M354.03,-448.45C369.86,-449.97 386.4,-454.85 397,-467 409.72,-481.58 392.39,-626.32 405,-641 443.51,-685.81 494.81,-624.04 535.38,-667 544.16,-676.3 541.43,-711.36 543.38,-724 564.3,-860.17 592.79,-1023.79 602.28,-1077.76"/>
<polygon fill="#000000" fill-opacity="0.200000" stroke="#000000" stroke-width="2" stroke-opacity="0.200000" points="600.19,-1078 603.3,-1083.55 604.33,-1077.27 600.19,-1078"/>
</g>
<!-- src/js/directable/directables/rhythm/asdr/DirectableRhythmASDRManager.js -->
<g id="node16" class="node">
<title>src/js/directable/directables/rhythm/asdr/DirectableRhythmASDRManager.js</title>
<g id="a_node16"><a xlink:href="src/js/directable/directables/rhythm/asdr/DirectableRhythmASDRManager.js" xlink:title="DirectableRhythmASDRManager.js">
<path fill="#ffffcc" stroke="black" d="M382.83,-491.25C382.83,-491.25 235.17,-491.25 235.17,-491.25 232.08,-491.25 229,-488.17 229,-485.08 229,-485.08 229,-478.92 229,-478.92 229,-475.83 232.08,-472.75 235.17,-472.75 235.17,-472.75 382.83,-472.75 382.83,-472.75 385.92,-472.75 389,-475.83 389,-478.92 389,-478.92 389,-485.08 389,-485.08 389,-488.17 385.92,-491.25 382.83,-491.25"/>
<text text-anchor="start" x="237" y="-478.7" font-family="Helvetica,sans-Serif" font-size="9.00">DirectableRhythmASDRManager.js</text>
</a>
</g>
</g>
<!-- src/js/directable/directables/rhythm/asdr/DirectableRhythmASDRManager.js&#45;&gt;src/js/application/ApplicationLogger.js -->
<g id="edge13" class="edge">
<title>src/js/directable/directables/rhythm/asdr/DirectableRhythmASDRManager.js&#45;&gt;src/js/application/ApplicationLogger.js</title>
<path fill="none" stroke="#000000" stroke-width="2" stroke-opacity="0.200000" d="M351.69,-491.6C368.59,-497.71 386.55,-507.49 397,-523 414.79,-549.39 383.69,-642.36 405,-666 444.29,-709.6 493.67,-645.71 535.38,-687 538.94,-690.53 589.49,-998.16 602.48,-1077.5"/>
<polygon fill="#000000" fill-opacity="0.200000" stroke="#000000" stroke-width="2" stroke-opacity="0.200000" points="600.4,-1077.82 603.44,-1083.4 604.55,-1077.14 600.4,-1077.82"/>
</g>
<!-- src/js/directable/directables/rhythm/bpm/DirectableRhythmBPM.js -->
<g id="node17" class="node">
<title>src/js/directable/directables/rhythm/bpm/DirectableRhythmBPM.js</title>
<g id="a_node17"><a xlink:href="src/js/directable/directables/rhythm/bpm/DirectableRhythmBPM.js" xlink:title="DirectableRhythmBPM.js">
<path fill="#ffffcc" stroke="black" d="M361.83,-552.25C361.83,-552.25 256.17,-552.25 256.17,-552.25 253.08,-552.25 250,-549.17 250,-546.08 250,-546.08 250,-539.92 250,-539.92 250,-536.83 253.08,-533.75 256.17,-533.75 256.17,-533.75 361.83,-533.75 361.83,-533.75 364.92,-533.75 368,-536.83 368,-539.92 368,-539.92 368,-546.08 368,-546.08 368,-549.17 364.92,-552.25 361.83,-552.25"/>
<text text-anchor="start" x="258" y="-539.7" font-family="Helvetica,sans-Serif" font-size="9.00">DirectableRhythmBPM.js</text>
</a>
</g>
</g>
<!-- src/js/directable/directables/rhythm/bpm/DirectableRhythmBPM.js&#45;&gt;src/js/application/ApplicationLogger.js -->
<g id="edge14" class="edge">
<title>src/js/directable/directables/rhythm/bpm/DirectableRhythmBPM.js&#45;&gt;src/js/application/ApplicationLogger.js</title>
<path fill="none" stroke="#000000" stroke-width="2" stroke-opacity="0.200000" d="M330.1,-552.59C350.71,-563.58 381.83,-583.68 397,-611 405.14,-625.65 393.33,-673.97 405,-686 445.72,-728 493.2,-663.47 535.38,-704 549.21,-717.29 591.79,-1002.33 602.85,-1077.8"/>
<polygon fill="#000000" fill-opacity="0.200000" stroke="#000000" stroke-width="2" stroke-opacity="0.200000" points="600.71,-1077.67 603.65,-1083.3 604.86,-1077.06 600.71,-1077.67"/>
</g>
<!-- src/js/directable/directables/rhythm/bpm/DirectableRhythmBPM.js&#45;&gt;src/js/directable/directables/rhythm/DirectableRhythm.js -->
<g id="edge15" class="edge">
<title>src/js/directable/directables/rhythm/bpm/DirectableRhythmBPM.js&#45;&gt;src/js/directable/directables/rhythm/DirectableRhythm.js</title>
<path fill="none" stroke="#000000" stroke-width="2" stroke-opacity="0.200000" d="M368.35,-543C382.53,-543 397.67,-543 411.8,-543"/>
<polygon fill="#000000" fill-opacity="0.200000" stroke="#000000" stroke-width="2" stroke-opacity="0.200000" points="411.42,-545.1 417.42,-543 411.42,-540.9 411.42,-545.1"/>
</g>
<!-- src/js/directable/directables/title/DirectableTitle.js -->
<g id="node18" class="node">
<title>src/js/directable/directables/title/DirectableTitle.js</title>
<g id="a_node18"><a xlink:href="src/js/directable/directables/title/DirectableTitle.js" xlink:title="DirectableTitle.js">
<path fill="#ffffcc" stroke="black" d="M344.96,-640.25C344.96,-640.25 273.04,-640.25 273.04,-640.25 269.96,-640.25 266.88,-637.17 266.88,-634.08 266.88,-634.08 266.88,-627.92 266.88,-627.92 266.88,-624.83 269.96,-621.75 273.04,-621.75 273.04,-621.75 344.96,-621.75 344.96,-621.75 348.04,-621.75 351.13,-624.83 351.13,-627.92 351.13,-627.92 351.13,-634.08 351.13,-634.08 351.13,-637.17 348.04,-640.25 344.96,-640.25"/>
<text text-anchor="start" x="274.88" y="-627.7" font-family="Helvetica,sans-Serif" font-size="9.00">DirectableTitle.js</text>
</a>
</g>
</g>
<!-- src/js/directable/directables/title/DirectableTitle.js&#45;&gt;src/js/application/ApplicationLogger.js -->
<g id="edge16" class="edge">
<title>src/js/directable/directables/title/DirectableTitle.js&#45;&gt;src/js/application/ApplicationLogger.js</title>
<path fill="none" stroke="#000000" stroke-width="2" stroke-opacity="0.200000" d="M319.25,-640.5C335.19,-656.24 369.53,-687.52 405,-703 458.93,-726.54 493.51,-684.66 535.38,-726 586.15,-776.13 601.32,-1009.74 604.69,-1077.52"/>
<polygon fill="#000000" fill-opacity="0.200000" stroke="#000000" stroke-width="2" stroke-opacity="0.200000" points="602.58,-1077.36 604.96,-1083.25 606.77,-1077.16 602.58,-1077.36"/>
</g>
<!-- src/js/directable/directables/title/DirectableTitle.js&#45;&gt;src/js/directable/Directable.js -->
<g id="edge17" class="edge">
<title>src/js/directable/directables/title/DirectableTitle.js&#45;&gt;src/js/directable/Directable.js</title>
<path fill="none" stroke="#000000" stroke-width="2" stroke-opacity="0.200000" d="M343.04,-621.38C362.28,-613.93 385.04,-601.51 397,-582 408.04,-563.99 389.97,-406.85 405,-392 426.6,-370.66 511.83,-375.61 563.97,-380.94"/>
<polygon fill="#000000" fill-opacity="0.200000" stroke="#000000" stroke-width="2" stroke-opacity="0.200000" points="563.47,-382.99 569.65,-381.54 563.91,-378.82 563.47,-382.99"/>
</g>
<!-- src/js/director/Director.js -->
<g id="node19" class="node">
<title>src/js/director/Director.js</title>
<g id="a_node19"><a xlink:href="src/js/director/Director.js" xlink:title="Director.js">
<path fill="#ffffcc" stroke="black" d="M331.08,-256.25C331.08,-256.25 286.92,-256.25 286.92,-256.25 283.83,-256.25 280.75,-253.17 280.75,-250.08 280.75,-250.08 280.75,-243.92 280.75,-243.92 280.75,-240.83 283.83,-237.75 286.92,-237.75 286.92,-237.75 331.08,-237.75 331.08,-237.75 334.17,-237.75 337.25,-240.83 337.25,-243.92 337.25,-243.92 337.25,-250.08 337.25,-250.08 337.25,-253.17 334.17,-256.25 331.08,-256.25"/>
<text text-anchor="start" x="288.75" y="-243.7" font-family="Helvetica,sans-Serif" font-size="9.00">Director.js</text>
</a>
</g>
</g>
<!-- src/js/director/directors/DirectorDanceRabbitDance.js -->
<g id="node20" class="node">
<title>src/js/director/directors/DirectorDanceRabbitDance.js</title>
<g id="a_node20"><a xlink:href="src/js/director/directors/DirectorDanceRabbitDance.js" xlink:title="DirectorDanceRabbitDance.js">
<path fill="#ffffcc" stroke="black" d="M174.83,-256.25C174.83,-256.25 48.92,-256.25 48.92,-256.25 45.83,-256.25 42.75,-253.17 42.75,-250.08 42.75,-250.08 42.75,-243.92 42.75,-243.92 42.75,-240.83 45.83,-237.75 48.92,-237.75 48.92,-237.75 174.83,-237.75 174.83,-237.75 177.92,-237.75 181,-240.83 181,-243.92 181,-243.92 181,-250.08 181,-250.08 181,-253.17 177.92,-256.25 174.83,-256.25"/>
<text text-anchor="start" x="50.75" y="-243.7" font-family="Helvetica,sans-Serif" font-size="9.00">DirectorDanceRabbitDance.js</text>
</a>
</g>
</g>
<!-- src/js/director/directors/DirectorDanceRabbitDance.js&#45;&gt;src/js/application/ApplicationLogger.js -->
<g id="edge18" class="edge">
<title>src/js/director/directors/DirectorDanceRabbitDance.js&#45;&gt;src/js/application/ApplicationLogger.js</title>
<path fill="none" stroke="#000000" stroke-width="2" stroke-opacity="0.200000" d="M113.41,-256.53C116.77,-313.43 136.93,-607.79 197,-670 262.97,-738.32 311.57,-701.95 405,-719 433.74,-724.25 514.08,-716 535.38,-736 585.93,-783.47 601.22,-1010.78 604.66,-1077.53"/>
<polygon fill="#000000" fill-opacity="0.200000" stroke="#000000" stroke-width="2" stroke-opacity="0.200000" points="602.56,-1077.58 604.95,-1083.47 606.75,-1077.38 602.56,-1077.58"/>
</g>
<!-- src/js/director/directors/DirectorDanceRabbitDance.js&#45;&gt;src/js/directable/directables/rhythm/bpm/DirectableRhythmBPM.js -->
<g id="edge19" class="edge">
<title>src/js/director/directors/DirectorDanceRabbitDance.js&#45;&gt;src/js/directable/directables/rhythm/bpm/DirectableRhythmBPM.js</title>
<path fill="none" stroke="#000000" stroke-width="2" stroke-opacity="0.200000" d="M112.59,-256.56C111.97,-295.97 115.18,-447.15 197,-521 209.06,-531.88 224.91,-538.03 240.84,-541.37"/>
<polygon fill="#000000" fill-opacity="0.200000" stroke="#000000" stroke-width="2" stroke-opacity="0.200000" points="240.42,-543.43 246.7,-542.41 241.16,-539.29 240.42,-543.43"/>
</g>
<!-- src/js/director/directors/DirectorDanceRabbitDance.js&#45;&gt;src/js/directable/directables/title/DirectableTitle.js -->
<g id="edge20" class="edge">
<title>src/js/director/directors/DirectorDanceRabbitDance.js&#45;&gt;src/js/directable/directables/title/DirectableTitle.js</title>
<path fill="none" stroke="#000000" stroke-width="2" stroke-opacity="0.200000" d="M112.43,-256.58C110.94,-299.84 110.41,-479.31 197,-582 212.58,-600.48 236.5,-612.24 258.15,-619.59"/>
<polygon fill="#000000" fill-opacity="0.200000" stroke="#000000" stroke-width="2" stroke-opacity="0.200000" points="257.39,-621.55 263.75,-621.37 258.67,-617.55 257.39,-621.55"/>
</g>
<!-- src/js/director/directors/DirectorDanceRabbitDance.js&#45;&gt;src/js/director/Director.js -->
<g id="edge21" class="edge">
<title>src/js/director/directors/DirectorDanceRabbitDance.js&#45;&gt;src/js/director/Director.js</title>
<path fill="none" stroke="#000000" stroke-width="2" stroke-opacity="0.200000" d="M181.39,-247C211.71,-247 246.15,-247 271.44,-247"/>
<polygon fill="#000000" fill-opacity="0.200000" stroke="#000000" stroke-width="2" stroke-opacity="0.200000" points="271.3,-249.1 277.3,-247 271.3,-244.9 271.3,-249.1"/>
</g>
<!-- src/js/index.js -->
<g id="node21" class="node">
<title>src/js/index.js</title>
<g id="a_node21"><a xlink:href="src/js/index.js" xlink:title="index.js">
<path fill="#ffffcc" stroke="black" d="M329.83,-1097.25C329.83,-1097.25 288.17,-1097.25 288.17,-1097.25 285.08,-1097.25 282,-1094.17 282,-1091.08 282,-1091.08 282,-1084.92 282,-1084.92 282,-1081.83 285.08,-1078.75 288.17,-1078.75 288.17,-1078.75 329.83,-1078.75 329.83,-1078.75 332.92,-1078.75 336,-1081.83 336,-1084.92 336,-1084.92 336,-1091.08 336,-1091.08 336,-1094.17 332.92,-1097.25 329.83,-1097.25"/>
<text text-anchor="start" x="293.25" y="-1084.7" font-family="Helvetica,sans-Serif" font-size="9.00">index.js</text>
</a>
</g>
</g>
<!-- src/js/index.js&#45;&gt;src/js/application/Application.js -->
<g id="edge22" class="edge">
<title>src/js/index.js&#45;&gt;src/js/application/Application.js</title>
<path fill="none" stroke="#000000" stroke-width="2" stroke-opacity="0.200000" d="M336.28,-1089.32C360.49,-1090.54 396.89,-1092.37 425.47,-1093.81"/>
<polygon fill="#000000" fill-opacity="0.200000" stroke="#000000" stroke-width="2" stroke-opacity="0.200000" points="425.33,-1095.9 431.43,-1094.1 425.54,-1091.71 425.33,-1095.9"/>
</g>
<!-- src/js/overlay/OverlayUtil.js -->
<g id="node23" class="node">
<title>src/js/overlay/OverlayUtil.js</title>
<g id="a_node23"><a xlink:href="src/js/overlay/OverlayUtil.js" xlink:title="OverlayUtil.js">
<path fill="#ffffcc" stroke="black" d="M498.96,-956.25C498.96,-956.25 441.29,-956.25 441.29,-956.25 438.21,-956.25 435.13,-953.17 435.13,-950.08 435.13,-950.08 435.13,-943.92 435.13,-943.92 435.13,-940.83 438.21,-937.75 441.29,-937.75 441.29,-937.75 498.96,-937.75 498.96,-937.75 502.04,-937.75 505.13,-940.83 505.13,-943.92 505.13,-943.92 505.13,-950.08 505.13,-950.08 505.13,-953.17 502.04,-956.25 498.96,-956.25"/>
<text text-anchor="start" x="443.13" y="-943.7" font-family="Helvetica,sans-Serif" font-size="9.00">OverlayUtil.js</text>
</a>
</g>
</g>
<!-- src/js/overlay/overlay/OverlayOverlay.js&#45;&gt;src/js/overlay/OverlayUtil.js -->
<g id="edge32" class="edge">
<title>src/js/overlay/overlay/OverlayOverlay.js&#45;&gt;src/js/overlay/OverlayUtil.js</title>
<path fill="none" stroke="#000000" stroke-width="2" stroke-opacity="0.200000" d="M352.7,-999.43C367.02,-995.98 382.92,-991.49 397,-986 414.19,-979.3 432.45,-969.39 446.3,-961.24"/>
<polygon fill="#000000" fill-opacity="0.200000" stroke="#000000" stroke-width="2" stroke-opacity="0.200000" points="447.24,-963.12 451.31,-958.24 445.08,-959.52 447.24,-963.12"/>
</g>
<!-- src/js/overlay/OverlayUtil.js&#45;&gt;src/js/application/ApplicationLogger.js -->
<g id="edge28" class="edge">
<title>src/js/overlay/OverlayUtil.js&#45;&gt;src/js/application/ApplicationLogger.js</title>
<path fill="none" stroke="#000000" stroke-width="2" stroke-opacity="0.200000" d="M479.53,-956.32C501.86,-981.08 562.86,-1048.72 590.97,-1079.89"/>
<polygon fill="#000000" fill-opacity="0.200000" stroke="#000000" stroke-width="2" stroke-opacity="0.200000" points="589.14,-1081 594.72,-1084.05 592.26,-1078.19 589.14,-1081"/>
</g>
<!-- src/js/overlay/OverlayUtil.js&#45;&gt;src/js/application/ApplicationDispatcher.js -->
<g id="edge27" class="edge">
<title>src/js/overlay/OverlayUtil.js&#45;&gt;src/js/application/ApplicationDispatcher.js</title>
<path fill="none" stroke="#000000" stroke-width="2" stroke-opacity="0.200000" d="M460.54,-956.67C437.7,-980.92 383.3,-1046.54 401,-1105 402.05,-1108.46 403.73,-1111.42 405.89,-1113.95"/>
<polygon fill="#000000" fill-opacity="0.200000" stroke="#000000" stroke-width="2" stroke-opacity="0.200000" points="404.38,-1115.42 410.31,-1117.72 407.11,-1112.23 404.38,-1115.42"/>
</g>
<!-- src/js/overlay/capture/OverlayCapture.js -->
<g id="node24" class="node">
<title>src/js/overlay/capture/OverlayCapture.js</title>
<g id="a_node24"><a xlink:href="src/js/overlay/capture/OverlayCapture.js" xlink:title="OverlayCapture.js">
<path fill="#ffffcc" stroke="black" d="M347.58,-773.25C347.58,-773.25 270.42,-773.25 270.42,-773.25 267.33,-773.25 264.25,-770.17 264.25,-767.08 264.25,-767.08 264.25,-760.92 264.25,-760.92 264.25,-757.83 267.33,-754.75 270.42,-754.75 270.42,-754.75 347.58,-754.75 347.58,-754.75 350.67,-754.75 353.75,-757.83 353.75,-760.92 353.75,-760.92 353.75,-767.08 353.75,-767.08 353.75,-770.17 350.67,-773.25 347.58,-773.25"/>
<text text-anchor="start" x="272.25" y="-760.7" font-family="Helvetica,sans-Serif" font-size="9.00">OverlayCapture.js</text>
</a>
</g>
</g>
<!-- src/js/overlay/capture/OverlayCapture.js&#45;&gt;src/js/overlay/OverlayUtil.js -->
<g id="edge29" class="edge">
<title>src/js/overlay/capture/OverlayCapture.js&#45;&gt;src/js/overlay/OverlayUtil.js</title>
<path fill="none" stroke="#000000" stroke-width="2" stroke-opacity="0.200000" d="M342.84,-773.64C360.59,-780.18 381.91,-790.34 397,-805 433.88,-840.8 455.23,-899.48 464.16,-928.94"/>
<polygon fill="#000000" fill-opacity="0.200000" stroke="#000000" stroke-width="2" stroke-opacity="0.200000" points="462.08,-929.33 465.78,-934.5 466.12,-928.15 462.08,-929.33"/>
</g>
<!-- src/js/overlay/format/OverlayFormat.js -->
<g id="node25" class="node">
<title>src/js/overlay/format/OverlayFormat.js</title>
<g id="a_node25"><a xlink:href="src/js/overlay/format/OverlayFormat.js" xlink:title="OverlayFormat.js">
<path fill="#ffffcc" stroke="black" d="M345.33,-834.25C345.33,-834.25 272.67,-834.25 272.67,-834.25 269.58,-834.25 266.5,-831.17 266.5,-828.08 266.5,-828.08 266.5,-821.92 266.5,-821.92 266.5,-818.83 269.58,-815.75 272.67,-815.75 272.67,-815.75 345.33,-815.75 345.33,-815.75 348.42,-815.75 351.5,-818.83 351.5,-821.92 351.5,-821.92 351.5,-828.08 351.5,-828.08 351.5,-831.17 348.42,-834.25 345.33,-834.25"/>
<text text-anchor="start" x="274.5" y="-821.7" font-family="Helvetica,sans-Serif" font-size="9.00">OverlayFormat.js</text>
</a>
</g>
</g>
<!-- src/js/overlay/format/OverlayFormat.js&#45;&gt;src/js/overlay/OverlayUtil.js -->
<g id="edge30" class="edge">
<title>src/js/overlay/format/OverlayFormat.js&#45;&gt;src/js/overlay/OverlayUtil.js</title>
<path fill="none" stroke="#000000" stroke-width="2" stroke-opacity="0.200000" d="M337.44,-834.62C355.39,-841.68 378.81,-852.41 397,-866 421.81,-884.54 444.52,-912.7 457.58,-930.46"/>
<polygon fill="#000000" fill-opacity="0.200000" stroke="#000000" stroke-width="2" stroke-opacity="0.200000" points="455.58,-931.28 460.79,-934.92 458.99,-928.83 455.58,-931.28"/>
</g>
<!-- src/js/overlay/media/OverlayMedia.js -->
<g id="node26" class="node">
<title>src/js/overlay/media/OverlayMedia.js</title>
<g id="a_node26"><a xlink:href="src/js/overlay/media/OverlayMedia.js" xlink:title="OverlayMedia.js">
<path fill="#ffffcc" stroke="black" d="M343.83,-895.25C343.83,-895.25 274.17,-895.25 274.17,-895.25 271.08,-895.25 268,-892.17 268,-889.08 268,-889.08 268,-882.92 268,-882.92 268,-879.83 271.08,-876.75 274.17,-876.75 274.17,-876.75 343.83,-876.75 343.83,-876.75 346.92,-876.75 350,-879.83 350,-882.92 350,-882.92 350,-889.08 350,-889.08 350,-892.17 346.92,-895.25 343.83,-895.25"/>
<text text-anchor="start" x="276" y="-882.7" font-family="Helvetica,sans-Serif" font-size="9.00">OverlayMedia.js</text>
</a>
</g>
</g>
<!-- src/js/overlay/media/OverlayMedia.js&#45;&gt;src/js/overlay/OverlayUtil.js -->
<g id="edge31" class="edge">
<title>src/js/overlay/media/OverlayMedia.js&#45;&gt;src/js/overlay/OverlayUtil.js</title>
<path fill="none" stroke="#000000" stroke-width="2" stroke-opacity="0.200000" d="M335.21,-895.67C362.37,-906.08 405.7,-922.69 435.69,-934.18"/>
<polygon fill="#000000" fill-opacity="0.200000" stroke="#000000" stroke-width="2" stroke-opacity="0.200000" points="434.59,-936.01 440.94,-936.2 436.09,-932.09 434.59,-936.01"/>
</g>
<!-- src/js/overlay/rhythm/OverlayRhythm.js -->
<g id="node27" class="node">
<title>src/js/overlay/rhythm/OverlayRhythm.js</title>
<g id="a_node27"><a xlink:href="src/js/overlay/rhythm/OverlayRhythm.js" xlink:title="OverlayRhythm.js">
<path fill="#ffffcc" stroke="black" d="M346.83,-956.25C346.83,-956.25 271.17,-956.25 271.17,-956.25 268.08,-956.25 265,-953.17 265,-950.08 265,-950.08 265,-943.92 265,-943.92 265,-940.83 268.08,-937.75 271.17,-937.75 271.17,-937.75 346.83,-937.75 346.83,-937.75 349.92,-937.75 353,-940.83 353,-943.92 353,-943.92 353,-950.08 353,-950.08 353,-953.17 349.92,-956.25 346.83,-956.25"/>
<text text-anchor="start" x="273" y="-943.7" font-family="Helvetica,sans-Serif" font-size="9.00">OverlayRhythm.js</text>
</a>
</g>
</g>
<!-- src/js/overlay/rhythm/OverlayRhythm.js&#45;&gt;src/js/overlay/OverlayUtil.js -->
<g id="edge33" class="edge">
<title>src/js/overlay/rhythm/OverlayRhythm.js&#45;&gt;src/js/overlay/OverlayUtil.js</title>
<path fill="none" stroke="#000000" stroke-width="2" stroke-opacity="0.200000" d="M353.48,-947C375.97,-947 403.33,-947 425.79,-947"/>
<polygon fill="#000000" fill-opacity="0.200000" stroke="#000000" stroke-width="2" stroke-opacity="0.200000" points="425.74,-949.1 431.74,-947 425.74,-944.9 425.74,-949.1"/>
</g>
<!-- src/js/rhythm/ViewRhythm.js -->
<g id="node28" class="node">
<title>src/js/rhythm/ViewRhythm.js</title>
<g id="a_node28"><a xlink:href="src/js/rhythm/ViewRhythm.js" xlink:title="ViewRhythm.js">
<path fill="#ffffcc" stroke="black" d="M144.08,-1173.25C144.08,-1173.25 79.67,-1173.25 79.67,-1173.25 76.58,-1173.25 73.5,-1170.17 73.5,-1167.08 73.5,-1167.08 73.5,-1160.92 73.5,-1160.92 73.5,-1157.83 76.58,-1154.75 79.67,-1154.75 79.67,-1154.75 144.08,-1154.75 144.08,-1154.75 147.17,-1154.75 150.25,-1157.83 150.25,-1160.92 150.25,-1160.92 150.25,-1167.08 150.25,-1167.08 150.25,-1170.17 147.17,-1173.25 144.08,-1173.25"/>
<text text-anchor="start" x="81.5" y="-1160.7" font-family="Helvetica,sans-Serif" font-size="9.00">ViewRhythm.js</text>
</a>
</g>
</g>
<!-- src/js/rhythm/ViewRhythmTrack.js -->
<g id="node29" class="node">
<title>src/js/rhythm/ViewRhythmTrack.js</title>
<g id="a_node29"><a xlink:href="src/js/rhythm/ViewRhythmTrack.js" xlink:title="ViewRhythmTrack.js">
<path fill="#ffffcc" stroke="black" d="M352.46,-1173.25C352.46,-1173.25 265.54,-1173.25 265.54,-1173.25 262.46,-1173.25 259.38,-1170.17 259.38,-1167.08 259.38,-1167.08 259.38,-1160.92 259.38,-1160.92 259.38,-1157.83 262.46,-1154.75 265.54,-1154.75 265.54,-1154.75 352.46,-1154.75 352.46,-1154.75 355.54,-1154.75 358.63,-1157.83 358.63,-1160.92 358.63,-1160.92 358.63,-1167.08 358.63,-1167.08 358.63,-1170.17 355.54,-1173.25 352.46,-1173.25"/>
<text text-anchor="start" x="267.38" y="-1160.7" font-family="Helvetica,sans-Serif" font-size="9.00">ViewRhythmTrack.js</text>
</a>
</g>
</g>
<!-- src/js/rhythm/ViewRhythm.js&#45;&gt;src/js/rhythm/ViewRhythmTrack.js -->
<g id="edge34" class="edge">
<title>src/js/rhythm/ViewRhythm.js&#45;&gt;src/js/rhythm/ViewRhythmTrack.js</title>
<path fill="none" stroke="#000000" stroke-width="2" stroke-opacity="0.200000" d="M150.5,-1164C178.74,-1164 217.92,-1164 250.14,-1164"/>
<polygon fill="#000000" fill-opacity="0.200000" stroke="#000000" stroke-width="2" stroke-opacity="0.200000" points="250,-1166.1 256,-1164 250,-1161.9 250,-1166.1"/>
</g>
<!-- src/js/view/render/RenderSurface.js -->
<g id="node31" class="node">
<title>src/js/view/render/RenderSurface.js</title>
<g id="a_node31"><a xlink:href="src/js/view/render/RenderSurface.js" xlink:title="RenderSurface.js">
<path fill="#ffffcc" stroke="black" d="M643.96,-119.25C643.96,-119.25 569.04,-119.25 569.04,-119.25 565.96,-119.25 562.88,-116.17 562.88,-113.08 562.88,-113.08 562.88,-106.92 562.88,-106.92 562.88,-103.83 565.96,-100.75 569.04,-100.75 569.04,-100.75 643.96,-100.75 643.96,-100.75 647.04,-100.75 650.13,-103.83 650.13,-106.92 650.13,-106.92 650.13,-113.08 650.13,-113.08 650.13,-116.17 647.04,-119.25 643.96,-119.25"/>
<text text-anchor="start" x="570.88" y="-106.7" font-family="Helvetica,sans-Serif" font-size="9.00">RenderSurface.js</text>
</a>
</g>
</g>
<!-- src/js/view/render/RenderController.js&#45;&gt;src/js/view/render/RenderSurface.js -->
<g id="edge36" class="edge">
<title>src/js/view/render/RenderController.js&#45;&gt;src/js/view/render/RenderSurface.js</title>
<path fill="none" stroke="#000000" stroke-width="2" stroke-opacity="0.200000" d="M518.12,-110C529.7,-110 542.16,-110 553.95,-110"/>
<polygon fill="#000000" fill-opacity="0.200000" stroke="#000000" stroke-width="2" stroke-opacity="0.200000" points="553.77,-112.1 559.77,-110 553.77,-107.9 553.77,-112.1"/>
</g>
<!-- src/js/view/render/RenderResizer.js -->
<g id="node32" class="node">
<title>src/js/view/render/RenderResizer.js</title>
<g id="a_node32"><a xlink:href="src/js/view/render/RenderResizer.js" xlink:title="RenderResizer.js">
<path fill="#ffffcc" stroke="black" d="M507.21,-150.25C507.21,-150.25 433.04,-150.25 433.04,-150.25 429.96,-150.25 426.88,-147.17 426.88,-144.08 426.88,-144.08 426.88,-137.92 426.88,-137.92 426.88,-134.83 429.96,-131.75 433.04,-131.75 433.04,-131.75 507.21,-131.75 507.21,-131.75 510.29,-131.75 513.38,-134.83 513.38,-137.92 513.38,-137.92 513.38,-144.08 513.38,-144.08 513.38,-147.17 510.29,-150.25 507.21,-150.25"/>
<text text-anchor="start" x="434.88" y="-137.7" font-family="Helvetica,sans-Serif" font-size="9.00">RenderResizer.js</text>
</a>
</g>
</g>
<!-- src/js/view/render/RenderResizer.js&#45;&gt;src/js/application/ApplicationConfiguration.js -->
<g id="edge37" class="edge">
<title>src/js/view/render/RenderResizer.js&#45;&gt;src/js/application/ApplicationConfiguration.js</title>
<path fill="none" stroke="#000000" stroke-width="2" stroke-opacity="0.200000" d="M474.41,-150.41C485.67,-183.21 522.7,-295.67 535.38,-392 537.98,-411.8 531.05,-1095.28 543.38,-1111 543.5,-1111.15 543.62,-1111.31 543.74,-1111.46"/>
<polygon fill="#000000" fill-opacity="0.200000" stroke="#000000" stroke-width="2" stroke-opacity="0.200000" points="542.01,-1112.71 547.82,-1115.3 544.89,-1109.65 542.01,-1112.71"/>
</g>
<!-- src/js/view/render/RenderResizer.js&#45;&gt;src/js/application/ApplicationLogger.js -->
<g id="edge38" class="edge">
<title>src/js/view/render/RenderResizer.js&#45;&gt;src/js/application/ApplicationLogger.js</title>
<path fill="none" stroke="#000000" stroke-width="2" stroke-opacity="0.200000" d="M474.37,-150.42C485.48,-183.23 522.07,-295.76 535.38,-392 545.48,-465.1 536.39,-650.53 543.38,-724 556.38,-860.84 589.84,-1023.41 601.45,-1077.49"/>
<polygon fill="#000000" fill-opacity="0.200000" stroke="#000000" stroke-width="2" stroke-opacity="0.200000" points="599.4,-1077.92 602.72,-1083.34 603.5,-1077.03 599.4,-1077.92"/>
</g>
</g>
</svg>
