<?xml version="1.0" encoding="UTF-8" standalone="no"?>
<!DOCTYPE svg PUBLIC "-//W3C//DTD SVG 1.1//EN"
 "http://www.w3.org/Graphics/SVG/1.1/DTD/svg11.dtd">
<!-- Generated by graphviz version 12.2.1 (20241206.2353)
 -->
<!-- Title: dependency&#45;cruiser output Pages: 1 -->
<svg width="824pt" height="1335pt"
 viewBox="0.00 0.00 823.88 1335.00" xmlns="http://www.w3.org/2000/svg" xmlns:xlink="http://www.w3.org/1999/xlink">
<g id="graph0" class="graph" transform="scale(1 1) rotate(0) translate(4 1331)">
<title>dependency&#45;cruiser output</title>
<polygon fill="white" stroke="none" points="-4,4 -4,-1331 819.88,-1331 819.88,4 -4,4"/>
<g id="clust1" class="cluster">
<title>cluster_src</title>
<path fill="#ffffff" stroke="black" stroke-width="2" d="M20,-8C20,-8 795.88,-8 795.88,-8 801.88,-8 807.88,-14 807.88,-20 807.88,-20 807.88,-1307 807.88,-1307 807.88,-1313 801.88,-1319 795.88,-1319 795.88,-1319 20,-1319 20,-1319 14,-1319 8,-1313 8,-1307 8,-1307 8,-20 8,-20 8,-14 14,-8 20,-8"/>
<text text-anchor="middle" x="407.94" y="-1306.45" font-family="Helvetica,sans-Serif" font-weight="bold" font-size="9.00">src</text>
</g>
<g id="clust2" class="cluster">
<title>cluster_src/js</title>
<path fill="#ffffff" stroke="black" stroke-width="2" d="M28,-16C28,-16 787.88,-16 787.88,-16 793.88,-16 799.88,-22 799.88,-28 799.88,-28 799.88,-1280 799.88,-1280 799.88,-1286 793.88,-1292 787.88,-1292 787.88,-1292 28,-1292 28,-1292 22,-1292 16,-1286 16,-1280 16,-1280 16,-28 16,-28 16,-22 22,-16 28,-16"/>
<text text-anchor="middle" x="407.94" y="-1279.45" font-family="Helvetica,sans-Serif" font-weight="bold" font-size="9.00">js</text>
</g>
<g id="clust3" class="cluster">
<title>cluster_src/js/application</title>
<path fill="#ffffff" stroke="black" stroke-width="2" d="M274.88,-1212C274.88,-1212 337.62,-1212 337.62,-1212 343.62,-1212 349.62,-1218 349.62,-1224 349.62,-1224 349.62,-1253 349.62,-1253 349.62,-1259 343.62,-1265 337.62,-1265 337.62,-1265 274.88,-1265 274.88,-1265 268.88,-1265 262.88,-1259 262.88,-1253 262.88,-1253 262.88,-1224 262.88,-1224 262.88,-1218 268.88,-1212 274.88,-1212"/>
<text text-anchor="middle" x="306.25" y="-1252.45" font-family="Helvetica,sans-Serif" font-weight="bold" font-size="9.00">application</text>
</g>
<g id="clust4" class="cluster">
<title>cluster_src/js/data</title>
<path fill="#ffffff" stroke="black" stroke-width="2" d="M71,-24C71,-24 329.75,-24 329.75,-24 335.75,-24 341.75,-30 341.75,-36 341.75,-36 341.75,-65 341.75,-65 341.75,-71 335.75,-77 329.75,-77 329.75,-77 71,-77 71,-77 65,-77 59,-71 59,-65 59,-65 59,-36 59,-36 59,-30 65,-24 71,-24"/>
<text text-anchor="middle" x="200.38" y="-64.45" font-family="Helvetica,sans-Serif" font-weight="bold" font-size="9.00">data</text>
</g>
<g id="clust5" class="cluster">
<title>cluster_src/js/directable</title>
<path fill="#ffffff" stroke="black" stroke-width="2" d="M206.25,-181C206.25,-181 618.38,-181 618.38,-181 624.38,-181 630.38,-187 630.38,-193 630.38,-193 630.38,-572 630.38,-572 630.38,-578 624.38,-584 618.38,-584 618.38,-584 206.25,-584 206.25,-584 200.25,-584 194.25,-578 194.25,-572 194.25,-572 194.25,-193 194.25,-193 194.25,-187 200.25,-181 206.25,-181"/>
<text text-anchor="middle" x="412.31" y="-571.45" font-family="Helvetica,sans-Serif" font-weight="bold" font-size="9.00">directable</text>
</g>
<g id="clust6" class="cluster">
<title>cluster_src/js/directable/directables</title>
<path fill="#ffffff" stroke="black" stroke-width="2" d="M214.25,-189C214.25,-189 510.88,-189 510.88,-189 516.88,-189 522.88,-195 522.88,-201 522.88,-201 522.88,-545 522.88,-545 522.88,-551 516.88,-557 510.88,-557 510.88,-557 214.25,-557 214.25,-557 208.25,-557 202.25,-551 202.25,-545 202.25,-545 202.25,-201 202.25,-201 202.25,-195 208.25,-189 214.25,-189"/>
<text text-anchor="middle" x="362.56" y="-544.45" font-family="Helvetica,sans-Serif" font-weight="bold" font-size="9.00">directables</text>
</g>
<g id="clust7" class="cluster">
<title>cluster_src/js/directable/directables/frame</title>
<path fill="#ffffff" stroke="black" stroke-width="2" d="M263.62,-416C263.62,-416 348.88,-416 348.88,-416 354.88,-416 360.88,-422 360.88,-428 360.88,-428 360.88,-457 360.88,-457 360.88,-463 354.88,-469 348.88,-469 348.88,-469 263.62,-469 263.62,-469 257.62,-469 251.62,-463 251.62,-457 251.62,-457 251.62,-428 251.62,-428 251.62,-422 257.62,-416 263.62,-416"/>
<text text-anchor="middle" x="306.25" y="-456.45" font-family="Helvetica,sans-Serif" font-weight="bold" font-size="9.00">frame</text>
</g>
<g id="clust8" class="cluster">
<title>cluster_src/js/directable/directables/rhythm</title>
<path fill="#ffffff" stroke="black" stroke-width="2" d="M222.25,-197C222.25,-197 502.88,-197 502.88,-197 508.88,-197 514.88,-203 514.88,-209 514.88,-209 514.88,-396 514.88,-396 514.88,-402 508.88,-408 502.88,-408 502.88,-408 222.25,-408 222.25,-408 216.25,-408 210.25,-402 210.25,-396 210.25,-396 210.25,-209 210.25,-209 210.25,-203 216.25,-197 222.25,-197"/>
<text text-anchor="middle" x="362.56" y="-395.45" font-family="Helvetica,sans-Serif" font-weight="bold" font-size="9.00">rhythm</text>
</g>
<g id="clust9" class="cluster">
<title>cluster_src/js/directable/directables/rhythm/asdr</title>
<path fill="#ffffff" stroke="black" stroke-width="2" d="M230.25,-205C230.25,-205 382.25,-205 382.25,-205 388.25,-205 394.25,-211 394.25,-217 394.25,-217 394.25,-308 394.25,-308 394.25,-314 388.25,-320 382.25,-320 382.25,-320 230.25,-320 230.25,-320 224.25,-320 218.25,-314 218.25,-308 218.25,-308 218.25,-217 218.25,-217 218.25,-211 224.25,-205 230.25,-205"/>
<text text-anchor="middle" x="306.25" y="-307.45" font-family="Helvetica,sans-Serif" font-weight="bold" font-size="9.00">asdr</text>
</g>
<g id="clust10" class="cluster">
<title>cluster_src/js/directable/directables/rhythm/bpm</title>
<path fill="#ffffff" stroke="black" stroke-width="2" d="M251.25,-328C251.25,-328 361.25,-328 361.25,-328 367.25,-328 373.25,-334 373.25,-340 373.25,-340 373.25,-369 373.25,-369 373.25,-375 367.25,-381 361.25,-381 361.25,-381 251.25,-381 251.25,-381 245.25,-381 239.25,-375 239.25,-369 239.25,-369 239.25,-340 239.25,-340 239.25,-334 245.25,-328 251.25,-328"/>
<text text-anchor="middle" x="306.25" y="-368.45" font-family="Helvetica,sans-Serif" font-weight="bold" font-size="9.00">bpm</text>
</g>
<g id="clust11" class="cluster">
<title>cluster_src/js/directable/directables/title</title>
<path fill="#ffffff" stroke="black" stroke-width="2" d="M268.12,-477C268.12,-477 344.38,-477 344.38,-477 350.38,-477 356.38,-483 356.38,-489 356.38,-489 356.38,-518 356.38,-518 356.38,-524 350.38,-530 344.38,-530 344.38,-530 268.12,-530 268.12,-530 262.12,-530 256.12,-524 256.12,-518 256.12,-518 256.12,-489 256.12,-489 256.12,-483 262.12,-477 268.12,-477"/>
<text text-anchor="middle" x="306.25" y="-517.45" font-family="Helvetica,sans-Serif" font-weight="bold" font-size="9.00">title</text>
</g>
<g id="clust12" class="cluster">
<title>cluster_src/js/director</title>
<path fill="#ffffff" stroke="black" stroke-width="2" d="M36,-85C36,-85 330.5,-85 330.5,-85 336.5,-85 342.5,-91 342.5,-97 342.5,-97 342.5,-161 342.5,-161 342.5,-167 336.5,-173 330.5,-173 330.5,-173 36,-173 36,-173 30,-173 24,-167 24,-161 24,-161 24,-97 24,-97 24,-91 30,-85 36,-85"/>
<text text-anchor="middle" x="183.25" y="-160.45" font-family="Helvetica,sans-Serif" font-weight="bold" font-size="9.00">director</text>
</g>
<g id="clust13" class="cluster">
<title>cluster_src/js/director/directors</title>
<path fill="#ffffff" stroke="black" stroke-width="2" d="M44,-93C44,-93 174.25,-93 174.25,-93 180.25,-93 186.25,-99 186.25,-105 186.25,-105 186.25,-134 186.25,-134 186.25,-140 180.25,-146 174.25,-146 174.25,-146 44,-146 44,-146 38,-146 32,-140 32,-134 32,-134 32,-105 32,-105 32,-99 38,-93 44,-93"/>
<text text-anchor="middle" x="109.12" y="-133.45" font-family="Helvetica,sans-Serif" font-weight="bold" font-size="9.00">directors</text>
</g>
<g id="clust14" class="cluster">
<title>cluster_src/js/event</title>
<path fill="#ffffff" stroke="black" stroke-width="2" d="M44.38,-592C44.38,-592 349.25,-592 349.25,-592 355.25,-592 361.25,-598 361.25,-604 361.25,-604 361.25,-633 361.25,-633 361.25,-639 355.25,-645 349.25,-645 349.25,-645 44.38,-645 44.38,-645 38.38,-645 32.38,-639 32.38,-633 32.38,-633 32.38,-604 32.38,-604 32.38,-598 38.38,-592 44.38,-592"/>
<text text-anchor="middle" x="196.81" y="-632.45" font-family="Helvetica,sans-Serif" font-weight="bold" font-size="9.00">event</text>
</g>
<g id="clust15" class="cluster">
<title>cluster_src/js/overlay</title>
<path fill="#ffffff" stroke="black" stroke-width="2" d="M85.25,-653C85.25,-653 779.88,-653 779.88,-653 785.88,-653 791.88,-659 791.88,-665 791.88,-665 791.88,-1105 791.88,-1105 791.88,-1111 785.88,-1117 779.88,-1117 779.88,-1117 85.25,-1117 85.25,-1117 79.25,-1117 73.25,-1111 73.25,-1105 73.25,-1105 73.25,-665 73.25,-665 73.25,-659 79.25,-653 85.25,-653"/>
<text text-anchor="middle" x="432.56" y="-1104.45" font-family="Helvetica,sans-Serif" font-weight="bold" font-size="9.00">overlay</text>
</g>
<g id="clust16" class="cluster">
<title>cluster_src/js/overlay/capture</title>
<path fill="#ffffff" stroke="black" stroke-width="2" d="M265.5,-671C265.5,-671 347,-671 347,-671 353,-671 359,-677 359,-683 359,-683 359,-712 359,-712 359,-718 353,-724 347,-724 347,-724 265.5,-724 265.5,-724 259.5,-724 253.5,-718 253.5,-712 253.5,-712 253.5,-683 253.5,-683 253.5,-677 259.5,-671 265.5,-671"/>
<text text-anchor="middle" x="306.25" y="-711.45" font-family="Helvetica,sans-Serif" font-weight="bold" font-size="9.00">capture</text>
</g>
<g id="clust17" class="cluster">
<title>cluster_src/js/overlay/dispatcher</title>
<path fill="#ffffff" stroke="black" stroke-width="2" d="M542.88,-854C542.88,-854 771.88,-854 771.88,-854 777.88,-854 783.88,-860 783.88,-866 783.88,-866 783.88,-895 783.88,-895 783.88,-901 777.88,-907 771.88,-907 771.88,-907 542.88,-907 542.88,-907 536.88,-907 530.88,-901 530.88,-895 530.88,-895 530.88,-866 530.88,-866 530.88,-860 536.88,-854 542.88,-854"/>
<text text-anchor="middle" x="657.38" y="-894.45" font-family="Helvetica,sans-Serif" font-weight="bold" font-size="9.00">dispatcher</text>
</g>
<g id="clust18" class="cluster">
<title>cluster_src/js/overlay/format</title>
<path fill="#ffffff" stroke="black" stroke-width="2" d="M267.75,-732C267.75,-732 344.75,-732 344.75,-732 350.75,-732 356.75,-738 356.75,-744 356.75,-744 356.75,-773 356.75,-773 356.75,-779 350.75,-785 344.75,-785 344.75,-785 267.75,-785 267.75,-785 261.75,-785 255.75,-779 255.75,-773 255.75,-773 255.75,-744 255.75,-744 255.75,-738 261.75,-732 267.75,-732"/>
<text text-anchor="middle" x="306.25" y="-772.45" font-family="Helvetica,sans-Serif" font-weight="bold" font-size="9.00">format</text>
</g>
<g id="clust19" class="cluster">
<title>cluster_src/js/overlay/media</title>
<path fill="#ffffff" stroke="black" stroke-width="2" d="M269.25,-793C269.25,-793 343.25,-793 343.25,-793 349.25,-793 355.25,-799 355.25,-805 355.25,-805 355.25,-834 355.25,-834 355.25,-840 349.25,-846 343.25,-846 343.25,-846 269.25,-846 269.25,-846 263.25,-846 257.25,-840 257.25,-834 257.25,-834 257.25,-805 257.25,-805 257.25,-799 263.25,-793 269.25,-793"/>
<text text-anchor="middle" x="306.25" y="-833.45" font-family="Helvetica,sans-Serif" font-weight="bold" font-size="9.00">media</text>
</g>
<g id="clust20" class="cluster">
<title>cluster_src/js/overlay/overlay</title>
<path fill="#ffffff" stroke="black" stroke-width="2" d="M266.62,-854C266.62,-854 345.88,-854 345.88,-854 351.88,-854 357.88,-860 357.88,-866 357.88,-866 357.88,-895 357.88,-895 357.88,-901 351.88,-907 345.88,-907 345.88,-907 266.62,-907 266.62,-907 260.62,-907 254.62,-901 254.62,-895 254.62,-895 254.62,-866 254.62,-866 254.62,-860 260.62,-854 266.62,-854"/>
<text text-anchor="middle" x="306.25" y="-894.45" font-family="Helvetica,sans-Serif" font-weight="bold" font-size="9.00">overlay</text>
</g>
<g id="clust21" class="cluster">
<title>cluster_src/js/overlay/pathtracer</title>
<path fill="#ffffff" stroke="black" stroke-width="2" d="M259.88,-915C259.88,-915 352.62,-915 352.62,-915 358.62,-915 364.62,-921 364.62,-927 364.62,-927 364.62,-956 364.62,-956 364.62,-962 358.62,-968 352.62,-968 352.62,-968 259.88,-968 259.88,-968 253.88,-968 247.88,-962 247.88,-956 247.88,-956 247.88,-927 247.88,-927 247.88,-921 253.88,-915 259.88,-915"/>
<text text-anchor="middle" x="306.25" y="-955.45" font-family="Helvetica,sans-Serif" font-weight="bold" font-size="9.00">pathtracer</text>
</g>
<g id="clust22" class="cluster">
<title>cluster_src/js/overlay/rhythm</title>
<path fill="#ffffff" stroke="black" stroke-width="2" d="M266.25,-976C266.25,-976 346.25,-976 346.25,-976 352.25,-976 358.25,-982 358.25,-988 358.25,-988 358.25,-1017 358.25,-1017 358.25,-1023 352.25,-1029 346.25,-1029 346.25,-1029 266.25,-1029 266.25,-1029 260.25,-1029 254.25,-1023 254.25,-1017 254.25,-1017 254.25,-988 254.25,-988 254.25,-982 260.25,-976 266.25,-976"/>
<text text-anchor="middle" x="306.25" y="-1016.45" font-family="Helvetica,sans-Serif" font-weight="bold" font-size="9.00">rhythm</text>
</g>
<g id="clust23" class="cluster">
<title>cluster_src/js/overlay/teleprompt</title>
<path fill="#ffffff" stroke="black" stroke-width="2" d="M259.12,-1037C259.12,-1037 353.38,-1037 353.38,-1037 359.38,-1037 365.38,-1043 365.38,-1049 365.38,-1049 365.38,-1078 365.38,-1078 365.38,-1084 359.38,-1090 353.38,-1090 353.38,-1090 259.12,-1090 259.12,-1090 253.12,-1090 247.12,-1084 247.12,-1078 247.12,-1078 247.12,-1049 247.12,-1049 247.12,-1043 253.12,-1037 259.12,-1037"/>
<text text-anchor="middle" x="306.25" y="-1077.45" font-family="Helvetica,sans-Serif" font-weight="bold" font-size="9.00">teleprompt</text>
</g>
<g id="clust24" class="cluster">
<title>cluster_src/js/renderer</title>
<path fill="#ffffff" stroke="black" stroke-width="2" d="M414.25,-1125C414.25,-1125 501,-1125 501,-1125 507,-1125 513,-1131 513,-1137 513,-1137 513,-1166 513,-1166 513,-1172 507,-1178 501,-1178 501,-1178 414.25,-1178 414.25,-1178 408.25,-1178 402.25,-1172 402.25,-1166 402.25,-1166 402.25,-1137 402.25,-1137 402.25,-1131 408.25,-1125 414.25,-1125"/>
<text text-anchor="middle" x="457.62" y="-1165.45" font-family="Helvetica,sans-Serif" font-weight="bold" font-size="9.00">renderer</text>
</g>
<g id="clust25" class="cluster">
<title>cluster_src/js/rhythm</title>
<path fill="#ffffff" stroke="black" stroke-width="2" d="M74.75,-1125C74.75,-1125 351.88,-1125 351.88,-1125 357.88,-1125 363.88,-1131 363.88,-1137 363.88,-1137 363.88,-1166 363.88,-1166 363.88,-1172 357.88,-1178 351.88,-1178 351.88,-1178 74.75,-1178 74.75,-1178 68.75,-1178 62.75,-1172 62.75,-1166 62.75,-1166 62.75,-1137 62.75,-1137 62.75,-1131 68.75,-1125 74.75,-1125"/>
<text text-anchor="middle" x="213.31" y="-1165.45" font-family="Helvetica,sans-Serif" font-weight="bold" font-size="9.00">rhythm</text>
</g>
<g id="clust26" class="cluster">
<title>cluster_src/js/view</title>
<path fill="#ffffff" stroke="black" stroke-width="2" d="M86.12,-1186C86.12,-1186 132.12,-1186 132.12,-1186 138.12,-1186 144.12,-1192 144.12,-1198 144.12,-1198 144.12,-1227 144.12,-1227 144.12,-1233 138.12,-1239 132.12,-1239 132.12,-1239 86.12,-1239 86.12,-1239 80.12,-1239 74.12,-1233 74.12,-1227 74.12,-1227 74.12,-1198 74.12,-1198 74.12,-1192 80.12,-1186 86.12,-1186"/>
<text text-anchor="middle" x="109.12" y="-1226.45" font-family="Helvetica,sans-Serif" font-weight="bold" font-size="9.00">view</text>
</g>
<!-- src/js/application/Application.js -->
<g id="node1" class="node">
<title>src/js/application/Application.js</title>
<g id="a_node1"><a xlink:href="src/js/application/Application.js" xlink:title="Application.js">
<path fill="#ffffcc" stroke="black" d="M335.46,-1238.25C335.46,-1238.25 277.04,-1238.25 277.04,-1238.25 273.96,-1238.25 270.88,-1235.17 270.88,-1232.08 270.88,-1232.08 270.88,-1225.92 270.88,-1225.92 270.88,-1222.83 273.96,-1219.75 277.04,-1219.75 277.04,-1219.75 335.46,-1219.75 335.46,-1219.75 338.54,-1219.75 341.62,-1222.83 341.62,-1225.92 341.62,-1225.92 341.62,-1232.08 341.62,-1232.08 341.62,-1235.17 338.54,-1238.25 335.46,-1238.25"/>
<text text-anchor="start" x="278.88" y="-1225.7" font-family="Helvetica,sans-Serif" font-size="9.00">Application.js</text>
</a>
</g>
</g>
<!-- src/js/data/Data.json -->
<g id="node2" class="node">
<title>src/js/data/Data.json</title>
<g id="a_node2"><a xlink:href="src/js/data/Data.json" xlink:title="Data.json">
<path fill="#ffee44" stroke="black" d="M327.58,-50.25C327.58,-50.25 284.92,-50.25 284.92,-50.25 281.83,-50.25 278.75,-47.17 278.75,-44.08 278.75,-44.08 278.75,-37.92 278.75,-37.92 278.75,-34.83 281.83,-31.75 284.92,-31.75 284.92,-31.75 327.58,-31.75 327.58,-31.75 330.67,-31.75 333.75,-34.83 333.75,-37.92 333.75,-37.92 333.75,-44.08 333.75,-44.08 333.75,-47.17 330.67,-50.25 327.58,-50.25"/>
<text text-anchor="start" x="286.75" y="-37.7" font-family="Helvetica,sans-Serif" font-size="9.00">Data.json</text>
</a>
</g>
</g>
<!-- src/js/data/DataController.js -->
<g id="node3" class="node">
<title>src/js/data/DataController.js</title>
<g id="a_node3"><a xlink:href="src/js/data/DataController.js" xlink:title="DataController.js">
<path fill="#ffffcc" stroke="black" d="M145.08,-50.25C145.08,-50.25 73.17,-50.25 73.17,-50.25 70.08,-50.25 67,-47.17 67,-44.08 67,-44.08 67,-37.92 67,-37.92 67,-34.83 70.08,-31.75 73.17,-31.75 73.17,-31.75 145.08,-31.75 145.08,-31.75 148.17,-31.75 151.25,-34.83 151.25,-37.92 151.25,-37.92 151.25,-44.08 151.25,-44.08 151.25,-47.17 148.17,-50.25 145.08,-50.25"/>
<text text-anchor="start" x="75" y="-37.7" font-family="Helvetica,sans-Serif" font-size="9.00">DataController.js</text>
</a>
</g>
</g>
<!-- src/js/data/DataController.js&#45;&gt;src/js/data/Data.json -->
<g id="edge1" class="edge">
<title>src/js/data/DataController.js&#45;&gt;src/js/data/Data.json</title>
<path fill="none" stroke="#000000" stroke-width="2" stroke-opacity="0.200000" d="M151.51,-41C186.48,-41 236.06,-41 269.37,-41"/>
<polygon fill="#000000" fill-opacity="0.200000" stroke="#000000" stroke-width="2" stroke-opacity="0.200000" points="269.28,-43.1 275.28,-41 269.28,-38.9 269.28,-43.1"/>
</g>
<!-- src/js/directable/Directable.js -->
<g id="node4" class="node">
<title>src/js/directable/Directable.js</title>
<g id="a_node4"><a xlink:href="src/js/directable/Directable.js" xlink:title="Directable.js">
<path fill="#ffffcc" stroke="black" d="M616.21,-442.25C616.21,-442.25 561.54,-442.25 561.54,-442.25 558.46,-442.25 555.38,-439.17 555.38,-436.08 555.38,-436.08 555.38,-429.92 555.38,-429.92 555.38,-426.83 558.46,-423.75 561.54,-423.75 561.54,-423.75 616.21,-423.75 616.21,-423.75 619.29,-423.75 622.38,-426.83 622.38,-429.92 622.38,-429.92 622.38,-436.08 622.38,-436.08 622.38,-439.17 619.29,-442.25 616.21,-442.25"/>
<text text-anchor="start" x="563.38" y="-429.7" font-family="Helvetica,sans-Serif" font-size="9.00">Directable.js</text>
</a>
</g>
</g>
<!-- src/js/directable/directables/frame/DirectableFrame.js -->
<g id="node5" class="node">
<title>src/js/directable/directables/frame/DirectableFrame.js</title>
<g id="a_node5"><a xlink:href="src/js/directable/directables/frame/DirectableFrame.js" xlink:title="DirectableFrame.js">
<path fill="#ffffcc" stroke="black" d="M346.71,-442.25C346.71,-442.25 265.79,-442.25 265.79,-442.25 262.71,-442.25 259.62,-439.17 259.62,-436.08 259.62,-436.08 259.62,-429.92 259.62,-429.92 259.62,-426.83 262.71,-423.75 265.79,-423.75 265.79,-423.75 346.71,-423.75 346.71,-423.75 349.79,-423.75 352.88,-426.83 352.88,-429.92 352.88,-429.92 352.88,-436.08 352.88,-436.08 352.88,-439.17 349.79,-442.25 346.71,-442.25"/>
<text text-anchor="start" x="267.62" y="-429.7" font-family="Helvetica,sans-Serif" font-size="9.00">DirectableFrame.js</text>
</a>
</g>
</g>
<!-- src/js/directable/directables/frame/DirectableFrame.js&#45;&gt;src/js/directable/Directable.js -->
<g id="edge2" class="edge">
<title>src/js/directable/directables/frame/DirectableFrame.js&#45;&gt;src/js/directable/Directable.js</title>
<path fill="none" stroke="#000000" stroke-width="2" stroke-opacity="0.200000" d="M353.28,-433C406.82,-433 494.45,-433 546.1,-433"/>
<polygon fill="#000000" fill-opacity="0.200000" stroke="#000000" stroke-width="2" stroke-opacity="0.200000" points="545.97,-435.1 551.97,-433 545.97,-430.9 545.97,-435.1"/>
</g>
<!-- src/js/directable/directables/rhythm/DirectableRhythm.js -->
<g id="node6" class="node">
<title>src/js/directable/directables/rhythm/DirectableRhythm.js</title>
<g id="a_node6"><a xlink:href="src/js/directable/directables/rhythm/DirectableRhythm.js" xlink:title="DirectableRhythm.js">
<path fill="#ffffcc" stroke="black" d="M500.71,-368.25C500.71,-368.25 414.54,-368.25 414.54,-368.25 411.46,-368.25 408.38,-365.17 408.38,-362.08 408.38,-362.08 408.38,-355.92 408.38,-355.92 408.38,-352.83 411.46,-349.75 414.54,-349.75 414.54,-349.75 500.71,-349.75 500.71,-349.75 503.79,-349.75 506.88,-352.83 506.88,-355.92 506.88,-355.92 506.88,-362.08 506.88,-362.08 506.88,-365.17 503.79,-368.25 500.71,-368.25"/>
<text text-anchor="start" x="416.38" y="-355.7" font-family="Helvetica,sans-Serif" font-size="9.00">DirectableRhythm.js</text>
</a>
</g>
</g>
<!-- src/js/directable/directables/rhythm/DirectableRhythm.js&#45;&gt;src/js/directable/Directable.js -->
<g id="edge3" class="edge">
<title>src/js/directable/directables/rhythm/DirectableRhythm.js&#45;&gt;src/js/directable/Directable.js</title>
<path fill="none" stroke="#000000" stroke-width="2" stroke-opacity="0.200000" d="M507.33,-365.84C512.73,-367.47 518.02,-369.49 522.88,-372 543.95,-382.88 563.09,-402.6 575.06,-416.68"/>
<polygon fill="#000000" fill-opacity="0.200000" stroke="#000000" stroke-width="2" stroke-opacity="0.200000" points="573.27,-417.81 578.71,-421.11 576.52,-415.14 573.27,-417.81"/>
</g>
<!-- src/js/directable/directables/rhythm/asdr/ASDRData.js -->
<g id="node7" class="node">
<title>src/js/directable/directables/rhythm/asdr/ASDRData.js</title>
<g id="a_node7"><a xlink:href="src/js/directable/directables/rhythm/asdr/ASDRData.js" xlink:title="ASDRData.js">
<path fill="#ccffcc" stroke="black" d="M335.08,-231.25C335.08,-231.25 277.42,-231.25 277.42,-231.25 274.33,-231.25 271.25,-228.17 271.25,-225.08 271.25,-225.08 271.25,-218.92 271.25,-218.92 271.25,-215.83 274.33,-212.75 277.42,-212.75 277.42,-212.75 335.08,-212.75 335.08,-212.75 338.17,-212.75 341.25,-215.83 341.25,-218.92 341.25,-218.92 341.25,-225.08 341.25,-225.08 341.25,-228.17 338.17,-231.25 335.08,-231.25"/>
<text text-anchor="start" x="279.25" y="-218.7" font-family="Helvetica,sans-Serif" font-size="9.00">ASDRData.js</text>
</a>
</g>
</g>
<!-- src/js/directable/directables/rhythm/asdr/ASDREnvelope.js -->
<g id="node8" class="node">
<title>src/js/directable/directables/rhythm/asdr/ASDREnvelope.js</title>
<g id="a_node8"><a xlink:href="src/js/directable/directables/rhythm/asdr/ASDREnvelope.js" xlink:title="ASDREnvelope.js">
<path fill="#ffffcc" stroke="black" d="M344.83,-262.25C344.83,-262.25 267.67,-262.25 267.67,-262.25 264.58,-262.25 261.5,-259.17 261.5,-256.08 261.5,-256.08 261.5,-249.92 261.5,-249.92 261.5,-246.83 264.58,-243.75 267.67,-243.75 267.67,-243.75 344.83,-243.75 344.83,-243.75 347.92,-243.75 351,-246.83 351,-249.92 351,-249.92 351,-256.08 351,-256.08 351,-259.17 347.92,-262.25 344.83,-262.25"/>
<text text-anchor="start" x="269.5" y="-249.7" font-family="Helvetica,sans-Serif" font-size="9.00">ASDREnvelope.js</text>
</a>
</g>
</g>
<!-- src/js/directable/directables/rhythm/asdr/DirectableRhythmASDRManager.js -->
<g id="node9" class="node">
<title>src/js/directable/directables/rhythm/asdr/DirectableRhythmASDRManager.js</title>
<g id="a_node9"><a xlink:href="src/js/directable/directables/rhythm/asdr/DirectableRhythmASDRManager.js" xlink:title="DirectableRhythmASDRManager.js">
<path fill="#ffffcc" stroke="black" d="M380.08,-293.25C380.08,-293.25 232.42,-293.25 232.42,-293.25 229.33,-293.25 226.25,-290.17 226.25,-287.08 226.25,-287.08 226.25,-280.92 226.25,-280.92 226.25,-277.83 229.33,-274.75 232.42,-274.75 232.42,-274.75 380.08,-274.75 380.08,-274.75 383.17,-274.75 386.25,-277.83 386.25,-280.92 386.25,-280.92 386.25,-287.08 386.25,-287.08 386.25,-290.17 383.17,-293.25 380.08,-293.25"/>
<text text-anchor="start" x="234.25" y="-280.7" font-family="Helvetica,sans-Serif" font-size="9.00">DirectableRhythmASDRManager.js</text>
</a>
</g>
</g>
<!-- src/js/directable/directables/rhythm/bpm/DirectableRhythmBPM.js -->
<g id="node10" class="node">
<title>src/js/directable/directables/rhythm/bpm/DirectableRhythmBPM.js</title>
<g id="a_node10"><a xlink:href="src/js/directable/directables/rhythm/bpm/DirectableRhythmBPM.js" xlink:title="DirectableRhythmBPM.js">
<path fill="#ffffcc" stroke="black" d="M359.08,-354.25C359.08,-354.25 253.42,-354.25 253.42,-354.25 250.33,-354.25 247.25,-351.17 247.25,-348.08 247.25,-348.08 247.25,-341.92 247.25,-341.92 247.25,-338.83 250.33,-335.75 253.42,-335.75 253.42,-335.75 359.08,-335.75 359.08,-335.75 362.17,-335.75 365.25,-338.83 365.25,-341.92 365.25,-341.92 365.25,-348.08 365.25,-348.08 365.25,-351.17 362.17,-354.25 359.08,-354.25"/>
<text text-anchor="start" x="255.25" y="-341.7" font-family="Helvetica,sans-Serif" font-size="9.00">DirectableRhythmBPM.js</text>
</a>
</g>
</g>
<!-- src/js/directable/directables/rhythm/bpm/DirectableRhythmBPM.js&#45;&gt;src/js/directable/directables/rhythm/DirectableRhythm.js -->
<g id="edge4" class="edge">
<title>src/js/directable/directables/rhythm/bpm/DirectableRhythmBPM.js&#45;&gt;src/js/directable/directables/rhythm/DirectableRhythm.js</title>
<path fill="none" stroke="#000000" stroke-width="2" stroke-opacity="0.200000" d="M365.43,-350.45C376.55,-351.49 388.18,-352.59 399.27,-353.62"/>
<polygon fill="#000000" fill-opacity="0.200000" stroke="#000000" stroke-width="2" stroke-opacity="0.200000" points="398.85,-355.69 405.02,-354.16 399.24,-351.51 398.85,-355.69"/>
</g>
<!-- src/js/directable/directables/title/DirectableTitle.js -->
<g id="node11" class="node">
<title>src/js/directable/directables/title/DirectableTitle.js</title>
<g id="a_node11"><a xlink:href="src/js/directable/directables/title/DirectableTitle.js" xlink:title="DirectableTitle.js">
<path fill="#ffffcc" stroke="black" d="M342.21,-503.25C342.21,-503.25 270.29,-503.25 270.29,-503.25 267.21,-503.25 264.12,-500.17 264.12,-497.08 264.12,-497.08 264.12,-490.92 264.12,-490.92 264.12,-487.83 267.21,-484.75 270.29,-484.75 270.29,-484.75 342.21,-484.75 342.21,-484.75 345.29,-484.75 348.38,-487.83 348.38,-490.92 348.38,-490.92 348.38,-497.08 348.38,-497.08 348.38,-500.17 345.29,-503.25 342.21,-503.25"/>
<text text-anchor="start" x="272.12" y="-490.7" font-family="Helvetica,sans-Serif" font-size="9.00">DirectableTitle.js</text>
</a>
</g>
</g>
<!-- src/js/directable/directables/title/DirectableTitle.js&#45;&gt;src/js/directable/Directable.js -->
<g id="edge5" class="edge">
<title>src/js/directable/directables/title/DirectableTitle.js&#45;&gt;src/js/directable/Directable.js</title>
<path fill="none" stroke="#000000" stroke-width="2" stroke-opacity="0.200000" d="M348.66,-485C401.8,-473.45 493.47,-453.52 546.57,-441.98"/>
<polygon fill="#000000" fill-opacity="0.200000" stroke="#000000" stroke-width="2" stroke-opacity="0.200000" points="546.69,-444.1 552.11,-440.77 545.8,-440 546.69,-444.1"/>
</g>
<!-- src/js/director/Director.js -->
<g id="node12" class="node">
<title>src/js/director/Director.js</title>
<g id="a_node12"><a xlink:href="src/js/director/Director.js" xlink:title="Director.js">
<path fill="#ffffcc" stroke="black" d="M328.33,-119.25C328.33,-119.25 284.17,-119.25 284.17,-119.25 281.08,-119.25 278,-116.17 278,-113.08 278,-113.08 278,-106.92 278,-106.92 278,-103.83 281.08,-100.75 284.17,-100.75 284.17,-100.75 328.33,-100.75 328.33,-100.75 331.42,-100.75 334.5,-103.83 334.5,-106.92 334.5,-106.92 334.5,-113.08 334.5,-113.08 334.5,-116.17 331.42,-119.25 328.33,-119.25"/>
<text text-anchor="start" x="286" y="-106.7" font-family="Helvetica,sans-Serif" font-size="9.00">Director.js</text>
</a>
</g>
</g>
<!-- src/js/director/directors/DirectorDanceRabbitDance.js -->
<g id="node13" class="node">
<title>src/js/director/directors/DirectorDanceRabbitDance.js</title>
<g id="a_node13"><a xlink:href="src/js/director/directors/DirectorDanceRabbitDance.js" xlink:title="DirectorDanceRabbitDance.js">
<path fill="#ffffcc" stroke="black" d="M172.08,-119.25C172.08,-119.25 46.17,-119.25 46.17,-119.25 43.08,-119.25 40,-116.17 40,-113.08 40,-113.08 40,-106.92 40,-106.92 40,-103.83 43.08,-100.75 46.17,-100.75 46.17,-100.75 172.08,-100.75 172.08,-100.75 175.17,-100.75 178.25,-103.83 178.25,-106.92 178.25,-106.92 178.25,-113.08 178.25,-113.08 178.25,-116.17 175.17,-119.25 172.08,-119.25"/>
<text text-anchor="start" x="48" y="-106.7" font-family="Helvetica,sans-Serif" font-size="9.00">DirectorDanceRabbitDance.js</text>
</a>
</g>
</g>
<!-- src/js/director/directors/DirectorDanceRabbitDance.js&#45;&gt;src/js/directable/directables/rhythm/bpm/DirectableRhythmBPM.js -->
<g id="edge6" class="edge">
<title>src/js/director/directors/DirectorDanceRabbitDance.js&#45;&gt;src/js/directable/directables/rhythm/bpm/DirectableRhythmBPM.js</title>
<path fill="none" stroke="#000000" stroke-width="2" stroke-opacity="0.200000" d="M110.77,-119.48C113.62,-153.12 127.99,-267.74 194.25,-323 206.6,-333.3 222.4,-339.26 238.18,-342.61"/>
<polygon fill="#000000" fill-opacity="0.200000" stroke="#000000" stroke-width="2" stroke-opacity="0.200000" points="237.66,-344.65 243.94,-343.66 238.42,-340.52 237.66,-344.65"/>
</g>
<!-- src/js/director/directors/DirectorDanceRabbitDance.js&#45;&gt;src/js/directable/directables/title/DirectableTitle.js -->
<g id="edge7" class="edge">
<title>src/js/director/directors/DirectorDanceRabbitDance.js&#45;&gt;src/js/directable/directables/title/DirectableTitle.js</title>
<path fill="none" stroke="#000000" stroke-width="2" stroke-opacity="0.200000" d="M110.96,-119.52C115.74,-171.49 141.16,-420.62 194.25,-472 210.18,-487.42 233.65,-493.52 254.9,-495.52"/>
<polygon fill="#000000" fill-opacity="0.200000" stroke="#000000" stroke-width="2" stroke-opacity="0.200000" points="254.69,-497.61 260.83,-495.93 254.99,-493.42 254.69,-497.61"/>
</g>
<!-- src/js/director/directors/DirectorDanceRabbitDance.js&#45;&gt;src/js/director/Director.js -->
<g id="edge8" class="edge">
<title>src/js/director/directors/DirectorDanceRabbitDance.js&#45;&gt;src/js/director/Director.js</title>
<path fill="none" stroke="#000000" stroke-width="2" stroke-opacity="0.200000" d="M178.64,-110C208.96,-110 243.4,-110 268.69,-110"/>
<polygon fill="#000000" fill-opacity="0.200000" stroke="#000000" stroke-width="2" stroke-opacity="0.200000" points="268.55,-112.1 274.55,-110 268.55,-107.9 268.55,-112.1"/>
</g>
<!-- src/js/event/ApplicationEvent.js -->
<g id="node14" class="node">
<title>src/js/event/ApplicationEvent.js</title>
<g id="a_node14"><a xlink:href="src/js/event/ApplicationEvent.js" xlink:title="ApplicationEvent.js">
<path fill="#ffffcc" stroke="black" d="M347.08,-618.25C347.08,-618.25 265.42,-618.25 265.42,-618.25 262.33,-618.25 259.25,-615.17 259.25,-612.08 259.25,-612.08 259.25,-605.92 259.25,-605.92 259.25,-602.83 262.33,-599.75 265.42,-599.75 265.42,-599.75 347.08,-599.75 347.08,-599.75 350.17,-599.75 353.25,-602.83 353.25,-605.92 353.25,-605.92 353.25,-612.08 353.25,-612.08 353.25,-615.17 350.17,-618.25 347.08,-618.25"/>
<text text-anchor="start" x="267.25" y="-605.7" font-family="Helvetica,sans-Serif" font-size="9.00">ApplicationEvent.js</text>
</a>
</g>
</g>
<!-- src/js/event/ApplicationEventDispatcher.js -->
<g id="node15" class="node">
<title>src/js/event/ApplicationEventDispatcher.js</title>
<g id="a_node15"><a xlink:href="src/js/event/ApplicationEventDispatcher.js" xlink:title="ApplicationEventDispatcher.js">
<path fill="#ffffcc" stroke="black" d="M171.71,-618.25C171.71,-618.25 46.54,-618.25 46.54,-618.25 43.46,-618.25 40.38,-615.17 40.38,-612.08 40.38,-612.08 40.38,-605.92 40.38,-605.92 40.38,-602.83 43.46,-599.75 46.54,-599.75 46.54,-599.75 171.71,-599.75 171.71,-599.75 174.79,-599.75 177.88,-602.83 177.88,-605.92 177.88,-605.92 177.88,-612.08 177.88,-612.08 177.88,-615.17 174.79,-618.25 171.71,-618.25"/>
<text text-anchor="start" x="48.38" y="-605.7" font-family="Helvetica,sans-Serif" font-size="9.00">ApplicationEventDispatcher.js</text>
</a>
</g>
</g>
<!-- src/js/event/ApplicationEventDispatcher.js&#45;&gt;src/js/event/ApplicationEvent.js -->
<g id="edge9" class="edge">
<title>src/js/event/ApplicationEventDispatcher.js&#45;&gt;src/js/event/ApplicationEvent.js</title>
<path fill="none" stroke="#000000" stroke-width="2" stroke-opacity="0.200000" d="M178.37,-609C201.75,-609 227.6,-609 249.83,-609"/>
<polygon fill="#000000" fill-opacity="0.200000" stroke="#000000" stroke-width="2" stroke-opacity="0.200000" points="249.77,-611.1 255.77,-609 249.77,-606.9 249.77,-611.1"/>
</g>
<!-- src/js/index.js -->
<g id="node16" class="node">
<title>src/js/index.js</title>
<g id="a_node16"><a xlink:href="src/js/index.js" xlink:title="index.js">
<path fill="#ffffcc" stroke="black" d="M129.96,-1265.25C129.96,-1265.25 88.29,-1265.25 88.29,-1265.25 85.21,-1265.25 82.12,-1262.17 82.12,-1259.08 82.12,-1259.08 82.12,-1252.92 82.12,-1252.92 82.12,-1249.83 85.21,-1246.75 88.29,-1246.75 88.29,-1246.75 129.96,-1246.75 129.96,-1246.75 133.04,-1246.75 136.12,-1249.83 136.12,-1252.92 136.12,-1252.92 136.12,-1259.08 136.12,-1259.08 136.12,-1262.17 133.04,-1265.25 129.96,-1265.25"/>
<text text-anchor="start" x="93.38" y="-1252.7" font-family="Helvetica,sans-Serif" font-size="9.00">index.js</text>
</a>
</g>
</g>
<!-- src/js/index.js&#45;&gt;src/js/application/Application.js -->
<g id="edge10" class="edge">
<title>src/js/index.js&#45;&gt;src/js/application/Application.js</title>
<path fill="none" stroke="#000000" stroke-width="2" stroke-opacity="0.200000" d="M136.44,-1252.36C168.51,-1247.92 223.16,-1240.36 261.57,-1235.04"/>
<polygon fill="#000000" fill-opacity="0.200000" stroke="#000000" stroke-width="2" stroke-opacity="0.200000" points="261.83,-1237.13 267.48,-1234.23 261.25,-1232.97 261.83,-1237.13"/>
</g>
<!-- src/js/overlay/Overlay.js -->
<g id="node17" class="node">
<title>src/js/overlay/Overlay.js</title>
<g id="a_node17"><a xlink:href="src/js/overlay/Overlay.js" xlink:title="Overlay.js">
<path fill="#ffffcc" stroke="black" d="M130.83,-849.25C130.83,-849.25 87.42,-849.25 87.42,-849.25 84.33,-849.25 81.25,-846.17 81.25,-843.08 81.25,-843.08 81.25,-836.92 81.25,-836.92 81.25,-833.83 84.33,-830.75 87.42,-830.75 87.42,-830.75 130.83,-830.75 130.83,-830.75 133.92,-830.75 137,-833.83 137,-836.92 137,-836.92 137,-843.08 137,-843.08 137,-846.17 133.92,-849.25 130.83,-849.25"/>
<text text-anchor="start" x="89.25" y="-836.7" font-family="Helvetica,sans-Serif" font-size="9.00">Overlay.js</text>
</a>
</g>
</g>
<!-- src/js/overlay/capture/OverlayCapture.js -->
<g id="node18" class="node">
<title>src/js/overlay/capture/OverlayCapture.js</title>
<g id="a_node18"><a xlink:href="src/js/overlay/capture/OverlayCapture.js" xlink:title="OverlayCapture.js">
<path fill="#ffffcc" stroke="black" d="M344.83,-697.25C344.83,-697.25 267.67,-697.25 267.67,-697.25 264.58,-697.25 261.5,-694.17 261.5,-691.08 261.5,-691.08 261.5,-684.92 261.5,-684.92 261.5,-681.83 264.58,-678.75 267.67,-678.75 267.67,-678.75 344.83,-678.75 344.83,-678.75 347.92,-678.75 351,-681.83 351,-684.92 351,-684.92 351,-691.08 351,-691.08 351,-694.17 347.92,-697.25 344.83,-697.25"/>
<text text-anchor="start" x="269.5" y="-684.7" font-family="Helvetica,sans-Serif" font-size="9.00">OverlayCapture.js</text>
</a>
</g>
</g>
<!-- src/js/overlay/Overlay.js&#45;&gt;src/js/overlay/capture/OverlayCapture.js -->
<g id="edge11" class="edge">
<title>src/js/overlay/Overlay.js&#45;&gt;src/js/overlay/capture/OverlayCapture.js</title>
<path fill="none" stroke="#000000" stroke-width="2" stroke-opacity="0.200000" d="M114.86,-830.52C125.91,-809.35 155.4,-757.8 194.25,-729 211.72,-716.05 233.71,-706.8 253.51,-700.4"/>
<polygon fill="#000000" fill-opacity="0.200000" stroke="#000000" stroke-width="2" stroke-opacity="0.200000" points="254.12,-702.41 259.24,-698.64 252.88,-698.4 254.12,-702.41"/>
</g>
<!-- src/js/overlay/dispatcher/OverlayDispatcher.js -->
<g id="node19" class="node">
<title>src/js/overlay/dispatcher/OverlayDispatcher.js</title>
<g id="a_node19"><a xlink:href="src/js/overlay/dispatcher/OverlayDispatcher.js" xlink:title="OverlayDispatcher.js">
<path fill="#ffffcc" stroke="black" d="M632.71,-880.25C632.71,-880.25 545.04,-880.25 545.04,-880.25 541.96,-880.25 538.88,-877.17 538.88,-874.08 538.88,-874.08 538.88,-867.92 538.88,-867.92 538.88,-864.83 541.96,-861.75 545.04,-861.75 545.04,-861.75 632.71,-861.75 632.71,-861.75 635.79,-861.75 638.88,-864.83 638.88,-867.92 638.88,-867.92 638.88,-874.08 638.88,-874.08 638.88,-877.17 635.79,-880.25 632.71,-880.25"/>
<text text-anchor="start" x="546.88" y="-867.7" font-family="Helvetica,sans-Serif" font-size="9.00">OverlayDispatcher.js</text>
</a>
</g>
</g>
<!-- src/js/overlay/Overlay.js&#45;&gt;src/js/overlay/dispatcher/OverlayDispatcher.js -->
<g id="edge12" class="edge">
<title>src/js/overlay/Overlay.js&#45;&gt;src/js/overlay/dispatcher/OverlayDispatcher.js</title>
<path fill="none" stroke="#000000" stroke-width="2" stroke-opacity="0.200000" d="M111.3,-830.67C115.66,-800.55 133.9,-705.66 194.25,-668 231.95,-644.47 353.39,-650.51 394.25,-668 485.56,-707.09 554.28,-812.74 578.44,-854.08"/>
<polygon fill="#000000" fill-opacity="0.200000" stroke="#000000" stroke-width="2" stroke-opacity="0.200000" points="576.48,-854.89 581.29,-859.05 580.12,-852.8 576.48,-854.89"/>
</g>
<!-- src/js/overlay/format/OverlayFormat.js -->
<g id="node20" class="node">
<title>src/js/overlay/format/OverlayFormat.js</title>
<g id="a_node20"><a xlink:href="src/js/overlay/format/OverlayFormat.js" xlink:title="OverlayFormat.js">
<path fill="#ffffcc" stroke="black" d="M342.58,-758.25C342.58,-758.25 269.92,-758.25 269.92,-758.25 266.83,-758.25 263.75,-755.17 263.75,-752.08 263.75,-752.08 263.75,-745.92 263.75,-745.92 263.75,-742.83 266.83,-739.75 269.92,-739.75 269.92,-739.75 342.58,-739.75 342.58,-739.75 345.67,-739.75 348.75,-742.83 348.75,-745.92 348.75,-745.92 348.75,-752.08 348.75,-752.08 348.75,-755.17 345.67,-758.25 342.58,-758.25"/>
<text text-anchor="start" x="271.75" y="-745.7" font-family="Helvetica,sans-Serif" font-size="9.00">OverlayFormat.js</text>
</a>
</g>
</g>
<!-- src/js/overlay/Overlay.js&#45;&gt;src/js/overlay/format/OverlayFormat.js -->
<g id="edge13" class="edge">
<title>src/js/overlay/Overlay.js&#45;&gt;src/js/overlay/format/OverlayFormat.js</title>
<path fill="none" stroke="#000000" stroke-width="2" stroke-opacity="0.200000" d="M124.57,-830.31C140.98,-819.56 168.79,-802.14 194.25,-790 217.49,-778.91 244.59,-768.85 266.19,-761.47"/>
<polygon fill="#000000" fill-opacity="0.200000" stroke="#000000" stroke-width="2" stroke-opacity="0.200000" points="266.6,-763.55 271.61,-759.65 265.26,-759.57 266.6,-763.55"/>
</g>
<!-- src/js/overlay/media/OverlayMedia.js -->
<g id="node21" class="node">
<title>src/js/overlay/media/OverlayMedia.js</title>
<g id="a_node21"><a xlink:href="src/js/overlay/media/OverlayMedia.js" xlink:title="OverlayMedia.js">
<path fill="#ffffcc" stroke="black" d="M341.08,-819.25C341.08,-819.25 271.42,-819.25 271.42,-819.25 268.33,-819.25 265.25,-816.17 265.25,-813.08 265.25,-813.08 265.25,-806.92 265.25,-806.92 265.25,-803.83 268.33,-800.75 271.42,-800.75 271.42,-800.75 341.08,-800.75 341.08,-800.75 344.17,-800.75 347.25,-803.83 347.25,-806.92 347.25,-806.92 347.25,-813.08 347.25,-813.08 347.25,-816.17 344.17,-819.25 341.08,-819.25"/>
<text text-anchor="start" x="273.25" y="-806.7" font-family="Helvetica,sans-Serif" font-size="9.00">OverlayMedia.js</text>
</a>
</g>
</g>
<!-- src/js/overlay/Overlay.js&#45;&gt;src/js/overlay/media/OverlayMedia.js -->
<g id="edge14" class="edge">
<title>src/js/overlay/Overlay.js&#45;&gt;src/js/overlay/media/OverlayMedia.js</title>
<path fill="none" stroke="#000000" stroke-width="2" stroke-opacity="0.200000" d="M137.26,-835.83C167.89,-831.12 218.36,-823.36 256,-817.57"/>
<polygon fill="#000000" fill-opacity="0.200000" stroke="#000000" stroke-width="2" stroke-opacity="0.200000" points="256.19,-819.67 261.8,-816.68 255.55,-815.52 256.19,-819.67"/>
</g>
<!-- src/js/overlay/overlay/OverlayOverlay.js -->
<g id="node22" class="node">
<title>src/js/overlay/overlay/OverlayOverlay.js</title>
<g id="a_node22"><a xlink:href="src/js/overlay/overlay/OverlayOverlay.js" xlink:title="OverlayOverlay.js">
<path fill="#ffffcc" stroke="black" d="M343.71,-880.25C343.71,-880.25 268.79,-880.25 268.79,-880.25 265.71,-880.25 262.62,-877.17 262.62,-874.08 262.62,-874.08 262.62,-867.92 262.62,-867.92 262.62,-864.83 265.71,-861.75 268.79,-861.75 268.79,-861.75 343.71,-861.75 343.71,-861.75 346.79,-861.75 349.88,-864.83 349.88,-867.92 349.88,-867.92 349.88,-874.08 349.88,-874.08 349.88,-877.17 346.79,-880.25 343.71,-880.25"/>
<text text-anchor="start" x="270.62" y="-867.7" font-family="Helvetica,sans-Serif" font-size="9.00">OverlayOverlay.js</text>
</a>
</g>
</g>
<!-- src/js/overlay/Overlay.js&#45;&gt;src/js/overlay/overlay/OverlayOverlay.js -->
<g id="edge15" class="edge">
<title>src/js/overlay/Overlay.js&#45;&gt;src/js/overlay/overlay/OverlayOverlay.js</title>
<path fill="none" stroke="#000000" stroke-width="2" stroke-opacity="0.200000" d="M137.26,-844.31C167.21,-849.07 216.14,-856.84 253.48,-862.78"/>
<polygon fill="#000000" fill-opacity="0.200000" stroke="#000000" stroke-width="2" stroke-opacity="0.200000" points="252.98,-864.82 259.24,-863.69 253.64,-860.67 252.98,-864.82"/>
</g>
<!-- src/js/overlay/pathtracer/OverlayPathTracer.js -->
<g id="node23" class="node">
<title>src/js/overlay/pathtracer/OverlayPathTracer.js</title>
<g id="a_node23"><a xlink:href="src/js/overlay/pathtracer/OverlayPathTracer.js" xlink:title="OverlayPathTracer.js">
<path fill="#ffffcc" stroke="black" d="M350.46,-941.25C350.46,-941.25 262.04,-941.25 262.04,-941.25 258.96,-941.25 255.88,-938.17 255.88,-935.08 255.88,-935.08 255.88,-928.92 255.88,-928.92 255.88,-925.83 258.96,-922.75 262.04,-922.75 262.04,-922.75 350.46,-922.75 350.46,-922.75 353.54,-922.75 356.62,-925.83 356.62,-928.92 356.62,-928.92 356.62,-935.08 356.62,-935.08 356.62,-938.17 353.54,-941.25 350.46,-941.25"/>
<text text-anchor="start" x="263.88" y="-928.7" font-family="Helvetica,sans-Serif" font-size="9.00">OverlayPathTracer.js</text>
</a>
</g>
</g>
<!-- src/js/overlay/Overlay.js&#45;&gt;src/js/overlay/pathtracer/OverlayPathTracer.js -->
<g id="edge16" class="edge">
<title>src/js/overlay/Overlay.js&#45;&gt;src/js/overlay/pathtracer/OverlayPathTracer.js</title>
<path fill="none" stroke="#000000" stroke-width="2" stroke-opacity="0.200000" d="M118.4,-849.43C132.4,-864.73 162.35,-894.79 194.25,-910 210.56,-917.77 229.47,-922.8 247.01,-926.05"/>
<polygon fill="#000000" fill-opacity="0.200000" stroke="#000000" stroke-width="2" stroke-opacity="0.200000" points="246.25,-928.05 252.52,-927 246.96,-923.91 246.25,-928.05"/>
</g>
<!-- src/js/overlay/rhythm/OverlayRhythm.js -->
<g id="node24" class="node">
<title>src/js/overlay/rhythm/OverlayRhythm.js</title>
<g id="a_node24"><a xlink:href="src/js/overlay/rhythm/OverlayRhythm.js" xlink:title="OverlayRhythm.js">
<path fill="#ffffcc" stroke="black" d="M344.08,-1002.25C344.08,-1002.25 268.42,-1002.25 268.42,-1002.25 265.33,-1002.25 262.25,-999.17 262.25,-996.08 262.25,-996.08 262.25,-989.92 262.25,-989.92 262.25,-986.83 265.33,-983.75 268.42,-983.75 268.42,-983.75 344.08,-983.75 344.08,-983.75 347.17,-983.75 350.25,-986.83 350.25,-989.92 350.25,-989.92 350.25,-996.08 350.25,-996.08 350.25,-999.17 347.17,-1002.25 344.08,-1002.25"/>
<text text-anchor="start" x="270.25" y="-989.7" font-family="Helvetica,sans-Serif" font-size="9.00">OverlayRhythm.js</text>
</a>
</g>
</g>
<!-- src/js/overlay/Overlay.js&#45;&gt;src/js/overlay/rhythm/OverlayRhythm.js -->
<g id="edge17" class="edge">
<title>src/js/overlay/Overlay.js&#45;&gt;src/js/overlay/rhythm/OverlayRhythm.js</title>
<path fill="none" stroke="#000000" stroke-width="2" stroke-opacity="0.200000" d="M113.23,-849.45C121.8,-873.93 148.23,-939.66 194.25,-971 211.36,-982.65 233.19,-988.44 252.95,-991.21"/>
<polygon fill="#000000" fill-opacity="0.200000" stroke="#000000" stroke-width="2" stroke-opacity="0.200000" points="252.65,-993.29 258.86,-991.93 253.15,-989.12 252.65,-993.29"/>
</g>
<!-- src/js/overlay/teleprompt/OverlayTeleprompt.js -->
<g id="node25" class="node">
<title>src/js/overlay/teleprompt/OverlayTeleprompt.js</title>
<g id="a_node25"><a xlink:href="src/js/overlay/teleprompt/OverlayTeleprompt.js" xlink:title="OverlayTeleprompt.js">
<path fill="#ffffcc" stroke="black" d="M351.21,-1063.25C351.21,-1063.25 261.29,-1063.25 261.29,-1063.25 258.21,-1063.25 255.12,-1060.17 255.12,-1057.08 255.12,-1057.08 255.12,-1050.92 255.12,-1050.92 255.12,-1047.83 258.21,-1044.75 261.29,-1044.75 261.29,-1044.75 351.21,-1044.75 351.21,-1044.75 354.29,-1044.75 357.38,-1047.83 357.38,-1050.92 357.38,-1050.92 357.38,-1057.08 357.38,-1057.08 357.38,-1060.17 354.29,-1063.25 351.21,-1063.25"/>
<text text-anchor="start" x="263.12" y="-1050.7" font-family="Helvetica,sans-Serif" font-size="9.00">OverlayTeleprompt.js</text>
</a>
</g>
</g>
<!-- src/js/overlay/Overlay.js&#45;&gt;src/js/overlay/teleprompt/OverlayTeleprompt.js -->
<g id="edge18" class="edge">
<title>src/js/overlay/Overlay.js&#45;&gt;src/js/overlay/teleprompt/OverlayTeleprompt.js</title>
<path fill="none" stroke="#000000" stroke-width="2" stroke-opacity="0.200000" d="M111.21,-849.43C115.37,-880.88 133.25,-983 194.25,-1032 208.79,-1043.68 227.82,-1049.73 246.01,-1052.71"/>
<polygon fill="#000000" fill-opacity="0.200000" stroke="#000000" stroke-width="2" stroke-opacity="0.200000" points="245.61,-1054.77 251.84,-1053.52 246.19,-1050.61 245.61,-1054.77"/>
</g>
<!-- src/js/overlay/OverlayUtil.js -->
<g id="node26" class="node">
<title>src/js/overlay/OverlayUtil.js</title>
<g id="a_node26"><a xlink:href="src/js/overlay/OverlayUtil.js" xlink:title="OverlayUtil.js">
<path fill="#ffffcc" stroke="black" d="M486.46,-880.25C486.46,-880.25 428.79,-880.25 428.79,-880.25 425.71,-880.25 422.62,-877.17 422.62,-874.08 422.62,-874.08 422.62,-867.92 422.62,-867.92 422.62,-864.83 425.71,-861.75 428.79,-861.75 428.79,-861.75 486.46,-861.75 486.46,-861.75 489.54,-861.75 492.62,-864.83 492.62,-867.92 492.62,-867.92 492.62,-874.08 492.62,-874.08 492.62,-877.17 489.54,-880.25 486.46,-880.25"/>
<text text-anchor="start" x="430.62" y="-867.7" font-family="Helvetica,sans-Serif" font-size="9.00">OverlayUtil.js</text>
</a>
</g>
</g>
<!-- src/js/overlay/capture/OverlayCapture.js&#45;&gt;src/js/overlay/OverlayUtil.js -->
<g id="edge20" class="edge">
<title>src/js/overlay/capture/OverlayCapture.js&#45;&gt;src/js/overlay/OverlayUtil.js</title>
<path fill="none" stroke="#000000" stroke-width="2" stroke-opacity="0.200000" d="M341.27,-697.63C358.94,-704.08 379.8,-714.17 394.25,-729 429.17,-764.86 446.26,-823.51 453.01,-852.95"/>
<polygon fill="#000000" fill-opacity="0.200000" stroke="#000000" stroke-width="2" stroke-opacity="0.200000" points="450.88,-853.04 454.2,-858.45 454.98,-852.15 450.88,-853.04"/>
</g>
<!-- src/js/overlay/dispatcher/OverlayDispatcherEvent.js -->
<g id="node27" class="node">
<title>src/js/overlay/dispatcher/OverlayDispatcherEvent.js</title>
<g id="a_node27"><a xlink:href="src/js/overlay/dispatcher/OverlayDispatcherEvent.js" xlink:title="OverlayDispatcherEvent.js">
<path fill="#ffffcc" stroke="black" d="M769.71,-880.25C769.71,-880.25 658.04,-880.25 658.04,-880.25 654.96,-880.25 651.88,-877.17 651.88,-874.08 651.88,-874.08 651.88,-867.92 651.88,-867.92 651.88,-864.83 654.96,-861.75 658.04,-861.75 658.04,-861.75 769.71,-861.75 769.71,-861.75 772.79,-861.75 775.88,-864.83 775.88,-867.92 775.88,-867.92 775.88,-874.08 775.88,-874.08 775.88,-877.17 772.79,-880.25 769.71,-880.25"/>
<text text-anchor="start" x="659.88" y="-867.7" font-family="Helvetica,sans-Serif" font-size="9.00">OverlayDispatcherEvent.js</text>
</a>
</g>
</g>
<!-- src/js/overlay/dispatcher/OverlayDispatcher.js&#45;&gt;src/js/overlay/dispatcher/OverlayDispatcherEvent.js -->
<g id="edge21" class="edge">
<title>src/js/overlay/dispatcher/OverlayDispatcher.js&#45;&gt;src/js/overlay/dispatcher/OverlayDispatcherEvent.js</title>
<path fill="none" stroke="#000000" stroke-width="2" stroke-opacity="0.200000" d="M639.2,-871C640.49,-871 641.79,-871 643.1,-871"/>
<polygon fill="#000000" fill-opacity="0.200000" stroke="#000000" stroke-width="2" stroke-opacity="0.200000" points="642.75,-873.1 648.75,-871 642.75,-868.9 642.75,-873.1"/>
</g>
<!-- src/js/overlay/format/OverlayFormat.js&#45;&gt;src/js/overlay/OverlayUtil.js -->
<g id="edge22" class="edge">
<title>src/js/overlay/format/OverlayFormat.js&#45;&gt;src/js/overlay/OverlayUtil.js</title>
<path fill="none" stroke="#000000" stroke-width="2" stroke-opacity="0.200000" d="M336.22,-758.66C354.14,-765.56 376.95,-776.08 394.25,-790 416.8,-808.14 435.92,-836.03 446.84,-853.89"/>
<polygon fill="#000000" fill-opacity="0.200000" stroke="#000000" stroke-width="2" stroke-opacity="0.200000" points="444.84,-854.63 449.72,-858.72 448.45,-852.49 444.84,-854.63"/>
</g>
<!-- src/js/overlay/media/OverlayMedia.js&#45;&gt;src/js/overlay/OverlayUtil.js -->
<g id="edge23" class="edge">
<title>src/js/overlay/media/OverlayMedia.js&#45;&gt;src/js/overlay/OverlayUtil.js</title>
<path fill="none" stroke="#000000" stroke-width="2" stroke-opacity="0.200000" d="M330.92,-819.67C356.27,-830.02 396.63,-846.5 424.76,-857.99"/>
<polygon fill="#000000" fill-opacity="0.200000" stroke="#000000" stroke-width="2" stroke-opacity="0.200000" points="423.92,-859.91 430.26,-860.24 425.5,-856.02 423.92,-859.91"/>
</g>
<!-- src/js/overlay/pathtracer/OverlayPathTracer.js&#45;&gt;src/js/overlay/OverlayUtil.js -->
<g id="edge24" class="edge">
<title>src/js/overlay/pathtracer/OverlayPathTracer.js&#45;&gt;src/js/overlay/OverlayUtil.js</title>
<path fill="none" stroke="#000000" stroke-width="2" stroke-opacity="0.200000" d="M356.9,-922.27C369.35,-919.07 382.5,-915.01 394.25,-910 409.28,-903.59 424.87,-893.84 436.71,-885.69"/>
<polygon fill="#000000" fill-opacity="0.200000" stroke="#000000" stroke-width="2" stroke-opacity="0.200000" points="437.73,-887.54 441.42,-882.37 435.31,-884.11 437.73,-887.54"/>
</g>
<!-- src/js/overlay/rhythm/OverlayRhythm.js&#45;&gt;src/js/overlay/OverlayUtil.js -->
<g id="edge25" class="edge">
<title>src/js/overlay/rhythm/OverlayRhythm.js&#45;&gt;src/js/overlay/OverlayUtil.js</title>
<path fill="none" stroke="#000000" stroke-width="2" stroke-opacity="0.200000" d="M350.33,-988.77C365.32,-985.66 381.54,-980.28 394.25,-971 422.87,-950.12 441.31,-911.74 450.25,-889.08"/>
<polygon fill="#000000" fill-opacity="0.200000" stroke="#000000" stroke-width="2" stroke-opacity="0.200000" points="452.19,-889.89 452.34,-883.53 448.26,-888.41 452.19,-889.89"/>
</g>
<!-- src/js/overlay/teleprompt/OverlayTeleprompt.js&#45;&gt;src/js/overlay/OverlayUtil.js -->
<g id="edge26" class="edge">
<title>src/js/overlay/teleprompt/OverlayTeleprompt.js&#45;&gt;src/js/overlay/OverlayUtil.js</title>
<path fill="none" stroke="#000000" stroke-width="2" stroke-opacity="0.200000" d="M357.66,-1049.64C370.8,-1046.4 384.1,-1040.98 394.25,-1032 437.16,-994.03 450.76,-923.01 454.9,-889.46"/>
<polygon fill="#000000" fill-opacity="0.200000" stroke="#000000" stroke-width="2" stroke-opacity="0.200000" points="456.97,-889.89 455.54,-883.69 452.8,-889.43 456.97,-889.89"/>
</g>
<!-- src/js/overlay/OverlayUtil.js&#45;&gt;src/js/overlay/dispatcher/OverlayDispatcher.js -->
<g id="edge19" class="edge">
<title>src/js/overlay/OverlayUtil.js&#45;&gt;src/js/overlay/dispatcher/OverlayDispatcher.js</title>
<path fill="none" stroke="#000000" stroke-width="2" stroke-opacity="0.200000" d="M492.92,-871C504.35,-871 517.4,-871 530.11,-871"/>
<polygon fill="#000000" fill-opacity="0.200000" stroke="#000000" stroke-width="2" stroke-opacity="0.200000" points="529.79,-873.1 535.79,-871 529.79,-868.9 529.79,-873.1"/>
</g>
<!-- src/js/renderer/RendererResizer.js -->
<g id="node28" class="node">
<title>src/js/renderer/RendererResizer.js</title>
<g id="a_node28"><a xlink:href="src/js/renderer/RendererResizer.js" xlink:title="RendererResizer.js">
<path fill="#ffffcc" stroke="black" d="M498.83,-1151.25C498.83,-1151.25 416.42,-1151.25 416.42,-1151.25 413.33,-1151.25 410.25,-1148.17 410.25,-1145.08 410.25,-1145.08 410.25,-1138.92 410.25,-1138.92 410.25,-1135.83 413.33,-1132.75 416.42,-1132.75 416.42,-1132.75 498.83,-1132.75 498.83,-1132.75 501.92,-1132.75 505,-1135.83 505,-1138.92 505,-1138.92 505,-1145.08 505,-1145.08 505,-1148.17 501.92,-1151.25 498.83,-1151.25"/>
<text text-anchor="start" x="418.25" y="-1138.7" font-family="Helvetica,sans-Serif" font-size="9.00">RendererResizer.js</text>
</a>
</g>
</g>
<!-- src/js/renderer/RendererResizer.js&#45;&gt;src/js/overlay/dispatcher/OverlayDispatcher.js -->
<g id="edge27" class="edge">
<title>src/js/renderer/RendererResizer.js&#45;&gt;src/js/overlay/dispatcher/OverlayDispatcher.js</title>
<path fill="none" stroke="#000000" stroke-width="2" stroke-opacity="0.200000" d="M505.15,-1132.33C511.77,-1129.28 517.98,-1125.27 522.88,-1120 584.88,-1053.19 589.34,-934.71 588.59,-889.36"/>
<polygon fill="#000000" fill-opacity="0.200000" stroke="#000000" stroke-width="2" stroke-opacity="0.200000" points="590.7,-889.58 588.44,-883.63 586.5,-889.69 590.7,-889.58"/>
</g>
<!-- src/js/rhythm/ViewRhythm.js -->
<g id="node29" class="node">
<title>src/js/rhythm/ViewRhythm.js</title>
<g id="a_node29"><a xlink:href="src/js/rhythm/ViewRhythm.js" xlink:title="ViewRhythm.js">
<path fill="#ffffcc" stroke="black" d="M141.33,-1151.25C141.33,-1151.25 76.92,-1151.25 76.92,-1151.25 73.83,-1151.25 70.75,-1148.17 70.75,-1145.08 70.75,-1145.08 70.75,-1138.92 70.75,-1138.92 70.75,-1135.83 73.83,-1132.75 76.92,-1132.75 76.92,-1132.75 141.33,-1132.75 141.33,-1132.75 144.42,-1132.75 147.5,-1135.83 147.5,-1138.92 147.5,-1138.92 147.5,-1145.08 147.5,-1145.08 147.5,-1148.17 144.42,-1151.25 141.33,-1151.25"/>
<text text-anchor="start" x="78.75" y="-1138.7" font-family="Helvetica,sans-Serif" font-size="9.00">ViewRhythm.js</text>
</a>
</g>
</g>
<!-- src/js/rhythm/ViewRhythmTrack.js -->
<g id="node30" class="node">
<title>src/js/rhythm/ViewRhythmTrack.js</title>
<g id="a_node30"><a xlink:href="src/js/rhythm/ViewRhythmTrack.js" xlink:title="ViewRhythmTrack.js">
<path fill="#ffffcc" stroke="black" d="M349.71,-1151.25C349.71,-1151.25 262.79,-1151.25 262.79,-1151.25 259.71,-1151.25 256.62,-1148.17 256.62,-1145.08 256.62,-1145.08 256.62,-1138.92 256.62,-1138.92 256.62,-1135.83 259.71,-1132.75 262.79,-1132.75 262.79,-1132.75 349.71,-1132.75 349.71,-1132.75 352.79,-1132.75 355.88,-1135.83 355.88,-1138.92 355.88,-1138.92 355.88,-1145.08 355.88,-1145.08 355.88,-1148.17 352.79,-1151.25 349.71,-1151.25"/>
<text text-anchor="start" x="264.62" y="-1138.7" font-family="Helvetica,sans-Serif" font-size="9.00">ViewRhythmTrack.js</text>
</a>
</g>
</g>
<!-- src/js/rhythm/ViewRhythm.js&#45;&gt;src/js/rhythm/ViewRhythmTrack.js -->
<g id="edge28" class="edge">
<title>src/js/rhythm/ViewRhythm.js&#45;&gt;src/js/rhythm/ViewRhythmTrack.js</title>
<path fill="none" stroke="#000000" stroke-width="2" stroke-opacity="0.200000" d="M147.75,-1142C175.99,-1142 215.17,-1142 247.39,-1142"/>
<polygon fill="#000000" fill-opacity="0.200000" stroke="#000000" stroke-width="2" stroke-opacity="0.200000" points="247.25,-1144.1 253.25,-1142 247.25,-1139.9 247.25,-1144.1"/>
</g>
<!-- src/js/view/View.js -->
<g id="node31" class="node">
<title>src/js/view/View.js</title>
<g id="a_node31"><a xlink:href="src/js/view/View.js" xlink:title="View.js">
<path fill="#ccffcc" stroke="black" d="M129.96,-1212.25C129.96,-1212.25 88.29,-1212.25 88.29,-1212.25 85.21,-1212.25 82.12,-1209.17 82.12,-1206.08 82.12,-1206.08 82.12,-1199.92 82.12,-1199.92 82.12,-1196.83 85.21,-1193.75 88.29,-1193.75 88.29,-1193.75 129.96,-1193.75 129.96,-1193.75 133.04,-1193.75 136.12,-1196.83 136.12,-1199.92 136.12,-1199.92 136.12,-1206.08 136.12,-1206.08 136.12,-1209.17 133.04,-1212.25 129.96,-1212.25"/>
<text text-anchor="start" x="94.88" y="-1199.7" font-family="Helvetica,sans-Serif" font-size="9.00">View.js</text>
</a>
</g>
</g>
</g>
</svg>
