<?xml version="1.0" encoding="UTF-8" standalone="no"?>
<!DOCTYPE svg PUBLIC "-//W3C//DTD SVG 1.1//EN"
 "http://www.w3.org/Graphics/SVG/1.1/DTD/svg11.dtd">
<!-- Generated by graphviz version 12.2.1 (20241206.2353)
 -->
<!-- Title: dependency&#45;cruiser output Pages: 1 -->
<svg width="927pt" height="1100pt"
 viewBox="0.00 0.00 927.38 1100.00" xmlns="http://www.w3.org/2000/svg" xmlns:xlink="http://www.w3.org/1999/xlink">
<g id="graph0" class="graph" transform="scale(1 1) rotate(0) translate(4 1096)">
<title>dependency&#45;cruiser output</title>
<polygon fill="white" stroke="none" points="-4,4 -4,-1096 923.38,-1096 923.38,4 -4,4"/>
<g id="clust1" class="cluster">
<title>cluster_src</title>
<path fill="#ffffff" stroke="black" stroke-width="2" d="M20,-8C20,-8 899.38,-8 899.38,-8 905.38,-8 911.38,-14 911.38,-20 911.38,-20 911.38,-1072 911.38,-1072 911.38,-1078 905.38,-1084 899.38,-1084 899.38,-1084 20,-1084 20,-1084 14,-1084 8,-1078 8,-1072 8,-1072 8,-20 8,-20 8,-14 14,-8 20,-8"/>
<text text-anchor="middle" x="459.69" y="-1071.45" font-family="Helvetica,sans-Serif" font-weight="bold" font-size="9.00">src</text>
</g>
<g id="clust2" class="cluster">
<title>cluster_src/js</title>
<path fill="#ffffff" stroke="black" stroke-width="2" d="M28,-16C28,-16 891.38,-16 891.38,-16 897.38,-16 903.38,-22 903.38,-28 903.38,-28 903.38,-1045 903.38,-1045 903.38,-1051 897.38,-1057 891.38,-1057 891.38,-1057 28,-1057 28,-1057 22,-1057 16,-1051 16,-1045 16,-1045 16,-28 16,-28 16,-22 22,-16 28,-16"/>
<text text-anchor="middle" x="459.69" y="-1044.45" font-family="Helvetica,sans-Serif" font-weight="bold" font-size="9.00">js</text>
</g>
<g id="clust3" class="cluster">
<title>cluster_src/js/application</title>
<path fill="#ffffff" stroke="black" stroke-width="2" d="M634.75,-320C634.75,-320 883.38,-320 883.38,-320 889.38,-320 895.38,-326 895.38,-332 895.38,-332 895.38,-423 895.38,-423 895.38,-429 889.38,-435 883.38,-435 883.38,-435 634.75,-435 634.75,-435 628.75,-435 622.75,-429 622.75,-423 622.75,-423 622.75,-332 622.75,-332 622.75,-326 628.75,-320 634.75,-320"/>
<text text-anchor="middle" x="759.06" y="-422.45" font-family="Helvetica,sans-Serif" font-weight="bold" font-size="9.00">application</text>
</g>
<g id="clust4" class="cluster">
<title>cluster_src/js/controller</title>
<path fill="#ffffff" stroke="black" stroke-width="2" d="M45.75,-135C45.75,-135 102.5,-135 102.5,-135 108.5,-135 114.5,-141 114.5,-147 114.5,-147 114.5,-176 114.5,-176 114.5,-182 108.5,-188 102.5,-188 102.5,-188 45.75,-188 45.75,-188 39.75,-188 33.75,-182 33.75,-176 33.75,-176 33.75,-147 33.75,-147 33.75,-141 39.75,-135 45.75,-135"/>
<text text-anchor="middle" x="74.12" y="-175.45" font-family="Helvetica,sans-Serif" font-weight="bold" font-size="9.00">controller</text>
</g>
<g id="clust5" class="cluster">
<title>cluster_src/js/data</title>
<path fill="#ffffff" stroke="black" stroke-width="2" d="M36,-723C36,-723 202.38,-723 202.38,-723 208.38,-723 214.38,-729 214.38,-735 214.38,-735 214.38,-764 214.38,-764 214.38,-770 208.38,-776 202.38,-776 202.38,-776 36,-776 36,-776 30,-776 24,-770 24,-764 24,-764 24,-735 24,-735 24,-729 30,-723 36,-723"/>
<text text-anchor="middle" x="119.19" y="-763.45" font-family="Helvetica,sans-Serif" font-weight="bold" font-size="9.00">data</text>
</g>
<g id="clust6" class="cluster">
<title>cluster_src/js/directable</title>
<path fill="#ffffff" stroke="black" stroke-width="2" d="M426.75,-627C426.75,-627 853.75,-627 853.75,-627 859.75,-627 865.75,-633 865.75,-639 865.75,-639 865.75,-1018 865.75,-1018 865.75,-1024 859.75,-1030 853.75,-1030 853.75,-1030 426.75,-1030 426.75,-1030 420.75,-1030 414.75,-1024 414.75,-1018 414.75,-1018 414.75,-639 414.75,-639 414.75,-633 420.75,-627 426.75,-627"/>
<text text-anchor="middle" x="640.25" y="-1017.45" font-family="Helvetica,sans-Serif" font-weight="bold" font-size="9.00">directable</text>
</g>
<g id="clust7" class="cluster">
<title>cluster_src/js/directable/directables</title>
<path fill="#ffffff" stroke="black" stroke-width="2" d="M434.75,-635C434.75,-635 741.12,-635 741.12,-635 747.12,-635 753.12,-641 753.12,-647 753.12,-647 753.12,-991 753.12,-991 753.12,-997 747.12,-1003 741.12,-1003 741.12,-1003 434.75,-1003 434.75,-1003 428.75,-1003 422.75,-997 422.75,-991 422.75,-991 422.75,-647 422.75,-647 422.75,-641 428.75,-635 434.75,-635"/>
<text text-anchor="middle" x="587.94" y="-990.45" font-family="Helvetica,sans-Serif" font-weight="bold" font-size="9.00">directables</text>
</g>
<g id="clust8" class="cluster">
<title>cluster_src/js/directable/directables/frame</title>
<path fill="#ffffff" stroke="black" stroke-width="2" d="M484.12,-862C484.12,-862 569.38,-862 569.38,-862 575.38,-862 581.38,-868 581.38,-874 581.38,-874 581.38,-903 581.38,-903 581.38,-909 575.38,-915 569.38,-915 569.38,-915 484.12,-915 484.12,-915 478.12,-915 472.12,-909 472.12,-903 472.12,-903 472.12,-874 472.12,-874 472.12,-868 478.12,-862 484.12,-862"/>
<text text-anchor="middle" x="526.75" y="-902.45" font-family="Helvetica,sans-Serif" font-weight="bold" font-size="9.00">frame</text>
</g>
<g id="clust9" class="cluster">
<title>cluster_src/js/directable/directables/rhythm</title>
<path fill="#ffffff" stroke="black" stroke-width="2" d="M442.75,-643C442.75,-643 733.12,-643 733.12,-643 739.12,-643 745.12,-649 745.12,-655 745.12,-655 745.12,-842 745.12,-842 745.12,-848 739.12,-854 733.12,-854 733.12,-854 442.75,-854 442.75,-854 436.75,-854 430.75,-848 430.75,-842 430.75,-842 430.75,-655 430.75,-655 430.75,-649 436.75,-643 442.75,-643"/>
<text text-anchor="middle" x="587.94" y="-841.45" font-family="Helvetica,sans-Serif" font-weight="bold" font-size="9.00">rhythm</text>
</g>
<g id="clust10" class="cluster">
<title>cluster_src/js/directable/directables/rhythm/asdr</title>
<path fill="#ffffff" stroke="black" stroke-width="2" d="M450.75,-651C450.75,-651 602.75,-651 602.75,-651 608.75,-651 614.75,-657 614.75,-663 614.75,-663 614.75,-754 614.75,-754 614.75,-760 608.75,-766 602.75,-766 602.75,-766 450.75,-766 450.75,-766 444.75,-766 438.75,-760 438.75,-754 438.75,-754 438.75,-663 438.75,-663 438.75,-657 444.75,-651 450.75,-651"/>
<text text-anchor="middle" x="526.75" y="-753.45" font-family="Helvetica,sans-Serif" font-weight="bold" font-size="9.00">asdr</text>
</g>
<g id="clust11" class="cluster">
<title>cluster_src/js/directable/directables/rhythm/bpm</title>
<path fill="#ffffff" stroke="black" stroke-width="2" d="M471.75,-774C471.75,-774 581.75,-774 581.75,-774 587.75,-774 593.75,-780 593.75,-786 593.75,-786 593.75,-815 593.75,-815 593.75,-821 587.75,-827 581.75,-827 581.75,-827 471.75,-827 471.75,-827 465.75,-827 459.75,-821 459.75,-815 459.75,-815 459.75,-786 459.75,-786 459.75,-780 465.75,-774 471.75,-774"/>
<text text-anchor="middle" x="526.75" y="-814.45" font-family="Helvetica,sans-Serif" font-weight="bold" font-size="9.00">bpm</text>
</g>
<g id="clust12" class="cluster">
<title>cluster_src/js/directable/directables/title</title>
<path fill="#ffffff" stroke="black" stroke-width="2" d="M488.62,-923C488.62,-923 564.88,-923 564.88,-923 570.88,-923 576.88,-929 576.88,-935 576.88,-935 576.88,-964 576.88,-964 576.88,-970 570.88,-976 564.88,-976 564.88,-976 488.62,-976 488.62,-976 482.62,-976 476.62,-970 476.62,-964 476.62,-964 476.62,-935 476.62,-935 476.62,-929 482.62,-923 488.62,-923"/>
<text text-anchor="middle" x="526.75" y="-963.45" font-family="Helvetica,sans-Serif" font-weight="bold" font-size="9.00">title</text>
</g>
<g id="clust13" class="cluster">
<title>cluster_src/js/director</title>
<path fill="#ffffff" stroke="black" stroke-width="2" d="M256.5,-531C256.5,-531 551,-531 551,-531 557,-531 563,-537 563,-543 563,-543 563,-607 563,-607 563,-613 557,-619 551,-619 551,-619 256.5,-619 256.5,-619 250.5,-619 244.5,-613 244.5,-607 244.5,-607 244.5,-543 244.5,-543 244.5,-537 250.5,-531 256.5,-531"/>
<text text-anchor="middle" x="403.75" y="-606.45" font-family="Helvetica,sans-Serif" font-weight="bold" font-size="9.00">director</text>
</g>
<g id="clust14" class="cluster">
<title>cluster_src/js/director/directors</title>
<path fill="#ffffff" stroke="black" stroke-width="2" d="M264.5,-539C264.5,-539 394.75,-539 394.75,-539 400.75,-539 406.75,-545 406.75,-551 406.75,-551 406.75,-580 406.75,-580 406.75,-586 400.75,-592 394.75,-592 394.75,-592 264.5,-592 264.5,-592 258.5,-592 252.5,-586 252.5,-580 252.5,-580 252.5,-551 252.5,-551 252.5,-545 258.5,-539 264.5,-539"/>
<text text-anchor="middle" x="329.62" y="-579.45" font-family="Helvetica,sans-Serif" font-weight="bold" font-size="9.00">directors</text>
</g>
<g id="clust15" class="cluster">
<title>cluster_src/js/overlay</title>
<path fill="#ffffff" stroke="black" stroke-width="2" d="M155,-191C155,-191 557.75,-191 557.75,-191 563.75,-191 569.75,-197 569.75,-203 569.75,-203 569.75,-511 569.75,-511 569.75,-517 563.75,-523 557.75,-523 557.75,-523 155,-523 155,-523 149,-523 143,-517 143,-511 143,-511 143,-203 143,-203 143,-197 149,-191 155,-191"/>
<text text-anchor="middle" x="356.38" y="-510.45" font-family="Helvetica,sans-Serif" font-weight="bold" font-size="9.00">overlay</text>
</g>
<g id="clust16" class="cluster">
<title>cluster_src/js/overlay/capture</title>
<path fill="#ffffff" stroke="black" stroke-width="2" d="M288.88,-199C288.88,-199 370.38,-199 370.38,-199 376.38,-199 382.38,-205 382.38,-211 382.38,-211 382.38,-240 382.38,-240 382.38,-246 376.38,-252 370.38,-252 370.38,-252 288.88,-252 288.88,-252 282.88,-252 276.88,-246 276.88,-240 276.88,-240 276.88,-211 276.88,-211 276.88,-205 282.88,-199 288.88,-199"/>
<text text-anchor="middle" x="329.62" y="-239.45" font-family="Helvetica,sans-Serif" font-weight="bold" font-size="9.00">capture</text>
</g>
<g id="clust17" class="cluster">
<title>cluster_src/js/overlay/format</title>
<path fill="#ffffff" stroke="black" stroke-width="2" d="M291.12,-382C291.12,-382 368.12,-382 368.12,-382 374.12,-382 380.12,-388 380.12,-394 380.12,-394 380.12,-423 380.12,-423 380.12,-429 374.12,-435 368.12,-435 368.12,-435 291.12,-435 291.12,-435 285.12,-435 279.12,-429 279.12,-423 279.12,-423 279.12,-394 279.12,-394 279.12,-388 285.12,-382 291.12,-382"/>
<text text-anchor="middle" x="329.62" y="-422.45" font-family="Helvetica,sans-Serif" font-weight="bold" font-size="9.00">format</text>
</g>
<g id="clust18" class="cluster">
<title>cluster_src/js/overlay/media</title>
<path fill="#ffffff" stroke="black" stroke-width="2" d="M292.62,-260C292.62,-260 366.62,-260 366.62,-260 372.62,-260 378.62,-266 378.62,-272 378.62,-272 378.62,-301 378.62,-301 378.62,-307 372.62,-313 366.62,-313 366.62,-313 292.62,-313 292.62,-313 286.62,-313 280.62,-307 280.62,-301 280.62,-301 280.62,-272 280.62,-272 280.62,-266 286.62,-260 292.62,-260"/>
<text text-anchor="middle" x="329.62" y="-300.45" font-family="Helvetica,sans-Serif" font-weight="bold" font-size="9.00">media</text>
</g>
<g id="clust19" class="cluster">
<title>cluster_src/js/overlay/overlay</title>
<path fill="#ffffff" stroke="black" stroke-width="2" d="M290,-443C290,-443 369.25,-443 369.25,-443 375.25,-443 381.25,-449 381.25,-455 381.25,-455 381.25,-484 381.25,-484 381.25,-490 375.25,-496 369.25,-496 369.25,-496 290,-496 290,-496 284,-496 278,-490 278,-484 278,-484 278,-455 278,-455 278,-449 284,-443 290,-443"/>
<text text-anchor="middle" x="329.62" y="-483.45" font-family="Helvetica,sans-Serif" font-weight="bold" font-size="9.00">overlay</text>
</g>
<g id="clust20" class="cluster">
<title>cluster_src/js/overlay/rhythm</title>
<path fill="#ffffff" stroke="black" stroke-width="2" d="M289.62,-321C289.62,-321 369.62,-321 369.62,-321 375.62,-321 381.62,-327 381.62,-333 381.62,-333 381.62,-362 381.62,-362 381.62,-368 375.62,-374 369.62,-374 369.62,-374 289.62,-374 289.62,-374 283.62,-374 277.62,-368 277.62,-362 277.62,-362 277.62,-333 277.62,-333 277.62,-327 283.62,-321 289.62,-321"/>
<text text-anchor="middle" x="329.62" y="-361.45" font-family="Helvetica,sans-Serif" font-weight="bold" font-size="9.00">rhythm</text>
</g>
<g id="clust21" class="cluster">
<title>cluster_src/js/rhythm</title>
<path fill="#ffffff" stroke="black" stroke-width="2" d="M39.75,-880C39.75,-880 224.5,-880 224.5,-880 230.5,-880 236.5,-886 236.5,-892 236.5,-892 236.5,-921 236.5,-921 236.5,-927 230.5,-933 224.5,-933 224.5,-933 39.75,-933 39.75,-933 33.75,-933 27.75,-927 27.75,-921 27.75,-921 27.75,-892 27.75,-892 27.75,-886 33.75,-880 39.75,-880"/>
<text text-anchor="middle" x="132.12" y="-920.45" font-family="Helvetica,sans-Serif" font-weight="bold" font-size="9.00">rhythm</text>
</g>
<g id="clust22" class="cluster">
<title>cluster_src/js/view</title>
<path fill="#ffffff" stroke="black" stroke-width="2" d="M155.88,-24C155.88,-24 574.38,-24 574.38,-24 580.38,-24 586.38,-30 586.38,-36 586.38,-36 586.38,-131 586.38,-131 586.38,-137 580.38,-143 574.38,-143 574.38,-143 155.88,-143 155.88,-143 149.88,-143 143.88,-137 143.88,-131 143.88,-131 143.88,-36 143.88,-36 143.88,-30 149.88,-24 155.88,-24"/>
<text text-anchor="middle" x="365.12" y="-130.45" font-family="Helvetica,sans-Serif" font-weight="bold" font-size="9.00">view</text>
</g>
<g id="clust23" class="cluster">
<title>cluster_src/js/view/render</title>
<path fill="#ffffff" stroke="black" stroke-width="2" d="M285.88,-32C285.88,-32 566.38,-32 566.38,-32 572.38,-32 578.38,-38 578.38,-44 578.38,-44 578.38,-104 578.38,-104 578.38,-110 572.38,-116 566.38,-116 566.38,-116 285.88,-116 285.88,-116 279.88,-116 273.88,-110 273.88,-104 273.88,-104 273.88,-44 273.88,-44 273.88,-38 279.88,-32 285.88,-32"/>
<text text-anchor="middle" x="426.12" y="-103.45" font-family="Helvetica,sans-Serif" font-weight="bold" font-size="9.00">render</text>
</g>
<!-- src/js/application/Application.js -->
<g id="node1" class="node">
<title>src/js/application/Application.js</title>
<g id="a_node1"><a xlink:href="src/js/application/Application.js" xlink:title="Application.js">
<path fill="#ffffcc" stroke="black" d="M717.08,-346.25C717.08,-346.25 658.67,-346.25 658.67,-346.25 655.58,-346.25 652.5,-343.17 652.5,-340.08 652.5,-340.08 652.5,-333.92 652.5,-333.92 652.5,-330.83 655.58,-327.75 658.67,-327.75 658.67,-327.75 717.08,-327.75 717.08,-327.75 720.17,-327.75 723.25,-330.83 723.25,-333.92 723.25,-333.92 723.25,-340.08 723.25,-340.08 723.25,-343.17 720.17,-346.25 717.08,-346.25"/>
<text text-anchor="start" x="660.5" y="-333.7" font-family="Helvetica,sans-Serif" font-size="9.00">Application.js</text>
</a>
</g>
</g>
<!-- src/js/controller/Controller.js -->
<g id="node2" class="node">
<title>src/js/controller/Controller.js</title>
<g id="a_node2"><a xlink:href="src/js/controller/Controller.js" xlink:title="Controller.js">
<path fill="#ffffcc" stroke="black" d="M100.33,-161.25C100.33,-161.25 47.92,-161.25 47.92,-161.25 44.83,-161.25 41.75,-158.17 41.75,-155.08 41.75,-155.08 41.75,-148.92 41.75,-148.92 41.75,-145.83 44.83,-142.75 47.92,-142.75 47.92,-142.75 100.33,-142.75 100.33,-142.75 103.42,-142.75 106.5,-145.83 106.5,-148.92 106.5,-148.92 106.5,-155.08 106.5,-155.08 106.5,-158.17 103.42,-161.25 100.33,-161.25"/>
<text text-anchor="start" x="49.75" y="-148.7" font-family="Helvetica,sans-Serif" font-size="9.00">Controller.js</text>
</a>
</g>
</g>
<!-- src/js/application/Application.js&#45;&gt;src/js/controller/Controller.js -->
<g id="edge1" class="edge">
<title>src/js/application/Application.js&#45;&gt;src/js/controller/Controller.js</title>
<path fill="none" stroke="#000000" stroke-width="2" stroke-opacity="0.200000" d="M680.81,-327.4C667.92,-306.55 637.78,-255.18 622.75,-208 619.27,-197.07 623.43,-164.5 614.75,-157 595.94,-140.76 237.58,-148.01 115.47,-150.96"/>
<polygon fill="#000000" fill-opacity="0.200000" stroke="#000000" stroke-width="2" stroke-opacity="0.200000" points="115.73,-148.86 109.79,-151.1 115.84,-153.05 115.73,-148.86"/>
</g>
<!-- src/js/application/ApplicationConfiguration.js -->
<g id="node3" class="node">
<title>src/js/application/ApplicationConfiguration.js</title>
<g id="a_node3"><a xlink:href="src/js/application/ApplicationConfiguration.js" xlink:title="ApplicationConfiguration.js">
<path fill="#ffffcc" stroke="black" d="M881.21,-346.25C881.21,-346.25 767.29,-346.25 767.29,-346.25 764.21,-346.25 761.12,-343.17 761.12,-340.08 761.12,-340.08 761.12,-333.92 761.12,-333.92 761.12,-330.83 764.21,-327.75 767.29,-327.75 767.29,-327.75 881.21,-327.75 881.21,-327.75 884.29,-327.75 887.38,-330.83 887.38,-333.92 887.38,-333.92 887.38,-340.08 887.38,-340.08 887.38,-343.17 884.29,-346.25 881.21,-346.25"/>
<text text-anchor="start" x="769.12" y="-333.7" font-family="Helvetica,sans-Serif" font-size="9.00">ApplicationConfiguration.js</text>
</a>
</g>
</g>
<!-- src/js/application/Application.js&#45;&gt;src/js/application/ApplicationConfiguration.js -->
<g id="edge2" class="edge">
<title>src/js/application/Application.js&#45;&gt;src/js/application/ApplicationConfiguration.js</title>
<path fill="none" stroke="#000000" stroke-width="2" stroke-opacity="0.200000" d="M723.48,-337C732.32,-337 742.16,-337 752.11,-337"/>
<polygon fill="#000000" fill-opacity="0.200000" stroke="#000000" stroke-width="2" stroke-opacity="0.200000" points="751.83,-339.1 757.83,-337 751.83,-334.9 751.83,-339.1"/>
</g>
<!-- src/js/application/ApplicationLogger.js -->
<g id="node4" class="node">
<title>src/js/application/ApplicationLogger.js</title>
<g id="a_node4"><a xlink:href="src/js/application/ApplicationLogger.js" xlink:title="ApplicationLogger.js">
<path fill="#ffffcc" stroke="black" d="M867.71,-408.25C867.71,-408.25 780.79,-408.25 780.79,-408.25 777.71,-408.25 774.62,-405.17 774.62,-402.08 774.62,-402.08 774.62,-395.92 774.62,-395.92 774.62,-392.83 777.71,-389.75 780.79,-389.75 780.79,-389.75 867.71,-389.75 867.71,-389.75 870.79,-389.75 873.88,-392.83 873.88,-395.92 873.88,-395.92 873.88,-402.08 873.88,-402.08 873.88,-405.17 870.79,-408.25 867.71,-408.25"/>
<text text-anchor="start" x="782.62" y="-395.7" font-family="Helvetica,sans-Serif" font-size="9.00">ApplicationLogger.js</text>
</a>
</g>
</g>
<!-- src/js/application/Application.js&#45;&gt;src/js/application/ApplicationLogger.js -->
<g id="edge3" class="edge">
<title>src/js/application/Application.js&#45;&gt;src/js/application/ApplicationLogger.js</title>
<path fill="none" stroke="#000000" stroke-width="2" stroke-opacity="0.200000" d="M723.58,-338.87C734.26,-341.08 745.26,-345.26 753.12,-353 762.96,-362.68 751.33,-373.28 761.12,-383 762.9,-384.76 764.85,-386.34 766.92,-387.75"/>
<polygon fill="#000000" fill-opacity="0.200000" stroke="#000000" stroke-width="2" stroke-opacity="0.200000" points="765.48,-389.35 771.74,-390.45 767.53,-385.69 765.48,-389.35"/>
</g>
<!-- src/js/overlay/Overlay.js -->
<g id="node7" class="node">
<title>src/js/overlay/Overlay.js</title>
<g id="a_node7"><a xlink:href="src/js/overlay/Overlay.js" xlink:title="Overlay.js">
<path fill="#ffffcc" stroke="black" d="M200.58,-438.25C200.58,-438.25 157.17,-438.25 157.17,-438.25 154.08,-438.25 151,-435.17 151,-432.08 151,-432.08 151,-425.92 151,-425.92 151,-422.83 154.08,-419.75 157.17,-419.75 157.17,-419.75 200.58,-419.75 200.58,-419.75 203.67,-419.75 206.75,-422.83 206.75,-425.92 206.75,-425.92 206.75,-432.08 206.75,-432.08 206.75,-435.17 203.67,-438.25 200.58,-438.25"/>
<text text-anchor="start" x="159" y="-425.7" font-family="Helvetica,sans-Serif" font-size="9.00">Overlay.js</text>
</a>
</g>
</g>
<!-- src/js/controller/Controller.js&#45;&gt;src/js/overlay/Overlay.js -->
<g id="edge5" class="edge">
<title>src/js/controller/Controller.js&#45;&gt;src/js/overlay/Overlay.js</title>
<path fill="none" stroke="#000000" stroke-width="2" stroke-opacity="0.200000" d="M78.66,-161.53C93.58,-201.74 151.47,-357.81 171.22,-411.07"/>
<polygon fill="#000000" fill-opacity="0.200000" stroke="#000000" stroke-width="2" stroke-opacity="0.200000" points="169.24,-411.77 173.3,-416.67 173.18,-410.31 169.24,-411.77"/>
</g>
<!-- src/js/view/View.js -->
<g id="node8" class="node">
<title>src/js/view/View.js</title>
<g id="a_node8"><a xlink:href="src/js/view/View.js" xlink:title="View.js">
<path fill="#ffffcc" stroke="black" d="M199.71,-103.25C199.71,-103.25 158.04,-103.25 158.04,-103.25 154.96,-103.25 151.88,-100.17 151.88,-97.08 151.88,-97.08 151.88,-90.92 151.88,-90.92 151.88,-87.83 154.96,-84.75 158.04,-84.75 158.04,-84.75 199.71,-84.75 199.71,-84.75 202.79,-84.75 205.88,-87.83 205.88,-90.92 205.88,-90.92 205.88,-97.08 205.88,-97.08 205.88,-100.17 202.79,-103.25 199.71,-103.25"/>
<text text-anchor="start" x="164.62" y="-90.7" font-family="Helvetica,sans-Serif" font-size="9.00">View.js</text>
</a>
</g>
</g>
<!-- src/js/controller/Controller.js&#45;&gt;src/js/view/View.js -->
<g id="edge6" class="edge">
<title>src/js/controller/Controller.js&#45;&gt;src/js/view/View.js</title>
<path fill="none" stroke="#000000" stroke-width="2" stroke-opacity="0.200000" d="M92.09,-142.42C108.75,-133.02 134.34,-118.57 153.24,-107.91"/>
<polygon fill="#000000" fill-opacity="0.200000" stroke="#000000" stroke-width="2" stroke-opacity="0.200000" points="154.05,-109.86 158.25,-105.08 151.99,-106.2 154.05,-109.86"/>
</g>
<!-- src/js/application/ApplicationDispatcher.js -->
<g id="node5" class="node">
<title>src/js/application/ApplicationDispatcher.js</title>
<g id="a_node5"><a xlink:href="src/js/application/ApplicationDispatcher.js" xlink:title="ApplicationDispatcher.js">
<path fill="#ffffcc" stroke="black" d="M738.83,-377.25C738.83,-377.25 636.92,-377.25 636.92,-377.25 633.83,-377.25 630.75,-374.17 630.75,-371.08 630.75,-371.08 630.75,-364.92 630.75,-364.92 630.75,-361.83 633.83,-358.75 636.92,-358.75 636.92,-358.75 738.83,-358.75 738.83,-358.75 741.92,-358.75 745,-361.83 745,-364.92 745,-364.92 745,-371.08 745,-371.08 745,-374.17 741.92,-377.25 738.83,-377.25"/>
<text text-anchor="start" x="638.75" y="-364.7" font-family="Helvetica,sans-Serif" font-size="9.00">ApplicationDispatcher.js</text>
</a>
</g>
</g>
<!-- src/js/application/ApplicationEvent.js -->
<g id="node6" class="node">
<title>src/js/application/ApplicationEvent.js</title>
<g id="a_node6"><a xlink:href="src/js/application/ApplicationEvent.js" xlink:title="ApplicationEvent.js">
<path fill="#ffffcc" stroke="black" d="M865.08,-377.25C865.08,-377.25 783.42,-377.25 783.42,-377.25 780.33,-377.25 777.25,-374.17 777.25,-371.08 777.25,-371.08 777.25,-364.92 777.25,-364.92 777.25,-361.83 780.33,-358.75 783.42,-358.75 783.42,-358.75 865.08,-358.75 865.08,-358.75 868.17,-358.75 871.25,-361.83 871.25,-364.92 871.25,-364.92 871.25,-371.08 871.25,-371.08 871.25,-374.17 868.17,-377.25 865.08,-377.25"/>
<text text-anchor="start" x="785.25" y="-364.7" font-family="Helvetica,sans-Serif" font-size="9.00">ApplicationEvent.js</text>
</a>
</g>
</g>
<!-- src/js/application/ApplicationDispatcher.js&#45;&gt;src/js/application/ApplicationEvent.js -->
<g id="edge4" class="edge">
<title>src/js/application/ApplicationDispatcher.js&#45;&gt;src/js/application/ApplicationEvent.js</title>
<path fill="none" stroke="#000000" stroke-width="2" stroke-opacity="0.200000" d="M745.47,-368C753,-368 760.71,-368 768.21,-368"/>
<polygon fill="#000000" fill-opacity="0.200000" stroke="#000000" stroke-width="2" stroke-opacity="0.200000" points="767.87,-370.1 773.87,-368 767.87,-365.9 767.87,-370.1"/>
</g>
<!-- src/js/overlay/Overlay.js&#45;&gt;src/js/application/ApplicationConfiguration.js -->
<g id="edge23" class="edge">
<title>src/js/overlay/Overlay.js&#45;&gt;src/js/application/ApplicationConfiguration.js</title>
<path fill="none" stroke="#000000" stroke-width="2" stroke-opacity="0.200000" d="M185.1,-438.55C194.51,-454.62 216.01,-486.53 244.5,-499 277.53,-513.46 371.16,-504.8 406.75,-499 566.98,-472.88 641.97,-501.33 753.12,-383 762.57,-372.94 751.33,-362.72 761.12,-353 761.58,-352.54 762.06,-352.1 762.54,-351.67"/>
<polygon fill="#000000" fill-opacity="0.200000" stroke="#000000" stroke-width="2" stroke-opacity="0.200000" points="763.27,-353.74 766.87,-348.5 760.79,-350.35 763.27,-353.74"/>
</g>
<!-- src/js/overlay/Overlay.js&#45;&gt;src/js/application/ApplicationLogger.js -->
<g id="edge25" class="edge">
<title>src/js/overlay/Overlay.js&#45;&gt;src/js/application/ApplicationLogger.js</title>
<path fill="none" stroke="#000000" stroke-width="2" stroke-opacity="0.200000" d="M184.17,-438.73C192.68,-456.61 213.57,-494.22 244.5,-509 270,-521.18 728.35,-522.59 753.12,-509 788.85,-489.41 809,-443.03 817.82,-417.19"/>
<polygon fill="#000000" fill-opacity="0.200000" stroke="#000000" stroke-width="2" stroke-opacity="0.200000" points="819.79,-417.92 819.63,-411.56 815.79,-416.63 819.79,-417.92"/>
</g>
<!-- src/js/overlay/Overlay.js&#45;&gt;src/js/application/ApplicationDispatcher.js -->
<g id="edge24" class="edge">
<title>src/js/overlay/Overlay.js&#45;&gt;src/js/application/ApplicationDispatcher.js</title>
<path fill="none" stroke="#000000" stroke-width="2" stroke-opacity="0.200000" d="M181.03,-419.25C186.05,-378.71 207.41,-224.2 244.5,-196 389.25,-85.93 457.84,-275.37 622.75,-352 625.35,-353.21 628.06,-354.33 630.82,-355.38"/>
<polygon fill="#000000" fill-opacity="0.200000" stroke="#000000" stroke-width="2" stroke-opacity="0.200000" points="630.02,-357.33 636.38,-357.3 631.39,-353.36 630.02,-357.33"/>
</g>
<!-- src/js/overlay/format/OverlayFormat.js -->
<g id="node22" class="node">
<title>src/js/overlay/format/OverlayFormat.js</title>
<g id="a_node22"><a xlink:href="src/js/overlay/format/OverlayFormat.js" xlink:title="OverlayFormat.js">
<path fill="#ffffcc" stroke="black" d="M365.96,-408.25C365.96,-408.25 293.29,-408.25 293.29,-408.25 290.21,-408.25 287.12,-405.17 287.12,-402.08 287.12,-402.08 287.12,-395.92 287.12,-395.92 287.12,-392.83 290.21,-389.75 293.29,-389.75 293.29,-389.75 365.96,-389.75 365.96,-389.75 369.04,-389.75 372.12,-392.83 372.12,-395.92 372.12,-395.92 372.12,-402.08 372.12,-402.08 372.12,-405.17 369.04,-408.25 365.96,-408.25"/>
<text text-anchor="start" x="295.12" y="-395.7" font-family="Helvetica,sans-Serif" font-size="9.00">OverlayFormat.js</text>
</a>
</g>
</g>
<!-- src/js/overlay/Overlay.js&#45;&gt;src/js/overlay/format/OverlayFormat.js -->
<g id="edge26" class="edge">
<title>src/js/overlay/Overlay.js&#45;&gt;src/js/overlay/format/OverlayFormat.js</title>
<path fill="none" stroke="#000000" stroke-width="2" stroke-opacity="0.200000" d="M207.16,-423.5C227.03,-419.49 254.52,-413.95 278.32,-409.15"/>
<polygon fill="#000000" fill-opacity="0.200000" stroke="#000000" stroke-width="2" stroke-opacity="0.200000" points="278.47,-411.26 283.93,-408.01 277.64,-407.14 278.47,-411.26"/>
</g>
<!-- src/js/overlay/overlay/OverlayOverlay.js -->
<g id="node23" class="node">
<title>src/js/overlay/overlay/OverlayOverlay.js</title>
<g id="a_node23"><a xlink:href="src/js/overlay/overlay/OverlayOverlay.js" xlink:title="OverlayOverlay.js">
<path fill="#ffffcc" stroke="black" d="M367.08,-469.25C367.08,-469.25 292.17,-469.25 292.17,-469.25 289.08,-469.25 286,-466.17 286,-463.08 286,-463.08 286,-456.92 286,-456.92 286,-453.83 289.08,-450.75 292.17,-450.75 292.17,-450.75 367.08,-450.75 367.08,-450.75 370.17,-450.75 373.25,-453.83 373.25,-456.92 373.25,-456.92 373.25,-463.08 373.25,-463.08 373.25,-466.17 370.17,-469.25 367.08,-469.25"/>
<text text-anchor="start" x="294" y="-456.7" font-family="Helvetica,sans-Serif" font-size="9.00">OverlayOverlay.js</text>
</a>
</g>
</g>
<!-- src/js/overlay/Overlay.js&#45;&gt;src/js/overlay/overlay/OverlayOverlay.js -->
<g id="edge27" class="edge">
<title>src/js/overlay/Overlay.js&#45;&gt;src/js/overlay/overlay/OverlayOverlay.js</title>
<path fill="none" stroke="#000000" stroke-width="2" stroke-opacity="0.200000" d="M207.16,-434.69C226.64,-438.75 253.45,-444.33 276.93,-449.23"/>
<polygon fill="#000000" fill-opacity="0.200000" stroke="#000000" stroke-width="2" stroke-opacity="0.200000" points="276.48,-451.28 282.78,-450.45 277.34,-447.17 276.48,-451.28"/>
</g>
<!-- src/js/view/render/RenderController.js -->
<g id="node30" class="node">
<title>src/js/view/render/RenderController.js</title>
<g id="a_node30"><a xlink:href="src/js/view/render/RenderController.js" xlink:title="RenderController.js">
<path fill="#ffffcc" stroke="black" d="M371.21,-89.25C371.21,-89.25 288.04,-89.25 288.04,-89.25 284.96,-89.25 281.88,-86.17 281.88,-83.08 281.88,-83.08 281.88,-76.92 281.88,-76.92 281.88,-73.83 284.96,-70.75 288.04,-70.75 288.04,-70.75 371.21,-70.75 371.21,-70.75 374.29,-70.75 377.38,-73.83 377.38,-76.92 377.38,-76.92 377.38,-83.08 377.38,-83.08 377.38,-86.17 374.29,-89.25 371.21,-89.25"/>
<text text-anchor="start" x="289.88" y="-76.7" font-family="Helvetica,sans-Serif" font-size="9.00">RenderController.js</text>
</a>
</g>
</g>
<!-- src/js/view/View.js&#45;&gt;src/js/view/render/RenderController.js -->
<g id="edge36" class="edge">
<title>src/js/view/View.js&#45;&gt;src/js/view/render/RenderController.js</title>
<path fill="none" stroke="#000000" stroke-width="2" stroke-opacity="0.200000" d="M206.13,-91.53C224.53,-89.8 249.83,-87.42 272.66,-85.27"/>
<polygon fill="#000000" fill-opacity="0.200000" stroke="#000000" stroke-width="2" stroke-opacity="0.200000" points="272.81,-87.36 278.59,-84.71 272.42,-83.18 272.81,-87.36"/>
</g>
<!-- src/js/data/Data.json -->
<g id="node9" class="node">
<title>src/js/data/Data.json</title>
<g id="a_node9"><a xlink:href="src/js/data/Data.json" xlink:title="Data.json">
<path fill="#ffee44" stroke="black" d="M200.21,-749.25C200.21,-749.25 157.54,-749.25 157.54,-749.25 154.46,-749.25 151.38,-746.17 151.38,-743.08 151.38,-743.08 151.38,-736.92 151.38,-736.92 151.38,-733.83 154.46,-730.75 157.54,-730.75 157.54,-730.75 200.21,-730.75 200.21,-730.75 203.29,-730.75 206.38,-733.83 206.38,-736.92 206.38,-736.92 206.38,-743.08 206.38,-743.08 206.38,-746.17 203.29,-749.25 200.21,-749.25"/>
<text text-anchor="start" x="159.38" y="-736.7" font-family="Helvetica,sans-Serif" font-size="9.00">Data.json</text>
</a>
</g>
</g>
<!-- src/js/data/DataController.js -->
<g id="node10" class="node">
<title>src/js/data/DataController.js</title>
<g id="a_node10"><a xlink:href="src/js/data/DataController.js" xlink:title="DataController.js">
<path fill="#ffffcc" stroke="black" d="M110.08,-749.25C110.08,-749.25 38.17,-749.25 38.17,-749.25 35.08,-749.25 32,-746.17 32,-743.08 32,-743.08 32,-736.92 32,-736.92 32,-733.83 35.08,-730.75 38.17,-730.75 38.17,-730.75 110.08,-730.75 110.08,-730.75 113.17,-730.75 116.25,-733.83 116.25,-736.92 116.25,-736.92 116.25,-743.08 116.25,-743.08 116.25,-746.17 113.17,-749.25 110.08,-749.25"/>
<text text-anchor="start" x="40" y="-736.7" font-family="Helvetica,sans-Serif" font-size="9.00">DataController.js</text>
</a>
</g>
</g>
<!-- src/js/data/DataController.js&#45;&gt;src/js/data/Data.json -->
<g id="edge7" class="edge">
<title>src/js/data/DataController.js&#45;&gt;src/js/data/Data.json</title>
<path fill="none" stroke="#000000" stroke-width="2" stroke-opacity="0.200000" d="M116.62,-740C125.04,-740 133.82,-740 142.03,-740"/>
<polygon fill="#000000" fill-opacity="0.200000" stroke="#000000" stroke-width="2" stroke-opacity="0.200000" points="141.96,-742.1 147.96,-740 141.96,-737.9 141.96,-742.1"/>
</g>
<!-- src/js/directable/Directable.js -->
<g id="node11" class="node">
<title>src/js/directable/Directable.js</title>
<g id="a_node11"><a xlink:href="src/js/directable/Directable.js" xlink:title="Directable.js">
<path fill="#ffffcc" stroke="black" d="M851.58,-888.25C851.58,-888.25 796.92,-888.25 796.92,-888.25 793.83,-888.25 790.75,-885.17 790.75,-882.08 790.75,-882.08 790.75,-875.92 790.75,-875.92 790.75,-872.83 793.83,-869.75 796.92,-869.75 796.92,-869.75 851.58,-869.75 851.58,-869.75 854.67,-869.75 857.75,-872.83 857.75,-875.92 857.75,-875.92 857.75,-882.08 857.75,-882.08 857.75,-885.17 854.67,-888.25 851.58,-888.25"/>
<text text-anchor="start" x="798.75" y="-875.7" font-family="Helvetica,sans-Serif" font-size="9.00">Directable.js</text>
</a>
</g>
</g>
<!-- src/js/directable/directables/frame/DirectableFrame.js -->
<g id="node12" class="node">
<title>src/js/directable/directables/frame/DirectableFrame.js</title>
<g id="a_node12"><a xlink:href="src/js/directable/directables/frame/DirectableFrame.js" xlink:title="DirectableFrame.js">
<path fill="#ffffcc" stroke="black" d="M567.21,-888.25C567.21,-888.25 486.29,-888.25 486.29,-888.25 483.21,-888.25 480.12,-885.17 480.12,-882.08 480.12,-882.08 480.12,-875.92 480.12,-875.92 480.12,-872.83 483.21,-869.75 486.29,-869.75 486.29,-869.75 567.21,-869.75 567.21,-869.75 570.29,-869.75 573.38,-872.83 573.38,-875.92 573.38,-875.92 573.38,-882.08 573.38,-882.08 573.38,-885.17 570.29,-888.25 567.21,-888.25"/>
<text text-anchor="start" x="488.12" y="-875.7" font-family="Helvetica,sans-Serif" font-size="9.00">DirectableFrame.js</text>
</a>
</g>
</g>
<!-- src/js/directable/directables/frame/DirectableFrame.js&#45;&gt;src/js/application/ApplicationLogger.js -->
<g id="edge8" class="edge">
<title>src/js/directable/directables/frame/DirectableFrame.js&#45;&gt;src/js/application/ApplicationLogger.js</title>
<path fill="none" stroke="#000000" stroke-width="2" stroke-opacity="0.200000" d="M560.81,-869.39C580.05,-861.94 602.81,-849.52 614.75,-830 626.35,-811.03 607.93,-646.58 622.75,-630 661.81,-586.29 708.33,-647.81 753.12,-610 812.26,-560.08 821.78,-458.95 823.13,-417.43"/>
<polygon fill="#000000" fill-opacity="0.200000" stroke="#000000" stroke-width="2" stroke-opacity="0.200000" points="825.23,-417.51 823.26,-411.46 821.03,-417.42 825.23,-417.51"/>
</g>
<!-- src/js/directable/directables/frame/DirectableFrame.js&#45;&gt;src/js/directable/Directable.js -->
<g id="edge9" class="edge">
<title>src/js/directable/directables/frame/DirectableFrame.js&#45;&gt;src/js/directable/Directable.js</title>
<path fill="none" stroke="#000000" stroke-width="2" stroke-opacity="0.200000" d="M573.6,-879C630.57,-879 726.95,-879 781.8,-879"/>
<polygon fill="#000000" fill-opacity="0.200000" stroke="#000000" stroke-width="2" stroke-opacity="0.200000" points="781.53,-881.1 787.53,-879 781.53,-876.9 781.53,-881.1"/>
</g>
<!-- src/js/directable/directables/rhythm/DirectableRhythm.js -->
<g id="node13" class="node">
<title>src/js/directable/directables/rhythm/DirectableRhythm.js</title>
<g id="a_node13"><a xlink:href="src/js/directable/directables/rhythm/DirectableRhythm.js" xlink:title="DirectableRhythm.js">
<path fill="#ffffcc" stroke="black" d="M730.96,-800.25C730.96,-800.25 644.79,-800.25 644.79,-800.25 641.71,-800.25 638.62,-797.17 638.62,-794.08 638.62,-794.08 638.62,-787.92 638.62,-787.92 638.62,-784.83 641.71,-781.75 644.79,-781.75 644.79,-781.75 730.96,-781.75 730.96,-781.75 734.04,-781.75 737.12,-784.83 737.12,-787.92 737.12,-787.92 737.12,-794.08 737.12,-794.08 737.12,-797.17 734.04,-800.25 730.96,-800.25"/>
<text text-anchor="start" x="646.62" y="-787.7" font-family="Helvetica,sans-Serif" font-size="9.00">DirectableRhythm.js</text>
</a>
</g>
</g>
<!-- src/js/directable/directables/rhythm/DirectableRhythm.js&#45;&gt;src/js/application/ApplicationLogger.js -->
<g id="edge10" class="edge">
<title>src/js/directable/directables/rhythm/DirectableRhythm.js&#45;&gt;src/js/application/ApplicationLogger.js</title>
<path fill="none" stroke="#000000" stroke-width="2" stroke-opacity="0.200000" d="M693.31,-781.48C704.33,-757.65 733.44,-693.38 753.12,-638 781.95,-556.9 808.34,-457.43 818.66,-417.18"/>
<polygon fill="#000000" fill-opacity="0.200000" stroke="#000000" stroke-width="2" stroke-opacity="0.200000" points="820.63,-417.95 820.08,-411.62 816.56,-416.92 820.63,-417.95"/>
</g>
<!-- src/js/directable/directables/rhythm/DirectableRhythm.js&#45;&gt;src/js/directable/Directable.js -->
<g id="edge11" class="edge">
<title>src/js/directable/directables/rhythm/DirectableRhythm.js&#45;&gt;src/js/directable/Directable.js</title>
<path fill="none" stroke="#000000" stroke-width="2" stroke-opacity="0.200000" d="M737.41,-797.42C742.9,-799.13 748.26,-801.28 753.12,-804 778.5,-818.17 799.99,-844.71 812.26,-862.12"/>
<polygon fill="#000000" fill-opacity="0.200000" stroke="#000000" stroke-width="2" stroke-opacity="0.200000" points="810.41,-863.12 815.52,-866.89 813.87,-860.75 810.41,-863.12"/>
</g>
<!-- src/js/directable/directables/rhythm/asdr/ASDRData.js -->
<g id="node14" class="node">
<title>src/js/directable/directables/rhythm/asdr/ASDRData.js</title>
<g id="a_node14"><a xlink:href="src/js/directable/directables/rhythm/asdr/ASDRData.js" xlink:title="ASDRData.js">
<path fill="#ccffcc" stroke="black" d="M555.58,-677.25C555.58,-677.25 497.92,-677.25 497.92,-677.25 494.83,-677.25 491.75,-674.17 491.75,-671.08 491.75,-671.08 491.75,-664.92 491.75,-664.92 491.75,-661.83 494.83,-658.75 497.92,-658.75 497.92,-658.75 555.58,-658.75 555.58,-658.75 558.67,-658.75 561.75,-661.83 561.75,-664.92 561.75,-664.92 561.75,-671.08 561.75,-671.08 561.75,-674.17 558.67,-677.25 555.58,-677.25"/>
<text text-anchor="start" x="499.75" y="-664.7" font-family="Helvetica,sans-Serif" font-size="9.00">ASDRData.js</text>
</a>
</g>
</g>
<!-- src/js/directable/directables/rhythm/asdr/ASDREnvelope.js -->
<g id="node15" class="node">
<title>src/js/directable/directables/rhythm/asdr/ASDREnvelope.js</title>
<g id="a_node15"><a xlink:href="src/js/directable/directables/rhythm/asdr/ASDREnvelope.js" xlink:title="ASDREnvelope.js">
<path fill="#ffffcc" stroke="black" d="M565.33,-708.25C565.33,-708.25 488.17,-708.25 488.17,-708.25 485.08,-708.25 482,-705.17 482,-702.08 482,-702.08 482,-695.92 482,-695.92 482,-692.83 485.08,-689.75 488.17,-689.75 488.17,-689.75 565.33,-689.75 565.33,-689.75 568.42,-689.75 571.5,-692.83 571.5,-695.92 571.5,-695.92 571.5,-702.08 571.5,-702.08 571.5,-705.17 568.42,-708.25 565.33,-708.25"/>
<text text-anchor="start" x="490" y="-695.7" font-family="Helvetica,sans-Serif" font-size="9.00">ASDREnvelope.js</text>
</a>
</g>
</g>
<!-- src/js/directable/directables/rhythm/asdr/ASDREnvelope.js&#45;&gt;src/js/application/ApplicationLogger.js -->
<g id="edge12" class="edge">
<title>src/js/directable/directables/rhythm/asdr/ASDREnvelope.js&#45;&gt;src/js/application/ApplicationLogger.js</title>
<path fill="none" stroke="#000000" stroke-width="2" stroke-opacity="0.200000" d="M572,-701.29C587.65,-699.69 604.02,-694.83 614.75,-683 628.98,-667.3 608.29,-603.48 622.75,-588 662.76,-545.16 706.99,-604.17 753.12,-568 801.57,-530.02 816.85,-452.71 821.42,-417.37"/>
<polygon fill="#000000" fill-opacity="0.200000" stroke="#000000" stroke-width="2" stroke-opacity="0.200000" points="823.49,-417.79 822.09,-411.59 819.31,-417.3 823.49,-417.79"/>
</g>
<!-- src/js/directable/directables/rhythm/asdr/DirectableRhythmASDRManager.js -->
<g id="node16" class="node">
<title>src/js/directable/directables/rhythm/asdr/DirectableRhythmASDRManager.js</title>
<g id="a_node16"><a xlink:href="src/js/directable/directables/rhythm/asdr/DirectableRhythmASDRManager.js" xlink:title="DirectableRhythmASDRManager.js">
<path fill="#ffffcc" stroke="black" d="M600.58,-739.25C600.58,-739.25 452.92,-739.25 452.92,-739.25 449.83,-739.25 446.75,-736.17 446.75,-733.08 446.75,-733.08 446.75,-726.92 446.75,-726.92 446.75,-723.83 449.83,-720.75 452.92,-720.75 452.92,-720.75 600.58,-720.75 600.58,-720.75 603.67,-720.75 606.75,-723.83 606.75,-726.92 606.75,-726.92 606.75,-733.08 606.75,-733.08 606.75,-736.17 603.67,-739.25 600.58,-739.25"/>
<text text-anchor="start" x="454.75" y="-726.7" font-family="Helvetica,sans-Serif" font-size="9.00">DirectableRhythmASDRManager.js</text>
</a>
</g>
</g>
<!-- src/js/directable/directables/rhythm/asdr/DirectableRhythmASDRManager.js&#45;&gt;src/js/application/ApplicationLogger.js -->
<g id="edge13" class="edge">
<title>src/js/directable/directables/rhythm/asdr/DirectableRhythmASDRManager.js&#45;&gt;src/js/application/ApplicationLogger.js</title>
<path fill="none" stroke="#000000" stroke-width="2" stroke-opacity="0.200000" d="M606.91,-720.9C609.76,-718.92 612.39,-716.63 614.75,-714 631.39,-695.41 605.83,-620.34 622.75,-602 662.49,-558.91 707.49,-618.79 753.12,-582 805.16,-540.05 818.63,-454.72 822.08,-417.29"/>
<polygon fill="#000000" fill-opacity="0.200000" stroke="#000000" stroke-width="2" stroke-opacity="0.200000" points="824.16,-417.64 822.54,-411.49 819.97,-417.3 824.16,-417.64"/>
</g>
<!-- src/js/directable/directables/rhythm/bpm/DirectableRhythmBPM.js -->
<g id="node17" class="node">
<title>src/js/directable/directables/rhythm/bpm/DirectableRhythmBPM.js</title>
<g id="a_node17"><a xlink:href="src/js/directable/directables/rhythm/bpm/DirectableRhythmBPM.js" xlink:title="DirectableRhythmBPM.js">
<path fill="#ffffcc" stroke="black" d="M579.58,-800.25C579.58,-800.25 473.92,-800.25 473.92,-800.25 470.83,-800.25 467.75,-797.17 467.75,-794.08 467.75,-794.08 467.75,-787.92 467.75,-787.92 467.75,-784.83 470.83,-781.75 473.92,-781.75 473.92,-781.75 579.58,-781.75 579.58,-781.75 582.67,-781.75 585.75,-784.83 585.75,-787.92 585.75,-787.92 585.75,-794.08 585.75,-794.08 585.75,-797.17 582.67,-800.25 579.58,-800.25"/>
<text text-anchor="start" x="475.75" y="-787.7" font-family="Helvetica,sans-Serif" font-size="9.00">DirectableRhythmBPM.js</text>
</a>
</g>
</g>
<!-- src/js/directable/directables/rhythm/bpm/DirectableRhythmBPM.js&#45;&gt;src/js/application/ApplicationLogger.js -->
<g id="edge14" class="edge">
<title>src/js/directable/directables/rhythm/bpm/DirectableRhythmBPM.js&#45;&gt;src/js/application/ApplicationLogger.js</title>
<path fill="none" stroke="#000000" stroke-width="2" stroke-opacity="0.200000" d="M586.05,-786.96C597.08,-783.51 607.43,-777.91 614.75,-769 636.36,-742.69 599.91,-641.25 622.75,-616 662.08,-572.53 707.93,-633.34 753.12,-596 808.6,-550.17 820.21,-457.22 822.62,-417.58"/>
<polygon fill="#000000" fill-opacity="0.200000" stroke="#000000" stroke-width="2" stroke-opacity="0.200000" points="824.71,-417.83 822.91,-411.74 820.52,-417.63 824.71,-417.83"/>
</g>
<!-- src/js/directable/directables/rhythm/bpm/DirectableRhythmBPM.js&#45;&gt;src/js/directable/directables/rhythm/DirectableRhythm.js -->
<g id="edge15" class="edge">
<title>src/js/directable/directables/rhythm/bpm/DirectableRhythmBPM.js&#45;&gt;src/js/directable/directables/rhythm/DirectableRhythm.js</title>
<path fill="none" stroke="#000000" stroke-width="2" stroke-opacity="0.200000" d="M586.1,-791C600.28,-791 615.42,-791 629.55,-791"/>
<polygon fill="#000000" fill-opacity="0.200000" stroke="#000000" stroke-width="2" stroke-opacity="0.200000" points="629.17,-793.1 635.17,-791 629.17,-788.9 629.17,-793.1"/>
</g>
<!-- src/js/directable/directables/title/DirectableTitle.js -->
<g id="node18" class="node">
<title>src/js/directable/directables/title/DirectableTitle.js</title>
<g id="a_node18"><a xlink:href="src/js/directable/directables/title/DirectableTitle.js" xlink:title="DirectableTitle.js">
<path fill="#ffffcc" stroke="black" d="M562.71,-949.25C562.71,-949.25 490.79,-949.25 490.79,-949.25 487.71,-949.25 484.62,-946.17 484.62,-943.08 484.62,-943.08 484.62,-936.92 484.62,-936.92 484.62,-933.83 487.71,-930.75 490.79,-930.75 490.79,-930.75 562.71,-930.75 562.71,-930.75 565.79,-930.75 568.88,-933.83 568.88,-936.92 568.88,-936.92 568.88,-943.08 568.88,-943.08 568.88,-946.17 565.79,-949.25 562.71,-949.25"/>
<text text-anchor="start" x="492.62" y="-936.7" font-family="Helvetica,sans-Serif" font-size="9.00">DirectableTitle.js</text>
</a>
</g>
</g>
<!-- src/js/directable/directables/title/DirectableTitle.js&#45;&gt;src/js/application/ApplicationLogger.js -->
<g id="edge16" class="edge">
<title>src/js/directable/directables/title/DirectableTitle.js&#45;&gt;src/js/application/ApplicationLogger.js</title>
<path fill="none" stroke="#000000" stroke-width="2" stroke-opacity="0.200000" d="M569,-939.87C585.82,-937.52 603.83,-931.61 614.75,-918 634.08,-893.89 601.94,-662.85 622.75,-640 662.06,-596.84 708.3,-661.4 753.12,-624 816.66,-570.98 823.57,-461.3 823.68,-417.58"/>
<polygon fill="#000000" fill-opacity="0.200000" stroke="#000000" stroke-width="2" stroke-opacity="0.200000" points="825.78,-417.63 823.63,-411.65 821.58,-417.67 825.78,-417.63"/>
</g>
<!-- src/js/directable/directables/title/DirectableTitle.js&#45;&gt;src/js/directable/Directable.js -->
<g id="edge17" class="edge">
<title>src/js/directable/directables/title/DirectableTitle.js&#45;&gt;src/js/directable/Directable.js</title>
<path fill="none" stroke="#000000" stroke-width="2" stroke-opacity="0.200000" d="M569.15,-931.45C625.39,-919.84 725.36,-899.21 781.68,-887.58"/>
<polygon fill="#000000" fill-opacity="0.200000" stroke="#000000" stroke-width="2" stroke-opacity="0.200000" points="781.92,-889.68 787.37,-886.41 781.07,-885.56 781.92,-889.68"/>
</g>
<!-- src/js/director/Director.js -->
<g id="node19" class="node">
<title>src/js/director/Director.js</title>
<g id="a_node19"><a xlink:href="src/js/director/Director.js" xlink:title="Director.js">
<path fill="#ffffcc" stroke="black" d="M548.83,-557.25C548.83,-557.25 504.67,-557.25 504.67,-557.25 501.58,-557.25 498.5,-554.17 498.5,-551.08 498.5,-551.08 498.5,-544.92 498.5,-544.92 498.5,-541.83 501.58,-538.75 504.67,-538.75 504.67,-538.75 548.83,-538.75 548.83,-538.75 551.92,-538.75 555,-541.83 555,-544.92 555,-544.92 555,-551.08 555,-551.08 555,-554.17 551.92,-557.25 548.83,-557.25"/>
<text text-anchor="start" x="506.5" y="-544.7" font-family="Helvetica,sans-Serif" font-size="9.00">Director.js</text>
</a>
</g>
</g>
<!-- src/js/director/directors/DirectorDanceRabbitDance.js -->
<g id="node20" class="node">
<title>src/js/director/directors/DirectorDanceRabbitDance.js</title>
<g id="a_node20"><a xlink:href="src/js/director/directors/DirectorDanceRabbitDance.js" xlink:title="DirectorDanceRabbitDance.js">
<path fill="#ffffcc" stroke="black" d="M392.58,-565.25C392.58,-565.25 266.67,-565.25 266.67,-565.25 263.58,-565.25 260.5,-562.17 260.5,-559.08 260.5,-559.08 260.5,-552.92 260.5,-552.92 260.5,-549.83 263.58,-546.75 266.67,-546.75 266.67,-546.75 392.58,-546.75 392.58,-546.75 395.67,-546.75 398.75,-549.83 398.75,-552.92 398.75,-552.92 398.75,-559.08 398.75,-559.08 398.75,-562.17 395.67,-565.25 392.58,-565.25"/>
<text text-anchor="start" x="268.5" y="-552.7" font-family="Helvetica,sans-Serif" font-size="9.00">DirectorDanceRabbitDance.js</text>
</a>
</g>
</g>
<!-- src/js/director/directors/DirectorDanceRabbitDance.js&#45;&gt;src/js/application/ApplicationLogger.js -->
<g id="edge18" class="edge">
<title>src/js/director/directors/DirectorDanceRabbitDance.js&#45;&gt;src/js/application/ApplicationLogger.js</title>
<path fill="none" stroke="#000000" stroke-width="2" stroke-opacity="0.200000" d="M398.98,-563.93C404.31,-564.36 409.62,-564.73 414.75,-565 503.51,-569.73 526.82,-578.05 614.75,-565 678.32,-555.56 702.96,-563.18 753.12,-523 788.18,-494.92 808.78,-444.29 817.8,-417.22"/>
<polygon fill="#000000" fill-opacity="0.200000" stroke="#000000" stroke-width="2" stroke-opacity="0.200000" points="819.78,-417.95 819.6,-411.59 815.78,-416.67 819.78,-417.95"/>
</g>
<!-- src/js/director/directors/DirectorDanceRabbitDance.js&#45;&gt;src/js/directable/directables/rhythm/bpm/DirectableRhythmBPM.js -->
<g id="edge19" class="edge">
<title>src/js/director/directors/DirectorDanceRabbitDance.js&#45;&gt;src/js/directable/directables/rhythm/bpm/DirectableRhythmBPM.js</title>
<path fill="none" stroke="#000000" stroke-width="2" stroke-opacity="0.200000" d="M331.27,-565.48C334.12,-599.12 348.49,-713.74 414.75,-769 427.1,-779.3 442.9,-785.26 458.68,-788.61"/>
<polygon fill="#000000" fill-opacity="0.200000" stroke="#000000" stroke-width="2" stroke-opacity="0.200000" points="458.16,-790.65 464.44,-789.66 458.92,-786.52 458.16,-790.65"/>
</g>
<!-- src/js/director/directors/DirectorDanceRabbitDance.js&#45;&gt;src/js/directable/directables/title/DirectableTitle.js -->
<g id="edge20" class="edge">
<title>src/js/director/directors/DirectorDanceRabbitDance.js&#45;&gt;src/js/directable/directables/title/DirectableTitle.js</title>
<path fill="none" stroke="#000000" stroke-width="2" stroke-opacity="0.200000" d="M331.46,-565.52C336.24,-617.49 361.66,-866.62 414.75,-918 430.68,-933.42 454.15,-939.52 475.4,-941.52"/>
<polygon fill="#000000" fill-opacity="0.200000" stroke="#000000" stroke-width="2" stroke-opacity="0.200000" points="475.19,-943.61 481.33,-941.93 475.49,-939.42 475.19,-943.61"/>
</g>
<!-- src/js/director/directors/DirectorDanceRabbitDance.js&#45;&gt;src/js/director/Director.js -->
<g id="edge21" class="edge">
<title>src/js/director/directors/DirectorDanceRabbitDance.js&#45;&gt;src/js/director/Director.js</title>
<path fill="none" stroke="#000000" stroke-width="2" stroke-opacity="0.200000" d="M399.14,-553.19C429.46,-551.95 463.9,-550.54 489.19,-549.5"/>
<polygon fill="#000000" fill-opacity="0.200000" stroke="#000000" stroke-width="2" stroke-opacity="0.200000" points="489.14,-551.6 495.05,-549.26 488.97,-547.41 489.14,-551.6"/>
</g>
<!-- src/js/index.js -->
<g id="node21" class="node">
<title>src/js/index.js</title>
<g id="a_node21"><a xlink:href="src/js/index.js" xlink:title="index.js">
<path fill="#ffffcc" stroke="black" d="M547.58,-183.25C547.58,-183.25 505.92,-183.25 505.92,-183.25 502.83,-183.25 499.75,-180.17 499.75,-177.08 499.75,-177.08 499.75,-170.92 499.75,-170.92 499.75,-167.83 502.83,-164.75 505.92,-164.75 505.92,-164.75 547.58,-164.75 547.58,-164.75 550.67,-164.75 553.75,-167.83 553.75,-170.92 553.75,-170.92 553.75,-177.08 553.75,-177.08 553.75,-180.17 550.67,-183.25 547.58,-183.25"/>
<text text-anchor="start" x="511" y="-170.7" font-family="Helvetica,sans-Serif" font-size="9.00">index.js</text>
</a>
</g>
</g>
<!-- src/js/index.js&#45;&gt;src/js/application/Application.js -->
<g id="edge22" class="edge">
<title>src/js/index.js&#45;&gt;src/js/application/Application.js</title>
<path fill="none" stroke="#000000" stroke-width="2" stroke-opacity="0.200000" d="M554.17,-172.14C572.81,-172.18 597.45,-175.12 614.75,-188 658.42,-220.5 676.95,-286.47 683.64,-318.59"/>
<polygon fill="#000000" fill-opacity="0.200000" stroke="#000000" stroke-width="2" stroke-opacity="0.200000" points="681.57,-318.94 684.77,-324.43 685.69,-318.14 681.57,-318.94"/>
</g>
<!-- src/js/overlay/OverlayUtil.js -->
<g id="node24" class="node">
<title>src/js/overlay/OverlayUtil.js</title>
<g id="a_node24"><a xlink:href="src/js/overlay/OverlayUtil.js" xlink:title="OverlayUtil.js">
<path fill="#ffffcc" stroke="black" d="M555.58,-377.25C555.58,-377.25 497.92,-377.25 497.92,-377.25 494.83,-377.25 491.75,-374.17 491.75,-371.08 491.75,-371.08 491.75,-364.92 491.75,-364.92 491.75,-361.83 494.83,-358.75 497.92,-358.75 497.92,-358.75 555.58,-358.75 555.58,-358.75 558.67,-358.75 561.75,-361.83 561.75,-364.92 561.75,-364.92 561.75,-371.08 561.75,-371.08 561.75,-374.17 558.67,-377.25 555.58,-377.25"/>
<text text-anchor="start" x="499.75" y="-364.7" font-family="Helvetica,sans-Serif" font-size="9.00">OverlayUtil.js</text>
</a>
</g>
</g>
<!-- src/js/overlay/format/OverlayFormat.js&#45;&gt;src/js/overlay/OverlayUtil.js -->
<g id="edge31" class="edge">
<title>src/js/overlay/format/OverlayFormat.js&#45;&gt;src/js/overlay/OverlayUtil.js</title>
<path fill="none" stroke="#000000" stroke-width="2" stroke-opacity="0.200000" d="M372.48,-392.35C404.93,-387.19 449.74,-380.08 482.53,-374.87"/>
<polygon fill="#000000" fill-opacity="0.200000" stroke="#000000" stroke-width="2" stroke-opacity="0.200000" points="482.85,-376.94 488.45,-373.93 482.19,-372.79 482.85,-376.94"/>
</g>
<!-- src/js/overlay/overlay/OverlayOverlay.js&#45;&gt;src/js/overlay/OverlayUtil.js -->
<g id="edge33" class="edge">
<title>src/js/overlay/overlay/OverlayOverlay.js&#45;&gt;src/js/overlay/OverlayUtil.js</title>
<path fill="none" stroke="#000000" stroke-width="2" stroke-opacity="0.200000" d="M371.19,-450.31C382.88,-446.98 395.5,-442.84 406.75,-438 442.95,-422.42 481.73,-397.98 504.85,-382.48"/>
<polygon fill="#000000" fill-opacity="0.200000" stroke="#000000" stroke-width="2" stroke-opacity="0.200000" points="505.77,-384.4 509.56,-379.3 503.42,-380.92 505.77,-384.4"/>
</g>
<!-- src/js/overlay/OverlayUtil.js&#45;&gt;src/js/application/ApplicationLogger.js -->
<g id="edge29" class="edge">
<title>src/js/overlay/OverlayUtil.js&#45;&gt;src/js/application/ApplicationLogger.js</title>
<path fill="none" stroke="#000000" stroke-width="2" stroke-opacity="0.200000" d="M561.96,-374.05C580,-377.08 602.52,-380.6 622.75,-383 670.78,-388.7 725.54,-392.92 765.68,-395.59"/>
<polygon fill="#000000" fill-opacity="0.200000" stroke="#000000" stroke-width="2" stroke-opacity="0.200000" points="765.38,-397.67 771.51,-395.97 765.66,-393.48 765.38,-397.67"/>
</g>
<!-- src/js/overlay/OverlayUtil.js&#45;&gt;src/js/application/ApplicationDispatcher.js -->
<g id="edge28" class="edge">
<title>src/js/overlay/OverlayUtil.js&#45;&gt;src/js/application/ApplicationDispatcher.js</title>
<path fill="none" stroke="#000000" stroke-width="2" stroke-opacity="0.200000" d="M561.89,-368C579.23,-368 600.9,-368 621.3,-368"/>
<polygon fill="#000000" fill-opacity="0.200000" stroke="#000000" stroke-width="2" stroke-opacity="0.200000" points="621.23,-370.1 627.23,-368 621.23,-365.9 621.23,-370.1"/>
</g>
<!-- src/js/overlay/capture/OverlayCapture.js -->
<g id="node25" class="node">
<title>src/js/overlay/capture/OverlayCapture.js</title>
<g id="a_node25"><a xlink:href="src/js/overlay/capture/OverlayCapture.js" xlink:title="OverlayCapture.js">
<path fill="#ffffcc" stroke="black" d="M368.21,-225.25C368.21,-225.25 291.04,-225.25 291.04,-225.25 287.96,-225.25 284.88,-222.17 284.88,-219.08 284.88,-219.08 284.88,-212.92 284.88,-212.92 284.88,-209.83 287.96,-206.75 291.04,-206.75 291.04,-206.75 368.21,-206.75 368.21,-206.75 371.29,-206.75 374.38,-209.83 374.38,-212.92 374.38,-212.92 374.38,-219.08 374.38,-219.08 374.38,-222.17 371.29,-225.25 368.21,-225.25"/>
<text text-anchor="start" x="292.88" y="-212.7" font-family="Helvetica,sans-Serif" font-size="9.00">OverlayCapture.js</text>
</a>
</g>
</g>
<!-- src/js/overlay/capture/OverlayCapture.js&#45;&gt;src/js/overlay/OverlayUtil.js -->
<g id="edge30" class="edge">
<title>src/js/overlay/capture/OverlayCapture.js&#45;&gt;src/js/overlay/OverlayUtil.js</title>
<path fill="none" stroke="#000000" stroke-width="2" stroke-opacity="0.200000" d="M351.83,-225.6C367.6,-233.16 389.31,-244.49 406.75,-257 447.94,-286.55 489.85,-329.21 511.24,-352.08"/>
<polygon fill="#000000" fill-opacity="0.200000" stroke="#000000" stroke-width="2" stroke-opacity="0.200000" points="509.52,-353.32 515.13,-356.29 512.6,-350.46 509.52,-353.32"/>
</g>
<!-- src/js/overlay/media/OverlayMedia.js -->
<g id="node26" class="node">
<title>src/js/overlay/media/OverlayMedia.js</title>
<g id="a_node26"><a xlink:href="src/js/overlay/media/OverlayMedia.js" xlink:title="OverlayMedia.js">
<path fill="#ffffcc" stroke="black" d="M364.46,-286.25C364.46,-286.25 294.79,-286.25 294.79,-286.25 291.71,-286.25 288.62,-283.17 288.62,-280.08 288.62,-280.08 288.62,-273.92 288.62,-273.92 288.62,-270.83 291.71,-267.75 294.79,-267.75 294.79,-267.75 364.46,-267.75 364.46,-267.75 367.54,-267.75 370.62,-270.83 370.62,-273.92 370.62,-273.92 370.62,-280.08 370.62,-280.08 370.62,-283.17 367.54,-286.25 364.46,-286.25"/>
<text text-anchor="start" x="296.62" y="-273.7" font-family="Helvetica,sans-Serif" font-size="9.00">OverlayMedia.js</text>
</a>
</g>
</g>
<!-- src/js/overlay/media/OverlayMedia.js&#45;&gt;src/js/overlay/OverlayUtil.js -->
<g id="edge32" class="edge">
<title>src/js/overlay/media/OverlayMedia.js&#45;&gt;src/js/overlay/OverlayUtil.js</title>
<path fill="none" stroke="#000000" stroke-width="2" stroke-opacity="0.200000" d="M351.51,-286.74C386.57,-303.09 457.33,-336.09 497.04,-354.61"/>
<polygon fill="#000000" fill-opacity="0.200000" stroke="#000000" stroke-width="2" stroke-opacity="0.200000" points="495.95,-356.42 502.27,-357.05 497.72,-352.61 495.95,-356.42"/>
</g>
<!-- src/js/overlay/rhythm/OverlayRhythm.js -->
<g id="node27" class="node">
<title>src/js/overlay/rhythm/OverlayRhythm.js</title>
<g id="a_node27"><a xlink:href="src/js/overlay/rhythm/OverlayRhythm.js" xlink:title="OverlayRhythm.js">
<path fill="#ffffcc" stroke="black" d="M367.46,-347.25C367.46,-347.25 291.79,-347.25 291.79,-347.25 288.71,-347.25 285.62,-344.17 285.62,-341.08 285.62,-341.08 285.62,-334.92 285.62,-334.92 285.62,-331.83 288.71,-328.75 291.79,-328.75 291.79,-328.75 367.46,-328.75 367.46,-328.75 370.54,-328.75 373.62,-331.83 373.62,-334.92 373.62,-334.92 373.62,-341.08 373.62,-341.08 373.62,-344.17 370.54,-347.25 367.46,-347.25"/>
<text text-anchor="start" x="293.62" y="-334.7" font-family="Helvetica,sans-Serif" font-size="9.00">OverlayRhythm.js</text>
</a>
</g>
</g>
<!-- src/js/overlay/rhythm/OverlayRhythm.js&#45;&gt;src/js/overlay/OverlayUtil.js -->
<g id="edge34" class="edge">
<title>src/js/overlay/rhythm/OverlayRhythm.js&#45;&gt;src/js/overlay/OverlayUtil.js</title>
<path fill="none" stroke="#000000" stroke-width="2" stroke-opacity="0.200000" d="M373.93,-344.66C406.26,-349.63 450.24,-356.39 482.54,-361.36"/>
<polygon fill="#000000" fill-opacity="0.200000" stroke="#000000" stroke-width="2" stroke-opacity="0.200000" points="482.08,-363.41 488.33,-362.25 482.72,-359.26 482.08,-363.41"/>
</g>
<!-- src/js/rhythm/ViewRhythm.js -->
<g id="node28" class="node">
<title>src/js/rhythm/ViewRhythm.js</title>
<g id="a_node28"><a xlink:href="src/js/rhythm/ViewRhythm.js" xlink:title="ViewRhythm.js">
<path fill="#ffffcc" stroke="black" d="M106.33,-906.25C106.33,-906.25 41.92,-906.25 41.92,-906.25 38.83,-906.25 35.75,-903.17 35.75,-900.08 35.75,-900.08 35.75,-893.92 35.75,-893.92 35.75,-890.83 38.83,-887.75 41.92,-887.75 41.92,-887.75 106.33,-887.75 106.33,-887.75 109.42,-887.75 112.5,-890.83 112.5,-893.92 112.5,-893.92 112.5,-900.08 112.5,-900.08 112.5,-903.17 109.42,-906.25 106.33,-906.25"/>
<text text-anchor="start" x="43.75" y="-893.7" font-family="Helvetica,sans-Serif" font-size="9.00">ViewRhythm.js</text>
</a>
</g>
</g>
<!-- src/js/rhythm/ViewRhythmTrack.js -->
<g id="node29" class="node">
<title>src/js/rhythm/ViewRhythmTrack.js</title>
<g id="a_node29"><a xlink:href="src/js/rhythm/ViewRhythmTrack.js" xlink:title="ViewRhythmTrack.js">
<path fill="#ffffcc" stroke="black" d="M222.33,-906.25C222.33,-906.25 135.42,-906.25 135.42,-906.25 132.33,-906.25 129.25,-903.17 129.25,-900.08 129.25,-900.08 129.25,-893.92 129.25,-893.92 129.25,-890.83 132.33,-887.75 135.42,-887.75 135.42,-887.75 222.33,-887.75 222.33,-887.75 225.42,-887.75 228.5,-890.83 228.5,-893.92 228.5,-893.92 228.5,-900.08 228.5,-900.08 228.5,-903.17 225.42,-906.25 222.33,-906.25"/>
<text text-anchor="start" x="137.25" y="-893.7" font-family="Helvetica,sans-Serif" font-size="9.00">ViewRhythmTrack.js</text>
</a>
</g>
</g>
<!-- src/js/rhythm/ViewRhythm.js&#45;&gt;src/js/rhythm/ViewRhythmTrack.js -->
<g id="edge35" class="edge">
<title>src/js/rhythm/ViewRhythm.js&#45;&gt;src/js/rhythm/ViewRhythmTrack.js</title>
<path fill="none" stroke="#000000" stroke-width="2" stroke-opacity="0.200000" d="M112.8,-897C115.19,-897 117.62,-897 120.07,-897"/>
<polygon fill="#000000" fill-opacity="0.200000" stroke="#000000" stroke-width="2" stroke-opacity="0.200000" points="119.96,-899.1 125.96,-897 119.96,-894.9 119.96,-899.1"/>
</g>
<!-- src/js/view/render/RenderController.js&#45;&gt;src/js/application/ApplicationConfiguration.js -->
<g id="edge37" class="edge">
<title>src/js/view/render/RenderController.js&#45;&gt;src/js/application/ApplicationConfiguration.js</title>
<path fill="none" stroke="#000000" stroke-width="2" stroke-opacity="0.200000" d="M377.6,-88.31C447.2,-101.11 573.88,-126.43 614.75,-148 701.43,-193.75 780.31,-283.87 810.37,-320.72"/>
<polygon fill="#000000" fill-opacity="0.200000" stroke="#000000" stroke-width="2" stroke-opacity="0.200000" points="808.42,-321.64 813.82,-324.99 811.69,-319 808.42,-321.64"/>
</g>
<!-- src/js/view/render/RenderResizer.js -->
<g id="node31" class="node">
<title>src/js/view/render/RenderResizer.js</title>
<g id="a_node31"><a xlink:href="src/js/view/render/RenderResizer.js" xlink:title="RenderResizer.js">
<path fill="#ffffcc" stroke="black" d="M563.83,-58.25C563.83,-58.25 489.67,-58.25 489.67,-58.25 486.58,-58.25 483.5,-55.17 483.5,-52.08 483.5,-52.08 483.5,-45.92 483.5,-45.92 483.5,-42.83 486.58,-39.75 489.67,-39.75 489.67,-39.75 563.83,-39.75 563.83,-39.75 566.92,-39.75 570,-42.83 570,-45.92 570,-45.92 570,-52.08 570,-52.08 570,-55.17 566.92,-58.25 563.83,-58.25"/>
<text text-anchor="start" x="491.5" y="-45.7" font-family="Helvetica,sans-Serif" font-size="9.00">RenderResizer.js</text>
</a>
</g>
</g>
<!-- src/js/view/render/RenderController.js&#45;&gt;src/js/view/render/RenderResizer.js -->
<g id="edge38" class="edge">
<title>src/js/view/render/RenderController.js&#45;&gt;src/js/view/render/RenderResizer.js</title>
<path fill="none" stroke="#000000" stroke-width="2" stroke-opacity="0.200000" d="M377.74,-71.31C389.79,-69.17 402.74,-66.94 414.75,-65 434.16,-61.87 455.54,-58.72 474.3,-56.05"/>
<polygon fill="#000000" fill-opacity="0.200000" stroke="#000000" stroke-width="2" stroke-opacity="0.200000" points="474.36,-58.17 480.01,-55.25 473.77,-54.01 474.36,-58.17"/>
</g>
<!-- src/js/view/render/RenderSurface.js -->
<g id="node32" class="node">
<title>src/js/view/render/RenderSurface.js</title>
<g id="a_node32"><a xlink:href="src/js/view/render/RenderSurface.js" xlink:title="RenderSurface.js">
<path fill="#ffffcc" stroke="black" d="M564.21,-89.25C564.21,-89.25 489.29,-89.25 489.29,-89.25 486.21,-89.25 483.12,-86.17 483.12,-83.08 483.12,-83.08 483.12,-76.92 483.12,-76.92 483.12,-73.83 486.21,-70.75 489.29,-70.75 489.29,-70.75 564.21,-70.75 564.21,-70.75 567.29,-70.75 570.38,-73.83 570.38,-76.92 570.38,-76.92 570.38,-83.08 570.38,-83.08 570.38,-86.17 567.29,-89.25 564.21,-89.25"/>
<text text-anchor="start" x="491.12" y="-76.7" font-family="Helvetica,sans-Serif" font-size="9.00">RenderSurface.js</text>
</a>
</g>
</g>
<!-- src/js/view/render/RenderController.js&#45;&gt;src/js/view/render/RenderSurface.js -->
<g id="edge39" class="edge">
<title>src/js/view/render/RenderController.js&#45;&gt;src/js/view/render/RenderSurface.js</title>
<path fill="none" stroke="#000000" stroke-width="2" stroke-opacity="0.200000" d="M377.86,-80C406.89,-80 444.1,-80 473.94,-80"/>
<polygon fill="#000000" fill-opacity="0.200000" stroke="#000000" stroke-width="2" stroke-opacity="0.200000" points="473.92,-82.1 479.92,-80 473.92,-77.9 473.92,-82.1"/>
</g>
<!-- src/js/view/render/RenderResizer.js&#45;&gt;src/js/application/ApplicationConfiguration.js -->
<g id="edge40" class="edge">
<title>src/js/view/render/RenderResizer.js&#45;&gt;src/js/application/ApplicationConfiguration.js</title>
<path fill="none" stroke="#000000" stroke-width="2" stroke-opacity="0.200000" d="M570.37,-42.78C620.41,-38.02 702.95,-38.49 753.12,-83 789.13,-114.94 813.32,-265.95 820.8,-318.74"/>
<polygon fill="#000000" fill-opacity="0.200000" stroke="#000000" stroke-width="2" stroke-opacity="0.200000" points="818.68,-318.75 821.58,-324.4 822.84,-318.17 818.68,-318.75"/>
</g>
<!-- src/js/view/render/RenderResizer.js&#45;&gt;src/js/application/ApplicationLogger.js -->
<g id="edge42" class="edge">
<title>src/js/view/render/RenderResizer.js&#45;&gt;src/js/application/ApplicationLogger.js</title>
<path fill="none" stroke="#000000" stroke-width="2" stroke-opacity="0.200000" d="M570.25,-53.48C584.71,-55.87 600.74,-59.5 614.75,-65 682.59,-91.64 716.94,-89.73 753.12,-153 765.82,-175.2 745.11,-363.06 761.12,-383 762.79,-385.08 764.69,-386.9 766.76,-388.51"/>
<polygon fill="#000000" fill-opacity="0.200000" stroke="#000000" stroke-width="2" stroke-opacity="0.200000" points="765.59,-390.25 771.8,-391.59 767.78,-386.67 765.59,-390.25"/>
</g>
<!-- src/js/view/render/RenderResizer.js&#45;&gt;src/js/application/ApplicationDispatcher.js -->
<g id="edge41" class="edge">
<title>src/js/view/render/RenderResizer.js&#45;&gt;src/js/application/ApplicationDispatcher.js</title>
<path fill="none" stroke="#000000" stroke-width="2" stroke-opacity="0.200000" d="M570.09,-46.19C586.47,-47.5 603.86,-52.29 614.75,-65 635.51,-89.23 602.76,-327.14 622.75,-352 623.17,-352.52 623.6,-353.02 624.04,-353.51"/>
<polygon fill="#000000" fill-opacity="0.200000" stroke="#000000" stroke-width="2" stroke-opacity="0.200000" points="622.29,-354.78 628.21,-357.1 625.03,-351.59 622.29,-354.78"/>
</g>
<!-- src/js/view/render/RenderSurface.js&#45;&gt;src/js/application/ApplicationLogger.js -->
<g id="edge43" class="edge">
<title>src/js/view/render/RenderSurface.js&#45;&gt;src/js/application/ApplicationLogger.js</title>
<path fill="none" stroke="#000000" stroke-width="2" stroke-opacity="0.200000" d="M542.14,-89.66C560.11,-102.07 591.34,-124.78 614.75,-148 684.91,-217.57 714.55,-231.04 753.12,-322 763.8,-347.17 743,-362.53 761.12,-383 762.82,-384.92 764.71,-386.62 766.75,-388.12"/>
<polygon fill="#000000" fill-opacity="0.200000" stroke="#000000" stroke-width="2" stroke-opacity="0.200000" points="765.35,-389.73 771.58,-391 767.5,-386.13 765.35,-389.73"/>
</g>
</g>
</svg>
