<?xml version="1.0" encoding="UTF-8" standalone="no"?>
<!DOCTYPE svg PUBLIC "-//W3C//DTD SVG 1.1//EN"
 "http://www.w3.org/Graphics/SVG/1.1/DTD/svg11.dtd">
<!-- Generated by graphviz version 12.2.1 (20241206.2353)
 -->
<!-- Title: dependency&#45;cruiser output Pages: 1 -->
<svg width="883pt" height="1996pt"
 viewBox="0.00 0.00 883.25 1996.00" xmlns="http://www.w3.org/2000/svg" xmlns:xlink="http://www.w3.org/1999/xlink">
<g id="graph0" class="graph" transform="scale(1 1) rotate(0) translate(4 1992)">
<title>dependency&#45;cruiser output</title>
<polygon fill="white" stroke="none" points="-4,4 -4,-1992 879.25,-1992 879.25,4 -4,4"/>
<g id="clust1" class="cluster">
<title>cluster_src</title>
<path fill="#ffffff" stroke="black" stroke-width="2" d="M20,-8C20,-8 855.25,-8 855.25,-8 861.25,-8 867.25,-14 867.25,-20 867.25,-20 867.25,-1968 867.25,-1968 867.25,-1974 861.25,-1980 855.25,-1980 855.25,-1980 20,-1980 20,-1980 14,-1980 8,-1974 8,-1968 8,-1968 8,-20 8,-20 8,-14 14,-8 20,-8"/>
<text text-anchor="middle" x="437.62" y="-1967.45" font-family="Helvetica,sans-Serif" font-weight="bold" font-size="9.00">src</text>
</g>
<g id="clust2" class="cluster">
<title>cluster_src/js</title>
<path fill="#ffffff" stroke="black" stroke-width="2" d="M28,-16C28,-16 847.25,-16 847.25,-16 853.25,-16 859.25,-22 859.25,-28 859.25,-28 859.25,-1941 859.25,-1941 859.25,-1947 853.25,-1953 847.25,-1953 847.25,-1953 28,-1953 28,-1953 22,-1953 16,-1947 16,-1941 16,-1941 16,-28 16,-28 16,-22 22,-16 28,-16"/>
<text text-anchor="middle" x="437.62" y="-1940.45" font-family="Helvetica,sans-Serif" font-weight="bold" font-size="9.00">js</text>
</g>
<g id="clust3" class="cluster">
<title>cluster_src/js/application</title>
<path fill="#ffffff" stroke="black" stroke-width="2" d="M548.88,-1512C548.88,-1512 813.75,-1512 813.75,-1512 819.75,-1512 825.75,-1518 825.75,-1524 825.75,-1524 825.75,-1615 825.75,-1615 825.75,-1621 819.75,-1627 813.75,-1627 813.75,-1627 548.88,-1627 548.88,-1627 542.88,-1627 536.88,-1621 536.88,-1615 536.88,-1615 536.88,-1524 536.88,-1524 536.88,-1518 542.88,-1512 548.88,-1512"/>
<text text-anchor="middle" x="681.31" y="-1614.45" font-family="Helvetica,sans-Serif" font-weight="bold" font-size="9.00">application</text>
</g>
<g id="clust4" class="cluster">
<title>cluster_src/js/controller</title>
<path fill="#ffffff" stroke="black" stroke-width="2" d="M45.75,-1696C45.75,-1696 102.5,-1696 102.5,-1696 108.5,-1696 114.5,-1702 114.5,-1708 114.5,-1708 114.5,-1737 114.5,-1737 114.5,-1743 108.5,-1749 102.5,-1749 102.5,-1749 45.75,-1749 45.75,-1749 39.75,-1749 33.75,-1743 33.75,-1737 33.75,-1737 33.75,-1708 33.75,-1708 33.75,-1702 39.75,-1696 45.75,-1696"/>
<text text-anchor="middle" x="74.12" y="-1736.45" font-family="Helvetica,sans-Serif" font-weight="bold" font-size="9.00">controller</text>
</g>
<g id="clust5" class="cluster">
<title>cluster_src/js/data</title>
<path fill="#ffffff" stroke="black" stroke-width="2" d="M36,-1873C36,-1873 184,-1873 184,-1873 190,-1873 196,-1879 196,-1885 196,-1885 196,-1914 196,-1914 196,-1920 190,-1926 184,-1926 184,-1926 36,-1926 36,-1926 30,-1926 24,-1920 24,-1914 24,-1914 24,-1885 24,-1885 24,-1879 30,-1873 36,-1873"/>
<text text-anchor="middle" x="110" y="-1913.45" font-family="Helvetica,sans-Serif" font-weight="bold" font-size="9.00">data</text>
</g>
<g id="clust6" class="cluster">
<title>cluster_src/js/directable</title>
<path fill="#ffffff" stroke="black" stroke-width="2" d="M216.75,-24C216.75,-24 839.25,-24 839.25,-24 845.25,-24 851.25,-30 851.25,-36 851.25,-36 851.25,-1475 851.25,-1475 851.25,-1481 845.25,-1487 839.25,-1487 839.25,-1487 216.75,-1487 216.75,-1487 210.75,-1487 204.75,-1481 204.75,-1475 204.75,-1475 204.75,-36 204.75,-36 204.75,-30 210.75,-24 216.75,-24"/>
<text text-anchor="middle" x="528" y="-1474.45" font-family="Helvetica,sans-Serif" font-weight="bold" font-size="9.00">directable</text>
</g>
<g id="clust7" class="cluster">
<title>cluster_src/js/directable/directables</title>
<path fill="#ffffff" stroke="black" stroke-width="2" d="M224.75,-32C224.75,-32 831.25,-32 831.25,-32 837.25,-32 843.25,-38 843.25,-44 843.25,-44 843.25,-1448 843.25,-1448 843.25,-1454 837.25,-1460 831.25,-1460 831.25,-1460 224.75,-1460 224.75,-1460 218.75,-1460 212.75,-1454 212.75,-1448 212.75,-1448 212.75,-44 212.75,-44 212.75,-38 218.75,-32 224.75,-32"/>
<text text-anchor="middle" x="528" y="-1447.45" font-family="Helvetica,sans-Serif" font-weight="bold" font-size="9.00">directables</text>
</g>
<g id="clust8" class="cluster">
<title>cluster_src/js/directable/directables/dotmatrix</title>
<path fill="#ffffff" stroke="black" stroke-width="2" d="M267.75,-40C267.75,-40 823.25,-40 823.25,-40 829.25,-40 835.25,-46 835.25,-52 835.25,-52 835.25,-1019 835.25,-1019 835.25,-1025 829.25,-1031 823.25,-1031 823.25,-1031 267.75,-1031 267.75,-1031 261.75,-1031 255.75,-1025 255.75,-1019 255.75,-1019 255.75,-52 255.75,-52 255.75,-46 261.75,-40 267.75,-40"/>
<text text-anchor="middle" x="545.5" y="-1018.45" font-family="Helvetica,sans-Serif" font-weight="bold" font-size="9.00">dotmatrix</text>
</g>
<g id="clust9" class="cluster">
<title>cluster_src/js/directable/directables/dotmatrix/dot</title>
<path fill="#ffffff" stroke="black" stroke-width="2" d="M568.38,-171C568.38,-171 777.62,-171 777.62,-171 783.62,-171 789.62,-177 789.62,-183 789.62,-183 789.62,-212 789.62,-212 789.62,-218 783.62,-224 777.62,-224 777.62,-224 568.38,-224 568.38,-224 562.38,-224 556.38,-218 556.38,-212 556.38,-212 556.38,-183 556.38,-183 556.38,-177 562.38,-171 568.38,-171"/>
<text text-anchor="middle" x="673" y="-211.45" font-family="Helvetica,sans-Serif" font-weight="bold" font-size="9.00">dot</text>
</g>
<g id="clust10" class="cluster">
<title>cluster_src/js/directable/directables/dotmatrix/grid</title>
<path fill="#ffffff" stroke="black" stroke-width="2" d="M694,-232C694,-232 815.25,-232 815.25,-232 821.25,-232 827.25,-238 827.25,-244 827.25,-244 827.25,-335 827.25,-335 827.25,-341 821.25,-347 815.25,-347 815.25,-347 694,-347 694,-347 688,-347 682,-341 682,-335 682,-335 682,-244 682,-244 682,-238 688,-232 694,-232"/>
<text text-anchor="middle" x="754.62" y="-334.45" font-family="Helvetica,sans-Serif" font-weight="bold" font-size="9.00">grid</text>
</g>
<g id="clust11" class="cluster">
<title>cluster_src/js/directable/directables/dotmatrix/shape</title>
<path fill="#ffffff" stroke="black" stroke-width="2" d="M542,-242C542,-242 662,-242 662,-242 668,-242 674,-248 674,-254 674,-254 674,-992 674,-992 674,-998 668,-1004 662,-1004 662,-1004 542,-1004 542,-1004 536,-1004 530,-998 530,-992 530,-992 530,-254 530,-254 530,-248 536,-242 542,-242"/>
<text text-anchor="middle" x="602" y="-991.45" font-family="Helvetica,sans-Serif" font-weight="bold" font-size="9.00">shape</text>
</g>
<g id="clust12" class="cluster">
<title>cluster_src/js/directable/directables/dotmatrix/shape/fill</title>
<path fill="#ffffff" stroke="black" stroke-width="2" d="M560.5,-250C560.5,-250 643.5,-250 643.5,-250 649.5,-250 655.5,-256 655.5,-262 655.5,-262 655.5,-384 655.5,-384 655.5,-390 649.5,-396 643.5,-396 643.5,-396 560.5,-396 560.5,-396 554.5,-396 548.5,-390 548.5,-384 548.5,-384 548.5,-262 548.5,-262 548.5,-256 554.5,-250 560.5,-250"/>
<text text-anchor="middle" x="602" y="-383.45" font-family="Helvetica,sans-Serif" font-weight="bold" font-size="9.00">fill</text>
</g>
<g id="clust13" class="cluster">
<title>cluster_src/js/directable/directables/dotmatrix/shape/glyph</title>
<path fill="#ffffff" stroke="black" stroke-width="2" d="M562,-404C562,-404 642,-404 642,-404 648,-404 654,-410 654,-416 654,-416 654,-755 654,-755 654,-761 648,-767 642,-767 642,-767 562,-767 562,-767 556,-767 550,-761 550,-755 550,-755 550,-416 550,-416 550,-410 556,-404 562,-404"/>
<text text-anchor="middle" x="602" y="-754.45" font-family="Helvetica,sans-Serif" font-weight="bold" font-size="9.00">glyph</text>
</g>
<g id="clust14" class="cluster">
<title>cluster_src/js/directable/directables/dotmatrix/shape/line</title>
<path fill="#ffffff" stroke="black" stroke-width="2" d="M550,-775C550,-775 654,-775 654,-775 660,-775 666,-781 666,-787 666,-787 666,-847 666,-847 666,-853 660,-859 654,-859 654,-859 550,-859 550,-859 544,-859 538,-853 538,-847 538,-847 538,-787 538,-787 538,-781 544,-775 550,-775"/>
<text text-anchor="middle" x="602" y="-846.45" font-family="Helvetica,sans-Serif" font-weight="bold" font-size="9.00">line</text>
</g>
<g id="clust15" class="cluster">
<title>cluster_src/js/directable/directables/dotmatrix/shape/primative</title>
<path fill="#ffffff" stroke="black" stroke-width="2" d="M559,-867C559,-867 645,-867 645,-867 651,-867 657,-873 657,-879 657,-879 657,-908 657,-908 657,-914 651,-920 645,-920 645,-920 559,-920 559,-920 553,-920 547,-914 547,-908 547,-908 547,-879 547,-879 547,-873 553,-867 559,-867"/>
<text text-anchor="middle" x="602" y="-907.45" font-family="Helvetica,sans-Serif" font-weight="bold" font-size="9.00">primative</text>
</g>
<g id="clust16" class="cluster">
<title>cluster_src/js/directable/directables/dotmatrix/view</title>
<path fill="#ffffff" stroke="black" stroke-width="2" d="M425.75,-48C425.75,-48 777.62,-48 777.62,-48 783.62,-48 789.62,-54 789.62,-60 789.62,-60 789.62,-151 789.62,-151 789.62,-157 783.62,-163 777.62,-163 777.62,-163 425.75,-163 425.75,-163 419.75,-163 413.75,-157 413.75,-151 413.75,-151 413.75,-60 413.75,-60 413.75,-54 419.75,-48 425.75,-48"/>
<text text-anchor="middle" x="601.69" y="-150.45" font-family="Helvetica,sans-Serif" font-weight="bold" font-size="9.00">view</text>
</g>
<g id="clust17" class="cluster">
<title>cluster_src/js/directable/directables/frame</title>
<path fill="#ffffff" stroke="black" stroke-width="2" d="M274.12,-1319C274.12,-1319 359.38,-1319 359.38,-1319 365.38,-1319 371.38,-1325 371.38,-1331 371.38,-1331 371.38,-1360 371.38,-1360 371.38,-1366 365.38,-1372 359.38,-1372 359.38,-1372 274.12,-1372 274.12,-1372 268.12,-1372 262.12,-1366 262.12,-1360 262.12,-1360 262.12,-1331 262.12,-1331 262.12,-1325 268.12,-1319 274.12,-1319"/>
<text text-anchor="middle" x="316.75" y="-1359.45" font-family="Helvetica,sans-Serif" font-weight="bold" font-size="9.00">frame</text>
</g>
<g id="clust18" class="cluster">
<title>cluster_src/js/directable/directables/rhythm</title>
<path fill="#ffffff" stroke="black" stroke-width="2" d="M232.75,-1100C232.75,-1100 507.62,-1100 507.62,-1100 513.62,-1100 519.62,-1106 519.62,-1112 519.62,-1112 519.62,-1299 519.62,-1299 519.62,-1305 513.62,-1311 507.62,-1311 507.62,-1311 232.75,-1311 232.75,-1311 226.75,-1311 220.75,-1305 220.75,-1299 220.75,-1299 220.75,-1112 220.75,-1112 220.75,-1106 226.75,-1100 232.75,-1100"/>
<text text-anchor="middle" x="370.19" y="-1298.45" font-family="Helvetica,sans-Serif" font-weight="bold" font-size="9.00">rhythm</text>
</g>
<g id="clust19" class="cluster">
<title>cluster_src/js/directable/directables/rhythm/asdr</title>
<path fill="#ffffff" stroke="black" stroke-width="2" d="M240.75,-1108C240.75,-1108 392.75,-1108 392.75,-1108 398.75,-1108 404.75,-1114 404.75,-1120 404.75,-1120 404.75,-1211 404.75,-1211 404.75,-1217 398.75,-1223 392.75,-1223 392.75,-1223 240.75,-1223 240.75,-1223 234.75,-1223 228.75,-1217 228.75,-1211 228.75,-1211 228.75,-1120 228.75,-1120 228.75,-1114 234.75,-1108 240.75,-1108"/>
<text text-anchor="middle" x="316.75" y="-1210.45" font-family="Helvetica,sans-Serif" font-weight="bold" font-size="9.00">asdr</text>
</g>
<g id="clust20" class="cluster">
<title>cluster_src/js/directable/directables/rhythm/bpm</title>
<path fill="#ffffff" stroke="black" stroke-width="2" d="M261.75,-1231C261.75,-1231 371.75,-1231 371.75,-1231 377.75,-1231 383.75,-1237 383.75,-1243 383.75,-1243 383.75,-1272 383.75,-1272 383.75,-1278 377.75,-1284 371.75,-1284 371.75,-1284 261.75,-1284 261.75,-1284 255.75,-1284 249.75,-1278 249.75,-1272 249.75,-1272 249.75,-1243 249.75,-1243 249.75,-1237 255.75,-1231 261.75,-1231"/>
<text text-anchor="middle" x="316.75" y="-1271.45" font-family="Helvetica,sans-Serif" font-weight="bold" font-size="9.00">bpm</text>
</g>
<g id="clust21" class="cluster">
<title>cluster_src/js/directable/directables/rhythm2</title>
<path fill="#ffffff" stroke="black" stroke-width="2" d="M282.38,-1039C282.38,-1039 508,-1039 508,-1039 514,-1039 520,-1045 520,-1051 520,-1051 520,-1080 520,-1080 520,-1086 514,-1092 508,-1092 508,-1092 282.38,-1092 282.38,-1092 276.38,-1092 270.38,-1086 270.38,-1080 270.38,-1080 270.38,-1051 270.38,-1051 270.38,-1045 276.38,-1039 282.38,-1039"/>
<text text-anchor="middle" x="395.19" y="-1079.45" font-family="Helvetica,sans-Serif" font-weight="bold" font-size="9.00">rhythm2</text>
</g>
<g id="clust22" class="cluster">
<title>cluster_src/js/directable/directables/title</title>
<path fill="#ffffff" stroke="black" stroke-width="2" d="M278.62,-1380C278.62,-1380 354.88,-1380 354.88,-1380 360.88,-1380 366.88,-1386 366.88,-1392 366.88,-1392 366.88,-1421 366.88,-1421 366.88,-1427 360.88,-1433 354.88,-1433 354.88,-1433 278.62,-1433 278.62,-1433 272.62,-1433 266.62,-1427 266.62,-1421 266.62,-1421 266.62,-1392 266.62,-1392 266.62,-1386 272.62,-1380 278.62,-1380"/>
<text text-anchor="middle" x="316.75" y="-1420.45" font-family="Helvetica,sans-Serif" font-weight="bold" font-size="9.00">title</text>
</g>
<g id="clust23" class="cluster">
<title>cluster_src/js/director</title>
<path fill="#ffffff" stroke="black" stroke-width="2" d="M136.25,-1422C136.25,-1422 184.75,-1422 184.75,-1422 190.75,-1422 196.75,-1428 196.75,-1434 196.75,-1434 196.75,-1463 196.75,-1463 196.75,-1469 190.75,-1475 184.75,-1475 184.75,-1475 136.25,-1475 136.25,-1475 130.25,-1475 124.25,-1469 124.25,-1463 124.25,-1463 124.25,-1434 124.25,-1434 124.25,-1428 130.25,-1422 136.25,-1422"/>
<text text-anchor="middle" x="160.5" y="-1462.45" font-family="Helvetica,sans-Serif" font-weight="bold" font-size="9.00">director</text>
</g>
<g id="clust24" class="cluster">
<title>cluster_src/js/enum</title>
<path fill="#ffffff" stroke="black" stroke-width="2" d="M561.62,-1685C561.62,-1685 642.38,-1685 642.38,-1685 648.38,-1685 654.38,-1691 654.38,-1697 654.38,-1697 654.38,-1726 654.38,-1726 654.38,-1732 648.38,-1738 642.38,-1738 642.38,-1738 561.62,-1738 561.62,-1738 555.62,-1738 549.62,-1732 549.62,-1726 549.62,-1726 549.62,-1697 549.62,-1697 549.62,-1691 555.62,-1685 561.62,-1685"/>
<text text-anchor="middle" x="602" y="-1725.45" font-family="Helvetica,sans-Serif" font-weight="bold" font-size="9.00">enum</text>
</g>
<g id="clust25" class="cluster">
<title>cluster_src/js/overlay</title>
<path fill="#ffffff" stroke="black" stroke-width="2" d="M136.62,-1525C136.62,-1525 493.38,-1525 493.38,-1525 499.38,-1525 505.38,-1531 505.38,-1537 505.38,-1537 505.38,-1662 505.38,-1662 505.38,-1668 499.38,-1674 493.38,-1674 493.38,-1674 136.62,-1674 136.62,-1674 130.62,-1674 124.62,-1668 124.62,-1662 124.62,-1662 124.62,-1537 124.62,-1537 124.62,-1531 130.62,-1525 136.62,-1525"/>
<text text-anchor="middle" x="315" y="-1661.45" font-family="Helvetica,sans-Serif" font-weight="bold" font-size="9.00">overlay</text>
</g>
<g id="clust26" class="cluster">
<title>cluster_src/js/overlay/displayFormat</title>
<path fill="#ffffff" stroke="black" stroke-width="2" d="M262.88,-1594C262.88,-1594 370.62,-1594 370.62,-1594 376.62,-1594 382.62,-1600 382.62,-1606 382.62,-1606 382.62,-1635 382.62,-1635 382.62,-1641 376.62,-1647 370.62,-1647 370.62,-1647 262.88,-1647 262.88,-1647 256.88,-1647 250.88,-1641 250.88,-1635 250.88,-1635 250.88,-1606 250.88,-1606 250.88,-1600 256.88,-1594 262.88,-1594"/>
<text text-anchor="middle" x="316.75" y="-1634.45" font-family="Helvetica,sans-Serif" font-weight="bold" font-size="9.00">displayFormat</text>
</g>
<g id="clust27" class="cluster">
<title>cluster_src/js/overlay/overlay</title>
<path fill="#ffffff" stroke="black" stroke-width="2" d="M277.12,-1533C277.12,-1533 356.38,-1533 356.38,-1533 362.38,-1533 368.38,-1539 368.38,-1545 368.38,-1545 368.38,-1574 368.38,-1574 368.38,-1580 362.38,-1586 356.38,-1586 356.38,-1586 277.12,-1586 277.12,-1586 271.12,-1586 265.12,-1580 265.12,-1574 265.12,-1574 265.12,-1545 265.12,-1545 265.12,-1539 271.12,-1533 277.12,-1533"/>
<text text-anchor="middle" x="316.75" y="-1573.45" font-family="Helvetica,sans-Serif" font-weight="bold" font-size="9.00">overlay</text>
</g>
<g id="clust28" class="cluster">
<title>cluster_src/js/view</title>
<path fill="#ffffff" stroke="black" stroke-width="2" d="M137.5,-1736C137.5,-1736 510,-1736 510,-1736 516,-1736 522,-1742 522,-1748 522,-1748 522,-1843 522,-1843 522,-1849 516,-1855 510,-1855 510,-1855 137.5,-1855 137.5,-1855 131.5,-1855 125.5,-1849 125.5,-1843 125.5,-1843 125.5,-1748 125.5,-1748 125.5,-1742 131.5,-1736 137.5,-1736"/>
<text text-anchor="middle" x="323.75" y="-1842.45" font-family="Helvetica,sans-Serif" font-weight="bold" font-size="9.00">view</text>
</g>
<g id="clust29" class="cluster">
<title>cluster_src/js/view/render</title>
<path fill="#ffffff" stroke="black" stroke-width="2" d="M273,-1744C273,-1744 502,-1744 502,-1744 508,-1744 514,-1750 514,-1756 514,-1756 514,-1816 514,-1816 514,-1822 508,-1828 502,-1828 502,-1828 273,-1828 273,-1828 267,-1828 261,-1822 261,-1816 261,-1816 261,-1756 261,-1756 261,-1750 267,-1744 273,-1744"/>
<text text-anchor="middle" x="387.5" y="-1815.45" font-family="Helvetica,sans-Serif" font-weight="bold" font-size="9.00">render</text>
</g>
<!-- src/js/application/Application.js -->
<g id="node1" class="node">
<title>src/js/application/Application.js</title>
<g id="a_node1"><a xlink:href="src/js/application/Application.js" xlink:title="Application.js">
<path fill="#ffffcc" stroke="black" d="M631.21,-1600.25C631.21,-1600.25 572.79,-1600.25 572.79,-1600.25 569.71,-1600.25 566.62,-1597.17 566.62,-1594.08 566.62,-1594.08 566.62,-1587.92 566.62,-1587.92 566.62,-1584.83 569.71,-1581.75 572.79,-1581.75 572.79,-1581.75 631.21,-1581.75 631.21,-1581.75 634.29,-1581.75 637.38,-1584.83 637.38,-1587.92 637.38,-1587.92 637.38,-1594.08 637.38,-1594.08 637.38,-1597.17 634.29,-1600.25 631.21,-1600.25"/>
<text text-anchor="start" x="574.62" y="-1587.7" font-family="Helvetica,sans-Serif" font-size="9.00">Application.js</text>
</a>
</g>
</g>
<!-- src/js/controller/Controller.js -->
<g id="node2" class="node">
<title>src/js/controller/Controller.js</title>
<g id="a_node2"><a xlink:href="src/js/controller/Controller.js" xlink:title="Controller.js">
<path fill="#ffffcc" stroke="black" d="M100.33,-1722.25C100.33,-1722.25 47.92,-1722.25 47.92,-1722.25 44.83,-1722.25 41.75,-1719.17 41.75,-1716.08 41.75,-1716.08 41.75,-1709.92 41.75,-1709.92 41.75,-1706.83 44.83,-1703.75 47.92,-1703.75 47.92,-1703.75 100.33,-1703.75 100.33,-1703.75 103.42,-1703.75 106.5,-1706.83 106.5,-1709.92 106.5,-1709.92 106.5,-1716.08 106.5,-1716.08 106.5,-1719.17 103.42,-1722.25 100.33,-1722.25"/>
<text text-anchor="start" x="49.75" y="-1709.7" font-family="Helvetica,sans-Serif" font-size="9.00">Controller.js</text>
</a>
</g>
</g>
<!-- src/js/application/Application.js&#45;&gt;src/js/controller/Controller.js -->
<g id="edge1" class="edge">
<title>src/js/application/Application.js&#45;&gt;src/js/controller/Controller.js</title>
<path fill="none" stroke="#000000" stroke-width="2" stroke-opacity="0.200000" d="M591.84,-1600.28C576.9,-1615.89 547.23,-1648.95 530,-1682 524.41,-1692.72 531.68,-1700.76 522,-1708 458.72,-1755.29 213.34,-1730.51 115.61,-1718.39"/>
<polygon fill="#000000" fill-opacity="0.200000" stroke="#000000" stroke-width="2" stroke-opacity="0.200000" points="116.12,-1716.34 109.91,-1717.67 115.6,-1720.51 116.12,-1716.34"/>
</g>
<!-- src/js/application/ApplicationConfiguration.js -->
<g id="node3" class="node">
<title>src/js/application/ApplicationConfiguration.js</title>
<g id="a_node3"><a xlink:href="src/js/application/ApplicationConfiguration.js" xlink:title="ApplicationConfiguration.js">
<path fill="#ffffcc" stroke="black" d="M811.58,-1600.25C811.58,-1600.25 697.67,-1600.25 697.67,-1600.25 694.58,-1600.25 691.5,-1597.17 691.5,-1594.08 691.5,-1594.08 691.5,-1587.92 691.5,-1587.92 691.5,-1584.83 694.58,-1581.75 697.67,-1581.75 697.67,-1581.75 811.58,-1581.75 811.58,-1581.75 814.67,-1581.75 817.75,-1584.83 817.75,-1587.92 817.75,-1587.92 817.75,-1594.08 817.75,-1594.08 817.75,-1597.17 814.67,-1600.25 811.58,-1600.25"/>
<text text-anchor="start" x="699.5" y="-1587.7" font-family="Helvetica,sans-Serif" font-size="9.00">ApplicationConfiguration.js</text>
</a>
</g>
</g>
<!-- src/js/application/Application.js&#45;&gt;src/js/application/ApplicationConfiguration.js -->
<g id="edge2" class="edge">
<title>src/js/application/Application.js&#45;&gt;src/js/application/ApplicationConfiguration.js</title>
<path fill="none" stroke="#000000" stroke-width="2" stroke-opacity="0.200000" d="M637.56,-1591C650.97,-1591 666.85,-1591 682.48,-1591"/>
<polygon fill="#000000" fill-opacity="0.200000" stroke="#000000" stroke-width="2" stroke-opacity="0.200000" points="682.1,-1593.1 688.1,-1591 682.1,-1588.9 682.1,-1593.1"/>
</g>
<!-- src/js/application/ApplicationLogger.js -->
<g id="node4" class="node">
<title>src/js/application/ApplicationLogger.js</title>
<g id="a_node4"><a xlink:href="src/js/application/ApplicationLogger.js" xlink:title="ApplicationLogger.js">
<path fill="#ffffcc" stroke="black" d="M798.08,-1538.25C798.08,-1538.25 711.17,-1538.25 711.17,-1538.25 708.08,-1538.25 705,-1535.17 705,-1532.08 705,-1532.08 705,-1525.92 705,-1525.92 705,-1522.83 708.08,-1519.75 711.17,-1519.75 711.17,-1519.75 798.08,-1519.75 798.08,-1519.75 801.17,-1519.75 804.25,-1522.83 804.25,-1525.92 804.25,-1525.92 804.25,-1532.08 804.25,-1532.08 804.25,-1535.17 801.17,-1538.25 798.08,-1538.25"/>
<text text-anchor="start" x="713" y="-1525.7" font-family="Helvetica,sans-Serif" font-size="9.00">ApplicationLogger.js</text>
</a>
</g>
</g>
<!-- src/js/application/Application.js&#45;&gt;src/js/application/ApplicationLogger.js -->
<g id="edge3" class="edge">
<title>src/js/application/Application.js&#45;&gt;src/js/application/ApplicationLogger.js</title>
<path fill="none" stroke="#000000" stroke-width="2" stroke-opacity="0.200000" d="M637.62,-1590.52C650.51,-1588.62 664.35,-1584.28 674,-1575 683.95,-1565.43 672.05,-1554.56 682,-1545 686.1,-1541.06 690.95,-1538.01 696.16,-1535.66"/>
<polygon fill="#000000" fill-opacity="0.200000" stroke="#000000" stroke-width="2" stroke-opacity="0.200000" points="696.87,-1537.63 701.75,-1533.57 695.4,-1533.7 696.87,-1537.63"/>
</g>
<!-- src/js/controller/Controller.js&#45;&gt;src/js/application/ApplicationLogger.js -->
<g id="edge5" class="edge">
<title>src/js/controller/Controller.js&#45;&gt;src/js/application/ApplicationLogger.js</title>
<path fill="none" stroke="#000000" stroke-width="2" stroke-opacity="0.200000" d="M74.97,-1722.52C75.12,-1749.21 79.62,-1824.93 124.25,-1858 141.35,-1870.67 294.46,-1864 315.75,-1864 315.75,-1864 315.75,-1864 463.38,-1864 564.16,-1864 616.05,-1862.45 674,-1780 689.02,-1758.63 665.32,-1565.11 682,-1545 685.88,-1540.32 690.8,-1536.83 696.24,-1534.25"/>
<polygon fill="#000000" fill-opacity="0.200000" stroke="#000000" stroke-width="2" stroke-opacity="0.200000" points="696.84,-1536.27 701.69,-1532.16 695.34,-1532.35 696.84,-1536.27"/>
</g>
<!-- src/js/director/Director.js -->
<g id="node7" class="node">
<title>src/js/director/Director.js</title>
<g id="a_node7"><a xlink:href="src/js/director/Director.js" xlink:title="Director.js">
<path fill="#ffffcc" stroke="black" d="M182.58,-1448.25C182.58,-1448.25 138.42,-1448.25 138.42,-1448.25 135.33,-1448.25 132.25,-1445.17 132.25,-1442.08 132.25,-1442.08 132.25,-1435.92 132.25,-1435.92 132.25,-1432.83 135.33,-1429.75 138.42,-1429.75 138.42,-1429.75 182.58,-1429.75 182.58,-1429.75 185.67,-1429.75 188.75,-1432.83 188.75,-1435.92 188.75,-1435.92 188.75,-1442.08 188.75,-1442.08 188.75,-1445.17 185.67,-1448.25 182.58,-1448.25"/>
<text text-anchor="start" x="140.25" y="-1435.7" font-family="Helvetica,sans-Serif" font-size="9.00">Director.js</text>
</a>
</g>
</g>
<!-- src/js/controller/Controller.js&#45;&gt;src/js/director/Director.js -->
<g id="edge6" class="edge">
<title>src/js/controller/Controller.js&#45;&gt;src/js/director/Director.js</title>
<path fill="none" stroke="#000000" stroke-width="2" stroke-opacity="0.200000" d="M77.08,-1703.31C82.9,-1675 101.18,-1590.1 124.25,-1522 132.12,-1498.77 143.56,-1472.88 151.25,-1456.29"/>
<polygon fill="#000000" fill-opacity="0.200000" stroke="#000000" stroke-width="2" stroke-opacity="0.200000" points="152.96,-1457.59 153.61,-1451.27 149.16,-1455.81 152.96,-1457.59"/>
</g>
<!-- src/js/overlay/Overlay.js -->
<g id="node8" class="node">
<title>src/js/overlay/Overlay.js</title>
<g id="a_node8"><a xlink:href="src/js/overlay/Overlay.js" xlink:title="Overlay.js">
<path fill="#ffffcc" stroke="black" d="M182.21,-1590.25C182.21,-1590.25 138.79,-1590.25 138.79,-1590.25 135.71,-1590.25 132.62,-1587.17 132.62,-1584.08 132.62,-1584.08 132.62,-1577.92 132.62,-1577.92 132.62,-1574.83 135.71,-1571.75 138.79,-1571.75 138.79,-1571.75 182.21,-1571.75 182.21,-1571.75 185.29,-1571.75 188.38,-1574.83 188.38,-1577.92 188.38,-1577.92 188.38,-1584.08 188.38,-1584.08 188.38,-1587.17 185.29,-1590.25 182.21,-1590.25"/>
<text text-anchor="start" x="140.62" y="-1577.7" font-family="Helvetica,sans-Serif" font-size="9.00">Overlay.js</text>
</a>
</g>
</g>
<!-- src/js/controller/Controller.js&#45;&gt;src/js/overlay/Overlay.js -->
<g id="edge7" class="edge">
<title>src/js/controller/Controller.js&#45;&gt;src/js/overlay/Overlay.js</title>
<path fill="none" stroke="#000000" stroke-width="2" stroke-opacity="0.200000" d="M81.19,-1703.51C95.36,-1681.34 130.78,-1625.93 148.72,-1597.86"/>
<polygon fill="#000000" fill-opacity="0.200000" stroke="#000000" stroke-width="2" stroke-opacity="0.200000" points="150.39,-1599.14 151.86,-1592.96 146.86,-1596.88 150.39,-1599.14"/>
</g>
<!-- src/js/view/View.js -->
<g id="node9" class="node">
<title>src/js/view/View.js</title>
<g id="a_node9"><a xlink:href="src/js/view/View.js" xlink:title="View.js">
<path fill="#ffffcc" stroke="black" d="M181.33,-1766.25C181.33,-1766.25 139.67,-1766.25 139.67,-1766.25 136.58,-1766.25 133.5,-1763.17 133.5,-1760.08 133.5,-1760.08 133.5,-1753.92 133.5,-1753.92 133.5,-1750.83 136.58,-1747.75 139.67,-1747.75 139.67,-1747.75 181.33,-1747.75 181.33,-1747.75 184.42,-1747.75 187.5,-1750.83 187.5,-1753.92 187.5,-1753.92 187.5,-1760.08 187.5,-1760.08 187.5,-1763.17 184.42,-1766.25 181.33,-1766.25"/>
<text text-anchor="start" x="146.25" y="-1753.7" font-family="Helvetica,sans-Serif" font-size="9.00">View.js</text>
</a>
</g>
</g>
<!-- src/js/controller/Controller.js&#45;&gt;src/js/view/View.js -->
<g id="edge8" class="edge">
<title>src/js/controller/Controller.js&#45;&gt;src/js/view/View.js</title>
<path fill="none" stroke="#000000" stroke-width="2" stroke-opacity="0.200000" d="M93.43,-1722.55C105.07,-1728.62 120.33,-1736.57 133.25,-1743.31"/>
<polygon fill="#000000" fill-opacity="0.200000" stroke="#000000" stroke-width="2" stroke-opacity="0.200000" points="131.96,-1745.01 138.25,-1745.92 133.9,-1741.28 131.96,-1745.01"/>
</g>
<!-- src/js/application/ApplicationDispatcher.js -->
<g id="node5" class="node">
<title>src/js/application/ApplicationDispatcher.js</title>
<g id="a_node5"><a xlink:href="src/js/application/ApplicationDispatcher.js" xlink:title="ApplicationDispatcher.js">
<path fill="#ffffcc" stroke="black" d="M652.96,-1569.25C652.96,-1569.25 551.04,-1569.25 551.04,-1569.25 547.96,-1569.25 544.88,-1566.17 544.88,-1563.08 544.88,-1563.08 544.88,-1556.92 544.88,-1556.92 544.88,-1553.83 547.96,-1550.75 551.04,-1550.75 551.04,-1550.75 652.96,-1550.75 652.96,-1550.75 656.04,-1550.75 659.12,-1553.83 659.12,-1556.92 659.12,-1556.92 659.12,-1563.08 659.12,-1563.08 659.12,-1566.17 656.04,-1569.25 652.96,-1569.25"/>
<text text-anchor="start" x="552.88" y="-1556.7" font-family="Helvetica,sans-Serif" font-size="9.00">ApplicationDispatcher.js</text>
</a>
</g>
</g>
<!-- src/js/application/ApplicationEvent.js -->
<g id="node6" class="node">
<title>src/js/application/ApplicationEvent.js</title>
<g id="a_node6"><a xlink:href="src/js/application/ApplicationEvent.js" xlink:title="ApplicationEvent.js">
<path fill="#ffffcc" stroke="black" d="M795.46,-1569.25C795.46,-1569.25 713.79,-1569.25 713.79,-1569.25 710.71,-1569.25 707.62,-1566.17 707.62,-1563.08 707.62,-1563.08 707.62,-1556.92 707.62,-1556.92 707.62,-1553.83 710.71,-1550.75 713.79,-1550.75 713.79,-1550.75 795.46,-1550.75 795.46,-1550.75 798.54,-1550.75 801.62,-1553.83 801.62,-1556.92 801.62,-1556.92 801.62,-1563.08 801.62,-1563.08 801.62,-1566.17 798.54,-1569.25 795.46,-1569.25"/>
<text text-anchor="start" x="715.62" y="-1556.7" font-family="Helvetica,sans-Serif" font-size="9.00">ApplicationEvent.js</text>
</a>
</g>
</g>
<!-- src/js/application/ApplicationDispatcher.js&#45;&gt;src/js/application/ApplicationEvent.js -->
<g id="edge4" class="edge">
<title>src/js/application/ApplicationDispatcher.js&#45;&gt;src/js/application/ApplicationEvent.js</title>
<path fill="none" stroke="#000000" stroke-width="2" stroke-opacity="0.200000" d="M659.52,-1560C672.4,-1560 686.07,-1560 698.88,-1560"/>
<polygon fill="#000000" fill-opacity="0.200000" stroke="#000000" stroke-width="2" stroke-opacity="0.200000" points="698.57,-1562.1 704.57,-1560 698.57,-1557.9 698.57,-1562.1"/>
</g>
<!-- src/js/director/Director.js&#45;&gt;src/js/application/ApplicationLogger.js -->
<g id="edge31" class="edge">
<title>src/js/director/Director.js&#45;&gt;src/js/application/ApplicationLogger.js</title>
<path fill="none" stroke="#000000" stroke-width="2" stroke-opacity="0.200000" d="M189.11,-1442.25C266.11,-1451.47 489.73,-1479.24 674,-1512 683.07,-1513.61 692.68,-1515.51 701.97,-1517.43"/>
<polygon fill="#000000" fill-opacity="0.200000" stroke="#000000" stroke-width="2" stroke-opacity="0.200000" points="701.49,-1519.48 707.79,-1518.66 702.35,-1515.37 701.49,-1519.48"/>
</g>
<!-- src/js/directable/directables/dotmatrix/DirectableDotMatrix.js -->
<g id="node12" class="node">
<title>src/js/directable/directables/dotmatrix/DirectableDotMatrix.js</title>
<g id="a_node12"><a xlink:href="src/js/directable/directables/dotmatrix/DirectableDotMatrix.js" xlink:title="DirectableDotMatrix.js">
<path fill="#ffffcc" stroke="black" d="M363.58,-1004.25C363.58,-1004.25 269.92,-1004.25 269.92,-1004.25 266.83,-1004.25 263.75,-1001.17 263.75,-998.08 263.75,-998.08 263.75,-991.92 263.75,-991.92 263.75,-988.83 266.83,-985.75 269.92,-985.75 269.92,-985.75 363.58,-985.75 363.58,-985.75 366.67,-985.75 369.75,-988.83 369.75,-991.92 369.75,-991.92 369.75,-998.08 369.75,-998.08 369.75,-1001.17 366.67,-1004.25 363.58,-1004.25"/>
<text text-anchor="start" x="271.75" y="-991.7" font-family="Helvetica,sans-Serif" font-size="9.00">DirectableDotMatrix.js</text>
</a>
</g>
</g>
<!-- src/js/director/Director.js&#45;&gt;src/js/directable/directables/dotmatrix/DirectableDotMatrix.js -->
<g id="edge32" class="edge">
<title>src/js/director/Director.js&#45;&gt;src/js/directable/directables/dotmatrix/DirectableDotMatrix.js</title>
<path fill="none" stroke="#000000" stroke-width="2" stroke-opacity="0.200000" d="M161.92,-1429.52C164.59,-1371.7 179.72,-1068.12 204.75,-1036 217.01,-1020.26 235.95,-1010.56 254.73,-1004.59"/>
<polygon fill="#000000" fill-opacity="0.200000" stroke="#000000" stroke-width="2" stroke-opacity="0.200000" points="255.24,-1006.63 260.41,-1002.94 254.07,-1002.59 255.24,-1006.63"/>
</g>
<!-- src/js/directable/directables/title/DirectableTitle.js -->
<g id="node51" class="node">
<title>src/js/directable/directables/title/DirectableTitle.js</title>
<g id="a_node51"><a xlink:href="src/js/directable/directables/title/DirectableTitle.js" xlink:title="DirectableTitle.js">
<path fill="#ffffcc" stroke="black" d="M352.71,-1406.25C352.71,-1406.25 280.79,-1406.25 280.79,-1406.25 277.71,-1406.25 274.62,-1403.17 274.62,-1400.08 274.62,-1400.08 274.62,-1393.92 274.62,-1393.92 274.62,-1390.83 277.71,-1387.75 280.79,-1387.75 280.79,-1387.75 352.71,-1387.75 352.71,-1387.75 355.79,-1387.75 358.88,-1390.83 358.88,-1393.92 358.88,-1393.92 358.88,-1400.08 358.88,-1400.08 358.88,-1403.17 355.79,-1406.25 352.71,-1406.25"/>
<text text-anchor="start" x="282.62" y="-1393.7" font-family="Helvetica,sans-Serif" font-size="9.00">DirectableTitle.js</text>
</a>
</g>
</g>
<!-- src/js/director/Director.js&#45;&gt;src/js/directable/directables/title/DirectableTitle.js -->
<g id="edge33" class="edge">
<title>src/js/director/Director.js&#45;&gt;src/js/directable/directables/title/DirectableTitle.js</title>
<path fill="none" stroke="#000000" stroke-width="2" stroke-opacity="0.200000" d="M189.08,-1431.49C211.99,-1425.25 245.01,-1416.26 271.6,-1409.02"/>
<polygon fill="#000000" fill-opacity="0.200000" stroke="#000000" stroke-width="2" stroke-opacity="0.200000" points="271.83,-1411.14 277.06,-1407.53 270.72,-1407.08 271.83,-1411.14"/>
</g>
<!-- src/js/overlay/Overlay.js&#45;&gt;src/js/application/ApplicationConfiguration.js -->
<g id="edge35" class="edge">
<title>src/js/overlay/Overlay.js&#45;&gt;src/js/application/ApplicationConfiguration.js</title>
<path fill="none" stroke="#000000" stroke-width="2" stroke-opacity="0.200000" d="M166.33,-1571.27C173.03,-1559 186.42,-1538.49 204.75,-1530 253.93,-1507.22 666.91,-1539.23 674,-1545 684.7,-1553.71 672.05,-1565.44 682,-1575 682.6,-1575.58 683.22,-1576.14 683.86,-1576.68"/>
<polygon fill="#000000" fill-opacity="0.200000" stroke="#000000" stroke-width="2" stroke-opacity="0.200000" points="682.57,-1578.34 688.69,-1580.06 684.98,-1574.9 682.57,-1578.34"/>
</g>
<!-- src/js/overlay/Overlay.js&#45;&gt;src/js/application/ApplicationLogger.js -->
<g id="edge37" class="edge">
<title>src/js/overlay/Overlay.js&#45;&gt;src/js/application/ApplicationLogger.js</title>
<path fill="none" stroke="#000000" stroke-width="2" stroke-opacity="0.200000" d="M164.76,-1571.7C170.36,-1557.31 183.34,-1530.17 204.75,-1519 247.39,-1496.75 564.06,-1515.81 696.09,-1524.86"/>
<polygon fill="#000000" fill-opacity="0.200000" stroke="#000000" stroke-width="2" stroke-opacity="0.200000" points="695.74,-1526.94 701.87,-1525.26 696.03,-1522.75 695.74,-1526.94"/>
</g>
<!-- src/js/overlay/Overlay.js&#45;&gt;src/js/application/ApplicationDispatcher.js -->
<g id="edge36" class="edge">
<title>src/js/overlay/Overlay.js&#45;&gt;src/js/application/ApplicationDispatcher.js</title>
<path fill="none" stroke="#000000" stroke-width="2" stroke-opacity="0.200000" d="M164.19,-1590.55C169.2,-1606.28 181.62,-1637.2 204.75,-1650 282.52,-1693.04 319.01,-1673.44 404.75,-1650 467.12,-1632.95 469.9,-1599.84 530,-1576 533.44,-1574.64 537.01,-1573.38 540.65,-1572.21"/>
<polygon fill="#000000" fill-opacity="0.200000" stroke="#000000" stroke-width="2" stroke-opacity="0.200000" points="541.17,-1574.25 546.33,-1570.53 539.98,-1570.22 541.17,-1574.25"/>
</g>
<!-- src/js/overlay/displayFormat/OverlayDisplayFormat.js -->
<g id="node54" class="node">
<title>src/js/overlay/displayFormat/OverlayDisplayFormat.js</title>
<g id="a_node54"><a xlink:href="src/js/overlay/displayFormat/OverlayDisplayFormat.js" xlink:title="OverlayDisplayFormat.js">
<path fill="#ffffcc" stroke="black" d="M368.46,-1620.25C368.46,-1620.25 265.04,-1620.25 265.04,-1620.25 261.96,-1620.25 258.88,-1617.17 258.88,-1614.08 258.88,-1614.08 258.88,-1607.92 258.88,-1607.92 258.88,-1604.83 261.96,-1601.75 265.04,-1601.75 265.04,-1601.75 368.46,-1601.75 368.46,-1601.75 371.54,-1601.75 374.62,-1604.83 374.62,-1607.92 374.62,-1607.92 374.62,-1614.08 374.62,-1614.08 374.62,-1617.17 371.54,-1620.25 368.46,-1620.25"/>
<text text-anchor="start" x="266.88" y="-1607.7" font-family="Helvetica,sans-Serif" font-size="9.00">OverlayDisplayFormat.js</text>
</a>
</g>
</g>
<!-- src/js/overlay/Overlay.js&#45;&gt;src/js/overlay/displayFormat/OverlayDisplayFormat.js -->
<g id="edge38" class="edge">
<title>src/js/overlay/Overlay.js&#45;&gt;src/js/overlay/displayFormat/OverlayDisplayFormat.js</title>
<path fill="none" stroke="#000000" stroke-width="2" stroke-opacity="0.200000" d="M188.72,-1586.29C207.59,-1589.96 233.44,-1594.99 256.89,-1599.55"/>
<polygon fill="#000000" fill-opacity="0.200000" stroke="#000000" stroke-width="2" stroke-opacity="0.200000" points="256.48,-1601.61 262.77,-1600.7 257.28,-1597.49 256.48,-1601.61"/>
</g>
<!-- src/js/overlay/overlay/OverlayOverlay.js -->
<g id="node55" class="node">
<title>src/js/overlay/overlay/OverlayOverlay.js</title>
<g id="a_node55"><a xlink:href="src/js/overlay/overlay/OverlayOverlay.js" xlink:title="OverlayOverlay.js">
<path fill="#ffffcc" stroke="black" d="M354.21,-1559.25C354.21,-1559.25 279.29,-1559.25 279.29,-1559.25 276.21,-1559.25 273.12,-1556.17 273.12,-1553.08 273.12,-1553.08 273.12,-1546.92 273.12,-1546.92 273.12,-1543.83 276.21,-1540.75 279.29,-1540.75 279.29,-1540.75 354.21,-1540.75 354.21,-1540.75 357.29,-1540.75 360.38,-1543.83 360.38,-1546.92 360.38,-1546.92 360.38,-1553.08 360.38,-1553.08 360.38,-1556.17 357.29,-1559.25 354.21,-1559.25"/>
<text text-anchor="start" x="281.12" y="-1546.7" font-family="Helvetica,sans-Serif" font-size="9.00">OverlayOverlay.js</text>
</a>
</g>
</g>
<!-- src/js/overlay/Overlay.js&#45;&gt;src/js/overlay/overlay/OverlayOverlay.js -->
<g id="edge39" class="edge">
<title>src/js/overlay/Overlay.js&#45;&gt;src/js/overlay/overlay/OverlayOverlay.js</title>
<path fill="none" stroke="#000000" stroke-width="2" stroke-opacity="0.200000" d="M188.72,-1575.53C209.53,-1571.35 238.84,-1565.46 264.06,-1560.39"/>
<polygon fill="#000000" fill-opacity="0.200000" stroke="#000000" stroke-width="2" stroke-opacity="0.200000" points="264.36,-1562.47 269.82,-1559.23 263.53,-1558.35 264.36,-1562.47"/>
</g>
<!-- src/js/view/render/RenderController.js -->
<g id="node57" class="node">
<title>src/js/view/render/RenderController.js</title>
<g id="a_node57"><a xlink:href="src/js/view/render/RenderController.js" xlink:title="RenderController.js">
<path fill="#ffffcc" stroke="black" d="M358.33,-1785.25C358.33,-1785.25 275.17,-1785.25 275.17,-1785.25 272.08,-1785.25 269,-1782.17 269,-1779.08 269,-1779.08 269,-1772.92 269,-1772.92 269,-1769.83 272.08,-1766.75 275.17,-1766.75 275.17,-1766.75 358.33,-1766.75 358.33,-1766.75 361.42,-1766.75 364.5,-1769.83 364.5,-1772.92 364.5,-1772.92 364.5,-1779.08 364.5,-1779.08 364.5,-1782.17 361.42,-1785.25 358.33,-1785.25"/>
<text text-anchor="start" x="277" y="-1772.7" font-family="Helvetica,sans-Serif" font-size="9.00">RenderController.js</text>
</a>
</g>
</g>
<!-- src/js/view/View.js&#45;&gt;src/js/view/render/RenderController.js -->
<g id="edge45" class="edge">
<title>src/js/view/View.js&#45;&gt;src/js/view/render/RenderController.js</title>
<path fill="none" stroke="#000000" stroke-width="2" stroke-opacity="0.200000" d="M187.67,-1760.22C207.34,-1762.65 235.02,-1766.06 259.62,-1769.09"/>
<polygon fill="#000000" fill-opacity="0.200000" stroke="#000000" stroke-width="2" stroke-opacity="0.200000" points="259.31,-1771.16 265.52,-1769.81 259.82,-1766.99 259.31,-1771.16"/>
</g>
<!-- src/js/data/Data.json -->
<g id="node10" class="node">
<title>src/js/data/Data.json</title>
<g id="a_node10"><a xlink:href="src/js/data/Data.json" xlink:title="Data.json">
<path fill="#ffee44" stroke="black" d="M181.83,-1899.25C181.83,-1899.25 139.17,-1899.25 139.17,-1899.25 136.08,-1899.25 133,-1896.17 133,-1893.08 133,-1893.08 133,-1886.92 133,-1886.92 133,-1883.83 136.08,-1880.75 139.17,-1880.75 139.17,-1880.75 181.83,-1880.75 181.83,-1880.75 184.92,-1880.75 188,-1883.83 188,-1886.92 188,-1886.92 188,-1893.08 188,-1893.08 188,-1896.17 184.92,-1899.25 181.83,-1899.25"/>
<text text-anchor="start" x="141" y="-1886.7" font-family="Helvetica,sans-Serif" font-size="9.00">Data.json</text>
</a>
</g>
</g>
<!-- src/js/data/DataController.js -->
<g id="node11" class="node">
<title>src/js/data/DataController.js</title>
<g id="a_node11"><a xlink:href="src/js/data/DataController.js" xlink:title="DataController.js">
<path fill="#ffffcc" stroke="black" d="M110.08,-1899.25C110.08,-1899.25 38.17,-1899.25 38.17,-1899.25 35.08,-1899.25 32,-1896.17 32,-1893.08 32,-1893.08 32,-1886.92 32,-1886.92 32,-1883.83 35.08,-1880.75 38.17,-1880.75 38.17,-1880.75 110.08,-1880.75 110.08,-1880.75 113.17,-1880.75 116.25,-1883.83 116.25,-1886.92 116.25,-1886.92 116.25,-1893.08 116.25,-1893.08 116.25,-1896.17 113.17,-1899.25 110.08,-1899.25"/>
<text text-anchor="start" x="40" y="-1886.7" font-family="Helvetica,sans-Serif" font-size="9.00">DataController.js</text>
</a>
</g>
</g>
<!-- src/js/data/DataController.js&#45;&gt;src/js/data/Data.json -->
<g id="edge9" class="edge">
<title>src/js/data/DataController.js&#45;&gt;src/js/data/Data.json</title>
<path fill="none" stroke="#000000" stroke-width="2" stroke-opacity="0.200000" d="M116.32,-1890C118.74,-1890 121.16,-1890 123.55,-1890"/>
<polygon fill="#000000" fill-opacity="0.200000" stroke="#000000" stroke-width="2" stroke-opacity="0.200000" points="123.55,-1892.1 129.55,-1890 123.55,-1887.9 123.55,-1892.1"/>
</g>
<!-- src/js/directable/directables/dotmatrix/DirectableDotMatrix.js&#45;&gt;src/js/application/ApplicationLogger.js -->
<g id="edge10" class="edge">
<title>src/js/directable/directables/dotmatrix/DirectableDotMatrix.js&#45;&gt;src/js/application/ApplicationLogger.js</title>
<path fill="none" stroke="#000000" stroke-width="2" stroke-opacity="0.200000" d="M360.1,-1004.64C376.89,-1010.72 394.6,-1020.49 404.75,-1036 421.67,-1061.86 391.55,-1291.51 412.75,-1314 422.74,-1324.6 662.25,-1328.38 674,-1337 731.68,-1379.3 747.77,-1471.19 752.1,-1510.53"/>
<polygon fill="#000000" fill-opacity="0.200000" stroke="#000000" stroke-width="2" stroke-opacity="0.200000" points="749.99,-1510.56 752.67,-1516.32 754.17,-1510.14 749.99,-1510.56"/>
</g>
<!-- src/js/directable/directables/dotmatrix/view/ViewManager.js -->
<g id="node13" class="node">
<title>src/js/directable/directables/dotmatrix/view/ViewManager.js</title>
<g id="a_node13"><a xlink:href="src/js/directable/directables/dotmatrix/view/ViewManager.js" xlink:title="ViewManager.js">
<path fill="#ffffcc" stroke="black" d="M496.83,-74.25C496.83,-74.25 427.92,-74.25 427.92,-74.25 424.83,-74.25 421.75,-71.17 421.75,-68.08 421.75,-68.08 421.75,-61.92 421.75,-61.92 421.75,-58.83 424.83,-55.75 427.92,-55.75 427.92,-55.75 496.83,-55.75 496.83,-55.75 499.92,-55.75 503,-58.83 503,-61.92 503,-61.92 503,-68.08 503,-68.08 503,-71.17 499.92,-74.25 496.83,-74.25"/>
<text text-anchor="start" x="429.75" y="-61.7" font-family="Helvetica,sans-Serif" font-size="9.00">ViewManager.js</text>
</a>
</g>
</g>
<!-- src/js/directable/directables/dotmatrix/DirectableDotMatrix.js&#45;&gt;src/js/directable/directables/dotmatrix/view/ViewManager.js -->
<g id="edge11" class="edge">
<title>src/js/directable/directables/dotmatrix/DirectableDotMatrix.js&#45;&gt;src/js/directable/directables/dotmatrix/view/ViewManager.js</title>
<path fill="none" stroke="#000000" stroke-width="2" stroke-opacity="0.200000" d="M318.12,-985.32C321.81,-892.1 352.76,-155.46 412.75,-81 413.36,-80.24 414.01,-79.51 414.7,-78.82"/>
<polygon fill="#000000" fill-opacity="0.200000" stroke="#000000" stroke-width="2" stroke-opacity="0.200000" points="415.75,-80.66 419.22,-75.33 413.19,-77.34 415.75,-80.66"/>
</g>
<!-- src/js/directable/directables/dotmatrix/view/ViewManager.js&#45;&gt;src/js/application/ApplicationLogger.js -->
<g id="edge17" class="edge">
<title>src/js/directable/directables/dotmatrix/view/ViewManager.js&#45;&gt;src/js/application/ApplicationLogger.js</title>
<path fill="none" stroke="#000000" stroke-width="2" stroke-opacity="0.200000" d="M503.21,-68.49C510.51,-70.98 517.3,-74.9 522,-81 537.7,-101.38 524.34,-981.91 530,-1007 563.41,-1155.2 615.25,-1176.9 674,-1317 703.86,-1388.19 734.76,-1474.9 747.53,-1511.43"/>
<polygon fill="#000000" fill-opacity="0.200000" stroke="#000000" stroke-width="2" stroke-opacity="0.200000" points="745.43,-1511.77 749.39,-1516.74 749.39,-1510.39 745.43,-1511.77"/>
</g>
<!-- src/js/directable/directables/dotmatrix/dot/DotManager.js -->
<g id="node15" class="node">
<title>src/js/directable/directables/dotmatrix/dot/DotManager.js</title>
<g id="a_node15"><a xlink:href="src/js/directable/directables/dotmatrix/dot/DotManager.js" xlink:title="DotManager.js">
<path fill="#ffffcc" stroke="black" d="M633.46,-197.25C633.46,-197.25 570.54,-197.25 570.54,-197.25 567.46,-197.25 564.38,-194.17 564.38,-191.08 564.38,-191.08 564.38,-184.92 564.38,-184.92 564.38,-181.83 567.46,-178.75 570.54,-178.75 570.54,-178.75 633.46,-178.75 633.46,-178.75 636.54,-178.75 639.62,-181.83 639.62,-184.92 639.62,-184.92 639.62,-191.08 639.62,-191.08 639.62,-194.17 636.54,-197.25 633.46,-197.25"/>
<text text-anchor="start" x="572.38" y="-184.7" font-family="Helvetica,sans-Serif" font-size="9.00">DotManager.js</text>
</a>
</g>
</g>
<!-- src/js/directable/directables/dotmatrix/view/ViewManager.js&#45;&gt;src/js/directable/directables/dotmatrix/dot/DotManager.js -->
<g id="edge18" class="edge">
<title>src/js/directable/directables/dotmatrix/view/ViewManager.js&#45;&gt;src/js/directable/directables/dotmatrix/dot/DotManager.js</title>
<path fill="none" stroke="#000000" stroke-width="2" stroke-opacity="0.200000" d="M503.42,-69.01C510.52,-71.48 517.18,-75.27 522,-81 534.21,-95.52 518.04,-151.27 530,-166 536.48,-173.98 545.8,-179.12 555.57,-182.42"/>
<polygon fill="#000000" fill-opacity="0.200000" stroke="#000000" stroke-width="2" stroke-opacity="0.200000" points="554.95,-184.43 561.3,-184.05 556.1,-180.39 554.95,-184.43"/>
</g>
<!-- src/js/directable/directables/dotmatrix/grid/GridData.js -->
<g id="node16" class="node">
<title>src/js/directable/directables/dotmatrix/grid/GridData.js</title>
<g id="a_node16"><a xlink:href="src/js/directable/directables/dotmatrix/grid/GridData.js" xlink:title="GridData.js">
<path fill="#ffffcc" stroke="black" d="M779.33,-258.25C779.33,-258.25 729.92,-258.25 729.92,-258.25 726.83,-258.25 723.75,-255.17 723.75,-252.08 723.75,-252.08 723.75,-245.92 723.75,-245.92 723.75,-242.83 726.83,-239.75 729.92,-239.75 729.92,-239.75 779.33,-239.75 779.33,-239.75 782.42,-239.75 785.5,-242.83 785.5,-245.92 785.5,-245.92 785.5,-252.08 785.5,-252.08 785.5,-255.17 782.42,-258.25 779.33,-258.25"/>
<text text-anchor="start" x="731.75" y="-245.7" font-family="Helvetica,sans-Serif" font-size="9.00">GridData.js</text>
</a>
</g>
</g>
<!-- src/js/directable/directables/dotmatrix/view/ViewManager.js&#45;&gt;src/js/directable/directables/dotmatrix/grid/GridData.js -->
<g id="edge19" class="edge">
<title>src/js/directable/directables/dotmatrix/view/ViewManager.js&#45;&gt;src/js/directable/directables/dotmatrix/grid/GridData.js</title>
<path fill="none" stroke="#000000" stroke-width="2" stroke-opacity="0.200000" d="M503.3,-68.76C510.5,-71.24 517.23,-75.09 522,-81 542.42,-106.27 507.53,-203.53 530,-227 542.48,-240.03 653.71,-245.72 714.45,-247.87"/>
<polygon fill="#000000" fill-opacity="0.200000" stroke="#000000" stroke-width="2" stroke-opacity="0.200000" points="714.29,-249.96 720.35,-248.07 714.43,-245.77 714.29,-249.96"/>
</g>
<!-- src/js/directable/directables/dotmatrix/shape/ShapeManager.js -->
<g id="node20" class="node">
<title>src/js/directable/directables/dotmatrix/shape/ShapeManager.js</title>
<g id="a_node20"><a xlink:href="src/js/directable/directables/dotmatrix/shape/ShapeManager.js" xlink:title="ShapeManager.js">
<path fill="#ffffcc" stroke="black" d="M639.83,-977.25C639.83,-977.25 564.17,-977.25 564.17,-977.25 561.08,-977.25 558,-974.17 558,-971.08 558,-971.08 558,-964.92 558,-964.92 558,-961.83 561.08,-958.75 564.17,-958.75 564.17,-958.75 639.83,-958.75 639.83,-958.75 642.92,-958.75 646,-961.83 646,-964.92 646,-964.92 646,-971.08 646,-971.08 646,-974.17 642.92,-977.25 639.83,-977.25"/>
<text text-anchor="start" x="566" y="-964.7" font-family="Helvetica,sans-Serif" font-size="9.00">ShapeManager.js</text>
</a>
</g>
</g>
<!-- src/js/directable/directables/dotmatrix/view/ViewManager.js&#45;&gt;src/js/directable/directables/dotmatrix/shape/ShapeManager.js -->
<g id="edge20" class="edge">
<title>src/js/directable/directables/dotmatrix/view/ViewManager.js&#45;&gt;src/js/directable/directables/dotmatrix/shape/ShapeManager.js</title>
<path fill="none" stroke="#000000" stroke-width="2" stroke-opacity="0.200000" d="M503.21,-68.49C510.51,-70.98 517.3,-74.9 522,-81 536.77,-100.16 514.8,-933.17 530,-952 535.01,-958.21 541.87,-962.33 549.37,-965.01"/>
<polygon fill="#000000" fill-opacity="0.200000" stroke="#000000" stroke-width="2" stroke-opacity="0.200000" points="548.43,-966.93 554.77,-966.56 549.58,-962.89 548.43,-966.93"/>
</g>
<!-- src/js/directable/directables/dotmatrix/view/ViewTest.js -->
<g id="node41" class="node">
<title>src/js/directable/directables/dotmatrix/view/ViewTest.js</title>
<g id="a_node41"><a xlink:href="src/js/directable/directables/dotmatrix/view/ViewTest.js" xlink:title="ViewTest.js">
<path fill="#ffffcc" stroke="black" d="M626.71,-136.25C626.71,-136.25 577.29,-136.25 577.29,-136.25 574.21,-136.25 571.12,-133.17 571.12,-130.08 571.12,-130.08 571.12,-123.92 571.12,-123.92 571.12,-120.83 574.21,-117.75 577.29,-117.75 577.29,-117.75 626.71,-117.75 626.71,-117.75 629.79,-117.75 632.88,-120.83 632.88,-123.92 632.88,-123.92 632.88,-130.08 632.88,-130.08 632.88,-133.17 629.79,-136.25 626.71,-136.25"/>
<text text-anchor="start" x="579.12" y="-123.7" font-family="Helvetica,sans-Serif" font-size="9.00">ViewTest.js</text>
</a>
</g>
</g>
<!-- src/js/directable/directables/dotmatrix/view/ViewManager.js&#45;&gt;src/js/directable/directables/dotmatrix/view/ViewTest.js -->
<g id="edge21" class="edge">
<title>src/js/directable/directables/dotmatrix/view/ViewManager.js&#45;&gt;src/js/directable/directables/dotmatrix/view/ViewTest.js</title>
<path fill="none" stroke="#000000" stroke-width="2" stroke-opacity="0.200000" d="M503.27,-74.38C509.63,-76.3 516.06,-78.51 522,-81 542.44,-89.57 564.09,-102.48 579.55,-112.44"/>
<polygon fill="#000000" fill-opacity="0.200000" stroke="#000000" stroke-width="2" stroke-opacity="0.200000" points="578.33,-114.15 584.49,-115.69 580.63,-110.64 578.33,-114.15"/>
</g>
<!-- src/js/directable/directables/dotmatrix/dot/Dot.js -->
<g id="node14" class="node">
<title>src/js/directable/directables/dotmatrix/dot/Dot.js</title>
<g id="a_node14"><a xlink:href="src/js/directable/directables/dotmatrix/dot/Dot.js" xlink:title="Dot.js">
<path fill="#ffffcc" stroke="black" d="M775.46,-197.25C775.46,-197.25 733.79,-197.25 733.79,-197.25 730.71,-197.25 727.62,-194.17 727.62,-191.08 727.62,-191.08 727.62,-184.92 727.62,-184.92 727.62,-181.83 730.71,-178.75 733.79,-178.75 733.79,-178.75 775.46,-178.75 775.46,-178.75 778.54,-178.75 781.62,-181.83 781.62,-184.92 781.62,-184.92 781.62,-191.08 781.62,-191.08 781.62,-194.17 778.54,-197.25 775.46,-197.25"/>
<text text-anchor="start" x="743" y="-184.7" font-family="Helvetica,sans-Serif" font-size="9.00">Dot.js</text>
</a>
</g>
</g>
<!-- src/js/directable/directables/dotmatrix/dot/DotManager.js&#45;&gt;src/js/application/ApplicationLogger.js -->
<g id="edge12" class="edge">
<title>src/js/directable/directables/dotmatrix/dot/DotManager.js&#45;&gt;src/js/application/ApplicationLogger.js</title>
<path fill="none" stroke="#000000" stroke-width="2" stroke-opacity="0.200000" d="M621.53,-197.58C638.49,-207.46 662.61,-224.56 674,-247 677.75,-254.39 743.23,-1354.05 752.53,-1510.55"/>
<polygon fill="#000000" fill-opacity="0.200000" stroke="#000000" stroke-width="2" stroke-opacity="0.200000" points="750.43,-1510.59 752.88,-1516.45 754.62,-1510.34 750.43,-1510.59"/>
</g>
<!-- src/js/directable/directables/dotmatrix/dot/DotManager.js&#45;&gt;src/js/directable/directables/dotmatrix/dot/Dot.js -->
<g id="edge14" class="edge">
<title>src/js/directable/directables/dotmatrix/dot/DotManager.js&#45;&gt;src/js/directable/directables/dotmatrix/dot/Dot.js</title>
<path fill="none" stroke="#000000" stroke-width="2" stroke-opacity="0.200000" d="M639.85,-188C663.84,-188 694.94,-188 718.57,-188"/>
<polygon fill="#000000" fill-opacity="0.200000" stroke="#000000" stroke-width="2" stroke-opacity="0.200000" points="718.52,-190.1 724.52,-188 718.52,-185.9 718.52,-190.1"/>
</g>
<!-- src/js/directable/directables/dotmatrix/dot/DotManager.js&#45;&gt;src/js/directable/directables/dotmatrix/grid/GridData.js -->
<g id="edge13" class="edge">
<title>src/js/directable/directables/dotmatrix/dot/DotManager.js&#45;&gt;src/js/directable/directables/dotmatrix/grid/GridData.js</title>
<path fill="none" stroke="#000000" stroke-width="2" stroke-opacity="0.200000" d="M620.51,-197.66C636.28,-206.11 660.25,-218.36 682,-227 692.49,-231.17 704.1,-235.04 714.87,-238.34"/>
<polygon fill="#000000" fill-opacity="0.200000" stroke="#000000" stroke-width="2" stroke-opacity="0.200000" points="714.03,-240.28 720.38,-239.98 715.24,-236.25 714.03,-240.28"/>
</g>
<!-- src/js/directable/directables/dotmatrix/grid/GridRenderer.js -->
<g id="node17" class="node">
<title>src/js/directable/directables/dotmatrix/grid/GridRenderer.js</title>
<g id="a_node17"><a xlink:href="src/js/directable/directables/dotmatrix/grid/GridRenderer.js" xlink:title="GridRenderer.js">
<path fill="#ccffcc" stroke="black" d="M788.71,-289.25C788.71,-289.25 720.54,-289.25 720.54,-289.25 717.46,-289.25 714.38,-286.17 714.38,-283.08 714.38,-283.08 714.38,-276.92 714.38,-276.92 714.38,-273.83 717.46,-270.75 720.54,-270.75 720.54,-270.75 788.71,-270.75 788.71,-270.75 791.79,-270.75 794.88,-273.83 794.88,-276.92 794.88,-276.92 794.88,-283.08 794.88,-283.08 794.88,-286.17 791.79,-289.25 788.71,-289.25"/>
<text text-anchor="start" x="722.38" y="-276.7" font-family="Helvetica,sans-Serif" font-size="9.00">GridRenderer.js</text>
</a>
</g>
</g>
<!-- src/js/directable/directables/dotmatrix/grid/GridRendererComponent.js -->
<g id="node18" class="node">
<title>src/js/directable/directables/dotmatrix/grid/GridRendererComponent.js</title>
<g id="a_node18"><a xlink:href="src/js/directable/directables/dotmatrix/grid/GridRendererComponent.js" xlink:title="GridRendererComponent.js">
<path fill="#ccffcc" stroke="black" d="M813.08,-320.25C813.08,-320.25 696.17,-320.25 696.17,-320.25 693.08,-320.25 690,-317.17 690,-314.08 690,-314.08 690,-307.92 690,-307.92 690,-304.83 693.08,-301.75 696.17,-301.75 696.17,-301.75 813.08,-301.75 813.08,-301.75 816.17,-301.75 819.25,-304.83 819.25,-307.92 819.25,-307.92 819.25,-314.08 819.25,-314.08 819.25,-317.17 816.17,-320.25 813.08,-320.25"/>
<text text-anchor="start" x="698" y="-307.7" font-family="Helvetica,sans-Serif" font-size="9.00">GridRendererComponent.js</text>
</a>
</g>
</g>
<!-- src/js/directable/directables/dotmatrix/shape/Shape.js -->
<g id="node19" class="node">
<title>src/js/directable/directables/dotmatrix/shape/Shape.js</title>
<g id="a_node19"><a xlink:href="src/js/directable/directables/dotmatrix/shape/Shape.js" xlink:title="Shape.js">
<path fill="#ccffcc" stroke="black" d="M622.83,-946.25C622.83,-946.25 581.17,-946.25 581.17,-946.25 578.08,-946.25 575,-943.17 575,-940.08 575,-940.08 575,-933.92 575,-933.92 575,-930.83 578.08,-927.75 581.17,-927.75 581.17,-927.75 622.83,-927.75 622.83,-927.75 625.92,-927.75 629,-930.83 629,-933.92 629,-933.92 629,-940.08 629,-940.08 629,-943.17 625.92,-946.25 622.83,-946.25"/>
<text text-anchor="start" x="584" y="-933.7" font-family="Helvetica,sans-Serif" font-size="9.00">Shape.js</text>
</a>
</g>
</g>
<!-- src/js/directable/directables/dotmatrix/shape/ShapeManager.js&#45;&gt;src/js/application/ApplicationLogger.js -->
<g id="edge15" class="edge">
<title>src/js/directable/directables/dotmatrix/shape/ShapeManager.js&#45;&gt;src/js/application/ApplicationLogger.js</title>
<path fill="none" stroke="#000000" stroke-width="2" stroke-opacity="0.200000" d="M607.22,-977.66C619.11,-1005.21 653.4,-1086.7 674,-1157 713.09,-1290.35 741.71,-1455.79 750.67,-1510.49"/>
<polygon fill="#000000" fill-opacity="0.200000" stroke="#000000" stroke-width="2" stroke-opacity="0.200000" points="748.59,-1510.81 751.62,-1516.4 752.74,-1510.14 748.59,-1510.81"/>
</g>
<!-- src/js/directable/directables/dotmatrix/shape/fill/Fill.js -->
<g id="node21" class="node">
<title>src/js/directable/directables/dotmatrix/shape/fill/Fill.js</title>
<g id="a_node21"><a xlink:href="src/js/directable/directables/dotmatrix/shape/fill/Fill.js" xlink:title="Fill.js">
<path fill="#ccffcc" stroke="black" d="M622.83,-276.25C622.83,-276.25 581.17,-276.25 581.17,-276.25 578.08,-276.25 575,-273.17 575,-270.08 575,-270.08 575,-263.92 575,-263.92 575,-260.83 578.08,-257.75 581.17,-257.75 581.17,-257.75 622.83,-257.75 622.83,-257.75 625.92,-257.75 629,-260.83 629,-263.92 629,-263.92 629,-270.08 629,-270.08 629,-273.17 625.92,-276.25 622.83,-276.25"/>
<text text-anchor="start" x="591.5" y="-263.7" font-family="Helvetica,sans-Serif" font-size="9.00">Fill.js</text>
</a>
</g>
</g>
<!-- src/js/directable/directables/dotmatrix/shape/fill/FillStrategy.js -->
<g id="node22" class="node">
<title>src/js/directable/directables/dotmatrix/shape/fill/FillStrategy.js</title>
<g id="a_node22"><a xlink:href="src/js/directable/directables/dotmatrix/shape/fill/FillStrategy.js" xlink:title="FillStrategy.js">
<path fill="#ccffcc" stroke="black" d="M630.83,-307.25C630.83,-307.25 573.17,-307.25 573.17,-307.25 570.08,-307.25 567,-304.17 567,-301.08 567,-301.08 567,-294.92 567,-294.92 567,-291.83 570.08,-288.75 573.17,-288.75 573.17,-288.75 630.83,-288.75 630.83,-288.75 633.92,-288.75 637,-291.83 637,-294.92 637,-294.92 637,-301.08 637,-301.08 637,-304.17 633.92,-307.25 630.83,-307.25"/>
<text text-anchor="start" x="575" y="-294.7" font-family="Helvetica,sans-Serif" font-size="9.00">FillStrategy.js</text>
</a>
</g>
</g>
<!-- src/js/directable/directables/dotmatrix/shape/fill/FillStrategyType.js -->
<g id="node23" class="node">
<title>src/js/directable/directables/dotmatrix/shape/fill/FillStrategyType.js</title>
<g id="a_node23"><a xlink:href="src/js/directable/directables/dotmatrix/shape/fill/FillStrategyType.js" xlink:title="FillStrategyType.js">
<path fill="#ccffcc" stroke="black" d="M641.33,-338.25C641.33,-338.25 562.67,-338.25 562.67,-338.25 559.58,-338.25 556.5,-335.17 556.5,-332.08 556.5,-332.08 556.5,-325.92 556.5,-325.92 556.5,-322.83 559.58,-319.75 562.67,-319.75 562.67,-319.75 641.33,-319.75 641.33,-319.75 644.42,-319.75 647.5,-322.83 647.5,-325.92 647.5,-325.92 647.5,-332.08 647.5,-332.08 647.5,-335.17 644.42,-338.25 641.33,-338.25"/>
<text text-anchor="start" x="564.5" y="-325.7" font-family="Helvetica,sans-Serif" font-size="9.00">FillStrategyType.js</text>
</a>
</g>
</g>
<!-- src/js/directable/directables/dotmatrix/shape/fill/FillType.js -->
<g id="node24" class="node">
<title>src/js/directable/directables/dotmatrix/shape/fill/FillType.js</title>
<g id="a_node24"><a xlink:href="src/js/directable/directables/dotmatrix/shape/fill/FillType.js" xlink:title="FillType.js">
<path fill="#ccffcc" stroke="black" d="M624.46,-369.25C624.46,-369.25 579.54,-369.25 579.54,-369.25 576.46,-369.25 573.38,-366.17 573.38,-363.08 573.38,-363.08 573.38,-356.92 573.38,-356.92 573.38,-353.83 576.46,-350.75 579.54,-350.75 579.54,-350.75 624.46,-350.75 624.46,-350.75 627.54,-350.75 630.62,-353.83 630.62,-356.92 630.62,-356.92 630.62,-363.08 630.62,-363.08 630.62,-366.17 627.54,-369.25 624.46,-369.25"/>
<text text-anchor="start" x="581.38" y="-356.7" font-family="Helvetica,sans-Serif" font-size="9.00">FillType.js</text>
</a>
</g>
</g>
<!-- src/js/directable/directables/dotmatrix/shape/glyph/ShapeGlyph_A.js -->
<g id="node25" class="node">
<title>src/js/directable/directables/dotmatrix/shape/glyph/ShapeGlyph_A.js</title>
<g id="a_node25"><a xlink:href="src/js/directable/directables/dotmatrix/shape/glyph/ShapeGlyph_A.js" xlink:title="ShapeGlyph_A.js">
<path fill="#ccffcc" stroke="black" d="M639.46,-430.25C639.46,-430.25 564.54,-430.25 564.54,-430.25 561.46,-430.25 558.38,-427.17 558.38,-424.08 558.38,-424.08 558.38,-417.92 558.38,-417.92 558.38,-414.83 561.46,-411.75 564.54,-411.75 564.54,-411.75 639.46,-411.75 639.46,-411.75 642.54,-411.75 645.62,-414.83 645.62,-417.92 645.62,-417.92 645.62,-424.08 645.62,-424.08 645.62,-427.17 642.54,-430.25 639.46,-430.25"/>
<text text-anchor="start" x="566.38" y="-417.7" font-family="Helvetica,sans-Serif" font-size="9.00">ShapeGlyph_A.js</text>
</a>
</g>
</g>
<!-- src/js/directable/directables/dotmatrix/shape/glyph/ShapeGlyph_B.js -->
<g id="node26" class="node">
<title>src/js/directable/directables/dotmatrix/shape/glyph/ShapeGlyph_B.js</title>
<g id="a_node26"><a xlink:href="src/js/directable/directables/dotmatrix/shape/glyph/ShapeGlyph_B.js" xlink:title="ShapeGlyph_B.js">
<path fill="#ccffcc" stroke="black" d="M639.46,-461.25C639.46,-461.25 564.54,-461.25 564.54,-461.25 561.46,-461.25 558.38,-458.17 558.38,-455.08 558.38,-455.08 558.38,-448.92 558.38,-448.92 558.38,-445.83 561.46,-442.75 564.54,-442.75 564.54,-442.75 639.46,-442.75 639.46,-442.75 642.54,-442.75 645.62,-445.83 645.62,-448.92 645.62,-448.92 645.62,-455.08 645.62,-455.08 645.62,-458.17 642.54,-461.25 639.46,-461.25"/>
<text text-anchor="start" x="566.38" y="-448.7" font-family="Helvetica,sans-Serif" font-size="9.00">ShapeGlyph_B.js</text>
</a>
</g>
</g>
<!-- src/js/directable/directables/dotmatrix/shape/glyph/ShapeGlyph_C.js -->
<g id="node27" class="node">
<title>src/js/directable/directables/dotmatrix/shape/glyph/ShapeGlyph_C.js</title>
<g id="a_node27"><a xlink:href="src/js/directable/directables/dotmatrix/shape/glyph/ShapeGlyph_C.js" xlink:title="ShapeGlyph_C.js">
<path fill="#ccffcc" stroke="black" d="M639.83,-492.25C639.83,-492.25 564.17,-492.25 564.17,-492.25 561.08,-492.25 558,-489.17 558,-486.08 558,-486.08 558,-479.92 558,-479.92 558,-476.83 561.08,-473.75 564.17,-473.75 564.17,-473.75 639.83,-473.75 639.83,-473.75 642.92,-473.75 646,-476.83 646,-479.92 646,-479.92 646,-486.08 646,-486.08 646,-489.17 642.92,-492.25 639.83,-492.25"/>
<text text-anchor="start" x="566" y="-479.7" font-family="Helvetica,sans-Serif" font-size="9.00">ShapeGlyph_C.js</text>
</a>
</g>
</g>
<!-- src/js/directable/directables/dotmatrix/shape/glyph/ShapeGlyph_D.js -->
<g id="node28" class="node">
<title>src/js/directable/directables/dotmatrix/shape/glyph/ShapeGlyph_D.js</title>
<g id="a_node28"><a xlink:href="src/js/directable/directables/dotmatrix/shape/glyph/ShapeGlyph_D.js" xlink:title="ShapeGlyph_D.js">
<path fill="#ccffcc" stroke="black" d="M639.83,-523.25C639.83,-523.25 564.17,-523.25 564.17,-523.25 561.08,-523.25 558,-520.17 558,-517.08 558,-517.08 558,-510.92 558,-510.92 558,-507.83 561.08,-504.75 564.17,-504.75 564.17,-504.75 639.83,-504.75 639.83,-504.75 642.92,-504.75 646,-507.83 646,-510.92 646,-510.92 646,-517.08 646,-517.08 646,-520.17 642.92,-523.25 639.83,-523.25"/>
<text text-anchor="start" x="566" y="-510.7" font-family="Helvetica,sans-Serif" font-size="9.00">ShapeGlyph_D.js</text>
</a>
</g>
</g>
<!-- src/js/directable/directables/dotmatrix/shape/glyph/ShapeGlyph_E.js -->
<g id="node29" class="node">
<title>src/js/directable/directables/dotmatrix/shape/glyph/ShapeGlyph_E.js</title>
<g id="a_node29"><a xlink:href="src/js/directable/directables/dotmatrix/shape/glyph/ShapeGlyph_E.js" xlink:title="ShapeGlyph_E.js">
<path fill="#ccffcc" stroke="black" d="M639.46,-554.25C639.46,-554.25 564.54,-554.25 564.54,-554.25 561.46,-554.25 558.38,-551.17 558.38,-548.08 558.38,-548.08 558.38,-541.92 558.38,-541.92 558.38,-538.83 561.46,-535.75 564.54,-535.75 564.54,-535.75 639.46,-535.75 639.46,-535.75 642.54,-535.75 645.62,-538.83 645.62,-541.92 645.62,-541.92 645.62,-548.08 645.62,-548.08 645.62,-551.17 642.54,-554.25 639.46,-554.25"/>
<text text-anchor="start" x="566.38" y="-541.7" font-family="Helvetica,sans-Serif" font-size="9.00">ShapeGlyph_E.js</text>
</a>
</g>
</g>
<!-- src/js/directable/directables/dotmatrix/shape/glyph/ShapeGlyph_F.js -->
<g id="node30" class="node">
<title>src/js/directable/directables/dotmatrix/shape/glyph/ShapeGlyph_F.js</title>
<g id="a_node30"><a xlink:href="src/js/directable/directables/dotmatrix/shape/glyph/ShapeGlyph_F.js" xlink:title="ShapeGlyph_F.js">
<path fill="#ccffcc" stroke="black" d="M638.71,-585.25C638.71,-585.25 565.29,-585.25 565.29,-585.25 562.21,-585.25 559.12,-582.17 559.12,-579.08 559.12,-579.08 559.12,-572.92 559.12,-572.92 559.12,-569.83 562.21,-566.75 565.29,-566.75 565.29,-566.75 638.71,-566.75 638.71,-566.75 641.79,-566.75 644.88,-569.83 644.88,-572.92 644.88,-572.92 644.88,-579.08 644.88,-579.08 644.88,-582.17 641.79,-585.25 638.71,-585.25"/>
<text text-anchor="start" x="567.12" y="-572.7" font-family="Helvetica,sans-Serif" font-size="9.00">ShapeGlyph_F.js</text>
</a>
</g>
</g>
<!-- src/js/directable/directables/dotmatrix/shape/glyph/ShapeGlyph_G.js -->
<g id="node31" class="node">
<title>src/js/directable/directables/dotmatrix/shape/glyph/ShapeGlyph_G.js</title>
<g id="a_node31"><a xlink:href="src/js/directable/directables/dotmatrix/shape/glyph/ShapeGlyph_G.js" xlink:title="ShapeGlyph_G.js">
<path fill="#ccffcc" stroke="black" d="M639.83,-616.25C639.83,-616.25 564.17,-616.25 564.17,-616.25 561.08,-616.25 558,-613.17 558,-610.08 558,-610.08 558,-603.92 558,-603.92 558,-600.83 561.08,-597.75 564.17,-597.75 564.17,-597.75 639.83,-597.75 639.83,-597.75 642.92,-597.75 646,-600.83 646,-603.92 646,-603.92 646,-610.08 646,-610.08 646,-613.17 642.92,-616.25 639.83,-616.25"/>
<text text-anchor="start" x="566" y="-603.7" font-family="Helvetica,sans-Serif" font-size="9.00">ShapeGlyph_G.js</text>
</a>
</g>
</g>
<!-- src/js/directable/directables/dotmatrix/shape/glyph/ShapeGlyph_H.js -->
<g id="node32" class="node">
<title>src/js/directable/directables/dotmatrix/shape/glyph/ShapeGlyph_H.js</title>
<g id="a_node32"><a xlink:href="src/js/directable/directables/dotmatrix/shape/glyph/ShapeGlyph_H.js" xlink:title="ShapeGlyph_H.js">
<path fill="#ccffcc" stroke="black" d="M639.83,-647.25C639.83,-647.25 564.17,-647.25 564.17,-647.25 561.08,-647.25 558,-644.17 558,-641.08 558,-641.08 558,-634.92 558,-634.92 558,-631.83 561.08,-628.75 564.17,-628.75 564.17,-628.75 639.83,-628.75 639.83,-628.75 642.92,-628.75 646,-631.83 646,-634.92 646,-634.92 646,-641.08 646,-641.08 646,-644.17 642.92,-647.25 639.83,-647.25"/>
<text text-anchor="start" x="566" y="-634.7" font-family="Helvetica,sans-Serif" font-size="9.00">ShapeGlyph_H.js</text>
</a>
</g>
</g>
<!-- src/js/directable/directables/dotmatrix/shape/glyph/ShapeGlyph_I.js -->
<g id="node33" class="node">
<title>src/js/directable/directables/dotmatrix/shape/glyph/ShapeGlyph_I.js</title>
<g id="a_node33"><a xlink:href="src/js/directable/directables/dotmatrix/shape/glyph/ShapeGlyph_I.js" xlink:title="ShapeGlyph_I.js">
<path fill="#ccffcc" stroke="black" d="M637.58,-678.25C637.58,-678.25 566.42,-678.25 566.42,-678.25 563.33,-678.25 560.25,-675.17 560.25,-672.08 560.25,-672.08 560.25,-665.92 560.25,-665.92 560.25,-662.83 563.33,-659.75 566.42,-659.75 566.42,-659.75 637.58,-659.75 637.58,-659.75 640.67,-659.75 643.75,-662.83 643.75,-665.92 643.75,-665.92 643.75,-672.08 643.75,-672.08 643.75,-675.17 640.67,-678.25 637.58,-678.25"/>
<text text-anchor="start" x="568.25" y="-665.7" font-family="Helvetica,sans-Serif" font-size="9.00">ShapeGlyph_I.js</text>
</a>
</g>
</g>
<!-- src/js/directable/directables/dotmatrix/shape/glyph/ShapeGlyph_J.js -->
<g id="node34" class="node">
<title>src/js/directable/directables/dotmatrix/shape/glyph/ShapeGlyph_J.js</title>
<g id="a_node34"><a xlink:href="src/js/directable/directables/dotmatrix/shape/glyph/ShapeGlyph_J.js" xlink:title="ShapeGlyph_J.js">
<path fill="#ccffcc" stroke="black" d="M638.71,-709.25C638.71,-709.25 565.29,-709.25 565.29,-709.25 562.21,-709.25 559.12,-706.17 559.12,-703.08 559.12,-703.08 559.12,-696.92 559.12,-696.92 559.12,-693.83 562.21,-690.75 565.29,-690.75 565.29,-690.75 638.71,-690.75 638.71,-690.75 641.79,-690.75 644.88,-693.83 644.88,-696.92 644.88,-696.92 644.88,-703.08 644.88,-703.08 644.88,-706.17 641.79,-709.25 638.71,-709.25"/>
<text text-anchor="start" x="567.12" y="-696.7" font-family="Helvetica,sans-Serif" font-size="9.00">ShapeGlyph_J.js</text>
</a>
</g>
</g>
<!-- src/js/directable/directables/dotmatrix/shape/glyph/ShapeGlyph_K.js -->
<g id="node35" class="node">
<title>src/js/directable/directables/dotmatrix/shape/glyph/ShapeGlyph_K.js</title>
<g id="a_node35"><a xlink:href="src/js/directable/directables/dotmatrix/shape/glyph/ShapeGlyph_K.js" xlink:title="ShapeGlyph_K.js">
<path fill="#ccffcc" stroke="black" d="M639.46,-740.25C639.46,-740.25 564.54,-740.25 564.54,-740.25 561.46,-740.25 558.38,-737.17 558.38,-734.08 558.38,-734.08 558.38,-727.92 558.38,-727.92 558.38,-724.83 561.46,-721.75 564.54,-721.75 564.54,-721.75 639.46,-721.75 639.46,-721.75 642.54,-721.75 645.62,-724.83 645.62,-727.92 645.62,-727.92 645.62,-734.08 645.62,-734.08 645.62,-737.17 642.54,-740.25 639.46,-740.25"/>
<text text-anchor="start" x="566.38" y="-727.7" font-family="Helvetica,sans-Serif" font-size="9.00">ShapeGlyph_K.js</text>
</a>
</g>
</g>
<!-- src/js/directable/directables/dotmatrix/shape/line/ShapeLineHorizontal.js -->
<g id="node36" class="node">
<title>src/js/directable/directables/dotmatrix/shape/line/ShapeLineHorizontal.js</title>
<g id="a_node36"><a xlink:href="src/js/directable/directables/dotmatrix/shape/line/ShapeLineHorizontal.js" xlink:title="ShapeLineHorizontal.js">
<path fill="#ccffcc" stroke="black" d="M651.83,-801.25C651.83,-801.25 552.17,-801.25 552.17,-801.25 549.08,-801.25 546,-798.17 546,-795.08 546,-795.08 546,-788.92 546,-788.92 546,-785.83 549.08,-782.75 552.17,-782.75 552.17,-782.75 651.83,-782.75 651.83,-782.75 654.92,-782.75 658,-785.83 658,-788.92 658,-788.92 658,-795.08 658,-795.08 658,-798.17 654.92,-801.25 651.83,-801.25"/>
<text text-anchor="start" x="554" y="-788.7" font-family="Helvetica,sans-Serif" font-size="9.00">ShapeLineHorizontal.js</text>
</a>
</g>
</g>
<!-- src/js/directable/directables/dotmatrix/shape/line/ShapeLineVertical.js -->
<g id="node37" class="node">
<title>src/js/directable/directables/dotmatrix/shape/line/ShapeLineVertical.js</title>
<g id="a_node37"><a xlink:href="src/js/directable/directables/dotmatrix/shape/line/ShapeLineVertical.js" xlink:title="ShapeLineVertical.js">
<path fill="#ccffcc" stroke="black" d="M645.83,-832.25C645.83,-832.25 558.17,-832.25 558.17,-832.25 555.08,-832.25 552,-829.17 552,-826.08 552,-826.08 552,-819.92 552,-819.92 552,-816.83 555.08,-813.75 558.17,-813.75 558.17,-813.75 645.83,-813.75 645.83,-813.75 648.92,-813.75 652,-816.83 652,-819.92 652,-819.92 652,-826.08 652,-826.08 652,-829.17 648.92,-832.25 645.83,-832.25"/>
<text text-anchor="start" x="560" y="-819.7" font-family="Helvetica,sans-Serif" font-size="9.00">ShapeLineVertical.js</text>
</a>
</g>
</g>
<!-- src/js/directable/directables/dotmatrix/shape/primative/ShapeRectangle.js -->
<g id="node38" class="node">
<title>src/js/directable/directables/dotmatrix/shape/primative/ShapeRectangle.js</title>
<g id="a_node38"><a xlink:href="src/js/directable/directables/dotmatrix/shape/primative/ShapeRectangle.js" xlink:title="ShapeRectangle.js">
<path fill="#ccffcc" stroke="black" d="M642.83,-893.25C642.83,-893.25 561.17,-893.25 561.17,-893.25 558.08,-893.25 555,-890.17 555,-887.08 555,-887.08 555,-880.92 555,-880.92 555,-877.83 558.08,-874.75 561.17,-874.75 561.17,-874.75 642.83,-874.75 642.83,-874.75 645.92,-874.75 649,-877.83 649,-880.92 649,-880.92 649,-887.08 649,-887.08 649,-890.17 645.92,-893.25 642.83,-893.25"/>
<text text-anchor="start" x="563" y="-880.7" font-family="Helvetica,sans-Serif" font-size="9.00">ShapeRectangle.js</text>
</a>
</g>
</g>
<!-- src/js/directable/directables/dotmatrix/view/View.js -->
<g id="node39" class="node">
<title>src/js/directable/directables/dotmatrix/view/View.js</title>
<g id="a_node39"><a xlink:href="src/js/directable/directables/dotmatrix/view/View.js" xlink:title="View.js">
<path fill="#ffffcc" stroke="black" d="M775.46,-136.25C775.46,-136.25 733.79,-136.25 733.79,-136.25 730.71,-136.25 727.62,-133.17 727.62,-130.08 727.62,-130.08 727.62,-123.92 727.62,-123.92 727.62,-120.83 730.71,-117.75 733.79,-117.75 733.79,-117.75 775.46,-117.75 775.46,-117.75 778.54,-117.75 781.62,-120.83 781.62,-123.92 781.62,-123.92 781.62,-130.08 781.62,-130.08 781.62,-133.17 778.54,-136.25 775.46,-136.25"/>
<text text-anchor="start" x="740.38" y="-123.7" font-family="Helvetica,sans-Serif" font-size="9.00">View.js</text>
</a>
</g>
</g>
<!-- src/js/directable/directables/dotmatrix/view/View.js&#45;&gt;src/js/application/ApplicationLogger.js -->
<g id="edge16" class="edge">
<title>src/js/directable/directables/dotmatrix/view/View.js&#45;&gt;src/js/application/ApplicationLogger.js</title>
<path fill="none" stroke="#000000" stroke-width="2" stroke-opacity="0.200000" d="M727.2,-133.77C707.94,-140.31 684.51,-152.49 678,-174 672.53,-192.08 677.39,-325.12 678,-344 693.34,-819.06 743.2,-1399.57 752.96,-1510.28"/>
<polygon fill="#000000" fill-opacity="0.200000" stroke="#000000" stroke-width="2" stroke-opacity="0.200000" points="750.87,-1510.45 753.49,-1516.25 755.05,-1510.08 750.87,-1510.45"/>
</g>
<!-- src/js/directable/directables/dotmatrix/view/ViewFloor.js -->
<g id="node40" class="node">
<title>src/js/directable/directables/dotmatrix/view/ViewFloor.js</title>
<g id="a_node40"><a xlink:href="src/js/directable/directables/dotmatrix/view/ViewFloor.js" xlink:title="ViewFloor.js">
<path fill="#ccffcc" stroke="black" d="M488.96,-105.25C488.96,-105.25 435.79,-105.25 435.79,-105.25 432.71,-105.25 429.62,-102.17 429.62,-99.08 429.62,-99.08 429.62,-92.92 429.62,-92.92 429.62,-89.83 432.71,-86.75 435.79,-86.75 435.79,-86.75 488.96,-86.75 488.96,-86.75 492.04,-86.75 495.12,-89.83 495.12,-92.92 495.12,-92.92 495.12,-99.08 495.12,-99.08 495.12,-102.17 492.04,-105.25 488.96,-105.25"/>
<text text-anchor="start" x="437.62" y="-92.7" font-family="Helvetica,sans-Serif" font-size="9.00">ViewFloor.js</text>
</a>
</g>
</g>
<!-- src/js/directable/directables/dotmatrix/view/ViewTest.js&#45;&gt;src/js/application/ApplicationLogger.js -->
<g id="edge22" class="edge">
<title>src/js/directable/directables/dotmatrix/view/ViewTest.js&#45;&gt;src/js/application/ApplicationLogger.js</title>
<path fill="none" stroke="#000000" stroke-width="2" stroke-opacity="0.200000" d="M633.22,-136.58C648.17,-142.98 664.92,-153.03 674,-168 684.5,-185.3 680.94,-329.79 682,-350 706.72,-822.14 745.01,-1400.12 752.38,-1510.36"/>
<polygon fill="#000000" fill-opacity="0.200000" stroke="#000000" stroke-width="2" stroke-opacity="0.200000" points="750.28,-1510.44 752.77,-1516.28 754.47,-1510.15 750.28,-1510.44"/>
</g>
<!-- src/js/directable/directables/dotmatrix/view/ViewTest.js&#45;&gt;src/js/directable/directables/dotmatrix/view/View.js -->
<g id="edge23" class="edge">
<title>src/js/directable/directables/dotmatrix/view/ViewTest.js&#45;&gt;src/js/directable/directables/dotmatrix/view/View.js</title>
<path fill="none" stroke="#000000" stroke-width="2" stroke-opacity="0.200000" d="M633.12,-127C657.85,-127 692.89,-127 718.82,-127"/>
<polygon fill="#000000" fill-opacity="0.200000" stroke="#000000" stroke-width="2" stroke-opacity="0.200000" points="718.55,-129.1 724.55,-127 718.55,-124.9 718.55,-129.1"/>
</g>
<!-- src/js/directable/directables/dotmatrix/view/ViewTextTest.js -->
<g id="node42" class="node">
<title>src/js/directable/directables/dotmatrix/view/ViewTextTest.js</title>
<g id="a_node42"><a xlink:href="src/js/directable/directables/dotmatrix/view/ViewTextTest.js" xlink:title="ViewTextTest.js">
<path fill="#ccffcc" stroke="black" d="M495.33,-136.25C495.33,-136.25 429.42,-136.25 429.42,-136.25 426.33,-136.25 423.25,-133.17 423.25,-130.08 423.25,-130.08 423.25,-123.92 423.25,-123.92 423.25,-120.83 426.33,-117.75 429.42,-117.75 429.42,-117.75 495.33,-117.75 495.33,-117.75 498.42,-117.75 501.5,-120.83 501.5,-123.92 501.5,-123.92 501.5,-130.08 501.5,-130.08 501.5,-133.17 498.42,-136.25 495.33,-136.25"/>
<text text-anchor="start" x="431.25" y="-123.7" font-family="Helvetica,sans-Serif" font-size="9.00">ViewTextTest.js</text>
</a>
</g>
</g>
<!-- src/js/directable/directables/frame/DirectableFrame.js -->
<g id="node43" class="node">
<title>src/js/directable/directables/frame/DirectableFrame.js</title>
<g id="a_node43"><a xlink:href="src/js/directable/directables/frame/DirectableFrame.js" xlink:title="DirectableFrame.js">
<path fill="#ffffcc" stroke="black" d="M357.21,-1345.25C357.21,-1345.25 276.29,-1345.25 276.29,-1345.25 273.21,-1345.25 270.12,-1342.17 270.12,-1339.08 270.12,-1339.08 270.12,-1332.92 270.12,-1332.92 270.12,-1329.83 273.21,-1326.75 276.29,-1326.75 276.29,-1326.75 357.21,-1326.75 357.21,-1326.75 360.29,-1326.75 363.38,-1329.83 363.38,-1332.92 363.38,-1332.92 363.38,-1339.08 363.38,-1339.08 363.38,-1342.17 360.29,-1345.25 357.21,-1345.25"/>
<text text-anchor="start" x="278.12" y="-1332.7" font-family="Helvetica,sans-Serif" font-size="9.00">DirectableFrame.js</text>
</a>
</g>
</g>
<!-- src/js/directable/directables/frame/DirectableFrame.js&#45;&gt;src/js/application/ApplicationLogger.js -->
<g id="edge24" class="edge">
<title>src/js/directable/directables/frame/DirectableFrame.js&#45;&gt;src/js/application/ApplicationLogger.js</title>
<path fill="none" stroke="#000000" stroke-width="2" stroke-opacity="0.200000" d="M355.92,-1345.75C373.17,-1352 392.4,-1361.86 404.75,-1377 414.29,-1388.7 401.65,-1399.78 412.75,-1410 415.45,-1412.49 670.72,-1449.35 674,-1451 702.75,-1465.44 727.74,-1494.02 741.73,-1512.28"/>
<polygon fill="#000000" fill-opacity="0.200000" stroke="#000000" stroke-width="2" stroke-opacity="0.200000" points="739.96,-1513.42 745.22,-1516.98 743.33,-1510.91 739.96,-1513.42"/>
</g>
<!-- src/js/directable/directables/rhythm/DirectableRhythm.js -->
<g id="node44" class="node">
<title>src/js/directable/directables/rhythm/DirectableRhythm.js</title>
<g id="a_node44"><a xlink:href="src/js/directable/directables/rhythm/DirectableRhythm.js" xlink:title="DirectableRhythm.js">
<path fill="#ffffcc" stroke="black" d="M505.46,-1257.25C505.46,-1257.25 419.29,-1257.25 419.29,-1257.25 416.21,-1257.25 413.12,-1254.17 413.12,-1251.08 413.12,-1251.08 413.12,-1244.92 413.12,-1244.92 413.12,-1241.83 416.21,-1238.75 419.29,-1238.75 419.29,-1238.75 505.46,-1238.75 505.46,-1238.75 508.54,-1238.75 511.62,-1241.83 511.62,-1244.92 511.62,-1244.92 511.62,-1251.08 511.62,-1251.08 511.62,-1254.17 508.54,-1257.25 505.46,-1257.25"/>
<text text-anchor="start" x="421.12" y="-1244.7" font-family="Helvetica,sans-Serif" font-size="9.00">DirectableRhythm.js</text>
</a>
</g>
</g>
<!-- src/js/directable/directables/rhythm/asdr/ASDRData.js -->
<g id="node45" class="node">
<title>src/js/directable/directables/rhythm/asdr/ASDRData.js</title>
<g id="a_node45"><a xlink:href="src/js/directable/directables/rhythm/asdr/ASDRData.js" xlink:title="ASDRData.js">
<path fill="#ccffcc" stroke="black" d="M345.58,-1134.25C345.58,-1134.25 287.92,-1134.25 287.92,-1134.25 284.83,-1134.25 281.75,-1131.17 281.75,-1128.08 281.75,-1128.08 281.75,-1121.92 281.75,-1121.92 281.75,-1118.83 284.83,-1115.75 287.92,-1115.75 287.92,-1115.75 345.58,-1115.75 345.58,-1115.75 348.67,-1115.75 351.75,-1118.83 351.75,-1121.92 351.75,-1121.92 351.75,-1128.08 351.75,-1128.08 351.75,-1131.17 348.67,-1134.25 345.58,-1134.25"/>
<text text-anchor="start" x="289.75" y="-1121.7" font-family="Helvetica,sans-Serif" font-size="9.00">ASDRData.js</text>
</a>
</g>
</g>
<!-- src/js/directable/directables/rhythm/asdr/ASDREnvelope.js -->
<g id="node46" class="node">
<title>src/js/directable/directables/rhythm/asdr/ASDREnvelope.js</title>
<g id="a_node46"><a xlink:href="src/js/directable/directables/rhythm/asdr/ASDREnvelope.js" xlink:title="ASDREnvelope.js">
<path fill="#ffffcc" stroke="black" d="M355.33,-1165.25C355.33,-1165.25 278.17,-1165.25 278.17,-1165.25 275.08,-1165.25 272,-1162.17 272,-1159.08 272,-1159.08 272,-1152.92 272,-1152.92 272,-1149.83 275.08,-1146.75 278.17,-1146.75 278.17,-1146.75 355.33,-1146.75 355.33,-1146.75 358.42,-1146.75 361.5,-1149.83 361.5,-1152.92 361.5,-1152.92 361.5,-1159.08 361.5,-1159.08 361.5,-1162.17 358.42,-1165.25 355.33,-1165.25"/>
<text text-anchor="start" x="280" y="-1152.7" font-family="Helvetica,sans-Serif" font-size="9.00">ASDREnvelope.js</text>
</a>
</g>
</g>
<!-- src/js/directable/directables/rhythm/asdr/ASDREnvelope.js&#45;&gt;src/js/application/ApplicationLogger.js -->
<g id="edge25" class="edge">
<title>src/js/directable/directables/rhythm/asdr/ASDREnvelope.js&#45;&gt;src/js/application/ApplicationLogger.js</title>
<path fill="none" stroke="#000000" stroke-width="2" stroke-opacity="0.200000" d="M361.74,-1153.49C377.56,-1155.01 394.11,-1159.88 404.75,-1172 427.21,-1197.58 389.34,-1300.28 412.75,-1325 432.82,-1346.2 650.35,-1335.89 674,-1353 727.13,-1391.44 745.55,-1473.83 751.29,-1510.61"/>
<polygon fill="#000000" fill-opacity="0.200000" stroke="#000000" stroke-width="2" stroke-opacity="0.200000" points="749.18,-1510.68 752.11,-1516.32 753.33,-1510.08 749.18,-1510.68"/>
</g>
<!-- src/js/directable/directables/rhythm/asdr/DirectableRhythmASDRManager.js -->
<g id="node47" class="node">
<title>src/js/directable/directables/rhythm/asdr/DirectableRhythmASDRManager.js</title>
<g id="a_node47"><a xlink:href="src/js/directable/directables/rhythm/asdr/DirectableRhythmASDRManager.js" xlink:title="DirectableRhythmASDRManager.js">
<path fill="#ffffcc" stroke="black" d="M390.58,-1196.25C390.58,-1196.25 242.92,-1196.25 242.92,-1196.25 239.83,-1196.25 236.75,-1193.17 236.75,-1190.08 236.75,-1190.08 236.75,-1183.92 236.75,-1183.92 236.75,-1180.83 239.83,-1177.75 242.92,-1177.75 242.92,-1177.75 390.58,-1177.75 390.58,-1177.75 393.67,-1177.75 396.75,-1180.83 396.75,-1183.92 396.75,-1183.92 396.75,-1190.08 396.75,-1190.08 396.75,-1193.17 393.67,-1196.25 390.58,-1196.25"/>
<text text-anchor="start" x="244.75" y="-1183.7" font-family="Helvetica,sans-Serif" font-size="9.00">DirectableRhythmASDRManager.js</text>
</a>
</g>
</g>
<!-- src/js/directable/directables/rhythm/asdr/DirectableRhythmASDRManager.js&#45;&gt;src/js/application/ApplicationLogger.js -->
<g id="edge26" class="edge">
<title>src/js/directable/directables/rhythm/asdr/DirectableRhythmASDRManager.js&#45;&gt;src/js/application/ApplicationLogger.js</title>
<path fill="none" stroke="#000000" stroke-width="2" stroke-opacity="0.200000" d="M359.32,-1196.68C376.2,-1202.8 394.17,-1212.58 404.75,-1228 418.74,-1248.39 395.84,-1320.96 412.75,-1339 429.51,-1356.88 497.95,-1349.28 522,-1354 590.44,-1367.43 618.32,-1351.01 674,-1393 714.61,-1423.62 738.22,-1481.48 748.12,-1510.87"/>
<polygon fill="#000000" fill-opacity="0.200000" stroke="#000000" stroke-width="2" stroke-opacity="0.200000" points="746.08,-1511.4 749.92,-1516.47 750.08,-1510.11 746.08,-1511.4"/>
</g>
<!-- src/js/directable/directables/rhythm/bpm/DirectableRhythmBPM.js -->
<g id="node48" class="node">
<title>src/js/directable/directables/rhythm/bpm/DirectableRhythmBPM.js</title>
<g id="a_node48"><a xlink:href="src/js/directable/directables/rhythm/bpm/DirectableRhythmBPM.js" xlink:title="DirectableRhythmBPM.js">
<path fill="#ffffcc" stroke="black" d="M369.58,-1257.25C369.58,-1257.25 263.92,-1257.25 263.92,-1257.25 260.83,-1257.25 257.75,-1254.17 257.75,-1251.08 257.75,-1251.08 257.75,-1244.92 257.75,-1244.92 257.75,-1241.83 260.83,-1238.75 263.92,-1238.75 263.92,-1238.75 369.58,-1238.75 369.58,-1238.75 372.67,-1238.75 375.75,-1241.83 375.75,-1244.92 375.75,-1244.92 375.75,-1251.08 375.75,-1251.08 375.75,-1254.17 372.67,-1257.25 369.58,-1257.25"/>
<text text-anchor="start" x="265.75" y="-1244.7" font-family="Helvetica,sans-Serif" font-size="9.00">DirectableRhythmBPM.js</text>
</a>
</g>
</g>
<!-- src/js/directable/directables/rhythm/bpm/DirectableRhythmBPM.js&#45;&gt;src/js/application/ApplicationLogger.js -->
<g id="edge27" class="edge">
<title>src/js/directable/directables/rhythm/bpm/DirectableRhythmBPM.js&#45;&gt;src/js/application/ApplicationLogger.js</title>
<path fill="none" stroke="#000000" stroke-width="2" stroke-opacity="0.200000" d="M336.91,-1257.71C357.04,-1268.95 388.05,-1289.37 404.75,-1316 413.69,-1330.25 401.21,-1340.75 412.75,-1353 495.42,-1440.75 574,-1358.67 674,-1426 706.92,-1448.16 732.14,-1488.37 744.73,-1511.45"/>
<polygon fill="#000000" fill-opacity="0.200000" stroke="#000000" stroke-width="2" stroke-opacity="0.200000" points="742.85,-1512.39 747.52,-1516.71 746.56,-1510.42 742.85,-1512.39"/>
</g>
<!-- src/js/directable/directables/rhythm/bpm/DirectableRhythmBPM.js&#45;&gt;src/js/directable/directables/rhythm/DirectableRhythm.js -->
<g id="edge28" class="edge">
<title>src/js/directable/directables/rhythm/bpm/DirectableRhythmBPM.js&#45;&gt;src/js/directable/directables/rhythm/DirectableRhythm.js</title>
<path fill="none" stroke="#000000" stroke-width="2" stroke-opacity="0.200000" d="M376.17,-1248C385.25,-1248 394.64,-1248 403.71,-1248"/>
<polygon fill="#000000" fill-opacity="0.200000" stroke="#000000" stroke-width="2" stroke-opacity="0.200000" points="403.62,-1250.1 409.62,-1248 403.62,-1245.9 403.62,-1250.1"/>
</g>
<!-- src/js/directable/directables/rhythm2/ViewRhythm.js -->
<g id="node49" class="node">
<title>src/js/directable/directables/rhythm2/ViewRhythm.js</title>
<g id="a_node49"><a xlink:href="src/js/directable/directables/rhythm2/ViewRhythm.js" xlink:title="ViewRhythm.js">
<path fill="#ffffcc" stroke="black" d="M348.96,-1065.25C348.96,-1065.25 284.54,-1065.25 284.54,-1065.25 281.46,-1065.25 278.38,-1062.17 278.38,-1059.08 278.38,-1059.08 278.38,-1052.92 278.38,-1052.92 278.38,-1049.83 281.46,-1046.75 284.54,-1046.75 284.54,-1046.75 348.96,-1046.75 348.96,-1046.75 352.04,-1046.75 355.12,-1049.83 355.12,-1052.92 355.12,-1052.92 355.12,-1059.08 355.12,-1059.08 355.12,-1062.17 352.04,-1065.25 348.96,-1065.25"/>
<text text-anchor="start" x="286.38" y="-1052.7" font-family="Helvetica,sans-Serif" font-size="9.00">ViewRhythm.js</text>
</a>
</g>
</g>
<!-- src/js/directable/directables/rhythm2/ViewRhythmTrack.js -->
<g id="node50" class="node">
<title>src/js/directable/directables/rhythm2/ViewRhythmTrack.js</title>
<g id="a_node50"><a xlink:href="src/js/directable/directables/rhythm2/ViewRhythmTrack.js" xlink:title="ViewRhythmTrack.js">
<path fill="#ffffcc" stroke="black" d="M505.83,-1065.25C505.83,-1065.25 418.92,-1065.25 418.92,-1065.25 415.83,-1065.25 412.75,-1062.17 412.75,-1059.08 412.75,-1059.08 412.75,-1052.92 412.75,-1052.92 412.75,-1049.83 415.83,-1046.75 418.92,-1046.75 418.92,-1046.75 505.83,-1046.75 505.83,-1046.75 508.92,-1046.75 512,-1049.83 512,-1052.92 512,-1052.92 512,-1059.08 512,-1059.08 512,-1062.17 508.92,-1065.25 505.83,-1065.25"/>
<text text-anchor="start" x="420.75" y="-1052.7" font-family="Helvetica,sans-Serif" font-size="9.00">ViewRhythmTrack.js</text>
</a>
</g>
</g>
<!-- src/js/directable/directables/rhythm2/ViewRhythm.js&#45;&gt;src/js/directable/directables/rhythm2/ViewRhythmTrack.js -->
<g id="edge29" class="edge">
<title>src/js/directable/directables/rhythm2/ViewRhythm.js&#45;&gt;src/js/directable/directables/rhythm2/ViewRhythmTrack.js</title>
<path fill="none" stroke="#000000" stroke-width="2" stroke-opacity="0.200000" d="M355.49,-1056C370.14,-1056 387.26,-1056 403.41,-1056"/>
<polygon fill="#000000" fill-opacity="0.200000" stroke="#000000" stroke-width="2" stroke-opacity="0.200000" points="403.24,-1058.1 409.24,-1056 403.24,-1053.9 403.24,-1058.1"/>
</g>
<!-- src/js/directable/directables/title/DirectableTitle.js&#45;&gt;src/js/application/ApplicationLogger.js -->
<g id="edge30" class="edge">
<title>src/js/directable/directables/title/DirectableTitle.js&#45;&gt;src/js/application/ApplicationLogger.js</title>
<path fill="none" stroke="#000000" stroke-width="2" stroke-opacity="0.200000" d="M346.71,-1406.66C365.46,-1412.78 390.44,-1420.71 412.75,-1427 527.91,-1459.48 561.18,-1452.16 674,-1492 692.31,-1498.47 712.12,-1507.66 727.4,-1515.27"/>
<polygon fill="#000000" fill-opacity="0.200000" stroke="#000000" stroke-width="2" stroke-opacity="0.200000" points="726.38,-1517.1 732.68,-1517.94 728.27,-1513.35 726.38,-1517.1"/>
</g>
<!-- src/js/enum/DisplayFormats.js -->
<g id="node52" class="node">
<title>src/js/enum/DisplayFormats.js</title>
<g id="a_node52"><a xlink:href="src/js/enum/DisplayFormats.js" xlink:title="DisplayFormats.js">
<path fill="#ffffcc" stroke="black" d="M640.21,-1711.25C640.21,-1711.25 563.79,-1711.25 563.79,-1711.25 560.71,-1711.25 557.62,-1708.17 557.62,-1705.08 557.62,-1705.08 557.62,-1698.92 557.62,-1698.92 557.62,-1695.83 560.71,-1692.75 563.79,-1692.75 563.79,-1692.75 640.21,-1692.75 640.21,-1692.75 643.29,-1692.75 646.38,-1695.83 646.38,-1698.92 646.38,-1698.92 646.38,-1705.08 646.38,-1705.08 646.38,-1708.17 643.29,-1711.25 640.21,-1711.25"/>
<text text-anchor="start" x="565.62" y="-1698.7" font-family="Helvetica,sans-Serif" font-size="9.00">DisplayFormats.js</text>
</a>
</g>
</g>
<!-- src/js/index.js -->
<g id="node53" class="node">
<title>src/js/index.js</title>
<g id="a_node53"><a xlink:href="src/js/index.js" xlink:title="index.js">
<path fill="#ffffcc" stroke="black" d="M483.21,-1700.25C483.21,-1700.25 441.54,-1700.25 441.54,-1700.25 438.46,-1700.25 435.38,-1697.17 435.38,-1694.08 435.38,-1694.08 435.38,-1687.92 435.38,-1687.92 435.38,-1684.83 438.46,-1681.75 441.54,-1681.75 441.54,-1681.75 483.21,-1681.75 483.21,-1681.75 486.29,-1681.75 489.38,-1684.83 489.38,-1687.92 489.38,-1687.92 489.38,-1694.08 489.38,-1694.08 489.38,-1697.17 486.29,-1700.25 483.21,-1700.25"/>
<text text-anchor="start" x="446.62" y="-1687.7" font-family="Helvetica,sans-Serif" font-size="9.00">index.js</text>
</a>
</g>
</g>
<!-- src/js/index.js&#45;&gt;src/js/application/Application.js -->
<g id="edge34" class="edge">
<title>src/js/index.js&#45;&gt;src/js/application/Application.js</title>
<path fill="none" stroke="#000000" stroke-width="2" stroke-opacity="0.200000" d="M489.73,-1688.11C500.3,-1686.11 512.26,-1682.72 522,-1677 551.5,-1659.67 576.43,-1627.82 590.01,-1608.12"/>
<polygon fill="#000000" fill-opacity="0.200000" stroke="#000000" stroke-width="2" stroke-opacity="0.200000" points="591.67,-1609.41 593.26,-1603.26 588.18,-1607.07 591.67,-1609.41"/>
</g>
<!-- src/js/overlay/displayFormat/OverlayDisplayFormat.js&#45;&gt;src/js/enum/DisplayFormats.js -->
<g id="edge42" class="edge">
<title>src/js/overlay/displayFormat/OverlayDisplayFormat.js&#45;&gt;src/js/enum/DisplayFormats.js</title>
<path fill="none" stroke="#000000" stroke-width="2" stroke-opacity="0.200000" d="M322.27,-1620.53C333.65,-1643.29 365.98,-1700.47 412.75,-1722 463.96,-1745.58 531.06,-1728.58 569.76,-1714.8"/>
<polygon fill="#000000" fill-opacity="0.200000" stroke="#000000" stroke-width="2" stroke-opacity="0.200000" points="570.3,-1716.84 575.2,-1712.79 568.84,-1712.9 570.3,-1716.84"/>
</g>
<!-- src/js/overlay/OverlayUtil.js -->
<g id="node56" class="node">
<title>src/js/overlay/OverlayUtil.js</title>
<g id="a_node56"><a xlink:href="src/js/overlay/OverlayUtil.js" xlink:title="OverlayUtil.js">
<path fill="#ffffcc" stroke="black" d="M491.21,-1564.25C491.21,-1564.25 433.54,-1564.25 433.54,-1564.25 430.46,-1564.25 427.38,-1561.17 427.38,-1558.08 427.38,-1558.08 427.38,-1551.92 427.38,-1551.92 427.38,-1548.83 430.46,-1545.75 433.54,-1545.75 433.54,-1545.75 491.21,-1545.75 491.21,-1545.75 494.29,-1545.75 497.38,-1548.83 497.38,-1551.92 497.38,-1551.92 497.38,-1558.08 497.38,-1558.08 497.38,-1561.17 494.29,-1564.25 491.21,-1564.25"/>
<text text-anchor="start" x="435.38" y="-1551.7" font-family="Helvetica,sans-Serif" font-size="9.00">OverlayUtil.js</text>
</a>
</g>
</g>
<!-- src/js/overlay/displayFormat/OverlayDisplayFormat.js&#45;&gt;src/js/overlay/OverlayUtil.js -->
<g id="edge43" class="edge">
<title>src/js/overlay/displayFormat/OverlayDisplayFormat.js&#45;&gt;src/js/overlay/OverlayUtil.js</title>
<path fill="none" stroke="#000000" stroke-width="2" stroke-opacity="0.200000" d="M366.43,-1601.36C379.15,-1598.12 392.67,-1594.03 404.75,-1589 417.24,-1583.81 430.24,-1576.18 440.63,-1569.47"/>
<polygon fill="#000000" fill-opacity="0.200000" stroke="#000000" stroke-width="2" stroke-opacity="0.200000" points="441.65,-1571.31 445.49,-1566.24 439.33,-1567.81 441.65,-1571.31"/>
</g>
<!-- src/js/overlay/overlay/OverlayOverlay.js&#45;&gt;src/js/overlay/OverlayUtil.js -->
<g id="edge44" class="edge">
<title>src/js/overlay/overlay/OverlayOverlay.js&#45;&gt;src/js/overlay/OverlayUtil.js</title>
<path fill="none" stroke="#000000" stroke-width="2" stroke-opacity="0.200000" d="M360.84,-1551.5C379.02,-1552.13 400.14,-1552.87 418.31,-1553.5"/>
<polygon fill="#000000" fill-opacity="0.200000" stroke="#000000" stroke-width="2" stroke-opacity="0.200000" points="417.88,-1555.59 423.95,-1553.7 418.02,-1551.39 417.88,-1555.59"/>
</g>
<!-- src/js/overlay/OverlayUtil.js&#45;&gt;src/js/application/ApplicationLogger.js -->
<g id="edge41" class="edge">
<title>src/js/overlay/OverlayUtil.js&#45;&gt;src/js/application/ApplicationLogger.js</title>
<path fill="none" stroke="#000000" stroke-width="2" stroke-opacity="0.200000" d="M497.54,-1549.35C507.94,-1547.77 519.42,-1546.17 530,-1545 586.22,-1538.78 650.67,-1534.47 695.89,-1531.9"/>
<polygon fill="#000000" fill-opacity="0.200000" stroke="#000000" stroke-width="2" stroke-opacity="0.200000" points="695.77,-1534.01 701.64,-1531.58 695.54,-1529.81 695.77,-1534.01"/>
</g>
<!-- src/js/overlay/OverlayUtil.js&#45;&gt;src/js/application/ApplicationDispatcher.js -->
<g id="edge40" class="edge">
<title>src/js/overlay/OverlayUtil.js&#45;&gt;src/js/application/ApplicationDispatcher.js</title>
<path fill="none" stroke="#000000" stroke-width="2" stroke-opacity="0.200000" d="M497.75,-1556.25C509.26,-1556.67 522.51,-1557.15 535.59,-1557.62"/>
<polygon fill="#000000" fill-opacity="0.200000" stroke="#000000" stroke-width="2" stroke-opacity="0.200000" points="535.5,-1559.72 541.58,-1557.84 535.66,-1555.52 535.5,-1559.72"/>
</g>
<!-- src/js/view/render/RenderController.js&#45;&gt;src/js/application/ApplicationConfiguration.js -->
<g id="edge46" class="edge">
<title>src/js/view/render/RenderController.js&#45;&gt;src/js/application/ApplicationConfiguration.js</title>
<path fill="none" stroke="#000000" stroke-width="2" stroke-opacity="0.200000" d="M340.67,-1785.74C359.6,-1793.24 387.39,-1802.97 412.75,-1807 528.69,-1825.44 584.18,-1843.59 674,-1768 724.41,-1725.58 744.26,-1644.7 750.83,-1608.86"/>
<polygon fill="#000000" fill-opacity="0.200000" stroke="#000000" stroke-width="2" stroke-opacity="0.200000" points="752.83,-1609.64 751.78,-1603.38 748.69,-1608.93 752.83,-1609.64"/>
</g>
<!-- src/js/view/render/RenderResizer.js -->
<g id="node58" class="node">
<title>src/js/view/render/RenderResizer.js</title>
<g id="a_node58"><a xlink:href="src/js/view/render/RenderResizer.js" xlink:title="RenderResizer.js">
<path fill="#ffffcc" stroke="black" d="M499.46,-1770.25C499.46,-1770.25 425.29,-1770.25 425.29,-1770.25 422.21,-1770.25 419.12,-1767.17 419.12,-1764.08 419.12,-1764.08 419.12,-1757.92 419.12,-1757.92 419.12,-1754.83 422.21,-1751.75 425.29,-1751.75 425.29,-1751.75 499.46,-1751.75 499.46,-1751.75 502.54,-1751.75 505.62,-1754.83 505.62,-1757.92 505.62,-1757.92 505.62,-1764.08 505.62,-1764.08 505.62,-1767.17 502.54,-1770.25 499.46,-1770.25"/>
<text text-anchor="start" x="427.12" y="-1757.7" font-family="Helvetica,sans-Serif" font-size="9.00">RenderResizer.js</text>
</a>
</g>
</g>
<!-- src/js/view/render/RenderController.js&#45;&gt;src/js/view/render/RenderResizer.js -->
<g id="edge47" class="edge">
<title>src/js/view/render/RenderController.js&#45;&gt;src/js/view/render/RenderResizer.js</title>
<path fill="none" stroke="#000000" stroke-width="2" stroke-opacity="0.200000" d="M364.78,-1771.09C379.41,-1769.56 395.61,-1767.87 410.5,-1766.31"/>
<polygon fill="#000000" fill-opacity="0.200000" stroke="#000000" stroke-width="2" stroke-opacity="0.200000" points="410.33,-1768.44 416.08,-1765.73 409.89,-1764.27 410.33,-1768.44"/>
</g>
<!-- src/js/view/render/RenderSurface.js -->
<g id="node59" class="node">
<title>src/js/view/render/RenderSurface.js</title>
<g id="a_node59"><a xlink:href="src/js/view/render/RenderSurface.js" xlink:title="RenderSurface.js">
<path fill="#ffffcc" stroke="black" d="M499.83,-1801.25C499.83,-1801.25 424.92,-1801.25 424.92,-1801.25 421.83,-1801.25 418.75,-1798.17 418.75,-1795.08 418.75,-1795.08 418.75,-1788.92 418.75,-1788.92 418.75,-1785.83 421.83,-1782.75 424.92,-1782.75 424.92,-1782.75 499.83,-1782.75 499.83,-1782.75 502.92,-1782.75 506,-1785.83 506,-1788.92 506,-1788.92 506,-1795.08 506,-1795.08 506,-1798.17 502.92,-1801.25 499.83,-1801.25"/>
<text text-anchor="start" x="426.75" y="-1788.7" font-family="Helvetica,sans-Serif" font-size="9.00">RenderSurface.js</text>
</a>
</g>
</g>
<!-- src/js/view/render/RenderController.js&#45;&gt;src/js/view/render/RenderSurface.js -->
<g id="edge48" class="edge">
<title>src/js/view/render/RenderController.js&#45;&gt;src/js/view/render/RenderSurface.js</title>
<path fill="none" stroke="#000000" stroke-width="2" stroke-opacity="0.200000" d="M364.78,-1781.24C379.14,-1782.84 395.01,-1784.61 409.67,-1786.24"/>
<polygon fill="#000000" fill-opacity="0.200000" stroke="#000000" stroke-width="2" stroke-opacity="0.200000" points="409.41,-1788.32 415.6,-1786.9 409.87,-1784.15 409.41,-1788.32"/>
</g>
<!-- src/js/view/render/RenderResizer.js&#45;&gt;src/js/application/ApplicationConfiguration.js -->
<g id="edge49" class="edge">
<title>src/js/view/render/RenderResizer.js&#45;&gt;src/js/application/ApplicationConfiguration.js</title>
<path fill="none" stroke="#000000" stroke-width="2" stroke-opacity="0.200000" d="M505.54,-1770.69C550.98,-1778.66 623.57,-1783.91 674,-1751 724.35,-1718.14 744.1,-1643.35 750.72,-1608.94"/>
<polygon fill="#000000" fill-opacity="0.200000" stroke="#000000" stroke-width="2" stroke-opacity="0.200000" points="752.73,-1609.62 751.72,-1603.35 748.6,-1608.88 752.73,-1609.62"/>
</g>
<!-- src/js/view/render/RenderResizer.js&#45;&gt;src/js/application/ApplicationLogger.js -->
<g id="edge51" class="edge">
<title>src/js/view/render/RenderResizer.js&#45;&gt;src/js/application/ApplicationLogger.js</title>
<path fill="none" stroke="#000000" stroke-width="2" stroke-opacity="0.200000" d="M506.04,-1758.38C565.93,-1754.49 668.3,-1747.02 674,-1741 688.99,-1725.18 668.03,-1561.73 682,-1545 685.9,-1540.34 690.83,-1536.85 696.27,-1534.28"/>
<polygon fill="#000000" fill-opacity="0.200000" stroke="#000000" stroke-width="2" stroke-opacity="0.200000" points="696.87,-1536.29 701.73,-1532.19 695.38,-1532.37 696.87,-1536.29"/>
</g>
<!-- src/js/view/render/RenderResizer.js&#45;&gt;src/js/application/ApplicationDispatcher.js -->
<g id="edge50" class="edge">
<title>src/js/view/render/RenderResizer.js&#45;&gt;src/js/application/ApplicationDispatcher.js</title>
<path fill="none" stroke="#000000" stroke-width="2" stroke-opacity="0.200000" d="M505.89,-1758.54C512.07,-1756.36 517.77,-1753.03 522,-1748 534.32,-1733.36 517.71,-1590.66 530,-1576 532.11,-1573.48 534.53,-1571.31 537.17,-1569.44"/>
<polygon fill="#000000" fill-opacity="0.200000" stroke="#000000" stroke-width="2" stroke-opacity="0.200000" points="537.83,-1571.48 541.99,-1566.67 535.74,-1567.84 537.83,-1571.48"/>
</g>
<!-- src/js/view/render/RenderResizer.js&#45;&gt;src/js/enum/DisplayFormats.js -->
<g id="edge52" class="edge">
<title>src/js/view/render/RenderResizer.js&#45;&gt;src/js/enum/DisplayFormats.js</title>
<path fill="none" stroke="#000000" stroke-width="2" stroke-opacity="0.200000" d="M486.1,-1751.26C509.15,-1741.38 544.96,-1726.02 570.47,-1715.09"/>
<polygon fill="#000000" fill-opacity="0.200000" stroke="#000000" stroke-width="2" stroke-opacity="0.200000" points="571.23,-1717.05 575.91,-1712.75 569.57,-1713.19 571.23,-1717.05"/>
</g>
<!-- src/js/view/render/RenderSurface.js&#45;&gt;src/js/application/ApplicationLogger.js -->
<g id="edge53" class="edge">
<title>src/js/view/render/RenderSurface.js&#45;&gt;src/js/application/ApplicationLogger.js</title>
<path fill="none" stroke="#000000" stroke-width="2" stroke-opacity="0.200000" d="M506.44,-1798.09C555.19,-1802.28 633.13,-1800.25 674,-1753 689.13,-1735.51 667.19,-1562.77 682,-1545 685.89,-1540.33 690.82,-1536.85 696.26,-1534.27"/>
<polygon fill="#000000" fill-opacity="0.200000" stroke="#000000" stroke-width="2" stroke-opacity="0.200000" points="696.86,-1536.29 701.72,-1532.18 695.36,-1532.36 696.86,-1536.29"/>
</g>
</g>
</svg>
