<?xml version="1.0" encoding="UTF-8" standalone="no"?>
<!DOCTYPE svg PUBLIC "-//W3C//DTD SVG 1.1//EN"
 "http://www.w3.org/Graphics/SVG/1.1/DTD/svg11.dtd">
<!-- Generated by graphviz version 12.2.1 (20241206.2353)
 -->
<!-- Title: dependency&#45;cruiser output Pages: 1 -->
<svg width="718pt" height="2124pt"
 viewBox="0.00 0.00 717.75 2124.00" xmlns="http://www.w3.org/2000/svg" xmlns:xlink="http://www.w3.org/1999/xlink">
<g id="graph0" class="graph" transform="scale(1 1) rotate(0) translate(4 2120)">
<title>dependency&#45;cruiser output</title>
<polygon fill="white" stroke="none" points="-4,4 -4,-2120 713.75,-2120 713.75,4 -4,4"/>
<g id="clust1" class="cluster">
<title>cluster_src</title>
<path fill="#ffffff" stroke="black" stroke-width="2" d="M20,-8C20,-8 689.75,-8 689.75,-8 695.75,-8 701.75,-14 701.75,-20 701.75,-20 701.75,-2096 701.75,-2096 701.75,-2102 695.75,-2108 689.75,-2108 689.75,-2108 20,-2108 20,-2108 14,-2108 8,-2102 8,-2096 8,-2096 8,-20 8,-20 8,-14 14,-8 20,-8"/>
<text text-anchor="middle" x="354.88" y="-2095.45" font-family="Helvetica,sans-Serif" font-weight="bold" font-size="9.00">src</text>
</g>
<g id="clust2" class="cluster">
<title>cluster_src/js</title>
<path fill="#ffffff" stroke="black" stroke-width="2" d="M28,-16C28,-16 681.75,-16 681.75,-16 687.75,-16 693.75,-22 693.75,-28 693.75,-28 693.75,-2069 693.75,-2069 693.75,-2075 687.75,-2081 681.75,-2081 681.75,-2081 28,-2081 28,-2081 22,-2081 16,-2075 16,-2069 16,-2069 16,-28 16,-28 16,-22 22,-16 28,-16"/>
<text text-anchor="middle" x="354.88" y="-2068.45" font-family="Helvetica,sans-Serif" font-weight="bold" font-size="9.00">js</text>
</g>
<g id="clust3" class="cluster">
<title>cluster_src/js/application</title>
<path fill="#ffffff" stroke="black" stroke-width="2" d="M424.75,-161C424.75,-161 673.75,-161 673.75,-161 679.75,-161 685.75,-167 685.75,-173 685.75,-173 685.75,-264 685.75,-264 685.75,-270 679.75,-276 673.75,-276 673.75,-276 424.75,-276 424.75,-276 418.75,-276 412.75,-270 412.75,-264 412.75,-264 412.75,-173 412.75,-173 412.75,-167 418.75,-161 424.75,-161"/>
<text text-anchor="middle" x="549.25" y="-263.45" font-family="Helvetica,sans-Serif" font-weight="bold" font-size="9.00">application</text>
</g>
<g id="clust4" class="cluster">
<title>cluster_src/js/controller</title>
<path fill="#ffffff" stroke="black" stroke-width="2" d="M45.75,-292C45.75,-292 102.5,-292 102.5,-292 108.5,-292 114.5,-298 114.5,-304 114.5,-304 114.5,-333 114.5,-333 114.5,-339 108.5,-345 102.5,-345 102.5,-345 45.75,-345 45.75,-345 39.75,-345 33.75,-339 33.75,-333 33.75,-333 33.75,-304 33.75,-304 33.75,-298 39.75,-292 45.75,-292"/>
<text text-anchor="middle" x="74.12" y="-332.45" font-family="Helvetica,sans-Serif" font-weight="bold" font-size="9.00">controller</text>
</g>
<g id="clust5" class="cluster">
<title>cluster_src/js/data</title>
<path fill="#ffffff" stroke="black" stroke-width="2" d="M36,-1371C36,-1371 184,-1371 184,-1371 190,-1371 196,-1377 196,-1383 196,-1383 196,-1412 196,-1412 196,-1418 190,-1424 184,-1424 184,-1424 36,-1424 36,-1424 30,-1424 24,-1418 24,-1412 24,-1412 24,-1383 24,-1383 24,-1377 30,-1371 36,-1371"/>
<text text-anchor="middle" x="110" y="-1411.45" font-family="Helvetica,sans-Serif" font-weight="bold" font-size="9.00">data</text>
</g>
<g id="clust6" class="cluster">
<title>cluster_src/js/directable</title>
<path fill="#ffffff" stroke="black" stroke-width="2" d="M216.75,-533C216.75,-533 644.12,-533 644.12,-533 650.12,-533 656.12,-539 656.12,-545 656.12,-545 656.12,-2042 656.12,-2042 656.12,-2048 650.12,-2054 644.12,-2054 644.12,-2054 216.75,-2054 216.75,-2054 210.75,-2054 204.75,-2048 204.75,-2042 204.75,-2042 204.75,-545 204.75,-545 204.75,-539 210.75,-533 216.75,-533"/>
<text text-anchor="middle" x="430.44" y="-2041.45" font-family="Helvetica,sans-Serif" font-weight="bold" font-size="9.00">directable</text>
</g>
<g id="clust7" class="cluster">
<title>cluster_src/js/directable/directables</title>
<path fill="#ffffff" stroke="black" stroke-width="2" d="M224.75,-541C224.75,-541 531.5,-541 531.5,-541 537.5,-541 543.5,-547 543.5,-553 543.5,-553 543.5,-2004 543.5,-2004 543.5,-2010 537.5,-2016 531.5,-2016 531.5,-2016 224.75,-2016 224.75,-2016 218.75,-2016 212.75,-2010 212.75,-2004 212.75,-2004 212.75,-553 212.75,-553 212.75,-547 218.75,-541 224.75,-541"/>
<text text-anchor="middle" x="378.12" y="-2003.45" font-family="Helvetica,sans-Serif" font-weight="bold" font-size="9.00">directables</text>
</g>
<g id="clust8" class="cluster">
<title>cluster_src/js/directable/directables/dotmatrix</title>
<path fill="#ffffff" stroke="black" stroke-width="2" d="M248.12,-829C248.12,-829 522.5,-829 522.5,-829 528.5,-829 534.5,-835 534.5,-841 534.5,-841 534.5,-1855 534.5,-1855 534.5,-1861 528.5,-1867 522.5,-1867 522.5,-1867 248.12,-1867 248.12,-1867 242.12,-1867 236.12,-1861 236.12,-1855 236.12,-1855 236.12,-841 236.12,-841 236.12,-835 242.12,-829 248.12,-829"/>
<text text-anchor="middle" x="385.31" y="-1854.45" font-family="Helvetica,sans-Serif" font-weight="bold" font-size="9.00">dotmatrix</text>
</g>
<g id="clust9" class="cluster">
<title>cluster_src/js/directable/directables/dotmatrix/dots</title>
<path fill="#ffffff" stroke="black" stroke-width="2" d="M283.12,-837C283.12,-837 350.38,-837 350.38,-837 356.38,-837 362.38,-843 362.38,-849 362.38,-849 362.38,-909 362.38,-909 362.38,-915 356.38,-921 350.38,-921 350.38,-921 283.12,-921 283.12,-921 277.12,-921 271.12,-915 271.12,-909 271.12,-909 271.12,-849 271.12,-849 271.12,-843 277.12,-837 283.12,-837"/>
<text text-anchor="middle" x="316.75" y="-908.45" font-family="Helvetica,sans-Serif" font-weight="bold" font-size="9.00">dots</text>
</g>
<g id="clust10" class="cluster">
<title>cluster_src/js/directable/directables/dotmatrix/grid</title>
<path fill="#ffffff" stroke="black" stroke-width="2" d="M256.12,-929C256.12,-929 377.38,-929 377.38,-929 383.38,-929 389.38,-935 389.38,-941 389.38,-941 389.38,-1032 389.38,-1032 389.38,-1038 383.38,-1044 377.38,-1044 377.38,-1044 256.12,-1044 256.12,-1044 250.12,-1044 244.12,-1038 244.12,-1032 244.12,-1032 244.12,-941 244.12,-941 244.12,-935 250.12,-929 256.12,-929"/>
<text text-anchor="middle" x="316.75" y="-1031.45" font-family="Helvetica,sans-Serif" font-weight="bold" font-size="9.00">grid</text>
</g>
<g id="clust11" class="cluster">
<title>cluster_src/js/directable/directables/dotmatrix/shapes</title>
<path fill="#ffffff" stroke="black" stroke-width="2" d="M256.75,-1052C256.75,-1052 376.75,-1052 376.75,-1052 382.75,-1052 388.75,-1058 388.75,-1064 388.75,-1064 388.75,-1802 388.75,-1802 388.75,-1808 382.75,-1814 376.75,-1814 376.75,-1814 256.75,-1814 256.75,-1814 250.75,-1814 244.75,-1808 244.75,-1802 244.75,-1802 244.75,-1064 244.75,-1064 244.75,-1058 250.75,-1052 256.75,-1052"/>
<text text-anchor="middle" x="316.75" y="-1801.45" font-family="Helvetica,sans-Serif" font-weight="bold" font-size="9.00">shapes</text>
</g>
<g id="clust12" class="cluster">
<title>cluster_src/js/directable/directables/dotmatrix/shapes/fill</title>
<path fill="#ffffff" stroke="black" stroke-width="2" d="M275.25,-1060C275.25,-1060 358.25,-1060 358.25,-1060 364.25,-1060 370.25,-1066 370.25,-1072 370.25,-1072 370.25,-1194 370.25,-1194 370.25,-1200 364.25,-1206 358.25,-1206 358.25,-1206 275.25,-1206 275.25,-1206 269.25,-1206 263.25,-1200 263.25,-1194 263.25,-1194 263.25,-1072 263.25,-1072 263.25,-1066 269.25,-1060 275.25,-1060"/>
<text text-anchor="middle" x="316.75" y="-1193.45" font-family="Helvetica,sans-Serif" font-weight="bold" font-size="9.00">fill</text>
</g>
<g id="clust13" class="cluster">
<title>cluster_src/js/directable/directables/dotmatrix/shapes/glyph</title>
<path fill="#ffffff" stroke="black" stroke-width="2" d="M276.75,-1214C276.75,-1214 356.75,-1214 356.75,-1214 362.75,-1214 368.75,-1220 368.75,-1226 368.75,-1226 368.75,-1565 368.75,-1565 368.75,-1571 362.75,-1577 356.75,-1577 356.75,-1577 276.75,-1577 276.75,-1577 270.75,-1577 264.75,-1571 264.75,-1565 264.75,-1565 264.75,-1226 264.75,-1226 264.75,-1220 270.75,-1214 276.75,-1214"/>
<text text-anchor="middle" x="316.75" y="-1564.45" font-family="Helvetica,sans-Serif" font-weight="bold" font-size="9.00">glyph</text>
</g>
<g id="clust14" class="cluster">
<title>cluster_src/js/directable/directables/dotmatrix/shapes/line</title>
<path fill="#ffffff" stroke="black" stroke-width="2" d="M264.75,-1585C264.75,-1585 368.75,-1585 368.75,-1585 374.75,-1585 380.75,-1591 380.75,-1597 380.75,-1597 380.75,-1657 380.75,-1657 380.75,-1663 374.75,-1669 368.75,-1669 368.75,-1669 264.75,-1669 264.75,-1669 258.75,-1669 252.75,-1663 252.75,-1657 252.75,-1657 252.75,-1597 252.75,-1597 252.75,-1591 258.75,-1585 264.75,-1585"/>
<text text-anchor="middle" x="316.75" y="-1656.45" font-family="Helvetica,sans-Serif" font-weight="bold" font-size="9.00">line</text>
</g>
<g id="clust15" class="cluster">
<title>cluster_src/js/directable/directables/dotmatrix/shapes/primative</title>
<path fill="#ffffff" stroke="black" stroke-width="2" d="M273.75,-1677C273.75,-1677 359.75,-1677 359.75,-1677 365.75,-1677 371.75,-1683 371.75,-1689 371.75,-1689 371.75,-1718 371.75,-1718 371.75,-1724 365.75,-1730 359.75,-1730 359.75,-1730 273.75,-1730 273.75,-1730 267.75,-1730 261.75,-1724 261.75,-1718 261.75,-1718 261.75,-1689 261.75,-1689 261.75,-1683 267.75,-1677 273.75,-1677"/>
<text text-anchor="middle" x="316.75" y="-1717.45" font-family="Helvetica,sans-Serif" font-weight="bold" font-size="9.00">primative</text>
</g>
<g id="clust16" class="cluster">
<title>cluster_src/js/directable/directables/dotmatrix/view</title>
<path fill="#ffffff" stroke="black" stroke-width="2" d="M441.25,-1663C441.25,-1663 514.5,-1663 514.5,-1663 520.5,-1663 526.5,-1669 526.5,-1675 526.5,-1675 526.5,-1828 526.5,-1828 526.5,-1834 520.5,-1840 514.5,-1840 514.5,-1840 441.25,-1840 441.25,-1840 435.25,-1840 429.25,-1834 429.25,-1828 429.25,-1828 429.25,-1675 429.25,-1675 429.25,-1669 435.25,-1663 441.25,-1663"/>
<text text-anchor="middle" x="477.88" y="-1827.45" font-family="Helvetica,sans-Serif" font-weight="bold" font-size="9.00">view</text>
</g>
<g id="clust17" class="cluster">
<title>cluster_src/js/directable/directables/frame</title>
<path fill="#ffffff" stroke="black" stroke-width="2" d="M274.12,-1875C274.12,-1875 359.38,-1875 359.38,-1875 365.38,-1875 371.38,-1881 371.38,-1887 371.38,-1887 371.38,-1916 371.38,-1916 371.38,-1922 365.38,-1928 359.38,-1928 359.38,-1928 274.12,-1928 274.12,-1928 268.12,-1928 262.12,-1922 262.12,-1916 262.12,-1916 262.12,-1887 262.12,-1887 262.12,-1881 268.12,-1875 274.12,-1875"/>
<text text-anchor="middle" x="316.75" y="-1915.45" font-family="Helvetica,sans-Serif" font-weight="bold" font-size="9.00">frame</text>
</g>
<g id="clust18" class="cluster">
<title>cluster_src/js/directable/directables/rhythm</title>
<path fill="#ffffff" stroke="black" stroke-width="2" d="M232.75,-549C232.75,-549 523.12,-549 523.12,-549 529.12,-549 535.12,-555 535.12,-561 535.12,-561 535.12,-748 535.12,-748 535.12,-754 529.12,-760 523.12,-760 523.12,-760 232.75,-760 232.75,-760 226.75,-760 220.75,-754 220.75,-748 220.75,-748 220.75,-561 220.75,-561 220.75,-555 226.75,-549 232.75,-549"/>
<text text-anchor="middle" x="377.94" y="-747.45" font-family="Helvetica,sans-Serif" font-weight="bold" font-size="9.00">rhythm</text>
</g>
<g id="clust19" class="cluster">
<title>cluster_src/js/directable/directables/rhythm/asdr</title>
<path fill="#ffffff" stroke="black" stroke-width="2" d="M240.75,-557C240.75,-557 392.75,-557 392.75,-557 398.75,-557 404.75,-563 404.75,-569 404.75,-569 404.75,-660 404.75,-660 404.75,-666 398.75,-672 392.75,-672 392.75,-672 240.75,-672 240.75,-672 234.75,-672 228.75,-666 228.75,-660 228.75,-660 228.75,-569 228.75,-569 228.75,-563 234.75,-557 240.75,-557"/>
<text text-anchor="middle" x="316.75" y="-659.45" font-family="Helvetica,sans-Serif" font-weight="bold" font-size="9.00">asdr</text>
</g>
<g id="clust20" class="cluster">
<title>cluster_src/js/directable/directables/rhythm/bpm</title>
<path fill="#ffffff" stroke="black" stroke-width="2" d="M261.75,-680C261.75,-680 371.75,-680 371.75,-680 377.75,-680 383.75,-686 383.75,-692 383.75,-692 383.75,-721 383.75,-721 383.75,-727 377.75,-733 371.75,-733 371.75,-733 261.75,-733 261.75,-733 255.75,-733 249.75,-727 249.75,-721 249.75,-721 249.75,-692 249.75,-692 249.75,-686 255.75,-680 261.75,-680"/>
<text text-anchor="middle" x="316.75" y="-720.45" font-family="Helvetica,sans-Serif" font-weight="bold" font-size="9.00">bpm</text>
</g>
<g id="clust21" class="cluster">
<title>cluster_src/js/directable/directables/rhythm2</title>
<path fill="#ffffff" stroke="black" stroke-width="2" d="M282.38,-1936C282.38,-1936 523.5,-1936 523.5,-1936 529.5,-1936 535.5,-1942 535.5,-1948 535.5,-1948 535.5,-1977 535.5,-1977 535.5,-1983 529.5,-1989 523.5,-1989 523.5,-1989 282.38,-1989 282.38,-1989 276.38,-1989 270.38,-1983 270.38,-1977 270.38,-1977 270.38,-1948 270.38,-1948 270.38,-1942 276.38,-1936 282.38,-1936"/>
<text text-anchor="middle" x="402.94" y="-1976.45" font-family="Helvetica,sans-Serif" font-weight="bold" font-size="9.00">rhythm2</text>
</g>
<g id="clust22" class="cluster">
<title>cluster_src/js/directable/directables/title</title>
<path fill="#ffffff" stroke="black" stroke-width="2" d="M278.62,-768C278.62,-768 354.88,-768 354.88,-768 360.88,-768 366.88,-774 366.88,-780 366.88,-780 366.88,-809 366.88,-809 366.88,-815 360.88,-821 354.88,-821 354.88,-821 278.62,-821 278.62,-821 272.62,-821 266.62,-815 266.62,-809 266.62,-809 266.62,-780 266.62,-780 266.62,-774 272.62,-768 278.62,-768"/>
<text text-anchor="middle" x="316.75" y="-808.45" font-family="Helvetica,sans-Serif" font-weight="bold" font-size="9.00">title</text>
</g>
<g id="clust23" class="cluster">
<title>cluster_src/js/director</title>
<path fill="#ffffff" stroke="black" stroke-width="2" d="M136.25,-680C136.25,-680 184.75,-680 184.75,-680 190.75,-680 196.75,-686 196.75,-692 196.75,-692 196.75,-721 196.75,-721 196.75,-727 190.75,-733 184.75,-733 184.75,-733 136.25,-733 136.25,-733 130.25,-733 124.25,-727 124.25,-721 124.25,-721 124.25,-692 124.25,-692 124.25,-686 130.25,-680 136.25,-680"/>
<text text-anchor="middle" x="160.5" y="-720.45" font-family="Helvetica,sans-Serif" font-weight="bold" font-size="9.00">director</text>
</g>
<g id="clust24" class="cluster">
<title>cluster_src/js/enum</title>
<path fill="#ffffff" stroke="black" stroke-width="2" d="M574.25,-66C574.25,-66 655,-66 655,-66 661,-66 667,-72 667,-78 667,-78 667,-107 667,-107 667,-113 661,-119 655,-119 655,-119 574.25,-119 574.25,-119 568.25,-119 562.25,-113 562.25,-107 562.25,-107 562.25,-78 562.25,-78 562.25,-72 568.25,-66 574.25,-66"/>
<text text-anchor="middle" x="614.62" y="-106.45" font-family="Helvetica,sans-Serif" font-weight="bold" font-size="9.00">enum</text>
</g>
<g id="clust25" class="cluster">
<title>cluster_src/js/overlay</title>
<path fill="#ffffff" stroke="black" stroke-width="2" d="M136.62,-284C136.62,-284 508.88,-284 508.88,-284 514.88,-284 520.88,-290 520.88,-296 520.88,-296 520.88,-421 520.88,-421 520.88,-427 514.88,-433 508.88,-433 508.88,-433 136.62,-433 136.62,-433 130.62,-433 124.62,-427 124.62,-421 124.62,-421 124.62,-296 124.62,-296 124.62,-290 130.62,-284 136.62,-284"/>
<text text-anchor="middle" x="322.75" y="-420.45" font-family="Helvetica,sans-Serif" font-weight="bold" font-size="9.00">overlay</text>
</g>
<g id="clust26" class="cluster">
<title>cluster_src/js/overlay/displayFormat</title>
<path fill="#ffffff" stroke="black" stroke-width="2" d="M262.88,-292C262.88,-292 370.62,-292 370.62,-292 376.62,-292 382.62,-298 382.62,-304 382.62,-304 382.62,-333 382.62,-333 382.62,-339 376.62,-345 370.62,-345 370.62,-345 262.88,-345 262.88,-345 256.88,-345 250.88,-339 250.88,-333 250.88,-333 250.88,-304 250.88,-304 250.88,-298 256.88,-292 262.88,-292"/>
<text text-anchor="middle" x="316.75" y="-332.45" font-family="Helvetica,sans-Serif" font-weight="bold" font-size="9.00">displayFormat</text>
</g>
<g id="clust27" class="cluster">
<title>cluster_src/js/overlay/overlay</title>
<path fill="#ffffff" stroke="black" stroke-width="2" d="M277.12,-353C277.12,-353 356.38,-353 356.38,-353 362.38,-353 368.38,-359 368.38,-365 368.38,-365 368.38,-394 368.38,-394 368.38,-400 362.38,-406 356.38,-406 356.38,-406 277.12,-406 277.12,-406 271.12,-406 265.12,-400 265.12,-394 265.12,-394 265.12,-365 265.12,-365 265.12,-359 271.12,-353 277.12,-353"/>
<text text-anchor="middle" x="316.75" y="-393.45" font-family="Helvetica,sans-Serif" font-weight="bold" font-size="9.00">overlay</text>
</g>
<g id="clust28" class="cluster">
<title>cluster_src/js/view</title>
<path fill="#ffffff" stroke="black" stroke-width="2" d="M137.5,-24C137.5,-24 525.5,-24 525.5,-24 531.5,-24 537.5,-30 537.5,-36 537.5,-36 537.5,-131 537.5,-131 537.5,-137 531.5,-143 525.5,-143 525.5,-143 137.5,-143 137.5,-143 131.5,-143 125.5,-137 125.5,-131 125.5,-131 125.5,-36 125.5,-36 125.5,-30 131.5,-24 137.5,-24"/>
<text text-anchor="middle" x="331.5" y="-130.45" font-family="Helvetica,sans-Serif" font-weight="bold" font-size="9.00">view</text>
</g>
<g id="clust29" class="cluster">
<title>cluster_src/js/view/render</title>
<path fill="#ffffff" stroke="black" stroke-width="2" d="M273,-32C273,-32 517.5,-32 517.5,-32 523.5,-32 529.5,-38 529.5,-44 529.5,-44 529.5,-104 529.5,-104 529.5,-110 523.5,-116 517.5,-116 517.5,-116 273,-116 273,-116 267,-116 261,-110 261,-104 261,-104 261,-44 261,-44 261,-38 267,-32 273,-32"/>
<text text-anchor="middle" x="395.25" y="-103.45" font-family="Helvetica,sans-Serif" font-weight="bold" font-size="9.00">render</text>
</g>
<!-- src/js/application/Application.js -->
<g id="node1" class="node">
<title>src/js/application/Application.js</title>
<g id="a_node1"><a xlink:href="src/js/application/Application.js" xlink:title="Application.js">
<path fill="#ffffcc" stroke="black" d="M507.08,-218.25C507.08,-218.25 448.67,-218.25 448.67,-218.25 445.58,-218.25 442.5,-215.17 442.5,-212.08 442.5,-212.08 442.5,-205.92 442.5,-205.92 442.5,-202.83 445.58,-199.75 448.67,-199.75 448.67,-199.75 507.08,-199.75 507.08,-199.75 510.17,-199.75 513.25,-202.83 513.25,-205.92 513.25,-205.92 513.25,-212.08 513.25,-212.08 513.25,-215.17 510.17,-218.25 507.08,-218.25"/>
<text text-anchor="start" x="450.5" y="-205.7" font-family="Helvetica,sans-Serif" font-size="9.00">Application.js</text>
</a>
</g>
</g>
<!-- src/js/controller/Controller.js -->
<g id="node2" class="node">
<title>src/js/controller/Controller.js</title>
<g id="a_node2"><a xlink:href="src/js/controller/Controller.js" xlink:title="Controller.js">
<path fill="#ffffcc" stroke="black" d="M100.33,-318.25C100.33,-318.25 47.92,-318.25 47.92,-318.25 44.83,-318.25 41.75,-315.17 41.75,-312.08 41.75,-312.08 41.75,-305.92 41.75,-305.92 41.75,-302.83 44.83,-299.75 47.92,-299.75 47.92,-299.75 100.33,-299.75 100.33,-299.75 103.42,-299.75 106.5,-302.83 106.5,-305.92 106.5,-305.92 106.5,-312.08 106.5,-312.08 106.5,-315.17 103.42,-318.25 100.33,-318.25"/>
<text text-anchor="start" x="49.75" y="-305.7" font-family="Helvetica,sans-Serif" font-size="9.00">Controller.js</text>
</a>
</g>
</g>
<!-- src/js/application/Application.js&#45;&gt;src/js/controller/Controller.js -->
<g id="edge1" class="edge">
<title>src/js/application/Application.js&#45;&gt;src/js/controller/Controller.js</title>
<path fill="none" stroke="#000000" stroke-width="2" stroke-opacity="0.200000" d="M442.18,-216.19C432.52,-218.58 422.11,-221.54 412.75,-225 409.02,-226.38 408.59,-227.99 404.75,-229 318.67,-251.61 290.63,-215.65 204.75,-239 162.88,-250.38 119.58,-277.42 95.13,-294.36"/>
<polygon fill="#000000" fill-opacity="0.200000" stroke="#000000" stroke-width="2" stroke-opacity="0.200000" points="94.05,-292.56 90.36,-297.73 96.47,-295.99 94.05,-292.56"/>
</g>
<!-- src/js/application/ApplicationConfiguration.js -->
<g id="node3" class="node">
<title>src/js/application/ApplicationConfiguration.js</title>
<g id="a_node3"><a xlink:href="src/js/application/ApplicationConfiguration.js" xlink:title="ApplicationConfiguration.js">
<path fill="#ffffcc" stroke="black" d="M671.58,-187.25C671.58,-187.25 557.67,-187.25 557.67,-187.25 554.58,-187.25 551.5,-184.17 551.5,-181.08 551.5,-181.08 551.5,-174.92 551.5,-174.92 551.5,-171.83 554.58,-168.75 557.67,-168.75 557.67,-168.75 671.58,-168.75 671.58,-168.75 674.67,-168.75 677.75,-171.83 677.75,-174.92 677.75,-174.92 677.75,-181.08 677.75,-181.08 677.75,-184.17 674.67,-187.25 671.58,-187.25"/>
<text text-anchor="start" x="559.5" y="-174.7" font-family="Helvetica,sans-Serif" font-size="9.00">ApplicationConfiguration.js</text>
</a>
</g>
</g>
<!-- src/js/application/Application.js&#45;&gt;src/js/application/ApplicationConfiguration.js -->
<g id="edge2" class="edge">
<title>src/js/application/Application.js&#45;&gt;src/js/application/ApplicationConfiguration.js</title>
<path fill="none" stroke="#000000" stroke-width="2" stroke-opacity="0.200000" d="M513.58,-201.02C528.58,-197.56 546.44,-193.46 562.89,-189.67"/>
<polygon fill="#000000" fill-opacity="0.200000" stroke="#000000" stroke-width="2" stroke-opacity="0.200000" points="563.02,-191.8 568.39,-188.41 562.08,-187.7 563.02,-191.8"/>
</g>
<!-- src/js/application/ApplicationLogger.js -->
<g id="node4" class="node">
<title>src/js/application/ApplicationLogger.js</title>
<g id="a_node4"><a xlink:href="src/js/application/ApplicationLogger.js" xlink:title="ApplicationLogger.js">
<path fill="#ffffcc" stroke="black" d="M658.08,-249.25C658.08,-249.25 571.17,-249.25 571.17,-249.25 568.08,-249.25 565,-246.17 565,-243.08 565,-243.08 565,-236.92 565,-236.92 565,-233.83 568.08,-230.75 571.17,-230.75 571.17,-230.75 658.08,-230.75 658.08,-230.75 661.17,-230.75 664.25,-233.83 664.25,-236.92 664.25,-236.92 664.25,-243.08 664.25,-243.08 664.25,-246.17 661.17,-249.25 658.08,-249.25"/>
<text text-anchor="start" x="573" y="-236.7" font-family="Helvetica,sans-Serif" font-size="9.00">ApplicationLogger.js</text>
</a>
</g>
</g>
<!-- src/js/application/Application.js&#45;&gt;src/js/application/ApplicationLogger.js -->
<g id="edge3" class="edge">
<title>src/js/application/Application.js&#45;&gt;src/js/application/ApplicationLogger.js</title>
<path fill="none" stroke="#000000" stroke-width="2" stroke-opacity="0.200000" d="M513.58,-216.98C528.58,-220.44 546.44,-224.54 562.89,-228.33"/>
<polygon fill="#000000" fill-opacity="0.200000" stroke="#000000" stroke-width="2" stroke-opacity="0.200000" points="562.08,-230.3 568.39,-229.59 563.02,-226.2 562.08,-230.3"/>
</g>
<!-- src/js/controller/Controller.js&#45;&gt;src/js/application/ApplicationLogger.js -->
<g id="edge5" class="edge">
<title>src/js/controller/Controller.js&#45;&gt;src/js/application/ApplicationLogger.js</title>
<path fill="none" stroke="#000000" stroke-width="2" stroke-opacity="0.200000" d="M75.42,-318.49C76.75,-343.01 84.08,-408.47 124.25,-436 143.46,-449.17 524.46,-449.41 543.5,-436 602.34,-394.56 612.07,-299 613.49,-258.59"/>
<polygon fill="#000000" fill-opacity="0.200000" stroke="#000000" stroke-width="2" stroke-opacity="0.200000" points="615.59,-258.64 613.63,-252.59 611.39,-258.54 615.59,-258.64"/>
</g>
<!-- src/js/director/Director.js -->
<g id="node7" class="node">
<title>src/js/director/Director.js</title>
<g id="a_node7"><a xlink:href="src/js/director/Director.js" xlink:title="Director.js">
<path fill="#ffffcc" stroke="black" d="M182.58,-706.25C182.58,-706.25 138.42,-706.25 138.42,-706.25 135.33,-706.25 132.25,-703.17 132.25,-700.08 132.25,-700.08 132.25,-693.92 132.25,-693.92 132.25,-690.83 135.33,-687.75 138.42,-687.75 138.42,-687.75 182.58,-687.75 182.58,-687.75 185.67,-687.75 188.75,-690.83 188.75,-693.92 188.75,-693.92 188.75,-700.08 188.75,-700.08 188.75,-703.17 185.67,-706.25 182.58,-706.25"/>
<text text-anchor="start" x="140.25" y="-693.7" font-family="Helvetica,sans-Serif" font-size="9.00">Director.js</text>
</a>
</g>
</g>
<!-- src/js/controller/Controller.js&#45;&gt;src/js/director/Director.js -->
<g id="edge6" class="edge">
<title>src/js/controller/Controller.js&#45;&gt;src/js/director/Director.js</title>
<path fill="none" stroke="#000000" stroke-width="2" stroke-opacity="0.200000" d="M77.21,-318.59C88.34,-369.75 140.74,-610.71 155.58,-678.95"/>
<polygon fill="#000000" fill-opacity="0.200000" stroke="#000000" stroke-width="2" stroke-opacity="0.200000" points="153.44,-679.02 156.77,-684.44 157.55,-678.13 153.44,-679.02"/>
</g>
<!-- src/js/overlay/Overlay.js -->
<g id="node8" class="node">
<title>src/js/overlay/Overlay.js</title>
<g id="a_node8"><a xlink:href="src/js/overlay/Overlay.js" xlink:title="Overlay.js">
<path fill="#ffffcc" stroke="black" d="M182.21,-318.25C182.21,-318.25 138.79,-318.25 138.79,-318.25 135.71,-318.25 132.62,-315.17 132.62,-312.08 132.62,-312.08 132.62,-305.92 132.62,-305.92 132.62,-302.83 135.71,-299.75 138.79,-299.75 138.79,-299.75 182.21,-299.75 182.21,-299.75 185.29,-299.75 188.38,-302.83 188.38,-305.92 188.38,-305.92 188.38,-312.08 188.38,-312.08 188.38,-315.17 185.29,-318.25 182.21,-318.25"/>
<text text-anchor="start" x="140.62" y="-305.7" font-family="Helvetica,sans-Serif" font-size="9.00">Overlay.js</text>
</a>
</g>
</g>
<!-- src/js/controller/Controller.js&#45;&gt;src/js/overlay/Overlay.js -->
<g id="edge7" class="edge">
<title>src/js/controller/Controller.js&#45;&gt;src/js/overlay/Overlay.js</title>
<path fill="none" stroke="#000000" stroke-width="2" stroke-opacity="0.200000" d="M106.54,-309C112.08,-309 117.88,-309 123.53,-309"/>
<polygon fill="#000000" fill-opacity="0.200000" stroke="#000000" stroke-width="2" stroke-opacity="0.200000" points="123.19,-311.1 129.19,-309 123.19,-306.9 123.19,-311.1"/>
</g>
<!-- src/js/view/View.js -->
<g id="node9" class="node">
<title>src/js/view/View.js</title>
<g id="a_node9"><a xlink:href="src/js/view/View.js" xlink:title="View.js">
<path fill="#ffffcc" stroke="black" d="M181.33,-103.25C181.33,-103.25 139.67,-103.25 139.67,-103.25 136.58,-103.25 133.5,-100.17 133.5,-97.08 133.5,-97.08 133.5,-90.92 133.5,-90.92 133.5,-87.83 136.58,-84.75 139.67,-84.75 139.67,-84.75 181.33,-84.75 181.33,-84.75 184.42,-84.75 187.5,-87.83 187.5,-90.92 187.5,-90.92 187.5,-97.08 187.5,-97.08 187.5,-100.17 184.42,-103.25 181.33,-103.25"/>
<text text-anchor="start" x="146.25" y="-90.7" font-family="Helvetica,sans-Serif" font-size="9.00">View.js</text>
</a>
</g>
</g>
<!-- src/js/controller/Controller.js&#45;&gt;src/js/view/View.js -->
<g id="edge8" class="edge">
<title>src/js/controller/Controller.js&#45;&gt;src/js/view/View.js</title>
<path fill="none" stroke="#000000" stroke-width="2" stroke-opacity="0.200000" d="M78.86,-299.48C91.9,-266.25 135.55,-155.03 152.6,-111.59"/>
<polygon fill="#000000" fill-opacity="0.200000" stroke="#000000" stroke-width="2" stroke-opacity="0.200000" points="154.47,-112.58 154.7,-106.22 150.56,-111.04 154.47,-112.58"/>
</g>
<!-- src/js/application/ApplicationDispatcher.js -->
<g id="node5" class="node">
<title>src/js/application/ApplicationDispatcher.js</title>
<g id="a_node5"><a xlink:href="src/js/application/ApplicationDispatcher.js" xlink:title="ApplicationDispatcher.js">
<path fill="#ffffcc" stroke="black" d="M528.83,-249.25C528.83,-249.25 426.92,-249.25 426.92,-249.25 423.83,-249.25 420.75,-246.17 420.75,-243.08 420.75,-243.08 420.75,-236.92 420.75,-236.92 420.75,-233.83 423.83,-230.75 426.92,-230.75 426.92,-230.75 528.83,-230.75 528.83,-230.75 531.92,-230.75 535,-233.83 535,-236.92 535,-236.92 535,-243.08 535,-243.08 535,-246.17 531.92,-249.25 528.83,-249.25"/>
<text text-anchor="start" x="428.75" y="-236.7" font-family="Helvetica,sans-Serif" font-size="9.00">ApplicationDispatcher.js</text>
</a>
</g>
</g>
<!-- src/js/application/ApplicationEvent.js -->
<g id="node6" class="node">
<title>src/js/application/ApplicationEvent.js</title>
<g id="a_node6"><a xlink:href="src/js/application/ApplicationEvent.js" xlink:title="ApplicationEvent.js">
<path fill="#ffffcc" stroke="black" d="M655.46,-218.25C655.46,-218.25 573.79,-218.25 573.79,-218.25 570.71,-218.25 567.62,-215.17 567.62,-212.08 567.62,-212.08 567.62,-205.92 567.62,-205.92 567.62,-202.83 570.71,-199.75 573.79,-199.75 573.79,-199.75 655.46,-199.75 655.46,-199.75 658.54,-199.75 661.62,-202.83 661.62,-205.92 661.62,-205.92 661.62,-212.08 661.62,-212.08 661.62,-215.17 658.54,-218.25 655.46,-218.25"/>
<text text-anchor="start" x="575.62" y="-205.7" font-family="Helvetica,sans-Serif" font-size="9.00">ApplicationEvent.js</text>
</a>
</g>
</g>
<!-- src/js/application/ApplicationDispatcher.js&#45;&gt;src/js/application/ApplicationEvent.js -->
<g id="edge4" class="edge">
<title>src/js/application/ApplicationDispatcher.js&#45;&gt;src/js/application/ApplicationEvent.js</title>
<path fill="none" stroke="#000000" stroke-width="2" stroke-opacity="0.200000" d="M521.14,-230.28C534.44,-227.22 549.25,-223.81 563.06,-220.63"/>
<polygon fill="#000000" fill-opacity="0.200000" stroke="#000000" stroke-width="2" stroke-opacity="0.200000" points="563.18,-222.76 568.56,-219.37 562.24,-218.67 563.18,-222.76"/>
</g>
<!-- src/js/director/Director.js&#45;&gt;src/js/application/ApplicationLogger.js -->
<g id="edge24" class="edge">
<title>src/js/director/Director.js&#45;&gt;src/js/application/ApplicationLogger.js</title>
<path fill="none" stroke="#000000" stroke-width="2" stroke-opacity="0.200000" d="M161.76,-687.35C162.95,-662.26 169.44,-594.1 204.75,-554 271.68,-478 315.08,-487.75 412.75,-461 440.96,-453.27 520.73,-464.35 543.5,-446 602.46,-398.47 612.08,-299.05 613.48,-258.16"/>
<polygon fill="#000000" fill-opacity="0.200000" stroke="#000000" stroke-width="2" stroke-opacity="0.200000" points="615.58,-258.38 613.61,-252.33 611.38,-258.28 615.58,-258.38"/>
</g>
<!-- src/js/directable/directables/dotmatrix/DirectableDotMatrix.js -->
<g id="node13" class="node">
<title>src/js/directable/directables/dotmatrix/DirectableDotMatrix.js</title>
<g id="a_node13"><a xlink:href="src/js/directable/directables/dotmatrix/DirectableDotMatrix.js" xlink:title="DirectableDotMatrix.js">
<path fill="#ffffcc" stroke="black" d="M363.58,-1840.25C363.58,-1840.25 269.92,-1840.25 269.92,-1840.25 266.83,-1840.25 263.75,-1837.17 263.75,-1834.08 263.75,-1834.08 263.75,-1827.92 263.75,-1827.92 263.75,-1824.83 266.83,-1821.75 269.92,-1821.75 269.92,-1821.75 363.58,-1821.75 363.58,-1821.75 366.67,-1821.75 369.75,-1824.83 369.75,-1827.92 369.75,-1827.92 369.75,-1834.08 369.75,-1834.08 369.75,-1837.17 366.67,-1840.25 363.58,-1840.25"/>
<text text-anchor="start" x="271.75" y="-1827.7" font-family="Helvetica,sans-Serif" font-size="9.00">DirectableDotMatrix.js</text>
</a>
</g>
</g>
<!-- src/js/director/Director.js&#45;&gt;src/js/directable/directables/dotmatrix/DirectableDotMatrix.js -->
<g id="edge25" class="edge">
<title>src/js/director/Director.js&#45;&gt;src/js/directable/directables/dotmatrix/DirectableDotMatrix.js</title>
<path fill="none" stroke="#000000" stroke-width="2" stroke-opacity="0.200000" d="M162.12,-706.46C166.02,-766.2 187.24,-1097.53 196.75,-1368 197.19,-1380.47 196.42,-1807.72 204.75,-1817 217.24,-1830.91 236.03,-1836.34 254.62,-1837.7"/>
<polygon fill="#000000" fill-opacity="0.200000" stroke="#000000" stroke-width="2" stroke-opacity="0.200000" points="254.3,-1839.79 260.38,-1837.93 254.47,-1835.59 254.3,-1839.79"/>
</g>
<!-- src/js/directable/directables/rhythm/bpm/DirectableRhythmBPM.js -->
<g id="node49" class="node">
<title>src/js/directable/directables/rhythm/bpm/DirectableRhythmBPM.js</title>
<g id="a_node49"><a xlink:href="src/js/directable/directables/rhythm/bpm/DirectableRhythmBPM.js" xlink:title="DirectableRhythmBPM.js">
<path fill="#ffffcc" stroke="black" d="M369.58,-706.25C369.58,-706.25 263.92,-706.25 263.92,-706.25 260.83,-706.25 257.75,-703.17 257.75,-700.08 257.75,-700.08 257.75,-693.92 257.75,-693.92 257.75,-690.83 260.83,-687.75 263.92,-687.75 263.92,-687.75 369.58,-687.75 369.58,-687.75 372.67,-687.75 375.75,-690.83 375.75,-693.92 375.75,-693.92 375.75,-700.08 375.75,-700.08 375.75,-703.17 372.67,-706.25 369.58,-706.25"/>
<text text-anchor="start" x="265.75" y="-693.7" font-family="Helvetica,sans-Serif" font-size="9.00">DirectableRhythmBPM.js</text>
</a>
</g>
</g>
<!-- src/js/director/Director.js&#45;&gt;src/js/directable/directables/rhythm/bpm/DirectableRhythmBPM.js -->
<g id="edge26" class="edge">
<title>src/js/director/Director.js&#45;&gt;src/js/directable/directables/rhythm/bpm/DirectableRhythmBPM.js</title>
<path fill="none" stroke="#000000" stroke-width="2" stroke-opacity="0.200000" d="M189.08,-697C205.68,-697 227.6,-697 248.53,-697"/>
<polygon fill="#000000" fill-opacity="0.200000" stroke="#000000" stroke-width="2" stroke-opacity="0.200000" points="248.4,-699.1 254.4,-697 248.4,-694.9 248.4,-699.1"/>
</g>
<!-- src/js/directable/directables/title/DirectableTitle.js -->
<g id="node52" class="node">
<title>src/js/directable/directables/title/DirectableTitle.js</title>
<g id="a_node52"><a xlink:href="src/js/directable/directables/title/DirectableTitle.js" xlink:title="DirectableTitle.js">
<path fill="#ffffcc" stroke="black" d="M352.71,-794.25C352.71,-794.25 280.79,-794.25 280.79,-794.25 277.71,-794.25 274.62,-791.17 274.62,-788.08 274.62,-788.08 274.62,-781.92 274.62,-781.92 274.62,-778.83 277.71,-775.75 280.79,-775.75 280.79,-775.75 352.71,-775.75 352.71,-775.75 355.79,-775.75 358.88,-778.83 358.88,-781.92 358.88,-781.92 358.88,-788.08 358.88,-788.08 358.88,-791.17 355.79,-794.25 352.71,-794.25"/>
<text text-anchor="start" x="282.62" y="-781.7" font-family="Helvetica,sans-Serif" font-size="9.00">DirectableTitle.js</text>
</a>
</g>
</g>
<!-- src/js/director/Director.js&#45;&gt;src/js/directable/directables/title/DirectableTitle.js -->
<g id="edge27" class="edge">
<title>src/js/director/Director.js&#45;&gt;src/js/directable/directables/title/DirectableTitle.js</title>
<path fill="none" stroke="#000000" stroke-width="2" stroke-opacity="0.200000" d="M170.4,-706.61C178.68,-715.14 191.68,-727.54 204.75,-736 228.11,-751.13 256.92,-763.69 279.34,-772.31"/>
<polygon fill="#000000" fill-opacity="0.200000" stroke="#000000" stroke-width="2" stroke-opacity="0.200000" points="278.4,-774.2 284.76,-774.35 279.88,-770.27 278.4,-774.2"/>
</g>
<!-- src/js/overlay/Overlay.js&#45;&gt;src/js/application/ApplicationConfiguration.js -->
<g id="edge29" class="edge">
<title>src/js/overlay/Overlay.js&#45;&gt;src/js/application/ApplicationConfiguration.js</title>
<path fill="none" stroke="#000000" stroke-width="2" stroke-opacity="0.200000" d="M178.67,-299.45C186.42,-295.57 195.81,-291.44 204.75,-289 277.73,-269.07 489.2,-307.68 543.5,-255 563.13,-235.96 533.38,-214.47 551.5,-194 551.63,-193.85 551.77,-193.7 551.91,-193.55"/>
<polygon fill="#000000" fill-opacity="0.200000" stroke="#000000" stroke-width="2" stroke-opacity="0.200000" points="553.24,-195.17 556.45,-189.69 550.52,-191.97 553.24,-195.17"/>
</g>
<!-- src/js/overlay/Overlay.js&#45;&gt;src/js/application/ApplicationLogger.js -->
<g id="edge31" class="edge">
<title>src/js/overlay/Overlay.js&#45;&gt;src/js/application/ApplicationLogger.js</title>
<path fill="none" stroke="#000000" stroke-width="2" stroke-opacity="0.200000" d="M162.3,-318.59C164.61,-339.37 173.29,-388.33 204.75,-409 279.04,-457.81 319.39,-433.79 404.75,-409 474.88,-388.64 488.18,-368.67 543.5,-321 566.35,-301.31 588.39,-274.06 601.48,-256.73"/>
<polygon fill="#000000" fill-opacity="0.200000" stroke="#000000" stroke-width="2" stroke-opacity="0.200000" points="603.13,-258.03 605.02,-251.96 599.76,-255.52 603.13,-258.03"/>
</g>
<!-- src/js/overlay/Overlay.js&#45;&gt;src/js/application/ApplicationDispatcher.js -->
<g id="edge30" class="edge">
<title>src/js/overlay/Overlay.js&#45;&gt;src/js/application/ApplicationDispatcher.js</title>
<path fill="none" stroke="#000000" stroke-width="2" stroke-opacity="0.200000" d="M170.87,-299.49C179.06,-291.81 191.66,-281.41 204.75,-276 271.65,-248.37 354.95,-240.86 411.64,-239.31"/>
<polygon fill="#000000" fill-opacity="0.200000" stroke="#000000" stroke-width="2" stroke-opacity="0.200000" points="411.53,-241.41 417.48,-239.18 411.43,-237.21 411.53,-241.41"/>
</g>
<!-- src/js/overlay/displayFormat/OverlayDisplayFormat.js -->
<g id="node55" class="node">
<title>src/js/overlay/displayFormat/OverlayDisplayFormat.js</title>
<g id="a_node55"><a xlink:href="src/js/overlay/displayFormat/OverlayDisplayFormat.js" xlink:title="OverlayDisplayFormat.js">
<path fill="#ffffcc" stroke="black" d="M368.46,-318.25C368.46,-318.25 265.04,-318.25 265.04,-318.25 261.96,-318.25 258.88,-315.17 258.88,-312.08 258.88,-312.08 258.88,-305.92 258.88,-305.92 258.88,-302.83 261.96,-299.75 265.04,-299.75 265.04,-299.75 368.46,-299.75 368.46,-299.75 371.54,-299.75 374.62,-302.83 374.62,-305.92 374.62,-305.92 374.62,-312.08 374.62,-312.08 374.62,-315.17 371.54,-318.25 368.46,-318.25"/>
<text text-anchor="start" x="266.88" y="-305.7" font-family="Helvetica,sans-Serif" font-size="9.00">OverlayDisplayFormat.js</text>
</a>
</g>
</g>
<!-- src/js/overlay/Overlay.js&#45;&gt;src/js/overlay/displayFormat/OverlayDisplayFormat.js -->
<g id="edge32" class="edge">
<title>src/js/overlay/Overlay.js&#45;&gt;src/js/overlay/displayFormat/OverlayDisplayFormat.js</title>
<path fill="none" stroke="#000000" stroke-width="2" stroke-opacity="0.200000" d="M188.72,-309C205.67,-309 228.26,-309 249.69,-309"/>
<polygon fill="#000000" fill-opacity="0.200000" stroke="#000000" stroke-width="2" stroke-opacity="0.200000" points="249.43,-311.1 255.43,-309 249.43,-306.9 249.43,-311.1"/>
</g>
<!-- src/js/overlay/overlay/OverlayOverlay.js -->
<g id="node56" class="node">
<title>src/js/overlay/overlay/OverlayOverlay.js</title>
<g id="a_node56"><a xlink:href="src/js/overlay/overlay/OverlayOverlay.js" xlink:title="OverlayOverlay.js">
<path fill="#ffffcc" stroke="black" d="M354.21,-379.25C354.21,-379.25 279.29,-379.25 279.29,-379.25 276.21,-379.25 273.12,-376.17 273.12,-373.08 273.12,-373.08 273.12,-366.92 273.12,-366.92 273.12,-363.83 276.21,-360.75 279.29,-360.75 279.29,-360.75 354.21,-360.75 354.21,-360.75 357.29,-360.75 360.38,-363.83 360.38,-366.92 360.38,-366.92 360.38,-373.08 360.38,-373.08 360.38,-376.17 357.29,-379.25 354.21,-379.25"/>
<text text-anchor="start" x="281.12" y="-366.7" font-family="Helvetica,sans-Serif" font-size="9.00">OverlayOverlay.js</text>
</a>
</g>
</g>
<!-- src/js/overlay/Overlay.js&#45;&gt;src/js/overlay/overlay/OverlayOverlay.js -->
<g id="edge33" class="edge">
<title>src/js/overlay/Overlay.js&#45;&gt;src/js/overlay/overlay/OverlayOverlay.js</title>
<path fill="none" stroke="#000000" stroke-width="2" stroke-opacity="0.200000" d="M169.38,-318.62C177.34,-327.66 190.47,-340.84 204.75,-348 222.95,-357.12 244.6,-362.47 263.93,-365.59"/>
<polygon fill="#000000" fill-opacity="0.200000" stroke="#000000" stroke-width="2" stroke-opacity="0.200000" points="263.39,-367.64 269.64,-366.44 264.01,-363.48 263.39,-367.64"/>
</g>
<!-- src/js/view/render/RenderController.js -->
<g id="node58" class="node">
<title>src/js/view/render/RenderController.js</title>
<g id="a_node58"><a xlink:href="src/js/view/render/RenderController.js" xlink:title="RenderController.js">
<path fill="#ffffcc" stroke="black" d="M358.33,-89.25C358.33,-89.25 275.17,-89.25 275.17,-89.25 272.08,-89.25 269,-86.17 269,-83.08 269,-83.08 269,-76.92 269,-76.92 269,-73.83 272.08,-70.75 275.17,-70.75 275.17,-70.75 358.33,-70.75 358.33,-70.75 361.42,-70.75 364.5,-73.83 364.5,-76.92 364.5,-76.92 364.5,-83.08 364.5,-83.08 364.5,-86.17 361.42,-89.25 358.33,-89.25"/>
<text text-anchor="start" x="277" y="-76.7" font-family="Helvetica,sans-Serif" font-size="9.00">RenderController.js</text>
</a>
</g>
</g>
<!-- src/js/view/View.js&#45;&gt;src/js/view/render/RenderController.js -->
<g id="edge39" class="edge">
<title>src/js/view/View.js&#45;&gt;src/js/view/render/RenderController.js</title>
<path fill="none" stroke="#000000" stroke-width="2" stroke-opacity="0.200000" d="M187.67,-91.63C207.34,-89.84 235.02,-87.33 259.62,-85.09"/>
<polygon fill="#000000" fill-opacity="0.200000" stroke="#000000" stroke-width="2" stroke-opacity="0.200000" points="259.72,-87.19 265.51,-84.56 259.34,-83.01 259.72,-87.19"/>
</g>
<!-- src/js/data/Data.json -->
<g id="node10" class="node">
<title>src/js/data/Data.json</title>
<g id="a_node10"><a xlink:href="src/js/data/Data.json" xlink:title="Data.json">
<path fill="#ffee44" stroke="black" d="M181.83,-1397.25C181.83,-1397.25 139.17,-1397.25 139.17,-1397.25 136.08,-1397.25 133,-1394.17 133,-1391.08 133,-1391.08 133,-1384.92 133,-1384.92 133,-1381.83 136.08,-1378.75 139.17,-1378.75 139.17,-1378.75 181.83,-1378.75 181.83,-1378.75 184.92,-1378.75 188,-1381.83 188,-1384.92 188,-1384.92 188,-1391.08 188,-1391.08 188,-1394.17 184.92,-1397.25 181.83,-1397.25"/>
<text text-anchor="start" x="141" y="-1384.7" font-family="Helvetica,sans-Serif" font-size="9.00">Data.json</text>
</a>
</g>
</g>
<!-- src/js/data/DataController.js -->
<g id="node11" class="node">
<title>src/js/data/DataController.js</title>
<g id="a_node11"><a xlink:href="src/js/data/DataController.js" xlink:title="DataController.js">
<path fill="#ffffcc" stroke="black" d="M110.08,-1397.25C110.08,-1397.25 38.17,-1397.25 38.17,-1397.25 35.08,-1397.25 32,-1394.17 32,-1391.08 32,-1391.08 32,-1384.92 32,-1384.92 32,-1381.83 35.08,-1378.75 38.17,-1378.75 38.17,-1378.75 110.08,-1378.75 110.08,-1378.75 113.17,-1378.75 116.25,-1381.83 116.25,-1384.92 116.25,-1384.92 116.25,-1391.08 116.25,-1391.08 116.25,-1394.17 113.17,-1397.25 110.08,-1397.25"/>
<text text-anchor="start" x="40" y="-1384.7" font-family="Helvetica,sans-Serif" font-size="9.00">DataController.js</text>
</a>
</g>
</g>
<!-- src/js/data/DataController.js&#45;&gt;src/js/data/Data.json -->
<g id="edge9" class="edge">
<title>src/js/data/DataController.js&#45;&gt;src/js/data/Data.json</title>
<path fill="none" stroke="#000000" stroke-width="2" stroke-opacity="0.200000" d="M116.32,-1388C118.74,-1388 121.16,-1388 123.55,-1388"/>
<polygon fill="#000000" fill-opacity="0.200000" stroke="#000000" stroke-width="2" stroke-opacity="0.200000" points="123.55,-1390.1 129.55,-1388 123.55,-1385.9 123.55,-1390.1"/>
</g>
<!-- src/js/directable/Directable.js -->
<g id="node12" class="node">
<title>src/js/directable/Directable.js</title>
<g id="a_node12"><a xlink:href="src/js/directable/Directable.js" xlink:title="Directable.js">
<path fill="#ffffcc" stroke="black" d="M641.96,-2014.25C641.96,-2014.25 587.29,-2014.25 587.29,-2014.25 584.21,-2014.25 581.12,-2011.17 581.12,-2008.08 581.12,-2008.08 581.12,-2001.92 581.12,-2001.92 581.12,-1998.83 584.21,-1995.75 587.29,-1995.75 587.29,-1995.75 641.96,-1995.75 641.96,-1995.75 645.04,-1995.75 648.12,-1998.83 648.12,-2001.92 648.12,-2001.92 648.12,-2008.08 648.12,-2008.08 648.12,-2011.17 645.04,-2014.25 641.96,-2014.25"/>
<text text-anchor="start" x="589.12" y="-2001.7" font-family="Helvetica,sans-Serif" font-size="9.00">Directable.js</text>
</a>
</g>
</g>
<!-- src/js/directable/directables/dotmatrix/DirectableDotMatrix.js&#45;&gt;src/js/application/ApplicationLogger.js -->
<g id="edge10" class="edge">
<title>src/js/directable/directables/dotmatrix/DirectableDotMatrix.js&#45;&gt;src/js/application/ApplicationLogger.js</title>
<path fill="none" stroke="#000000" stroke-width="2" stroke-opacity="0.200000" d="M370.11,-1833.96C383.26,-1831.96 396.09,-1827.1 404.75,-1817 427.91,-1789.99 389.48,-562.92 412.75,-536 451.19,-491.52 499.96,-555.5 543.5,-516 582.36,-480.74 604.99,-314.22 611.59,-258.33"/>
<polygon fill="#000000" fill-opacity="0.200000" stroke="#000000" stroke-width="2" stroke-opacity="0.200000" points="613.65,-258.73 612.25,-252.52 609.48,-258.24 613.65,-258.73"/>
</g>
<!-- src/js/directable/directables/dotmatrix/DirectableDotMatrix.js&#45;&gt;src/js/directable/Directable.js -->
<g id="edge11" class="edge">
<title>src/js/directable/directables/dotmatrix/DirectableDotMatrix.js&#45;&gt;src/js/directable/Directable.js</title>
<path fill="none" stroke="#000000" stroke-width="2" stroke-opacity="0.200000" d="M359.4,-1840.63C376.29,-1846.74 394.25,-1856.52 404.75,-1872 421,-1895.95 391.81,-1982.02 412.75,-2002 434.75,-2023 520.01,-2016.78 572.12,-2010.68"/>
<polygon fill="#000000" fill-opacity="0.200000" stroke="#000000" stroke-width="2" stroke-opacity="0.200000" points="572.11,-2012.8 577.81,-2009.99 571.6,-2008.63 572.11,-2012.8"/>
</g>
<!-- src/js/directable/directables/dotmatrix/view/ViewManager.js -->
<g id="node14" class="node">
<title>src/js/directable/directables/dotmatrix/view/ViewManager.js</title>
<g id="a_node14"><a xlink:href="src/js/directable/directables/dotmatrix/view/ViewManager.js" xlink:title="ViewManager.js">
<path fill="#ffffcc" stroke="black" d="M512.33,-1689.25C512.33,-1689.25 443.42,-1689.25 443.42,-1689.25 440.33,-1689.25 437.25,-1686.17 437.25,-1683.08 437.25,-1683.08 437.25,-1676.92 437.25,-1676.92 437.25,-1673.83 440.33,-1670.75 443.42,-1670.75 443.42,-1670.75 512.33,-1670.75 512.33,-1670.75 515.42,-1670.75 518.5,-1673.83 518.5,-1676.92 518.5,-1676.92 518.5,-1683.08 518.5,-1683.08 518.5,-1686.17 515.42,-1689.25 512.33,-1689.25"/>
<text text-anchor="start" x="445.25" y="-1676.7" font-family="Helvetica,sans-Serif" font-size="9.00">ViewManager.js</text>
</a>
</g>
</g>
<!-- src/js/directable/directables/dotmatrix/DirectableDotMatrix.js&#45;&gt;src/js/directable/directables/dotmatrix/view/ViewManager.js -->
<g id="edge12" class="edge">
<title>src/js/directable/directables/dotmatrix/DirectableDotMatrix.js&#45;&gt;src/js/directable/directables/dotmatrix/view/ViewManager.js</title>
<path fill="none" stroke="#000000" stroke-width="2" stroke-opacity="0.200000" d="M370.17,-1833.55C383.17,-1831.5 395.89,-1826.73 404.75,-1817 422.89,-1797.08 395.47,-1716.68 412.75,-1696 416.95,-1690.98 422.46,-1687.4 428.49,-1684.87"/>
<polygon fill="#000000" fill-opacity="0.200000" stroke="#000000" stroke-width="2" stroke-opacity="0.200000" points="429.07,-1686.89 434.1,-1682.99 427.74,-1682.91 429.07,-1686.89"/>
</g>
<!-- src/js/directable/directables/dotmatrix/dots/Dot.js -->
<g id="node15" class="node">
<title>src/js/directable/directables/dotmatrix/dots/Dot.js</title>
<g id="a_node15"><a xlink:href="src/js/directable/directables/dotmatrix/dots/Dot.js" xlink:title="Dot.js">
<path fill="#ccffcc" stroke="black" d="M337.58,-863.25C337.58,-863.25 295.92,-863.25 295.92,-863.25 292.83,-863.25 289.75,-860.17 289.75,-857.08 289.75,-857.08 289.75,-850.92 289.75,-850.92 289.75,-847.83 292.83,-844.75 295.92,-844.75 295.92,-844.75 337.58,-844.75 337.58,-844.75 340.67,-844.75 343.75,-847.83 343.75,-850.92 343.75,-850.92 343.75,-857.08 343.75,-857.08 343.75,-860.17 340.67,-863.25 337.58,-863.25"/>
<text text-anchor="start" x="305.12" y="-850.7" font-family="Helvetica,sans-Serif" font-size="9.00">Dot.js</text>
</a>
</g>
</g>
<!-- src/js/directable/directables/dotmatrix/dots/DotManager.js -->
<g id="node16" class="node">
<title>src/js/directable/directables/dotmatrix/dots/DotManager.js</title>
<g id="a_node16"><a xlink:href="src/js/directable/directables/dotmatrix/dots/DotManager.js" xlink:title="DotManager.js">
<path fill="#ccffcc" stroke="black" d="M348.21,-894.25C348.21,-894.25 285.29,-894.25 285.29,-894.25 282.21,-894.25 279.12,-891.17 279.12,-888.08 279.12,-888.08 279.12,-881.92 279.12,-881.92 279.12,-878.83 282.21,-875.75 285.29,-875.75 285.29,-875.75 348.21,-875.75 348.21,-875.75 351.29,-875.75 354.38,-878.83 354.38,-881.92 354.38,-881.92 354.38,-888.08 354.38,-888.08 354.38,-891.17 351.29,-894.25 348.21,-894.25"/>
<text text-anchor="start" x="287.12" y="-881.7" font-family="Helvetica,sans-Serif" font-size="9.00">DotManager.js</text>
</a>
</g>
</g>
<!-- src/js/directable/directables/dotmatrix/grid/GridData.js -->
<g id="node17" class="node">
<title>src/js/directable/directables/dotmatrix/grid/GridData.js</title>
<g id="a_node17"><a xlink:href="src/js/directable/directables/dotmatrix/grid/GridData.js" xlink:title="GridData.js">
<path fill="#ccffcc" stroke="black" d="M341.46,-955.25C341.46,-955.25 292.04,-955.25 292.04,-955.25 288.96,-955.25 285.88,-952.17 285.88,-949.08 285.88,-949.08 285.88,-942.92 285.88,-942.92 285.88,-939.83 288.96,-936.75 292.04,-936.75 292.04,-936.75 341.46,-936.75 341.46,-936.75 344.54,-936.75 347.62,-939.83 347.62,-942.92 347.62,-942.92 347.62,-949.08 347.62,-949.08 347.62,-952.17 344.54,-955.25 341.46,-955.25"/>
<text text-anchor="start" x="293.88" y="-942.7" font-family="Helvetica,sans-Serif" font-size="9.00">GridData.js</text>
</a>
</g>
</g>
<!-- src/js/directable/directables/dotmatrix/grid/GridRenderer.js -->
<g id="node18" class="node">
<title>src/js/directable/directables/dotmatrix/grid/GridRenderer.js</title>
<g id="a_node18"><a xlink:href="src/js/directable/directables/dotmatrix/grid/GridRenderer.js" xlink:title="GridRenderer.js">
<path fill="#ccffcc" stroke="black" d="M350.83,-986.25C350.83,-986.25 282.67,-986.25 282.67,-986.25 279.58,-986.25 276.5,-983.17 276.5,-980.08 276.5,-980.08 276.5,-973.92 276.5,-973.92 276.5,-970.83 279.58,-967.75 282.67,-967.75 282.67,-967.75 350.83,-967.75 350.83,-967.75 353.92,-967.75 357,-970.83 357,-973.92 357,-973.92 357,-980.08 357,-980.08 357,-983.17 353.92,-986.25 350.83,-986.25"/>
<text text-anchor="start" x="284.5" y="-973.7" font-family="Helvetica,sans-Serif" font-size="9.00">GridRenderer.js</text>
</a>
</g>
</g>
<!-- src/js/directable/directables/dotmatrix/grid/GridRendererComponent.js -->
<g id="node19" class="node">
<title>src/js/directable/directables/dotmatrix/grid/GridRendererComponent.js</title>
<g id="a_node19"><a xlink:href="src/js/directable/directables/dotmatrix/grid/GridRendererComponent.js" xlink:title="GridRendererComponent.js">
<path fill="#ccffcc" stroke="black" d="M375.21,-1017.25C375.21,-1017.25 258.29,-1017.25 258.29,-1017.25 255.21,-1017.25 252.12,-1014.17 252.12,-1011.08 252.12,-1011.08 252.12,-1004.92 252.12,-1004.92 252.12,-1001.83 255.21,-998.75 258.29,-998.75 258.29,-998.75 375.21,-998.75 375.21,-998.75 378.29,-998.75 381.38,-1001.83 381.38,-1004.92 381.38,-1004.92 381.38,-1011.08 381.38,-1011.08 381.38,-1014.17 378.29,-1017.25 375.21,-1017.25"/>
<text text-anchor="start" x="260.12" y="-1004.7" font-family="Helvetica,sans-Serif" font-size="9.00">GridRendererComponent.js</text>
</a>
</g>
</g>
<!-- src/js/directable/directables/dotmatrix/shapes/Shape.js -->
<g id="node20" class="node">
<title>src/js/directable/directables/dotmatrix/shapes/Shape.js</title>
<g id="a_node20"><a xlink:href="src/js/directable/directables/dotmatrix/shapes/Shape.js" xlink:title="Shape.js">
<path fill="#ccffcc" stroke="black" d="M337.58,-1756.25C337.58,-1756.25 295.92,-1756.25 295.92,-1756.25 292.83,-1756.25 289.75,-1753.17 289.75,-1750.08 289.75,-1750.08 289.75,-1743.92 289.75,-1743.92 289.75,-1740.83 292.83,-1737.75 295.92,-1737.75 295.92,-1737.75 337.58,-1737.75 337.58,-1737.75 340.67,-1737.75 343.75,-1740.83 343.75,-1743.92 343.75,-1743.92 343.75,-1750.08 343.75,-1750.08 343.75,-1753.17 340.67,-1756.25 337.58,-1756.25"/>
<text text-anchor="start" x="298.75" y="-1743.7" font-family="Helvetica,sans-Serif" font-size="9.00">Shape.js</text>
</a>
</g>
</g>
<!-- src/js/directable/directables/dotmatrix/shapes/ShapeManager.js -->
<g id="node21" class="node">
<title>src/js/directable/directables/dotmatrix/shapes/ShapeManager.js</title>
<g id="a_node21"><a xlink:href="src/js/directable/directables/dotmatrix/shapes/ShapeManager.js" xlink:title="ShapeManager.js">
<path fill="#ccffcc" stroke="black" d="M354.58,-1787.25C354.58,-1787.25 278.92,-1787.25 278.92,-1787.25 275.83,-1787.25 272.75,-1784.17 272.75,-1781.08 272.75,-1781.08 272.75,-1774.92 272.75,-1774.92 272.75,-1771.83 275.83,-1768.75 278.92,-1768.75 278.92,-1768.75 354.58,-1768.75 354.58,-1768.75 357.67,-1768.75 360.75,-1771.83 360.75,-1774.92 360.75,-1774.92 360.75,-1781.08 360.75,-1781.08 360.75,-1784.17 357.67,-1787.25 354.58,-1787.25"/>
<text text-anchor="start" x="280.75" y="-1774.7" font-family="Helvetica,sans-Serif" font-size="9.00">ShapeManager.js</text>
</a>
</g>
</g>
<!-- src/js/directable/directables/dotmatrix/shapes/fill/Fill.js -->
<g id="node22" class="node">
<title>src/js/directable/directables/dotmatrix/shapes/fill/Fill.js</title>
<g id="a_node22"><a xlink:href="src/js/directable/directables/dotmatrix/shapes/fill/Fill.js" xlink:title="Fill.js">
<path fill="#ccffcc" stroke="black" d="M337.58,-1086.25C337.58,-1086.25 295.92,-1086.25 295.92,-1086.25 292.83,-1086.25 289.75,-1083.17 289.75,-1080.08 289.75,-1080.08 289.75,-1073.92 289.75,-1073.92 289.75,-1070.83 292.83,-1067.75 295.92,-1067.75 295.92,-1067.75 337.58,-1067.75 337.58,-1067.75 340.67,-1067.75 343.75,-1070.83 343.75,-1073.92 343.75,-1073.92 343.75,-1080.08 343.75,-1080.08 343.75,-1083.17 340.67,-1086.25 337.58,-1086.25"/>
<text text-anchor="start" x="306.25" y="-1073.7" font-family="Helvetica,sans-Serif" font-size="9.00">Fill.js</text>
</a>
</g>
</g>
<!-- src/js/directable/directables/dotmatrix/shapes/fill/FillStrategy.js -->
<g id="node23" class="node">
<title>src/js/directable/directables/dotmatrix/shapes/fill/FillStrategy.js</title>
<g id="a_node23"><a xlink:href="src/js/directable/directables/dotmatrix/shapes/fill/FillStrategy.js" xlink:title="FillStrategy.js">
<path fill="#ccffcc" stroke="black" d="M345.58,-1117.25C345.58,-1117.25 287.92,-1117.25 287.92,-1117.25 284.83,-1117.25 281.75,-1114.17 281.75,-1111.08 281.75,-1111.08 281.75,-1104.92 281.75,-1104.92 281.75,-1101.83 284.83,-1098.75 287.92,-1098.75 287.92,-1098.75 345.58,-1098.75 345.58,-1098.75 348.67,-1098.75 351.75,-1101.83 351.75,-1104.92 351.75,-1104.92 351.75,-1111.08 351.75,-1111.08 351.75,-1114.17 348.67,-1117.25 345.58,-1117.25"/>
<text text-anchor="start" x="289.75" y="-1104.7" font-family="Helvetica,sans-Serif" font-size="9.00">FillStrategy.js</text>
</a>
</g>
</g>
<!-- src/js/directable/directables/dotmatrix/shapes/fill/FillStrategyType.js -->
<g id="node24" class="node">
<title>src/js/directable/directables/dotmatrix/shapes/fill/FillStrategyType.js</title>
<g id="a_node24"><a xlink:href="src/js/directable/directables/dotmatrix/shapes/fill/FillStrategyType.js" xlink:title="FillStrategyType.js">
<path fill="#ccffcc" stroke="black" d="M356.08,-1148.25C356.08,-1148.25 277.42,-1148.25 277.42,-1148.25 274.33,-1148.25 271.25,-1145.17 271.25,-1142.08 271.25,-1142.08 271.25,-1135.92 271.25,-1135.92 271.25,-1132.83 274.33,-1129.75 277.42,-1129.75 277.42,-1129.75 356.08,-1129.75 356.08,-1129.75 359.17,-1129.75 362.25,-1132.83 362.25,-1135.92 362.25,-1135.92 362.25,-1142.08 362.25,-1142.08 362.25,-1145.17 359.17,-1148.25 356.08,-1148.25"/>
<text text-anchor="start" x="279.25" y="-1135.7" font-family="Helvetica,sans-Serif" font-size="9.00">FillStrategyType.js</text>
</a>
</g>
</g>
<!-- src/js/directable/directables/dotmatrix/shapes/fill/FillType.js -->
<g id="node25" class="node">
<title>src/js/directable/directables/dotmatrix/shapes/fill/FillType.js</title>
<g id="a_node25"><a xlink:href="src/js/directable/directables/dotmatrix/shapes/fill/FillType.js" xlink:title="FillType.js">
<path fill="#ccffcc" stroke="black" d="M339.21,-1179.25C339.21,-1179.25 294.29,-1179.25 294.29,-1179.25 291.21,-1179.25 288.12,-1176.17 288.12,-1173.08 288.12,-1173.08 288.12,-1166.92 288.12,-1166.92 288.12,-1163.83 291.21,-1160.75 294.29,-1160.75 294.29,-1160.75 339.21,-1160.75 339.21,-1160.75 342.29,-1160.75 345.38,-1163.83 345.38,-1166.92 345.38,-1166.92 345.38,-1173.08 345.38,-1173.08 345.38,-1176.17 342.29,-1179.25 339.21,-1179.25"/>
<text text-anchor="start" x="296.12" y="-1166.7" font-family="Helvetica,sans-Serif" font-size="9.00">FillType.js</text>
</a>
</g>
</g>
<!-- src/js/directable/directables/dotmatrix/shapes/glyph/ShapeGlyph_A.js -->
<g id="node26" class="node">
<title>src/js/directable/directables/dotmatrix/shapes/glyph/ShapeGlyph_A.js</title>
<g id="a_node26"><a xlink:href="src/js/directable/directables/dotmatrix/shapes/glyph/ShapeGlyph_A.js" xlink:title="ShapeGlyph_A.js">
<path fill="#ccffcc" stroke="black" d="M354.21,-1240.25C354.21,-1240.25 279.29,-1240.25 279.29,-1240.25 276.21,-1240.25 273.12,-1237.17 273.12,-1234.08 273.12,-1234.08 273.12,-1227.92 273.12,-1227.92 273.12,-1224.83 276.21,-1221.75 279.29,-1221.75 279.29,-1221.75 354.21,-1221.75 354.21,-1221.75 357.29,-1221.75 360.38,-1224.83 360.38,-1227.92 360.38,-1227.92 360.38,-1234.08 360.38,-1234.08 360.38,-1237.17 357.29,-1240.25 354.21,-1240.25"/>
<text text-anchor="start" x="281.12" y="-1227.7" font-family="Helvetica,sans-Serif" font-size="9.00">ShapeGlyph_A.js</text>
</a>
</g>
</g>
<!-- src/js/directable/directables/dotmatrix/shapes/glyph/ShapeGlyph_B.js -->
<g id="node27" class="node">
<title>src/js/directable/directables/dotmatrix/shapes/glyph/ShapeGlyph_B.js</title>
<g id="a_node27"><a xlink:href="src/js/directable/directables/dotmatrix/shapes/glyph/ShapeGlyph_B.js" xlink:title="ShapeGlyph_B.js">
<path fill="#ccffcc" stroke="black" d="M354.21,-1271.25C354.21,-1271.25 279.29,-1271.25 279.29,-1271.25 276.21,-1271.25 273.12,-1268.17 273.12,-1265.08 273.12,-1265.08 273.12,-1258.92 273.12,-1258.92 273.12,-1255.83 276.21,-1252.75 279.29,-1252.75 279.29,-1252.75 354.21,-1252.75 354.21,-1252.75 357.29,-1252.75 360.38,-1255.83 360.38,-1258.92 360.38,-1258.92 360.38,-1265.08 360.38,-1265.08 360.38,-1268.17 357.29,-1271.25 354.21,-1271.25"/>
<text text-anchor="start" x="281.12" y="-1258.7" font-family="Helvetica,sans-Serif" font-size="9.00">ShapeGlyph_B.js</text>
</a>
</g>
</g>
<!-- src/js/directable/directables/dotmatrix/shapes/glyph/ShapeGlyph_C.js -->
<g id="node28" class="node">
<title>src/js/directable/directables/dotmatrix/shapes/glyph/ShapeGlyph_C.js</title>
<g id="a_node28"><a xlink:href="src/js/directable/directables/dotmatrix/shapes/glyph/ShapeGlyph_C.js" xlink:title="ShapeGlyph_C.js">
<path fill="#ccffcc" stroke="black" d="M354.58,-1302.25C354.58,-1302.25 278.92,-1302.25 278.92,-1302.25 275.83,-1302.25 272.75,-1299.17 272.75,-1296.08 272.75,-1296.08 272.75,-1289.92 272.75,-1289.92 272.75,-1286.83 275.83,-1283.75 278.92,-1283.75 278.92,-1283.75 354.58,-1283.75 354.58,-1283.75 357.67,-1283.75 360.75,-1286.83 360.75,-1289.92 360.75,-1289.92 360.75,-1296.08 360.75,-1296.08 360.75,-1299.17 357.67,-1302.25 354.58,-1302.25"/>
<text text-anchor="start" x="280.75" y="-1289.7" font-family="Helvetica,sans-Serif" font-size="9.00">ShapeGlyph_C.js</text>
</a>
</g>
</g>
<!-- src/js/directable/directables/dotmatrix/shapes/glyph/ShapeGlyph_D.js -->
<g id="node29" class="node">
<title>src/js/directable/directables/dotmatrix/shapes/glyph/ShapeGlyph_D.js</title>
<g id="a_node29"><a xlink:href="src/js/directable/directables/dotmatrix/shapes/glyph/ShapeGlyph_D.js" xlink:title="ShapeGlyph_D.js">
<path fill="#ccffcc" stroke="black" d="M354.58,-1333.25C354.58,-1333.25 278.92,-1333.25 278.92,-1333.25 275.83,-1333.25 272.75,-1330.17 272.75,-1327.08 272.75,-1327.08 272.75,-1320.92 272.75,-1320.92 272.75,-1317.83 275.83,-1314.75 278.92,-1314.75 278.92,-1314.75 354.58,-1314.75 354.58,-1314.75 357.67,-1314.75 360.75,-1317.83 360.75,-1320.92 360.75,-1320.92 360.75,-1327.08 360.75,-1327.08 360.75,-1330.17 357.67,-1333.25 354.58,-1333.25"/>
<text text-anchor="start" x="280.75" y="-1320.7" font-family="Helvetica,sans-Serif" font-size="9.00">ShapeGlyph_D.js</text>
</a>
</g>
</g>
<!-- src/js/directable/directables/dotmatrix/shapes/glyph/ShapeGlyph_E.js -->
<g id="node30" class="node">
<title>src/js/directable/directables/dotmatrix/shapes/glyph/ShapeGlyph_E.js</title>
<g id="a_node30"><a xlink:href="src/js/directable/directables/dotmatrix/shapes/glyph/ShapeGlyph_E.js" xlink:title="ShapeGlyph_E.js">
<path fill="#ccffcc" stroke="black" d="M354.21,-1364.25C354.21,-1364.25 279.29,-1364.25 279.29,-1364.25 276.21,-1364.25 273.12,-1361.17 273.12,-1358.08 273.12,-1358.08 273.12,-1351.92 273.12,-1351.92 273.12,-1348.83 276.21,-1345.75 279.29,-1345.75 279.29,-1345.75 354.21,-1345.75 354.21,-1345.75 357.29,-1345.75 360.38,-1348.83 360.38,-1351.92 360.38,-1351.92 360.38,-1358.08 360.38,-1358.08 360.38,-1361.17 357.29,-1364.25 354.21,-1364.25"/>
<text text-anchor="start" x="281.12" y="-1351.7" font-family="Helvetica,sans-Serif" font-size="9.00">ShapeGlyph_E.js</text>
</a>
</g>
</g>
<!-- src/js/directable/directables/dotmatrix/shapes/glyph/ShapeGlyph_F.js -->
<g id="node31" class="node">
<title>src/js/directable/directables/dotmatrix/shapes/glyph/ShapeGlyph_F.js</title>
<g id="a_node31"><a xlink:href="src/js/directable/directables/dotmatrix/shapes/glyph/ShapeGlyph_F.js" xlink:title="ShapeGlyph_F.js">
<path fill="#ccffcc" stroke="black" d="M353.46,-1395.25C353.46,-1395.25 280.04,-1395.25 280.04,-1395.25 276.96,-1395.25 273.88,-1392.17 273.88,-1389.08 273.88,-1389.08 273.88,-1382.92 273.88,-1382.92 273.88,-1379.83 276.96,-1376.75 280.04,-1376.75 280.04,-1376.75 353.46,-1376.75 353.46,-1376.75 356.54,-1376.75 359.62,-1379.83 359.62,-1382.92 359.62,-1382.92 359.62,-1389.08 359.62,-1389.08 359.62,-1392.17 356.54,-1395.25 353.46,-1395.25"/>
<text text-anchor="start" x="281.88" y="-1382.7" font-family="Helvetica,sans-Serif" font-size="9.00">ShapeGlyph_F.js</text>
</a>
</g>
</g>
<!-- src/js/directable/directables/dotmatrix/shapes/glyph/ShapeGlyph_G.js -->
<g id="node32" class="node">
<title>src/js/directable/directables/dotmatrix/shapes/glyph/ShapeGlyph_G.js</title>
<g id="a_node32"><a xlink:href="src/js/directable/directables/dotmatrix/shapes/glyph/ShapeGlyph_G.js" xlink:title="ShapeGlyph_G.js">
<path fill="#ccffcc" stroke="black" d="M354.58,-1426.25C354.58,-1426.25 278.92,-1426.25 278.92,-1426.25 275.83,-1426.25 272.75,-1423.17 272.75,-1420.08 272.75,-1420.08 272.75,-1413.92 272.75,-1413.92 272.75,-1410.83 275.83,-1407.75 278.92,-1407.75 278.92,-1407.75 354.58,-1407.75 354.58,-1407.75 357.67,-1407.75 360.75,-1410.83 360.75,-1413.92 360.75,-1413.92 360.75,-1420.08 360.75,-1420.08 360.75,-1423.17 357.67,-1426.25 354.58,-1426.25"/>
<text text-anchor="start" x="280.75" y="-1413.7" font-family="Helvetica,sans-Serif" font-size="9.00">ShapeGlyph_G.js</text>
</a>
</g>
</g>
<!-- src/js/directable/directables/dotmatrix/shapes/glyph/ShapeGlyph_H.js -->
<g id="node33" class="node">
<title>src/js/directable/directables/dotmatrix/shapes/glyph/ShapeGlyph_H.js</title>
<g id="a_node33"><a xlink:href="src/js/directable/directables/dotmatrix/shapes/glyph/ShapeGlyph_H.js" xlink:title="ShapeGlyph_H.js">
<path fill="#ccffcc" stroke="black" d="M354.58,-1457.25C354.58,-1457.25 278.92,-1457.25 278.92,-1457.25 275.83,-1457.25 272.75,-1454.17 272.75,-1451.08 272.75,-1451.08 272.75,-1444.92 272.75,-1444.92 272.75,-1441.83 275.83,-1438.75 278.92,-1438.75 278.92,-1438.75 354.58,-1438.75 354.58,-1438.75 357.67,-1438.75 360.75,-1441.83 360.75,-1444.92 360.75,-1444.92 360.75,-1451.08 360.75,-1451.08 360.75,-1454.17 357.67,-1457.25 354.58,-1457.25"/>
<text text-anchor="start" x="280.75" y="-1444.7" font-family="Helvetica,sans-Serif" font-size="9.00">ShapeGlyph_H.js</text>
</a>
</g>
</g>
<!-- src/js/directable/directables/dotmatrix/shapes/glyph/ShapeGlyph_I.js -->
<g id="node34" class="node">
<title>src/js/directable/directables/dotmatrix/shapes/glyph/ShapeGlyph_I.js</title>
<g id="a_node34"><a xlink:href="src/js/directable/directables/dotmatrix/shapes/glyph/ShapeGlyph_I.js" xlink:title="ShapeGlyph_I.js">
<path fill="#ccffcc" stroke="black" d="M352.33,-1488.25C352.33,-1488.25 281.17,-1488.25 281.17,-1488.25 278.08,-1488.25 275,-1485.17 275,-1482.08 275,-1482.08 275,-1475.92 275,-1475.92 275,-1472.83 278.08,-1469.75 281.17,-1469.75 281.17,-1469.75 352.33,-1469.75 352.33,-1469.75 355.42,-1469.75 358.5,-1472.83 358.5,-1475.92 358.5,-1475.92 358.5,-1482.08 358.5,-1482.08 358.5,-1485.17 355.42,-1488.25 352.33,-1488.25"/>
<text text-anchor="start" x="283" y="-1475.7" font-family="Helvetica,sans-Serif" font-size="9.00">ShapeGlyph_I.js</text>
</a>
</g>
</g>
<!-- src/js/directable/directables/dotmatrix/shapes/glyph/ShapeGlyph_J.js -->
<g id="node35" class="node">
<title>src/js/directable/directables/dotmatrix/shapes/glyph/ShapeGlyph_J.js</title>
<g id="a_node35"><a xlink:href="src/js/directable/directables/dotmatrix/shapes/glyph/ShapeGlyph_J.js" xlink:title="ShapeGlyph_J.js">
<path fill="#ccffcc" stroke="black" d="M353.46,-1519.25C353.46,-1519.25 280.04,-1519.25 280.04,-1519.25 276.96,-1519.25 273.88,-1516.17 273.88,-1513.08 273.88,-1513.08 273.88,-1506.92 273.88,-1506.92 273.88,-1503.83 276.96,-1500.75 280.04,-1500.75 280.04,-1500.75 353.46,-1500.75 353.46,-1500.75 356.54,-1500.75 359.62,-1503.83 359.62,-1506.92 359.62,-1506.92 359.62,-1513.08 359.62,-1513.08 359.62,-1516.17 356.54,-1519.25 353.46,-1519.25"/>
<text text-anchor="start" x="281.88" y="-1506.7" font-family="Helvetica,sans-Serif" font-size="9.00">ShapeGlyph_J.js</text>
</a>
</g>
</g>
<!-- src/js/directable/directables/dotmatrix/shapes/glyph/ShapeGlyph_K.js -->
<g id="node36" class="node">
<title>src/js/directable/directables/dotmatrix/shapes/glyph/ShapeGlyph_K.js</title>
<g id="a_node36"><a xlink:href="src/js/directable/directables/dotmatrix/shapes/glyph/ShapeGlyph_K.js" xlink:title="ShapeGlyph_K.js">
<path fill="#ccffcc" stroke="black" d="M354.21,-1550.25C354.21,-1550.25 279.29,-1550.25 279.29,-1550.25 276.21,-1550.25 273.12,-1547.17 273.12,-1544.08 273.12,-1544.08 273.12,-1537.92 273.12,-1537.92 273.12,-1534.83 276.21,-1531.75 279.29,-1531.75 279.29,-1531.75 354.21,-1531.75 354.21,-1531.75 357.29,-1531.75 360.38,-1534.83 360.38,-1537.92 360.38,-1537.92 360.38,-1544.08 360.38,-1544.08 360.38,-1547.17 357.29,-1550.25 354.21,-1550.25"/>
<text text-anchor="start" x="281.12" y="-1537.7" font-family="Helvetica,sans-Serif" font-size="9.00">ShapeGlyph_K.js</text>
</a>
</g>
</g>
<!-- src/js/directable/directables/dotmatrix/shapes/line/ShapeLineHorizontal.js -->
<g id="node37" class="node">
<title>src/js/directable/directables/dotmatrix/shapes/line/ShapeLineHorizontal.js</title>
<g id="a_node37"><a xlink:href="src/js/directable/directables/dotmatrix/shapes/line/ShapeLineHorizontal.js" xlink:title="ShapeLineHorizontal.js">
<path fill="#ccffcc" stroke="black" d="M366.58,-1611.25C366.58,-1611.25 266.92,-1611.25 266.92,-1611.25 263.83,-1611.25 260.75,-1608.17 260.75,-1605.08 260.75,-1605.08 260.75,-1598.92 260.75,-1598.92 260.75,-1595.83 263.83,-1592.75 266.92,-1592.75 266.92,-1592.75 366.58,-1592.75 366.58,-1592.75 369.67,-1592.75 372.75,-1595.83 372.75,-1598.92 372.75,-1598.92 372.75,-1605.08 372.75,-1605.08 372.75,-1608.17 369.67,-1611.25 366.58,-1611.25"/>
<text text-anchor="start" x="268.75" y="-1598.7" font-family="Helvetica,sans-Serif" font-size="9.00">ShapeLineHorizontal.js</text>
</a>
</g>
</g>
<!-- src/js/directable/directables/dotmatrix/shapes/line/ShapeLineVertical.js -->
<g id="node38" class="node">
<title>src/js/directable/directables/dotmatrix/shapes/line/ShapeLineVertical.js</title>
<g id="a_node38"><a xlink:href="src/js/directable/directables/dotmatrix/shapes/line/ShapeLineVertical.js" xlink:title="ShapeLineVertical.js">
<path fill="#ccffcc" stroke="black" d="M360.58,-1642.25C360.58,-1642.25 272.92,-1642.25 272.92,-1642.25 269.83,-1642.25 266.75,-1639.17 266.75,-1636.08 266.75,-1636.08 266.75,-1629.92 266.75,-1629.92 266.75,-1626.83 269.83,-1623.75 272.92,-1623.75 272.92,-1623.75 360.58,-1623.75 360.58,-1623.75 363.67,-1623.75 366.75,-1626.83 366.75,-1629.92 366.75,-1629.92 366.75,-1636.08 366.75,-1636.08 366.75,-1639.17 363.67,-1642.25 360.58,-1642.25"/>
<text text-anchor="start" x="274.75" y="-1629.7" font-family="Helvetica,sans-Serif" font-size="9.00">ShapeLineVertical.js</text>
</a>
</g>
</g>
<!-- src/js/directable/directables/dotmatrix/shapes/primative/ShapeRectangle.js -->
<g id="node39" class="node">
<title>src/js/directable/directables/dotmatrix/shapes/primative/ShapeRectangle.js</title>
<g id="a_node39"><a xlink:href="src/js/directable/directables/dotmatrix/shapes/primative/ShapeRectangle.js" xlink:title="ShapeRectangle.js">
<path fill="#ccffcc" stroke="black" d="M357.58,-1703.25C357.58,-1703.25 275.92,-1703.25 275.92,-1703.25 272.83,-1703.25 269.75,-1700.17 269.75,-1697.08 269.75,-1697.08 269.75,-1690.92 269.75,-1690.92 269.75,-1687.83 272.83,-1684.75 275.92,-1684.75 275.92,-1684.75 357.58,-1684.75 357.58,-1684.75 360.67,-1684.75 363.75,-1687.83 363.75,-1690.92 363.75,-1690.92 363.75,-1697.08 363.75,-1697.08 363.75,-1700.17 360.67,-1703.25 357.58,-1703.25"/>
<text text-anchor="start" x="277.75" y="-1690.7" font-family="Helvetica,sans-Serif" font-size="9.00">ShapeRectangle.js</text>
</a>
</g>
</g>
<!-- src/js/directable/directables/dotmatrix/view/View.js -->
<g id="node40" class="node">
<title>src/js/directable/directables/dotmatrix/view/View.js</title>
<g id="a_node40"><a xlink:href="src/js/directable/directables/dotmatrix/view/View.js" xlink:title="View.js">
<path fill="#ccffcc" stroke="black" d="M498.71,-1720.25C498.71,-1720.25 457.04,-1720.25 457.04,-1720.25 453.96,-1720.25 450.88,-1717.17 450.88,-1714.08 450.88,-1714.08 450.88,-1707.92 450.88,-1707.92 450.88,-1704.83 453.96,-1701.75 457.04,-1701.75 457.04,-1701.75 498.71,-1701.75 498.71,-1701.75 501.79,-1701.75 504.88,-1704.83 504.88,-1707.92 504.88,-1707.92 504.88,-1714.08 504.88,-1714.08 504.88,-1717.17 501.79,-1720.25 498.71,-1720.25"/>
<text text-anchor="start" x="463.62" y="-1707.7" font-family="Helvetica,sans-Serif" font-size="9.00">View.js</text>
</a>
</g>
</g>
<!-- src/js/directable/directables/dotmatrix/view/ViewFloor.js -->
<g id="node41" class="node">
<title>src/js/directable/directables/dotmatrix/view/ViewFloor.js</title>
<g id="a_node41"><a xlink:href="src/js/directable/directables/dotmatrix/view/ViewFloor.js" xlink:title="ViewFloor.js">
<path fill="#ccffcc" stroke="black" d="M504.46,-1751.25C504.46,-1751.25 451.29,-1751.25 451.29,-1751.25 448.21,-1751.25 445.12,-1748.17 445.12,-1745.08 445.12,-1745.08 445.12,-1738.92 445.12,-1738.92 445.12,-1735.83 448.21,-1732.75 451.29,-1732.75 451.29,-1732.75 504.46,-1732.75 504.46,-1732.75 507.54,-1732.75 510.62,-1735.83 510.62,-1738.92 510.62,-1738.92 510.62,-1745.08 510.62,-1745.08 510.62,-1748.17 507.54,-1751.25 504.46,-1751.25"/>
<text text-anchor="start" x="453.12" y="-1738.7" font-family="Helvetica,sans-Serif" font-size="9.00">ViewFloor.js</text>
</a>
</g>
</g>
<!-- src/js/directable/directables/dotmatrix/view/ViewTest.js -->
<g id="node42" class="node">
<title>src/js/directable/directables/dotmatrix/view/ViewTest.js</title>
<g id="a_node42"><a xlink:href="src/js/directable/directables/dotmatrix/view/ViewTest.js" xlink:title="ViewTest.js">
<path fill="#ccffcc" stroke="black" d="M502.58,-1782.25C502.58,-1782.25 453.17,-1782.25 453.17,-1782.25 450.08,-1782.25 447,-1779.17 447,-1776.08 447,-1776.08 447,-1769.92 447,-1769.92 447,-1766.83 450.08,-1763.75 453.17,-1763.75 453.17,-1763.75 502.58,-1763.75 502.58,-1763.75 505.67,-1763.75 508.75,-1766.83 508.75,-1769.92 508.75,-1769.92 508.75,-1776.08 508.75,-1776.08 508.75,-1779.17 505.67,-1782.25 502.58,-1782.25"/>
<text text-anchor="start" x="455" y="-1769.7" font-family="Helvetica,sans-Serif" font-size="9.00">ViewTest.js</text>
</a>
</g>
</g>
<!-- src/js/directable/directables/dotmatrix/view/ViewTextTest.js -->
<g id="node43" class="node">
<title>src/js/directable/directables/dotmatrix/view/ViewTextTest.js</title>
<g id="a_node43"><a xlink:href="src/js/directable/directables/dotmatrix/view/ViewTextTest.js" xlink:title="ViewTextTest.js">
<path fill="#ccffcc" stroke="black" d="M510.83,-1813.25C510.83,-1813.25 444.92,-1813.25 444.92,-1813.25 441.83,-1813.25 438.75,-1810.17 438.75,-1807.08 438.75,-1807.08 438.75,-1800.92 438.75,-1800.92 438.75,-1797.83 441.83,-1794.75 444.92,-1794.75 444.92,-1794.75 510.83,-1794.75 510.83,-1794.75 513.92,-1794.75 517,-1797.83 517,-1800.92 517,-1800.92 517,-1807.08 517,-1807.08 517,-1810.17 513.92,-1813.25 510.83,-1813.25"/>
<text text-anchor="start" x="446.75" y="-1800.7" font-family="Helvetica,sans-Serif" font-size="9.00">ViewTextTest.js</text>
</a>
</g>
</g>
<!-- src/js/directable/directables/frame/DirectableFrame.js -->
<g id="node44" class="node">
<title>src/js/directable/directables/frame/DirectableFrame.js</title>
<g id="a_node44"><a xlink:href="src/js/directable/directables/frame/DirectableFrame.js" xlink:title="DirectableFrame.js">
<path fill="#ffffcc" stroke="black" d="M357.21,-1901.25C357.21,-1901.25 276.29,-1901.25 276.29,-1901.25 273.21,-1901.25 270.12,-1898.17 270.12,-1895.08 270.12,-1895.08 270.12,-1888.92 270.12,-1888.92 270.12,-1885.83 273.21,-1882.75 276.29,-1882.75 276.29,-1882.75 357.21,-1882.75 357.21,-1882.75 360.29,-1882.75 363.38,-1885.83 363.38,-1888.92 363.38,-1888.92 363.38,-1895.08 363.38,-1895.08 363.38,-1898.17 360.29,-1901.25 357.21,-1901.25"/>
<text text-anchor="start" x="278.12" y="-1888.7" font-family="Helvetica,sans-Serif" font-size="9.00">DirectableFrame.js</text>
</a>
</g>
</g>
<!-- src/js/directable/directables/frame/DirectableFrame.js&#45;&gt;src/js/application/ApplicationLogger.js -->
<g id="edge13" class="edge">
<title>src/js/directable/directables/frame/DirectableFrame.js&#45;&gt;src/js/application/ApplicationLogger.js</title>
<path fill="none" stroke="#000000" stroke-width="2" stroke-opacity="0.200000" d="M363.68,-1891.27C379.15,-1888.54 394.95,-1882.51 404.75,-1870 416.09,-1855.52 400.52,-559.73 412.75,-546 451.68,-502.28 499.78,-568.94 543.5,-530 584.73,-493.28 605.92,-316.64 611.85,-258.55"/>
<polygon fill="#000000" fill-opacity="0.200000" stroke="#000000" stroke-width="2" stroke-opacity="0.200000" points="613.93,-258.9 612.43,-252.73 609.75,-258.49 613.93,-258.9"/>
</g>
<!-- src/js/directable/directables/frame/DirectableFrame.js&#45;&gt;src/js/directable/Directable.js -->
<g id="edge14" class="edge">
<title>src/js/directable/directables/frame/DirectableFrame.js&#45;&gt;src/js/directable/Directable.js</title>
<path fill="none" stroke="#000000" stroke-width="2" stroke-opacity="0.200000" d="M358.7,-1901.64C375.67,-1907.77 393.89,-1917.57 404.75,-1933 415.41,-1948.15 399.03,-2003.54 412.75,-2016 459.77,-2058.71 541.37,-2035.18 584.68,-2017.97"/>
<polygon fill="#000000" fill-opacity="0.200000" stroke="#000000" stroke-width="2" stroke-opacity="0.200000" points="585.26,-2020.01 590.01,-2015.79 583.66,-2016.12 585.26,-2020.01"/>
</g>
<!-- src/js/directable/directables/rhythm/DirectableRhythm.js -->
<g id="node45" class="node">
<title>src/js/directable/directables/rhythm/DirectableRhythm.js</title>
<g id="a_node45"><a xlink:href="src/js/directable/directables/rhythm/DirectableRhythm.js" xlink:title="DirectableRhythm.js">
<path fill="#ffffcc" stroke="black" d="M520.96,-706.25C520.96,-706.25 434.79,-706.25 434.79,-706.25 431.71,-706.25 428.62,-703.17 428.62,-700.08 428.62,-700.08 428.62,-693.92 428.62,-693.92 428.62,-690.83 431.71,-687.75 434.79,-687.75 434.79,-687.75 520.96,-687.75 520.96,-687.75 524.04,-687.75 527.12,-690.83 527.12,-693.92 527.12,-693.92 527.12,-700.08 527.12,-700.08 527.12,-703.17 524.04,-706.25 520.96,-706.25"/>
<text text-anchor="start" x="436.62" y="-693.7" font-family="Helvetica,sans-Serif" font-size="9.00">DirectableRhythm.js</text>
</a>
</g>
</g>
<!-- src/js/directable/directables/rhythm/DirectableRhythm.js&#45;&gt;src/js/application/ApplicationLogger.js -->
<g id="edge15" class="edge">
<title>src/js/directable/directables/rhythm/DirectableRhythm.js&#45;&gt;src/js/application/ApplicationLogger.js</title>
<path fill="none" stroke="#000000" stroke-width="2" stroke-opacity="0.200000" d="M483.55,-687.55C495.1,-663.89 525.38,-599.96 543.5,-544 577.85,-437.94 602.29,-305.92 610.56,-258.24"/>
<polygon fill="#000000" fill-opacity="0.200000" stroke="#000000" stroke-width="2" stroke-opacity="0.200000" points="612.58,-258.87 611.52,-252.6 608.44,-258.16 612.58,-258.87"/>
</g>
<!-- src/js/directable/directables/rhythm/DirectableRhythm.js&#45;&gt;src/js/directable/Directable.js -->
<g id="edge16" class="edge">
<title>src/js/directable/directables/rhythm/DirectableRhythm.js&#45;&gt;src/js/directable/Directable.js</title>
<path fill="none" stroke="#000000" stroke-width="2" stroke-opacity="0.200000" d="M479.84,-706.41C491.07,-815.34 596.22,-1836.02 611.72,-1986.5"/>
<polygon fill="#000000" fill-opacity="0.200000" stroke="#000000" stroke-width="2" stroke-opacity="0.200000" points="609.63,-1986.71 612.33,-1992.47 613.81,-1986.28 609.63,-1986.71"/>
</g>
<!-- src/js/directable/directables/rhythm/asdr/ASDRData.js -->
<g id="node46" class="node">
<title>src/js/directable/directables/rhythm/asdr/ASDRData.js</title>
<g id="a_node46"><a xlink:href="src/js/directable/directables/rhythm/asdr/ASDRData.js" xlink:title="ASDRData.js">
<path fill="#ccffcc" stroke="black" d="M345.58,-583.25C345.58,-583.25 287.92,-583.25 287.92,-583.25 284.83,-583.25 281.75,-580.17 281.75,-577.08 281.75,-577.08 281.75,-570.92 281.75,-570.92 281.75,-567.83 284.83,-564.75 287.92,-564.75 287.92,-564.75 345.58,-564.75 345.58,-564.75 348.67,-564.75 351.75,-567.83 351.75,-570.92 351.75,-570.92 351.75,-577.08 351.75,-577.08 351.75,-580.17 348.67,-583.25 345.58,-583.25"/>
<text text-anchor="start" x="289.75" y="-570.7" font-family="Helvetica,sans-Serif" font-size="9.00">ASDRData.js</text>
</a>
</g>
</g>
<!-- src/js/directable/directables/rhythm/asdr/ASDREnvelope.js -->
<g id="node47" class="node">
<title>src/js/directable/directables/rhythm/asdr/ASDREnvelope.js</title>
<g id="a_node47"><a xlink:href="src/js/directable/directables/rhythm/asdr/ASDREnvelope.js" xlink:title="ASDREnvelope.js">
<path fill="#ffffcc" stroke="black" d="M355.33,-614.25C355.33,-614.25 278.17,-614.25 278.17,-614.25 275.08,-614.25 272,-611.17 272,-608.08 272,-608.08 272,-601.92 272,-601.92 272,-598.83 275.08,-595.75 278.17,-595.75 278.17,-595.75 355.33,-595.75 355.33,-595.75 358.42,-595.75 361.5,-598.83 361.5,-601.92 361.5,-601.92 361.5,-608.08 361.5,-608.08 361.5,-611.17 358.42,-614.25 355.33,-614.25"/>
<text text-anchor="start" x="280" y="-601.7" font-family="Helvetica,sans-Serif" font-size="9.00">ASDREnvelope.js</text>
</a>
</g>
</g>
<!-- src/js/directable/directables/rhythm/asdr/ASDREnvelope.js&#45;&gt;src/js/application/ApplicationLogger.js -->
<g id="edge17" class="edge">
<title>src/js/directable/directables/rhythm/asdr/ASDREnvelope.js&#45;&gt;src/js/application/ApplicationLogger.js</title>
<path fill="none" stroke="#000000" stroke-width="2" stroke-opacity="0.200000" d="M361.61,-607.4C377.41,-605.85 393.98,-601 404.75,-589 420.97,-570.92 396.26,-497.83 412.75,-480 452.66,-436.83 498.8,-498.19 543.5,-460 605.01,-407.45 613.12,-301.02 613.8,-258.33"/>
<polygon fill="#000000" fill-opacity="0.200000" stroke="#000000" stroke-width="2" stroke-opacity="0.200000" points="615.9,-258.39 613.83,-252.38 611.7,-258.37 615.9,-258.39"/>
</g>
<!-- src/js/directable/directables/rhythm/asdr/DirectableRhythmASDRManager.js -->
<g id="node48" class="node">
<title>src/js/directable/directables/rhythm/asdr/DirectableRhythmASDRManager.js</title>
<g id="a_node48"><a xlink:href="src/js/directable/directables/rhythm/asdr/DirectableRhythmASDRManager.js" xlink:title="DirectableRhythmASDRManager.js">
<path fill="#ffffcc" stroke="black" d="M390.58,-645.25C390.58,-645.25 242.92,-645.25 242.92,-645.25 239.83,-645.25 236.75,-642.17 236.75,-639.08 236.75,-639.08 236.75,-632.92 236.75,-632.92 236.75,-629.83 239.83,-626.75 242.92,-626.75 242.92,-626.75 390.58,-626.75 390.58,-626.75 393.67,-626.75 396.75,-629.83 396.75,-632.92 396.75,-632.92 396.75,-639.08 396.75,-639.08 396.75,-642.17 393.67,-645.25 390.58,-645.25"/>
<text text-anchor="start" x="244.75" y="-632.7" font-family="Helvetica,sans-Serif" font-size="9.00">DirectableRhythmASDRManager.js</text>
</a>
</g>
</g>
<!-- src/js/directable/directables/rhythm/asdr/DirectableRhythmASDRManager.js&#45;&gt;src/js/application/ApplicationLogger.js -->
<g id="edge18" class="edge">
<title>src/js/directable/directables/rhythm/asdr/DirectableRhythmASDRManager.js&#45;&gt;src/js/application/ApplicationLogger.js</title>
<path fill="none" stroke="#000000" stroke-width="2" stroke-opacity="0.200000" d="M396.94,-626.93C399.78,-624.94 402.4,-622.64 404.75,-620 423.38,-599.02 393.81,-514.7 412.75,-494 452.44,-450.64 499.14,-512.57 543.5,-474 608.66,-417.34 614.53,-302.79 614.2,-258.28"/>
<polygon fill="#000000" fill-opacity="0.200000" stroke="#000000" stroke-width="2" stroke-opacity="0.200000" points="616.31,-258.42 614.1,-252.46 612.11,-258.5 616.31,-258.42"/>
</g>
<!-- src/js/directable/directables/rhythm/bpm/DirectableRhythmBPM.js&#45;&gt;src/js/application/ApplicationLogger.js -->
<g id="edge19" class="edge">
<title>src/js/directable/directables/rhythm/bpm/DirectableRhythmBPM.js&#45;&gt;src/js/application/ApplicationLogger.js</title>
<path fill="none" stroke="#000000" stroke-width="2" stroke-opacity="0.200000" d="M376.08,-692.98C387.1,-689.53 397.45,-683.92 404.75,-675 416.51,-660.62 400.31,-521.8 412.75,-508 452.1,-464.33 499.44,-526.92 543.5,-488 578.63,-456.97 603.22,-310.64 611,-258.5"/>
<polygon fill="#000000" fill-opacity="0.200000" stroke="#000000" stroke-width="2" stroke-opacity="0.200000" points="613.07,-258.89 611.86,-252.65 608.91,-258.28 613.07,-258.89"/>
</g>
<!-- src/js/directable/directables/rhythm/bpm/DirectableRhythmBPM.js&#45;&gt;src/js/directable/directables/rhythm/DirectableRhythm.js -->
<g id="edge20" class="edge">
<title>src/js/directable/directables/rhythm/bpm/DirectableRhythmBPM.js&#45;&gt;src/js/directable/directables/rhythm/DirectableRhythm.js</title>
<path fill="none" stroke="#000000" stroke-width="2" stroke-opacity="0.200000" d="M376.1,-697C390.28,-697 405.42,-697 419.55,-697"/>
<polygon fill="#000000" fill-opacity="0.200000" stroke="#000000" stroke-width="2" stroke-opacity="0.200000" points="419.17,-699.1 425.17,-697 419.17,-694.9 419.17,-699.1"/>
</g>
<!-- src/js/directable/directables/rhythm2/ViewRhythm.js -->
<g id="node50" class="node">
<title>src/js/directable/directables/rhythm2/ViewRhythm.js</title>
<g id="a_node50"><a xlink:href="src/js/directable/directables/rhythm2/ViewRhythm.js" xlink:title="ViewRhythm.js">
<path fill="#ffffcc" stroke="black" d="M348.96,-1962.25C348.96,-1962.25 284.54,-1962.25 284.54,-1962.25 281.46,-1962.25 278.38,-1959.17 278.38,-1956.08 278.38,-1956.08 278.38,-1949.92 278.38,-1949.92 278.38,-1946.83 281.46,-1943.75 284.54,-1943.75 284.54,-1943.75 348.96,-1943.75 348.96,-1943.75 352.04,-1943.75 355.12,-1946.83 355.12,-1949.92 355.12,-1949.92 355.12,-1956.08 355.12,-1956.08 355.12,-1959.17 352.04,-1962.25 348.96,-1962.25"/>
<text text-anchor="start" x="286.38" y="-1949.7" font-family="Helvetica,sans-Serif" font-size="9.00">ViewRhythm.js</text>
</a>
</g>
</g>
<!-- src/js/directable/directables/rhythm2/ViewRhythmTrack.js -->
<g id="node51" class="node">
<title>src/js/directable/directables/rhythm2/ViewRhythmTrack.js</title>
<g id="a_node51"><a xlink:href="src/js/directable/directables/rhythm2/ViewRhythmTrack.js" xlink:title="ViewRhythmTrack.js">
<path fill="#ffffcc" stroke="black" d="M521.33,-1962.25C521.33,-1962.25 434.42,-1962.25 434.42,-1962.25 431.33,-1962.25 428.25,-1959.17 428.25,-1956.08 428.25,-1956.08 428.25,-1949.92 428.25,-1949.92 428.25,-1946.83 431.33,-1943.75 434.42,-1943.75 434.42,-1943.75 521.33,-1943.75 521.33,-1943.75 524.42,-1943.75 527.5,-1946.83 527.5,-1949.92 527.5,-1949.92 527.5,-1956.08 527.5,-1956.08 527.5,-1959.17 524.42,-1962.25 521.33,-1962.25"/>
<text text-anchor="start" x="436.25" y="-1949.7" font-family="Helvetica,sans-Serif" font-size="9.00">ViewRhythmTrack.js</text>
</a>
</g>
</g>
<!-- src/js/directable/directables/rhythm2/ViewRhythm.js&#45;&gt;src/js/directable/directables/rhythm2/ViewRhythmTrack.js -->
<g id="edge21" class="edge">
<title>src/js/directable/directables/rhythm2/ViewRhythm.js&#45;&gt;src/js/directable/directables/rhythm2/ViewRhythmTrack.js</title>
<path fill="none" stroke="#000000" stroke-width="2" stroke-opacity="0.200000" d="M355.46,-1953C374.44,-1953 397.86,-1953 419.05,-1953"/>
<polygon fill="#000000" fill-opacity="0.200000" stroke="#000000" stroke-width="2" stroke-opacity="0.200000" points="418.95,-1955.1 424.95,-1953 418.95,-1950.9 418.95,-1955.1"/>
</g>
<!-- src/js/directable/directables/title/DirectableTitle.js&#45;&gt;src/js/application/ApplicationLogger.js -->
<g id="edge22" class="edge">
<title>src/js/directable/directables/title/DirectableTitle.js&#45;&gt;src/js/application/ApplicationLogger.js</title>
<path fill="none" stroke="#000000" stroke-width="2" stroke-opacity="0.200000" d="M350.83,-775.4C370.08,-767.95 392.84,-755.54 404.75,-736 417.14,-715.69 396.91,-539.76 412.75,-522 451.87,-478.12 499.71,-541.23 543.5,-502 580.48,-468.87 604.12,-312.55 611.3,-258.46"/>
<polygon fill="#000000" fill-opacity="0.200000" stroke="#000000" stroke-width="2" stroke-opacity="0.200000" points="613.37,-258.83 612.06,-252.61 609.21,-258.29 613.37,-258.83"/>
</g>
<!-- src/js/directable/directables/title/DirectableTitle.js&#45;&gt;src/js/directable/Directable.js -->
<g id="edge23" class="edge">
<title>src/js/directable/directables/title/DirectableTitle.js&#45;&gt;src/js/directable/Directable.js</title>
<path fill="none" stroke="#000000" stroke-width="2" stroke-opacity="0.200000" d="M351.48,-794.64C370.71,-802.06 393.22,-814.43 404.75,-834 412.91,-847.86 401.71,-1980.3 412.75,-1992 418.13,-1997.7 514.62,-2001.79 571.88,-2003.74"/>
<polygon fill="#000000" fill-opacity="0.200000" stroke="#000000" stroke-width="2" stroke-opacity="0.200000" points="571.62,-2005.83 577.69,-2003.93 571.76,-2001.63 571.62,-2005.83"/>
</g>
<!-- src/js/enum/DisplayFormats.js -->
<g id="node53" class="node">
<title>src/js/enum/DisplayFormats.js</title>
<g id="a_node53"><a xlink:href="src/js/enum/DisplayFormats.js" xlink:title="DisplayFormats.js">
<path fill="#ffffcc" stroke="black" d="M652.83,-92.25C652.83,-92.25 576.42,-92.25 576.42,-92.25 573.33,-92.25 570.25,-89.17 570.25,-86.08 570.25,-86.08 570.25,-79.92 570.25,-79.92 570.25,-76.83 573.33,-73.75 576.42,-73.75 576.42,-73.75 652.83,-73.75 652.83,-73.75 655.92,-73.75 659,-76.83 659,-79.92 659,-79.92 659,-86.08 659,-86.08 659,-89.17 655.92,-92.25 652.83,-92.25"/>
<text text-anchor="start" x="578.25" y="-79.7" font-family="Helvetica,sans-Serif" font-size="9.00">DisplayFormats.js</text>
</a>
</g>
</g>
<!-- src/js/index.js -->
<g id="node54" class="node">
<title>src/js/index.js</title>
<g id="a_node54"><a xlink:href="src/js/index.js" xlink:title="index.js">
<path fill="#ffffcc" stroke="black" d="M337.58,-218.25C337.58,-218.25 295.92,-218.25 295.92,-218.25 292.83,-218.25 289.75,-215.17 289.75,-212.08 289.75,-212.08 289.75,-205.92 289.75,-205.92 289.75,-202.83 292.83,-199.75 295.92,-199.75 295.92,-199.75 337.58,-199.75 337.58,-199.75 340.67,-199.75 343.75,-202.83 343.75,-205.92 343.75,-205.92 343.75,-212.08 343.75,-212.08 343.75,-215.17 340.67,-218.25 337.58,-218.25"/>
<text text-anchor="start" x="301" y="-205.7" font-family="Helvetica,sans-Serif" font-size="9.00">index.js</text>
</a>
</g>
</g>
<!-- src/js/index.js&#45;&gt;src/js/application/Application.js -->
<g id="edge28" class="edge">
<title>src/js/index.js&#45;&gt;src/js/application/Application.js</title>
<path fill="none" stroke="#000000" stroke-width="2" stroke-opacity="0.200000" d="M344.03,-209C368.24,-209 404.64,-209 433.22,-209"/>
<polygon fill="#000000" fill-opacity="0.200000" stroke="#000000" stroke-width="2" stroke-opacity="0.200000" points="433.17,-211.1 439.17,-209 433.17,-206.9 433.17,-211.1"/>
</g>
<!-- src/js/overlay/displayFormat/OverlayDisplayFormat.js&#45;&gt;src/js/enum/DisplayFormats.js -->
<g id="edge36" class="edge">
<title>src/js/overlay/displayFormat/OverlayDisplayFormat.js&#45;&gt;src/js/enum/DisplayFormats.js</title>
<path fill="none" stroke="#000000" stroke-width="2" stroke-opacity="0.200000" d="M374.69,-311.47C386.07,-309.2 396.92,-304.57 404.75,-296 425.47,-273.32 393.69,-182.09 412.75,-158 450.38,-110.45 487.23,-141.61 543.5,-119 559.17,-112.7 576.02,-104.11 589.28,-96.9"/>
<polygon fill="#000000" fill-opacity="0.200000" stroke="#000000" stroke-width="2" stroke-opacity="0.200000" points="590.14,-98.83 594.38,-94.09 588.11,-95.15 590.14,-98.83"/>
</g>
<!-- src/js/overlay/OverlayUtil.js -->
<g id="node57" class="node">
<title>src/js/overlay/OverlayUtil.js</title>
<g id="a_node57"><a xlink:href="src/js/overlay/OverlayUtil.js" xlink:title="OverlayUtil.js">
<path fill="#ffffcc" stroke="black" d="M506.71,-315.25C506.71,-315.25 449.04,-315.25 449.04,-315.25 445.96,-315.25 442.88,-312.17 442.88,-309.08 442.88,-309.08 442.88,-302.92 442.88,-302.92 442.88,-299.83 445.96,-296.75 449.04,-296.75 449.04,-296.75 506.71,-296.75 506.71,-296.75 509.79,-296.75 512.88,-299.83 512.88,-302.92 512.88,-302.92 512.88,-309.08 512.88,-309.08 512.88,-312.17 509.79,-315.25 506.71,-315.25"/>
<text text-anchor="start" x="450.88" y="-302.7" font-family="Helvetica,sans-Serif" font-size="9.00">OverlayUtil.js</text>
</a>
</g>
</g>
<!-- src/js/overlay/displayFormat/OverlayDisplayFormat.js&#45;&gt;src/js/overlay/OverlayUtil.js -->
<g id="edge37" class="edge">
<title>src/js/overlay/displayFormat/OverlayDisplayFormat.js&#45;&gt;src/js/overlay/OverlayUtil.js</title>
<path fill="none" stroke="#000000" stroke-width="2" stroke-opacity="0.200000" d="M374.75,-307.93C394.21,-307.56 415.64,-307.15 433.83,-306.81"/>
<polygon fill="#000000" fill-opacity="0.200000" stroke="#000000" stroke-width="2" stroke-opacity="0.200000" points="433.48,-308.92 439.44,-306.71 433.4,-304.72 433.48,-308.92"/>
</g>
<!-- src/js/overlay/overlay/OverlayOverlay.js&#45;&gt;src/js/overlay/OverlayUtil.js -->
<g id="edge38" class="edge">
<title>src/js/overlay/overlay/OverlayOverlay.js&#45;&gt;src/js/overlay/OverlayUtil.js</title>
<path fill="none" stroke="#000000" stroke-width="2" stroke-opacity="0.200000" d="M360.55,-361.69C374.88,-358.25 390.76,-353.71 404.75,-348 422.86,-340.61 441.93,-329.33 455.91,-320.32"/>
<polygon fill="#000000" fill-opacity="0.200000" stroke="#000000" stroke-width="2" stroke-opacity="0.200000" points="456.72,-322.3 460.58,-317.26 454.41,-318.79 456.72,-322.3"/>
</g>
<!-- src/js/overlay/OverlayUtil.js&#45;&gt;src/js/application/ApplicationLogger.js -->
<g id="edge35" class="edge">
<title>src/js/overlay/OverlayUtil.js&#45;&gt;src/js/application/ApplicationLogger.js</title>
<path fill="none" stroke="#000000" stroke-width="2" stroke-opacity="0.200000" d="M512.34,-296.25C522.54,-292.85 533.65,-288.69 543.5,-284 560.97,-275.69 579.45,-263.95 593.05,-254.69"/>
<polygon fill="#000000" fill-opacity="0.200000" stroke="#000000" stroke-width="2" stroke-opacity="0.200000" points="594.23,-256.44 597.96,-251.29 591.84,-252.98 594.23,-256.44"/>
</g>
<!-- src/js/overlay/OverlayUtil.js&#45;&gt;src/js/application/ApplicationDispatcher.js -->
<g id="edge34" class="edge">
<title>src/js/overlay/OverlayUtil.js&#45;&gt;src/js/application/ApplicationDispatcher.js</title>
<path fill="none" stroke="#000000" stroke-width="2" stroke-opacity="0.200000" d="M477.88,-296.3C477.88,-283.63 477.88,-270.97 477.88,-258.31"/>
<polygon fill="#000000" fill-opacity="0.200000" stroke="#000000" stroke-width="2" stroke-opacity="0.200000" points="479.98,-258.57 477.88,-252.57 475.78,-258.57 479.98,-258.57"/>
</g>
<!-- src/js/view/render/RenderController.js&#45;&gt;src/js/application/ApplicationConfiguration.js -->
<g id="edge40" class="edge">
<title>src/js/view/render/RenderController.js&#45;&gt;src/js/application/ApplicationConfiguration.js</title>
<path fill="none" stroke="#000000" stroke-width="2" stroke-opacity="0.200000" d="M364.68,-84.93C377.78,-86.86 391.94,-89.49 404.75,-93 472.26,-111.49 547.35,-145.61 586.5,-164.51"/>
<polygon fill="#000000" fill-opacity="0.200000" stroke="#000000" stroke-width="2" stroke-opacity="0.200000" points="585.26,-166.24 591.58,-166.98 587.1,-162.47 585.26,-166.24"/>
</g>
<!-- src/js/view/render/RenderResizer.js -->
<g id="node59" class="node">
<title>src/js/view/render/RenderResizer.js</title>
<g id="a_node59"><a xlink:href="src/js/view/render/RenderResizer.js" xlink:title="RenderResizer.js">
<path fill="#ffffcc" stroke="black" d="M514.96,-58.25C514.96,-58.25 440.79,-58.25 440.79,-58.25 437.71,-58.25 434.62,-55.17 434.62,-52.08 434.62,-52.08 434.62,-45.92 434.62,-45.92 434.62,-42.83 437.71,-39.75 440.79,-39.75 440.79,-39.75 514.96,-39.75 514.96,-39.75 518.04,-39.75 521.12,-42.83 521.12,-45.92 521.12,-45.92 521.12,-52.08 521.12,-52.08 521.12,-55.17 518.04,-58.25 514.96,-58.25"/>
<text text-anchor="start" x="442.62" y="-45.7" font-family="Helvetica,sans-Serif" font-size="9.00">RenderResizer.js</text>
</a>
</g>
</g>
<!-- src/js/view/render/RenderController.js&#45;&gt;src/js/view/render/RenderResizer.js -->
<g id="edge41" class="edge">
<title>src/js/view/render/RenderController.js&#45;&gt;src/js/view/render/RenderResizer.js</title>
<path fill="none" stroke="#000000" stroke-width="2" stroke-opacity="0.200000" d="M364.63,-70.87C383.71,-67.15 405.83,-62.84 425.36,-59.04"/>
<polygon fill="#000000" fill-opacity="0.200000" stroke="#000000" stroke-width="2" stroke-opacity="0.200000" points="425.67,-61.12 431.16,-57.91 424.87,-56.99 425.67,-61.12"/>
</g>
<!-- src/js/view/render/RenderSurface.js -->
<g id="node60" class="node">
<title>src/js/view/render/RenderSurface.js</title>
<g id="a_node60"><a xlink:href="src/js/view/render/RenderSurface.js" xlink:title="RenderSurface.js">
<path fill="#ffffcc" stroke="black" d="M515.33,-89.25C515.33,-89.25 440.42,-89.25 440.42,-89.25 437.33,-89.25 434.25,-86.17 434.25,-83.08 434.25,-83.08 434.25,-76.92 434.25,-76.92 434.25,-73.83 437.33,-70.75 440.42,-70.75 440.42,-70.75 515.33,-70.75 515.33,-70.75 518.42,-70.75 521.5,-73.83 521.5,-76.92 521.5,-76.92 521.5,-83.08 521.5,-83.08 521.5,-86.17 518.42,-89.25 515.33,-89.25"/>
<text text-anchor="start" x="442.25" y="-76.7" font-family="Helvetica,sans-Serif" font-size="9.00">RenderSurface.js</text>
</a>
</g>
</g>
<!-- src/js/view/render/RenderController.js&#45;&gt;src/js/view/render/RenderSurface.js -->
<g id="edge42" class="edge">
<title>src/js/view/render/RenderController.js&#45;&gt;src/js/view/render/RenderSurface.js</title>
<path fill="none" stroke="#000000" stroke-width="2" stroke-opacity="0.200000" d="M364.63,-80C383.55,-80 405.44,-80 424.85,-80"/>
<polygon fill="#000000" fill-opacity="0.200000" stroke="#000000" stroke-width="2" stroke-opacity="0.200000" points="424.83,-82.1 430.83,-80 424.83,-77.9 424.83,-82.1"/>
</g>
<!-- src/js/view/render/RenderResizer.js&#45;&gt;src/js/application/ApplicationConfiguration.js -->
<g id="edge43" class="edge">
<title>src/js/view/render/RenderResizer.js&#45;&gt;src/js/application/ApplicationConfiguration.js</title>
<path fill="none" stroke="#000000" stroke-width="2" stroke-opacity="0.200000" d="M521.4,-52.03C529.74,-54.52 537.69,-58.56 543.5,-65 560.63,-84 539.5,-99.41 551.5,-122 560.52,-138.99 576.84,-153.39 590.49,-163.33"/>
<polygon fill="#000000" fill-opacity="0.200000" stroke="#000000" stroke-width="2" stroke-opacity="0.200000" points="589.13,-164.94 595.25,-166.65 591.53,-161.5 589.13,-164.94"/>
</g>
<!-- src/js/view/render/RenderResizer.js&#45;&gt;src/js/application/ApplicationLogger.js -->
<g id="edge45" class="edge">
<title>src/js/view/render/RenderResizer.js&#45;&gt;src/js/application/ApplicationLogger.js</title>
<path fill="none" stroke="#000000" stroke-width="2" stroke-opacity="0.200000" d="M521.51,-51.55C529.95,-54.06 537.91,-58.22 543.5,-65 566,-92.3 529.13,-196.59 551.5,-224 553.15,-226.02 555.02,-227.81 557.05,-229.38"/>
<polygon fill="#000000" fill-opacity="0.200000" stroke="#000000" stroke-width="2" stroke-opacity="0.200000" points="555.73,-231.04 561.94,-232.39 557.93,-227.46 555.73,-231.04"/>
</g>
<!-- src/js/view/render/RenderResizer.js&#45;&gt;src/js/application/ApplicationDispatcher.js -->
<g id="edge44" class="edge">
<title>src/js/view/render/RenderResizer.js&#45;&gt;src/js/application/ApplicationDispatcher.js</title>
<path fill="none" stroke="#000000" stroke-width="2" stroke-opacity="0.200000" d="M434.36,-50.57C422.63,-53.57 412.22,-59.55 408.75,-71 404.02,-86.63 404.02,-202.37 408.75,-218 409.8,-221.46 411.48,-224.42 413.64,-226.95"/>
<polygon fill="#000000" fill-opacity="0.200000" stroke="#000000" stroke-width="2" stroke-opacity="0.200000" points="412.13,-228.42 418.06,-230.72 414.86,-225.23 412.13,-228.42"/>
</g>
<!-- src/js/view/render/RenderResizer.js&#45;&gt;src/js/enum/DisplayFormats.js -->
<g id="edge46" class="edge">
<title>src/js/view/render/RenderResizer.js&#45;&gt;src/js/enum/DisplayFormats.js</title>
<path fill="none" stroke="#000000" stroke-width="2" stroke-opacity="0.200000" d="M518.19,-58.68C526.55,-60.75 535.32,-62.94 543.5,-65 551.29,-66.96 559.55,-69.07 567.58,-71.12"/>
<polygon fill="#000000" fill-opacity="0.200000" stroke="#000000" stroke-width="2" stroke-opacity="0.200000" points="566.89,-73.11 573.22,-72.57 567.93,-69.04 566.89,-73.11"/>
</g>
<!-- src/js/view/render/RenderSurface.js&#45;&gt;src/js/application/ApplicationLogger.js -->
<g id="edge47" class="edge">
<title>src/js/view/render/RenderSurface.js&#45;&gt;src/js/application/ApplicationLogger.js</title>
<path fill="none" stroke="#000000" stroke-width="2" stroke-opacity="0.200000" d="M489.77,-89.3C504.72,-102.77 531.13,-129.25 543.5,-158 549.34,-171.57 541.76,-212.89 551.5,-224 553.19,-225.92 555.07,-227.63 557.1,-229.15"/>
<polygon fill="#000000" fill-opacity="0.200000" stroke="#000000" stroke-width="2" stroke-opacity="0.200000" points="555.69,-230.75 561.92,-232.03 557.85,-227.14 555.69,-230.75"/>
</g>
</g>
</svg>
