<?xml version="1.0" encoding="UTF-8" standalone="no"?>
<!DOCTYPE svg PUBLIC "-//W3C//DTD SVG 1.1//EN"
 "http://www.w3.org/Graphics/SVG/1.1/DTD/svg11.dtd">
<!-- Generated by graphviz version 12.2.1 (20241206.2353)
 -->
<!-- Title: dependency&#45;cruiser output Pages: 1 -->
<svg width="1089pt" height="1841pt"
 viewBox="0.00 0.00 1089.25 1841.00" xmlns="http://www.w3.org/2000/svg" xmlns:xlink="http://www.w3.org/1999/xlink">
<g id="graph0" class="graph" transform="scale(1 1) rotate(0) translate(4 1837)">
<title>dependency&#45;cruiser output</title>
<polygon fill="white" stroke="none" points="-4,4 -4,-1837 1085.25,-1837 1085.25,4 -4,4"/>
<g id="clust1" class="cluster">
<title>cluster_src</title>
<path fill="#ffffff" stroke="black" stroke-width="2" d="M20,-8C20,-8 1061.25,-8 1061.25,-8 1067.25,-8 1073.25,-14 1073.25,-20 1073.25,-20 1073.25,-1813 1073.25,-1813 1073.25,-1819 1067.25,-1825 1061.25,-1825 1061.25,-1825 20,-1825 20,-1825 14,-1825 8,-1819 8,-1813 8,-1813 8,-20 8,-20 8,-14 14,-8 20,-8"/>
<text text-anchor="middle" x="540.62" y="-1812.45" font-family="Helvetica,sans-Serif" font-weight="bold" font-size="9.00">src</text>
</g>
<g id="clust2" class="cluster">
<title>cluster_src/js</title>
<path fill="#ffffff" stroke="black" stroke-width="2" d="M28,-16C28,-16 1053.25,-16 1053.25,-16 1059.25,-16 1065.25,-22 1065.25,-28 1065.25,-28 1065.25,-1786 1065.25,-1786 1065.25,-1792 1059.25,-1798 1053.25,-1798 1053.25,-1798 28,-1798 28,-1798 22,-1798 16,-1792 16,-1786 16,-1786 16,-28 16,-28 16,-22 22,-16 28,-16"/>
<text text-anchor="middle" x="540.62" y="-1785.45" font-family="Helvetica,sans-Serif" font-weight="bold" font-size="9.00">js</text>
</g>
<g id="clust3" class="cluster">
<title>cluster_src/js/application</title>
<path fill="#ffffff" stroke="black" stroke-width="2" d="M136.25,-1533C136.25,-1533 199,-1533 199,-1533 205,-1533 211,-1539 211,-1545 211,-1545 211,-1574 211,-1574 211,-1580 205,-1586 199,-1586 199,-1586 136.25,-1586 136.25,-1586 130.25,-1586 124.25,-1580 124.25,-1574 124.25,-1574 124.25,-1545 124.25,-1545 124.25,-1539 130.25,-1533 136.25,-1533"/>
<text text-anchor="middle" x="167.62" y="-1573.45" font-family="Helvetica,sans-Serif" font-weight="bold" font-size="9.00">application</text>
</g>
<g id="clust4" class="cluster">
<title>cluster_src/js/controller</title>
<path fill="#ffffff" stroke="black" stroke-width="2" d="M231,-1533C231,-1533 287.75,-1533 287.75,-1533 293.75,-1533 299.75,-1539 299.75,-1545 299.75,-1545 299.75,-1574 299.75,-1574 299.75,-1580 293.75,-1586 287.75,-1586 287.75,-1586 231,-1586 231,-1586 225,-1586 219,-1580 219,-1574 219,-1574 219,-1545 219,-1545 219,-1539 225,-1533 231,-1533"/>
<text text-anchor="middle" x="259.38" y="-1573.45" font-family="Helvetica,sans-Serif" font-weight="bold" font-size="9.00">controller</text>
</g>
<g id="clust5" class="cluster">
<title>cluster_src/js/data</title>
<path fill="#ffffff" stroke="black" stroke-width="2" d="M36,-763C36,-763 191.12,-763 191.12,-763 197.12,-763 203.12,-769 203.12,-775 203.12,-775 203.12,-804 203.12,-804 203.12,-810 197.12,-816 191.12,-816 191.12,-816 36,-816 36,-816 30,-816 24,-810 24,-804 24,-804 24,-775 24,-775 24,-769 30,-763 36,-763"/>
<text text-anchor="middle" x="113.56" y="-803.45" font-family="Helvetica,sans-Serif" font-weight="bold" font-size="9.00">data</text>
</g>
<g id="clust6" class="cluster">
<title>cluster_src/js/directable</title>
<path fill="#ffffff" stroke="black" stroke-width="2" d="M400.25,-24C400.25,-24 1045.25,-24 1045.25,-24 1051.25,-24 1057.25,-30 1057.25,-36 1057.25,-36 1057.25,-1475 1057.25,-1475 1057.25,-1481 1051.25,-1487 1045.25,-1487 1045.25,-1487 400.25,-1487 400.25,-1487 394.25,-1487 388.25,-1481 388.25,-1475 388.25,-1475 388.25,-36 388.25,-36 388.25,-30 394.25,-24 400.25,-24"/>
<text text-anchor="middle" x="722.75" y="-1474.45" font-family="Helvetica,sans-Serif" font-weight="bold" font-size="9.00">directable</text>
</g>
<g id="clust7" class="cluster">
<title>cluster_src/js/directable/directables</title>
<path fill="#ffffff" stroke="black" stroke-width="2" d="M408.25,-32C408.25,-32 1037.25,-32 1037.25,-32 1043.25,-32 1049.25,-38 1049.25,-44 1049.25,-44 1049.25,-1448 1049.25,-1448 1049.25,-1454 1043.25,-1460 1037.25,-1460 1037.25,-1460 408.25,-1460 408.25,-1460 402.25,-1460 396.25,-1454 396.25,-1448 396.25,-1448 396.25,-44 396.25,-44 396.25,-38 402.25,-32 408.25,-32"/>
<text text-anchor="middle" x="722.75" y="-1447.45" font-family="Helvetica,sans-Serif" font-weight="bold" font-size="9.00">directables</text>
</g>
<g id="clust8" class="cluster">
<title>cluster_src/js/directable/directables/dotmatrix</title>
<path fill="#ffffff" stroke="black" stroke-width="2" d="M451.25,-40C451.25,-40 1029.25,-40 1029.25,-40 1035.25,-40 1041.25,-46 1041.25,-52 1041.25,-52 1041.25,-1019 1041.25,-1019 1041.25,-1025 1035.25,-1031 1029.25,-1031 1029.25,-1031 451.25,-1031 451.25,-1031 445.25,-1031 439.25,-1025 439.25,-1019 439.25,-1019 439.25,-52 439.25,-52 439.25,-46 445.25,-40 451.25,-40"/>
<text text-anchor="middle" x="740.25" y="-1018.45" font-family="Helvetica,sans-Serif" font-weight="bold" font-size="9.00">dotmatrix</text>
</g>
<g id="clust9" class="cluster">
<title>cluster_src/js/directable/directables/dotmatrix/dot</title>
<path fill="#ffffff" stroke="black" stroke-width="2" d="M774.38,-171C774.38,-171 983.62,-171 983.62,-171 989.62,-171 995.62,-177 995.62,-183 995.62,-183 995.62,-212 995.62,-212 995.62,-218 989.62,-224 983.62,-224 983.62,-224 774.38,-224 774.38,-224 768.38,-224 762.38,-218 762.38,-212 762.38,-212 762.38,-183 762.38,-183 762.38,-177 768.38,-171 774.38,-171"/>
<text text-anchor="middle" x="879" y="-211.45" font-family="Helvetica,sans-Serif" font-weight="bold" font-size="9.00">dot</text>
</g>
<g id="clust10" class="cluster">
<title>cluster_src/js/directable/directables/dotmatrix/grid</title>
<path fill="#ffffff" stroke="black" stroke-width="2" d="M900,-232C900,-232 1021.25,-232 1021.25,-232 1027.25,-232 1033.25,-238 1033.25,-244 1033.25,-244 1033.25,-335 1033.25,-335 1033.25,-341 1027.25,-347 1021.25,-347 1021.25,-347 900,-347 900,-347 894,-347 888,-341 888,-335 888,-335 888,-244 888,-244 888,-238 894,-232 900,-232"/>
<text text-anchor="middle" x="960.62" y="-334.45" font-family="Helvetica,sans-Serif" font-weight="bold" font-size="9.00">grid</text>
</g>
<g id="clust11" class="cluster">
<title>cluster_src/js/directable/directables/dotmatrix/shape</title>
<path fill="#ffffff" stroke="black" stroke-width="2" d="M748,-242C748,-242 868,-242 868,-242 874,-242 880,-248 880,-254 880,-254 880,-992 880,-992 880,-998 874,-1004 868,-1004 868,-1004 748,-1004 748,-1004 742,-1004 736,-998 736,-992 736,-992 736,-254 736,-254 736,-248 742,-242 748,-242"/>
<text text-anchor="middle" x="808" y="-991.45" font-family="Helvetica,sans-Serif" font-weight="bold" font-size="9.00">shape</text>
</g>
<g id="clust12" class="cluster">
<title>cluster_src/js/directable/directables/dotmatrix/shape/fill</title>
<path fill="#ffffff" stroke="black" stroke-width="2" d="M766.5,-250C766.5,-250 849.5,-250 849.5,-250 855.5,-250 861.5,-256 861.5,-262 861.5,-262 861.5,-384 861.5,-384 861.5,-390 855.5,-396 849.5,-396 849.5,-396 766.5,-396 766.5,-396 760.5,-396 754.5,-390 754.5,-384 754.5,-384 754.5,-262 754.5,-262 754.5,-256 760.5,-250 766.5,-250"/>
<text text-anchor="middle" x="808" y="-383.45" font-family="Helvetica,sans-Serif" font-weight="bold" font-size="9.00">fill</text>
</g>
<g id="clust13" class="cluster">
<title>cluster_src/js/directable/directables/dotmatrix/shape/glyph</title>
<path fill="#ffffff" stroke="black" stroke-width="2" d="M768,-404C768,-404 848,-404 848,-404 854,-404 860,-410 860,-416 860,-416 860,-755 860,-755 860,-761 854,-767 848,-767 848,-767 768,-767 768,-767 762,-767 756,-761 756,-755 756,-755 756,-416 756,-416 756,-410 762,-404 768,-404"/>
<text text-anchor="middle" x="808" y="-754.45" font-family="Helvetica,sans-Serif" font-weight="bold" font-size="9.00">glyph</text>
</g>
<g id="clust14" class="cluster">
<title>cluster_src/js/directable/directables/dotmatrix/shape/line</title>
<path fill="#ffffff" stroke="black" stroke-width="2" d="M756,-775C756,-775 860,-775 860,-775 866,-775 872,-781 872,-787 872,-787 872,-847 872,-847 872,-853 866,-859 860,-859 860,-859 756,-859 756,-859 750,-859 744,-853 744,-847 744,-847 744,-787 744,-787 744,-781 750,-775 756,-775"/>
<text text-anchor="middle" x="808" y="-846.45" font-family="Helvetica,sans-Serif" font-weight="bold" font-size="9.00">line</text>
</g>
<g id="clust15" class="cluster">
<title>cluster_src/js/directable/directables/dotmatrix/shape/primative</title>
<path fill="#ffffff" stroke="black" stroke-width="2" d="M765,-867C765,-867 851,-867 851,-867 857,-867 863,-873 863,-879 863,-879 863,-908 863,-908 863,-914 857,-920 851,-920 851,-920 765,-920 765,-920 759,-920 753,-914 753,-908 753,-908 753,-879 753,-879 753,-873 759,-867 765,-867"/>
<text text-anchor="middle" x="808" y="-907.45" font-family="Helvetica,sans-Serif" font-weight="bold" font-size="9.00">primative</text>
</g>
<g id="clust16" class="cluster">
<title>cluster_src/js/directable/directables/dotmatrix/view</title>
<path fill="#ffffff" stroke="black" stroke-width="2" d="M625.5,-48C625.5,-48 983.62,-48 983.62,-48 989.62,-48 995.62,-54 995.62,-60 995.62,-60 995.62,-151 995.62,-151 995.62,-157 989.62,-163 983.62,-163 983.62,-163 625.5,-163 625.5,-163 619.5,-163 613.5,-157 613.5,-151 613.5,-151 613.5,-60 613.5,-60 613.5,-54 619.5,-48 625.5,-48"/>
<text text-anchor="middle" x="804.56" y="-150.45" font-family="Helvetica,sans-Serif" font-weight="bold" font-size="9.00">view</text>
</g>
<g id="clust17" class="cluster">
<title>cluster_src/js/directable/directables/frame</title>
<path fill="#ffffff" stroke="black" stroke-width="2" d="M457.62,-1039C457.62,-1039 542.88,-1039 542.88,-1039 548.88,-1039 554.88,-1045 554.88,-1051 554.88,-1051 554.88,-1080 554.88,-1080 554.88,-1086 548.88,-1092 542.88,-1092 542.88,-1092 457.62,-1092 457.62,-1092 451.62,-1092 445.62,-1086 445.62,-1080 445.62,-1080 445.62,-1051 445.62,-1051 445.62,-1045 451.62,-1039 457.62,-1039"/>
<text text-anchor="middle" x="500.25" y="-1079.45" font-family="Helvetica,sans-Serif" font-weight="bold" font-size="9.00">frame</text>
</g>
<g id="clust18" class="cluster">
<title>cluster_src/js/directable/directables/rhythm</title>
<path fill="#ffffff" stroke="black" stroke-width="2" d="M416.25,-1100C416.25,-1100 707.38,-1100 707.38,-1100 713.38,-1100 719.38,-1106 719.38,-1112 719.38,-1112 719.38,-1299 719.38,-1299 719.38,-1305 713.38,-1311 707.38,-1311 707.38,-1311 416.25,-1311 416.25,-1311 410.25,-1311 404.25,-1305 404.25,-1299 404.25,-1299 404.25,-1112 404.25,-1112 404.25,-1106 410.25,-1100 416.25,-1100"/>
<text text-anchor="middle" x="561.81" y="-1298.45" font-family="Helvetica,sans-Serif" font-weight="bold" font-size="9.00">rhythm</text>
</g>
<g id="clust19" class="cluster">
<title>cluster_src/js/directable/directables/rhythm/asdr</title>
<path fill="#ffffff" stroke="black" stroke-width="2" d="M424.25,-1108C424.25,-1108 576.25,-1108 576.25,-1108 582.25,-1108 588.25,-1114 588.25,-1120 588.25,-1120 588.25,-1211 588.25,-1211 588.25,-1217 582.25,-1223 576.25,-1223 576.25,-1223 424.25,-1223 424.25,-1223 418.25,-1223 412.25,-1217 412.25,-1211 412.25,-1211 412.25,-1120 412.25,-1120 412.25,-1114 418.25,-1108 424.25,-1108"/>
<text text-anchor="middle" x="500.25" y="-1210.45" font-family="Helvetica,sans-Serif" font-weight="bold" font-size="9.00">asdr</text>
</g>
<g id="clust20" class="cluster">
<title>cluster_src/js/directable/directables/rhythm/bpm</title>
<path fill="#ffffff" stroke="black" stroke-width="2" d="M445.25,-1231C445.25,-1231 555.25,-1231 555.25,-1231 561.25,-1231 567.25,-1237 567.25,-1243 567.25,-1243 567.25,-1272 567.25,-1272 567.25,-1278 561.25,-1284 555.25,-1284 555.25,-1284 445.25,-1284 445.25,-1284 439.25,-1284 433.25,-1278 433.25,-1272 433.25,-1272 433.25,-1243 433.25,-1243 433.25,-1237 439.25,-1231 445.25,-1231"/>
<text text-anchor="middle" x="500.25" y="-1271.45" font-family="Helvetica,sans-Serif" font-weight="bold" font-size="9.00">bpm</text>
</g>
<g id="clust21" class="cluster">
<title>cluster_src/js/directable/directables/rhythm2</title>
<path fill="#ffffff" stroke="black" stroke-width="2" d="M465.88,-1319C465.88,-1319 707.75,-1319 707.75,-1319 713.75,-1319 719.75,-1325 719.75,-1331 719.75,-1331 719.75,-1360 719.75,-1360 719.75,-1366 713.75,-1372 707.75,-1372 707.75,-1372 465.88,-1372 465.88,-1372 459.88,-1372 453.88,-1366 453.88,-1360 453.88,-1360 453.88,-1331 453.88,-1331 453.88,-1325 459.88,-1319 465.88,-1319"/>
<text text-anchor="middle" x="586.81" y="-1359.45" font-family="Helvetica,sans-Serif" font-weight="bold" font-size="9.00">rhythm2</text>
</g>
<g id="clust22" class="cluster">
<title>cluster_src/js/directable/directables/title</title>
<path fill="#ffffff" stroke="black" stroke-width="2" d="M462.12,-1380C462.12,-1380 538.38,-1380 538.38,-1380 544.38,-1380 550.38,-1386 550.38,-1392 550.38,-1392 550.38,-1421 550.38,-1421 550.38,-1427 544.38,-1433 538.38,-1433 538.38,-1433 462.12,-1433 462.12,-1433 456.12,-1433 450.12,-1427 450.12,-1421 450.12,-1421 450.12,-1392 450.12,-1392 450.12,-1386 456.12,-1380 462.12,-1380"/>
<text text-anchor="middle" x="500.25" y="-1420.45" font-family="Helvetica,sans-Serif" font-weight="bold" font-size="9.00">title</text>
</g>
<g id="clust23" class="cluster">
<title>cluster_src/js/director</title>
<path fill="#ffffff" stroke="black" stroke-width="2" d="M319.75,-1380C319.75,-1380 368.25,-1380 368.25,-1380 374.25,-1380 380.25,-1386 380.25,-1392 380.25,-1392 380.25,-1421 380.25,-1421 380.25,-1427 374.25,-1433 368.25,-1433 368.25,-1433 319.75,-1433 319.75,-1433 313.75,-1433 307.75,-1427 307.75,-1421 307.75,-1421 307.75,-1392 307.75,-1392 307.75,-1386 313.75,-1380 319.75,-1380"/>
<text text-anchor="middle" x="344" y="-1420.45" font-family="Helvetica,sans-Serif" font-weight="bold" font-size="9.00">director</text>
</g>
<g id="clust24" class="cluster">
<title>cluster_src/js/enum</title>
<path fill="#ffffff" stroke="black" stroke-width="2" d="M767.62,-1656C767.62,-1656 848.38,-1656 848.38,-1656 854.38,-1656 860.38,-1662 860.38,-1668 860.38,-1668 860.38,-1697 860.38,-1697 860.38,-1703 854.38,-1709 848.38,-1709 848.38,-1709 767.62,-1709 767.62,-1709 761.62,-1709 755.62,-1703 755.62,-1697 755.62,-1697 755.62,-1668 755.62,-1668 755.62,-1662 761.62,-1656 767.62,-1656"/>
<text text-anchor="middle" x="808" y="-1696.45" font-family="Helvetica,sans-Serif" font-weight="bold" font-size="9.00">enum</text>
</g>
<g id="clust25" class="cluster">
<title>cluster_src/js/overlay</title>
<path fill="#ffffff" stroke="black" stroke-width="2" d="M476.38,-1495C476.38,-1495 839,-1495 839,-1495 845,-1495 851,-1501 851,-1507 851,-1507 851,-1632 851,-1632 851,-1638 845,-1644 839,-1644 839,-1644 476.38,-1644 476.38,-1644 470.38,-1644 464.38,-1638 464.38,-1632 464.38,-1632 464.38,-1507 464.38,-1507 464.38,-1501 470.38,-1495 476.38,-1495"/>
<text text-anchor="middle" x="657.69" y="-1631.45" font-family="Helvetica,sans-Serif" font-weight="bold" font-size="9.00">overlay</text>
</g>
<g id="clust26" class="cluster">
<title>cluster_src/js/overlay/displayFormat</title>
<path fill="#ffffff" stroke="black" stroke-width="2" d="M608.25,-1564C608.25,-1564 716,-1564 716,-1564 722,-1564 728,-1570 728,-1576 728,-1576 728,-1605 728,-1605 728,-1611 722,-1617 716,-1617 716,-1617 608.25,-1617 608.25,-1617 602.25,-1617 596.25,-1611 596.25,-1605 596.25,-1605 596.25,-1576 596.25,-1576 596.25,-1570 602.25,-1564 608.25,-1564"/>
<text text-anchor="middle" x="662.12" y="-1604.45" font-family="Helvetica,sans-Serif" font-weight="bold" font-size="9.00">displayFormat</text>
</g>
<g id="clust27" class="cluster">
<title>cluster_src/js/overlay/overlay</title>
<path fill="#ffffff" stroke="black" stroke-width="2" d="M622.5,-1503C622.5,-1503 701.75,-1503 701.75,-1503 707.75,-1503 713.75,-1509 713.75,-1515 713.75,-1515 713.75,-1544 713.75,-1544 713.75,-1550 707.75,-1556 701.75,-1556 701.75,-1556 622.5,-1556 622.5,-1556 616.5,-1556 610.5,-1550 610.5,-1544 610.5,-1544 610.5,-1515 610.5,-1515 610.5,-1509 616.5,-1503 622.5,-1503"/>
<text text-anchor="middle" x="662.12" y="-1543.45" font-family="Helvetica,sans-Serif" font-weight="bold" font-size="9.00">overlay</text>
</g>
<g id="clust28" class="cluster">
<title>cluster_src/js/view</title>
<path fill="#ffffff" stroke="black" stroke-width="2" d="M321,-1652C321,-1652 709.75,-1652 709.75,-1652 715.75,-1652 721.75,-1658 721.75,-1664 721.75,-1664 721.75,-1759 721.75,-1759 721.75,-1765 715.75,-1771 709.75,-1771 709.75,-1771 321,-1771 321,-1771 315,-1771 309,-1765 309,-1759 309,-1759 309,-1664 309,-1664 309,-1658 315,-1652 321,-1652"/>
<text text-anchor="middle" x="515.38" y="-1758.45" font-family="Helvetica,sans-Serif" font-weight="bold" font-size="9.00">view</text>
</g>
<g id="clust29" class="cluster">
<title>cluster_src/js/view/render</title>
<path fill="#ffffff" stroke="black" stroke-width="2" d="M456.5,-1660C456.5,-1660 701.75,-1660 701.75,-1660 707.75,-1660 713.75,-1666 713.75,-1672 713.75,-1672 713.75,-1732 713.75,-1732 713.75,-1738 707.75,-1744 701.75,-1744 701.75,-1744 456.5,-1744 456.5,-1744 450.5,-1744 444.5,-1738 444.5,-1732 444.5,-1732 444.5,-1672 444.5,-1672 444.5,-1666 450.5,-1660 456.5,-1660"/>
<text text-anchor="middle" x="579.12" y="-1731.45" font-family="Helvetica,sans-Serif" font-weight="bold" font-size="9.00">render</text>
</g>
<!-- src/js/application/Application.js -->
<g id="node1" class="node">
<title>src/js/application/Application.js</title>
<g id="a_node1"><a xlink:href="src/js/application/Application.js" xlink:title="Application.js">
<path fill="#ffffcc" stroke="black" d="M196.83,-1559.25C196.83,-1559.25 138.42,-1559.25 138.42,-1559.25 135.33,-1559.25 132.25,-1556.17 132.25,-1553.08 132.25,-1553.08 132.25,-1546.92 132.25,-1546.92 132.25,-1543.83 135.33,-1540.75 138.42,-1540.75 138.42,-1540.75 196.83,-1540.75 196.83,-1540.75 199.92,-1540.75 203,-1543.83 203,-1546.92 203,-1546.92 203,-1553.08 203,-1553.08 203,-1556.17 199.92,-1559.25 196.83,-1559.25"/>
<text text-anchor="start" x="140.25" y="-1546.7" font-family="Helvetica,sans-Serif" font-size="9.00">Application.js</text>
</a>
</g>
</g>
<!-- src/js/controller/Controller.js -->
<g id="node2" class="node">
<title>src/js/controller/Controller.js</title>
<g id="a_node2"><a xlink:href="src/js/controller/Controller.js" xlink:title="Controller.js">
<path fill="#ffffcc" stroke="black" d="M285.58,-1559.25C285.58,-1559.25 233.17,-1559.25 233.17,-1559.25 230.08,-1559.25 227,-1556.17 227,-1553.08 227,-1553.08 227,-1546.92 227,-1546.92 227,-1543.83 230.08,-1540.75 233.17,-1540.75 233.17,-1540.75 285.58,-1540.75 285.58,-1540.75 288.67,-1540.75 291.75,-1543.83 291.75,-1546.92 291.75,-1546.92 291.75,-1553.08 291.75,-1553.08 291.75,-1556.17 288.67,-1559.25 285.58,-1559.25"/>
<text text-anchor="start" x="235" y="-1546.7" font-family="Helvetica,sans-Serif" font-size="9.00">Controller.js</text>
</a>
</g>
</g>
<!-- src/js/application/Application.js&#45;&gt;src/js/controller/Controller.js -->
<g id="edge1" class="edge">
<title>src/js/application/Application.js&#45;&gt;src/js/controller/Controller.js</title>
<path fill="none" stroke="#000000" stroke-width="2" stroke-opacity="0.200000" d="M203.32,-1550C208.13,-1550 213.11,-1550 218.01,-1550"/>
<polygon fill="#000000" fill-opacity="0.200000" stroke="#000000" stroke-width="2" stroke-opacity="0.200000" points="217.68,-1552.1 223.68,-1550 217.68,-1547.9 217.68,-1552.1"/>
</g>
<!-- src/js/director/Director.js -->
<g id="node3" class="node">
<title>src/js/director/Director.js</title>
<g id="a_node3"><a xlink:href="src/js/director/Director.js" xlink:title="Director.js">
<path fill="#ffffcc" stroke="black" d="M366.08,-1406.25C366.08,-1406.25 321.92,-1406.25 321.92,-1406.25 318.83,-1406.25 315.75,-1403.17 315.75,-1400.08 315.75,-1400.08 315.75,-1393.92 315.75,-1393.92 315.75,-1390.83 318.83,-1387.75 321.92,-1387.75 321.92,-1387.75 366.08,-1387.75 366.08,-1387.75 369.17,-1387.75 372.25,-1390.83 372.25,-1393.92 372.25,-1393.92 372.25,-1400.08 372.25,-1400.08 372.25,-1403.17 369.17,-1406.25 366.08,-1406.25"/>
<text text-anchor="start" x="323.75" y="-1393.7" font-family="Helvetica,sans-Serif" font-size="9.00">Director.js</text>
</a>
</g>
</g>
<!-- src/js/controller/Controller.js&#45;&gt;src/js/director/Director.js -->
<g id="edge2" class="edge">
<title>src/js/controller/Controller.js&#45;&gt;src/js/director/Director.js</title>
<path fill="none" stroke="#000000" stroke-width="2" stroke-opacity="0.200000" d="M265.54,-1540.43C279.16,-1515.21 316.19,-1446.64 333.65,-1414.31"/>
<polygon fill="#000000" fill-opacity="0.200000" stroke="#000000" stroke-width="2" stroke-opacity="0.200000" points="335.39,-1415.51 336.39,-1409.23 331.7,-1413.51 335.39,-1415.51"/>
</g>
<!-- src/js/overlay/Overlay.js -->
<g id="node4" class="node">
<title>src/js/overlay/Overlay.js</title>
<g id="a_node4"><a xlink:href="src/js/overlay/Overlay.js" xlink:title="Overlay.js">
<path fill="#ffffcc" stroke="black" d="M521.96,-1559.25C521.96,-1559.25 478.54,-1559.25 478.54,-1559.25 475.46,-1559.25 472.38,-1556.17 472.38,-1553.08 472.38,-1553.08 472.38,-1546.92 472.38,-1546.92 472.38,-1543.83 475.46,-1540.75 478.54,-1540.75 478.54,-1540.75 521.96,-1540.75 521.96,-1540.75 525.04,-1540.75 528.12,-1543.83 528.12,-1546.92 528.12,-1546.92 528.12,-1553.08 528.12,-1553.08 528.12,-1556.17 525.04,-1559.25 521.96,-1559.25"/>
<text text-anchor="start" x="480.38" y="-1546.7" font-family="Helvetica,sans-Serif" font-size="9.00">Overlay.js</text>
</a>
</g>
</g>
<!-- src/js/controller/Controller.js&#45;&gt;src/js/overlay/Overlay.js -->
<g id="edge3" class="edge">
<title>src/js/controller/Controller.js&#45;&gt;src/js/overlay/Overlay.js</title>
<path fill="none" stroke="#000000" stroke-width="2" stroke-opacity="0.200000" d="M292.1,-1550C336.48,-1550 416.86,-1550 463.37,-1550"/>
<polygon fill="#000000" fill-opacity="0.200000" stroke="#000000" stroke-width="2" stroke-opacity="0.200000" points="463.18,-1552.1 469.18,-1550 463.18,-1547.9 463.18,-1552.1"/>
</g>
<!-- src/js/view/View.js -->
<g id="node5" class="node">
<title>src/js/view/View.js</title>
<g id="a_node5"><a xlink:href="src/js/view/View.js" xlink:title="View.js">
<path fill="#ffffcc" stroke="black" d="M364.83,-1682.25C364.83,-1682.25 323.17,-1682.25 323.17,-1682.25 320.08,-1682.25 317,-1679.17 317,-1676.08 317,-1676.08 317,-1669.92 317,-1669.92 317,-1666.83 320.08,-1663.75 323.17,-1663.75 323.17,-1663.75 364.83,-1663.75 364.83,-1663.75 367.92,-1663.75 371,-1666.83 371,-1669.92 371,-1669.92 371,-1676.08 371,-1676.08 371,-1679.17 367.92,-1682.25 364.83,-1682.25"/>
<text text-anchor="start" x="329.75" y="-1669.7" font-family="Helvetica,sans-Serif" font-size="9.00">View.js</text>
</a>
</g>
</g>
<!-- src/js/controller/Controller.js&#45;&gt;src/js/view/View.js -->
<g id="edge4" class="edge">
<title>src/js/controller/Controller.js&#45;&gt;src/js/view/View.js</title>
<path fill="none" stroke="#000000" stroke-width="2" stroke-opacity="0.200000" d="M266.86,-1559.65C280.86,-1580.49 314.06,-1629.91 331.63,-1656.08"/>
<polygon fill="#000000" fill-opacity="0.200000" stroke="#000000" stroke-width="2" stroke-opacity="0.200000" points="329.77,-1657.07 334.86,-1660.88 333.26,-1654.73 329.77,-1657.07"/>
</g>
<!-- src/js/directable/directables/dotmatrix/DirectableDotMatrix.js -->
<g id="node8" class="node">
<title>src/js/directable/directables/dotmatrix/DirectableDotMatrix.js</title>
<g id="a_node8"><a xlink:href="src/js/directable/directables/dotmatrix/DirectableDotMatrix.js" xlink:title="DirectableDotMatrix.js">
<path fill="#ffffcc" stroke="black" d="M547.08,-539.25C547.08,-539.25 453.42,-539.25 453.42,-539.25 450.33,-539.25 447.25,-536.17 447.25,-533.08 447.25,-533.08 447.25,-526.92 447.25,-526.92 447.25,-523.83 450.33,-520.75 453.42,-520.75 453.42,-520.75 547.08,-520.75 547.08,-520.75 550.17,-520.75 553.25,-523.83 553.25,-526.92 553.25,-526.92 553.25,-533.08 553.25,-533.08 553.25,-536.17 550.17,-539.25 547.08,-539.25"/>
<text text-anchor="start" x="455.25" y="-526.7" font-family="Helvetica,sans-Serif" font-size="9.00">DirectableDotMatrix.js</text>
</a>
</g>
</g>
<!-- src/js/director/Director.js&#45;&gt;src/js/directable/directables/dotmatrix/DirectableDotMatrix.js -->
<g id="edge16" class="edge">
<title>src/js/director/Director.js&#45;&gt;src/js/directable/directables/dotmatrix/DirectableDotMatrix.js</title>
<path fill="none" stroke="#000000" stroke-width="2" stroke-opacity="0.200000" d="M345.8,-1387.47C349.38,-1345.71 364.77,-1174.79 388.25,-1036 420.85,-843.3 478.09,-613.14 494.64,-547.97"/>
<polygon fill="#000000" fill-opacity="0.200000" stroke="#000000" stroke-width="2" stroke-opacity="0.200000" points="496.59,-548.85 496.04,-542.51 492.52,-547.81 496.59,-548.85"/>
</g>
<!-- src/js/directable/directables/title/DirectableTitle.js -->
<g id="node47" class="node">
<title>src/js/directable/directables/title/DirectableTitle.js</title>
<g id="a_node47"><a xlink:href="src/js/directable/directables/title/DirectableTitle.js" xlink:title="DirectableTitle.js">
<path fill="#ffffcc" stroke="black" d="M536.21,-1406.25C536.21,-1406.25 464.29,-1406.25 464.29,-1406.25 461.21,-1406.25 458.12,-1403.17 458.12,-1400.08 458.12,-1400.08 458.12,-1393.92 458.12,-1393.92 458.12,-1390.83 461.21,-1387.75 464.29,-1387.75 464.29,-1387.75 536.21,-1387.75 536.21,-1387.75 539.29,-1387.75 542.38,-1390.83 542.38,-1393.92 542.38,-1393.92 542.38,-1400.08 542.38,-1400.08 542.38,-1403.17 539.29,-1406.25 536.21,-1406.25"/>
<text text-anchor="start" x="466.12" y="-1393.7" font-family="Helvetica,sans-Serif" font-size="9.00">DirectableTitle.js</text>
</a>
</g>
</g>
<!-- src/js/director/Director.js&#45;&gt;src/js/directable/directables/title/DirectableTitle.js -->
<g id="edge17" class="edge">
<title>src/js/director/Director.js&#45;&gt;src/js/directable/directables/title/DirectableTitle.js</title>
<path fill="none" stroke="#000000" stroke-width="2" stroke-opacity="0.200000" d="M372.58,-1397C393.74,-1397 423.53,-1397 448.91,-1397"/>
<polygon fill="#000000" fill-opacity="0.200000" stroke="#000000" stroke-width="2" stroke-opacity="0.200000" points="448.65,-1399.1 454.65,-1397 448.65,-1394.9 448.65,-1399.1"/>
</g>
<!-- src/js/overlay/displayFormat/OverlayDisplayFormat.js -->
<g id="node50" class="node">
<title>src/js/overlay/displayFormat/OverlayDisplayFormat.js</title>
<g id="a_node50"><a xlink:href="src/js/overlay/displayFormat/OverlayDisplayFormat.js" xlink:title="OverlayDisplayFormat.js">
<path fill="#ffffcc" stroke="black" d="M713.83,-1590.25C713.83,-1590.25 610.42,-1590.25 610.42,-1590.25 607.33,-1590.25 604.25,-1587.17 604.25,-1584.08 604.25,-1584.08 604.25,-1577.92 604.25,-1577.92 604.25,-1574.83 607.33,-1571.75 610.42,-1571.75 610.42,-1571.75 713.83,-1571.75 713.83,-1571.75 716.92,-1571.75 720,-1574.83 720,-1577.92 720,-1577.92 720,-1584.08 720,-1584.08 720,-1587.17 716.92,-1590.25 713.83,-1590.25"/>
<text text-anchor="start" x="612.25" y="-1577.7" font-family="Helvetica,sans-Serif" font-size="9.00">OverlayDisplayFormat.js</text>
</a>
</g>
</g>
<!-- src/js/overlay/Overlay.js&#45;&gt;src/js/overlay/displayFormat/OverlayDisplayFormat.js -->
<g id="edge19" class="edge">
<title>src/js/overlay/Overlay.js&#45;&gt;src/js/overlay/displayFormat/OverlayDisplayFormat.js</title>
<path fill="none" stroke="#000000" stroke-width="2" stroke-opacity="0.200000" d="M528.37,-1555.26C548.53,-1559.17 576.81,-1564.65 602.09,-1569.55"/>
<polygon fill="#000000" fill-opacity="0.200000" stroke="#000000" stroke-width="2" stroke-opacity="0.200000" points="601.62,-1571.6 607.91,-1570.68 602.42,-1567.48 601.62,-1571.6"/>
</g>
<!-- src/js/overlay/overlay/OverlayOverlay.js -->
<g id="node51" class="node">
<title>src/js/overlay/overlay/OverlayOverlay.js</title>
<g id="a_node51"><a xlink:href="src/js/overlay/overlay/OverlayOverlay.js" xlink:title="OverlayOverlay.js">
<path fill="#ffffcc" stroke="black" d="M699.58,-1529.25C699.58,-1529.25 624.67,-1529.25 624.67,-1529.25 621.58,-1529.25 618.5,-1526.17 618.5,-1523.08 618.5,-1523.08 618.5,-1516.92 618.5,-1516.92 618.5,-1513.83 621.58,-1510.75 624.67,-1510.75 624.67,-1510.75 699.58,-1510.75 699.58,-1510.75 702.67,-1510.75 705.75,-1513.83 705.75,-1516.92 705.75,-1516.92 705.75,-1523.08 705.75,-1523.08 705.75,-1526.17 702.67,-1529.25 699.58,-1529.25"/>
<text text-anchor="start" x="626.5" y="-1516.7" font-family="Helvetica,sans-Serif" font-size="9.00">OverlayOverlay.js</text>
</a>
</g>
</g>
<!-- src/js/overlay/Overlay.js&#45;&gt;src/js/overlay/overlay/OverlayOverlay.js -->
<g id="edge20" class="edge">
<title>src/js/overlay/Overlay.js&#45;&gt;src/js/overlay/overlay/OverlayOverlay.js</title>
<path fill="none" stroke="#000000" stroke-width="2" stroke-opacity="0.200000" d="M528.37,-1544.91C550.56,-1540.75 582.57,-1534.74 609.6,-1529.67"/>
<polygon fill="#000000" fill-opacity="0.200000" stroke="#000000" stroke-width="2" stroke-opacity="0.200000" points="609.7,-1531.79 615.21,-1528.62 608.92,-1527.66 609.7,-1531.79"/>
</g>
<!-- src/js/view/render/RenderController.js -->
<g id="node53" class="node">
<title>src/js/view/render/RenderController.js</title>
<g id="a_node53"><a xlink:href="src/js/view/render/RenderController.js" xlink:title="RenderController.js">
<path fill="#ffffcc" stroke="black" d="M541.83,-1686.25C541.83,-1686.25 458.67,-1686.25 458.67,-1686.25 455.58,-1686.25 452.5,-1683.17 452.5,-1680.08 452.5,-1680.08 452.5,-1673.92 452.5,-1673.92 452.5,-1670.83 455.58,-1667.75 458.67,-1667.75 458.67,-1667.75 541.83,-1667.75 541.83,-1667.75 544.92,-1667.75 548,-1670.83 548,-1673.92 548,-1673.92 548,-1680.08 548,-1680.08 548,-1683.17 544.92,-1686.25 541.83,-1686.25"/>
<text text-anchor="start" x="460.5" y="-1673.7" font-family="Helvetica,sans-Serif" font-size="9.00">RenderController.js</text>
</a>
</g>
</g>
<!-- src/js/view/View.js&#45;&gt;src/js/view/render/RenderController.js -->
<g id="edge24" class="edge">
<title>src/js/view/View.js&#45;&gt;src/js/view/render/RenderController.js</title>
<path fill="none" stroke="#000000" stroke-width="2" stroke-opacity="0.200000" d="M371.17,-1673.68C390.84,-1674.19 418.52,-1674.91 443.12,-1675.54"/>
<polygon fill="#000000" fill-opacity="0.200000" stroke="#000000" stroke-width="2" stroke-opacity="0.200000" points="442.94,-1677.64 449,-1675.7 443.05,-1673.44 442.94,-1677.64"/>
</g>
<!-- src/js/data/Data.json -->
<g id="node6" class="node">
<title>src/js/data/Data.json</title>
<g id="a_node6"><a xlink:href="src/js/data/Data.json" xlink:title="Data.json">
<path fill="#ffee44" stroke="black" d="M188.96,-789.25C188.96,-789.25 146.29,-789.25 146.29,-789.25 143.21,-789.25 140.12,-786.17 140.12,-783.08 140.12,-783.08 140.12,-776.92 140.12,-776.92 140.12,-773.83 143.21,-770.75 146.29,-770.75 146.29,-770.75 188.96,-770.75 188.96,-770.75 192.04,-770.75 195.12,-773.83 195.12,-776.92 195.12,-776.92 195.12,-783.08 195.12,-783.08 195.12,-786.17 192.04,-789.25 188.96,-789.25"/>
<text text-anchor="start" x="148.12" y="-776.7" font-family="Helvetica,sans-Serif" font-size="9.00">Data.json</text>
</a>
</g>
</g>
<!-- src/js/data/DataController.js -->
<g id="node7" class="node">
<title>src/js/data/DataController.js</title>
<g id="a_node7"><a xlink:href="src/js/data/DataController.js" xlink:title="DataController.js">
<path fill="#ffffcc" stroke="black" d="M110.08,-789.25C110.08,-789.25 38.17,-789.25 38.17,-789.25 35.08,-789.25 32,-786.17 32,-783.08 32,-783.08 32,-776.92 32,-776.92 32,-773.83 35.08,-770.75 38.17,-770.75 38.17,-770.75 110.08,-770.75 110.08,-770.75 113.17,-770.75 116.25,-773.83 116.25,-776.92 116.25,-776.92 116.25,-783.08 116.25,-783.08 116.25,-786.17 113.17,-789.25 110.08,-789.25"/>
<text text-anchor="start" x="40" y="-776.7" font-family="Helvetica,sans-Serif" font-size="9.00">DataController.js</text>
</a>
</g>
</g>
<!-- src/js/data/DataController.js&#45;&gt;src/js/data/Data.json -->
<g id="edge5" class="edge">
<title>src/js/data/DataController.js&#45;&gt;src/js/data/Data.json</title>
<path fill="none" stroke="#000000" stroke-width="2" stroke-opacity="0.200000" d="M116.59,-780C121.37,-780 126.22,-780 130.92,-780"/>
<polygon fill="#000000" fill-opacity="0.200000" stroke="#000000" stroke-width="2" stroke-opacity="0.200000" points="130.69,-782.1 136.69,-780 130.69,-777.9 130.69,-782.1"/>
</g>
<!-- src/js/directable/directables/dotmatrix/view/ViewManager.js -->
<g id="node9" class="node">
<title>src/js/directable/directables/dotmatrix/view/ViewManager.js</title>
<g id="a_node9"><a xlink:href="src/js/directable/directables/dotmatrix/view/ViewManager.js" xlink:title="ViewManager.js">
<path fill="#ffffcc" stroke="black" d="M696.58,-74.25C696.58,-74.25 627.67,-74.25 627.67,-74.25 624.58,-74.25 621.5,-71.17 621.5,-68.08 621.5,-68.08 621.5,-61.92 621.5,-61.92 621.5,-58.83 624.58,-55.75 627.67,-55.75 627.67,-55.75 696.58,-55.75 696.58,-55.75 699.67,-55.75 702.75,-58.83 702.75,-61.92 702.75,-61.92 702.75,-68.08 702.75,-68.08 702.75,-71.17 699.67,-74.25 696.58,-74.25"/>
<text text-anchor="start" x="629.5" y="-61.7" font-family="Helvetica,sans-Serif" font-size="9.00">ViewManager.js</text>
</a>
</g>
</g>
<!-- src/js/directable/directables/dotmatrix/DirectableDotMatrix.js&#45;&gt;src/js/directable/directables/dotmatrix/view/ViewManager.js -->
<g id="edge6" class="edge">
<title>src/js/directable/directables/dotmatrix/DirectableDotMatrix.js&#45;&gt;src/js/directable/directables/dotmatrix/view/ViewManager.js</title>
<path fill="none" stroke="#000000" stroke-width="2" stroke-opacity="0.200000" d="M501.93,-520.27C506.29,-460.86 532.13,-147.29 596.25,-81 600.8,-76.3 606.49,-72.89 612.6,-70.44"/>
<polygon fill="#000000" fill-opacity="0.200000" stroke="#000000" stroke-width="2" stroke-opacity="0.200000" points="613.19,-72.45 618.24,-68.59 611.89,-68.46 613.19,-72.45"/>
</g>
<!-- src/js/directable/directables/dotmatrix/dot/DotManager.js -->
<g id="node11" class="node">
<title>src/js/directable/directables/dotmatrix/dot/DotManager.js</title>
<g id="a_node11"><a xlink:href="src/js/directable/directables/dotmatrix/dot/DotManager.js" xlink:title="DotManager.js">
<path fill="#ffffcc" stroke="black" d="M839.46,-197.25C839.46,-197.25 776.54,-197.25 776.54,-197.25 773.46,-197.25 770.38,-194.17 770.38,-191.08 770.38,-191.08 770.38,-184.92 770.38,-184.92 770.38,-181.83 773.46,-178.75 776.54,-178.75 776.54,-178.75 839.46,-178.75 839.46,-178.75 842.54,-178.75 845.62,-181.83 845.62,-184.92 845.62,-184.92 845.62,-191.08 845.62,-191.08 845.62,-194.17 842.54,-197.25 839.46,-197.25"/>
<text text-anchor="start" x="778.38" y="-184.7" font-family="Helvetica,sans-Serif" font-size="9.00">DotManager.js</text>
</a>
</g>
</g>
<!-- src/js/directable/directables/dotmatrix/view/ViewManager.js&#45;&gt;src/js/directable/directables/dotmatrix/dot/DotManager.js -->
<g id="edge9" class="edge">
<title>src/js/directable/directables/dotmatrix/view/ViewManager.js&#45;&gt;src/js/directable/directables/dotmatrix/dot/DotManager.js</title>
<path fill="none" stroke="#000000" stroke-width="2" stroke-opacity="0.200000" d="M703.01,-66.97C712.47,-69.36 721.64,-73.62 728,-81 740.39,-95.37 724.04,-151.27 736,-166 742.48,-173.98 751.8,-179.12 761.57,-182.42"/>
<polygon fill="#000000" fill-opacity="0.200000" stroke="#000000" stroke-width="2" stroke-opacity="0.200000" points="760.95,-184.43 767.3,-184.05 762.1,-180.39 760.95,-184.43"/>
</g>
<!-- src/js/directable/directables/dotmatrix/grid/GridData.js -->
<g id="node12" class="node">
<title>src/js/directable/directables/dotmatrix/grid/GridData.js</title>
<g id="a_node12"><a xlink:href="src/js/directable/directables/dotmatrix/grid/GridData.js" xlink:title="GridData.js">
<path fill="#ffffcc" stroke="black" d="M985.33,-258.25C985.33,-258.25 935.92,-258.25 935.92,-258.25 932.83,-258.25 929.75,-255.17 929.75,-252.08 929.75,-252.08 929.75,-245.92 929.75,-245.92 929.75,-242.83 932.83,-239.75 935.92,-239.75 935.92,-239.75 985.33,-239.75 985.33,-239.75 988.42,-239.75 991.5,-242.83 991.5,-245.92 991.5,-245.92 991.5,-252.08 991.5,-252.08 991.5,-255.17 988.42,-258.25 985.33,-258.25"/>
<text text-anchor="start" x="937.75" y="-245.7" font-family="Helvetica,sans-Serif" font-size="9.00">GridData.js</text>
</a>
</g>
</g>
<!-- src/js/directable/directables/dotmatrix/view/ViewManager.js&#45;&gt;src/js/directable/directables/dotmatrix/grid/GridData.js -->
<g id="edge10" class="edge">
<title>src/js/directable/directables/dotmatrix/view/ViewManager.js&#45;&gt;src/js/directable/directables/dotmatrix/grid/GridData.js</title>
<path fill="none" stroke="#000000" stroke-width="2" stroke-opacity="0.200000" d="M703.21,-66.8C712.66,-69.19 721.78,-73.5 728,-81 748.73,-106.02 713.53,-203.53 736,-227 748.48,-240.03 859.71,-245.72 920.45,-247.87"/>
<polygon fill="#000000" fill-opacity="0.200000" stroke="#000000" stroke-width="2" stroke-opacity="0.200000" points="920.29,-249.96 926.35,-248.07 920.43,-245.77 920.29,-249.96"/>
</g>
<!-- src/js/directable/directables/dotmatrix/shape/ShapeManager.js -->
<g id="node16" class="node">
<title>src/js/directable/directables/dotmatrix/shape/ShapeManager.js</title>
<g id="a_node16"><a xlink:href="src/js/directable/directables/dotmatrix/shape/ShapeManager.js" xlink:title="ShapeManager.js">
<path fill="#ffffcc" stroke="black" d="M845.83,-977.25C845.83,-977.25 770.17,-977.25 770.17,-977.25 767.08,-977.25 764,-974.17 764,-971.08 764,-971.08 764,-964.92 764,-964.92 764,-961.83 767.08,-958.75 770.17,-958.75 770.17,-958.75 845.83,-958.75 845.83,-958.75 848.92,-958.75 852,-961.83 852,-964.92 852,-964.92 852,-971.08 852,-971.08 852,-974.17 848.92,-977.25 845.83,-977.25"/>
<text text-anchor="start" x="772" y="-964.7" font-family="Helvetica,sans-Serif" font-size="9.00">ShapeManager.js</text>
</a>
</g>
</g>
<!-- src/js/directable/directables/dotmatrix/view/ViewManager.js&#45;&gt;src/js/directable/directables/dotmatrix/shape/ShapeManager.js -->
<g id="edge11" class="edge">
<title>src/js/directable/directables/dotmatrix/view/ViewManager.js&#45;&gt;src/js/directable/directables/dotmatrix/shape/ShapeManager.js</title>
<path fill="none" stroke="#000000" stroke-width="2" stroke-opacity="0.200000" d="M703.11,-66.53C712.68,-68.9 721.88,-73.27 728,-81 743.01,-99.98 720.8,-933.17 736,-952 741.01,-958.21 747.87,-962.33 755.37,-965.01"/>
<polygon fill="#000000" fill-opacity="0.200000" stroke="#000000" stroke-width="2" stroke-opacity="0.200000" points="754.43,-966.93 760.77,-966.56 755.58,-962.89 754.43,-966.93"/>
</g>
<!-- src/js/directable/directables/dotmatrix/view/ViewTest.js -->
<g id="node37" class="node">
<title>src/js/directable/directables/dotmatrix/view/ViewTest.js</title>
<g id="a_node37"><a xlink:href="src/js/directable/directables/dotmatrix/view/ViewTest.js" xlink:title="ViewTest.js">
<path fill="#ffffcc" stroke="black" d="M832.71,-74.25C832.71,-74.25 783.29,-74.25 783.29,-74.25 780.21,-74.25 777.12,-71.17 777.12,-68.08 777.12,-68.08 777.12,-61.92 777.12,-61.92 777.12,-58.83 780.21,-55.75 783.29,-55.75 783.29,-55.75 832.71,-55.75 832.71,-55.75 835.79,-55.75 838.88,-58.83 838.88,-61.92 838.88,-61.92 838.88,-68.08 838.88,-68.08 838.88,-71.17 835.79,-74.25 832.71,-74.25"/>
<text text-anchor="start" x="785.12" y="-61.7" font-family="Helvetica,sans-Serif" font-size="9.00">ViewTest.js</text>
</a>
</g>
</g>
<!-- src/js/directable/directables/dotmatrix/view/ViewManager.js&#45;&gt;src/js/directable/directables/dotmatrix/view/ViewTest.js -->
<g id="edge12" class="edge">
<title>src/js/directable/directables/dotmatrix/view/ViewManager.js&#45;&gt;src/js/directable/directables/dotmatrix/view/ViewTest.js</title>
<path fill="none" stroke="#000000" stroke-width="2" stroke-opacity="0.200000" d="M703.2,-65C723.39,-65 747.78,-65 767.84,-65"/>
<polygon fill="#000000" fill-opacity="0.200000" stroke="#000000" stroke-width="2" stroke-opacity="0.200000" points="767.69,-67.1 773.69,-65 767.69,-62.9 767.69,-67.1"/>
</g>
<!-- src/js/directable/directables/dotmatrix/dot/Dot.js -->
<g id="node10" class="node">
<title>src/js/directable/directables/dotmatrix/dot/Dot.js</title>
<g id="a_node10"><a xlink:href="src/js/directable/directables/dotmatrix/dot/Dot.js" xlink:title="Dot.js">
<path fill="#ffffcc" stroke="black" d="M981.46,-197.25C981.46,-197.25 939.79,-197.25 939.79,-197.25 936.71,-197.25 933.62,-194.17 933.62,-191.08 933.62,-191.08 933.62,-184.92 933.62,-184.92 933.62,-181.83 936.71,-178.75 939.79,-178.75 939.79,-178.75 981.46,-178.75 981.46,-178.75 984.54,-178.75 987.62,-181.83 987.62,-184.92 987.62,-184.92 987.62,-191.08 987.62,-191.08 987.62,-194.17 984.54,-197.25 981.46,-197.25"/>
<text text-anchor="start" x="949" y="-184.7" font-family="Helvetica,sans-Serif" font-size="9.00">Dot.js</text>
</a>
</g>
</g>
<!-- src/js/directable/directables/dotmatrix/dot/DotManager.js&#45;&gt;src/js/directable/directables/dotmatrix/dot/Dot.js -->
<g id="edge8" class="edge">
<title>src/js/directable/directables/dotmatrix/dot/DotManager.js&#45;&gt;src/js/directable/directables/dotmatrix/dot/Dot.js</title>
<path fill="none" stroke="#000000" stroke-width="2" stroke-opacity="0.200000" d="M845.85,-188C869.84,-188 900.94,-188 924.57,-188"/>
<polygon fill="#000000" fill-opacity="0.200000" stroke="#000000" stroke-width="2" stroke-opacity="0.200000" points="924.52,-190.1 930.52,-188 924.52,-185.9 924.52,-190.1"/>
</g>
<!-- src/js/directable/directables/dotmatrix/dot/DotManager.js&#45;&gt;src/js/directable/directables/dotmatrix/grid/GridData.js -->
<g id="edge7" class="edge">
<title>src/js/directable/directables/dotmatrix/dot/DotManager.js&#45;&gt;src/js/directable/directables/dotmatrix/grid/GridData.js</title>
<path fill="none" stroke="#000000" stroke-width="2" stroke-opacity="0.200000" d="M826.51,-197.66C842.28,-206.11 866.25,-218.36 888,-227 898.49,-231.17 910.1,-235.04 920.87,-238.34"/>
<polygon fill="#000000" fill-opacity="0.200000" stroke="#000000" stroke-width="2" stroke-opacity="0.200000" points="920.03,-240.28 926.38,-239.98 921.24,-236.25 920.03,-240.28"/>
</g>
<!-- src/js/directable/directables/dotmatrix/grid/GridRenderer.js -->
<g id="node13" class="node">
<title>src/js/directable/directables/dotmatrix/grid/GridRenderer.js</title>
<g id="a_node13"><a xlink:href="src/js/directable/directables/dotmatrix/grid/GridRenderer.js" xlink:title="GridRenderer.js">
<path fill="#ccffcc" stroke="black" d="M994.71,-289.25C994.71,-289.25 926.54,-289.25 926.54,-289.25 923.46,-289.25 920.38,-286.17 920.38,-283.08 920.38,-283.08 920.38,-276.92 920.38,-276.92 920.38,-273.83 923.46,-270.75 926.54,-270.75 926.54,-270.75 994.71,-270.75 994.71,-270.75 997.79,-270.75 1000.88,-273.83 1000.88,-276.92 1000.88,-276.92 1000.88,-283.08 1000.88,-283.08 1000.88,-286.17 997.79,-289.25 994.71,-289.25"/>
<text text-anchor="start" x="928.38" y="-276.7" font-family="Helvetica,sans-Serif" font-size="9.00">GridRenderer.js</text>
</a>
</g>
</g>
<!-- src/js/directable/directables/dotmatrix/grid/GridRendererComponent.js -->
<g id="node14" class="node">
<title>src/js/directable/directables/dotmatrix/grid/GridRendererComponent.js</title>
<g id="a_node14"><a xlink:href="src/js/directable/directables/dotmatrix/grid/GridRendererComponent.js" xlink:title="GridRendererComponent.js">
<path fill="#ccffcc" stroke="black" d="M1019.08,-320.25C1019.08,-320.25 902.17,-320.25 902.17,-320.25 899.08,-320.25 896,-317.17 896,-314.08 896,-314.08 896,-307.92 896,-307.92 896,-304.83 899.08,-301.75 902.17,-301.75 902.17,-301.75 1019.08,-301.75 1019.08,-301.75 1022.17,-301.75 1025.25,-304.83 1025.25,-307.92 1025.25,-307.92 1025.25,-314.08 1025.25,-314.08 1025.25,-317.17 1022.17,-320.25 1019.08,-320.25"/>
<text text-anchor="start" x="904" y="-307.7" font-family="Helvetica,sans-Serif" font-size="9.00">GridRendererComponent.js</text>
</a>
</g>
</g>
<!-- src/js/directable/directables/dotmatrix/shape/Shape.js -->
<g id="node15" class="node">
<title>src/js/directable/directables/dotmatrix/shape/Shape.js</title>
<g id="a_node15"><a xlink:href="src/js/directable/directables/dotmatrix/shape/Shape.js" xlink:title="Shape.js">
<path fill="#ccffcc" stroke="black" d="M828.83,-946.25C828.83,-946.25 787.17,-946.25 787.17,-946.25 784.08,-946.25 781,-943.17 781,-940.08 781,-940.08 781,-933.92 781,-933.92 781,-930.83 784.08,-927.75 787.17,-927.75 787.17,-927.75 828.83,-927.75 828.83,-927.75 831.92,-927.75 835,-930.83 835,-933.92 835,-933.92 835,-940.08 835,-940.08 835,-943.17 831.92,-946.25 828.83,-946.25"/>
<text text-anchor="start" x="790" y="-933.7" font-family="Helvetica,sans-Serif" font-size="9.00">Shape.js</text>
</a>
</g>
</g>
<!-- src/js/directable/directables/dotmatrix/shape/fill/Fill.js -->
<g id="node17" class="node">
<title>src/js/directable/directables/dotmatrix/shape/fill/Fill.js</title>
<g id="a_node17"><a xlink:href="src/js/directable/directables/dotmatrix/shape/fill/Fill.js" xlink:title="Fill.js">
<path fill="#ccffcc" stroke="black" d="M828.83,-276.25C828.83,-276.25 787.17,-276.25 787.17,-276.25 784.08,-276.25 781,-273.17 781,-270.08 781,-270.08 781,-263.92 781,-263.92 781,-260.83 784.08,-257.75 787.17,-257.75 787.17,-257.75 828.83,-257.75 828.83,-257.75 831.92,-257.75 835,-260.83 835,-263.92 835,-263.92 835,-270.08 835,-270.08 835,-273.17 831.92,-276.25 828.83,-276.25"/>
<text text-anchor="start" x="797.5" y="-263.7" font-family="Helvetica,sans-Serif" font-size="9.00">Fill.js</text>
</a>
</g>
</g>
<!-- src/js/directable/directables/dotmatrix/shape/fill/FillStrategy.js -->
<g id="node18" class="node">
<title>src/js/directable/directables/dotmatrix/shape/fill/FillStrategy.js</title>
<g id="a_node18"><a xlink:href="src/js/directable/directables/dotmatrix/shape/fill/FillStrategy.js" xlink:title="FillStrategy.js">
<path fill="#ccffcc" stroke="black" d="M836.83,-307.25C836.83,-307.25 779.17,-307.25 779.17,-307.25 776.08,-307.25 773,-304.17 773,-301.08 773,-301.08 773,-294.92 773,-294.92 773,-291.83 776.08,-288.75 779.17,-288.75 779.17,-288.75 836.83,-288.75 836.83,-288.75 839.92,-288.75 843,-291.83 843,-294.92 843,-294.92 843,-301.08 843,-301.08 843,-304.17 839.92,-307.25 836.83,-307.25"/>
<text text-anchor="start" x="781" y="-294.7" font-family="Helvetica,sans-Serif" font-size="9.00">FillStrategy.js</text>
</a>
</g>
</g>
<!-- src/js/directable/directables/dotmatrix/shape/fill/FillStrategyType.js -->
<g id="node19" class="node">
<title>src/js/directable/directables/dotmatrix/shape/fill/FillStrategyType.js</title>
<g id="a_node19"><a xlink:href="src/js/directable/directables/dotmatrix/shape/fill/FillStrategyType.js" xlink:title="FillStrategyType.js">
<path fill="#ccffcc" stroke="black" d="M847.33,-338.25C847.33,-338.25 768.67,-338.25 768.67,-338.25 765.58,-338.25 762.5,-335.17 762.5,-332.08 762.5,-332.08 762.5,-325.92 762.5,-325.92 762.5,-322.83 765.58,-319.75 768.67,-319.75 768.67,-319.75 847.33,-319.75 847.33,-319.75 850.42,-319.75 853.5,-322.83 853.5,-325.92 853.5,-325.92 853.5,-332.08 853.5,-332.08 853.5,-335.17 850.42,-338.25 847.33,-338.25"/>
<text text-anchor="start" x="770.5" y="-325.7" font-family="Helvetica,sans-Serif" font-size="9.00">FillStrategyType.js</text>
</a>
</g>
</g>
<!-- src/js/directable/directables/dotmatrix/shape/fill/FillType.js -->
<g id="node20" class="node">
<title>src/js/directable/directables/dotmatrix/shape/fill/FillType.js</title>
<g id="a_node20"><a xlink:href="src/js/directable/directables/dotmatrix/shape/fill/FillType.js" xlink:title="FillType.js">
<path fill="#ccffcc" stroke="black" d="M830.46,-369.25C830.46,-369.25 785.54,-369.25 785.54,-369.25 782.46,-369.25 779.38,-366.17 779.38,-363.08 779.38,-363.08 779.38,-356.92 779.38,-356.92 779.38,-353.83 782.46,-350.75 785.54,-350.75 785.54,-350.75 830.46,-350.75 830.46,-350.75 833.54,-350.75 836.62,-353.83 836.62,-356.92 836.62,-356.92 836.62,-363.08 836.62,-363.08 836.62,-366.17 833.54,-369.25 830.46,-369.25"/>
<text text-anchor="start" x="787.38" y="-356.7" font-family="Helvetica,sans-Serif" font-size="9.00">FillType.js</text>
</a>
</g>
</g>
<!-- src/js/directable/directables/dotmatrix/shape/glyph/ShapeGlyph_A.js -->
<g id="node21" class="node">
<title>src/js/directable/directables/dotmatrix/shape/glyph/ShapeGlyph_A.js</title>
<g id="a_node21"><a xlink:href="src/js/directable/directables/dotmatrix/shape/glyph/ShapeGlyph_A.js" xlink:title="ShapeGlyph_A.js">
<path fill="#ccffcc" stroke="black" d="M845.46,-430.25C845.46,-430.25 770.54,-430.25 770.54,-430.25 767.46,-430.25 764.38,-427.17 764.38,-424.08 764.38,-424.08 764.38,-417.92 764.38,-417.92 764.38,-414.83 767.46,-411.75 770.54,-411.75 770.54,-411.75 845.46,-411.75 845.46,-411.75 848.54,-411.75 851.62,-414.83 851.62,-417.92 851.62,-417.92 851.62,-424.08 851.62,-424.08 851.62,-427.17 848.54,-430.25 845.46,-430.25"/>
<text text-anchor="start" x="772.38" y="-417.7" font-family="Helvetica,sans-Serif" font-size="9.00">ShapeGlyph_A.js</text>
</a>
</g>
</g>
<!-- src/js/directable/directables/dotmatrix/shape/glyph/ShapeGlyph_B.js -->
<g id="node22" class="node">
<title>src/js/directable/directables/dotmatrix/shape/glyph/ShapeGlyph_B.js</title>
<g id="a_node22"><a xlink:href="src/js/directable/directables/dotmatrix/shape/glyph/ShapeGlyph_B.js" xlink:title="ShapeGlyph_B.js">
<path fill="#ccffcc" stroke="black" d="M845.46,-461.25C845.46,-461.25 770.54,-461.25 770.54,-461.25 767.46,-461.25 764.38,-458.17 764.38,-455.08 764.38,-455.08 764.38,-448.92 764.38,-448.92 764.38,-445.83 767.46,-442.75 770.54,-442.75 770.54,-442.75 845.46,-442.75 845.46,-442.75 848.54,-442.75 851.62,-445.83 851.62,-448.92 851.62,-448.92 851.62,-455.08 851.62,-455.08 851.62,-458.17 848.54,-461.25 845.46,-461.25"/>
<text text-anchor="start" x="772.38" y="-448.7" font-family="Helvetica,sans-Serif" font-size="9.00">ShapeGlyph_B.js</text>
</a>
</g>
</g>
<!-- src/js/directable/directables/dotmatrix/shape/glyph/ShapeGlyph_C.js -->
<g id="node23" class="node">
<title>src/js/directable/directables/dotmatrix/shape/glyph/ShapeGlyph_C.js</title>
<g id="a_node23"><a xlink:href="src/js/directable/directables/dotmatrix/shape/glyph/ShapeGlyph_C.js" xlink:title="ShapeGlyph_C.js">
<path fill="#ccffcc" stroke="black" d="M845.83,-492.25C845.83,-492.25 770.17,-492.25 770.17,-492.25 767.08,-492.25 764,-489.17 764,-486.08 764,-486.08 764,-479.92 764,-479.92 764,-476.83 767.08,-473.75 770.17,-473.75 770.17,-473.75 845.83,-473.75 845.83,-473.75 848.92,-473.75 852,-476.83 852,-479.92 852,-479.92 852,-486.08 852,-486.08 852,-489.17 848.92,-492.25 845.83,-492.25"/>
<text text-anchor="start" x="772" y="-479.7" font-family="Helvetica,sans-Serif" font-size="9.00">ShapeGlyph_C.js</text>
</a>
</g>
</g>
<!-- src/js/directable/directables/dotmatrix/shape/glyph/ShapeGlyph_D.js -->
<g id="node24" class="node">
<title>src/js/directable/directables/dotmatrix/shape/glyph/ShapeGlyph_D.js</title>
<g id="a_node24"><a xlink:href="src/js/directable/directables/dotmatrix/shape/glyph/ShapeGlyph_D.js" xlink:title="ShapeGlyph_D.js">
<path fill="#ccffcc" stroke="black" d="M845.83,-523.25C845.83,-523.25 770.17,-523.25 770.17,-523.25 767.08,-523.25 764,-520.17 764,-517.08 764,-517.08 764,-510.92 764,-510.92 764,-507.83 767.08,-504.75 770.17,-504.75 770.17,-504.75 845.83,-504.75 845.83,-504.75 848.92,-504.75 852,-507.83 852,-510.92 852,-510.92 852,-517.08 852,-517.08 852,-520.17 848.92,-523.25 845.83,-523.25"/>
<text text-anchor="start" x="772" y="-510.7" font-family="Helvetica,sans-Serif" font-size="9.00">ShapeGlyph_D.js</text>
</a>
</g>
</g>
<!-- src/js/directable/directables/dotmatrix/shape/glyph/ShapeGlyph_E.js -->
<g id="node25" class="node">
<title>src/js/directable/directables/dotmatrix/shape/glyph/ShapeGlyph_E.js</title>
<g id="a_node25"><a xlink:href="src/js/directable/directables/dotmatrix/shape/glyph/ShapeGlyph_E.js" xlink:title="ShapeGlyph_E.js">
<path fill="#ccffcc" stroke="black" d="M845.46,-554.25C845.46,-554.25 770.54,-554.25 770.54,-554.25 767.46,-554.25 764.38,-551.17 764.38,-548.08 764.38,-548.08 764.38,-541.92 764.38,-541.92 764.38,-538.83 767.46,-535.75 770.54,-535.75 770.54,-535.75 845.46,-535.75 845.46,-535.75 848.54,-535.75 851.62,-538.83 851.62,-541.92 851.62,-541.92 851.62,-548.08 851.62,-548.08 851.62,-551.17 848.54,-554.25 845.46,-554.25"/>
<text text-anchor="start" x="772.38" y="-541.7" font-family="Helvetica,sans-Serif" font-size="9.00">ShapeGlyph_E.js</text>
</a>
</g>
</g>
<!-- src/js/directable/directables/dotmatrix/shape/glyph/ShapeGlyph_F.js -->
<g id="node26" class="node">
<title>src/js/directable/directables/dotmatrix/shape/glyph/ShapeGlyph_F.js</title>
<g id="a_node26"><a xlink:href="src/js/directable/directables/dotmatrix/shape/glyph/ShapeGlyph_F.js" xlink:title="ShapeGlyph_F.js">
<path fill="#ccffcc" stroke="black" d="M844.71,-585.25C844.71,-585.25 771.29,-585.25 771.29,-585.25 768.21,-585.25 765.12,-582.17 765.12,-579.08 765.12,-579.08 765.12,-572.92 765.12,-572.92 765.12,-569.83 768.21,-566.75 771.29,-566.75 771.29,-566.75 844.71,-566.75 844.71,-566.75 847.79,-566.75 850.88,-569.83 850.88,-572.92 850.88,-572.92 850.88,-579.08 850.88,-579.08 850.88,-582.17 847.79,-585.25 844.71,-585.25"/>
<text text-anchor="start" x="773.12" y="-572.7" font-family="Helvetica,sans-Serif" font-size="9.00">ShapeGlyph_F.js</text>
</a>
</g>
</g>
<!-- src/js/directable/directables/dotmatrix/shape/glyph/ShapeGlyph_G.js -->
<g id="node27" class="node">
<title>src/js/directable/directables/dotmatrix/shape/glyph/ShapeGlyph_G.js</title>
<g id="a_node27"><a xlink:href="src/js/directable/directables/dotmatrix/shape/glyph/ShapeGlyph_G.js" xlink:title="ShapeGlyph_G.js">
<path fill="#ccffcc" stroke="black" d="M845.83,-616.25C845.83,-616.25 770.17,-616.25 770.17,-616.25 767.08,-616.25 764,-613.17 764,-610.08 764,-610.08 764,-603.92 764,-603.92 764,-600.83 767.08,-597.75 770.17,-597.75 770.17,-597.75 845.83,-597.75 845.83,-597.75 848.92,-597.75 852,-600.83 852,-603.92 852,-603.92 852,-610.08 852,-610.08 852,-613.17 848.92,-616.25 845.83,-616.25"/>
<text text-anchor="start" x="772" y="-603.7" font-family="Helvetica,sans-Serif" font-size="9.00">ShapeGlyph_G.js</text>
</a>
</g>
</g>
<!-- src/js/directable/directables/dotmatrix/shape/glyph/ShapeGlyph_H.js -->
<g id="node28" class="node">
<title>src/js/directable/directables/dotmatrix/shape/glyph/ShapeGlyph_H.js</title>
<g id="a_node28"><a xlink:href="src/js/directable/directables/dotmatrix/shape/glyph/ShapeGlyph_H.js" xlink:title="ShapeGlyph_H.js">
<path fill="#ccffcc" stroke="black" d="M845.83,-647.25C845.83,-647.25 770.17,-647.25 770.17,-647.25 767.08,-647.25 764,-644.17 764,-641.08 764,-641.08 764,-634.92 764,-634.92 764,-631.83 767.08,-628.75 770.17,-628.75 770.17,-628.75 845.83,-628.75 845.83,-628.75 848.92,-628.75 852,-631.83 852,-634.92 852,-634.92 852,-641.08 852,-641.08 852,-644.17 848.92,-647.25 845.83,-647.25"/>
<text text-anchor="start" x="772" y="-634.7" font-family="Helvetica,sans-Serif" font-size="9.00">ShapeGlyph_H.js</text>
</a>
</g>
</g>
<!-- src/js/directable/directables/dotmatrix/shape/glyph/ShapeGlyph_I.js -->
<g id="node29" class="node">
<title>src/js/directable/directables/dotmatrix/shape/glyph/ShapeGlyph_I.js</title>
<g id="a_node29"><a xlink:href="src/js/directable/directables/dotmatrix/shape/glyph/ShapeGlyph_I.js" xlink:title="ShapeGlyph_I.js">
<path fill="#ccffcc" stroke="black" d="M843.58,-678.25C843.58,-678.25 772.42,-678.25 772.42,-678.25 769.33,-678.25 766.25,-675.17 766.25,-672.08 766.25,-672.08 766.25,-665.92 766.25,-665.92 766.25,-662.83 769.33,-659.75 772.42,-659.75 772.42,-659.75 843.58,-659.75 843.58,-659.75 846.67,-659.75 849.75,-662.83 849.75,-665.92 849.75,-665.92 849.75,-672.08 849.75,-672.08 849.75,-675.17 846.67,-678.25 843.58,-678.25"/>
<text text-anchor="start" x="774.25" y="-665.7" font-family="Helvetica,sans-Serif" font-size="9.00">ShapeGlyph_I.js</text>
</a>
</g>
</g>
<!-- src/js/directable/directables/dotmatrix/shape/glyph/ShapeGlyph_J.js -->
<g id="node30" class="node">
<title>src/js/directable/directables/dotmatrix/shape/glyph/ShapeGlyph_J.js</title>
<g id="a_node30"><a xlink:href="src/js/directable/directables/dotmatrix/shape/glyph/ShapeGlyph_J.js" xlink:title="ShapeGlyph_J.js">
<path fill="#ccffcc" stroke="black" d="M844.71,-709.25C844.71,-709.25 771.29,-709.25 771.29,-709.25 768.21,-709.25 765.12,-706.17 765.12,-703.08 765.12,-703.08 765.12,-696.92 765.12,-696.92 765.12,-693.83 768.21,-690.75 771.29,-690.75 771.29,-690.75 844.71,-690.75 844.71,-690.75 847.79,-690.75 850.88,-693.83 850.88,-696.92 850.88,-696.92 850.88,-703.08 850.88,-703.08 850.88,-706.17 847.79,-709.25 844.71,-709.25"/>
<text text-anchor="start" x="773.12" y="-696.7" font-family="Helvetica,sans-Serif" font-size="9.00">ShapeGlyph_J.js</text>
</a>
</g>
</g>
<!-- src/js/directable/directables/dotmatrix/shape/glyph/ShapeGlyph_K.js -->
<g id="node31" class="node">
<title>src/js/directable/directables/dotmatrix/shape/glyph/ShapeGlyph_K.js</title>
<g id="a_node31"><a xlink:href="src/js/directable/directables/dotmatrix/shape/glyph/ShapeGlyph_K.js" xlink:title="ShapeGlyph_K.js">
<path fill="#ccffcc" stroke="black" d="M845.46,-740.25C845.46,-740.25 770.54,-740.25 770.54,-740.25 767.46,-740.25 764.38,-737.17 764.38,-734.08 764.38,-734.08 764.38,-727.92 764.38,-727.92 764.38,-724.83 767.46,-721.75 770.54,-721.75 770.54,-721.75 845.46,-721.75 845.46,-721.75 848.54,-721.75 851.62,-724.83 851.62,-727.92 851.62,-727.92 851.62,-734.08 851.62,-734.08 851.62,-737.17 848.54,-740.25 845.46,-740.25"/>
<text text-anchor="start" x="772.38" y="-727.7" font-family="Helvetica,sans-Serif" font-size="9.00">ShapeGlyph_K.js</text>
</a>
</g>
</g>
<!-- src/js/directable/directables/dotmatrix/shape/line/ShapeLineHorizontal.js -->
<g id="node32" class="node">
<title>src/js/directable/directables/dotmatrix/shape/line/ShapeLineHorizontal.js</title>
<g id="a_node32"><a xlink:href="src/js/directable/directables/dotmatrix/shape/line/ShapeLineHorizontal.js" xlink:title="ShapeLineHorizontal.js">
<path fill="#ccffcc" stroke="black" d="M857.83,-801.25C857.83,-801.25 758.17,-801.25 758.17,-801.25 755.08,-801.25 752,-798.17 752,-795.08 752,-795.08 752,-788.92 752,-788.92 752,-785.83 755.08,-782.75 758.17,-782.75 758.17,-782.75 857.83,-782.75 857.83,-782.75 860.92,-782.75 864,-785.83 864,-788.92 864,-788.92 864,-795.08 864,-795.08 864,-798.17 860.92,-801.25 857.83,-801.25"/>
<text text-anchor="start" x="760" y="-788.7" font-family="Helvetica,sans-Serif" font-size="9.00">ShapeLineHorizontal.js</text>
</a>
</g>
</g>
<!-- src/js/directable/directables/dotmatrix/shape/line/ShapeLineVertical.js -->
<g id="node33" class="node">
<title>src/js/directable/directables/dotmatrix/shape/line/ShapeLineVertical.js</title>
<g id="a_node33"><a xlink:href="src/js/directable/directables/dotmatrix/shape/line/ShapeLineVertical.js" xlink:title="ShapeLineVertical.js">
<path fill="#ccffcc" stroke="black" d="M851.83,-832.25C851.83,-832.25 764.17,-832.25 764.17,-832.25 761.08,-832.25 758,-829.17 758,-826.08 758,-826.08 758,-819.92 758,-819.92 758,-816.83 761.08,-813.75 764.17,-813.75 764.17,-813.75 851.83,-813.75 851.83,-813.75 854.92,-813.75 858,-816.83 858,-819.92 858,-819.92 858,-826.08 858,-826.08 858,-829.17 854.92,-832.25 851.83,-832.25"/>
<text text-anchor="start" x="766" y="-819.7" font-family="Helvetica,sans-Serif" font-size="9.00">ShapeLineVertical.js</text>
</a>
</g>
</g>
<!-- src/js/directable/directables/dotmatrix/shape/primative/ShapeRectangle.js -->
<g id="node34" class="node">
<title>src/js/directable/directables/dotmatrix/shape/primative/ShapeRectangle.js</title>
<g id="a_node34"><a xlink:href="src/js/directable/directables/dotmatrix/shape/primative/ShapeRectangle.js" xlink:title="ShapeRectangle.js">
<path fill="#ccffcc" stroke="black" d="M848.83,-893.25C848.83,-893.25 767.17,-893.25 767.17,-893.25 764.08,-893.25 761,-890.17 761,-887.08 761,-887.08 761,-880.92 761,-880.92 761,-877.83 764.08,-874.75 767.17,-874.75 767.17,-874.75 848.83,-874.75 848.83,-874.75 851.92,-874.75 855,-877.83 855,-880.92 855,-880.92 855,-887.08 855,-887.08 855,-890.17 851.92,-893.25 848.83,-893.25"/>
<text text-anchor="start" x="769" y="-880.7" font-family="Helvetica,sans-Serif" font-size="9.00">ShapeRectangle.js</text>
</a>
</g>
</g>
<!-- src/js/directable/directables/dotmatrix/view/View.js -->
<g id="node35" class="node">
<title>src/js/directable/directables/dotmatrix/view/View.js</title>
<g id="a_node35"><a xlink:href="src/js/directable/directables/dotmatrix/view/View.js" xlink:title="View.js">
<path fill="#ffffcc" stroke="black" d="M981.46,-74.25C981.46,-74.25 939.79,-74.25 939.79,-74.25 936.71,-74.25 933.62,-71.17 933.62,-68.08 933.62,-68.08 933.62,-61.92 933.62,-61.92 933.62,-58.83 936.71,-55.75 939.79,-55.75 939.79,-55.75 981.46,-55.75 981.46,-55.75 984.54,-55.75 987.62,-58.83 987.62,-61.92 987.62,-61.92 987.62,-68.08 987.62,-68.08 987.62,-71.17 984.54,-74.25 981.46,-74.25"/>
<text text-anchor="start" x="946.38" y="-61.7" font-family="Helvetica,sans-Serif" font-size="9.00">View.js</text>
</a>
</g>
</g>
<!-- src/js/directable/directables/dotmatrix/view/ViewFloor.js -->
<g id="node36" class="node">
<title>src/js/directable/directables/dotmatrix/view/ViewFloor.js</title>
<g id="a_node36"><a xlink:href="src/js/directable/directables/dotmatrix/view/ViewFloor.js" xlink:title="ViewFloor.js">
<path fill="#ccffcc" stroke="black" d="M688.71,-105.25C688.71,-105.25 635.54,-105.25 635.54,-105.25 632.46,-105.25 629.38,-102.17 629.38,-99.08 629.38,-99.08 629.38,-92.92 629.38,-92.92 629.38,-89.83 632.46,-86.75 635.54,-86.75 635.54,-86.75 688.71,-86.75 688.71,-86.75 691.79,-86.75 694.88,-89.83 694.88,-92.92 694.88,-92.92 694.88,-99.08 694.88,-99.08 694.88,-102.17 691.79,-105.25 688.71,-105.25"/>
<text text-anchor="start" x="637.38" y="-92.7" font-family="Helvetica,sans-Serif" font-size="9.00">ViewFloor.js</text>
</a>
</g>
</g>
<!-- src/js/directable/directables/dotmatrix/view/ViewTest.js&#45;&gt;src/js/directable/directables/dotmatrix/view/View.js -->
<g id="edge13" class="edge">
<title>src/js/directable/directables/dotmatrix/view/ViewTest.js&#45;&gt;src/js/directable/directables/dotmatrix/view/View.js</title>
<path fill="none" stroke="#000000" stroke-width="2" stroke-opacity="0.200000" d="M839.12,-65C863.85,-65 898.89,-65 924.82,-65"/>
<polygon fill="#000000" fill-opacity="0.200000" stroke="#000000" stroke-width="2" stroke-opacity="0.200000" points="924.55,-67.1 930.55,-65 924.55,-62.9 924.55,-67.1"/>
</g>
<!-- src/js/directable/directables/dotmatrix/view/ViewTextTest.js -->
<g id="node38" class="node">
<title>src/js/directable/directables/dotmatrix/view/ViewTextTest.js</title>
<g id="a_node38"><a xlink:href="src/js/directable/directables/dotmatrix/view/ViewTextTest.js" xlink:title="ViewTextTest.js">
<path fill="#ccffcc" stroke="black" d="M695.08,-136.25C695.08,-136.25 629.17,-136.25 629.17,-136.25 626.08,-136.25 623,-133.17 623,-130.08 623,-130.08 623,-123.92 623,-123.92 623,-120.83 626.08,-117.75 629.17,-117.75 629.17,-117.75 695.08,-117.75 695.08,-117.75 698.17,-117.75 701.25,-120.83 701.25,-123.92 701.25,-123.92 701.25,-130.08 701.25,-130.08 701.25,-133.17 698.17,-136.25 695.08,-136.25"/>
<text text-anchor="start" x="631" y="-123.7" font-family="Helvetica,sans-Serif" font-size="9.00">ViewTextTest.js</text>
</a>
</g>
</g>
<!-- src/js/directable/directables/frame/DirectableFrame.js -->
<g id="node39" class="node">
<title>src/js/directable/directables/frame/DirectableFrame.js</title>
<g id="a_node39"><a xlink:href="src/js/directable/directables/frame/DirectableFrame.js" xlink:title="DirectableFrame.js">
<path fill="#ffffcc" stroke="black" d="M540.71,-1065.25C540.71,-1065.25 459.79,-1065.25 459.79,-1065.25 456.71,-1065.25 453.62,-1062.17 453.62,-1059.08 453.62,-1059.08 453.62,-1052.92 453.62,-1052.92 453.62,-1049.83 456.71,-1046.75 459.79,-1046.75 459.79,-1046.75 540.71,-1046.75 540.71,-1046.75 543.79,-1046.75 546.88,-1049.83 546.88,-1052.92 546.88,-1052.92 546.88,-1059.08 546.88,-1059.08 546.88,-1062.17 543.79,-1065.25 540.71,-1065.25"/>
<text text-anchor="start" x="461.62" y="-1052.7" font-family="Helvetica,sans-Serif" font-size="9.00">DirectableFrame.js</text>
</a>
</g>
</g>
<!-- src/js/directable/directables/rhythm/DirectableRhythm.js -->
<g id="node40" class="node">
<title>src/js/directable/directables/rhythm/DirectableRhythm.js</title>
<g id="a_node40"><a xlink:href="src/js/directable/directables/rhythm/DirectableRhythm.js" xlink:title="DirectableRhythm.js">
<path fill="#ffffcc" stroke="black" d="M705.21,-1257.25C705.21,-1257.25 619.04,-1257.25 619.04,-1257.25 615.96,-1257.25 612.88,-1254.17 612.88,-1251.08 612.88,-1251.08 612.88,-1244.92 612.88,-1244.92 612.88,-1241.83 615.96,-1238.75 619.04,-1238.75 619.04,-1238.75 705.21,-1238.75 705.21,-1238.75 708.29,-1238.75 711.38,-1241.83 711.38,-1244.92 711.38,-1244.92 711.38,-1251.08 711.38,-1251.08 711.38,-1254.17 708.29,-1257.25 705.21,-1257.25"/>
<text text-anchor="start" x="620.88" y="-1244.7" font-family="Helvetica,sans-Serif" font-size="9.00">DirectableRhythm.js</text>
</a>
</g>
</g>
<!-- src/js/directable/directables/rhythm/asdr/ASDRData.js -->
<g id="node41" class="node">
<title>src/js/directable/directables/rhythm/asdr/ASDRData.js</title>
<g id="a_node41"><a xlink:href="src/js/directable/directables/rhythm/asdr/ASDRData.js" xlink:title="ASDRData.js">
<path fill="#ccffcc" stroke="black" d="M529.08,-1134.25C529.08,-1134.25 471.42,-1134.25 471.42,-1134.25 468.33,-1134.25 465.25,-1131.17 465.25,-1128.08 465.25,-1128.08 465.25,-1121.92 465.25,-1121.92 465.25,-1118.83 468.33,-1115.75 471.42,-1115.75 471.42,-1115.75 529.08,-1115.75 529.08,-1115.75 532.17,-1115.75 535.25,-1118.83 535.25,-1121.92 535.25,-1121.92 535.25,-1128.08 535.25,-1128.08 535.25,-1131.17 532.17,-1134.25 529.08,-1134.25"/>
<text text-anchor="start" x="473.25" y="-1121.7" font-family="Helvetica,sans-Serif" font-size="9.00">ASDRData.js</text>
</a>
</g>
</g>
<!-- src/js/directable/directables/rhythm/asdr/ASDREnvelope.js -->
<g id="node42" class="node">
<title>src/js/directable/directables/rhythm/asdr/ASDREnvelope.js</title>
<g id="a_node42"><a xlink:href="src/js/directable/directables/rhythm/asdr/ASDREnvelope.js" xlink:title="ASDREnvelope.js">
<path fill="#ffffcc" stroke="black" d="M538.83,-1165.25C538.83,-1165.25 461.67,-1165.25 461.67,-1165.25 458.58,-1165.25 455.5,-1162.17 455.5,-1159.08 455.5,-1159.08 455.5,-1152.92 455.5,-1152.92 455.5,-1149.83 458.58,-1146.75 461.67,-1146.75 461.67,-1146.75 538.83,-1146.75 538.83,-1146.75 541.92,-1146.75 545,-1149.83 545,-1152.92 545,-1152.92 545,-1159.08 545,-1159.08 545,-1162.17 541.92,-1165.25 538.83,-1165.25"/>
<text text-anchor="start" x="463.5" y="-1152.7" font-family="Helvetica,sans-Serif" font-size="9.00">ASDREnvelope.js</text>
</a>
</g>
</g>
<!-- src/js/directable/directables/rhythm/asdr/DirectableRhythmASDRManager.js -->
<g id="node43" class="node">
<title>src/js/directable/directables/rhythm/asdr/DirectableRhythmASDRManager.js</title>
<g id="a_node43"><a xlink:href="src/js/directable/directables/rhythm/asdr/DirectableRhythmASDRManager.js" xlink:title="DirectableRhythmASDRManager.js">
<path fill="#ffffcc" stroke="black" d="M574.08,-1196.25C574.08,-1196.25 426.42,-1196.25 426.42,-1196.25 423.33,-1196.25 420.25,-1193.17 420.25,-1190.08 420.25,-1190.08 420.25,-1183.92 420.25,-1183.92 420.25,-1180.83 423.33,-1177.75 426.42,-1177.75 426.42,-1177.75 574.08,-1177.75 574.08,-1177.75 577.17,-1177.75 580.25,-1180.83 580.25,-1183.92 580.25,-1183.92 580.25,-1190.08 580.25,-1190.08 580.25,-1193.17 577.17,-1196.25 574.08,-1196.25"/>
<text text-anchor="start" x="428.25" y="-1183.7" font-family="Helvetica,sans-Serif" font-size="9.00">DirectableRhythmASDRManager.js</text>
</a>
</g>
</g>
<!-- src/js/directable/directables/rhythm/bpm/DirectableRhythmBPM.js -->
<g id="node44" class="node">
<title>src/js/directable/directables/rhythm/bpm/DirectableRhythmBPM.js</title>
<g id="a_node44"><a xlink:href="src/js/directable/directables/rhythm/bpm/DirectableRhythmBPM.js" xlink:title="DirectableRhythmBPM.js">
<path fill="#ffffcc" stroke="black" d="M553.08,-1257.25C553.08,-1257.25 447.42,-1257.25 447.42,-1257.25 444.33,-1257.25 441.25,-1254.17 441.25,-1251.08 441.25,-1251.08 441.25,-1244.92 441.25,-1244.92 441.25,-1241.83 444.33,-1238.75 447.42,-1238.75 447.42,-1238.75 553.08,-1238.75 553.08,-1238.75 556.17,-1238.75 559.25,-1241.83 559.25,-1244.92 559.25,-1244.92 559.25,-1251.08 559.25,-1251.08 559.25,-1254.17 556.17,-1257.25 553.08,-1257.25"/>
<text text-anchor="start" x="449.25" y="-1244.7" font-family="Helvetica,sans-Serif" font-size="9.00">DirectableRhythmBPM.js</text>
</a>
</g>
</g>
<!-- src/js/directable/directables/rhythm/bpm/DirectableRhythmBPM.js&#45;&gt;src/js/directable/directables/rhythm/DirectableRhythm.js -->
<g id="edge14" class="edge">
<title>src/js/directable/directables/rhythm/bpm/DirectableRhythmBPM.js&#45;&gt;src/js/directable/directables/rhythm/DirectableRhythm.js</title>
<path fill="none" stroke="#000000" stroke-width="2" stroke-opacity="0.200000" d="M559.42,-1248C573.84,-1248 589.28,-1248 603.66,-1248"/>
<polygon fill="#000000" fill-opacity="0.200000" stroke="#000000" stroke-width="2" stroke-opacity="0.200000" points="603.44,-1250.1 609.44,-1248 603.44,-1245.9 603.44,-1250.1"/>
</g>
<!-- src/js/directable/directables/rhythm2/ViewRhythm.js -->
<g id="node45" class="node">
<title>src/js/directable/directables/rhythm2/ViewRhythm.js</title>
<g id="a_node45"><a xlink:href="src/js/directable/directables/rhythm2/ViewRhythm.js" xlink:title="ViewRhythm.js">
<path fill="#ffffcc" stroke="black" d="M532.46,-1345.25C532.46,-1345.25 468.04,-1345.25 468.04,-1345.25 464.96,-1345.25 461.88,-1342.17 461.88,-1339.08 461.88,-1339.08 461.88,-1332.92 461.88,-1332.92 461.88,-1329.83 464.96,-1326.75 468.04,-1326.75 468.04,-1326.75 532.46,-1326.75 532.46,-1326.75 535.54,-1326.75 538.62,-1329.83 538.62,-1332.92 538.62,-1332.92 538.62,-1339.08 538.62,-1339.08 538.62,-1342.17 535.54,-1345.25 532.46,-1345.25"/>
<text text-anchor="start" x="469.88" y="-1332.7" font-family="Helvetica,sans-Serif" font-size="9.00">ViewRhythm.js</text>
</a>
</g>
</g>
<!-- src/js/directable/directables/rhythm2/ViewRhythmTrack.js -->
<g id="node46" class="node">
<title>src/js/directable/directables/rhythm2/ViewRhythmTrack.js</title>
<g id="a_node46"><a xlink:href="src/js/directable/directables/rhythm2/ViewRhythmTrack.js" xlink:title="ViewRhythmTrack.js">
<path fill="#ffffcc" stroke="black" d="M705.58,-1345.25C705.58,-1345.25 618.67,-1345.25 618.67,-1345.25 615.58,-1345.25 612.5,-1342.17 612.5,-1339.08 612.5,-1339.08 612.5,-1332.92 612.5,-1332.92 612.5,-1329.83 615.58,-1326.75 618.67,-1326.75 618.67,-1326.75 705.58,-1326.75 705.58,-1326.75 708.67,-1326.75 711.75,-1329.83 711.75,-1332.92 711.75,-1332.92 711.75,-1339.08 711.75,-1339.08 711.75,-1342.17 708.67,-1345.25 705.58,-1345.25"/>
<text text-anchor="start" x="620.5" y="-1332.7" font-family="Helvetica,sans-Serif" font-size="9.00">ViewRhythmTrack.js</text>
</a>
</g>
</g>
<!-- src/js/directable/directables/rhythm2/ViewRhythm.js&#45;&gt;src/js/directable/directables/rhythm2/ViewRhythmTrack.js -->
<g id="edge15" class="edge">
<title>src/js/directable/directables/rhythm2/ViewRhythm.js&#45;&gt;src/js/directable/directables/rhythm2/ViewRhythmTrack.js</title>
<path fill="none" stroke="#000000" stroke-width="2" stroke-opacity="0.200000" d="M538.73,-1336C557.96,-1336 581.8,-1336 603.32,-1336"/>
<polygon fill="#000000" fill-opacity="0.200000" stroke="#000000" stroke-width="2" stroke-opacity="0.200000" points="603.03,-1338.1 609.03,-1336 603.03,-1333.9 603.03,-1338.1"/>
</g>
<!-- src/js/enum/DisplayFormats.js -->
<g id="node48" class="node">
<title>src/js/enum/DisplayFormats.js</title>
<g id="a_node48"><a xlink:href="src/js/enum/DisplayFormats.js" xlink:title="DisplayFormats.js">
<path fill="#ffffcc" stroke="black" d="M846.21,-1682.25C846.21,-1682.25 769.79,-1682.25 769.79,-1682.25 766.71,-1682.25 763.62,-1679.17 763.62,-1676.08 763.62,-1676.08 763.62,-1669.92 763.62,-1669.92 763.62,-1666.83 766.71,-1663.75 769.79,-1663.75 769.79,-1663.75 846.21,-1663.75 846.21,-1663.75 849.29,-1663.75 852.38,-1666.83 852.38,-1669.92 852.38,-1669.92 852.38,-1676.08 852.38,-1676.08 852.38,-1679.17 849.29,-1682.25 846.21,-1682.25"/>
<text text-anchor="start" x="771.62" y="-1669.7" font-family="Helvetica,sans-Serif" font-size="9.00">DisplayFormats.js</text>
</a>
</g>
</g>
<!-- src/js/index.js -->
<g id="node49" class="node">
<title>src/js/index.js</title>
<g id="a_node49"><a xlink:href="src/js/index.js" xlink:title="index.js">
<path fill="#ffffcc" stroke="black" d="M94.96,-1559.25C94.96,-1559.25 53.29,-1559.25 53.29,-1559.25 50.21,-1559.25 47.12,-1556.17 47.12,-1553.08 47.12,-1553.08 47.12,-1546.92 47.12,-1546.92 47.12,-1543.83 50.21,-1540.75 53.29,-1540.75 53.29,-1540.75 94.96,-1540.75 94.96,-1540.75 98.04,-1540.75 101.12,-1543.83 101.12,-1546.92 101.12,-1546.92 101.12,-1553.08 101.12,-1553.08 101.12,-1556.17 98.04,-1559.25 94.96,-1559.25"/>
<text text-anchor="start" x="58.38" y="-1546.7" font-family="Helvetica,sans-Serif" font-size="9.00">index.js</text>
</a>
</g>
</g>
<!-- src/js/index.js&#45;&gt;src/js/application/Application.js -->
<g id="edge18" class="edge">
<title>src/js/index.js&#45;&gt;src/js/application/Application.js</title>
<path fill="none" stroke="#000000" stroke-width="2" stroke-opacity="0.200000" d="M101.59,-1550C108.42,-1550 115.95,-1550 123.39,-1550"/>
<polygon fill="#000000" fill-opacity="0.200000" stroke="#000000" stroke-width="2" stroke-opacity="0.200000" points="123.01,-1552.1 129.01,-1550 123.01,-1547.9 123.01,-1552.1"/>
</g>
<!-- src/js/overlay/displayFormat/OverlayDisplayFormat.js&#45;&gt;src/js/enum/DisplayFormats.js -->
<g id="edge21" class="edge">
<title>src/js/overlay/displayFormat/OverlayDisplayFormat.js&#45;&gt;src/js/enum/DisplayFormats.js</title>
<path fill="none" stroke="#000000" stroke-width="2" stroke-opacity="0.200000" d="M671.21,-1590.33C683.79,-1604.35 709.41,-1630.94 736,-1647 744.69,-1652.25 754.61,-1656.7 764.22,-1660.36"/>
<polygon fill="#000000" fill-opacity="0.200000" stroke="#000000" stroke-width="2" stroke-opacity="0.200000" points="763.35,-1662.27 769.71,-1662.34 764.78,-1658.32 763.35,-1662.27"/>
</g>
<!-- src/js/overlay/OverlayUtil.js -->
<g id="node52" class="node">
<title>src/js/overlay/OverlayUtil.js</title>
<g id="a_node52"><a xlink:href="src/js/overlay/OverlayUtil.js" xlink:title="OverlayUtil.js">
<path fill="#ffffcc" stroke="black" d="M836.83,-1559.25C836.83,-1559.25 779.17,-1559.25 779.17,-1559.25 776.08,-1559.25 773,-1556.17 773,-1553.08 773,-1553.08 773,-1546.92 773,-1546.92 773,-1543.83 776.08,-1540.75 779.17,-1540.75 779.17,-1540.75 836.83,-1540.75 836.83,-1540.75 839.92,-1540.75 843,-1543.83 843,-1546.92 843,-1546.92 843,-1553.08 843,-1553.08 843,-1556.17 839.92,-1559.25 836.83,-1559.25"/>
<text text-anchor="start" x="781" y="-1546.7" font-family="Helvetica,sans-Serif" font-size="9.00">OverlayUtil.js</text>
</a>
</g>
</g>
<!-- src/js/overlay/displayFormat/OverlayDisplayFormat.js&#45;&gt;src/js/overlay/OverlayUtil.js -->
<g id="edge22" class="edge">
<title>src/js/overlay/displayFormat/OverlayDisplayFormat.js&#45;&gt;src/js/overlay/OverlayUtil.js</title>
<path fill="none" stroke="#000000" stroke-width="2" stroke-opacity="0.200000" d="M708.25,-1571.28C726.1,-1567.43 746.52,-1563.03 764.13,-1559.24"/>
<polygon fill="#000000" fill-opacity="0.200000" stroke="#000000" stroke-width="2" stroke-opacity="0.200000" points="764.15,-1561.38 769.58,-1558.06 763.27,-1557.27 764.15,-1561.38"/>
</g>
<!-- src/js/overlay/overlay/OverlayOverlay.js&#45;&gt;src/js/overlay/OverlayUtil.js -->
<g id="edge23" class="edge">
<title>src/js/overlay/overlay/OverlayOverlay.js&#45;&gt;src/js/overlay/OverlayUtil.js</title>
<path fill="none" stroke="#000000" stroke-width="2" stroke-opacity="0.200000" d="M705.9,-1528.92C724.27,-1532.75 745.69,-1537.22 764.07,-1541.05"/>
<polygon fill="#000000" fill-opacity="0.200000" stroke="#000000" stroke-width="2" stroke-opacity="0.200000" points="763.56,-1543.09 769.86,-1542.26 764.41,-1538.97 763.56,-1543.09"/>
</g>
<!-- src/js/view/render/RenderResizer.js -->
<g id="node54" class="node">
<title>src/js/view/render/RenderResizer.js</title>
<g id="a_node54"><a xlink:href="src/js/view/render/RenderResizer.js" xlink:title="RenderResizer.js">
<path fill="#ffffcc" stroke="black" d="M699.21,-1686.25C699.21,-1686.25 625.04,-1686.25 625.04,-1686.25 621.96,-1686.25 618.88,-1683.17 618.88,-1680.08 618.88,-1680.08 618.88,-1673.92 618.88,-1673.92 618.88,-1670.83 621.96,-1667.75 625.04,-1667.75 625.04,-1667.75 699.21,-1667.75 699.21,-1667.75 702.29,-1667.75 705.38,-1670.83 705.38,-1673.92 705.38,-1673.92 705.38,-1680.08 705.38,-1680.08 705.38,-1683.17 702.29,-1686.25 699.21,-1686.25"/>
<text text-anchor="start" x="626.88" y="-1673.7" font-family="Helvetica,sans-Serif" font-size="9.00">RenderResizer.js</text>
</a>
</g>
</g>
<!-- src/js/view/render/RenderController.js&#45;&gt;src/js/view/render/RenderResizer.js -->
<g id="edge25" class="edge">
<title>src/js/view/render/RenderController.js&#45;&gt;src/js/view/render/RenderResizer.js</title>
<path fill="none" stroke="#000000" stroke-width="2" stroke-opacity="0.200000" d="M548.35,-1677C567.6,-1677 589.93,-1677 609.61,-1677"/>
<polygon fill="#000000" fill-opacity="0.200000" stroke="#000000" stroke-width="2" stroke-opacity="0.200000" points="609.42,-1679.1 615.42,-1677 609.42,-1674.9 609.42,-1679.1"/>
</g>
<!-- src/js/view/render/RenderSurface.js -->
<g id="node55" class="node">
<title>src/js/view/render/RenderSurface.js</title>
<g id="a_node55"><a xlink:href="src/js/view/render/RenderSurface.js" xlink:title="RenderSurface.js">
<path fill="#ffffcc" stroke="black" d="M699.58,-1717.25C699.58,-1717.25 624.67,-1717.25 624.67,-1717.25 621.58,-1717.25 618.5,-1714.17 618.5,-1711.08 618.5,-1711.08 618.5,-1704.92 618.5,-1704.92 618.5,-1701.83 621.58,-1698.75 624.67,-1698.75 624.67,-1698.75 699.58,-1698.75 699.58,-1698.75 702.67,-1698.75 705.75,-1701.83 705.75,-1704.92 705.75,-1704.92 705.75,-1711.08 705.75,-1711.08 705.75,-1714.17 702.67,-1717.25 699.58,-1717.25"/>
<text text-anchor="start" x="626.5" y="-1704.7" font-family="Helvetica,sans-Serif" font-size="9.00">RenderSurface.js</text>
</a>
</g>
</g>
<!-- src/js/view/render/RenderController.js&#45;&gt;src/js/view/render/RenderSurface.js -->
<g id="edge26" class="edge">
<title>src/js/view/render/RenderController.js&#45;&gt;src/js/view/render/RenderSurface.js</title>
<path fill="none" stroke="#000000" stroke-width="2" stroke-opacity="0.200000" d="M548.35,-1686.13C567.52,-1689.85 589.74,-1694.16 609.36,-1697.96"/>
<polygon fill="#000000" fill-opacity="0.200000" stroke="#000000" stroke-width="2" stroke-opacity="0.200000" points="608.91,-1700.02 615.2,-1699.1 609.71,-1695.89 608.91,-1700.02"/>
</g>
<!-- src/js/view/render/RenderResizer.js&#45;&gt;src/js/enum/DisplayFormats.js -->
<g id="edge27" class="edge">
<title>src/js/view/render/RenderResizer.js&#45;&gt;src/js/enum/DisplayFormats.js</title>
<path fill="none" stroke="#000000" stroke-width="2" stroke-opacity="0.200000" d="M705.51,-1675.82C720.83,-1675.4 738.31,-1674.91 754.4,-1674.46"/>
<polygon fill="#000000" fill-opacity="0.200000" stroke="#000000" stroke-width="2" stroke-opacity="0.200000" points="754.2,-1676.57 760.14,-1674.3 754.09,-1672.37 754.2,-1676.57"/>
</g>
</g>
</svg>
