<?xml version="1.0" encoding="UTF-8" standalone="no"?>
<!DOCTYPE svg PUBLIC "-//W3C//DTD SVG 1.1//EN"
 "http://www.w3.org/Graphics/SVG/1.1/DTD/svg11.dtd">
<!-- Generated by graphviz version 12.2.1 (20241206.2353)
 -->
<!-- Title: dependency&#45;cruiser output Pages: 1 -->
<svg width="1242pt" height="1484pt"
 viewBox="0.00 0.00 1242.25 1484.00" xmlns="http://www.w3.org/2000/svg" xmlns:xlink="http://www.w3.org/1999/xlink">
<g id="graph0" class="graph" transform="scale(1 1) rotate(0) translate(4 1480)">
<title>dependency&#45;cruiser output</title>
<polygon fill="white" stroke="none" points="-4,4 -4,-1480 1238.25,-1480 1238.25,4 -4,4"/>
<g id="clust1" class="cluster">
<title>cluster_src</title>
<path fill="#ffffff" stroke="black" stroke-width="2" d="M20,-8C20,-8 1214.25,-8 1214.25,-8 1220.25,-8 1226.25,-14 1226.25,-20 1226.25,-20 1226.25,-1456 1226.25,-1456 1226.25,-1462 1220.25,-1468 1214.25,-1468 1214.25,-1468 20,-1468 20,-1468 14,-1468 8,-1462 8,-1456 8,-1456 8,-20 8,-20 8,-14 14,-8 20,-8"/>
<text text-anchor="middle" x="617.12" y="-1455.45" font-family="Helvetica,sans-Serif" font-weight="bold" font-size="9.00">src</text>
</g>
<g id="clust2" class="cluster">
<title>cluster_src/js</title>
<path fill="#ffffff" stroke="black" stroke-width="2" d="M28,-16C28,-16 1206.25,-16 1206.25,-16 1212.25,-16 1218.25,-22 1218.25,-28 1218.25,-28 1218.25,-1429 1218.25,-1429 1218.25,-1435 1212.25,-1441 1206.25,-1441 1206.25,-1441 28,-1441 28,-1441 22,-1441 16,-1435 16,-1429 16,-1429 16,-28 16,-28 16,-22 22,-16 28,-16"/>
<text text-anchor="middle" x="617.12" y="-1428.45" font-family="Helvetica,sans-Serif" font-weight="bold" font-size="9.00">js</text>
</g>
<g id="clust3" class="cluster">
<title>cluster_src/js/application</title>
<path fill="#ffffff" stroke="black" stroke-width="2" d="M136.25,-1191C136.25,-1191 199,-1191 199,-1191 205,-1191 211,-1197 211,-1203 211,-1203 211,-1232 211,-1232 211,-1238 205,-1244 199,-1244 199,-1244 136.25,-1244 136.25,-1244 130.25,-1244 124.25,-1238 124.25,-1232 124.25,-1232 124.25,-1203 124.25,-1203 124.25,-1197 130.25,-1191 136.25,-1191"/>
<text text-anchor="middle" x="167.62" y="-1231.45" font-family="Helvetica,sans-Serif" font-weight="bold" font-size="9.00">application</text>
</g>
<g id="clust4" class="cluster">
<title>cluster_src/js/controller</title>
<path fill="#ffffff" stroke="black" stroke-width="2" d="M231,-1191C231,-1191 287.75,-1191 287.75,-1191 293.75,-1191 299.75,-1197 299.75,-1203 299.75,-1203 299.75,-1232 299.75,-1232 299.75,-1238 293.75,-1244 287.75,-1244 287.75,-1244 231,-1244 231,-1244 225,-1244 219,-1238 219,-1232 219,-1232 219,-1203 219,-1203 219,-1197 225,-1191 231,-1191"/>
<text text-anchor="middle" x="259.38" y="-1231.45" font-family="Helvetica,sans-Serif" font-weight="bold" font-size="9.00">controller</text>
</g>
<g id="clust5" class="cluster">
<title>cluster_src/js/data</title>
<path fill="#ffffff" stroke="black" stroke-width="2" d="M36,-584C36,-584 191.12,-584 191.12,-584 197.12,-584 203.12,-590 203.12,-596 203.12,-596 203.12,-625 203.12,-625 203.12,-631 197.12,-637 191.12,-637 191.12,-637 36,-637 36,-637 30,-637 24,-631 24,-625 24,-625 24,-596 24,-596 24,-590 30,-584 36,-584"/>
<text text-anchor="middle" x="113.56" y="-624.45" font-family="Helvetica,sans-Serif" font-weight="bold" font-size="9.00">data</text>
</g>
<g id="clust6" class="cluster">
<title>cluster_src/js/directable</title>
<path fill="#ffffff" stroke="black" stroke-width="2" d="M431,-24C431,-24 1198.25,-24 1198.25,-24 1204.25,-24 1210.25,-30 1210.25,-36 1210.25,-36 1210.25,-1184 1210.25,-1184 1210.25,-1190 1204.25,-1196 1198.25,-1196 1198.25,-1196 431,-1196 431,-1196 425,-1196 419,-1190 419,-1184 419,-1184 419,-36 419,-36 419,-30 425,-24 431,-24"/>
<text text-anchor="middle" x="814.62" y="-1183.45" font-family="Helvetica,sans-Serif" font-weight="bold" font-size="9.00">directable</text>
</g>
<g id="clust7" class="cluster">
<title>cluster_src/js/directable/dotmatrix</title>
<path fill="#ffffff" stroke="black" stroke-width="2" d="M474,-32C474,-32 1190.25,-32 1190.25,-32 1196.25,-32 1202.25,-38 1202.25,-44 1202.25,-44 1202.25,-755 1202.25,-755 1202.25,-761 1196.25,-767 1190.25,-767 1190.25,-767 474,-767 474,-767 468,-767 462,-761 462,-755 462,-755 462,-44 462,-44 462,-38 468,-32 474,-32"/>
<text text-anchor="middle" x="832.12" y="-754.45" font-family="Helvetica,sans-Serif" font-weight="bold" font-size="9.00">dotmatrix</text>
</g>
<g id="clust8" class="cluster">
<title>cluster_src/js/directable/dotmatrix/dot</title>
<path fill="#ffffff" stroke="black" stroke-width="2" d="M763.62,-194C763.62,-194 947.25,-194 947.25,-194 953.25,-194 959.25,-200 959.25,-206 959.25,-206 959.25,-235 959.25,-235 959.25,-241 953.25,-247 947.25,-247 947.25,-247 763.62,-247 763.62,-247 757.62,-247 751.62,-241 751.62,-235 751.62,-235 751.62,-206 751.62,-206 751.62,-200 757.62,-194 763.62,-194"/>
<text text-anchor="middle" x="855.44" y="-234.45" font-family="Helvetica,sans-Serif" font-weight="bold" font-size="9.00">dot</text>
</g>
<g id="clust9" class="cluster">
<title>cluster_src/js/directable/dotmatrix/grid</title>
<path fill="#ffffff" stroke="black" stroke-width="2" d="M897.38,-133C897.38,-133 951.12,-133 951.12,-133 957.12,-133 963.12,-139 963.12,-145 963.12,-145 963.12,-174 963.12,-174 963.12,-180 957.12,-186 951.12,-186 951.12,-186 897.38,-186 897.38,-186 891.38,-186 885.38,-180 885.38,-174 885.38,-174 885.38,-145 885.38,-145 885.38,-139 891.38,-133 897.38,-133"/>
<text text-anchor="middle" x="924.25" y="-173.45" font-family="Helvetica,sans-Serif" font-weight="bold" font-size="9.00">grid</text>
</g>
<g id="clust10" class="cluster">
<title>cluster_src/js/directable/dotmatrix/shape</title>
<path fill="#ffffff" stroke="black" stroke-width="2" d="M746.25,-255C746.25,-255 1182.25,-255 1182.25,-255 1188.25,-255 1194.25,-261 1194.25,-267 1194.25,-267 1194.25,-728 1194.25,-728 1194.25,-734 1188.25,-740 1182.25,-740 1182.25,-740 746.25,-740 746.25,-740 740.25,-740 734.25,-734 734.25,-728 734.25,-728 734.25,-267 734.25,-267 734.25,-261 740.25,-255 746.25,-255"/>
<text text-anchor="middle" x="964.25" y="-727.45" font-family="Helvetica,sans-Serif" font-weight="bold" font-size="9.00">shape</text>
</g>
<g id="clust11" class="cluster">
<title>cluster_src/js/directable/dotmatrix/shape/fill</title>
<path fill="#ffffff" stroke="black" stroke-width="2" d="M1008.25,-629C1008.25,-629 1174.25,-629 1174.25,-629 1180.25,-629 1186.25,-635 1186.25,-641 1186.25,-641 1186.25,-701 1186.25,-701 1186.25,-707 1180.25,-713 1174.25,-713 1174.25,-713 1008.25,-713 1008.25,-713 1002.25,-713 996.25,-707 996.25,-701 996.25,-701 996.25,-641 996.25,-641 996.25,-635 1002.25,-629 1008.25,-629"/>
<text text-anchor="middle" x="1091.25" y="-700.45" font-family="Helvetica,sans-Serif" font-weight="bold" font-size="9.00">fill</text>
</g>
<g id="clust12" class="cluster">
<title>cluster_src/js/directable/dotmatrix/shape/glyph</title>
<path fill="#ffffff" stroke="black" stroke-width="2" d="M757.25,-263C757.25,-263 837.25,-263 837.25,-263 843.25,-263 849.25,-269 849.25,-275 849.25,-275 849.25,-614 849.25,-614 849.25,-620 843.25,-626 837.25,-626 837.25,-626 757.25,-626 757.25,-626 751.25,-626 745.25,-620 745.25,-614 745.25,-614 745.25,-275 745.25,-275 745.25,-269 751.25,-263 757.25,-263"/>
<text text-anchor="middle" x="797.25" y="-613.45" font-family="Helvetica,sans-Serif" font-weight="bold" font-size="9.00">glyph</text>
</g>
<g id="clust13" class="cluster">
<title>cluster_src/js/directable/dotmatrix/shape/line</title>
<path fill="#ffffff" stroke="black" stroke-width="2" d="M872.25,-618C872.25,-618 976.25,-618 976.25,-618 982.25,-618 988.25,-624 988.25,-630 988.25,-630 988.25,-690 988.25,-690 988.25,-696 982.25,-702 976.25,-702 976.25,-702 872.25,-702 872.25,-702 866.25,-702 860.25,-696 860.25,-690 860.25,-690 860.25,-630 860.25,-630 860.25,-624 866.25,-618 872.25,-618"/>
<text text-anchor="middle" x="924.25" y="-689.45" font-family="Helvetica,sans-Serif" font-weight="bold" font-size="9.00">line</text>
</g>
<g id="clust14" class="cluster">
<title>cluster_src/js/directable/dotmatrix/shape/primative</title>
<path fill="#ffffff" stroke="black" stroke-width="2" d="M754.25,-634C754.25,-634 840.25,-634 840.25,-634 846.25,-634 852.25,-640 852.25,-646 852.25,-646 852.25,-675 852.25,-675 852.25,-681 846.25,-687 840.25,-687 840.25,-687 754.25,-687 754.25,-687 748.25,-687 742.25,-681 742.25,-675 742.25,-675 742.25,-646 742.25,-646 742.25,-640 748.25,-634 754.25,-634"/>
<text text-anchor="middle" x="797.25" y="-674.45" font-family="Helvetica,sans-Serif" font-weight="bold" font-size="9.00">primative</text>
</g>
<g id="clust15" class="cluster">
<title>cluster_src/js/directable/dotmatrix/view</title>
<path fill="#ffffff" stroke="black" stroke-width="2" d="M632,-40C632,-40 824.12,-40 824.12,-40 830.12,-40 836.12,-46 836.12,-52 836.12,-52 836.12,-174 836.12,-174 836.12,-180 830.12,-186 824.12,-186 824.12,-186 632,-186 632,-186 626,-186 620,-180 620,-174 620,-174 620,-52 620,-52 620,-46 626,-40 632,-40"/>
<text text-anchor="middle" x="728.06" y="-173.45" font-family="Helvetica,sans-Serif" font-weight="bold" font-size="9.00">view</text>
</g>
<g id="clust16" class="cluster">
<title>cluster_src/js/directable/frame</title>
<path fill="#ffffff" stroke="black" stroke-width="2" d="M480.38,-775C480.38,-775 565.62,-775 565.62,-775 571.62,-775 577.62,-781 577.62,-787 577.62,-787 577.62,-816 577.62,-816 577.62,-822 571.62,-828 565.62,-828 565.62,-828 480.38,-828 480.38,-828 474.38,-828 468.38,-822 468.38,-816 468.38,-816 468.38,-787 468.38,-787 468.38,-781 474.38,-775 480.38,-775"/>
<text text-anchor="middle" x="523" y="-815.45" font-family="Helvetica,sans-Serif" font-weight="bold" font-size="9.00">frame</text>
</g>
<g id="clust17" class="cluster">
<title>cluster_src/js/directable/rhythm</title>
<path fill="#ffffff" stroke="black" stroke-width="2" d="M439,-836C439,-836 713.88,-836 713.88,-836 719.88,-836 725.88,-842 725.88,-848 725.88,-848 725.88,-1035 725.88,-1035 725.88,-1041 719.88,-1047 713.88,-1047 713.88,-1047 439,-1047 439,-1047 433,-1047 427,-1041 427,-1035 427,-1035 427,-848 427,-848 427,-842 433,-836 439,-836"/>
<text text-anchor="middle" x="576.44" y="-1034.45" font-family="Helvetica,sans-Serif" font-weight="bold" font-size="9.00">rhythm</text>
</g>
<g id="clust18" class="cluster">
<title>cluster_src/js/directable/rhythm/asdr</title>
<path fill="#ffffff" stroke="black" stroke-width="2" d="M447,-844C447,-844 599,-844 599,-844 605,-844 611,-850 611,-856 611,-856 611,-947 611,-947 611,-953 605,-959 599,-959 599,-959 447,-959 447,-959 441,-959 435,-953 435,-947 435,-947 435,-856 435,-856 435,-850 441,-844 447,-844"/>
<text text-anchor="middle" x="523" y="-946.45" font-family="Helvetica,sans-Serif" font-weight="bold" font-size="9.00">asdr</text>
</g>
<g id="clust19" class="cluster">
<title>cluster_src/js/directable/rhythm/bpm</title>
<path fill="#ffffff" stroke="black" stroke-width="2" d="M468,-967C468,-967 578,-967 578,-967 584,-967 590,-973 590,-979 590,-979 590,-1008 590,-1008 590,-1014 584,-1020 578,-1020 578,-1020 468,-1020 468,-1020 462,-1020 456,-1014 456,-1008 456,-1008 456,-979 456,-979 456,-973 462,-967 468,-967"/>
<text text-anchor="middle" x="523" y="-1007.45" font-family="Helvetica,sans-Serif" font-weight="bold" font-size="9.00">bpm</text>
</g>
<g id="clust20" class="cluster">
<title>cluster_src/js/directable/rhythm2</title>
<path fill="#ffffff" stroke="black" stroke-width="2" d="M488.62,-1055C488.62,-1055 714.25,-1055 714.25,-1055 720.25,-1055 726.25,-1061 726.25,-1067 726.25,-1067 726.25,-1096 726.25,-1096 726.25,-1102 720.25,-1108 714.25,-1108 714.25,-1108 488.62,-1108 488.62,-1108 482.62,-1108 476.62,-1102 476.62,-1096 476.62,-1096 476.62,-1067 476.62,-1067 476.62,-1061 482.62,-1055 488.62,-1055"/>
<text text-anchor="middle" x="601.44" y="-1095.45" font-family="Helvetica,sans-Serif" font-weight="bold" font-size="9.00">rhythm2</text>
</g>
<g id="clust21" class="cluster">
<title>cluster_src/js/directable/title</title>
<path fill="#ffffff" stroke="black" stroke-width="2" d="M484.88,-1116C484.88,-1116 561.12,-1116 561.12,-1116 567.12,-1116 573.12,-1122 573.12,-1128 573.12,-1128 573.12,-1157 573.12,-1157 573.12,-1163 567.12,-1169 561.12,-1169 561.12,-1169 484.88,-1169 484.88,-1169 478.88,-1169 472.88,-1163 472.88,-1157 472.88,-1157 472.88,-1128 472.88,-1128 472.88,-1122 478.88,-1116 484.88,-1116"/>
<text text-anchor="middle" x="523" y="-1156.45" font-family="Helvetica,sans-Serif" font-weight="bold" font-size="9.00">title</text>
</g>
<g id="clust22" class="cluster">
<title>cluster_src/js/director</title>
<path fill="#ffffff" stroke="black" stroke-width="2" d="M335.12,-1116C335.12,-1116 383.62,-1116 383.62,-1116 389.62,-1116 395.62,-1122 395.62,-1128 395.62,-1128 395.62,-1157 395.62,-1157 395.62,-1163 389.62,-1169 383.62,-1169 383.62,-1169 335.12,-1169 335.12,-1169 329.12,-1169 323.12,-1163 323.12,-1157 323.12,-1157 323.12,-1128 323.12,-1128 323.12,-1122 329.12,-1116 335.12,-1116"/>
<text text-anchor="middle" x="359.38" y="-1156.45" font-family="Helvetica,sans-Serif" font-weight="bold" font-size="9.00">director</text>
</g>
<g id="clust23" class="cluster">
<title>cluster_src/js/display</title>
<path fill="#ffffff" stroke="black" stroke-width="2" d="M499.5,-1204C499.5,-1204 709,-1204 709,-1204 715,-1204 721,-1210 721,-1216 721,-1216 721,-1245 721,-1245 721,-1251 715,-1257 709,-1257 709,-1257 499.5,-1257 499.5,-1257 493.5,-1257 487.5,-1251 487.5,-1245 487.5,-1245 487.5,-1216 487.5,-1216 487.5,-1210 493.5,-1204 499.5,-1204"/>
<text text-anchor="middle" x="604.25" y="-1244.45" font-family="Helvetica,sans-Serif" font-weight="bold" font-size="9.00">display</text>
</g>
<g id="clust24" class="cluster">
<title>cluster_src/js/overlay</title>
<path fill="#ffffff" stroke="black" stroke-width="2" d="M335.5,-1265C335.5,-1265 699.62,-1265 699.62,-1265 705.62,-1265 711.62,-1271 711.62,-1277 711.62,-1277 711.62,-1402 711.62,-1402 711.62,-1408 705.62,-1414 699.62,-1414 699.62,-1414 335.5,-1414 335.5,-1414 329.5,-1414 323.5,-1408 323.5,-1402 323.5,-1402 323.5,-1277 323.5,-1277 323.5,-1271 329.5,-1265 335.5,-1265"/>
<text text-anchor="middle" x="517.56" y="-1401.45" font-family="Helvetica,sans-Serif" font-weight="bold" font-size="9.00">overlay</text>
</g>
<g id="clust25" class="cluster">
<title>cluster_src/js/overlay/displayFormat</title>
<path fill="#ffffff" stroke="black" stroke-width="2" d="M469.12,-1273C469.12,-1273 576.88,-1273 576.88,-1273 582.88,-1273 588.88,-1279 588.88,-1285 588.88,-1285 588.88,-1314 588.88,-1314 588.88,-1320 582.88,-1326 576.88,-1326 576.88,-1326 469.12,-1326 469.12,-1326 463.12,-1326 457.12,-1320 457.12,-1314 457.12,-1314 457.12,-1285 457.12,-1285 457.12,-1279 463.12,-1273 469.12,-1273"/>
<text text-anchor="middle" x="523" y="-1313.45" font-family="Helvetica,sans-Serif" font-weight="bold" font-size="9.00">displayFormat</text>
</g>
<g id="clust26" class="cluster">
<title>cluster_src/js/overlay/overlay</title>
<path fill="#ffffff" stroke="black" stroke-width="2" d="M483.38,-1334C483.38,-1334 562.62,-1334 562.62,-1334 568.62,-1334 574.62,-1340 574.62,-1346 574.62,-1346 574.62,-1375 574.62,-1375 574.62,-1381 568.62,-1387 562.62,-1387 562.62,-1387 483.38,-1387 483.38,-1387 477.38,-1387 471.38,-1381 471.38,-1375 471.38,-1375 471.38,-1346 471.38,-1346 471.38,-1340 477.38,-1334 483.38,-1334"/>
<text text-anchor="middle" x="523" y="-1374.45" font-family="Helvetica,sans-Serif" font-weight="bold" font-size="9.00">overlay</text>
</g>
<g id="clust27" class="cluster">
<title>cluster_src/js/render</title>
<path fill="#ffffff" stroke="black" stroke-width="2" d="M319.75,-1204C319.75,-1204 399,-1204 399,-1204 405,-1204 411,-1210 411,-1216 411,-1216 411,-1245 411,-1245 411,-1251 405,-1257 399,-1257 399,-1257 319.75,-1257 319.75,-1257 313.75,-1257 307.75,-1251 307.75,-1245 307.75,-1245 307.75,-1216 307.75,-1216 307.75,-1210 313.75,-1204 319.75,-1204"/>
<text text-anchor="middle" x="359.38" y="-1244.45" font-family="Helvetica,sans-Serif" font-weight="bold" font-size="9.00">render</text>
</g>
<!-- src/js/application/Application.js -->
<g id="node1" class="node">
<title>src/js/application/Application.js</title>
<g id="a_node1"><a xlink:href="src/js/application/Application.js" xlink:title="Application.js">
<path fill="#ffffcc" stroke="black" d="M196.83,-1217.25C196.83,-1217.25 138.42,-1217.25 138.42,-1217.25 135.33,-1217.25 132.25,-1214.17 132.25,-1211.08 132.25,-1211.08 132.25,-1204.92 132.25,-1204.92 132.25,-1201.83 135.33,-1198.75 138.42,-1198.75 138.42,-1198.75 196.83,-1198.75 196.83,-1198.75 199.92,-1198.75 203,-1201.83 203,-1204.92 203,-1204.92 203,-1211.08 203,-1211.08 203,-1214.17 199.92,-1217.25 196.83,-1217.25"/>
<text text-anchor="start" x="140.25" y="-1204.7" font-family="Helvetica,sans-Serif" font-size="9.00">Application.js</text>
</a>
</g>
</g>
<!-- src/js/controller/Controller.js -->
<g id="node2" class="node">
<title>src/js/controller/Controller.js</title>
<g id="a_node2"><a xlink:href="src/js/controller/Controller.js" xlink:title="Controller.js">
<path fill="#ffffcc" stroke="black" d="M285.58,-1217.25C285.58,-1217.25 233.17,-1217.25 233.17,-1217.25 230.08,-1217.25 227,-1214.17 227,-1211.08 227,-1211.08 227,-1204.92 227,-1204.92 227,-1201.83 230.08,-1198.75 233.17,-1198.75 233.17,-1198.75 285.58,-1198.75 285.58,-1198.75 288.67,-1198.75 291.75,-1201.83 291.75,-1204.92 291.75,-1204.92 291.75,-1211.08 291.75,-1211.08 291.75,-1214.17 288.67,-1217.25 285.58,-1217.25"/>
<text text-anchor="start" x="235" y="-1204.7" font-family="Helvetica,sans-Serif" font-size="9.00">Controller.js</text>
</a>
</g>
</g>
<!-- src/js/application/Application.js&#45;&gt;src/js/controller/Controller.js -->
<g id="edge1" class="edge">
<title>src/js/application/Application.js&#45;&gt;src/js/controller/Controller.js</title>
<path fill="none" stroke="#000000" stroke-width="2" stroke-opacity="0.200000" d="M203.32,-1208C208.13,-1208 213.11,-1208 218.01,-1208"/>
<polygon fill="#000000" fill-opacity="0.200000" stroke="#000000" stroke-width="2" stroke-opacity="0.200000" points="217.68,-1210.1 223.68,-1208 217.68,-1205.9 217.68,-1210.1"/>
</g>
<!-- src/js/director/Director.js -->
<g id="node3" class="node">
<title>src/js/director/Director.js</title>
<g id="a_node3"><a xlink:href="src/js/director/Director.js" xlink:title="Director.js">
<path fill="#ffffcc" stroke="black" d="M381.46,-1142.25C381.46,-1142.25 337.29,-1142.25 337.29,-1142.25 334.21,-1142.25 331.12,-1139.17 331.12,-1136.08 331.12,-1136.08 331.12,-1129.92 331.12,-1129.92 331.12,-1126.83 334.21,-1123.75 337.29,-1123.75 337.29,-1123.75 381.46,-1123.75 381.46,-1123.75 384.54,-1123.75 387.62,-1126.83 387.62,-1129.92 387.62,-1129.92 387.62,-1136.08 387.62,-1136.08 387.62,-1139.17 384.54,-1142.25 381.46,-1142.25"/>
<text text-anchor="start" x="339.12" y="-1129.7" font-family="Helvetica,sans-Serif" font-size="9.00">Director.js</text>
</a>
</g>
</g>
<!-- src/js/controller/Controller.js&#45;&gt;src/js/director/Director.js -->
<g id="edge2" class="edge">
<title>src/js/controller/Controller.js&#45;&gt;src/js/director/Director.js</title>
<path fill="none" stroke="#000000" stroke-width="2" stroke-opacity="0.200000" d="M272.79,-1198.5C289.41,-1185.78 319.09,-1163.07 338.76,-1148.02"/>
<polygon fill="#000000" fill-opacity="0.200000" stroke="#000000" stroke-width="2" stroke-opacity="0.200000" points="339.86,-1149.81 343.35,-1144.5 337.31,-1146.48 339.86,-1149.81"/>
</g>
<!-- src/js/display/Display.js -->
<g id="node4" class="node">
<title>src/js/display/Display.js</title>
<g id="a_node4"><a xlink:href="src/js/display/Display.js" xlink:title="Display.js">
<path fill="#ffffcc" stroke="black" d="M544.33,-1230.25C544.33,-1230.25 501.67,-1230.25 501.67,-1230.25 498.58,-1230.25 495.5,-1227.17 495.5,-1224.08 495.5,-1224.08 495.5,-1217.92 495.5,-1217.92 495.5,-1214.83 498.58,-1211.75 501.67,-1211.75 501.67,-1211.75 544.33,-1211.75 544.33,-1211.75 547.42,-1211.75 550.5,-1214.83 550.5,-1217.92 550.5,-1217.92 550.5,-1224.08 550.5,-1224.08 550.5,-1227.17 547.42,-1230.25 544.33,-1230.25"/>
<text text-anchor="start" x="503.5" y="-1217.7" font-family="Helvetica,sans-Serif" font-size="9.00">Display.js</text>
</a>
</g>
</g>
<!-- src/js/controller/Controller.js&#45;&gt;src/js/display/Display.js -->
<g id="edge3" class="edge">
<title>src/js/controller/Controller.js&#45;&gt;src/js/display/Display.js</title>
<path fill="none" stroke="#000000" stroke-width="2" stroke-opacity="0.200000" d="M292.16,-1202.65C297.35,-1201.96 302.69,-1201.37 307.75,-1201 353.52,-1197.64 365.29,-1196.92 411,-1201 436.54,-1203.28 465,-1208.46 486.7,-1212.98"/>
<polygon fill="#000000" fill-opacity="0.200000" stroke="#000000" stroke-width="2" stroke-opacity="0.200000" points="486,-1214.98 492.3,-1214.17 486.87,-1210.87 486,-1214.98"/>
</g>
<!-- src/js/overlay/Overlay.js -->
<g id="node5" class="node">
<title>src/js/overlay/Overlay.js</title>
<g id="a_node5"><a xlink:href="src/js/overlay/Overlay.js" xlink:title="Overlay.js">
<path fill="#ffffcc" stroke="black" d="M381.08,-1299.25C381.08,-1299.25 337.67,-1299.25 337.67,-1299.25 334.58,-1299.25 331.5,-1296.17 331.5,-1293.08 331.5,-1293.08 331.5,-1286.92 331.5,-1286.92 331.5,-1283.83 334.58,-1280.75 337.67,-1280.75 337.67,-1280.75 381.08,-1280.75 381.08,-1280.75 384.17,-1280.75 387.25,-1283.83 387.25,-1286.92 387.25,-1286.92 387.25,-1293.08 387.25,-1293.08 387.25,-1296.17 384.17,-1299.25 381.08,-1299.25"/>
<text text-anchor="start" x="339.5" y="-1286.7" font-family="Helvetica,sans-Serif" font-size="9.00">Overlay.js</text>
</a>
</g>
</g>
<!-- src/js/controller/Controller.js&#45;&gt;src/js/overlay/Overlay.js -->
<g id="edge4" class="edge">
<title>src/js/controller/Controller.js&#45;&gt;src/js/overlay/Overlay.js</title>
<path fill="none" stroke="#000000" stroke-width="2" stroke-opacity="0.200000" d="M267.68,-1217.62C276.41,-1228.7 291.84,-1247.04 307.75,-1260 315,-1265.9 323.53,-1271.42 331.51,-1276.07"/>
<polygon fill="#000000" fill-opacity="0.200000" stroke="#000000" stroke-width="2" stroke-opacity="0.200000" points="330.33,-1277.82 336.59,-1278.93 332.39,-1274.16 330.33,-1277.82"/>
</g>
<!-- src/js/render/RenderSurface.js -->
<g id="node6" class="node">
<title>src/js/render/RenderSurface.js</title>
<g id="a_node6"><a xlink:href="src/js/render/RenderSurface.js" xlink:title="RenderSurface.js">
<path fill="#ffffcc" stroke="black" d="M396.83,-1230.25C396.83,-1230.25 321.92,-1230.25 321.92,-1230.25 318.83,-1230.25 315.75,-1227.17 315.75,-1224.08 315.75,-1224.08 315.75,-1217.92 315.75,-1217.92 315.75,-1214.83 318.83,-1211.75 321.92,-1211.75 321.92,-1211.75 396.83,-1211.75 396.83,-1211.75 399.92,-1211.75 403,-1214.83 403,-1217.92 403,-1217.92 403,-1224.08 403,-1224.08 403,-1227.17 399.92,-1230.25 396.83,-1230.25"/>
<text text-anchor="start" x="323.75" y="-1217.7" font-family="Helvetica,sans-Serif" font-size="9.00">RenderSurface.js</text>
</a>
</g>
</g>
<!-- src/js/controller/Controller.js&#45;&gt;src/js/render/RenderSurface.js -->
<g id="edge5" class="edge">
<title>src/js/controller/Controller.js&#45;&gt;src/js/render/RenderSurface.js</title>
<path fill="none" stroke="#000000" stroke-width="2" stroke-opacity="0.200000" d="M292.19,-1212.22C296.8,-1212.83 301.65,-1213.47 306.53,-1214.12"/>
<polygon fill="#000000" fill-opacity="0.200000" stroke="#000000" stroke-width="2" stroke-opacity="0.200000" points="306.09,-1216.18 312.31,-1214.89 306.64,-1212.02 306.09,-1216.18"/>
</g>
<!-- src/js/directable/dotmatrix/DirectableDotMatrix.js -->
<g id="node9" class="node">
<title>src/js/directable/dotmatrix/DirectableDotMatrix.js</title>
<g id="a_node9"><a xlink:href="src/js/directable/dotmatrix/DirectableDotMatrix.js" xlink:title="DirectableDotMatrix.js">
<path fill="#ffffcc" stroke="black" d="M569.83,-403.25C569.83,-403.25 476.17,-403.25 476.17,-403.25 473.08,-403.25 470,-400.17 470,-397.08 470,-397.08 470,-390.92 470,-390.92 470,-387.83 473.08,-384.75 476.17,-384.75 476.17,-384.75 569.83,-384.75 569.83,-384.75 572.92,-384.75 576,-387.83 576,-390.92 576,-390.92 576,-397.08 576,-397.08 576,-400.17 572.92,-403.25 569.83,-403.25"/>
<text text-anchor="start" x="478" y="-390.7" font-family="Helvetica,sans-Serif" font-size="9.00">DirectableDotMatrix.js</text>
</a>
</g>
</g>
<!-- src/js/director/Director.js&#45;&gt;src/js/directable/dotmatrix/DirectableDotMatrix.js -->
<g id="edge29" class="edge">
<title>src/js/director/Director.js&#45;&gt;src/js/directable/dotmatrix/DirectableDotMatrix.js</title>
<path fill="none" stroke="#000000" stroke-width="2" stroke-opacity="0.200000" d="M361.55,-1123.45C366.78,-1081.6 389,-910.38 419,-772 449.39,-631.85 499.59,-466.15 516.35,-412.05"/>
<polygon fill="#000000" fill-opacity="0.200000" stroke="#000000" stroke-width="2" stroke-opacity="0.200000" points="518.32,-412.79 518.1,-406.44 514.31,-411.54 518.32,-412.79"/>
</g>
<!-- src/js/directable/title/DirectableTitle.js -->
<g id="node46" class="node">
<title>src/js/directable/title/DirectableTitle.js</title>
<g id="a_node46"><a xlink:href="src/js/directable/title/DirectableTitle.js" xlink:title="DirectableTitle.js">
<path fill="#ffffcc" stroke="black" d="M558.96,-1142.25C558.96,-1142.25 487.04,-1142.25 487.04,-1142.25 483.96,-1142.25 480.88,-1139.17 480.88,-1136.08 480.88,-1136.08 480.88,-1129.92 480.88,-1129.92 480.88,-1126.83 483.96,-1123.75 487.04,-1123.75 487.04,-1123.75 558.96,-1123.75 558.96,-1123.75 562.04,-1123.75 565.12,-1126.83 565.12,-1129.92 565.12,-1129.92 565.12,-1136.08 565.12,-1136.08 565.12,-1139.17 562.04,-1142.25 558.96,-1142.25"/>
<text text-anchor="start" x="488.88" y="-1129.7" font-family="Helvetica,sans-Serif" font-size="9.00">DirectableTitle.js</text>
</a>
</g>
</g>
<!-- src/js/director/Director.js&#45;&gt;src/js/directable/title/DirectableTitle.js -->
<g id="edge30" class="edge">
<title>src/js/director/Director.js&#45;&gt;src/js/directable/title/DirectableTitle.js</title>
<path fill="none" stroke="#000000" stroke-width="2" stroke-opacity="0.200000" d="M387.79,-1133C410.71,-1133 444,-1133 471.69,-1133"/>
<polygon fill="#000000" fill-opacity="0.200000" stroke="#000000" stroke-width="2" stroke-opacity="0.200000" points="471.43,-1135.1 477.43,-1133 471.43,-1130.9 471.43,-1135.1"/>
</g>
<!-- src/js/display/DisplayFormats.js -->
<g id="node47" class="node">
<title>src/js/display/DisplayFormats.js</title>
<g id="a_node47"><a xlink:href="src/js/display/DisplayFormats.js" xlink:title="DisplayFormats.js">
<path fill="#ffffcc" stroke="black" d="M706.83,-1230.25C706.83,-1230.25 630.42,-1230.25 630.42,-1230.25 627.33,-1230.25 624.25,-1227.17 624.25,-1224.08 624.25,-1224.08 624.25,-1217.92 624.25,-1217.92 624.25,-1214.83 627.33,-1211.75 630.42,-1211.75 630.42,-1211.75 706.83,-1211.75 706.83,-1211.75 709.92,-1211.75 713,-1214.83 713,-1217.92 713,-1217.92 713,-1224.08 713,-1224.08 713,-1227.17 709.92,-1230.25 706.83,-1230.25"/>
<text text-anchor="start" x="632.25" y="-1217.7" font-family="Helvetica,sans-Serif" font-size="9.00">DisplayFormats.js</text>
</a>
</g>
</g>
<!-- src/js/display/Display.js&#45;&gt;src/js/display/DisplayFormats.js -->
<g id="edge31" class="edge">
<title>src/js/display/Display.js&#45;&gt;src/js/display/DisplayFormats.js</title>
<path fill="none" stroke="#000000" stroke-width="2" stroke-opacity="0.200000" d="M550.68,-1221C568.72,-1221 593.15,-1221 615.01,-1221"/>
<polygon fill="#000000" fill-opacity="0.200000" stroke="#000000" stroke-width="2" stroke-opacity="0.200000" points="614.85,-1223.1 620.85,-1221 614.85,-1218.9 614.85,-1223.1"/>
</g>
<!-- src/js/overlay/displayFormat/OverlayDisplayFormat.js -->
<g id="node49" class="node">
<title>src/js/overlay/displayFormat/OverlayDisplayFormat.js</title>
<g id="a_node49"><a xlink:href="src/js/overlay/displayFormat/OverlayDisplayFormat.js" xlink:title="OverlayDisplayFormat.js">
<path fill="#ffffcc" stroke="black" d="M574.71,-1299.25C574.71,-1299.25 471.29,-1299.25 471.29,-1299.25 468.21,-1299.25 465.12,-1296.17 465.12,-1293.08 465.12,-1293.08 465.12,-1286.92 465.12,-1286.92 465.12,-1283.83 468.21,-1280.75 471.29,-1280.75 471.29,-1280.75 574.71,-1280.75 574.71,-1280.75 577.79,-1280.75 580.88,-1283.83 580.88,-1286.92 580.88,-1286.92 580.88,-1293.08 580.88,-1293.08 580.88,-1296.17 577.79,-1299.25 574.71,-1299.25"/>
<text text-anchor="start" x="473.12" y="-1286.7" font-family="Helvetica,sans-Serif" font-size="9.00">OverlayDisplayFormat.js</text>
</a>
</g>
</g>
<!-- src/js/overlay/Overlay.js&#45;&gt;src/js/overlay/displayFormat/OverlayDisplayFormat.js -->
<g id="edge33" class="edge">
<title>src/js/overlay/Overlay.js&#45;&gt;src/js/overlay/displayFormat/OverlayDisplayFormat.js</title>
<path fill="none" stroke="#000000" stroke-width="2" stroke-opacity="0.200000" d="M387.43,-1290C406.16,-1290 431.93,-1290 455.92,-1290"/>
<polygon fill="#000000" fill-opacity="0.200000" stroke="#000000" stroke-width="2" stroke-opacity="0.200000" points="455.63,-1292.1 461.63,-1290 455.63,-1287.9 455.63,-1292.1"/>
</g>
<!-- src/js/overlay/overlay/OverlayOverlay.js -->
<g id="node50" class="node">
<title>src/js/overlay/overlay/OverlayOverlay.js</title>
<g id="a_node50"><a xlink:href="src/js/overlay/overlay/OverlayOverlay.js" xlink:title="OverlayOverlay.js">
<path fill="#ffffcc" stroke="black" d="M560.46,-1360.25C560.46,-1360.25 485.54,-1360.25 485.54,-1360.25 482.46,-1360.25 479.38,-1357.17 479.38,-1354.08 479.38,-1354.08 479.38,-1347.92 479.38,-1347.92 479.38,-1344.83 482.46,-1341.75 485.54,-1341.75 485.54,-1341.75 560.46,-1341.75 560.46,-1341.75 563.54,-1341.75 566.62,-1344.83 566.62,-1347.92 566.62,-1347.92 566.62,-1354.08 566.62,-1354.08 566.62,-1357.17 563.54,-1360.25 560.46,-1360.25"/>
<text text-anchor="start" x="487.38" y="-1347.7" font-family="Helvetica,sans-Serif" font-size="9.00">OverlayOverlay.js</text>
</a>
</g>
</g>
<!-- src/js/overlay/Overlay.js&#45;&gt;src/js/overlay/overlay/OverlayOverlay.js -->
<g id="edge34" class="edge">
<title>src/js/overlay/Overlay.js&#45;&gt;src/js/overlay/overlay/OverlayOverlay.js</title>
<path fill="none" stroke="#000000" stroke-width="2" stroke-opacity="0.200000" d="M371.75,-1299.47C383.04,-1308.4 401.2,-1321.5 419,-1329 435.14,-1335.8 453.63,-1340.59 470.44,-1343.93"/>
<polygon fill="#000000" fill-opacity="0.200000" stroke="#000000" stroke-width="2" stroke-opacity="0.200000" points="469.8,-1345.94 476.09,-1344.98 470.57,-1341.81 469.8,-1345.94"/>
</g>
<!-- src/js/render/RenderSurface.js&#45;&gt;src/js/display/Display.js -->
<g id="edge38" class="edge">
<title>src/js/render/RenderSurface.js&#45;&gt;src/js/display/Display.js</title>
<path fill="none" stroke="#000000" stroke-width="2" stroke-opacity="0.200000" d="M403.26,-1221C429.14,-1221 461.72,-1221 486.2,-1221"/>
<polygon fill="#000000" fill-opacity="0.200000" stroke="#000000" stroke-width="2" stroke-opacity="0.200000" points="486.13,-1223.1 492.13,-1221 486.13,-1218.9 486.13,-1223.1"/>
</g>
<!-- src/js/data/Data.json -->
<g id="node7" class="node">
<title>src/js/data/Data.json</title>
<g id="a_node7"><a xlink:href="src/js/data/Data.json" xlink:title="Data.json">
<path fill="#ffee44" stroke="black" d="M188.96,-610.25C188.96,-610.25 146.29,-610.25 146.29,-610.25 143.21,-610.25 140.12,-607.17 140.12,-604.08 140.12,-604.08 140.12,-597.92 140.12,-597.92 140.12,-594.83 143.21,-591.75 146.29,-591.75 146.29,-591.75 188.96,-591.75 188.96,-591.75 192.04,-591.75 195.12,-594.83 195.12,-597.92 195.12,-597.92 195.12,-604.08 195.12,-604.08 195.12,-607.17 192.04,-610.25 188.96,-610.25"/>
<text text-anchor="start" x="148.12" y="-597.7" font-family="Helvetica,sans-Serif" font-size="9.00">Data.json</text>
</a>
</g>
</g>
<!-- src/js/data/DataController.js -->
<g id="node8" class="node">
<title>src/js/data/DataController.js</title>
<g id="a_node8"><a xlink:href="src/js/data/DataController.js" xlink:title="DataController.js">
<path fill="#ffffcc" stroke="black" d="M110.08,-610.25C110.08,-610.25 38.17,-610.25 38.17,-610.25 35.08,-610.25 32,-607.17 32,-604.08 32,-604.08 32,-597.92 32,-597.92 32,-594.83 35.08,-591.75 38.17,-591.75 38.17,-591.75 110.08,-591.75 110.08,-591.75 113.17,-591.75 116.25,-594.83 116.25,-597.92 116.25,-597.92 116.25,-604.08 116.25,-604.08 116.25,-607.17 113.17,-610.25 110.08,-610.25"/>
<text text-anchor="start" x="40" y="-597.7" font-family="Helvetica,sans-Serif" font-size="9.00">DataController.js</text>
</a>
</g>
</g>
<!-- src/js/data/DataController.js&#45;&gt;src/js/data/Data.json -->
<g id="edge6" class="edge">
<title>src/js/data/DataController.js&#45;&gt;src/js/data/Data.json</title>
<path fill="none" stroke="#000000" stroke-width="2" stroke-opacity="0.200000" d="M116.59,-601C121.37,-601 126.22,-601 130.92,-601"/>
<polygon fill="#000000" fill-opacity="0.200000" stroke="#000000" stroke-width="2" stroke-opacity="0.200000" points="130.69,-603.1 136.69,-601 130.69,-598.9 130.69,-603.1"/>
</g>
<!-- src/js/directable/dotmatrix/view/ViewManager.js -->
<g id="node10" class="node">
<title>src/js/directable/dotmatrix/view/ViewManager.js</title>
<g id="a_node10"><a xlink:href="src/js/directable/dotmatrix/view/ViewManager.js" xlink:title="ViewManager.js">
<path fill="#ffffcc" stroke="black" d="M703.08,-66.25C703.08,-66.25 634.17,-66.25 634.17,-66.25 631.08,-66.25 628,-63.17 628,-60.08 628,-60.08 628,-53.92 628,-53.92 628,-50.83 631.08,-47.75 634.17,-47.75 634.17,-47.75 703.08,-47.75 703.08,-47.75 706.17,-47.75 709.25,-50.83 709.25,-53.92 709.25,-53.92 709.25,-60.08 709.25,-60.08 709.25,-63.17 706.17,-66.25 703.08,-66.25"/>
<text text-anchor="start" x="636" y="-53.7" font-family="Helvetica,sans-Serif" font-size="9.00">ViewManager.js</text>
</a>
</g>
</g>
<!-- src/js/directable/dotmatrix/DirectableDotMatrix.js&#45;&gt;src/js/directable/dotmatrix/view/ViewManager.js -->
<g id="edge7" class="edge">
<title>src/js/directable/dotmatrix/DirectableDotMatrix.js&#45;&gt;src/js/directable/dotmatrix/view/ViewManager.js</title>
<path fill="none" stroke="#000000" stroke-width="2" stroke-opacity="0.200000" d="M523.83,-384.3C523.62,-341.34 528.55,-166.22 619,-73 619.57,-72.41 620.16,-71.85 620.77,-71.31"/>
<polygon fill="#000000" fill-opacity="0.200000" stroke="#000000" stroke-width="2" stroke-opacity="0.200000" points="621.79,-73.16 625.47,-67.98 619.36,-69.73 621.79,-73.16"/>
</g>
<!-- src/js/directable/dotmatrix/dot/DotManager.js -->
<g id="node12" class="node">
<title>src/js/directable/dotmatrix/dot/DotManager.js</title>
<g id="a_node12"><a xlink:href="src/js/directable/dotmatrix/dot/DotManager.js" xlink:title="DotManager.js">
<path fill="#ffffcc" stroke="black" d="M828.71,-220.25C828.71,-220.25 765.79,-220.25 765.79,-220.25 762.71,-220.25 759.62,-217.17 759.62,-214.08 759.62,-214.08 759.62,-207.92 759.62,-207.92 759.62,-204.83 762.71,-201.75 765.79,-201.75 765.79,-201.75 828.71,-201.75 828.71,-201.75 831.79,-201.75 834.88,-204.83 834.88,-207.92 834.88,-207.92 834.88,-214.08 834.88,-214.08 834.88,-217.17 831.79,-220.25 828.71,-220.25"/>
<text text-anchor="start" x="767.62" y="-207.7" font-family="Helvetica,sans-Serif" font-size="9.00">DotManager.js</text>
</a>
</g>
</g>
<!-- src/js/directable/dotmatrix/view/ViewManager.js&#45;&gt;src/js/directable/dotmatrix/dot/DotManager.js -->
<g id="edge20" class="edge">
<title>src/js/directable/dotmatrix/view/ViewManager.js&#45;&gt;src/js/directable/dotmatrix/dot/DotManager.js</title>
<path fill="none" stroke="#000000" stroke-width="2" stroke-opacity="0.200000" d="M709.59,-61.6C716,-64.06 721.93,-67.69 726.25,-73 742.54,-93.06 718.63,-168.42 734.25,-189 738.67,-194.82 744.75,-199.1 751.39,-202.26"/>
<polygon fill="#000000" fill-opacity="0.200000" stroke="#000000" stroke-width="2" stroke-opacity="0.200000" points="750.21,-204.05 756.56,-204.34 751.77,-200.15 750.21,-204.05"/>
</g>
<!-- src/js/directable/dotmatrix/grid/GridData.js -->
<g id="node13" class="node">
<title>src/js/directable/dotmatrix/grid/GridData.js</title>
<g id="a_node13"><a xlink:href="src/js/directable/dotmatrix/grid/GridData.js" xlink:title="GridData.js">
<path fill="#ffffcc" stroke="black" d="M948.96,-159.25C948.96,-159.25 899.54,-159.25 899.54,-159.25 896.46,-159.25 893.38,-156.17 893.38,-153.08 893.38,-153.08 893.38,-146.92 893.38,-146.92 893.38,-143.83 896.46,-140.75 899.54,-140.75 899.54,-140.75 948.96,-140.75 948.96,-140.75 952.04,-140.75 955.12,-143.83 955.12,-146.92 955.12,-146.92 955.12,-153.08 955.12,-153.08 955.12,-156.17 952.04,-159.25 948.96,-159.25"/>
<text text-anchor="start" x="901.38" y="-146.7" font-family="Helvetica,sans-Serif" font-size="9.00">GridData.js</text>
</a>
</g>
</g>
<!-- src/js/directable/dotmatrix/view/ViewManager.js&#45;&gt;src/js/directable/dotmatrix/grid/GridData.js -->
<g id="edge21" class="edge">
<title>src/js/directable/dotmatrix/view/ViewManager.js&#45;&gt;src/js/directable/dotmatrix/grid/GridData.js</title>
<path fill="none" stroke="#000000" stroke-width="2" stroke-opacity="0.200000" d="M709.59,-61.95C715.92,-64.38 721.83,-67.91 726.25,-73 743.6,-92.98 715.17,-113.66 734.25,-132 773.74,-169.95 841.61,-166.22 884.36,-158.92"/>
<polygon fill="#000000" fill-opacity="0.200000" stroke="#000000" stroke-width="2" stroke-opacity="0.200000" points="884.59,-161.02 890.11,-157.87 883.83,-156.89 884.59,-161.02"/>
</g>
<!-- src/js/directable/dotmatrix/shape/ShapeManager.js -->
<g id="node15" class="node">
<title>src/js/directable/dotmatrix/shape/ShapeManager.js</title>
<g id="a_node15"><a xlink:href="src/js/directable/dotmatrix/shape/ShapeManager.js" xlink:title="ShapeManager.js">
<path fill="#ffffcc" stroke="black" d="M835.08,-713.25C835.08,-713.25 759.42,-713.25 759.42,-713.25 756.33,-713.25 753.25,-710.17 753.25,-707.08 753.25,-707.08 753.25,-700.92 753.25,-700.92 753.25,-697.83 756.33,-694.75 759.42,-694.75 759.42,-694.75 835.08,-694.75 835.08,-694.75 838.17,-694.75 841.25,-697.83 841.25,-700.92 841.25,-700.92 841.25,-707.08 841.25,-707.08 841.25,-710.17 838.17,-713.25 835.08,-713.25"/>
<text text-anchor="start" x="761.25" y="-700.7" font-family="Helvetica,sans-Serif" font-size="9.00">ShapeManager.js</text>
</a>
</g>
</g>
<!-- src/js/directable/dotmatrix/view/ViewManager.js&#45;&gt;src/js/directable/dotmatrix/shape/ShapeManager.js -->
<g id="edge22" class="edge">
<title>src/js/directable/dotmatrix/view/ViewManager.js&#45;&gt;src/js/directable/dotmatrix/shape/ShapeManager.js</title>
<path fill="none" stroke="#000000" stroke-width="2" stroke-opacity="0.200000" d="M709.55,-61.29C716.05,-63.77 722.02,-67.49 726.25,-73 747.11,-100.2 712.67,-663.36 734.25,-690 737.17,-693.61 740.8,-696.4 744.84,-698.56"/>
<polygon fill="#000000" fill-opacity="0.200000" stroke="#000000" stroke-width="2" stroke-opacity="0.200000" points="743.87,-700.43 750.21,-700.81 745.48,-696.56 743.87,-700.43"/>
</g>
<!-- src/js/directable/dotmatrix/view/ViewTest.js -->
<g id="node36" class="node">
<title>src/js/directable/dotmatrix/view/ViewTest.js</title>
<g id="a_node36"><a xlink:href="src/js/directable/dotmatrix/view/ViewTest.js" xlink:title="ViewTest.js">
<path fill="#ffffcc" stroke="black" d="M821.96,-126.25C821.96,-126.25 772.54,-126.25 772.54,-126.25 769.46,-126.25 766.38,-123.17 766.38,-120.08 766.38,-120.08 766.38,-113.92 766.38,-113.92 766.38,-110.83 769.46,-107.75 772.54,-107.75 772.54,-107.75 821.96,-107.75 821.96,-107.75 825.04,-107.75 828.12,-110.83 828.12,-113.92 828.12,-113.92 828.12,-120.08 828.12,-120.08 828.12,-123.17 825.04,-126.25 821.96,-126.25"/>
<text text-anchor="start" x="774.38" y="-113.7" font-family="Helvetica,sans-Serif" font-size="9.00">ViewTest.js</text>
</a>
</g>
</g>
<!-- src/js/directable/dotmatrix/view/ViewManager.js&#45;&gt;src/js/directable/dotmatrix/view/ViewTest.js -->
<g id="edge23" class="edge">
<title>src/js/directable/dotmatrix/view/ViewManager.js&#45;&gt;src/js/directable/dotmatrix/view/ViewTest.js</title>
<path fill="none" stroke="#000000" stroke-width="2" stroke-opacity="0.200000" d="M709.43,-66.69C715.17,-68.53 720.93,-70.63 726.25,-73 744.01,-80.9 762.57,-92.75 776.11,-102.17"/>
<polygon fill="#000000" fill-opacity="0.200000" stroke="#000000" stroke-width="2" stroke-opacity="0.200000" points="774.88,-103.87 780.99,-105.63 777.31,-100.44 774.88,-103.87"/>
</g>
<!-- src/js/directable/dotmatrix/dot/Dot.js -->
<g id="node11" class="node">
<title>src/js/directable/dotmatrix/dot/Dot.js</title>
<g id="a_node11"><a xlink:href="src/js/directable/dotmatrix/dot/Dot.js" xlink:title="Dot.js">
<path fill="#ffffcc" stroke="black" d="M945.08,-220.25C945.08,-220.25 903.42,-220.25 903.42,-220.25 900.33,-220.25 897.25,-217.17 897.25,-214.08 897.25,-214.08 897.25,-207.92 897.25,-207.92 897.25,-204.83 900.33,-201.75 903.42,-201.75 903.42,-201.75 945.08,-201.75 945.08,-201.75 948.17,-201.75 951.25,-204.83 951.25,-207.92 951.25,-207.92 951.25,-214.08 951.25,-214.08 951.25,-217.17 948.17,-220.25 945.08,-220.25"/>
<text text-anchor="start" x="912.62" y="-207.7" font-family="Helvetica,sans-Serif" font-size="9.00">Dot.js</text>
</a>
</g>
</g>
<!-- src/js/directable/dotmatrix/dot/DotManager.js&#45;&gt;src/js/directable/dotmatrix/dot/Dot.js -->
<g id="edge9" class="edge">
<title>src/js/directable/dotmatrix/dot/DotManager.js&#45;&gt;src/js/directable/dotmatrix/dot/Dot.js</title>
<path fill="none" stroke="#000000" stroke-width="2" stroke-opacity="0.200000" d="M835.08,-211C851.85,-211 871.6,-211 888.16,-211"/>
<polygon fill="#000000" fill-opacity="0.200000" stroke="#000000" stroke-width="2" stroke-opacity="0.200000" points="887.96,-213.1 893.96,-211 887.96,-208.9 887.96,-213.1"/>
</g>
<!-- src/js/directable/dotmatrix/dot/DotManager.js&#45;&gt;src/js/directable/dotmatrix/grid/GridData.js -->
<g id="edge8" class="edge">
<title>src/js/directable/dotmatrix/dot/DotManager.js&#45;&gt;src/js/directable/dotmatrix/grid/GridData.js</title>
<path fill="none" stroke="#000000" stroke-width="2" stroke-opacity="0.200000" d="M823.79,-201.3C832.87,-197.66 843.11,-193.35 852.25,-189 868.28,-181.37 885.76,-171.78 899.37,-164.02"/>
<polygon fill="#000000" fill-opacity="0.200000" stroke="#000000" stroke-width="2" stroke-opacity="0.200000" points="900.11,-166.01 904.27,-161.2 898.02,-162.37 900.11,-166.01"/>
</g>
<!-- src/js/directable/dotmatrix/shape/Shape.js -->
<g id="node14" class="node">
<title>src/js/directable/dotmatrix/shape/Shape.js</title>
<g id="a_node14"><a xlink:href="src/js/directable/dotmatrix/shape/Shape.js" xlink:title="Shape.js">
<path fill="#ffffcc" stroke="black" d="M1060.08,-597.25C1060.08,-597.25 1018.42,-597.25 1018.42,-597.25 1015.33,-597.25 1012.25,-594.17 1012.25,-591.08 1012.25,-591.08 1012.25,-584.92 1012.25,-584.92 1012.25,-581.83 1015.33,-578.75 1018.42,-578.75 1018.42,-578.75 1060.08,-578.75 1060.08,-578.75 1063.17,-578.75 1066.25,-581.83 1066.25,-584.92 1066.25,-584.92 1066.25,-591.08 1066.25,-591.08 1066.25,-594.17 1063.17,-597.25 1060.08,-597.25"/>
<text text-anchor="start" x="1021.25" y="-584.7" font-family="Helvetica,sans-Serif" font-size="9.00">Shape.js</text>
</a>
</g>
</g>
<!-- src/js/directable/dotmatrix/shape/fill/FillStrategyType.js -->
<g id="node16" class="node">
<title>src/js/directable/dotmatrix/shape/fill/FillStrategyType.js</title>
<g id="a_node16"><a xlink:href="src/js/directable/dotmatrix/shape/fill/FillStrategyType.js" xlink:title="FillStrategyType.js">
<path fill="#ffffcc" stroke="black" d="M1172.08,-655.25C1172.08,-655.25 1093.42,-655.25 1093.42,-655.25 1090.33,-655.25 1087.25,-652.17 1087.25,-649.08 1087.25,-649.08 1087.25,-642.92 1087.25,-642.92 1087.25,-639.83 1090.33,-636.75 1093.42,-636.75 1093.42,-636.75 1172.08,-636.75 1172.08,-636.75 1175.17,-636.75 1178.25,-639.83 1178.25,-642.92 1178.25,-642.92 1178.25,-649.08 1178.25,-649.08 1178.25,-652.17 1175.17,-655.25 1172.08,-655.25"/>
<text text-anchor="start" x="1095.25" y="-642.7" font-family="Helvetica,sans-Serif" font-size="9.00">FillStrategyType.js</text>
</a>
</g>
</g>
<!-- src/js/directable/dotmatrix/shape/ShapeManager.js&#45;&gt;src/js/directable/dotmatrix/shape/fill/FillStrategyType.js -->
<g id="edge10" class="edge">
<title>src/js/directable/dotmatrix/shape/ShapeManager.js&#45;&gt;src/js/directable/dotmatrix/shape/fill/FillStrategyType.js</title>
<path fill="none" stroke="#000000" stroke-width="2" stroke-opacity="0.200000" d="M841.65,-698.25C845.69,-696.19 849.35,-693.5 852.25,-690 869.16,-669.59 841.71,-589.94 860.25,-571 926.9,-502.94 990.35,-513.88 1074.25,-559 1101.34,-573.57 1117.79,-607.11 1125.8,-628.03"/>
<polygon fill="#000000" fill-opacity="0.200000" stroke="#000000" stroke-width="2" stroke-opacity="0.200000" points="1123.78,-628.6 1127.78,-633.53 1127.73,-627.18 1123.78,-628.6"/>
</g>
<!-- src/js/directable/dotmatrix/shape/fill/FillType.js -->
<g id="node17" class="node">
<title>src/js/directable/dotmatrix/shape/fill/FillType.js</title>
<g id="a_node17"><a xlink:href="src/js/directable/dotmatrix/shape/fill/FillType.js" xlink:title="FillType.js">
<path fill="#ffffcc" stroke="black" d="M1155.21,-686.25C1155.21,-686.25 1110.29,-686.25 1110.29,-686.25 1107.21,-686.25 1104.12,-683.17 1104.12,-680.08 1104.12,-680.08 1104.12,-673.92 1104.12,-673.92 1104.12,-670.83 1107.21,-667.75 1110.29,-667.75 1110.29,-667.75 1155.21,-667.75 1155.21,-667.75 1158.29,-667.75 1161.38,-670.83 1161.38,-673.92 1161.38,-673.92 1161.38,-680.08 1161.38,-680.08 1161.38,-683.17 1158.29,-686.25 1155.21,-686.25"/>
<text text-anchor="start" x="1112.12" y="-673.7" font-family="Helvetica,sans-Serif" font-size="9.00">FillType.js</text>
</a>
</g>
</g>
<!-- src/js/directable/dotmatrix/shape/ShapeManager.js&#45;&gt;src/js/directable/dotmatrix/shape/fill/FillType.js -->
<g id="edge11" class="edge">
<title>src/js/directable/dotmatrix/shape/ShapeManager.js&#45;&gt;src/js/directable/dotmatrix/shape/fill/FillType.js</title>
<path fill="none" stroke="#000000" stroke-width="2" stroke-opacity="0.200000" d="M841.51,-698.13C845.58,-696.1 849.28,-693.45 852.25,-690 874.14,-664.61 838.94,-640.88 860.25,-615 900.46,-566.16 933.7,-582.44 996.25,-573 1030.53,-567.83 1048.01,-550.35 1074.25,-573 1104.18,-598.83 1062.2,-630.41 1087.25,-661 1089.65,-663.93 1092.63,-666.32 1095.9,-668.28"/>
<polygon fill="#000000" fill-opacity="0.200000" stroke="#000000" stroke-width="2" stroke-opacity="0.200000" points="1094.88,-670.12 1101.2,-670.79 1096.68,-666.32 1094.88,-670.12"/>
</g>
<!-- src/js/directable/dotmatrix/shape/line/ShapeLineHorizontal.js -->
<g id="node18" class="node">
<title>src/js/directable/dotmatrix/shape/line/ShapeLineHorizontal.js</title>
<g id="a_node18"><a xlink:href="src/js/directable/dotmatrix/shape/line/ShapeLineHorizontal.js" xlink:title="ShapeLineHorizontal.js">
<path fill="#ffffcc" stroke="black" d="M974.08,-644.25C974.08,-644.25 874.42,-644.25 874.42,-644.25 871.33,-644.25 868.25,-641.17 868.25,-638.08 868.25,-638.08 868.25,-631.92 868.25,-631.92 868.25,-628.83 871.33,-625.75 874.42,-625.75 874.42,-625.75 974.08,-625.75 974.08,-625.75 977.17,-625.75 980.25,-628.83 980.25,-631.92 980.25,-631.92 980.25,-638.08 980.25,-638.08 980.25,-641.17 977.17,-644.25 974.08,-644.25"/>
<text text-anchor="start" x="876.25" y="-631.7" font-family="Helvetica,sans-Serif" font-size="9.00">ShapeLineHorizontal.js</text>
</a>
</g>
</g>
<!-- src/js/directable/dotmatrix/shape/ShapeManager.js&#45;&gt;src/js/directable/dotmatrix/shape/line/ShapeLineHorizontal.js -->
<g id="edge12" class="edge">
<title>src/js/directable/dotmatrix/shape/ShapeManager.js&#45;&gt;src/js/directable/dotmatrix/shape/line/ShapeLineHorizontal.js</title>
<path fill="none" stroke="#000000" stroke-width="2" stroke-opacity="0.200000" d="M841.71,-697.59C845.63,-695.64 849.25,-693.16 852.25,-690 864.44,-677.17 848.03,-663.8 860.25,-651 860.54,-650.69 860.84,-650.39 861.14,-650.1"/>
<polygon fill="#000000" fill-opacity="0.200000" stroke="#000000" stroke-width="2" stroke-opacity="0.200000" points="862.28,-651.87 865.72,-646.53 859.7,-648.56 862.28,-651.87"/>
</g>
<!-- src/js/directable/dotmatrix/shape/line/ShapeLineHorizontal.js&#45;&gt;src/js/directable/dotmatrix/shape/Shape.js -->
<g id="edge19" class="edge">
<title>src/js/directable/dotmatrix/shape/line/ShapeLineHorizontal.js&#45;&gt;src/js/directable/dotmatrix/shape/Shape.js</title>
<path fill="none" stroke="#000000" stroke-width="2" stroke-opacity="0.200000" d="M980.56,-626.81C983.27,-625.43 985.86,-623.84 988.25,-622 994.55,-617.15 990.47,-611.45 996.25,-606 998.64,-603.74 1001.36,-601.75 1004.24,-599.99"/>
<polygon fill="#000000" fill-opacity="0.200000" stroke="#000000" stroke-width="2" stroke-opacity="0.200000" points="1005.09,-601.91 1009.42,-597.26 1003.13,-598.19 1005.09,-601.91"/>
</g>
<!-- src/js/directable/dotmatrix/shape/line/ShapeLineHorizontal.js&#45;&gt;src/js/directable/dotmatrix/shape/fill/FillStrategyType.js -->
<g id="edge17" class="edge">
<title>src/js/directable/dotmatrix/shape/line/ShapeLineHorizontal.js&#45;&gt;src/js/directable/dotmatrix/shape/fill/FillStrategyType.js</title>
<path fill="none" stroke="#000000" stroke-width="2" stroke-opacity="0.200000" d="M973.45,-625.27C978.45,-624.19 983.46,-623.09 988.25,-622 991.82,-621.19 992.61,-620.45 996.25,-620 1030.66,-615.76 1040.36,-612.69 1074.25,-620 1085.63,-622.45 1097.47,-627.35 1107.42,-632.24"/>
<polygon fill="#000000" fill-opacity="0.200000" stroke="#000000" stroke-width="2" stroke-opacity="0.200000" points="1106.31,-634.02 1112.6,-634.9 1108.23,-630.29 1106.31,-634.02"/>
</g>
<!-- src/js/directable/dotmatrix/shape/line/ShapeLineHorizontal.js&#45;&gt;src/js/directable/dotmatrix/shape/fill/FillType.js -->
<g id="edge18" class="edge">
<title>src/js/directable/dotmatrix/shape/line/ShapeLineHorizontal.js&#45;&gt;src/js/directable/dotmatrix/shape/fill/FillType.js</title>
<path fill="none" stroke="#000000" stroke-width="2" stroke-opacity="0.200000" d="M980.75,-627.07C1016.58,-623.16 1059.22,-621.13 1074.25,-631 1086.4,-638.98 1076.65,-651.06 1087.25,-661 1089.8,-663.4 1092.74,-665.44 1095.87,-667.18"/>
<polygon fill="#000000" fill-opacity="0.200000" stroke="#000000" stroke-width="2" stroke-opacity="0.200000" points="1094.83,-669.01 1101.15,-669.63 1096.6,-665.2 1094.83,-669.01"/>
</g>
<!-- src/js/directable/dotmatrix/shape/fill/Fill.js -->
<g id="node19" class="node">
<title>src/js/directable/dotmatrix/shape/fill/Fill.js</title>
<g id="a_node19"><a xlink:href="src/js/directable/dotmatrix/shape/fill/Fill.js" xlink:title="Fill.js">
<path fill="#ffffcc" stroke="black" d="M1060.08,-686.25C1060.08,-686.25 1018.42,-686.25 1018.42,-686.25 1015.33,-686.25 1012.25,-683.17 1012.25,-680.08 1012.25,-680.08 1012.25,-673.92 1012.25,-673.92 1012.25,-670.83 1015.33,-667.75 1018.42,-667.75 1018.42,-667.75 1060.08,-667.75 1060.08,-667.75 1063.17,-667.75 1066.25,-670.83 1066.25,-673.92 1066.25,-673.92 1066.25,-680.08 1066.25,-680.08 1066.25,-683.17 1063.17,-686.25 1060.08,-686.25"/>
<text text-anchor="start" x="1028.75" y="-673.7" font-family="Helvetica,sans-Serif" font-size="9.00">Fill.js</text>
</a>
</g>
</g>
<!-- src/js/directable/dotmatrix/shape/line/ShapeLineHorizontal.js&#45;&gt;src/js/directable/dotmatrix/shape/fill/Fill.js -->
<g id="edge15" class="edge">
<title>src/js/directable/dotmatrix/shape/line/ShapeLineHorizontal.js&#45;&gt;src/js/directable/dotmatrix/shape/fill/Fill.js</title>
<path fill="none" stroke="#000000" stroke-width="2" stroke-opacity="0.200000" d="M976.01,-644.73C980.31,-646.48 984.46,-648.56 988.25,-651 993.03,-654.08 991.65,-657.65 996.25,-661 998.58,-662.7 1001.12,-664.24 1003.75,-665.64"/>
<polygon fill="#000000" fill-opacity="0.200000" stroke="#000000" stroke-width="2" stroke-opacity="0.200000" points="1002.75,-667.49 1009.08,-668.12 1004.52,-663.68 1002.75,-667.49"/>
</g>
<!-- src/js/directable/dotmatrix/shape/fill/FillStrategy.js -->
<g id="node20" class="node">
<title>src/js/directable/dotmatrix/shape/fill/FillStrategy.js</title>
<g id="a_node20"><a xlink:href="src/js/directable/dotmatrix/shape/fill/FillStrategy.js" xlink:title="FillStrategy.js">
<path fill="#ffffcc" stroke="black" d="M1068.08,-655.25C1068.08,-655.25 1010.42,-655.25 1010.42,-655.25 1007.33,-655.25 1004.25,-652.17 1004.25,-649.08 1004.25,-649.08 1004.25,-642.92 1004.25,-642.92 1004.25,-639.83 1007.33,-636.75 1010.42,-636.75 1010.42,-636.75 1068.08,-636.75 1068.08,-636.75 1071.17,-636.75 1074.25,-639.83 1074.25,-642.92 1074.25,-642.92 1074.25,-649.08 1074.25,-649.08 1074.25,-652.17 1071.17,-655.25 1068.08,-655.25"/>
<text text-anchor="start" x="1012.25" y="-642.7" font-family="Helvetica,sans-Serif" font-size="9.00">FillStrategy.js</text>
</a>
</g>
</g>
<!-- src/js/directable/dotmatrix/shape/line/ShapeLineHorizontal.js&#45;&gt;src/js/directable/dotmatrix/shape/fill/FillStrategy.js -->
<g id="edge16" class="edge">
<title>src/js/directable/dotmatrix/shape/line/ShapeLineHorizontal.js&#45;&gt;src/js/directable/dotmatrix/shape/fill/FillStrategy.js</title>
<path fill="none" stroke="#000000" stroke-width="2" stroke-opacity="0.200000" d="M980.43,-640.37C985.27,-640.84 990.13,-641.32 994.87,-641.78"/>
<polygon fill="#000000" fill-opacity="0.200000" stroke="#000000" stroke-width="2" stroke-opacity="0.200000" points="994.58,-643.86 1000.75,-642.35 994.98,-639.68 994.58,-643.86"/>
</g>
<!-- src/js/directable/dotmatrix/shape/fill/Fill.js&#45;&gt;src/js/directable/dotmatrix/shape/fill/FillType.js -->
<g id="edge13" class="edge">
<title>src/js/directable/dotmatrix/shape/fill/Fill.js&#45;&gt;src/js/directable/dotmatrix/shape/fill/FillType.js</title>
<path fill="none" stroke="#000000" stroke-width="2" stroke-opacity="0.200000" d="M1066.72,-677C1075.52,-677 1085.48,-677 1094.92,-677"/>
<polygon fill="#000000" fill-opacity="0.200000" stroke="#000000" stroke-width="2" stroke-opacity="0.200000" points="1094.72,-679.1 1100.72,-677 1094.72,-674.9 1094.72,-679.1"/>
</g>
<!-- src/js/directable/dotmatrix/shape/fill/FillStrategy.js&#45;&gt;src/js/directable/dotmatrix/shape/fill/FillStrategyType.js -->
<g id="edge14" class="edge">
<title>src/js/directable/dotmatrix/shape/fill/FillStrategy.js&#45;&gt;src/js/directable/dotmatrix/shape/fill/FillStrategyType.js</title>
<path fill="none" stroke="#000000" stroke-width="2" stroke-opacity="0.200000" d="M1074.58,-646C1075.72,-646 1076.87,-646 1078.03,-646"/>
<polygon fill="#000000" fill-opacity="0.200000" stroke="#000000" stroke-width="2" stroke-opacity="0.200000" points="1077.97,-648.1 1083.97,-646 1077.97,-643.9 1077.97,-648.1"/>
</g>
<!-- src/js/directable/dotmatrix/shape/glyph/ShapeGlyph_A.js -->
<g id="node21" class="node">
<title>src/js/directable/dotmatrix/shape/glyph/ShapeGlyph_A.js</title>
<g id="a_node21"><a xlink:href="src/js/directable/dotmatrix/shape/glyph/ShapeGlyph_A.js" xlink:title="ShapeGlyph_A.js">
<path fill="#ccffcc" stroke="black" d="M834.71,-289.25C834.71,-289.25 759.79,-289.25 759.79,-289.25 756.71,-289.25 753.62,-286.17 753.62,-283.08 753.62,-283.08 753.62,-276.92 753.62,-276.92 753.62,-273.83 756.71,-270.75 759.79,-270.75 759.79,-270.75 834.71,-270.75 834.71,-270.75 837.79,-270.75 840.88,-273.83 840.88,-276.92 840.88,-276.92 840.88,-283.08 840.88,-283.08 840.88,-286.17 837.79,-289.25 834.71,-289.25"/>
<text text-anchor="start" x="761.62" y="-276.7" font-family="Helvetica,sans-Serif" font-size="9.00">ShapeGlyph_A.js</text>
</a>
</g>
</g>
<!-- src/js/directable/dotmatrix/shape/glyph/ShapeGlyph_B.js -->
<g id="node22" class="node">
<title>src/js/directable/dotmatrix/shape/glyph/ShapeGlyph_B.js</title>
<g id="a_node22"><a xlink:href="src/js/directable/dotmatrix/shape/glyph/ShapeGlyph_B.js" xlink:title="ShapeGlyph_B.js">
<path fill="#ccffcc" stroke="black" d="M834.71,-320.25C834.71,-320.25 759.79,-320.25 759.79,-320.25 756.71,-320.25 753.62,-317.17 753.62,-314.08 753.62,-314.08 753.62,-307.92 753.62,-307.92 753.62,-304.83 756.71,-301.75 759.79,-301.75 759.79,-301.75 834.71,-301.75 834.71,-301.75 837.79,-301.75 840.88,-304.83 840.88,-307.92 840.88,-307.92 840.88,-314.08 840.88,-314.08 840.88,-317.17 837.79,-320.25 834.71,-320.25"/>
<text text-anchor="start" x="761.62" y="-307.7" font-family="Helvetica,sans-Serif" font-size="9.00">ShapeGlyph_B.js</text>
</a>
</g>
</g>
<!-- src/js/directable/dotmatrix/shape/glyph/ShapeGlyph_C.js -->
<g id="node23" class="node">
<title>src/js/directable/dotmatrix/shape/glyph/ShapeGlyph_C.js</title>
<g id="a_node23"><a xlink:href="src/js/directable/dotmatrix/shape/glyph/ShapeGlyph_C.js" xlink:title="ShapeGlyph_C.js">
<path fill="#ccffcc" stroke="black" d="M835.08,-351.25C835.08,-351.25 759.42,-351.25 759.42,-351.25 756.33,-351.25 753.25,-348.17 753.25,-345.08 753.25,-345.08 753.25,-338.92 753.25,-338.92 753.25,-335.83 756.33,-332.75 759.42,-332.75 759.42,-332.75 835.08,-332.75 835.08,-332.75 838.17,-332.75 841.25,-335.83 841.25,-338.92 841.25,-338.92 841.25,-345.08 841.25,-345.08 841.25,-348.17 838.17,-351.25 835.08,-351.25"/>
<text text-anchor="start" x="761.25" y="-338.7" font-family="Helvetica,sans-Serif" font-size="9.00">ShapeGlyph_C.js</text>
</a>
</g>
</g>
<!-- src/js/directable/dotmatrix/shape/glyph/ShapeGlyph_D.js -->
<g id="node24" class="node">
<title>src/js/directable/dotmatrix/shape/glyph/ShapeGlyph_D.js</title>
<g id="a_node24"><a xlink:href="src/js/directable/dotmatrix/shape/glyph/ShapeGlyph_D.js" xlink:title="ShapeGlyph_D.js">
<path fill="#ccffcc" stroke="black" d="M835.08,-382.25C835.08,-382.25 759.42,-382.25 759.42,-382.25 756.33,-382.25 753.25,-379.17 753.25,-376.08 753.25,-376.08 753.25,-369.92 753.25,-369.92 753.25,-366.83 756.33,-363.75 759.42,-363.75 759.42,-363.75 835.08,-363.75 835.08,-363.75 838.17,-363.75 841.25,-366.83 841.25,-369.92 841.25,-369.92 841.25,-376.08 841.25,-376.08 841.25,-379.17 838.17,-382.25 835.08,-382.25"/>
<text text-anchor="start" x="761.25" y="-369.7" font-family="Helvetica,sans-Serif" font-size="9.00">ShapeGlyph_D.js</text>
</a>
</g>
</g>
<!-- src/js/directable/dotmatrix/shape/glyph/ShapeGlyph_E.js -->
<g id="node25" class="node">
<title>src/js/directable/dotmatrix/shape/glyph/ShapeGlyph_E.js</title>
<g id="a_node25"><a xlink:href="src/js/directable/dotmatrix/shape/glyph/ShapeGlyph_E.js" xlink:title="ShapeGlyph_E.js">
<path fill="#ccffcc" stroke="black" d="M834.71,-413.25C834.71,-413.25 759.79,-413.25 759.79,-413.25 756.71,-413.25 753.62,-410.17 753.62,-407.08 753.62,-407.08 753.62,-400.92 753.62,-400.92 753.62,-397.83 756.71,-394.75 759.79,-394.75 759.79,-394.75 834.71,-394.75 834.71,-394.75 837.79,-394.75 840.88,-397.83 840.88,-400.92 840.88,-400.92 840.88,-407.08 840.88,-407.08 840.88,-410.17 837.79,-413.25 834.71,-413.25"/>
<text text-anchor="start" x="761.62" y="-400.7" font-family="Helvetica,sans-Serif" font-size="9.00">ShapeGlyph_E.js</text>
</a>
</g>
</g>
<!-- src/js/directable/dotmatrix/shape/glyph/ShapeGlyph_F.js -->
<g id="node26" class="node">
<title>src/js/directable/dotmatrix/shape/glyph/ShapeGlyph_F.js</title>
<g id="a_node26"><a xlink:href="src/js/directable/dotmatrix/shape/glyph/ShapeGlyph_F.js" xlink:title="ShapeGlyph_F.js">
<path fill="#ccffcc" stroke="black" d="M833.96,-444.25C833.96,-444.25 760.54,-444.25 760.54,-444.25 757.46,-444.25 754.38,-441.17 754.38,-438.08 754.38,-438.08 754.38,-431.92 754.38,-431.92 754.38,-428.83 757.46,-425.75 760.54,-425.75 760.54,-425.75 833.96,-425.75 833.96,-425.75 837.04,-425.75 840.12,-428.83 840.12,-431.92 840.12,-431.92 840.12,-438.08 840.12,-438.08 840.12,-441.17 837.04,-444.25 833.96,-444.25"/>
<text text-anchor="start" x="762.38" y="-431.7" font-family="Helvetica,sans-Serif" font-size="9.00">ShapeGlyph_F.js</text>
</a>
</g>
</g>
<!-- src/js/directable/dotmatrix/shape/glyph/ShapeGlyph_G.js -->
<g id="node27" class="node">
<title>src/js/directable/dotmatrix/shape/glyph/ShapeGlyph_G.js</title>
<g id="a_node27"><a xlink:href="src/js/directable/dotmatrix/shape/glyph/ShapeGlyph_G.js" xlink:title="ShapeGlyph_G.js">
<path fill="#ccffcc" stroke="black" d="M835.08,-475.25C835.08,-475.25 759.42,-475.25 759.42,-475.25 756.33,-475.25 753.25,-472.17 753.25,-469.08 753.25,-469.08 753.25,-462.92 753.25,-462.92 753.25,-459.83 756.33,-456.75 759.42,-456.75 759.42,-456.75 835.08,-456.75 835.08,-456.75 838.17,-456.75 841.25,-459.83 841.25,-462.92 841.25,-462.92 841.25,-469.08 841.25,-469.08 841.25,-472.17 838.17,-475.25 835.08,-475.25"/>
<text text-anchor="start" x="761.25" y="-462.7" font-family="Helvetica,sans-Serif" font-size="9.00">ShapeGlyph_G.js</text>
</a>
</g>
</g>
<!-- src/js/directable/dotmatrix/shape/glyph/ShapeGlyph_H.js -->
<g id="node28" class="node">
<title>src/js/directable/dotmatrix/shape/glyph/ShapeGlyph_H.js</title>
<g id="a_node28"><a xlink:href="src/js/directable/dotmatrix/shape/glyph/ShapeGlyph_H.js" xlink:title="ShapeGlyph_H.js">
<path fill="#ccffcc" stroke="black" d="M835.08,-506.25C835.08,-506.25 759.42,-506.25 759.42,-506.25 756.33,-506.25 753.25,-503.17 753.25,-500.08 753.25,-500.08 753.25,-493.92 753.25,-493.92 753.25,-490.83 756.33,-487.75 759.42,-487.75 759.42,-487.75 835.08,-487.75 835.08,-487.75 838.17,-487.75 841.25,-490.83 841.25,-493.92 841.25,-493.92 841.25,-500.08 841.25,-500.08 841.25,-503.17 838.17,-506.25 835.08,-506.25"/>
<text text-anchor="start" x="761.25" y="-493.7" font-family="Helvetica,sans-Serif" font-size="9.00">ShapeGlyph_H.js</text>
</a>
</g>
</g>
<!-- src/js/directable/dotmatrix/shape/glyph/ShapeGlyph_I.js -->
<g id="node29" class="node">
<title>src/js/directable/dotmatrix/shape/glyph/ShapeGlyph_I.js</title>
<g id="a_node29"><a xlink:href="src/js/directable/dotmatrix/shape/glyph/ShapeGlyph_I.js" xlink:title="ShapeGlyph_I.js">
<path fill="#ccffcc" stroke="black" d="M832.83,-537.25C832.83,-537.25 761.67,-537.25 761.67,-537.25 758.58,-537.25 755.5,-534.17 755.5,-531.08 755.5,-531.08 755.5,-524.92 755.5,-524.92 755.5,-521.83 758.58,-518.75 761.67,-518.75 761.67,-518.75 832.83,-518.75 832.83,-518.75 835.92,-518.75 839,-521.83 839,-524.92 839,-524.92 839,-531.08 839,-531.08 839,-534.17 835.92,-537.25 832.83,-537.25"/>
<text text-anchor="start" x="763.5" y="-524.7" font-family="Helvetica,sans-Serif" font-size="9.00">ShapeGlyph_I.js</text>
</a>
</g>
</g>
<!-- src/js/directable/dotmatrix/shape/glyph/ShapeGlyph_J.js -->
<g id="node30" class="node">
<title>src/js/directable/dotmatrix/shape/glyph/ShapeGlyph_J.js</title>
<g id="a_node30"><a xlink:href="src/js/directable/dotmatrix/shape/glyph/ShapeGlyph_J.js" xlink:title="ShapeGlyph_J.js">
<path fill="#ccffcc" stroke="black" d="M833.96,-568.25C833.96,-568.25 760.54,-568.25 760.54,-568.25 757.46,-568.25 754.38,-565.17 754.38,-562.08 754.38,-562.08 754.38,-555.92 754.38,-555.92 754.38,-552.83 757.46,-549.75 760.54,-549.75 760.54,-549.75 833.96,-549.75 833.96,-549.75 837.04,-549.75 840.12,-552.83 840.12,-555.92 840.12,-555.92 840.12,-562.08 840.12,-562.08 840.12,-565.17 837.04,-568.25 833.96,-568.25"/>
<text text-anchor="start" x="762.38" y="-555.7" font-family="Helvetica,sans-Serif" font-size="9.00">ShapeGlyph_J.js</text>
</a>
</g>
</g>
<!-- src/js/directable/dotmatrix/shape/glyph/ShapeGlyph_K.js -->
<g id="node31" class="node">
<title>src/js/directable/dotmatrix/shape/glyph/ShapeGlyph_K.js</title>
<g id="a_node31"><a xlink:href="src/js/directable/dotmatrix/shape/glyph/ShapeGlyph_K.js" xlink:title="ShapeGlyph_K.js">
<path fill="#ccffcc" stroke="black" d="M834.71,-599.25C834.71,-599.25 759.79,-599.25 759.79,-599.25 756.71,-599.25 753.62,-596.17 753.62,-593.08 753.62,-593.08 753.62,-586.92 753.62,-586.92 753.62,-583.83 756.71,-580.75 759.79,-580.75 759.79,-580.75 834.71,-580.75 834.71,-580.75 837.79,-580.75 840.88,-583.83 840.88,-586.92 840.88,-586.92 840.88,-593.08 840.88,-593.08 840.88,-596.17 837.79,-599.25 834.71,-599.25"/>
<text text-anchor="start" x="761.62" y="-586.7" font-family="Helvetica,sans-Serif" font-size="9.00">ShapeGlyph_K.js</text>
</a>
</g>
</g>
<!-- src/js/directable/dotmatrix/shape/line/ShapeLineVertical.js -->
<g id="node32" class="node">
<title>src/js/directable/dotmatrix/shape/line/ShapeLineVertical.js</title>
<g id="a_node32"><a xlink:href="src/js/directable/dotmatrix/shape/line/ShapeLineVertical.js" xlink:title="ShapeLineVertical.js">
<path fill="#ccffcc" stroke="black" d="M968.08,-675.25C968.08,-675.25 880.42,-675.25 880.42,-675.25 877.33,-675.25 874.25,-672.17 874.25,-669.08 874.25,-669.08 874.25,-662.92 874.25,-662.92 874.25,-659.83 877.33,-656.75 880.42,-656.75 880.42,-656.75 968.08,-656.75 968.08,-656.75 971.17,-656.75 974.25,-659.83 974.25,-662.92 974.25,-662.92 974.25,-669.08 974.25,-669.08 974.25,-672.17 971.17,-675.25 968.08,-675.25"/>
<text text-anchor="start" x="882.25" y="-662.7" font-family="Helvetica,sans-Serif" font-size="9.00">ShapeLineVertical.js</text>
</a>
</g>
</g>
<!-- src/js/directable/dotmatrix/shape/primative/ShapeRectangle.js -->
<g id="node33" class="node">
<title>src/js/directable/dotmatrix/shape/primative/ShapeRectangle.js</title>
<g id="a_node33"><a xlink:href="src/js/directable/dotmatrix/shape/primative/ShapeRectangle.js" xlink:title="ShapeRectangle.js">
<path fill="#ccffcc" stroke="black" d="M838.08,-660.25C838.08,-660.25 756.42,-660.25 756.42,-660.25 753.33,-660.25 750.25,-657.17 750.25,-654.08 750.25,-654.08 750.25,-647.92 750.25,-647.92 750.25,-644.83 753.33,-641.75 756.42,-641.75 756.42,-641.75 838.08,-641.75 838.08,-641.75 841.17,-641.75 844.25,-644.83 844.25,-647.92 844.25,-647.92 844.25,-654.08 844.25,-654.08 844.25,-657.17 841.17,-660.25 838.08,-660.25"/>
<text text-anchor="start" x="758.25" y="-647.7" font-family="Helvetica,sans-Serif" font-size="9.00">ShapeRectangle.js</text>
</a>
</g>
</g>
<!-- src/js/directable/dotmatrix/view/View.js -->
<g id="node34" class="node">
<title>src/js/directable/dotmatrix/view/View.js</title>
<g id="a_node34"><a xlink:href="src/js/directable/dotmatrix/view/View.js" xlink:title="View.js">
<path fill="#ffffcc" stroke="black" d="M689.46,-97.25C689.46,-97.25 647.79,-97.25 647.79,-97.25 644.71,-97.25 641.62,-94.17 641.62,-91.08 641.62,-91.08 641.62,-84.92 641.62,-84.92 641.62,-81.83 644.71,-78.75 647.79,-78.75 647.79,-78.75 689.46,-78.75 689.46,-78.75 692.54,-78.75 695.62,-81.83 695.62,-84.92 695.62,-84.92 695.62,-91.08 695.62,-91.08 695.62,-94.17 692.54,-97.25 689.46,-97.25"/>
<text text-anchor="start" x="654.38" y="-84.7" font-family="Helvetica,sans-Serif" font-size="9.00">View.js</text>
</a>
</g>
</g>
<!-- src/js/directable/dotmatrix/view/ViewFloor.js -->
<g id="node35" class="node">
<title>src/js/directable/dotmatrix/view/ViewFloor.js</title>
<g id="a_node35"><a xlink:href="src/js/directable/dotmatrix/view/ViewFloor.js" xlink:title="ViewFloor.js">
<path fill="#ccffcc" stroke="black" d="M695.21,-128.25C695.21,-128.25 642.04,-128.25 642.04,-128.25 638.96,-128.25 635.88,-125.17 635.88,-122.08 635.88,-122.08 635.88,-115.92 635.88,-115.92 635.88,-112.83 638.96,-109.75 642.04,-109.75 642.04,-109.75 695.21,-109.75 695.21,-109.75 698.29,-109.75 701.38,-112.83 701.38,-115.92 701.38,-115.92 701.38,-122.08 701.38,-122.08 701.38,-125.17 698.29,-128.25 695.21,-128.25"/>
<text text-anchor="start" x="643.88" y="-115.7" font-family="Helvetica,sans-Serif" font-size="9.00">ViewFloor.js</text>
</a>
</g>
</g>
<!-- src/js/directable/dotmatrix/view/ViewTest.js&#45;&gt;src/js/directable/dotmatrix/grid/GridData.js -->
<g id="edge24" class="edge">
<title>src/js/directable/dotmatrix/view/ViewTest.js&#45;&gt;src/js/directable/dotmatrix/grid/GridData.js</title>
<path fill="none" stroke="#000000" stroke-width="2" stroke-opacity="0.200000" d="M828.51,-124.99C845.4,-129.45 866.61,-135.05 884.68,-139.82"/>
<polygon fill="#000000" fill-opacity="0.200000" stroke="#000000" stroke-width="2" stroke-opacity="0.200000" points="884.01,-141.81 890.34,-141.31 885.08,-137.75 884.01,-141.81"/>
</g>
<!-- src/js/directable/dotmatrix/view/ViewTest.js&#45;&gt;src/js/directable/dotmatrix/shape/fill/FillStrategyType.js -->
<g id="edge25" class="edge">
<title>src/js/directable/dotmatrix/view/ViewTest.js&#45;&gt;src/js/directable/dotmatrix/shape/fill/FillStrategyType.js</title>
<path fill="none" stroke="#000000" stroke-width="2" stroke-opacity="0.200000" d="M824.33,-107.3C878.57,-89 1004.31,-56.6 1074.25,-120 1112.71,-154.86 1128.08,-538.2 1131.15,-627.49"/>
<polygon fill="#000000" fill-opacity="0.200000" stroke="#000000" stroke-width="2" stroke-opacity="0.200000" points="1129.04,-627.31 1131.34,-633.23 1133.24,-627.17 1129.04,-627.31"/>
</g>
<!-- src/js/directable/dotmatrix/view/ViewTest.js&#45;&gt;src/js/directable/dotmatrix/shape/fill/FillType.js -->
<g id="edge26" class="edge">
<title>src/js/directable/dotmatrix/view/ViewTest.js&#45;&gt;src/js/directable/dotmatrix/shape/fill/FillType.js</title>
<path fill="none" stroke="#000000" stroke-width="2" stroke-opacity="0.200000" d="M828.47,-111.51C867.95,-105.94 937.97,-101.71 988.25,-130 1046.07,-162.53 1053.2,-189.09 1074.25,-252 1088.68,-295.12 1060.51,-624.23 1087.25,-661 1089.59,-664.22 1092.65,-666.8 1096.07,-668.86"/>
<polygon fill="#000000" fill-opacity="0.200000" stroke="#000000" stroke-width="2" stroke-opacity="0.200000" points="1094.91,-670.64 1101.23,-671.3 1096.7,-666.84 1094.91,-670.64"/>
</g>
<!-- src/js/directable/dotmatrix/view/ViewTextTest.js -->
<g id="node37" class="node">
<title>src/js/directable/dotmatrix/view/ViewTextTest.js</title>
<g id="a_node37"><a xlink:href="src/js/directable/dotmatrix/view/ViewTextTest.js" xlink:title="ViewTextTest.js">
<path fill="#ccffcc" stroke="black" d="M701.58,-159.25C701.58,-159.25 635.67,-159.25 635.67,-159.25 632.58,-159.25 629.5,-156.17 629.5,-153.08 629.5,-153.08 629.5,-146.92 629.5,-146.92 629.5,-143.83 632.58,-140.75 635.67,-140.75 635.67,-140.75 701.58,-140.75 701.58,-140.75 704.67,-140.75 707.75,-143.83 707.75,-146.92 707.75,-146.92 707.75,-153.08 707.75,-153.08 707.75,-156.17 704.67,-159.25 701.58,-159.25"/>
<text text-anchor="start" x="637.5" y="-146.7" font-family="Helvetica,sans-Serif" font-size="9.00">ViewTextTest.js</text>
</a>
</g>
</g>
<!-- src/js/directable/frame/DirectableFrame.js -->
<g id="node38" class="node">
<title>src/js/directable/frame/DirectableFrame.js</title>
<g id="a_node38"><a xlink:href="src/js/directable/frame/DirectableFrame.js" xlink:title="DirectableFrame.js">
<path fill="#ffffcc" stroke="black" d="M563.46,-801.25C563.46,-801.25 482.54,-801.25 482.54,-801.25 479.46,-801.25 476.38,-798.17 476.38,-795.08 476.38,-795.08 476.38,-788.92 476.38,-788.92 476.38,-785.83 479.46,-782.75 482.54,-782.75 482.54,-782.75 563.46,-782.75 563.46,-782.75 566.54,-782.75 569.62,-785.83 569.62,-788.92 569.62,-788.92 569.62,-795.08 569.62,-795.08 569.62,-798.17 566.54,-801.25 563.46,-801.25"/>
<text text-anchor="start" x="484.38" y="-788.7" font-family="Helvetica,sans-Serif" font-size="9.00">DirectableFrame.js</text>
</a>
</g>
</g>
<!-- src/js/directable/rhythm/DirectableRhythm.js -->
<g id="node39" class="node">
<title>src/js/directable/rhythm/DirectableRhythm.js</title>
<g id="a_node39"><a xlink:href="src/js/directable/rhythm/DirectableRhythm.js" xlink:title="DirectableRhythm.js">
<path fill="#ffffcc" stroke="black" d="M711.71,-993.25C711.71,-993.25 625.54,-993.25 625.54,-993.25 622.46,-993.25 619.38,-990.17 619.38,-987.08 619.38,-987.08 619.38,-980.92 619.38,-980.92 619.38,-977.83 622.46,-974.75 625.54,-974.75 625.54,-974.75 711.71,-974.75 711.71,-974.75 714.79,-974.75 717.88,-977.83 717.88,-980.92 717.88,-980.92 717.88,-987.08 717.88,-987.08 717.88,-990.17 714.79,-993.25 711.71,-993.25"/>
<text text-anchor="start" x="627.38" y="-980.7" font-family="Helvetica,sans-Serif" font-size="9.00">DirectableRhythm.js</text>
</a>
</g>
</g>
<!-- src/js/directable/rhythm/asdr/ASDRData.js -->
<g id="node40" class="node">
<title>src/js/directable/rhythm/asdr/ASDRData.js</title>
<g id="a_node40"><a xlink:href="src/js/directable/rhythm/asdr/ASDRData.js" xlink:title="ASDRData.js">
<path fill="#ccffcc" stroke="black" d="M551.83,-870.25C551.83,-870.25 494.17,-870.25 494.17,-870.25 491.08,-870.25 488,-867.17 488,-864.08 488,-864.08 488,-857.92 488,-857.92 488,-854.83 491.08,-851.75 494.17,-851.75 494.17,-851.75 551.83,-851.75 551.83,-851.75 554.92,-851.75 558,-854.83 558,-857.92 558,-857.92 558,-864.08 558,-864.08 558,-867.17 554.92,-870.25 551.83,-870.25"/>
<text text-anchor="start" x="496" y="-857.7" font-family="Helvetica,sans-Serif" font-size="9.00">ASDRData.js</text>
</a>
</g>
</g>
<!-- src/js/directable/rhythm/asdr/ASDREnvelope.js -->
<g id="node41" class="node">
<title>src/js/directable/rhythm/asdr/ASDREnvelope.js</title>
<g id="a_node41"><a xlink:href="src/js/directable/rhythm/asdr/ASDREnvelope.js" xlink:title="ASDREnvelope.js">
<path fill="#ffffcc" stroke="black" d="M561.58,-901.25C561.58,-901.25 484.42,-901.25 484.42,-901.25 481.33,-901.25 478.25,-898.17 478.25,-895.08 478.25,-895.08 478.25,-888.92 478.25,-888.92 478.25,-885.83 481.33,-882.75 484.42,-882.75 484.42,-882.75 561.58,-882.75 561.58,-882.75 564.67,-882.75 567.75,-885.83 567.75,-888.92 567.75,-888.92 567.75,-895.08 567.75,-895.08 567.75,-898.17 564.67,-901.25 561.58,-901.25"/>
<text text-anchor="start" x="486.25" y="-888.7" font-family="Helvetica,sans-Serif" font-size="9.00">ASDREnvelope.js</text>
</a>
</g>
</g>
<!-- src/js/directable/rhythm/asdr/DirectableRhythmASDRManager.js -->
<g id="node42" class="node">
<title>src/js/directable/rhythm/asdr/DirectableRhythmASDRManager.js</title>
<g id="a_node42"><a xlink:href="src/js/directable/rhythm/asdr/DirectableRhythmASDRManager.js" xlink:title="DirectableRhythmASDRManager.js">
<path fill="#ffffcc" stroke="black" d="M596.83,-932.25C596.83,-932.25 449.17,-932.25 449.17,-932.25 446.08,-932.25 443,-929.17 443,-926.08 443,-926.08 443,-919.92 443,-919.92 443,-916.83 446.08,-913.75 449.17,-913.75 449.17,-913.75 596.83,-913.75 596.83,-913.75 599.92,-913.75 603,-916.83 603,-919.92 603,-919.92 603,-926.08 603,-926.08 603,-929.17 599.92,-932.25 596.83,-932.25"/>
<text text-anchor="start" x="451" y="-919.7" font-family="Helvetica,sans-Serif" font-size="9.00">DirectableRhythmASDRManager.js</text>
</a>
</g>
</g>
<!-- src/js/directable/rhythm/bpm/DirectableRhythmBPM.js -->
<g id="node43" class="node">
<title>src/js/directable/rhythm/bpm/DirectableRhythmBPM.js</title>
<g id="a_node43"><a xlink:href="src/js/directable/rhythm/bpm/DirectableRhythmBPM.js" xlink:title="DirectableRhythmBPM.js">
<path fill="#ffffcc" stroke="black" d="M575.83,-993.25C575.83,-993.25 470.17,-993.25 470.17,-993.25 467.08,-993.25 464,-990.17 464,-987.08 464,-987.08 464,-980.92 464,-980.92 464,-977.83 467.08,-974.75 470.17,-974.75 470.17,-974.75 575.83,-974.75 575.83,-974.75 578.92,-974.75 582,-977.83 582,-980.92 582,-980.92 582,-987.08 582,-987.08 582,-990.17 578.92,-993.25 575.83,-993.25"/>
<text text-anchor="start" x="472" y="-980.7" font-family="Helvetica,sans-Serif" font-size="9.00">DirectableRhythmBPM.js</text>
</a>
</g>
</g>
<!-- src/js/directable/rhythm/bpm/DirectableRhythmBPM.js&#45;&gt;src/js/directable/rhythm/DirectableRhythm.js -->
<g id="edge27" class="edge">
<title>src/js/directable/rhythm/bpm/DirectableRhythmBPM.js&#45;&gt;src/js/directable/rhythm/DirectableRhythm.js</title>
<path fill="none" stroke="#000000" stroke-width="2" stroke-opacity="0.200000" d="M582.42,-984C591.5,-984 600.89,-984 609.96,-984"/>
<polygon fill="#000000" fill-opacity="0.200000" stroke="#000000" stroke-width="2" stroke-opacity="0.200000" points="609.87,-986.1 615.87,-984 609.87,-981.9 609.87,-986.1"/>
</g>
<!-- src/js/directable/rhythm2/ViewRhythm.js -->
<g id="node44" class="node">
<title>src/js/directable/rhythm2/ViewRhythm.js</title>
<g id="a_node44"><a xlink:href="src/js/directable/rhythm2/ViewRhythm.js" xlink:title="ViewRhythm.js">
<path fill="#ffffcc" stroke="black" d="M555.21,-1081.25C555.21,-1081.25 490.79,-1081.25 490.79,-1081.25 487.71,-1081.25 484.62,-1078.17 484.62,-1075.08 484.62,-1075.08 484.62,-1068.92 484.62,-1068.92 484.62,-1065.83 487.71,-1062.75 490.79,-1062.75 490.79,-1062.75 555.21,-1062.75 555.21,-1062.75 558.29,-1062.75 561.38,-1065.83 561.38,-1068.92 561.38,-1068.92 561.38,-1075.08 561.38,-1075.08 561.38,-1078.17 558.29,-1081.25 555.21,-1081.25"/>
<text text-anchor="start" x="492.62" y="-1068.7" font-family="Helvetica,sans-Serif" font-size="9.00">ViewRhythm.js</text>
</a>
</g>
</g>
<!-- src/js/directable/rhythm2/ViewRhythmTrack.js -->
<g id="node45" class="node">
<title>src/js/directable/rhythm2/ViewRhythmTrack.js</title>
<g id="a_node45"><a xlink:href="src/js/directable/rhythm2/ViewRhythmTrack.js" xlink:title="ViewRhythmTrack.js">
<path fill="#ffffcc" stroke="black" d="M712.08,-1081.25C712.08,-1081.25 625.17,-1081.25 625.17,-1081.25 622.08,-1081.25 619,-1078.17 619,-1075.08 619,-1075.08 619,-1068.92 619,-1068.92 619,-1065.83 622.08,-1062.75 625.17,-1062.75 625.17,-1062.75 712.08,-1062.75 712.08,-1062.75 715.17,-1062.75 718.25,-1065.83 718.25,-1068.92 718.25,-1068.92 718.25,-1075.08 718.25,-1075.08 718.25,-1078.17 715.17,-1081.25 712.08,-1081.25"/>
<text text-anchor="start" x="627" y="-1068.7" font-family="Helvetica,sans-Serif" font-size="9.00">ViewRhythmTrack.js</text>
</a>
</g>
</g>
<!-- src/js/directable/rhythm2/ViewRhythm.js&#45;&gt;src/js/directable/rhythm2/ViewRhythmTrack.js -->
<g id="edge28" class="edge">
<title>src/js/directable/rhythm2/ViewRhythm.js&#45;&gt;src/js/directable/rhythm2/ViewRhythmTrack.js</title>
<path fill="none" stroke="#000000" stroke-width="2" stroke-opacity="0.200000" d="M561.74,-1072C576.39,-1072 593.51,-1072 609.66,-1072"/>
<polygon fill="#000000" fill-opacity="0.200000" stroke="#000000" stroke-width="2" stroke-opacity="0.200000" points="609.49,-1074.1 615.49,-1072 609.49,-1069.9 609.49,-1074.1"/>
</g>
<!-- src/js/index.js -->
<g id="node48" class="node">
<title>src/js/index.js</title>
<g id="a_node48"><a xlink:href="src/js/index.js" xlink:title="index.js">
<path fill="#ffffcc" stroke="black" d="M94.96,-1217.25C94.96,-1217.25 53.29,-1217.25 53.29,-1217.25 50.21,-1217.25 47.12,-1214.17 47.12,-1211.08 47.12,-1211.08 47.12,-1204.92 47.12,-1204.92 47.12,-1201.83 50.21,-1198.75 53.29,-1198.75 53.29,-1198.75 94.96,-1198.75 94.96,-1198.75 98.04,-1198.75 101.12,-1201.83 101.12,-1204.92 101.12,-1204.92 101.12,-1211.08 101.12,-1211.08 101.12,-1214.17 98.04,-1217.25 94.96,-1217.25"/>
<text text-anchor="start" x="58.38" y="-1204.7" font-family="Helvetica,sans-Serif" font-size="9.00">index.js</text>
</a>
</g>
</g>
<!-- src/js/index.js&#45;&gt;src/js/application/Application.js -->
<g id="edge32" class="edge">
<title>src/js/index.js&#45;&gt;src/js/application/Application.js</title>
<path fill="none" stroke="#000000" stroke-width="2" stroke-opacity="0.200000" d="M101.59,-1208C108.42,-1208 115.95,-1208 123.39,-1208"/>
<polygon fill="#000000" fill-opacity="0.200000" stroke="#000000" stroke-width="2" stroke-opacity="0.200000" points="123.01,-1210.1 129.01,-1208 123.01,-1205.9 123.01,-1210.1"/>
</g>
<!-- src/js/overlay/displayFormat/OverlayDisplayFormat.js&#45;&gt;src/js/display/DisplayFormats.js -->
<g id="edge35" class="edge">
<title>src/js/overlay/displayFormat/OverlayDisplayFormat.js&#45;&gt;src/js/display/DisplayFormats.js</title>
<path fill="none" stroke="#000000" stroke-width="2" stroke-opacity="0.200000" d="M559.18,-1280.26C575.38,-1275.18 594.6,-1268.28 611,-1260 624.2,-1253.33 637.89,-1243.98 648.5,-1236.11"/>
<polygon fill="#000000" fill-opacity="0.200000" stroke="#000000" stroke-width="2" stroke-opacity="0.200000" points="649.71,-1237.82 653.22,-1232.52 647.18,-1234.48 649.71,-1237.82"/>
</g>
<!-- src/js/overlay/OverlayUtil.js -->
<g id="node51" class="node">
<title>src/js/overlay/OverlayUtil.js</title>
<g id="a_node51"><a xlink:href="src/js/overlay/OverlayUtil.js" xlink:title="OverlayUtil.js">
<path fill="#ffffcc" stroke="black" d="M697.46,-1329.25C697.46,-1329.25 639.79,-1329.25 639.79,-1329.25 636.71,-1329.25 633.62,-1326.17 633.62,-1323.08 633.62,-1323.08 633.62,-1316.92 633.62,-1316.92 633.62,-1313.83 636.71,-1310.75 639.79,-1310.75 639.79,-1310.75 697.46,-1310.75 697.46,-1310.75 700.54,-1310.75 703.62,-1313.83 703.62,-1316.92 703.62,-1316.92 703.62,-1323.08 703.62,-1323.08 703.62,-1326.17 700.54,-1329.25 697.46,-1329.25"/>
<text text-anchor="start" x="641.62" y="-1316.7" font-family="Helvetica,sans-Serif" font-size="9.00">OverlayUtil.js</text>
</a>
</g>
</g>
<!-- src/js/overlay/displayFormat/OverlayDisplayFormat.js&#45;&gt;src/js/overlay/OverlayUtil.js -->
<g id="edge36" class="edge">
<title>src/js/overlay/displayFormat/OverlayDisplayFormat.js&#45;&gt;src/js/overlay/OverlayUtil.js</title>
<path fill="none" stroke="#000000" stroke-width="2" stroke-opacity="0.200000" d="M570.63,-1299.74C588.07,-1303.38 607.77,-1307.5 624.85,-1311.06"/>
<polygon fill="#000000" fill-opacity="0.200000" stroke="#000000" stroke-width="2" stroke-opacity="0.200000" points="624.24,-1313.08 630.55,-1312.26 625.1,-1308.97 624.24,-1313.08"/>
</g>
<!-- src/js/overlay/overlay/OverlayOverlay.js&#45;&gt;src/js/overlay/OverlayUtil.js -->
<g id="edge37" class="edge">
<title>src/js/overlay/overlay/OverlayOverlay.js&#45;&gt;src/js/overlay/OverlayUtil.js</title>
<path fill="none" stroke="#000000" stroke-width="2" stroke-opacity="0.200000" d="M567.09,-1341.7C585.27,-1337.78 606.39,-1333.22 624.56,-1329.29"/>
<polygon fill="#000000" fill-opacity="0.200000" stroke="#000000" stroke-width="2" stroke-opacity="0.200000" points="624.84,-1331.38 630.26,-1328.06 623.96,-1327.28 624.84,-1331.38"/>
</g>
</g>
</svg>
