<?xml version="1.0" encoding="UTF-8" standalone="no"?>
<!DOCTYPE svg PUBLIC "-//W3C//DTD SVG 1.1//EN"
 "http://www.w3.org/Graphics/SVG/1.1/DTD/svg11.dtd">
<!-- Generated by graphviz version 12.2.1 (20241206.2353)
 -->
<!-- Title: dependency&#45;cruiser output Pages: 1 -->
<svg width="850pt" height="2140pt"
 viewBox="0.00 0.00 849.50 2140.00" xmlns="http://www.w3.org/2000/svg" xmlns:xlink="http://www.w3.org/1999/xlink">
<g id="graph0" class="graph" transform="scale(1 1) rotate(0) translate(4 2136)">
<title>dependency&#45;cruiser output</title>
<polygon fill="white" stroke="none" points="-4,4 -4,-2136 845.5,-2136 845.5,4 -4,4"/>
<g id="clust1" class="cluster">
<title>cluster_src</title>
<path fill="#ffffff" stroke="black" stroke-width="2" d="M20,-8C20,-8 821.5,-8 821.5,-8 827.5,-8 833.5,-14 833.5,-20 833.5,-20 833.5,-2112 833.5,-2112 833.5,-2118 827.5,-2124 821.5,-2124 821.5,-2124 20,-2124 20,-2124 14,-2124 8,-2118 8,-2112 8,-2112 8,-20 8,-20 8,-14 14,-8 20,-8"/>
<text text-anchor="middle" x="420.75" y="-2111.45" font-family="Helvetica,sans-Serif" font-weight="bold" font-size="9.00">src</text>
</g>
<g id="clust2" class="cluster">
<title>cluster_src/js</title>
<path fill="#ffffff" stroke="black" stroke-width="2" d="M28,-16C28,-16 813.5,-16 813.5,-16 819.5,-16 825.5,-22 825.5,-28 825.5,-28 825.5,-2085 825.5,-2085 825.5,-2091 819.5,-2097 813.5,-2097 813.5,-2097 28,-2097 28,-2097 22,-2097 16,-2091 16,-2085 16,-2085 16,-28 16,-28 16,-22 22,-16 28,-16"/>
<text text-anchor="middle" x="420.75" y="-2084.45" font-family="Helvetica,sans-Serif" font-weight="bold" font-size="9.00">js</text>
</g>
<g id="clust3" class="cluster">
<title>cluster_src/js/application</title>
<path fill="#ffffff" stroke="black" stroke-width="2" d="M549.5,-1656C549.5,-1656 805.5,-1656 805.5,-1656 811.5,-1656 817.5,-1662 817.5,-1668 817.5,-1668 817.5,-1759 817.5,-1759 817.5,-1765 811.5,-1771 805.5,-1771 805.5,-1771 549.5,-1771 549.5,-1771 543.5,-1771 537.5,-1765 537.5,-1759 537.5,-1759 537.5,-1668 537.5,-1668 537.5,-1662 543.5,-1656 549.5,-1656"/>
<text text-anchor="middle" x="677.5" y="-1758.45" font-family="Helvetica,sans-Serif" font-weight="bold" font-size="9.00">application</text>
</g>
<g id="clust4" class="cluster">
<title>cluster_src/js/controller</title>
<path fill="#ffffff" stroke="black" stroke-width="2" d="M45.75,-1854C45.75,-1854 102.5,-1854 102.5,-1854 108.5,-1854 114.5,-1860 114.5,-1866 114.5,-1866 114.5,-1895 114.5,-1895 114.5,-1901 108.5,-1907 102.5,-1907 102.5,-1907 45.75,-1907 45.75,-1907 39.75,-1907 33.75,-1901 33.75,-1895 33.75,-1895 33.75,-1866 33.75,-1866 33.75,-1860 39.75,-1854 45.75,-1854"/>
<text text-anchor="middle" x="74.12" y="-1894.45" font-family="Helvetica,sans-Serif" font-weight="bold" font-size="9.00">controller</text>
</g>
<g id="clust5" class="cluster">
<title>cluster_src/js/data</title>
<path fill="#ffffff" stroke="black" stroke-width="2" d="M36,-2017C36,-2017 184,-2017 184,-2017 190,-2017 196,-2023 196,-2029 196,-2029 196,-2058 196,-2058 196,-2064 190,-2070 184,-2070 184,-2070 36,-2070 36,-2070 30,-2070 24,-2064 24,-2058 24,-2058 24,-2029 24,-2029 24,-2023 30,-2017 36,-2017"/>
<text text-anchor="middle" x="110" y="-2057.45" font-family="Helvetica,sans-Serif" font-weight="bold" font-size="9.00">data</text>
</g>
<g id="clust6" class="cluster">
<title>cluster_src/js/directable</title>
<path fill="#ffffff" stroke="black" stroke-width="2" d="M216.75,-24C216.75,-24 793.38,-24 793.38,-24 799.38,-24 805.38,-30 805.38,-36 805.38,-36 805.38,-1619 805.38,-1619 805.38,-1625 799.38,-1631 793.38,-1631 793.38,-1631 216.75,-1631 216.75,-1631 210.75,-1631 204.75,-1625 204.75,-1619 204.75,-1619 204.75,-36 204.75,-36 204.75,-30 210.75,-24 216.75,-24"/>
<text text-anchor="middle" x="505.06" y="-1618.45" font-family="Helvetica,sans-Serif" font-weight="bold" font-size="9.00">directable</text>
</g>
<g id="clust7" class="cluster">
<title>cluster_src/js/directable/directables</title>
<path fill="#ffffff" stroke="black" stroke-width="2" d="M224.75,-32C224.75,-32 785.38,-32 785.38,-32 791.38,-32 797.38,-38 797.38,-44 797.38,-44 797.38,-1592 797.38,-1592 797.38,-1598 791.38,-1604 785.38,-1604 785.38,-1604 224.75,-1604 224.75,-1604 218.75,-1604 212.75,-1598 212.75,-1592 212.75,-1592 212.75,-44 212.75,-44 212.75,-38 218.75,-32 224.75,-32"/>
<text text-anchor="middle" x="505.06" y="-1591.45" font-family="Helvetica,sans-Serif" font-weight="bold" font-size="9.00">directables</text>
</g>
<g id="clust8" class="cluster">
<title>cluster_src/js/directable/directables/dotmatrix</title>
<path fill="#ffffff" stroke="black" stroke-width="2" d="M267.75,-40C267.75,-40 777.38,-40 777.38,-40 783.38,-40 789.38,-46 789.38,-52 789.38,-52 789.38,-1163 789.38,-1163 789.38,-1169 783.38,-1175 777.38,-1175 777.38,-1175 267.75,-1175 267.75,-1175 261.75,-1175 255.75,-1169 255.75,-1163 255.75,-1163 255.75,-52 255.75,-52 255.75,-46 261.75,-40 267.75,-40"/>
<text text-anchor="middle" x="522.56" y="-1162.45" font-family="Helvetica,sans-Serif" font-weight="bold" font-size="9.00">dotmatrix</text>
</g>
<g id="clust9" class="cluster">
<title>cluster_src/js/directable/directables/dotmatrix/dot</title>
<path fill="#ffffff" stroke="black" stroke-width="2" d="M569,-171C569,-171 636.25,-171 636.25,-171 642.25,-171 648.25,-177 648.25,-183 648.25,-183 648.25,-243 648.25,-243 648.25,-249 642.25,-255 636.25,-255 636.25,-255 569,-255 569,-255 563,-255 557,-249 557,-243 557,-243 557,-183 557,-183 557,-177 563,-171 569,-171"/>
<text text-anchor="middle" x="602.62" y="-242.45" font-family="Helvetica,sans-Serif" font-weight="bold" font-size="9.00">dot</text>
</g>
<g id="clust10" class="cluster">
<title>cluster_src/js/directable/directables/dotmatrix/grid</title>
<path fill="#ffffff" stroke="black" stroke-width="2" d="M542,-263C542,-263 663.25,-263 663.25,-263 669.25,-263 675.25,-269 675.25,-275 675.25,-275 675.25,-366 675.25,-366 675.25,-372 669.25,-378 663.25,-378 663.25,-378 542,-378 542,-378 536,-378 530,-372 530,-366 530,-366 530,-275 530,-275 530,-269 536,-263 542,-263"/>
<text text-anchor="middle" x="602.62" y="-365.45" font-family="Helvetica,sans-Serif" font-weight="bold" font-size="9.00">grid</text>
</g>
<g id="clust11" class="cluster">
<title>cluster_src/js/directable/directables/dotmatrix/shape</title>
<path fill="#ffffff" stroke="black" stroke-width="2" d="M542.62,-386C542.62,-386 662.62,-386 662.62,-386 668.62,-386 674.62,-392 674.62,-398 674.62,-398 674.62,-1136 674.62,-1136 674.62,-1142 668.62,-1148 662.62,-1148 662.62,-1148 542.62,-1148 542.62,-1148 536.62,-1148 530.62,-1142 530.62,-1136 530.62,-1136 530.62,-398 530.62,-398 530.62,-392 536.62,-386 542.62,-386"/>
<text text-anchor="middle" x="602.62" y="-1135.45" font-family="Helvetica,sans-Serif" font-weight="bold" font-size="9.00">shape</text>
</g>
<g id="clust12" class="cluster">
<title>cluster_src/js/directable/directables/dotmatrix/shape/fill</title>
<path fill="#ffffff" stroke="black" stroke-width="2" d="M561.12,-394C561.12,-394 644.12,-394 644.12,-394 650.12,-394 656.12,-400 656.12,-406 656.12,-406 656.12,-528 656.12,-528 656.12,-534 650.12,-540 644.12,-540 644.12,-540 561.12,-540 561.12,-540 555.12,-540 549.12,-534 549.12,-528 549.12,-528 549.12,-406 549.12,-406 549.12,-400 555.12,-394 561.12,-394"/>
<text text-anchor="middle" x="602.62" y="-527.45" font-family="Helvetica,sans-Serif" font-weight="bold" font-size="9.00">fill</text>
</g>
<g id="clust13" class="cluster">
<title>cluster_src/js/directable/directables/dotmatrix/shape/glyph</title>
<path fill="#ffffff" stroke="black" stroke-width="2" d="M562.62,-548C562.62,-548 642.62,-548 642.62,-548 648.62,-548 654.62,-554 654.62,-560 654.62,-560 654.62,-899 654.62,-899 654.62,-905 648.62,-911 642.62,-911 642.62,-911 562.62,-911 562.62,-911 556.62,-911 550.62,-905 550.62,-899 550.62,-899 550.62,-560 550.62,-560 550.62,-554 556.62,-548 562.62,-548"/>
<text text-anchor="middle" x="602.62" y="-898.45" font-family="Helvetica,sans-Serif" font-weight="bold" font-size="9.00">glyph</text>
</g>
<g id="clust14" class="cluster">
<title>cluster_src/js/directable/directables/dotmatrix/shape/line</title>
<path fill="#ffffff" stroke="black" stroke-width="2" d="M550.62,-919C550.62,-919 654.62,-919 654.62,-919 660.62,-919 666.62,-925 666.62,-931 666.62,-931 666.62,-991 666.62,-991 666.62,-997 660.62,-1003 654.62,-1003 654.62,-1003 550.62,-1003 550.62,-1003 544.62,-1003 538.62,-997 538.62,-991 538.62,-991 538.62,-931 538.62,-931 538.62,-925 544.62,-919 550.62,-919"/>
<text text-anchor="middle" x="602.62" y="-990.45" font-family="Helvetica,sans-Serif" font-weight="bold" font-size="9.00">line</text>
</g>
<g id="clust15" class="cluster">
<title>cluster_src/js/directable/directables/dotmatrix/shape/primative</title>
<path fill="#ffffff" stroke="black" stroke-width="2" d="M559.62,-1011C559.62,-1011 645.62,-1011 645.62,-1011 651.62,-1011 657.62,-1017 657.62,-1023 657.62,-1023 657.62,-1052 657.62,-1052 657.62,-1058 651.62,-1064 645.62,-1064 645.62,-1064 559.62,-1064 559.62,-1064 553.62,-1064 547.62,-1058 547.62,-1052 547.62,-1052 547.62,-1023 547.62,-1023 547.62,-1017 553.62,-1011 559.62,-1011"/>
<text text-anchor="middle" x="602.62" y="-1051.45" font-family="Helvetica,sans-Serif" font-weight="bold" font-size="9.00">primative</text>
</g>
<g id="clust16" class="cluster">
<title>cluster_src/js/directable/directables/dotmatrix/view</title>
<path fill="#ffffff" stroke="black" stroke-width="2" d="M425.75,-48C425.75,-48 769.38,-48 769.38,-48 775.38,-48 781.38,-54 781.38,-60 781.38,-60 781.38,-151 781.38,-151 781.38,-157 775.38,-163 769.38,-163 769.38,-163 425.75,-163 425.75,-163 419.75,-163 413.75,-157 413.75,-151 413.75,-151 413.75,-60 413.75,-60 413.75,-54 419.75,-48 425.75,-48"/>
<text text-anchor="middle" x="597.56" y="-150.45" font-family="Helvetica,sans-Serif" font-weight="bold" font-size="9.00">view</text>
</g>
<g id="clust17" class="cluster">
<title>cluster_src/js/directable/directables/frame</title>
<path fill="#ffffff" stroke="black" stroke-width="2" d="M274.12,-1463C274.12,-1463 359.38,-1463 359.38,-1463 365.38,-1463 371.38,-1469 371.38,-1475 371.38,-1475 371.38,-1504 371.38,-1504 371.38,-1510 365.38,-1516 359.38,-1516 359.38,-1516 274.12,-1516 274.12,-1516 268.12,-1516 262.12,-1510 262.12,-1504 262.12,-1504 262.12,-1475 262.12,-1475 262.12,-1469 268.12,-1463 274.12,-1463"/>
<text text-anchor="middle" x="316.75" y="-1503.45" font-family="Helvetica,sans-Serif" font-weight="bold" font-size="9.00">frame</text>
</g>
<g id="clust18" class="cluster">
<title>cluster_src/js/directable/directables/rhythm</title>
<path fill="#ffffff" stroke="black" stroke-width="2" d="M232.75,-1244C232.75,-1244 507.62,-1244 507.62,-1244 513.62,-1244 519.62,-1250 519.62,-1256 519.62,-1256 519.62,-1443 519.62,-1443 519.62,-1449 513.62,-1455 507.62,-1455 507.62,-1455 232.75,-1455 232.75,-1455 226.75,-1455 220.75,-1449 220.75,-1443 220.75,-1443 220.75,-1256 220.75,-1256 220.75,-1250 226.75,-1244 232.75,-1244"/>
<text text-anchor="middle" x="370.19" y="-1442.45" font-family="Helvetica,sans-Serif" font-weight="bold" font-size="9.00">rhythm</text>
</g>
<g id="clust19" class="cluster">
<title>cluster_src/js/directable/directables/rhythm/asdr</title>
<path fill="#ffffff" stroke="black" stroke-width="2" d="M240.75,-1252C240.75,-1252 392.75,-1252 392.75,-1252 398.75,-1252 404.75,-1258 404.75,-1264 404.75,-1264 404.75,-1355 404.75,-1355 404.75,-1361 398.75,-1367 392.75,-1367 392.75,-1367 240.75,-1367 240.75,-1367 234.75,-1367 228.75,-1361 228.75,-1355 228.75,-1355 228.75,-1264 228.75,-1264 228.75,-1258 234.75,-1252 240.75,-1252"/>
<text text-anchor="middle" x="316.75" y="-1354.45" font-family="Helvetica,sans-Serif" font-weight="bold" font-size="9.00">asdr</text>
</g>
<g id="clust20" class="cluster">
<title>cluster_src/js/directable/directables/rhythm/bpm</title>
<path fill="#ffffff" stroke="black" stroke-width="2" d="M261.75,-1375C261.75,-1375 371.75,-1375 371.75,-1375 377.75,-1375 383.75,-1381 383.75,-1387 383.75,-1387 383.75,-1416 383.75,-1416 383.75,-1422 377.75,-1428 371.75,-1428 371.75,-1428 261.75,-1428 261.75,-1428 255.75,-1428 249.75,-1422 249.75,-1416 249.75,-1416 249.75,-1387 249.75,-1387 249.75,-1381 255.75,-1375 261.75,-1375"/>
<text text-anchor="middle" x="316.75" y="-1415.45" font-family="Helvetica,sans-Serif" font-weight="bold" font-size="9.00">bpm</text>
</g>
<g id="clust21" class="cluster">
<title>cluster_src/js/directable/directables/rhythm2</title>
<path fill="#ffffff" stroke="black" stroke-width="2" d="M282.38,-1183C282.38,-1183 508,-1183 508,-1183 514,-1183 520,-1189 520,-1195 520,-1195 520,-1224 520,-1224 520,-1230 514,-1236 508,-1236 508,-1236 282.38,-1236 282.38,-1236 276.38,-1236 270.38,-1230 270.38,-1224 270.38,-1224 270.38,-1195 270.38,-1195 270.38,-1189 276.38,-1183 282.38,-1183"/>
<text text-anchor="middle" x="395.19" y="-1223.45" font-family="Helvetica,sans-Serif" font-weight="bold" font-size="9.00">rhythm2</text>
</g>
<g id="clust22" class="cluster">
<title>cluster_src/js/directable/directables/title</title>
<path fill="#ffffff" stroke="black" stroke-width="2" d="M278.62,-1524C278.62,-1524 354.88,-1524 354.88,-1524 360.88,-1524 366.88,-1530 366.88,-1536 366.88,-1536 366.88,-1565 366.88,-1565 366.88,-1571 360.88,-1577 354.88,-1577 354.88,-1577 278.62,-1577 278.62,-1577 272.62,-1577 266.62,-1571 266.62,-1565 266.62,-1565 266.62,-1536 266.62,-1536 266.62,-1530 272.62,-1524 278.62,-1524"/>
<text text-anchor="middle" x="316.75" y="-1564.45" font-family="Helvetica,sans-Serif" font-weight="bold" font-size="9.00">title</text>
</g>
<g id="clust23" class="cluster">
<title>cluster_src/js/director</title>
<path fill="#ffffff" stroke="black" stroke-width="2" d="M136.25,-1566C136.25,-1566 184.75,-1566 184.75,-1566 190.75,-1566 196.75,-1572 196.75,-1578 196.75,-1578 196.75,-1607 196.75,-1607 196.75,-1613 190.75,-1619 184.75,-1619 184.75,-1619 136.25,-1619 136.25,-1619 130.25,-1619 124.25,-1613 124.25,-1607 124.25,-1607 124.25,-1578 124.25,-1578 124.25,-1572 130.25,-1566 136.25,-1566"/>
<text text-anchor="middle" x="160.5" y="-1606.45" font-family="Helvetica,sans-Serif" font-weight="bold" font-size="9.00">director</text>
</g>
<g id="clust24" class="cluster">
<title>cluster_src/js/enum</title>
<path fill="#ffffff" stroke="black" stroke-width="2" d="M562.25,-1835C562.25,-1835 643,-1835 643,-1835 649,-1835 655,-1841 655,-1847 655,-1847 655,-1876 655,-1876 655,-1882 649,-1888 643,-1888 643,-1888 562.25,-1888 562.25,-1888 556.25,-1888 550.25,-1882 550.25,-1876 550.25,-1876 550.25,-1847 550.25,-1847 550.25,-1841 556.25,-1835 562.25,-1835"/>
<text text-anchor="middle" x="602.62" y="-1875.45" font-family="Helvetica,sans-Serif" font-weight="bold" font-size="9.00">enum</text>
</g>
<g id="clust25" class="cluster">
<title>cluster_src/js/overlay</title>
<path fill="#ffffff" stroke="black" stroke-width="2" d="M136.62,-1669C136.62,-1669 493.38,-1669 493.38,-1669 499.38,-1669 505.38,-1675 505.38,-1681 505.38,-1681 505.38,-1806 505.38,-1806 505.38,-1812 499.38,-1818 493.38,-1818 493.38,-1818 136.62,-1818 136.62,-1818 130.62,-1818 124.62,-1812 124.62,-1806 124.62,-1806 124.62,-1681 124.62,-1681 124.62,-1675 130.62,-1669 136.62,-1669"/>
<text text-anchor="middle" x="315" y="-1805.45" font-family="Helvetica,sans-Serif" font-weight="bold" font-size="9.00">overlay</text>
</g>
<g id="clust26" class="cluster">
<title>cluster_src/js/overlay/displayFormat</title>
<path fill="#ffffff" stroke="black" stroke-width="2" d="M262.88,-1738C262.88,-1738 370.62,-1738 370.62,-1738 376.62,-1738 382.62,-1744 382.62,-1750 382.62,-1750 382.62,-1779 382.62,-1779 382.62,-1785 376.62,-1791 370.62,-1791 370.62,-1791 262.88,-1791 262.88,-1791 256.88,-1791 250.88,-1785 250.88,-1779 250.88,-1779 250.88,-1750 250.88,-1750 250.88,-1744 256.88,-1738 262.88,-1738"/>
<text text-anchor="middle" x="316.75" y="-1778.45" font-family="Helvetica,sans-Serif" font-weight="bold" font-size="9.00">displayFormat</text>
</g>
<g id="clust27" class="cluster">
<title>cluster_src/js/overlay/overlay</title>
<path fill="#ffffff" stroke="black" stroke-width="2" d="M277.12,-1677C277.12,-1677 356.38,-1677 356.38,-1677 362.38,-1677 368.38,-1683 368.38,-1689 368.38,-1689 368.38,-1718 368.38,-1718 368.38,-1724 362.38,-1730 356.38,-1730 356.38,-1730 277.12,-1730 277.12,-1730 271.12,-1730 265.12,-1724 265.12,-1718 265.12,-1718 265.12,-1689 265.12,-1689 265.12,-1683 271.12,-1677 277.12,-1677"/>
<text text-anchor="middle" x="316.75" y="-1717.45" font-family="Helvetica,sans-Serif" font-weight="bold" font-size="9.00">overlay</text>
</g>
<g id="clust28" class="cluster">
<title>cluster_src/js/view</title>
<path fill="#ffffff" stroke="black" stroke-width="2" d="M137.5,-1880C137.5,-1880 510,-1880 510,-1880 516,-1880 522,-1886 522,-1892 522,-1892 522,-1987 522,-1987 522,-1993 516,-1999 510,-1999 510,-1999 137.5,-1999 137.5,-1999 131.5,-1999 125.5,-1993 125.5,-1987 125.5,-1987 125.5,-1892 125.5,-1892 125.5,-1886 131.5,-1880 137.5,-1880"/>
<text text-anchor="middle" x="323.75" y="-1986.45" font-family="Helvetica,sans-Serif" font-weight="bold" font-size="9.00">view</text>
</g>
<g id="clust29" class="cluster">
<title>cluster_src/js/view/render</title>
<path fill="#ffffff" stroke="black" stroke-width="2" d="M273,-1888C273,-1888 502,-1888 502,-1888 508,-1888 514,-1894 514,-1900 514,-1900 514,-1960 514,-1960 514,-1966 508,-1972 502,-1972 502,-1972 273,-1972 273,-1972 267,-1972 261,-1966 261,-1960 261,-1960 261,-1900 261,-1900 261,-1894 267,-1888 273,-1888"/>
<text text-anchor="middle" x="387.5" y="-1959.45" font-family="Helvetica,sans-Serif" font-weight="bold" font-size="9.00">render</text>
</g>
<!-- src/js/application/Application.js -->
<g id="node1" class="node">
<title>src/js/application/Application.js</title>
<g id="a_node1"><a xlink:href="src/js/application/Application.js" xlink:title="Application.js">
<path fill="#ffffcc" stroke="black" d="M631.83,-1744.25C631.83,-1744.25 573.42,-1744.25 573.42,-1744.25 570.33,-1744.25 567.25,-1741.17 567.25,-1738.08 567.25,-1738.08 567.25,-1731.92 567.25,-1731.92 567.25,-1728.83 570.33,-1725.75 573.42,-1725.75 573.42,-1725.75 631.83,-1725.75 631.83,-1725.75 634.92,-1725.75 638,-1728.83 638,-1731.92 638,-1731.92 638,-1738.08 638,-1738.08 638,-1741.17 634.92,-1744.25 631.83,-1744.25"/>
<text text-anchor="start" x="575.25" y="-1731.7" font-family="Helvetica,sans-Serif" font-size="9.00">Application.js</text>
</a>
</g>
</g>
<!-- src/js/controller/Controller.js -->
<g id="node2" class="node">
<title>src/js/controller/Controller.js</title>
<g id="a_node2"><a xlink:href="src/js/controller/Controller.js" xlink:title="Controller.js">
<path fill="#ffffcc" stroke="black" d="M100.33,-1880.25C100.33,-1880.25 47.92,-1880.25 47.92,-1880.25 44.83,-1880.25 41.75,-1877.17 41.75,-1874.08 41.75,-1874.08 41.75,-1867.92 41.75,-1867.92 41.75,-1864.83 44.83,-1861.75 47.92,-1861.75 47.92,-1861.75 100.33,-1861.75 100.33,-1861.75 103.42,-1861.75 106.5,-1864.83 106.5,-1867.92 106.5,-1867.92 106.5,-1874.08 106.5,-1874.08 106.5,-1877.17 103.42,-1880.25 100.33,-1880.25"/>
<text text-anchor="start" x="49.75" y="-1867.7" font-family="Helvetica,sans-Serif" font-size="9.00">Controller.js</text>
</a>
</g>
</g>
<!-- src/js/application/Application.js&#45;&gt;src/js/controller/Controller.js -->
<g id="edge1" class="edge">
<title>src/js/application/Application.js&#45;&gt;src/js/controller/Controller.js</title>
<path fill="none" stroke="#000000" stroke-width="2" stroke-opacity="0.200000" d="M592.4,-1744.6C577.08,-1761.09 546.45,-1796.48 530,-1832 523.48,-1846.09 534.12,-1856.29 522,-1866 506.32,-1878.57 223.25,-1874.07 115.92,-1871.89"/>
<polygon fill="#000000" fill-opacity="0.200000" stroke="#000000" stroke-width="2" stroke-opacity="0.200000" points="116.07,-1869.8 110.02,-1871.77 115.98,-1874 116.07,-1869.8"/>
</g>
<!-- src/js/application/ApplicationConfiguration.js -->
<g id="node3" class="node">
<title>src/js/application/ApplicationConfiguration.js</title>
<g id="a_node3"><a xlink:href="src/js/application/ApplicationConfiguration.js" xlink:title="ApplicationConfiguration.js">
<path fill="#ffffcc" stroke="black" d="M803.33,-1744.25C803.33,-1744.25 689.42,-1744.25 689.42,-1744.25 686.33,-1744.25 683.25,-1741.17 683.25,-1738.08 683.25,-1738.08 683.25,-1731.92 683.25,-1731.92 683.25,-1728.83 686.33,-1725.75 689.42,-1725.75 689.42,-1725.75 803.33,-1725.75 803.33,-1725.75 806.42,-1725.75 809.5,-1728.83 809.5,-1731.92 809.5,-1731.92 809.5,-1738.08 809.5,-1738.08 809.5,-1741.17 806.42,-1744.25 803.33,-1744.25"/>
<text text-anchor="start" x="691.25" y="-1731.7" font-family="Helvetica,sans-Serif" font-size="9.00">ApplicationConfiguration.js</text>
</a>
</g>
</g>
<!-- src/js/application/Application.js&#45;&gt;src/js/application/ApplicationConfiguration.js -->
<g id="edge2" class="edge">
<title>src/js/application/Application.js&#45;&gt;src/js/application/ApplicationConfiguration.js</title>
<path fill="none" stroke="#000000" stroke-width="2" stroke-opacity="0.200000" d="M638.3,-1735C649.12,-1735 661.47,-1735 673.85,-1735"/>
<polygon fill="#000000" fill-opacity="0.200000" stroke="#000000" stroke-width="2" stroke-opacity="0.200000" points="673.82,-1737.1 679.82,-1735 673.82,-1732.9 673.82,-1737.1"/>
</g>
<!-- src/js/application/ApplicationLogger.js -->
<g id="node4" class="node">
<title>src/js/application/ApplicationLogger.js</title>
<g id="a_node4"><a xlink:href="src/js/application/ApplicationLogger.js" xlink:title="ApplicationLogger.js">
<path fill="#ffffcc" stroke="black" d="M789.83,-1682.25C789.83,-1682.25 702.92,-1682.25 702.92,-1682.25 699.83,-1682.25 696.75,-1679.17 696.75,-1676.08 696.75,-1676.08 696.75,-1669.92 696.75,-1669.92 696.75,-1666.83 699.83,-1663.75 702.92,-1663.75 702.92,-1663.75 789.83,-1663.75 789.83,-1663.75 792.92,-1663.75 796,-1666.83 796,-1669.92 796,-1669.92 796,-1676.08 796,-1676.08 796,-1679.17 792.92,-1682.25 789.83,-1682.25"/>
<text text-anchor="start" x="704.75" y="-1669.7" font-family="Helvetica,sans-Serif" font-size="9.00">ApplicationLogger.js</text>
</a>
</g>
</g>
<!-- src/js/application/Application.js&#45;&gt;src/js/application/ApplicationLogger.js -->
<g id="edge3" class="edge">
<title>src/js/application/Application.js&#45;&gt;src/js/application/ApplicationLogger.js</title>
<path fill="none" stroke="#000000" stroke-width="2" stroke-opacity="0.200000" d="M638.18,-1734.64C651.29,-1732.79 665.42,-1728.44 675.25,-1719 685.2,-1709.44 673.45,-1698.72 683.25,-1689 685.03,-1687.24 686.98,-1685.66 689.05,-1684.25"/>
<polygon fill="#000000" fill-opacity="0.200000" stroke="#000000" stroke-width="2" stroke-opacity="0.200000" points="689.65,-1686.31 693.86,-1681.55 687.6,-1682.65 689.65,-1686.31"/>
</g>
<!-- src/js/controller/Controller.js&#45;&gt;src/js/application/ApplicationLogger.js -->
<g id="edge5" class="edge">
<title>src/js/controller/Controller.js&#45;&gt;src/js/application/ApplicationLogger.js</title>
<path fill="none" stroke="#000000" stroke-width="2" stroke-opacity="0.200000" d="M75.36,-1880.7C76.55,-1905.79 83.58,-1972.86 124.25,-2002 141.56,-2014.4 294.46,-2008 315.75,-2008 315.75,-2008 315.75,-2008 463.38,-2008 564.35,-2008 616.78,-2008.32 675.25,-1926 690.51,-1904.52 666.76,-1709.55 683.25,-1689 684.92,-1686.92 686.81,-1685.1 688.88,-1683.49"/>
<polygon fill="#000000" fill-opacity="0.200000" stroke="#000000" stroke-width="2" stroke-opacity="0.200000" points="689.9,-1685.33 693.92,-1680.41 687.71,-1681.74 689.9,-1685.33"/>
</g>
<!-- src/js/director/Director.js -->
<g id="node7" class="node">
<title>src/js/director/Director.js</title>
<g id="a_node7"><a xlink:href="src/js/director/Director.js" xlink:title="Director.js">
<path fill="#ffffcc" stroke="black" d="M182.58,-1592.25C182.58,-1592.25 138.42,-1592.25 138.42,-1592.25 135.33,-1592.25 132.25,-1589.17 132.25,-1586.08 132.25,-1586.08 132.25,-1579.92 132.25,-1579.92 132.25,-1576.83 135.33,-1573.75 138.42,-1573.75 138.42,-1573.75 182.58,-1573.75 182.58,-1573.75 185.67,-1573.75 188.75,-1576.83 188.75,-1579.92 188.75,-1579.92 188.75,-1586.08 188.75,-1586.08 188.75,-1589.17 185.67,-1592.25 182.58,-1592.25"/>
<text text-anchor="start" x="140.25" y="-1579.7" font-family="Helvetica,sans-Serif" font-size="9.00">Director.js</text>
</a>
</g>
</g>
<!-- src/js/controller/Controller.js&#45;&gt;src/js/director/Director.js -->
<g id="edge6" class="edge">
<title>src/js/controller/Controller.js&#45;&gt;src/js/director/Director.js</title>
<path fill="none" stroke="#000000" stroke-width="2" stroke-opacity="0.200000" d="M76.83,-1861.44C82.21,-1831.92 99.96,-1739.69 124.25,-1666 131.93,-1642.7 143.41,-1616.83 151.17,-1600.26"/>
<polygon fill="#000000" fill-opacity="0.200000" stroke="#000000" stroke-width="2" stroke-opacity="0.200000" points="152.87,-1601.57 153.55,-1595.25 149.08,-1599.77 152.87,-1601.57"/>
</g>
<!-- src/js/overlay/Overlay.js -->
<g id="node8" class="node">
<title>src/js/overlay/Overlay.js</title>
<g id="a_node8"><a xlink:href="src/js/overlay/Overlay.js" xlink:title="Overlay.js">
<path fill="#ffffcc" stroke="black" d="M182.21,-1734.25C182.21,-1734.25 138.79,-1734.25 138.79,-1734.25 135.71,-1734.25 132.62,-1731.17 132.62,-1728.08 132.62,-1728.08 132.62,-1721.92 132.62,-1721.92 132.62,-1718.83 135.71,-1715.75 138.79,-1715.75 138.79,-1715.75 182.21,-1715.75 182.21,-1715.75 185.29,-1715.75 188.38,-1718.83 188.38,-1721.92 188.38,-1721.92 188.38,-1728.08 188.38,-1728.08 188.38,-1731.17 185.29,-1734.25 182.21,-1734.25"/>
<text text-anchor="start" x="140.62" y="-1721.7" font-family="Helvetica,sans-Serif" font-size="9.00">Overlay.js</text>
</a>
</g>
</g>
<!-- src/js/controller/Controller.js&#45;&gt;src/js/overlay/Overlay.js -->
<g id="edge7" class="edge">
<title>src/js/controller/Controller.js&#45;&gt;src/js/overlay/Overlay.js</title>
<path fill="none" stroke="#000000" stroke-width="2" stroke-opacity="0.200000" d="M80.66,-1861.42C94.67,-1837.18 131.67,-1773.15 149.55,-1742.21"/>
<polygon fill="#000000" fill-opacity="0.200000" stroke="#000000" stroke-width="2" stroke-opacity="0.200000" points="151.35,-1743.29 152.54,-1737.05 147.72,-1741.19 151.35,-1743.29"/>
</g>
<!-- src/js/view/View.js -->
<g id="node9" class="node">
<title>src/js/view/View.js</title>
<g id="a_node9"><a xlink:href="src/js/view/View.js" xlink:title="View.js">
<path fill="#ffffcc" stroke="black" d="M181.33,-1910.25C181.33,-1910.25 139.67,-1910.25 139.67,-1910.25 136.58,-1910.25 133.5,-1907.17 133.5,-1904.08 133.5,-1904.08 133.5,-1897.92 133.5,-1897.92 133.5,-1894.83 136.58,-1891.75 139.67,-1891.75 139.67,-1891.75 181.33,-1891.75 181.33,-1891.75 184.42,-1891.75 187.5,-1894.83 187.5,-1897.92 187.5,-1897.92 187.5,-1904.08 187.5,-1904.08 187.5,-1907.17 184.42,-1910.25 181.33,-1910.25"/>
<text text-anchor="start" x="146.25" y="-1897.7" font-family="Helvetica,sans-Serif" font-size="9.00">View.js</text>
</a>
</g>
</g>
<!-- src/js/controller/Controller.js&#45;&gt;src/js/view/View.js -->
<g id="edge8" class="edge">
<title>src/js/controller/Controller.js&#45;&gt;src/js/view/View.js</title>
<path fill="none" stroke="#000000" stroke-width="2" stroke-opacity="0.200000" d="M102.29,-1880.66C109.57,-1883.25 117.55,-1886.08 125.17,-1888.79"/>
<polygon fill="#000000" fill-opacity="0.200000" stroke="#000000" stroke-width="2" stroke-opacity="0.200000" points="124.04,-1890.62 130.4,-1890.65 125.45,-1886.66 124.04,-1890.62"/>
</g>
<!-- src/js/application/ApplicationDispatcher.js -->
<g id="node5" class="node">
<title>src/js/application/ApplicationDispatcher.js</title>
<g id="a_node5"><a xlink:href="src/js/application/ApplicationDispatcher.js" xlink:title="ApplicationDispatcher.js">
<path fill="#ffffcc" stroke="black" d="M653.58,-1713.25C653.58,-1713.25 551.67,-1713.25 551.67,-1713.25 548.58,-1713.25 545.5,-1710.17 545.5,-1707.08 545.5,-1707.08 545.5,-1700.92 545.5,-1700.92 545.5,-1697.83 548.58,-1694.75 551.67,-1694.75 551.67,-1694.75 653.58,-1694.75 653.58,-1694.75 656.67,-1694.75 659.75,-1697.83 659.75,-1700.92 659.75,-1700.92 659.75,-1707.08 659.75,-1707.08 659.75,-1710.17 656.67,-1713.25 653.58,-1713.25"/>
<text text-anchor="start" x="553.5" y="-1700.7" font-family="Helvetica,sans-Serif" font-size="9.00">ApplicationDispatcher.js</text>
</a>
</g>
</g>
<!-- src/js/application/ApplicationEvent.js -->
<g id="node6" class="node">
<title>src/js/application/ApplicationEvent.js</title>
<g id="a_node6"><a xlink:href="src/js/application/ApplicationEvent.js" xlink:title="ApplicationEvent.js">
<path fill="#ffffcc" stroke="black" d="M787.21,-1713.25C787.21,-1713.25 705.54,-1713.25 705.54,-1713.25 702.46,-1713.25 699.38,-1710.17 699.38,-1707.08 699.38,-1707.08 699.38,-1700.92 699.38,-1700.92 699.38,-1697.83 702.46,-1694.75 705.54,-1694.75 705.54,-1694.75 787.21,-1694.75 787.21,-1694.75 790.29,-1694.75 793.38,-1697.83 793.38,-1700.92 793.38,-1700.92 793.38,-1707.08 793.38,-1707.08 793.38,-1710.17 790.29,-1713.25 787.21,-1713.25"/>
<text text-anchor="start" x="707.38" y="-1700.7" font-family="Helvetica,sans-Serif" font-size="9.00">ApplicationEvent.js</text>
</a>
</g>
</g>
<!-- src/js/application/ApplicationDispatcher.js&#45;&gt;src/js/application/ApplicationEvent.js -->
<g id="edge4" class="edge">
<title>src/js/application/ApplicationDispatcher.js&#45;&gt;src/js/application/ApplicationEvent.js</title>
<path fill="none" stroke="#000000" stroke-width="2" stroke-opacity="0.200000" d="M660.06,-1704C669.99,-1704 680.31,-1704 690.21,-1704"/>
<polygon fill="#000000" fill-opacity="0.200000" stroke="#000000" stroke-width="2" stroke-opacity="0.200000" points="690.12,-1706.1 696.12,-1704 690.12,-1701.9 690.12,-1706.1"/>
</g>
<!-- src/js/director/Director.js&#45;&gt;src/js/application/ApplicationLogger.js -->
<g id="edge27" class="edge">
<title>src/js/director/Director.js&#45;&gt;src/js/application/ApplicationLogger.js</title>
<path fill="none" stroke="#000000" stroke-width="2" stroke-opacity="0.200000" d="M189.22,-1585.98C266.54,-1594.51 491,-1620.66 675.25,-1656 683.2,-1657.52 691.61,-1659.36 699.73,-1661.26"/>
<polygon fill="#000000" fill-opacity="0.200000" stroke="#000000" stroke-width="2" stroke-opacity="0.200000" points="699.13,-1663.28 705.46,-1662.63 700.11,-1659.19 699.13,-1663.28"/>
</g>
<!-- src/js/directable/directables/dotmatrix/DirectableDotMatrix.js -->
<g id="node12" class="node">
<title>src/js/directable/directables/dotmatrix/DirectableDotMatrix.js</title>
<g id="a_node12"><a xlink:href="src/js/directable/directables/dotmatrix/DirectableDotMatrix.js" xlink:title="DirectableDotMatrix.js">
<path fill="#ffffcc" stroke="black" d="M363.58,-1148.25C363.58,-1148.25 269.92,-1148.25 269.92,-1148.25 266.83,-1148.25 263.75,-1145.17 263.75,-1142.08 263.75,-1142.08 263.75,-1135.92 263.75,-1135.92 263.75,-1132.83 266.83,-1129.75 269.92,-1129.75 269.92,-1129.75 363.58,-1129.75 363.58,-1129.75 366.67,-1129.75 369.75,-1132.83 369.75,-1135.92 369.75,-1135.92 369.75,-1142.08 369.75,-1142.08 369.75,-1145.17 366.67,-1148.25 363.58,-1148.25"/>
<text text-anchor="start" x="271.75" y="-1135.7" font-family="Helvetica,sans-Serif" font-size="9.00">DirectableDotMatrix.js</text>
</a>
</g>
</g>
<!-- src/js/director/Director.js&#45;&gt;src/js/directable/directables/dotmatrix/DirectableDotMatrix.js -->
<g id="edge28" class="edge">
<title>src/js/director/Director.js&#45;&gt;src/js/directable/directables/dotmatrix/DirectableDotMatrix.js</title>
<path fill="none" stroke="#000000" stroke-width="2" stroke-opacity="0.200000" d="M161.92,-1573.52C164.59,-1515.7 179.72,-1212.12 204.75,-1180 217.01,-1164.26 235.95,-1154.56 254.73,-1148.59"/>
<polygon fill="#000000" fill-opacity="0.200000" stroke="#000000" stroke-width="2" stroke-opacity="0.200000" points="255.24,-1150.63 260.41,-1146.94 254.07,-1146.59 255.24,-1150.63"/>
</g>
<!-- src/js/directable/directables/title/DirectableTitle.js -->
<g id="node51" class="node">
<title>src/js/directable/directables/title/DirectableTitle.js</title>
<g id="a_node51"><a xlink:href="src/js/directable/directables/title/DirectableTitle.js" xlink:title="DirectableTitle.js">
<path fill="#ffffcc" stroke="black" d="M352.71,-1550.25C352.71,-1550.25 280.79,-1550.25 280.79,-1550.25 277.71,-1550.25 274.62,-1547.17 274.62,-1544.08 274.62,-1544.08 274.62,-1537.92 274.62,-1537.92 274.62,-1534.83 277.71,-1531.75 280.79,-1531.75 280.79,-1531.75 352.71,-1531.75 352.71,-1531.75 355.79,-1531.75 358.88,-1534.83 358.88,-1537.92 358.88,-1537.92 358.88,-1544.08 358.88,-1544.08 358.88,-1547.17 355.79,-1550.25 352.71,-1550.25"/>
<text text-anchor="start" x="282.62" y="-1537.7" font-family="Helvetica,sans-Serif" font-size="9.00">DirectableTitle.js</text>
</a>
</g>
</g>
<!-- src/js/director/Director.js&#45;&gt;src/js/directable/directables/title/DirectableTitle.js -->
<g id="edge29" class="edge">
<title>src/js/director/Director.js&#45;&gt;src/js/directable/directables/title/DirectableTitle.js</title>
<path fill="none" stroke="#000000" stroke-width="2" stroke-opacity="0.200000" d="M189.08,-1575.49C211.99,-1569.25 245.01,-1560.26 271.6,-1553.02"/>
<polygon fill="#000000" fill-opacity="0.200000" stroke="#000000" stroke-width="2" stroke-opacity="0.200000" points="271.83,-1555.14 277.06,-1551.53 270.72,-1551.08 271.83,-1555.14"/>
</g>
<!-- src/js/overlay/Overlay.js&#45;&gt;src/js/application/ApplicationConfiguration.js -->
<g id="edge31" class="edge">
<title>src/js/overlay/Overlay.js&#45;&gt;src/js/application/ApplicationConfiguration.js</title>
<path fill="none" stroke="#000000" stroke-width="2" stroke-opacity="0.200000" d="M166.33,-1715.27C173.03,-1703 186.42,-1682.49 204.75,-1674 245.08,-1655.32 360.32,-1672.77 404.75,-1674 464.93,-1675.67 628.54,-1651.01 675.25,-1689 685.96,-1697.71 673.45,-1709.28 683.25,-1719 683.71,-1719.46 684.18,-1719.9 684.66,-1720.33"/>
<polygon fill="#000000" fill-opacity="0.200000" stroke="#000000" stroke-width="2" stroke-opacity="0.200000" points="682.91,-1721.65 689,-1723.5 685.39,-1718.26 682.91,-1721.65"/>
</g>
<!-- src/js/overlay/Overlay.js&#45;&gt;src/js/application/ApplicationLogger.js -->
<g id="edge33" class="edge">
<title>src/js/overlay/Overlay.js&#45;&gt;src/js/application/ApplicationLogger.js</title>
<path fill="none" stroke="#000000" stroke-width="2" stroke-opacity="0.200000" d="M164.71,-1715.55C170.26,-1700.94 183.15,-1673.37 204.75,-1662 246.57,-1639.98 557.12,-1659.41 687.74,-1668.7"/>
<polygon fill="#000000" fill-opacity="0.200000" stroke="#000000" stroke-width="2" stroke-opacity="0.200000" points="687.3,-1670.78 693.44,-1669.11 687.6,-1666.59 687.3,-1670.78"/>
</g>
<!-- src/js/overlay/Overlay.js&#45;&gt;src/js/application/ApplicationDispatcher.js -->
<g id="edge32" class="edge">
<title>src/js/overlay/Overlay.js&#45;&gt;src/js/application/ApplicationDispatcher.js</title>
<path fill="none" stroke="#000000" stroke-width="2" stroke-opacity="0.200000" d="M164.19,-1734.55C169.2,-1750.28 181.62,-1781.2 204.75,-1794 282.52,-1837.04 319.01,-1817.44 404.75,-1794 467.12,-1776.95 469.88,-1743.78 530,-1720 533.4,-1718.66 536.94,-1717.41 540.54,-1716.26"/>
<polygon fill="#000000" fill-opacity="0.200000" stroke="#000000" stroke-width="2" stroke-opacity="0.200000" points="540.96,-1718.33 546.12,-1714.61 539.77,-1714.3 540.96,-1718.33"/>
</g>
<!-- src/js/overlay/displayFormat/OverlayDisplayFormat.js -->
<g id="node54" class="node">
<title>src/js/overlay/displayFormat/OverlayDisplayFormat.js</title>
<g id="a_node54"><a xlink:href="src/js/overlay/displayFormat/OverlayDisplayFormat.js" xlink:title="OverlayDisplayFormat.js">
<path fill="#ffffcc" stroke="black" d="M368.46,-1764.25C368.46,-1764.25 265.04,-1764.25 265.04,-1764.25 261.96,-1764.25 258.88,-1761.17 258.88,-1758.08 258.88,-1758.08 258.88,-1751.92 258.88,-1751.92 258.88,-1748.83 261.96,-1745.75 265.04,-1745.75 265.04,-1745.75 368.46,-1745.75 368.46,-1745.75 371.54,-1745.75 374.62,-1748.83 374.62,-1751.92 374.62,-1751.92 374.62,-1758.08 374.62,-1758.08 374.62,-1761.17 371.54,-1764.25 368.46,-1764.25"/>
<text text-anchor="start" x="266.88" y="-1751.7" font-family="Helvetica,sans-Serif" font-size="9.00">OverlayDisplayFormat.js</text>
</a>
</g>
</g>
<!-- src/js/overlay/Overlay.js&#45;&gt;src/js/overlay/displayFormat/OverlayDisplayFormat.js -->
<g id="edge34" class="edge">
<title>src/js/overlay/Overlay.js&#45;&gt;src/js/overlay/displayFormat/OverlayDisplayFormat.js</title>
<path fill="none" stroke="#000000" stroke-width="2" stroke-opacity="0.200000" d="M188.72,-1730.29C207.59,-1733.96 233.44,-1738.99 256.89,-1743.55"/>
<polygon fill="#000000" fill-opacity="0.200000" stroke="#000000" stroke-width="2" stroke-opacity="0.200000" points="256.48,-1745.61 262.77,-1744.7 257.28,-1741.49 256.48,-1745.61"/>
</g>
<!-- src/js/overlay/overlay/OverlayOverlay.js -->
<g id="node55" class="node">
<title>src/js/overlay/overlay/OverlayOverlay.js</title>
<g id="a_node55"><a xlink:href="src/js/overlay/overlay/OverlayOverlay.js" xlink:title="OverlayOverlay.js">
<path fill="#ffffcc" stroke="black" d="M354.21,-1703.25C354.21,-1703.25 279.29,-1703.25 279.29,-1703.25 276.21,-1703.25 273.12,-1700.17 273.12,-1697.08 273.12,-1697.08 273.12,-1690.92 273.12,-1690.92 273.12,-1687.83 276.21,-1684.75 279.29,-1684.75 279.29,-1684.75 354.21,-1684.75 354.21,-1684.75 357.29,-1684.75 360.38,-1687.83 360.38,-1690.92 360.38,-1690.92 360.38,-1697.08 360.38,-1697.08 360.38,-1700.17 357.29,-1703.25 354.21,-1703.25"/>
<text text-anchor="start" x="281.12" y="-1690.7" font-family="Helvetica,sans-Serif" font-size="9.00">OverlayOverlay.js</text>
</a>
</g>
</g>
<!-- src/js/overlay/Overlay.js&#45;&gt;src/js/overlay/overlay/OverlayOverlay.js -->
<g id="edge35" class="edge">
<title>src/js/overlay/Overlay.js&#45;&gt;src/js/overlay/overlay/OverlayOverlay.js</title>
<path fill="none" stroke="#000000" stroke-width="2" stroke-opacity="0.200000" d="M188.72,-1719.53C209.53,-1715.35 238.84,-1709.46 264.06,-1704.39"/>
<polygon fill="#000000" fill-opacity="0.200000" stroke="#000000" stroke-width="2" stroke-opacity="0.200000" points="264.36,-1706.47 269.82,-1703.23 263.53,-1702.35 264.36,-1706.47"/>
</g>
<!-- src/js/view/render/RenderController.js -->
<g id="node57" class="node">
<title>src/js/view/render/RenderController.js</title>
<g id="a_node57"><a xlink:href="src/js/view/render/RenderController.js" xlink:title="RenderController.js">
<path fill="#ffffcc" stroke="black" d="M358.33,-1929.25C358.33,-1929.25 275.17,-1929.25 275.17,-1929.25 272.08,-1929.25 269,-1926.17 269,-1923.08 269,-1923.08 269,-1916.92 269,-1916.92 269,-1913.83 272.08,-1910.75 275.17,-1910.75 275.17,-1910.75 358.33,-1910.75 358.33,-1910.75 361.42,-1910.75 364.5,-1913.83 364.5,-1916.92 364.5,-1916.92 364.5,-1923.08 364.5,-1923.08 364.5,-1926.17 361.42,-1929.25 358.33,-1929.25"/>
<text text-anchor="start" x="277" y="-1916.7" font-family="Helvetica,sans-Serif" font-size="9.00">RenderController.js</text>
</a>
</g>
</g>
<!-- src/js/view/View.js&#45;&gt;src/js/view/render/RenderController.js -->
<g id="edge41" class="edge">
<title>src/js/view/View.js&#45;&gt;src/js/view/render/RenderController.js</title>
<path fill="none" stroke="#000000" stroke-width="2" stroke-opacity="0.200000" d="M187.67,-1904.22C207.34,-1906.65 235.02,-1910.06 259.62,-1913.09"/>
<polygon fill="#000000" fill-opacity="0.200000" stroke="#000000" stroke-width="2" stroke-opacity="0.200000" points="259.31,-1915.16 265.52,-1913.81 259.82,-1910.99 259.31,-1915.16"/>
</g>
<!-- src/js/data/Data.json -->
<g id="node10" class="node">
<title>src/js/data/Data.json</title>
<g id="a_node10"><a xlink:href="src/js/data/Data.json" xlink:title="Data.json">
<path fill="#ffee44" stroke="black" d="M181.83,-2043.25C181.83,-2043.25 139.17,-2043.25 139.17,-2043.25 136.08,-2043.25 133,-2040.17 133,-2037.08 133,-2037.08 133,-2030.92 133,-2030.92 133,-2027.83 136.08,-2024.75 139.17,-2024.75 139.17,-2024.75 181.83,-2024.75 181.83,-2024.75 184.92,-2024.75 188,-2027.83 188,-2030.92 188,-2030.92 188,-2037.08 188,-2037.08 188,-2040.17 184.92,-2043.25 181.83,-2043.25"/>
<text text-anchor="start" x="141" y="-2030.7" font-family="Helvetica,sans-Serif" font-size="9.00">Data.json</text>
</a>
</g>
</g>
<!-- src/js/data/DataController.js -->
<g id="node11" class="node">
<title>src/js/data/DataController.js</title>
<g id="a_node11"><a xlink:href="src/js/data/DataController.js" xlink:title="DataController.js">
<path fill="#ffffcc" stroke="black" d="M110.08,-2043.25C110.08,-2043.25 38.17,-2043.25 38.17,-2043.25 35.08,-2043.25 32,-2040.17 32,-2037.08 32,-2037.08 32,-2030.92 32,-2030.92 32,-2027.83 35.08,-2024.75 38.17,-2024.75 38.17,-2024.75 110.08,-2024.75 110.08,-2024.75 113.17,-2024.75 116.25,-2027.83 116.25,-2030.92 116.25,-2030.92 116.25,-2037.08 116.25,-2037.08 116.25,-2040.17 113.17,-2043.25 110.08,-2043.25"/>
<text text-anchor="start" x="40" y="-2030.7" font-family="Helvetica,sans-Serif" font-size="9.00">DataController.js</text>
</a>
</g>
</g>
<!-- src/js/data/DataController.js&#45;&gt;src/js/data/Data.json -->
<g id="edge9" class="edge">
<title>src/js/data/DataController.js&#45;&gt;src/js/data/Data.json</title>
<path fill="none" stroke="#000000" stroke-width="2" stroke-opacity="0.200000" d="M116.32,-2034C118.74,-2034 121.16,-2034 123.55,-2034"/>
<polygon fill="#000000" fill-opacity="0.200000" stroke="#000000" stroke-width="2" stroke-opacity="0.200000" points="123.55,-2036.1 129.55,-2034 123.55,-2031.9 123.55,-2036.1"/>
</g>
<!-- src/js/directable/directables/dotmatrix/DirectableDotMatrix.js&#45;&gt;src/js/application/ApplicationLogger.js -->
<g id="edge10" class="edge">
<title>src/js/directable/directables/dotmatrix/DirectableDotMatrix.js&#45;&gt;src/js/application/ApplicationLogger.js</title>
<path fill="none" stroke="#000000" stroke-width="2" stroke-opacity="0.200000" d="M360.1,-1148.64C376.89,-1154.72 394.6,-1164.49 404.75,-1180 421.67,-1205.86 391.55,-1435.52 412.75,-1458 422.79,-1468.65 663.63,-1472.09 675.25,-1481 731.07,-1523.79 742.49,-1615.41 744.8,-1654.6"/>
<polygon fill="#000000" fill-opacity="0.200000" stroke="#000000" stroke-width="2" stroke-opacity="0.200000" points="742.69,-1654.46 745.07,-1660.35 746.89,-1654.26 742.69,-1654.46"/>
</g>
<!-- src/js/directable/directables/dotmatrix/view/ViewManager.js -->
<g id="node13" class="node">
<title>src/js/directable/directables/dotmatrix/view/ViewManager.js</title>
<g id="a_node13"><a xlink:href="src/js/directable/directables/dotmatrix/view/ViewManager.js" xlink:title="ViewManager.js">
<path fill="#ffffcc" stroke="black" d="M496.83,-74.25C496.83,-74.25 427.92,-74.25 427.92,-74.25 424.83,-74.25 421.75,-71.17 421.75,-68.08 421.75,-68.08 421.75,-61.92 421.75,-61.92 421.75,-58.83 424.83,-55.75 427.92,-55.75 427.92,-55.75 496.83,-55.75 496.83,-55.75 499.92,-55.75 503,-58.83 503,-61.92 503,-61.92 503,-68.08 503,-68.08 503,-71.17 499.92,-74.25 496.83,-74.25"/>
<text text-anchor="start" x="429.75" y="-61.7" font-family="Helvetica,sans-Serif" font-size="9.00">ViewManager.js</text>
</a>
</g>
</g>
<!-- src/js/directable/directables/dotmatrix/DirectableDotMatrix.js&#45;&gt;src/js/directable/directables/dotmatrix/view/ViewManager.js -->
<g id="edge11" class="edge">
<title>src/js/directable/directables/dotmatrix/DirectableDotMatrix.js&#45;&gt;src/js/directable/directables/dotmatrix/view/ViewManager.js</title>
<path fill="none" stroke="#000000" stroke-width="2" stroke-opacity="0.200000" d="M317.98,-1129.42C320.46,-1028.84 343.64,-168.01 412.75,-81 413.36,-80.23 414,-79.51 414.68,-78.81"/>
<polygon fill="#000000" fill-opacity="0.200000" stroke="#000000" stroke-width="2" stroke-opacity="0.200000" points="415.74,-80.65 419.18,-75.31 413.16,-77.34 415.74,-80.65"/>
</g>
<!-- src/js/directable/directables/dotmatrix/view/ViewManager.js&#45;&gt;src/js/application/ApplicationLogger.js -->
<g id="edge13" class="edge">
<title>src/js/directable/directables/dotmatrix/view/ViewManager.js&#45;&gt;src/js/application/ApplicationLogger.js</title>
<path fill="none" stroke="#000000" stroke-width="2" stroke-opacity="0.200000" d="M503.22,-68.48C510.52,-70.97 517.3,-74.9 522,-81 531.06,-92.78 526.72,-1136.51 530,-1151 563.62,-1299.39 618.98,-1319.64 675.25,-1461 703.28,-1531.43 729.4,-1617.94 740.18,-1654.89"/>
<polygon fill="#000000" fill-opacity="0.200000" stroke="#000000" stroke-width="2" stroke-opacity="0.200000" points="738.16,-1655.47 741.85,-1660.65 742.19,-1654.3 738.16,-1655.47"/>
</g>
<!-- src/js/directable/directables/dotmatrix/dot/DotManager.js -->
<g id="node15" class="node">
<title>src/js/directable/directables/dotmatrix/dot/DotManager.js</title>
<g id="a_node15"><a xlink:href="src/js/directable/directables/dotmatrix/dot/DotManager.js" xlink:title="DotManager.js">
<path fill="#ffffcc" stroke="black" d="M634.08,-228.25C634.08,-228.25 571.17,-228.25 571.17,-228.25 568.08,-228.25 565,-225.17 565,-222.08 565,-222.08 565,-215.92 565,-215.92 565,-212.83 568.08,-209.75 571.17,-209.75 571.17,-209.75 634.08,-209.75 634.08,-209.75 637.17,-209.75 640.25,-212.83 640.25,-215.92 640.25,-215.92 640.25,-222.08 640.25,-222.08 640.25,-225.17 637.17,-228.25 634.08,-228.25"/>
<text text-anchor="start" x="573" y="-215.7" font-family="Helvetica,sans-Serif" font-size="9.00">DotManager.js</text>
</a>
</g>
</g>
<!-- src/js/directable/directables/dotmatrix/view/ViewManager.js&#45;&gt;src/js/directable/directables/dotmatrix/dot/DotManager.js -->
<g id="edge14" class="edge">
<title>src/js/directable/directables/dotmatrix/view/ViewManager.js&#45;&gt;src/js/directable/directables/dotmatrix/dot/DotManager.js</title>
<path fill="none" stroke="#000000" stroke-width="2" stroke-opacity="0.200000" d="M503.25,-68.8C510.45,-71.28 517.19,-75.12 522,-81 539.19,-102.04 512.33,-182.36 530,-203 536.6,-210.71 546.03,-215.17 555.89,-217.66"/>
<polygon fill="#000000" fill-opacity="0.200000" stroke="#000000" stroke-width="2" stroke-opacity="0.200000" points="555.34,-219.69 561.63,-218.78 556.15,-215.57 555.34,-219.69"/>
</g>
<!-- src/js/directable/directables/dotmatrix/grid/GridData.js -->
<g id="node16" class="node">
<title>src/js/directable/directables/dotmatrix/grid/GridData.js</title>
<g id="a_node16"><a xlink:href="src/js/directable/directables/dotmatrix/grid/GridData.js" xlink:title="GridData.js">
<path fill="#ffffcc" stroke="black" d="M627.33,-289.25C627.33,-289.25 577.92,-289.25 577.92,-289.25 574.83,-289.25 571.75,-286.17 571.75,-283.08 571.75,-283.08 571.75,-276.92 571.75,-276.92 571.75,-273.83 574.83,-270.75 577.92,-270.75 577.92,-270.75 627.33,-270.75 627.33,-270.75 630.42,-270.75 633.5,-273.83 633.5,-276.92 633.5,-276.92 633.5,-283.08 633.5,-283.08 633.5,-286.17 630.42,-289.25 627.33,-289.25"/>
<text text-anchor="start" x="579.75" y="-276.7" font-family="Helvetica,sans-Serif" font-size="9.00">GridData.js</text>
</a>
</g>
</g>
<!-- src/js/directable/directables/dotmatrix/view/ViewManager.js&#45;&gt;src/js/directable/directables/dotmatrix/grid/GridData.js -->
<g id="edge15" class="edge">
<title>src/js/directable/directables/dotmatrix/view/ViewManager.js&#45;&gt;src/js/directable/directables/dotmatrix/grid/GridData.js</title>
<path fill="none" stroke="#000000" stroke-width="2" stroke-opacity="0.200000" d="M503.34,-68.72C510.54,-71.21 517.25,-75.07 522,-81 534.3,-96.37 517.95,-242.44 530,-258 537.9,-268.19 550.42,-273.79 562.79,-276.83"/>
<polygon fill="#000000" fill-opacity="0.200000" stroke="#000000" stroke-width="2" stroke-opacity="0.200000" points="562.02,-278.81 568.32,-277.94 562.85,-274.69 562.02,-278.81"/>
</g>
<!-- src/js/directable/directables/dotmatrix/shape/ShapeManager.js -->
<g id="node20" class="node">
<title>src/js/directable/directables/dotmatrix/shape/ShapeManager.js</title>
<g id="a_node20"><a xlink:href="src/js/directable/directables/dotmatrix/shape/ShapeManager.js" xlink:title="ShapeManager.js">
<path fill="#ffffcc" stroke="black" d="M640.46,-1121.25C640.46,-1121.25 564.79,-1121.25 564.79,-1121.25 561.71,-1121.25 558.62,-1118.17 558.62,-1115.08 558.62,-1115.08 558.62,-1108.92 558.62,-1108.92 558.62,-1105.83 561.71,-1102.75 564.79,-1102.75 564.79,-1102.75 640.46,-1102.75 640.46,-1102.75 643.54,-1102.75 646.62,-1105.83 646.62,-1108.92 646.62,-1108.92 646.62,-1115.08 646.62,-1115.08 646.62,-1118.17 643.54,-1121.25 640.46,-1121.25"/>
<text text-anchor="start" x="566.62" y="-1108.7" font-family="Helvetica,sans-Serif" font-size="9.00">ShapeManager.js</text>
</a>
</g>
</g>
<!-- src/js/directable/directables/dotmatrix/view/ViewManager.js&#45;&gt;src/js/directable/directables/dotmatrix/shape/ShapeManager.js -->
<g id="edge16" class="edge">
<title>src/js/directable/directables/dotmatrix/view/ViewManager.js&#45;&gt;src/js/directable/directables/dotmatrix/shape/ShapeManager.js</title>
<path fill="none" stroke="#000000" stroke-width="2" stroke-opacity="0.200000" d="M503.21,-68.48C510.52,-70.97 517.3,-74.9 522,-81 539.2,-103.34 512.28,-1074.07 530,-1096 535.12,-1102.33 542.14,-1106.5 549.8,-1109.19"/>
<polygon fill="#000000" fill-opacity="0.200000" stroke="#000000" stroke-width="2" stroke-opacity="0.200000" points="549.04,-1111.16 555.39,-1110.75 550.17,-1107.11 549.04,-1111.16"/>
</g>
<!-- src/js/directable/directables/dotmatrix/view/ViewTest.js -->
<g id="node41" class="node">
<title>src/js/directable/directables/dotmatrix/view/ViewTest.js</title>
<g id="a_node41"><a xlink:href="src/js/directable/directables/dotmatrix/view/ViewTest.js" xlink:title="ViewTest.js">
<path fill="#ffffcc" stroke="black" d="M627.33,-136.25C627.33,-136.25 577.92,-136.25 577.92,-136.25 574.83,-136.25 571.75,-133.17 571.75,-130.08 571.75,-130.08 571.75,-123.92 571.75,-123.92 571.75,-120.83 574.83,-117.75 577.92,-117.75 577.92,-117.75 627.33,-117.75 627.33,-117.75 630.42,-117.75 633.5,-120.83 633.5,-123.92 633.5,-123.92 633.5,-130.08 633.5,-130.08 633.5,-133.17 630.42,-136.25 627.33,-136.25"/>
<text text-anchor="start" x="579.75" y="-123.7" font-family="Helvetica,sans-Serif" font-size="9.00">ViewTest.js</text>
</a>
</g>
</g>
<!-- src/js/directable/directables/dotmatrix/view/ViewManager.js&#45;&gt;src/js/directable/directables/dotmatrix/view/ViewTest.js -->
<g id="edge17" class="edge">
<title>src/js/directable/directables/dotmatrix/view/ViewManager.js&#45;&gt;src/js/directable/directables/dotmatrix/view/ViewTest.js</title>
<path fill="none" stroke="#000000" stroke-width="2" stroke-opacity="0.200000" d="M503.26,-74.4C509.62,-76.32 516.06,-78.52 522,-81 542.58,-89.58 564.4,-102.49 579.99,-112.45"/>
<polygon fill="#000000" fill-opacity="0.200000" stroke="#000000" stroke-width="2" stroke-opacity="0.200000" points="578.81,-114.19 584.99,-115.7 581.1,-110.67 578.81,-114.19"/>
</g>
<!-- src/js/directable/directables/dotmatrix/dot/Dot.js -->
<g id="node14" class="node">
<title>src/js/directable/directables/dotmatrix/dot/Dot.js</title>
<g id="a_node14"><a xlink:href="src/js/directable/directables/dotmatrix/dot/Dot.js" xlink:title="Dot.js">
<path fill="#ccffcc" stroke="black" d="M623.46,-197.25C623.46,-197.25 581.79,-197.25 581.79,-197.25 578.71,-197.25 575.62,-194.17 575.62,-191.08 575.62,-191.08 575.62,-184.92 575.62,-184.92 575.62,-181.83 578.71,-178.75 581.79,-178.75 581.79,-178.75 623.46,-178.75 623.46,-178.75 626.54,-178.75 629.62,-181.83 629.62,-184.92 629.62,-184.92 629.62,-191.08 629.62,-191.08 629.62,-194.17 626.54,-197.25 623.46,-197.25"/>
<text text-anchor="start" x="591" y="-184.7" font-family="Helvetica,sans-Serif" font-size="9.00">Dot.js</text>
</a>
</g>
</g>
<!-- src/js/directable/directables/dotmatrix/grid/GridRenderer.js -->
<g id="node17" class="node">
<title>src/js/directable/directables/dotmatrix/grid/GridRenderer.js</title>
<g id="a_node17"><a xlink:href="src/js/directable/directables/dotmatrix/grid/GridRenderer.js" xlink:title="GridRenderer.js">
<path fill="#ccffcc" stroke="black" d="M636.71,-320.25C636.71,-320.25 568.54,-320.25 568.54,-320.25 565.46,-320.25 562.38,-317.17 562.38,-314.08 562.38,-314.08 562.38,-307.92 562.38,-307.92 562.38,-304.83 565.46,-301.75 568.54,-301.75 568.54,-301.75 636.71,-301.75 636.71,-301.75 639.79,-301.75 642.88,-304.83 642.88,-307.92 642.88,-307.92 642.88,-314.08 642.88,-314.08 642.88,-317.17 639.79,-320.25 636.71,-320.25"/>
<text text-anchor="start" x="570.38" y="-307.7" font-family="Helvetica,sans-Serif" font-size="9.00">GridRenderer.js</text>
</a>
</g>
</g>
<!-- src/js/directable/directables/dotmatrix/grid/GridRendererComponent.js -->
<g id="node18" class="node">
<title>src/js/directable/directables/dotmatrix/grid/GridRendererComponent.js</title>
<g id="a_node18"><a xlink:href="src/js/directable/directables/dotmatrix/grid/GridRendererComponent.js" xlink:title="GridRendererComponent.js">
<path fill="#ccffcc" stroke="black" d="M661.08,-351.25C661.08,-351.25 544.17,-351.25 544.17,-351.25 541.08,-351.25 538,-348.17 538,-345.08 538,-345.08 538,-338.92 538,-338.92 538,-335.83 541.08,-332.75 544.17,-332.75 544.17,-332.75 661.08,-332.75 661.08,-332.75 664.17,-332.75 667.25,-335.83 667.25,-338.92 667.25,-338.92 667.25,-345.08 667.25,-345.08 667.25,-348.17 664.17,-351.25 661.08,-351.25"/>
<text text-anchor="start" x="546" y="-338.7" font-family="Helvetica,sans-Serif" font-size="9.00">GridRendererComponent.js</text>
</a>
</g>
</g>
<!-- src/js/directable/directables/dotmatrix/shape/Shape.js -->
<g id="node19" class="node">
<title>src/js/directable/directables/dotmatrix/shape/Shape.js</title>
<g id="a_node19"><a xlink:href="src/js/directable/directables/dotmatrix/shape/Shape.js" xlink:title="Shape.js">
<path fill="#ccffcc" stroke="black" d="M623.46,-1090.25C623.46,-1090.25 581.79,-1090.25 581.79,-1090.25 578.71,-1090.25 575.62,-1087.17 575.62,-1084.08 575.62,-1084.08 575.62,-1077.92 575.62,-1077.92 575.62,-1074.83 578.71,-1071.75 581.79,-1071.75 581.79,-1071.75 623.46,-1071.75 623.46,-1071.75 626.54,-1071.75 629.62,-1074.83 629.62,-1077.92 629.62,-1077.92 629.62,-1084.08 629.62,-1084.08 629.62,-1087.17 626.54,-1090.25 623.46,-1090.25"/>
<text text-anchor="start" x="584.62" y="-1077.7" font-family="Helvetica,sans-Serif" font-size="9.00">Shape.js</text>
</a>
</g>
</g>
<!-- src/js/directable/directables/dotmatrix/shape/fill/Fill.js -->
<g id="node21" class="node">
<title>src/js/directable/directables/dotmatrix/shape/fill/Fill.js</title>
<g id="a_node21"><a xlink:href="src/js/directable/directables/dotmatrix/shape/fill/Fill.js" xlink:title="Fill.js">
<path fill="#ccffcc" stroke="black" d="M623.46,-420.25C623.46,-420.25 581.79,-420.25 581.79,-420.25 578.71,-420.25 575.62,-417.17 575.62,-414.08 575.62,-414.08 575.62,-407.92 575.62,-407.92 575.62,-404.83 578.71,-401.75 581.79,-401.75 581.79,-401.75 623.46,-401.75 623.46,-401.75 626.54,-401.75 629.62,-404.83 629.62,-407.92 629.62,-407.92 629.62,-414.08 629.62,-414.08 629.62,-417.17 626.54,-420.25 623.46,-420.25"/>
<text text-anchor="start" x="592.12" y="-407.7" font-family="Helvetica,sans-Serif" font-size="9.00">Fill.js</text>
</a>
</g>
</g>
<!-- src/js/directable/directables/dotmatrix/shape/fill/FillStrategy.js -->
<g id="node22" class="node">
<title>src/js/directable/directables/dotmatrix/shape/fill/FillStrategy.js</title>
<g id="a_node22"><a xlink:href="src/js/directable/directables/dotmatrix/shape/fill/FillStrategy.js" xlink:title="FillStrategy.js">
<path fill="#ccffcc" stroke="black" d="M631.46,-451.25C631.46,-451.25 573.79,-451.25 573.79,-451.25 570.71,-451.25 567.62,-448.17 567.62,-445.08 567.62,-445.08 567.62,-438.92 567.62,-438.92 567.62,-435.83 570.71,-432.75 573.79,-432.75 573.79,-432.75 631.46,-432.75 631.46,-432.75 634.54,-432.75 637.62,-435.83 637.62,-438.92 637.62,-438.92 637.62,-445.08 637.62,-445.08 637.62,-448.17 634.54,-451.25 631.46,-451.25"/>
<text text-anchor="start" x="575.62" y="-438.7" font-family="Helvetica,sans-Serif" font-size="9.00">FillStrategy.js</text>
</a>
</g>
</g>
<!-- src/js/directable/directables/dotmatrix/shape/fill/FillStrategyType.js -->
<g id="node23" class="node">
<title>src/js/directable/directables/dotmatrix/shape/fill/FillStrategyType.js</title>
<g id="a_node23"><a xlink:href="src/js/directable/directables/dotmatrix/shape/fill/FillStrategyType.js" xlink:title="FillStrategyType.js">
<path fill="#ccffcc" stroke="black" d="M641.96,-482.25C641.96,-482.25 563.29,-482.25 563.29,-482.25 560.21,-482.25 557.12,-479.17 557.12,-476.08 557.12,-476.08 557.12,-469.92 557.12,-469.92 557.12,-466.83 560.21,-463.75 563.29,-463.75 563.29,-463.75 641.96,-463.75 641.96,-463.75 645.04,-463.75 648.12,-466.83 648.12,-469.92 648.12,-469.92 648.12,-476.08 648.12,-476.08 648.12,-479.17 645.04,-482.25 641.96,-482.25"/>
<text text-anchor="start" x="565.12" y="-469.7" font-family="Helvetica,sans-Serif" font-size="9.00">FillStrategyType.js</text>
</a>
</g>
</g>
<!-- src/js/directable/directables/dotmatrix/shape/fill/FillType.js -->
<g id="node24" class="node">
<title>src/js/directable/directables/dotmatrix/shape/fill/FillType.js</title>
<g id="a_node24"><a xlink:href="src/js/directable/directables/dotmatrix/shape/fill/FillType.js" xlink:title="FillType.js">
<path fill="#ccffcc" stroke="black" d="M625.08,-513.25C625.08,-513.25 580.17,-513.25 580.17,-513.25 577.08,-513.25 574,-510.17 574,-507.08 574,-507.08 574,-500.92 574,-500.92 574,-497.83 577.08,-494.75 580.17,-494.75 580.17,-494.75 625.08,-494.75 625.08,-494.75 628.17,-494.75 631.25,-497.83 631.25,-500.92 631.25,-500.92 631.25,-507.08 631.25,-507.08 631.25,-510.17 628.17,-513.25 625.08,-513.25"/>
<text text-anchor="start" x="582" y="-500.7" font-family="Helvetica,sans-Serif" font-size="9.00">FillType.js</text>
</a>
</g>
</g>
<!-- src/js/directable/directables/dotmatrix/shape/glyph/ShapeGlyph_A.js -->
<g id="node25" class="node">
<title>src/js/directable/directables/dotmatrix/shape/glyph/ShapeGlyph_A.js</title>
<g id="a_node25"><a xlink:href="src/js/directable/directables/dotmatrix/shape/glyph/ShapeGlyph_A.js" xlink:title="ShapeGlyph_A.js">
<path fill="#ccffcc" stroke="black" d="M640.08,-574.25C640.08,-574.25 565.17,-574.25 565.17,-574.25 562.08,-574.25 559,-571.17 559,-568.08 559,-568.08 559,-561.92 559,-561.92 559,-558.83 562.08,-555.75 565.17,-555.75 565.17,-555.75 640.08,-555.75 640.08,-555.75 643.17,-555.75 646.25,-558.83 646.25,-561.92 646.25,-561.92 646.25,-568.08 646.25,-568.08 646.25,-571.17 643.17,-574.25 640.08,-574.25"/>
<text text-anchor="start" x="567" y="-561.7" font-family="Helvetica,sans-Serif" font-size="9.00">ShapeGlyph_A.js</text>
</a>
</g>
</g>
<!-- src/js/directable/directables/dotmatrix/shape/glyph/ShapeGlyph_B.js -->
<g id="node26" class="node">
<title>src/js/directable/directables/dotmatrix/shape/glyph/ShapeGlyph_B.js</title>
<g id="a_node26"><a xlink:href="src/js/directable/directables/dotmatrix/shape/glyph/ShapeGlyph_B.js" xlink:title="ShapeGlyph_B.js">
<path fill="#ccffcc" stroke="black" d="M640.08,-605.25C640.08,-605.25 565.17,-605.25 565.17,-605.25 562.08,-605.25 559,-602.17 559,-599.08 559,-599.08 559,-592.92 559,-592.92 559,-589.83 562.08,-586.75 565.17,-586.75 565.17,-586.75 640.08,-586.75 640.08,-586.75 643.17,-586.75 646.25,-589.83 646.25,-592.92 646.25,-592.92 646.25,-599.08 646.25,-599.08 646.25,-602.17 643.17,-605.25 640.08,-605.25"/>
<text text-anchor="start" x="567" y="-592.7" font-family="Helvetica,sans-Serif" font-size="9.00">ShapeGlyph_B.js</text>
</a>
</g>
</g>
<!-- src/js/directable/directables/dotmatrix/shape/glyph/ShapeGlyph_C.js -->
<g id="node27" class="node">
<title>src/js/directable/directables/dotmatrix/shape/glyph/ShapeGlyph_C.js</title>
<g id="a_node27"><a xlink:href="src/js/directable/directables/dotmatrix/shape/glyph/ShapeGlyph_C.js" xlink:title="ShapeGlyph_C.js">
<path fill="#ccffcc" stroke="black" d="M640.46,-636.25C640.46,-636.25 564.79,-636.25 564.79,-636.25 561.71,-636.25 558.62,-633.17 558.62,-630.08 558.62,-630.08 558.62,-623.92 558.62,-623.92 558.62,-620.83 561.71,-617.75 564.79,-617.75 564.79,-617.75 640.46,-617.75 640.46,-617.75 643.54,-617.75 646.62,-620.83 646.62,-623.92 646.62,-623.92 646.62,-630.08 646.62,-630.08 646.62,-633.17 643.54,-636.25 640.46,-636.25"/>
<text text-anchor="start" x="566.62" y="-623.7" font-family="Helvetica,sans-Serif" font-size="9.00">ShapeGlyph_C.js</text>
</a>
</g>
</g>
<!-- src/js/directable/directables/dotmatrix/shape/glyph/ShapeGlyph_D.js -->
<g id="node28" class="node">
<title>src/js/directable/directables/dotmatrix/shape/glyph/ShapeGlyph_D.js</title>
<g id="a_node28"><a xlink:href="src/js/directable/directables/dotmatrix/shape/glyph/ShapeGlyph_D.js" xlink:title="ShapeGlyph_D.js">
<path fill="#ccffcc" stroke="black" d="M640.46,-667.25C640.46,-667.25 564.79,-667.25 564.79,-667.25 561.71,-667.25 558.62,-664.17 558.62,-661.08 558.62,-661.08 558.62,-654.92 558.62,-654.92 558.62,-651.83 561.71,-648.75 564.79,-648.75 564.79,-648.75 640.46,-648.75 640.46,-648.75 643.54,-648.75 646.62,-651.83 646.62,-654.92 646.62,-654.92 646.62,-661.08 646.62,-661.08 646.62,-664.17 643.54,-667.25 640.46,-667.25"/>
<text text-anchor="start" x="566.62" y="-654.7" font-family="Helvetica,sans-Serif" font-size="9.00">ShapeGlyph_D.js</text>
</a>
</g>
</g>
<!-- src/js/directable/directables/dotmatrix/shape/glyph/ShapeGlyph_E.js -->
<g id="node29" class="node">
<title>src/js/directable/directables/dotmatrix/shape/glyph/ShapeGlyph_E.js</title>
<g id="a_node29"><a xlink:href="src/js/directable/directables/dotmatrix/shape/glyph/ShapeGlyph_E.js" xlink:title="ShapeGlyph_E.js">
<path fill="#ccffcc" stroke="black" d="M640.08,-698.25C640.08,-698.25 565.17,-698.25 565.17,-698.25 562.08,-698.25 559,-695.17 559,-692.08 559,-692.08 559,-685.92 559,-685.92 559,-682.83 562.08,-679.75 565.17,-679.75 565.17,-679.75 640.08,-679.75 640.08,-679.75 643.17,-679.75 646.25,-682.83 646.25,-685.92 646.25,-685.92 646.25,-692.08 646.25,-692.08 646.25,-695.17 643.17,-698.25 640.08,-698.25"/>
<text text-anchor="start" x="567" y="-685.7" font-family="Helvetica,sans-Serif" font-size="9.00">ShapeGlyph_E.js</text>
</a>
</g>
</g>
<!-- src/js/directable/directables/dotmatrix/shape/glyph/ShapeGlyph_F.js -->
<g id="node30" class="node">
<title>src/js/directable/directables/dotmatrix/shape/glyph/ShapeGlyph_F.js</title>
<g id="a_node30"><a xlink:href="src/js/directable/directables/dotmatrix/shape/glyph/ShapeGlyph_F.js" xlink:title="ShapeGlyph_F.js">
<path fill="#ccffcc" stroke="black" d="M639.33,-729.25C639.33,-729.25 565.92,-729.25 565.92,-729.25 562.83,-729.25 559.75,-726.17 559.75,-723.08 559.75,-723.08 559.75,-716.92 559.75,-716.92 559.75,-713.83 562.83,-710.75 565.92,-710.75 565.92,-710.75 639.33,-710.75 639.33,-710.75 642.42,-710.75 645.5,-713.83 645.5,-716.92 645.5,-716.92 645.5,-723.08 645.5,-723.08 645.5,-726.17 642.42,-729.25 639.33,-729.25"/>
<text text-anchor="start" x="567.75" y="-716.7" font-family="Helvetica,sans-Serif" font-size="9.00">ShapeGlyph_F.js</text>
</a>
</g>
</g>
<!-- src/js/directable/directables/dotmatrix/shape/glyph/ShapeGlyph_G.js -->
<g id="node31" class="node">
<title>src/js/directable/directables/dotmatrix/shape/glyph/ShapeGlyph_G.js</title>
<g id="a_node31"><a xlink:href="src/js/directable/directables/dotmatrix/shape/glyph/ShapeGlyph_G.js" xlink:title="ShapeGlyph_G.js">
<path fill="#ccffcc" stroke="black" d="M640.46,-760.25C640.46,-760.25 564.79,-760.25 564.79,-760.25 561.71,-760.25 558.62,-757.17 558.62,-754.08 558.62,-754.08 558.62,-747.92 558.62,-747.92 558.62,-744.83 561.71,-741.75 564.79,-741.75 564.79,-741.75 640.46,-741.75 640.46,-741.75 643.54,-741.75 646.62,-744.83 646.62,-747.92 646.62,-747.92 646.62,-754.08 646.62,-754.08 646.62,-757.17 643.54,-760.25 640.46,-760.25"/>
<text text-anchor="start" x="566.62" y="-747.7" font-family="Helvetica,sans-Serif" font-size="9.00">ShapeGlyph_G.js</text>
</a>
</g>
</g>
<!-- src/js/directable/directables/dotmatrix/shape/glyph/ShapeGlyph_H.js -->
<g id="node32" class="node">
<title>src/js/directable/directables/dotmatrix/shape/glyph/ShapeGlyph_H.js</title>
<g id="a_node32"><a xlink:href="src/js/directable/directables/dotmatrix/shape/glyph/ShapeGlyph_H.js" xlink:title="ShapeGlyph_H.js">
<path fill="#ccffcc" stroke="black" d="M640.46,-791.25C640.46,-791.25 564.79,-791.25 564.79,-791.25 561.71,-791.25 558.62,-788.17 558.62,-785.08 558.62,-785.08 558.62,-778.92 558.62,-778.92 558.62,-775.83 561.71,-772.75 564.79,-772.75 564.79,-772.75 640.46,-772.75 640.46,-772.75 643.54,-772.75 646.62,-775.83 646.62,-778.92 646.62,-778.92 646.62,-785.08 646.62,-785.08 646.62,-788.17 643.54,-791.25 640.46,-791.25"/>
<text text-anchor="start" x="566.62" y="-778.7" font-family="Helvetica,sans-Serif" font-size="9.00">ShapeGlyph_H.js</text>
</a>
</g>
</g>
<!-- src/js/directable/directables/dotmatrix/shape/glyph/ShapeGlyph_I.js -->
<g id="node33" class="node">
<title>src/js/directable/directables/dotmatrix/shape/glyph/ShapeGlyph_I.js</title>
<g id="a_node33"><a xlink:href="src/js/directable/directables/dotmatrix/shape/glyph/ShapeGlyph_I.js" xlink:title="ShapeGlyph_I.js">
<path fill="#ccffcc" stroke="black" d="M638.21,-822.25C638.21,-822.25 567.04,-822.25 567.04,-822.25 563.96,-822.25 560.88,-819.17 560.88,-816.08 560.88,-816.08 560.88,-809.92 560.88,-809.92 560.88,-806.83 563.96,-803.75 567.04,-803.75 567.04,-803.75 638.21,-803.75 638.21,-803.75 641.29,-803.75 644.38,-806.83 644.38,-809.92 644.38,-809.92 644.38,-816.08 644.38,-816.08 644.38,-819.17 641.29,-822.25 638.21,-822.25"/>
<text text-anchor="start" x="568.88" y="-809.7" font-family="Helvetica,sans-Serif" font-size="9.00">ShapeGlyph_I.js</text>
</a>
</g>
</g>
<!-- src/js/directable/directables/dotmatrix/shape/glyph/ShapeGlyph_J.js -->
<g id="node34" class="node">
<title>src/js/directable/directables/dotmatrix/shape/glyph/ShapeGlyph_J.js</title>
<g id="a_node34"><a xlink:href="src/js/directable/directables/dotmatrix/shape/glyph/ShapeGlyph_J.js" xlink:title="ShapeGlyph_J.js">
<path fill="#ccffcc" stroke="black" d="M639.33,-853.25C639.33,-853.25 565.92,-853.25 565.92,-853.25 562.83,-853.25 559.75,-850.17 559.75,-847.08 559.75,-847.08 559.75,-840.92 559.75,-840.92 559.75,-837.83 562.83,-834.75 565.92,-834.75 565.92,-834.75 639.33,-834.75 639.33,-834.75 642.42,-834.75 645.5,-837.83 645.5,-840.92 645.5,-840.92 645.5,-847.08 645.5,-847.08 645.5,-850.17 642.42,-853.25 639.33,-853.25"/>
<text text-anchor="start" x="567.75" y="-840.7" font-family="Helvetica,sans-Serif" font-size="9.00">ShapeGlyph_J.js</text>
</a>
</g>
</g>
<!-- src/js/directable/directables/dotmatrix/shape/glyph/ShapeGlyph_K.js -->
<g id="node35" class="node">
<title>src/js/directable/directables/dotmatrix/shape/glyph/ShapeGlyph_K.js</title>
<g id="a_node35"><a xlink:href="src/js/directable/directables/dotmatrix/shape/glyph/ShapeGlyph_K.js" xlink:title="ShapeGlyph_K.js">
<path fill="#ccffcc" stroke="black" d="M640.08,-884.25C640.08,-884.25 565.17,-884.25 565.17,-884.25 562.08,-884.25 559,-881.17 559,-878.08 559,-878.08 559,-871.92 559,-871.92 559,-868.83 562.08,-865.75 565.17,-865.75 565.17,-865.75 640.08,-865.75 640.08,-865.75 643.17,-865.75 646.25,-868.83 646.25,-871.92 646.25,-871.92 646.25,-878.08 646.25,-878.08 646.25,-881.17 643.17,-884.25 640.08,-884.25"/>
<text text-anchor="start" x="567" y="-871.7" font-family="Helvetica,sans-Serif" font-size="9.00">ShapeGlyph_K.js</text>
</a>
</g>
</g>
<!-- src/js/directable/directables/dotmatrix/shape/line/ShapeLineHorizontal.js -->
<g id="node36" class="node">
<title>src/js/directable/directables/dotmatrix/shape/line/ShapeLineHorizontal.js</title>
<g id="a_node36"><a xlink:href="src/js/directable/directables/dotmatrix/shape/line/ShapeLineHorizontal.js" xlink:title="ShapeLineHorizontal.js">
<path fill="#ccffcc" stroke="black" d="M652.46,-945.25C652.46,-945.25 552.79,-945.25 552.79,-945.25 549.71,-945.25 546.62,-942.17 546.62,-939.08 546.62,-939.08 546.62,-932.92 546.62,-932.92 546.62,-929.83 549.71,-926.75 552.79,-926.75 552.79,-926.75 652.46,-926.75 652.46,-926.75 655.54,-926.75 658.62,-929.83 658.62,-932.92 658.62,-932.92 658.62,-939.08 658.62,-939.08 658.62,-942.17 655.54,-945.25 652.46,-945.25"/>
<text text-anchor="start" x="554.62" y="-932.7" font-family="Helvetica,sans-Serif" font-size="9.00">ShapeLineHorizontal.js</text>
</a>
</g>
</g>
<!-- src/js/directable/directables/dotmatrix/shape/line/ShapeLineVertical.js -->
<g id="node37" class="node">
<title>src/js/directable/directables/dotmatrix/shape/line/ShapeLineVertical.js</title>
<g id="a_node37"><a xlink:href="src/js/directable/directables/dotmatrix/shape/line/ShapeLineVertical.js" xlink:title="ShapeLineVertical.js">
<path fill="#ccffcc" stroke="black" d="M646.46,-976.25C646.46,-976.25 558.79,-976.25 558.79,-976.25 555.71,-976.25 552.62,-973.17 552.62,-970.08 552.62,-970.08 552.62,-963.92 552.62,-963.92 552.62,-960.83 555.71,-957.75 558.79,-957.75 558.79,-957.75 646.46,-957.75 646.46,-957.75 649.54,-957.75 652.62,-960.83 652.62,-963.92 652.62,-963.92 652.62,-970.08 652.62,-970.08 652.62,-973.17 649.54,-976.25 646.46,-976.25"/>
<text text-anchor="start" x="560.62" y="-963.7" font-family="Helvetica,sans-Serif" font-size="9.00">ShapeLineVertical.js</text>
</a>
</g>
</g>
<!-- src/js/directable/directables/dotmatrix/shape/primative/ShapeRectangle.js -->
<g id="node38" class="node">
<title>src/js/directable/directables/dotmatrix/shape/primative/ShapeRectangle.js</title>
<g id="a_node38"><a xlink:href="src/js/directable/directables/dotmatrix/shape/primative/ShapeRectangle.js" xlink:title="ShapeRectangle.js">
<path fill="#ccffcc" stroke="black" d="M643.46,-1037.25C643.46,-1037.25 561.79,-1037.25 561.79,-1037.25 558.71,-1037.25 555.62,-1034.17 555.62,-1031.08 555.62,-1031.08 555.62,-1024.92 555.62,-1024.92 555.62,-1021.83 558.71,-1018.75 561.79,-1018.75 561.79,-1018.75 643.46,-1018.75 643.46,-1018.75 646.54,-1018.75 649.62,-1021.83 649.62,-1024.92 649.62,-1024.92 649.62,-1031.08 649.62,-1031.08 649.62,-1034.17 646.54,-1037.25 643.46,-1037.25"/>
<text text-anchor="start" x="563.62" y="-1024.7" font-family="Helvetica,sans-Serif" font-size="9.00">ShapeRectangle.js</text>
</a>
</g>
</g>
<!-- src/js/directable/directables/dotmatrix/view/View.js -->
<g id="node39" class="node">
<title>src/js/directable/directables/dotmatrix/view/View.js</title>
<g id="a_node39"><a xlink:href="src/js/directable/directables/dotmatrix/view/View.js" xlink:title="View.js">
<path fill="#ffffcc" stroke="black" d="M767.21,-136.25C767.21,-136.25 725.54,-136.25 725.54,-136.25 722.46,-136.25 719.38,-133.17 719.38,-130.08 719.38,-130.08 719.38,-123.92 719.38,-123.92 719.38,-120.83 722.46,-117.75 725.54,-117.75 725.54,-117.75 767.21,-117.75 767.21,-117.75 770.29,-117.75 773.38,-120.83 773.38,-123.92 773.38,-123.92 773.38,-130.08 773.38,-130.08 773.38,-133.17 770.29,-136.25 767.21,-136.25"/>
<text text-anchor="start" x="732.12" y="-123.7" font-family="Helvetica,sans-Serif" font-size="9.00">View.js</text>
</a>
</g>
</g>
<!-- src/js/directable/directables/dotmatrix/view/View.js&#45;&gt;src/js/application/ApplicationLogger.js -->
<g id="edge12" class="edge">
<title>src/js/directable/directables/dotmatrix/view/View.js&#45;&gt;src/js/application/ApplicationLogger.js</title>
<path fill="none" stroke="#000000" stroke-width="2" stroke-opacity="0.200000" d="M746.38,-136.44C746.38,-642.52 746.38,-1148.59 746.38,-1654.67"/>
<polygon fill="#000000" fill-opacity="0.200000" stroke="#000000" stroke-width="2" stroke-opacity="0.200000" points="744.28,-1654.59 746.38,-1660.59 748.48,-1654.59 744.28,-1654.59"/>
</g>
<!-- src/js/directable/directables/dotmatrix/view/ViewFloor.js -->
<g id="node40" class="node">
<title>src/js/directable/directables/dotmatrix/view/ViewFloor.js</title>
<g id="a_node40"><a xlink:href="src/js/directable/directables/dotmatrix/view/ViewFloor.js" xlink:title="ViewFloor.js">
<path fill="#ccffcc" stroke="black" d="M488.96,-105.25C488.96,-105.25 435.79,-105.25 435.79,-105.25 432.71,-105.25 429.62,-102.17 429.62,-99.08 429.62,-99.08 429.62,-92.92 429.62,-92.92 429.62,-89.83 432.71,-86.75 435.79,-86.75 435.79,-86.75 488.96,-86.75 488.96,-86.75 492.04,-86.75 495.12,-89.83 495.12,-92.92 495.12,-92.92 495.12,-99.08 495.12,-99.08 495.12,-102.17 492.04,-105.25 488.96,-105.25"/>
<text text-anchor="start" x="437.62" y="-92.7" font-family="Helvetica,sans-Serif" font-size="9.00">ViewFloor.js</text>
</a>
</g>
</g>
<!-- src/js/directable/directables/dotmatrix/view/ViewTest.js&#45;&gt;src/js/application/ApplicationLogger.js -->
<g id="edge18" class="edge">
<title>src/js/directable/directables/dotmatrix/view/ViewTest.js&#45;&gt;src/js/application/ApplicationLogger.js</title>
<path fill="none" stroke="#000000" stroke-width="2" stroke-opacity="0.200000" d="M633.72,-136.37C648.89,-142.75 665.98,-152.84 675.25,-168 715.99,-234.63 741.76,-1487.25 745.02,-1654.58"/>
<polygon fill="#000000" fill-opacity="0.200000" stroke="#000000" stroke-width="2" stroke-opacity="0.200000" points="742.92,-1654.47 745.14,-1660.43 747.12,-1654.39 742.92,-1654.47"/>
</g>
<!-- src/js/directable/directables/dotmatrix/view/ViewTest.js&#45;&gt;src/js/directable/directables/dotmatrix/view/View.js -->
<g id="edge19" class="edge">
<title>src/js/directable/directables/dotmatrix/view/ViewTest.js&#45;&gt;src/js/directable/directables/dotmatrix/view/View.js</title>
<path fill="none" stroke="#000000" stroke-width="2" stroke-opacity="0.200000" d="M633.69,-127C656.07,-127 686.69,-127 710.21,-127"/>
<polygon fill="#000000" fill-opacity="0.200000" stroke="#000000" stroke-width="2" stroke-opacity="0.200000" points="710.14,-129.1 716.14,-127 710.14,-124.9 710.14,-129.1"/>
</g>
<!-- src/js/directable/directables/dotmatrix/view/ViewTextTest.js -->
<g id="node42" class="node">
<title>src/js/directable/directables/dotmatrix/view/ViewTextTest.js</title>
<g id="a_node42"><a xlink:href="src/js/directable/directables/dotmatrix/view/ViewTextTest.js" xlink:title="ViewTextTest.js">
<path fill="#ccffcc" stroke="black" d="M495.33,-136.25C495.33,-136.25 429.42,-136.25 429.42,-136.25 426.33,-136.25 423.25,-133.17 423.25,-130.08 423.25,-130.08 423.25,-123.92 423.25,-123.92 423.25,-120.83 426.33,-117.75 429.42,-117.75 429.42,-117.75 495.33,-117.75 495.33,-117.75 498.42,-117.75 501.5,-120.83 501.5,-123.92 501.5,-123.92 501.5,-130.08 501.5,-130.08 501.5,-133.17 498.42,-136.25 495.33,-136.25"/>
<text text-anchor="start" x="431.25" y="-123.7" font-family="Helvetica,sans-Serif" font-size="9.00">ViewTextTest.js</text>
</a>
</g>
</g>
<!-- src/js/directable/directables/frame/DirectableFrame.js -->
<g id="node43" class="node">
<title>src/js/directable/directables/frame/DirectableFrame.js</title>
<g id="a_node43"><a xlink:href="src/js/directable/directables/frame/DirectableFrame.js" xlink:title="DirectableFrame.js">
<path fill="#ffffcc" stroke="black" d="M357.21,-1489.25C357.21,-1489.25 276.29,-1489.25 276.29,-1489.25 273.21,-1489.25 270.12,-1486.17 270.12,-1483.08 270.12,-1483.08 270.12,-1476.92 270.12,-1476.92 270.12,-1473.83 273.21,-1470.75 276.29,-1470.75 276.29,-1470.75 357.21,-1470.75 357.21,-1470.75 360.29,-1470.75 363.38,-1473.83 363.38,-1476.92 363.38,-1476.92 363.38,-1483.08 363.38,-1483.08 363.38,-1486.17 360.29,-1489.25 357.21,-1489.25"/>
<text text-anchor="start" x="278.12" y="-1476.7" font-family="Helvetica,sans-Serif" font-size="9.00">DirectableFrame.js</text>
</a>
</g>
</g>
<!-- src/js/directable/directables/frame/DirectableFrame.js&#45;&gt;src/js/application/ApplicationLogger.js -->
<g id="edge20" class="edge">
<title>src/js/directable/directables/frame/DirectableFrame.js&#45;&gt;src/js/application/ApplicationLogger.js</title>
<path fill="none" stroke="#000000" stroke-width="2" stroke-opacity="0.200000" d="M355.92,-1489.75C373.17,-1496 392.4,-1505.86 404.75,-1521 414.29,-1532.7 401.63,-1543.8 412.75,-1554 418.19,-1558.98 668.77,-1590.48 675.25,-1594 701.92,-1608.5 723.41,-1637.27 735.28,-1655.8"/>
<polygon fill="#000000" fill-opacity="0.200000" stroke="#000000" stroke-width="2" stroke-opacity="0.200000" points="733.37,-1656.7 738.31,-1660.7 736.94,-1654.49 733.37,-1656.7"/>
</g>
<!-- src/js/directable/directables/rhythm/DirectableRhythm.js -->
<g id="node44" class="node">
<title>src/js/directable/directables/rhythm/DirectableRhythm.js</title>
<g id="a_node44"><a xlink:href="src/js/directable/directables/rhythm/DirectableRhythm.js" xlink:title="DirectableRhythm.js">
<path fill="#ffffcc" stroke="black" d="M505.46,-1401.25C505.46,-1401.25 419.29,-1401.25 419.29,-1401.25 416.21,-1401.25 413.12,-1398.17 413.12,-1395.08 413.12,-1395.08 413.12,-1388.92 413.12,-1388.92 413.12,-1385.83 416.21,-1382.75 419.29,-1382.75 419.29,-1382.75 505.46,-1382.75 505.46,-1382.75 508.54,-1382.75 511.62,-1385.83 511.62,-1388.92 511.62,-1388.92 511.62,-1395.08 511.62,-1395.08 511.62,-1398.17 508.54,-1401.25 505.46,-1401.25"/>
<text text-anchor="start" x="421.12" y="-1388.7" font-family="Helvetica,sans-Serif" font-size="9.00">DirectableRhythm.js</text>
</a>
</g>
</g>
<!-- src/js/directable/directables/rhythm/asdr/ASDRData.js -->
<g id="node45" class="node">
<title>src/js/directable/directables/rhythm/asdr/ASDRData.js</title>
<g id="a_node45"><a xlink:href="src/js/directable/directables/rhythm/asdr/ASDRData.js" xlink:title="ASDRData.js">
<path fill="#ccffcc" stroke="black" d="M345.58,-1278.25C345.58,-1278.25 287.92,-1278.25 287.92,-1278.25 284.83,-1278.25 281.75,-1275.17 281.75,-1272.08 281.75,-1272.08 281.75,-1265.92 281.75,-1265.92 281.75,-1262.83 284.83,-1259.75 287.92,-1259.75 287.92,-1259.75 345.58,-1259.75 345.58,-1259.75 348.67,-1259.75 351.75,-1262.83 351.75,-1265.92 351.75,-1265.92 351.75,-1272.08 351.75,-1272.08 351.75,-1275.17 348.67,-1278.25 345.58,-1278.25"/>
<text text-anchor="start" x="289.75" y="-1265.7" font-family="Helvetica,sans-Serif" font-size="9.00">ASDRData.js</text>
</a>
</g>
</g>
<!-- src/js/directable/directables/rhythm/asdr/ASDREnvelope.js -->
<g id="node46" class="node">
<title>src/js/directable/directables/rhythm/asdr/ASDREnvelope.js</title>
<g id="a_node46"><a xlink:href="src/js/directable/directables/rhythm/asdr/ASDREnvelope.js" xlink:title="ASDREnvelope.js">
<path fill="#ffffcc" stroke="black" d="M355.33,-1309.25C355.33,-1309.25 278.17,-1309.25 278.17,-1309.25 275.08,-1309.25 272,-1306.17 272,-1303.08 272,-1303.08 272,-1296.92 272,-1296.92 272,-1293.83 275.08,-1290.75 278.17,-1290.75 278.17,-1290.75 355.33,-1290.75 355.33,-1290.75 358.42,-1290.75 361.5,-1293.83 361.5,-1296.92 361.5,-1296.92 361.5,-1303.08 361.5,-1303.08 361.5,-1306.17 358.42,-1309.25 355.33,-1309.25"/>
<text text-anchor="start" x="280" y="-1296.7" font-family="Helvetica,sans-Serif" font-size="9.00">ASDREnvelope.js</text>
</a>
</g>
</g>
<!-- src/js/directable/directables/rhythm/asdr/ASDREnvelope.js&#45;&gt;src/js/application/ApplicationLogger.js -->
<g id="edge21" class="edge">
<title>src/js/directable/directables/rhythm/asdr/ASDREnvelope.js&#45;&gt;src/js/application/ApplicationLogger.js</title>
<path fill="none" stroke="#000000" stroke-width="2" stroke-opacity="0.200000" d="M361.74,-1297.49C377.56,-1299.01 394.11,-1303.88 404.75,-1316 427.21,-1341.58 389.33,-1444.28 412.75,-1469 432.92,-1490.29 651.88,-1479.27 675.25,-1497 726.49,-1535.87 740.37,-1618.03 744.06,-1654.68"/>
<polygon fill="#000000" fill-opacity="0.200000" stroke="#000000" stroke-width="2" stroke-opacity="0.200000" points="741.94,-1654.55 744.56,-1660.34 746.13,-1654.18 741.94,-1654.55"/>
</g>
<!-- src/js/directable/directables/rhythm/asdr/DirectableRhythmASDRManager.js -->
<g id="node47" class="node">
<title>src/js/directable/directables/rhythm/asdr/DirectableRhythmASDRManager.js</title>
<g id="a_node47"><a xlink:href="src/js/directable/directables/rhythm/asdr/DirectableRhythmASDRManager.js" xlink:title="DirectableRhythmASDRManager.js">
<path fill="#ffffcc" stroke="black" d="M390.58,-1340.25C390.58,-1340.25 242.92,-1340.25 242.92,-1340.25 239.83,-1340.25 236.75,-1337.17 236.75,-1334.08 236.75,-1334.08 236.75,-1327.92 236.75,-1327.92 236.75,-1324.83 239.83,-1321.75 242.92,-1321.75 242.92,-1321.75 390.58,-1321.75 390.58,-1321.75 393.67,-1321.75 396.75,-1324.83 396.75,-1327.92 396.75,-1327.92 396.75,-1334.08 396.75,-1334.08 396.75,-1337.17 393.67,-1340.25 390.58,-1340.25"/>
<text text-anchor="start" x="244.75" y="-1327.7" font-family="Helvetica,sans-Serif" font-size="9.00">DirectableRhythmASDRManager.js</text>
</a>
</g>
</g>
<!-- src/js/directable/directables/rhythm/asdr/DirectableRhythmASDRManager.js&#45;&gt;src/js/application/ApplicationLogger.js -->
<g id="edge22" class="edge">
<title>src/js/directable/directables/rhythm/asdr/DirectableRhythmASDRManager.js&#45;&gt;src/js/application/ApplicationLogger.js</title>
<path fill="none" stroke="#000000" stroke-width="2" stroke-opacity="0.200000" d="M359.32,-1340.68C376.2,-1346.8 394.17,-1356.58 404.75,-1372 418.74,-1392.39 395.84,-1464.96 412.75,-1483 429.51,-1500.88 497.93,-1493.38 522,-1498 590.91,-1511.24 620.26,-1492.4 675.25,-1536 714.17,-1566.86 733.54,-1625.13 741.23,-1654.74"/>
<polygon fill="#000000" fill-opacity="0.200000" stroke="#000000" stroke-width="2" stroke-opacity="0.200000" points="739.14,-1655.01 742.61,-1660.34 743.22,-1654.01 739.14,-1655.01"/>
</g>
<!-- src/js/directable/directables/rhythm/bpm/DirectableRhythmBPM.js -->
<g id="node48" class="node">
<title>src/js/directable/directables/rhythm/bpm/DirectableRhythmBPM.js</title>
<g id="a_node48"><a xlink:href="src/js/directable/directables/rhythm/bpm/DirectableRhythmBPM.js" xlink:title="DirectableRhythmBPM.js">
<path fill="#ffffcc" stroke="black" d="M369.58,-1401.25C369.58,-1401.25 263.92,-1401.25 263.92,-1401.25 260.83,-1401.25 257.75,-1398.17 257.75,-1395.08 257.75,-1395.08 257.75,-1388.92 257.75,-1388.92 257.75,-1385.83 260.83,-1382.75 263.92,-1382.75 263.92,-1382.75 369.58,-1382.75 369.58,-1382.75 372.67,-1382.75 375.75,-1385.83 375.75,-1388.92 375.75,-1388.92 375.75,-1395.08 375.75,-1395.08 375.75,-1398.17 372.67,-1401.25 369.58,-1401.25"/>
<text text-anchor="start" x="265.75" y="-1388.7" font-family="Helvetica,sans-Serif" font-size="9.00">DirectableRhythmBPM.js</text>
</a>
</g>
</g>
<!-- src/js/directable/directables/rhythm/bpm/DirectableRhythmBPM.js&#45;&gt;src/js/application/ApplicationLogger.js -->
<g id="edge23" class="edge">
<title>src/js/directable/directables/rhythm/bpm/DirectableRhythmBPM.js&#45;&gt;src/js/application/ApplicationLogger.js</title>
<path fill="none" stroke="#000000" stroke-width="2" stroke-opacity="0.200000" d="M336.91,-1401.71C357.04,-1412.95 388.05,-1433.37 404.75,-1460 413.69,-1474.25 401.21,-1484.76 412.75,-1497 495.84,-1585.09 576.85,-1499.43 675.25,-1570 705.98,-1592.04 727.44,-1632 737.96,-1655.14"/>
<polygon fill="#000000" fill-opacity="0.200000" stroke="#000000" stroke-width="2" stroke-opacity="0.200000" points="736.02,-1655.95 740.35,-1660.61 739.87,-1654.27 736.02,-1655.95"/>
</g>
<!-- src/js/directable/directables/rhythm/bpm/DirectableRhythmBPM.js&#45;&gt;src/js/directable/directables/rhythm/DirectableRhythm.js -->
<g id="edge24" class="edge">
<title>src/js/directable/directables/rhythm/bpm/DirectableRhythmBPM.js&#45;&gt;src/js/directable/directables/rhythm/DirectableRhythm.js</title>
<path fill="none" stroke="#000000" stroke-width="2" stroke-opacity="0.200000" d="M376.17,-1392C385.25,-1392 394.64,-1392 403.71,-1392"/>
<polygon fill="#000000" fill-opacity="0.200000" stroke="#000000" stroke-width="2" stroke-opacity="0.200000" points="403.62,-1394.1 409.62,-1392 403.62,-1389.9 403.62,-1394.1"/>
</g>
<!-- src/js/directable/directables/rhythm2/ViewRhythm.js -->
<g id="node49" class="node">
<title>src/js/directable/directables/rhythm2/ViewRhythm.js</title>
<g id="a_node49"><a xlink:href="src/js/directable/directables/rhythm2/ViewRhythm.js" xlink:title="ViewRhythm.js">
<path fill="#ffffcc" stroke="black" d="M348.96,-1209.25C348.96,-1209.25 284.54,-1209.25 284.54,-1209.25 281.46,-1209.25 278.38,-1206.17 278.38,-1203.08 278.38,-1203.08 278.38,-1196.92 278.38,-1196.92 278.38,-1193.83 281.46,-1190.75 284.54,-1190.75 284.54,-1190.75 348.96,-1190.75 348.96,-1190.75 352.04,-1190.75 355.12,-1193.83 355.12,-1196.92 355.12,-1196.92 355.12,-1203.08 355.12,-1203.08 355.12,-1206.17 352.04,-1209.25 348.96,-1209.25"/>
<text text-anchor="start" x="286.38" y="-1196.7" font-family="Helvetica,sans-Serif" font-size="9.00">ViewRhythm.js</text>
</a>
</g>
</g>
<!-- src/js/directable/directables/rhythm2/ViewRhythmTrack.js -->
<g id="node50" class="node">
<title>src/js/directable/directables/rhythm2/ViewRhythmTrack.js</title>
<g id="a_node50"><a xlink:href="src/js/directable/directables/rhythm2/ViewRhythmTrack.js" xlink:title="ViewRhythmTrack.js">
<path fill="#ffffcc" stroke="black" d="M505.83,-1209.25C505.83,-1209.25 418.92,-1209.25 418.92,-1209.25 415.83,-1209.25 412.75,-1206.17 412.75,-1203.08 412.75,-1203.08 412.75,-1196.92 412.75,-1196.92 412.75,-1193.83 415.83,-1190.75 418.92,-1190.75 418.92,-1190.75 505.83,-1190.75 505.83,-1190.75 508.92,-1190.75 512,-1193.83 512,-1196.92 512,-1196.92 512,-1203.08 512,-1203.08 512,-1206.17 508.92,-1209.25 505.83,-1209.25"/>
<text text-anchor="start" x="420.75" y="-1196.7" font-family="Helvetica,sans-Serif" font-size="9.00">ViewRhythmTrack.js</text>
</a>
</g>
</g>
<!-- src/js/directable/directables/rhythm2/ViewRhythm.js&#45;&gt;src/js/directable/directables/rhythm2/ViewRhythmTrack.js -->
<g id="edge25" class="edge">
<title>src/js/directable/directables/rhythm2/ViewRhythm.js&#45;&gt;src/js/directable/directables/rhythm2/ViewRhythmTrack.js</title>
<path fill="none" stroke="#000000" stroke-width="2" stroke-opacity="0.200000" d="M355.49,-1200C370.14,-1200 387.26,-1200 403.41,-1200"/>
<polygon fill="#000000" fill-opacity="0.200000" stroke="#000000" stroke-width="2" stroke-opacity="0.200000" points="403.24,-1202.1 409.24,-1200 403.24,-1197.9 403.24,-1202.1"/>
</g>
<!-- src/js/directable/directables/title/DirectableTitle.js&#45;&gt;src/js/application/ApplicationLogger.js -->
<g id="edge26" class="edge">
<title>src/js/directable/directables/title/DirectableTitle.js&#45;&gt;src/js/application/ApplicationLogger.js</title>
<path fill="none" stroke="#000000" stroke-width="2" stroke-opacity="0.200000" d="M346.71,-1550.67C365.46,-1556.8 390.44,-1564.72 412.75,-1571 528.45,-1603.56 562.94,-1593.2 675.25,-1636 691.44,-1642.17 708.66,-1651.22 721.99,-1658.82"/>
<polygon fill="#000000" fill-opacity="0.200000" stroke="#000000" stroke-width="2" stroke-opacity="0.200000" points="720.88,-1660.61 727.12,-1661.81 722.99,-1656.98 720.88,-1660.61"/>
</g>
<!-- src/js/enum/DisplayFormats.js -->
<g id="node52" class="node">
<title>src/js/enum/DisplayFormats.js</title>
<g id="a_node52"><a xlink:href="src/js/enum/DisplayFormats.js" xlink:title="DisplayFormats.js">
<path fill="#ffffcc" stroke="black" d="M640.83,-1861.25C640.83,-1861.25 564.42,-1861.25 564.42,-1861.25 561.33,-1861.25 558.25,-1858.17 558.25,-1855.08 558.25,-1855.08 558.25,-1848.92 558.25,-1848.92 558.25,-1845.83 561.33,-1842.75 564.42,-1842.75 564.42,-1842.75 640.83,-1842.75 640.83,-1842.75 643.92,-1842.75 647,-1845.83 647,-1848.92 647,-1848.92 647,-1855.08 647,-1855.08 647,-1858.17 643.92,-1861.25 640.83,-1861.25"/>
<text text-anchor="start" x="566.25" y="-1848.7" font-family="Helvetica,sans-Serif" font-size="9.00">DisplayFormats.js</text>
</a>
</g>
</g>
<!-- src/js/index.js -->
<g id="node53" class="node">
<title>src/js/index.js</title>
<g id="a_node53"><a xlink:href="src/js/index.js" xlink:title="index.js">
<path fill="#ffffcc" stroke="black" d="M483.21,-1844.25C483.21,-1844.25 441.54,-1844.25 441.54,-1844.25 438.46,-1844.25 435.38,-1841.17 435.38,-1838.08 435.38,-1838.08 435.38,-1831.92 435.38,-1831.92 435.38,-1828.83 438.46,-1825.75 441.54,-1825.75 441.54,-1825.75 483.21,-1825.75 483.21,-1825.75 486.29,-1825.75 489.38,-1828.83 489.38,-1831.92 489.38,-1831.92 489.38,-1838.08 489.38,-1838.08 489.38,-1841.17 486.29,-1844.25 483.21,-1844.25"/>
<text text-anchor="start" x="446.62" y="-1831.7" font-family="Helvetica,sans-Serif" font-size="9.00">index.js</text>
</a>
</g>
</g>
<!-- src/js/index.js&#45;&gt;src/js/application/Application.js -->
<g id="edge30" class="edge">
<title>src/js/index.js&#45;&gt;src/js/application/Application.js</title>
<path fill="none" stroke="#000000" stroke-width="2" stroke-opacity="0.200000" d="M489.72,-1832.09C500.29,-1830.09 512.24,-1826.7 522,-1821 551.64,-1803.67 576.8,-1771.82 590.51,-1752.12"/>
<polygon fill="#000000" fill-opacity="0.200000" stroke="#000000" stroke-width="2" stroke-opacity="0.200000" points="592.19,-1753.39 593.81,-1747.25 588.71,-1751.04 592.19,-1753.39"/>
</g>
<!-- src/js/overlay/displayFormat/OverlayDisplayFormat.js&#45;&gt;src/js/enum/DisplayFormats.js -->
<g id="edge38" class="edge">
<title>src/js/overlay/displayFormat/OverlayDisplayFormat.js&#45;&gt;src/js/enum/DisplayFormats.js</title>
<path fill="none" stroke="#000000" stroke-width="2" stroke-opacity="0.200000" d="M323.35,-1764.58C336.09,-1785.29 369.51,-1833.82 412.75,-1852 456.17,-1870.25 510.33,-1868.02 549.5,-1862.55"/>
<polygon fill="#000000" fill-opacity="0.200000" stroke="#000000" stroke-width="2" stroke-opacity="0.200000" points="549.5,-1864.67 555.13,-1861.71 548.88,-1860.52 549.5,-1864.67"/>
</g>
<!-- src/js/overlay/OverlayUtil.js -->
<g id="node56" class="node">
<title>src/js/overlay/OverlayUtil.js</title>
<g id="a_node56"><a xlink:href="src/js/overlay/OverlayUtil.js" xlink:title="OverlayUtil.js">
<path fill="#ffffcc" stroke="black" d="M491.21,-1713.25C491.21,-1713.25 433.54,-1713.25 433.54,-1713.25 430.46,-1713.25 427.38,-1710.17 427.38,-1707.08 427.38,-1707.08 427.38,-1700.92 427.38,-1700.92 427.38,-1697.83 430.46,-1694.75 433.54,-1694.75 433.54,-1694.75 491.21,-1694.75 491.21,-1694.75 494.29,-1694.75 497.38,-1697.83 497.38,-1700.92 497.38,-1700.92 497.38,-1707.08 497.38,-1707.08 497.38,-1710.17 494.29,-1713.25 491.21,-1713.25"/>
<text text-anchor="start" x="435.38" y="-1700.7" font-family="Helvetica,sans-Serif" font-size="9.00">OverlayUtil.js</text>
</a>
</g>
</g>
<!-- src/js/overlay/displayFormat/OverlayDisplayFormat.js&#45;&gt;src/js/overlay/OverlayUtil.js -->
<g id="edge39" class="edge">
<title>src/js/overlay/displayFormat/OverlayDisplayFormat.js&#45;&gt;src/js/overlay/OverlayUtil.js</title>
<path fill="none" stroke="#000000" stroke-width="2" stroke-opacity="0.200000" d="M364.4,-1745.26C377.63,-1741.95 391.92,-1737.84 404.75,-1733 415.73,-1728.86 427.35,-1723.16 437.19,-1717.91"/>
<polygon fill="#000000" fill-opacity="0.200000" stroke="#000000" stroke-width="2" stroke-opacity="0.200000" points="438.07,-1719.82 442.32,-1715.1 436.05,-1716.14 438.07,-1719.82"/>
</g>
<!-- src/js/overlay/overlay/OverlayOverlay.js&#45;&gt;src/js/overlay/OverlayUtil.js -->
<g id="edge40" class="edge">
<title>src/js/overlay/overlay/OverlayOverlay.js&#45;&gt;src/js/overlay/OverlayUtil.js</title>
<path fill="none" stroke="#000000" stroke-width="2" stroke-opacity="0.200000" d="M360.84,-1697C379.02,-1698.27 400.14,-1699.74 418.31,-1701"/>
<polygon fill="#000000" fill-opacity="0.200000" stroke="#000000" stroke-width="2" stroke-opacity="0.200000" points="417.82,-1703.07 423.95,-1701.39 418.11,-1698.88 417.82,-1703.07"/>
</g>
<!-- src/js/overlay/OverlayUtil.js&#45;&gt;src/js/application/ApplicationLogger.js -->
<g id="edge37" class="edge">
<title>src/js/overlay/OverlayUtil.js&#45;&gt;src/js/application/ApplicationLogger.js</title>
<path fill="none" stroke="#000000" stroke-width="2" stroke-opacity="0.200000" d="M497.77,-1695.24C508.08,-1692.89 519.45,-1690.57 530,-1689 582.97,-1681.11 643.88,-1677.05 687.38,-1674.99"/>
<polygon fill="#000000" fill-opacity="0.200000" stroke="#000000" stroke-width="2" stroke-opacity="0.200000" points="687.47,-1677.09 693.37,-1674.72 687.28,-1672.89 687.47,-1677.09"/>
</g>
<!-- src/js/overlay/OverlayUtil.js&#45;&gt;src/js/application/ApplicationDispatcher.js -->
<g id="edge36" class="edge">
<title>src/js/overlay/OverlayUtil.js&#45;&gt;src/js/application/ApplicationDispatcher.js</title>
<path fill="none" stroke="#000000" stroke-width="2" stroke-opacity="0.200000" d="M497.55,-1704C509.36,-1704 523.01,-1704 536.46,-1704"/>
<polygon fill="#000000" fill-opacity="0.200000" stroke="#000000" stroke-width="2" stroke-opacity="0.200000" points="536.22,-1706.1 542.22,-1704 536.22,-1701.9 536.22,-1706.1"/>
</g>
<!-- src/js/view/render/RenderController.js&#45;&gt;src/js/application/ApplicationConfiguration.js -->
<g id="edge42" class="edge">
<title>src/js/view/render/RenderController.js&#45;&gt;src/js/application/ApplicationConfiguration.js</title>
<path fill="none" stroke="#000000" stroke-width="2" stroke-opacity="0.200000" d="M341.59,-1929.74C404.41,-1953.66 576.41,-2007.63 675.25,-1926 729.23,-1881.42 741.66,-1791.38 744.52,-1752.99"/>
<polygon fill="#000000" fill-opacity="0.200000" stroke="#000000" stroke-width="2" stroke-opacity="0.200000" points="746.59,-1753.55 744.87,-1747.43 742.4,-1753.28 746.59,-1753.55"/>
</g>
<!-- src/js/view/render/RenderResizer.js -->
<g id="node58" class="node">
<title>src/js/view/render/RenderResizer.js</title>
<g id="a_node58"><a xlink:href="src/js/view/render/RenderResizer.js" xlink:title="RenderResizer.js">
<path fill="#ffffcc" stroke="black" d="M499.46,-1914.25C499.46,-1914.25 425.29,-1914.25 425.29,-1914.25 422.21,-1914.25 419.12,-1911.17 419.12,-1908.08 419.12,-1908.08 419.12,-1901.92 419.12,-1901.92 419.12,-1898.83 422.21,-1895.75 425.29,-1895.75 425.29,-1895.75 499.46,-1895.75 499.46,-1895.75 502.54,-1895.75 505.62,-1898.83 505.62,-1901.92 505.62,-1901.92 505.62,-1908.08 505.62,-1908.08 505.62,-1911.17 502.54,-1914.25 499.46,-1914.25"/>
<text text-anchor="start" x="427.12" y="-1901.7" font-family="Helvetica,sans-Serif" font-size="9.00">RenderResizer.js</text>
</a>
</g>
</g>
<!-- src/js/view/render/RenderController.js&#45;&gt;src/js/view/render/RenderResizer.js -->
<g id="edge43" class="edge">
<title>src/js/view/render/RenderController.js&#45;&gt;src/js/view/render/RenderResizer.js</title>
<path fill="none" stroke="#000000" stroke-width="2" stroke-opacity="0.200000" d="M364.78,-1915.09C379.41,-1913.56 395.61,-1911.87 410.5,-1910.31"/>
<polygon fill="#000000" fill-opacity="0.200000" stroke="#000000" stroke-width="2" stroke-opacity="0.200000" points="410.33,-1912.44 416.08,-1909.73 409.89,-1908.27 410.33,-1912.44"/>
</g>
<!-- src/js/view/render/RenderSurface.js -->
<g id="node59" class="node">
<title>src/js/view/render/RenderSurface.js</title>
<g id="a_node59"><a xlink:href="src/js/view/render/RenderSurface.js" xlink:title="RenderSurface.js">
<path fill="#ffffcc" stroke="black" d="M499.83,-1945.25C499.83,-1945.25 424.92,-1945.25 424.92,-1945.25 421.83,-1945.25 418.75,-1942.17 418.75,-1939.08 418.75,-1939.08 418.75,-1932.92 418.75,-1932.92 418.75,-1929.83 421.83,-1926.75 424.92,-1926.75 424.92,-1926.75 499.83,-1926.75 499.83,-1926.75 502.92,-1926.75 506,-1929.83 506,-1932.92 506,-1932.92 506,-1939.08 506,-1939.08 506,-1942.17 502.92,-1945.25 499.83,-1945.25"/>
<text text-anchor="start" x="426.75" y="-1932.7" font-family="Helvetica,sans-Serif" font-size="9.00">RenderSurface.js</text>
</a>
</g>
</g>
<!-- src/js/view/render/RenderController.js&#45;&gt;src/js/view/render/RenderSurface.js -->
<g id="edge44" class="edge">
<title>src/js/view/render/RenderController.js&#45;&gt;src/js/view/render/RenderSurface.js</title>
<path fill="none" stroke="#000000" stroke-width="2" stroke-opacity="0.200000" d="M364.78,-1925.24C379.14,-1926.84 395.01,-1928.61 409.67,-1930.24"/>
<polygon fill="#000000" fill-opacity="0.200000" stroke="#000000" stroke-width="2" stroke-opacity="0.200000" points="409.41,-1932.32 415.6,-1930.9 409.87,-1928.15 409.41,-1932.32"/>
</g>
<!-- src/js/view/render/RenderResizer.js&#45;&gt;src/js/application/ApplicationConfiguration.js -->
<g id="edge45" class="edge">
<title>src/js/view/render/RenderResizer.js&#45;&gt;src/js/application/ApplicationConfiguration.js</title>
<path fill="none" stroke="#000000" stroke-width="2" stroke-opacity="0.200000" d="M496.81,-1914.7C541.59,-1925.57 621.63,-1937.29 675.25,-1901 725.46,-1867.02 739.84,-1789.37 743.86,-1753.63"/>
<polygon fill="#000000" fill-opacity="0.200000" stroke="#000000" stroke-width="2" stroke-opacity="0.200000" points="745.94,-1753.92 744.44,-1747.74 741.76,-1753.51 745.94,-1753.92"/>
</g>
<!-- src/js/view/render/RenderResizer.js&#45;&gt;src/js/application/ApplicationLogger.js -->
<g id="edge47" class="edge">
<title>src/js/view/render/RenderResizer.js&#45;&gt;src/js/application/ApplicationLogger.js</title>
<path fill="none" stroke="#000000" stroke-width="2" stroke-opacity="0.200000" d="M506.02,-1902.89C567.05,-1899.78 672.33,-1894 675.25,-1891 690.92,-1874.91 669.14,-1706.48 683.25,-1689 684.92,-1686.93 686.82,-1685.1 688.9,-1683.5"/>
<polygon fill="#000000" fill-opacity="0.200000" stroke="#000000" stroke-width="2" stroke-opacity="0.200000" points="689.91,-1685.34 693.94,-1680.42 687.73,-1681.75 689.91,-1685.34"/>
</g>
<!-- src/js/view/render/RenderResizer.js&#45;&gt;src/js/application/ApplicationDispatcher.js -->
<g id="edge46" class="edge">
<title>src/js/view/render/RenderResizer.js&#45;&gt;src/js/application/ApplicationDispatcher.js</title>
<path fill="none" stroke="#000000" stroke-width="2" stroke-opacity="0.200000" d="M505.89,-1902.54C512.07,-1900.36 517.77,-1897.03 522,-1892 534.32,-1877.36 517.69,-1734.65 530,-1720 532.18,-1717.41 534.67,-1715.18 537.4,-1713.27"/>
<polygon fill="#000000" fill-opacity="0.200000" stroke="#000000" stroke-width="2" stroke-opacity="0.200000" points="538.26,-1715.2 542.45,-1710.42 536.2,-1711.54 538.26,-1715.2"/>
</g>
<!-- src/js/view/render/RenderResizer.js&#45;&gt;src/js/enum/DisplayFormats.js -->
<g id="edge48" class="edge">
<title>src/js/view/render/RenderResizer.js&#45;&gt;src/js/enum/DisplayFormats.js</title>
<path fill="none" stroke="#000000" stroke-width="2" stroke-opacity="0.200000" d="M488.73,-1895.28C511.05,-1886.72 543.7,-1874.21 568.15,-1864.83"/>
<polygon fill="#000000" fill-opacity="0.200000" stroke="#000000" stroke-width="2" stroke-opacity="0.200000" points="568.75,-1866.85 573.6,-1862.74 567.25,-1862.93 568.75,-1866.85"/>
</g>
<!-- src/js/view/render/RenderSurface.js&#45;&gt;src/js/application/ApplicationLogger.js -->
<g id="edge49" class="edge">
<title>src/js/view/render/RenderSurface.js&#45;&gt;src/js/application/ApplicationLogger.js</title>
<path fill="none" stroke="#000000" stroke-width="2" stroke-opacity="0.200000" d="M506.18,-1942.82C555.11,-1947.9 633.79,-1947.26 675.25,-1900 690.72,-1882.36 668.53,-1707.27 683.25,-1689 684.92,-1686.93 686.82,-1685.1 688.89,-1683.5"/>
<polygon fill="#000000" fill-opacity="0.200000" stroke="#000000" stroke-width="2" stroke-opacity="0.200000" points="689.91,-1685.34 693.94,-1680.42 687.72,-1681.75 689.91,-1685.34"/>
</g>
</g>
</svg>
