<?xml version="1.0" encoding="UTF-8" standalone="no"?>
<!DOCTYPE svg PUBLIC "-//W3C//DTD SVG 1.1//EN"
 "http://www.w3.org/Graphics/SVG/1.1/DTD/svg11.dtd">
<!-- Generated by graphviz version 12.2.1 (20241206.2353)
 -->
<!-- Title: dependency&#45;cruiser output Pages: 1 -->
<svg width="1260pt" height="1545pt"
 viewBox="0.00 0.00 1259.75 1545.00" xmlns="http://www.w3.org/2000/svg" xmlns:xlink="http://www.w3.org/1999/xlink">
<g id="graph0" class="graph" transform="scale(1 1) rotate(0) translate(4 1541)">
<title>dependency&#45;cruiser output</title>
<polygon fill="white" stroke="none" points="-4,4 -4,-1541 1255.75,-1541 1255.75,4 -4,4"/>
<g id="clust1" class="cluster">
<title>cluster_src</title>
<path fill="#ffffff" stroke="black" stroke-width="2" d="M20,-8C20,-8 1231.75,-8 1231.75,-8 1237.75,-8 1243.75,-14 1243.75,-20 1243.75,-20 1243.75,-1517 1243.75,-1517 1243.75,-1523 1237.75,-1529 1231.75,-1529 1231.75,-1529 20,-1529 20,-1529 14,-1529 8,-1523 8,-1517 8,-1517 8,-20 8,-20 8,-14 14,-8 20,-8"/>
<text text-anchor="middle" x="625.88" y="-1516.45" font-family="Helvetica,sans-Serif" font-weight="bold" font-size="9.00">src</text>
</g>
<g id="clust2" class="cluster">
<title>cluster_src/js</title>
<path fill="#ffffff" stroke="black" stroke-width="2" d="M28,-16C28,-16 1223.75,-16 1223.75,-16 1229.75,-16 1235.75,-22 1235.75,-28 1235.75,-28 1235.75,-1490 1235.75,-1490 1235.75,-1496 1229.75,-1502 1223.75,-1502 1223.75,-1502 28,-1502 28,-1502 22,-1502 16,-1496 16,-1490 16,-1490 16,-28 16,-28 16,-22 22,-16 28,-16"/>
<text text-anchor="middle" x="625.88" y="-1489.45" font-family="Helvetica,sans-Serif" font-weight="bold" font-size="9.00">js</text>
</g>
<g id="clust3" class="cluster">
<title>cluster_src/js/application</title>
<path fill="#ffffff" stroke="black" stroke-width="2" d="M136.25,-1255C136.25,-1255 199,-1255 199,-1255 205,-1255 211,-1261 211,-1267 211,-1267 211,-1296 211,-1296 211,-1302 205,-1308 199,-1308 199,-1308 136.25,-1308 136.25,-1308 130.25,-1308 124.25,-1302 124.25,-1296 124.25,-1296 124.25,-1267 124.25,-1267 124.25,-1261 130.25,-1255 136.25,-1255"/>
<text text-anchor="middle" x="167.62" y="-1295.45" font-family="Helvetica,sans-Serif" font-weight="bold" font-size="9.00">application</text>
</g>
<g id="clust4" class="cluster">
<title>cluster_src/js/controller</title>
<path fill="#ffffff" stroke="black" stroke-width="2" d="M231,-1255C231,-1255 287.75,-1255 287.75,-1255 293.75,-1255 299.75,-1261 299.75,-1267 299.75,-1267 299.75,-1296 299.75,-1296 299.75,-1302 293.75,-1308 287.75,-1308 287.75,-1308 231,-1308 231,-1308 225,-1308 219,-1302 219,-1296 219,-1296 219,-1267 219,-1267 219,-1261 225,-1255 231,-1255"/>
<text text-anchor="middle" x="259.38" y="-1295.45" font-family="Helvetica,sans-Serif" font-weight="bold" font-size="9.00">controller</text>
</g>
<g id="clust5" class="cluster">
<title>cluster_src/js/data</title>
<path fill="#ffffff" stroke="black" stroke-width="2" d="M36,-635C36,-635 191.12,-635 191.12,-635 197.12,-635 203.12,-641 203.12,-647 203.12,-647 203.12,-676 203.12,-676 203.12,-682 197.12,-688 191.12,-688 191.12,-688 36,-688 36,-688 30,-688 24,-682 24,-676 24,-676 24,-647 24,-647 24,-641 30,-635 36,-635"/>
<text text-anchor="middle" x="113.56" y="-675.45" font-family="Helvetica,sans-Serif" font-weight="bold" font-size="9.00">data</text>
</g>
<g id="clust6" class="cluster">
<title>cluster_src/js/directable</title>
<path fill="#ffffff" stroke="black" stroke-width="2" d="M431.25,-24C431.25,-24 1215.75,-24 1215.75,-24 1221.75,-24 1227.75,-30 1227.75,-36 1227.75,-36 1227.75,-1184 1227.75,-1184 1227.75,-1190 1221.75,-1196 1215.75,-1196 1215.75,-1196 431.25,-1196 431.25,-1196 425.25,-1196 419.25,-1190 419.25,-1184 419.25,-1184 419.25,-36 419.25,-36 419.25,-30 425.25,-24 431.25,-24"/>
<text text-anchor="middle" x="823.5" y="-1183.45" font-family="Helvetica,sans-Serif" font-weight="bold" font-size="9.00">directable</text>
</g>
<g id="clust7" class="cluster">
<title>cluster_src/js/directable/dotmatrix</title>
<path fill="#ffffff" stroke="black" stroke-width="2" d="M474.25,-32C474.25,-32 1207.75,-32 1207.75,-32 1213.75,-32 1219.75,-38 1219.75,-44 1219.75,-44 1219.75,-755 1219.75,-755 1219.75,-761 1213.75,-767 1207.75,-767 1207.75,-767 474.25,-767 474.25,-767 468.25,-767 462.25,-761 462.25,-755 462.25,-755 462.25,-44 462.25,-44 462.25,-38 468.25,-32 474.25,-32"/>
<text text-anchor="middle" x="841" y="-754.45" font-family="Helvetica,sans-Serif" font-weight="bold" font-size="9.00">dotmatrix</text>
</g>
<g id="clust8" class="cluster">
<title>cluster_src/js/directable/dotmatrix/dot</title>
<path fill="#ffffff" stroke="black" stroke-width="2" d="M763.88,-194C763.88,-194 956.12,-194 956.12,-194 962.12,-194 968.12,-200 968.12,-206 968.12,-206 968.12,-235 968.12,-235 968.12,-241 962.12,-247 956.12,-247 956.12,-247 763.88,-247 763.88,-247 757.88,-247 751.88,-241 751.88,-235 751.88,-235 751.88,-206 751.88,-206 751.88,-200 757.88,-194 763.88,-194"/>
<text text-anchor="middle" x="860" y="-234.45" font-family="Helvetica,sans-Serif" font-weight="bold" font-size="9.00">dot</text>
</g>
<g id="clust9" class="cluster">
<title>cluster_src/js/directable/dotmatrix/grid</title>
<path fill="#ffffff" stroke="black" stroke-width="2" d="M872.5,-71C872.5,-71 993.75,-71 993.75,-71 999.75,-71 1005.75,-77 1005.75,-83 1005.75,-83 1005.75,-174 1005.75,-174 1005.75,-180 999.75,-186 993.75,-186 993.75,-186 872.5,-186 872.5,-186 866.5,-186 860.5,-180 860.5,-174 860.5,-174 860.5,-83 860.5,-83 860.5,-77 866.5,-71 872.5,-71"/>
<text text-anchor="middle" x="933.12" y="-173.45" font-family="Helvetica,sans-Serif" font-weight="bold" font-size="9.00">grid</text>
</g>
<g id="clust10" class="cluster">
<title>cluster_src/js/directable/dotmatrix/shape</title>
<path fill="#ffffff" stroke="black" stroke-width="2" d="M746.5,-255C746.5,-255 1199.75,-255 1199.75,-255 1205.75,-255 1211.75,-261 1211.75,-267 1211.75,-267 1211.75,-728 1211.75,-728 1211.75,-734 1205.75,-740 1199.75,-740 1199.75,-740 746.5,-740 746.5,-740 740.5,-740 734.5,-734 734.5,-728 734.5,-728 734.5,-267 734.5,-267 734.5,-261 740.5,-255 746.5,-255"/>
<text text-anchor="middle" x="973.12" y="-727.45" font-family="Helvetica,sans-Serif" font-weight="bold" font-size="9.00">shape</text>
</g>
<g id="clust11" class="cluster">
<title>cluster_src/js/directable/dotmatrix/shape/fill</title>
<path fill="#ffffff" stroke="black" stroke-width="2" d="M1025.75,-629C1025.75,-629 1191.75,-629 1191.75,-629 1197.75,-629 1203.75,-635 1203.75,-641 1203.75,-641 1203.75,-701 1203.75,-701 1203.75,-707 1197.75,-713 1191.75,-713 1191.75,-713 1025.75,-713 1025.75,-713 1019.75,-713 1013.75,-707 1013.75,-701 1013.75,-701 1013.75,-641 1013.75,-641 1013.75,-635 1019.75,-629 1025.75,-629"/>
<text text-anchor="middle" x="1108.75" y="-700.45" font-family="Helvetica,sans-Serif" font-weight="bold" font-size="9.00">fill</text>
</g>
<g id="clust12" class="cluster">
<title>cluster_src/js/directable/dotmatrix/shape/glyph</title>
<path fill="#ffffff" stroke="black" stroke-width="2" d="M757.5,-263C757.5,-263 837.5,-263 837.5,-263 843.5,-263 849.5,-269 849.5,-275 849.5,-275 849.5,-614 849.5,-614 849.5,-620 843.5,-626 837.5,-626 837.5,-626 757.5,-626 757.5,-626 751.5,-626 745.5,-620 745.5,-614 745.5,-614 745.5,-275 745.5,-275 745.5,-269 751.5,-263 757.5,-263"/>
<text text-anchor="middle" x="797.5" y="-613.45" font-family="Helvetica,sans-Serif" font-weight="bold" font-size="9.00">glyph</text>
</g>
<g id="clust13" class="cluster">
<title>cluster_src/js/directable/dotmatrix/shape/line</title>
<path fill="#ffffff" stroke="black" stroke-width="2" d="M881.12,-618C881.12,-618 985.12,-618 985.12,-618 991.12,-618 997.12,-624 997.12,-630 997.12,-630 997.12,-690 997.12,-690 997.12,-696 991.12,-702 985.12,-702 985.12,-702 881.12,-702 881.12,-702 875.12,-702 869.12,-696 869.12,-690 869.12,-690 869.12,-630 869.12,-630 869.12,-624 875.12,-618 881.12,-618"/>
<text text-anchor="middle" x="933.12" y="-689.45" font-family="Helvetica,sans-Serif" font-weight="bold" font-size="9.00">line</text>
</g>
<g id="clust14" class="cluster">
<title>cluster_src/js/directable/dotmatrix/shape/primative</title>
<path fill="#ffffff" stroke="black" stroke-width="2" d="M754.5,-634C754.5,-634 840.5,-634 840.5,-634 846.5,-634 852.5,-640 852.5,-646 852.5,-646 852.5,-675 852.5,-675 852.5,-681 846.5,-687 840.5,-687 840.5,-687 754.5,-687 754.5,-687 748.5,-687 742.5,-681 742.5,-675 742.5,-675 742.5,-646 742.5,-646 742.5,-640 748.5,-634 754.5,-634"/>
<text text-anchor="middle" x="797.5" y="-674.45" font-family="Helvetica,sans-Serif" font-weight="bold" font-size="9.00">primative</text>
</g>
<g id="clust15" class="cluster">
<title>cluster_src/js/directable/dotmatrix/view</title>
<path fill="#ffffff" stroke="black" stroke-width="2" d="M632.25,-40C632.25,-40 824.38,-40 824.38,-40 830.38,-40 836.38,-46 836.38,-52 836.38,-52 836.38,-174 836.38,-174 836.38,-180 830.38,-186 824.38,-186 824.38,-186 632.25,-186 632.25,-186 626.25,-186 620.25,-180 620.25,-174 620.25,-174 620.25,-52 620.25,-52 620.25,-46 626.25,-40 632.25,-40"/>
<text text-anchor="middle" x="728.31" y="-173.45" font-family="Helvetica,sans-Serif" font-weight="bold" font-size="9.00">view</text>
</g>
<g id="clust16" class="cluster">
<title>cluster_src/js/directable/frame</title>
<path fill="#ffffff" stroke="black" stroke-width="2" d="M480.62,-775C480.62,-775 565.88,-775 565.88,-775 571.88,-775 577.88,-781 577.88,-787 577.88,-787 577.88,-816 577.88,-816 577.88,-822 571.88,-828 565.88,-828 565.88,-828 480.62,-828 480.62,-828 474.62,-828 468.62,-822 468.62,-816 468.62,-816 468.62,-787 468.62,-787 468.62,-781 474.62,-775 480.62,-775"/>
<text text-anchor="middle" x="523.25" y="-815.45" font-family="Helvetica,sans-Serif" font-weight="bold" font-size="9.00">frame</text>
</g>
<g id="clust17" class="cluster">
<title>cluster_src/js/directable/rhythm</title>
<path fill="#ffffff" stroke="black" stroke-width="2" d="M439.25,-836C439.25,-836 714.12,-836 714.12,-836 720.12,-836 726.12,-842 726.12,-848 726.12,-848 726.12,-1035 726.12,-1035 726.12,-1041 720.12,-1047 714.12,-1047 714.12,-1047 439.25,-1047 439.25,-1047 433.25,-1047 427.25,-1041 427.25,-1035 427.25,-1035 427.25,-848 427.25,-848 427.25,-842 433.25,-836 439.25,-836"/>
<text text-anchor="middle" x="576.69" y="-1034.45" font-family="Helvetica,sans-Serif" font-weight="bold" font-size="9.00">rhythm</text>
</g>
<g id="clust18" class="cluster">
<title>cluster_src/js/directable/rhythm/asdr</title>
<path fill="#ffffff" stroke="black" stroke-width="2" d="M447.25,-844C447.25,-844 599.25,-844 599.25,-844 605.25,-844 611.25,-850 611.25,-856 611.25,-856 611.25,-947 611.25,-947 611.25,-953 605.25,-959 599.25,-959 599.25,-959 447.25,-959 447.25,-959 441.25,-959 435.25,-953 435.25,-947 435.25,-947 435.25,-856 435.25,-856 435.25,-850 441.25,-844 447.25,-844"/>
<text text-anchor="middle" x="523.25" y="-946.45" font-family="Helvetica,sans-Serif" font-weight="bold" font-size="9.00">asdr</text>
</g>
<g id="clust19" class="cluster">
<title>cluster_src/js/directable/rhythm/bpm</title>
<path fill="#ffffff" stroke="black" stroke-width="2" d="M468.25,-967C468.25,-967 578.25,-967 578.25,-967 584.25,-967 590.25,-973 590.25,-979 590.25,-979 590.25,-1008 590.25,-1008 590.25,-1014 584.25,-1020 578.25,-1020 578.25,-1020 468.25,-1020 468.25,-1020 462.25,-1020 456.25,-1014 456.25,-1008 456.25,-1008 456.25,-979 456.25,-979 456.25,-973 462.25,-967 468.25,-967"/>
<text text-anchor="middle" x="523.25" y="-1007.45" font-family="Helvetica,sans-Serif" font-weight="bold" font-size="9.00">bpm</text>
</g>
<g id="clust20" class="cluster">
<title>cluster_src/js/directable/rhythm2</title>
<path fill="#ffffff" stroke="black" stroke-width="2" d="M488.88,-1055C488.88,-1055 714.5,-1055 714.5,-1055 720.5,-1055 726.5,-1061 726.5,-1067 726.5,-1067 726.5,-1096 726.5,-1096 726.5,-1102 720.5,-1108 714.5,-1108 714.5,-1108 488.88,-1108 488.88,-1108 482.88,-1108 476.88,-1102 476.88,-1096 476.88,-1096 476.88,-1067 476.88,-1067 476.88,-1061 482.88,-1055 488.88,-1055"/>
<text text-anchor="middle" x="601.69" y="-1095.45" font-family="Helvetica,sans-Serif" font-weight="bold" font-size="9.00">rhythm2</text>
</g>
<g id="clust21" class="cluster">
<title>cluster_src/js/directable/title</title>
<path fill="#ffffff" stroke="black" stroke-width="2" d="M485.12,-1116C485.12,-1116 561.38,-1116 561.38,-1116 567.38,-1116 573.38,-1122 573.38,-1128 573.38,-1128 573.38,-1157 573.38,-1157 573.38,-1163 567.38,-1169 561.38,-1169 561.38,-1169 485.12,-1169 485.12,-1169 479.12,-1169 473.12,-1163 473.12,-1157 473.12,-1157 473.12,-1128 473.12,-1128 473.12,-1122 479.12,-1116 485.12,-1116"/>
<text text-anchor="middle" x="523.25" y="-1156.45" font-family="Helvetica,sans-Serif" font-weight="bold" font-size="9.00">title</text>
</g>
<g id="clust22" class="cluster">
<title>cluster_src/js/director</title>
<path fill="#ffffff" stroke="black" stroke-width="2" d="M339.25,-1116C339.25,-1116 387.75,-1116 387.75,-1116 393.75,-1116 399.75,-1122 399.75,-1128 399.75,-1128 399.75,-1157 399.75,-1157 399.75,-1163 393.75,-1169 387.75,-1169 387.75,-1169 339.25,-1169 339.25,-1169 333.25,-1169 327.25,-1163 327.25,-1157 327.25,-1157 327.25,-1128 327.25,-1128 327.25,-1122 333.25,-1116 339.25,-1116"/>
<text text-anchor="middle" x="363.5" y="-1156.45" font-family="Helvetica,sans-Serif" font-weight="bold" font-size="9.00">director</text>
</g>
<g id="clust23" class="cluster">
<title>cluster_src/js/display</title>
<path fill="#ffffff" stroke="black" stroke-width="2" d="M499.75,-1204C499.75,-1204 709.25,-1204 709.25,-1204 715.25,-1204 721.25,-1210 721.25,-1216 721.25,-1216 721.25,-1245 721.25,-1245 721.25,-1251 715.25,-1257 709.25,-1257 709.25,-1257 499.75,-1257 499.75,-1257 493.75,-1257 487.75,-1251 487.75,-1245 487.75,-1245 487.75,-1216 487.75,-1216 487.75,-1210 493.75,-1204 499.75,-1204"/>
<text text-anchor="middle" x="604.5" y="-1244.45" font-family="Helvetica,sans-Serif" font-weight="bold" font-size="9.00">display</text>
</g>
<g id="clust24" class="cluster">
<title>cluster_src/js/overlay</title>
<path fill="#ffffff" stroke="black" stroke-width="2" d="M339.62,-1265C339.62,-1265 699.88,-1265 699.88,-1265 705.88,-1265 711.88,-1271 711.88,-1277 711.88,-1277 711.88,-1402 711.88,-1402 711.88,-1408 705.88,-1414 699.88,-1414 699.88,-1414 339.62,-1414 339.62,-1414 333.62,-1414 327.62,-1408 327.62,-1402 327.62,-1402 327.62,-1277 327.62,-1277 327.62,-1271 333.62,-1265 339.62,-1265"/>
<text text-anchor="middle" x="519.75" y="-1401.45" font-family="Helvetica,sans-Serif" font-weight="bold" font-size="9.00">overlay</text>
</g>
<g id="clust25" class="cluster">
<title>cluster_src/js/overlay/displayFormat</title>
<path fill="#ffffff" stroke="black" stroke-width="2" d="M469.38,-1273C469.38,-1273 577.12,-1273 577.12,-1273 583.12,-1273 589.12,-1279 589.12,-1285 589.12,-1285 589.12,-1314 589.12,-1314 589.12,-1320 583.12,-1326 577.12,-1326 577.12,-1326 469.38,-1326 469.38,-1326 463.38,-1326 457.38,-1320 457.38,-1314 457.38,-1314 457.38,-1285 457.38,-1285 457.38,-1279 463.38,-1273 469.38,-1273"/>
<text text-anchor="middle" x="523.25" y="-1313.45" font-family="Helvetica,sans-Serif" font-weight="bold" font-size="9.00">displayFormat</text>
</g>
<g id="clust26" class="cluster">
<title>cluster_src/js/overlay/overlay</title>
<path fill="#ffffff" stroke="black" stroke-width="2" d="M483.62,-1334C483.62,-1334 562.88,-1334 562.88,-1334 568.88,-1334 574.88,-1340 574.88,-1346 574.88,-1346 574.88,-1375 574.88,-1375 574.88,-1381 568.88,-1387 562.88,-1387 562.88,-1387 483.62,-1387 483.62,-1387 477.62,-1387 471.62,-1381 471.62,-1375 471.62,-1375 471.62,-1346 471.62,-1346 471.62,-1340 477.62,-1334 483.62,-1334"/>
<text text-anchor="middle" x="523.25" y="-1374.45" font-family="Helvetica,sans-Serif" font-weight="bold" font-size="9.00">overlay</text>
</g>
<g id="clust27" class="cluster">
<title>cluster_src/js/render</title>
<path fill="#ffffff" stroke="black" stroke-width="2" d="M319.75,-1422C319.75,-1422 562.88,-1422 562.88,-1422 568.88,-1422 574.88,-1428 574.88,-1434 574.88,-1434 574.88,-1463 574.88,-1463 574.88,-1469 568.88,-1475 562.88,-1475 562.88,-1475 319.75,-1475 319.75,-1475 313.75,-1475 307.75,-1469 307.75,-1463 307.75,-1463 307.75,-1434 307.75,-1434 307.75,-1428 313.75,-1422 319.75,-1422"/>
<text text-anchor="middle" x="441.31" y="-1462.45" font-family="Helvetica,sans-Serif" font-weight="bold" font-size="9.00">render</text>
</g>
<!-- src/js/application/Application.js -->
<g id="node1" class="node">
<title>src/js/application/Application.js</title>
<g id="a_node1"><a xlink:href="src/js/application/Application.js" xlink:title="Application.js">
<path fill="#ffffcc" stroke="black" d="M196.83,-1281.25C196.83,-1281.25 138.42,-1281.25 138.42,-1281.25 135.33,-1281.25 132.25,-1278.17 132.25,-1275.08 132.25,-1275.08 132.25,-1268.92 132.25,-1268.92 132.25,-1265.83 135.33,-1262.75 138.42,-1262.75 138.42,-1262.75 196.83,-1262.75 196.83,-1262.75 199.92,-1262.75 203,-1265.83 203,-1268.92 203,-1268.92 203,-1275.08 203,-1275.08 203,-1278.17 199.92,-1281.25 196.83,-1281.25"/>
<text text-anchor="start" x="140.25" y="-1268.7" font-family="Helvetica,sans-Serif" font-size="9.00">Application.js</text>
</a>
</g>
</g>
<!-- src/js/controller/Controller.js -->
<g id="node2" class="node">
<title>src/js/controller/Controller.js</title>
<g id="a_node2"><a xlink:href="src/js/controller/Controller.js" xlink:title="Controller.js">
<path fill="#ffffcc" stroke="black" d="M285.58,-1281.25C285.58,-1281.25 233.17,-1281.25 233.17,-1281.25 230.08,-1281.25 227,-1278.17 227,-1275.08 227,-1275.08 227,-1268.92 227,-1268.92 227,-1265.83 230.08,-1262.75 233.17,-1262.75 233.17,-1262.75 285.58,-1262.75 285.58,-1262.75 288.67,-1262.75 291.75,-1265.83 291.75,-1268.92 291.75,-1268.92 291.75,-1275.08 291.75,-1275.08 291.75,-1278.17 288.67,-1281.25 285.58,-1281.25"/>
<text text-anchor="start" x="235" y="-1268.7" font-family="Helvetica,sans-Serif" font-size="9.00">Controller.js</text>
</a>
</g>
</g>
<!-- src/js/application/Application.js&#45;&gt;src/js/controller/Controller.js -->
<g id="edge1" class="edge">
<title>src/js/application/Application.js&#45;&gt;src/js/controller/Controller.js</title>
<path fill="none" stroke="#000000" stroke-width="2" stroke-opacity="0.200000" d="M203.32,-1272C208.13,-1272 213.11,-1272 218.01,-1272"/>
<polygon fill="#000000" fill-opacity="0.200000" stroke="#000000" stroke-width="2" stroke-opacity="0.200000" points="217.68,-1274.1 223.68,-1272 217.68,-1269.9 217.68,-1274.1"/>
</g>
<!-- src/js/director/Director.js -->
<g id="node3" class="node">
<title>src/js/director/Director.js</title>
<g id="a_node3"><a xlink:href="src/js/director/Director.js" xlink:title="Director.js">
<path fill="#ffffcc" stroke="black" d="M385.58,-1142.25C385.58,-1142.25 341.42,-1142.25 341.42,-1142.25 338.33,-1142.25 335.25,-1139.17 335.25,-1136.08 335.25,-1136.08 335.25,-1129.92 335.25,-1129.92 335.25,-1126.83 338.33,-1123.75 341.42,-1123.75 341.42,-1123.75 385.58,-1123.75 385.58,-1123.75 388.67,-1123.75 391.75,-1126.83 391.75,-1129.92 391.75,-1129.92 391.75,-1136.08 391.75,-1136.08 391.75,-1139.17 388.67,-1142.25 385.58,-1142.25"/>
<text text-anchor="start" x="343.25" y="-1129.7" font-family="Helvetica,sans-Serif" font-size="9.00">Director.js</text>
</a>
</g>
</g>
<!-- src/js/controller/Controller.js&#45;&gt;src/js/director/Director.js -->
<g id="edge2" class="edge">
<title>src/js/controller/Controller.js&#45;&gt;src/js/director/Director.js</title>
<path fill="none" stroke="#000000" stroke-width="2" stroke-opacity="0.200000" d="M267.39,-1262.45C284.52,-1239.14 328.62,-1179.11 350.22,-1149.72"/>
<polygon fill="#000000" fill-opacity="0.200000" stroke="#000000" stroke-width="2" stroke-opacity="0.200000" points="351.78,-1151.14 353.64,-1145.06 348.39,-1148.65 351.78,-1151.14"/>
</g>
<!-- src/js/display/Display.js -->
<g id="node4" class="node">
<title>src/js/display/Display.js</title>
<g id="a_node4"><a xlink:href="src/js/display/Display.js" xlink:title="Display.js">
<path fill="#ffffcc" stroke="black" d="M544.58,-1230.25C544.58,-1230.25 501.92,-1230.25 501.92,-1230.25 498.83,-1230.25 495.75,-1227.17 495.75,-1224.08 495.75,-1224.08 495.75,-1217.92 495.75,-1217.92 495.75,-1214.83 498.83,-1211.75 501.92,-1211.75 501.92,-1211.75 544.58,-1211.75 544.58,-1211.75 547.67,-1211.75 550.75,-1214.83 550.75,-1217.92 550.75,-1217.92 550.75,-1224.08 550.75,-1224.08 550.75,-1227.17 547.67,-1230.25 544.58,-1230.25"/>
<text text-anchor="start" x="503.75" y="-1217.7" font-family="Helvetica,sans-Serif" font-size="9.00">Display.js</text>
</a>
</g>
</g>
<!-- src/js/controller/Controller.js&#45;&gt;src/js/display/Display.js -->
<g id="edge3" class="edge">
<title>src/js/controller/Controller.js&#45;&gt;src/js/display/Display.js</title>
<path fill="none" stroke="#000000" stroke-width="2" stroke-opacity="0.200000" d="M292.21,-1265.19C297.4,-1264.11 302.72,-1263.01 307.75,-1262 370.6,-1249.36 444.01,-1235.53 486.6,-1227.6"/>
<polygon fill="#000000" fill-opacity="0.200000" stroke="#000000" stroke-width="2" stroke-opacity="0.200000" points="486.97,-1229.66 492.49,-1226.5 486.21,-1225.54 486.97,-1229.66"/>
</g>
<!-- src/js/overlay/Overlay.js -->
<g id="node5" class="node">
<title>src/js/overlay/Overlay.js</title>
<g id="a_node5"><a xlink:href="src/js/overlay/Overlay.js" xlink:title="Overlay.js">
<path fill="#ffffcc" stroke="black" d="M385.21,-1299.25C385.21,-1299.25 341.79,-1299.25 341.79,-1299.25 338.71,-1299.25 335.62,-1296.17 335.62,-1293.08 335.62,-1293.08 335.62,-1286.92 335.62,-1286.92 335.62,-1283.83 338.71,-1280.75 341.79,-1280.75 341.79,-1280.75 385.21,-1280.75 385.21,-1280.75 388.29,-1280.75 391.38,-1283.83 391.38,-1286.92 391.38,-1286.92 391.38,-1293.08 391.38,-1293.08 391.38,-1296.17 388.29,-1299.25 385.21,-1299.25"/>
<text text-anchor="start" x="343.62" y="-1286.7" font-family="Helvetica,sans-Serif" font-size="9.00">Overlay.js</text>
</a>
</g>
</g>
<!-- src/js/controller/Controller.js&#45;&gt;src/js/overlay/Overlay.js -->
<g id="edge4" class="edge">
<title>src/js/controller/Controller.js&#45;&gt;src/js/overlay/Overlay.js</title>
<path fill="none" stroke="#000000" stroke-width="2" stroke-opacity="0.200000" d="M292.13,-1277.6C303.03,-1279.52 315.31,-1281.68 326.53,-1283.66"/>
<polygon fill="#000000" fill-opacity="0.200000" stroke="#000000" stroke-width="2" stroke-opacity="0.200000" points="325.99,-1285.7 332.26,-1284.67 326.72,-1281.56 325.99,-1285.7"/>
</g>
<!-- src/js/render/RenderController.js -->
<g id="node6" class="node">
<title>src/js/render/RenderController.js</title>
<g id="a_node6"><a xlink:href="src/js/render/RenderController.js" xlink:title="RenderController.js">
<path fill="#ffffcc" stroke="black" d="M405.08,-1448.25C405.08,-1448.25 321.92,-1448.25 321.92,-1448.25 318.83,-1448.25 315.75,-1445.17 315.75,-1442.08 315.75,-1442.08 315.75,-1435.92 315.75,-1435.92 315.75,-1432.83 318.83,-1429.75 321.92,-1429.75 321.92,-1429.75 405.08,-1429.75 405.08,-1429.75 408.17,-1429.75 411.25,-1432.83 411.25,-1435.92 411.25,-1435.92 411.25,-1442.08 411.25,-1442.08 411.25,-1445.17 408.17,-1448.25 405.08,-1448.25"/>
<text text-anchor="start" x="323.75" y="-1435.7" font-family="Helvetica,sans-Serif" font-size="9.00">RenderController.js</text>
</a>
</g>
</g>
<!-- src/js/controller/Controller.js&#45;&gt;src/js/render/RenderController.js -->
<g id="edge5" class="edge">
<title>src/js/controller/Controller.js&#45;&gt;src/js/render/RenderController.js</title>
<path fill="none" stroke="#000000" stroke-width="2" stroke-opacity="0.200000" d="M260.8,-1281.5C262.44,-1306.87 270.29,-1376.97 307.75,-1417 310.66,-1420.11 314.07,-1422.79 317.73,-1425.1"/>
<polygon fill="#000000" fill-opacity="0.200000" stroke="#000000" stroke-width="2" stroke-opacity="0.200000" points="316.61,-1426.88 322.89,-1427.89 318.61,-1423.18 316.61,-1426.88"/>
</g>
<!-- src/js/directable/dotmatrix/DirectableDotMatrix.js -->
<g id="node9" class="node">
<title>src/js/directable/dotmatrix/DirectableDotMatrix.js</title>
<g id="a_node9"><a xlink:href="src/js/directable/dotmatrix/DirectableDotMatrix.js" xlink:title="DirectableDotMatrix.js">
<path fill="#ffffcc" stroke="black" d="M570.08,-403.25C570.08,-403.25 476.42,-403.25 476.42,-403.25 473.33,-403.25 470.25,-400.17 470.25,-397.08 470.25,-397.08 470.25,-390.92 470.25,-390.92 470.25,-387.83 473.33,-384.75 476.42,-384.75 476.42,-384.75 570.08,-384.75 570.08,-384.75 573.17,-384.75 576.25,-387.83 576.25,-390.92 576.25,-390.92 576.25,-397.08 576.25,-397.08 576.25,-400.17 573.17,-403.25 570.08,-403.25"/>
<text text-anchor="start" x="478.25" y="-390.7" font-family="Helvetica,sans-Serif" font-size="9.00">DirectableDotMatrix.js</text>
</a>
</g>
</g>
<!-- src/js/director/Director.js&#45;&gt;src/js/directable/dotmatrix/DirectableDotMatrix.js -->
<g id="edge29" class="edge">
<title>src/js/director/Director.js&#45;&gt;src/js/directable/dotmatrix/DirectableDotMatrix.js</title>
<path fill="none" stroke="#000000" stroke-width="2" stroke-opacity="0.200000" d="M365.54,-1123.45C370.17,-1081.59 390.02,-910.31 419.25,-772 448.9,-631.69 499.58,-466.1 516.53,-412.04"/>
<polygon fill="#000000" fill-opacity="0.200000" stroke="#000000" stroke-width="2" stroke-opacity="0.200000" points="518.5,-412.78 518.3,-406.43 514.5,-411.52 518.5,-412.78"/>
</g>
<!-- src/js/directable/title/DirectableTitle.js -->
<g id="node48" class="node">
<title>src/js/directable/title/DirectableTitle.js</title>
<g id="a_node48"><a xlink:href="src/js/directable/title/DirectableTitle.js" xlink:title="DirectableTitle.js">
<path fill="#ffffcc" stroke="black" d="M559.21,-1142.25C559.21,-1142.25 487.29,-1142.25 487.29,-1142.25 484.21,-1142.25 481.12,-1139.17 481.12,-1136.08 481.12,-1136.08 481.12,-1129.92 481.12,-1129.92 481.12,-1126.83 484.21,-1123.75 487.29,-1123.75 487.29,-1123.75 559.21,-1123.75 559.21,-1123.75 562.29,-1123.75 565.38,-1126.83 565.38,-1129.92 565.38,-1129.92 565.38,-1136.08 565.38,-1136.08 565.38,-1139.17 562.29,-1142.25 559.21,-1142.25"/>
<text text-anchor="start" x="489.12" y="-1129.7" font-family="Helvetica,sans-Serif" font-size="9.00">DirectableTitle.js</text>
</a>
</g>
</g>
<!-- src/js/director/Director.js&#45;&gt;src/js/directable/title/DirectableTitle.js -->
<g id="edge30" class="edge">
<title>src/js/director/Director.js&#45;&gt;src/js/directable/title/DirectableTitle.js</title>
<path fill="none" stroke="#000000" stroke-width="2" stroke-opacity="0.200000" d="M391.98,-1133C414.03,-1133 445.56,-1133 472.09,-1133"/>
<polygon fill="#000000" fill-opacity="0.200000" stroke="#000000" stroke-width="2" stroke-opacity="0.200000" points="471.84,-1135.1 477.84,-1133 471.84,-1130.9 471.84,-1135.1"/>
</g>
<!-- src/js/display/DisplayFormats.js -->
<g id="node49" class="node">
<title>src/js/display/DisplayFormats.js</title>
<g id="a_node49"><a xlink:href="src/js/display/DisplayFormats.js" xlink:title="DisplayFormats.js">
<path fill="#ffffcc" stroke="black" d="M707.08,-1230.25C707.08,-1230.25 630.67,-1230.25 630.67,-1230.25 627.58,-1230.25 624.5,-1227.17 624.5,-1224.08 624.5,-1224.08 624.5,-1217.92 624.5,-1217.92 624.5,-1214.83 627.58,-1211.75 630.67,-1211.75 630.67,-1211.75 707.08,-1211.75 707.08,-1211.75 710.17,-1211.75 713.25,-1214.83 713.25,-1217.92 713.25,-1217.92 713.25,-1224.08 713.25,-1224.08 713.25,-1227.17 710.17,-1230.25 707.08,-1230.25"/>
<text text-anchor="start" x="632.5" y="-1217.7" font-family="Helvetica,sans-Serif" font-size="9.00">DisplayFormats.js</text>
</a>
</g>
</g>
<!-- src/js/display/Display.js&#45;&gt;src/js/display/DisplayFormats.js -->
<g id="edge31" class="edge">
<title>src/js/display/Display.js&#45;&gt;src/js/display/DisplayFormats.js</title>
<path fill="none" stroke="#000000" stroke-width="2" stroke-opacity="0.200000" d="M550.93,-1221C568.97,-1221 593.4,-1221 615.26,-1221"/>
<polygon fill="#000000" fill-opacity="0.200000" stroke="#000000" stroke-width="2" stroke-opacity="0.200000" points="615.1,-1223.1 621.1,-1221 615.1,-1218.9 615.1,-1223.1"/>
</g>
<!-- src/js/overlay/displayFormat/OverlayDisplayFormat.js -->
<g id="node51" class="node">
<title>src/js/overlay/displayFormat/OverlayDisplayFormat.js</title>
<g id="a_node51"><a xlink:href="src/js/overlay/displayFormat/OverlayDisplayFormat.js" xlink:title="OverlayDisplayFormat.js">
<path fill="#ffffcc" stroke="black" d="M574.96,-1299.25C574.96,-1299.25 471.54,-1299.25 471.54,-1299.25 468.46,-1299.25 465.38,-1296.17 465.38,-1293.08 465.38,-1293.08 465.38,-1286.92 465.38,-1286.92 465.38,-1283.83 468.46,-1280.75 471.54,-1280.75 471.54,-1280.75 574.96,-1280.75 574.96,-1280.75 578.04,-1280.75 581.12,-1283.83 581.12,-1286.92 581.12,-1286.92 581.12,-1293.08 581.12,-1293.08 581.12,-1296.17 578.04,-1299.25 574.96,-1299.25"/>
<text text-anchor="start" x="473.38" y="-1286.7" font-family="Helvetica,sans-Serif" font-size="9.00">OverlayDisplayFormat.js</text>
</a>
</g>
</g>
<!-- src/js/overlay/Overlay.js&#45;&gt;src/js/overlay/displayFormat/OverlayDisplayFormat.js -->
<g id="edge33" class="edge">
<title>src/js/overlay/Overlay.js&#45;&gt;src/js/overlay/displayFormat/OverlayDisplayFormat.js</title>
<path fill="none" stroke="#000000" stroke-width="2" stroke-opacity="0.200000" d="M391.62,-1290C409.43,-1290 433.54,-1290 456.2,-1290"/>
<polygon fill="#000000" fill-opacity="0.200000" stroke="#000000" stroke-width="2" stroke-opacity="0.200000" points="456.1,-1292.1 462.1,-1290 456.1,-1287.9 456.1,-1292.1"/>
</g>
<!-- src/js/overlay/overlay/OverlayOverlay.js -->
<g id="node52" class="node">
<title>src/js/overlay/overlay/OverlayOverlay.js</title>
<g id="a_node52"><a xlink:href="src/js/overlay/overlay/OverlayOverlay.js" xlink:title="OverlayOverlay.js">
<path fill="#ffffcc" stroke="black" d="M560.71,-1360.25C560.71,-1360.25 485.79,-1360.25 485.79,-1360.25 482.71,-1360.25 479.62,-1357.17 479.62,-1354.08 479.62,-1354.08 479.62,-1347.92 479.62,-1347.92 479.62,-1344.83 482.71,-1341.75 485.79,-1341.75 485.79,-1341.75 560.71,-1341.75 560.71,-1341.75 563.79,-1341.75 566.88,-1344.83 566.88,-1347.92 566.88,-1347.92 566.88,-1354.08 566.88,-1354.08 566.88,-1357.17 563.79,-1360.25 560.71,-1360.25"/>
<text text-anchor="start" x="487.62" y="-1347.7" font-family="Helvetica,sans-Serif" font-size="9.00">OverlayOverlay.js</text>
</a>
</g>
</g>
<!-- src/js/overlay/Overlay.js&#45;&gt;src/js/overlay/overlay/OverlayOverlay.js -->
<g id="edge34" class="edge">
<title>src/js/overlay/Overlay.js&#45;&gt;src/js/overlay/overlay/OverlayOverlay.js</title>
<path fill="none" stroke="#000000" stroke-width="2" stroke-opacity="0.200000" d="M375.01,-1299.5C385.47,-1308.46 402.37,-1321.57 419.25,-1329 435.28,-1336.06 453.74,-1340.91 470.56,-1344.23"/>
<polygon fill="#000000" fill-opacity="0.200000" stroke="#000000" stroke-width="2" stroke-opacity="0.200000" points="469.93,-1346.25 476.21,-1345.27 470.69,-1342.12 469.93,-1346.25"/>
</g>
<!-- src/js/render/RenderSurface.js -->
<g id="node54" class="node">
<title>src/js/render/RenderSurface.js</title>
<g id="a_node54"><a xlink:href="src/js/render/RenderSurface.js" xlink:title="RenderSurface.js">
<path fill="#ffffcc" stroke="black" d="M560.71,-1448.25C560.71,-1448.25 485.79,-1448.25 485.79,-1448.25 482.71,-1448.25 479.62,-1445.17 479.62,-1442.08 479.62,-1442.08 479.62,-1435.92 479.62,-1435.92 479.62,-1432.83 482.71,-1429.75 485.79,-1429.75 485.79,-1429.75 560.71,-1429.75 560.71,-1429.75 563.79,-1429.75 566.88,-1432.83 566.88,-1435.92 566.88,-1435.92 566.88,-1442.08 566.88,-1442.08 566.88,-1445.17 563.79,-1448.25 560.71,-1448.25"/>
<text text-anchor="start" x="487.62" y="-1435.7" font-family="Helvetica,sans-Serif" font-size="9.00">RenderSurface.js</text>
</a>
</g>
</g>
<!-- src/js/render/RenderController.js&#45;&gt;src/js/render/RenderSurface.js -->
<g id="edge38" class="edge">
<title>src/js/render/RenderController.js&#45;&gt;src/js/render/RenderSurface.js</title>
<path fill="none" stroke="#000000" stroke-width="2" stroke-opacity="0.200000" d="M411.4,-1439C429.98,-1439 451.42,-1439 470.45,-1439"/>
<polygon fill="#000000" fill-opacity="0.200000" stroke="#000000" stroke-width="2" stroke-opacity="0.200000" points="470.27,-1441.1 476.27,-1439 470.27,-1436.9 470.27,-1441.1"/>
</g>
<!-- src/js/data/Data.json -->
<g id="node7" class="node">
<title>src/js/data/Data.json</title>
<g id="a_node7"><a xlink:href="src/js/data/Data.json" xlink:title="Data.json">
<path fill="#ffee44" stroke="black" d="M188.96,-661.25C188.96,-661.25 146.29,-661.25 146.29,-661.25 143.21,-661.25 140.12,-658.17 140.12,-655.08 140.12,-655.08 140.12,-648.92 140.12,-648.92 140.12,-645.83 143.21,-642.75 146.29,-642.75 146.29,-642.75 188.96,-642.75 188.96,-642.75 192.04,-642.75 195.12,-645.83 195.12,-648.92 195.12,-648.92 195.12,-655.08 195.12,-655.08 195.12,-658.17 192.04,-661.25 188.96,-661.25"/>
<text text-anchor="start" x="148.12" y="-648.7" font-family="Helvetica,sans-Serif" font-size="9.00">Data.json</text>
</a>
</g>
</g>
<!-- src/js/data/DataController.js -->
<g id="node8" class="node">
<title>src/js/data/DataController.js</title>
<g id="a_node8"><a xlink:href="src/js/data/DataController.js" xlink:title="DataController.js">
<path fill="#ffffcc" stroke="black" d="M110.08,-661.25C110.08,-661.25 38.17,-661.25 38.17,-661.25 35.08,-661.25 32,-658.17 32,-655.08 32,-655.08 32,-648.92 32,-648.92 32,-645.83 35.08,-642.75 38.17,-642.75 38.17,-642.75 110.08,-642.75 110.08,-642.75 113.17,-642.75 116.25,-645.83 116.25,-648.92 116.25,-648.92 116.25,-655.08 116.25,-655.08 116.25,-658.17 113.17,-661.25 110.08,-661.25"/>
<text text-anchor="start" x="40" y="-648.7" font-family="Helvetica,sans-Serif" font-size="9.00">DataController.js</text>
</a>
</g>
</g>
<!-- src/js/data/DataController.js&#45;&gt;src/js/data/Data.json -->
<g id="edge6" class="edge">
<title>src/js/data/DataController.js&#45;&gt;src/js/data/Data.json</title>
<path fill="none" stroke="#000000" stroke-width="2" stroke-opacity="0.200000" d="M116.59,-652C121.37,-652 126.22,-652 130.92,-652"/>
<polygon fill="#000000" fill-opacity="0.200000" stroke="#000000" stroke-width="2" stroke-opacity="0.200000" points="130.69,-654.1 136.69,-652 130.69,-649.9 130.69,-654.1"/>
</g>
<!-- src/js/directable/dotmatrix/view/ViewManager.js -->
<g id="node10" class="node">
<title>src/js/directable/dotmatrix/view/ViewManager.js</title>
<g id="a_node10"><a xlink:href="src/js/directable/dotmatrix/view/ViewManager.js" xlink:title="ViewManager.js">
<path fill="#ffffcc" stroke="black" d="M703.33,-66.25C703.33,-66.25 634.42,-66.25 634.42,-66.25 631.33,-66.25 628.25,-63.17 628.25,-60.08 628.25,-60.08 628.25,-53.92 628.25,-53.92 628.25,-50.83 631.33,-47.75 634.42,-47.75 634.42,-47.75 703.33,-47.75 703.33,-47.75 706.42,-47.75 709.5,-50.83 709.5,-53.92 709.5,-53.92 709.5,-60.08 709.5,-60.08 709.5,-63.17 706.42,-66.25 703.33,-66.25"/>
<text text-anchor="start" x="636.25" y="-53.7" font-family="Helvetica,sans-Serif" font-size="9.00">ViewManager.js</text>
</a>
</g>
</g>
<!-- src/js/directable/dotmatrix/DirectableDotMatrix.js&#45;&gt;src/js/directable/dotmatrix/view/ViewManager.js -->
<g id="edge7" class="edge">
<title>src/js/directable/dotmatrix/DirectableDotMatrix.js&#45;&gt;src/js/directable/dotmatrix/view/ViewManager.js</title>
<path fill="none" stroke="#000000" stroke-width="2" stroke-opacity="0.200000" d="M524.08,-384.3C523.87,-341.34 528.8,-166.22 619.25,-73 619.82,-72.41 620.41,-71.85 621.02,-71.31"/>
<polygon fill="#000000" fill-opacity="0.200000" stroke="#000000" stroke-width="2" stroke-opacity="0.200000" points="622.04,-73.16 625.72,-67.98 619.61,-69.73 622.04,-73.16"/>
</g>
<!-- src/js/directable/dotmatrix/dot/DotManager.js -->
<g id="node12" class="node">
<title>src/js/directable/dotmatrix/dot/DotManager.js</title>
<g id="a_node12"><a xlink:href="src/js/directable/dotmatrix/dot/DotManager.js" xlink:title="DotManager.js">
<path fill="#ffffcc" stroke="black" d="M828.96,-220.25C828.96,-220.25 766.04,-220.25 766.04,-220.25 762.96,-220.25 759.88,-217.17 759.88,-214.08 759.88,-214.08 759.88,-207.92 759.88,-207.92 759.88,-204.83 762.96,-201.75 766.04,-201.75 766.04,-201.75 828.96,-201.75 828.96,-201.75 832.04,-201.75 835.12,-204.83 835.12,-207.92 835.12,-207.92 835.12,-214.08 835.12,-214.08 835.12,-217.17 832.04,-220.25 828.96,-220.25"/>
<text text-anchor="start" x="767.88" y="-207.7" font-family="Helvetica,sans-Serif" font-size="9.00">DotManager.js</text>
</a>
</g>
</g>
<!-- src/js/directable/dotmatrix/view/ViewManager.js&#45;&gt;src/js/directable/dotmatrix/dot/DotManager.js -->
<g id="edge20" class="edge">
<title>src/js/directable/dotmatrix/view/ViewManager.js&#45;&gt;src/js/directable/dotmatrix/dot/DotManager.js</title>
<path fill="none" stroke="#000000" stroke-width="2" stroke-opacity="0.200000" d="M709.84,-61.6C716.25,-64.06 722.18,-67.69 726.5,-73 742.79,-93.06 718.88,-168.42 734.5,-189 738.92,-194.82 745,-199.1 751.64,-202.26"/>
<polygon fill="#000000" fill-opacity="0.200000" stroke="#000000" stroke-width="2" stroke-opacity="0.200000" points="750.46,-204.05 756.81,-204.34 752.02,-200.15 750.46,-204.05"/>
</g>
<!-- src/js/directable/dotmatrix/grid/GridData.js -->
<g id="node13" class="node">
<title>src/js/directable/dotmatrix/grid/GridData.js</title>
<g id="a_node13"><a xlink:href="src/js/directable/dotmatrix/grid/GridData.js" xlink:title="GridData.js">
<path fill="#ffffcc" stroke="black" d="M957.83,-97.25C957.83,-97.25 908.42,-97.25 908.42,-97.25 905.33,-97.25 902.25,-94.17 902.25,-91.08 902.25,-91.08 902.25,-84.92 902.25,-84.92 902.25,-81.83 905.33,-78.75 908.42,-78.75 908.42,-78.75 957.83,-78.75 957.83,-78.75 960.92,-78.75 964,-81.83 964,-84.92 964,-84.92 964,-91.08 964,-91.08 964,-94.17 960.92,-97.25 957.83,-97.25"/>
<text text-anchor="start" x="910.25" y="-84.7" font-family="Helvetica,sans-Serif" font-size="9.00">GridData.js</text>
</a>
</g>
</g>
<!-- src/js/directable/dotmatrix/view/ViewManager.js&#45;&gt;src/js/directable/dotmatrix/grid/GridData.js -->
<g id="edge21" class="edge">
<title>src/js/directable/dotmatrix/view/ViewManager.js&#45;&gt;src/js/directable/dotmatrix/grid/GridData.js</title>
<path fill="none" stroke="#000000" stroke-width="2" stroke-opacity="0.200000" d="M704.12,-66.7C718.71,-70.8 732.79,-74.71 734.5,-75 788.9,-84.26 852.77,-87.02 892.85,-87.79"/>
<polygon fill="#000000" fill-opacity="0.200000" stroke="#000000" stroke-width="2" stroke-opacity="0.200000" points="892.71,-89.89 898.74,-87.89 892.77,-85.69 892.71,-89.89"/>
</g>
<!-- src/js/directable/dotmatrix/shape/ShapeManager.js -->
<g id="node17" class="node">
<title>src/js/directable/dotmatrix/shape/ShapeManager.js</title>
<g id="a_node17"><a xlink:href="src/js/directable/dotmatrix/shape/ShapeManager.js" xlink:title="ShapeManager.js">
<path fill="#ffffcc" stroke="black" d="M835.33,-713.25C835.33,-713.25 759.67,-713.25 759.67,-713.25 756.58,-713.25 753.5,-710.17 753.5,-707.08 753.5,-707.08 753.5,-700.92 753.5,-700.92 753.5,-697.83 756.58,-694.75 759.67,-694.75 759.67,-694.75 835.33,-694.75 835.33,-694.75 838.42,-694.75 841.5,-697.83 841.5,-700.92 841.5,-700.92 841.5,-707.08 841.5,-707.08 841.5,-710.17 838.42,-713.25 835.33,-713.25"/>
<text text-anchor="start" x="761.5" y="-700.7" font-family="Helvetica,sans-Serif" font-size="9.00">ShapeManager.js</text>
</a>
</g>
</g>
<!-- src/js/directable/dotmatrix/view/ViewManager.js&#45;&gt;src/js/directable/dotmatrix/shape/ShapeManager.js -->
<g id="edge22" class="edge">
<title>src/js/directable/dotmatrix/view/ViewManager.js&#45;&gt;src/js/directable/dotmatrix/shape/ShapeManager.js</title>
<path fill="none" stroke="#000000" stroke-width="2" stroke-opacity="0.200000" d="M709.8,-61.29C716.3,-63.77 722.27,-67.49 726.5,-73 747.36,-100.2 712.92,-663.36 734.5,-690 737.42,-693.61 741.05,-696.4 745.09,-698.56"/>
<polygon fill="#000000" fill-opacity="0.200000" stroke="#000000" stroke-width="2" stroke-opacity="0.200000" points="744.12,-700.43 750.46,-700.81 745.73,-696.56 744.12,-700.43"/>
</g>
<!-- src/js/directable/dotmatrix/view/ViewTest.js -->
<g id="node38" class="node">
<title>src/js/directable/dotmatrix/view/ViewTest.js</title>
<g id="a_node38"><a xlink:href="src/js/directable/dotmatrix/view/ViewTest.js" xlink:title="ViewTest.js">
<path fill="#ffffcc" stroke="black" d="M822.21,-69.25C822.21,-69.25 772.79,-69.25 772.79,-69.25 769.71,-69.25 766.62,-66.17 766.62,-63.08 766.62,-63.08 766.62,-56.92 766.62,-56.92 766.62,-53.83 769.71,-50.75 772.79,-50.75 772.79,-50.75 822.21,-50.75 822.21,-50.75 825.29,-50.75 828.38,-53.83 828.38,-56.92 828.38,-56.92 828.38,-63.08 828.38,-63.08 828.38,-66.17 825.29,-69.25 822.21,-69.25"/>
<text text-anchor="start" x="774.62" y="-56.7" font-family="Helvetica,sans-Serif" font-size="9.00">ViewTest.js</text>
</a>
</g>
</g>
<!-- src/js/directable/dotmatrix/view/ViewManager.js&#45;&gt;src/js/directable/dotmatrix/view/ViewTest.js -->
<g id="edge23" class="edge">
<title>src/js/directable/dotmatrix/view/ViewManager.js&#45;&gt;src/js/directable/dotmatrix/view/ViewTest.js</title>
<path fill="none" stroke="#000000" stroke-width="2" stroke-opacity="0.200000" d="M709.94,-57.95C725.2,-58.31 742.56,-58.72 757.7,-59.08"/>
<polygon fill="#000000" fill-opacity="0.200000" stroke="#000000" stroke-width="2" stroke-opacity="0.200000" points="757.26,-61.17 763.3,-59.21 757.36,-56.97 757.26,-61.17"/>
</g>
<!-- src/js/directable/dotmatrix/dot/Dot.js -->
<g id="node11" class="node">
<title>src/js/directable/dotmatrix/dot/Dot.js</title>
<g id="a_node11"><a xlink:href="src/js/directable/dotmatrix/dot/Dot.js" xlink:title="Dot.js">
<path fill="#ffffcc" stroke="black" d="M953.96,-220.25C953.96,-220.25 912.29,-220.25 912.29,-220.25 909.21,-220.25 906.12,-217.17 906.12,-214.08 906.12,-214.08 906.12,-207.92 906.12,-207.92 906.12,-204.83 909.21,-201.75 912.29,-201.75 912.29,-201.75 953.96,-201.75 953.96,-201.75 957.04,-201.75 960.12,-204.83 960.12,-207.92 960.12,-207.92 960.12,-214.08 960.12,-214.08 960.12,-217.17 957.04,-220.25 953.96,-220.25"/>
<text text-anchor="start" x="921.5" y="-207.7" font-family="Helvetica,sans-Serif" font-size="9.00">Dot.js</text>
</a>
</g>
</g>
<!-- src/js/directable/dotmatrix/dot/DotManager.js&#45;&gt;src/js/directable/dotmatrix/dot/Dot.js -->
<g id="edge9" class="edge">
<title>src/js/directable/dotmatrix/dot/DotManager.js&#45;&gt;src/js/directable/dotmatrix/dot/Dot.js</title>
<path fill="none" stroke="#000000" stroke-width="2" stroke-opacity="0.200000" d="M835.37,-211C854.62,-211 878.05,-211 897.04,-211"/>
<polygon fill="#000000" fill-opacity="0.200000" stroke="#000000" stroke-width="2" stroke-opacity="0.200000" points="896.94,-213.1 902.94,-211 896.94,-208.9 896.94,-213.1"/>
</g>
<!-- src/js/directable/dotmatrix/dot/DotManager.js&#45;&gt;src/js/directable/dotmatrix/grid/GridData.js -->
<g id="edge8" class="edge">
<title>src/js/directable/dotmatrix/dot/DotManager.js&#45;&gt;src/js/directable/dotmatrix/grid/GridData.js</title>
<path fill="none" stroke="#000000" stroke-width="2" stroke-opacity="0.200000" d="M835.35,-202.31C841.98,-199.15 848.15,-194.85 852.5,-189 863.81,-173.77 847.96,-118.23 860.5,-104 868.7,-94.69 881.03,-90.15 893.15,-88.1"/>
<polygon fill="#000000" fill-opacity="0.200000" stroke="#000000" stroke-width="2" stroke-opacity="0.200000" points="893.18,-90.21 898.88,-87.38 892.66,-86.04 893.18,-90.21"/>
</g>
<!-- src/js/directable/dotmatrix/grid/GridRenderer.js -->
<g id="node14" class="node">
<title>src/js/directable/dotmatrix/grid/GridRenderer.js</title>
<g id="a_node14"><a xlink:href="src/js/directable/dotmatrix/grid/GridRenderer.js" xlink:title="GridRenderer.js">
<path fill="#ccffcc" stroke="black" d="M967.21,-128.25C967.21,-128.25 899.04,-128.25 899.04,-128.25 895.96,-128.25 892.88,-125.17 892.88,-122.08 892.88,-122.08 892.88,-115.92 892.88,-115.92 892.88,-112.83 895.96,-109.75 899.04,-109.75 899.04,-109.75 967.21,-109.75 967.21,-109.75 970.29,-109.75 973.38,-112.83 973.38,-115.92 973.38,-115.92 973.38,-122.08 973.38,-122.08 973.38,-125.17 970.29,-128.25 967.21,-128.25"/>
<text text-anchor="start" x="900.88" y="-115.7" font-family="Helvetica,sans-Serif" font-size="9.00">GridRenderer.js</text>
</a>
</g>
</g>
<!-- src/js/directable/dotmatrix/grid/GridRendererComponent.js -->
<g id="node15" class="node">
<title>src/js/directable/dotmatrix/grid/GridRendererComponent.js</title>
<g id="a_node15"><a xlink:href="src/js/directable/dotmatrix/grid/GridRendererComponent.js" xlink:title="GridRendererComponent.js">
<path fill="#ccffcc" stroke="black" d="M991.58,-159.25C991.58,-159.25 874.67,-159.25 874.67,-159.25 871.58,-159.25 868.5,-156.17 868.5,-153.08 868.5,-153.08 868.5,-146.92 868.5,-146.92 868.5,-143.83 871.58,-140.75 874.67,-140.75 874.67,-140.75 991.58,-140.75 991.58,-140.75 994.67,-140.75 997.75,-143.83 997.75,-146.92 997.75,-146.92 997.75,-153.08 997.75,-153.08 997.75,-156.17 994.67,-159.25 991.58,-159.25"/>
<text text-anchor="start" x="876.5" y="-146.7" font-family="Helvetica,sans-Serif" font-size="9.00">GridRendererComponent.js</text>
</a>
</g>
</g>
<!-- src/js/directable/dotmatrix/shape/Shape.js -->
<g id="node16" class="node">
<title>src/js/directable/dotmatrix/shape/Shape.js</title>
<g id="a_node16"><a xlink:href="src/js/directable/dotmatrix/shape/Shape.js" xlink:title="Shape.js">
<path fill="#ffffcc" stroke="black" d="M1077.58,-597.25C1077.58,-597.25 1035.92,-597.25 1035.92,-597.25 1032.83,-597.25 1029.75,-594.17 1029.75,-591.08 1029.75,-591.08 1029.75,-584.92 1029.75,-584.92 1029.75,-581.83 1032.83,-578.75 1035.92,-578.75 1035.92,-578.75 1077.58,-578.75 1077.58,-578.75 1080.67,-578.75 1083.75,-581.83 1083.75,-584.92 1083.75,-584.92 1083.75,-591.08 1083.75,-591.08 1083.75,-594.17 1080.67,-597.25 1077.58,-597.25"/>
<text text-anchor="start" x="1038.75" y="-584.7" font-family="Helvetica,sans-Serif" font-size="9.00">Shape.js</text>
</a>
</g>
</g>
<!-- src/js/directable/dotmatrix/shape/fill/FillStrategyType.js -->
<g id="node18" class="node">
<title>src/js/directable/dotmatrix/shape/fill/FillStrategyType.js</title>
<g id="a_node18"><a xlink:href="src/js/directable/dotmatrix/shape/fill/FillStrategyType.js" xlink:title="FillStrategyType.js">
<path fill="#ffffcc" stroke="black" d="M1189.58,-655.25C1189.58,-655.25 1110.92,-655.25 1110.92,-655.25 1107.83,-655.25 1104.75,-652.17 1104.75,-649.08 1104.75,-649.08 1104.75,-642.92 1104.75,-642.92 1104.75,-639.83 1107.83,-636.75 1110.92,-636.75 1110.92,-636.75 1189.58,-636.75 1189.58,-636.75 1192.67,-636.75 1195.75,-639.83 1195.75,-642.92 1195.75,-642.92 1195.75,-649.08 1195.75,-649.08 1195.75,-652.17 1192.67,-655.25 1189.58,-655.25"/>
<text text-anchor="start" x="1112.75" y="-642.7" font-family="Helvetica,sans-Serif" font-size="9.00">FillStrategyType.js</text>
</a>
</g>
</g>
<!-- src/js/directable/dotmatrix/shape/ShapeManager.js&#45;&gt;src/js/directable/dotmatrix/shape/fill/FillStrategyType.js -->
<g id="edge10" class="edge">
<title>src/js/directable/dotmatrix/shape/ShapeManager.js&#45;&gt;src/js/directable/dotmatrix/shape/fill/FillStrategyType.js</title>
<path fill="none" stroke="#000000" stroke-width="2" stroke-opacity="0.200000" d="M841.9,-698.25C845.94,-696.19 849.6,-693.5 852.5,-690 869.41,-669.59 841.86,-589.84 860.5,-571 932.87,-497.83 1001.11,-510.26 1091.75,-559 1118.84,-573.57 1135.29,-607.11 1143.3,-628.03"/>
<polygon fill="#000000" fill-opacity="0.200000" stroke="#000000" stroke-width="2" stroke-opacity="0.200000" points="1141.28,-628.6 1145.28,-633.53 1145.23,-627.18 1141.28,-628.6"/>
</g>
<!-- src/js/directable/dotmatrix/shape/fill/FillType.js -->
<g id="node19" class="node">
<title>src/js/directable/dotmatrix/shape/fill/FillType.js</title>
<g id="a_node19"><a xlink:href="src/js/directable/dotmatrix/shape/fill/FillType.js" xlink:title="FillType.js">
<path fill="#ffffcc" stroke="black" d="M1172.71,-686.25C1172.71,-686.25 1127.79,-686.25 1127.79,-686.25 1124.71,-686.25 1121.62,-683.17 1121.62,-680.08 1121.62,-680.08 1121.62,-673.92 1121.62,-673.92 1121.62,-670.83 1124.71,-667.75 1127.79,-667.75 1127.79,-667.75 1172.71,-667.75 1172.71,-667.75 1175.79,-667.75 1178.88,-670.83 1178.88,-673.92 1178.88,-673.92 1178.88,-680.08 1178.88,-680.08 1178.88,-683.17 1175.79,-686.25 1172.71,-686.25"/>
<text text-anchor="start" x="1129.62" y="-673.7" font-family="Helvetica,sans-Serif" font-size="9.00">FillType.js</text>
</a>
</g>
</g>
<!-- src/js/directable/dotmatrix/shape/ShapeManager.js&#45;&gt;src/js/directable/dotmatrix/shape/fill/FillType.js -->
<g id="edge11" class="edge">
<title>src/js/directable/dotmatrix/shape/ShapeManager.js&#45;&gt;src/js/directable/dotmatrix/shape/fill/FillType.js</title>
<path fill="none" stroke="#000000" stroke-width="2" stroke-opacity="0.200000" d="M841.76,-698.13C845.83,-696.1 849.53,-693.45 852.5,-690 874.39,-664.61 838.78,-640.54 860.5,-615 906.25,-561.2 943.76,-582.42 1013.75,-573 1048.11,-568.38 1065.51,-550.35 1091.75,-573 1121.68,-598.83 1079.7,-630.41 1104.75,-661 1107.15,-663.93 1110.13,-666.32 1113.4,-668.28"/>
<polygon fill="#000000" fill-opacity="0.200000" stroke="#000000" stroke-width="2" stroke-opacity="0.200000" points="1112.38,-670.12 1118.7,-670.79 1114.18,-666.32 1112.38,-670.12"/>
</g>
<!-- src/js/directable/dotmatrix/shape/line/ShapeLineHorizontal.js -->
<g id="node20" class="node">
<title>src/js/directable/dotmatrix/shape/line/ShapeLineHorizontal.js</title>
<g id="a_node20"><a xlink:href="src/js/directable/dotmatrix/shape/line/ShapeLineHorizontal.js" xlink:title="ShapeLineHorizontal.js">
<path fill="#ffffcc" stroke="black" d="M982.96,-644.25C982.96,-644.25 883.29,-644.25 883.29,-644.25 880.21,-644.25 877.12,-641.17 877.12,-638.08 877.12,-638.08 877.12,-631.92 877.12,-631.92 877.12,-628.83 880.21,-625.75 883.29,-625.75 883.29,-625.75 982.96,-625.75 982.96,-625.75 986.04,-625.75 989.12,-628.83 989.12,-631.92 989.12,-631.92 989.12,-638.08 989.12,-638.08 989.12,-641.17 986.04,-644.25 982.96,-644.25"/>
<text text-anchor="start" x="885.12" y="-631.7" font-family="Helvetica,sans-Serif" font-size="9.00">ShapeLineHorizontal.js</text>
</a>
</g>
</g>
<!-- src/js/directable/dotmatrix/shape/ShapeManager.js&#45;&gt;src/js/directable/dotmatrix/shape/line/ShapeLineHorizontal.js -->
<g id="edge12" class="edge">
<title>src/js/directable/dotmatrix/shape/ShapeManager.js&#45;&gt;src/js/directable/dotmatrix/shape/line/ShapeLineHorizontal.js</title>
<path fill="none" stroke="#000000" stroke-width="2" stroke-opacity="0.200000" d="M841.96,-697.59C845.88,-695.64 849.5,-693.16 852.5,-690 864.69,-677.17 848.1,-663.62 860.5,-651 862.99,-648.47 865.79,-646.29 868.8,-644.43"/>
<polygon fill="#000000" fill-opacity="0.200000" stroke="#000000" stroke-width="2" stroke-opacity="0.200000" points="869.57,-646.4 873.96,-641.81 867.66,-642.66 869.57,-646.4"/>
</g>
<!-- src/js/directable/dotmatrix/shape/line/ShapeLineHorizontal.js&#45;&gt;src/js/directable/dotmatrix/shape/Shape.js -->
<g id="edge19" class="edge">
<title>src/js/directable/dotmatrix/shape/line/ShapeLineHorizontal.js&#45;&gt;src/js/directable/dotmatrix/shape/Shape.js</title>
<path fill="none" stroke="#000000" stroke-width="2" stroke-opacity="0.200000" d="M989.53,-630.41C995.34,-628.37 1000.9,-625.64 1005.75,-622 1012.11,-617.23 1007.97,-611.45 1013.75,-606 1016.14,-603.74 1018.86,-601.75 1021.74,-599.99"/>
<polygon fill="#000000" fill-opacity="0.200000" stroke="#000000" stroke-width="2" stroke-opacity="0.200000" points="1022.59,-601.91 1026.92,-597.26 1020.63,-598.19 1022.59,-601.91"/>
</g>
<!-- src/js/directable/dotmatrix/shape/line/ShapeLineHorizontal.js&#45;&gt;src/js/directable/dotmatrix/shape/fill/FillStrategyType.js -->
<g id="edge17" class="edge">
<title>src/js/directable/dotmatrix/shape/line/ShapeLineHorizontal.js&#45;&gt;src/js/directable/dotmatrix/shape/fill/FillStrategyType.js</title>
<path fill="none" stroke="#000000" stroke-width="2" stroke-opacity="0.200000" d="M989.33,-625.35C994.89,-624.27 1000.44,-623.14 1005.75,-622 1009.33,-621.23 1010.11,-620.45 1013.75,-620 1048.16,-615.76 1057.86,-612.69 1091.75,-620 1103.13,-622.45 1114.97,-627.35 1124.92,-632.24"/>
<polygon fill="#000000" fill-opacity="0.200000" stroke="#000000" stroke-width="2" stroke-opacity="0.200000" points="1123.81,-634.02 1130.1,-634.9 1125.73,-630.29 1123.81,-634.02"/>
</g>
<!-- src/js/directable/dotmatrix/shape/line/ShapeLineHorizontal.js&#45;&gt;src/js/directable/dotmatrix/shape/fill/FillType.js -->
<g id="edge18" class="edge">
<title>src/js/directable/dotmatrix/shape/line/ShapeLineHorizontal.js&#45;&gt;src/js/directable/dotmatrix/shape/fill/FillType.js</title>
<path fill="none" stroke="#000000" stroke-width="2" stroke-opacity="0.200000" d="M989.58,-627.07C1028.12,-622.77 1075.39,-620.26 1091.75,-631 1103.9,-638.98 1094.15,-651.06 1104.75,-661 1107.3,-663.4 1110.24,-665.44 1113.37,-667.18"/>
<polygon fill="#000000" fill-opacity="0.200000" stroke="#000000" stroke-width="2" stroke-opacity="0.200000" points="1112.33,-669.01 1118.65,-669.63 1114.1,-665.2 1112.33,-669.01"/>
</g>
<!-- src/js/directable/dotmatrix/shape/fill/Fill.js -->
<g id="node21" class="node">
<title>src/js/directable/dotmatrix/shape/fill/Fill.js</title>
<g id="a_node21"><a xlink:href="src/js/directable/dotmatrix/shape/fill/Fill.js" xlink:title="Fill.js">
<path fill="#ffffcc" stroke="black" d="M1077.58,-686.25C1077.58,-686.25 1035.92,-686.25 1035.92,-686.25 1032.83,-686.25 1029.75,-683.17 1029.75,-680.08 1029.75,-680.08 1029.75,-673.92 1029.75,-673.92 1029.75,-670.83 1032.83,-667.75 1035.92,-667.75 1035.92,-667.75 1077.58,-667.75 1077.58,-667.75 1080.67,-667.75 1083.75,-670.83 1083.75,-673.92 1083.75,-673.92 1083.75,-680.08 1083.75,-680.08 1083.75,-683.17 1080.67,-686.25 1077.58,-686.25"/>
<text text-anchor="start" x="1046.25" y="-673.7" font-family="Helvetica,sans-Serif" font-size="9.00">Fill.js</text>
</a>
</g>
</g>
<!-- src/js/directable/dotmatrix/shape/line/ShapeLineHorizontal.js&#45;&gt;src/js/directable/dotmatrix/shape/fill/Fill.js -->
<g id="edge15" class="edge">
<title>src/js/directable/dotmatrix/shape/line/ShapeLineHorizontal.js&#45;&gt;src/js/directable/dotmatrix/shape/fill/Fill.js</title>
<path fill="none" stroke="#000000" stroke-width="2" stroke-opacity="0.200000" d="M989.61,-643.37C995.28,-645.39 1000.78,-647.9 1005.75,-651 1010.58,-654.01 1009.15,-657.65 1013.75,-661 1016.08,-662.7 1018.62,-664.24 1021.25,-665.64"/>
<polygon fill="#000000" fill-opacity="0.200000" stroke="#000000" stroke-width="2" stroke-opacity="0.200000" points="1020.25,-667.49 1026.58,-668.12 1022.02,-663.68 1020.25,-667.49"/>
</g>
<!-- src/js/directable/dotmatrix/shape/fill/FillStrategy.js -->
<g id="node22" class="node">
<title>src/js/directable/dotmatrix/shape/fill/FillStrategy.js</title>
<g id="a_node22"><a xlink:href="src/js/directable/dotmatrix/shape/fill/FillStrategy.js" xlink:title="FillStrategy.js">
<path fill="#ffffcc" stroke="black" d="M1085.58,-655.25C1085.58,-655.25 1027.92,-655.25 1027.92,-655.25 1024.83,-655.25 1021.75,-652.17 1021.75,-649.08 1021.75,-649.08 1021.75,-642.92 1021.75,-642.92 1021.75,-639.83 1024.83,-636.75 1027.92,-636.75 1027.92,-636.75 1085.58,-636.75 1085.58,-636.75 1088.67,-636.75 1091.75,-639.83 1091.75,-642.92 1091.75,-642.92 1091.75,-649.08 1091.75,-649.08 1091.75,-652.17 1088.67,-655.25 1085.58,-655.25"/>
<text text-anchor="start" x="1029.75" y="-642.7" font-family="Helvetica,sans-Serif" font-size="9.00">FillStrategy.js</text>
</a>
</g>
</g>
<!-- src/js/directable/dotmatrix/shape/line/ShapeLineHorizontal.js&#45;&gt;src/js/directable/dotmatrix/shape/fill/FillStrategy.js -->
<g id="edge16" class="edge">
<title>src/js/directable/dotmatrix/shape/line/ShapeLineHorizontal.js&#45;&gt;src/js/directable/dotmatrix/shape/fill/FillStrategy.js</title>
<path fill="none" stroke="#000000" stroke-width="2" stroke-opacity="0.200000" d="M989.6,-640.02C997.43,-640.73 1005.39,-641.45 1012.94,-642.13"/>
<polygon fill="#000000" fill-opacity="0.200000" stroke="#000000" stroke-width="2" stroke-opacity="0.200000" points="1012.4,-644.19 1018.56,-642.64 1012.78,-640 1012.4,-644.19"/>
</g>
<!-- src/js/directable/dotmatrix/shape/fill/Fill.js&#45;&gt;src/js/directable/dotmatrix/shape/fill/FillType.js -->
<g id="edge13" class="edge">
<title>src/js/directable/dotmatrix/shape/fill/Fill.js&#45;&gt;src/js/directable/dotmatrix/shape/fill/FillType.js</title>
<path fill="none" stroke="#000000" stroke-width="2" stroke-opacity="0.200000" d="M1084.22,-677C1093.02,-677 1102.98,-677 1112.42,-677"/>
<polygon fill="#000000" fill-opacity="0.200000" stroke="#000000" stroke-width="2" stroke-opacity="0.200000" points="1112.22,-679.1 1118.22,-677 1112.22,-674.9 1112.22,-679.1"/>
</g>
<!-- src/js/directable/dotmatrix/shape/fill/FillStrategy.js&#45;&gt;src/js/directable/dotmatrix/shape/fill/FillStrategyType.js -->
<g id="edge14" class="edge">
<title>src/js/directable/dotmatrix/shape/fill/FillStrategy.js&#45;&gt;src/js/directable/dotmatrix/shape/fill/FillStrategyType.js</title>
<path fill="none" stroke="#000000" stroke-width="2" stroke-opacity="0.200000" d="M1092.08,-646C1093.22,-646 1094.37,-646 1095.53,-646"/>
<polygon fill="#000000" fill-opacity="0.200000" stroke="#000000" stroke-width="2" stroke-opacity="0.200000" points="1095.47,-648.1 1101.47,-646 1095.47,-643.9 1095.47,-648.1"/>
</g>
<!-- src/js/directable/dotmatrix/shape/glyph/ShapeGlyph_A.js -->
<g id="node23" class="node">
<title>src/js/directable/dotmatrix/shape/glyph/ShapeGlyph_A.js</title>
<g id="a_node23"><a xlink:href="src/js/directable/dotmatrix/shape/glyph/ShapeGlyph_A.js" xlink:title="ShapeGlyph_A.js">
<path fill="#ccffcc" stroke="black" d="M834.96,-289.25C834.96,-289.25 760.04,-289.25 760.04,-289.25 756.96,-289.25 753.88,-286.17 753.88,-283.08 753.88,-283.08 753.88,-276.92 753.88,-276.92 753.88,-273.83 756.96,-270.75 760.04,-270.75 760.04,-270.75 834.96,-270.75 834.96,-270.75 838.04,-270.75 841.12,-273.83 841.12,-276.92 841.12,-276.92 841.12,-283.08 841.12,-283.08 841.12,-286.17 838.04,-289.25 834.96,-289.25"/>
<text text-anchor="start" x="761.88" y="-276.7" font-family="Helvetica,sans-Serif" font-size="9.00">ShapeGlyph_A.js</text>
</a>
</g>
</g>
<!-- src/js/directable/dotmatrix/shape/glyph/ShapeGlyph_B.js -->
<g id="node24" class="node">
<title>src/js/directable/dotmatrix/shape/glyph/ShapeGlyph_B.js</title>
<g id="a_node24"><a xlink:href="src/js/directable/dotmatrix/shape/glyph/ShapeGlyph_B.js" xlink:title="ShapeGlyph_B.js">
<path fill="#ccffcc" stroke="black" d="M834.96,-320.25C834.96,-320.25 760.04,-320.25 760.04,-320.25 756.96,-320.25 753.88,-317.17 753.88,-314.08 753.88,-314.08 753.88,-307.92 753.88,-307.92 753.88,-304.83 756.96,-301.75 760.04,-301.75 760.04,-301.75 834.96,-301.75 834.96,-301.75 838.04,-301.75 841.12,-304.83 841.12,-307.92 841.12,-307.92 841.12,-314.08 841.12,-314.08 841.12,-317.17 838.04,-320.25 834.96,-320.25"/>
<text text-anchor="start" x="761.88" y="-307.7" font-family="Helvetica,sans-Serif" font-size="9.00">ShapeGlyph_B.js</text>
</a>
</g>
</g>
<!-- src/js/directable/dotmatrix/shape/glyph/ShapeGlyph_C.js -->
<g id="node25" class="node">
<title>src/js/directable/dotmatrix/shape/glyph/ShapeGlyph_C.js</title>
<g id="a_node25"><a xlink:href="src/js/directable/dotmatrix/shape/glyph/ShapeGlyph_C.js" xlink:title="ShapeGlyph_C.js">
<path fill="#ccffcc" stroke="black" d="M835.33,-351.25C835.33,-351.25 759.67,-351.25 759.67,-351.25 756.58,-351.25 753.5,-348.17 753.5,-345.08 753.5,-345.08 753.5,-338.92 753.5,-338.92 753.5,-335.83 756.58,-332.75 759.67,-332.75 759.67,-332.75 835.33,-332.75 835.33,-332.75 838.42,-332.75 841.5,-335.83 841.5,-338.92 841.5,-338.92 841.5,-345.08 841.5,-345.08 841.5,-348.17 838.42,-351.25 835.33,-351.25"/>
<text text-anchor="start" x="761.5" y="-338.7" font-family="Helvetica,sans-Serif" font-size="9.00">ShapeGlyph_C.js</text>
</a>
</g>
</g>
<!-- src/js/directable/dotmatrix/shape/glyph/ShapeGlyph_D.js -->
<g id="node26" class="node">
<title>src/js/directable/dotmatrix/shape/glyph/ShapeGlyph_D.js</title>
<g id="a_node26"><a xlink:href="src/js/directable/dotmatrix/shape/glyph/ShapeGlyph_D.js" xlink:title="ShapeGlyph_D.js">
<path fill="#ccffcc" stroke="black" d="M835.33,-382.25C835.33,-382.25 759.67,-382.25 759.67,-382.25 756.58,-382.25 753.5,-379.17 753.5,-376.08 753.5,-376.08 753.5,-369.92 753.5,-369.92 753.5,-366.83 756.58,-363.75 759.67,-363.75 759.67,-363.75 835.33,-363.75 835.33,-363.75 838.42,-363.75 841.5,-366.83 841.5,-369.92 841.5,-369.92 841.5,-376.08 841.5,-376.08 841.5,-379.17 838.42,-382.25 835.33,-382.25"/>
<text text-anchor="start" x="761.5" y="-369.7" font-family="Helvetica,sans-Serif" font-size="9.00">ShapeGlyph_D.js</text>
</a>
</g>
</g>
<!-- src/js/directable/dotmatrix/shape/glyph/ShapeGlyph_E.js -->
<g id="node27" class="node">
<title>src/js/directable/dotmatrix/shape/glyph/ShapeGlyph_E.js</title>
<g id="a_node27"><a xlink:href="src/js/directable/dotmatrix/shape/glyph/ShapeGlyph_E.js" xlink:title="ShapeGlyph_E.js">
<path fill="#ccffcc" stroke="black" d="M834.96,-413.25C834.96,-413.25 760.04,-413.25 760.04,-413.25 756.96,-413.25 753.88,-410.17 753.88,-407.08 753.88,-407.08 753.88,-400.92 753.88,-400.92 753.88,-397.83 756.96,-394.75 760.04,-394.75 760.04,-394.75 834.96,-394.75 834.96,-394.75 838.04,-394.75 841.12,-397.83 841.12,-400.92 841.12,-400.92 841.12,-407.08 841.12,-407.08 841.12,-410.17 838.04,-413.25 834.96,-413.25"/>
<text text-anchor="start" x="761.88" y="-400.7" font-family="Helvetica,sans-Serif" font-size="9.00">ShapeGlyph_E.js</text>
</a>
</g>
</g>
<!-- src/js/directable/dotmatrix/shape/glyph/ShapeGlyph_F.js -->
<g id="node28" class="node">
<title>src/js/directable/dotmatrix/shape/glyph/ShapeGlyph_F.js</title>
<g id="a_node28"><a xlink:href="src/js/directable/dotmatrix/shape/glyph/ShapeGlyph_F.js" xlink:title="ShapeGlyph_F.js">
<path fill="#ccffcc" stroke="black" d="M834.21,-444.25C834.21,-444.25 760.79,-444.25 760.79,-444.25 757.71,-444.25 754.62,-441.17 754.62,-438.08 754.62,-438.08 754.62,-431.92 754.62,-431.92 754.62,-428.83 757.71,-425.75 760.79,-425.75 760.79,-425.75 834.21,-425.75 834.21,-425.75 837.29,-425.75 840.38,-428.83 840.38,-431.92 840.38,-431.92 840.38,-438.08 840.38,-438.08 840.38,-441.17 837.29,-444.25 834.21,-444.25"/>
<text text-anchor="start" x="762.62" y="-431.7" font-family="Helvetica,sans-Serif" font-size="9.00">ShapeGlyph_F.js</text>
</a>
</g>
</g>
<!-- src/js/directable/dotmatrix/shape/glyph/ShapeGlyph_G.js -->
<g id="node29" class="node">
<title>src/js/directable/dotmatrix/shape/glyph/ShapeGlyph_G.js</title>
<g id="a_node29"><a xlink:href="src/js/directable/dotmatrix/shape/glyph/ShapeGlyph_G.js" xlink:title="ShapeGlyph_G.js">
<path fill="#ccffcc" stroke="black" d="M835.33,-475.25C835.33,-475.25 759.67,-475.25 759.67,-475.25 756.58,-475.25 753.5,-472.17 753.5,-469.08 753.5,-469.08 753.5,-462.92 753.5,-462.92 753.5,-459.83 756.58,-456.75 759.67,-456.75 759.67,-456.75 835.33,-456.75 835.33,-456.75 838.42,-456.75 841.5,-459.83 841.5,-462.92 841.5,-462.92 841.5,-469.08 841.5,-469.08 841.5,-472.17 838.42,-475.25 835.33,-475.25"/>
<text text-anchor="start" x="761.5" y="-462.7" font-family="Helvetica,sans-Serif" font-size="9.00">ShapeGlyph_G.js</text>
</a>
</g>
</g>
<!-- src/js/directable/dotmatrix/shape/glyph/ShapeGlyph_H.js -->
<g id="node30" class="node">
<title>src/js/directable/dotmatrix/shape/glyph/ShapeGlyph_H.js</title>
<g id="a_node30"><a xlink:href="src/js/directable/dotmatrix/shape/glyph/ShapeGlyph_H.js" xlink:title="ShapeGlyph_H.js">
<path fill="#ccffcc" stroke="black" d="M835.33,-506.25C835.33,-506.25 759.67,-506.25 759.67,-506.25 756.58,-506.25 753.5,-503.17 753.5,-500.08 753.5,-500.08 753.5,-493.92 753.5,-493.92 753.5,-490.83 756.58,-487.75 759.67,-487.75 759.67,-487.75 835.33,-487.75 835.33,-487.75 838.42,-487.75 841.5,-490.83 841.5,-493.92 841.5,-493.92 841.5,-500.08 841.5,-500.08 841.5,-503.17 838.42,-506.25 835.33,-506.25"/>
<text text-anchor="start" x="761.5" y="-493.7" font-family="Helvetica,sans-Serif" font-size="9.00">ShapeGlyph_H.js</text>
</a>
</g>
</g>
<!-- src/js/directable/dotmatrix/shape/glyph/ShapeGlyph_I.js -->
<g id="node31" class="node">
<title>src/js/directable/dotmatrix/shape/glyph/ShapeGlyph_I.js</title>
<g id="a_node31"><a xlink:href="src/js/directable/dotmatrix/shape/glyph/ShapeGlyph_I.js" xlink:title="ShapeGlyph_I.js">
<path fill="#ccffcc" stroke="black" d="M833.08,-537.25C833.08,-537.25 761.92,-537.25 761.92,-537.25 758.83,-537.25 755.75,-534.17 755.75,-531.08 755.75,-531.08 755.75,-524.92 755.75,-524.92 755.75,-521.83 758.83,-518.75 761.92,-518.75 761.92,-518.75 833.08,-518.75 833.08,-518.75 836.17,-518.75 839.25,-521.83 839.25,-524.92 839.25,-524.92 839.25,-531.08 839.25,-531.08 839.25,-534.17 836.17,-537.25 833.08,-537.25"/>
<text text-anchor="start" x="763.75" y="-524.7" font-family="Helvetica,sans-Serif" font-size="9.00">ShapeGlyph_I.js</text>
</a>
</g>
</g>
<!-- src/js/directable/dotmatrix/shape/glyph/ShapeGlyph_J.js -->
<g id="node32" class="node">
<title>src/js/directable/dotmatrix/shape/glyph/ShapeGlyph_J.js</title>
<g id="a_node32"><a xlink:href="src/js/directable/dotmatrix/shape/glyph/ShapeGlyph_J.js" xlink:title="ShapeGlyph_J.js">
<path fill="#ccffcc" stroke="black" d="M834.21,-568.25C834.21,-568.25 760.79,-568.25 760.79,-568.25 757.71,-568.25 754.62,-565.17 754.62,-562.08 754.62,-562.08 754.62,-555.92 754.62,-555.92 754.62,-552.83 757.71,-549.75 760.79,-549.75 760.79,-549.75 834.21,-549.75 834.21,-549.75 837.29,-549.75 840.38,-552.83 840.38,-555.92 840.38,-555.92 840.38,-562.08 840.38,-562.08 840.38,-565.17 837.29,-568.25 834.21,-568.25"/>
<text text-anchor="start" x="762.62" y="-555.7" font-family="Helvetica,sans-Serif" font-size="9.00">ShapeGlyph_J.js</text>
</a>
</g>
</g>
<!-- src/js/directable/dotmatrix/shape/glyph/ShapeGlyph_K.js -->
<g id="node33" class="node">
<title>src/js/directable/dotmatrix/shape/glyph/ShapeGlyph_K.js</title>
<g id="a_node33"><a xlink:href="src/js/directable/dotmatrix/shape/glyph/ShapeGlyph_K.js" xlink:title="ShapeGlyph_K.js">
<path fill="#ccffcc" stroke="black" d="M834.96,-599.25C834.96,-599.25 760.04,-599.25 760.04,-599.25 756.96,-599.25 753.88,-596.17 753.88,-593.08 753.88,-593.08 753.88,-586.92 753.88,-586.92 753.88,-583.83 756.96,-580.75 760.04,-580.75 760.04,-580.75 834.96,-580.75 834.96,-580.75 838.04,-580.75 841.12,-583.83 841.12,-586.92 841.12,-586.92 841.12,-593.08 841.12,-593.08 841.12,-596.17 838.04,-599.25 834.96,-599.25"/>
<text text-anchor="start" x="761.88" y="-586.7" font-family="Helvetica,sans-Serif" font-size="9.00">ShapeGlyph_K.js</text>
</a>
</g>
</g>
<!-- src/js/directable/dotmatrix/shape/line/ShapeLineVertical.js -->
<g id="node34" class="node">
<title>src/js/directable/dotmatrix/shape/line/ShapeLineVertical.js</title>
<g id="a_node34"><a xlink:href="src/js/directable/dotmatrix/shape/line/ShapeLineVertical.js" xlink:title="ShapeLineVertical.js">
<path fill="#ccffcc" stroke="black" d="M976.96,-675.25C976.96,-675.25 889.29,-675.25 889.29,-675.25 886.21,-675.25 883.12,-672.17 883.12,-669.08 883.12,-669.08 883.12,-662.92 883.12,-662.92 883.12,-659.83 886.21,-656.75 889.29,-656.75 889.29,-656.75 976.96,-656.75 976.96,-656.75 980.04,-656.75 983.12,-659.83 983.12,-662.92 983.12,-662.92 983.12,-669.08 983.12,-669.08 983.12,-672.17 980.04,-675.25 976.96,-675.25"/>
<text text-anchor="start" x="891.12" y="-662.7" font-family="Helvetica,sans-Serif" font-size="9.00">ShapeLineVertical.js</text>
</a>
</g>
</g>
<!-- src/js/directable/dotmatrix/shape/primative/ShapeRectangle.js -->
<g id="node35" class="node">
<title>src/js/directable/dotmatrix/shape/primative/ShapeRectangle.js</title>
<g id="a_node35"><a xlink:href="src/js/directable/dotmatrix/shape/primative/ShapeRectangle.js" xlink:title="ShapeRectangle.js">
<path fill="#ccffcc" stroke="black" d="M838.33,-660.25C838.33,-660.25 756.67,-660.25 756.67,-660.25 753.58,-660.25 750.5,-657.17 750.5,-654.08 750.5,-654.08 750.5,-647.92 750.5,-647.92 750.5,-644.83 753.58,-641.75 756.67,-641.75 756.67,-641.75 838.33,-641.75 838.33,-641.75 841.42,-641.75 844.5,-644.83 844.5,-647.92 844.5,-647.92 844.5,-654.08 844.5,-654.08 844.5,-657.17 841.42,-660.25 838.33,-660.25"/>
<text text-anchor="start" x="758.5" y="-647.7" font-family="Helvetica,sans-Serif" font-size="9.00">ShapeRectangle.js</text>
</a>
</g>
</g>
<!-- src/js/directable/dotmatrix/view/View.js -->
<g id="node36" class="node">
<title>src/js/directable/dotmatrix/view/View.js</title>
<g id="a_node36"><a xlink:href="src/js/directable/dotmatrix/view/View.js" xlink:title="View.js">
<path fill="#ffffcc" stroke="black" d="M689.71,-97.25C689.71,-97.25 648.04,-97.25 648.04,-97.25 644.96,-97.25 641.88,-94.17 641.88,-91.08 641.88,-91.08 641.88,-84.92 641.88,-84.92 641.88,-81.83 644.96,-78.75 648.04,-78.75 648.04,-78.75 689.71,-78.75 689.71,-78.75 692.79,-78.75 695.88,-81.83 695.88,-84.92 695.88,-84.92 695.88,-91.08 695.88,-91.08 695.88,-94.17 692.79,-97.25 689.71,-97.25"/>
<text text-anchor="start" x="654.62" y="-84.7" font-family="Helvetica,sans-Serif" font-size="9.00">View.js</text>
</a>
</g>
</g>
<!-- src/js/directable/dotmatrix/view/ViewFloor.js -->
<g id="node37" class="node">
<title>src/js/directable/dotmatrix/view/ViewFloor.js</title>
<g id="a_node37"><a xlink:href="src/js/directable/dotmatrix/view/ViewFloor.js" xlink:title="ViewFloor.js">
<path fill="#ccffcc" stroke="black" d="M695.46,-128.25C695.46,-128.25 642.29,-128.25 642.29,-128.25 639.21,-128.25 636.12,-125.17 636.12,-122.08 636.12,-122.08 636.12,-115.92 636.12,-115.92 636.12,-112.83 639.21,-109.75 642.29,-109.75 642.29,-109.75 695.46,-109.75 695.46,-109.75 698.54,-109.75 701.62,-112.83 701.62,-115.92 701.62,-115.92 701.62,-122.08 701.62,-122.08 701.62,-125.17 698.54,-128.25 695.46,-128.25"/>
<text text-anchor="start" x="644.12" y="-115.7" font-family="Helvetica,sans-Serif" font-size="9.00">ViewFloor.js</text>
</a>
</g>
</g>
<!-- src/js/directable/dotmatrix/view/ViewTest.js&#45;&gt;src/js/directable/dotmatrix/grid/GridData.js -->
<g id="edge24" class="edge">
<title>src/js/directable/dotmatrix/view/ViewTest.js&#45;&gt;src/js/directable/dotmatrix/grid/GridData.js</title>
<path fill="none" stroke="#000000" stroke-width="2" stroke-opacity="0.200000" d="M828.82,-66.35C847.87,-70.35 872.63,-75.53 893.13,-79.83"/>
<polygon fill="#000000" fill-opacity="0.200000" stroke="#000000" stroke-width="2" stroke-opacity="0.200000" points="892.66,-81.88 898.96,-81.05 893.52,-77.76 892.66,-81.88"/>
</g>
<!-- src/js/directable/dotmatrix/view/ViewTest.js&#45;&gt;src/js/directable/dotmatrix/shape/fill/FillStrategyType.js -->
<g id="edge25" class="edge">
<title>src/js/directable/dotmatrix/view/ViewTest.js&#45;&gt;src/js/directable/dotmatrix/shape/fill/FillStrategyType.js</title>
<path fill="none" stroke="#000000" stroke-width="2" stroke-opacity="0.200000" d="M822.38,-50.4C877.71,-29.89 1015.76,10.92 1091.75,-58 1135.04,-97.27 1146.83,-532.75 1148.89,-627.76"/>
<polygon fill="#000000" fill-opacity="0.200000" stroke="#000000" stroke-width="2" stroke-opacity="0.200000" points="1146.78,-627.56 1149.01,-633.51 1150.98,-627.47 1146.78,-627.56"/>
</g>
<!-- src/js/directable/dotmatrix/view/ViewTest.js&#45;&gt;src/js/directable/dotmatrix/shape/fill/FillType.js -->
<g id="edge26" class="edge">
<title>src/js/directable/dotmatrix/view/ViewTest.js&#45;&gt;src/js/directable/dotmatrix/shape/fill/FillType.js</title>
<path fill="none" stroke="#000000" stroke-width="2" stroke-opacity="0.200000" d="M828.53,-52.14C871.67,-42.7 951.9,-32.25 1005.75,-68 1080.95,-117.93 1070.78,-164.2 1091.75,-252 1097.03,-274.11 1091.38,-642.61 1104.75,-661 1107.09,-664.22 1110.15,-666.8 1113.57,-668.86"/>
<polygon fill="#000000" fill-opacity="0.200000" stroke="#000000" stroke-width="2" stroke-opacity="0.200000" points="1112.41,-670.64 1118.73,-671.3 1114.2,-666.84 1112.41,-670.64"/>
</g>
<!-- src/js/directable/dotmatrix/view/ViewTextTest.js -->
<g id="node39" class="node">
<title>src/js/directable/dotmatrix/view/ViewTextTest.js</title>
<g id="a_node39"><a xlink:href="src/js/directable/dotmatrix/view/ViewTextTest.js" xlink:title="ViewTextTest.js">
<path fill="#ccffcc" stroke="black" d="M701.83,-159.25C701.83,-159.25 635.92,-159.25 635.92,-159.25 632.83,-159.25 629.75,-156.17 629.75,-153.08 629.75,-153.08 629.75,-146.92 629.75,-146.92 629.75,-143.83 632.83,-140.75 635.92,-140.75 635.92,-140.75 701.83,-140.75 701.83,-140.75 704.92,-140.75 708,-143.83 708,-146.92 708,-146.92 708,-153.08 708,-153.08 708,-156.17 704.92,-159.25 701.83,-159.25"/>
<text text-anchor="start" x="637.75" y="-146.7" font-family="Helvetica,sans-Serif" font-size="9.00">ViewTextTest.js</text>
</a>
</g>
</g>
<!-- src/js/directable/frame/DirectableFrame.js -->
<g id="node40" class="node">
<title>src/js/directable/frame/DirectableFrame.js</title>
<g id="a_node40"><a xlink:href="src/js/directable/frame/DirectableFrame.js" xlink:title="DirectableFrame.js">
<path fill="#ffffcc" stroke="black" d="M563.71,-801.25C563.71,-801.25 482.79,-801.25 482.79,-801.25 479.71,-801.25 476.62,-798.17 476.62,-795.08 476.62,-795.08 476.62,-788.92 476.62,-788.92 476.62,-785.83 479.71,-782.75 482.79,-782.75 482.79,-782.75 563.71,-782.75 563.71,-782.75 566.79,-782.75 569.88,-785.83 569.88,-788.92 569.88,-788.92 569.88,-795.08 569.88,-795.08 569.88,-798.17 566.79,-801.25 563.71,-801.25"/>
<text text-anchor="start" x="484.62" y="-788.7" font-family="Helvetica,sans-Serif" font-size="9.00">DirectableFrame.js</text>
</a>
</g>
</g>
<!-- src/js/directable/rhythm/DirectableRhythm.js -->
<g id="node41" class="node">
<title>src/js/directable/rhythm/DirectableRhythm.js</title>
<g id="a_node41"><a xlink:href="src/js/directable/rhythm/DirectableRhythm.js" xlink:title="DirectableRhythm.js">
<path fill="#ffffcc" stroke="black" d="M711.96,-993.25C711.96,-993.25 625.79,-993.25 625.79,-993.25 622.71,-993.25 619.62,-990.17 619.62,-987.08 619.62,-987.08 619.62,-980.92 619.62,-980.92 619.62,-977.83 622.71,-974.75 625.79,-974.75 625.79,-974.75 711.96,-974.75 711.96,-974.75 715.04,-974.75 718.12,-977.83 718.12,-980.92 718.12,-980.92 718.12,-987.08 718.12,-987.08 718.12,-990.17 715.04,-993.25 711.96,-993.25"/>
<text text-anchor="start" x="627.62" y="-980.7" font-family="Helvetica,sans-Serif" font-size="9.00">DirectableRhythm.js</text>
</a>
</g>
</g>
<!-- src/js/directable/rhythm/asdr/ASDRData.js -->
<g id="node42" class="node">
<title>src/js/directable/rhythm/asdr/ASDRData.js</title>
<g id="a_node42"><a xlink:href="src/js/directable/rhythm/asdr/ASDRData.js" xlink:title="ASDRData.js">
<path fill="#ccffcc" stroke="black" d="M552.08,-870.25C552.08,-870.25 494.42,-870.25 494.42,-870.25 491.33,-870.25 488.25,-867.17 488.25,-864.08 488.25,-864.08 488.25,-857.92 488.25,-857.92 488.25,-854.83 491.33,-851.75 494.42,-851.75 494.42,-851.75 552.08,-851.75 552.08,-851.75 555.17,-851.75 558.25,-854.83 558.25,-857.92 558.25,-857.92 558.25,-864.08 558.25,-864.08 558.25,-867.17 555.17,-870.25 552.08,-870.25"/>
<text text-anchor="start" x="496.25" y="-857.7" font-family="Helvetica,sans-Serif" font-size="9.00">ASDRData.js</text>
</a>
</g>
</g>
<!-- src/js/directable/rhythm/asdr/ASDREnvelope.js -->
<g id="node43" class="node">
<title>src/js/directable/rhythm/asdr/ASDREnvelope.js</title>
<g id="a_node43"><a xlink:href="src/js/directable/rhythm/asdr/ASDREnvelope.js" xlink:title="ASDREnvelope.js">
<path fill="#ffffcc" stroke="black" d="M561.83,-901.25C561.83,-901.25 484.67,-901.25 484.67,-901.25 481.58,-901.25 478.5,-898.17 478.5,-895.08 478.5,-895.08 478.5,-888.92 478.5,-888.92 478.5,-885.83 481.58,-882.75 484.67,-882.75 484.67,-882.75 561.83,-882.75 561.83,-882.75 564.92,-882.75 568,-885.83 568,-888.92 568,-888.92 568,-895.08 568,-895.08 568,-898.17 564.92,-901.25 561.83,-901.25"/>
<text text-anchor="start" x="486.5" y="-888.7" font-family="Helvetica,sans-Serif" font-size="9.00">ASDREnvelope.js</text>
</a>
</g>
</g>
<!-- src/js/directable/rhythm/asdr/DirectableRhythmASDRManager.js -->
<g id="node44" class="node">
<title>src/js/directable/rhythm/asdr/DirectableRhythmASDRManager.js</title>
<g id="a_node44"><a xlink:href="src/js/directable/rhythm/asdr/DirectableRhythmASDRManager.js" xlink:title="DirectableRhythmASDRManager.js">
<path fill="#ffffcc" stroke="black" d="M597.08,-932.25C597.08,-932.25 449.42,-932.25 449.42,-932.25 446.33,-932.25 443.25,-929.17 443.25,-926.08 443.25,-926.08 443.25,-919.92 443.25,-919.92 443.25,-916.83 446.33,-913.75 449.42,-913.75 449.42,-913.75 597.08,-913.75 597.08,-913.75 600.17,-913.75 603.25,-916.83 603.25,-919.92 603.25,-919.92 603.25,-926.08 603.25,-926.08 603.25,-929.17 600.17,-932.25 597.08,-932.25"/>
<text text-anchor="start" x="451.25" y="-919.7" font-family="Helvetica,sans-Serif" font-size="9.00">DirectableRhythmASDRManager.js</text>
</a>
</g>
</g>
<!-- src/js/directable/rhythm/bpm/DirectableRhythmBPM.js -->
<g id="node45" class="node">
<title>src/js/directable/rhythm/bpm/DirectableRhythmBPM.js</title>
<g id="a_node45"><a xlink:href="src/js/directable/rhythm/bpm/DirectableRhythmBPM.js" xlink:title="DirectableRhythmBPM.js">
<path fill="#ffffcc" stroke="black" d="M576.08,-993.25C576.08,-993.25 470.42,-993.25 470.42,-993.25 467.33,-993.25 464.25,-990.17 464.25,-987.08 464.25,-987.08 464.25,-980.92 464.25,-980.92 464.25,-977.83 467.33,-974.75 470.42,-974.75 470.42,-974.75 576.08,-974.75 576.08,-974.75 579.17,-974.75 582.25,-977.83 582.25,-980.92 582.25,-980.92 582.25,-987.08 582.25,-987.08 582.25,-990.17 579.17,-993.25 576.08,-993.25"/>
<text text-anchor="start" x="472.25" y="-980.7" font-family="Helvetica,sans-Serif" font-size="9.00">DirectableRhythmBPM.js</text>
</a>
</g>
</g>
<!-- src/js/directable/rhythm/bpm/DirectableRhythmBPM.js&#45;&gt;src/js/directable/rhythm/DirectableRhythm.js -->
<g id="edge27" class="edge">
<title>src/js/directable/rhythm/bpm/DirectableRhythmBPM.js&#45;&gt;src/js/directable/rhythm/DirectableRhythm.js</title>
<path fill="none" stroke="#000000" stroke-width="2" stroke-opacity="0.200000" d="M582.67,-984C591.75,-984 601.14,-984 610.21,-984"/>
<polygon fill="#000000" fill-opacity="0.200000" stroke="#000000" stroke-width="2" stroke-opacity="0.200000" points="610.12,-986.1 616.12,-984 610.12,-981.9 610.12,-986.1"/>
</g>
<!-- src/js/directable/rhythm2/ViewRhythm.js -->
<g id="node46" class="node">
<title>src/js/directable/rhythm2/ViewRhythm.js</title>
<g id="a_node46"><a xlink:href="src/js/directable/rhythm2/ViewRhythm.js" xlink:title="ViewRhythm.js">
<path fill="#ffffcc" stroke="black" d="M555.46,-1081.25C555.46,-1081.25 491.04,-1081.25 491.04,-1081.25 487.96,-1081.25 484.88,-1078.17 484.88,-1075.08 484.88,-1075.08 484.88,-1068.92 484.88,-1068.92 484.88,-1065.83 487.96,-1062.75 491.04,-1062.75 491.04,-1062.75 555.46,-1062.75 555.46,-1062.75 558.54,-1062.75 561.62,-1065.83 561.62,-1068.92 561.62,-1068.92 561.62,-1075.08 561.62,-1075.08 561.62,-1078.17 558.54,-1081.25 555.46,-1081.25"/>
<text text-anchor="start" x="492.88" y="-1068.7" font-family="Helvetica,sans-Serif" font-size="9.00">ViewRhythm.js</text>
</a>
</g>
</g>
<!-- src/js/directable/rhythm2/ViewRhythmTrack.js -->
<g id="node47" class="node">
<title>src/js/directable/rhythm2/ViewRhythmTrack.js</title>
<g id="a_node47"><a xlink:href="src/js/directable/rhythm2/ViewRhythmTrack.js" xlink:title="ViewRhythmTrack.js">
<path fill="#ffffcc" stroke="black" d="M712.33,-1081.25C712.33,-1081.25 625.42,-1081.25 625.42,-1081.25 622.33,-1081.25 619.25,-1078.17 619.25,-1075.08 619.25,-1075.08 619.25,-1068.92 619.25,-1068.92 619.25,-1065.83 622.33,-1062.75 625.42,-1062.75 625.42,-1062.75 712.33,-1062.75 712.33,-1062.75 715.42,-1062.75 718.5,-1065.83 718.5,-1068.92 718.5,-1068.92 718.5,-1075.08 718.5,-1075.08 718.5,-1078.17 715.42,-1081.25 712.33,-1081.25"/>
<text text-anchor="start" x="627.25" y="-1068.7" font-family="Helvetica,sans-Serif" font-size="9.00">ViewRhythmTrack.js</text>
</a>
</g>
</g>
<!-- src/js/directable/rhythm2/ViewRhythm.js&#45;&gt;src/js/directable/rhythm2/ViewRhythmTrack.js -->
<g id="edge28" class="edge">
<title>src/js/directable/rhythm2/ViewRhythm.js&#45;&gt;src/js/directable/rhythm2/ViewRhythmTrack.js</title>
<path fill="none" stroke="#000000" stroke-width="2" stroke-opacity="0.200000" d="M561.99,-1072C576.64,-1072 593.76,-1072 609.91,-1072"/>
<polygon fill="#000000" fill-opacity="0.200000" stroke="#000000" stroke-width="2" stroke-opacity="0.200000" points="609.74,-1074.1 615.74,-1072 609.74,-1069.9 609.74,-1074.1"/>
</g>
<!-- src/js/index.js -->
<g id="node50" class="node">
<title>src/js/index.js</title>
<g id="a_node50"><a xlink:href="src/js/index.js" xlink:title="index.js">
<path fill="#ffffcc" stroke="black" d="M94.96,-1281.25C94.96,-1281.25 53.29,-1281.25 53.29,-1281.25 50.21,-1281.25 47.12,-1278.17 47.12,-1275.08 47.12,-1275.08 47.12,-1268.92 47.12,-1268.92 47.12,-1265.83 50.21,-1262.75 53.29,-1262.75 53.29,-1262.75 94.96,-1262.75 94.96,-1262.75 98.04,-1262.75 101.12,-1265.83 101.12,-1268.92 101.12,-1268.92 101.12,-1275.08 101.12,-1275.08 101.12,-1278.17 98.04,-1281.25 94.96,-1281.25"/>
<text text-anchor="start" x="58.38" y="-1268.7" font-family="Helvetica,sans-Serif" font-size="9.00">index.js</text>
</a>
</g>
</g>
<!-- src/js/index.js&#45;&gt;src/js/application/Application.js -->
<g id="edge32" class="edge">
<title>src/js/index.js&#45;&gt;src/js/application/Application.js</title>
<path fill="none" stroke="#000000" stroke-width="2" stroke-opacity="0.200000" d="M101.59,-1272C108.42,-1272 115.95,-1272 123.39,-1272"/>
<polygon fill="#000000" fill-opacity="0.200000" stroke="#000000" stroke-width="2" stroke-opacity="0.200000" points="123.01,-1274.1 129.01,-1272 123.01,-1269.9 123.01,-1274.1"/>
</g>
<!-- src/js/overlay/displayFormat/OverlayDisplayFormat.js&#45;&gt;src/js/display/DisplayFormats.js -->
<g id="edge35" class="edge">
<title>src/js/overlay/displayFormat/OverlayDisplayFormat.js&#45;&gt;src/js/display/DisplayFormats.js</title>
<path fill="none" stroke="#000000" stroke-width="2" stroke-opacity="0.200000" d="M559.43,-1280.26C575.63,-1275.18 594.85,-1268.28 611.25,-1260 624.45,-1253.33 638.14,-1243.98 648.75,-1236.11"/>
<polygon fill="#000000" fill-opacity="0.200000" stroke="#000000" stroke-width="2" stroke-opacity="0.200000" points="649.96,-1237.82 653.47,-1232.52 647.43,-1234.48 649.96,-1237.82"/>
</g>
<!-- src/js/overlay/OverlayUtil.js -->
<g id="node53" class="node">
<title>src/js/overlay/OverlayUtil.js</title>
<g id="a_node53"><a xlink:href="src/js/overlay/OverlayUtil.js" xlink:title="OverlayUtil.js">
<path fill="#ffffcc" stroke="black" d="M697.71,-1329.25C697.71,-1329.25 640.04,-1329.25 640.04,-1329.25 636.96,-1329.25 633.88,-1326.17 633.88,-1323.08 633.88,-1323.08 633.88,-1316.92 633.88,-1316.92 633.88,-1313.83 636.96,-1310.75 640.04,-1310.75 640.04,-1310.75 697.71,-1310.75 697.71,-1310.75 700.79,-1310.75 703.88,-1313.83 703.88,-1316.92 703.88,-1316.92 703.88,-1323.08 703.88,-1323.08 703.88,-1326.17 700.79,-1329.25 697.71,-1329.25"/>
<text text-anchor="start" x="641.88" y="-1316.7" font-family="Helvetica,sans-Serif" font-size="9.00">OverlayUtil.js</text>
</a>
</g>
</g>
<!-- src/js/overlay/displayFormat/OverlayDisplayFormat.js&#45;&gt;src/js/overlay/OverlayUtil.js -->
<g id="edge36" class="edge">
<title>src/js/overlay/displayFormat/OverlayDisplayFormat.js&#45;&gt;src/js/overlay/OverlayUtil.js</title>
<path fill="none" stroke="#000000" stroke-width="2" stroke-opacity="0.200000" d="M570.88,-1299.74C588.32,-1303.38 608.02,-1307.5 625.1,-1311.06"/>
<polygon fill="#000000" fill-opacity="0.200000" stroke="#000000" stroke-width="2" stroke-opacity="0.200000" points="624.49,-1313.08 630.8,-1312.26 625.35,-1308.97 624.49,-1313.08"/>
</g>
<!-- src/js/overlay/overlay/OverlayOverlay.js&#45;&gt;src/js/overlay/OverlayUtil.js -->
<g id="edge37" class="edge">
<title>src/js/overlay/overlay/OverlayOverlay.js&#45;&gt;src/js/overlay/OverlayUtil.js</title>
<path fill="none" stroke="#000000" stroke-width="2" stroke-opacity="0.200000" d="M567.34,-1341.7C585.52,-1337.78 606.64,-1333.22 624.81,-1329.29"/>
<polygon fill="#000000" fill-opacity="0.200000" stroke="#000000" stroke-width="2" stroke-opacity="0.200000" points="625.09,-1331.38 630.51,-1328.06 624.21,-1327.28 625.09,-1331.38"/>
</g>
</g>
</svg>
