<?xml version="1.0" encoding="UTF-8" standalone="no"?>
<!DOCTYPE svg PUBLIC "-//W3C//DTD SVG 1.1//EN"
 "http://www.w3.org/Graphics/SVG/1.1/DTD/svg11.dtd">
<!-- Generated by graphviz version 12.2.1 (20241206.2353)
 -->
<!-- Title: dependency&#45;cruiser output Pages: 1 -->
<svg width="1260pt" height="1545pt"
 viewBox="0.00 0.00 1259.50 1545.00" xmlns="http://www.w3.org/2000/svg" xmlns:xlink="http://www.w3.org/1999/xlink">
<g id="graph0" class="graph" transform="scale(1 1) rotate(0) translate(4 1541)">
<title>dependency&#45;cruiser output</title>
<polygon fill="white" stroke="none" points="-4,4 -4,-1541 1255.5,-1541 1255.5,4 -4,4"/>
<g id="clust1" class="cluster">
<title>cluster_src</title>
<path fill="#ffffff" stroke="black" stroke-width="2" d="M20,-8C20,-8 1231.5,-8 1231.5,-8 1237.5,-8 1243.5,-14 1243.5,-20 1243.5,-20 1243.5,-1517 1243.5,-1517 1243.5,-1523 1237.5,-1529 1231.5,-1529 1231.5,-1529 20,-1529 20,-1529 14,-1529 8,-1523 8,-1517 8,-1517 8,-20 8,-20 8,-14 14,-8 20,-8"/>
<text text-anchor="middle" x="625.75" y="-1516.45" font-family="Helvetica,sans-Serif" font-weight="bold" font-size="9.00">src</text>
</g>
<g id="clust2" class="cluster">
<title>cluster_src/js</title>
<path fill="#ffffff" stroke="black" stroke-width="2" d="M28,-16C28,-16 1223.5,-16 1223.5,-16 1229.5,-16 1235.5,-22 1235.5,-28 1235.5,-28 1235.5,-1490 1235.5,-1490 1235.5,-1496 1229.5,-1502 1223.5,-1502 1223.5,-1502 28,-1502 28,-1502 22,-1502 16,-1496 16,-1490 16,-1490 16,-28 16,-28 16,-22 22,-16 28,-16"/>
<text text-anchor="middle" x="625.75" y="-1489.45" font-family="Helvetica,sans-Serif" font-weight="bold" font-size="9.00">js</text>
</g>
<g id="clust3" class="cluster">
<title>cluster_src/js/application</title>
<path fill="#ffffff" stroke="black" stroke-width="2" d="M136.25,-1255C136.25,-1255 199,-1255 199,-1255 205,-1255 211,-1261 211,-1267 211,-1267 211,-1296 211,-1296 211,-1302 205,-1308 199,-1308 199,-1308 136.25,-1308 136.25,-1308 130.25,-1308 124.25,-1302 124.25,-1296 124.25,-1296 124.25,-1267 124.25,-1267 124.25,-1261 130.25,-1255 136.25,-1255"/>
<text text-anchor="middle" x="167.62" y="-1295.45" font-family="Helvetica,sans-Serif" font-weight="bold" font-size="9.00">application</text>
</g>
<g id="clust4" class="cluster">
<title>cluster_src/js/controller</title>
<path fill="#ffffff" stroke="black" stroke-width="2" d="M231,-1255C231,-1255 287.75,-1255 287.75,-1255 293.75,-1255 299.75,-1261 299.75,-1267 299.75,-1267 299.75,-1296 299.75,-1296 299.75,-1302 293.75,-1308 287.75,-1308 287.75,-1308 231,-1308 231,-1308 225,-1308 219,-1302 219,-1296 219,-1296 219,-1267 219,-1267 219,-1261 225,-1255 231,-1255"/>
<text text-anchor="middle" x="259.38" y="-1295.45" font-family="Helvetica,sans-Serif" font-weight="bold" font-size="9.00">controller</text>
</g>
<g id="clust5" class="cluster">
<title>cluster_src/js/data</title>
<path fill="#ffffff" stroke="black" stroke-width="2" d="M36,-635C36,-635 191.12,-635 191.12,-635 197.12,-635 203.12,-641 203.12,-647 203.12,-647 203.12,-676 203.12,-676 203.12,-682 197.12,-688 191.12,-688 191.12,-688 36,-688 36,-688 30,-688 24,-682 24,-676 24,-676 24,-647 24,-647 24,-641 30,-635 36,-635"/>
<text text-anchor="middle" x="113.56" y="-675.45" font-family="Helvetica,sans-Serif" font-weight="bold" font-size="9.00">data</text>
</g>
<g id="clust6" class="cluster">
<title>cluster_src/js/directable</title>
<path fill="#ffffff" stroke="black" stroke-width="2" d="M431,-24C431,-24 1215.5,-24 1215.5,-24 1221.5,-24 1227.5,-30 1227.5,-36 1227.5,-36 1227.5,-1184 1227.5,-1184 1227.5,-1190 1221.5,-1196 1215.5,-1196 1215.5,-1196 431,-1196 431,-1196 425,-1196 419,-1190 419,-1184 419,-1184 419,-36 419,-36 419,-30 425,-24 431,-24"/>
<text text-anchor="middle" x="823.25" y="-1183.45" font-family="Helvetica,sans-Serif" font-weight="bold" font-size="9.00">directable</text>
</g>
<g id="clust7" class="cluster">
<title>cluster_src/js/directable/dotmatrix</title>
<path fill="#ffffff" stroke="black" stroke-width="2" d="M474,-32C474,-32 1207.5,-32 1207.5,-32 1213.5,-32 1219.5,-38 1219.5,-44 1219.5,-44 1219.5,-755 1219.5,-755 1219.5,-761 1213.5,-767 1207.5,-767 1207.5,-767 474,-767 474,-767 468,-767 462,-761 462,-755 462,-755 462,-44 462,-44 462,-38 468,-32 474,-32"/>
<text text-anchor="middle" x="840.75" y="-754.45" font-family="Helvetica,sans-Serif" font-weight="bold" font-size="9.00">dotmatrix</text>
</g>
<g id="clust8" class="cluster">
<title>cluster_src/js/directable/dotmatrix/dot</title>
<path fill="#ffffff" stroke="black" stroke-width="2" d="M763.62,-194C763.62,-194 955.88,-194 955.88,-194 961.88,-194 967.88,-200 967.88,-206 967.88,-206 967.88,-235 967.88,-235 967.88,-241 961.88,-247 955.88,-247 955.88,-247 763.62,-247 763.62,-247 757.62,-247 751.62,-241 751.62,-235 751.62,-235 751.62,-206 751.62,-206 751.62,-200 757.62,-194 763.62,-194"/>
<text text-anchor="middle" x="859.75" y="-234.45" font-family="Helvetica,sans-Serif" font-weight="bold" font-size="9.00">dot</text>
</g>
<g id="clust9" class="cluster">
<title>cluster_src/js/directable/dotmatrix/grid</title>
<path fill="#ffffff" stroke="black" stroke-width="2" d="M872.25,-71C872.25,-71 993.5,-71 993.5,-71 999.5,-71 1005.5,-77 1005.5,-83 1005.5,-83 1005.5,-174 1005.5,-174 1005.5,-180 999.5,-186 993.5,-186 993.5,-186 872.25,-186 872.25,-186 866.25,-186 860.25,-180 860.25,-174 860.25,-174 860.25,-83 860.25,-83 860.25,-77 866.25,-71 872.25,-71"/>
<text text-anchor="middle" x="932.88" y="-173.45" font-family="Helvetica,sans-Serif" font-weight="bold" font-size="9.00">grid</text>
</g>
<g id="clust10" class="cluster">
<title>cluster_src/js/directable/dotmatrix/shape</title>
<path fill="#ffffff" stroke="black" stroke-width="2" d="M746.25,-255C746.25,-255 1199.5,-255 1199.5,-255 1205.5,-255 1211.5,-261 1211.5,-267 1211.5,-267 1211.5,-728 1211.5,-728 1211.5,-734 1205.5,-740 1199.5,-740 1199.5,-740 746.25,-740 746.25,-740 740.25,-740 734.25,-734 734.25,-728 734.25,-728 734.25,-267 734.25,-267 734.25,-261 740.25,-255 746.25,-255"/>
<text text-anchor="middle" x="972.88" y="-727.45" font-family="Helvetica,sans-Serif" font-weight="bold" font-size="9.00">shape</text>
</g>
<g id="clust11" class="cluster">
<title>cluster_src/js/directable/dotmatrix/shape/fill</title>
<path fill="#ffffff" stroke="black" stroke-width="2" d="M1025.5,-629C1025.5,-629 1191.5,-629 1191.5,-629 1197.5,-629 1203.5,-635 1203.5,-641 1203.5,-641 1203.5,-701 1203.5,-701 1203.5,-707 1197.5,-713 1191.5,-713 1191.5,-713 1025.5,-713 1025.5,-713 1019.5,-713 1013.5,-707 1013.5,-701 1013.5,-701 1013.5,-641 1013.5,-641 1013.5,-635 1019.5,-629 1025.5,-629"/>
<text text-anchor="middle" x="1108.5" y="-700.45" font-family="Helvetica,sans-Serif" font-weight="bold" font-size="9.00">fill</text>
</g>
<g id="clust12" class="cluster">
<title>cluster_src/js/directable/dotmatrix/shape/glyph</title>
<path fill="#ffffff" stroke="black" stroke-width="2" d="M757.25,-263C757.25,-263 837.25,-263 837.25,-263 843.25,-263 849.25,-269 849.25,-275 849.25,-275 849.25,-614 849.25,-614 849.25,-620 843.25,-626 837.25,-626 837.25,-626 757.25,-626 757.25,-626 751.25,-626 745.25,-620 745.25,-614 745.25,-614 745.25,-275 745.25,-275 745.25,-269 751.25,-263 757.25,-263"/>
<text text-anchor="middle" x="797.25" y="-613.45" font-family="Helvetica,sans-Serif" font-weight="bold" font-size="9.00">glyph</text>
</g>
<g id="clust13" class="cluster">
<title>cluster_src/js/directable/dotmatrix/shape/line</title>
<path fill="#ffffff" stroke="black" stroke-width="2" d="M880.88,-618C880.88,-618 984.88,-618 984.88,-618 990.88,-618 996.88,-624 996.88,-630 996.88,-630 996.88,-690 996.88,-690 996.88,-696 990.88,-702 984.88,-702 984.88,-702 880.88,-702 880.88,-702 874.88,-702 868.88,-696 868.88,-690 868.88,-690 868.88,-630 868.88,-630 868.88,-624 874.88,-618 880.88,-618"/>
<text text-anchor="middle" x="932.88" y="-689.45" font-family="Helvetica,sans-Serif" font-weight="bold" font-size="9.00">line</text>
</g>
<g id="clust14" class="cluster">
<title>cluster_src/js/directable/dotmatrix/shape/primative</title>
<path fill="#ffffff" stroke="black" stroke-width="2" d="M754.25,-634C754.25,-634 840.25,-634 840.25,-634 846.25,-634 852.25,-640 852.25,-646 852.25,-646 852.25,-675 852.25,-675 852.25,-681 846.25,-687 840.25,-687 840.25,-687 754.25,-687 754.25,-687 748.25,-687 742.25,-681 742.25,-675 742.25,-675 742.25,-646 742.25,-646 742.25,-640 748.25,-634 754.25,-634"/>
<text text-anchor="middle" x="797.25" y="-674.45" font-family="Helvetica,sans-Serif" font-weight="bold" font-size="9.00">primative</text>
</g>
<g id="clust15" class="cluster">
<title>cluster_src/js/directable/dotmatrix/view</title>
<path fill="#ffffff" stroke="black" stroke-width="2" d="M632,-40C632,-40 824.12,-40 824.12,-40 830.12,-40 836.12,-46 836.12,-52 836.12,-52 836.12,-174 836.12,-174 836.12,-180 830.12,-186 824.12,-186 824.12,-186 632,-186 632,-186 626,-186 620,-180 620,-174 620,-174 620,-52 620,-52 620,-46 626,-40 632,-40"/>
<text text-anchor="middle" x="728.06" y="-173.45" font-family="Helvetica,sans-Serif" font-weight="bold" font-size="9.00">view</text>
</g>
<g id="clust16" class="cluster">
<title>cluster_src/js/directable/frame</title>
<path fill="#ffffff" stroke="black" stroke-width="2" d="M480.38,-775C480.38,-775 565.62,-775 565.62,-775 571.62,-775 577.62,-781 577.62,-787 577.62,-787 577.62,-816 577.62,-816 577.62,-822 571.62,-828 565.62,-828 565.62,-828 480.38,-828 480.38,-828 474.38,-828 468.38,-822 468.38,-816 468.38,-816 468.38,-787 468.38,-787 468.38,-781 474.38,-775 480.38,-775"/>
<text text-anchor="middle" x="523" y="-815.45" font-family="Helvetica,sans-Serif" font-weight="bold" font-size="9.00">frame</text>
</g>
<g id="clust17" class="cluster">
<title>cluster_src/js/directable/rhythm</title>
<path fill="#ffffff" stroke="black" stroke-width="2" d="M439,-836C439,-836 713.88,-836 713.88,-836 719.88,-836 725.88,-842 725.88,-848 725.88,-848 725.88,-1035 725.88,-1035 725.88,-1041 719.88,-1047 713.88,-1047 713.88,-1047 439,-1047 439,-1047 433,-1047 427,-1041 427,-1035 427,-1035 427,-848 427,-848 427,-842 433,-836 439,-836"/>
<text text-anchor="middle" x="576.44" y="-1034.45" font-family="Helvetica,sans-Serif" font-weight="bold" font-size="9.00">rhythm</text>
</g>
<g id="clust18" class="cluster">
<title>cluster_src/js/directable/rhythm/asdr</title>
<path fill="#ffffff" stroke="black" stroke-width="2" d="M447,-844C447,-844 599,-844 599,-844 605,-844 611,-850 611,-856 611,-856 611,-947 611,-947 611,-953 605,-959 599,-959 599,-959 447,-959 447,-959 441,-959 435,-953 435,-947 435,-947 435,-856 435,-856 435,-850 441,-844 447,-844"/>
<text text-anchor="middle" x="523" y="-946.45" font-family="Helvetica,sans-Serif" font-weight="bold" font-size="9.00">asdr</text>
</g>
<g id="clust19" class="cluster">
<title>cluster_src/js/directable/rhythm/bpm</title>
<path fill="#ffffff" stroke="black" stroke-width="2" d="M468,-967C468,-967 578,-967 578,-967 584,-967 590,-973 590,-979 590,-979 590,-1008 590,-1008 590,-1014 584,-1020 578,-1020 578,-1020 468,-1020 468,-1020 462,-1020 456,-1014 456,-1008 456,-1008 456,-979 456,-979 456,-973 462,-967 468,-967"/>
<text text-anchor="middle" x="523" y="-1007.45" font-family="Helvetica,sans-Serif" font-weight="bold" font-size="9.00">bpm</text>
</g>
<g id="clust20" class="cluster">
<title>cluster_src/js/directable/rhythm2</title>
<path fill="#ffffff" stroke="black" stroke-width="2" d="M488.62,-1055C488.62,-1055 714.25,-1055 714.25,-1055 720.25,-1055 726.25,-1061 726.25,-1067 726.25,-1067 726.25,-1096 726.25,-1096 726.25,-1102 720.25,-1108 714.25,-1108 714.25,-1108 488.62,-1108 488.62,-1108 482.62,-1108 476.62,-1102 476.62,-1096 476.62,-1096 476.62,-1067 476.62,-1067 476.62,-1061 482.62,-1055 488.62,-1055"/>
<text text-anchor="middle" x="601.44" y="-1095.45" font-family="Helvetica,sans-Serif" font-weight="bold" font-size="9.00">rhythm2</text>
</g>
<g id="clust21" class="cluster">
<title>cluster_src/js/directable/title</title>
<path fill="#ffffff" stroke="black" stroke-width="2" d="M484.88,-1116C484.88,-1116 561.12,-1116 561.12,-1116 567.12,-1116 573.12,-1122 573.12,-1128 573.12,-1128 573.12,-1157 573.12,-1157 573.12,-1163 567.12,-1169 561.12,-1169 561.12,-1169 484.88,-1169 484.88,-1169 478.88,-1169 472.88,-1163 472.88,-1157 472.88,-1157 472.88,-1128 472.88,-1128 472.88,-1122 478.88,-1116 484.88,-1116"/>
<text text-anchor="middle" x="523" y="-1156.45" font-family="Helvetica,sans-Serif" font-weight="bold" font-size="9.00">title</text>
</g>
<g id="clust22" class="cluster">
<title>cluster_src/js/director</title>
<path fill="#ffffff" stroke="black" stroke-width="2" d="M335.12,-1116C335.12,-1116 383.62,-1116 383.62,-1116 389.62,-1116 395.62,-1122 395.62,-1128 395.62,-1128 395.62,-1157 395.62,-1157 395.62,-1163 389.62,-1169 383.62,-1169 383.62,-1169 335.12,-1169 335.12,-1169 329.12,-1169 323.12,-1163 323.12,-1157 323.12,-1157 323.12,-1128 323.12,-1128 323.12,-1122 329.12,-1116 335.12,-1116"/>
<text text-anchor="middle" x="359.38" y="-1156.45" font-family="Helvetica,sans-Serif" font-weight="bold" font-size="9.00">director</text>
</g>
<g id="clust23" class="cluster">
<title>cluster_src/js/display</title>
<path fill="#ffffff" stroke="black" stroke-width="2" d="M499.5,-1204C499.5,-1204 709,-1204 709,-1204 715,-1204 721,-1210 721,-1216 721,-1216 721,-1245 721,-1245 721,-1251 715,-1257 709,-1257 709,-1257 499.5,-1257 499.5,-1257 493.5,-1257 487.5,-1251 487.5,-1245 487.5,-1245 487.5,-1216 487.5,-1216 487.5,-1210 493.5,-1204 499.5,-1204"/>
<text text-anchor="middle" x="604.25" y="-1244.45" font-family="Helvetica,sans-Serif" font-weight="bold" font-size="9.00">display</text>
</g>
<g id="clust24" class="cluster">
<title>cluster_src/js/overlay</title>
<path fill="#ffffff" stroke="black" stroke-width="2" d="M335.5,-1265C335.5,-1265 699.62,-1265 699.62,-1265 705.62,-1265 711.62,-1271 711.62,-1277 711.62,-1277 711.62,-1402 711.62,-1402 711.62,-1408 705.62,-1414 699.62,-1414 699.62,-1414 335.5,-1414 335.5,-1414 329.5,-1414 323.5,-1408 323.5,-1402 323.5,-1402 323.5,-1277 323.5,-1277 323.5,-1271 329.5,-1265 335.5,-1265"/>
<text text-anchor="middle" x="517.56" y="-1401.45" font-family="Helvetica,sans-Serif" font-weight="bold" font-size="9.00">overlay</text>
</g>
<g id="clust25" class="cluster">
<title>cluster_src/js/overlay/displayFormat</title>
<path fill="#ffffff" stroke="black" stroke-width="2" d="M469.12,-1273C469.12,-1273 576.88,-1273 576.88,-1273 582.88,-1273 588.88,-1279 588.88,-1285 588.88,-1285 588.88,-1314 588.88,-1314 588.88,-1320 582.88,-1326 576.88,-1326 576.88,-1326 469.12,-1326 469.12,-1326 463.12,-1326 457.12,-1320 457.12,-1314 457.12,-1314 457.12,-1285 457.12,-1285 457.12,-1279 463.12,-1273 469.12,-1273"/>
<text text-anchor="middle" x="523" y="-1313.45" font-family="Helvetica,sans-Serif" font-weight="bold" font-size="9.00">displayFormat</text>
</g>
<g id="clust26" class="cluster">
<title>cluster_src/js/overlay/overlay</title>
<path fill="#ffffff" stroke="black" stroke-width="2" d="M483.38,-1334C483.38,-1334 562.62,-1334 562.62,-1334 568.62,-1334 574.62,-1340 574.62,-1346 574.62,-1346 574.62,-1375 574.62,-1375 574.62,-1381 568.62,-1387 562.62,-1387 562.62,-1387 483.38,-1387 483.38,-1387 477.38,-1387 471.38,-1381 471.38,-1375 471.38,-1375 471.38,-1346 471.38,-1346 471.38,-1340 477.38,-1334 483.38,-1334"/>
<text text-anchor="middle" x="523" y="-1374.45" font-family="Helvetica,sans-Serif" font-weight="bold" font-size="9.00">overlay</text>
</g>
<g id="clust27" class="cluster">
<title>cluster_src/js/render</title>
<path fill="#ffffff" stroke="black" stroke-width="2" d="M319.75,-1422C319.75,-1422 399,-1422 399,-1422 405,-1422 411,-1428 411,-1434 411,-1434 411,-1463 411,-1463 411,-1469 405,-1475 399,-1475 399,-1475 319.75,-1475 319.75,-1475 313.75,-1475 307.75,-1469 307.75,-1463 307.75,-1463 307.75,-1434 307.75,-1434 307.75,-1428 313.75,-1422 319.75,-1422"/>
<text text-anchor="middle" x="359.38" y="-1462.45" font-family="Helvetica,sans-Serif" font-weight="bold" font-size="9.00">render</text>
</g>
<!-- src/js/application/Application.js -->
<g id="node1" class="node">
<title>src/js/application/Application.js</title>
<g id="a_node1"><a xlink:href="src/js/application/Application.js" xlink:title="Application.js">
<path fill="#ffffcc" stroke="black" d="M196.83,-1281.25C196.83,-1281.25 138.42,-1281.25 138.42,-1281.25 135.33,-1281.25 132.25,-1278.17 132.25,-1275.08 132.25,-1275.08 132.25,-1268.92 132.25,-1268.92 132.25,-1265.83 135.33,-1262.75 138.42,-1262.75 138.42,-1262.75 196.83,-1262.75 196.83,-1262.75 199.92,-1262.75 203,-1265.83 203,-1268.92 203,-1268.92 203,-1275.08 203,-1275.08 203,-1278.17 199.92,-1281.25 196.83,-1281.25"/>
<text text-anchor="start" x="140.25" y="-1268.7" font-family="Helvetica,sans-Serif" font-size="9.00">Application.js</text>
</a>
</g>
</g>
<!-- src/js/controller/Controller.js -->
<g id="node2" class="node">
<title>src/js/controller/Controller.js</title>
<g id="a_node2"><a xlink:href="src/js/controller/Controller.js" xlink:title="Controller.js">
<path fill="#ffffcc" stroke="black" d="M285.58,-1281.25C285.58,-1281.25 233.17,-1281.25 233.17,-1281.25 230.08,-1281.25 227,-1278.17 227,-1275.08 227,-1275.08 227,-1268.92 227,-1268.92 227,-1265.83 230.08,-1262.75 233.17,-1262.75 233.17,-1262.75 285.58,-1262.75 285.58,-1262.75 288.67,-1262.75 291.75,-1265.83 291.75,-1268.92 291.75,-1268.92 291.75,-1275.08 291.75,-1275.08 291.75,-1278.17 288.67,-1281.25 285.58,-1281.25"/>
<text text-anchor="start" x="235" y="-1268.7" font-family="Helvetica,sans-Serif" font-size="9.00">Controller.js</text>
</a>
</g>
</g>
<!-- src/js/application/Application.js&#45;&gt;src/js/controller/Controller.js -->
<g id="edge1" class="edge">
<title>src/js/application/Application.js&#45;&gt;src/js/controller/Controller.js</title>
<path fill="none" stroke="#000000" stroke-width="2" stroke-opacity="0.200000" d="M203.32,-1272C208.13,-1272 213.11,-1272 218.01,-1272"/>
<polygon fill="#000000" fill-opacity="0.200000" stroke="#000000" stroke-width="2" stroke-opacity="0.200000" points="217.68,-1274.1 223.68,-1272 217.68,-1269.9 217.68,-1274.1"/>
</g>
<!-- src/js/director/Director.js -->
<g id="node3" class="node">
<title>src/js/director/Director.js</title>
<g id="a_node3"><a xlink:href="src/js/director/Director.js" xlink:title="Director.js">
<path fill="#ffffcc" stroke="black" d="M381.46,-1142.25C381.46,-1142.25 337.29,-1142.25 337.29,-1142.25 334.21,-1142.25 331.12,-1139.17 331.12,-1136.08 331.12,-1136.08 331.12,-1129.92 331.12,-1129.92 331.12,-1126.83 334.21,-1123.75 337.29,-1123.75 337.29,-1123.75 381.46,-1123.75 381.46,-1123.75 384.54,-1123.75 387.62,-1126.83 387.62,-1129.92 387.62,-1129.92 387.62,-1136.08 387.62,-1136.08 387.62,-1139.17 384.54,-1142.25 381.46,-1142.25"/>
<text text-anchor="start" x="339.12" y="-1129.7" font-family="Helvetica,sans-Serif" font-size="9.00">Director.js</text>
</a>
</g>
</g>
<!-- src/js/controller/Controller.js&#45;&gt;src/js/director/Director.js -->
<g id="edge2" class="edge">
<title>src/js/controller/Controller.js&#45;&gt;src/js/director/Director.js</title>
<path fill="none" stroke="#000000" stroke-width="2" stroke-opacity="0.200000" d="M267.11,-1262.45C283.55,-1239.14 325.86,-1179.11 346.59,-1149.72"/>
<polygon fill="#000000" fill-opacity="0.200000" stroke="#000000" stroke-width="2" stroke-opacity="0.200000" points="348.11,-1151.21 349.85,-1145.09 344.67,-1148.79 348.11,-1151.21"/>
</g>
<!-- src/js/display/Display.js -->
<g id="node4" class="node">
<title>src/js/display/Display.js</title>
<g id="a_node4"><a xlink:href="src/js/display/Display.js" xlink:title="Display.js">
<path fill="#ffffcc" stroke="black" d="M544.33,-1230.25C544.33,-1230.25 501.67,-1230.25 501.67,-1230.25 498.58,-1230.25 495.5,-1227.17 495.5,-1224.08 495.5,-1224.08 495.5,-1217.92 495.5,-1217.92 495.5,-1214.83 498.58,-1211.75 501.67,-1211.75 501.67,-1211.75 544.33,-1211.75 544.33,-1211.75 547.42,-1211.75 550.5,-1214.83 550.5,-1217.92 550.5,-1217.92 550.5,-1224.08 550.5,-1224.08 550.5,-1227.17 547.42,-1230.25 544.33,-1230.25"/>
<text text-anchor="start" x="503.5" y="-1217.7" font-family="Helvetica,sans-Serif" font-size="9.00">Display.js</text>
</a>
</g>
</g>
<!-- src/js/controller/Controller.js&#45;&gt;src/js/display/Display.js -->
<g id="edge3" class="edge">
<title>src/js/controller/Controller.js&#45;&gt;src/js/display/Display.js</title>
<path fill="none" stroke="#000000" stroke-width="2" stroke-opacity="0.200000" d="M292.21,-1265.19C297.4,-1264.11 302.72,-1263.01 307.75,-1262 370.53,-1249.37 443.85,-1235.54 486.39,-1227.6"/>
<polygon fill="#000000" fill-opacity="0.200000" stroke="#000000" stroke-width="2" stroke-opacity="0.200000" points="486.76,-1229.67 492.27,-1226.51 485.99,-1225.54 486.76,-1229.67"/>
</g>
<!-- src/js/overlay/Overlay.js -->
<g id="node5" class="node">
<title>src/js/overlay/Overlay.js</title>
<g id="a_node5"><a xlink:href="src/js/overlay/Overlay.js" xlink:title="Overlay.js">
<path fill="#ffffcc" stroke="black" d="M381.08,-1299.25C381.08,-1299.25 337.67,-1299.25 337.67,-1299.25 334.58,-1299.25 331.5,-1296.17 331.5,-1293.08 331.5,-1293.08 331.5,-1286.92 331.5,-1286.92 331.5,-1283.83 334.58,-1280.75 337.67,-1280.75 337.67,-1280.75 381.08,-1280.75 381.08,-1280.75 384.17,-1280.75 387.25,-1283.83 387.25,-1286.92 387.25,-1286.92 387.25,-1293.08 387.25,-1293.08 387.25,-1296.17 384.17,-1299.25 381.08,-1299.25"/>
<text text-anchor="start" x="339.5" y="-1286.7" font-family="Helvetica,sans-Serif" font-size="9.00">Overlay.js</text>
</a>
</g>
</g>
<!-- src/js/controller/Controller.js&#45;&gt;src/js/overlay/Overlay.js -->
<g id="edge4" class="edge">
<title>src/js/controller/Controller.js&#45;&gt;src/js/overlay/Overlay.js</title>
<path fill="none" stroke="#000000" stroke-width="2" stroke-opacity="0.200000" d="M292.19,-1277.84C301.86,-1279.62 312.56,-1281.58 322.48,-1283.41"/>
<polygon fill="#000000" fill-opacity="0.200000" stroke="#000000" stroke-width="2" stroke-opacity="0.200000" points="322.06,-1285.46 328.34,-1284.48 322.82,-1281.33 322.06,-1285.46"/>
</g>
<!-- src/js/render/RenderSurface.js -->
<g id="node6" class="node">
<title>src/js/render/RenderSurface.js</title>
<g id="a_node6"><a xlink:href="src/js/render/RenderSurface.js" xlink:title="RenderSurface.js">
<path fill="#ffffcc" stroke="black" d="M396.83,-1448.25C396.83,-1448.25 321.92,-1448.25 321.92,-1448.25 318.83,-1448.25 315.75,-1445.17 315.75,-1442.08 315.75,-1442.08 315.75,-1435.92 315.75,-1435.92 315.75,-1432.83 318.83,-1429.75 321.92,-1429.75 321.92,-1429.75 396.83,-1429.75 396.83,-1429.75 399.92,-1429.75 403,-1432.83 403,-1435.92 403,-1435.92 403,-1442.08 403,-1442.08 403,-1445.17 399.92,-1448.25 396.83,-1448.25"/>
<text text-anchor="start" x="323.75" y="-1435.7" font-family="Helvetica,sans-Serif" font-size="9.00">RenderSurface.js</text>
</a>
</g>
</g>
<!-- src/js/controller/Controller.js&#45;&gt;src/js/render/RenderSurface.js -->
<g id="edge5" class="edge">
<title>src/js/controller/Controller.js&#45;&gt;src/js/render/RenderSurface.js</title>
<path fill="none" stroke="#000000" stroke-width="2" stroke-opacity="0.200000" d="M260.86,-1281.45C262.65,-1306.67 270.85,-1376.45 307.75,-1417 310.47,-1419.99 313.67,-1422.59 317.12,-1424.86"/>
<polygon fill="#000000" fill-opacity="0.200000" stroke="#000000" stroke-width="2" stroke-opacity="0.200000" points="316.07,-1426.68 322.33,-1427.79 318.14,-1423.02 316.07,-1426.68"/>
</g>
<!-- src/js/directable/dotmatrix/DirectableDotMatrix.js -->
<g id="node9" class="node">
<title>src/js/directable/dotmatrix/DirectableDotMatrix.js</title>
<g id="a_node9"><a xlink:href="src/js/directable/dotmatrix/DirectableDotMatrix.js" xlink:title="DirectableDotMatrix.js">
<path fill="#ffffcc" stroke="black" d="M569.83,-403.25C569.83,-403.25 476.17,-403.25 476.17,-403.25 473.08,-403.25 470,-400.17 470,-397.08 470,-397.08 470,-390.92 470,-390.92 470,-387.83 473.08,-384.75 476.17,-384.75 476.17,-384.75 569.83,-384.75 569.83,-384.75 572.92,-384.75 576,-387.83 576,-390.92 576,-390.92 576,-397.08 576,-397.08 576,-400.17 572.92,-403.25 569.83,-403.25"/>
<text text-anchor="start" x="478" y="-390.7" font-family="Helvetica,sans-Serif" font-size="9.00">DirectableDotMatrix.js</text>
</a>
</g>
</g>
<!-- src/js/director/Director.js&#45;&gt;src/js/directable/dotmatrix/DirectableDotMatrix.js -->
<g id="edge29" class="edge">
<title>src/js/director/Director.js&#45;&gt;src/js/directable/dotmatrix/DirectableDotMatrix.js</title>
<path fill="none" stroke="#000000" stroke-width="2" stroke-opacity="0.200000" d="M361.55,-1123.45C366.78,-1081.6 389,-910.38 419,-772 449.39,-631.85 499.59,-466.15 516.35,-412.05"/>
<polygon fill="#000000" fill-opacity="0.200000" stroke="#000000" stroke-width="2" stroke-opacity="0.200000" points="518.32,-412.79 518.1,-406.44 514.31,-411.54 518.32,-412.79"/>
</g>
<!-- src/js/directable/title/DirectableTitle.js -->
<g id="node48" class="node">
<title>src/js/directable/title/DirectableTitle.js</title>
<g id="a_node48"><a xlink:href="src/js/directable/title/DirectableTitle.js" xlink:title="DirectableTitle.js">
<path fill="#ffffcc" stroke="black" d="M558.96,-1142.25C558.96,-1142.25 487.04,-1142.25 487.04,-1142.25 483.96,-1142.25 480.88,-1139.17 480.88,-1136.08 480.88,-1136.08 480.88,-1129.92 480.88,-1129.92 480.88,-1126.83 483.96,-1123.75 487.04,-1123.75 487.04,-1123.75 558.96,-1123.75 558.96,-1123.75 562.04,-1123.75 565.12,-1126.83 565.12,-1129.92 565.12,-1129.92 565.12,-1136.08 565.12,-1136.08 565.12,-1139.17 562.04,-1142.25 558.96,-1142.25"/>
<text text-anchor="start" x="488.88" y="-1129.7" font-family="Helvetica,sans-Serif" font-size="9.00">DirectableTitle.js</text>
</a>
</g>
</g>
<!-- src/js/director/Director.js&#45;&gt;src/js/directable/title/DirectableTitle.js -->
<g id="edge30" class="edge">
<title>src/js/director/Director.js&#45;&gt;src/js/directable/title/DirectableTitle.js</title>
<path fill="none" stroke="#000000" stroke-width="2" stroke-opacity="0.200000" d="M387.79,-1133C410.71,-1133 444,-1133 471.69,-1133"/>
<polygon fill="#000000" fill-opacity="0.200000" stroke="#000000" stroke-width="2" stroke-opacity="0.200000" points="471.43,-1135.1 477.43,-1133 471.43,-1130.9 471.43,-1135.1"/>
</g>
<!-- src/js/display/DisplayFormats.js -->
<g id="node49" class="node">
<title>src/js/display/DisplayFormats.js</title>
<g id="a_node49"><a xlink:href="src/js/display/DisplayFormats.js" xlink:title="DisplayFormats.js">
<path fill="#ffffcc" stroke="black" d="M706.83,-1230.25C706.83,-1230.25 630.42,-1230.25 630.42,-1230.25 627.33,-1230.25 624.25,-1227.17 624.25,-1224.08 624.25,-1224.08 624.25,-1217.92 624.25,-1217.92 624.25,-1214.83 627.33,-1211.75 630.42,-1211.75 630.42,-1211.75 706.83,-1211.75 706.83,-1211.75 709.92,-1211.75 713,-1214.83 713,-1217.92 713,-1217.92 713,-1224.08 713,-1224.08 713,-1227.17 709.92,-1230.25 706.83,-1230.25"/>
<text text-anchor="start" x="632.25" y="-1217.7" font-family="Helvetica,sans-Serif" font-size="9.00">DisplayFormats.js</text>
</a>
</g>
</g>
<!-- src/js/display/Display.js&#45;&gt;src/js/display/DisplayFormats.js -->
<g id="edge31" class="edge">
<title>src/js/display/Display.js&#45;&gt;src/js/display/DisplayFormats.js</title>
<path fill="none" stroke="#000000" stroke-width="2" stroke-opacity="0.200000" d="M550.68,-1221C568.72,-1221 593.15,-1221 615.01,-1221"/>
<polygon fill="#000000" fill-opacity="0.200000" stroke="#000000" stroke-width="2" stroke-opacity="0.200000" points="614.85,-1223.1 620.85,-1221 614.85,-1218.9 614.85,-1223.1"/>
</g>
<!-- src/js/overlay/displayFormat/OverlayDisplayFormat.js -->
<g id="node51" class="node">
<title>src/js/overlay/displayFormat/OverlayDisplayFormat.js</title>
<g id="a_node51"><a xlink:href="src/js/overlay/displayFormat/OverlayDisplayFormat.js" xlink:title="OverlayDisplayFormat.js">
<path fill="#ffffcc" stroke="black" d="M574.71,-1299.25C574.71,-1299.25 471.29,-1299.25 471.29,-1299.25 468.21,-1299.25 465.12,-1296.17 465.12,-1293.08 465.12,-1293.08 465.12,-1286.92 465.12,-1286.92 465.12,-1283.83 468.21,-1280.75 471.29,-1280.75 471.29,-1280.75 574.71,-1280.75 574.71,-1280.75 577.79,-1280.75 580.88,-1283.83 580.88,-1286.92 580.88,-1286.92 580.88,-1293.08 580.88,-1293.08 580.88,-1296.17 577.79,-1299.25 574.71,-1299.25"/>
<text text-anchor="start" x="473.12" y="-1286.7" font-family="Helvetica,sans-Serif" font-size="9.00">OverlayDisplayFormat.js</text>
</a>
</g>
</g>
<!-- src/js/overlay/Overlay.js&#45;&gt;src/js/overlay/displayFormat/OverlayDisplayFormat.js -->
<g id="edge33" class="edge">
<title>src/js/overlay/Overlay.js&#45;&gt;src/js/overlay/displayFormat/OverlayDisplayFormat.js</title>
<path fill="none" stroke="#000000" stroke-width="2" stroke-opacity="0.200000" d="M387.43,-1290C406.16,-1290 431.93,-1290 455.92,-1290"/>
<polygon fill="#000000" fill-opacity="0.200000" stroke="#000000" stroke-width="2" stroke-opacity="0.200000" points="455.63,-1292.1 461.63,-1290 455.63,-1287.9 455.63,-1292.1"/>
</g>
<!-- src/js/overlay/overlay/OverlayOverlay.js -->
<g id="node52" class="node">
<title>src/js/overlay/overlay/OverlayOverlay.js</title>
<g id="a_node52"><a xlink:href="src/js/overlay/overlay/OverlayOverlay.js" xlink:title="OverlayOverlay.js">
<path fill="#ffffcc" stroke="black" d="M560.46,-1360.25C560.46,-1360.25 485.54,-1360.25 485.54,-1360.25 482.46,-1360.25 479.38,-1357.17 479.38,-1354.08 479.38,-1354.08 479.38,-1347.92 479.38,-1347.92 479.38,-1344.83 482.46,-1341.75 485.54,-1341.75 485.54,-1341.75 560.46,-1341.75 560.46,-1341.75 563.54,-1341.75 566.62,-1344.83 566.62,-1347.92 566.62,-1347.92 566.62,-1354.08 566.62,-1354.08 566.62,-1357.17 563.54,-1360.25 560.46,-1360.25"/>
<text text-anchor="start" x="487.38" y="-1347.7" font-family="Helvetica,sans-Serif" font-size="9.00">OverlayOverlay.js</text>
</a>
</g>
</g>
<!-- src/js/overlay/Overlay.js&#45;&gt;src/js/overlay/overlay/OverlayOverlay.js -->
<g id="edge34" class="edge">
<title>src/js/overlay/Overlay.js&#45;&gt;src/js/overlay/overlay/OverlayOverlay.js</title>
<path fill="none" stroke="#000000" stroke-width="2" stroke-opacity="0.200000" d="M371.75,-1299.47C383.04,-1308.4 401.2,-1321.5 419,-1329 435.14,-1335.8 453.63,-1340.59 470.44,-1343.93"/>
<polygon fill="#000000" fill-opacity="0.200000" stroke="#000000" stroke-width="2" stroke-opacity="0.200000" points="469.8,-1345.94 476.09,-1344.98 470.57,-1341.81 469.8,-1345.94"/>
</g>
<!-- src/js/data/Data.json -->
<g id="node7" class="node">
<title>src/js/data/Data.json</title>
<g id="a_node7"><a xlink:href="src/js/data/Data.json" xlink:title="Data.json">
<path fill="#ffee44" stroke="black" d="M188.96,-661.25C188.96,-661.25 146.29,-661.25 146.29,-661.25 143.21,-661.25 140.12,-658.17 140.12,-655.08 140.12,-655.08 140.12,-648.92 140.12,-648.92 140.12,-645.83 143.21,-642.75 146.29,-642.75 146.29,-642.75 188.96,-642.75 188.96,-642.75 192.04,-642.75 195.12,-645.83 195.12,-648.92 195.12,-648.92 195.12,-655.08 195.12,-655.08 195.12,-658.17 192.04,-661.25 188.96,-661.25"/>
<text text-anchor="start" x="148.12" y="-648.7" font-family="Helvetica,sans-Serif" font-size="9.00">Data.json</text>
</a>
</g>
</g>
<!-- src/js/data/DataController.js -->
<g id="node8" class="node">
<title>src/js/data/DataController.js</title>
<g id="a_node8"><a xlink:href="src/js/data/DataController.js" xlink:title="DataController.js">
<path fill="#ffffcc" stroke="black" d="M110.08,-661.25C110.08,-661.25 38.17,-661.25 38.17,-661.25 35.08,-661.25 32,-658.17 32,-655.08 32,-655.08 32,-648.92 32,-648.92 32,-645.83 35.08,-642.75 38.17,-642.75 38.17,-642.75 110.08,-642.75 110.08,-642.75 113.17,-642.75 116.25,-645.83 116.25,-648.92 116.25,-648.92 116.25,-655.08 116.25,-655.08 116.25,-658.17 113.17,-661.25 110.08,-661.25"/>
<text text-anchor="start" x="40" y="-648.7" font-family="Helvetica,sans-Serif" font-size="9.00">DataController.js</text>
</a>
</g>
</g>
<!-- src/js/data/DataController.js&#45;&gt;src/js/data/Data.json -->
<g id="edge6" class="edge">
<title>src/js/data/DataController.js&#45;&gt;src/js/data/Data.json</title>
<path fill="none" stroke="#000000" stroke-width="2" stroke-opacity="0.200000" d="M116.59,-652C121.37,-652 126.22,-652 130.92,-652"/>
<polygon fill="#000000" fill-opacity="0.200000" stroke="#000000" stroke-width="2" stroke-opacity="0.200000" points="130.69,-654.1 136.69,-652 130.69,-649.9 130.69,-654.1"/>
</g>
<!-- src/js/directable/dotmatrix/view/ViewManager.js -->
<g id="node10" class="node">
<title>src/js/directable/dotmatrix/view/ViewManager.js</title>
<g id="a_node10"><a xlink:href="src/js/directable/dotmatrix/view/ViewManager.js" xlink:title="ViewManager.js">
<path fill="#ffffcc" stroke="black" d="M703.08,-66.25C703.08,-66.25 634.17,-66.25 634.17,-66.25 631.08,-66.25 628,-63.17 628,-60.08 628,-60.08 628,-53.92 628,-53.92 628,-50.83 631.08,-47.75 634.17,-47.75 634.17,-47.75 703.08,-47.75 703.08,-47.75 706.17,-47.75 709.25,-50.83 709.25,-53.92 709.25,-53.92 709.25,-60.08 709.25,-60.08 709.25,-63.17 706.17,-66.25 703.08,-66.25"/>
<text text-anchor="start" x="636" y="-53.7" font-family="Helvetica,sans-Serif" font-size="9.00">ViewManager.js</text>
</a>
</g>
</g>
<!-- src/js/directable/dotmatrix/DirectableDotMatrix.js&#45;&gt;src/js/directable/dotmatrix/view/ViewManager.js -->
<g id="edge7" class="edge">
<title>src/js/directable/dotmatrix/DirectableDotMatrix.js&#45;&gt;src/js/directable/dotmatrix/view/ViewManager.js</title>
<path fill="none" stroke="#000000" stroke-width="2" stroke-opacity="0.200000" d="M523.83,-384.3C523.62,-341.34 528.55,-166.22 619,-73 619.57,-72.41 620.16,-71.85 620.77,-71.31"/>
<polygon fill="#000000" fill-opacity="0.200000" stroke="#000000" stroke-width="2" stroke-opacity="0.200000" points="621.79,-73.16 625.47,-67.98 619.36,-69.73 621.79,-73.16"/>
</g>
<!-- src/js/directable/dotmatrix/dot/DotManager.js -->
<g id="node12" class="node">
<title>src/js/directable/dotmatrix/dot/DotManager.js</title>
<g id="a_node12"><a xlink:href="src/js/directable/dotmatrix/dot/DotManager.js" xlink:title="DotManager.js">
<path fill="#ffffcc" stroke="black" d="M828.71,-220.25C828.71,-220.25 765.79,-220.25 765.79,-220.25 762.71,-220.25 759.62,-217.17 759.62,-214.08 759.62,-214.08 759.62,-207.92 759.62,-207.92 759.62,-204.83 762.71,-201.75 765.79,-201.75 765.79,-201.75 828.71,-201.75 828.71,-201.75 831.79,-201.75 834.88,-204.83 834.88,-207.92 834.88,-207.92 834.88,-214.08 834.88,-214.08 834.88,-217.17 831.79,-220.25 828.71,-220.25"/>
<text text-anchor="start" x="767.62" y="-207.7" font-family="Helvetica,sans-Serif" font-size="9.00">DotManager.js</text>
</a>
</g>
</g>
<!-- src/js/directable/dotmatrix/view/ViewManager.js&#45;&gt;src/js/directable/dotmatrix/dot/DotManager.js -->
<g id="edge20" class="edge">
<title>src/js/directable/dotmatrix/view/ViewManager.js&#45;&gt;src/js/directable/dotmatrix/dot/DotManager.js</title>
<path fill="none" stroke="#000000" stroke-width="2" stroke-opacity="0.200000" d="M709.59,-61.6C716,-64.06 721.93,-67.69 726.25,-73 742.54,-93.06 718.63,-168.42 734.25,-189 738.67,-194.82 744.75,-199.1 751.39,-202.26"/>
<polygon fill="#000000" fill-opacity="0.200000" stroke="#000000" stroke-width="2" stroke-opacity="0.200000" points="750.21,-204.05 756.56,-204.34 751.77,-200.15 750.21,-204.05"/>
</g>
<!-- src/js/directable/dotmatrix/grid/GridData.js -->
<g id="node13" class="node">
<title>src/js/directable/dotmatrix/grid/GridData.js</title>
<g id="a_node13"><a xlink:href="src/js/directable/dotmatrix/grid/GridData.js" xlink:title="GridData.js">
<path fill="#ffffcc" stroke="black" d="M957.58,-97.25C957.58,-97.25 908.17,-97.25 908.17,-97.25 905.08,-97.25 902,-94.17 902,-91.08 902,-91.08 902,-84.92 902,-84.92 902,-81.83 905.08,-78.75 908.17,-78.75 908.17,-78.75 957.58,-78.75 957.58,-78.75 960.67,-78.75 963.75,-81.83 963.75,-84.92 963.75,-84.92 963.75,-91.08 963.75,-91.08 963.75,-94.17 960.67,-97.25 957.58,-97.25"/>
<text text-anchor="start" x="910" y="-84.7" font-family="Helvetica,sans-Serif" font-size="9.00">GridData.js</text>
</a>
</g>
</g>
<!-- src/js/directable/dotmatrix/view/ViewManager.js&#45;&gt;src/js/directable/dotmatrix/grid/GridData.js -->
<g id="edge21" class="edge">
<title>src/js/directable/dotmatrix/view/ViewManager.js&#45;&gt;src/js/directable/dotmatrix/grid/GridData.js</title>
<path fill="none" stroke="#000000" stroke-width="2" stroke-opacity="0.200000" d="M703.87,-66.7C718.46,-70.8 732.54,-74.71 734.25,-75 788.65,-84.26 852.52,-87.02 892.6,-87.79"/>
<polygon fill="#000000" fill-opacity="0.200000" stroke="#000000" stroke-width="2" stroke-opacity="0.200000" points="892.46,-89.89 898.49,-87.89 892.52,-85.69 892.46,-89.89"/>
</g>
<!-- src/js/directable/dotmatrix/shape/ShapeManager.js -->
<g id="node17" class="node">
<title>src/js/directable/dotmatrix/shape/ShapeManager.js</title>
<g id="a_node17"><a xlink:href="src/js/directable/dotmatrix/shape/ShapeManager.js" xlink:title="ShapeManager.js">
<path fill="#ffffcc" stroke="black" d="M835.08,-713.25C835.08,-713.25 759.42,-713.25 759.42,-713.25 756.33,-713.25 753.25,-710.17 753.25,-707.08 753.25,-707.08 753.25,-700.92 753.25,-700.92 753.25,-697.83 756.33,-694.75 759.42,-694.75 759.42,-694.75 835.08,-694.75 835.08,-694.75 838.17,-694.75 841.25,-697.83 841.25,-700.92 841.25,-700.92 841.25,-707.08 841.25,-707.08 841.25,-710.17 838.17,-713.25 835.08,-713.25"/>
<text text-anchor="start" x="761.25" y="-700.7" font-family="Helvetica,sans-Serif" font-size="9.00">ShapeManager.js</text>
</a>
</g>
</g>
<!-- src/js/directable/dotmatrix/view/ViewManager.js&#45;&gt;src/js/directable/dotmatrix/shape/ShapeManager.js -->
<g id="edge22" class="edge">
<title>src/js/directable/dotmatrix/view/ViewManager.js&#45;&gt;src/js/directable/dotmatrix/shape/ShapeManager.js</title>
<path fill="none" stroke="#000000" stroke-width="2" stroke-opacity="0.200000" d="M709.55,-61.29C716.05,-63.77 722.02,-67.49 726.25,-73 747.11,-100.2 712.67,-663.36 734.25,-690 737.17,-693.61 740.8,-696.4 744.84,-698.56"/>
<polygon fill="#000000" fill-opacity="0.200000" stroke="#000000" stroke-width="2" stroke-opacity="0.200000" points="743.87,-700.43 750.21,-700.81 745.48,-696.56 743.87,-700.43"/>
</g>
<!-- src/js/directable/dotmatrix/view/ViewTest.js -->
<g id="node38" class="node">
<title>src/js/directable/dotmatrix/view/ViewTest.js</title>
<g id="a_node38"><a xlink:href="src/js/directable/dotmatrix/view/ViewTest.js" xlink:title="ViewTest.js">
<path fill="#ffffcc" stroke="black" d="M821.96,-69.25C821.96,-69.25 772.54,-69.25 772.54,-69.25 769.46,-69.25 766.38,-66.17 766.38,-63.08 766.38,-63.08 766.38,-56.92 766.38,-56.92 766.38,-53.83 769.46,-50.75 772.54,-50.75 772.54,-50.75 821.96,-50.75 821.96,-50.75 825.04,-50.75 828.12,-53.83 828.12,-56.92 828.12,-56.92 828.12,-63.08 828.12,-63.08 828.12,-66.17 825.04,-69.25 821.96,-69.25"/>
<text text-anchor="start" x="774.38" y="-56.7" font-family="Helvetica,sans-Serif" font-size="9.00">ViewTest.js</text>
</a>
</g>
</g>
<!-- src/js/directable/dotmatrix/view/ViewManager.js&#45;&gt;src/js/directable/dotmatrix/view/ViewTest.js -->
<g id="edge23" class="edge">
<title>src/js/directable/dotmatrix/view/ViewManager.js&#45;&gt;src/js/directable/dotmatrix/view/ViewTest.js</title>
<path fill="none" stroke="#000000" stroke-width="2" stroke-opacity="0.200000" d="M709.69,-57.95C724.95,-58.31 742.31,-58.72 757.45,-59.08"/>
<polygon fill="#000000" fill-opacity="0.200000" stroke="#000000" stroke-width="2" stroke-opacity="0.200000" points="757.01,-61.17 763.05,-59.21 757.11,-56.97 757.01,-61.17"/>
</g>
<!-- src/js/directable/dotmatrix/dot/Dot.js -->
<g id="node11" class="node">
<title>src/js/directable/dotmatrix/dot/Dot.js</title>
<g id="a_node11"><a xlink:href="src/js/directable/dotmatrix/dot/Dot.js" xlink:title="Dot.js">
<path fill="#ffffcc" stroke="black" d="M953.71,-220.25C953.71,-220.25 912.04,-220.25 912.04,-220.25 908.96,-220.25 905.88,-217.17 905.88,-214.08 905.88,-214.08 905.88,-207.92 905.88,-207.92 905.88,-204.83 908.96,-201.75 912.04,-201.75 912.04,-201.75 953.71,-201.75 953.71,-201.75 956.79,-201.75 959.88,-204.83 959.88,-207.92 959.88,-207.92 959.88,-214.08 959.88,-214.08 959.88,-217.17 956.79,-220.25 953.71,-220.25"/>
<text text-anchor="start" x="921.25" y="-207.7" font-family="Helvetica,sans-Serif" font-size="9.00">Dot.js</text>
</a>
</g>
</g>
<!-- src/js/directable/dotmatrix/dot/DotManager.js&#45;&gt;src/js/directable/dotmatrix/dot/Dot.js -->
<g id="edge9" class="edge">
<title>src/js/directable/dotmatrix/dot/DotManager.js&#45;&gt;src/js/directable/dotmatrix/dot/Dot.js</title>
<path fill="none" stroke="#000000" stroke-width="2" stroke-opacity="0.200000" d="M835.12,-211C854.37,-211 877.8,-211 896.79,-211"/>
<polygon fill="#000000" fill-opacity="0.200000" stroke="#000000" stroke-width="2" stroke-opacity="0.200000" points="896.69,-213.1 902.69,-211 896.69,-208.9 896.69,-213.1"/>
</g>
<!-- src/js/directable/dotmatrix/dot/DotManager.js&#45;&gt;src/js/directable/dotmatrix/grid/GridData.js -->
<g id="edge8" class="edge">
<title>src/js/directable/dotmatrix/dot/DotManager.js&#45;&gt;src/js/directable/dotmatrix/grid/GridData.js</title>
<path fill="none" stroke="#000000" stroke-width="2" stroke-opacity="0.200000" d="M835.1,-202.31C841.73,-199.15 847.9,-194.85 852.25,-189 863.56,-173.77 847.71,-118.23 860.25,-104 868.45,-94.69 880.78,-90.15 892.9,-88.1"/>
<polygon fill="#000000" fill-opacity="0.200000" stroke="#000000" stroke-width="2" stroke-opacity="0.200000" points="892.93,-90.21 898.63,-87.38 892.41,-86.04 892.93,-90.21"/>
</g>
<!-- src/js/directable/dotmatrix/grid/GridRenderer.js -->
<g id="node14" class="node">
<title>src/js/directable/dotmatrix/grid/GridRenderer.js</title>
<g id="a_node14"><a xlink:href="src/js/directable/dotmatrix/grid/GridRenderer.js" xlink:title="GridRenderer.js">
<path fill="#ccffcc" stroke="black" d="M966.96,-128.25C966.96,-128.25 898.79,-128.25 898.79,-128.25 895.71,-128.25 892.62,-125.17 892.62,-122.08 892.62,-122.08 892.62,-115.92 892.62,-115.92 892.62,-112.83 895.71,-109.75 898.79,-109.75 898.79,-109.75 966.96,-109.75 966.96,-109.75 970.04,-109.75 973.12,-112.83 973.12,-115.92 973.12,-115.92 973.12,-122.08 973.12,-122.08 973.12,-125.17 970.04,-128.25 966.96,-128.25"/>
<text text-anchor="start" x="900.62" y="-115.7" font-family="Helvetica,sans-Serif" font-size="9.00">GridRenderer.js</text>
</a>
</g>
</g>
<!-- src/js/directable/dotmatrix/grid/GridRendererComponent.js -->
<g id="node15" class="node">
<title>src/js/directable/dotmatrix/grid/GridRendererComponent.js</title>
<g id="a_node15"><a xlink:href="src/js/directable/dotmatrix/grid/GridRendererComponent.js" xlink:title="GridRendererComponent.js">
<path fill="#ccffcc" stroke="black" d="M991.33,-159.25C991.33,-159.25 874.42,-159.25 874.42,-159.25 871.33,-159.25 868.25,-156.17 868.25,-153.08 868.25,-153.08 868.25,-146.92 868.25,-146.92 868.25,-143.83 871.33,-140.75 874.42,-140.75 874.42,-140.75 991.33,-140.75 991.33,-140.75 994.42,-140.75 997.5,-143.83 997.5,-146.92 997.5,-146.92 997.5,-153.08 997.5,-153.08 997.5,-156.17 994.42,-159.25 991.33,-159.25"/>
<text text-anchor="start" x="876.25" y="-146.7" font-family="Helvetica,sans-Serif" font-size="9.00">GridRendererComponent.js</text>
</a>
</g>
</g>
<!-- src/js/directable/dotmatrix/shape/Shape.js -->
<g id="node16" class="node">
<title>src/js/directable/dotmatrix/shape/Shape.js</title>
<g id="a_node16"><a xlink:href="src/js/directable/dotmatrix/shape/Shape.js" xlink:title="Shape.js">
<path fill="#ffffcc" stroke="black" d="M1077.33,-597.25C1077.33,-597.25 1035.67,-597.25 1035.67,-597.25 1032.58,-597.25 1029.5,-594.17 1029.5,-591.08 1029.5,-591.08 1029.5,-584.92 1029.5,-584.92 1029.5,-581.83 1032.58,-578.75 1035.67,-578.75 1035.67,-578.75 1077.33,-578.75 1077.33,-578.75 1080.42,-578.75 1083.5,-581.83 1083.5,-584.92 1083.5,-584.92 1083.5,-591.08 1083.5,-591.08 1083.5,-594.17 1080.42,-597.25 1077.33,-597.25"/>
<text text-anchor="start" x="1038.5" y="-584.7" font-family="Helvetica,sans-Serif" font-size="9.00">Shape.js</text>
</a>
</g>
</g>
<!-- src/js/directable/dotmatrix/shape/fill/FillStrategyType.js -->
<g id="node18" class="node">
<title>src/js/directable/dotmatrix/shape/fill/FillStrategyType.js</title>
<g id="a_node18"><a xlink:href="src/js/directable/dotmatrix/shape/fill/FillStrategyType.js" xlink:title="FillStrategyType.js">
<path fill="#ffffcc" stroke="black" d="M1189.33,-655.25C1189.33,-655.25 1110.67,-655.25 1110.67,-655.25 1107.58,-655.25 1104.5,-652.17 1104.5,-649.08 1104.5,-649.08 1104.5,-642.92 1104.5,-642.92 1104.5,-639.83 1107.58,-636.75 1110.67,-636.75 1110.67,-636.75 1189.33,-636.75 1189.33,-636.75 1192.42,-636.75 1195.5,-639.83 1195.5,-642.92 1195.5,-642.92 1195.5,-649.08 1195.5,-649.08 1195.5,-652.17 1192.42,-655.25 1189.33,-655.25"/>
<text text-anchor="start" x="1112.5" y="-642.7" font-family="Helvetica,sans-Serif" font-size="9.00">FillStrategyType.js</text>
</a>
</g>
</g>
<!-- src/js/directable/dotmatrix/shape/ShapeManager.js&#45;&gt;src/js/directable/dotmatrix/shape/fill/FillStrategyType.js -->
<g id="edge10" class="edge">
<title>src/js/directable/dotmatrix/shape/ShapeManager.js&#45;&gt;src/js/directable/dotmatrix/shape/fill/FillStrategyType.js</title>
<path fill="none" stroke="#000000" stroke-width="2" stroke-opacity="0.200000" d="M841.65,-698.25C845.69,-696.19 849.35,-693.5 852.25,-690 869.16,-669.59 841.61,-589.84 860.25,-571 932.62,-497.83 1000.86,-510.26 1091.5,-559 1118.59,-573.57 1135.04,-607.11 1143.05,-628.03"/>
<polygon fill="#000000" fill-opacity="0.200000" stroke="#000000" stroke-width="2" stroke-opacity="0.200000" points="1141.03,-628.6 1145.03,-633.53 1144.98,-627.18 1141.03,-628.6"/>
</g>
<!-- src/js/directable/dotmatrix/shape/fill/FillType.js -->
<g id="node19" class="node">
<title>src/js/directable/dotmatrix/shape/fill/FillType.js</title>
<g id="a_node19"><a xlink:href="src/js/directable/dotmatrix/shape/fill/FillType.js" xlink:title="FillType.js">
<path fill="#ffffcc" stroke="black" d="M1172.46,-686.25C1172.46,-686.25 1127.54,-686.25 1127.54,-686.25 1124.46,-686.25 1121.38,-683.17 1121.38,-680.08 1121.38,-680.08 1121.38,-673.92 1121.38,-673.92 1121.38,-670.83 1124.46,-667.75 1127.54,-667.75 1127.54,-667.75 1172.46,-667.75 1172.46,-667.75 1175.54,-667.75 1178.62,-670.83 1178.62,-673.92 1178.62,-673.92 1178.62,-680.08 1178.62,-680.08 1178.62,-683.17 1175.54,-686.25 1172.46,-686.25"/>
<text text-anchor="start" x="1129.38" y="-673.7" font-family="Helvetica,sans-Serif" font-size="9.00">FillType.js</text>
</a>
</g>
</g>
<!-- src/js/directable/dotmatrix/shape/ShapeManager.js&#45;&gt;src/js/directable/dotmatrix/shape/fill/FillType.js -->
<g id="edge11" class="edge">
<title>src/js/directable/dotmatrix/shape/ShapeManager.js&#45;&gt;src/js/directable/dotmatrix/shape/fill/FillType.js</title>
<path fill="none" stroke="#000000" stroke-width="2" stroke-opacity="0.200000" d="M841.51,-698.13C845.58,-696.1 849.28,-693.45 852.25,-690 874.14,-664.61 838.53,-640.54 860.25,-615 906,-561.2 943.51,-582.42 1013.5,-573 1047.86,-568.38 1065.26,-550.35 1091.5,-573 1121.43,-598.83 1079.45,-630.41 1104.5,-661 1106.9,-663.93 1109.88,-666.32 1113.15,-668.28"/>
<polygon fill="#000000" fill-opacity="0.200000" stroke="#000000" stroke-width="2" stroke-opacity="0.200000" points="1112.13,-670.12 1118.45,-670.79 1113.93,-666.32 1112.13,-670.12"/>
</g>
<!-- src/js/directable/dotmatrix/shape/line/ShapeLineHorizontal.js -->
<g id="node20" class="node">
<title>src/js/directable/dotmatrix/shape/line/ShapeLineHorizontal.js</title>
<g id="a_node20"><a xlink:href="src/js/directable/dotmatrix/shape/line/ShapeLineHorizontal.js" xlink:title="ShapeLineHorizontal.js">
<path fill="#ffffcc" stroke="black" d="M982.71,-644.25C982.71,-644.25 883.04,-644.25 883.04,-644.25 879.96,-644.25 876.88,-641.17 876.88,-638.08 876.88,-638.08 876.88,-631.92 876.88,-631.92 876.88,-628.83 879.96,-625.75 883.04,-625.75 883.04,-625.75 982.71,-625.75 982.71,-625.75 985.79,-625.75 988.88,-628.83 988.88,-631.92 988.88,-631.92 988.88,-638.08 988.88,-638.08 988.88,-641.17 985.79,-644.25 982.71,-644.25"/>
<text text-anchor="start" x="884.88" y="-631.7" font-family="Helvetica,sans-Serif" font-size="9.00">ShapeLineHorizontal.js</text>
</a>
</g>
</g>
<!-- src/js/directable/dotmatrix/shape/ShapeManager.js&#45;&gt;src/js/directable/dotmatrix/shape/line/ShapeLineHorizontal.js -->
<g id="edge12" class="edge">
<title>src/js/directable/dotmatrix/shape/ShapeManager.js&#45;&gt;src/js/directable/dotmatrix/shape/line/ShapeLineHorizontal.js</title>
<path fill="none" stroke="#000000" stroke-width="2" stroke-opacity="0.200000" d="M841.71,-697.59C845.63,-695.64 849.25,-693.16 852.25,-690 864.44,-677.17 847.85,-663.62 860.25,-651 862.74,-648.47 865.54,-646.29 868.55,-644.43"/>
<polygon fill="#000000" fill-opacity="0.200000" stroke="#000000" stroke-width="2" stroke-opacity="0.200000" points="869.32,-646.4 873.71,-641.81 867.41,-642.66 869.32,-646.4"/>
</g>
<!-- src/js/directable/dotmatrix/shape/line/ShapeLineHorizontal.js&#45;&gt;src/js/directable/dotmatrix/shape/Shape.js -->
<g id="edge19" class="edge">
<title>src/js/directable/dotmatrix/shape/line/ShapeLineHorizontal.js&#45;&gt;src/js/directable/dotmatrix/shape/Shape.js</title>
<path fill="none" stroke="#000000" stroke-width="2" stroke-opacity="0.200000" d="M989.28,-630.41C995.09,-628.37 1000.65,-625.64 1005.5,-622 1011.86,-617.23 1007.72,-611.45 1013.5,-606 1015.89,-603.74 1018.61,-601.75 1021.49,-599.99"/>
<polygon fill="#000000" fill-opacity="0.200000" stroke="#000000" stroke-width="2" stroke-opacity="0.200000" points="1022.34,-601.91 1026.67,-597.26 1020.38,-598.19 1022.34,-601.91"/>
</g>
<!-- src/js/directable/dotmatrix/shape/line/ShapeLineHorizontal.js&#45;&gt;src/js/directable/dotmatrix/shape/fill/FillStrategyType.js -->
<g id="edge17" class="edge">
<title>src/js/directable/dotmatrix/shape/line/ShapeLineHorizontal.js&#45;&gt;src/js/directable/dotmatrix/shape/fill/FillStrategyType.js</title>
<path fill="none" stroke="#000000" stroke-width="2" stroke-opacity="0.200000" d="M989.08,-625.35C994.64,-624.27 1000.19,-623.14 1005.5,-622 1009.08,-621.23 1009.86,-620.45 1013.5,-620 1047.91,-615.76 1057.61,-612.69 1091.5,-620 1102.88,-622.45 1114.72,-627.35 1124.67,-632.24"/>
<polygon fill="#000000" fill-opacity="0.200000" stroke="#000000" stroke-width="2" stroke-opacity="0.200000" points="1123.56,-634.02 1129.85,-634.9 1125.48,-630.29 1123.56,-634.02"/>
</g>
<!-- src/js/directable/dotmatrix/shape/line/ShapeLineHorizontal.js&#45;&gt;src/js/directable/dotmatrix/shape/fill/FillType.js -->
<g id="edge18" class="edge">
<title>src/js/directable/dotmatrix/shape/line/ShapeLineHorizontal.js&#45;&gt;src/js/directable/dotmatrix/shape/fill/FillType.js</title>
<path fill="none" stroke="#000000" stroke-width="2" stroke-opacity="0.200000" d="M989.33,-627.07C1027.87,-622.77 1075.14,-620.26 1091.5,-631 1103.65,-638.98 1093.9,-651.06 1104.5,-661 1107.05,-663.4 1109.99,-665.44 1113.12,-667.18"/>
<polygon fill="#000000" fill-opacity="0.200000" stroke="#000000" stroke-width="2" stroke-opacity="0.200000" points="1112.08,-669.01 1118.4,-669.63 1113.85,-665.2 1112.08,-669.01"/>
</g>
<!-- src/js/directable/dotmatrix/shape/fill/Fill.js -->
<g id="node21" class="node">
<title>src/js/directable/dotmatrix/shape/fill/Fill.js</title>
<g id="a_node21"><a xlink:href="src/js/directable/dotmatrix/shape/fill/Fill.js" xlink:title="Fill.js">
<path fill="#ffffcc" stroke="black" d="M1077.33,-686.25C1077.33,-686.25 1035.67,-686.25 1035.67,-686.25 1032.58,-686.25 1029.5,-683.17 1029.5,-680.08 1029.5,-680.08 1029.5,-673.92 1029.5,-673.92 1029.5,-670.83 1032.58,-667.75 1035.67,-667.75 1035.67,-667.75 1077.33,-667.75 1077.33,-667.75 1080.42,-667.75 1083.5,-670.83 1083.5,-673.92 1083.5,-673.92 1083.5,-680.08 1083.5,-680.08 1083.5,-683.17 1080.42,-686.25 1077.33,-686.25"/>
<text text-anchor="start" x="1046" y="-673.7" font-family="Helvetica,sans-Serif" font-size="9.00">Fill.js</text>
</a>
</g>
</g>
<!-- src/js/directable/dotmatrix/shape/line/ShapeLineHorizontal.js&#45;&gt;src/js/directable/dotmatrix/shape/fill/Fill.js -->
<g id="edge15" class="edge">
<title>src/js/directable/dotmatrix/shape/line/ShapeLineHorizontal.js&#45;&gt;src/js/directable/dotmatrix/shape/fill/Fill.js</title>
<path fill="none" stroke="#000000" stroke-width="2" stroke-opacity="0.200000" d="M989.36,-643.37C995.03,-645.39 1000.53,-647.9 1005.5,-651 1010.33,-654.01 1008.9,-657.65 1013.5,-661 1015.83,-662.7 1018.37,-664.24 1021,-665.64"/>
<polygon fill="#000000" fill-opacity="0.200000" stroke="#000000" stroke-width="2" stroke-opacity="0.200000" points="1020,-667.49 1026.33,-668.12 1021.77,-663.68 1020,-667.49"/>
</g>
<!-- src/js/directable/dotmatrix/shape/fill/FillStrategy.js -->
<g id="node22" class="node">
<title>src/js/directable/dotmatrix/shape/fill/FillStrategy.js</title>
<g id="a_node22"><a xlink:href="src/js/directable/dotmatrix/shape/fill/FillStrategy.js" xlink:title="FillStrategy.js">
<path fill="#ffffcc" stroke="black" d="M1085.33,-655.25C1085.33,-655.25 1027.67,-655.25 1027.67,-655.25 1024.58,-655.25 1021.5,-652.17 1021.5,-649.08 1021.5,-649.08 1021.5,-642.92 1021.5,-642.92 1021.5,-639.83 1024.58,-636.75 1027.67,-636.75 1027.67,-636.75 1085.33,-636.75 1085.33,-636.75 1088.42,-636.75 1091.5,-639.83 1091.5,-642.92 1091.5,-642.92 1091.5,-649.08 1091.5,-649.08 1091.5,-652.17 1088.42,-655.25 1085.33,-655.25"/>
<text text-anchor="start" x="1029.5" y="-642.7" font-family="Helvetica,sans-Serif" font-size="9.00">FillStrategy.js</text>
</a>
</g>
</g>
<!-- src/js/directable/dotmatrix/shape/line/ShapeLineHorizontal.js&#45;&gt;src/js/directable/dotmatrix/shape/fill/FillStrategy.js -->
<g id="edge16" class="edge">
<title>src/js/directable/dotmatrix/shape/line/ShapeLineHorizontal.js&#45;&gt;src/js/directable/dotmatrix/shape/fill/FillStrategy.js</title>
<path fill="none" stroke="#000000" stroke-width="2" stroke-opacity="0.200000" d="M989.35,-640.02C997.18,-640.73 1005.14,-641.45 1012.69,-642.13"/>
<polygon fill="#000000" fill-opacity="0.200000" stroke="#000000" stroke-width="2" stroke-opacity="0.200000" points="1012.15,-644.19 1018.31,-642.64 1012.53,-640 1012.15,-644.19"/>
</g>
<!-- src/js/directable/dotmatrix/shape/fill/Fill.js&#45;&gt;src/js/directable/dotmatrix/shape/fill/FillType.js -->
<g id="edge13" class="edge">
<title>src/js/directable/dotmatrix/shape/fill/Fill.js&#45;&gt;src/js/directable/dotmatrix/shape/fill/FillType.js</title>
<path fill="none" stroke="#000000" stroke-width="2" stroke-opacity="0.200000" d="M1083.97,-677C1092.77,-677 1102.73,-677 1112.17,-677"/>
<polygon fill="#000000" fill-opacity="0.200000" stroke="#000000" stroke-width="2" stroke-opacity="0.200000" points="1111.97,-679.1 1117.97,-677 1111.97,-674.9 1111.97,-679.1"/>
</g>
<!-- src/js/directable/dotmatrix/shape/fill/FillStrategy.js&#45;&gt;src/js/directable/dotmatrix/shape/fill/FillStrategyType.js -->
<g id="edge14" class="edge">
<title>src/js/directable/dotmatrix/shape/fill/FillStrategy.js&#45;&gt;src/js/directable/dotmatrix/shape/fill/FillStrategyType.js</title>
<path fill="none" stroke="#000000" stroke-width="2" stroke-opacity="0.200000" d="M1091.83,-646C1092.97,-646 1094.12,-646 1095.28,-646"/>
<polygon fill="#000000" fill-opacity="0.200000" stroke="#000000" stroke-width="2" stroke-opacity="0.200000" points="1095.22,-648.1 1101.22,-646 1095.22,-643.9 1095.22,-648.1"/>
</g>
<!-- src/js/directable/dotmatrix/shape/glyph/ShapeGlyph_A.js -->
<g id="node23" class="node">
<title>src/js/directable/dotmatrix/shape/glyph/ShapeGlyph_A.js</title>
<g id="a_node23"><a xlink:href="src/js/directable/dotmatrix/shape/glyph/ShapeGlyph_A.js" xlink:title="ShapeGlyph_A.js">
<path fill="#ccffcc" stroke="black" d="M834.71,-289.25C834.71,-289.25 759.79,-289.25 759.79,-289.25 756.71,-289.25 753.62,-286.17 753.62,-283.08 753.62,-283.08 753.62,-276.92 753.62,-276.92 753.62,-273.83 756.71,-270.75 759.79,-270.75 759.79,-270.75 834.71,-270.75 834.71,-270.75 837.79,-270.75 840.88,-273.83 840.88,-276.92 840.88,-276.92 840.88,-283.08 840.88,-283.08 840.88,-286.17 837.79,-289.25 834.71,-289.25"/>
<text text-anchor="start" x="761.62" y="-276.7" font-family="Helvetica,sans-Serif" font-size="9.00">ShapeGlyph_A.js</text>
</a>
</g>
</g>
<!-- src/js/directable/dotmatrix/shape/glyph/ShapeGlyph_B.js -->
<g id="node24" class="node">
<title>src/js/directable/dotmatrix/shape/glyph/ShapeGlyph_B.js</title>
<g id="a_node24"><a xlink:href="src/js/directable/dotmatrix/shape/glyph/ShapeGlyph_B.js" xlink:title="ShapeGlyph_B.js">
<path fill="#ccffcc" stroke="black" d="M834.71,-320.25C834.71,-320.25 759.79,-320.25 759.79,-320.25 756.71,-320.25 753.62,-317.17 753.62,-314.08 753.62,-314.08 753.62,-307.92 753.62,-307.92 753.62,-304.83 756.71,-301.75 759.79,-301.75 759.79,-301.75 834.71,-301.75 834.71,-301.75 837.79,-301.75 840.88,-304.83 840.88,-307.92 840.88,-307.92 840.88,-314.08 840.88,-314.08 840.88,-317.17 837.79,-320.25 834.71,-320.25"/>
<text text-anchor="start" x="761.62" y="-307.7" font-family="Helvetica,sans-Serif" font-size="9.00">ShapeGlyph_B.js</text>
</a>
</g>
</g>
<!-- src/js/directable/dotmatrix/shape/glyph/ShapeGlyph_C.js -->
<g id="node25" class="node">
<title>src/js/directable/dotmatrix/shape/glyph/ShapeGlyph_C.js</title>
<g id="a_node25"><a xlink:href="src/js/directable/dotmatrix/shape/glyph/ShapeGlyph_C.js" xlink:title="ShapeGlyph_C.js">
<path fill="#ccffcc" stroke="black" d="M835.08,-351.25C835.08,-351.25 759.42,-351.25 759.42,-351.25 756.33,-351.25 753.25,-348.17 753.25,-345.08 753.25,-345.08 753.25,-338.92 753.25,-338.92 753.25,-335.83 756.33,-332.75 759.42,-332.75 759.42,-332.75 835.08,-332.75 835.08,-332.75 838.17,-332.75 841.25,-335.83 841.25,-338.92 841.25,-338.92 841.25,-345.08 841.25,-345.08 841.25,-348.17 838.17,-351.25 835.08,-351.25"/>
<text text-anchor="start" x="761.25" y="-338.7" font-family="Helvetica,sans-Serif" font-size="9.00">ShapeGlyph_C.js</text>
</a>
</g>
</g>
<!-- src/js/directable/dotmatrix/shape/glyph/ShapeGlyph_D.js -->
<g id="node26" class="node">
<title>src/js/directable/dotmatrix/shape/glyph/ShapeGlyph_D.js</title>
<g id="a_node26"><a xlink:href="src/js/directable/dotmatrix/shape/glyph/ShapeGlyph_D.js" xlink:title="ShapeGlyph_D.js">
<path fill="#ccffcc" stroke="black" d="M835.08,-382.25C835.08,-382.25 759.42,-382.25 759.42,-382.25 756.33,-382.25 753.25,-379.17 753.25,-376.08 753.25,-376.08 753.25,-369.92 753.25,-369.92 753.25,-366.83 756.33,-363.75 759.42,-363.75 759.42,-363.75 835.08,-363.75 835.08,-363.75 838.17,-363.75 841.25,-366.83 841.25,-369.92 841.25,-369.92 841.25,-376.08 841.25,-376.08 841.25,-379.17 838.17,-382.25 835.08,-382.25"/>
<text text-anchor="start" x="761.25" y="-369.7" font-family="Helvetica,sans-Serif" font-size="9.00">ShapeGlyph_D.js</text>
</a>
</g>
</g>
<!-- src/js/directable/dotmatrix/shape/glyph/ShapeGlyph_E.js -->
<g id="node27" class="node">
<title>src/js/directable/dotmatrix/shape/glyph/ShapeGlyph_E.js</title>
<g id="a_node27"><a xlink:href="src/js/directable/dotmatrix/shape/glyph/ShapeGlyph_E.js" xlink:title="ShapeGlyph_E.js">
<path fill="#ccffcc" stroke="black" d="M834.71,-413.25C834.71,-413.25 759.79,-413.25 759.79,-413.25 756.71,-413.25 753.62,-410.17 753.62,-407.08 753.62,-407.08 753.62,-400.92 753.62,-400.92 753.62,-397.83 756.71,-394.75 759.79,-394.75 759.79,-394.75 834.71,-394.75 834.71,-394.75 837.79,-394.75 840.88,-397.83 840.88,-400.92 840.88,-400.92 840.88,-407.08 840.88,-407.08 840.88,-410.17 837.79,-413.25 834.71,-413.25"/>
<text text-anchor="start" x="761.62" y="-400.7" font-family="Helvetica,sans-Serif" font-size="9.00">ShapeGlyph_E.js</text>
</a>
</g>
</g>
<!-- src/js/directable/dotmatrix/shape/glyph/ShapeGlyph_F.js -->
<g id="node28" class="node">
<title>src/js/directable/dotmatrix/shape/glyph/ShapeGlyph_F.js</title>
<g id="a_node28"><a xlink:href="src/js/directable/dotmatrix/shape/glyph/ShapeGlyph_F.js" xlink:title="ShapeGlyph_F.js">
<path fill="#ccffcc" stroke="black" d="M833.96,-444.25C833.96,-444.25 760.54,-444.25 760.54,-444.25 757.46,-444.25 754.38,-441.17 754.38,-438.08 754.38,-438.08 754.38,-431.92 754.38,-431.92 754.38,-428.83 757.46,-425.75 760.54,-425.75 760.54,-425.75 833.96,-425.75 833.96,-425.75 837.04,-425.75 840.12,-428.83 840.12,-431.92 840.12,-431.92 840.12,-438.08 840.12,-438.08 840.12,-441.17 837.04,-444.25 833.96,-444.25"/>
<text text-anchor="start" x="762.38" y="-431.7" font-family="Helvetica,sans-Serif" font-size="9.00">ShapeGlyph_F.js</text>
</a>
</g>
</g>
<!-- src/js/directable/dotmatrix/shape/glyph/ShapeGlyph_G.js -->
<g id="node29" class="node">
<title>src/js/directable/dotmatrix/shape/glyph/ShapeGlyph_G.js</title>
<g id="a_node29"><a xlink:href="src/js/directable/dotmatrix/shape/glyph/ShapeGlyph_G.js" xlink:title="ShapeGlyph_G.js">
<path fill="#ccffcc" stroke="black" d="M835.08,-475.25C835.08,-475.25 759.42,-475.25 759.42,-475.25 756.33,-475.25 753.25,-472.17 753.25,-469.08 753.25,-469.08 753.25,-462.92 753.25,-462.92 753.25,-459.83 756.33,-456.75 759.42,-456.75 759.42,-456.75 835.08,-456.75 835.08,-456.75 838.17,-456.75 841.25,-459.83 841.25,-462.92 841.25,-462.92 841.25,-469.08 841.25,-469.08 841.25,-472.17 838.17,-475.25 835.08,-475.25"/>
<text text-anchor="start" x="761.25" y="-462.7" font-family="Helvetica,sans-Serif" font-size="9.00">ShapeGlyph_G.js</text>
</a>
</g>
</g>
<!-- src/js/directable/dotmatrix/shape/glyph/ShapeGlyph_H.js -->
<g id="node30" class="node">
<title>src/js/directable/dotmatrix/shape/glyph/ShapeGlyph_H.js</title>
<g id="a_node30"><a xlink:href="src/js/directable/dotmatrix/shape/glyph/ShapeGlyph_H.js" xlink:title="ShapeGlyph_H.js">
<path fill="#ccffcc" stroke="black" d="M835.08,-506.25C835.08,-506.25 759.42,-506.25 759.42,-506.25 756.33,-506.25 753.25,-503.17 753.25,-500.08 753.25,-500.08 753.25,-493.92 753.25,-493.92 753.25,-490.83 756.33,-487.75 759.42,-487.75 759.42,-487.75 835.08,-487.75 835.08,-487.75 838.17,-487.75 841.25,-490.83 841.25,-493.92 841.25,-493.92 841.25,-500.08 841.25,-500.08 841.25,-503.17 838.17,-506.25 835.08,-506.25"/>
<text text-anchor="start" x="761.25" y="-493.7" font-family="Helvetica,sans-Serif" font-size="9.00">ShapeGlyph_H.js</text>
</a>
</g>
</g>
<!-- src/js/directable/dotmatrix/shape/glyph/ShapeGlyph_I.js -->
<g id="node31" class="node">
<title>src/js/directable/dotmatrix/shape/glyph/ShapeGlyph_I.js</title>
<g id="a_node31"><a xlink:href="src/js/directable/dotmatrix/shape/glyph/ShapeGlyph_I.js" xlink:title="ShapeGlyph_I.js">
<path fill="#ccffcc" stroke="black" d="M832.83,-537.25C832.83,-537.25 761.67,-537.25 761.67,-537.25 758.58,-537.25 755.5,-534.17 755.5,-531.08 755.5,-531.08 755.5,-524.92 755.5,-524.92 755.5,-521.83 758.58,-518.75 761.67,-518.75 761.67,-518.75 832.83,-518.75 832.83,-518.75 835.92,-518.75 839,-521.83 839,-524.92 839,-524.92 839,-531.08 839,-531.08 839,-534.17 835.92,-537.25 832.83,-537.25"/>
<text text-anchor="start" x="763.5" y="-524.7" font-family="Helvetica,sans-Serif" font-size="9.00">ShapeGlyph_I.js</text>
</a>
</g>
</g>
<!-- src/js/directable/dotmatrix/shape/glyph/ShapeGlyph_J.js -->
<g id="node32" class="node">
<title>src/js/directable/dotmatrix/shape/glyph/ShapeGlyph_J.js</title>
<g id="a_node32"><a xlink:href="src/js/directable/dotmatrix/shape/glyph/ShapeGlyph_J.js" xlink:title="ShapeGlyph_J.js">
<path fill="#ccffcc" stroke="black" d="M833.96,-568.25C833.96,-568.25 760.54,-568.25 760.54,-568.25 757.46,-568.25 754.38,-565.17 754.38,-562.08 754.38,-562.08 754.38,-555.92 754.38,-555.92 754.38,-552.83 757.46,-549.75 760.54,-549.75 760.54,-549.75 833.96,-549.75 833.96,-549.75 837.04,-549.75 840.12,-552.83 840.12,-555.92 840.12,-555.92 840.12,-562.08 840.12,-562.08 840.12,-565.17 837.04,-568.25 833.96,-568.25"/>
<text text-anchor="start" x="762.38" y="-555.7" font-family="Helvetica,sans-Serif" font-size="9.00">ShapeGlyph_J.js</text>
</a>
</g>
</g>
<!-- src/js/directable/dotmatrix/shape/glyph/ShapeGlyph_K.js -->
<g id="node33" class="node">
<title>src/js/directable/dotmatrix/shape/glyph/ShapeGlyph_K.js</title>
<g id="a_node33"><a xlink:href="src/js/directable/dotmatrix/shape/glyph/ShapeGlyph_K.js" xlink:title="ShapeGlyph_K.js">
<path fill="#ccffcc" stroke="black" d="M834.71,-599.25C834.71,-599.25 759.79,-599.25 759.79,-599.25 756.71,-599.25 753.62,-596.17 753.62,-593.08 753.62,-593.08 753.62,-586.92 753.62,-586.92 753.62,-583.83 756.71,-580.75 759.79,-580.75 759.79,-580.75 834.71,-580.75 834.71,-580.75 837.79,-580.75 840.88,-583.83 840.88,-586.92 840.88,-586.92 840.88,-593.08 840.88,-593.08 840.88,-596.17 837.79,-599.25 834.71,-599.25"/>
<text text-anchor="start" x="761.62" y="-586.7" font-family="Helvetica,sans-Serif" font-size="9.00">ShapeGlyph_K.js</text>
</a>
</g>
</g>
<!-- src/js/directable/dotmatrix/shape/line/ShapeLineVertical.js -->
<g id="node34" class="node">
<title>src/js/directable/dotmatrix/shape/line/ShapeLineVertical.js</title>
<g id="a_node34"><a xlink:href="src/js/directable/dotmatrix/shape/line/ShapeLineVertical.js" xlink:title="ShapeLineVertical.js">
<path fill="#ccffcc" stroke="black" d="M976.71,-675.25C976.71,-675.25 889.04,-675.25 889.04,-675.25 885.96,-675.25 882.88,-672.17 882.88,-669.08 882.88,-669.08 882.88,-662.92 882.88,-662.92 882.88,-659.83 885.96,-656.75 889.04,-656.75 889.04,-656.75 976.71,-656.75 976.71,-656.75 979.79,-656.75 982.88,-659.83 982.88,-662.92 982.88,-662.92 982.88,-669.08 982.88,-669.08 982.88,-672.17 979.79,-675.25 976.71,-675.25"/>
<text text-anchor="start" x="890.88" y="-662.7" font-family="Helvetica,sans-Serif" font-size="9.00">ShapeLineVertical.js</text>
</a>
</g>
</g>
<!-- src/js/directable/dotmatrix/shape/primative/ShapeRectangle.js -->
<g id="node35" class="node">
<title>src/js/directable/dotmatrix/shape/primative/ShapeRectangle.js</title>
<g id="a_node35"><a xlink:href="src/js/directable/dotmatrix/shape/primative/ShapeRectangle.js" xlink:title="ShapeRectangle.js">
<path fill="#ccffcc" stroke="black" d="M838.08,-660.25C838.08,-660.25 756.42,-660.25 756.42,-660.25 753.33,-660.25 750.25,-657.17 750.25,-654.08 750.25,-654.08 750.25,-647.92 750.25,-647.92 750.25,-644.83 753.33,-641.75 756.42,-641.75 756.42,-641.75 838.08,-641.75 838.08,-641.75 841.17,-641.75 844.25,-644.83 844.25,-647.92 844.25,-647.92 844.25,-654.08 844.25,-654.08 844.25,-657.17 841.17,-660.25 838.08,-660.25"/>
<text text-anchor="start" x="758.25" y="-647.7" font-family="Helvetica,sans-Serif" font-size="9.00">ShapeRectangle.js</text>
</a>
</g>
</g>
<!-- src/js/directable/dotmatrix/view/View.js -->
<g id="node36" class="node">
<title>src/js/directable/dotmatrix/view/View.js</title>
<g id="a_node36"><a xlink:href="src/js/directable/dotmatrix/view/View.js" xlink:title="View.js">
<path fill="#ffffcc" stroke="black" d="M689.46,-97.25C689.46,-97.25 647.79,-97.25 647.79,-97.25 644.71,-97.25 641.62,-94.17 641.62,-91.08 641.62,-91.08 641.62,-84.92 641.62,-84.92 641.62,-81.83 644.71,-78.75 647.79,-78.75 647.79,-78.75 689.46,-78.75 689.46,-78.75 692.54,-78.75 695.62,-81.83 695.62,-84.92 695.62,-84.92 695.62,-91.08 695.62,-91.08 695.62,-94.17 692.54,-97.25 689.46,-97.25"/>
<text text-anchor="start" x="654.38" y="-84.7" font-family="Helvetica,sans-Serif" font-size="9.00">View.js</text>
</a>
</g>
</g>
<!-- src/js/directable/dotmatrix/view/ViewFloor.js -->
<g id="node37" class="node">
<title>src/js/directable/dotmatrix/view/ViewFloor.js</title>
<g id="a_node37"><a xlink:href="src/js/directable/dotmatrix/view/ViewFloor.js" xlink:title="ViewFloor.js">
<path fill="#ccffcc" stroke="black" d="M695.21,-128.25C695.21,-128.25 642.04,-128.25 642.04,-128.25 638.96,-128.25 635.88,-125.17 635.88,-122.08 635.88,-122.08 635.88,-115.92 635.88,-115.92 635.88,-112.83 638.96,-109.75 642.04,-109.75 642.04,-109.75 695.21,-109.75 695.21,-109.75 698.29,-109.75 701.38,-112.83 701.38,-115.92 701.38,-115.92 701.38,-122.08 701.38,-122.08 701.38,-125.17 698.29,-128.25 695.21,-128.25"/>
<text text-anchor="start" x="643.88" y="-115.7" font-family="Helvetica,sans-Serif" font-size="9.00">ViewFloor.js</text>
</a>
</g>
</g>
<!-- src/js/directable/dotmatrix/view/ViewTest.js&#45;&gt;src/js/directable/dotmatrix/grid/GridData.js -->
<g id="edge24" class="edge">
<title>src/js/directable/dotmatrix/view/ViewTest.js&#45;&gt;src/js/directable/dotmatrix/grid/GridData.js</title>
<path fill="none" stroke="#000000" stroke-width="2" stroke-opacity="0.200000" d="M828.57,-66.35C847.62,-70.35 872.38,-75.53 892.88,-79.83"/>
<polygon fill="#000000" fill-opacity="0.200000" stroke="#000000" stroke-width="2" stroke-opacity="0.200000" points="892.41,-81.88 898.71,-81.05 893.27,-77.76 892.41,-81.88"/>
</g>
<!-- src/js/directable/dotmatrix/view/ViewTest.js&#45;&gt;src/js/directable/dotmatrix/shape/fill/FillStrategyType.js -->
<g id="edge25" class="edge">
<title>src/js/directable/dotmatrix/view/ViewTest.js&#45;&gt;src/js/directable/dotmatrix/shape/fill/FillStrategyType.js</title>
<path fill="none" stroke="#000000" stroke-width="2" stroke-opacity="0.200000" d="M822.13,-50.4C877.46,-29.89 1015.51,10.92 1091.5,-58 1134.79,-97.27 1146.58,-532.75 1148.64,-627.76"/>
<polygon fill="#000000" fill-opacity="0.200000" stroke="#000000" stroke-width="2" stroke-opacity="0.200000" points="1146.53,-627.56 1148.76,-633.51 1150.73,-627.47 1146.53,-627.56"/>
</g>
<!-- src/js/directable/dotmatrix/view/ViewTest.js&#45;&gt;src/js/directable/dotmatrix/shape/fill/FillType.js -->
<g id="edge26" class="edge">
<title>src/js/directable/dotmatrix/view/ViewTest.js&#45;&gt;src/js/directable/dotmatrix/shape/fill/FillType.js</title>
<path fill="none" stroke="#000000" stroke-width="2" stroke-opacity="0.200000" d="M828.28,-52.14C871.42,-42.7 951.65,-32.25 1005.5,-68 1080.7,-117.93 1070.53,-164.2 1091.5,-252 1096.78,-274.11 1091.13,-642.61 1104.5,-661 1106.84,-664.22 1109.9,-666.8 1113.32,-668.86"/>
<polygon fill="#000000" fill-opacity="0.200000" stroke="#000000" stroke-width="2" stroke-opacity="0.200000" points="1112.16,-670.64 1118.48,-671.3 1113.95,-666.84 1112.16,-670.64"/>
</g>
<!-- src/js/directable/dotmatrix/view/ViewTextTest.js -->
<g id="node39" class="node">
<title>src/js/directable/dotmatrix/view/ViewTextTest.js</title>
<g id="a_node39"><a xlink:href="src/js/directable/dotmatrix/view/ViewTextTest.js" xlink:title="ViewTextTest.js">
<path fill="#ccffcc" stroke="black" d="M701.58,-159.25C701.58,-159.25 635.67,-159.25 635.67,-159.25 632.58,-159.25 629.5,-156.17 629.5,-153.08 629.5,-153.08 629.5,-146.92 629.5,-146.92 629.5,-143.83 632.58,-140.75 635.67,-140.75 635.67,-140.75 701.58,-140.75 701.58,-140.75 704.67,-140.75 707.75,-143.83 707.75,-146.92 707.75,-146.92 707.75,-153.08 707.75,-153.08 707.75,-156.17 704.67,-159.25 701.58,-159.25"/>
<text text-anchor="start" x="637.5" y="-146.7" font-family="Helvetica,sans-Serif" font-size="9.00">ViewTextTest.js</text>
</a>
</g>
</g>
<!-- src/js/directable/frame/DirectableFrame.js -->
<g id="node40" class="node">
<title>src/js/directable/frame/DirectableFrame.js</title>
<g id="a_node40"><a xlink:href="src/js/directable/frame/DirectableFrame.js" xlink:title="DirectableFrame.js">
<path fill="#ffffcc" stroke="black" d="M563.46,-801.25C563.46,-801.25 482.54,-801.25 482.54,-801.25 479.46,-801.25 476.38,-798.17 476.38,-795.08 476.38,-795.08 476.38,-788.92 476.38,-788.92 476.38,-785.83 479.46,-782.75 482.54,-782.75 482.54,-782.75 563.46,-782.75 563.46,-782.75 566.54,-782.75 569.62,-785.83 569.62,-788.92 569.62,-788.92 569.62,-795.08 569.62,-795.08 569.62,-798.17 566.54,-801.25 563.46,-801.25"/>
<text text-anchor="start" x="484.38" y="-788.7" font-family="Helvetica,sans-Serif" font-size="9.00">DirectableFrame.js</text>
</a>
</g>
</g>
<!-- src/js/directable/rhythm/DirectableRhythm.js -->
<g id="node41" class="node">
<title>src/js/directable/rhythm/DirectableRhythm.js</title>
<g id="a_node41"><a xlink:href="src/js/directable/rhythm/DirectableRhythm.js" xlink:title="DirectableRhythm.js">
<path fill="#ffffcc" stroke="black" d="M711.71,-993.25C711.71,-993.25 625.54,-993.25 625.54,-993.25 622.46,-993.25 619.38,-990.17 619.38,-987.08 619.38,-987.08 619.38,-980.92 619.38,-980.92 619.38,-977.83 622.46,-974.75 625.54,-974.75 625.54,-974.75 711.71,-974.75 711.71,-974.75 714.79,-974.75 717.88,-977.83 717.88,-980.92 717.88,-980.92 717.88,-987.08 717.88,-987.08 717.88,-990.17 714.79,-993.25 711.71,-993.25"/>
<text text-anchor="start" x="627.38" y="-980.7" font-family="Helvetica,sans-Serif" font-size="9.00">DirectableRhythm.js</text>
</a>
</g>
</g>
<!-- src/js/directable/rhythm/asdr/ASDRData.js -->
<g id="node42" class="node">
<title>src/js/directable/rhythm/asdr/ASDRData.js</title>
<g id="a_node42"><a xlink:href="src/js/directable/rhythm/asdr/ASDRData.js" xlink:title="ASDRData.js">
<path fill="#ccffcc" stroke="black" d="M551.83,-870.25C551.83,-870.25 494.17,-870.25 494.17,-870.25 491.08,-870.25 488,-867.17 488,-864.08 488,-864.08 488,-857.92 488,-857.92 488,-854.83 491.08,-851.75 494.17,-851.75 494.17,-851.75 551.83,-851.75 551.83,-851.75 554.92,-851.75 558,-854.83 558,-857.92 558,-857.92 558,-864.08 558,-864.08 558,-867.17 554.92,-870.25 551.83,-870.25"/>
<text text-anchor="start" x="496" y="-857.7" font-family="Helvetica,sans-Serif" font-size="9.00">ASDRData.js</text>
</a>
</g>
</g>
<!-- src/js/directable/rhythm/asdr/ASDREnvelope.js -->
<g id="node43" class="node">
<title>src/js/directable/rhythm/asdr/ASDREnvelope.js</title>
<g id="a_node43"><a xlink:href="src/js/directable/rhythm/asdr/ASDREnvelope.js" xlink:title="ASDREnvelope.js">
<path fill="#ffffcc" stroke="black" d="M561.58,-901.25C561.58,-901.25 484.42,-901.25 484.42,-901.25 481.33,-901.25 478.25,-898.17 478.25,-895.08 478.25,-895.08 478.25,-888.92 478.25,-888.92 478.25,-885.83 481.33,-882.75 484.42,-882.75 484.42,-882.75 561.58,-882.75 561.58,-882.75 564.67,-882.75 567.75,-885.83 567.75,-888.92 567.75,-888.92 567.75,-895.08 567.75,-895.08 567.75,-898.17 564.67,-901.25 561.58,-901.25"/>
<text text-anchor="start" x="486.25" y="-888.7" font-family="Helvetica,sans-Serif" font-size="9.00">ASDREnvelope.js</text>
</a>
</g>
</g>
<!-- src/js/directable/rhythm/asdr/DirectableRhythmASDRManager.js -->
<g id="node44" class="node">
<title>src/js/directable/rhythm/asdr/DirectableRhythmASDRManager.js</title>
<g id="a_node44"><a xlink:href="src/js/directable/rhythm/asdr/DirectableRhythmASDRManager.js" xlink:title="DirectableRhythmASDRManager.js">
<path fill="#ffffcc" stroke="black" d="M596.83,-932.25C596.83,-932.25 449.17,-932.25 449.17,-932.25 446.08,-932.25 443,-929.17 443,-926.08 443,-926.08 443,-919.92 443,-919.92 443,-916.83 446.08,-913.75 449.17,-913.75 449.17,-913.75 596.83,-913.75 596.83,-913.75 599.92,-913.75 603,-916.83 603,-919.92 603,-919.92 603,-926.08 603,-926.08 603,-929.17 599.92,-932.25 596.83,-932.25"/>
<text text-anchor="start" x="451" y="-919.7" font-family="Helvetica,sans-Serif" font-size="9.00">DirectableRhythmASDRManager.js</text>
</a>
</g>
</g>
<!-- src/js/directable/rhythm/bpm/DirectableRhythmBPM.js -->
<g id="node45" class="node">
<title>src/js/directable/rhythm/bpm/DirectableRhythmBPM.js</title>
<g id="a_node45"><a xlink:href="src/js/directable/rhythm/bpm/DirectableRhythmBPM.js" xlink:title="DirectableRhythmBPM.js">
<path fill="#ffffcc" stroke="black" d="M575.83,-993.25C575.83,-993.25 470.17,-993.25 470.17,-993.25 467.08,-993.25 464,-990.17 464,-987.08 464,-987.08 464,-980.92 464,-980.92 464,-977.83 467.08,-974.75 470.17,-974.75 470.17,-974.75 575.83,-974.75 575.83,-974.75 578.92,-974.75 582,-977.83 582,-980.92 582,-980.92 582,-987.08 582,-987.08 582,-990.17 578.92,-993.25 575.83,-993.25"/>
<text text-anchor="start" x="472" y="-980.7" font-family="Helvetica,sans-Serif" font-size="9.00">DirectableRhythmBPM.js</text>
</a>
</g>
</g>
<!-- src/js/directable/rhythm/bpm/DirectableRhythmBPM.js&#45;&gt;src/js/directable/rhythm/DirectableRhythm.js -->
<g id="edge27" class="edge">
<title>src/js/directable/rhythm/bpm/DirectableRhythmBPM.js&#45;&gt;src/js/directable/rhythm/DirectableRhythm.js</title>
<path fill="none" stroke="#000000" stroke-width="2" stroke-opacity="0.200000" d="M582.42,-984C591.5,-984 600.89,-984 609.96,-984"/>
<polygon fill="#000000" fill-opacity="0.200000" stroke="#000000" stroke-width="2" stroke-opacity="0.200000" points="609.87,-986.1 615.87,-984 609.87,-981.9 609.87,-986.1"/>
</g>
<!-- src/js/directable/rhythm2/ViewRhythm.js -->
<g id="node46" class="node">
<title>src/js/directable/rhythm2/ViewRhythm.js</title>
<g id="a_node46"><a xlink:href="src/js/directable/rhythm2/ViewRhythm.js" xlink:title="ViewRhythm.js">
<path fill="#ffffcc" stroke="black" d="M555.21,-1081.25C555.21,-1081.25 490.79,-1081.25 490.79,-1081.25 487.71,-1081.25 484.62,-1078.17 484.62,-1075.08 484.62,-1075.08 484.62,-1068.92 484.62,-1068.92 484.62,-1065.83 487.71,-1062.75 490.79,-1062.75 490.79,-1062.75 555.21,-1062.75 555.21,-1062.75 558.29,-1062.75 561.38,-1065.83 561.38,-1068.92 561.38,-1068.92 561.38,-1075.08 561.38,-1075.08 561.38,-1078.17 558.29,-1081.25 555.21,-1081.25"/>
<text text-anchor="start" x="492.62" y="-1068.7" font-family="Helvetica,sans-Serif" font-size="9.00">ViewRhythm.js</text>
</a>
</g>
</g>
<!-- src/js/directable/rhythm2/ViewRhythmTrack.js -->
<g id="node47" class="node">
<title>src/js/directable/rhythm2/ViewRhythmTrack.js</title>
<g id="a_node47"><a xlink:href="src/js/directable/rhythm2/ViewRhythmTrack.js" xlink:title="ViewRhythmTrack.js">
<path fill="#ffffcc" stroke="black" d="M712.08,-1081.25C712.08,-1081.25 625.17,-1081.25 625.17,-1081.25 622.08,-1081.25 619,-1078.17 619,-1075.08 619,-1075.08 619,-1068.92 619,-1068.92 619,-1065.83 622.08,-1062.75 625.17,-1062.75 625.17,-1062.75 712.08,-1062.75 712.08,-1062.75 715.17,-1062.75 718.25,-1065.83 718.25,-1068.92 718.25,-1068.92 718.25,-1075.08 718.25,-1075.08 718.25,-1078.17 715.17,-1081.25 712.08,-1081.25"/>
<text text-anchor="start" x="627" y="-1068.7" font-family="Helvetica,sans-Serif" font-size="9.00">ViewRhythmTrack.js</text>
</a>
</g>
</g>
<!-- src/js/directable/rhythm2/ViewRhythm.js&#45;&gt;src/js/directable/rhythm2/ViewRhythmTrack.js -->
<g id="edge28" class="edge">
<title>src/js/directable/rhythm2/ViewRhythm.js&#45;&gt;src/js/directable/rhythm2/ViewRhythmTrack.js</title>
<path fill="none" stroke="#000000" stroke-width="2" stroke-opacity="0.200000" d="M561.74,-1072C576.39,-1072 593.51,-1072 609.66,-1072"/>
<polygon fill="#000000" fill-opacity="0.200000" stroke="#000000" stroke-width="2" stroke-opacity="0.200000" points="609.49,-1074.1 615.49,-1072 609.49,-1069.9 609.49,-1074.1"/>
</g>
<!-- src/js/index.js -->
<g id="node50" class="node">
<title>src/js/index.js</title>
<g id="a_node50"><a xlink:href="src/js/index.js" xlink:title="index.js">
<path fill="#ffffcc" stroke="black" d="M94.96,-1281.25C94.96,-1281.25 53.29,-1281.25 53.29,-1281.25 50.21,-1281.25 47.12,-1278.17 47.12,-1275.08 47.12,-1275.08 47.12,-1268.92 47.12,-1268.92 47.12,-1265.83 50.21,-1262.75 53.29,-1262.75 53.29,-1262.75 94.96,-1262.75 94.96,-1262.75 98.04,-1262.75 101.12,-1265.83 101.12,-1268.92 101.12,-1268.92 101.12,-1275.08 101.12,-1275.08 101.12,-1278.17 98.04,-1281.25 94.96,-1281.25"/>
<text text-anchor="start" x="58.38" y="-1268.7" font-family="Helvetica,sans-Serif" font-size="9.00">index.js</text>
</a>
</g>
</g>
<!-- src/js/index.js&#45;&gt;src/js/application/Application.js -->
<g id="edge32" class="edge">
<title>src/js/index.js&#45;&gt;src/js/application/Application.js</title>
<path fill="none" stroke="#000000" stroke-width="2" stroke-opacity="0.200000" d="M101.59,-1272C108.42,-1272 115.95,-1272 123.39,-1272"/>
<polygon fill="#000000" fill-opacity="0.200000" stroke="#000000" stroke-width="2" stroke-opacity="0.200000" points="123.01,-1274.1 129.01,-1272 123.01,-1269.9 123.01,-1274.1"/>
</g>
<!-- src/js/overlay/displayFormat/OverlayDisplayFormat.js&#45;&gt;src/js/display/DisplayFormats.js -->
<g id="edge35" class="edge">
<title>src/js/overlay/displayFormat/OverlayDisplayFormat.js&#45;&gt;src/js/display/DisplayFormats.js</title>
<path fill="none" stroke="#000000" stroke-width="2" stroke-opacity="0.200000" d="M559.18,-1280.26C575.38,-1275.18 594.6,-1268.28 611,-1260 624.2,-1253.33 637.89,-1243.98 648.5,-1236.11"/>
<polygon fill="#000000" fill-opacity="0.200000" stroke="#000000" stroke-width="2" stroke-opacity="0.200000" points="649.71,-1237.82 653.22,-1232.52 647.18,-1234.48 649.71,-1237.82"/>
</g>
<!-- src/js/overlay/OverlayUtil.js -->
<g id="node53" class="node">
<title>src/js/overlay/OverlayUtil.js</title>
<g id="a_node53"><a xlink:href="src/js/overlay/OverlayUtil.js" xlink:title="OverlayUtil.js">
<path fill="#ffffcc" stroke="black" d="M697.46,-1329.25C697.46,-1329.25 639.79,-1329.25 639.79,-1329.25 636.71,-1329.25 633.62,-1326.17 633.62,-1323.08 633.62,-1323.08 633.62,-1316.92 633.62,-1316.92 633.62,-1313.83 636.71,-1310.75 639.79,-1310.75 639.79,-1310.75 697.46,-1310.75 697.46,-1310.75 700.54,-1310.75 703.62,-1313.83 703.62,-1316.92 703.62,-1316.92 703.62,-1323.08 703.62,-1323.08 703.62,-1326.17 700.54,-1329.25 697.46,-1329.25"/>
<text text-anchor="start" x="641.62" y="-1316.7" font-family="Helvetica,sans-Serif" font-size="9.00">OverlayUtil.js</text>
</a>
</g>
</g>
<!-- src/js/overlay/displayFormat/OverlayDisplayFormat.js&#45;&gt;src/js/overlay/OverlayUtil.js -->
<g id="edge36" class="edge">
<title>src/js/overlay/displayFormat/OverlayDisplayFormat.js&#45;&gt;src/js/overlay/OverlayUtil.js</title>
<path fill="none" stroke="#000000" stroke-width="2" stroke-opacity="0.200000" d="M570.63,-1299.74C588.07,-1303.38 607.77,-1307.5 624.85,-1311.06"/>
<polygon fill="#000000" fill-opacity="0.200000" stroke="#000000" stroke-width="2" stroke-opacity="0.200000" points="624.24,-1313.08 630.55,-1312.26 625.1,-1308.97 624.24,-1313.08"/>
</g>
<!-- src/js/overlay/overlay/OverlayOverlay.js&#45;&gt;src/js/overlay/OverlayUtil.js -->
<g id="edge37" class="edge">
<title>src/js/overlay/overlay/OverlayOverlay.js&#45;&gt;src/js/overlay/OverlayUtil.js</title>
<path fill="none" stroke="#000000" stroke-width="2" stroke-opacity="0.200000" d="M567.09,-1341.7C585.27,-1337.78 606.39,-1333.22 624.56,-1329.29"/>
<polygon fill="#000000" fill-opacity="0.200000" stroke="#000000" stroke-width="2" stroke-opacity="0.200000" points="624.84,-1331.38 630.26,-1328.06 623.96,-1327.28 624.84,-1331.38"/>
</g>
</g>
</svg>
