<?xml version="1.0" encoding="UTF-8" standalone="no"?>
<!DOCTYPE svg PUBLIC "-//W3C//DTD SVG 1.1//EN"
 "http://www.w3.org/Graphics/SVG/1.1/DTD/svg11.dtd">
<!-- Generated by graphviz version 12.2.1 (20241206.2353)
 -->
<!-- Title: dependency&#45;cruiser output Pages: 1 -->
<svg width="1135pt" height="1004pt"
 viewBox="0.00 0.00 1135.38 1004.00" xmlns="http://www.w3.org/2000/svg" xmlns:xlink="http://www.w3.org/1999/xlink">
<g id="graph0" class="graph" transform="scale(1 1) rotate(0) translate(4 1000)">
<title>dependency&#45;cruiser output</title>
<polygon fill="white" stroke="none" points="-4,4 -4,-1000 1131.38,-1000 1131.38,4 -4,4"/>
<g id="clust1" class="cluster">
<title>cluster_src</title>
<path fill="#ffffff" stroke="black" stroke-width="2" d="M20,-8C20,-8 1107.38,-8 1107.38,-8 1113.38,-8 1119.38,-14 1119.38,-20 1119.38,-20 1119.38,-976 1119.38,-976 1119.38,-982 1113.38,-988 1107.38,-988 1107.38,-988 20,-988 20,-988 14,-988 8,-982 8,-976 8,-976 8,-20 8,-20 8,-14 14,-8 20,-8"/>
<text text-anchor="middle" x="563.69" y="-975.45" font-family="Helvetica,sans-Serif" font-weight="bold" font-size="9.00">src</text>
</g>
<g id="clust2" class="cluster">
<title>cluster_src/js</title>
<path fill="#ffffff" stroke="black" stroke-width="2" d="M28,-16C28,-16 1099.38,-16 1099.38,-16 1105.38,-16 1111.38,-22 1111.38,-28 1111.38,-28 1111.38,-949 1111.38,-949 1111.38,-955 1105.38,-961 1099.38,-961 1099.38,-961 28,-961 28,-961 22,-961 16,-955 16,-949 16,-949 16,-28 16,-28 16,-22 22,-16 28,-16"/>
<text text-anchor="middle" x="563.69" y="-948.45" font-family="Helvetica,sans-Serif" font-weight="bold" font-size="9.00">js</text>
</g>
<g id="clust3" class="cluster">
<title>cluster_src/js/application</title>
<path fill="#ffffff" stroke="black" stroke-width="2" d="M274.88,-758C274.88,-758 337.62,-758 337.62,-758 343.62,-758 349.62,-764 349.62,-770 349.62,-770 349.62,-799 349.62,-799 349.62,-805 343.62,-811 337.62,-811 337.62,-811 274.88,-811 274.88,-811 268.88,-811 262.88,-805 262.88,-799 262.88,-799 262.88,-770 262.88,-770 262.88,-764 268.88,-758 274.88,-758"/>
<text text-anchor="middle" x="306.25" y="-798.45" font-family="Helvetica,sans-Serif" font-weight="bold" font-size="9.00">application</text>
</g>
<g id="clust4" class="cluster">
<title>cluster_src/js/controller</title>
<path fill="#ffffff" stroke="black" stroke-width="2" d="M423.12,-741C423.12,-741 479.88,-741 479.88,-741 485.88,-741 491.88,-747 491.88,-753 491.88,-753 491.88,-782 491.88,-782 491.88,-788 485.88,-794 479.88,-794 479.88,-794 423.12,-794 423.12,-794 417.12,-794 411.12,-788 411.12,-782 411.12,-782 411.12,-753 411.12,-753 411.12,-747 417.12,-741 423.12,-741"/>
<text text-anchor="middle" x="451.5" y="-781.45" font-family="Helvetica,sans-Serif" font-weight="bold" font-size="9.00">controller</text>
</g>
<g id="clust5" class="cluster">
<title>cluster_src/js/data</title>
<path fill="#ffffff" stroke="black" stroke-width="2" d="M71,-24C71,-24 329.75,-24 329.75,-24 335.75,-24 341.75,-30 341.75,-36 341.75,-36 341.75,-65 341.75,-65 341.75,-71 335.75,-77 329.75,-77 329.75,-77 71,-77 71,-77 65,-77 59,-71 59,-65 59,-65 59,-36 59,-36 59,-30 65,-24 71,-24"/>
<text text-anchor="middle" x="200.38" y="-64.45" font-family="Helvetica,sans-Serif" font-weight="bold" font-size="9.00">data</text>
</g>
<g id="clust6" class="cluster">
<title>cluster_src/js/directable</title>
<path fill="#ffffff" stroke="black" stroke-width="2" d="M206.25,-181C206.25,-181 590.12,-181 590.12,-181 596.12,-181 602.12,-187 602.12,-193 602.12,-193 602.12,-572 602.12,-572 602.12,-578 596.12,-584 590.12,-584 590.12,-584 206.25,-584 206.25,-584 200.25,-584 194.25,-578 194.25,-572 194.25,-572 194.25,-193 194.25,-193 194.25,-187 200.25,-181 206.25,-181"/>
<text text-anchor="middle" x="398.19" y="-571.45" font-family="Helvetica,sans-Serif" font-weight="bold" font-size="9.00">directable</text>
</g>
<g id="clust7" class="cluster">
<title>cluster_src/js/directable/directables</title>
<path fill="#ffffff" stroke="black" stroke-width="2" d="M214.25,-189C214.25,-189 504.75,-189 504.75,-189 510.75,-189 516.75,-195 516.75,-201 516.75,-201 516.75,-545 516.75,-545 516.75,-551 510.75,-557 504.75,-557 504.75,-557 214.25,-557 214.25,-557 208.25,-557 202.25,-551 202.25,-545 202.25,-545 202.25,-201 202.25,-201 202.25,-195 208.25,-189 214.25,-189"/>
<text text-anchor="middle" x="359.5" y="-544.45" font-family="Helvetica,sans-Serif" font-weight="bold" font-size="9.00">directables</text>
</g>
<g id="clust8" class="cluster">
<title>cluster_src/js/directable/directables/frame</title>
<path fill="#ffffff" stroke="black" stroke-width="2" d="M263.62,-416C263.62,-416 348.88,-416 348.88,-416 354.88,-416 360.88,-422 360.88,-428 360.88,-428 360.88,-457 360.88,-457 360.88,-463 354.88,-469 348.88,-469 348.88,-469 263.62,-469 263.62,-469 257.62,-469 251.62,-463 251.62,-457 251.62,-457 251.62,-428 251.62,-428 251.62,-422 257.62,-416 263.62,-416"/>
<text text-anchor="middle" x="306.25" y="-456.45" font-family="Helvetica,sans-Serif" font-weight="bold" font-size="9.00">frame</text>
</g>
<g id="clust9" class="cluster">
<title>cluster_src/js/directable/directables/rhythm</title>
<path fill="#ffffff" stroke="black" stroke-width="2" d="M222.25,-197C222.25,-197 496.75,-197 496.75,-197 502.75,-197 508.75,-203 508.75,-209 508.75,-209 508.75,-396 508.75,-396 508.75,-402 502.75,-408 496.75,-408 496.75,-408 222.25,-408 222.25,-408 216.25,-408 210.25,-402 210.25,-396 210.25,-396 210.25,-209 210.25,-209 210.25,-203 216.25,-197 222.25,-197"/>
<text text-anchor="middle" x="359.5" y="-395.45" font-family="Helvetica,sans-Serif" font-weight="bold" font-size="9.00">rhythm</text>
</g>
<g id="clust10" class="cluster">
<title>cluster_src/js/directable/directables/rhythm/asdr</title>
<path fill="#ffffff" stroke="black" stroke-width="2" d="M230.25,-205C230.25,-205 382.25,-205 382.25,-205 388.25,-205 394.25,-211 394.25,-217 394.25,-217 394.25,-308 394.25,-308 394.25,-314 388.25,-320 382.25,-320 382.25,-320 230.25,-320 230.25,-320 224.25,-320 218.25,-314 218.25,-308 218.25,-308 218.25,-217 218.25,-217 218.25,-211 224.25,-205 230.25,-205"/>
<text text-anchor="middle" x="306.25" y="-307.45" font-family="Helvetica,sans-Serif" font-weight="bold" font-size="9.00">asdr</text>
</g>
<g id="clust11" class="cluster">
<title>cluster_src/js/directable/directables/rhythm/bpm</title>
<path fill="#ffffff" stroke="black" stroke-width="2" d="M251.25,-328C251.25,-328 361.25,-328 361.25,-328 367.25,-328 373.25,-334 373.25,-340 373.25,-340 373.25,-369 373.25,-369 373.25,-375 367.25,-381 361.25,-381 361.25,-381 251.25,-381 251.25,-381 245.25,-381 239.25,-375 239.25,-369 239.25,-369 239.25,-340 239.25,-340 239.25,-334 245.25,-328 251.25,-328"/>
<text text-anchor="middle" x="306.25" y="-368.45" font-family="Helvetica,sans-Serif" font-weight="bold" font-size="9.00">bpm</text>
</g>
<g id="clust12" class="cluster">
<title>cluster_src/js/directable/directables/title</title>
<path fill="#ffffff" stroke="black" stroke-width="2" d="M268.12,-477C268.12,-477 344.38,-477 344.38,-477 350.38,-477 356.38,-483 356.38,-489 356.38,-489 356.38,-518 356.38,-518 356.38,-524 350.38,-530 344.38,-530 344.38,-530 268.12,-530 268.12,-530 262.12,-530 256.12,-524 256.12,-518 256.12,-518 256.12,-489 256.12,-489 256.12,-483 262.12,-477 268.12,-477"/>
<text text-anchor="middle" x="306.25" y="-517.45" font-family="Helvetica,sans-Serif" font-weight="bold" font-size="9.00">title</text>
</g>
<g id="clust13" class="cluster">
<title>cluster_src/js/director</title>
<path fill="#ffffff" stroke="black" stroke-width="2" d="M36,-85C36,-85 330.5,-85 330.5,-85 336.5,-85 342.5,-91 342.5,-97 342.5,-97 342.5,-161 342.5,-161 342.5,-167 336.5,-173 330.5,-173 330.5,-173 36,-173 36,-173 30,-173 24,-167 24,-161 24,-161 24,-97 24,-97 24,-91 30,-85 36,-85"/>
<text text-anchor="middle" x="183.25" y="-160.45" font-family="Helvetica,sans-Serif" font-weight="bold" font-size="9.00">director</text>
</g>
<g id="clust14" class="cluster">
<title>cluster_src/js/director/directors</title>
<path fill="#ffffff" stroke="black" stroke-width="2" d="M44,-93C44,-93 174.25,-93 174.25,-93 180.25,-93 186.25,-99 186.25,-105 186.25,-105 186.25,-134 186.25,-134 186.25,-140 180.25,-146 174.25,-146 174.25,-146 44,-146 44,-146 38,-146 32,-140 32,-134 32,-134 32,-105 32,-105 32,-99 38,-93 44,-93"/>
<text text-anchor="middle" x="109.12" y="-133.45" font-family="Helvetica,sans-Serif" font-weight="bold" font-size="9.00">directors</text>
</g>
<g id="clust15" class="cluster">
<title>cluster_src/js/event</title>
<path fill="#ffffff" stroke="black" stroke-width="2" d="M44.38,-592C44.38,-592 349.25,-592 349.25,-592 355.25,-592 361.25,-598 361.25,-604 361.25,-604 361.25,-633 361.25,-633 361.25,-639 355.25,-645 349.25,-645 349.25,-645 44.38,-645 44.38,-645 38.38,-645 32.38,-639 32.38,-633 32.38,-633 32.38,-604 32.38,-604 32.38,-598 38.38,-592 44.38,-592"/>
<text text-anchor="middle" x="196.81" y="-632.45" font-family="Helvetica,sans-Serif" font-weight="bold" font-size="9.00">event</text>
</g>
<g id="clust16" class="cluster">
<title>cluster_src/js/overlay</title>
<path fill="#ffffff" stroke="black" stroke-width="2" d="M536.75,-592C536.75,-592 1091.38,-592 1091.38,-592 1097.38,-592 1103.38,-598 1103.38,-604 1103.38,-604 1103.38,-922 1103.38,-922 1103.38,-928 1097.38,-934 1091.38,-934 1091.38,-934 536.75,-934 536.75,-934 530.75,-934 524.75,-928 524.75,-922 524.75,-922 524.75,-604 524.75,-604 524.75,-598 530.75,-592 536.75,-592"/>
<text text-anchor="middle" x="814.06" y="-921.45" font-family="Helvetica,sans-Serif" font-weight="bold" font-size="9.00">overlay</text>
</g>
<g id="clust17" class="cluster">
<title>cluster_src/js/overlay/capture</title>
<path fill="#ffffff" stroke="black" stroke-width="2" d="M622.12,-610C622.12,-610 703.62,-610 703.62,-610 709.62,-610 715.62,-616 715.62,-622 715.62,-622 715.62,-651 715.62,-651 715.62,-657 709.62,-663 703.62,-663 703.62,-663 622.12,-663 622.12,-663 616.12,-663 610.12,-657 610.12,-651 610.12,-651 610.12,-622 610.12,-622 610.12,-616 616.12,-610 622.12,-610"/>
<text text-anchor="middle" x="662.88" y="-650.45" font-family="Helvetica,sans-Serif" font-weight="bold" font-size="9.00">capture</text>
</g>
<g id="clust18" class="cluster">
<title>cluster_src/js/overlay/dispatcher</title>
<path fill="#ffffff" stroke="black" stroke-width="2" d="M854.38,-600C854.38,-600 1083.38,-600 1083.38,-600 1089.38,-600 1095.38,-606 1095.38,-612 1095.38,-612 1095.38,-641 1095.38,-641 1095.38,-647 1089.38,-653 1083.38,-653 1083.38,-653 854.38,-653 854.38,-653 848.38,-653 842.38,-647 842.38,-641 842.38,-641 842.38,-612 842.38,-612 842.38,-606 848.38,-600 854.38,-600"/>
<text text-anchor="middle" x="968.88" y="-640.45" font-family="Helvetica,sans-Serif" font-weight="bold" font-size="9.00">dispatcher</text>
</g>
<g id="clust19" class="cluster">
<title>cluster_src/js/overlay/format</title>
<path fill="#ffffff" stroke="black" stroke-width="2" d="M624.38,-671C624.38,-671 701.38,-671 701.38,-671 707.38,-671 713.38,-677 713.38,-683 713.38,-683 713.38,-712 713.38,-712 713.38,-718 707.38,-724 701.38,-724 701.38,-724 624.38,-724 624.38,-724 618.38,-724 612.38,-718 612.38,-712 612.38,-712 612.38,-683 612.38,-683 612.38,-677 618.38,-671 624.38,-671"/>
<text text-anchor="middle" x="662.88" y="-711.45" font-family="Helvetica,sans-Serif" font-weight="bold" font-size="9.00">format</text>
</g>
<g id="clust20" class="cluster">
<title>cluster_src/js/overlay/media</title>
<path fill="#ffffff" stroke="black" stroke-width="2" d="M625.88,-732C625.88,-732 699.88,-732 699.88,-732 705.88,-732 711.88,-738 711.88,-744 711.88,-744 711.88,-773 711.88,-773 711.88,-779 705.88,-785 699.88,-785 699.88,-785 625.88,-785 625.88,-785 619.88,-785 613.88,-779 613.88,-773 613.88,-773 613.88,-744 613.88,-744 613.88,-738 619.88,-732 625.88,-732"/>
<text text-anchor="middle" x="662.88" y="-772.45" font-family="Helvetica,sans-Serif" font-weight="bold" font-size="9.00">media</text>
</g>
<g id="clust21" class="cluster">
<title>cluster_src/js/overlay/overlay</title>
<path fill="#ffffff" stroke="black" stroke-width="2" d="M623.25,-793C623.25,-793 702.5,-793 702.5,-793 708.5,-793 714.5,-799 714.5,-805 714.5,-805 714.5,-834 714.5,-834 714.5,-840 708.5,-846 702.5,-846 702.5,-846 623.25,-846 623.25,-846 617.25,-846 611.25,-840 611.25,-834 611.25,-834 611.25,-805 611.25,-805 611.25,-799 617.25,-793 623.25,-793"/>
<text text-anchor="middle" x="662.88" y="-833.45" font-family="Helvetica,sans-Serif" font-weight="bold" font-size="9.00">overlay</text>
</g>
<g id="clust22" class="cluster">
<title>cluster_src/js/overlay/rhythm</title>
<path fill="#ffffff" stroke="black" stroke-width="2" d="M622.88,-854C622.88,-854 702.88,-854 702.88,-854 708.88,-854 714.88,-860 714.88,-866 714.88,-866 714.88,-895 714.88,-895 714.88,-901 708.88,-907 702.88,-907 702.88,-907 622.88,-907 622.88,-907 616.88,-907 610.88,-901 610.88,-895 610.88,-895 610.88,-866 610.88,-866 610.88,-860 616.88,-854 622.88,-854"/>
<text text-anchor="middle" x="662.88" y="-894.45" font-family="Helvetica,sans-Serif" font-weight="bold" font-size="9.00">rhythm</text>
</g>
<g id="clust23" class="cluster">
<title>cluster_src/js/renderer</title>
<path fill="#ffffff" stroke="black" stroke-width="2" d="M735.62,-531C735.62,-531 822.38,-531 822.38,-531 828.38,-531 834.38,-537 834.38,-543 834.38,-543 834.38,-572 834.38,-572 834.38,-578 828.38,-584 822.38,-584 822.38,-584 735.62,-584 735.62,-584 729.62,-584 723.62,-578 723.62,-572 723.62,-572 723.62,-543 723.62,-543 723.62,-537 729.62,-531 735.62,-531"/>
<text text-anchor="middle" x="779" y="-571.45" font-family="Helvetica,sans-Serif" font-weight="bold" font-size="9.00">renderer</text>
</g>
<g id="clust24" class="cluster">
<title>cluster_src/js/rhythm</title>
<path fill="#ffffff" stroke="black" stroke-width="2" d="M74.75,-653C74.75,-653 351.88,-653 351.88,-653 357.88,-653 363.88,-659 363.88,-665 363.88,-665 363.88,-694 363.88,-694 363.88,-700 357.88,-706 351.88,-706 351.88,-706 74.75,-706 74.75,-706 68.75,-706 62.75,-700 62.75,-694 62.75,-694 62.75,-665 62.75,-665 62.75,-659 68.75,-653 74.75,-653"/>
<text text-anchor="middle" x="213.31" y="-693.45" font-family="Helvetica,sans-Serif" font-weight="bold" font-size="9.00">rhythm</text>
</g>
<g id="clust25" class="cluster">
<title>cluster_src/js/view</title>
<path fill="#ffffff" stroke="black" stroke-width="2" d="M86.12,-714C86.12,-714 132.12,-714 132.12,-714 138.12,-714 144.12,-720 144.12,-726 144.12,-726 144.12,-755 144.12,-755 144.12,-761 138.12,-767 132.12,-767 132.12,-767 86.12,-767 86.12,-767 80.12,-767 74.12,-761 74.12,-755 74.12,-755 74.12,-726 74.12,-726 74.12,-720 80.12,-714 86.12,-714"/>
<text text-anchor="middle" x="109.12" y="-754.45" font-family="Helvetica,sans-Serif" font-weight="bold" font-size="9.00">view</text>
</g>
<!-- src/js/application/Application.js -->
<g id="node1" class="node">
<title>src/js/application/Application.js</title>
<g id="a_node1"><a xlink:href="src/js/application/Application.js" xlink:title="Application.js">
<path fill="#ffffcc" stroke="black" d="M335.46,-784.25C335.46,-784.25 277.04,-784.25 277.04,-784.25 273.96,-784.25 270.88,-781.17 270.88,-778.08 270.88,-778.08 270.88,-771.92 270.88,-771.92 270.88,-768.83 273.96,-765.75 277.04,-765.75 277.04,-765.75 335.46,-765.75 335.46,-765.75 338.54,-765.75 341.62,-768.83 341.62,-771.92 341.62,-771.92 341.62,-778.08 341.62,-778.08 341.62,-781.17 338.54,-784.25 335.46,-784.25"/>
<text text-anchor="start" x="278.88" y="-771.7" font-family="Helvetica,sans-Serif" font-size="9.00">Application.js</text>
</a>
</g>
</g>
<!-- src/js/controller/Controller.js -->
<g id="node2" class="node">
<title>src/js/controller/Controller.js</title>
<g id="a_node2"><a xlink:href="src/js/controller/Controller.js" xlink:title="Controller.js">
<path fill="#ffffcc" stroke="black" d="M477.71,-767.25C477.71,-767.25 425.29,-767.25 425.29,-767.25 422.21,-767.25 419.12,-764.17 419.12,-761.08 419.12,-761.08 419.12,-754.92 419.12,-754.92 419.12,-751.83 422.21,-748.75 425.29,-748.75 425.29,-748.75 477.71,-748.75 477.71,-748.75 480.79,-748.75 483.88,-751.83 483.88,-754.92 483.88,-754.92 483.88,-761.08 483.88,-761.08 483.88,-764.17 480.79,-767.25 477.71,-767.25"/>
<text text-anchor="start" x="427.12" y="-754.7" font-family="Helvetica,sans-Serif" font-size="9.00">Controller.js</text>
</a>
</g>
</g>
<!-- src/js/application/Application.js&#45;&gt;src/js/controller/Controller.js -->
<g id="edge1" class="edge">
<title>src/js/application/Application.js&#45;&gt;src/js/controller/Controller.js</title>
<path fill="none" stroke="#000000" stroke-width="2" stroke-opacity="0.200000" d="M341.93,-770.88C362.5,-768.44 388.68,-765.34 410.18,-762.79"/>
<polygon fill="#000000" fill-opacity="0.200000" stroke="#000000" stroke-width="2" stroke-opacity="0.200000" points="410.36,-764.88 416.07,-762.09 409.86,-760.71 410.36,-764.88"/>
</g>
<!-- src/js/overlay/Overlay.js -->
<g id="node3" class="node">
<title>src/js/overlay/Overlay.js</title>
<g id="a_node3"><a xlink:href="src/js/overlay/Overlay.js" xlink:title="Overlay.js">
<path fill="#ffffcc" stroke="black" d="M582.33,-758.25C582.33,-758.25 538.92,-758.25 538.92,-758.25 535.83,-758.25 532.75,-755.17 532.75,-752.08 532.75,-752.08 532.75,-745.92 532.75,-745.92 532.75,-742.83 535.83,-739.75 538.92,-739.75 538.92,-739.75 582.33,-739.75 582.33,-739.75 585.42,-739.75 588.5,-742.83 588.5,-745.92 588.5,-745.92 588.5,-752.08 588.5,-752.08 588.5,-755.17 585.42,-758.25 582.33,-758.25"/>
<text text-anchor="start" x="540.75" y="-745.7" font-family="Helvetica,sans-Serif" font-size="9.00">Overlay.js</text>
</a>
</g>
</g>
<!-- src/js/controller/Controller.js&#45;&gt;src/js/overlay/Overlay.js -->
<g id="edge2" class="edge">
<title>src/js/controller/Controller.js&#45;&gt;src/js/overlay/Overlay.js</title>
<path fill="none" stroke="#000000" stroke-width="2" stroke-opacity="0.200000" d="M484.35,-755.32C496.66,-754.29 510.81,-753.1 523.49,-752.04"/>
<polygon fill="#000000" fill-opacity="0.200000" stroke="#000000" stroke-width="2" stroke-opacity="0.200000" points="523.6,-754.13 529.41,-751.54 523.25,-749.95 523.6,-754.13"/>
</g>
<!-- src/js/overlay/capture/OverlayCapture.js -->
<g id="node19" class="node">
<title>src/js/overlay/capture/OverlayCapture.js</title>
<g id="a_node19"><a xlink:href="src/js/overlay/capture/OverlayCapture.js" xlink:title="OverlayCapture.js">
<path fill="#ffffcc" stroke="black" d="M701.46,-636.25C701.46,-636.25 624.29,-636.25 624.29,-636.25 621.21,-636.25 618.12,-633.17 618.12,-630.08 618.12,-630.08 618.12,-623.92 618.12,-623.92 618.12,-620.83 621.21,-617.75 624.29,-617.75 624.29,-617.75 701.46,-617.75 701.46,-617.75 704.54,-617.75 707.62,-620.83 707.62,-623.92 707.62,-623.92 707.62,-630.08 707.62,-630.08 707.62,-633.17 704.54,-636.25 701.46,-636.25"/>
<text text-anchor="start" x="626.12" y="-623.7" font-family="Helvetica,sans-Serif" font-size="9.00">OverlayCapture.js</text>
</a>
</g>
</g>
<!-- src/js/overlay/Overlay.js&#45;&gt;src/js/overlay/capture/OverlayCapture.js -->
<g id="edge13" class="edge">
<title>src/js/overlay/Overlay.js&#45;&gt;src/js/overlay/capture/OverlayCapture.js</title>
<path fill="none" stroke="#000000" stroke-width="2" stroke-opacity="0.200000" d="M566.01,-739.28C573.53,-723.29 590.02,-690.92 610.12,-668 618.8,-658.11 630.09,-648.85 639.92,-641.64"/>
<polygon fill="#000000" fill-opacity="0.200000" stroke="#000000" stroke-width="2" stroke-opacity="0.200000" points="640.94,-643.49 644.61,-638.31 638.5,-640.07 640.94,-643.49"/>
</g>
<!-- src/js/overlay/dispatcher/OverlayDispatcher.js -->
<g id="node20" class="node">
<title>src/js/overlay/dispatcher/OverlayDispatcher.js</title>
<g id="a_node20"><a xlink:href="src/js/overlay/dispatcher/OverlayDispatcher.js" xlink:title="OverlayDispatcher.js">
<path fill="#ffffcc" stroke="black" d="M944.21,-626.25C944.21,-626.25 856.54,-626.25 856.54,-626.25 853.46,-626.25 850.38,-623.17 850.38,-620.08 850.38,-620.08 850.38,-613.92 850.38,-613.92 850.38,-610.83 853.46,-607.75 856.54,-607.75 856.54,-607.75 944.21,-607.75 944.21,-607.75 947.29,-607.75 950.38,-610.83 950.38,-613.92 950.38,-613.92 950.38,-620.08 950.38,-620.08 950.38,-623.17 947.29,-626.25 944.21,-626.25"/>
<text text-anchor="start" x="858.38" y="-613.7" font-family="Helvetica,sans-Serif" font-size="9.00">OverlayDispatcher.js</text>
</a>
</g>
</g>
<!-- src/js/overlay/Overlay.js&#45;&gt;src/js/overlay/dispatcher/OverlayDispatcher.js -->
<g id="edge14" class="edge">
<title>src/js/overlay/Overlay.js&#45;&gt;src/js/overlay/dispatcher/OverlayDispatcher.js</title>
<path fill="none" stroke="#000000" stroke-width="2" stroke-opacity="0.200000" d="M561.45,-739.6C561.54,-713.28 565.84,-638.67 610.12,-607 645.86,-581.44 767.77,-595.47 841.43,-606.93"/>
<polygon fill="#000000" fill-opacity="0.200000" stroke="#000000" stroke-width="2" stroke-opacity="0.200000" points="840.92,-608.97 847.17,-607.84 841.58,-604.82 840.92,-608.97"/>
</g>
<!-- src/js/overlay/format/OverlayFormat.js -->
<g id="node21" class="node">
<title>src/js/overlay/format/OverlayFormat.js</title>
<g id="a_node21"><a xlink:href="src/js/overlay/format/OverlayFormat.js" xlink:title="OverlayFormat.js">
<path fill="#ffffcc" stroke="black" d="M699.21,-697.25C699.21,-697.25 626.54,-697.25 626.54,-697.25 623.46,-697.25 620.38,-694.17 620.38,-691.08 620.38,-691.08 620.38,-684.92 620.38,-684.92 620.38,-681.83 623.46,-678.75 626.54,-678.75 626.54,-678.75 699.21,-678.75 699.21,-678.75 702.29,-678.75 705.38,-681.83 705.38,-684.92 705.38,-684.92 705.38,-691.08 705.38,-691.08 705.38,-694.17 702.29,-697.25 699.21,-697.25"/>
<text text-anchor="start" x="628.38" y="-684.7" font-family="Helvetica,sans-Serif" font-size="9.00">OverlayFormat.js</text>
</a>
</g>
</g>
<!-- src/js/overlay/Overlay.js&#45;&gt;src/js/overlay/format/OverlayFormat.js -->
<g id="edge15" class="edge">
<title>src/js/overlay/Overlay.js&#45;&gt;src/js/overlay/format/OverlayFormat.js</title>
<path fill="none" stroke="#000000" stroke-width="2" stroke-opacity="0.200000" d="M577.29,-739.47C593.67,-729.5 619.57,-713.74 638.4,-702.28"/>
<polygon fill="#000000" fill-opacity="0.200000" stroke="#000000" stroke-width="2" stroke-opacity="0.200000" points="639.37,-704.15 643.4,-699.24 637.19,-700.56 639.37,-704.15"/>
</g>
<!-- src/js/overlay/media/OverlayMedia.js -->
<g id="node22" class="node">
<title>src/js/overlay/media/OverlayMedia.js</title>
<g id="a_node22"><a xlink:href="src/js/overlay/media/OverlayMedia.js" xlink:title="OverlayMedia.js">
<path fill="#ffffcc" stroke="black" d="M697.71,-758.25C697.71,-758.25 628.04,-758.25 628.04,-758.25 624.96,-758.25 621.88,-755.17 621.88,-752.08 621.88,-752.08 621.88,-745.92 621.88,-745.92 621.88,-742.83 624.96,-739.75 628.04,-739.75 628.04,-739.75 697.71,-739.75 697.71,-739.75 700.79,-739.75 703.88,-742.83 703.88,-745.92 703.88,-745.92 703.88,-752.08 703.88,-752.08 703.88,-755.17 700.79,-758.25 697.71,-758.25"/>
<text text-anchor="start" x="629.88" y="-745.7" font-family="Helvetica,sans-Serif" font-size="9.00">OverlayMedia.js</text>
</a>
</g>
</g>
<!-- src/js/overlay/Overlay.js&#45;&gt;src/js/overlay/media/OverlayMedia.js -->
<g id="edge16" class="edge">
<title>src/js/overlay/Overlay.js&#45;&gt;src/js/overlay/media/OverlayMedia.js</title>
<path fill="none" stroke="#000000" stroke-width="2" stroke-opacity="0.200000" d="M588.75,-749C596.16,-749 604.43,-749 612.66,-749"/>
<polygon fill="#000000" fill-opacity="0.200000" stroke="#000000" stroke-width="2" stroke-opacity="0.200000" points="612.51,-751.1 618.51,-749 612.51,-746.9 612.51,-751.1"/>
</g>
<!-- src/js/overlay/overlay/OverlayOverlay.js -->
<g id="node23" class="node">
<title>src/js/overlay/overlay/OverlayOverlay.js</title>
<g id="a_node23"><a xlink:href="src/js/overlay/overlay/OverlayOverlay.js" xlink:title="OverlayOverlay.js">
<path fill="#ffffcc" stroke="black" d="M700.33,-819.25C700.33,-819.25 625.42,-819.25 625.42,-819.25 622.33,-819.25 619.25,-816.17 619.25,-813.08 619.25,-813.08 619.25,-806.92 619.25,-806.92 619.25,-803.83 622.33,-800.75 625.42,-800.75 625.42,-800.75 700.33,-800.75 700.33,-800.75 703.42,-800.75 706.5,-803.83 706.5,-806.92 706.5,-806.92 706.5,-813.08 706.5,-813.08 706.5,-816.17 703.42,-819.25 700.33,-819.25"/>
<text text-anchor="start" x="627.25" y="-806.7" font-family="Helvetica,sans-Serif" font-size="9.00">OverlayOverlay.js</text>
</a>
</g>
</g>
<!-- src/js/overlay/Overlay.js&#45;&gt;src/js/overlay/overlay/OverlayOverlay.js -->
<g id="edge17" class="edge">
<title>src/js/overlay/Overlay.js&#45;&gt;src/js/overlay/overlay/OverlayOverlay.js</title>
<path fill="none" stroke="#000000" stroke-width="2" stroke-opacity="0.200000" d="M571.79,-758.57C581.2,-767.07 595.85,-779.45 610.12,-788 615.48,-791.21 621.39,-794.18 627.24,-796.85"/>
<polygon fill="#000000" fill-opacity="0.200000" stroke="#000000" stroke-width="2" stroke-opacity="0.200000" points="626.01,-798.6 632.35,-799.07 627.68,-794.75 626.01,-798.6"/>
</g>
<!-- src/js/overlay/rhythm/OverlayRhythm.js -->
<g id="node24" class="node">
<title>src/js/overlay/rhythm/OverlayRhythm.js</title>
<g id="a_node24"><a xlink:href="src/js/overlay/rhythm/OverlayRhythm.js" xlink:title="OverlayRhythm.js">
<path fill="#ffffcc" stroke="black" d="M700.71,-880.25C700.71,-880.25 625.04,-880.25 625.04,-880.25 621.96,-880.25 618.88,-877.17 618.88,-874.08 618.88,-874.08 618.88,-867.92 618.88,-867.92 618.88,-864.83 621.96,-861.75 625.04,-861.75 625.04,-861.75 700.71,-861.75 700.71,-861.75 703.79,-861.75 706.88,-864.83 706.88,-867.92 706.88,-867.92 706.88,-874.08 706.88,-874.08 706.88,-877.17 703.79,-880.25 700.71,-880.25"/>
<text text-anchor="start" x="626.88" y="-867.7" font-family="Helvetica,sans-Serif" font-size="9.00">OverlayRhythm.js</text>
</a>
</g>
</g>
<!-- src/js/overlay/Overlay.js&#45;&gt;src/js/overlay/rhythm/OverlayRhythm.js -->
<g id="edge18" class="edge">
<title>src/js/overlay/Overlay.js&#45;&gt;src/js/overlay/rhythm/OverlayRhythm.js</title>
<path fill="none" stroke="#000000" stroke-width="2" stroke-opacity="0.200000" d="M563.85,-758.61C568.85,-778.16 582.73,-822.93 610.12,-849 613.4,-852.12 617.18,-854.83 621.19,-857.17"/>
<polygon fill="#000000" fill-opacity="0.200000" stroke="#000000" stroke-width="2" stroke-opacity="0.200000" points="620.09,-858.97 626.38,-859.86 622.02,-855.24 620.09,-858.97"/>
</g>
<!-- src/js/data/Data.json -->
<g id="node4" class="node">
<title>src/js/data/Data.json</title>
<g id="a_node4"><a xlink:href="src/js/data/Data.json" xlink:title="Data.json">
<path fill="#ffee44" stroke="black" d="M327.58,-50.25C327.58,-50.25 284.92,-50.25 284.92,-50.25 281.83,-50.25 278.75,-47.17 278.75,-44.08 278.75,-44.08 278.75,-37.92 278.75,-37.92 278.75,-34.83 281.83,-31.75 284.92,-31.75 284.92,-31.75 327.58,-31.75 327.58,-31.75 330.67,-31.75 333.75,-34.83 333.75,-37.92 333.75,-37.92 333.75,-44.08 333.75,-44.08 333.75,-47.17 330.67,-50.25 327.58,-50.25"/>
<text text-anchor="start" x="286.75" y="-37.7" font-family="Helvetica,sans-Serif" font-size="9.00">Data.json</text>
</a>
</g>
</g>
<!-- src/js/data/DataController.js -->
<g id="node5" class="node">
<title>src/js/data/DataController.js</title>
<g id="a_node5"><a xlink:href="src/js/data/DataController.js" xlink:title="DataController.js">
<path fill="#ffffcc" stroke="black" d="M145.08,-50.25C145.08,-50.25 73.17,-50.25 73.17,-50.25 70.08,-50.25 67,-47.17 67,-44.08 67,-44.08 67,-37.92 67,-37.92 67,-34.83 70.08,-31.75 73.17,-31.75 73.17,-31.75 145.08,-31.75 145.08,-31.75 148.17,-31.75 151.25,-34.83 151.25,-37.92 151.25,-37.92 151.25,-44.08 151.25,-44.08 151.25,-47.17 148.17,-50.25 145.08,-50.25"/>
<text text-anchor="start" x="75" y="-37.7" font-family="Helvetica,sans-Serif" font-size="9.00">DataController.js</text>
</a>
</g>
</g>
<!-- src/js/data/DataController.js&#45;&gt;src/js/data/Data.json -->
<g id="edge3" class="edge">
<title>src/js/data/DataController.js&#45;&gt;src/js/data/Data.json</title>
<path fill="none" stroke="#000000" stroke-width="2" stroke-opacity="0.200000" d="M151.51,-41C186.48,-41 236.06,-41 269.37,-41"/>
<polygon fill="#000000" fill-opacity="0.200000" stroke="#000000" stroke-width="2" stroke-opacity="0.200000" points="269.28,-43.1 275.28,-41 269.28,-38.9 269.28,-43.1"/>
</g>
<!-- src/js/directable/Directable.js -->
<g id="node6" class="node">
<title>src/js/directable/Directable.js</title>
<g id="a_node6"><a xlink:href="src/js/directable/Directable.js" xlink:title="Directable.js">
<path fill="#ffffcc" stroke="black" d="M587.96,-442.25C587.96,-442.25 533.29,-442.25 533.29,-442.25 530.21,-442.25 527.12,-439.17 527.12,-436.08 527.12,-436.08 527.12,-429.92 527.12,-429.92 527.12,-426.83 530.21,-423.75 533.29,-423.75 533.29,-423.75 587.96,-423.75 587.96,-423.75 591.04,-423.75 594.12,-426.83 594.12,-429.92 594.12,-429.92 594.12,-436.08 594.12,-436.08 594.12,-439.17 591.04,-442.25 587.96,-442.25"/>
<text text-anchor="start" x="535.12" y="-429.7" font-family="Helvetica,sans-Serif" font-size="9.00">Directable.js</text>
</a>
</g>
</g>
<!-- src/js/directable/directables/frame/DirectableFrame.js -->
<g id="node7" class="node">
<title>src/js/directable/directables/frame/DirectableFrame.js</title>
<g id="a_node7"><a xlink:href="src/js/directable/directables/frame/DirectableFrame.js" xlink:title="DirectableFrame.js">
<path fill="#ffffcc" stroke="black" d="M346.71,-442.25C346.71,-442.25 265.79,-442.25 265.79,-442.25 262.71,-442.25 259.62,-439.17 259.62,-436.08 259.62,-436.08 259.62,-429.92 259.62,-429.92 259.62,-426.83 262.71,-423.75 265.79,-423.75 265.79,-423.75 346.71,-423.75 346.71,-423.75 349.79,-423.75 352.88,-426.83 352.88,-429.92 352.88,-429.92 352.88,-436.08 352.88,-436.08 352.88,-439.17 349.79,-442.25 346.71,-442.25"/>
<text text-anchor="start" x="267.62" y="-429.7" font-family="Helvetica,sans-Serif" font-size="9.00">DirectableFrame.js</text>
</a>
</g>
</g>
<!-- src/js/directable/directables/frame/DirectableFrame.js&#45;&gt;src/js/directable/Directable.js -->
<g id="edge4" class="edge">
<title>src/js/directable/directables/frame/DirectableFrame.js&#45;&gt;src/js/directable/Directable.js</title>
<path fill="none" stroke="#000000" stroke-width="2" stroke-opacity="0.200000" d="M353.25,-433C400.2,-433 472.44,-433 517.82,-433"/>
<polygon fill="#000000" fill-opacity="0.200000" stroke="#000000" stroke-width="2" stroke-opacity="0.200000" points="517.77,-435.1 523.77,-433 517.77,-430.9 517.77,-435.1"/>
</g>
<!-- src/js/directable/directables/rhythm/DirectableRhythm.js -->
<g id="node8" class="node">
<title>src/js/directable/directables/rhythm/DirectableRhythm.js</title>
<g id="a_node8"><a xlink:href="src/js/directable/directables/rhythm/DirectableRhythm.js" xlink:title="DirectableRhythm.js">
<path fill="#ffffcc" stroke="black" d="M494.58,-368.25C494.58,-368.25 408.42,-368.25 408.42,-368.25 405.33,-368.25 402.25,-365.17 402.25,-362.08 402.25,-362.08 402.25,-355.92 402.25,-355.92 402.25,-352.83 405.33,-349.75 408.42,-349.75 408.42,-349.75 494.58,-349.75 494.58,-349.75 497.67,-349.75 500.75,-352.83 500.75,-355.92 500.75,-355.92 500.75,-362.08 500.75,-362.08 500.75,-365.17 497.67,-368.25 494.58,-368.25"/>
<text text-anchor="start" x="410.25" y="-355.7" font-family="Helvetica,sans-Serif" font-size="9.00">DirectableRhythm.js</text>
</a>
</g>
</g>
<!-- src/js/directable/directables/rhythm/DirectableRhythm.js&#45;&gt;src/js/directable/Directable.js -->
<g id="edge5" class="edge">
<title>src/js/directable/directables/rhythm/DirectableRhythm.js&#45;&gt;src/js/directable/Directable.js</title>
<path fill="none" stroke="#000000" stroke-width="2" stroke-opacity="0.200000" d="M501.1,-364.66C506.63,-366.49 511.99,-368.89 516.75,-372 532.9,-382.56 544.78,-401.5 551.89,-415.49"/>
<polygon fill="#000000" fill-opacity="0.200000" stroke="#000000" stroke-width="2" stroke-opacity="0.200000" points="549.9,-416.2 554.38,-420.7 553.69,-414.38 549.9,-416.2"/>
</g>
<!-- src/js/directable/directables/rhythm/asdr/ASDRData.js -->
<g id="node9" class="node">
<title>src/js/directable/directables/rhythm/asdr/ASDRData.js</title>
<g id="a_node9"><a xlink:href="src/js/directable/directables/rhythm/asdr/ASDRData.js" xlink:title="ASDRData.js">
<path fill="#ccffcc" stroke="black" d="M335.08,-231.25C335.08,-231.25 277.42,-231.25 277.42,-231.25 274.33,-231.25 271.25,-228.17 271.25,-225.08 271.25,-225.08 271.25,-218.92 271.25,-218.92 271.25,-215.83 274.33,-212.75 277.42,-212.75 277.42,-212.75 335.08,-212.75 335.08,-212.75 338.17,-212.75 341.25,-215.83 341.25,-218.92 341.25,-218.92 341.25,-225.08 341.25,-225.08 341.25,-228.17 338.17,-231.25 335.08,-231.25"/>
<text text-anchor="start" x="279.25" y="-218.7" font-family="Helvetica,sans-Serif" font-size="9.00">ASDRData.js</text>
</a>
</g>
</g>
<!-- src/js/directable/directables/rhythm/asdr/ASDREnvelope.js -->
<g id="node10" class="node">
<title>src/js/directable/directables/rhythm/asdr/ASDREnvelope.js</title>
<g id="a_node10"><a xlink:href="src/js/directable/directables/rhythm/asdr/ASDREnvelope.js" xlink:title="ASDREnvelope.js">
<path fill="#ffffcc" stroke="black" d="M344.83,-262.25C344.83,-262.25 267.67,-262.25 267.67,-262.25 264.58,-262.25 261.5,-259.17 261.5,-256.08 261.5,-256.08 261.5,-249.92 261.5,-249.92 261.5,-246.83 264.58,-243.75 267.67,-243.75 267.67,-243.75 344.83,-243.75 344.83,-243.75 347.92,-243.75 351,-246.83 351,-249.92 351,-249.92 351,-256.08 351,-256.08 351,-259.17 347.92,-262.25 344.83,-262.25"/>
<text text-anchor="start" x="269.5" y="-249.7" font-family="Helvetica,sans-Serif" font-size="9.00">ASDREnvelope.js</text>
</a>
</g>
</g>
<!-- src/js/directable/directables/rhythm/asdr/DirectableRhythmASDRManager.js -->
<g id="node11" class="node">
<title>src/js/directable/directables/rhythm/asdr/DirectableRhythmASDRManager.js</title>
<g id="a_node11"><a xlink:href="src/js/directable/directables/rhythm/asdr/DirectableRhythmASDRManager.js" xlink:title="DirectableRhythmASDRManager.js">
<path fill="#ffffcc" stroke="black" d="M380.08,-293.25C380.08,-293.25 232.42,-293.25 232.42,-293.25 229.33,-293.25 226.25,-290.17 226.25,-287.08 226.25,-287.08 226.25,-280.92 226.25,-280.92 226.25,-277.83 229.33,-274.75 232.42,-274.75 232.42,-274.75 380.08,-274.75 380.08,-274.75 383.17,-274.75 386.25,-277.83 386.25,-280.92 386.25,-280.92 386.25,-287.08 386.25,-287.08 386.25,-290.17 383.17,-293.25 380.08,-293.25"/>
<text text-anchor="start" x="234.25" y="-280.7" font-family="Helvetica,sans-Serif" font-size="9.00">DirectableRhythmASDRManager.js</text>
</a>
</g>
</g>
<!-- src/js/directable/directables/rhythm/bpm/DirectableRhythmBPM.js -->
<g id="node12" class="node">
<title>src/js/directable/directables/rhythm/bpm/DirectableRhythmBPM.js</title>
<g id="a_node12"><a xlink:href="src/js/directable/directables/rhythm/bpm/DirectableRhythmBPM.js" xlink:title="DirectableRhythmBPM.js">
<path fill="#ffffcc" stroke="black" d="M359.08,-354.25C359.08,-354.25 253.42,-354.25 253.42,-354.25 250.33,-354.25 247.25,-351.17 247.25,-348.08 247.25,-348.08 247.25,-341.92 247.25,-341.92 247.25,-338.83 250.33,-335.75 253.42,-335.75 253.42,-335.75 359.08,-335.75 359.08,-335.75 362.17,-335.75 365.25,-338.83 365.25,-341.92 365.25,-341.92 365.25,-348.08 365.25,-348.08 365.25,-351.17 362.17,-354.25 359.08,-354.25"/>
<text text-anchor="start" x="255.25" y="-341.7" font-family="Helvetica,sans-Serif" font-size="9.00">DirectableRhythmBPM.js</text>
</a>
</g>
</g>
<!-- src/js/directable/directables/rhythm/bpm/DirectableRhythmBPM.js&#45;&gt;src/js/directable/directables/rhythm/DirectableRhythm.js -->
<g id="edge6" class="edge">
<title>src/js/directable/directables/rhythm/bpm/DirectableRhythmBPM.js&#45;&gt;src/js/directable/directables/rhythm/DirectableRhythm.js</title>
<path fill="none" stroke="#000000" stroke-width="2" stroke-opacity="0.200000" d="M365.52,-350.69C374.58,-351.58 383.94,-352.49 392.98,-353.38"/>
<polygon fill="#000000" fill-opacity="0.200000" stroke="#000000" stroke-width="2" stroke-opacity="0.200000" points="392.71,-355.46 398.89,-353.96 393.12,-351.28 392.71,-355.46"/>
</g>
<!-- src/js/directable/directables/title/DirectableTitle.js -->
<g id="node13" class="node">
<title>src/js/directable/directables/title/DirectableTitle.js</title>
<g id="a_node13"><a xlink:href="src/js/directable/directables/title/DirectableTitle.js" xlink:title="DirectableTitle.js">
<path fill="#ffffcc" stroke="black" d="M342.21,-503.25C342.21,-503.25 270.29,-503.25 270.29,-503.25 267.21,-503.25 264.12,-500.17 264.12,-497.08 264.12,-497.08 264.12,-490.92 264.12,-490.92 264.12,-487.83 267.21,-484.75 270.29,-484.75 270.29,-484.75 342.21,-484.75 342.21,-484.75 345.29,-484.75 348.38,-487.83 348.38,-490.92 348.38,-490.92 348.38,-497.08 348.38,-497.08 348.38,-500.17 345.29,-503.25 342.21,-503.25"/>
<text text-anchor="start" x="272.12" y="-490.7" font-family="Helvetica,sans-Serif" font-size="9.00">DirectableTitle.js</text>
</a>
</g>
</g>
<!-- src/js/directable/directables/title/DirectableTitle.js&#45;&gt;src/js/directable/Directable.js -->
<g id="edge7" class="edge">
<title>src/js/directable/directables/title/DirectableTitle.js&#45;&gt;src/js/directable/Directable.js</title>
<path fill="none" stroke="#000000" stroke-width="2" stroke-opacity="0.200000" d="M347.52,-484.27C394.19,-472.99 470.73,-454.49 517.98,-443.07"/>
<polygon fill="#000000" fill-opacity="0.200000" stroke="#000000" stroke-width="2" stroke-opacity="0.200000" points="518.46,-445.11 523.79,-441.66 517.47,-441.03 518.46,-445.11"/>
</g>
<!-- src/js/director/Director.js -->
<g id="node14" class="node">
<title>src/js/director/Director.js</title>
<g id="a_node14"><a xlink:href="src/js/director/Director.js" xlink:title="Director.js">
<path fill="#ffffcc" stroke="black" d="M328.33,-119.25C328.33,-119.25 284.17,-119.25 284.17,-119.25 281.08,-119.25 278,-116.17 278,-113.08 278,-113.08 278,-106.92 278,-106.92 278,-103.83 281.08,-100.75 284.17,-100.75 284.17,-100.75 328.33,-100.75 328.33,-100.75 331.42,-100.75 334.5,-103.83 334.5,-106.92 334.5,-106.92 334.5,-113.08 334.5,-113.08 334.5,-116.17 331.42,-119.25 328.33,-119.25"/>
<text text-anchor="start" x="286" y="-106.7" font-family="Helvetica,sans-Serif" font-size="9.00">Director.js</text>
</a>
</g>
</g>
<!-- src/js/director/directors/DirectorDanceRabbitDance.js -->
<g id="node15" class="node">
<title>src/js/director/directors/DirectorDanceRabbitDance.js</title>
<g id="a_node15"><a xlink:href="src/js/director/directors/DirectorDanceRabbitDance.js" xlink:title="DirectorDanceRabbitDance.js">
<path fill="#ffffcc" stroke="black" d="M172.08,-119.25C172.08,-119.25 46.17,-119.25 46.17,-119.25 43.08,-119.25 40,-116.17 40,-113.08 40,-113.08 40,-106.92 40,-106.92 40,-103.83 43.08,-100.75 46.17,-100.75 46.17,-100.75 172.08,-100.75 172.08,-100.75 175.17,-100.75 178.25,-103.83 178.25,-106.92 178.25,-106.92 178.25,-113.08 178.25,-113.08 178.25,-116.17 175.17,-119.25 172.08,-119.25"/>
<text text-anchor="start" x="48" y="-106.7" font-family="Helvetica,sans-Serif" font-size="9.00">DirectorDanceRabbitDance.js</text>
</a>
</g>
</g>
<!-- src/js/director/directors/DirectorDanceRabbitDance.js&#45;&gt;src/js/directable/directables/rhythm/bpm/DirectableRhythmBPM.js -->
<g id="edge8" class="edge">
<title>src/js/director/directors/DirectorDanceRabbitDance.js&#45;&gt;src/js/directable/directables/rhythm/bpm/DirectableRhythmBPM.js</title>
<path fill="none" stroke="#000000" stroke-width="2" stroke-opacity="0.200000" d="M110.77,-119.48C113.62,-153.12 127.99,-267.74 194.25,-323 206.6,-333.3 222.4,-339.26 238.18,-342.61"/>
<polygon fill="#000000" fill-opacity="0.200000" stroke="#000000" stroke-width="2" stroke-opacity="0.200000" points="237.66,-344.65 243.94,-343.66 238.42,-340.52 237.66,-344.65"/>
</g>
<!-- src/js/director/directors/DirectorDanceRabbitDance.js&#45;&gt;src/js/directable/directables/title/DirectableTitle.js -->
<g id="edge9" class="edge">
<title>src/js/director/directors/DirectorDanceRabbitDance.js&#45;&gt;src/js/directable/directables/title/DirectableTitle.js</title>
<path fill="none" stroke="#000000" stroke-width="2" stroke-opacity="0.200000" d="M110.96,-119.52C115.74,-171.49 141.16,-420.62 194.25,-472 210.18,-487.42 233.65,-493.52 254.9,-495.52"/>
<polygon fill="#000000" fill-opacity="0.200000" stroke="#000000" stroke-width="2" stroke-opacity="0.200000" points="254.69,-497.61 260.83,-495.93 254.99,-493.42 254.69,-497.61"/>
</g>
<!-- src/js/director/directors/DirectorDanceRabbitDance.js&#45;&gt;src/js/director/Director.js -->
<g id="edge10" class="edge">
<title>src/js/director/directors/DirectorDanceRabbitDance.js&#45;&gt;src/js/director/Director.js</title>
<path fill="none" stroke="#000000" stroke-width="2" stroke-opacity="0.200000" d="M178.64,-110C208.96,-110 243.4,-110 268.69,-110"/>
<polygon fill="#000000" fill-opacity="0.200000" stroke="#000000" stroke-width="2" stroke-opacity="0.200000" points="268.55,-112.1 274.55,-110 268.55,-107.9 268.55,-112.1"/>
</g>
<!-- src/js/event/ApplicationEvent.js -->
<g id="node16" class="node">
<title>src/js/event/ApplicationEvent.js</title>
<g id="a_node16"><a xlink:href="src/js/event/ApplicationEvent.js" xlink:title="ApplicationEvent.js">
<path fill="#ffffcc" stroke="black" d="M347.08,-618.25C347.08,-618.25 265.42,-618.25 265.42,-618.25 262.33,-618.25 259.25,-615.17 259.25,-612.08 259.25,-612.08 259.25,-605.92 259.25,-605.92 259.25,-602.83 262.33,-599.75 265.42,-599.75 265.42,-599.75 347.08,-599.75 347.08,-599.75 350.17,-599.75 353.25,-602.83 353.25,-605.92 353.25,-605.92 353.25,-612.08 353.25,-612.08 353.25,-615.17 350.17,-618.25 347.08,-618.25"/>
<text text-anchor="start" x="267.25" y="-605.7" font-family="Helvetica,sans-Serif" font-size="9.00">ApplicationEvent.js</text>
</a>
</g>
</g>
<!-- src/js/event/ApplicationEventDispatcher.js -->
<g id="node17" class="node">
<title>src/js/event/ApplicationEventDispatcher.js</title>
<g id="a_node17"><a xlink:href="src/js/event/ApplicationEventDispatcher.js" xlink:title="ApplicationEventDispatcher.js">
<path fill="#ffffcc" stroke="black" d="M171.71,-618.25C171.71,-618.25 46.54,-618.25 46.54,-618.25 43.46,-618.25 40.38,-615.17 40.38,-612.08 40.38,-612.08 40.38,-605.92 40.38,-605.92 40.38,-602.83 43.46,-599.75 46.54,-599.75 46.54,-599.75 171.71,-599.75 171.71,-599.75 174.79,-599.75 177.88,-602.83 177.88,-605.92 177.88,-605.92 177.88,-612.08 177.88,-612.08 177.88,-615.17 174.79,-618.25 171.71,-618.25"/>
<text text-anchor="start" x="48.38" y="-605.7" font-family="Helvetica,sans-Serif" font-size="9.00">ApplicationEventDispatcher.js</text>
</a>
</g>
</g>
<!-- src/js/event/ApplicationEventDispatcher.js&#45;&gt;src/js/event/ApplicationEvent.js -->
<g id="edge11" class="edge">
<title>src/js/event/ApplicationEventDispatcher.js&#45;&gt;src/js/event/ApplicationEvent.js</title>
<path fill="none" stroke="#000000" stroke-width="2" stroke-opacity="0.200000" d="M178.37,-609C201.75,-609 227.6,-609 249.83,-609"/>
<polygon fill="#000000" fill-opacity="0.200000" stroke="#000000" stroke-width="2" stroke-opacity="0.200000" points="249.77,-611.1 255.77,-609 249.77,-606.9 249.77,-611.1"/>
</g>
<!-- src/js/index.js -->
<g id="node18" class="node">
<title>src/js/index.js</title>
<g id="a_node18"><a xlink:href="src/js/index.js" xlink:title="index.js">
<path fill="#ffffcc" stroke="black" d="M129.96,-793.25C129.96,-793.25 88.29,-793.25 88.29,-793.25 85.21,-793.25 82.12,-790.17 82.12,-787.08 82.12,-787.08 82.12,-780.92 82.12,-780.92 82.12,-777.83 85.21,-774.75 88.29,-774.75 88.29,-774.75 129.96,-774.75 129.96,-774.75 133.04,-774.75 136.12,-777.83 136.12,-780.92 136.12,-780.92 136.12,-787.08 136.12,-787.08 136.12,-790.17 133.04,-793.25 129.96,-793.25"/>
<text text-anchor="start" x="93.38" y="-780.7" font-family="Helvetica,sans-Serif" font-size="9.00">index.js</text>
</a>
</g>
</g>
<!-- src/js/index.js&#45;&gt;src/js/application/Application.js -->
<g id="edge12" class="edge">
<title>src/js/index.js&#45;&gt;src/js/application/Application.js</title>
<path fill="none" stroke="#000000" stroke-width="2" stroke-opacity="0.200000" d="M136.44,-782.79C168.51,-781.31 223.16,-778.79 261.57,-777.01"/>
<polygon fill="#000000" fill-opacity="0.200000" stroke="#000000" stroke-width="2" stroke-opacity="0.200000" points="261.56,-779.12 267.46,-776.74 261.37,-774.92 261.56,-779.12"/>
</g>
<!-- src/js/overlay/OverlayUtil.js -->
<g id="node25" class="node">
<title>src/js/overlay/OverlayUtil.js</title>
<g id="a_node25"><a xlink:href="src/js/overlay/OverlayUtil.js" xlink:title="OverlayUtil.js">
<path fill="#ffffcc" stroke="black" d="M807.83,-697.25C807.83,-697.25 750.17,-697.25 750.17,-697.25 747.08,-697.25 744,-694.17 744,-691.08 744,-691.08 744,-684.92 744,-684.92 744,-681.83 747.08,-678.75 750.17,-678.75 750.17,-678.75 807.83,-678.75 807.83,-678.75 810.92,-678.75 814,-681.83 814,-684.92 814,-684.92 814,-691.08 814,-691.08 814,-694.17 810.92,-697.25 807.83,-697.25"/>
<text text-anchor="start" x="752" y="-684.7" font-family="Helvetica,sans-Serif" font-size="9.00">OverlayUtil.js</text>
</a>
</g>
</g>
<!-- src/js/overlay/capture/OverlayCapture.js&#45;&gt;src/js/overlay/OverlayUtil.js -->
<g id="edge20" class="edge">
<title>src/js/overlay/capture/OverlayCapture.js&#45;&gt;src/js/overlay/OverlayUtil.js</title>
<path fill="none" stroke="#000000" stroke-width="2" stroke-opacity="0.200000" d="M681.96,-636.67C700.91,-646.79 730.84,-662.79 752.25,-674.24"/>
<polygon fill="#000000" fill-opacity="0.200000" stroke="#000000" stroke-width="2" stroke-opacity="0.200000" points="751.05,-675.98 757.33,-676.95 753.03,-672.27 751.05,-675.98"/>
</g>
<!-- src/js/overlay/dispatcher/OverlayDispatcherEvent.js -->
<g id="node26" class="node">
<title>src/js/overlay/dispatcher/OverlayDispatcherEvent.js</title>
<g id="a_node26"><a xlink:href="src/js/overlay/dispatcher/OverlayDispatcherEvent.js" xlink:title="OverlayDispatcherEvent.js">
<path fill="#ffffcc" stroke="black" d="M1081.21,-626.25C1081.21,-626.25 969.54,-626.25 969.54,-626.25 966.46,-626.25 963.38,-623.17 963.38,-620.08 963.38,-620.08 963.38,-613.92 963.38,-613.92 963.38,-610.83 966.46,-607.75 969.54,-607.75 969.54,-607.75 1081.21,-607.75 1081.21,-607.75 1084.29,-607.75 1087.38,-610.83 1087.38,-613.92 1087.38,-613.92 1087.38,-620.08 1087.38,-620.08 1087.38,-623.17 1084.29,-626.25 1081.21,-626.25"/>
<text text-anchor="start" x="971.38" y="-613.7" font-family="Helvetica,sans-Serif" font-size="9.00">OverlayDispatcherEvent.js</text>
</a>
</g>
</g>
<!-- src/js/overlay/dispatcher/OverlayDispatcher.js&#45;&gt;src/js/overlay/dispatcher/OverlayDispatcherEvent.js -->
<g id="edge21" class="edge">
<title>src/js/overlay/dispatcher/OverlayDispatcher.js&#45;&gt;src/js/overlay/dispatcher/OverlayDispatcherEvent.js</title>
<path fill="none" stroke="#000000" stroke-width="2" stroke-opacity="0.200000" d="M950.7,-617C951.99,-617 953.29,-617 954.6,-617"/>
<polygon fill="#000000" fill-opacity="0.200000" stroke="#000000" stroke-width="2" stroke-opacity="0.200000" points="954.25,-619.1 960.25,-617 954.25,-614.9 954.25,-619.1"/>
</g>
<!-- src/js/overlay/format/OverlayFormat.js&#45;&gt;src/js/overlay/OverlayUtil.js -->
<g id="edge22" class="edge">
<title>src/js/overlay/format/OverlayFormat.js&#45;&gt;src/js/overlay/OverlayUtil.js</title>
<path fill="none" stroke="#000000" stroke-width="2" stroke-opacity="0.200000" d="M705.72,-688C715.17,-688 725.22,-688 734.73,-688"/>
<polygon fill="#000000" fill-opacity="0.200000" stroke="#000000" stroke-width="2" stroke-opacity="0.200000" points="734.61,-690.1 740.61,-688 734.61,-685.9 734.61,-690.1"/>
</g>
<!-- src/js/overlay/media/OverlayMedia.js&#45;&gt;src/js/overlay/OverlayUtil.js -->
<g id="edge23" class="edge">
<title>src/js/overlay/media/OverlayMedia.js&#45;&gt;src/js/overlay/OverlayUtil.js</title>
<path fill="none" stroke="#000000" stroke-width="2" stroke-opacity="0.200000" d="M688.98,-739.26C697.57,-735.68 707.14,-731.42 715.62,-727 729.75,-719.64 744.91,-710.2 756.75,-702.45"/>
<polygon fill="#000000" fill-opacity="0.200000" stroke="#000000" stroke-width="2" stroke-opacity="0.200000" points="757.64,-704.38 761.48,-699.31 755.32,-700.88 757.64,-704.38"/>
</g>
<!-- src/js/overlay/rhythm/OverlayRhythm.js&#45;&gt;src/js/overlay/OverlayUtil.js -->
<g id="edge24" class="edge">
<title>src/js/overlay/rhythm/OverlayRhythm.js&#45;&gt;src/js/overlay/OverlayUtil.js</title>
<path fill="none" stroke="#000000" stroke-width="2" stroke-opacity="0.200000" d="M697.53,-861.32C704.16,-858.22 710.6,-854.19 715.62,-849 755.29,-808.03 770.45,-739.05 775.62,-706.31"/>
<polygon fill="#000000" fill-opacity="0.200000" stroke="#000000" stroke-width="2" stroke-opacity="0.200000" points="777.64,-706.97 776.43,-700.73 773.49,-706.36 777.64,-706.97"/>
</g>
<!-- src/js/overlay/OverlayUtil.js&#45;&gt;src/js/overlay/dispatcher/OverlayDispatcher.js -->
<g id="edge19" class="edge">
<title>src/js/overlay/OverlayUtil.js&#45;&gt;src/js/overlay/dispatcher/OverlayDispatcher.js</title>
<path fill="none" stroke="#000000" stroke-width="2" stroke-opacity="0.200000" d="M796.1,-678.42C816.57,-666.25 852.08,-645.13 875.65,-631.11"/>
<polygon fill="#000000" fill-opacity="0.200000" stroke="#000000" stroke-width="2" stroke-opacity="0.200000" points="876.46,-633.07 880.55,-628.2 874.32,-629.46 876.46,-633.07"/>
</g>
<!-- src/js/renderer/RendererResizer.js -->
<g id="node27" class="node">
<title>src/js/renderer/RendererResizer.js</title>
<g id="a_node27"><a xlink:href="src/js/renderer/RendererResizer.js" xlink:title="RendererResizer.js">
<path fill="#ffffcc" stroke="black" d="M820.21,-557.25C820.21,-557.25 737.79,-557.25 737.79,-557.25 734.71,-557.25 731.62,-554.17 731.62,-551.08 731.62,-551.08 731.62,-544.92 731.62,-544.92 731.62,-541.83 734.71,-538.75 737.79,-538.75 737.79,-538.75 820.21,-538.75 820.21,-538.75 823.29,-538.75 826.38,-541.83 826.38,-544.92 826.38,-544.92 826.38,-551.08 826.38,-551.08 826.38,-554.17 823.29,-557.25 820.21,-557.25"/>
<text text-anchor="start" x="739.62" y="-544.7" font-family="Helvetica,sans-Serif" font-size="9.00">RendererResizer.js</text>
</a>
</g>
</g>
<!-- src/js/renderer/RendererResizer.js&#45;&gt;src/js/overlay/dispatcher/OverlayDispatcher.js -->
<g id="edge25" class="edge">
<title>src/js/renderer/RendererResizer.js&#45;&gt;src/js/overlay/dispatcher/OverlayDispatcher.js</title>
<path fill="none" stroke="#000000" stroke-width="2" stroke-opacity="0.200000" d="M796.85,-557.74C817.2,-569.5 851.6,-589.38 874.88,-602.84"/>
<polygon fill="#000000" fill-opacity="0.200000" stroke="#000000" stroke-width="2" stroke-opacity="0.200000" points="873.74,-604.61 879.99,-605.8 875.85,-600.97 873.74,-604.61"/>
</g>
<!-- src/js/rhythm/ViewRhythm.js -->
<g id="node28" class="node">
<title>src/js/rhythm/ViewRhythm.js</title>
<g id="a_node28"><a xlink:href="src/js/rhythm/ViewRhythm.js" xlink:title="ViewRhythm.js">
<path fill="#ffffcc" stroke="black" d="M141.33,-679.25C141.33,-679.25 76.92,-679.25 76.92,-679.25 73.83,-679.25 70.75,-676.17 70.75,-673.08 70.75,-673.08 70.75,-666.92 70.75,-666.92 70.75,-663.83 73.83,-660.75 76.92,-660.75 76.92,-660.75 141.33,-660.75 141.33,-660.75 144.42,-660.75 147.5,-663.83 147.5,-666.92 147.5,-666.92 147.5,-673.08 147.5,-673.08 147.5,-676.17 144.42,-679.25 141.33,-679.25"/>
<text text-anchor="start" x="78.75" y="-666.7" font-family="Helvetica,sans-Serif" font-size="9.00">ViewRhythm.js</text>
</a>
</g>
</g>
<!-- src/js/rhythm/ViewRhythmTrack.js -->
<g id="node29" class="node">
<title>src/js/rhythm/ViewRhythmTrack.js</title>
<g id="a_node29"><a xlink:href="src/js/rhythm/ViewRhythmTrack.js" xlink:title="ViewRhythmTrack.js">
<path fill="#ffffcc" stroke="black" d="M349.71,-679.25C349.71,-679.25 262.79,-679.25 262.79,-679.25 259.71,-679.25 256.62,-676.17 256.62,-673.08 256.62,-673.08 256.62,-666.92 256.62,-666.92 256.62,-663.83 259.71,-660.75 262.79,-660.75 262.79,-660.75 349.71,-660.75 349.71,-660.75 352.79,-660.75 355.88,-663.83 355.88,-666.92 355.88,-666.92 355.88,-673.08 355.88,-673.08 355.88,-676.17 352.79,-679.25 349.71,-679.25"/>
<text text-anchor="start" x="264.62" y="-666.7" font-family="Helvetica,sans-Serif" font-size="9.00">ViewRhythmTrack.js</text>
</a>
</g>
</g>
<!-- src/js/rhythm/ViewRhythm.js&#45;&gt;src/js/rhythm/ViewRhythmTrack.js -->
<g id="edge26" class="edge">
<title>src/js/rhythm/ViewRhythm.js&#45;&gt;src/js/rhythm/ViewRhythmTrack.js</title>
<path fill="none" stroke="#000000" stroke-width="2" stroke-opacity="0.200000" d="M147.75,-670C175.99,-670 215.17,-670 247.39,-670"/>
<polygon fill="#000000" fill-opacity="0.200000" stroke="#000000" stroke-width="2" stroke-opacity="0.200000" points="247.25,-672.1 253.25,-670 247.25,-667.9 247.25,-672.1"/>
</g>
<!-- src/js/view/View.js -->
<g id="node30" class="node">
<title>src/js/view/View.js</title>
<g id="a_node30"><a xlink:href="src/js/view/View.js" xlink:title="View.js">
<path fill="#ccffcc" stroke="black" d="M129.96,-740.25C129.96,-740.25 88.29,-740.25 88.29,-740.25 85.21,-740.25 82.12,-737.17 82.12,-734.08 82.12,-734.08 82.12,-727.92 82.12,-727.92 82.12,-724.83 85.21,-721.75 88.29,-721.75 88.29,-721.75 129.96,-721.75 129.96,-721.75 133.04,-721.75 136.12,-724.83 136.12,-727.92 136.12,-727.92 136.12,-734.08 136.12,-734.08 136.12,-737.17 133.04,-740.25 129.96,-740.25"/>
<text text-anchor="start" x="94.88" y="-727.7" font-family="Helvetica,sans-Serif" font-size="9.00">View.js</text>
</a>
</g>
</g>
</g>
</svg>
