<?xml version="1.0" encoding="UTF-8" standalone="no"?>
<!DOCTYPE svg PUBLIC "-//W3C//DTD SVG 1.1//EN"
 "http://www.w3.org/Graphics/SVG/1.1/DTD/svg11.dtd">
<!-- Generated by graphviz version 12.2.1 (20241206.2353)
 -->
<!-- Title: dependency&#45;cruiser output Pages: 1 -->
<svg width="1007pt" height="1985pt"
 viewBox="0.00 0.00 1007.25 1985.00" xmlns="http://www.w3.org/2000/svg" xmlns:xlink="http://www.w3.org/1999/xlink">
<g id="graph0" class="graph" transform="scale(1 1) rotate(0) translate(4 1981)">
<title>dependency&#45;cruiser output</title>
<polygon fill="white" stroke="none" points="-4,4 -4,-1981 1003.25,-1981 1003.25,4 -4,4"/>
<g id="clust1" class="cluster">
<title>cluster_src</title>
<path fill="#ffffff" stroke="black" stroke-width="2" d="M20,-8C20,-8 979.25,-8 979.25,-8 985.25,-8 991.25,-14 991.25,-20 991.25,-20 991.25,-1957 991.25,-1957 991.25,-1963 985.25,-1969 979.25,-1969 979.25,-1969 20,-1969 20,-1969 14,-1969 8,-1963 8,-1957 8,-1957 8,-20 8,-20 8,-14 14,-8 20,-8"/>
<text text-anchor="middle" x="499.62" y="-1956.45" font-family="Helvetica,sans-Serif" font-weight="bold" font-size="9.00">src</text>
</g>
<g id="clust2" class="cluster">
<title>cluster_src/js</title>
<path fill="#ffffff" stroke="black" stroke-width="2" d="M28,-16C28,-16 971.25,-16 971.25,-16 977.25,-16 983.25,-22 983.25,-28 983.25,-28 983.25,-1930 983.25,-1930 983.25,-1936 977.25,-1942 971.25,-1942 971.25,-1942 28,-1942 28,-1942 22,-1942 16,-1936 16,-1930 16,-1930 16,-28 16,-28 16,-22 22,-16 28,-16"/>
<text text-anchor="middle" x="499.62" y="-1929.45" font-family="Helvetica,sans-Serif" font-weight="bold" font-size="9.00">js</text>
</g>
<g id="clust3" class="cluster">
<title>cluster_src/js/application</title>
<path fill="#ffffff" stroke="black" stroke-width="2" d="M136.25,-1677C136.25,-1677 199,-1677 199,-1677 205,-1677 211,-1683 211,-1689 211,-1689 211,-1718 211,-1718 211,-1724 205,-1730 199,-1730 199,-1730 136.25,-1730 136.25,-1730 130.25,-1730 124.25,-1724 124.25,-1718 124.25,-1718 124.25,-1689 124.25,-1689 124.25,-1683 130.25,-1677 136.25,-1677"/>
<text text-anchor="middle" x="167.62" y="-1717.45" font-family="Helvetica,sans-Serif" font-weight="bold" font-size="9.00">application</text>
</g>
<g id="clust4" class="cluster">
<title>cluster_src/js/controller</title>
<path fill="#ffffff" stroke="black" stroke-width="2" d="M231,-1677C231,-1677 287.75,-1677 287.75,-1677 293.75,-1677 299.75,-1683 299.75,-1689 299.75,-1689 299.75,-1718 299.75,-1718 299.75,-1724 293.75,-1730 287.75,-1730 287.75,-1730 231,-1730 231,-1730 225,-1730 219,-1724 219,-1718 219,-1718 219,-1689 219,-1689 219,-1683 225,-1677 231,-1677"/>
<text text-anchor="middle" x="259.38" y="-1717.45" font-family="Helvetica,sans-Serif" font-weight="bold" font-size="9.00">controller</text>
</g>
<g id="clust5" class="cluster">
<title>cluster_src/js/data</title>
<path fill="#ffffff" stroke="black" stroke-width="2" d="M36,-835C36,-835 191.12,-835 191.12,-835 197.12,-835 203.12,-841 203.12,-847 203.12,-847 203.12,-876 203.12,-876 203.12,-882 197.12,-888 191.12,-888 191.12,-888 36,-888 36,-888 30,-888 24,-882 24,-876 24,-876 24,-847 24,-847 24,-841 30,-835 36,-835"/>
<text text-anchor="middle" x="113.56" y="-875.45" font-family="Helvetica,sans-Serif" font-weight="bold" font-size="9.00">data</text>
</g>
<g id="clust6" class="cluster">
<title>cluster_src/js/directable</title>
<path fill="#ffffff" stroke="black" stroke-width="2" d="M400.25,-24C400.25,-24 963.25,-24 963.25,-24 969.25,-24 975.25,-30 975.25,-36 975.25,-36 975.25,-1619 975.25,-1619 975.25,-1625 969.25,-1631 963.25,-1631 963.25,-1631 400.25,-1631 400.25,-1631 394.25,-1631 388.25,-1625 388.25,-1619 388.25,-1619 388.25,-36 388.25,-36 388.25,-30 394.25,-24 400.25,-24"/>
<text text-anchor="middle" x="681.75" y="-1618.45" font-family="Helvetica,sans-Serif" font-weight="bold" font-size="9.00">directable</text>
</g>
<g id="clust7" class="cluster">
<title>cluster_src/js/directable/directables</title>
<path fill="#ffffff" stroke="black" stroke-width="2" d="M408.25,-32C408.25,-32 955.25,-32 955.25,-32 961.25,-32 967.25,-38 967.25,-44 967.25,-44 967.25,-1592 967.25,-1592 967.25,-1598 961.25,-1604 955.25,-1604 955.25,-1604 408.25,-1604 408.25,-1604 402.25,-1604 396.25,-1598 396.25,-1592 396.25,-1592 396.25,-44 396.25,-44 396.25,-38 402.25,-32 408.25,-32"/>
<text text-anchor="middle" x="681.75" y="-1591.45" font-family="Helvetica,sans-Serif" font-weight="bold" font-size="9.00">directables</text>
</g>
<g id="clust8" class="cluster">
<title>cluster_src/js/directable/directables/dotmatrix</title>
<path fill="#ffffff" stroke="black" stroke-width="2" d="M451.25,-40C451.25,-40 947.25,-40 947.25,-40 953.25,-40 959.25,-46 959.25,-52 959.25,-52 959.25,-1163 959.25,-1163 959.25,-1169 953.25,-1175 947.25,-1175 947.25,-1175 451.25,-1175 451.25,-1175 445.25,-1175 439.25,-1169 439.25,-1163 439.25,-1163 439.25,-52 439.25,-52 439.25,-46 445.25,-40 451.25,-40"/>
<text text-anchor="middle" x="699.25" y="-1162.45" font-family="Helvetica,sans-Serif" font-weight="bold" font-size="9.00">dotmatrix</text>
</g>
<g id="clust9" class="cluster">
<title>cluster_src/js/directable/directables/dotmatrix/dot</title>
<path fill="#ffffff" stroke="black" stroke-width="2" d="M775,-171C775,-171 842.25,-171 842.25,-171 848.25,-171 854.25,-177 854.25,-183 854.25,-183 854.25,-243 854.25,-243 854.25,-249 848.25,-255 842.25,-255 842.25,-255 775,-255 775,-255 769,-255 763,-249 763,-243 763,-243 763,-183 763,-183 763,-177 769,-171 775,-171"/>
<text text-anchor="middle" x="808.62" y="-242.45" font-family="Helvetica,sans-Serif" font-weight="bold" font-size="9.00">dot</text>
</g>
<g id="clust10" class="cluster">
<title>cluster_src/js/directable/directables/dotmatrix/grid</title>
<path fill="#ffffff" stroke="black" stroke-width="2" d="M748,-263C748,-263 869.25,-263 869.25,-263 875.25,-263 881.25,-269 881.25,-275 881.25,-275 881.25,-366 881.25,-366 881.25,-372 875.25,-378 869.25,-378 869.25,-378 748,-378 748,-378 742,-378 736,-372 736,-366 736,-366 736,-275 736,-275 736,-269 742,-263 748,-263"/>
<text text-anchor="middle" x="808.62" y="-365.45" font-family="Helvetica,sans-Serif" font-weight="bold" font-size="9.00">grid</text>
</g>
<g id="clust11" class="cluster">
<title>cluster_src/js/directable/directables/dotmatrix/shape</title>
<path fill="#ffffff" stroke="black" stroke-width="2" d="M748.62,-386C748.62,-386 868.62,-386 868.62,-386 874.62,-386 880.62,-392 880.62,-398 880.62,-398 880.62,-1136 880.62,-1136 880.62,-1142 874.62,-1148 868.62,-1148 868.62,-1148 748.62,-1148 748.62,-1148 742.62,-1148 736.62,-1142 736.62,-1136 736.62,-1136 736.62,-398 736.62,-398 736.62,-392 742.62,-386 748.62,-386"/>
<text text-anchor="middle" x="808.62" y="-1135.45" font-family="Helvetica,sans-Serif" font-weight="bold" font-size="9.00">shape</text>
</g>
<g id="clust12" class="cluster">
<title>cluster_src/js/directable/directables/dotmatrix/shape/fill</title>
<path fill="#ffffff" stroke="black" stroke-width="2" d="M767.12,-394C767.12,-394 850.12,-394 850.12,-394 856.12,-394 862.12,-400 862.12,-406 862.12,-406 862.12,-528 862.12,-528 862.12,-534 856.12,-540 850.12,-540 850.12,-540 767.12,-540 767.12,-540 761.12,-540 755.12,-534 755.12,-528 755.12,-528 755.12,-406 755.12,-406 755.12,-400 761.12,-394 767.12,-394"/>
<text text-anchor="middle" x="808.62" y="-527.45" font-family="Helvetica,sans-Serif" font-weight="bold" font-size="9.00">fill</text>
</g>
<g id="clust13" class="cluster">
<title>cluster_src/js/directable/directables/dotmatrix/shape/glyph</title>
<path fill="#ffffff" stroke="black" stroke-width="2" d="M768.62,-548C768.62,-548 848.62,-548 848.62,-548 854.62,-548 860.62,-554 860.62,-560 860.62,-560 860.62,-899 860.62,-899 860.62,-905 854.62,-911 848.62,-911 848.62,-911 768.62,-911 768.62,-911 762.62,-911 756.62,-905 756.62,-899 756.62,-899 756.62,-560 756.62,-560 756.62,-554 762.62,-548 768.62,-548"/>
<text text-anchor="middle" x="808.62" y="-898.45" font-family="Helvetica,sans-Serif" font-weight="bold" font-size="9.00">glyph</text>
</g>
<g id="clust14" class="cluster">
<title>cluster_src/js/directable/directables/dotmatrix/shape/line</title>
<path fill="#ffffff" stroke="black" stroke-width="2" d="M756.62,-919C756.62,-919 860.62,-919 860.62,-919 866.62,-919 872.62,-925 872.62,-931 872.62,-931 872.62,-991 872.62,-991 872.62,-997 866.62,-1003 860.62,-1003 860.62,-1003 756.62,-1003 756.62,-1003 750.62,-1003 744.62,-997 744.62,-991 744.62,-991 744.62,-931 744.62,-931 744.62,-925 750.62,-919 756.62,-919"/>
<text text-anchor="middle" x="808.62" y="-990.45" font-family="Helvetica,sans-Serif" font-weight="bold" font-size="9.00">line</text>
</g>
<g id="clust15" class="cluster">
<title>cluster_src/js/directable/directables/dotmatrix/shape/primative</title>
<path fill="#ffffff" stroke="black" stroke-width="2" d="M765.62,-1011C765.62,-1011 851.62,-1011 851.62,-1011 857.62,-1011 863.62,-1017 863.62,-1023 863.62,-1023 863.62,-1052 863.62,-1052 863.62,-1058 857.62,-1064 851.62,-1064 851.62,-1064 765.62,-1064 765.62,-1064 759.62,-1064 753.62,-1058 753.62,-1052 753.62,-1052 753.62,-1023 753.62,-1023 753.62,-1017 759.62,-1011 765.62,-1011"/>
<text text-anchor="middle" x="808.62" y="-1051.45" font-family="Helvetica,sans-Serif" font-weight="bold" font-size="9.00">primative</text>
</g>
<g id="clust16" class="cluster">
<title>cluster_src/js/directable/directables/dotmatrix/view</title>
<path fill="#ffffff" stroke="black" stroke-width="2" d="M625.5,-48C625.5,-48 939.25,-48 939.25,-48 945.25,-48 951.25,-54 951.25,-60 951.25,-60 951.25,-151 951.25,-151 951.25,-157 945.25,-163 939.25,-163 939.25,-163 625.5,-163 625.5,-163 619.5,-163 613.5,-157 613.5,-151 613.5,-151 613.5,-60 613.5,-60 613.5,-54 619.5,-48 625.5,-48"/>
<text text-anchor="middle" x="782.38" y="-150.45" font-family="Helvetica,sans-Serif" font-weight="bold" font-size="9.00">view</text>
</g>
<g id="clust17" class="cluster">
<title>cluster_src/js/directable/directables/frame</title>
<path fill="#ffffff" stroke="black" stroke-width="2" d="M457.62,-1183C457.62,-1183 542.88,-1183 542.88,-1183 548.88,-1183 554.88,-1189 554.88,-1195 554.88,-1195 554.88,-1224 554.88,-1224 554.88,-1230 548.88,-1236 542.88,-1236 542.88,-1236 457.62,-1236 457.62,-1236 451.62,-1236 445.62,-1230 445.62,-1224 445.62,-1224 445.62,-1195 445.62,-1195 445.62,-1189 451.62,-1183 457.62,-1183"/>
<text text-anchor="middle" x="500.25" y="-1223.45" font-family="Helvetica,sans-Serif" font-weight="bold" font-size="9.00">frame</text>
</g>
<g id="clust18" class="cluster">
<title>cluster_src/js/directable/directables/rhythm</title>
<path fill="#ffffff" stroke="black" stroke-width="2" d="M416.25,-1244C416.25,-1244 707.38,-1244 707.38,-1244 713.38,-1244 719.38,-1250 719.38,-1256 719.38,-1256 719.38,-1443 719.38,-1443 719.38,-1449 713.38,-1455 707.38,-1455 707.38,-1455 416.25,-1455 416.25,-1455 410.25,-1455 404.25,-1449 404.25,-1443 404.25,-1443 404.25,-1256 404.25,-1256 404.25,-1250 410.25,-1244 416.25,-1244"/>
<text text-anchor="middle" x="561.81" y="-1442.45" font-family="Helvetica,sans-Serif" font-weight="bold" font-size="9.00">rhythm</text>
</g>
<g id="clust19" class="cluster">
<title>cluster_src/js/directable/directables/rhythm/asdr</title>
<path fill="#ffffff" stroke="black" stroke-width="2" d="M424.25,-1252C424.25,-1252 576.25,-1252 576.25,-1252 582.25,-1252 588.25,-1258 588.25,-1264 588.25,-1264 588.25,-1355 588.25,-1355 588.25,-1361 582.25,-1367 576.25,-1367 576.25,-1367 424.25,-1367 424.25,-1367 418.25,-1367 412.25,-1361 412.25,-1355 412.25,-1355 412.25,-1264 412.25,-1264 412.25,-1258 418.25,-1252 424.25,-1252"/>
<text text-anchor="middle" x="500.25" y="-1354.45" font-family="Helvetica,sans-Serif" font-weight="bold" font-size="9.00">asdr</text>
</g>
<g id="clust20" class="cluster">
<title>cluster_src/js/directable/directables/rhythm/bpm</title>
<path fill="#ffffff" stroke="black" stroke-width="2" d="M445.25,-1375C445.25,-1375 555.25,-1375 555.25,-1375 561.25,-1375 567.25,-1381 567.25,-1387 567.25,-1387 567.25,-1416 567.25,-1416 567.25,-1422 561.25,-1428 555.25,-1428 555.25,-1428 445.25,-1428 445.25,-1428 439.25,-1428 433.25,-1422 433.25,-1416 433.25,-1416 433.25,-1387 433.25,-1387 433.25,-1381 439.25,-1375 445.25,-1375"/>
<text text-anchor="middle" x="500.25" y="-1415.45" font-family="Helvetica,sans-Serif" font-weight="bold" font-size="9.00">bpm</text>
</g>
<g id="clust21" class="cluster">
<title>cluster_src/js/directable/directables/rhythm2</title>
<path fill="#ffffff" stroke="black" stroke-width="2" d="M465.88,-1463C465.88,-1463 707.75,-1463 707.75,-1463 713.75,-1463 719.75,-1469 719.75,-1475 719.75,-1475 719.75,-1504 719.75,-1504 719.75,-1510 713.75,-1516 707.75,-1516 707.75,-1516 465.88,-1516 465.88,-1516 459.88,-1516 453.88,-1510 453.88,-1504 453.88,-1504 453.88,-1475 453.88,-1475 453.88,-1469 459.88,-1463 465.88,-1463"/>
<text text-anchor="middle" x="586.81" y="-1503.45" font-family="Helvetica,sans-Serif" font-weight="bold" font-size="9.00">rhythm2</text>
</g>
<g id="clust22" class="cluster">
<title>cluster_src/js/directable/directables/title</title>
<path fill="#ffffff" stroke="black" stroke-width="2" d="M462.12,-1524C462.12,-1524 538.38,-1524 538.38,-1524 544.38,-1524 550.38,-1530 550.38,-1536 550.38,-1536 550.38,-1565 550.38,-1565 550.38,-1571 544.38,-1577 538.38,-1577 538.38,-1577 462.12,-1577 462.12,-1577 456.12,-1577 450.12,-1571 450.12,-1565 450.12,-1565 450.12,-1536 450.12,-1536 450.12,-1530 456.12,-1524 462.12,-1524"/>
<text text-anchor="middle" x="500.25" y="-1564.45" font-family="Helvetica,sans-Serif" font-weight="bold" font-size="9.00">title</text>
</g>
<g id="clust23" class="cluster">
<title>cluster_src/js/director</title>
<path fill="#ffffff" stroke="black" stroke-width="2" d="M319.75,-1524C319.75,-1524 368.25,-1524 368.25,-1524 374.25,-1524 380.25,-1530 380.25,-1536 380.25,-1536 380.25,-1565 380.25,-1565 380.25,-1571 374.25,-1577 368.25,-1577 368.25,-1577 319.75,-1577 319.75,-1577 313.75,-1577 307.75,-1571 307.75,-1565 307.75,-1565 307.75,-1536 307.75,-1536 307.75,-1530 313.75,-1524 319.75,-1524"/>
<text text-anchor="middle" x="344" y="-1564.45" font-family="Helvetica,sans-Serif" font-weight="bold" font-size="9.00">director</text>
</g>
<g id="clust24" class="cluster">
<title>cluster_src/js/enum</title>
<path fill="#ffffff" stroke="black" stroke-width="2" d="M768.25,-1800C768.25,-1800 849,-1800 849,-1800 855,-1800 861,-1806 861,-1812 861,-1812 861,-1841 861,-1841 861,-1847 855,-1853 849,-1853 849,-1853 768.25,-1853 768.25,-1853 762.25,-1853 756.25,-1847 756.25,-1841 756.25,-1841 756.25,-1812 756.25,-1812 756.25,-1806 762.25,-1800 768.25,-1800"/>
<text text-anchor="middle" x="808.62" y="-1840.45" font-family="Helvetica,sans-Serif" font-weight="bold" font-size="9.00">enum</text>
</g>
<g id="clust25" class="cluster">
<title>cluster_src/js/overlay</title>
<path fill="#ffffff" stroke="black" stroke-width="2" d="M476.38,-1639C476.38,-1639 839.62,-1639 839.62,-1639 845.62,-1639 851.62,-1645 851.62,-1651 851.62,-1651 851.62,-1776 851.62,-1776 851.62,-1782 845.62,-1788 839.62,-1788 839.62,-1788 476.38,-1788 476.38,-1788 470.38,-1788 464.38,-1782 464.38,-1776 464.38,-1776 464.38,-1651 464.38,-1651 464.38,-1645 470.38,-1639 476.38,-1639"/>
<text text-anchor="middle" x="658" y="-1775.45" font-family="Helvetica,sans-Serif" font-weight="bold" font-size="9.00">overlay</text>
</g>
<g id="clust26" class="cluster">
<title>cluster_src/js/overlay/displayFormat</title>
<path fill="#ffffff" stroke="black" stroke-width="2" d="M608.25,-1708C608.25,-1708 716,-1708 716,-1708 722,-1708 728,-1714 728,-1720 728,-1720 728,-1749 728,-1749 728,-1755 722,-1761 716,-1761 716,-1761 608.25,-1761 608.25,-1761 602.25,-1761 596.25,-1755 596.25,-1749 596.25,-1749 596.25,-1720 596.25,-1720 596.25,-1714 602.25,-1708 608.25,-1708"/>
<text text-anchor="middle" x="662.12" y="-1748.45" font-family="Helvetica,sans-Serif" font-weight="bold" font-size="9.00">displayFormat</text>
</g>
<g id="clust27" class="cluster">
<title>cluster_src/js/overlay/overlay</title>
<path fill="#ffffff" stroke="black" stroke-width="2" d="M622.5,-1647C622.5,-1647 701.75,-1647 701.75,-1647 707.75,-1647 713.75,-1653 713.75,-1659 713.75,-1659 713.75,-1688 713.75,-1688 713.75,-1694 707.75,-1700 701.75,-1700 701.75,-1700 622.5,-1700 622.5,-1700 616.5,-1700 610.5,-1694 610.5,-1688 610.5,-1688 610.5,-1659 610.5,-1659 610.5,-1653 616.5,-1647 622.5,-1647"/>
<text text-anchor="middle" x="662.12" y="-1687.45" font-family="Helvetica,sans-Serif" font-weight="bold" font-size="9.00">overlay</text>
</g>
<g id="clust28" class="cluster">
<title>cluster_src/js/view</title>
<path fill="#ffffff" stroke="black" stroke-width="2" d="M321,-1796C321,-1796 709.75,-1796 709.75,-1796 715.75,-1796 721.75,-1802 721.75,-1808 721.75,-1808 721.75,-1903 721.75,-1903 721.75,-1909 715.75,-1915 709.75,-1915 709.75,-1915 321,-1915 321,-1915 315,-1915 309,-1909 309,-1903 309,-1903 309,-1808 309,-1808 309,-1802 315,-1796 321,-1796"/>
<text text-anchor="middle" x="515.38" y="-1902.45" font-family="Helvetica,sans-Serif" font-weight="bold" font-size="9.00">view</text>
</g>
<g id="clust29" class="cluster">
<title>cluster_src/js/view/render</title>
<path fill="#ffffff" stroke="black" stroke-width="2" d="M456.5,-1804C456.5,-1804 701.75,-1804 701.75,-1804 707.75,-1804 713.75,-1810 713.75,-1816 713.75,-1816 713.75,-1876 713.75,-1876 713.75,-1882 707.75,-1888 701.75,-1888 701.75,-1888 456.5,-1888 456.5,-1888 450.5,-1888 444.5,-1882 444.5,-1876 444.5,-1876 444.5,-1816 444.5,-1816 444.5,-1810 450.5,-1804 456.5,-1804"/>
<text text-anchor="middle" x="579.12" y="-1875.45" font-family="Helvetica,sans-Serif" font-weight="bold" font-size="9.00">render</text>
</g>
<!-- src/js/application/Application.js -->
<g id="node1" class="node">
<title>src/js/application/Application.js</title>
<g id="a_node1"><a xlink:href="src/js/application/Application.js" xlink:title="Application.js">
<path fill="#ffffcc" stroke="black" d="M196.83,-1703.25C196.83,-1703.25 138.42,-1703.25 138.42,-1703.25 135.33,-1703.25 132.25,-1700.17 132.25,-1697.08 132.25,-1697.08 132.25,-1690.92 132.25,-1690.92 132.25,-1687.83 135.33,-1684.75 138.42,-1684.75 138.42,-1684.75 196.83,-1684.75 196.83,-1684.75 199.92,-1684.75 203,-1687.83 203,-1690.92 203,-1690.92 203,-1697.08 203,-1697.08 203,-1700.17 199.92,-1703.25 196.83,-1703.25"/>
<text text-anchor="start" x="140.25" y="-1690.7" font-family="Helvetica,sans-Serif" font-size="9.00">Application.js</text>
</a>
</g>
</g>
<!-- src/js/controller/Controller.js -->
<g id="node2" class="node">
<title>src/js/controller/Controller.js</title>
<g id="a_node2"><a xlink:href="src/js/controller/Controller.js" xlink:title="Controller.js">
<path fill="#ffffcc" stroke="black" d="M285.58,-1703.25C285.58,-1703.25 233.17,-1703.25 233.17,-1703.25 230.08,-1703.25 227,-1700.17 227,-1697.08 227,-1697.08 227,-1690.92 227,-1690.92 227,-1687.83 230.08,-1684.75 233.17,-1684.75 233.17,-1684.75 285.58,-1684.75 285.58,-1684.75 288.67,-1684.75 291.75,-1687.83 291.75,-1690.92 291.75,-1690.92 291.75,-1697.08 291.75,-1697.08 291.75,-1700.17 288.67,-1703.25 285.58,-1703.25"/>
<text text-anchor="start" x="235" y="-1690.7" font-family="Helvetica,sans-Serif" font-size="9.00">Controller.js</text>
</a>
</g>
</g>
<!-- src/js/application/Application.js&#45;&gt;src/js/controller/Controller.js -->
<g id="edge1" class="edge">
<title>src/js/application/Application.js&#45;&gt;src/js/controller/Controller.js</title>
<path fill="none" stroke="#000000" stroke-width="2" stroke-opacity="0.200000" d="M203.32,-1694C208.13,-1694 213.11,-1694 218.01,-1694"/>
<polygon fill="#000000" fill-opacity="0.200000" stroke="#000000" stroke-width="2" stroke-opacity="0.200000" points="217.68,-1696.1 223.68,-1694 217.68,-1691.9 217.68,-1696.1"/>
</g>
<!-- src/js/director/Director.js -->
<g id="node3" class="node">
<title>src/js/director/Director.js</title>
<g id="a_node3"><a xlink:href="src/js/director/Director.js" xlink:title="Director.js">
<path fill="#ffffcc" stroke="black" d="M366.08,-1550.25C366.08,-1550.25 321.92,-1550.25 321.92,-1550.25 318.83,-1550.25 315.75,-1547.17 315.75,-1544.08 315.75,-1544.08 315.75,-1537.92 315.75,-1537.92 315.75,-1534.83 318.83,-1531.75 321.92,-1531.75 321.92,-1531.75 366.08,-1531.75 366.08,-1531.75 369.17,-1531.75 372.25,-1534.83 372.25,-1537.92 372.25,-1537.92 372.25,-1544.08 372.25,-1544.08 372.25,-1547.17 369.17,-1550.25 366.08,-1550.25"/>
<text text-anchor="start" x="323.75" y="-1537.7" font-family="Helvetica,sans-Serif" font-size="9.00">Director.js</text>
</a>
</g>
</g>
<!-- src/js/controller/Controller.js&#45;&gt;src/js/director/Director.js -->
<g id="edge2" class="edge">
<title>src/js/controller/Controller.js&#45;&gt;src/js/director/Director.js</title>
<path fill="none" stroke="#000000" stroke-width="2" stroke-opacity="0.200000" d="M265.54,-1684.43C279.16,-1659.21 316.19,-1590.64 333.65,-1558.31"/>
<polygon fill="#000000" fill-opacity="0.200000" stroke="#000000" stroke-width="2" stroke-opacity="0.200000" points="335.39,-1559.51 336.39,-1553.23 331.7,-1557.51 335.39,-1559.51"/>
</g>
<!-- src/js/overlay/Overlay.js -->
<g id="node4" class="node">
<title>src/js/overlay/Overlay.js</title>
<g id="a_node4"><a xlink:href="src/js/overlay/Overlay.js" xlink:title="Overlay.js">
<path fill="#ffffcc" stroke="black" d="M521.96,-1703.25C521.96,-1703.25 478.54,-1703.25 478.54,-1703.25 475.46,-1703.25 472.38,-1700.17 472.38,-1697.08 472.38,-1697.08 472.38,-1690.92 472.38,-1690.92 472.38,-1687.83 475.46,-1684.75 478.54,-1684.75 478.54,-1684.75 521.96,-1684.75 521.96,-1684.75 525.04,-1684.75 528.12,-1687.83 528.12,-1690.92 528.12,-1690.92 528.12,-1697.08 528.12,-1697.08 528.12,-1700.17 525.04,-1703.25 521.96,-1703.25"/>
<text text-anchor="start" x="480.38" y="-1690.7" font-family="Helvetica,sans-Serif" font-size="9.00">Overlay.js</text>
</a>
</g>
</g>
<!-- src/js/controller/Controller.js&#45;&gt;src/js/overlay/Overlay.js -->
<g id="edge3" class="edge">
<title>src/js/controller/Controller.js&#45;&gt;src/js/overlay/Overlay.js</title>
<path fill="none" stroke="#000000" stroke-width="2" stroke-opacity="0.200000" d="M292.1,-1694C336.48,-1694 416.86,-1694 463.37,-1694"/>
<polygon fill="#000000" fill-opacity="0.200000" stroke="#000000" stroke-width="2" stroke-opacity="0.200000" points="463.18,-1696.1 469.18,-1694 463.18,-1691.9 463.18,-1696.1"/>
</g>
<!-- src/js/view/View.js -->
<g id="node5" class="node">
<title>src/js/view/View.js</title>
<g id="a_node5"><a xlink:href="src/js/view/View.js" xlink:title="View.js">
<path fill="#ffffcc" stroke="black" d="M364.83,-1826.25C364.83,-1826.25 323.17,-1826.25 323.17,-1826.25 320.08,-1826.25 317,-1823.17 317,-1820.08 317,-1820.08 317,-1813.92 317,-1813.92 317,-1810.83 320.08,-1807.75 323.17,-1807.75 323.17,-1807.75 364.83,-1807.75 364.83,-1807.75 367.92,-1807.75 371,-1810.83 371,-1813.92 371,-1813.92 371,-1820.08 371,-1820.08 371,-1823.17 367.92,-1826.25 364.83,-1826.25"/>
<text text-anchor="start" x="329.75" y="-1813.7" font-family="Helvetica,sans-Serif" font-size="9.00">View.js</text>
</a>
</g>
</g>
<!-- src/js/controller/Controller.js&#45;&gt;src/js/view/View.js -->
<g id="edge4" class="edge">
<title>src/js/controller/Controller.js&#45;&gt;src/js/view/View.js</title>
<path fill="none" stroke="#000000" stroke-width="2" stroke-opacity="0.200000" d="M266.86,-1703.65C280.86,-1724.49 314.06,-1773.91 331.63,-1800.08"/>
<polygon fill="#000000" fill-opacity="0.200000" stroke="#000000" stroke-width="2" stroke-opacity="0.200000" points="329.77,-1801.07 334.86,-1804.88 333.26,-1798.73 329.77,-1801.07"/>
</g>
<!-- src/js/directable/directables/dotmatrix/DirectableDotMatrix.js -->
<g id="node8" class="node">
<title>src/js/directable/directables/dotmatrix/DirectableDotMatrix.js</title>
<g id="a_node8"><a xlink:href="src/js/directable/directables/dotmatrix/DirectableDotMatrix.js" xlink:title="DirectableDotMatrix.js">
<path fill="#ffffcc" stroke="black" d="M547.08,-611.25C547.08,-611.25 453.42,-611.25 453.42,-611.25 450.33,-611.25 447.25,-608.17 447.25,-605.08 447.25,-605.08 447.25,-598.92 447.25,-598.92 447.25,-595.83 450.33,-592.75 453.42,-592.75 453.42,-592.75 547.08,-592.75 547.08,-592.75 550.17,-592.75 553.25,-595.83 553.25,-598.92 553.25,-598.92 553.25,-605.08 553.25,-605.08 553.25,-608.17 550.17,-611.25 547.08,-611.25"/>
<text text-anchor="start" x="455.25" y="-598.7" font-family="Helvetica,sans-Serif" font-size="9.00">DirectableDotMatrix.js</text>
</a>
</g>
</g>
<!-- src/js/director/Director.js&#45;&gt;src/js/directable/directables/dotmatrix/DirectableDotMatrix.js -->
<g id="edge14" class="edge">
<title>src/js/director/Director.js&#45;&gt;src/js/directable/directables/dotmatrix/DirectableDotMatrix.js</title>
<path fill="none" stroke="#000000" stroke-width="2" stroke-opacity="0.200000" d="M345.89,-1531.48C349.85,-1489.79 366.59,-1319.09 388.25,-1180 422.79,-958.21 479.78,-691.47 495.26,-620.22"/>
<polygon fill="#000000" fill-opacity="0.200000" stroke="#000000" stroke-width="2" stroke-opacity="0.200000" points="497.3,-620.76 496.52,-614.45 493.19,-619.86 497.3,-620.76"/>
</g>
<!-- src/js/directable/directables/title/DirectableTitle.js -->
<g id="node47" class="node">
<title>src/js/directable/directables/title/DirectableTitle.js</title>
<g id="a_node47"><a xlink:href="src/js/directable/directables/title/DirectableTitle.js" xlink:title="DirectableTitle.js">
<path fill="#ffffcc" stroke="black" d="M536.21,-1550.25C536.21,-1550.25 464.29,-1550.25 464.29,-1550.25 461.21,-1550.25 458.12,-1547.17 458.12,-1544.08 458.12,-1544.08 458.12,-1537.92 458.12,-1537.92 458.12,-1534.83 461.21,-1531.75 464.29,-1531.75 464.29,-1531.75 536.21,-1531.75 536.21,-1531.75 539.29,-1531.75 542.38,-1534.83 542.38,-1537.92 542.38,-1537.92 542.38,-1544.08 542.38,-1544.08 542.38,-1547.17 539.29,-1550.25 536.21,-1550.25"/>
<text text-anchor="start" x="466.12" y="-1537.7" font-family="Helvetica,sans-Serif" font-size="9.00">DirectableTitle.js</text>
</a>
</g>
</g>
<!-- src/js/director/Director.js&#45;&gt;src/js/directable/directables/title/DirectableTitle.js -->
<g id="edge15" class="edge">
<title>src/js/director/Director.js&#45;&gt;src/js/directable/directables/title/DirectableTitle.js</title>
<path fill="none" stroke="#000000" stroke-width="2" stroke-opacity="0.200000" d="M372.58,-1541C393.74,-1541 423.53,-1541 448.91,-1541"/>
<polygon fill="#000000" fill-opacity="0.200000" stroke="#000000" stroke-width="2" stroke-opacity="0.200000" points="448.65,-1543.1 454.65,-1541 448.65,-1538.9 448.65,-1543.1"/>
</g>
<!-- src/js/overlay/displayFormat/OverlayDisplayFormat.js -->
<g id="node50" class="node">
<title>src/js/overlay/displayFormat/OverlayDisplayFormat.js</title>
<g id="a_node50"><a xlink:href="src/js/overlay/displayFormat/OverlayDisplayFormat.js" xlink:title="OverlayDisplayFormat.js">
<path fill="#ffffcc" stroke="black" d="M713.83,-1734.25C713.83,-1734.25 610.42,-1734.25 610.42,-1734.25 607.33,-1734.25 604.25,-1731.17 604.25,-1728.08 604.25,-1728.08 604.25,-1721.92 604.25,-1721.92 604.25,-1718.83 607.33,-1715.75 610.42,-1715.75 610.42,-1715.75 713.83,-1715.75 713.83,-1715.75 716.92,-1715.75 720,-1718.83 720,-1721.92 720,-1721.92 720,-1728.08 720,-1728.08 720,-1731.17 716.92,-1734.25 713.83,-1734.25"/>
<text text-anchor="start" x="612.25" y="-1721.7" font-family="Helvetica,sans-Serif" font-size="9.00">OverlayDisplayFormat.js</text>
</a>
</g>
</g>
<!-- src/js/overlay/Overlay.js&#45;&gt;src/js/overlay/displayFormat/OverlayDisplayFormat.js -->
<g id="edge17" class="edge">
<title>src/js/overlay/Overlay.js&#45;&gt;src/js/overlay/displayFormat/OverlayDisplayFormat.js</title>
<path fill="none" stroke="#000000" stroke-width="2" stroke-opacity="0.200000" d="M528.37,-1699.26C548.53,-1703.17 576.81,-1708.65 602.09,-1713.55"/>
<polygon fill="#000000" fill-opacity="0.200000" stroke="#000000" stroke-width="2" stroke-opacity="0.200000" points="601.62,-1715.6 607.91,-1714.68 602.42,-1711.48 601.62,-1715.6"/>
</g>
<!-- src/js/overlay/overlay/OverlayOverlay.js -->
<g id="node51" class="node">
<title>src/js/overlay/overlay/OverlayOverlay.js</title>
<g id="a_node51"><a xlink:href="src/js/overlay/overlay/OverlayOverlay.js" xlink:title="OverlayOverlay.js">
<path fill="#ffffcc" stroke="black" d="M699.58,-1673.25C699.58,-1673.25 624.67,-1673.25 624.67,-1673.25 621.58,-1673.25 618.5,-1670.17 618.5,-1667.08 618.5,-1667.08 618.5,-1660.92 618.5,-1660.92 618.5,-1657.83 621.58,-1654.75 624.67,-1654.75 624.67,-1654.75 699.58,-1654.75 699.58,-1654.75 702.67,-1654.75 705.75,-1657.83 705.75,-1660.92 705.75,-1660.92 705.75,-1667.08 705.75,-1667.08 705.75,-1670.17 702.67,-1673.25 699.58,-1673.25"/>
<text text-anchor="start" x="626.5" y="-1660.7" font-family="Helvetica,sans-Serif" font-size="9.00">OverlayOverlay.js</text>
</a>
</g>
</g>
<!-- src/js/overlay/Overlay.js&#45;&gt;src/js/overlay/overlay/OverlayOverlay.js -->
<g id="edge18" class="edge">
<title>src/js/overlay/Overlay.js&#45;&gt;src/js/overlay/overlay/OverlayOverlay.js</title>
<path fill="none" stroke="#000000" stroke-width="2" stroke-opacity="0.200000" d="M528.37,-1688.91C550.56,-1684.75 582.57,-1678.74 609.6,-1673.67"/>
<polygon fill="#000000" fill-opacity="0.200000" stroke="#000000" stroke-width="2" stroke-opacity="0.200000" points="609.7,-1675.79 615.21,-1672.62 608.92,-1671.66 609.7,-1675.79"/>
</g>
<!-- src/js/view/render/RenderController.js -->
<g id="node53" class="node">
<title>src/js/view/render/RenderController.js</title>
<g id="a_node53"><a xlink:href="src/js/view/render/RenderController.js" xlink:title="RenderController.js">
<path fill="#ffffcc" stroke="black" d="M541.83,-1830.25C541.83,-1830.25 458.67,-1830.25 458.67,-1830.25 455.58,-1830.25 452.5,-1827.17 452.5,-1824.08 452.5,-1824.08 452.5,-1817.92 452.5,-1817.92 452.5,-1814.83 455.58,-1811.75 458.67,-1811.75 458.67,-1811.75 541.83,-1811.75 541.83,-1811.75 544.92,-1811.75 548,-1814.83 548,-1817.92 548,-1817.92 548,-1824.08 548,-1824.08 548,-1827.17 544.92,-1830.25 541.83,-1830.25"/>
<text text-anchor="start" x="460.5" y="-1817.7" font-family="Helvetica,sans-Serif" font-size="9.00">RenderController.js</text>
</a>
</g>
</g>
<!-- src/js/view/View.js&#45;&gt;src/js/view/render/RenderController.js -->
<g id="edge22" class="edge">
<title>src/js/view/View.js&#45;&gt;src/js/view/render/RenderController.js</title>
<path fill="none" stroke="#000000" stroke-width="2" stroke-opacity="0.200000" d="M371.17,-1817.68C390.84,-1818.19 418.52,-1818.91 443.12,-1819.54"/>
<polygon fill="#000000" fill-opacity="0.200000" stroke="#000000" stroke-width="2" stroke-opacity="0.200000" points="442.94,-1821.64 449,-1819.7 443.05,-1817.44 442.94,-1821.64"/>
</g>
<!-- src/js/data/Data.json -->
<g id="node6" class="node">
<title>src/js/data/Data.json</title>
<g id="a_node6"><a xlink:href="src/js/data/Data.json" xlink:title="Data.json">
<path fill="#ffee44" stroke="black" d="M188.96,-861.25C188.96,-861.25 146.29,-861.25 146.29,-861.25 143.21,-861.25 140.12,-858.17 140.12,-855.08 140.12,-855.08 140.12,-848.92 140.12,-848.92 140.12,-845.83 143.21,-842.75 146.29,-842.75 146.29,-842.75 188.96,-842.75 188.96,-842.75 192.04,-842.75 195.12,-845.83 195.12,-848.92 195.12,-848.92 195.12,-855.08 195.12,-855.08 195.12,-858.17 192.04,-861.25 188.96,-861.25"/>
<text text-anchor="start" x="148.12" y="-848.7" font-family="Helvetica,sans-Serif" font-size="9.00">Data.json</text>
</a>
</g>
</g>
<!-- src/js/data/DataController.js -->
<g id="node7" class="node">
<title>src/js/data/DataController.js</title>
<g id="a_node7"><a xlink:href="src/js/data/DataController.js" xlink:title="DataController.js">
<path fill="#ffffcc" stroke="black" d="M110.08,-861.25C110.08,-861.25 38.17,-861.25 38.17,-861.25 35.08,-861.25 32,-858.17 32,-855.08 32,-855.08 32,-848.92 32,-848.92 32,-845.83 35.08,-842.75 38.17,-842.75 38.17,-842.75 110.08,-842.75 110.08,-842.75 113.17,-842.75 116.25,-845.83 116.25,-848.92 116.25,-848.92 116.25,-855.08 116.25,-855.08 116.25,-858.17 113.17,-861.25 110.08,-861.25"/>
<text text-anchor="start" x="40" y="-848.7" font-family="Helvetica,sans-Serif" font-size="9.00">DataController.js</text>
</a>
</g>
</g>
<!-- src/js/data/DataController.js&#45;&gt;src/js/data/Data.json -->
<g id="edge5" class="edge">
<title>src/js/data/DataController.js&#45;&gt;src/js/data/Data.json</title>
<path fill="none" stroke="#000000" stroke-width="2" stroke-opacity="0.200000" d="M116.59,-852C121.37,-852 126.22,-852 130.92,-852"/>
<polygon fill="#000000" fill-opacity="0.200000" stroke="#000000" stroke-width="2" stroke-opacity="0.200000" points="130.69,-854.1 136.69,-852 130.69,-849.9 130.69,-854.1"/>
</g>
<!-- src/js/directable/directables/dotmatrix/view/ViewManager.js -->
<g id="node9" class="node">
<title>src/js/directable/directables/dotmatrix/view/ViewManager.js</title>
<g id="a_node9"><a xlink:href="src/js/directable/directables/dotmatrix/view/ViewManager.js" xlink:title="ViewManager.js">
<path fill="#ffffcc" stroke="black" d="M696.58,-74.25C696.58,-74.25 627.67,-74.25 627.67,-74.25 624.58,-74.25 621.5,-71.17 621.5,-68.08 621.5,-68.08 621.5,-61.92 621.5,-61.92 621.5,-58.83 624.58,-55.75 627.67,-55.75 627.67,-55.75 696.58,-55.75 696.58,-55.75 699.67,-55.75 702.75,-58.83 702.75,-61.92 702.75,-61.92 702.75,-68.08 702.75,-68.08 702.75,-71.17 699.67,-74.25 696.58,-74.25"/>
<text text-anchor="start" x="629.5" y="-61.7" font-family="Helvetica,sans-Serif" font-size="9.00">ViewManager.js</text>
</a>
</g>
</g>
<!-- src/js/directable/directables/dotmatrix/DirectableDotMatrix.js&#45;&gt;src/js/directable/directables/dotmatrix/view/ViewManager.js -->
<g id="edge6" class="edge">
<title>src/js/directable/directables/dotmatrix/DirectableDotMatrix.js&#45;&gt;src/js/directable/directables/dotmatrix/view/ViewManager.js</title>
<path fill="none" stroke="#000000" stroke-width="2" stroke-opacity="0.200000" d="M501.62,-592.45C504.29,-528.19 522.71,-159.2 596.25,-81 600.89,-76.07 606.78,-72.55 613.12,-70.07"/>
<polygon fill="#000000" fill-opacity="0.200000" stroke="#000000" stroke-width="2" stroke-opacity="0.200000" points="613.37,-72.19 618.44,-68.36 612.09,-68.19 613.37,-72.19"/>
</g>
<!-- src/js/directable/directables/dotmatrix/dot/DotManager.js -->
<g id="node11" class="node">
<title>src/js/directable/directables/dotmatrix/dot/DotManager.js</title>
<g id="a_node11"><a xlink:href="src/js/directable/directables/dotmatrix/dot/DotManager.js" xlink:title="DotManager.js">
<path fill="#ffffcc" stroke="black" d="M840.08,-228.25C840.08,-228.25 777.17,-228.25 777.17,-228.25 774.08,-228.25 771,-225.17 771,-222.08 771,-222.08 771,-215.92 771,-215.92 771,-212.83 774.08,-209.75 777.17,-209.75 777.17,-209.75 840.08,-209.75 840.08,-209.75 843.17,-209.75 846.25,-212.83 846.25,-215.92 846.25,-215.92 846.25,-222.08 846.25,-222.08 846.25,-225.17 843.17,-228.25 840.08,-228.25"/>
<text text-anchor="start" x="779" y="-215.7" font-family="Helvetica,sans-Serif" font-size="9.00">DotManager.js</text>
</a>
</g>
</g>
<!-- src/js/directable/directables/dotmatrix/view/ViewManager.js&#45;&gt;src/js/directable/directables/dotmatrix/dot/DotManager.js -->
<g id="edge7" class="edge">
<title>src/js/directable/directables/dotmatrix/view/ViewManager.js&#45;&gt;src/js/directable/directables/dotmatrix/dot/DotManager.js</title>
<path fill="none" stroke="#000000" stroke-width="2" stroke-opacity="0.200000" d="M703.16,-66.85C712.61,-69.24 721.74,-73.53 728,-81 745.45,-101.83 718.33,-182.36 736,-203 742.6,-210.71 752.03,-215.17 761.89,-217.66"/>
<polygon fill="#000000" fill-opacity="0.200000" stroke="#000000" stroke-width="2" stroke-opacity="0.200000" points="761.34,-219.69 767.63,-218.78 762.15,-215.57 761.34,-219.69"/>
</g>
<!-- src/js/directable/directables/dotmatrix/grid/GridData.js -->
<g id="node12" class="node">
<title>src/js/directable/directables/dotmatrix/grid/GridData.js</title>
<g id="a_node12"><a xlink:href="src/js/directable/directables/dotmatrix/grid/GridData.js" xlink:title="GridData.js">
<path fill="#ffffcc" stroke="black" d="M833.33,-289.25C833.33,-289.25 783.92,-289.25 783.92,-289.25 780.83,-289.25 777.75,-286.17 777.75,-283.08 777.75,-283.08 777.75,-276.92 777.75,-276.92 777.75,-273.83 780.83,-270.75 783.92,-270.75 783.92,-270.75 833.33,-270.75 833.33,-270.75 836.42,-270.75 839.5,-273.83 839.5,-276.92 839.5,-276.92 839.5,-283.08 839.5,-283.08 839.5,-286.17 836.42,-289.25 833.33,-289.25"/>
<text text-anchor="start" x="785.75" y="-276.7" font-family="Helvetica,sans-Serif" font-size="9.00">GridData.js</text>
</a>
</g>
</g>
<!-- src/js/directable/directables/dotmatrix/view/ViewManager.js&#45;&gt;src/js/directable/directables/dotmatrix/grid/GridData.js -->
<g id="edge8" class="edge">
<title>src/js/directable/directables/dotmatrix/view/ViewManager.js&#45;&gt;src/js/directable/directables/dotmatrix/grid/GridData.js</title>
<path fill="none" stroke="#000000" stroke-width="2" stroke-opacity="0.200000" d="M702.92,-66.68C712.49,-69.05 721.75,-73.38 728,-81 740.49,-96.22 723.95,-242.44 736,-258 743.9,-268.19 756.42,-273.79 768.79,-276.83"/>
<polygon fill="#000000" fill-opacity="0.200000" stroke="#000000" stroke-width="2" stroke-opacity="0.200000" points="768.02,-278.81 774.32,-277.94 768.85,-274.69 768.02,-278.81"/>
</g>
<!-- src/js/directable/directables/dotmatrix/shape/ShapeManager.js -->
<g id="node16" class="node">
<title>src/js/directable/directables/dotmatrix/shape/ShapeManager.js</title>
<g id="a_node16"><a xlink:href="src/js/directable/directables/dotmatrix/shape/ShapeManager.js" xlink:title="ShapeManager.js">
<path fill="#ffffcc" stroke="black" d="M846.46,-1121.25C846.46,-1121.25 770.79,-1121.25 770.79,-1121.25 767.71,-1121.25 764.62,-1118.17 764.62,-1115.08 764.62,-1115.08 764.62,-1108.92 764.62,-1108.92 764.62,-1105.83 767.71,-1102.75 770.79,-1102.75 770.79,-1102.75 846.46,-1102.75 846.46,-1102.75 849.54,-1102.75 852.62,-1105.83 852.62,-1108.92 852.62,-1108.92 852.62,-1115.08 852.62,-1115.08 852.62,-1118.17 849.54,-1121.25 846.46,-1121.25"/>
<text text-anchor="start" x="772.62" y="-1108.7" font-family="Helvetica,sans-Serif" font-size="9.00">ShapeManager.js</text>
</a>
</g>
</g>
<!-- src/js/directable/directables/dotmatrix/view/ViewManager.js&#45;&gt;src/js/directable/directables/dotmatrix/shape/ShapeManager.js -->
<g id="edge9" class="edge">
<title>src/js/directable/directables/dotmatrix/view/ViewManager.js&#45;&gt;src/js/directable/directables/dotmatrix/shape/ShapeManager.js</title>
<path fill="none" stroke="#000000" stroke-width="2" stroke-opacity="0.200000" d="M703.11,-66.52C712.68,-68.9 721.89,-73.26 728,-81 745.47,-103.13 718.28,-1074.07 736,-1096 741.12,-1102.33 748.14,-1106.5 755.8,-1109.19"/>
<polygon fill="#000000" fill-opacity="0.200000" stroke="#000000" stroke-width="2" stroke-opacity="0.200000" points="755.04,-1111.16 761.39,-1110.75 756.17,-1107.11 755.04,-1111.16"/>
</g>
<!-- src/js/directable/directables/dotmatrix/view/ViewTest.js -->
<g id="node37" class="node">
<title>src/js/directable/directables/dotmatrix/view/ViewTest.js</title>
<g id="a_node37"><a xlink:href="src/js/directable/directables/dotmatrix/view/ViewTest.js" xlink:title="ViewTest.js">
<path fill="#ffffcc" stroke="black" d="M833.33,-74.25C833.33,-74.25 783.92,-74.25 783.92,-74.25 780.83,-74.25 777.75,-71.17 777.75,-68.08 777.75,-68.08 777.75,-61.92 777.75,-61.92 777.75,-58.83 780.83,-55.75 783.92,-55.75 783.92,-55.75 833.33,-55.75 833.33,-55.75 836.42,-55.75 839.5,-58.83 839.5,-61.92 839.5,-61.92 839.5,-68.08 839.5,-68.08 839.5,-71.17 836.42,-74.25 833.33,-74.25"/>
<text text-anchor="start" x="785.75" y="-61.7" font-family="Helvetica,sans-Serif" font-size="9.00">ViewTest.js</text>
</a>
</g>
</g>
<!-- src/js/directable/directables/dotmatrix/view/ViewManager.js&#45;&gt;src/js/directable/directables/dotmatrix/view/ViewTest.js -->
<g id="edge10" class="edge">
<title>src/js/directable/directables/dotmatrix/view/ViewManager.js&#45;&gt;src/js/directable/directables/dotmatrix/view/ViewTest.js</title>
<path fill="none" stroke="#000000" stroke-width="2" stroke-opacity="0.200000" d="M702.99,-65C723.42,-65 748.21,-65 768.52,-65"/>
<polygon fill="#000000" fill-opacity="0.200000" stroke="#000000" stroke-width="2" stroke-opacity="0.200000" points="768.49,-67.1 774.49,-65 768.49,-62.9 768.49,-67.1"/>
</g>
<!-- src/js/directable/directables/dotmatrix/dot/Dot.js -->
<g id="node10" class="node">
<title>src/js/directable/directables/dotmatrix/dot/Dot.js</title>
<g id="a_node10"><a xlink:href="src/js/directable/directables/dotmatrix/dot/Dot.js" xlink:title="Dot.js">
<path fill="#ccffcc" stroke="black" d="M829.46,-197.25C829.46,-197.25 787.79,-197.25 787.79,-197.25 784.71,-197.25 781.62,-194.17 781.62,-191.08 781.62,-191.08 781.62,-184.92 781.62,-184.92 781.62,-181.83 784.71,-178.75 787.79,-178.75 787.79,-178.75 829.46,-178.75 829.46,-178.75 832.54,-178.75 835.62,-181.83 835.62,-184.92 835.62,-184.92 835.62,-191.08 835.62,-191.08 835.62,-194.17 832.54,-197.25 829.46,-197.25"/>
<text text-anchor="start" x="797" y="-184.7" font-family="Helvetica,sans-Serif" font-size="9.00">Dot.js</text>
</a>
</g>
</g>
<!-- src/js/directable/directables/dotmatrix/grid/GridRenderer.js -->
<g id="node13" class="node">
<title>src/js/directable/directables/dotmatrix/grid/GridRenderer.js</title>
<g id="a_node13"><a xlink:href="src/js/directable/directables/dotmatrix/grid/GridRenderer.js" xlink:title="GridRenderer.js">
<path fill="#ccffcc" stroke="black" d="M842.71,-320.25C842.71,-320.25 774.54,-320.25 774.54,-320.25 771.46,-320.25 768.38,-317.17 768.38,-314.08 768.38,-314.08 768.38,-307.92 768.38,-307.92 768.38,-304.83 771.46,-301.75 774.54,-301.75 774.54,-301.75 842.71,-301.75 842.71,-301.75 845.79,-301.75 848.88,-304.83 848.88,-307.92 848.88,-307.92 848.88,-314.08 848.88,-314.08 848.88,-317.17 845.79,-320.25 842.71,-320.25"/>
<text text-anchor="start" x="776.38" y="-307.7" font-family="Helvetica,sans-Serif" font-size="9.00">GridRenderer.js</text>
</a>
</g>
</g>
<!-- src/js/directable/directables/dotmatrix/grid/GridRendererComponent.js -->
<g id="node14" class="node">
<title>src/js/directable/directables/dotmatrix/grid/GridRendererComponent.js</title>
<g id="a_node14"><a xlink:href="src/js/directable/directables/dotmatrix/grid/GridRendererComponent.js" xlink:title="GridRendererComponent.js">
<path fill="#ccffcc" stroke="black" d="M867.08,-351.25C867.08,-351.25 750.17,-351.25 750.17,-351.25 747.08,-351.25 744,-348.17 744,-345.08 744,-345.08 744,-338.92 744,-338.92 744,-335.83 747.08,-332.75 750.17,-332.75 750.17,-332.75 867.08,-332.75 867.08,-332.75 870.17,-332.75 873.25,-335.83 873.25,-338.92 873.25,-338.92 873.25,-345.08 873.25,-345.08 873.25,-348.17 870.17,-351.25 867.08,-351.25"/>
<text text-anchor="start" x="752" y="-338.7" font-family="Helvetica,sans-Serif" font-size="9.00">GridRendererComponent.js</text>
</a>
</g>
</g>
<!-- src/js/directable/directables/dotmatrix/shape/Shape.js -->
<g id="node15" class="node">
<title>src/js/directable/directables/dotmatrix/shape/Shape.js</title>
<g id="a_node15"><a xlink:href="src/js/directable/directables/dotmatrix/shape/Shape.js" xlink:title="Shape.js">
<path fill="#ccffcc" stroke="black" d="M829.46,-1090.25C829.46,-1090.25 787.79,-1090.25 787.79,-1090.25 784.71,-1090.25 781.62,-1087.17 781.62,-1084.08 781.62,-1084.08 781.62,-1077.92 781.62,-1077.92 781.62,-1074.83 784.71,-1071.75 787.79,-1071.75 787.79,-1071.75 829.46,-1071.75 829.46,-1071.75 832.54,-1071.75 835.62,-1074.83 835.62,-1077.92 835.62,-1077.92 835.62,-1084.08 835.62,-1084.08 835.62,-1087.17 832.54,-1090.25 829.46,-1090.25"/>
<text text-anchor="start" x="790.62" y="-1077.7" font-family="Helvetica,sans-Serif" font-size="9.00">Shape.js</text>
</a>
</g>
</g>
<!-- src/js/directable/directables/dotmatrix/shape/fill/Fill.js -->
<g id="node17" class="node">
<title>src/js/directable/directables/dotmatrix/shape/fill/Fill.js</title>
<g id="a_node17"><a xlink:href="src/js/directable/directables/dotmatrix/shape/fill/Fill.js" xlink:title="Fill.js">
<path fill="#ccffcc" stroke="black" d="M829.46,-420.25C829.46,-420.25 787.79,-420.25 787.79,-420.25 784.71,-420.25 781.62,-417.17 781.62,-414.08 781.62,-414.08 781.62,-407.92 781.62,-407.92 781.62,-404.83 784.71,-401.75 787.79,-401.75 787.79,-401.75 829.46,-401.75 829.46,-401.75 832.54,-401.75 835.62,-404.83 835.62,-407.92 835.62,-407.92 835.62,-414.08 835.62,-414.08 835.62,-417.17 832.54,-420.25 829.46,-420.25"/>
<text text-anchor="start" x="798.12" y="-407.7" font-family="Helvetica,sans-Serif" font-size="9.00">Fill.js</text>
</a>
</g>
</g>
<!-- src/js/directable/directables/dotmatrix/shape/fill/FillStrategy.js -->
<g id="node18" class="node">
<title>src/js/directable/directables/dotmatrix/shape/fill/FillStrategy.js</title>
<g id="a_node18"><a xlink:href="src/js/directable/directables/dotmatrix/shape/fill/FillStrategy.js" xlink:title="FillStrategy.js">
<path fill="#ccffcc" stroke="black" d="M837.46,-451.25C837.46,-451.25 779.79,-451.25 779.79,-451.25 776.71,-451.25 773.62,-448.17 773.62,-445.08 773.62,-445.08 773.62,-438.92 773.62,-438.92 773.62,-435.83 776.71,-432.75 779.79,-432.75 779.79,-432.75 837.46,-432.75 837.46,-432.75 840.54,-432.75 843.62,-435.83 843.62,-438.92 843.62,-438.92 843.62,-445.08 843.62,-445.08 843.62,-448.17 840.54,-451.25 837.46,-451.25"/>
<text text-anchor="start" x="781.62" y="-438.7" font-family="Helvetica,sans-Serif" font-size="9.00">FillStrategy.js</text>
</a>
</g>
</g>
<!-- src/js/directable/directables/dotmatrix/shape/fill/FillStrategyType.js -->
<g id="node19" class="node">
<title>src/js/directable/directables/dotmatrix/shape/fill/FillStrategyType.js</title>
<g id="a_node19"><a xlink:href="src/js/directable/directables/dotmatrix/shape/fill/FillStrategyType.js" xlink:title="FillStrategyType.js">
<path fill="#ccffcc" stroke="black" d="M847.96,-482.25C847.96,-482.25 769.29,-482.25 769.29,-482.25 766.21,-482.25 763.12,-479.17 763.12,-476.08 763.12,-476.08 763.12,-469.92 763.12,-469.92 763.12,-466.83 766.21,-463.75 769.29,-463.75 769.29,-463.75 847.96,-463.75 847.96,-463.75 851.04,-463.75 854.12,-466.83 854.12,-469.92 854.12,-469.92 854.12,-476.08 854.12,-476.08 854.12,-479.17 851.04,-482.25 847.96,-482.25"/>
<text text-anchor="start" x="771.12" y="-469.7" font-family="Helvetica,sans-Serif" font-size="9.00">FillStrategyType.js</text>
</a>
</g>
</g>
<!-- src/js/directable/directables/dotmatrix/shape/fill/FillType.js -->
<g id="node20" class="node">
<title>src/js/directable/directables/dotmatrix/shape/fill/FillType.js</title>
<g id="a_node20"><a xlink:href="src/js/directable/directables/dotmatrix/shape/fill/FillType.js" xlink:title="FillType.js">
<path fill="#ccffcc" stroke="black" d="M831.08,-513.25C831.08,-513.25 786.17,-513.25 786.17,-513.25 783.08,-513.25 780,-510.17 780,-507.08 780,-507.08 780,-500.92 780,-500.92 780,-497.83 783.08,-494.75 786.17,-494.75 786.17,-494.75 831.08,-494.75 831.08,-494.75 834.17,-494.75 837.25,-497.83 837.25,-500.92 837.25,-500.92 837.25,-507.08 837.25,-507.08 837.25,-510.17 834.17,-513.25 831.08,-513.25"/>
<text text-anchor="start" x="788" y="-500.7" font-family="Helvetica,sans-Serif" font-size="9.00">FillType.js</text>
</a>
</g>
</g>
<!-- src/js/directable/directables/dotmatrix/shape/glyph/ShapeGlyph_A.js -->
<g id="node21" class="node">
<title>src/js/directable/directables/dotmatrix/shape/glyph/ShapeGlyph_A.js</title>
<g id="a_node21"><a xlink:href="src/js/directable/directables/dotmatrix/shape/glyph/ShapeGlyph_A.js" xlink:title="ShapeGlyph_A.js">
<path fill="#ccffcc" stroke="black" d="M846.08,-574.25C846.08,-574.25 771.17,-574.25 771.17,-574.25 768.08,-574.25 765,-571.17 765,-568.08 765,-568.08 765,-561.92 765,-561.92 765,-558.83 768.08,-555.75 771.17,-555.75 771.17,-555.75 846.08,-555.75 846.08,-555.75 849.17,-555.75 852.25,-558.83 852.25,-561.92 852.25,-561.92 852.25,-568.08 852.25,-568.08 852.25,-571.17 849.17,-574.25 846.08,-574.25"/>
<text text-anchor="start" x="773" y="-561.7" font-family="Helvetica,sans-Serif" font-size="9.00">ShapeGlyph_A.js</text>
</a>
</g>
</g>
<!-- src/js/directable/directables/dotmatrix/shape/glyph/ShapeGlyph_B.js -->
<g id="node22" class="node">
<title>src/js/directable/directables/dotmatrix/shape/glyph/ShapeGlyph_B.js</title>
<g id="a_node22"><a xlink:href="src/js/directable/directables/dotmatrix/shape/glyph/ShapeGlyph_B.js" xlink:title="ShapeGlyph_B.js">
<path fill="#ccffcc" stroke="black" d="M846.08,-605.25C846.08,-605.25 771.17,-605.25 771.17,-605.25 768.08,-605.25 765,-602.17 765,-599.08 765,-599.08 765,-592.92 765,-592.92 765,-589.83 768.08,-586.75 771.17,-586.75 771.17,-586.75 846.08,-586.75 846.08,-586.75 849.17,-586.75 852.25,-589.83 852.25,-592.92 852.25,-592.92 852.25,-599.08 852.25,-599.08 852.25,-602.17 849.17,-605.25 846.08,-605.25"/>
<text text-anchor="start" x="773" y="-592.7" font-family="Helvetica,sans-Serif" font-size="9.00">ShapeGlyph_B.js</text>
</a>
</g>
</g>
<!-- src/js/directable/directables/dotmatrix/shape/glyph/ShapeGlyph_C.js -->
<g id="node23" class="node">
<title>src/js/directable/directables/dotmatrix/shape/glyph/ShapeGlyph_C.js</title>
<g id="a_node23"><a xlink:href="src/js/directable/directables/dotmatrix/shape/glyph/ShapeGlyph_C.js" xlink:title="ShapeGlyph_C.js">
<path fill="#ccffcc" stroke="black" d="M846.46,-636.25C846.46,-636.25 770.79,-636.25 770.79,-636.25 767.71,-636.25 764.62,-633.17 764.62,-630.08 764.62,-630.08 764.62,-623.92 764.62,-623.92 764.62,-620.83 767.71,-617.75 770.79,-617.75 770.79,-617.75 846.46,-617.75 846.46,-617.75 849.54,-617.75 852.62,-620.83 852.62,-623.92 852.62,-623.92 852.62,-630.08 852.62,-630.08 852.62,-633.17 849.54,-636.25 846.46,-636.25"/>
<text text-anchor="start" x="772.62" y="-623.7" font-family="Helvetica,sans-Serif" font-size="9.00">ShapeGlyph_C.js</text>
</a>
</g>
</g>
<!-- src/js/directable/directables/dotmatrix/shape/glyph/ShapeGlyph_D.js -->
<g id="node24" class="node">
<title>src/js/directable/directables/dotmatrix/shape/glyph/ShapeGlyph_D.js</title>
<g id="a_node24"><a xlink:href="src/js/directable/directables/dotmatrix/shape/glyph/ShapeGlyph_D.js" xlink:title="ShapeGlyph_D.js">
<path fill="#ccffcc" stroke="black" d="M846.46,-667.25C846.46,-667.25 770.79,-667.25 770.79,-667.25 767.71,-667.25 764.62,-664.17 764.62,-661.08 764.62,-661.08 764.62,-654.92 764.62,-654.92 764.62,-651.83 767.71,-648.75 770.79,-648.75 770.79,-648.75 846.46,-648.75 846.46,-648.75 849.54,-648.75 852.62,-651.83 852.62,-654.92 852.62,-654.92 852.62,-661.08 852.62,-661.08 852.62,-664.17 849.54,-667.25 846.46,-667.25"/>
<text text-anchor="start" x="772.62" y="-654.7" font-family="Helvetica,sans-Serif" font-size="9.00">ShapeGlyph_D.js</text>
</a>
</g>
</g>
<!-- src/js/directable/directables/dotmatrix/shape/glyph/ShapeGlyph_E.js -->
<g id="node25" class="node">
<title>src/js/directable/directables/dotmatrix/shape/glyph/ShapeGlyph_E.js</title>
<g id="a_node25"><a xlink:href="src/js/directable/directables/dotmatrix/shape/glyph/ShapeGlyph_E.js" xlink:title="ShapeGlyph_E.js">
<path fill="#ccffcc" stroke="black" d="M846.08,-698.25C846.08,-698.25 771.17,-698.25 771.17,-698.25 768.08,-698.25 765,-695.17 765,-692.08 765,-692.08 765,-685.92 765,-685.92 765,-682.83 768.08,-679.75 771.17,-679.75 771.17,-679.75 846.08,-679.75 846.08,-679.75 849.17,-679.75 852.25,-682.83 852.25,-685.92 852.25,-685.92 852.25,-692.08 852.25,-692.08 852.25,-695.17 849.17,-698.25 846.08,-698.25"/>
<text text-anchor="start" x="773" y="-685.7" font-family="Helvetica,sans-Serif" font-size="9.00">ShapeGlyph_E.js</text>
</a>
</g>
</g>
<!-- src/js/directable/directables/dotmatrix/shape/glyph/ShapeGlyph_F.js -->
<g id="node26" class="node">
<title>src/js/directable/directables/dotmatrix/shape/glyph/ShapeGlyph_F.js</title>
<g id="a_node26"><a xlink:href="src/js/directable/directables/dotmatrix/shape/glyph/ShapeGlyph_F.js" xlink:title="ShapeGlyph_F.js">
<path fill="#ccffcc" stroke="black" d="M845.33,-729.25C845.33,-729.25 771.92,-729.25 771.92,-729.25 768.83,-729.25 765.75,-726.17 765.75,-723.08 765.75,-723.08 765.75,-716.92 765.75,-716.92 765.75,-713.83 768.83,-710.75 771.92,-710.75 771.92,-710.75 845.33,-710.75 845.33,-710.75 848.42,-710.75 851.5,-713.83 851.5,-716.92 851.5,-716.92 851.5,-723.08 851.5,-723.08 851.5,-726.17 848.42,-729.25 845.33,-729.25"/>
<text text-anchor="start" x="773.75" y="-716.7" font-family="Helvetica,sans-Serif" font-size="9.00">ShapeGlyph_F.js</text>
</a>
</g>
</g>
<!-- src/js/directable/directables/dotmatrix/shape/glyph/ShapeGlyph_G.js -->
<g id="node27" class="node">
<title>src/js/directable/directables/dotmatrix/shape/glyph/ShapeGlyph_G.js</title>
<g id="a_node27"><a xlink:href="src/js/directable/directables/dotmatrix/shape/glyph/ShapeGlyph_G.js" xlink:title="ShapeGlyph_G.js">
<path fill="#ccffcc" stroke="black" d="M846.46,-760.25C846.46,-760.25 770.79,-760.25 770.79,-760.25 767.71,-760.25 764.62,-757.17 764.62,-754.08 764.62,-754.08 764.62,-747.92 764.62,-747.92 764.62,-744.83 767.71,-741.75 770.79,-741.75 770.79,-741.75 846.46,-741.75 846.46,-741.75 849.54,-741.75 852.62,-744.83 852.62,-747.92 852.62,-747.92 852.62,-754.08 852.62,-754.08 852.62,-757.17 849.54,-760.25 846.46,-760.25"/>
<text text-anchor="start" x="772.62" y="-747.7" font-family="Helvetica,sans-Serif" font-size="9.00">ShapeGlyph_G.js</text>
</a>
</g>
</g>
<!-- src/js/directable/directables/dotmatrix/shape/glyph/ShapeGlyph_H.js -->
<g id="node28" class="node">
<title>src/js/directable/directables/dotmatrix/shape/glyph/ShapeGlyph_H.js</title>
<g id="a_node28"><a xlink:href="src/js/directable/directables/dotmatrix/shape/glyph/ShapeGlyph_H.js" xlink:title="ShapeGlyph_H.js">
<path fill="#ccffcc" stroke="black" d="M846.46,-791.25C846.46,-791.25 770.79,-791.25 770.79,-791.25 767.71,-791.25 764.62,-788.17 764.62,-785.08 764.62,-785.08 764.62,-778.92 764.62,-778.92 764.62,-775.83 767.71,-772.75 770.79,-772.75 770.79,-772.75 846.46,-772.75 846.46,-772.75 849.54,-772.75 852.62,-775.83 852.62,-778.92 852.62,-778.92 852.62,-785.08 852.62,-785.08 852.62,-788.17 849.54,-791.25 846.46,-791.25"/>
<text text-anchor="start" x="772.62" y="-778.7" font-family="Helvetica,sans-Serif" font-size="9.00">ShapeGlyph_H.js</text>
</a>
</g>
</g>
<!-- src/js/directable/directables/dotmatrix/shape/glyph/ShapeGlyph_I.js -->
<g id="node29" class="node">
<title>src/js/directable/directables/dotmatrix/shape/glyph/ShapeGlyph_I.js</title>
<g id="a_node29"><a xlink:href="src/js/directable/directables/dotmatrix/shape/glyph/ShapeGlyph_I.js" xlink:title="ShapeGlyph_I.js">
<path fill="#ccffcc" stroke="black" d="M844.21,-822.25C844.21,-822.25 773.04,-822.25 773.04,-822.25 769.96,-822.25 766.88,-819.17 766.88,-816.08 766.88,-816.08 766.88,-809.92 766.88,-809.92 766.88,-806.83 769.96,-803.75 773.04,-803.75 773.04,-803.75 844.21,-803.75 844.21,-803.75 847.29,-803.75 850.38,-806.83 850.38,-809.92 850.38,-809.92 850.38,-816.08 850.38,-816.08 850.38,-819.17 847.29,-822.25 844.21,-822.25"/>
<text text-anchor="start" x="774.88" y="-809.7" font-family="Helvetica,sans-Serif" font-size="9.00">ShapeGlyph_I.js</text>
</a>
</g>
</g>
<!-- src/js/directable/directables/dotmatrix/shape/glyph/ShapeGlyph_J.js -->
<g id="node30" class="node">
<title>src/js/directable/directables/dotmatrix/shape/glyph/ShapeGlyph_J.js</title>
<g id="a_node30"><a xlink:href="src/js/directable/directables/dotmatrix/shape/glyph/ShapeGlyph_J.js" xlink:title="ShapeGlyph_J.js">
<path fill="#ccffcc" stroke="black" d="M845.33,-853.25C845.33,-853.25 771.92,-853.25 771.92,-853.25 768.83,-853.25 765.75,-850.17 765.75,-847.08 765.75,-847.08 765.75,-840.92 765.75,-840.92 765.75,-837.83 768.83,-834.75 771.92,-834.75 771.92,-834.75 845.33,-834.75 845.33,-834.75 848.42,-834.75 851.5,-837.83 851.5,-840.92 851.5,-840.92 851.5,-847.08 851.5,-847.08 851.5,-850.17 848.42,-853.25 845.33,-853.25"/>
<text text-anchor="start" x="773.75" y="-840.7" font-family="Helvetica,sans-Serif" font-size="9.00">ShapeGlyph_J.js</text>
</a>
</g>
</g>
<!-- src/js/directable/directables/dotmatrix/shape/glyph/ShapeGlyph_K.js -->
<g id="node31" class="node">
<title>src/js/directable/directables/dotmatrix/shape/glyph/ShapeGlyph_K.js</title>
<g id="a_node31"><a xlink:href="src/js/directable/directables/dotmatrix/shape/glyph/ShapeGlyph_K.js" xlink:title="ShapeGlyph_K.js">
<path fill="#ccffcc" stroke="black" d="M846.08,-884.25C846.08,-884.25 771.17,-884.25 771.17,-884.25 768.08,-884.25 765,-881.17 765,-878.08 765,-878.08 765,-871.92 765,-871.92 765,-868.83 768.08,-865.75 771.17,-865.75 771.17,-865.75 846.08,-865.75 846.08,-865.75 849.17,-865.75 852.25,-868.83 852.25,-871.92 852.25,-871.92 852.25,-878.08 852.25,-878.08 852.25,-881.17 849.17,-884.25 846.08,-884.25"/>
<text text-anchor="start" x="773" y="-871.7" font-family="Helvetica,sans-Serif" font-size="9.00">ShapeGlyph_K.js</text>
</a>
</g>
</g>
<!-- src/js/directable/directables/dotmatrix/shape/line/ShapeLineHorizontal.js -->
<g id="node32" class="node">
<title>src/js/directable/directables/dotmatrix/shape/line/ShapeLineHorizontal.js</title>
<g id="a_node32"><a xlink:href="src/js/directable/directables/dotmatrix/shape/line/ShapeLineHorizontal.js" xlink:title="ShapeLineHorizontal.js">
<path fill="#ccffcc" stroke="black" d="M858.46,-945.25C858.46,-945.25 758.79,-945.25 758.79,-945.25 755.71,-945.25 752.62,-942.17 752.62,-939.08 752.62,-939.08 752.62,-932.92 752.62,-932.92 752.62,-929.83 755.71,-926.75 758.79,-926.75 758.79,-926.75 858.46,-926.75 858.46,-926.75 861.54,-926.75 864.62,-929.83 864.62,-932.92 864.62,-932.92 864.62,-939.08 864.62,-939.08 864.62,-942.17 861.54,-945.25 858.46,-945.25"/>
<text text-anchor="start" x="760.62" y="-932.7" font-family="Helvetica,sans-Serif" font-size="9.00">ShapeLineHorizontal.js</text>
</a>
</g>
</g>
<!-- src/js/directable/directables/dotmatrix/shape/line/ShapeLineVertical.js -->
<g id="node33" class="node">
<title>src/js/directable/directables/dotmatrix/shape/line/ShapeLineVertical.js</title>
<g id="a_node33"><a xlink:href="src/js/directable/directables/dotmatrix/shape/line/ShapeLineVertical.js" xlink:title="ShapeLineVertical.js">
<path fill="#ccffcc" stroke="black" d="M852.46,-976.25C852.46,-976.25 764.79,-976.25 764.79,-976.25 761.71,-976.25 758.62,-973.17 758.62,-970.08 758.62,-970.08 758.62,-963.92 758.62,-963.92 758.62,-960.83 761.71,-957.75 764.79,-957.75 764.79,-957.75 852.46,-957.75 852.46,-957.75 855.54,-957.75 858.62,-960.83 858.62,-963.92 858.62,-963.92 858.62,-970.08 858.62,-970.08 858.62,-973.17 855.54,-976.25 852.46,-976.25"/>
<text text-anchor="start" x="766.62" y="-963.7" font-family="Helvetica,sans-Serif" font-size="9.00">ShapeLineVertical.js</text>
</a>
</g>
</g>
<!-- src/js/directable/directables/dotmatrix/shape/primative/ShapeRectangle.js -->
<g id="node34" class="node">
<title>src/js/directable/directables/dotmatrix/shape/primative/ShapeRectangle.js</title>
<g id="a_node34"><a xlink:href="src/js/directable/directables/dotmatrix/shape/primative/ShapeRectangle.js" xlink:title="ShapeRectangle.js">
<path fill="#ccffcc" stroke="black" d="M849.46,-1037.25C849.46,-1037.25 767.79,-1037.25 767.79,-1037.25 764.71,-1037.25 761.62,-1034.17 761.62,-1031.08 761.62,-1031.08 761.62,-1024.92 761.62,-1024.92 761.62,-1021.83 764.71,-1018.75 767.79,-1018.75 767.79,-1018.75 849.46,-1018.75 849.46,-1018.75 852.54,-1018.75 855.62,-1021.83 855.62,-1024.92 855.62,-1024.92 855.62,-1031.08 855.62,-1031.08 855.62,-1034.17 852.54,-1037.25 849.46,-1037.25"/>
<text text-anchor="start" x="769.62" y="-1024.7" font-family="Helvetica,sans-Serif" font-size="9.00">ShapeRectangle.js</text>
</a>
</g>
</g>
<!-- src/js/directable/directables/dotmatrix/view/View.js -->
<g id="node35" class="node">
<title>src/js/directable/directables/dotmatrix/view/View.js</title>
<g id="a_node35"><a xlink:href="src/js/directable/directables/dotmatrix/view/View.js" xlink:title="View.js">
<path fill="#ffffcc" stroke="black" d="M937.08,-74.25C937.08,-74.25 895.42,-74.25 895.42,-74.25 892.33,-74.25 889.25,-71.17 889.25,-68.08 889.25,-68.08 889.25,-61.92 889.25,-61.92 889.25,-58.83 892.33,-55.75 895.42,-55.75 895.42,-55.75 937.08,-55.75 937.08,-55.75 940.17,-55.75 943.25,-58.83 943.25,-61.92 943.25,-61.92 943.25,-68.08 943.25,-68.08 943.25,-71.17 940.17,-74.25 937.08,-74.25"/>
<text text-anchor="start" x="902" y="-61.7" font-family="Helvetica,sans-Serif" font-size="9.00">View.js</text>
</a>
</g>
</g>
<!-- src/js/directable/directables/dotmatrix/view/ViewFloor.js -->
<g id="node36" class="node">
<title>src/js/directable/directables/dotmatrix/view/ViewFloor.js</title>
<g id="a_node36"><a xlink:href="src/js/directable/directables/dotmatrix/view/ViewFloor.js" xlink:title="ViewFloor.js">
<path fill="#ccffcc" stroke="black" d="M688.71,-105.25C688.71,-105.25 635.54,-105.25 635.54,-105.25 632.46,-105.25 629.38,-102.17 629.38,-99.08 629.38,-99.08 629.38,-92.92 629.38,-92.92 629.38,-89.83 632.46,-86.75 635.54,-86.75 635.54,-86.75 688.71,-86.75 688.71,-86.75 691.79,-86.75 694.88,-89.83 694.88,-92.92 694.88,-92.92 694.88,-99.08 694.88,-99.08 694.88,-102.17 691.79,-105.25 688.71,-105.25"/>
<text text-anchor="start" x="637.38" y="-92.7" font-family="Helvetica,sans-Serif" font-size="9.00">ViewFloor.js</text>
</a>
</g>
</g>
<!-- src/js/directable/directables/dotmatrix/view/ViewTest.js&#45;&gt;src/js/directable/directables/dotmatrix/view/View.js -->
<g id="edge11" class="edge">
<title>src/js/directable/directables/dotmatrix/view/ViewTest.js&#45;&gt;src/js/directable/directables/dotmatrix/view/View.js</title>
<path fill="none" stroke="#000000" stroke-width="2" stroke-opacity="0.200000" d="M839.89,-65C852.47,-65 867.16,-65 880.2,-65"/>
<polygon fill="#000000" fill-opacity="0.200000" stroke="#000000" stroke-width="2" stroke-opacity="0.200000" points="879.9,-67.1 885.9,-65 879.9,-62.9 879.9,-67.1"/>
</g>
<!-- src/js/directable/directables/dotmatrix/view/ViewTextTest.js -->
<g id="node38" class="node">
<title>src/js/directable/directables/dotmatrix/view/ViewTextTest.js</title>
<g id="a_node38"><a xlink:href="src/js/directable/directables/dotmatrix/view/ViewTextTest.js" xlink:title="ViewTextTest.js">
<path fill="#ccffcc" stroke="black" d="M695.08,-136.25C695.08,-136.25 629.17,-136.25 629.17,-136.25 626.08,-136.25 623,-133.17 623,-130.08 623,-130.08 623,-123.92 623,-123.92 623,-120.83 626.08,-117.75 629.17,-117.75 629.17,-117.75 695.08,-117.75 695.08,-117.75 698.17,-117.75 701.25,-120.83 701.25,-123.92 701.25,-123.92 701.25,-130.08 701.25,-130.08 701.25,-133.17 698.17,-136.25 695.08,-136.25"/>
<text text-anchor="start" x="631" y="-123.7" font-family="Helvetica,sans-Serif" font-size="9.00">ViewTextTest.js</text>
</a>
</g>
</g>
<!-- src/js/directable/directables/frame/DirectableFrame.js -->
<g id="node39" class="node">
<title>src/js/directable/directables/frame/DirectableFrame.js</title>
<g id="a_node39"><a xlink:href="src/js/directable/directables/frame/DirectableFrame.js" xlink:title="DirectableFrame.js">
<path fill="#ffffcc" stroke="black" d="M540.71,-1209.25C540.71,-1209.25 459.79,-1209.25 459.79,-1209.25 456.71,-1209.25 453.62,-1206.17 453.62,-1203.08 453.62,-1203.08 453.62,-1196.92 453.62,-1196.92 453.62,-1193.83 456.71,-1190.75 459.79,-1190.75 459.79,-1190.75 540.71,-1190.75 540.71,-1190.75 543.79,-1190.75 546.88,-1193.83 546.88,-1196.92 546.88,-1196.92 546.88,-1203.08 546.88,-1203.08 546.88,-1206.17 543.79,-1209.25 540.71,-1209.25"/>
<text text-anchor="start" x="461.62" y="-1196.7" font-family="Helvetica,sans-Serif" font-size="9.00">DirectableFrame.js</text>
</a>
</g>
</g>
<!-- src/js/directable/directables/rhythm/DirectableRhythm.js -->
<g id="node40" class="node">
<title>src/js/directable/directables/rhythm/DirectableRhythm.js</title>
<g id="a_node40"><a xlink:href="src/js/directable/directables/rhythm/DirectableRhythm.js" xlink:title="DirectableRhythm.js">
<path fill="#ffffcc" stroke="black" d="M705.21,-1401.25C705.21,-1401.25 619.04,-1401.25 619.04,-1401.25 615.96,-1401.25 612.88,-1398.17 612.88,-1395.08 612.88,-1395.08 612.88,-1388.92 612.88,-1388.92 612.88,-1385.83 615.96,-1382.75 619.04,-1382.75 619.04,-1382.75 705.21,-1382.75 705.21,-1382.75 708.29,-1382.75 711.38,-1385.83 711.38,-1388.92 711.38,-1388.92 711.38,-1395.08 711.38,-1395.08 711.38,-1398.17 708.29,-1401.25 705.21,-1401.25"/>
<text text-anchor="start" x="620.88" y="-1388.7" font-family="Helvetica,sans-Serif" font-size="9.00">DirectableRhythm.js</text>
</a>
</g>
</g>
<!-- src/js/directable/directables/rhythm/asdr/ASDRData.js -->
<g id="node41" class="node">
<title>src/js/directable/directables/rhythm/asdr/ASDRData.js</title>
<g id="a_node41"><a xlink:href="src/js/directable/directables/rhythm/asdr/ASDRData.js" xlink:title="ASDRData.js">
<path fill="#ccffcc" stroke="black" d="M529.08,-1278.25C529.08,-1278.25 471.42,-1278.25 471.42,-1278.25 468.33,-1278.25 465.25,-1275.17 465.25,-1272.08 465.25,-1272.08 465.25,-1265.92 465.25,-1265.92 465.25,-1262.83 468.33,-1259.75 471.42,-1259.75 471.42,-1259.75 529.08,-1259.75 529.08,-1259.75 532.17,-1259.75 535.25,-1262.83 535.25,-1265.92 535.25,-1265.92 535.25,-1272.08 535.25,-1272.08 535.25,-1275.17 532.17,-1278.25 529.08,-1278.25"/>
<text text-anchor="start" x="473.25" y="-1265.7" font-family="Helvetica,sans-Serif" font-size="9.00">ASDRData.js</text>
</a>
</g>
</g>
<!-- src/js/directable/directables/rhythm/asdr/ASDREnvelope.js -->
<g id="node42" class="node">
<title>src/js/directable/directables/rhythm/asdr/ASDREnvelope.js</title>
<g id="a_node42"><a xlink:href="src/js/directable/directables/rhythm/asdr/ASDREnvelope.js" xlink:title="ASDREnvelope.js">
<path fill="#ffffcc" stroke="black" d="M538.83,-1309.25C538.83,-1309.25 461.67,-1309.25 461.67,-1309.25 458.58,-1309.25 455.5,-1306.17 455.5,-1303.08 455.5,-1303.08 455.5,-1296.92 455.5,-1296.92 455.5,-1293.83 458.58,-1290.75 461.67,-1290.75 461.67,-1290.75 538.83,-1290.75 538.83,-1290.75 541.92,-1290.75 545,-1293.83 545,-1296.92 545,-1296.92 545,-1303.08 545,-1303.08 545,-1306.17 541.92,-1309.25 538.83,-1309.25"/>
<text text-anchor="start" x="463.5" y="-1296.7" font-family="Helvetica,sans-Serif" font-size="9.00">ASDREnvelope.js</text>
</a>
</g>
</g>
<!-- src/js/directable/directables/rhythm/asdr/DirectableRhythmASDRManager.js -->
<g id="node43" class="node">
<title>src/js/directable/directables/rhythm/asdr/DirectableRhythmASDRManager.js</title>
<g id="a_node43"><a xlink:href="src/js/directable/directables/rhythm/asdr/DirectableRhythmASDRManager.js" xlink:title="DirectableRhythmASDRManager.js">
<path fill="#ffffcc" stroke="black" d="M574.08,-1340.25C574.08,-1340.25 426.42,-1340.25 426.42,-1340.25 423.33,-1340.25 420.25,-1337.17 420.25,-1334.08 420.25,-1334.08 420.25,-1327.92 420.25,-1327.92 420.25,-1324.83 423.33,-1321.75 426.42,-1321.75 426.42,-1321.75 574.08,-1321.75 574.08,-1321.75 577.17,-1321.75 580.25,-1324.83 580.25,-1327.92 580.25,-1327.92 580.25,-1334.08 580.25,-1334.08 580.25,-1337.17 577.17,-1340.25 574.08,-1340.25"/>
<text text-anchor="start" x="428.25" y="-1327.7" font-family="Helvetica,sans-Serif" font-size="9.00">DirectableRhythmASDRManager.js</text>
</a>
</g>
</g>
<!-- src/js/directable/directables/rhythm/bpm/DirectableRhythmBPM.js -->
<g id="node44" class="node">
<title>src/js/directable/directables/rhythm/bpm/DirectableRhythmBPM.js</title>
<g id="a_node44"><a xlink:href="src/js/directable/directables/rhythm/bpm/DirectableRhythmBPM.js" xlink:title="DirectableRhythmBPM.js">
<path fill="#ffffcc" stroke="black" d="M553.08,-1401.25C553.08,-1401.25 447.42,-1401.25 447.42,-1401.25 444.33,-1401.25 441.25,-1398.17 441.25,-1395.08 441.25,-1395.08 441.25,-1388.92 441.25,-1388.92 441.25,-1385.83 444.33,-1382.75 447.42,-1382.75 447.42,-1382.75 553.08,-1382.75 553.08,-1382.75 556.17,-1382.75 559.25,-1385.83 559.25,-1388.92 559.25,-1388.92 559.25,-1395.08 559.25,-1395.08 559.25,-1398.17 556.17,-1401.25 553.08,-1401.25"/>
<text text-anchor="start" x="449.25" y="-1388.7" font-family="Helvetica,sans-Serif" font-size="9.00">DirectableRhythmBPM.js</text>
</a>
</g>
</g>
<!-- src/js/directable/directables/rhythm/bpm/DirectableRhythmBPM.js&#45;&gt;src/js/directable/directables/rhythm/DirectableRhythm.js -->
<g id="edge12" class="edge">
<title>src/js/directable/directables/rhythm/bpm/DirectableRhythmBPM.js&#45;&gt;src/js/directable/directables/rhythm/DirectableRhythm.js</title>
<path fill="none" stroke="#000000" stroke-width="2" stroke-opacity="0.200000" d="M559.42,-1392C573.84,-1392 589.28,-1392 603.66,-1392"/>
<polygon fill="#000000" fill-opacity="0.200000" stroke="#000000" stroke-width="2" stroke-opacity="0.200000" points="603.44,-1394.1 609.44,-1392 603.44,-1389.9 603.44,-1394.1"/>
</g>
<!-- src/js/directable/directables/rhythm2/ViewRhythm.js -->
<g id="node45" class="node">
<title>src/js/directable/directables/rhythm2/ViewRhythm.js</title>
<g id="a_node45"><a xlink:href="src/js/directable/directables/rhythm2/ViewRhythm.js" xlink:title="ViewRhythm.js">
<path fill="#ffffcc" stroke="black" d="M532.46,-1489.25C532.46,-1489.25 468.04,-1489.25 468.04,-1489.25 464.96,-1489.25 461.88,-1486.17 461.88,-1483.08 461.88,-1483.08 461.88,-1476.92 461.88,-1476.92 461.88,-1473.83 464.96,-1470.75 468.04,-1470.75 468.04,-1470.75 532.46,-1470.75 532.46,-1470.75 535.54,-1470.75 538.62,-1473.83 538.62,-1476.92 538.62,-1476.92 538.62,-1483.08 538.62,-1483.08 538.62,-1486.17 535.54,-1489.25 532.46,-1489.25"/>
<text text-anchor="start" x="469.88" y="-1476.7" font-family="Helvetica,sans-Serif" font-size="9.00">ViewRhythm.js</text>
</a>
</g>
</g>
<!-- src/js/directable/directables/rhythm2/ViewRhythmTrack.js -->
<g id="node46" class="node">
<title>src/js/directable/directables/rhythm2/ViewRhythmTrack.js</title>
<g id="a_node46"><a xlink:href="src/js/directable/directables/rhythm2/ViewRhythmTrack.js" xlink:title="ViewRhythmTrack.js">
<path fill="#ffffcc" stroke="black" d="M705.58,-1489.25C705.58,-1489.25 618.67,-1489.25 618.67,-1489.25 615.58,-1489.25 612.5,-1486.17 612.5,-1483.08 612.5,-1483.08 612.5,-1476.92 612.5,-1476.92 612.5,-1473.83 615.58,-1470.75 618.67,-1470.75 618.67,-1470.75 705.58,-1470.75 705.58,-1470.75 708.67,-1470.75 711.75,-1473.83 711.75,-1476.92 711.75,-1476.92 711.75,-1483.08 711.75,-1483.08 711.75,-1486.17 708.67,-1489.25 705.58,-1489.25"/>
<text text-anchor="start" x="620.5" y="-1476.7" font-family="Helvetica,sans-Serif" font-size="9.00">ViewRhythmTrack.js</text>
</a>
</g>
</g>
<!-- src/js/directable/directables/rhythm2/ViewRhythm.js&#45;&gt;src/js/directable/directables/rhythm2/ViewRhythmTrack.js -->
<g id="edge13" class="edge">
<title>src/js/directable/directables/rhythm2/ViewRhythm.js&#45;&gt;src/js/directable/directables/rhythm2/ViewRhythmTrack.js</title>
<path fill="none" stroke="#000000" stroke-width="2" stroke-opacity="0.200000" d="M538.73,-1480C557.96,-1480 581.8,-1480 603.32,-1480"/>
<polygon fill="#000000" fill-opacity="0.200000" stroke="#000000" stroke-width="2" stroke-opacity="0.200000" points="603.03,-1482.1 609.03,-1480 603.03,-1477.9 603.03,-1482.1"/>
</g>
<!-- src/js/enum/DisplayFormats.js -->
<g id="node48" class="node">
<title>src/js/enum/DisplayFormats.js</title>
<g id="a_node48"><a xlink:href="src/js/enum/DisplayFormats.js" xlink:title="DisplayFormats.js">
<path fill="#ffffcc" stroke="black" d="M846.83,-1826.25C846.83,-1826.25 770.42,-1826.25 770.42,-1826.25 767.33,-1826.25 764.25,-1823.17 764.25,-1820.08 764.25,-1820.08 764.25,-1813.92 764.25,-1813.92 764.25,-1810.83 767.33,-1807.75 770.42,-1807.75 770.42,-1807.75 846.83,-1807.75 846.83,-1807.75 849.92,-1807.75 853,-1810.83 853,-1813.92 853,-1813.92 853,-1820.08 853,-1820.08 853,-1823.17 849.92,-1826.25 846.83,-1826.25"/>
<text text-anchor="start" x="772.25" y="-1813.7" font-family="Helvetica,sans-Serif" font-size="9.00">DisplayFormats.js</text>
</a>
</g>
</g>
<!-- src/js/index.js -->
<g id="node49" class="node">
<title>src/js/index.js</title>
<g id="a_node49"><a xlink:href="src/js/index.js" xlink:title="index.js">
<path fill="#ffffcc" stroke="black" d="M94.96,-1703.25C94.96,-1703.25 53.29,-1703.25 53.29,-1703.25 50.21,-1703.25 47.12,-1700.17 47.12,-1697.08 47.12,-1697.08 47.12,-1690.92 47.12,-1690.92 47.12,-1687.83 50.21,-1684.75 53.29,-1684.75 53.29,-1684.75 94.96,-1684.75 94.96,-1684.75 98.04,-1684.75 101.12,-1687.83 101.12,-1690.92 101.12,-1690.92 101.12,-1697.08 101.12,-1697.08 101.12,-1700.17 98.04,-1703.25 94.96,-1703.25"/>
<text text-anchor="start" x="58.38" y="-1690.7" font-family="Helvetica,sans-Serif" font-size="9.00">index.js</text>
</a>
</g>
</g>
<!-- src/js/index.js&#45;&gt;src/js/application/Application.js -->
<g id="edge16" class="edge">
<title>src/js/index.js&#45;&gt;src/js/application/Application.js</title>
<path fill="none" stroke="#000000" stroke-width="2" stroke-opacity="0.200000" d="M101.59,-1694C108.42,-1694 115.95,-1694 123.39,-1694"/>
<polygon fill="#000000" fill-opacity="0.200000" stroke="#000000" stroke-width="2" stroke-opacity="0.200000" points="123.01,-1696.1 129.01,-1694 123.01,-1691.9 123.01,-1696.1"/>
</g>
<!-- src/js/overlay/displayFormat/OverlayDisplayFormat.js&#45;&gt;src/js/enum/DisplayFormats.js -->
<g id="edge19" class="edge">
<title>src/js/overlay/displayFormat/OverlayDisplayFormat.js&#45;&gt;src/js/enum/DisplayFormats.js</title>
<path fill="none" stroke="#000000" stroke-width="2" stroke-opacity="0.200000" d="M671.2,-1734.34C683.78,-1748.38 709.39,-1774.97 736,-1791 744.68,-1796.23 754.57,-1800.65 764.18,-1804.29"/>
<polygon fill="#000000" fill-opacity="0.200000" stroke="#000000" stroke-width="2" stroke-opacity="0.200000" points="763.3,-1806.21 769.66,-1806.26 764.72,-1802.25 763.3,-1806.21"/>
</g>
<!-- src/js/overlay/OverlayUtil.js -->
<g id="node52" class="node">
<title>src/js/overlay/OverlayUtil.js</title>
<g id="a_node52"><a xlink:href="src/js/overlay/OverlayUtil.js" xlink:title="OverlayUtil.js">
<path fill="#ffffcc" stroke="black" d="M837.46,-1703.25C837.46,-1703.25 779.79,-1703.25 779.79,-1703.25 776.71,-1703.25 773.62,-1700.17 773.62,-1697.08 773.62,-1697.08 773.62,-1690.92 773.62,-1690.92 773.62,-1687.83 776.71,-1684.75 779.79,-1684.75 779.79,-1684.75 837.46,-1684.75 837.46,-1684.75 840.54,-1684.75 843.62,-1687.83 843.62,-1690.92 843.62,-1690.92 843.62,-1697.08 843.62,-1697.08 843.62,-1700.17 840.54,-1703.25 837.46,-1703.25"/>
<text text-anchor="start" x="781.62" y="-1690.7" font-family="Helvetica,sans-Serif" font-size="9.00">OverlayUtil.js</text>
</a>
</g>
</g>
<!-- src/js/overlay/displayFormat/OverlayDisplayFormat.js&#45;&gt;src/js/overlay/OverlayUtil.js -->
<g id="edge20" class="edge">
<title>src/js/overlay/displayFormat/OverlayDisplayFormat.js&#45;&gt;src/js/overlay/OverlayUtil.js</title>
<path fill="none" stroke="#000000" stroke-width="2" stroke-opacity="0.200000" d="M708.45,-1715.28C726.52,-1711.4 747.2,-1706.96 764.99,-1703.15"/>
<polygon fill="#000000" fill-opacity="0.200000" stroke="#000000" stroke-width="2" stroke-opacity="0.200000" points="765.08,-1705.27 770.51,-1701.96 764.2,-1701.17 765.08,-1705.27"/>
</g>
<!-- src/js/overlay/overlay/OverlayOverlay.js&#45;&gt;src/js/overlay/OverlayUtil.js -->
<g id="edge21" class="edge">
<title>src/js/overlay/overlay/OverlayOverlay.js&#45;&gt;src/js/overlay/OverlayUtil.js</title>
<path fill="none" stroke="#000000" stroke-width="2" stroke-opacity="0.200000" d="M706.09,-1672.92C724.53,-1676.75 746.04,-1681.22 764.51,-1685.05"/>
<polygon fill="#000000" fill-opacity="0.200000" stroke="#000000" stroke-width="2" stroke-opacity="0.200000" points="764.03,-1687.09 770.34,-1686.26 764.89,-1682.98 764.03,-1687.09"/>
</g>
<!-- src/js/view/render/RenderResizer.js -->
<g id="node54" class="node">
<title>src/js/view/render/RenderResizer.js</title>
<g id="a_node54"><a xlink:href="src/js/view/render/RenderResizer.js" xlink:title="RenderResizer.js">
<path fill="#ffffcc" stroke="black" d="M699.21,-1830.25C699.21,-1830.25 625.04,-1830.25 625.04,-1830.25 621.96,-1830.25 618.88,-1827.17 618.88,-1824.08 618.88,-1824.08 618.88,-1817.92 618.88,-1817.92 618.88,-1814.83 621.96,-1811.75 625.04,-1811.75 625.04,-1811.75 699.21,-1811.75 699.21,-1811.75 702.29,-1811.75 705.38,-1814.83 705.38,-1817.92 705.38,-1817.92 705.38,-1824.08 705.38,-1824.08 705.38,-1827.17 702.29,-1830.25 699.21,-1830.25"/>
<text text-anchor="start" x="626.88" y="-1817.7" font-family="Helvetica,sans-Serif" font-size="9.00">RenderResizer.js</text>
</a>
</g>
</g>
<!-- src/js/view/render/RenderController.js&#45;&gt;src/js/view/render/RenderResizer.js -->
<g id="edge23" class="edge">
<title>src/js/view/render/RenderController.js&#45;&gt;src/js/view/render/RenderResizer.js</title>
<path fill="none" stroke="#000000" stroke-width="2" stroke-opacity="0.200000" d="M548.35,-1821C567.6,-1821 589.93,-1821 609.61,-1821"/>
<polygon fill="#000000" fill-opacity="0.200000" stroke="#000000" stroke-width="2" stroke-opacity="0.200000" points="609.42,-1823.1 615.42,-1821 609.42,-1818.9 609.42,-1823.1"/>
</g>
<!-- src/js/view/render/RenderSurface.js -->
<g id="node55" class="node">
<title>src/js/view/render/RenderSurface.js</title>
<g id="a_node55"><a xlink:href="src/js/view/render/RenderSurface.js" xlink:title="RenderSurface.js">
<path fill="#ffffcc" stroke="black" d="M699.58,-1861.25C699.58,-1861.25 624.67,-1861.25 624.67,-1861.25 621.58,-1861.25 618.5,-1858.17 618.5,-1855.08 618.5,-1855.08 618.5,-1848.92 618.5,-1848.92 618.5,-1845.83 621.58,-1842.75 624.67,-1842.75 624.67,-1842.75 699.58,-1842.75 699.58,-1842.75 702.67,-1842.75 705.75,-1845.83 705.75,-1848.92 705.75,-1848.92 705.75,-1855.08 705.75,-1855.08 705.75,-1858.17 702.67,-1861.25 699.58,-1861.25"/>
<text text-anchor="start" x="626.5" y="-1848.7" font-family="Helvetica,sans-Serif" font-size="9.00">RenderSurface.js</text>
</a>
</g>
</g>
<!-- src/js/view/render/RenderController.js&#45;&gt;src/js/view/render/RenderSurface.js -->
<g id="edge24" class="edge">
<title>src/js/view/render/RenderController.js&#45;&gt;src/js/view/render/RenderSurface.js</title>
<path fill="none" stroke="#000000" stroke-width="2" stroke-opacity="0.200000" d="M548.35,-1830.13C567.52,-1833.85 589.74,-1838.16 609.36,-1841.96"/>
<polygon fill="#000000" fill-opacity="0.200000" stroke="#000000" stroke-width="2" stroke-opacity="0.200000" points="608.91,-1844.02 615.2,-1843.1 609.71,-1839.89 608.91,-1844.02"/>
</g>
<!-- src/js/view/render/RenderResizer.js&#45;&gt;src/js/enum/DisplayFormats.js -->
<g id="edge25" class="edge">
<title>src/js/view/render/RenderResizer.js&#45;&gt;src/js/enum/DisplayFormats.js</title>
<path fill="none" stroke="#000000" stroke-width="2" stroke-opacity="0.200000" d="M705.7,-1819.82C721.15,-1819.39 738.8,-1818.91 755.01,-1818.46"/>
<polygon fill="#000000" fill-opacity="0.200000" stroke="#000000" stroke-width="2" stroke-opacity="0.200000" points="754.89,-1820.56 760.83,-1818.3 754.77,-1816.36 754.89,-1820.56"/>
</g>
</g>
</svg>
