<?xml version="1.0" encoding="UTF-8" standalone="no"?>
<!DOCTYPE svg PUBLIC "-//W3C//DTD SVG 1.1//EN"
 "http://www.w3.org/Graphics/SVG/1.1/DTD/svg11.dtd">
<!-- Generated by graphviz version 12.2.1 (20241206.2353)
 -->
<!-- Title: dependency&#45;cruiser output Pages: 1 -->
<svg width="1331pt" height="1334pt"
 viewBox="0.00 0.00 1330.50 1334.00" xmlns="http://www.w3.org/2000/svg" xmlns:xlink="http://www.w3.org/1999/xlink">
<g id="graph0" class="graph" transform="scale(1 1) rotate(0) translate(4 1330)">
<title>dependency&#45;cruiser output</title>
<polygon fill="white" stroke="none" points="-4,4 -4,-1330 1326.5,-1330 1326.5,4 -4,4"/>
<g id="clust1" class="cluster">
<title>cluster_src</title>
<path fill="#ffffff" stroke="black" stroke-width="2" d="M20,-8C20,-8 1302.5,-8 1302.5,-8 1308.5,-8 1314.5,-14 1314.5,-20 1314.5,-20 1314.5,-1306 1314.5,-1306 1314.5,-1312 1308.5,-1318 1302.5,-1318 1302.5,-1318 20,-1318 20,-1318 14,-1318 8,-1312 8,-1306 8,-1306 8,-20 8,-20 8,-14 14,-8 20,-8"/>
<text text-anchor="middle" x="661.25" y="-1305.45" font-family="Helvetica,sans-Serif" font-weight="bold" font-size="9.00">src</text>
</g>
<g id="clust2" class="cluster">
<title>cluster_src/js</title>
<path fill="#ffffff" stroke="black" stroke-width="2" d="M28,-16C28,-16 1294.5,-16 1294.5,-16 1300.5,-16 1306.5,-22 1306.5,-28 1306.5,-28 1306.5,-1279 1306.5,-1279 1306.5,-1285 1300.5,-1291 1294.5,-1291 1294.5,-1291 28,-1291 28,-1291 22,-1291 16,-1285 16,-1279 16,-1279 16,-28 16,-28 16,-22 22,-16 28,-16"/>
<text text-anchor="middle" x="661.25" y="-1278.45" font-family="Helvetica,sans-Serif" font-weight="bold" font-size="9.00">js</text>
</g>
<g id="clust3" class="cluster">
<title>cluster_src/js/application</title>
<path fill="#ffffff" stroke="black" stroke-width="2" d="M136.25,-1096C136.25,-1096 199,-1096 199,-1096 205,-1096 211,-1102 211,-1108 211,-1108 211,-1137 211,-1137 211,-1143 205,-1149 199,-1149 199,-1149 136.25,-1149 136.25,-1149 130.25,-1149 124.25,-1143 124.25,-1137 124.25,-1137 124.25,-1108 124.25,-1108 124.25,-1102 130.25,-1096 136.25,-1096"/>
<text text-anchor="middle" x="167.62" y="-1136.45" font-family="Helvetica,sans-Serif" font-weight="bold" font-size="9.00">application</text>
</g>
<g id="clust4" class="cluster">
<title>cluster_src/js/controller</title>
<path fill="#ffffff" stroke="black" stroke-width="2" d="M231,-1096C231,-1096 287.75,-1096 287.75,-1096 293.75,-1096 299.75,-1102 299.75,-1108 299.75,-1108 299.75,-1137 299.75,-1137 299.75,-1143 293.75,-1149 287.75,-1149 287.75,-1149 231,-1149 231,-1149 225,-1149 219,-1143 219,-1137 219,-1137 219,-1108 219,-1108 219,-1102 225,-1096 231,-1096"/>
<text text-anchor="middle" x="259.38" y="-1136.45" font-family="Helvetica,sans-Serif" font-weight="bold" font-size="9.00">controller</text>
</g>
<g id="clust5" class="cluster">
<title>cluster_src/js/data</title>
<path fill="#ffffff" stroke="black" stroke-width="2" d="M36,-538C36,-538 191.12,-538 191.12,-538 197.12,-538 203.12,-544 203.12,-550 203.12,-550 203.12,-579 203.12,-579 203.12,-585 197.12,-591 191.12,-591 191.12,-591 36,-591 36,-591 30,-591 24,-585 24,-579 24,-579 24,-550 24,-550 24,-544 30,-538 36,-538"/>
<text text-anchor="middle" x="113.56" y="-578.45" font-family="Helvetica,sans-Serif" font-weight="bold" font-size="9.00">data</text>
</g>
<g id="clust6" class="cluster">
<title>cluster_src/js/directable</title>
<path fill="#ffffff" stroke="black" stroke-width="2" d="M400.25,-24C400.25,-24 1181.75,-24 1181.75,-24 1187.75,-24 1193.75,-30 1193.75,-36 1193.75,-36 1193.75,-1061 1193.75,-1061 1193.75,-1067 1187.75,-1073 1181.75,-1073 1181.75,-1073 400.25,-1073 400.25,-1073 394.25,-1073 388.25,-1067 388.25,-1061 388.25,-1061 388.25,-36 388.25,-36 388.25,-30 394.25,-24 400.25,-24"/>
<text text-anchor="middle" x="791" y="-1060.45" font-family="Helvetica,sans-Serif" font-weight="bold" font-size="9.00">directable</text>
</g>
<g id="clust7" class="cluster">
<title>cluster_src/js/directable/dotmatrix</title>
<path fill="#ffffff" stroke="black" stroke-width="2" d="M443.25,-32C443.25,-32 1173.75,-32 1173.75,-32 1179.75,-32 1185.75,-38 1185.75,-44 1185.75,-44 1185.75,-632 1185.75,-632 1185.75,-638 1179.75,-644 1173.75,-644 1173.75,-644 443.25,-644 443.25,-644 437.25,-644 431.25,-638 431.25,-632 431.25,-632 431.25,-44 431.25,-44 431.25,-38 437.25,-32 443.25,-32"/>
<text text-anchor="middle" x="808.5" y="-631.45" font-family="Helvetica,sans-Serif" font-weight="bold" font-size="9.00">dotmatrix</text>
</g>
<g id="clust8" class="cluster">
<title>cluster_src/js/directable/dotmatrix/dot</title>
<path fill="#ffffff" stroke="black" stroke-width="2" d="M729.88,-564C729.88,-564 910.5,-564 910.5,-564 916.5,-564 922.5,-570 922.5,-576 922.5,-576 922.5,-605 922.5,-605 922.5,-611 916.5,-617 910.5,-617 910.5,-617 729.88,-617 729.88,-617 723.88,-617 717.88,-611 717.88,-605 717.88,-605 717.88,-576 717.88,-576 717.88,-570 723.88,-564 729.88,-564"/>
<text text-anchor="middle" x="820.19" y="-604.45" font-family="Helvetica,sans-Serif" font-weight="bold" font-size="9.00">dot</text>
</g>
<g id="clust9" class="cluster">
<title>cluster_src/js/directable/dotmatrix/grid</title>
<path fill="#ffffff" stroke="black" stroke-width="2" d="M984.25,-533C984.25,-533 1038,-533 1038,-533 1044,-533 1050,-539 1050,-545 1050,-545 1050,-574 1050,-574 1050,-580 1044,-586 1038,-586 1038,-586 984.25,-586 984.25,-586 978.25,-586 972.25,-580 972.25,-574 972.25,-574 972.25,-545 972.25,-545 972.25,-539 978.25,-533 984.25,-533"/>
<text text-anchor="middle" x="1011.12" y="-573.45" font-family="Helvetica,sans-Serif" font-weight="bold" font-size="9.00">grid</text>
</g>
<g id="clust10" class="cluster">
<title>cluster_src/js/directable/dotmatrix/shape</title>
<path fill="#ffffff" stroke="black" stroke-width="2" d="M715.5,-40C715.5,-40 1165.75,-40 1165.75,-40 1171.75,-40 1177.75,-46 1177.75,-52 1177.75,-52 1177.75,-452 1177.75,-452 1177.75,-458 1171.75,-464 1165.75,-464 1165.75,-464 715.5,-464 715.5,-464 709.5,-464 703.5,-458 703.5,-452 703.5,-452 703.5,-52 703.5,-52 703.5,-46 709.5,-40 715.5,-40"/>
<text text-anchor="middle" x="940.62" y="-451.45" font-family="Helvetica,sans-Serif" font-weight="bold" font-size="9.00">shape</text>
</g>
<g id="clust11" class="cluster">
<title>cluster_src/js/directable/dotmatrix/shape/fill</title>
<path fill="#ffffff" stroke="black" stroke-width="2" d="M980.12,-271C980.12,-271 1157.75,-271 1157.75,-271 1163.75,-271 1169.75,-277 1169.75,-283 1169.75,-283 1169.75,-343 1169.75,-343 1169.75,-349 1163.75,-355 1157.75,-355 1157.75,-355 980.12,-355 980.12,-355 974.12,-355 968.12,-349 968.12,-343 968.12,-343 968.12,-283 968.12,-283 968.12,-277 974.12,-271 980.12,-271"/>
<text text-anchor="middle" x="1068.94" y="-342.45" font-family="Helvetica,sans-Serif" font-weight="bold" font-size="9.00">fill</text>
</g>
<g id="clust12" class="cluster">
<title>cluster_src/js/directable/dotmatrix/shape/glyph</title>
<path fill="#ffffff" stroke="black" stroke-width="2" d="M723.5,-48C723.5,-48 803.5,-48 803.5,-48 809.5,-48 815.5,-54 815.5,-60 815.5,-60 815.5,-399 815.5,-399 815.5,-405 809.5,-411 803.5,-411 803.5,-411 723.5,-411 723.5,-411 717.5,-411 711.5,-405 711.5,-399 711.5,-399 711.5,-60 711.5,-60 711.5,-54 717.5,-48 723.5,-48"/>
<text text-anchor="middle" x="763.5" y="-398.45" font-family="Helvetica,sans-Serif" font-weight="bold" font-size="9.00">glyph</text>
</g>
<g id="clust13" class="cluster">
<title>cluster_src/js/directable/dotmatrix/shape/line</title>
<path fill="#ffffff" stroke="black" stroke-width="2" d="M835.5,-263C835.5,-263 939.5,-263 939.5,-263 945.5,-263 951.5,-269 951.5,-275 951.5,-275 951.5,-335 951.5,-335 951.5,-341 945.5,-347 939.5,-347 939.5,-347 835.5,-347 835.5,-347 829.5,-347 823.5,-341 823.5,-335 823.5,-335 823.5,-275 823.5,-275 823.5,-269 829.5,-263 835.5,-263"/>
<text text-anchor="middle" x="887.5" y="-334.45" font-family="Helvetica,sans-Serif" font-weight="bold" font-size="9.00">line</text>
</g>
<g id="clust14" class="cluster">
<title>cluster_src/js/directable/dotmatrix/shape/primative</title>
<path fill="#ffffff" stroke="black" stroke-width="2" d="M844.5,-355C844.5,-355 930.5,-355 930.5,-355 936.5,-355 942.5,-361 942.5,-367 942.5,-367 942.5,-396 942.5,-396 942.5,-402 936.5,-408 930.5,-408 930.5,-408 844.5,-408 844.5,-408 838.5,-408 832.5,-402 832.5,-396 832.5,-396 832.5,-367 832.5,-367 832.5,-361 838.5,-355 844.5,-355"/>
<text text-anchor="middle" x="887.5" y="-395.45" font-family="Helvetica,sans-Serif" font-weight="bold" font-size="9.00">primative</text>
</g>
<g id="clust15" class="cluster">
<title>cluster_src/js/directable/dotmatrix/view</title>
<path fill="#ffffff" stroke="black" stroke-width="2" d="M601.25,-472C601.25,-472 798.62,-472 798.62,-472 804.62,-472 810.62,-478 810.62,-484 810.62,-484 810.62,-544 810.62,-544 810.62,-550 804.62,-556 798.62,-556 798.62,-556 601.25,-556 601.25,-556 595.25,-556 589.25,-550 589.25,-544 589.25,-544 589.25,-484 589.25,-484 589.25,-478 595.25,-472 601.25,-472"/>
<text text-anchor="middle" x="699.94" y="-543.45" font-family="Helvetica,sans-Serif" font-weight="bold" font-size="9.00">view</text>
</g>
<g id="clust16" class="cluster">
<title>cluster_src/js/directable/frame</title>
<path fill="#ffffff" stroke="black" stroke-width="2" d="M449.62,-652C449.62,-652 534.88,-652 534.88,-652 540.88,-652 546.88,-658 546.88,-664 546.88,-664 546.88,-693 546.88,-693 546.88,-699 540.88,-705 534.88,-705 534.88,-705 449.62,-705 449.62,-705 443.62,-705 437.62,-699 437.62,-693 437.62,-693 437.62,-664 437.62,-664 437.62,-658 443.62,-652 449.62,-652"/>
<text text-anchor="middle" x="492.25" y="-692.45" font-family="Helvetica,sans-Serif" font-weight="bold" font-size="9.00">frame</text>
</g>
<g id="clust17" class="cluster">
<title>cluster_src/js/directable/rhythm</title>
<path fill="#ffffff" stroke="black" stroke-width="2" d="M408.25,-713C408.25,-713 683.12,-713 683.12,-713 689.12,-713 695.12,-719 695.12,-725 695.12,-725 695.12,-912 695.12,-912 695.12,-918 689.12,-924 683.12,-924 683.12,-924 408.25,-924 408.25,-924 402.25,-924 396.25,-918 396.25,-912 396.25,-912 396.25,-725 396.25,-725 396.25,-719 402.25,-713 408.25,-713"/>
<text text-anchor="middle" x="545.69" y="-911.45" font-family="Helvetica,sans-Serif" font-weight="bold" font-size="9.00">rhythm</text>
</g>
<g id="clust18" class="cluster">
<title>cluster_src/js/directable/rhythm/asdr</title>
<path fill="#ffffff" stroke="black" stroke-width="2" d="M416.25,-721C416.25,-721 568.25,-721 568.25,-721 574.25,-721 580.25,-727 580.25,-733 580.25,-733 580.25,-824 580.25,-824 580.25,-830 574.25,-836 568.25,-836 568.25,-836 416.25,-836 416.25,-836 410.25,-836 404.25,-830 404.25,-824 404.25,-824 404.25,-733 404.25,-733 404.25,-727 410.25,-721 416.25,-721"/>
<text text-anchor="middle" x="492.25" y="-823.45" font-family="Helvetica,sans-Serif" font-weight="bold" font-size="9.00">asdr</text>
</g>
<g id="clust19" class="cluster">
<title>cluster_src/js/directable/rhythm/bpm</title>
<path fill="#ffffff" stroke="black" stroke-width="2" d="M437.25,-844C437.25,-844 547.25,-844 547.25,-844 553.25,-844 559.25,-850 559.25,-856 559.25,-856 559.25,-885 559.25,-885 559.25,-891 553.25,-897 547.25,-897 547.25,-897 437.25,-897 437.25,-897 431.25,-897 425.25,-891 425.25,-885 425.25,-885 425.25,-856 425.25,-856 425.25,-850 431.25,-844 437.25,-844"/>
<text text-anchor="middle" x="492.25" y="-884.45" font-family="Helvetica,sans-Serif" font-weight="bold" font-size="9.00">bpm</text>
</g>
<g id="clust20" class="cluster">
<title>cluster_src/js/directable/rhythm2</title>
<path fill="#ffffff" stroke="black" stroke-width="2" d="M457.88,-932C457.88,-932 683.5,-932 683.5,-932 689.5,-932 695.5,-938 695.5,-944 695.5,-944 695.5,-973 695.5,-973 695.5,-979 689.5,-985 683.5,-985 683.5,-985 457.88,-985 457.88,-985 451.88,-985 445.88,-979 445.88,-973 445.88,-973 445.88,-944 445.88,-944 445.88,-938 451.88,-932 457.88,-932"/>
<text text-anchor="middle" x="570.69" y="-972.45" font-family="Helvetica,sans-Serif" font-weight="bold" font-size="9.00">rhythm2</text>
</g>
<g id="clust21" class="cluster">
<title>cluster_src/js/directable/title</title>
<path fill="#ffffff" stroke="black" stroke-width="2" d="M454.12,-993C454.12,-993 530.38,-993 530.38,-993 536.38,-993 542.38,-999 542.38,-1005 542.38,-1005 542.38,-1034 542.38,-1034 542.38,-1040 536.38,-1046 530.38,-1046 530.38,-1046 454.12,-1046 454.12,-1046 448.12,-1046 442.12,-1040 442.12,-1034 442.12,-1034 442.12,-1005 442.12,-1005 442.12,-999 448.12,-993 454.12,-993"/>
<text text-anchor="middle" x="492.25" y="-1033.45" font-family="Helvetica,sans-Serif" font-weight="bold" font-size="9.00">title</text>
</g>
<g id="clust22" class="cluster">
<title>cluster_src/js/director</title>
<path fill="#ffffff" stroke="black" stroke-width="2" d="M319.75,-1014C319.75,-1014 368.25,-1014 368.25,-1014 374.25,-1014 380.25,-1020 380.25,-1026 380.25,-1026 380.25,-1055 380.25,-1055 380.25,-1061 374.25,-1067 368.25,-1067 368.25,-1067 319.75,-1067 319.75,-1067 313.75,-1067 307.75,-1061 307.75,-1055 307.75,-1055 307.75,-1026 307.75,-1026 307.75,-1020 313.75,-1014 319.75,-1014"/>
<text text-anchor="middle" x="344" y="-1054.45" font-family="Helvetica,sans-Serif" font-weight="bold" font-size="9.00">director</text>
</g>
<g id="clust23" class="cluster">
<title>cluster_src/js/display</title>
<path fill="#ffffff" stroke="black" stroke-width="2" d="M1092.75,-1150C1092.75,-1150 1286.5,-1150 1286.5,-1150 1292.5,-1150 1298.5,-1156 1298.5,-1162 1298.5,-1162 1298.5,-1191 1298.5,-1191 1298.5,-1197 1292.5,-1203 1286.5,-1203 1286.5,-1203 1092.75,-1203 1092.75,-1203 1086.75,-1203 1080.75,-1197 1080.75,-1191 1080.75,-1191 1080.75,-1162 1080.75,-1162 1080.75,-1156 1086.75,-1150 1092.75,-1150"/>
<text text-anchor="middle" x="1189.62" y="-1190.45" font-family="Helvetica,sans-Serif" font-weight="bold" font-size="9.00">display</text>
</g>
<g id="clust24" class="cluster">
<title>cluster_src/js/overlay</title>
<path fill="#ffffff" stroke="black" stroke-width="2" d="M320.12,-1105C320.12,-1105 668.88,-1105 668.88,-1105 674.88,-1105 680.88,-1111 680.88,-1117 680.88,-1117 680.88,-1242 680.88,-1242 680.88,-1248 674.88,-1254 668.88,-1254 668.88,-1254 320.12,-1254 320.12,-1254 314.12,-1254 308.12,-1248 308.12,-1242 308.12,-1242 308.12,-1117 308.12,-1117 308.12,-1111 314.12,-1105 320.12,-1105"/>
<text text-anchor="middle" x="494.5" y="-1241.45" font-family="Helvetica,sans-Serif" font-weight="bold" font-size="9.00">overlay</text>
</g>
<g id="clust25" class="cluster">
<title>cluster_src/js/overlay/displayFormat</title>
<path fill="#ffffff" stroke="black" stroke-width="2" d="M438.38,-1174C438.38,-1174 546.12,-1174 546.12,-1174 552.12,-1174 558.12,-1180 558.12,-1186 558.12,-1186 558.12,-1215 558.12,-1215 558.12,-1221 552.12,-1227 546.12,-1227 546.12,-1227 438.38,-1227 438.38,-1227 432.38,-1227 426.38,-1221 426.38,-1215 426.38,-1215 426.38,-1186 426.38,-1186 426.38,-1180 432.38,-1174 438.38,-1174"/>
<text text-anchor="middle" x="492.25" y="-1214.45" font-family="Helvetica,sans-Serif" font-weight="bold" font-size="9.00">displayFormat</text>
</g>
<g id="clust26" class="cluster">
<title>cluster_src/js/overlay/overlay</title>
<path fill="#ffffff" stroke="black" stroke-width="2" d="M452.62,-1113C452.62,-1113 531.88,-1113 531.88,-1113 537.88,-1113 543.88,-1119 543.88,-1125 543.88,-1125 543.88,-1154 543.88,-1154 543.88,-1160 537.88,-1166 531.88,-1166 531.88,-1166 452.62,-1166 452.62,-1166 446.62,-1166 440.62,-1160 440.62,-1154 440.62,-1154 440.62,-1125 440.62,-1125 440.62,-1119 446.62,-1113 452.62,-1113"/>
<text text-anchor="middle" x="492.25" y="-1153.45" font-family="Helvetica,sans-Serif" font-weight="bold" font-size="9.00">overlay</text>
</g>
<g id="clust27" class="cluster">
<title>cluster_src/js/render</title>
<path fill="#ffffff" stroke="black" stroke-width="2" d="M971.5,-1091C971.5,-1091 1050.75,-1091 1050.75,-1091 1056.75,-1091 1062.75,-1097 1062.75,-1103 1062.75,-1103 1062.75,-1132 1062.75,-1132 1062.75,-1138 1056.75,-1144 1050.75,-1144 1050.75,-1144 971.5,-1144 971.5,-1144 965.5,-1144 959.5,-1138 959.5,-1132 959.5,-1132 959.5,-1103 959.5,-1103 959.5,-1097 965.5,-1091 971.5,-1091"/>
<text text-anchor="middle" x="1011.12" y="-1131.45" font-family="Helvetica,sans-Serif" font-weight="bold" font-size="9.00">render</text>
</g>
<!-- src/js/application/Application.js -->
<g id="node1" class="node">
<title>src/js/application/Application.js</title>
<g id="a_node1"><a xlink:href="src/js/application/Application.js" xlink:title="Application.js">
<path fill="#ffffcc" stroke="black" d="M196.83,-1122.25C196.83,-1122.25 138.42,-1122.25 138.42,-1122.25 135.33,-1122.25 132.25,-1119.17 132.25,-1116.08 132.25,-1116.08 132.25,-1109.92 132.25,-1109.92 132.25,-1106.83 135.33,-1103.75 138.42,-1103.75 138.42,-1103.75 196.83,-1103.75 196.83,-1103.75 199.92,-1103.75 203,-1106.83 203,-1109.92 203,-1109.92 203,-1116.08 203,-1116.08 203,-1119.17 199.92,-1122.25 196.83,-1122.25"/>
<text text-anchor="start" x="140.25" y="-1109.7" font-family="Helvetica,sans-Serif" font-size="9.00">Application.js</text>
</a>
</g>
</g>
<!-- src/js/controller/Controller.js -->
<g id="node2" class="node">
<title>src/js/controller/Controller.js</title>
<g id="a_node2"><a xlink:href="src/js/controller/Controller.js" xlink:title="Controller.js">
<path fill="#ffffcc" stroke="black" d="M285.58,-1122.25C285.58,-1122.25 233.17,-1122.25 233.17,-1122.25 230.08,-1122.25 227,-1119.17 227,-1116.08 227,-1116.08 227,-1109.92 227,-1109.92 227,-1106.83 230.08,-1103.75 233.17,-1103.75 233.17,-1103.75 285.58,-1103.75 285.58,-1103.75 288.67,-1103.75 291.75,-1106.83 291.75,-1109.92 291.75,-1109.92 291.75,-1116.08 291.75,-1116.08 291.75,-1119.17 288.67,-1122.25 285.58,-1122.25"/>
<text text-anchor="start" x="235" y="-1109.7" font-family="Helvetica,sans-Serif" font-size="9.00">Controller.js</text>
</a>
</g>
</g>
<!-- src/js/application/Application.js&#45;&gt;src/js/controller/Controller.js -->
<g id="edge1" class="edge">
<title>src/js/application/Application.js&#45;&gt;src/js/controller/Controller.js</title>
<path fill="none" stroke="#000000" stroke-width="2" stroke-opacity="0.200000" d="M203.32,-1113C208.13,-1113 213.11,-1113 218.01,-1113"/>
<polygon fill="#000000" fill-opacity="0.200000" stroke="#000000" stroke-width="2" stroke-opacity="0.200000" points="217.68,-1115.1 223.68,-1113 217.68,-1110.9 217.68,-1115.1"/>
</g>
<!-- src/js/director/Director.js -->
<g id="node3" class="node">
<title>src/js/director/Director.js</title>
<g id="a_node3"><a xlink:href="src/js/director/Director.js" xlink:title="Director.js">
<path fill="#ffffcc" stroke="black" d="M366.08,-1040.25C366.08,-1040.25 321.92,-1040.25 321.92,-1040.25 318.83,-1040.25 315.75,-1037.17 315.75,-1034.08 315.75,-1034.08 315.75,-1027.92 315.75,-1027.92 315.75,-1024.83 318.83,-1021.75 321.92,-1021.75 321.92,-1021.75 366.08,-1021.75 366.08,-1021.75 369.17,-1021.75 372.25,-1024.83 372.25,-1027.92 372.25,-1027.92 372.25,-1034.08 372.25,-1034.08 372.25,-1037.17 369.17,-1040.25 366.08,-1040.25"/>
<text text-anchor="start" x="323.75" y="-1027.7" font-family="Helvetica,sans-Serif" font-size="9.00">Director.js</text>
</a>
</g>
</g>
<!-- src/js/controller/Controller.js&#45;&gt;src/js/director/Director.js -->
<g id="edge2" class="edge">
<title>src/js/controller/Controller.js&#45;&gt;src/js/director/Director.js</title>
<path fill="none" stroke="#000000" stroke-width="2" stroke-opacity="0.200000" d="M270.18,-1103.27C284.22,-1089.34 310.21,-1063.55 327.04,-1046.84"/>
<polygon fill="#000000" fill-opacity="0.200000" stroke="#000000" stroke-width="2" stroke-opacity="0.200000" points="328.28,-1048.57 331.06,-1042.85 325.32,-1045.58 328.28,-1048.57"/>
</g>
<!-- src/js/display/Display.js -->
<g id="node4" class="node">
<title>src/js/display/Display.js</title>
<g id="a_node4"><a xlink:href="src/js/display/Display.js" xlink:title="Display.js">
<path fill="#ffffcc" stroke="black" d="M1137.58,-1176.25C1137.58,-1176.25 1094.92,-1176.25 1094.92,-1176.25 1091.83,-1176.25 1088.75,-1173.17 1088.75,-1170.08 1088.75,-1170.08 1088.75,-1163.92 1088.75,-1163.92 1088.75,-1160.83 1091.83,-1157.75 1094.92,-1157.75 1094.92,-1157.75 1137.58,-1157.75 1137.58,-1157.75 1140.67,-1157.75 1143.75,-1160.83 1143.75,-1163.92 1143.75,-1163.92 1143.75,-1170.08 1143.75,-1170.08 1143.75,-1173.17 1140.67,-1176.25 1137.58,-1176.25"/>
<text text-anchor="start" x="1096.75" y="-1163.7" font-family="Helvetica,sans-Serif" font-size="9.00">Display.js</text>
</a>
</g>
</g>
<!-- src/js/controller/Controller.js&#45;&gt;src/js/display/Display.js -->
<g id="edge3" class="edge">
<title>src/js/controller/Controller.js&#45;&gt;src/js/display/Display.js</title>
<path fill="none" stroke="#000000" stroke-width="2" stroke-opacity="0.200000" d="M260.13,-1122.44C260.01,-1148.91 263.72,-1224.03 307.75,-1257 373.06,-1305.92 409.65,-1263 491.25,-1263 491.25,-1263 491.25,-1263 638.88,-1263 806.83,-1263 1001.65,-1204.95 1079.98,-1179.13"/>
<polygon fill="#000000" fill-opacity="0.200000" stroke="#000000" stroke-width="2" stroke-opacity="0.200000" points="1080.6,-1181.13 1085.64,-1177.25 1079.28,-1177.15 1080.6,-1181.13"/>
</g>
<!-- src/js/overlay/Overlay.js -->
<g id="node5" class="node">
<title>src/js/overlay/Overlay.js</title>
<g id="a_node5"><a xlink:href="src/js/overlay/Overlay.js" xlink:title="Overlay.js">
<path fill="#ffffcc" stroke="black" d="M365.71,-1139.25C365.71,-1139.25 322.29,-1139.25 322.29,-1139.25 319.21,-1139.25 316.12,-1136.17 316.12,-1133.08 316.12,-1133.08 316.12,-1126.92 316.12,-1126.92 316.12,-1123.83 319.21,-1120.75 322.29,-1120.75 322.29,-1120.75 365.71,-1120.75 365.71,-1120.75 368.79,-1120.75 371.88,-1123.83 371.88,-1126.92 371.88,-1126.92 371.88,-1133.08 371.88,-1133.08 371.88,-1136.17 368.79,-1139.25 365.71,-1139.25"/>
<text text-anchor="start" x="324.12" y="-1126.7" font-family="Helvetica,sans-Serif" font-size="9.00">Overlay.js</text>
</a>
</g>
</g>
<!-- src/js/controller/Controller.js&#45;&gt;src/js/overlay/Overlay.js -->
<g id="edge4" class="edge">
<title>src/js/controller/Controller.js&#45;&gt;src/js/overlay/Overlay.js</title>
<path fill="none" stroke="#000000" stroke-width="2" stroke-opacity="0.200000" d="M292.08,-1119.52C296.98,-1120.53 302.06,-1121.58 307.04,-1122.6"/>
<polygon fill="#000000" fill-opacity="0.200000" stroke="#000000" stroke-width="2" stroke-opacity="0.200000" points="306.55,-1124.64 312.85,-1123.8 307.4,-1120.53 306.55,-1124.64"/>
</g>
<!-- src/js/render/RenderSurface.js -->
<g id="node6" class="node">
<title>src/js/render/RenderSurface.js</title>
<g id="a_node6"><a xlink:href="src/js/render/RenderSurface.js" xlink:title="RenderSurface.js">
<path fill="#ffffcc" stroke="black" d="M1048.58,-1117.25C1048.58,-1117.25 973.67,-1117.25 973.67,-1117.25 970.58,-1117.25 967.5,-1114.17 967.5,-1111.08 967.5,-1111.08 967.5,-1104.92 967.5,-1104.92 967.5,-1101.83 970.58,-1098.75 973.67,-1098.75 973.67,-1098.75 1048.58,-1098.75 1048.58,-1098.75 1051.67,-1098.75 1054.75,-1101.83 1054.75,-1104.92 1054.75,-1104.92 1054.75,-1111.08 1054.75,-1111.08 1054.75,-1114.17 1051.67,-1117.25 1048.58,-1117.25"/>
<text text-anchor="start" x="975.5" y="-1104.7" font-family="Helvetica,sans-Serif" font-size="9.00">RenderSurface.js</text>
</a>
</g>
</g>
<!-- src/js/controller/Controller.js&#45;&gt;src/js/render/RenderSurface.js -->
<g id="edge5" class="edge">
<title>src/js/controller/Controller.js&#45;&gt;src/js/render/RenderSurface.js</title>
<path fill="none" stroke="#000000" stroke-width="2" stroke-opacity="0.200000" d="M292.07,-1104.74C297.28,-1103.64 302.64,-1102.67 307.75,-1102 388.66,-1091.39 409.65,-1096 491.25,-1096 491.25,-1096 491.25,-1096 764.5,-1096 831.42,-1096 908.47,-1100.5 958.17,-1103.99"/>
<polygon fill="#000000" fill-opacity="0.200000" stroke="#000000" stroke-width="2" stroke-opacity="0.200000" points="957.96,-1106.08 964.1,-1104.41 958.26,-1101.89 957.96,-1106.08"/>
</g>
<!-- src/js/director/Director.js&#45;&gt;src/js/display/Display.js -->
<g id="edge46" class="edge">
<title>src/js/director/Director.js&#45;&gt;src/js/display/Display.js</title>
<path fill="none" stroke="#000000" stroke-width="2" stroke-opacity="0.200000" d="M365.29,-1040.74C372.41,-1043.8 380.55,-1046.93 388.25,-1049 495.88,-1078 525.41,-1082 636.88,-1082 636.88,-1082 636.88,-1082 888.5,-1082 965.99,-1082 995.1,-1050.22 1062.75,-1088 1086.35,-1101.18 1101.27,-1129.94 1108.94,-1148.88"/>
<polygon fill="#000000" fill-opacity="0.200000" stroke="#000000" stroke-width="2" stroke-opacity="0.200000" points="1106.96,-1149.58 1111.05,-1154.44 1110.89,-1148.09 1106.96,-1149.58"/>
</g>
<!-- src/js/directable/dotmatrix/DirectableDotMatrix.js -->
<g id="node9" class="node">
<title>src/js/directable/dotmatrix/DirectableDotMatrix.js</title>
<g id="a_node9"><a xlink:href="src/js/directable/dotmatrix/DirectableDotMatrix.js" xlink:title="DirectableDotMatrix.js">
<path fill="#ffffcc" stroke="black" d="M539.08,-573.25C539.08,-573.25 445.42,-573.25 445.42,-573.25 442.33,-573.25 439.25,-570.17 439.25,-567.08 439.25,-567.08 439.25,-560.92 439.25,-560.92 439.25,-557.83 442.33,-554.75 445.42,-554.75 445.42,-554.75 539.08,-554.75 539.08,-554.75 542.17,-554.75 545.25,-557.83 545.25,-560.92 545.25,-560.92 545.25,-567.08 545.25,-567.08 545.25,-570.17 542.17,-573.25 539.08,-573.25"/>
<text text-anchor="start" x="447.25" y="-560.7" font-family="Helvetica,sans-Serif" font-size="9.00">DirectableDotMatrix.js</text>
</a>
</g>
</g>
<!-- src/js/director/Director.js&#45;&gt;src/js/directable/dotmatrix/DirectableDotMatrix.js -->
<g id="edge44" class="edge">
<title>src/js/director/Director.js&#45;&gt;src/js/directable/dotmatrix/DirectableDotMatrix.js</title>
<path fill="none" stroke="#000000" stroke-width="2" stroke-opacity="0.200000" d="M345.13,-1021.39C345.96,-968.84 351.83,-716.18 388.25,-649 405.52,-617.14 440.11,-592.49 464.42,-578.13"/>
<polygon fill="#000000" fill-opacity="0.200000" stroke="#000000" stroke-width="2" stroke-opacity="0.200000" points="465.44,-579.97 469.61,-575.16 463.36,-576.32 465.44,-579.97"/>
</g>
<!-- src/js/directable/title/DirectableTitle.js -->
<g id="node44" class="node">
<title>src/js/directable/title/DirectableTitle.js</title>
<g id="a_node44"><a xlink:href="src/js/directable/title/DirectableTitle.js" xlink:title="DirectableTitle.js">
<path fill="#ffffcc" stroke="black" d="M528.21,-1019.25C528.21,-1019.25 456.29,-1019.25 456.29,-1019.25 453.21,-1019.25 450.12,-1016.17 450.12,-1013.08 450.12,-1013.08 450.12,-1006.92 450.12,-1006.92 450.12,-1003.83 453.21,-1000.75 456.29,-1000.75 456.29,-1000.75 528.21,-1000.75 528.21,-1000.75 531.29,-1000.75 534.38,-1003.83 534.38,-1006.92 534.38,-1006.92 534.38,-1013.08 534.38,-1013.08 534.38,-1016.17 531.29,-1019.25 528.21,-1019.25"/>
<text text-anchor="start" x="458.12" y="-1006.7" font-family="Helvetica,sans-Serif" font-size="9.00">DirectableTitle.js</text>
</a>
</g>
</g>
<!-- src/js/director/Director.js&#45;&gt;src/js/directable/title/DirectableTitle.js -->
<g id="edge45" class="edge">
<title>src/js/director/Director.js&#45;&gt;src/js/directable/title/DirectableTitle.js</title>
<path fill="none" stroke="#000000" stroke-width="2" stroke-opacity="0.200000" d="M372.51,-1027.05C391.72,-1024.29 417.93,-1020.53 440.83,-1017.24"/>
<polygon fill="#000000" fill-opacity="0.200000" stroke="#000000" stroke-width="2" stroke-opacity="0.200000" points="441.12,-1019.32 446.76,-1016.39 440.52,-1015.16 441.12,-1019.32"/>
</g>
<!-- src/js/display/DisplayFormats.js -->
<g id="node45" class="node">
<title>src/js/display/DisplayFormats.js</title>
<g id="a_node45"><a xlink:href="src/js/display/DisplayFormats.js" xlink:title="DisplayFormats.js">
<path fill="#ffffcc" stroke="black" d="M1284.33,-1176.25C1284.33,-1176.25 1207.92,-1176.25 1207.92,-1176.25 1204.83,-1176.25 1201.75,-1173.17 1201.75,-1170.08 1201.75,-1170.08 1201.75,-1163.92 1201.75,-1163.92 1201.75,-1160.83 1204.83,-1157.75 1207.92,-1157.75 1207.92,-1157.75 1284.33,-1157.75 1284.33,-1157.75 1287.42,-1157.75 1290.5,-1160.83 1290.5,-1163.92 1290.5,-1163.92 1290.5,-1170.08 1290.5,-1170.08 1290.5,-1173.17 1287.42,-1176.25 1284.33,-1176.25"/>
<text text-anchor="start" x="1209.75" y="-1163.7" font-family="Helvetica,sans-Serif" font-size="9.00">DisplayFormats.js</text>
</a>
</g>
</g>
<!-- src/js/display/Display.js&#45;&gt;src/js/display/DisplayFormats.js -->
<g id="edge47" class="edge">
<title>src/js/display/Display.js&#45;&gt;src/js/display/DisplayFormats.js</title>
<path fill="none" stroke="#000000" stroke-width="2" stroke-opacity="0.200000" d="M1144.06,-1167C1158.21,-1167 1176.09,-1167 1192.85,-1167"/>
<polygon fill="#000000" fill-opacity="0.200000" stroke="#000000" stroke-width="2" stroke-opacity="0.200000" points="1192.47,-1169.1 1198.47,-1167 1192.47,-1164.9 1192.47,-1169.1"/>
</g>
<!-- src/js/overlay/displayFormat/OverlayDisplayFormat.js -->
<g id="node47" class="node">
<title>src/js/overlay/displayFormat/OverlayDisplayFormat.js</title>
<g id="a_node47"><a xlink:href="src/js/overlay/displayFormat/OverlayDisplayFormat.js" xlink:title="OverlayDisplayFormat.js">
<path fill="#ffffcc" stroke="black" d="M543.96,-1200.25C543.96,-1200.25 440.54,-1200.25 440.54,-1200.25 437.46,-1200.25 434.38,-1197.17 434.38,-1194.08 434.38,-1194.08 434.38,-1187.92 434.38,-1187.92 434.38,-1184.83 437.46,-1181.75 440.54,-1181.75 440.54,-1181.75 543.96,-1181.75 543.96,-1181.75 547.04,-1181.75 550.12,-1184.83 550.12,-1187.92 550.12,-1187.92 550.12,-1194.08 550.12,-1194.08 550.12,-1197.17 547.04,-1200.25 543.96,-1200.25"/>
<text text-anchor="start" x="442.38" y="-1187.7" font-family="Helvetica,sans-Serif" font-size="9.00">OverlayDisplayFormat.js</text>
</a>
</g>
</g>
<!-- src/js/overlay/Overlay.js&#45;&gt;src/js/overlay/displayFormat/OverlayDisplayFormat.js -->
<g id="edge49" class="edge">
<title>src/js/overlay/Overlay.js&#45;&gt;src/js/overlay/displayFormat/OverlayDisplayFormat.js</title>
<path fill="none" stroke="#000000" stroke-width="2" stroke-opacity="0.200000" d="M352.91,-1139.58C360.88,-1148.58 374.02,-1161.74 388.25,-1169 399.7,-1174.84 412.62,-1179.14 425.35,-1182.29"/>
<polygon fill="#000000" fill-opacity="0.200000" stroke="#000000" stroke-width="2" stroke-opacity="0.200000" points="424.84,-1184.33 431.16,-1183.62 425.78,-1180.24 424.84,-1184.33"/>
</g>
<!-- src/js/overlay/overlay/OverlayOverlay.js -->
<g id="node48" class="node">
<title>src/js/overlay/overlay/OverlayOverlay.js</title>
<g id="a_node48"><a xlink:href="src/js/overlay/overlay/OverlayOverlay.js" xlink:title="OverlayOverlay.js">
<path fill="#ffffcc" stroke="black" d="M529.71,-1139.25C529.71,-1139.25 454.79,-1139.25 454.79,-1139.25 451.71,-1139.25 448.62,-1136.17 448.62,-1133.08 448.62,-1133.08 448.62,-1126.92 448.62,-1126.92 448.62,-1123.83 451.71,-1120.75 454.79,-1120.75 454.79,-1120.75 529.71,-1120.75 529.71,-1120.75 532.79,-1120.75 535.88,-1123.83 535.88,-1126.92 535.88,-1126.92 535.88,-1133.08 535.88,-1133.08 535.88,-1136.17 532.79,-1139.25 529.71,-1139.25"/>
<text text-anchor="start" x="456.62" y="-1126.7" font-family="Helvetica,sans-Serif" font-size="9.00">OverlayOverlay.js</text>
</a>
</g>
</g>
<!-- src/js/overlay/Overlay.js&#45;&gt;src/js/overlay/overlay/OverlayOverlay.js -->
<g id="edge50" class="edge">
<title>src/js/overlay/Overlay.js&#45;&gt;src/js/overlay/overlay/OverlayOverlay.js</title>
<path fill="none" stroke="#000000" stroke-width="2" stroke-opacity="0.200000" d="M372.17,-1130C390.98,-1130 416.62,-1130 439.29,-1130"/>
<polygon fill="#000000" fill-opacity="0.200000" stroke="#000000" stroke-width="2" stroke-opacity="0.200000" points="439.11,-1132.1 445.11,-1130 439.11,-1127.9 439.11,-1132.1"/>
</g>
<!-- src/js/render/RenderSurface.js&#45;&gt;src/js/display/Display.js -->
<g id="edge54" class="edge">
<title>src/js/render/RenderSurface.js&#45;&gt;src/js/display/Display.js</title>
<path fill="none" stroke="#000000" stroke-width="2" stroke-opacity="0.200000" d="M1029.15,-1117.74C1045.97,-1127.37 1071.86,-1142.18 1090.86,-1153.05"/>
<polygon fill="#000000" fill-opacity="0.200000" stroke="#000000" stroke-width="2" stroke-opacity="0.200000" points="1089.66,-1154.78 1095.91,-1155.94 1091.75,-1151.13 1089.66,-1154.78"/>
</g>
<!-- src/js/data/Data.json -->
<g id="node7" class="node">
<title>src/js/data/Data.json</title>
<g id="a_node7"><a xlink:href="src/js/data/Data.json" xlink:title="Data.json">
<path fill="#ffee44" stroke="black" d="M188.96,-564.25C188.96,-564.25 146.29,-564.25 146.29,-564.25 143.21,-564.25 140.12,-561.17 140.12,-558.08 140.12,-558.08 140.12,-551.92 140.12,-551.92 140.12,-548.83 143.21,-545.75 146.29,-545.75 146.29,-545.75 188.96,-545.75 188.96,-545.75 192.04,-545.75 195.12,-548.83 195.12,-551.92 195.12,-551.92 195.12,-558.08 195.12,-558.08 195.12,-561.17 192.04,-564.25 188.96,-564.25"/>
<text text-anchor="start" x="148.12" y="-551.7" font-family="Helvetica,sans-Serif" font-size="9.00">Data.json</text>
</a>
</g>
</g>
<!-- src/js/data/DataController.js -->
<g id="node8" class="node">
<title>src/js/data/DataController.js</title>
<g id="a_node8"><a xlink:href="src/js/data/DataController.js" xlink:title="DataController.js">
<path fill="#ffffcc" stroke="black" d="M110.08,-564.25C110.08,-564.25 38.17,-564.25 38.17,-564.25 35.08,-564.25 32,-561.17 32,-558.08 32,-558.08 32,-551.92 32,-551.92 32,-548.83 35.08,-545.75 38.17,-545.75 38.17,-545.75 110.08,-545.75 110.08,-545.75 113.17,-545.75 116.25,-548.83 116.25,-551.92 116.25,-551.92 116.25,-558.08 116.25,-558.08 116.25,-561.17 113.17,-564.25 110.08,-564.25"/>
<text text-anchor="start" x="40" y="-551.7" font-family="Helvetica,sans-Serif" font-size="9.00">DataController.js</text>
</a>
</g>
</g>
<!-- src/js/data/DataController.js&#45;&gt;src/js/data/Data.json -->
<g id="edge6" class="edge">
<title>src/js/data/DataController.js&#45;&gt;src/js/data/Data.json</title>
<path fill="none" stroke="#000000" stroke-width="2" stroke-opacity="0.200000" d="M116.59,-555C121.37,-555 126.22,-555 130.92,-555"/>
<polygon fill="#000000" fill-opacity="0.200000" stroke="#000000" stroke-width="2" stroke-opacity="0.200000" points="130.69,-557.1 136.69,-555 130.69,-552.9 130.69,-557.1"/>
</g>
<!-- src/js/directable/dotmatrix/view/ViewManager.js -->
<g id="node10" class="node">
<title>src/js/directable/dotmatrix/view/ViewManager.js</title>
<g id="a_node10"><a xlink:href="src/js/directable/dotmatrix/view/ViewManager.js" xlink:title="ViewManager.js">
<path fill="#ffffcc" stroke="black" d="M672.33,-529.25C672.33,-529.25 603.42,-529.25 603.42,-529.25 600.33,-529.25 597.25,-526.17 597.25,-523.08 597.25,-523.08 597.25,-516.92 597.25,-516.92 597.25,-513.83 600.33,-510.75 603.42,-510.75 603.42,-510.75 672.33,-510.75 672.33,-510.75 675.42,-510.75 678.5,-513.83 678.5,-516.92 678.5,-516.92 678.5,-523.08 678.5,-523.08 678.5,-526.17 675.42,-529.25 672.33,-529.25"/>
<text text-anchor="start" x="605.25" y="-516.7" font-family="Helvetica,sans-Serif" font-size="9.00">ViewManager.js</text>
</a>
</g>
</g>
<!-- src/js/directable/dotmatrix/DirectableDotMatrix.js&#45;&gt;src/js/directable/dotmatrix/view/ViewManager.js -->
<g id="edge7" class="edge">
<title>src/js/directable/dotmatrix/DirectableDotMatrix.js&#45;&gt;src/js/directable/dotmatrix/view/ViewManager.js</title>
<path fill="none" stroke="#000000" stroke-width="2" stroke-opacity="0.200000" d="M524.77,-554.34C546,-547.84 574.19,-539.2 596.98,-532.22"/>
<polygon fill="#000000" fill-opacity="0.200000" stroke="#000000" stroke-width="2" stroke-opacity="0.200000" points="597.41,-534.29 602.54,-530.52 596.18,-530.27 597.41,-534.29"/>
</g>
<!-- src/js/directable/dotmatrix/grid/GridData.js -->
<g id="node12" class="node">
<title>src/js/directable/dotmatrix/grid/GridData.js</title>
<g id="a_node12"><a xlink:href="src/js/directable/dotmatrix/grid/GridData.js" xlink:title="GridData.js">
<path fill="#ffffcc" stroke="black" d="M1035.83,-559.25C1035.83,-559.25 986.42,-559.25 986.42,-559.25 983.33,-559.25 980.25,-556.17 980.25,-553.08 980.25,-553.08 980.25,-546.92 980.25,-546.92 980.25,-543.83 983.33,-540.75 986.42,-540.75 986.42,-540.75 1035.83,-540.75 1035.83,-540.75 1038.92,-540.75 1042,-543.83 1042,-546.92 1042,-546.92 1042,-553.08 1042,-553.08 1042,-556.17 1038.92,-559.25 1035.83,-559.25"/>
<text text-anchor="start" x="988.25" y="-546.7" font-family="Helvetica,sans-Serif" font-size="9.00">GridData.js</text>
</a>
</g>
</g>
<!-- src/js/directable/dotmatrix/view/ViewManager.js&#45;&gt;src/js/directable/dotmatrix/grid/GridData.js -->
<g id="edge35" class="edge">
<title>src/js/directable/dotmatrix/view/ViewManager.js&#45;&gt;src/js/directable/dotmatrix/grid/GridData.js</title>
<path fill="none" stroke="#000000" stroke-width="2" stroke-opacity="0.200000" d="M675.57,-529.72C684.64,-531.79 694.37,-533.73 703.5,-535 754.06,-542.05 900.64,-546.95 971.23,-548.97"/>
<polygon fill="#000000" fill-opacity="0.200000" stroke="#000000" stroke-width="2" stroke-opacity="0.200000" points="970.77,-551.05 976.83,-549.12 970.89,-546.86 970.77,-551.05"/>
</g>
<!-- src/js/directable/dotmatrix/dot/DotManager.js -->
<g id="node13" class="node">
<title>src/js/directable/dotmatrix/dot/DotManager.js</title>
<g id="a_node13"><a xlink:href="src/js/directable/dotmatrix/dot/DotManager.js" xlink:title="DotManager.js">
<path fill="#ffffcc" stroke="black" d="M794.96,-590.25C794.96,-590.25 732.04,-590.25 732.04,-590.25 728.96,-590.25 725.88,-587.17 725.88,-584.08 725.88,-584.08 725.88,-577.92 725.88,-577.92 725.88,-574.83 728.96,-571.75 732.04,-571.75 732.04,-571.75 794.96,-571.75 794.96,-571.75 798.04,-571.75 801.12,-574.83 801.12,-577.92 801.12,-577.92 801.12,-584.08 801.12,-584.08 801.12,-587.17 798.04,-590.25 794.96,-590.25"/>
<text text-anchor="start" x="733.88" y="-577.7" font-family="Helvetica,sans-Serif" font-size="9.00">DotManager.js</text>
</a>
</g>
</g>
<!-- src/js/directable/dotmatrix/view/ViewManager.js&#45;&gt;src/js/directable/dotmatrix/dot/DotManager.js -->
<g id="edge34" class="edge">
<title>src/js/directable/dotmatrix/view/ViewManager.js&#45;&gt;src/js/directable/dotmatrix/dot/DotManager.js</title>
<path fill="none" stroke="#000000" stroke-width="2" stroke-opacity="0.200000" d="M652.82,-529.46C665.63,-537.89 685.33,-550.22 703.5,-559 710.29,-562.28 717.71,-565.39 724.92,-568.18"/>
<polygon fill="#000000" fill-opacity="0.200000" stroke="#000000" stroke-width="2" stroke-opacity="0.200000" points="724.05,-570.1 730.41,-570.25 725.53,-566.17 724.05,-570.1"/>
</g>
<!-- src/js/directable/dotmatrix/shape/ShapeManager.js -->
<g id="node15" class="node">
<title>src/js/directable/dotmatrix/shape/ShapeManager.js</title>
<g id="a_node15"><a xlink:href="src/js/directable/dotmatrix/shape/ShapeManager.js" xlink:title="ShapeManager.js">
<path fill="#ffffcc" stroke="black" d="M801.33,-437.25C801.33,-437.25 725.67,-437.25 725.67,-437.25 722.58,-437.25 719.5,-434.17 719.5,-431.08 719.5,-431.08 719.5,-424.92 719.5,-424.92 719.5,-421.83 722.58,-418.75 725.67,-418.75 725.67,-418.75 801.33,-418.75 801.33,-418.75 804.42,-418.75 807.5,-421.83 807.5,-424.92 807.5,-424.92 807.5,-431.08 807.5,-431.08 807.5,-434.17 804.42,-437.25 801.33,-437.25"/>
<text text-anchor="start" x="727.5" y="-424.7" font-family="Helvetica,sans-Serif" font-size="9.00">ShapeManager.js</text>
</a>
</g>
</g>
<!-- src/js/directable/dotmatrix/view/ViewManager.js&#45;&gt;src/js/directable/dotmatrix/shape/ShapeManager.js -->
<g id="edge36" class="edge">
<title>src/js/directable/dotmatrix/view/ViewManager.js&#45;&gt;src/js/directable/dotmatrix/shape/ShapeManager.js</title>
<path fill="none" stroke="#000000" stroke-width="2" stroke-opacity="0.200000" d="M650.62,-510.38C663.44,-499.96 684.67,-482.95 703.5,-469 715.71,-459.95 729.67,-450.22 740.94,-442.52"/>
<polygon fill="#000000" fill-opacity="0.200000" stroke="#000000" stroke-width="2" stroke-opacity="0.200000" points="741.98,-444.35 745.76,-439.24 739.62,-440.88 741.98,-444.35"/>
</g>
<!-- src/js/directable/dotmatrix/view/ViewTest.js -->
<g id="node34" class="node">
<title>src/js/directable/dotmatrix/view/ViewTest.js</title>
<g id="a_node34"><a xlink:href="src/js/directable/dotmatrix/view/ViewTest.js" xlink:title="ViewTest.js">
<path fill="#ffffcc" stroke="black" d="M788.21,-498.25C788.21,-498.25 738.79,-498.25 738.79,-498.25 735.71,-498.25 732.62,-495.17 732.62,-492.08 732.62,-492.08 732.62,-485.92 732.62,-485.92 732.62,-482.83 735.71,-479.75 738.79,-479.75 738.79,-479.75 788.21,-479.75 788.21,-479.75 791.29,-479.75 794.38,-482.83 794.38,-485.92 794.38,-485.92 794.38,-492.08 794.38,-492.08 794.38,-495.17 791.29,-498.25 788.21,-498.25"/>
<text text-anchor="start" x="740.62" y="-485.7" font-family="Helvetica,sans-Serif" font-size="9.00">ViewTest.js</text>
</a>
</g>
</g>
<!-- src/js/directable/dotmatrix/view/ViewManager.js&#45;&gt;src/js/directable/dotmatrix/view/ViewTest.js -->
<g id="edge37" class="edge">
<title>src/js/directable/dotmatrix/view/ViewManager.js&#45;&gt;src/js/directable/dotmatrix/view/ViewTest.js</title>
<path fill="none" stroke="#000000" stroke-width="2" stroke-opacity="0.200000" d="M677.65,-510.28C692.45,-506.57 709.3,-502.34 724.07,-498.64"/>
<polygon fill="#000000" fill-opacity="0.200000" stroke="#000000" stroke-width="2" stroke-opacity="0.200000" points="724.25,-500.76 729.56,-497.26 723.22,-496.68 724.25,-500.76"/>
</g>
<!-- src/js/directable/dotmatrix/view/ViewTextTest.js -->
<g id="node35" class="node">
<title>src/js/directable/dotmatrix/view/ViewTextTest.js</title>
<g id="a_node35"><a xlink:href="src/js/directable/dotmatrix/view/ViewTextTest.js" xlink:title="ViewTextTest.js">
<path fill="#ffffcc" stroke="black" d="M796.46,-529.25C796.46,-529.25 730.54,-529.25 730.54,-529.25 727.46,-529.25 724.38,-526.17 724.38,-523.08 724.38,-523.08 724.38,-516.92 724.38,-516.92 724.38,-513.83 727.46,-510.75 730.54,-510.75 730.54,-510.75 796.46,-510.75 796.46,-510.75 799.54,-510.75 802.62,-513.83 802.62,-516.92 802.62,-516.92 802.62,-523.08 802.62,-523.08 802.62,-526.17 799.54,-529.25 796.46,-529.25"/>
<text text-anchor="start" x="732.38" y="-516.7" font-family="Helvetica,sans-Serif" font-size="9.00">ViewTextTest.js</text>
</a>
</g>
</g>
<!-- src/js/directable/dotmatrix/view/ViewManager.js&#45;&gt;src/js/directable/dotmatrix/view/ViewTextTest.js -->
<g id="edge38" class="edge">
<title>src/js/directable/dotmatrix/view/ViewManager.js&#45;&gt;src/js/directable/dotmatrix/view/ViewTextTest.js</title>
<path fill="none" stroke="#000000" stroke-width="2" stroke-opacity="0.200000" d="M678.67,-520C690.26,-520 703.03,-520 715.04,-520"/>
<polygon fill="#000000" fill-opacity="0.200000" stroke="#000000" stroke-width="2" stroke-opacity="0.200000" points="715.02,-522.1 721.02,-520 715.02,-517.9 715.02,-522.1"/>
</g>
<!-- src/js/directable/dotmatrix/dot/Dot.js -->
<g id="node11" class="node">
<title>src/js/directable/dotmatrix/dot/Dot.js</title>
<g id="a_node11"><a xlink:href="src/js/directable/dotmatrix/dot/Dot.js" xlink:title="Dot.js">
<path fill="#ffffcc" stroke="black" d="M908.33,-590.25C908.33,-590.25 866.67,-590.25 866.67,-590.25 863.58,-590.25 860.5,-587.17 860.5,-584.08 860.5,-584.08 860.5,-577.92 860.5,-577.92 860.5,-574.83 863.58,-571.75 866.67,-571.75 866.67,-571.75 908.33,-571.75 908.33,-571.75 911.42,-571.75 914.5,-574.83 914.5,-577.92 914.5,-577.92 914.5,-584.08 914.5,-584.08 914.5,-587.17 911.42,-590.25 908.33,-590.25"/>
<text text-anchor="start" x="875.88" y="-577.7" font-family="Helvetica,sans-Serif" font-size="9.00">Dot.js</text>
</a>
</g>
</g>
<!-- src/js/directable/dotmatrix/dot/Dot.js&#45;&gt;src/js/render/RenderSurface.js -->
<g id="edge8" class="edge">
<title>src/js/directable/dotmatrix/dot/Dot.js&#45;&gt;src/js/render/RenderSurface.js</title>
<path fill="none" stroke="#000000" stroke-width="2" stroke-opacity="0.200000" d="M890.71,-590.6C905.21,-653.4 986.53,-1005.76 1005.96,-1089.94"/>
<polygon fill="#000000" fill-opacity="0.200000" stroke="#000000" stroke-width="2" stroke-opacity="0.200000" points="1003.89,-1090.32 1007.28,-1095.69 1007.98,-1089.37 1003.89,-1090.32"/>
</g>
<!-- src/js/directable/dotmatrix/dot/Dot.js&#45;&gt;src/js/directable/dotmatrix/grid/GridData.js -->
<g id="edge9" class="edge">
<title>src/js/directable/dotmatrix/dot/Dot.js&#45;&gt;src/js/directable/dotmatrix/grid/GridData.js</title>
<path fill="none" stroke="#000000" stroke-width="2" stroke-opacity="0.200000" d="M914.89,-574.27C931.34,-570.08 952.8,-564.61 971.19,-559.92"/>
<polygon fill="#000000" fill-opacity="0.200000" stroke="#000000" stroke-width="2" stroke-opacity="0.200000" points="971.7,-561.96 977,-558.44 970.66,-557.89 971.7,-561.96"/>
</g>
<!-- src/js/directable/dotmatrix/dot/DotManager.js&#45;&gt;src/js/directable/dotmatrix/dot/Dot.js -->
<g id="edge11" class="edge">
<title>src/js/directable/dotmatrix/dot/DotManager.js&#45;&gt;src/js/directable/dotmatrix/dot/Dot.js</title>
<path fill="none" stroke="#000000" stroke-width="2" stroke-opacity="0.200000" d="M801.44,-581C817.26,-581 835.67,-581 851.3,-581"/>
<polygon fill="#000000" fill-opacity="0.200000" stroke="#000000" stroke-width="2" stroke-opacity="0.200000" points="851.12,-583.1 857.12,-581 851.12,-578.9 851.12,-583.1"/>
</g>
<!-- src/js/directable/dotmatrix/dot/DotManager.js&#45;&gt;src/js/directable/dotmatrix/grid/GridData.js -->
<g id="edge10" class="edge">
<title>src/js/directable/dotmatrix/dot/DotManager.js&#45;&gt;src/js/directable/dotmatrix/grid/GridData.js</title>
<path fill="none" stroke="#000000" stroke-width="2" stroke-opacity="0.200000" d="M798.62,-571.32C806.72,-569.3 815.37,-567.37 823.5,-566 874.11,-557.46 933.26,-553.36 971.18,-551.48"/>
<polygon fill="#000000" fill-opacity="0.200000" stroke="#000000" stroke-width="2" stroke-opacity="0.200000" points="970.96,-553.6 976.85,-551.22 970.76,-549.4 970.96,-553.6"/>
</g>
<!-- src/js/directable/dotmatrix/shape/Shape.js -->
<g id="node14" class="node">
<title>src/js/directable/dotmatrix/shape/Shape.js</title>
<g id="a_node14"><a xlink:href="src/js/directable/dotmatrix/shape/Shape.js" xlink:title="Shape.js">
<path fill="#ffffcc" stroke="black" d="M1031.96,-381.25C1031.96,-381.25 990.29,-381.25 990.29,-381.25 987.21,-381.25 984.12,-378.17 984.12,-375.08 984.12,-375.08 984.12,-368.92 984.12,-368.92 984.12,-365.83 987.21,-362.75 990.29,-362.75 990.29,-362.75 1031.96,-362.75 1031.96,-362.75 1035.04,-362.75 1038.12,-365.83 1038.12,-368.92 1038.12,-368.92 1038.12,-375.08 1038.12,-375.08 1038.12,-378.17 1035.04,-381.25 1031.96,-381.25"/>
<text text-anchor="start" x="993.12" y="-368.7" font-family="Helvetica,sans-Serif" font-size="9.00">Shape.js</text>
</a>
</g>
</g>
<!-- src/js/directable/dotmatrix/shape/fill/FillStrategyType.js -->
<g id="node16" class="node">
<title>src/js/directable/dotmatrix/shape/fill/FillStrategyType.js</title>
<g id="a_node16"><a xlink:href="src/js/directable/dotmatrix/shape/fill/FillStrategyType.js" xlink:title="FillStrategyType.js">
<path fill="#ffffcc" stroke="black" d="M1155.58,-297.25C1155.58,-297.25 1076.92,-297.25 1076.92,-297.25 1073.83,-297.25 1070.75,-294.17 1070.75,-291.08 1070.75,-291.08 1070.75,-284.92 1070.75,-284.92 1070.75,-281.83 1073.83,-278.75 1076.92,-278.75 1076.92,-278.75 1155.58,-278.75 1155.58,-278.75 1158.67,-278.75 1161.75,-281.83 1161.75,-284.92 1161.75,-284.92 1161.75,-291.08 1161.75,-291.08 1161.75,-294.17 1158.67,-297.25 1155.58,-297.25"/>
<text text-anchor="start" x="1078.75" y="-284.7" font-family="Helvetica,sans-Serif" font-size="9.00">FillStrategyType.js</text>
</a>
</g>
</g>
<!-- src/js/directable/dotmatrix/shape/ShapeManager.js&#45;&gt;src/js/directable/dotmatrix/shape/fill/FillStrategyType.js -->
<g id="edge12" class="edge">
<title>src/js/directable/dotmatrix/shape/ShapeManager.js&#45;&gt;src/js/directable/dotmatrix/shape/fill/FillStrategyType.js</title>
<path fill="none" stroke="#000000" stroke-width="2" stroke-opacity="0.200000" d="M807.9,-424.96C888.52,-419.11 1054.03,-406.07 1062.75,-397 1077.13,-382.05 1058.1,-320.44 1070.75,-304 1070.87,-303.85 1070.99,-303.69 1071.11,-303.54"/>
<polygon fill="#000000" fill-opacity="0.200000" stroke="#000000" stroke-width="2" stroke-opacity="0.200000" points="1072.29,-305.31 1075.3,-299.71 1069.46,-302.21 1072.29,-305.31"/>
</g>
<!-- src/js/directable/dotmatrix/shape/fill/FillType.js -->
<g id="node17" class="node">
<title>src/js/directable/dotmatrix/shape/fill/FillType.js</title>
<g id="a_node17"><a xlink:href="src/js/directable/dotmatrix/shape/fill/FillType.js" xlink:title="FillType.js">
<path fill="#ffffcc" stroke="black" d="M1138.71,-328.25C1138.71,-328.25 1093.79,-328.25 1093.79,-328.25 1090.71,-328.25 1087.62,-325.17 1087.62,-322.08 1087.62,-322.08 1087.62,-315.92 1087.62,-315.92 1087.62,-312.83 1090.71,-309.75 1093.79,-309.75 1093.79,-309.75 1138.71,-309.75 1138.71,-309.75 1141.79,-309.75 1144.88,-312.83 1144.88,-315.92 1144.88,-315.92 1144.88,-322.08 1144.88,-322.08 1144.88,-325.17 1141.79,-328.25 1138.71,-328.25"/>
<text text-anchor="start" x="1095.62" y="-315.7" font-family="Helvetica,sans-Serif" font-size="9.00">FillType.js</text>
</a>
</g>
</g>
<!-- src/js/directable/dotmatrix/shape/ShapeManager.js&#45;&gt;src/js/directable/dotmatrix/shape/fill/FillType.js -->
<g id="edge13" class="edge">
<title>src/js/directable/dotmatrix/shape/ShapeManager.js&#45;&gt;src/js/directable/dotmatrix/shape/fill/FillType.js</title>
<path fill="none" stroke="#000000" stroke-width="2" stroke-opacity="0.200000" d="M807.78,-437.71C869.68,-449.05 984.62,-460.41 1062.75,-410 1088.92,-393.12 1103.53,-358.28 1110.37,-336.94"/>
<polygon fill="#000000" fill-opacity="0.200000" stroke="#000000" stroke-width="2" stroke-opacity="0.200000" points="1112.33,-337.71 1112.03,-331.36 1108.3,-336.51 1112.33,-337.71"/>
</g>
<!-- src/js/directable/dotmatrix/shape/line/ShapeLineHorizontal.js -->
<g id="node18" class="node">
<title>src/js/directable/dotmatrix/shape/line/ShapeLineHorizontal.js</title>
<g id="a_node18"><a xlink:href="src/js/directable/dotmatrix/shape/line/ShapeLineHorizontal.js" xlink:title="ShapeLineHorizontal.js">
<path fill="#ffffcc" stroke="black" d="M937.33,-289.25C937.33,-289.25 837.67,-289.25 837.67,-289.25 834.58,-289.25 831.5,-286.17 831.5,-283.08 831.5,-283.08 831.5,-276.92 831.5,-276.92 831.5,-273.83 834.58,-270.75 837.67,-270.75 837.67,-270.75 937.33,-270.75 937.33,-270.75 940.42,-270.75 943.5,-273.83 943.5,-276.92 943.5,-276.92 943.5,-283.08 943.5,-283.08 943.5,-286.17 940.42,-289.25 937.33,-289.25"/>
<text text-anchor="start" x="839.5" y="-276.7" font-family="Helvetica,sans-Serif" font-size="9.00">ShapeLineHorizontal.js</text>
</a>
</g>
</g>
<!-- src/js/directable/dotmatrix/shape/ShapeManager.js&#45;&gt;src/js/directable/dotmatrix/shape/line/ShapeLineHorizontal.js -->
<g id="edge14" class="edge">
<title>src/js/directable/dotmatrix/shape/ShapeManager.js&#45;&gt;src/js/directable/dotmatrix/shape/line/ShapeLineHorizontal.js</title>
<path fill="none" stroke="#000000" stroke-width="2" stroke-opacity="0.200000" d="M807.66,-420.71C810.62,-418.91 813.29,-416.7 815.5,-414 832.13,-393.65 806.67,-316.19 823.5,-296 823.92,-295.5 824.35,-295.01 824.8,-294.53"/>
<polygon fill="#000000" fill-opacity="0.200000" stroke="#000000" stroke-width="2" stroke-opacity="0.200000" points="825.68,-296.54 828.92,-291.07 822.97,-293.32 825.68,-296.54"/>
</g>
<!-- src/js/directable/dotmatrix/shape/line/ShapeLineVertical.js -->
<g id="node19" class="node">
<title>src/js/directable/dotmatrix/shape/line/ShapeLineVertical.js</title>
<g id="a_node19"><a xlink:href="src/js/directable/dotmatrix/shape/line/ShapeLineVertical.js" xlink:title="ShapeLineVertical.js">
<path fill="#ffffcc" stroke="black" d="M931.33,-320.25C931.33,-320.25 843.67,-320.25 843.67,-320.25 840.58,-320.25 837.5,-317.17 837.5,-314.08 837.5,-314.08 837.5,-307.92 837.5,-307.92 837.5,-304.83 840.58,-301.75 843.67,-301.75 843.67,-301.75 931.33,-301.75 931.33,-301.75 934.42,-301.75 937.5,-304.83 937.5,-307.92 937.5,-307.92 937.5,-314.08 937.5,-314.08 937.5,-317.17 934.42,-320.25 931.33,-320.25"/>
<text text-anchor="start" x="845.5" y="-307.7" font-family="Helvetica,sans-Serif" font-size="9.00">ShapeLineVertical.js</text>
</a>
</g>
</g>
<!-- src/js/directable/dotmatrix/shape/ShapeManager.js&#45;&gt;src/js/directable/dotmatrix/shape/line/ShapeLineVertical.js -->
<g id="edge15" class="edge">
<title>src/js/directable/dotmatrix/shape/ShapeManager.js&#45;&gt;src/js/directable/dotmatrix/shape/line/ShapeLineVertical.js</title>
<path fill="none" stroke="#000000" stroke-width="2" stroke-opacity="0.200000" d="M807.95,-420.28C810.76,-418.56 813.33,-416.49 815.5,-414 833.73,-393.03 808.72,-375.52 823.5,-352 830.78,-340.42 842.66,-331.45 854.15,-324.89"/>
<polygon fill="#000000" fill-opacity="0.200000" stroke="#000000" stroke-width="2" stroke-opacity="0.200000" points="854.99,-326.82 859.31,-322.16 853.02,-323.11 854.99,-326.82"/>
</g>
<!-- src/js/directable/dotmatrix/shape/primative/ShapeRectangle.js -->
<g id="node20" class="node">
<title>src/js/directable/dotmatrix/shape/primative/ShapeRectangle.js</title>
<g id="a_node20"><a xlink:href="src/js/directable/dotmatrix/shape/primative/ShapeRectangle.js" xlink:title="ShapeRectangle.js">
<path fill="#ffffcc" stroke="black" d="M928.33,-381.25C928.33,-381.25 846.67,-381.25 846.67,-381.25 843.58,-381.25 840.5,-378.17 840.5,-375.08 840.5,-375.08 840.5,-368.92 840.5,-368.92 840.5,-365.83 843.58,-362.75 846.67,-362.75 846.67,-362.75 928.33,-362.75 928.33,-362.75 931.42,-362.75 934.5,-365.83 934.5,-368.92 934.5,-368.92 934.5,-375.08 934.5,-375.08 934.5,-378.17 931.42,-381.25 928.33,-381.25"/>
<text text-anchor="start" x="848.5" y="-368.7" font-family="Helvetica,sans-Serif" font-size="9.00">ShapeRectangle.js</text>
</a>
</g>
</g>
<!-- src/js/directable/dotmatrix/shape/ShapeManager.js&#45;&gt;src/js/directable/dotmatrix/shape/primative/ShapeRectangle.js -->
<g id="edge16" class="edge">
<title>src/js/directable/dotmatrix/shape/ShapeManager.js&#45;&gt;src/js/directable/dotmatrix/shape/primative/ShapeRectangle.js</title>
<path fill="none" stroke="#000000" stroke-width="2" stroke-opacity="0.200000" d="M807.58,-419.93C810.47,-418.29 813.16,-416.34 815.5,-414 824.96,-404.55 813.74,-394.14 823.5,-385 826.09,-382.58 829,-380.56 832.12,-378.88"/>
<polygon fill="#000000" fill-opacity="0.200000" stroke="#000000" stroke-width="2" stroke-opacity="0.200000" points="832.78,-380.88 837.44,-376.56 831.1,-377.03 832.78,-380.88"/>
</g>
<!-- src/js/directable/dotmatrix/shape/line/ShapeLineHorizontal.js&#45;&gt;src/js/directable/dotmatrix/shape/Shape.js -->
<g id="edge23" class="edge">
<title>src/js/directable/dotmatrix/shape/line/ShapeLineHorizontal.js&#45;&gt;src/js/directable/dotmatrix/shape/Shape.js</title>
<path fill="none" stroke="#000000" stroke-width="2" stroke-opacity="0.200000" d="M943.86,-289.47C946.67,-291.31 949.25,-293.47 951.5,-296 969.93,-316.79 941.29,-337.01 959.5,-358 963.69,-362.83 969.38,-366.06 975.44,-368.21"/>
<polygon fill="#000000" fill-opacity="0.200000" stroke="#000000" stroke-width="2" stroke-opacity="0.200000" points="974.56,-370.15 980.91,-369.72 975.68,-366.1 974.56,-370.15"/>
</g>
<!-- src/js/directable/dotmatrix/shape/line/ShapeLineHorizontal.js&#45;&gt;src/js/directable/dotmatrix/shape/fill/FillStrategyType.js -->
<g id="edge21" class="edge">
<title>src/js/directable/dotmatrix/shape/line/ShapeLineHorizontal.js&#45;&gt;src/js/directable/dotmatrix/shape/fill/FillStrategyType.js</title>
<path fill="none" stroke="#000000" stroke-width="2" stroke-opacity="0.200000" d="M899.05,-270.31C912.1,-259.04 935.56,-241.08 959.5,-234 1003.51,-220.99 1020.48,-216.14 1062.75,-234 1080.5,-241.5 1095.22,-258.27 1104.51,-271.14"/>
<polygon fill="#000000" fill-opacity="0.200000" stroke="#000000" stroke-width="2" stroke-opacity="0.200000" points="1102.74,-272.27 1107.86,-276.04 1106.2,-269.9 1102.74,-272.27"/>
</g>
<!-- src/js/directable/dotmatrix/shape/line/ShapeLineHorizontal.js&#45;&gt;src/js/directable/dotmatrix/shape/fill/FillType.js -->
<g id="edge22" class="edge">
<title>src/js/directable/dotmatrix/shape/line/ShapeLineHorizontal.js&#45;&gt;src/js/directable/dotmatrix/shape/fill/FillType.js</title>
<path fill="none" stroke="#000000" stroke-width="2" stroke-opacity="0.200000" d="M906.48,-270.27C941.07,-253.04 1017.44,-222.34 1062.75,-260 1077.7,-272.42 1058.16,-288.19 1070.75,-303 1073.2,-305.88 1076.22,-308.25 1079.51,-310.19"/>
<polygon fill="#000000" fill-opacity="0.200000" stroke="#000000" stroke-width="2" stroke-opacity="0.200000" points="1078.51,-312.04 1084.83,-312.69 1080.29,-308.24 1078.51,-312.04"/>
</g>
<!-- src/js/directable/dotmatrix/shape/fill/Fill.js -->
<g id="node21" class="node">
<title>src/js/directable/dotmatrix/shape/fill/Fill.js</title>
<g id="a_node21"><a xlink:href="src/js/directable/dotmatrix/shape/fill/Fill.js" xlink:title="Fill.js">
<path fill="#ffffcc" stroke="black" d="M1031.96,-328.25C1031.96,-328.25 990.29,-328.25 990.29,-328.25 987.21,-328.25 984.12,-325.17 984.12,-322.08 984.12,-322.08 984.12,-315.92 984.12,-315.92 984.12,-312.83 987.21,-309.75 990.29,-309.75 990.29,-309.75 1031.96,-309.75 1031.96,-309.75 1035.04,-309.75 1038.12,-312.83 1038.12,-315.92 1038.12,-315.92 1038.12,-322.08 1038.12,-322.08 1038.12,-325.17 1035.04,-328.25 1031.96,-328.25"/>
<text text-anchor="start" x="1000.62" y="-315.7" font-family="Helvetica,sans-Serif" font-size="9.00">Fill.js</text>
</a>
</g>
</g>
<!-- src/js/directable/dotmatrix/shape/line/ShapeLineHorizontal.js&#45;&gt;src/js/directable/dotmatrix/shape/fill/Fill.js -->
<g id="edge19" class="edge">
<title>src/js/directable/dotmatrix/shape/line/ShapeLineHorizontal.js&#45;&gt;src/js/directable/dotmatrix/shape/fill/Fill.js</title>
<path fill="none" stroke="#000000" stroke-width="2" stroke-opacity="0.200000" d="M936.52,-289.65C941.71,-291.43 946.8,-293.53 951.5,-296 955.68,-298.2 955.38,-300.68 959.5,-303 964.4,-305.76 969.85,-308.11 975.29,-310.09"/>
<polygon fill="#000000" fill-opacity="0.200000" stroke="#000000" stroke-width="2" stroke-opacity="0.200000" points="974.55,-312.06 980.9,-311.96 975.87,-308.07 974.55,-312.06"/>
</g>
<!-- src/js/directable/dotmatrix/shape/fill/FillStrategy.js -->
<g id="node22" class="node">
<title>src/js/directable/dotmatrix/shape/fill/FillStrategy.js</title>
<g id="a_node22"><a xlink:href="src/js/directable/dotmatrix/shape/fill/FillStrategy.js" xlink:title="FillStrategy.js">
<path fill="#ffffcc" stroke="black" d="M1039.96,-297.25C1039.96,-297.25 982.29,-297.25 982.29,-297.25 979.21,-297.25 976.12,-294.17 976.12,-291.08 976.12,-291.08 976.12,-284.92 976.12,-284.92 976.12,-281.83 979.21,-278.75 982.29,-278.75 982.29,-278.75 1039.96,-278.75 1039.96,-278.75 1043.04,-278.75 1046.12,-281.83 1046.12,-284.92 1046.12,-284.92 1046.12,-291.08 1046.12,-291.08 1046.12,-294.17 1043.04,-297.25 1039.96,-297.25"/>
<text text-anchor="start" x="984.12" y="-284.7" font-family="Helvetica,sans-Serif" font-size="9.00">FillStrategy.js</text>
</a>
</g>
</g>
<!-- src/js/directable/dotmatrix/shape/line/ShapeLineHorizontal.js&#45;&gt;src/js/directable/dotmatrix/shape/fill/FillStrategy.js -->
<g id="edge20" class="edge">
<title>src/js/directable/dotmatrix/shape/line/ShapeLineHorizontal.js&#45;&gt;src/js/directable/dotmatrix/shape/fill/FillStrategy.js</title>
<path fill="none" stroke="#000000" stroke-width="2" stroke-opacity="0.200000" d="M943.97,-283.65C951.81,-284.16 959.76,-284.69 967.31,-285.18"/>
<polygon fill="#000000" fill-opacity="0.200000" stroke="#000000" stroke-width="2" stroke-opacity="0.200000" points="966.81,-287.26 972.93,-285.55 967.08,-283.06 966.81,-287.26"/>
</g>
<!-- src/js/directable/dotmatrix/shape/line/ShapeLineVertical.js&#45;&gt;src/js/directable/dotmatrix/shape/Shape.js -->
<g id="edge28" class="edge">
<title>src/js/directable/dotmatrix/shape/line/ShapeLineVertical.js&#45;&gt;src/js/directable/dotmatrix/shape/Shape.js</title>
<path fill="none" stroke="#000000" stroke-width="2" stroke-opacity="0.200000" d="M903.97,-320.66C916.84,-328.8 935.57,-340.86 951.5,-352 955.14,-354.55 955.51,-356.04 959.5,-358 964.44,-360.43 969.87,-362.49 975.28,-364.22"/>
<polygon fill="#000000" fill-opacity="0.200000" stroke="#000000" stroke-width="2" stroke-opacity="0.200000" points="974.43,-366.16 980.78,-365.83 975.61,-362.13 974.43,-366.16"/>
</g>
<!-- src/js/directable/dotmatrix/shape/line/ShapeLineVertical.js&#45;&gt;src/js/directable/dotmatrix/shape/fill/FillStrategyType.js -->
<g id="edge26" class="edge">
<title>src/js/directable/dotmatrix/shape/line/ShapeLineVertical.js&#45;&gt;src/js/directable/dotmatrix/shape/fill/FillStrategyType.js</title>
<path fill="none" stroke="#000000" stroke-width="2" stroke-opacity="0.200000" d="M937.88,-304.29C942.95,-301.98 947.64,-298.96 951.5,-295 962.65,-283.58 947.02,-269.95 959.5,-260 998.12,-229.21 1059.3,-255.47 1092.31,-273.84"/>
<polygon fill="#000000" fill-opacity="0.200000" stroke="#000000" stroke-width="2" stroke-opacity="0.200000" points="1091.2,-275.62 1097.45,-276.79 1093.29,-271.98 1091.2,-275.62"/>
</g>
<!-- src/js/directable/dotmatrix/shape/line/ShapeLineVertical.js&#45;&gt;src/js/directable/dotmatrix/shape/fill/FillType.js -->
<g id="edge27" class="edge">
<title>src/js/directable/dotmatrix/shape/line/ShapeLineVertical.js&#45;&gt;src/js/directable/dotmatrix/shape/fill/FillType.js</title>
<path fill="none" stroke="#000000" stroke-width="2" stroke-opacity="0.200000" d="M937.73,-303.67C942.76,-301.47 947.48,-298.63 951.5,-295 959.22,-288.02 950.98,-278.97 959.5,-273 978.29,-259.84 1044.56,-259.02 1062.75,-273 1073.69,-281.41 1061.41,-292.84 1070.75,-303 1073.25,-305.72 1076.25,-307.98 1079.49,-309.85"/>
<polygon fill="#000000" fill-opacity="0.200000" stroke="#000000" stroke-width="2" stroke-opacity="0.200000" points="1078.31,-311.62 1084.63,-312.28 1080.1,-307.82 1078.31,-311.62"/>
</g>
<!-- src/js/directable/dotmatrix/shape/line/ShapeLineVertical.js&#45;&gt;src/js/directable/dotmatrix/shape/fill/Fill.js -->
<g id="edge24" class="edge">
<title>src/js/directable/dotmatrix/shape/line/ShapeLineVertical.js&#45;&gt;src/js/directable/dotmatrix/shape/fill/Fill.js</title>
<path fill="none" stroke="#000000" stroke-width="2" stroke-opacity="0.200000" d="M937.97,-314.25C950.32,-315.07 963.32,-315.92 974.83,-316.68"/>
<polygon fill="#000000" fill-opacity="0.200000" stroke="#000000" stroke-width="2" stroke-opacity="0.200000" points="974.55,-318.76 980.68,-317.06 974.83,-314.57 974.55,-318.76"/>
</g>
<!-- src/js/directable/dotmatrix/shape/line/ShapeLineVertical.js&#45;&gt;src/js/directable/dotmatrix/shape/fill/FillStrategy.js -->
<g id="edge25" class="edge">
<title>src/js/directable/dotmatrix/shape/line/ShapeLineVertical.js&#45;&gt;src/js/directable/dotmatrix/shape/fill/FillStrategy.js</title>
<path fill="none" stroke="#000000" stroke-width="2" stroke-opacity="0.200000" d="M937.97,-301.65C947.64,-299.82 957.7,-297.91 967.14,-296.13"/>
<polygon fill="#000000" fill-opacity="0.200000" stroke="#000000" stroke-width="2" stroke-opacity="0.200000" points="967.48,-298.2 972.99,-295.02 966.7,-294.07 967.48,-298.2"/>
</g>
<!-- src/js/directable/dotmatrix/shape/primative/ShapeRectangle.js&#45;&gt;src/js/directable/dotmatrix/shape/Shape.js -->
<g id="edge33" class="edge">
<title>src/js/directable/dotmatrix/shape/primative/ShapeRectangle.js&#45;&gt;src/js/directable/dotmatrix/shape/Shape.js</title>
<path fill="none" stroke="#000000" stroke-width="2" stroke-opacity="0.200000" d="M934.83,-372C948.12,-372 962.39,-372 974.89,-372"/>
<polygon fill="#000000" fill-opacity="0.200000" stroke="#000000" stroke-width="2" stroke-opacity="0.200000" points="974.62,-374.1 980.62,-372 974.62,-369.9 974.62,-374.1"/>
</g>
<!-- src/js/directable/dotmatrix/shape/primative/ShapeRectangle.js&#45;&gt;src/js/directable/dotmatrix/shape/fill/FillStrategyType.js -->
<g id="edge31" class="edge">
<title>src/js/directable/dotmatrix/shape/primative/ShapeRectangle.js&#45;&gt;src/js/directable/dotmatrix/shape/fill/FillStrategyType.js</title>
<path fill="none" stroke="#000000" stroke-width="2" stroke-opacity="0.200000" d="M934.98,-380.15C940.61,-381.56 946.22,-383.17 951.5,-385 955.26,-386.3 955.63,-388.09 959.5,-389 981.83,-394.27 1045.78,-404.45 1062.75,-389 1076.78,-376.23 1059.12,-318.99 1070.75,-304 1070.87,-303.85 1070.99,-303.69 1071.11,-303.54"/>
<polygon fill="#000000" fill-opacity="0.200000" stroke="#000000" stroke-width="2" stroke-opacity="0.200000" points="1072.29,-305.31 1075.32,-299.72 1069.47,-302.2 1072.29,-305.31"/>
</g>
<!-- src/js/directable/dotmatrix/shape/primative/ShapeRectangle.js&#45;&gt;src/js/directable/dotmatrix/shape/fill/FillType.js -->
<g id="edge32" class="edge">
<title>src/js/directable/dotmatrix/shape/primative/ShapeRectangle.js&#45;&gt;src/js/directable/dotmatrix/shape/fill/FillType.js</title>
<path fill="none" stroke="#000000" stroke-width="2" stroke-opacity="0.200000" d="M934.72,-376.94C940.69,-378.86 946.47,-381.47 951.5,-385 957.06,-388.89 953.58,-394.69 959.5,-398 999.56,-420.38 1022.31,-419.68 1062.75,-398 1086.7,-385.16 1101.58,-356.05 1109.14,-336.98"/>
<polygon fill="#000000" fill-opacity="0.200000" stroke="#000000" stroke-width="2" stroke-opacity="0.200000" points="1111.1,-337.74 1111.22,-331.38 1107.16,-336.28 1111.1,-337.74"/>
</g>
<!-- src/js/directable/dotmatrix/shape/primative/ShapeRectangle.js&#45;&gt;src/js/directable/dotmatrix/shape/fill/Fill.js -->
<g id="edge29" class="edge">
<title>src/js/directable/dotmatrix/shape/primative/ShapeRectangle.js&#45;&gt;src/js/directable/dotmatrix/shape/fill/Fill.js</title>
<path fill="none" stroke="#000000" stroke-width="2" stroke-opacity="0.200000" d="M931.48,-362.33C938.75,-359.27 945.79,-355.26 951.5,-350 957.94,-344.07 952.82,-337.65 959.5,-332 964.06,-328.14 969.63,-325.41 975.38,-323.48"/>
<polygon fill="#000000" fill-opacity="0.200000" stroke="#000000" stroke-width="2" stroke-opacity="0.200000" points="975.67,-325.57 980.91,-321.97 974.57,-321.52 975.67,-325.57"/>
</g>
<!-- src/js/directable/dotmatrix/shape/primative/ShapeRectangle.js&#45;&gt;src/js/directable/dotmatrix/shape/fill/FillStrategy.js -->
<g id="edge30" class="edge">
<title>src/js/directable/dotmatrix/shape/primative/ShapeRectangle.js&#45;&gt;src/js/directable/dotmatrix/shape/fill/FillStrategy.js</title>
<path fill="none" stroke="#000000" stroke-width="2" stroke-opacity="0.200000" d="M934.83,-362.38C941.15,-359.33 947,-355.3 951.5,-350 964.92,-334.18 945.84,-319.62 959.5,-304 961.86,-301.31 964.66,-299.06 967.73,-297.19"/>
<polygon fill="#000000" fill-opacity="0.200000" stroke="#000000" stroke-width="2" stroke-opacity="0.200000" points="968.58,-299.11 973.05,-294.6 966.74,-295.34 968.58,-299.11"/>
</g>
<!-- src/js/directable/dotmatrix/shape/fill/Fill.js&#45;&gt;src/js/directable/dotmatrix/shape/fill/FillType.js -->
<g id="edge17" class="edge">
<title>src/js/directable/dotmatrix/shape/fill/Fill.js&#45;&gt;src/js/directable/dotmatrix/shape/fill/FillType.js</title>
<path fill="none" stroke="#000000" stroke-width="2" stroke-opacity="0.200000" d="M1038.41,-319C1050.54,-319 1065.13,-319 1078.33,-319"/>
<polygon fill="#000000" fill-opacity="0.200000" stroke="#000000" stroke-width="2" stroke-opacity="0.200000" points="1078.17,-321.1 1084.17,-319 1078.17,-316.9 1078.17,-321.1"/>
</g>
<!-- src/js/directable/dotmatrix/shape/fill/FillStrategy.js&#45;&gt;src/js/directable/dotmatrix/shape/fill/FillStrategyType.js -->
<g id="edge18" class="edge">
<title>src/js/directable/dotmatrix/shape/fill/FillStrategy.js&#45;&gt;src/js/directable/dotmatrix/shape/fill/FillStrategyType.js</title>
<path fill="none" stroke="#000000" stroke-width="2" stroke-opacity="0.200000" d="M1046.46,-288C1051.42,-288 1056.61,-288 1061.83,-288"/>
<polygon fill="#000000" fill-opacity="0.200000" stroke="#000000" stroke-width="2" stroke-opacity="0.200000" points="1061.58,-290.1 1067.58,-288 1061.58,-285.9 1061.58,-290.1"/>
</g>
<!-- src/js/directable/dotmatrix/shape/glyph/ShapeGlyph_A.js -->
<g id="node23" class="node">
<title>src/js/directable/dotmatrix/shape/glyph/ShapeGlyph_A.js</title>
<g id="a_node23"><a xlink:href="src/js/directable/dotmatrix/shape/glyph/ShapeGlyph_A.js" xlink:title="ShapeGlyph_A.js">
<path fill="#ccffcc" stroke="black" d="M800.96,-74.25C800.96,-74.25 726.04,-74.25 726.04,-74.25 722.96,-74.25 719.88,-71.17 719.88,-68.08 719.88,-68.08 719.88,-61.92 719.88,-61.92 719.88,-58.83 722.96,-55.75 726.04,-55.75 726.04,-55.75 800.96,-55.75 800.96,-55.75 804.04,-55.75 807.12,-58.83 807.12,-61.92 807.12,-61.92 807.12,-68.08 807.12,-68.08 807.12,-71.17 804.04,-74.25 800.96,-74.25"/>
<text text-anchor="start" x="727.88" y="-61.7" font-family="Helvetica,sans-Serif" font-size="9.00">ShapeGlyph_A.js</text>
</a>
</g>
</g>
<!-- src/js/directable/dotmatrix/shape/glyph/ShapeGlyph_B.js -->
<g id="node24" class="node">
<title>src/js/directable/dotmatrix/shape/glyph/ShapeGlyph_B.js</title>
<g id="a_node24"><a xlink:href="src/js/directable/dotmatrix/shape/glyph/ShapeGlyph_B.js" xlink:title="ShapeGlyph_B.js">
<path fill="#ccffcc" stroke="black" d="M800.96,-105.25C800.96,-105.25 726.04,-105.25 726.04,-105.25 722.96,-105.25 719.88,-102.17 719.88,-99.08 719.88,-99.08 719.88,-92.92 719.88,-92.92 719.88,-89.83 722.96,-86.75 726.04,-86.75 726.04,-86.75 800.96,-86.75 800.96,-86.75 804.04,-86.75 807.12,-89.83 807.12,-92.92 807.12,-92.92 807.12,-99.08 807.12,-99.08 807.12,-102.17 804.04,-105.25 800.96,-105.25"/>
<text text-anchor="start" x="727.88" y="-92.7" font-family="Helvetica,sans-Serif" font-size="9.00">ShapeGlyph_B.js</text>
</a>
</g>
</g>
<!-- src/js/directable/dotmatrix/shape/glyph/ShapeGlyph_C.js -->
<g id="node25" class="node">
<title>src/js/directable/dotmatrix/shape/glyph/ShapeGlyph_C.js</title>
<g id="a_node25"><a xlink:href="src/js/directable/dotmatrix/shape/glyph/ShapeGlyph_C.js" xlink:title="ShapeGlyph_C.js">
<path fill="#ccffcc" stroke="black" d="M801.33,-136.25C801.33,-136.25 725.67,-136.25 725.67,-136.25 722.58,-136.25 719.5,-133.17 719.5,-130.08 719.5,-130.08 719.5,-123.92 719.5,-123.92 719.5,-120.83 722.58,-117.75 725.67,-117.75 725.67,-117.75 801.33,-117.75 801.33,-117.75 804.42,-117.75 807.5,-120.83 807.5,-123.92 807.5,-123.92 807.5,-130.08 807.5,-130.08 807.5,-133.17 804.42,-136.25 801.33,-136.25"/>
<text text-anchor="start" x="727.5" y="-123.7" font-family="Helvetica,sans-Serif" font-size="9.00">ShapeGlyph_C.js</text>
</a>
</g>
</g>
<!-- src/js/directable/dotmatrix/shape/glyph/ShapeGlyph_D.js -->
<g id="node26" class="node">
<title>src/js/directable/dotmatrix/shape/glyph/ShapeGlyph_D.js</title>
<g id="a_node26"><a xlink:href="src/js/directable/dotmatrix/shape/glyph/ShapeGlyph_D.js" xlink:title="ShapeGlyph_D.js">
<path fill="#ccffcc" stroke="black" d="M801.33,-167.25C801.33,-167.25 725.67,-167.25 725.67,-167.25 722.58,-167.25 719.5,-164.17 719.5,-161.08 719.5,-161.08 719.5,-154.92 719.5,-154.92 719.5,-151.83 722.58,-148.75 725.67,-148.75 725.67,-148.75 801.33,-148.75 801.33,-148.75 804.42,-148.75 807.5,-151.83 807.5,-154.92 807.5,-154.92 807.5,-161.08 807.5,-161.08 807.5,-164.17 804.42,-167.25 801.33,-167.25"/>
<text text-anchor="start" x="727.5" y="-154.7" font-family="Helvetica,sans-Serif" font-size="9.00">ShapeGlyph_D.js</text>
</a>
</g>
</g>
<!-- src/js/directable/dotmatrix/shape/glyph/ShapeGlyph_E.js -->
<g id="node27" class="node">
<title>src/js/directable/dotmatrix/shape/glyph/ShapeGlyph_E.js</title>
<g id="a_node27"><a xlink:href="src/js/directable/dotmatrix/shape/glyph/ShapeGlyph_E.js" xlink:title="ShapeGlyph_E.js">
<path fill="#ccffcc" stroke="black" d="M800.96,-198.25C800.96,-198.25 726.04,-198.25 726.04,-198.25 722.96,-198.25 719.88,-195.17 719.88,-192.08 719.88,-192.08 719.88,-185.92 719.88,-185.92 719.88,-182.83 722.96,-179.75 726.04,-179.75 726.04,-179.75 800.96,-179.75 800.96,-179.75 804.04,-179.75 807.12,-182.83 807.12,-185.92 807.12,-185.92 807.12,-192.08 807.12,-192.08 807.12,-195.17 804.04,-198.25 800.96,-198.25"/>
<text text-anchor="start" x="727.88" y="-185.7" font-family="Helvetica,sans-Serif" font-size="9.00">ShapeGlyph_E.js</text>
</a>
</g>
</g>
<!-- src/js/directable/dotmatrix/shape/glyph/ShapeGlyph_F.js -->
<g id="node28" class="node">
<title>src/js/directable/dotmatrix/shape/glyph/ShapeGlyph_F.js</title>
<g id="a_node28"><a xlink:href="src/js/directable/dotmatrix/shape/glyph/ShapeGlyph_F.js" xlink:title="ShapeGlyph_F.js">
<path fill="#ccffcc" stroke="black" d="M800.21,-229.25C800.21,-229.25 726.79,-229.25 726.79,-229.25 723.71,-229.25 720.62,-226.17 720.62,-223.08 720.62,-223.08 720.62,-216.92 720.62,-216.92 720.62,-213.83 723.71,-210.75 726.79,-210.75 726.79,-210.75 800.21,-210.75 800.21,-210.75 803.29,-210.75 806.38,-213.83 806.38,-216.92 806.38,-216.92 806.38,-223.08 806.38,-223.08 806.38,-226.17 803.29,-229.25 800.21,-229.25"/>
<text text-anchor="start" x="728.62" y="-216.7" font-family="Helvetica,sans-Serif" font-size="9.00">ShapeGlyph_F.js</text>
</a>
</g>
</g>
<!-- src/js/directable/dotmatrix/shape/glyph/ShapeGlyph_G.js -->
<g id="node29" class="node">
<title>src/js/directable/dotmatrix/shape/glyph/ShapeGlyph_G.js</title>
<g id="a_node29"><a xlink:href="src/js/directable/dotmatrix/shape/glyph/ShapeGlyph_G.js" xlink:title="ShapeGlyph_G.js">
<path fill="#ccffcc" stroke="black" d="M801.33,-260.25C801.33,-260.25 725.67,-260.25 725.67,-260.25 722.58,-260.25 719.5,-257.17 719.5,-254.08 719.5,-254.08 719.5,-247.92 719.5,-247.92 719.5,-244.83 722.58,-241.75 725.67,-241.75 725.67,-241.75 801.33,-241.75 801.33,-241.75 804.42,-241.75 807.5,-244.83 807.5,-247.92 807.5,-247.92 807.5,-254.08 807.5,-254.08 807.5,-257.17 804.42,-260.25 801.33,-260.25"/>
<text text-anchor="start" x="727.5" y="-247.7" font-family="Helvetica,sans-Serif" font-size="9.00">ShapeGlyph_G.js</text>
</a>
</g>
</g>
<!-- src/js/directable/dotmatrix/shape/glyph/ShapeGlyph_H.js -->
<g id="node30" class="node">
<title>src/js/directable/dotmatrix/shape/glyph/ShapeGlyph_H.js</title>
<g id="a_node30"><a xlink:href="src/js/directable/dotmatrix/shape/glyph/ShapeGlyph_H.js" xlink:title="ShapeGlyph_H.js">
<path fill="#ccffcc" stroke="black" d="M801.33,-291.25C801.33,-291.25 725.67,-291.25 725.67,-291.25 722.58,-291.25 719.5,-288.17 719.5,-285.08 719.5,-285.08 719.5,-278.92 719.5,-278.92 719.5,-275.83 722.58,-272.75 725.67,-272.75 725.67,-272.75 801.33,-272.75 801.33,-272.75 804.42,-272.75 807.5,-275.83 807.5,-278.92 807.5,-278.92 807.5,-285.08 807.5,-285.08 807.5,-288.17 804.42,-291.25 801.33,-291.25"/>
<text text-anchor="start" x="727.5" y="-278.7" font-family="Helvetica,sans-Serif" font-size="9.00">ShapeGlyph_H.js</text>
</a>
</g>
</g>
<!-- src/js/directable/dotmatrix/shape/glyph/ShapeGlyph_I.js -->
<g id="node31" class="node">
<title>src/js/directable/dotmatrix/shape/glyph/ShapeGlyph_I.js</title>
<g id="a_node31"><a xlink:href="src/js/directable/dotmatrix/shape/glyph/ShapeGlyph_I.js" xlink:title="ShapeGlyph_I.js">
<path fill="#ccffcc" stroke="black" d="M799.08,-322.25C799.08,-322.25 727.92,-322.25 727.92,-322.25 724.83,-322.25 721.75,-319.17 721.75,-316.08 721.75,-316.08 721.75,-309.92 721.75,-309.92 721.75,-306.83 724.83,-303.75 727.92,-303.75 727.92,-303.75 799.08,-303.75 799.08,-303.75 802.17,-303.75 805.25,-306.83 805.25,-309.92 805.25,-309.92 805.25,-316.08 805.25,-316.08 805.25,-319.17 802.17,-322.25 799.08,-322.25"/>
<text text-anchor="start" x="729.75" y="-309.7" font-family="Helvetica,sans-Serif" font-size="9.00">ShapeGlyph_I.js</text>
</a>
</g>
</g>
<!-- src/js/directable/dotmatrix/shape/glyph/ShapeGlyph_J.js -->
<g id="node32" class="node">
<title>src/js/directable/dotmatrix/shape/glyph/ShapeGlyph_J.js</title>
<g id="a_node32"><a xlink:href="src/js/directable/dotmatrix/shape/glyph/ShapeGlyph_J.js" xlink:title="ShapeGlyph_J.js">
<path fill="#ccffcc" stroke="black" d="M800.21,-353.25C800.21,-353.25 726.79,-353.25 726.79,-353.25 723.71,-353.25 720.62,-350.17 720.62,-347.08 720.62,-347.08 720.62,-340.92 720.62,-340.92 720.62,-337.83 723.71,-334.75 726.79,-334.75 726.79,-334.75 800.21,-334.75 800.21,-334.75 803.29,-334.75 806.38,-337.83 806.38,-340.92 806.38,-340.92 806.38,-347.08 806.38,-347.08 806.38,-350.17 803.29,-353.25 800.21,-353.25"/>
<text text-anchor="start" x="728.62" y="-340.7" font-family="Helvetica,sans-Serif" font-size="9.00">ShapeGlyph_J.js</text>
</a>
</g>
</g>
<!-- src/js/directable/dotmatrix/shape/glyph/ShapeGlyph_K.js -->
<g id="node33" class="node">
<title>src/js/directable/dotmatrix/shape/glyph/ShapeGlyph_K.js</title>
<g id="a_node33"><a xlink:href="src/js/directable/dotmatrix/shape/glyph/ShapeGlyph_K.js" xlink:title="ShapeGlyph_K.js">
<path fill="#ccffcc" stroke="black" d="M800.96,-384.25C800.96,-384.25 726.04,-384.25 726.04,-384.25 722.96,-384.25 719.88,-381.17 719.88,-378.08 719.88,-378.08 719.88,-371.92 719.88,-371.92 719.88,-368.83 722.96,-365.75 726.04,-365.75 726.04,-365.75 800.96,-365.75 800.96,-365.75 804.04,-365.75 807.12,-368.83 807.12,-371.92 807.12,-371.92 807.12,-378.08 807.12,-378.08 807.12,-381.17 804.04,-384.25 800.96,-384.25"/>
<text text-anchor="start" x="727.88" y="-371.7" font-family="Helvetica,sans-Serif" font-size="9.00">ShapeGlyph_K.js</text>
</a>
</g>
</g>
<!-- src/js/directable/dotmatrix/view/ViewTest.js&#45;&gt;src/js/directable/dotmatrix/grid/GridData.js -->
<g id="edge39" class="edge">
<title>src/js/directable/dotmatrix/view/ViewTest.js&#45;&gt;src/js/directable/dotmatrix/grid/GridData.js</title>
<path fill="none" stroke="#000000" stroke-width="2" stroke-opacity="0.200000" d="M794.62,-496.48C839,-507.5 921.99,-528.11 971.02,-540.29"/>
<polygon fill="#000000" fill-opacity="0.200000" stroke="#000000" stroke-width="2" stroke-opacity="0.200000" points="970.49,-542.32 976.82,-541.73 971.51,-538.25 970.49,-542.32"/>
</g>
<!-- src/js/directable/dotmatrix/view/ViewTest.js&#45;&gt;src/js/directable/dotmatrix/shape/fill/FillStrategyType.js -->
<g id="edge40" class="edge">
<title>src/js/directable/dotmatrix/view/ViewTest.js&#45;&gt;src/js/directable/dotmatrix/shape/fill/FillStrategyType.js</title>
<path fill="none" stroke="#000000" stroke-width="2" stroke-opacity="0.200000" d="M794.83,-484C833.13,-477.8 901.07,-467.17 959.5,-460 970.94,-458.6 1054.77,-458.32 1062.75,-450 1074,-438.27 1061.05,-317.03 1070.75,-304 1070.87,-303.84 1070.98,-303.69 1071.1,-303.54"/>
<polygon fill="#000000" fill-opacity="0.200000" stroke="#000000" stroke-width="2" stroke-opacity="0.200000" points="1072.29,-305.3 1075.24,-299.67 1069.42,-302.23 1072.29,-305.3"/>
</g>
<!-- src/js/directable/dotmatrix/view/ViewTest.js&#45;&gt;src/js/directable/dotmatrix/shape/fill/FillType.js -->
<g id="edge41" class="edge">
<title>src/js/directable/dotmatrix/view/ViewTest.js&#45;&gt;src/js/directable/dotmatrix/shape/fill/FillType.js</title>
<path fill="none" stroke="#000000" stroke-width="2" stroke-opacity="0.200000" d="M794.65,-489.87C861.88,-491.2 1021.41,-490.83 1062.75,-459 1101.35,-429.28 1111.57,-367.89 1114.28,-337.24"/>
<polygon fill="#000000" fill-opacity="0.200000" stroke="#000000" stroke-width="2" stroke-opacity="0.200000" points="1116.36,-337.6 1114.7,-331.46 1112.17,-337.3 1116.36,-337.6"/>
</g>
<!-- src/js/directable/frame/DirectableFrame.js -->
<g id="node36" class="node">
<title>src/js/directable/frame/DirectableFrame.js</title>
<g id="a_node36"><a xlink:href="src/js/directable/frame/DirectableFrame.js" xlink:title="DirectableFrame.js">
<path fill="#ffffcc" stroke="black" d="M532.71,-678.25C532.71,-678.25 451.79,-678.25 451.79,-678.25 448.71,-678.25 445.62,-675.17 445.62,-672.08 445.62,-672.08 445.62,-665.92 445.62,-665.92 445.62,-662.83 448.71,-659.75 451.79,-659.75 451.79,-659.75 532.71,-659.75 532.71,-659.75 535.79,-659.75 538.88,-662.83 538.88,-665.92 538.88,-665.92 538.88,-672.08 538.88,-672.08 538.88,-675.17 535.79,-678.25 532.71,-678.25"/>
<text text-anchor="start" x="453.62" y="-665.7" font-family="Helvetica,sans-Serif" font-size="9.00">DirectableFrame.js</text>
</a>
</g>
</g>
<!-- src/js/directable/rhythm/DirectableRhythm.js -->
<g id="node37" class="node">
<title>src/js/directable/rhythm/DirectableRhythm.js</title>
<g id="a_node37"><a xlink:href="src/js/directable/rhythm/DirectableRhythm.js" xlink:title="DirectableRhythm.js">
<path fill="#ffffcc" stroke="black" d="M680.96,-870.25C680.96,-870.25 594.79,-870.25 594.79,-870.25 591.71,-870.25 588.62,-867.17 588.62,-864.08 588.62,-864.08 588.62,-857.92 588.62,-857.92 588.62,-854.83 591.71,-851.75 594.79,-851.75 594.79,-851.75 680.96,-851.75 680.96,-851.75 684.04,-851.75 687.12,-854.83 687.12,-857.92 687.12,-857.92 687.12,-864.08 687.12,-864.08 687.12,-867.17 684.04,-870.25 680.96,-870.25"/>
<text text-anchor="start" x="596.62" y="-857.7" font-family="Helvetica,sans-Serif" font-size="9.00">DirectableRhythm.js</text>
</a>
</g>
</g>
<!-- src/js/directable/rhythm/asdr/ASDRData.js -->
<g id="node38" class="node">
<title>src/js/directable/rhythm/asdr/ASDRData.js</title>
<g id="a_node38"><a xlink:href="src/js/directable/rhythm/asdr/ASDRData.js" xlink:title="ASDRData.js">
<path fill="#ccffcc" stroke="black" d="M521.08,-747.25C521.08,-747.25 463.42,-747.25 463.42,-747.25 460.33,-747.25 457.25,-744.17 457.25,-741.08 457.25,-741.08 457.25,-734.92 457.25,-734.92 457.25,-731.83 460.33,-728.75 463.42,-728.75 463.42,-728.75 521.08,-728.75 521.08,-728.75 524.17,-728.75 527.25,-731.83 527.25,-734.92 527.25,-734.92 527.25,-741.08 527.25,-741.08 527.25,-744.17 524.17,-747.25 521.08,-747.25"/>
<text text-anchor="start" x="465.25" y="-734.7" font-family="Helvetica,sans-Serif" font-size="9.00">ASDRData.js</text>
</a>
</g>
</g>
<!-- src/js/directable/rhythm/asdr/ASDREnvelope.js -->
<g id="node39" class="node">
<title>src/js/directable/rhythm/asdr/ASDREnvelope.js</title>
<g id="a_node39"><a xlink:href="src/js/directable/rhythm/asdr/ASDREnvelope.js" xlink:title="ASDREnvelope.js">
<path fill="#ffffcc" stroke="black" d="M530.83,-778.25C530.83,-778.25 453.67,-778.25 453.67,-778.25 450.58,-778.25 447.5,-775.17 447.5,-772.08 447.5,-772.08 447.5,-765.92 447.5,-765.92 447.5,-762.83 450.58,-759.75 453.67,-759.75 453.67,-759.75 530.83,-759.75 530.83,-759.75 533.92,-759.75 537,-762.83 537,-765.92 537,-765.92 537,-772.08 537,-772.08 537,-775.17 533.92,-778.25 530.83,-778.25"/>
<text text-anchor="start" x="455.5" y="-765.7" font-family="Helvetica,sans-Serif" font-size="9.00">ASDREnvelope.js</text>
</a>
</g>
</g>
<!-- src/js/directable/rhythm/asdr/DirectableRhythmASDRManager.js -->
<g id="node40" class="node">
<title>src/js/directable/rhythm/asdr/DirectableRhythmASDRManager.js</title>
<g id="a_node40"><a xlink:href="src/js/directable/rhythm/asdr/DirectableRhythmASDRManager.js" xlink:title="DirectableRhythmASDRManager.js">
<path fill="#ffffcc" stroke="black" d="M566.08,-809.25C566.08,-809.25 418.42,-809.25 418.42,-809.25 415.33,-809.25 412.25,-806.17 412.25,-803.08 412.25,-803.08 412.25,-796.92 412.25,-796.92 412.25,-793.83 415.33,-790.75 418.42,-790.75 418.42,-790.75 566.08,-790.75 566.08,-790.75 569.17,-790.75 572.25,-793.83 572.25,-796.92 572.25,-796.92 572.25,-803.08 572.25,-803.08 572.25,-806.17 569.17,-809.25 566.08,-809.25"/>
<text text-anchor="start" x="420.25" y="-796.7" font-family="Helvetica,sans-Serif" font-size="9.00">DirectableRhythmASDRManager.js</text>
</a>
</g>
</g>
<!-- src/js/directable/rhythm/bpm/DirectableRhythmBPM.js -->
<g id="node41" class="node">
<title>src/js/directable/rhythm/bpm/DirectableRhythmBPM.js</title>
<g id="a_node41"><a xlink:href="src/js/directable/rhythm/bpm/DirectableRhythmBPM.js" xlink:title="DirectableRhythmBPM.js">
<path fill="#ffffcc" stroke="black" d="M545.08,-870.25C545.08,-870.25 439.42,-870.25 439.42,-870.25 436.33,-870.25 433.25,-867.17 433.25,-864.08 433.25,-864.08 433.25,-857.92 433.25,-857.92 433.25,-854.83 436.33,-851.75 439.42,-851.75 439.42,-851.75 545.08,-851.75 545.08,-851.75 548.17,-851.75 551.25,-854.83 551.25,-857.92 551.25,-857.92 551.25,-864.08 551.25,-864.08 551.25,-867.17 548.17,-870.25 545.08,-870.25"/>
<text text-anchor="start" x="441.25" y="-857.7" font-family="Helvetica,sans-Serif" font-size="9.00">DirectableRhythmBPM.js</text>
</a>
</g>
</g>
<!-- src/js/directable/rhythm/bpm/DirectableRhythmBPM.js&#45;&gt;src/js/directable/rhythm/DirectableRhythm.js -->
<g id="edge42" class="edge">
<title>src/js/directable/rhythm/bpm/DirectableRhythmBPM.js&#45;&gt;src/js/directable/rhythm/DirectableRhythm.js</title>
<path fill="none" stroke="#000000" stroke-width="2" stroke-opacity="0.200000" d="M551.67,-861C560.75,-861 570.14,-861 579.21,-861"/>
<polygon fill="#000000" fill-opacity="0.200000" stroke="#000000" stroke-width="2" stroke-opacity="0.200000" points="579.12,-863.1 585.12,-861 579.12,-858.9 579.12,-863.1"/>
</g>
<!-- src/js/directable/rhythm2/ViewRhythm.js -->
<g id="node42" class="node">
<title>src/js/directable/rhythm2/ViewRhythm.js</title>
<g id="a_node42"><a xlink:href="src/js/directable/rhythm2/ViewRhythm.js" xlink:title="ViewRhythm.js">
<path fill="#ffffcc" stroke="black" d="M524.46,-958.25C524.46,-958.25 460.04,-958.25 460.04,-958.25 456.96,-958.25 453.88,-955.17 453.88,-952.08 453.88,-952.08 453.88,-945.92 453.88,-945.92 453.88,-942.83 456.96,-939.75 460.04,-939.75 460.04,-939.75 524.46,-939.75 524.46,-939.75 527.54,-939.75 530.62,-942.83 530.62,-945.92 530.62,-945.92 530.62,-952.08 530.62,-952.08 530.62,-955.17 527.54,-958.25 524.46,-958.25"/>
<text text-anchor="start" x="461.88" y="-945.7" font-family="Helvetica,sans-Serif" font-size="9.00">ViewRhythm.js</text>
</a>
</g>
</g>
<!-- src/js/directable/rhythm2/ViewRhythmTrack.js -->
<g id="node43" class="node">
<title>src/js/directable/rhythm2/ViewRhythmTrack.js</title>
<g id="a_node43"><a xlink:href="src/js/directable/rhythm2/ViewRhythmTrack.js" xlink:title="ViewRhythmTrack.js">
<path fill="#ffffcc" stroke="black" d="M681.33,-958.25C681.33,-958.25 594.42,-958.25 594.42,-958.25 591.33,-958.25 588.25,-955.17 588.25,-952.08 588.25,-952.08 588.25,-945.92 588.25,-945.92 588.25,-942.83 591.33,-939.75 594.42,-939.75 594.42,-939.75 681.33,-939.75 681.33,-939.75 684.42,-939.75 687.5,-942.83 687.5,-945.92 687.5,-945.92 687.5,-952.08 687.5,-952.08 687.5,-955.17 684.42,-958.25 681.33,-958.25"/>
<text text-anchor="start" x="596.25" y="-945.7" font-family="Helvetica,sans-Serif" font-size="9.00">ViewRhythmTrack.js</text>
</a>
</g>
</g>
<!-- src/js/directable/rhythm2/ViewRhythm.js&#45;&gt;src/js/directable/rhythm2/ViewRhythmTrack.js -->
<g id="edge43" class="edge">
<title>src/js/directable/rhythm2/ViewRhythm.js&#45;&gt;src/js/directable/rhythm2/ViewRhythmTrack.js</title>
<path fill="none" stroke="#000000" stroke-width="2" stroke-opacity="0.200000" d="M530.99,-949C545.64,-949 562.76,-949 578.91,-949"/>
<polygon fill="#000000" fill-opacity="0.200000" stroke="#000000" stroke-width="2" stroke-opacity="0.200000" points="578.74,-951.1 584.74,-949 578.74,-946.9 578.74,-951.1"/>
</g>
<!-- src/js/index.js -->
<g id="node46" class="node">
<title>src/js/index.js</title>
<g id="a_node46"><a xlink:href="src/js/index.js" xlink:title="index.js">
<path fill="#ffffcc" stroke="black" d="M94.96,-1122.25C94.96,-1122.25 53.29,-1122.25 53.29,-1122.25 50.21,-1122.25 47.12,-1119.17 47.12,-1116.08 47.12,-1116.08 47.12,-1109.92 47.12,-1109.92 47.12,-1106.83 50.21,-1103.75 53.29,-1103.75 53.29,-1103.75 94.96,-1103.75 94.96,-1103.75 98.04,-1103.75 101.12,-1106.83 101.12,-1109.92 101.12,-1109.92 101.12,-1116.08 101.12,-1116.08 101.12,-1119.17 98.04,-1122.25 94.96,-1122.25"/>
<text text-anchor="start" x="58.38" y="-1109.7" font-family="Helvetica,sans-Serif" font-size="9.00">index.js</text>
</a>
</g>
</g>
<!-- src/js/index.js&#45;&gt;src/js/application/Application.js -->
<g id="edge48" class="edge">
<title>src/js/index.js&#45;&gt;src/js/application/Application.js</title>
<path fill="none" stroke="#000000" stroke-width="2" stroke-opacity="0.200000" d="M101.59,-1113C108.42,-1113 115.95,-1113 123.39,-1113"/>
<polygon fill="#000000" fill-opacity="0.200000" stroke="#000000" stroke-width="2" stroke-opacity="0.200000" points="123.01,-1115.1 129.01,-1113 123.01,-1110.9 123.01,-1115.1"/>
</g>
<!-- src/js/overlay/displayFormat/OverlayDisplayFormat.js&#45;&gt;src/js/display/DisplayFormats.js -->
<g id="edge51" class="edge">
<title>src/js/overlay/displayFormat/OverlayDisplayFormat.js&#45;&gt;src/js/display/DisplayFormats.js</title>
<path fill="none" stroke="#000000" stroke-width="2" stroke-opacity="0.200000" d="M505.9,-1200.71C523.32,-1213.43 556.2,-1235.17 588.25,-1244 662.94,-1264.57 685.02,-1249 762.5,-1249 762.5,-1249 762.5,-1249 1012.12,-1249 1092.76,-1249 1180.66,-1204.76 1221.63,-1181.27"/>
<polygon fill="#000000" fill-opacity="0.200000" stroke="#000000" stroke-width="2" stroke-opacity="0.200000" points="1222.68,-1183.09 1226.8,-1178.25 1220.56,-1179.46 1222.68,-1183.09"/>
</g>
<!-- src/js/overlay/OverlayUtil.js -->
<g id="node49" class="node">
<title>src/js/overlay/OverlayUtil.js</title>
<g id="a_node49"><a xlink:href="src/js/overlay/OverlayUtil.js" xlink:title="OverlayUtil.js">
<path fill="#ffffcc" stroke="black" d="M666.71,-1169.25C666.71,-1169.25 609.04,-1169.25 609.04,-1169.25 605.96,-1169.25 602.88,-1166.17 602.88,-1163.08 602.88,-1163.08 602.88,-1156.92 602.88,-1156.92 602.88,-1153.83 605.96,-1150.75 609.04,-1150.75 609.04,-1150.75 666.71,-1150.75 666.71,-1150.75 669.79,-1150.75 672.88,-1153.83 672.88,-1156.92 672.88,-1156.92 672.88,-1163.08 672.88,-1163.08 672.88,-1166.17 669.79,-1169.25 666.71,-1169.25"/>
<text text-anchor="start" x="610.88" y="-1156.7" font-family="Helvetica,sans-Serif" font-size="9.00">OverlayUtil.js</text>
</a>
</g>
</g>
<!-- src/js/overlay/displayFormat/OverlayDisplayFormat.js&#45;&gt;src/js/overlay/OverlayUtil.js -->
<g id="edge52" class="edge">
<title>src/js/overlay/displayFormat/OverlayDisplayFormat.js&#45;&gt;src/js/overlay/OverlayUtil.js</title>
<path fill="none" stroke="#000000" stroke-width="2" stroke-opacity="0.200000" d="M538.3,-1181.28C556.12,-1177.43 576.5,-1173.03 594.08,-1169.24"/>
<polygon fill="#000000" fill-opacity="0.200000" stroke="#000000" stroke-width="2" stroke-opacity="0.200000" points="594.09,-1171.38 599.51,-1168.06 593.2,-1167.28 594.09,-1171.38"/>
</g>
<!-- src/js/overlay/overlay/OverlayOverlay.js&#45;&gt;src/js/overlay/OverlayUtil.js -->
<g id="edge53" class="edge">
<title>src/js/overlay/overlay/OverlayOverlay.js&#45;&gt;src/js/overlay/OverlayUtil.js</title>
<path fill="none" stroke="#000000" stroke-width="2" stroke-opacity="0.200000" d="M536.34,-1139C554.52,-1142.8 575.64,-1147.21 593.81,-1151.01"/>
<polygon fill="#000000" fill-opacity="0.200000" stroke="#000000" stroke-width="2" stroke-opacity="0.200000" points="593.21,-1153.02 599.51,-1152.2 594.07,-1148.91 593.21,-1153.02"/>
</g>
</g>
</svg>
