<?xml version="1.0" encoding="UTF-8" standalone="no"?>
<!DOCTYPE svg PUBLIC "-//W3C//DTD SVG 1.1//EN"
 "http://www.w3.org/Graphics/SVG/1.1/DTD/svg11.dtd">
<!-- Generated by graphviz version 12.2.1 (20241206.2353)
 -->
<!-- Title: dependency&#45;cruiser output Pages: 1 -->
<svg width="1133pt" height="1131pt"
 viewBox="0.00 0.00 1132.75 1131.00" xmlns="http://www.w3.org/2000/svg" xmlns:xlink="http://www.w3.org/1999/xlink">
<g id="graph0" class="graph" transform="scale(1 1) rotate(0) translate(4 1127)">
<title>dependency&#45;cruiser output</title>
<polygon fill="white" stroke="none" points="-4,4 -4,-1127 1128.75,-1127 1128.75,4 -4,4"/>
<g id="clust1" class="cluster">
<title>cluster_src</title>
<path fill="#ffffff" stroke="black" stroke-width="2" d="M20,-8C20,-8 1104.75,-8 1104.75,-8 1110.75,-8 1116.75,-14 1116.75,-20 1116.75,-20 1116.75,-1103 1116.75,-1103 1116.75,-1109 1110.75,-1115 1104.75,-1115 1104.75,-1115 20,-1115 20,-1115 14,-1115 8,-1109 8,-1103 8,-1103 8,-20 8,-20 8,-14 14,-8 20,-8"/>
<text text-anchor="middle" x="562.38" y="-1102.45" font-family="Helvetica,sans-Serif" font-weight="bold" font-size="9.00">src</text>
</g>
<g id="clust2" class="cluster">
<title>cluster_src/js</title>
<path fill="#ffffff" stroke="black" stroke-width="2" d="M28,-16C28,-16 1096.75,-16 1096.75,-16 1102.75,-16 1108.75,-22 1108.75,-28 1108.75,-28 1108.75,-1076 1108.75,-1076 1108.75,-1082 1102.75,-1088 1096.75,-1088 1096.75,-1088 28,-1088 28,-1088 22,-1088 16,-1082 16,-1076 16,-1076 16,-28 16,-28 16,-22 22,-16 28,-16"/>
<text text-anchor="middle" x="562.38" y="-1075.45" font-family="Helvetica,sans-Serif" font-weight="bold" font-size="9.00">js</text>
</g>
<g id="clust3" class="cluster">
<title>cluster_src/js/application</title>
<path fill="#ffffff" stroke="black" stroke-width="2" d="M274.88,-907C274.88,-907 337.62,-907 337.62,-907 343.62,-907 349.62,-913 349.62,-919 349.62,-919 349.62,-948 349.62,-948 349.62,-954 343.62,-960 337.62,-960 337.62,-960 274.88,-960 274.88,-960 268.88,-960 262.88,-954 262.88,-948 262.88,-948 262.88,-919 262.88,-919 262.88,-913 268.88,-907 274.88,-907"/>
<text text-anchor="middle" x="306.25" y="-947.45" font-family="Helvetica,sans-Serif" font-weight="bold" font-size="9.00">application</text>
</g>
<g id="clust4" class="cluster">
<title>cluster_src/js/controller</title>
<path fill="#ffffff" stroke="black" stroke-width="2" d="M423.12,-907C423.12,-907 479.88,-907 479.88,-907 485.88,-907 491.88,-913 491.88,-919 491.88,-919 491.88,-948 491.88,-948 491.88,-954 485.88,-960 479.88,-960 479.88,-960 423.12,-960 423.12,-960 417.12,-960 411.12,-954 411.12,-948 411.12,-948 411.12,-919 411.12,-919 411.12,-913 417.12,-907 423.12,-907"/>
<text text-anchor="middle" x="451.5" y="-947.45" font-family="Helvetica,sans-Serif" font-weight="bold" font-size="9.00">controller</text>
</g>
<g id="clust5" class="cluster">
<title>cluster_src/js/data</title>
<path fill="#ffffff" stroke="black" stroke-width="2" d="M71,-24C71,-24 329.75,-24 329.75,-24 335.75,-24 341.75,-30 341.75,-36 341.75,-36 341.75,-65 341.75,-65 341.75,-71 335.75,-77 329.75,-77 329.75,-77 71,-77 71,-77 65,-77 59,-71 59,-65 59,-65 59,-36 59,-36 59,-30 65,-24 71,-24"/>
<text text-anchor="middle" x="200.38" y="-64.45" font-family="Helvetica,sans-Serif" font-weight="bold" font-size="9.00">data</text>
</g>
<g id="clust6" class="cluster">
<title>cluster_src/js/directable</title>
<path fill="#ffffff" stroke="black" stroke-width="2" d="M206.25,-181C206.25,-181 590.12,-181 590.12,-181 596.12,-181 602.12,-187 602.12,-193 602.12,-193 602.12,-572 602.12,-572 602.12,-578 596.12,-584 590.12,-584 590.12,-584 206.25,-584 206.25,-584 200.25,-584 194.25,-578 194.25,-572 194.25,-572 194.25,-193 194.25,-193 194.25,-187 200.25,-181 206.25,-181"/>
<text text-anchor="middle" x="398.19" y="-571.45" font-family="Helvetica,sans-Serif" font-weight="bold" font-size="9.00">directable</text>
</g>
<g id="clust7" class="cluster">
<title>cluster_src/js/directable/directables</title>
<path fill="#ffffff" stroke="black" stroke-width="2" d="M214.25,-189C214.25,-189 504.75,-189 504.75,-189 510.75,-189 516.75,-195 516.75,-201 516.75,-201 516.75,-545 516.75,-545 516.75,-551 510.75,-557 504.75,-557 504.75,-557 214.25,-557 214.25,-557 208.25,-557 202.25,-551 202.25,-545 202.25,-545 202.25,-201 202.25,-201 202.25,-195 208.25,-189 214.25,-189"/>
<text text-anchor="middle" x="359.5" y="-544.45" font-family="Helvetica,sans-Serif" font-weight="bold" font-size="9.00">directables</text>
</g>
<g id="clust8" class="cluster">
<title>cluster_src/js/directable/directables/frame</title>
<path fill="#ffffff" stroke="black" stroke-width="2" d="M263.62,-416C263.62,-416 348.88,-416 348.88,-416 354.88,-416 360.88,-422 360.88,-428 360.88,-428 360.88,-457 360.88,-457 360.88,-463 354.88,-469 348.88,-469 348.88,-469 263.62,-469 263.62,-469 257.62,-469 251.62,-463 251.62,-457 251.62,-457 251.62,-428 251.62,-428 251.62,-422 257.62,-416 263.62,-416"/>
<text text-anchor="middle" x="306.25" y="-456.45" font-family="Helvetica,sans-Serif" font-weight="bold" font-size="9.00">frame</text>
</g>
<g id="clust9" class="cluster">
<title>cluster_src/js/directable/directables/rhythm</title>
<path fill="#ffffff" stroke="black" stroke-width="2" d="M222.25,-197C222.25,-197 496.75,-197 496.75,-197 502.75,-197 508.75,-203 508.75,-209 508.75,-209 508.75,-396 508.75,-396 508.75,-402 502.75,-408 496.75,-408 496.75,-408 222.25,-408 222.25,-408 216.25,-408 210.25,-402 210.25,-396 210.25,-396 210.25,-209 210.25,-209 210.25,-203 216.25,-197 222.25,-197"/>
<text text-anchor="middle" x="359.5" y="-395.45" font-family="Helvetica,sans-Serif" font-weight="bold" font-size="9.00">rhythm</text>
</g>
<g id="clust10" class="cluster">
<title>cluster_src/js/directable/directables/rhythm/asdr</title>
<path fill="#ffffff" stroke="black" stroke-width="2" d="M230.25,-205C230.25,-205 382.25,-205 382.25,-205 388.25,-205 394.25,-211 394.25,-217 394.25,-217 394.25,-308 394.25,-308 394.25,-314 388.25,-320 382.25,-320 382.25,-320 230.25,-320 230.25,-320 224.25,-320 218.25,-314 218.25,-308 218.25,-308 218.25,-217 218.25,-217 218.25,-211 224.25,-205 230.25,-205"/>
<text text-anchor="middle" x="306.25" y="-307.45" font-family="Helvetica,sans-Serif" font-weight="bold" font-size="9.00">asdr</text>
</g>
<g id="clust11" class="cluster">
<title>cluster_src/js/directable/directables/rhythm/bpm</title>
<path fill="#ffffff" stroke="black" stroke-width="2" d="M251.25,-328C251.25,-328 361.25,-328 361.25,-328 367.25,-328 373.25,-334 373.25,-340 373.25,-340 373.25,-369 373.25,-369 373.25,-375 367.25,-381 361.25,-381 361.25,-381 251.25,-381 251.25,-381 245.25,-381 239.25,-375 239.25,-369 239.25,-369 239.25,-340 239.25,-340 239.25,-334 245.25,-328 251.25,-328"/>
<text text-anchor="middle" x="306.25" y="-368.45" font-family="Helvetica,sans-Serif" font-weight="bold" font-size="9.00">bpm</text>
</g>
<g id="clust12" class="cluster">
<title>cluster_src/js/directable/directables/title</title>
<path fill="#ffffff" stroke="black" stroke-width="2" d="M268.12,-477C268.12,-477 344.38,-477 344.38,-477 350.38,-477 356.38,-483 356.38,-489 356.38,-489 356.38,-518 356.38,-518 356.38,-524 350.38,-530 344.38,-530 344.38,-530 268.12,-530 268.12,-530 262.12,-530 256.12,-524 256.12,-518 256.12,-518 256.12,-489 256.12,-489 256.12,-483 262.12,-477 268.12,-477"/>
<text text-anchor="middle" x="306.25" y="-517.45" font-family="Helvetica,sans-Serif" font-weight="bold" font-size="9.00">title</text>
</g>
<g id="clust13" class="cluster">
<title>cluster_src/js/director</title>
<path fill="#ffffff" stroke="black" stroke-width="2" d="M36,-85C36,-85 330.5,-85 330.5,-85 336.5,-85 342.5,-91 342.5,-97 342.5,-97 342.5,-161 342.5,-161 342.5,-167 336.5,-173 330.5,-173 330.5,-173 36,-173 36,-173 30,-173 24,-167 24,-161 24,-161 24,-97 24,-97 24,-91 30,-85 36,-85"/>
<text text-anchor="middle" x="183.25" y="-160.45" font-family="Helvetica,sans-Serif" font-weight="bold" font-size="9.00">director</text>
</g>
<g id="clust14" class="cluster">
<title>cluster_src/js/director/directors</title>
<path fill="#ffffff" stroke="black" stroke-width="2" d="M44,-93C44,-93 174.25,-93 174.25,-93 180.25,-93 186.25,-99 186.25,-105 186.25,-105 186.25,-134 186.25,-134 186.25,-140 180.25,-146 174.25,-146 174.25,-146 44,-146 44,-146 38,-146 32,-140 32,-134 32,-134 32,-105 32,-105 32,-99 38,-93 44,-93"/>
<text text-anchor="middle" x="109.12" y="-133.45" font-family="Helvetica,sans-Serif" font-weight="bold" font-size="9.00">directors</text>
</g>
<g id="clust15" class="cluster">
<title>cluster_src/js/dispatcher</title>
<path fill="#ffffff" stroke="black" stroke-width="2" d="M56,-660C56,-660 349.25,-660 349.25,-660 355.25,-660 361.25,-666 361.25,-672 361.25,-672 361.25,-701 361.25,-701 361.25,-707 355.25,-713 349.25,-713 349.25,-713 56,-713 56,-713 50,-713 44,-707 44,-701 44,-701 44,-672 44,-672 44,-666 50,-660 56,-660"/>
<text text-anchor="middle" x="202.62" y="-700.45" font-family="Helvetica,sans-Serif" font-weight="bold" font-size="9.00">dispatcher</text>
</g>
<g id="clust16" class="cluster">
<title>cluster_src/js/overlay</title>
<path fill="#ffffff" stroke="black" stroke-width="2" d="M536.75,-592C536.75,-592 1088.75,-592 1088.75,-592 1094.75,-592 1100.75,-598 1100.75,-604 1100.75,-604 1100.75,-922 1100.75,-922 1100.75,-928 1094.75,-934 1088.75,-934 1088.75,-934 536.75,-934 536.75,-934 530.75,-934 524.75,-928 524.75,-922 524.75,-922 524.75,-604 524.75,-604 524.75,-598 530.75,-592 536.75,-592"/>
<text text-anchor="middle" x="812.75" y="-921.45" font-family="Helvetica,sans-Serif" font-weight="bold" font-size="9.00">overlay</text>
</g>
<g id="clust17" class="cluster">
<title>cluster_src/js/overlay/capture</title>
<path fill="#ffffff" stroke="black" stroke-width="2" d="M622.12,-600C622.12,-600 703.62,-600 703.62,-600 709.62,-600 715.62,-606 715.62,-612 715.62,-612 715.62,-641 715.62,-641 715.62,-647 709.62,-653 703.62,-653 703.62,-653 622.12,-653 622.12,-653 616.12,-653 610.12,-647 610.12,-641 610.12,-641 610.12,-612 610.12,-612 610.12,-606 616.12,-600 622.12,-600"/>
<text text-anchor="middle" x="662.88" y="-640.45" font-family="Helvetica,sans-Serif" font-weight="bold" font-size="9.00">capture</text>
</g>
<g id="clust18" class="cluster">
<title>cluster_src/js/overlay/dispatcher</title>
<path fill="#ffffff" stroke="black" stroke-width="2" d="M847.12,-854C847.12,-854 1080.75,-854 1080.75,-854 1086.75,-854 1092.75,-860 1092.75,-866 1092.75,-866 1092.75,-895 1092.75,-895 1092.75,-901 1086.75,-907 1080.75,-907 1080.75,-907 847.12,-907 847.12,-907 841.12,-907 835.12,-901 835.12,-895 835.12,-895 835.12,-866 835.12,-866 835.12,-860 841.12,-854 847.12,-854"/>
<text text-anchor="middle" x="963.94" y="-894.45" font-family="Helvetica,sans-Serif" font-weight="bold" font-size="9.00">dispatcher</text>
</g>
<g id="clust19" class="cluster">
<title>cluster_src/js/overlay/format</title>
<path fill="#ffffff" stroke="black" stroke-width="2" d="M624.38,-661C624.38,-661 701.38,-661 701.38,-661 707.38,-661 713.38,-667 713.38,-673 713.38,-673 713.38,-702 713.38,-702 713.38,-708 707.38,-714 701.38,-714 701.38,-714 624.38,-714 624.38,-714 618.38,-714 612.38,-708 612.38,-702 612.38,-702 612.38,-673 612.38,-673 612.38,-667 618.38,-661 624.38,-661"/>
<text text-anchor="middle" x="662.88" y="-701.45" font-family="Helvetica,sans-Serif" font-weight="bold" font-size="9.00">format</text>
</g>
<g id="clust20" class="cluster">
<title>cluster_src/js/overlay/media</title>
<path fill="#ffffff" stroke="black" stroke-width="2" d="M625.88,-722C625.88,-722 699.88,-722 699.88,-722 705.88,-722 711.88,-728 711.88,-734 711.88,-734 711.88,-763 711.88,-763 711.88,-769 705.88,-775 699.88,-775 699.88,-775 625.88,-775 625.88,-775 619.88,-775 613.88,-769 613.88,-763 613.88,-763 613.88,-734 613.88,-734 613.88,-728 619.88,-722 625.88,-722"/>
<text text-anchor="middle" x="662.88" y="-762.45" font-family="Helvetica,sans-Serif" font-weight="bold" font-size="9.00">media</text>
</g>
<g id="clust21" class="cluster">
<title>cluster_src/js/overlay/overlay</title>
<path fill="#ffffff" stroke="black" stroke-width="2" d="M623.25,-844C623.25,-844 702.5,-844 702.5,-844 708.5,-844 714.5,-850 714.5,-856 714.5,-856 714.5,-885 714.5,-885 714.5,-891 708.5,-897 702.5,-897 702.5,-897 623.25,-897 623.25,-897 617.25,-897 611.25,-891 611.25,-885 611.25,-885 611.25,-856 611.25,-856 611.25,-850 617.25,-844 623.25,-844"/>
<text text-anchor="middle" x="662.88" y="-884.45" font-family="Helvetica,sans-Serif" font-weight="bold" font-size="9.00">overlay</text>
</g>
<g id="clust22" class="cluster">
<title>cluster_src/js/overlay/rhythm</title>
<path fill="#ffffff" stroke="black" stroke-width="2" d="M622.88,-783C622.88,-783 702.88,-783 702.88,-783 708.88,-783 714.88,-789 714.88,-795 714.88,-795 714.88,-824 714.88,-824 714.88,-830 708.88,-836 702.88,-836 702.88,-836 622.88,-836 622.88,-836 616.88,-836 610.88,-830 610.88,-824 610.88,-824 610.88,-795 610.88,-795 610.88,-789 616.88,-783 622.88,-783"/>
<text text-anchor="middle" x="662.88" y="-823.45" font-family="Helvetica,sans-Serif" font-weight="bold" font-size="9.00">rhythm</text>
</g>
<g id="clust23" class="cluster">
<title>cluster_src/js/rhythm</title>
<path fill="#ffffff" stroke="black" stroke-width="2" d="M74.75,-804C74.75,-804 351.88,-804 351.88,-804 357.88,-804 363.88,-810 363.88,-816 363.88,-816 363.88,-845 363.88,-845 363.88,-851 357.88,-857 351.88,-857 351.88,-857 74.75,-857 74.75,-857 68.75,-857 62.75,-851 62.75,-845 62.75,-845 62.75,-816 62.75,-816 62.75,-810 68.75,-804 74.75,-804"/>
<text text-anchor="middle" x="213.31" y="-844.45" font-family="Helvetica,sans-Serif" font-weight="bold" font-size="9.00">rhythm</text>
</g>
<g id="clust24" class="cluster">
<title>cluster_src/js/view</title>
<path fill="#ffffff" stroke="black" stroke-width="2" d="M639.88,-942C639.88,-942 940.75,-942 940.75,-942 946.75,-942 952.75,-948 952.75,-954 952.75,-954 952.75,-1049 952.75,-1049 952.75,-1055 946.75,-1061 940.75,-1061 940.75,-1061 639.88,-1061 639.88,-1061 633.88,-1061 627.88,-1055 627.88,-1049 627.88,-1049 627.88,-954 627.88,-954 627.88,-948 633.88,-942 639.88,-942"/>
<text text-anchor="middle" x="790.31" y="-1048.45" font-family="Helvetica,sans-Serif" font-weight="bold" font-size="9.00">view</text>
</g>
<g id="clust25" class="cluster">
<title>cluster_src/js/view/render</title>
<path fill="#ffffff" stroke="black" stroke-width="2" d="M735.62,-950C735.62,-950 932.75,-950 932.75,-950 938.75,-950 944.75,-956 944.75,-962 944.75,-962 944.75,-1022 944.75,-1022 944.75,-1028 938.75,-1034 932.75,-1034 932.75,-1034 735.62,-1034 735.62,-1034 729.62,-1034 723.62,-1028 723.62,-1022 723.62,-1022 723.62,-962 723.62,-962 723.62,-956 729.62,-950 735.62,-950"/>
<text text-anchor="middle" x="834.19" y="-1021.45" font-family="Helvetica,sans-Serif" font-weight="bold" font-size="9.00">render</text>
</g>
<!-- src/js/application/Application.js -->
<g id="node1" class="node">
<title>src/js/application/Application.js</title>
<g id="a_node1"><a xlink:href="src/js/application/Application.js" xlink:title="Application.js">
<path fill="#ffffcc" stroke="black" d="M335.46,-933.25C335.46,-933.25 277.04,-933.25 277.04,-933.25 273.96,-933.25 270.88,-930.17 270.88,-927.08 270.88,-927.08 270.88,-920.92 270.88,-920.92 270.88,-917.83 273.96,-914.75 277.04,-914.75 277.04,-914.75 335.46,-914.75 335.46,-914.75 338.54,-914.75 341.62,-917.83 341.62,-920.92 341.62,-920.92 341.62,-927.08 341.62,-927.08 341.62,-930.17 338.54,-933.25 335.46,-933.25"/>
<text text-anchor="start" x="278.88" y="-920.7" font-family="Helvetica,sans-Serif" font-size="9.00">Application.js</text>
</a>
</g>
</g>
<!-- src/js/controller/Controller.js -->
<g id="node2" class="node">
<title>src/js/controller/Controller.js</title>
<g id="a_node2"><a xlink:href="src/js/controller/Controller.js" xlink:title="Controller.js">
<path fill="#ffffcc" stroke="black" d="M477.71,-933.25C477.71,-933.25 425.29,-933.25 425.29,-933.25 422.21,-933.25 419.12,-930.17 419.12,-927.08 419.12,-927.08 419.12,-920.92 419.12,-920.92 419.12,-917.83 422.21,-914.75 425.29,-914.75 425.29,-914.75 477.71,-914.75 477.71,-914.75 480.79,-914.75 483.88,-917.83 483.88,-920.92 483.88,-920.92 483.88,-927.08 483.88,-927.08 483.88,-930.17 480.79,-933.25 477.71,-933.25"/>
<text text-anchor="start" x="427.12" y="-920.7" font-family="Helvetica,sans-Serif" font-size="9.00">Controller.js</text>
</a>
</g>
</g>
<!-- src/js/application/Application.js&#45;&gt;src/js/controller/Controller.js -->
<g id="edge1" class="edge">
<title>src/js/application/Application.js&#45;&gt;src/js/controller/Controller.js</title>
<path fill="none" stroke="#000000" stroke-width="2" stroke-opacity="0.200000" d="M341.93,-924C362.5,-924 388.68,-924 410.18,-924"/>
<polygon fill="#000000" fill-opacity="0.200000" stroke="#000000" stroke-width="2" stroke-opacity="0.200000" points="410.05,-926.1 416.05,-924 410.05,-921.9 410.05,-926.1"/>
</g>
<!-- src/js/overlay/Overlay.js -->
<g id="node3" class="node">
<title>src/js/overlay/Overlay.js</title>
<g id="a_node3"><a xlink:href="src/js/overlay/Overlay.js" xlink:title="Overlay.js">
<path fill="#ffffcc" stroke="black" d="M582.33,-907.25C582.33,-907.25 538.92,-907.25 538.92,-907.25 535.83,-907.25 532.75,-904.17 532.75,-901.08 532.75,-901.08 532.75,-894.92 532.75,-894.92 532.75,-891.83 535.83,-888.75 538.92,-888.75 538.92,-888.75 582.33,-888.75 582.33,-888.75 585.42,-888.75 588.5,-891.83 588.5,-894.92 588.5,-894.92 588.5,-901.08 588.5,-901.08 588.5,-904.17 585.42,-907.25 582.33,-907.25"/>
<text text-anchor="start" x="540.75" y="-894.7" font-family="Helvetica,sans-Serif" font-size="9.00">Overlay.js</text>
</a>
</g>
</g>
<!-- src/js/controller/Controller.js&#45;&gt;src/js/overlay/Overlay.js -->
<g id="edge2" class="edge">
<title>src/js/controller/Controller.js&#45;&gt;src/js/overlay/Overlay.js</title>
<path fill="none" stroke="#000000" stroke-width="2" stroke-opacity="0.200000" d="M484.35,-916.27C496.78,-913.25 511.08,-909.78 523.86,-906.68"/>
<polygon fill="#000000" fill-opacity="0.200000" stroke="#000000" stroke-width="2" stroke-opacity="0.200000" points="524.15,-908.77 529.48,-905.32 523.16,-904.69 524.15,-908.77"/>
</g>
<!-- src/js/view/View.js -->
<g id="node4" class="node">
<title>src/js/view/View.js</title>
<g id="a_node4"><a xlink:href="src/js/view/View.js" xlink:title="View.js">
<path fill="#ffffcc" stroke="black" d="M683.71,-987.25C683.71,-987.25 642.04,-987.25 642.04,-987.25 638.96,-987.25 635.88,-984.17 635.88,-981.08 635.88,-981.08 635.88,-974.92 635.88,-974.92 635.88,-971.83 638.96,-968.75 642.04,-968.75 642.04,-968.75 683.71,-968.75 683.71,-968.75 686.79,-968.75 689.88,-971.83 689.88,-974.92 689.88,-974.92 689.88,-981.08 689.88,-981.08 689.88,-984.17 686.79,-987.25 683.71,-987.25"/>
<text text-anchor="start" x="648.62" y="-974.7" font-family="Helvetica,sans-Serif" font-size="9.00">View.js</text>
</a>
</g>
</g>
<!-- src/js/controller/Controller.js&#45;&gt;src/js/view/View.js -->
<g id="edge3" class="edge">
<title>src/js/controller/Controller.js&#45;&gt;src/js/view/View.js</title>
<path fill="none" stroke="#000000" stroke-width="2" stroke-opacity="0.200000" d="M484.3,-932.2C522.69,-942.1 587.05,-958.7 626.84,-968.96"/>
<polygon fill="#000000" fill-opacity="0.200000" stroke="#000000" stroke-width="2" stroke-opacity="0.200000" points="626.16,-970.96 632.49,-970.42 627.21,-966.89 626.16,-970.96"/>
</g>
<!-- src/js/overlay/dispatcher/OverlayDispatcher.js -->
<g id="node20" class="node">
<title>src/js/overlay/dispatcher/OverlayDispatcher.js</title>
<g id="a_node20"><a xlink:href="src/js/overlay/dispatcher/OverlayDispatcher.js" xlink:title="OverlayDispatcher.js">
<path fill="#ffffcc" stroke="black" d="M936.96,-880.25C936.96,-880.25 849.29,-880.25 849.29,-880.25 846.21,-880.25 843.12,-877.17 843.12,-874.08 843.12,-874.08 843.12,-867.92 843.12,-867.92 843.12,-864.83 846.21,-861.75 849.29,-861.75 849.29,-861.75 936.96,-861.75 936.96,-861.75 940.04,-861.75 943.12,-864.83 943.12,-867.92 943.12,-867.92 943.12,-874.08 943.12,-874.08 943.12,-877.17 940.04,-880.25 936.96,-880.25"/>
<text text-anchor="start" x="851.12" y="-867.7" font-family="Helvetica,sans-Serif" font-size="9.00">OverlayDispatcher.js</text>
</a>
</g>
</g>
<!-- src/js/overlay/Overlay.js&#45;&gt;src/js/overlay/dispatcher/OverlayDispatcher.js -->
<g id="edge14" class="edge">
<title>src/js/overlay/Overlay.js&#45;&gt;src/js/overlay/dispatcher/OverlayDispatcher.js</title>
<path fill="none" stroke="#000000" stroke-width="2" stroke-opacity="0.200000" d="M588.81,-899.32C595.76,-899.6 603.22,-899.86 610.12,-900 657,-900.97 668.89,-903.81 715.62,-900 756.71,-896.65 802.65,-888.97 837.36,-882.36"/>
<polygon fill="#000000" fill-opacity="0.200000" stroke="#000000" stroke-width="2" stroke-opacity="0.200000" points="837.46,-884.48 842.96,-881.28 836.67,-880.36 837.46,-884.48"/>
</g>
<!-- src/js/overlay/overlay/OverlayOverlay.js -->
<g id="node21" class="node">
<title>src/js/overlay/overlay/OverlayOverlay.js</title>
<g id="a_node21"><a xlink:href="src/js/overlay/overlay/OverlayOverlay.js" xlink:title="OverlayOverlay.js">
<path fill="#ffffcc" stroke="black" d="M700.33,-870.25C700.33,-870.25 625.42,-870.25 625.42,-870.25 622.33,-870.25 619.25,-867.17 619.25,-864.08 619.25,-864.08 619.25,-857.92 619.25,-857.92 619.25,-854.83 622.33,-851.75 625.42,-851.75 625.42,-851.75 700.33,-851.75 700.33,-851.75 703.42,-851.75 706.5,-854.83 706.5,-857.92 706.5,-857.92 706.5,-864.08 706.5,-864.08 706.5,-867.17 703.42,-870.25 700.33,-870.25"/>
<text text-anchor="start" x="627.25" y="-857.7" font-family="Helvetica,sans-Serif" font-size="9.00">OverlayOverlay.js</text>
</a>
</g>
</g>
<!-- src/js/overlay/Overlay.js&#45;&gt;src/js/overlay/overlay/OverlayOverlay.js -->
<g id="edge15" class="edge">
<title>src/js/overlay/Overlay.js&#45;&gt;src/js/overlay/overlay/OverlayOverlay.js</title>
<path fill="none" stroke="#000000" stroke-width="2" stroke-opacity="0.200000" d="M578.74,-888.41C587.85,-883.6 599.37,-877.96 610.12,-874 610.52,-873.86 610.91,-873.71 611.31,-873.57"/>
<polygon fill="#000000" fill-opacity="0.200000" stroke="#000000" stroke-width="2" stroke-opacity="0.200000" points="611.93,-875.58 616.97,-871.7 610.61,-871.59 611.93,-875.58"/>
</g>
<!-- src/js/view/render/RenderController.js -->
<g id="node30" class="node">
<title>src/js/view/render/RenderController.js</title>
<g id="a_node30"><a xlink:href="src/js/view/render/RenderController.js" xlink:title="RenderController.js">
<path fill="#ffffcc" stroke="black" d="M820.96,-1007.25C820.96,-1007.25 737.79,-1007.25 737.79,-1007.25 734.71,-1007.25 731.62,-1004.17 731.62,-1001.08 731.62,-1001.08 731.62,-994.92 731.62,-994.92 731.62,-991.83 734.71,-988.75 737.79,-988.75 737.79,-988.75 820.96,-988.75 820.96,-988.75 824.04,-988.75 827.12,-991.83 827.12,-994.92 827.12,-994.92 827.12,-1001.08 827.12,-1001.08 827.12,-1004.17 824.04,-1007.25 820.96,-1007.25"/>
<text text-anchor="start" x="739.62" y="-994.7" font-family="Helvetica,sans-Serif" font-size="9.00">RenderController.js</text>
</a>
</g>
</g>
<!-- src/js/view/View.js&#45;&gt;src/js/view/render/RenderController.js -->
<g id="edge24" class="edge">
<title>src/js/view/View.js&#45;&gt;src/js/view/render/RenderController.js</title>
<path fill="none" stroke="#000000" stroke-width="2" stroke-opacity="0.200000" d="M690.14,-982.59C699.93,-984.3 711.44,-986.31 722.87,-988.3"/>
<polygon fill="#000000" fill-opacity="0.200000" stroke="#000000" stroke-width="2" stroke-opacity="0.200000" points="722.3,-990.34 728.57,-989.3 723.02,-986.2 722.3,-990.34"/>
</g>
<!-- src/js/data/Data.json -->
<g id="node5" class="node">
<title>src/js/data/Data.json</title>
<g id="a_node5"><a xlink:href="src/js/data/Data.json" xlink:title="Data.json">
<path fill="#ffee44" stroke="black" d="M327.58,-50.25C327.58,-50.25 284.92,-50.25 284.92,-50.25 281.83,-50.25 278.75,-47.17 278.75,-44.08 278.75,-44.08 278.75,-37.92 278.75,-37.92 278.75,-34.83 281.83,-31.75 284.92,-31.75 284.92,-31.75 327.58,-31.75 327.58,-31.75 330.67,-31.75 333.75,-34.83 333.75,-37.92 333.75,-37.92 333.75,-44.08 333.75,-44.08 333.75,-47.17 330.67,-50.25 327.58,-50.25"/>
<text text-anchor="start" x="286.75" y="-37.7" font-family="Helvetica,sans-Serif" font-size="9.00">Data.json</text>
</a>
</g>
</g>
<!-- src/js/data/DataController.js -->
<g id="node6" class="node">
<title>src/js/data/DataController.js</title>
<g id="a_node6"><a xlink:href="src/js/data/DataController.js" xlink:title="DataController.js">
<path fill="#ffffcc" stroke="black" d="M145.08,-50.25C145.08,-50.25 73.17,-50.25 73.17,-50.25 70.08,-50.25 67,-47.17 67,-44.08 67,-44.08 67,-37.92 67,-37.92 67,-34.83 70.08,-31.75 73.17,-31.75 73.17,-31.75 145.08,-31.75 145.08,-31.75 148.17,-31.75 151.25,-34.83 151.25,-37.92 151.25,-37.92 151.25,-44.08 151.25,-44.08 151.25,-47.17 148.17,-50.25 145.08,-50.25"/>
<text text-anchor="start" x="75" y="-37.7" font-family="Helvetica,sans-Serif" font-size="9.00">DataController.js</text>
</a>
</g>
</g>
<!-- src/js/data/DataController.js&#45;&gt;src/js/data/Data.json -->
<g id="edge4" class="edge">
<title>src/js/data/DataController.js&#45;&gt;src/js/data/Data.json</title>
<path fill="none" stroke="#000000" stroke-width="2" stroke-opacity="0.200000" d="M151.51,-41C186.48,-41 236.06,-41 269.37,-41"/>
<polygon fill="#000000" fill-opacity="0.200000" stroke="#000000" stroke-width="2" stroke-opacity="0.200000" points="269.28,-43.1 275.28,-41 269.28,-38.9 269.28,-43.1"/>
</g>
<!-- src/js/directable/Directable.js -->
<g id="node7" class="node">
<title>src/js/directable/Directable.js</title>
<g id="a_node7"><a xlink:href="src/js/directable/Directable.js" xlink:title="Directable.js">
<path fill="#ffffcc" stroke="black" d="M587.96,-442.25C587.96,-442.25 533.29,-442.25 533.29,-442.25 530.21,-442.25 527.12,-439.17 527.12,-436.08 527.12,-436.08 527.12,-429.92 527.12,-429.92 527.12,-426.83 530.21,-423.75 533.29,-423.75 533.29,-423.75 587.96,-423.75 587.96,-423.75 591.04,-423.75 594.12,-426.83 594.12,-429.92 594.12,-429.92 594.12,-436.08 594.12,-436.08 594.12,-439.17 591.04,-442.25 587.96,-442.25"/>
<text text-anchor="start" x="535.12" y="-429.7" font-family="Helvetica,sans-Serif" font-size="9.00">Directable.js</text>
</a>
</g>
</g>
<!-- src/js/directable/directables/frame/DirectableFrame.js -->
<g id="node8" class="node">
<title>src/js/directable/directables/frame/DirectableFrame.js</title>
<g id="a_node8"><a xlink:href="src/js/directable/directables/frame/DirectableFrame.js" xlink:title="DirectableFrame.js">
<path fill="#ffffcc" stroke="black" d="M346.71,-442.25C346.71,-442.25 265.79,-442.25 265.79,-442.25 262.71,-442.25 259.62,-439.17 259.62,-436.08 259.62,-436.08 259.62,-429.92 259.62,-429.92 259.62,-426.83 262.71,-423.75 265.79,-423.75 265.79,-423.75 346.71,-423.75 346.71,-423.75 349.79,-423.75 352.88,-426.83 352.88,-429.92 352.88,-429.92 352.88,-436.08 352.88,-436.08 352.88,-439.17 349.79,-442.25 346.71,-442.25"/>
<text text-anchor="start" x="267.62" y="-429.7" font-family="Helvetica,sans-Serif" font-size="9.00">DirectableFrame.js</text>
</a>
</g>
</g>
<!-- src/js/directable/directables/frame/DirectableFrame.js&#45;&gt;src/js/directable/Directable.js -->
<g id="edge5" class="edge">
<title>src/js/directable/directables/frame/DirectableFrame.js&#45;&gt;src/js/directable/Directable.js</title>
<path fill="none" stroke="#000000" stroke-width="2" stroke-opacity="0.200000" d="M353.25,-433C400.2,-433 472.44,-433 517.82,-433"/>
<polygon fill="#000000" fill-opacity="0.200000" stroke="#000000" stroke-width="2" stroke-opacity="0.200000" points="517.77,-435.1 523.77,-433 517.77,-430.9 517.77,-435.1"/>
</g>
<!-- src/js/directable/directables/rhythm/DirectableRhythm.js -->
<g id="node9" class="node">
<title>src/js/directable/directables/rhythm/DirectableRhythm.js</title>
<g id="a_node9"><a xlink:href="src/js/directable/directables/rhythm/DirectableRhythm.js" xlink:title="DirectableRhythm.js">
<path fill="#ffffcc" stroke="black" d="M494.58,-368.25C494.58,-368.25 408.42,-368.25 408.42,-368.25 405.33,-368.25 402.25,-365.17 402.25,-362.08 402.25,-362.08 402.25,-355.92 402.25,-355.92 402.25,-352.83 405.33,-349.75 408.42,-349.75 408.42,-349.75 494.58,-349.75 494.58,-349.75 497.67,-349.75 500.75,-352.83 500.75,-355.92 500.75,-355.92 500.75,-362.08 500.75,-362.08 500.75,-365.17 497.67,-368.25 494.58,-368.25"/>
<text text-anchor="start" x="410.25" y="-355.7" font-family="Helvetica,sans-Serif" font-size="9.00">DirectableRhythm.js</text>
</a>
</g>
</g>
<!-- src/js/directable/directables/rhythm/DirectableRhythm.js&#45;&gt;src/js/directable/Directable.js -->
<g id="edge6" class="edge">
<title>src/js/directable/directables/rhythm/DirectableRhythm.js&#45;&gt;src/js/directable/Directable.js</title>
<path fill="none" stroke="#000000" stroke-width="2" stroke-opacity="0.200000" d="M501.1,-364.66C506.63,-366.49 511.99,-368.89 516.75,-372 532.9,-382.56 544.78,-401.5 551.89,-415.49"/>
<polygon fill="#000000" fill-opacity="0.200000" stroke="#000000" stroke-width="2" stroke-opacity="0.200000" points="549.9,-416.2 554.38,-420.7 553.69,-414.38 549.9,-416.2"/>
</g>
<!-- src/js/directable/directables/rhythm/asdr/ASDRData.js -->
<g id="node10" class="node">
<title>src/js/directable/directables/rhythm/asdr/ASDRData.js</title>
<g id="a_node10"><a xlink:href="src/js/directable/directables/rhythm/asdr/ASDRData.js" xlink:title="ASDRData.js">
<path fill="#ccffcc" stroke="black" d="M335.08,-231.25C335.08,-231.25 277.42,-231.25 277.42,-231.25 274.33,-231.25 271.25,-228.17 271.25,-225.08 271.25,-225.08 271.25,-218.92 271.25,-218.92 271.25,-215.83 274.33,-212.75 277.42,-212.75 277.42,-212.75 335.08,-212.75 335.08,-212.75 338.17,-212.75 341.25,-215.83 341.25,-218.92 341.25,-218.92 341.25,-225.08 341.25,-225.08 341.25,-228.17 338.17,-231.25 335.08,-231.25"/>
<text text-anchor="start" x="279.25" y="-218.7" font-family="Helvetica,sans-Serif" font-size="9.00">ASDRData.js</text>
</a>
</g>
</g>
<!-- src/js/directable/directables/rhythm/asdr/ASDREnvelope.js -->
<g id="node11" class="node">
<title>src/js/directable/directables/rhythm/asdr/ASDREnvelope.js</title>
<g id="a_node11"><a xlink:href="src/js/directable/directables/rhythm/asdr/ASDREnvelope.js" xlink:title="ASDREnvelope.js">
<path fill="#ffffcc" stroke="black" d="M344.83,-262.25C344.83,-262.25 267.67,-262.25 267.67,-262.25 264.58,-262.25 261.5,-259.17 261.5,-256.08 261.5,-256.08 261.5,-249.92 261.5,-249.92 261.5,-246.83 264.58,-243.75 267.67,-243.75 267.67,-243.75 344.83,-243.75 344.83,-243.75 347.92,-243.75 351,-246.83 351,-249.92 351,-249.92 351,-256.08 351,-256.08 351,-259.17 347.92,-262.25 344.83,-262.25"/>
<text text-anchor="start" x="269.5" y="-249.7" font-family="Helvetica,sans-Serif" font-size="9.00">ASDREnvelope.js</text>
</a>
</g>
</g>
<!-- src/js/directable/directables/rhythm/asdr/DirectableRhythmASDRManager.js -->
<g id="node12" class="node">
<title>src/js/directable/directables/rhythm/asdr/DirectableRhythmASDRManager.js</title>
<g id="a_node12"><a xlink:href="src/js/directable/directables/rhythm/asdr/DirectableRhythmASDRManager.js" xlink:title="DirectableRhythmASDRManager.js">
<path fill="#ffffcc" stroke="black" d="M380.08,-293.25C380.08,-293.25 232.42,-293.25 232.42,-293.25 229.33,-293.25 226.25,-290.17 226.25,-287.08 226.25,-287.08 226.25,-280.92 226.25,-280.92 226.25,-277.83 229.33,-274.75 232.42,-274.75 232.42,-274.75 380.08,-274.75 380.08,-274.75 383.17,-274.75 386.25,-277.83 386.25,-280.92 386.25,-280.92 386.25,-287.08 386.25,-287.08 386.25,-290.17 383.17,-293.25 380.08,-293.25"/>
<text text-anchor="start" x="234.25" y="-280.7" font-family="Helvetica,sans-Serif" font-size="9.00">DirectableRhythmASDRManager.js</text>
</a>
</g>
</g>
<!-- src/js/directable/directables/rhythm/bpm/DirectableRhythmBPM.js -->
<g id="node13" class="node">
<title>src/js/directable/directables/rhythm/bpm/DirectableRhythmBPM.js</title>
<g id="a_node13"><a xlink:href="src/js/directable/directables/rhythm/bpm/DirectableRhythmBPM.js" xlink:title="DirectableRhythmBPM.js">
<path fill="#ffffcc" stroke="black" d="M359.08,-354.25C359.08,-354.25 253.42,-354.25 253.42,-354.25 250.33,-354.25 247.25,-351.17 247.25,-348.08 247.25,-348.08 247.25,-341.92 247.25,-341.92 247.25,-338.83 250.33,-335.75 253.42,-335.75 253.42,-335.75 359.08,-335.75 359.08,-335.75 362.17,-335.75 365.25,-338.83 365.25,-341.92 365.25,-341.92 365.25,-348.08 365.25,-348.08 365.25,-351.17 362.17,-354.25 359.08,-354.25"/>
<text text-anchor="start" x="255.25" y="-341.7" font-family="Helvetica,sans-Serif" font-size="9.00">DirectableRhythmBPM.js</text>
</a>
</g>
</g>
<!-- src/js/directable/directables/rhythm/bpm/DirectableRhythmBPM.js&#45;&gt;src/js/directable/directables/rhythm/DirectableRhythm.js -->
<g id="edge7" class="edge">
<title>src/js/directable/directables/rhythm/bpm/DirectableRhythmBPM.js&#45;&gt;src/js/directable/directables/rhythm/DirectableRhythm.js</title>
<path fill="none" stroke="#000000" stroke-width="2" stroke-opacity="0.200000" d="M365.52,-350.69C374.58,-351.58 383.94,-352.49 392.98,-353.38"/>
<polygon fill="#000000" fill-opacity="0.200000" stroke="#000000" stroke-width="2" stroke-opacity="0.200000" points="392.71,-355.46 398.89,-353.96 393.12,-351.28 392.71,-355.46"/>
</g>
<!-- src/js/directable/directables/title/DirectableTitle.js -->
<g id="node14" class="node">
<title>src/js/directable/directables/title/DirectableTitle.js</title>
<g id="a_node14"><a xlink:href="src/js/directable/directables/title/DirectableTitle.js" xlink:title="DirectableTitle.js">
<path fill="#ffffcc" stroke="black" d="M342.21,-503.25C342.21,-503.25 270.29,-503.25 270.29,-503.25 267.21,-503.25 264.12,-500.17 264.12,-497.08 264.12,-497.08 264.12,-490.92 264.12,-490.92 264.12,-487.83 267.21,-484.75 270.29,-484.75 270.29,-484.75 342.21,-484.75 342.21,-484.75 345.29,-484.75 348.38,-487.83 348.38,-490.92 348.38,-490.92 348.38,-497.08 348.38,-497.08 348.38,-500.17 345.29,-503.25 342.21,-503.25"/>
<text text-anchor="start" x="272.12" y="-490.7" font-family="Helvetica,sans-Serif" font-size="9.00">DirectableTitle.js</text>
</a>
</g>
</g>
<!-- src/js/directable/directables/title/DirectableTitle.js&#45;&gt;src/js/directable/Directable.js -->
<g id="edge8" class="edge">
<title>src/js/directable/directables/title/DirectableTitle.js&#45;&gt;src/js/directable/Directable.js</title>
<path fill="none" stroke="#000000" stroke-width="2" stroke-opacity="0.200000" d="M347.52,-484.27C394.19,-472.99 470.73,-454.49 517.98,-443.07"/>
<polygon fill="#000000" fill-opacity="0.200000" stroke="#000000" stroke-width="2" stroke-opacity="0.200000" points="518.46,-445.11 523.79,-441.66 517.47,-441.03 518.46,-445.11"/>
</g>
<!-- src/js/director/Director.js -->
<g id="node15" class="node">
<title>src/js/director/Director.js</title>
<g id="a_node15"><a xlink:href="src/js/director/Director.js" xlink:title="Director.js">
<path fill="#ffffcc" stroke="black" d="M328.33,-119.25C328.33,-119.25 284.17,-119.25 284.17,-119.25 281.08,-119.25 278,-116.17 278,-113.08 278,-113.08 278,-106.92 278,-106.92 278,-103.83 281.08,-100.75 284.17,-100.75 284.17,-100.75 328.33,-100.75 328.33,-100.75 331.42,-100.75 334.5,-103.83 334.5,-106.92 334.5,-106.92 334.5,-113.08 334.5,-113.08 334.5,-116.17 331.42,-119.25 328.33,-119.25"/>
<text text-anchor="start" x="286" y="-106.7" font-family="Helvetica,sans-Serif" font-size="9.00">Director.js</text>
</a>
</g>
</g>
<!-- src/js/director/directors/DirectorDanceRabbitDance.js -->
<g id="node16" class="node">
<title>src/js/director/directors/DirectorDanceRabbitDance.js</title>
<g id="a_node16"><a xlink:href="src/js/director/directors/DirectorDanceRabbitDance.js" xlink:title="DirectorDanceRabbitDance.js">
<path fill="#ffffcc" stroke="black" d="M172.08,-119.25C172.08,-119.25 46.17,-119.25 46.17,-119.25 43.08,-119.25 40,-116.17 40,-113.08 40,-113.08 40,-106.92 40,-106.92 40,-103.83 43.08,-100.75 46.17,-100.75 46.17,-100.75 172.08,-100.75 172.08,-100.75 175.17,-100.75 178.25,-103.83 178.25,-106.92 178.25,-106.92 178.25,-113.08 178.25,-113.08 178.25,-116.17 175.17,-119.25 172.08,-119.25"/>
<text text-anchor="start" x="48" y="-106.7" font-family="Helvetica,sans-Serif" font-size="9.00">DirectorDanceRabbitDance.js</text>
</a>
</g>
</g>
<!-- src/js/director/directors/DirectorDanceRabbitDance.js&#45;&gt;src/js/directable/directables/rhythm/bpm/DirectableRhythmBPM.js -->
<g id="edge9" class="edge">
<title>src/js/director/directors/DirectorDanceRabbitDance.js&#45;&gt;src/js/directable/directables/rhythm/bpm/DirectableRhythmBPM.js</title>
<path fill="none" stroke="#000000" stroke-width="2" stroke-opacity="0.200000" d="M110.77,-119.48C113.62,-153.12 127.99,-267.74 194.25,-323 206.6,-333.3 222.4,-339.26 238.18,-342.61"/>
<polygon fill="#000000" fill-opacity="0.200000" stroke="#000000" stroke-width="2" stroke-opacity="0.200000" points="237.66,-344.65 243.94,-343.66 238.42,-340.52 237.66,-344.65"/>
</g>
<!-- src/js/director/directors/DirectorDanceRabbitDance.js&#45;&gt;src/js/directable/directables/title/DirectableTitle.js -->
<g id="edge10" class="edge">
<title>src/js/director/directors/DirectorDanceRabbitDance.js&#45;&gt;src/js/directable/directables/title/DirectableTitle.js</title>
<path fill="none" stroke="#000000" stroke-width="2" stroke-opacity="0.200000" d="M110.96,-119.52C115.74,-171.49 141.16,-420.62 194.25,-472 210.18,-487.42 233.65,-493.52 254.9,-495.52"/>
<polygon fill="#000000" fill-opacity="0.200000" stroke="#000000" stroke-width="2" stroke-opacity="0.200000" points="254.69,-497.61 260.83,-495.93 254.99,-493.42 254.69,-497.61"/>
</g>
<!-- src/js/director/directors/DirectorDanceRabbitDance.js&#45;&gt;src/js/director/Director.js -->
<g id="edge11" class="edge">
<title>src/js/director/directors/DirectorDanceRabbitDance.js&#45;&gt;src/js/director/Director.js</title>
<path fill="none" stroke="#000000" stroke-width="2" stroke-opacity="0.200000" d="M178.64,-110C208.96,-110 243.4,-110 268.69,-110"/>
<polygon fill="#000000" fill-opacity="0.200000" stroke="#000000" stroke-width="2" stroke-opacity="0.200000" points="268.55,-112.1 274.55,-110 268.55,-107.9 268.55,-112.1"/>
</g>
<!-- src/js/dispatcher/ApplicationDispatcher.js -->
<g id="node17" class="node">
<title>src/js/dispatcher/ApplicationDispatcher.js</title>
<g id="a_node17"><a xlink:href="src/js/dispatcher/ApplicationDispatcher.js" xlink:title="ApplicationDispatcher.js">
<path fill="#ffffcc" stroke="black" d="M160.08,-686.25C160.08,-686.25 58.17,-686.25 58.17,-686.25 55.08,-686.25 52,-683.17 52,-680.08 52,-680.08 52,-673.92 52,-673.92 52,-670.83 55.08,-667.75 58.17,-667.75 58.17,-667.75 160.08,-667.75 160.08,-667.75 163.17,-667.75 166.25,-670.83 166.25,-673.92 166.25,-673.92 166.25,-680.08 166.25,-680.08 166.25,-683.17 163.17,-686.25 160.08,-686.25"/>
<text text-anchor="start" x="60" y="-673.7" font-family="Helvetica,sans-Serif" font-size="9.00">ApplicationDispatcher.js</text>
</a>
</g>
</g>
<!-- src/js/dispatcher/ApplicationEvent.js -->
<g id="node18" class="node">
<title>src/js/dispatcher/ApplicationEvent.js</title>
<g id="a_node18"><a xlink:href="src/js/dispatcher/ApplicationEvent.js" xlink:title="ApplicationEvent.js">
<path fill="#ffffcc" stroke="black" d="M347.08,-686.25C347.08,-686.25 265.42,-686.25 265.42,-686.25 262.33,-686.25 259.25,-683.17 259.25,-680.08 259.25,-680.08 259.25,-673.92 259.25,-673.92 259.25,-670.83 262.33,-667.75 265.42,-667.75 265.42,-667.75 347.08,-667.75 347.08,-667.75 350.17,-667.75 353.25,-670.83 353.25,-673.92 353.25,-673.92 353.25,-680.08 353.25,-680.08 353.25,-683.17 350.17,-686.25 347.08,-686.25"/>
<text text-anchor="start" x="267.25" y="-673.7" font-family="Helvetica,sans-Serif" font-size="9.00">ApplicationEvent.js</text>
</a>
</g>
</g>
<!-- src/js/dispatcher/ApplicationDispatcher.js&#45;&gt;src/js/dispatcher/ApplicationEvent.js -->
<g id="edge12" class="edge">
<title>src/js/dispatcher/ApplicationDispatcher.js&#45;&gt;src/js/dispatcher/ApplicationEvent.js</title>
<path fill="none" stroke="#000000" stroke-width="2" stroke-opacity="0.200000" d="M166.56,-677C192.74,-677 223.75,-677 249.81,-677"/>
<polygon fill="#000000" fill-opacity="0.200000" stroke="#000000" stroke-width="2" stroke-opacity="0.200000" points="249.77,-679.1 255.77,-677 249.77,-674.9 249.77,-679.1"/>
</g>
<!-- src/js/index.js -->
<g id="node19" class="node">
<title>src/js/index.js</title>
<g id="a_node19"><a xlink:href="src/js/index.js" xlink:title="index.js">
<path fill="#ffffcc" stroke="black" d="M129.96,-933.25C129.96,-933.25 88.29,-933.25 88.29,-933.25 85.21,-933.25 82.12,-930.17 82.12,-927.08 82.12,-927.08 82.12,-920.92 82.12,-920.92 82.12,-917.83 85.21,-914.75 88.29,-914.75 88.29,-914.75 129.96,-914.75 129.96,-914.75 133.04,-914.75 136.12,-917.83 136.12,-920.92 136.12,-920.92 136.12,-927.08 136.12,-927.08 136.12,-930.17 133.04,-933.25 129.96,-933.25"/>
<text text-anchor="start" x="93.38" y="-920.7" font-family="Helvetica,sans-Serif" font-size="9.00">index.js</text>
</a>
</g>
</g>
<!-- src/js/index.js&#45;&gt;src/js/application/Application.js -->
<g id="edge13" class="edge">
<title>src/js/index.js&#45;&gt;src/js/application/Application.js</title>
<path fill="none" stroke="#000000" stroke-width="2" stroke-opacity="0.200000" d="M136.44,-924C168.51,-924 223.16,-924 261.57,-924"/>
<polygon fill="#000000" fill-opacity="0.200000" stroke="#000000" stroke-width="2" stroke-opacity="0.200000" points="261.45,-926.1 267.45,-924 261.45,-921.9 261.45,-926.1"/>
</g>
<!-- src/js/overlay/dispatcher/OverlayDispatcherEvent.js -->
<g id="node24" class="node">
<title>src/js/overlay/dispatcher/OverlayDispatcherEvent.js</title>
<g id="a_node24"><a xlink:href="src/js/overlay/dispatcher/OverlayDispatcherEvent.js" xlink:title="OverlayDispatcherEvent.js">
<path fill="#ffffcc" stroke="black" d="M1078.58,-880.25C1078.58,-880.25 966.92,-880.25 966.92,-880.25 963.83,-880.25 960.75,-877.17 960.75,-874.08 960.75,-874.08 960.75,-867.92 960.75,-867.92 960.75,-864.83 963.83,-861.75 966.92,-861.75 966.92,-861.75 1078.58,-861.75 1078.58,-861.75 1081.67,-861.75 1084.75,-864.83 1084.75,-867.92 1084.75,-867.92 1084.75,-874.08 1084.75,-874.08 1084.75,-877.17 1081.67,-880.25 1078.58,-880.25"/>
<text text-anchor="start" x="968.75" y="-867.7" font-family="Helvetica,sans-Serif" font-size="9.00">OverlayDispatcherEvent.js</text>
</a>
</g>
</g>
<!-- src/js/overlay/dispatcher/OverlayDispatcher.js&#45;&gt;src/js/overlay/dispatcher/OverlayDispatcherEvent.js -->
<g id="edge18" class="edge">
<title>src/js/overlay/dispatcher/OverlayDispatcher.js&#45;&gt;src/js/overlay/dispatcher/OverlayDispatcherEvent.js</title>
<path fill="none" stroke="#000000" stroke-width="2" stroke-opacity="0.200000" d="M943.47,-871C946.19,-871 948.94,-871 951.71,-871"/>
<polygon fill="#000000" fill-opacity="0.200000" stroke="#000000" stroke-width="2" stroke-opacity="0.200000" points="951.56,-873.1 957.56,-871 951.56,-868.9 951.56,-873.1"/>
</g>
<!-- src/js/overlay/OverlayUtil.js -->
<g id="node22" class="node">
<title>src/js/overlay/OverlayUtil.js</title>
<g id="a_node22"><a xlink:href="src/js/overlay/OverlayUtil.js" xlink:title="OverlayUtil.js">
<path fill="#ffffcc" stroke="black" d="M808.21,-779.25C808.21,-779.25 750.54,-779.25 750.54,-779.25 747.46,-779.25 744.38,-776.17 744.38,-773.08 744.38,-773.08 744.38,-766.92 744.38,-766.92 744.38,-763.83 747.46,-760.75 750.54,-760.75 750.54,-760.75 808.21,-760.75 808.21,-760.75 811.29,-760.75 814.38,-763.83 814.38,-766.92 814.38,-766.92 814.38,-773.08 814.38,-773.08 814.38,-776.17 811.29,-779.25 808.21,-779.25"/>
<text text-anchor="start" x="752.38" y="-766.7" font-family="Helvetica,sans-Serif" font-size="9.00">OverlayUtil.js</text>
</a>
</g>
</g>
<!-- src/js/overlay/overlay/OverlayOverlay.js&#45;&gt;src/js/overlay/OverlayUtil.js -->
<g id="edge21" class="edge">
<title>src/js/overlay/overlay/OverlayOverlay.js&#45;&gt;src/js/overlay/OverlayUtil.js</title>
<path fill="none" stroke="#000000" stroke-width="2" stroke-opacity="0.200000" d="M692.7,-851.32C700.5,-848.03 708.7,-843.92 715.62,-839 736.28,-824.34 755.12,-801.84 766.65,-786.55"/>
<polygon fill="#000000" fill-opacity="0.200000" stroke="#000000" stroke-width="2" stroke-opacity="0.200000" points="768.04,-788.2 769.91,-782.12 764.66,-785.71 768.04,-788.2"/>
</g>
<!-- src/js/overlay/OverlayUtil.js&#45;&gt;src/js/overlay/dispatcher/OverlayDispatcher.js -->
<g id="edge16" class="edge">
<title>src/js/overlay/OverlayUtil.js&#45;&gt;src/js/overlay/dispatcher/OverlayDispatcher.js</title>
<path fill="none" stroke="#000000" stroke-width="2" stroke-opacity="0.200000" d="M791.09,-779.68C810.5,-797.22 851.61,-834.39 874.97,-855.5"/>
<polygon fill="#000000" fill-opacity="0.200000" stroke="#000000" stroke-width="2" stroke-opacity="0.200000" points="873.5,-857 879.36,-859.46 876.32,-853.88 873.5,-857"/>
</g>
<!-- src/js/overlay/capture/OverlayCapture.js -->
<g id="node23" class="node">
<title>src/js/overlay/capture/OverlayCapture.js</title>
<g id="a_node23"><a xlink:href="src/js/overlay/capture/OverlayCapture.js" xlink:title="OverlayCapture.js">
<path fill="#ffffcc" stroke="black" d="M701.46,-626.25C701.46,-626.25 624.29,-626.25 624.29,-626.25 621.21,-626.25 618.12,-623.17 618.12,-620.08 618.12,-620.08 618.12,-613.92 618.12,-613.92 618.12,-610.83 621.21,-607.75 624.29,-607.75 624.29,-607.75 701.46,-607.75 701.46,-607.75 704.54,-607.75 707.62,-610.83 707.62,-613.92 707.62,-613.92 707.62,-620.08 707.62,-620.08 707.62,-623.17 704.54,-626.25 701.46,-626.25"/>
<text text-anchor="start" x="626.12" y="-613.7" font-family="Helvetica,sans-Serif" font-size="9.00">OverlayCapture.js</text>
</a>
</g>
</g>
<!-- src/js/overlay/capture/OverlayCapture.js&#45;&gt;src/js/overlay/OverlayUtil.js -->
<g id="edge17" class="edge">
<title>src/js/overlay/capture/OverlayCapture.js&#45;&gt;src/js/overlay/OverlayUtil.js</title>
<path fill="none" stroke="#000000" stroke-width="2" stroke-opacity="0.200000" d="M678.78,-626.46C689.88,-634.03 704.92,-645.44 715.62,-658 740.89,-687.65 760.91,-729.03 771.07,-752.29"/>
<polygon fill="#000000" fill-opacity="0.200000" stroke="#000000" stroke-width="2" stroke-opacity="0.200000" points="769.11,-753.05 773.39,-757.75 772.97,-751.4 769.11,-753.05"/>
</g>
<!-- src/js/overlay/format/OverlayFormat.js -->
<g id="node25" class="node">
<title>src/js/overlay/format/OverlayFormat.js</title>
<g id="a_node25"><a xlink:href="src/js/overlay/format/OverlayFormat.js" xlink:title="OverlayFormat.js">
<path fill="#ffffcc" stroke="black" d="M699.21,-687.25C699.21,-687.25 626.54,-687.25 626.54,-687.25 623.46,-687.25 620.38,-684.17 620.38,-681.08 620.38,-681.08 620.38,-674.92 620.38,-674.92 620.38,-671.83 623.46,-668.75 626.54,-668.75 626.54,-668.75 699.21,-668.75 699.21,-668.75 702.29,-668.75 705.38,-671.83 705.38,-674.92 705.38,-674.92 705.38,-681.08 705.38,-681.08 705.38,-684.17 702.29,-687.25 699.21,-687.25"/>
<text text-anchor="start" x="628.38" y="-674.7" font-family="Helvetica,sans-Serif" font-size="9.00">OverlayFormat.js</text>
</a>
</g>
</g>
<!-- src/js/overlay/format/OverlayFormat.js&#45;&gt;src/js/overlay/OverlayUtil.js -->
<g id="edge19" class="edge">
<title>src/js/overlay/format/OverlayFormat.js&#45;&gt;src/js/overlay/OverlayUtil.js</title>
<path fill="none" stroke="#000000" stroke-width="2" stroke-opacity="0.200000" d="M676.25,-687.73C686.75,-696.01 702.22,-708.24 715.62,-719 730.64,-731.05 747.56,-744.82 760.05,-755.01"/>
<polygon fill="#000000" fill-opacity="0.200000" stroke="#000000" stroke-width="2" stroke-opacity="0.200000" points="758.53,-756.47 764.5,-758.64 761.18,-753.22 758.53,-756.47"/>
</g>
<!-- src/js/overlay/media/OverlayMedia.js -->
<g id="node26" class="node">
<title>src/js/overlay/media/OverlayMedia.js</title>
<g id="a_node26"><a xlink:href="src/js/overlay/media/OverlayMedia.js" xlink:title="OverlayMedia.js">
<path fill="#ffffcc" stroke="black" d="M697.71,-748.25C697.71,-748.25 628.04,-748.25 628.04,-748.25 624.96,-748.25 621.88,-745.17 621.88,-742.08 621.88,-742.08 621.88,-735.92 621.88,-735.92 621.88,-732.83 624.96,-729.75 628.04,-729.75 628.04,-729.75 697.71,-729.75 697.71,-729.75 700.79,-729.75 703.88,-732.83 703.88,-735.92 703.88,-735.92 703.88,-742.08 703.88,-742.08 703.88,-745.17 700.79,-748.25 697.71,-748.25"/>
<text text-anchor="start" x="629.88" y="-735.7" font-family="Helvetica,sans-Serif" font-size="9.00">OverlayMedia.js</text>
</a>
</g>
</g>
<!-- src/js/overlay/media/OverlayMedia.js&#45;&gt;src/js/overlay/OverlayUtil.js -->
<g id="edge20" class="edge">
<title>src/js/overlay/media/OverlayMedia.js&#45;&gt;src/js/overlay/OverlayUtil.js</title>
<path fill="none" stroke="#000000" stroke-width="2" stroke-opacity="0.200000" d="M699.79,-748.72C711.19,-751.81 723.91,-755.25 735.73,-758.45"/>
<polygon fill="#000000" fill-opacity="0.200000" stroke="#000000" stroke-width="2" stroke-opacity="0.200000" points="734.89,-760.4 741.23,-759.94 735.99,-756.35 734.89,-760.4"/>
</g>
<!-- src/js/overlay/rhythm/OverlayRhythm.js -->
<g id="node27" class="node">
<title>src/js/overlay/rhythm/OverlayRhythm.js</title>
<g id="a_node27"><a xlink:href="src/js/overlay/rhythm/OverlayRhythm.js" xlink:title="OverlayRhythm.js">
<path fill="#ffffcc" stroke="black" d="M700.71,-809.25C700.71,-809.25 625.04,-809.25 625.04,-809.25 621.96,-809.25 618.88,-806.17 618.88,-803.08 618.88,-803.08 618.88,-796.92 618.88,-796.92 618.88,-793.83 621.96,-790.75 625.04,-790.75 625.04,-790.75 700.71,-790.75 700.71,-790.75 703.79,-790.75 706.88,-793.83 706.88,-796.92 706.88,-796.92 706.88,-803.08 706.88,-803.08 706.88,-806.17 703.79,-809.25 700.71,-809.25"/>
<text text-anchor="start" x="626.88" y="-796.7" font-family="Helvetica,sans-Serif" font-size="9.00">OverlayRhythm.js</text>
</a>
</g>
</g>
<!-- src/js/overlay/rhythm/OverlayRhythm.js&#45;&gt;src/js/overlay/OverlayUtil.js -->
<g id="edge22" class="edge">
<title>src/js/overlay/rhythm/OverlayRhythm.js&#45;&gt;src/js/overlay/OverlayUtil.js</title>
<path fill="none" stroke="#000000" stroke-width="2" stroke-opacity="0.200000" d="M701.05,-790.26C712.08,-787.37 724.25,-784.18 735.61,-781.21"/>
<polygon fill="#000000" fill-opacity="0.200000" stroke="#000000" stroke-width="2" stroke-opacity="0.200000" points="735.9,-783.3 741.17,-779.75 734.84,-779.24 735.9,-783.3"/>
</g>
<!-- src/js/rhythm/ViewRhythm.js -->
<g id="node28" class="node">
<title>src/js/rhythm/ViewRhythm.js</title>
<g id="a_node28"><a xlink:href="src/js/rhythm/ViewRhythm.js" xlink:title="ViewRhythm.js">
<path fill="#ffffcc" stroke="black" d="M141.33,-830.25C141.33,-830.25 76.92,-830.25 76.92,-830.25 73.83,-830.25 70.75,-827.17 70.75,-824.08 70.75,-824.08 70.75,-817.92 70.75,-817.92 70.75,-814.83 73.83,-811.75 76.92,-811.75 76.92,-811.75 141.33,-811.75 141.33,-811.75 144.42,-811.75 147.5,-814.83 147.5,-817.92 147.5,-817.92 147.5,-824.08 147.5,-824.08 147.5,-827.17 144.42,-830.25 141.33,-830.25"/>
<text text-anchor="start" x="78.75" y="-817.7" font-family="Helvetica,sans-Serif" font-size="9.00">ViewRhythm.js</text>
</a>
</g>
</g>
<!-- src/js/rhythm/ViewRhythmTrack.js -->
<g id="node29" class="node">
<title>src/js/rhythm/ViewRhythmTrack.js</title>
<g id="a_node29"><a xlink:href="src/js/rhythm/ViewRhythmTrack.js" xlink:title="ViewRhythmTrack.js">
<path fill="#ffffcc" stroke="black" d="M349.71,-830.25C349.71,-830.25 262.79,-830.25 262.79,-830.25 259.71,-830.25 256.62,-827.17 256.62,-824.08 256.62,-824.08 256.62,-817.92 256.62,-817.92 256.62,-814.83 259.71,-811.75 262.79,-811.75 262.79,-811.75 349.71,-811.75 349.71,-811.75 352.79,-811.75 355.88,-814.83 355.88,-817.92 355.88,-817.92 355.88,-824.08 355.88,-824.08 355.88,-827.17 352.79,-830.25 349.71,-830.25"/>
<text text-anchor="start" x="264.62" y="-817.7" font-family="Helvetica,sans-Serif" font-size="9.00">ViewRhythmTrack.js</text>
</a>
</g>
</g>
<!-- src/js/rhythm/ViewRhythm.js&#45;&gt;src/js/rhythm/ViewRhythmTrack.js -->
<g id="edge23" class="edge">
<title>src/js/rhythm/ViewRhythm.js&#45;&gt;src/js/rhythm/ViewRhythmTrack.js</title>
<path fill="none" stroke="#000000" stroke-width="2" stroke-opacity="0.200000" d="M147.75,-821C175.99,-821 215.17,-821 247.39,-821"/>
<polygon fill="#000000" fill-opacity="0.200000" stroke="#000000" stroke-width="2" stroke-opacity="0.200000" points="247.25,-823.1 253.25,-821 247.25,-818.9 247.25,-823.1"/>
</g>
<!-- src/js/view/render/RenderSurface.js -->
<g id="node31" class="node">
<title>src/js/view/render/RenderSurface.js</title>
<g id="a_node31"><a xlink:href="src/js/view/render/RenderSurface.js" xlink:title="RenderSurface.js">
<path fill="#ffffcc" stroke="black" d="M930.58,-1007.25C930.58,-1007.25 855.67,-1007.25 855.67,-1007.25 852.58,-1007.25 849.5,-1004.17 849.5,-1001.08 849.5,-1001.08 849.5,-994.92 849.5,-994.92 849.5,-991.83 852.58,-988.75 855.67,-988.75 855.67,-988.75 930.58,-988.75 930.58,-988.75 933.67,-988.75 936.75,-991.83 936.75,-994.92 936.75,-994.92 936.75,-1001.08 936.75,-1001.08 936.75,-1004.17 933.67,-1007.25 930.58,-1007.25"/>
<text text-anchor="start" x="857.5" y="-994.7" font-family="Helvetica,sans-Serif" font-size="9.00">RenderSurface.js</text>
</a>
</g>
</g>
<!-- src/js/view/render/RenderController.js&#45;&gt;src/js/view/render/RenderSurface.js -->
<g id="edge25" class="edge">
<title>src/js/view/render/RenderController.js&#45;&gt;src/js/view/render/RenderSurface.js</title>
<path fill="none" stroke="#000000" stroke-width="2" stroke-opacity="0.200000" d="M827.44,-998C831.69,-998 836.01,-998 840.3,-998"/>
<polygon fill="#000000" fill-opacity="0.200000" stroke="#000000" stroke-width="2" stroke-opacity="0.200000" points="840,-1000.1 846,-998 840,-995.9 840,-1000.1"/>
</g>
<!-- src/js/view/render/RenderResizer.js -->
<g id="node32" class="node">
<title>src/js/view/render/RenderResizer.js</title>
<g id="a_node32"><a xlink:href="src/js/view/render/RenderResizer.js" xlink:title="RenderResizer.js">
<path fill="#ffffcc" stroke="black" d="M816.46,-976.25C816.46,-976.25 742.29,-976.25 742.29,-976.25 739.21,-976.25 736.12,-973.17 736.12,-970.08 736.12,-970.08 736.12,-963.92 736.12,-963.92 736.12,-960.83 739.21,-957.75 742.29,-957.75 742.29,-957.75 816.46,-957.75 816.46,-957.75 819.54,-957.75 822.62,-960.83 822.62,-963.92 822.62,-963.92 822.62,-970.08 822.62,-970.08 822.62,-973.17 819.54,-976.25 816.46,-976.25"/>
<text text-anchor="start" x="744.12" y="-963.7" font-family="Helvetica,sans-Serif" font-size="9.00">RenderResizer.js</text>
</a>
</g>
</g>
<!-- src/js/view/render/RenderResizer.js&#45;&gt;src/js/overlay/dispatcher/OverlayDispatcher.js -->
<g id="edge26" class="edge">
<title>src/js/view/render/RenderResizer.js&#45;&gt;src/js/overlay/dispatcher/OverlayDispatcher.js</title>
<path fill="none" stroke="#000000" stroke-width="2" stroke-opacity="0.200000" d="M797.44,-957.31C806.58,-951.81 817.84,-944.54 827.12,-937 846.05,-921.64 865.35,-901.33 877.95,-887.32"/>
<polygon fill="#000000" fill-opacity="0.200000" stroke="#000000" stroke-width="2" stroke-opacity="0.200000" points="879.47,-888.77 881.88,-882.89 876.33,-885.98 879.47,-888.77"/>
</g>
</g>
</svg>
