<?xml version="1.0" encoding="UTF-8" standalone="no"?>
<!DOCTYPE svg PUBLIC "-//W3C//DTD SVG 1.1//EN"
 "http://www.w3.org/Graphics/SVG/1.1/DTD/svg11.dtd">
<!-- Generated by graphviz version 12.2.1 (20241206.2353)
 -->
<!-- Title: dependency&#45;cruiser output Pages: 1 -->
<svg width="997pt" height="842pt"
 viewBox="0.00 0.00 997.25 842.00" xmlns="http://www.w3.org/2000/svg" xmlns:xlink="http://www.w3.org/1999/xlink">
<g id="graph0" class="graph" transform="scale(1 1) rotate(0) translate(4 838)">
<title>dependency&#45;cruiser output</title>
<polygon fill="white" stroke="none" points="-4,4 -4,-838 993.25,-838 993.25,4 -4,4"/>
<g id="clust1" class="cluster">
<title>cluster_src</title>
<path fill="#ffffff" stroke="black" stroke-width="2" d="M20,-8C20,-8 969.25,-8 969.25,-8 975.25,-8 981.25,-14 981.25,-20 981.25,-20 981.25,-814 981.25,-814 981.25,-820 975.25,-826 969.25,-826 969.25,-826 20,-826 20,-826 14,-826 8,-820 8,-814 8,-814 8,-20 8,-20 8,-14 14,-8 20,-8"/>
<text text-anchor="middle" x="494.62" y="-813.45" font-family="Helvetica,sans-Serif" font-weight="bold" font-size="9.00">src</text>
</g>
<g id="clust2" class="cluster">
<title>cluster_src/js</title>
<path fill="#ffffff" stroke="black" stroke-width="2" d="M28,-16C28,-16 961.25,-16 961.25,-16 967.25,-16 973.25,-22 973.25,-28 973.25,-28 973.25,-787 973.25,-787 973.25,-793 967.25,-799 961.25,-799 961.25,-799 28,-799 28,-799 22,-799 16,-793 16,-787 16,-787 16,-28 16,-28 16,-22 22,-16 28,-16"/>
<text text-anchor="middle" x="494.62" y="-786.45" font-family="Helvetica,sans-Serif" font-weight="bold" font-size="9.00">js</text>
</g>
<g id="clust3" class="cluster">
<title>cluster_src/js/application</title>
<path fill="#ffffff" stroke="black" stroke-width="2" d="M274.88,-653C274.88,-653 337.62,-653 337.62,-653 343.62,-653 349.62,-659 349.62,-665 349.62,-665 349.62,-694 349.62,-694 349.62,-700 343.62,-706 337.62,-706 337.62,-706 274.88,-706 274.88,-706 268.88,-706 262.88,-700 262.88,-694 262.88,-694 262.88,-665 262.88,-665 262.88,-659 268.88,-653 274.88,-653"/>
<text text-anchor="middle" x="306.25" y="-693.45" font-family="Helvetica,sans-Serif" font-weight="bold" font-size="9.00">application</text>
</g>
<g id="clust4" class="cluster">
<title>cluster_src/js/controller</title>
<path fill="#ffffff" stroke="black" stroke-width="2" d="M423.12,-642C423.12,-642 479.88,-642 479.88,-642 485.88,-642 491.88,-648 491.88,-654 491.88,-654 491.88,-683 491.88,-683 491.88,-689 485.88,-695 479.88,-695 479.88,-695 423.12,-695 423.12,-695 417.12,-695 411.12,-689 411.12,-683 411.12,-683 411.12,-654 411.12,-654 411.12,-648 417.12,-642 423.12,-642"/>
<text text-anchor="middle" x="451.5" y="-682.45" font-family="Helvetica,sans-Serif" font-weight="bold" font-size="9.00">controller</text>
</g>
<g id="clust5" class="cluster">
<title>cluster_src/js/data</title>
<path fill="#ffffff" stroke="black" stroke-width="2" d="M71,-24C71,-24 329.75,-24 329.75,-24 335.75,-24 341.75,-30 341.75,-36 341.75,-36 341.75,-65 341.75,-65 341.75,-71 335.75,-77 329.75,-77 329.75,-77 71,-77 71,-77 65,-77 59,-71 59,-65 59,-65 59,-36 59,-36 59,-30 65,-24 71,-24"/>
<text text-anchor="middle" x="200.38" y="-64.45" font-family="Helvetica,sans-Serif" font-weight="bold" font-size="9.00">data</text>
</g>
<g id="clust6" class="cluster">
<title>cluster_src/js/directable</title>
<path fill="#ffffff" stroke="black" stroke-width="2" d="M206.25,-85C206.25,-85 589.25,-85 589.25,-85 595.25,-85 601.25,-91 601.25,-97 601.25,-97 601.25,-476 601.25,-476 601.25,-482 595.25,-488 589.25,-488 589.25,-488 206.25,-488 206.25,-488 200.25,-488 194.25,-482 194.25,-476 194.25,-476 194.25,-97 194.25,-97 194.25,-91 200.25,-85 206.25,-85"/>
<text text-anchor="middle" x="397.75" y="-475.45" font-family="Helvetica,sans-Serif" font-weight="bold" font-size="9.00">directable</text>
</g>
<g id="clust7" class="cluster">
<title>cluster_src/js/directable/directables</title>
<path fill="#ffffff" stroke="black" stroke-width="2" d="M214.25,-93C214.25,-93 504.75,-93 504.75,-93 510.75,-93 516.75,-99 516.75,-105 516.75,-105 516.75,-449 516.75,-449 516.75,-455 510.75,-461 504.75,-461 504.75,-461 214.25,-461 214.25,-461 208.25,-461 202.25,-455 202.25,-449 202.25,-449 202.25,-105 202.25,-105 202.25,-99 208.25,-93 214.25,-93"/>
<text text-anchor="middle" x="359.5" y="-448.45" font-family="Helvetica,sans-Serif" font-weight="bold" font-size="9.00">directables</text>
</g>
<g id="clust8" class="cluster">
<title>cluster_src/js/directable/directables/frame</title>
<path fill="#ffffff" stroke="black" stroke-width="2" d="M263.62,-320C263.62,-320 348.88,-320 348.88,-320 354.88,-320 360.88,-326 360.88,-332 360.88,-332 360.88,-361 360.88,-361 360.88,-367 354.88,-373 348.88,-373 348.88,-373 263.62,-373 263.62,-373 257.62,-373 251.62,-367 251.62,-361 251.62,-361 251.62,-332 251.62,-332 251.62,-326 257.62,-320 263.62,-320"/>
<text text-anchor="middle" x="306.25" y="-360.45" font-family="Helvetica,sans-Serif" font-weight="bold" font-size="9.00">frame</text>
</g>
<g id="clust9" class="cluster">
<title>cluster_src/js/directable/directables/rhythm</title>
<path fill="#ffffff" stroke="black" stroke-width="2" d="M222.25,-101C222.25,-101 496.75,-101 496.75,-101 502.75,-101 508.75,-107 508.75,-113 508.75,-113 508.75,-300 508.75,-300 508.75,-306 502.75,-312 496.75,-312 496.75,-312 222.25,-312 222.25,-312 216.25,-312 210.25,-306 210.25,-300 210.25,-300 210.25,-113 210.25,-113 210.25,-107 216.25,-101 222.25,-101"/>
<text text-anchor="middle" x="359.5" y="-299.45" font-family="Helvetica,sans-Serif" font-weight="bold" font-size="9.00">rhythm</text>
</g>
<g id="clust10" class="cluster">
<title>cluster_src/js/directable/directables/rhythm/asdr</title>
<path fill="#ffffff" stroke="black" stroke-width="2" d="M230.25,-109C230.25,-109 382.25,-109 382.25,-109 388.25,-109 394.25,-115 394.25,-121 394.25,-121 394.25,-212 394.25,-212 394.25,-218 388.25,-224 382.25,-224 382.25,-224 230.25,-224 230.25,-224 224.25,-224 218.25,-218 218.25,-212 218.25,-212 218.25,-121 218.25,-121 218.25,-115 224.25,-109 230.25,-109"/>
<text text-anchor="middle" x="306.25" y="-211.45" font-family="Helvetica,sans-Serif" font-weight="bold" font-size="9.00">asdr</text>
</g>
<g id="clust11" class="cluster">
<title>cluster_src/js/directable/directables/rhythm/bpm</title>
<path fill="#ffffff" stroke="black" stroke-width="2" d="M251.25,-232C251.25,-232 361.25,-232 361.25,-232 367.25,-232 373.25,-238 373.25,-244 373.25,-244 373.25,-273 373.25,-273 373.25,-279 367.25,-285 361.25,-285 361.25,-285 251.25,-285 251.25,-285 245.25,-285 239.25,-279 239.25,-273 239.25,-273 239.25,-244 239.25,-244 239.25,-238 245.25,-232 251.25,-232"/>
<text text-anchor="middle" x="306.25" y="-272.45" font-family="Helvetica,sans-Serif" font-weight="bold" font-size="9.00">bpm</text>
</g>
<g id="clust12" class="cluster">
<title>cluster_src/js/directable/directables/title</title>
<path fill="#ffffff" stroke="black" stroke-width="2" d="M268.12,-381C268.12,-381 344.38,-381 344.38,-381 350.38,-381 356.38,-387 356.38,-393 356.38,-393 356.38,-422 356.38,-422 356.38,-428 350.38,-434 344.38,-434 344.38,-434 268.12,-434 268.12,-434 262.12,-434 256.12,-428 256.12,-422 256.12,-422 256.12,-393 256.12,-393 256.12,-387 262.12,-381 268.12,-381"/>
<text text-anchor="middle" x="306.25" y="-421.45" font-family="Helvetica,sans-Serif" font-weight="bold" font-size="9.00">title</text>
</g>
<g id="clust13" class="cluster">
<title>cluster_src/js/director</title>
<path fill="#ffffff" stroke="black" stroke-width="2" d="M36,-496C36,-496 330.5,-496 330.5,-496 336.5,-496 342.5,-502 342.5,-508 342.5,-508 342.5,-572 342.5,-572 342.5,-578 336.5,-584 330.5,-584 330.5,-584 36,-584 36,-584 30,-584 24,-578 24,-572 24,-572 24,-508 24,-508 24,-502 30,-496 36,-496"/>
<text text-anchor="middle" x="183.25" y="-571.45" font-family="Helvetica,sans-Serif" font-weight="bold" font-size="9.00">director</text>
</g>
<g id="clust14" class="cluster">
<title>cluster_src/js/director/directors</title>
<path fill="#ffffff" stroke="black" stroke-width="2" d="M44,-504C44,-504 174.25,-504 174.25,-504 180.25,-504 186.25,-510 186.25,-516 186.25,-516 186.25,-545 186.25,-545 186.25,-551 180.25,-557 174.25,-557 174.25,-557 44,-557 44,-557 38,-557 32,-551 32,-545 32,-545 32,-516 32,-516 32,-510 38,-504 44,-504"/>
<text text-anchor="middle" x="109.12" y="-544.45" font-family="Helvetica,sans-Serif" font-weight="bold" font-size="9.00">directors</text>
</g>
<g id="clust15" class="cluster">
<title>cluster_src/js/enum</title>
<path fill="#ffffff" stroke="black" stroke-width="2" d="M872.5,-533C872.5,-533 953.25,-533 953.25,-533 959.25,-533 965.25,-539 965.25,-545 965.25,-545 965.25,-574 965.25,-574 965.25,-580 959.25,-586 953.25,-586 953.25,-586 872.5,-586 872.5,-586 866.5,-586 860.5,-580 860.5,-574 860.5,-574 860.5,-545 860.5,-545 860.5,-539 866.5,-533 872.5,-533"/>
<text text-anchor="middle" x="912.88" y="-573.45" font-family="Helvetica,sans-Serif" font-weight="bold" font-size="9.00">enum</text>
</g>
<g id="clust16" class="cluster">
<title>cluster_src/js/overlay</title>
<path fill="#ffffff" stroke="black" stroke-width="2" d="M641.12,-623C641.12,-623 943.88,-623 943.88,-623 949.88,-623 955.88,-629 955.88,-635 955.88,-635 955.88,-760 955.88,-760 955.88,-766 949.88,-772 943.88,-772 943.88,-772 641.12,-772 641.12,-772 635.12,-772 629.12,-766 629.12,-760 629.12,-760 629.12,-635 629.12,-635 629.12,-629 635.12,-623 641.12,-623"/>
<text text-anchor="middle" x="792.5" y="-759.45" font-family="Helvetica,sans-Serif" font-weight="bold" font-size="9.00">overlay</text>
</g>
<g id="clust17" class="cluster">
<title>cluster_src/js/overlay/displayFormat</title>
<path fill="#ffffff" stroke="black" stroke-width="2" d="M732.75,-631C732.75,-631 840.5,-631 840.5,-631 846.5,-631 852.5,-637 852.5,-643 852.5,-643 852.5,-672 852.5,-672 852.5,-678 846.5,-684 840.5,-684 840.5,-684 732.75,-684 732.75,-684 726.75,-684 720.75,-678 720.75,-672 720.75,-672 720.75,-643 720.75,-643 720.75,-637 726.75,-631 732.75,-631"/>
<text text-anchor="middle" x="786.62" y="-671.45" font-family="Helvetica,sans-Serif" font-weight="bold" font-size="9.00">displayFormat</text>
</g>
<g id="clust18" class="cluster">
<title>cluster_src/js/overlay/overlay</title>
<path fill="#ffffff" stroke="black" stroke-width="2" d="M747,-692C747,-692 826.25,-692 826.25,-692 832.25,-692 838.25,-698 838.25,-704 838.25,-704 838.25,-733 838.25,-733 838.25,-739 832.25,-745 826.25,-745 826.25,-745 747,-745 747,-745 741,-745 735,-739 735,-733 735,-733 735,-704 735,-704 735,-698 741,-692 747,-692"/>
<text text-anchor="middle" x="786.62" y="-732.45" font-family="Helvetica,sans-Serif" font-weight="bold" font-size="9.00">overlay</text>
</g>
<g id="clust19" class="cluster">
<title>cluster_src/js/rhythm</title>
<path fill="#ffffff" stroke="black" stroke-width="2" d="M74.75,-592C74.75,-592 351.88,-592 351.88,-592 357.88,-592 363.88,-598 363.88,-604 363.88,-604 363.88,-633 363.88,-633 363.88,-639 357.88,-645 351.88,-645 351.88,-645 74.75,-645 74.75,-645 68.75,-645 62.75,-639 62.75,-633 62.75,-633 62.75,-604 62.75,-604 62.75,-598 68.75,-592 74.75,-592"/>
<text text-anchor="middle" x="213.31" y="-632.45" font-family="Helvetica,sans-Serif" font-weight="bold" font-size="9.00">rhythm</text>
</g>
<g id="clust20" class="cluster">
<title>cluster_src/js/view</title>
<path fill="#ffffff" stroke="black" stroke-width="2" d="M536.75,-496C536.75,-496 834.25,-496 834.25,-496 840.25,-496 846.25,-502 846.25,-508 846.25,-508 846.25,-603 846.25,-603 846.25,-609 840.25,-615 834.25,-615 834.25,-615 536.75,-615 536.75,-615 530.75,-615 524.75,-609 524.75,-603 524.75,-603 524.75,-508 524.75,-508 524.75,-502 530.75,-496 536.75,-496"/>
<text text-anchor="middle" x="685.5" y="-602.45" font-family="Helvetica,sans-Serif" font-weight="bold" font-size="9.00">view</text>
</g>
<g id="clust21" class="cluster">
<title>cluster_src/js/view/render</title>
<path fill="#ffffff" stroke="black" stroke-width="2" d="M621.25,-504C621.25,-504 826.25,-504 826.25,-504 832.25,-504 838.25,-510 838.25,-516 838.25,-516 838.25,-576 838.25,-576 838.25,-582 832.25,-588 826.25,-588 826.25,-588 621.25,-588 621.25,-588 615.25,-588 609.25,-582 609.25,-576 609.25,-576 609.25,-516 609.25,-516 609.25,-510 615.25,-504 621.25,-504"/>
<text text-anchor="middle" x="723.75" y="-575.45" font-family="Helvetica,sans-Serif" font-weight="bold" font-size="9.00">render</text>
</g>
<!-- src/js/application/Application.js -->
<g id="node1" class="node">
<title>src/js/application/Application.js</title>
<g id="a_node1"><a xlink:href="src/js/application/Application.js" xlink:title="Application.js">
<path fill="#ffffcc" stroke="black" d="M335.46,-679.25C335.46,-679.25 277.04,-679.25 277.04,-679.25 273.96,-679.25 270.88,-676.17 270.88,-673.08 270.88,-673.08 270.88,-666.92 270.88,-666.92 270.88,-663.83 273.96,-660.75 277.04,-660.75 277.04,-660.75 335.46,-660.75 335.46,-660.75 338.54,-660.75 341.62,-663.83 341.62,-666.92 341.62,-666.92 341.62,-673.08 341.62,-673.08 341.62,-676.17 338.54,-679.25 335.46,-679.25"/>
<text text-anchor="start" x="278.88" y="-666.7" font-family="Helvetica,sans-Serif" font-size="9.00">Application.js</text>
</a>
</g>
</g>
<!-- src/js/controller/Controller.js -->
<g id="node2" class="node">
<title>src/js/controller/Controller.js</title>
<g id="a_node2"><a xlink:href="src/js/controller/Controller.js" xlink:title="Controller.js">
<path fill="#ffffcc" stroke="black" d="M477.71,-668.25C477.71,-668.25 425.29,-668.25 425.29,-668.25 422.21,-668.25 419.12,-665.17 419.12,-662.08 419.12,-662.08 419.12,-655.92 419.12,-655.92 419.12,-652.83 422.21,-649.75 425.29,-649.75 425.29,-649.75 477.71,-649.75 477.71,-649.75 480.79,-649.75 483.88,-652.83 483.88,-655.92 483.88,-655.92 483.88,-662.08 483.88,-662.08 483.88,-665.17 480.79,-668.25 477.71,-668.25"/>
<text text-anchor="start" x="427.12" y="-655.7" font-family="Helvetica,sans-Serif" font-size="9.00">Controller.js</text>
</a>
</g>
</g>
<!-- src/js/application/Application.js&#45;&gt;src/js/controller/Controller.js -->
<g id="edge1" class="edge">
<title>src/js/application/Application.js&#45;&gt;src/js/controller/Controller.js</title>
<path fill="none" stroke="#000000" stroke-width="2" stroke-opacity="0.200000" d="M341.93,-667.34C362.5,-665.76 388.68,-663.75 410.18,-662.1"/>
<polygon fill="#000000" fill-opacity="0.200000" stroke="#000000" stroke-width="2" stroke-opacity="0.200000" points="410.23,-664.2 416.06,-661.64 409.91,-660.01 410.23,-664.2"/>
</g>
<!-- src/js/overlay/Overlay.js -->
<g id="node3" class="node">
<title>src/js/overlay/Overlay.js</title>
<g id="a_node3"><a xlink:href="src/js/overlay/Overlay.js" xlink:title="Overlay.js">
<path fill="#ffffcc" stroke="black" d="M686.71,-668.25C686.71,-668.25 643.29,-668.25 643.29,-668.25 640.21,-668.25 637.12,-665.17 637.12,-662.08 637.12,-662.08 637.12,-655.92 637.12,-655.92 637.12,-652.83 640.21,-649.75 643.29,-649.75 643.29,-649.75 686.71,-649.75 686.71,-649.75 689.79,-649.75 692.88,-652.83 692.88,-655.92 692.88,-655.92 692.88,-662.08 692.88,-662.08 692.88,-665.17 689.79,-668.25 686.71,-668.25"/>
<text text-anchor="start" x="645.12" y="-655.7" font-family="Helvetica,sans-Serif" font-size="9.00">Overlay.js</text>
</a>
</g>
</g>
<!-- src/js/controller/Controller.js&#45;&gt;src/js/overlay/Overlay.js -->
<g id="edge2" class="edge">
<title>src/js/controller/Controller.js&#45;&gt;src/js/overlay/Overlay.js</title>
<path fill="none" stroke="#000000" stroke-width="2" stroke-opacity="0.200000" d="M484.16,-659C522.65,-659 587.45,-659 627.86,-659"/>
<polygon fill="#000000" fill-opacity="0.200000" stroke="#000000" stroke-width="2" stroke-opacity="0.200000" points="627.8,-661.1 633.8,-659 627.8,-656.9 627.8,-661.1"/>
</g>
<!-- src/js/view/View.js -->
<g id="node4" class="node">
<title>src/js/view/View.js</title>
<g id="a_node4"><a xlink:href="src/js/view/View.js" xlink:title="View.js">
<path fill="#ffffcc" stroke="black" d="M580.58,-559.25C580.58,-559.25 538.92,-559.25 538.92,-559.25 535.83,-559.25 532.75,-556.17 532.75,-553.08 532.75,-553.08 532.75,-546.92 532.75,-546.92 532.75,-543.83 535.83,-540.75 538.92,-540.75 538.92,-540.75 580.58,-540.75 580.58,-540.75 583.67,-540.75 586.75,-543.83 586.75,-546.92 586.75,-546.92 586.75,-553.08 586.75,-553.08 586.75,-556.17 583.67,-559.25 580.58,-559.25"/>
<text text-anchor="start" x="545.5" y="-546.7" font-family="Helvetica,sans-Serif" font-size="9.00">View.js</text>
</a>
</g>
</g>
<!-- src/js/controller/Controller.js&#45;&gt;src/js/view/View.js -->
<g id="edge3" class="edge">
<title>src/js/controller/Controller.js&#45;&gt;src/js/view/View.js</title>
<path fill="none" stroke="#000000" stroke-width="2" stroke-opacity="0.200000" d="M461.93,-649.33C480.33,-630.45 521.16,-588.57 543.47,-565.68"/>
<polygon fill="#000000" fill-opacity="0.200000" stroke="#000000" stroke-width="2" stroke-opacity="0.200000" points="544.7,-567.43 547.38,-561.66 541.69,-564.49 544.7,-567.43"/>
</g>
<!-- src/js/overlay/displayFormat/OverlayDisplayFormat.js -->
<g id="node19" class="node">
<title>src/js/overlay/displayFormat/OverlayDisplayFormat.js</title>
<g id="a_node19"><a xlink:href="src/js/overlay/displayFormat/OverlayDisplayFormat.js" xlink:title="OverlayDisplayFormat.js">
<path fill="#ffffcc" stroke="black" d="M838.33,-657.25C838.33,-657.25 734.92,-657.25 734.92,-657.25 731.83,-657.25 728.75,-654.17 728.75,-651.08 728.75,-651.08 728.75,-644.92 728.75,-644.92 728.75,-641.83 731.83,-638.75 734.92,-638.75 734.92,-638.75 838.33,-638.75 838.33,-638.75 841.42,-638.75 844.5,-641.83 844.5,-644.92 844.5,-644.92 844.5,-651.08 844.5,-651.08 844.5,-654.17 841.42,-657.25 838.33,-657.25"/>
<text text-anchor="start" x="736.75" y="-644.7" font-family="Helvetica,sans-Serif" font-size="9.00">OverlayDisplayFormat.js</text>
</a>
</g>
</g>
<!-- src/js/overlay/Overlay.js&#45;&gt;src/js/overlay/displayFormat/OverlayDisplayFormat.js -->
<g id="edge13" class="edge">
<title>src/js/overlay/Overlay.js&#45;&gt;src/js/overlay/displayFormat/OverlayDisplayFormat.js</title>
<path fill="none" stroke="#000000" stroke-width="2" stroke-opacity="0.200000" d="M693.14,-656.5C701.09,-655.77 710.13,-654.94 719.39,-654.09"/>
<polygon fill="#000000" fill-opacity="0.200000" stroke="#000000" stroke-width="2" stroke-opacity="0.200000" points="719.5,-656.19 725.28,-653.55 719.12,-652.01 719.5,-656.19"/>
</g>
<!-- src/js/overlay/overlay/OverlayOverlay.js -->
<g id="node20" class="node">
<title>src/js/overlay/overlay/OverlayOverlay.js</title>
<g id="a_node20"><a xlink:href="src/js/overlay/overlay/OverlayOverlay.js" xlink:title="OverlayOverlay.js">
<path fill="#ffffcc" stroke="black" d="M824.08,-718.25C824.08,-718.25 749.17,-718.25 749.17,-718.25 746.08,-718.25 743,-715.17 743,-712.08 743,-712.08 743,-705.92 743,-705.92 743,-702.83 746.08,-699.75 749.17,-699.75 749.17,-699.75 824.08,-699.75 824.08,-699.75 827.17,-699.75 830.25,-702.83 830.25,-705.92 830.25,-705.92 830.25,-712.08 830.25,-712.08 830.25,-715.17 827.17,-718.25 824.08,-718.25"/>
<text text-anchor="start" x="751" y="-705.7" font-family="Helvetica,sans-Serif" font-size="9.00">OverlayOverlay.js</text>
</a>
</g>
</g>
<!-- src/js/overlay/Overlay.js&#45;&gt;src/js/overlay/overlay/OverlayOverlay.js -->
<g id="edge14" class="edge">
<title>src/js/overlay/Overlay.js&#45;&gt;src/js/overlay/overlay/OverlayOverlay.js</title>
<path fill="none" stroke="#000000" stroke-width="2" stroke-opacity="0.200000" d="M683.44,-668.75C694.05,-674.46 707.97,-681.6 720.75,-687 728.64,-690.33 737.22,-693.53 745.48,-696.41"/>
<polygon fill="#000000" fill-opacity="0.200000" stroke="#000000" stroke-width="2" stroke-opacity="0.200000" points="744.71,-698.36 751.07,-698.3 746.06,-694.39 744.71,-698.36"/>
</g>
<!-- src/js/view/render/RenderController.js -->
<g id="node24" class="node">
<title>src/js/view/render/RenderController.js</title>
<g id="a_node24"><a xlink:href="src/js/view/render/RenderController.js" xlink:title="RenderController.js">
<path fill="#ffffcc" stroke="black" d="M706.58,-530.25C706.58,-530.25 623.42,-530.25 623.42,-530.25 620.33,-530.25 617.25,-527.17 617.25,-524.08 617.25,-524.08 617.25,-517.92 617.25,-517.92 617.25,-514.83 620.33,-511.75 623.42,-511.75 623.42,-511.75 706.58,-511.75 706.58,-511.75 709.67,-511.75 712.75,-514.83 712.75,-517.92 712.75,-517.92 712.75,-524.08 712.75,-524.08 712.75,-527.17 709.67,-530.25 706.58,-530.25"/>
<text text-anchor="start" x="625.25" y="-517.7" font-family="Helvetica,sans-Serif" font-size="9.00">RenderController.js</text>
</a>
</g>
</g>
<!-- src/js/view/View.js&#45;&gt;src/js/view/render/RenderController.js -->
<g id="edge19" class="edge">
<title>src/js/view/View.js&#45;&gt;src/js/view/render/RenderController.js</title>
<path fill="none" stroke="#000000" stroke-width="2" stroke-opacity="0.200000" d="M587.07,-542.61C597.36,-539.72 609.42,-536.33 620.9,-533.1"/>
<polygon fill="#000000" fill-opacity="0.200000" stroke="#000000" stroke-width="2" stroke-opacity="0.200000" points="621.41,-535.14 626.62,-531.5 620.28,-531.1 621.41,-535.14"/>
</g>
<!-- src/js/data/Data.json -->
<g id="node5" class="node">
<title>src/js/data/Data.json</title>
<g id="a_node5"><a xlink:href="src/js/data/Data.json" xlink:title="Data.json">
<path fill="#ffee44" stroke="black" d="M327.58,-50.25C327.58,-50.25 284.92,-50.25 284.92,-50.25 281.83,-50.25 278.75,-47.17 278.75,-44.08 278.75,-44.08 278.75,-37.92 278.75,-37.92 278.75,-34.83 281.83,-31.75 284.92,-31.75 284.92,-31.75 327.58,-31.75 327.58,-31.75 330.67,-31.75 333.75,-34.83 333.75,-37.92 333.75,-37.92 333.75,-44.08 333.75,-44.08 333.75,-47.17 330.67,-50.25 327.58,-50.25"/>
<text text-anchor="start" x="286.75" y="-37.7" font-family="Helvetica,sans-Serif" font-size="9.00">Data.json</text>
</a>
</g>
</g>
<!-- src/js/data/DataController.js -->
<g id="node6" class="node">
<title>src/js/data/DataController.js</title>
<g id="a_node6"><a xlink:href="src/js/data/DataController.js" xlink:title="DataController.js">
<path fill="#ffffcc" stroke="black" d="M145.08,-50.25C145.08,-50.25 73.17,-50.25 73.17,-50.25 70.08,-50.25 67,-47.17 67,-44.08 67,-44.08 67,-37.92 67,-37.92 67,-34.83 70.08,-31.75 73.17,-31.75 73.17,-31.75 145.08,-31.75 145.08,-31.75 148.17,-31.75 151.25,-34.83 151.25,-37.92 151.25,-37.92 151.25,-44.08 151.25,-44.08 151.25,-47.17 148.17,-50.25 145.08,-50.25"/>
<text text-anchor="start" x="75" y="-37.7" font-family="Helvetica,sans-Serif" font-size="9.00">DataController.js</text>
</a>
</g>
</g>
<!-- src/js/data/DataController.js&#45;&gt;src/js/data/Data.json -->
<g id="edge4" class="edge">
<title>src/js/data/DataController.js&#45;&gt;src/js/data/Data.json</title>
<path fill="none" stroke="#000000" stroke-width="2" stroke-opacity="0.200000" d="M151.51,-41C186.48,-41 236.06,-41 269.37,-41"/>
<polygon fill="#000000" fill-opacity="0.200000" stroke="#000000" stroke-width="2" stroke-opacity="0.200000" points="269.28,-43.1 275.28,-41 269.28,-38.9 269.28,-43.1"/>
</g>
<!-- src/js/directable/Directable.js -->
<g id="node7" class="node">
<title>src/js/directable/Directable.js</title>
<g id="a_node7"><a xlink:href="src/js/directable/Directable.js" xlink:title="Directable.js">
<path fill="#ffffcc" stroke="black" d="M587.08,-346.25C587.08,-346.25 532.42,-346.25 532.42,-346.25 529.33,-346.25 526.25,-343.17 526.25,-340.08 526.25,-340.08 526.25,-333.92 526.25,-333.92 526.25,-330.83 529.33,-327.75 532.42,-327.75 532.42,-327.75 587.08,-327.75 587.08,-327.75 590.17,-327.75 593.25,-330.83 593.25,-333.92 593.25,-333.92 593.25,-340.08 593.25,-340.08 593.25,-343.17 590.17,-346.25 587.08,-346.25"/>
<text text-anchor="start" x="534.25" y="-333.7" font-family="Helvetica,sans-Serif" font-size="9.00">Directable.js</text>
</a>
</g>
</g>
<!-- src/js/directable/directables/frame/DirectableFrame.js -->
<g id="node8" class="node">
<title>src/js/directable/directables/frame/DirectableFrame.js</title>
<g id="a_node8"><a xlink:href="src/js/directable/directables/frame/DirectableFrame.js" xlink:title="DirectableFrame.js">
<path fill="#ffffcc" stroke="black" d="M346.71,-346.25C346.71,-346.25 265.79,-346.25 265.79,-346.25 262.71,-346.25 259.62,-343.17 259.62,-340.08 259.62,-340.08 259.62,-333.92 259.62,-333.92 259.62,-330.83 262.71,-327.75 265.79,-327.75 265.79,-327.75 346.71,-327.75 346.71,-327.75 349.79,-327.75 352.88,-330.83 352.88,-333.92 352.88,-333.92 352.88,-340.08 352.88,-340.08 352.88,-343.17 349.79,-346.25 346.71,-346.25"/>
<text text-anchor="start" x="267.62" y="-333.7" font-family="Helvetica,sans-Serif" font-size="9.00">DirectableFrame.js</text>
</a>
</g>
</g>
<!-- src/js/directable/directables/frame/DirectableFrame.js&#45;&gt;src/js/directable/Directable.js -->
<g id="edge5" class="edge">
<title>src/js/directable/directables/frame/DirectableFrame.js&#45;&gt;src/js/directable/Directable.js</title>
<path fill="none" stroke="#000000" stroke-width="2" stroke-opacity="0.200000" d="M353.09,-337C399.88,-337 471.87,-337 517.09,-337"/>
<polygon fill="#000000" fill-opacity="0.200000" stroke="#000000" stroke-width="2" stroke-opacity="0.200000" points="517.01,-339.1 523.01,-337 517.01,-334.9 517.01,-339.1"/>
</g>
<!-- src/js/directable/directables/rhythm/DirectableRhythm.js -->
<g id="node9" class="node">
<title>src/js/directable/directables/rhythm/DirectableRhythm.js</title>
<g id="a_node9"><a xlink:href="src/js/directable/directables/rhythm/DirectableRhythm.js" xlink:title="DirectableRhythm.js">
<path fill="#ffffcc" stroke="black" d="M494.58,-272.25C494.58,-272.25 408.42,-272.25 408.42,-272.25 405.33,-272.25 402.25,-269.17 402.25,-266.08 402.25,-266.08 402.25,-259.92 402.25,-259.92 402.25,-256.83 405.33,-253.75 408.42,-253.75 408.42,-253.75 494.58,-253.75 494.58,-253.75 497.67,-253.75 500.75,-256.83 500.75,-259.92 500.75,-259.92 500.75,-266.08 500.75,-266.08 500.75,-269.17 497.67,-272.25 494.58,-272.25"/>
<text text-anchor="start" x="410.25" y="-259.7" font-family="Helvetica,sans-Serif" font-size="9.00">DirectableRhythm.js</text>
</a>
</g>
</g>
<!-- src/js/directable/directables/rhythm/DirectableRhythm.js&#45;&gt;src/js/directable/Directable.js -->
<g id="edge6" class="edge">
<title>src/js/directable/directables/rhythm/DirectableRhythm.js&#45;&gt;src/js/directable/Directable.js</title>
<path fill="none" stroke="#000000" stroke-width="2" stroke-opacity="0.200000" d="M501.13,-268.61C506.66,-270.46 512,-272.86 516.75,-276 532.74,-286.56 544.35,-305.51 551.26,-319.49"/>
<polygon fill="#000000" fill-opacity="0.200000" stroke="#000000" stroke-width="2" stroke-opacity="0.200000" points="549.24,-320.13 553.67,-324.69 553.05,-318.36 549.24,-320.13"/>
</g>
<!-- src/js/directable/directables/rhythm/asdr/ASDRData.js -->
<g id="node10" class="node">
<title>src/js/directable/directables/rhythm/asdr/ASDRData.js</title>
<g id="a_node10"><a xlink:href="src/js/directable/directables/rhythm/asdr/ASDRData.js" xlink:title="ASDRData.js">
<path fill="#ccffcc" stroke="black" d="M335.08,-135.25C335.08,-135.25 277.42,-135.25 277.42,-135.25 274.33,-135.25 271.25,-132.17 271.25,-129.08 271.25,-129.08 271.25,-122.92 271.25,-122.92 271.25,-119.83 274.33,-116.75 277.42,-116.75 277.42,-116.75 335.08,-116.75 335.08,-116.75 338.17,-116.75 341.25,-119.83 341.25,-122.92 341.25,-122.92 341.25,-129.08 341.25,-129.08 341.25,-132.17 338.17,-135.25 335.08,-135.25"/>
<text text-anchor="start" x="279.25" y="-122.7" font-family="Helvetica,sans-Serif" font-size="9.00">ASDRData.js</text>
</a>
</g>
</g>
<!-- src/js/directable/directables/rhythm/asdr/ASDREnvelope.js -->
<g id="node11" class="node">
<title>src/js/directable/directables/rhythm/asdr/ASDREnvelope.js</title>
<g id="a_node11"><a xlink:href="src/js/directable/directables/rhythm/asdr/ASDREnvelope.js" xlink:title="ASDREnvelope.js">
<path fill="#ffffcc" stroke="black" d="M344.83,-166.25C344.83,-166.25 267.67,-166.25 267.67,-166.25 264.58,-166.25 261.5,-163.17 261.5,-160.08 261.5,-160.08 261.5,-153.92 261.5,-153.92 261.5,-150.83 264.58,-147.75 267.67,-147.75 267.67,-147.75 344.83,-147.75 344.83,-147.75 347.92,-147.75 351,-150.83 351,-153.92 351,-153.92 351,-160.08 351,-160.08 351,-163.17 347.92,-166.25 344.83,-166.25"/>
<text text-anchor="start" x="269.5" y="-153.7" font-family="Helvetica,sans-Serif" font-size="9.00">ASDREnvelope.js</text>
</a>
</g>
</g>
<!-- src/js/directable/directables/rhythm/asdr/DirectableRhythmASDRManager.js -->
<g id="node12" class="node">
<title>src/js/directable/directables/rhythm/asdr/DirectableRhythmASDRManager.js</title>
<g id="a_node12"><a xlink:href="src/js/directable/directables/rhythm/asdr/DirectableRhythmASDRManager.js" xlink:title="DirectableRhythmASDRManager.js">
<path fill="#ffffcc" stroke="black" d="M380.08,-197.25C380.08,-197.25 232.42,-197.25 232.42,-197.25 229.33,-197.25 226.25,-194.17 226.25,-191.08 226.25,-191.08 226.25,-184.92 226.25,-184.92 226.25,-181.83 229.33,-178.75 232.42,-178.75 232.42,-178.75 380.08,-178.75 380.08,-178.75 383.17,-178.75 386.25,-181.83 386.25,-184.92 386.25,-184.92 386.25,-191.08 386.25,-191.08 386.25,-194.17 383.17,-197.25 380.08,-197.25"/>
<text text-anchor="start" x="234.25" y="-184.7" font-family="Helvetica,sans-Serif" font-size="9.00">DirectableRhythmASDRManager.js</text>
</a>
</g>
</g>
<!-- src/js/directable/directables/rhythm/bpm/DirectableRhythmBPM.js -->
<g id="node13" class="node">
<title>src/js/directable/directables/rhythm/bpm/DirectableRhythmBPM.js</title>
<g id="a_node13"><a xlink:href="src/js/directable/directables/rhythm/bpm/DirectableRhythmBPM.js" xlink:title="DirectableRhythmBPM.js">
<path fill="#ffffcc" stroke="black" d="M359.08,-258.25C359.08,-258.25 253.42,-258.25 253.42,-258.25 250.33,-258.25 247.25,-255.17 247.25,-252.08 247.25,-252.08 247.25,-245.92 247.25,-245.92 247.25,-242.83 250.33,-239.75 253.42,-239.75 253.42,-239.75 359.08,-239.75 359.08,-239.75 362.17,-239.75 365.25,-242.83 365.25,-245.92 365.25,-245.92 365.25,-252.08 365.25,-252.08 365.25,-255.17 362.17,-258.25 359.08,-258.25"/>
<text text-anchor="start" x="255.25" y="-245.7" font-family="Helvetica,sans-Serif" font-size="9.00">DirectableRhythmBPM.js</text>
</a>
</g>
</g>
<!-- src/js/directable/directables/rhythm/bpm/DirectableRhythmBPM.js&#45;&gt;src/js/directable/directables/rhythm/DirectableRhythm.js -->
<g id="edge7" class="edge">
<title>src/js/directable/directables/rhythm/bpm/DirectableRhythmBPM.js&#45;&gt;src/js/directable/directables/rhythm/DirectableRhythm.js</title>
<path fill="none" stroke="#000000" stroke-width="2" stroke-opacity="0.200000" d="M365.52,-254.69C374.58,-255.58 383.94,-256.49 392.98,-257.38"/>
<polygon fill="#000000" fill-opacity="0.200000" stroke="#000000" stroke-width="2" stroke-opacity="0.200000" points="392.71,-259.46 398.89,-257.96 393.12,-255.28 392.71,-259.46"/>
</g>
<!-- src/js/directable/directables/title/DirectableTitle.js -->
<g id="node14" class="node">
<title>src/js/directable/directables/title/DirectableTitle.js</title>
<g id="a_node14"><a xlink:href="src/js/directable/directables/title/DirectableTitle.js" xlink:title="DirectableTitle.js">
<path fill="#ffffcc" stroke="black" d="M342.21,-407.25C342.21,-407.25 270.29,-407.25 270.29,-407.25 267.21,-407.25 264.12,-404.17 264.12,-401.08 264.12,-401.08 264.12,-394.92 264.12,-394.92 264.12,-391.83 267.21,-388.75 270.29,-388.75 270.29,-388.75 342.21,-388.75 342.21,-388.75 345.29,-388.75 348.38,-391.83 348.38,-394.92 348.38,-394.92 348.38,-401.08 348.38,-401.08 348.38,-404.17 345.29,-407.25 342.21,-407.25"/>
<text text-anchor="start" x="272.12" y="-394.7" font-family="Helvetica,sans-Serif" font-size="9.00">DirectableTitle.js</text>
</a>
</g>
</g>
<!-- src/js/directable/directables/title/DirectableTitle.js&#45;&gt;src/js/directable/Directable.js -->
<g id="edge8" class="edge">
<title>src/js/directable/directables/title/DirectableTitle.js&#45;&gt;src/js/directable/Directable.js</title>
<path fill="none" stroke="#000000" stroke-width="2" stroke-opacity="0.200000" d="M347.38,-388.27C393.89,-376.99 470.16,-358.49 517.25,-347.07"/>
<polygon fill="#000000" fill-opacity="0.200000" stroke="#000000" stroke-width="2" stroke-opacity="0.200000" points="517.7,-349.12 523.03,-345.66 516.71,-345.04 517.7,-349.12"/>
</g>
<!-- src/js/director/Director.js -->
<g id="node15" class="node">
<title>src/js/director/Director.js</title>
<g id="a_node15"><a xlink:href="src/js/director/Director.js" xlink:title="Director.js">
<path fill="#ffffcc" stroke="black" d="M328.33,-530.25C328.33,-530.25 284.17,-530.25 284.17,-530.25 281.08,-530.25 278,-527.17 278,-524.08 278,-524.08 278,-517.92 278,-517.92 278,-514.83 281.08,-511.75 284.17,-511.75 284.17,-511.75 328.33,-511.75 328.33,-511.75 331.42,-511.75 334.5,-514.83 334.5,-517.92 334.5,-517.92 334.5,-524.08 334.5,-524.08 334.5,-527.17 331.42,-530.25 328.33,-530.25"/>
<text text-anchor="start" x="286" y="-517.7" font-family="Helvetica,sans-Serif" font-size="9.00">Director.js</text>
</a>
</g>
</g>
<!-- src/js/director/directors/DirectorDanceRabbitDance.js -->
<g id="node16" class="node">
<title>src/js/director/directors/DirectorDanceRabbitDance.js</title>
<g id="a_node16"><a xlink:href="src/js/director/directors/DirectorDanceRabbitDance.js" xlink:title="DirectorDanceRabbitDance.js">
<path fill="#ffffcc" stroke="black" d="M172.08,-530.25C172.08,-530.25 46.17,-530.25 46.17,-530.25 43.08,-530.25 40,-527.17 40,-524.08 40,-524.08 40,-517.92 40,-517.92 40,-514.83 43.08,-511.75 46.17,-511.75 46.17,-511.75 172.08,-511.75 172.08,-511.75 175.17,-511.75 178.25,-514.83 178.25,-517.92 178.25,-517.92 178.25,-524.08 178.25,-524.08 178.25,-527.17 175.17,-530.25 172.08,-530.25"/>
<text text-anchor="start" x="48" y="-517.7" font-family="Helvetica,sans-Serif" font-size="9.00">DirectorDanceRabbitDance.js</text>
</a>
</g>
</g>
<!-- src/js/director/directors/DirectorDanceRabbitDance.js&#45;&gt;src/js/directable/directables/rhythm/bpm/DirectableRhythmBPM.js -->
<g id="edge9" class="edge">
<title>src/js/director/directors/DirectorDanceRabbitDance.js&#45;&gt;src/js/directable/directables/rhythm/bpm/DirectableRhythmBPM.js</title>
<path fill="none" stroke="#000000" stroke-width="2" stroke-opacity="0.200000" d="M111.88,-511.37C118.01,-480.02 141.05,-379.38 194.25,-317 215.46,-292.13 248.14,-273.65 272.56,-262.29"/>
<polygon fill="#000000" fill-opacity="0.200000" stroke="#000000" stroke-width="2" stroke-opacity="0.200000" points="273.13,-264.33 277.73,-259.95 271.4,-260.5 273.13,-264.33"/>
</g>
<!-- src/js/director/directors/DirectorDanceRabbitDance.js&#45;&gt;src/js/directable/directables/title/DirectableTitle.js -->
<g id="edge10" class="edge">
<title>src/js/director/directors/DirectorDanceRabbitDance.js&#45;&gt;src/js/directable/directables/title/DirectableTitle.js</title>
<path fill="none" stroke="#000000" stroke-width="2" stroke-opacity="0.200000" d="M125.44,-511.35C159.63,-489.79 242.36,-437.64 282.56,-412.3"/>
<polygon fill="#000000" fill-opacity="0.200000" stroke="#000000" stroke-width="2" stroke-opacity="0.200000" points="283.49,-414.2 287.45,-409.22 281.25,-410.64 283.49,-414.2"/>
</g>
<!-- src/js/director/directors/DirectorDanceRabbitDance.js&#45;&gt;src/js/director/Director.js -->
<g id="edge11" class="edge">
<title>src/js/director/directors/DirectorDanceRabbitDance.js&#45;&gt;src/js/director/Director.js</title>
<path fill="none" stroke="#000000" stroke-width="2" stroke-opacity="0.200000" d="M178.64,-521C208.96,-521 243.4,-521 268.69,-521"/>
<polygon fill="#000000" fill-opacity="0.200000" stroke="#000000" stroke-width="2" stroke-opacity="0.200000" points="268.55,-523.1 274.55,-521 268.55,-518.9 268.55,-523.1"/>
</g>
<!-- src/js/enum/DisplayFormats.js -->
<g id="node17" class="node">
<title>src/js/enum/DisplayFormats.js</title>
<g id="a_node17"><a xlink:href="src/js/enum/DisplayFormats.js" xlink:title="DisplayFormats.js">
<path fill="#ffffcc" stroke="black" d="M951.08,-559.25C951.08,-559.25 874.67,-559.25 874.67,-559.25 871.58,-559.25 868.5,-556.17 868.5,-553.08 868.5,-553.08 868.5,-546.92 868.5,-546.92 868.5,-543.83 871.58,-540.75 874.67,-540.75 874.67,-540.75 951.08,-540.75 951.08,-540.75 954.17,-540.75 957.25,-543.83 957.25,-546.92 957.25,-546.92 957.25,-553.08 957.25,-553.08 957.25,-556.17 954.17,-559.25 951.08,-559.25"/>
<text text-anchor="start" x="876.5" y="-546.7" font-family="Helvetica,sans-Serif" font-size="9.00">DisplayFormats.js</text>
</a>
</g>
</g>
<!-- src/js/index.js -->
<g id="node18" class="node">
<title>src/js/index.js</title>
<g id="a_node18"><a xlink:href="src/js/index.js" xlink:title="index.js">
<path fill="#ffffcc" stroke="black" d="M129.96,-679.25C129.96,-679.25 88.29,-679.25 88.29,-679.25 85.21,-679.25 82.12,-676.17 82.12,-673.08 82.12,-673.08 82.12,-666.92 82.12,-666.92 82.12,-663.83 85.21,-660.75 88.29,-660.75 88.29,-660.75 129.96,-660.75 129.96,-660.75 133.04,-660.75 136.12,-663.83 136.12,-666.92 136.12,-666.92 136.12,-673.08 136.12,-673.08 136.12,-676.17 133.04,-679.25 129.96,-679.25"/>
<text text-anchor="start" x="93.38" y="-666.7" font-family="Helvetica,sans-Serif" font-size="9.00">index.js</text>
</a>
</g>
</g>
<!-- src/js/index.js&#45;&gt;src/js/application/Application.js -->
<g id="edge12" class="edge">
<title>src/js/index.js&#45;&gt;src/js/application/Application.js</title>
<path fill="none" stroke="#000000" stroke-width="2" stroke-opacity="0.200000" d="M136.44,-670C168.51,-670 223.16,-670 261.57,-670"/>
<polygon fill="#000000" fill-opacity="0.200000" stroke="#000000" stroke-width="2" stroke-opacity="0.200000" points="261.45,-672.1 267.45,-670 261.45,-667.9 261.45,-672.1"/>
</g>
<!-- src/js/overlay/displayFormat/OverlayDisplayFormat.js&#45;&gt;src/js/enum/DisplayFormats.js -->
<g id="edge15" class="edge">
<title>src/js/overlay/displayFormat/OverlayDisplayFormat.js&#45;&gt;src/js/enum/DisplayFormats.js</title>
<path fill="none" stroke="#000000" stroke-width="2" stroke-opacity="0.200000" d="M799.54,-638.6C821.1,-621.6 866.76,-585.59 892.74,-565.09"/>
<polygon fill="#000000" fill-opacity="0.200000" stroke="#000000" stroke-width="2" stroke-opacity="0.200000" points="894.03,-566.75 897.44,-561.39 891.43,-563.45 894.03,-566.75"/>
</g>
<!-- src/js/overlay/OverlayUtil.js -->
<g id="node21" class="node">
<title>src/js/overlay/OverlayUtil.js</title>
<g id="a_node21"><a xlink:href="src/js/overlay/OverlayUtil.js" xlink:title="OverlayUtil.js">
<path fill="#ffffcc" stroke="black" d="M941.71,-687.25C941.71,-687.25 884.04,-687.25 884.04,-687.25 880.96,-687.25 877.88,-684.17 877.88,-681.08 877.88,-681.08 877.88,-674.92 877.88,-674.92 877.88,-671.83 880.96,-668.75 884.04,-668.75 884.04,-668.75 941.71,-668.75 941.71,-668.75 944.79,-668.75 947.88,-671.83 947.88,-674.92 947.88,-674.92 947.88,-681.08 947.88,-681.08 947.88,-684.17 944.79,-687.25 941.71,-687.25"/>
<text text-anchor="start" x="885.88" y="-674.7" font-family="Helvetica,sans-Serif" font-size="9.00">OverlayUtil.js</text>
</a>
</g>
</g>
<!-- src/js/overlay/displayFormat/OverlayDisplayFormat.js&#45;&gt;src/js/overlay/OverlayUtil.js -->
<g id="edge16" class="edge">
<title>src/js/overlay/displayFormat/OverlayDisplayFormat.js&#45;&gt;src/js/overlay/OverlayUtil.js</title>
<path fill="none" stroke="#000000" stroke-width="2" stroke-opacity="0.200000" d="M827.97,-657.74C841.1,-660.91 855.73,-664.44 869.04,-667.66"/>
<polygon fill="#000000" fill-opacity="0.200000" stroke="#000000" stroke-width="2" stroke-opacity="0.200000" points="868.3,-669.64 874.63,-669.01 869.29,-665.56 868.3,-669.64"/>
</g>
<!-- src/js/overlay/overlay/OverlayOverlay.js&#45;&gt;src/js/overlay/OverlayUtil.js -->
<g id="edge17" class="edge">
<title>src/js/overlay/overlay/OverlayOverlay.js&#45;&gt;src/js/overlay/OverlayUtil.js</title>
<path fill="none" stroke="#000000" stroke-width="2" stroke-opacity="0.200000" d="M826.6,-699.28C840.15,-695.89 855.42,-692.08 869.26,-688.63"/>
<polygon fill="#000000" fill-opacity="0.200000" stroke="#000000" stroke-width="2" stroke-opacity="0.200000" points="869.41,-690.76 874.72,-687.27 868.39,-686.68 869.41,-690.76"/>
</g>
<!-- src/js/rhythm/ViewRhythm.js -->
<g id="node22" class="node">
<title>src/js/rhythm/ViewRhythm.js</title>
<g id="a_node22"><a xlink:href="src/js/rhythm/ViewRhythm.js" xlink:title="ViewRhythm.js">
<path fill="#ffffcc" stroke="black" d="M141.33,-618.25C141.33,-618.25 76.92,-618.25 76.92,-618.25 73.83,-618.25 70.75,-615.17 70.75,-612.08 70.75,-612.08 70.75,-605.92 70.75,-605.92 70.75,-602.83 73.83,-599.75 76.92,-599.75 76.92,-599.75 141.33,-599.75 141.33,-599.75 144.42,-599.75 147.5,-602.83 147.5,-605.92 147.5,-605.92 147.5,-612.08 147.5,-612.08 147.5,-615.17 144.42,-618.25 141.33,-618.25"/>
<text text-anchor="start" x="78.75" y="-605.7" font-family="Helvetica,sans-Serif" font-size="9.00">ViewRhythm.js</text>
</a>
</g>
</g>
<!-- src/js/rhythm/ViewRhythmTrack.js -->
<g id="node23" class="node">
<title>src/js/rhythm/ViewRhythmTrack.js</title>
<g id="a_node23"><a xlink:href="src/js/rhythm/ViewRhythmTrack.js" xlink:title="ViewRhythmTrack.js">
<path fill="#ffffcc" stroke="black" d="M349.71,-618.25C349.71,-618.25 262.79,-618.25 262.79,-618.25 259.71,-618.25 256.62,-615.17 256.62,-612.08 256.62,-612.08 256.62,-605.92 256.62,-605.92 256.62,-602.83 259.71,-599.75 262.79,-599.75 262.79,-599.75 349.71,-599.75 349.71,-599.75 352.79,-599.75 355.88,-602.83 355.88,-605.92 355.88,-605.92 355.88,-612.08 355.88,-612.08 355.88,-615.17 352.79,-618.25 349.71,-618.25"/>
<text text-anchor="start" x="264.62" y="-605.7" font-family="Helvetica,sans-Serif" font-size="9.00">ViewRhythmTrack.js</text>
</a>
</g>
</g>
<!-- src/js/rhythm/ViewRhythm.js&#45;&gt;src/js/rhythm/ViewRhythmTrack.js -->
<g id="edge18" class="edge">
<title>src/js/rhythm/ViewRhythm.js&#45;&gt;src/js/rhythm/ViewRhythmTrack.js</title>
<path fill="none" stroke="#000000" stroke-width="2" stroke-opacity="0.200000" d="M147.75,-609C175.99,-609 215.17,-609 247.39,-609"/>
<polygon fill="#000000" fill-opacity="0.200000" stroke="#000000" stroke-width="2" stroke-opacity="0.200000" points="247.25,-611.1 253.25,-609 247.25,-606.9 247.25,-611.1"/>
</g>
<!-- src/js/view/render/RenderResizer.js -->
<g id="node26" class="node">
<title>src/js/view/render/RenderResizer.js</title>
<g id="a_node26"><a xlink:href="src/js/view/render/RenderResizer.js" xlink:title="RenderResizer.js">
<path fill="#ffffcc" stroke="black" d="M823.71,-530.25C823.71,-530.25 749.54,-530.25 749.54,-530.25 746.46,-530.25 743.38,-527.17 743.38,-524.08 743.38,-524.08 743.38,-517.92 743.38,-517.92 743.38,-514.83 746.46,-511.75 749.54,-511.75 749.54,-511.75 823.71,-511.75 823.71,-511.75 826.79,-511.75 829.88,-514.83 829.88,-517.92 829.88,-517.92 829.88,-524.08 829.88,-524.08 829.88,-527.17 826.79,-530.25 823.71,-530.25"/>
<text text-anchor="start" x="751.38" y="-517.7" font-family="Helvetica,sans-Serif" font-size="9.00">RenderResizer.js</text>
</a>
</g>
</g>
<!-- src/js/view/render/RenderController.js&#45;&gt;src/js/view/render/RenderResizer.js -->
<g id="edge20" class="edge">
<title>src/js/view/render/RenderController.js&#45;&gt;src/js/view/render/RenderResizer.js</title>
<path fill="none" stroke="#000000" stroke-width="2" stroke-opacity="0.200000" d="M712.94,-521C719.93,-521 727.17,-521 734.25,-521"/>
<polygon fill="#000000" fill-opacity="0.200000" stroke="#000000" stroke-width="2" stroke-opacity="0.200000" points="734.08,-523.1 740.08,-521 734.08,-518.9 734.08,-523.1"/>
</g>
<!-- src/js/view/render/RenderSurface.js -->
<g id="node27" class="node">
<title>src/js/view/render/RenderSurface.js</title>
<g id="a_node27"><a xlink:href="src/js/view/render/RenderSurface.js" xlink:title="RenderSurface.js">
<path fill="#ffffcc" stroke="black" d="M824.08,-561.25C824.08,-561.25 749.17,-561.25 749.17,-561.25 746.08,-561.25 743,-558.17 743,-555.08 743,-555.08 743,-548.92 743,-548.92 743,-545.83 746.08,-542.75 749.17,-542.75 749.17,-542.75 824.08,-542.75 824.08,-542.75 827.17,-542.75 830.25,-545.83 830.25,-548.92 830.25,-548.92 830.25,-555.08 830.25,-555.08 830.25,-558.17 827.17,-561.25 824.08,-561.25"/>
<text text-anchor="start" x="751" y="-548.7" font-family="Helvetica,sans-Serif" font-size="9.00">RenderSurface.js</text>
</a>
</g>
</g>
<!-- src/js/view/render/RenderController.js&#45;&gt;src/js/view/render/RenderSurface.js -->
<g id="edge21" class="edge">
<title>src/js/view/render/RenderController.js&#45;&gt;src/js/view/render/RenderSurface.js</title>
<path fill="none" stroke="#000000" stroke-width="2" stroke-opacity="0.200000" d="M701.01,-530.74C707.56,-532.52 714.36,-534.34 720.75,-536 725.98,-537.36 731.46,-538.76 736.92,-540.13"/>
<polygon fill="#000000" fill-opacity="0.200000" stroke="#000000" stroke-width="2" stroke-opacity="0.200000" points="736.17,-542.11 742.5,-541.53 737.19,-538.03 736.17,-542.11"/>
</g>
<!-- src/js/view/render/DisplayFormats.js -->
<g id="node25" class="node">
<title>src/js/view/render/DisplayFormats.js</title>
<g id="a_node25"><a xlink:href="src/js/view/render/DisplayFormats.js" xlink:title="DisplayFormats.js">
<path fill="#ccffcc" stroke="black" d="M703.21,-561.25C703.21,-561.25 626.79,-561.25 626.79,-561.25 623.71,-561.25 620.62,-558.17 620.62,-555.08 620.62,-555.08 620.62,-548.92 620.62,-548.92 620.62,-545.83 623.71,-542.75 626.79,-542.75 626.79,-542.75 703.21,-542.75 703.21,-542.75 706.29,-542.75 709.38,-545.83 709.38,-548.92 709.38,-548.92 709.38,-555.08 709.38,-555.08 709.38,-558.17 706.29,-561.25 703.21,-561.25"/>
<text text-anchor="start" x="628.62" y="-548.7" font-family="Helvetica,sans-Serif" font-size="9.00">DisplayFormats.js</text>
</a>
</g>
</g>
<!-- src/js/view/render/RenderResizer.js&#45;&gt;src/js/enum/DisplayFormats.js -->
<g id="edge22" class="edge">
<title>src/js/view/render/RenderResizer.js&#45;&gt;src/js/enum/DisplayFormats.js</title>
<path fill="none" stroke="#000000" stroke-width="2" stroke-opacity="0.200000" d="M829.34,-530.74C839.8,-533.18 851.13,-535.82 861.94,-538.35"/>
<polygon fill="#000000" fill-opacity="0.200000" stroke="#000000" stroke-width="2" stroke-opacity="0.200000" points="861.21,-540.33 867.53,-539.65 862.16,-536.24 861.21,-540.33"/>
</g>
</g>
</svg>
