<?xml version="1.0" encoding="UTF-8" standalone="no"?>
<!DOCTYPE svg PUBLIC "-//W3C//DTD SVG 1.1//EN"
 "http://www.w3.org/Graphics/SVG/1.1/DTD/svg11.dtd">
<!-- Generated by graphviz version 12.2.1 (20241206.2353)
 -->
<!-- Title: dependency&#45;cruiser output Pages: 1 -->
<svg width="1242pt" height="1453pt"
 viewBox="0.00 0.00 1242.25 1453.00" xmlns="http://www.w3.org/2000/svg" xmlns:xlink="http://www.w3.org/1999/xlink">
<g id="graph0" class="graph" transform="scale(1 1) rotate(0) translate(4 1449)">
<title>dependency&#45;cruiser output</title>
<polygon fill="white" stroke="none" points="-4,4 -4,-1449 1238.25,-1449 1238.25,4 -4,4"/>
<g id="clust1" class="cluster">
<title>cluster_src</title>
<path fill="#ffffff" stroke="black" stroke-width="2" d="M20,-8C20,-8 1214.25,-8 1214.25,-8 1220.25,-8 1226.25,-14 1226.25,-20 1226.25,-20 1226.25,-1425 1226.25,-1425 1226.25,-1431 1220.25,-1437 1214.25,-1437 1214.25,-1437 20,-1437 20,-1437 14,-1437 8,-1431 8,-1425 8,-1425 8,-20 8,-20 8,-14 14,-8 20,-8"/>
<text text-anchor="middle" x="617.12" y="-1424.45" font-family="Helvetica,sans-Serif" font-weight="bold" font-size="9.00">src</text>
</g>
<g id="clust2" class="cluster">
<title>cluster_src/js</title>
<path fill="#ffffff" stroke="black" stroke-width="2" d="M28,-16C28,-16 1206.25,-16 1206.25,-16 1212.25,-16 1218.25,-22 1218.25,-28 1218.25,-28 1218.25,-1398 1218.25,-1398 1218.25,-1404 1212.25,-1410 1206.25,-1410 1206.25,-1410 28,-1410 28,-1410 22,-1410 16,-1404 16,-1398 16,-1398 16,-28 16,-28 16,-22 22,-16 28,-16"/>
<text text-anchor="middle" x="617.12" y="-1397.45" font-family="Helvetica,sans-Serif" font-weight="bold" font-size="9.00">js</text>
</g>
<g id="clust3" class="cluster">
<title>cluster_src/js/application</title>
<path fill="#ffffff" stroke="black" stroke-width="2" d="M136.25,-1160C136.25,-1160 199,-1160 199,-1160 205,-1160 211,-1166 211,-1172 211,-1172 211,-1201 211,-1201 211,-1207 205,-1213 199,-1213 199,-1213 136.25,-1213 136.25,-1213 130.25,-1213 124.25,-1207 124.25,-1201 124.25,-1201 124.25,-1172 124.25,-1172 124.25,-1166 130.25,-1160 136.25,-1160"/>
<text text-anchor="middle" x="167.62" y="-1200.45" font-family="Helvetica,sans-Serif" font-weight="bold" font-size="9.00">application</text>
</g>
<g id="clust4" class="cluster">
<title>cluster_src/js/controller</title>
<path fill="#ffffff" stroke="black" stroke-width="2" d="M231,-1160C231,-1160 287.75,-1160 287.75,-1160 293.75,-1160 299.75,-1166 299.75,-1172 299.75,-1172 299.75,-1201 299.75,-1201 299.75,-1207 293.75,-1213 287.75,-1213 287.75,-1213 231,-1213 231,-1213 225,-1213 219,-1207 219,-1201 219,-1201 219,-1172 219,-1172 219,-1166 225,-1160 231,-1160"/>
<text text-anchor="middle" x="259.38" y="-1200.45" font-family="Helvetica,sans-Serif" font-weight="bold" font-size="9.00">controller</text>
</g>
<g id="clust5" class="cluster">
<title>cluster_src/js/data</title>
<path fill="#ffffff" stroke="black" stroke-width="2" d="M36,-568C36,-568 191.12,-568 191.12,-568 197.12,-568 203.12,-574 203.12,-580 203.12,-580 203.12,-609 203.12,-609 203.12,-615 197.12,-621 191.12,-621 191.12,-621 36,-621 36,-621 30,-621 24,-615 24,-609 24,-609 24,-580 24,-580 24,-574 30,-568 36,-568"/>
<text text-anchor="middle" x="113.56" y="-608.45" font-family="Helvetica,sans-Serif" font-weight="bold" font-size="9.00">data</text>
</g>
<g id="clust6" class="cluster">
<title>cluster_src/js/directable</title>
<path fill="#ffffff" stroke="black" stroke-width="2" d="M431,-24C431,-24 1198.25,-24 1198.25,-24 1204.25,-24 1210.25,-30 1210.25,-36 1210.25,-36 1210.25,-1153 1210.25,-1153 1210.25,-1159 1204.25,-1165 1198.25,-1165 1198.25,-1165 431,-1165 431,-1165 425,-1165 419,-1159 419,-1153 419,-1153 419,-36 419,-36 419,-30 425,-24 431,-24"/>
<text text-anchor="middle" x="814.62" y="-1152.45" font-family="Helvetica,sans-Serif" font-weight="bold" font-size="9.00">directable</text>
</g>
<g id="clust7" class="cluster">
<title>cluster_src/js/directable/dotmatrix</title>
<path fill="#ffffff" stroke="black" stroke-width="2" d="M474,-32C474,-32 1190.25,-32 1190.25,-32 1196.25,-32 1202.25,-38 1202.25,-44 1202.25,-44 1202.25,-724 1202.25,-724 1202.25,-730 1196.25,-736 1190.25,-736 1190.25,-736 474,-736 474,-736 468,-736 462,-730 462,-724 462,-724 462,-44 462,-44 462,-38 468,-32 474,-32"/>
<text text-anchor="middle" x="832.12" y="-723.45" font-family="Helvetica,sans-Serif" font-weight="bold" font-size="9.00">dotmatrix</text>
</g>
<g id="clust8" class="cluster">
<title>cluster_src/js/directable/dotmatrix/dot</title>
<path fill="#ffffff" stroke="black" stroke-width="2" d="M763.62,-163C763.62,-163 947.25,-163 947.25,-163 953.25,-163 959.25,-169 959.25,-175 959.25,-175 959.25,-204 959.25,-204 959.25,-210 953.25,-216 947.25,-216 947.25,-216 763.62,-216 763.62,-216 757.62,-216 751.62,-210 751.62,-204 751.62,-204 751.62,-175 751.62,-175 751.62,-169 757.62,-163 763.62,-163"/>
<text text-anchor="middle" x="855.44" y="-203.45" font-family="Helvetica,sans-Serif" font-weight="bold" font-size="9.00">dot</text>
</g>
<g id="clust9" class="cluster">
<title>cluster_src/js/directable/dotmatrix/grid</title>
<path fill="#ffffff" stroke="black" stroke-width="2" d="M897.38,-102C897.38,-102 951.12,-102 951.12,-102 957.12,-102 963.12,-108 963.12,-114 963.12,-114 963.12,-143 963.12,-143 963.12,-149 957.12,-155 951.12,-155 951.12,-155 897.38,-155 897.38,-155 891.38,-155 885.38,-149 885.38,-143 885.38,-143 885.38,-114 885.38,-114 885.38,-108 891.38,-102 897.38,-102"/>
<text text-anchor="middle" x="924.25" y="-142.45" font-family="Helvetica,sans-Serif" font-weight="bold" font-size="9.00">grid</text>
</g>
<g id="clust10" class="cluster">
<title>cluster_src/js/directable/dotmatrix/shape</title>
<path fill="#ffffff" stroke="black" stroke-width="2" d="M746.25,-224C746.25,-224 1182.25,-224 1182.25,-224 1188.25,-224 1194.25,-230 1194.25,-236 1194.25,-236 1194.25,-697 1194.25,-697 1194.25,-703 1188.25,-709 1182.25,-709 1182.25,-709 746.25,-709 746.25,-709 740.25,-709 734.25,-703 734.25,-697 734.25,-697 734.25,-236 734.25,-236 734.25,-230 740.25,-224 746.25,-224"/>
<text text-anchor="middle" x="964.25" y="-696.45" font-family="Helvetica,sans-Serif" font-weight="bold" font-size="9.00">shape</text>
</g>
<g id="clust11" class="cluster">
<title>cluster_src/js/directable/dotmatrix/shape/fill</title>
<path fill="#ffffff" stroke="black" stroke-width="2" d="M1008.25,-598C1008.25,-598 1174.25,-598 1174.25,-598 1180.25,-598 1186.25,-604 1186.25,-610 1186.25,-610 1186.25,-670 1186.25,-670 1186.25,-676 1180.25,-682 1174.25,-682 1174.25,-682 1008.25,-682 1008.25,-682 1002.25,-682 996.25,-676 996.25,-670 996.25,-670 996.25,-610 996.25,-610 996.25,-604 1002.25,-598 1008.25,-598"/>
<text text-anchor="middle" x="1091.25" y="-669.45" font-family="Helvetica,sans-Serif" font-weight="bold" font-size="9.00">fill</text>
</g>
<g id="clust12" class="cluster">
<title>cluster_src/js/directable/dotmatrix/shape/glyph</title>
<path fill="#ffffff" stroke="black" stroke-width="2" d="M757.25,-232C757.25,-232 837.25,-232 837.25,-232 843.25,-232 849.25,-238 849.25,-244 849.25,-244 849.25,-583 849.25,-583 849.25,-589 843.25,-595 837.25,-595 837.25,-595 757.25,-595 757.25,-595 751.25,-595 745.25,-589 745.25,-583 745.25,-583 745.25,-244 745.25,-244 745.25,-238 751.25,-232 757.25,-232"/>
<text text-anchor="middle" x="797.25" y="-582.45" font-family="Helvetica,sans-Serif" font-weight="bold" font-size="9.00">glyph</text>
</g>
<g id="clust13" class="cluster">
<title>cluster_src/js/directable/dotmatrix/shape/line</title>
<path fill="#ffffff" stroke="black" stroke-width="2" d="M872.25,-587C872.25,-587 976.25,-587 976.25,-587 982.25,-587 988.25,-593 988.25,-599 988.25,-599 988.25,-659 988.25,-659 988.25,-665 982.25,-671 976.25,-671 976.25,-671 872.25,-671 872.25,-671 866.25,-671 860.25,-665 860.25,-659 860.25,-659 860.25,-599 860.25,-599 860.25,-593 866.25,-587 872.25,-587"/>
<text text-anchor="middle" x="924.25" y="-658.45" font-family="Helvetica,sans-Serif" font-weight="bold" font-size="9.00">line</text>
</g>
<g id="clust14" class="cluster">
<title>cluster_src/js/directable/dotmatrix/shape/primative</title>
<path fill="#ffffff" stroke="black" stroke-width="2" d="M754.25,-603C754.25,-603 840.25,-603 840.25,-603 846.25,-603 852.25,-609 852.25,-615 852.25,-615 852.25,-644 852.25,-644 852.25,-650 846.25,-656 840.25,-656 840.25,-656 754.25,-656 754.25,-656 748.25,-656 742.25,-650 742.25,-644 742.25,-644 742.25,-615 742.25,-615 742.25,-609 748.25,-603 754.25,-603"/>
<text text-anchor="middle" x="797.25" y="-643.45" font-family="Helvetica,sans-Serif" font-weight="bold" font-size="9.00">primative</text>
</g>
<g id="clust15" class="cluster">
<title>cluster_src/js/directable/dotmatrix/view</title>
<path fill="#ffffff" stroke="black" stroke-width="2" d="M632,-40C632,-40 824.12,-40 824.12,-40 830.12,-40 836.12,-46 836.12,-52 836.12,-52 836.12,-143 836.12,-143 836.12,-149 830.12,-155 824.12,-155 824.12,-155 632,-155 632,-155 626,-155 620,-149 620,-143 620,-143 620,-52 620,-52 620,-46 626,-40 632,-40"/>
<text text-anchor="middle" x="728.06" y="-142.45" font-family="Helvetica,sans-Serif" font-weight="bold" font-size="9.00">view</text>
</g>
<g id="clust16" class="cluster">
<title>cluster_src/js/directable/frame</title>
<path fill="#ffffff" stroke="black" stroke-width="2" d="M480.38,-744C480.38,-744 565.62,-744 565.62,-744 571.62,-744 577.62,-750 577.62,-756 577.62,-756 577.62,-785 577.62,-785 577.62,-791 571.62,-797 565.62,-797 565.62,-797 480.38,-797 480.38,-797 474.38,-797 468.38,-791 468.38,-785 468.38,-785 468.38,-756 468.38,-756 468.38,-750 474.38,-744 480.38,-744"/>
<text text-anchor="middle" x="523" y="-784.45" font-family="Helvetica,sans-Serif" font-weight="bold" font-size="9.00">frame</text>
</g>
<g id="clust17" class="cluster">
<title>cluster_src/js/directable/rhythm</title>
<path fill="#ffffff" stroke="black" stroke-width="2" d="M439,-805C439,-805 713.88,-805 713.88,-805 719.88,-805 725.88,-811 725.88,-817 725.88,-817 725.88,-1004 725.88,-1004 725.88,-1010 719.88,-1016 713.88,-1016 713.88,-1016 439,-1016 439,-1016 433,-1016 427,-1010 427,-1004 427,-1004 427,-817 427,-817 427,-811 433,-805 439,-805"/>
<text text-anchor="middle" x="576.44" y="-1003.45" font-family="Helvetica,sans-Serif" font-weight="bold" font-size="9.00">rhythm</text>
</g>
<g id="clust18" class="cluster">
<title>cluster_src/js/directable/rhythm/asdr</title>
<path fill="#ffffff" stroke="black" stroke-width="2" d="M447,-813C447,-813 599,-813 599,-813 605,-813 611,-819 611,-825 611,-825 611,-916 611,-916 611,-922 605,-928 599,-928 599,-928 447,-928 447,-928 441,-928 435,-922 435,-916 435,-916 435,-825 435,-825 435,-819 441,-813 447,-813"/>
<text text-anchor="middle" x="523" y="-915.45" font-family="Helvetica,sans-Serif" font-weight="bold" font-size="9.00">asdr</text>
</g>
<g id="clust19" class="cluster">
<title>cluster_src/js/directable/rhythm/bpm</title>
<path fill="#ffffff" stroke="black" stroke-width="2" d="M468,-936C468,-936 578,-936 578,-936 584,-936 590,-942 590,-948 590,-948 590,-977 590,-977 590,-983 584,-989 578,-989 578,-989 468,-989 468,-989 462,-989 456,-983 456,-977 456,-977 456,-948 456,-948 456,-942 462,-936 468,-936"/>
<text text-anchor="middle" x="523" y="-976.45" font-family="Helvetica,sans-Serif" font-weight="bold" font-size="9.00">bpm</text>
</g>
<g id="clust20" class="cluster">
<title>cluster_src/js/directable/rhythm2</title>
<path fill="#ffffff" stroke="black" stroke-width="2" d="M488.62,-1024C488.62,-1024 714.25,-1024 714.25,-1024 720.25,-1024 726.25,-1030 726.25,-1036 726.25,-1036 726.25,-1065 726.25,-1065 726.25,-1071 720.25,-1077 714.25,-1077 714.25,-1077 488.62,-1077 488.62,-1077 482.62,-1077 476.62,-1071 476.62,-1065 476.62,-1065 476.62,-1036 476.62,-1036 476.62,-1030 482.62,-1024 488.62,-1024"/>
<text text-anchor="middle" x="601.44" y="-1064.45" font-family="Helvetica,sans-Serif" font-weight="bold" font-size="9.00">rhythm2</text>
</g>
<g id="clust21" class="cluster">
<title>cluster_src/js/directable/title</title>
<path fill="#ffffff" stroke="black" stroke-width="2" d="M484.88,-1085C484.88,-1085 561.12,-1085 561.12,-1085 567.12,-1085 573.12,-1091 573.12,-1097 573.12,-1097 573.12,-1126 573.12,-1126 573.12,-1132 567.12,-1138 561.12,-1138 561.12,-1138 484.88,-1138 484.88,-1138 478.88,-1138 472.88,-1132 472.88,-1126 472.88,-1126 472.88,-1097 472.88,-1097 472.88,-1091 478.88,-1085 484.88,-1085"/>
<text text-anchor="middle" x="523" y="-1125.45" font-family="Helvetica,sans-Serif" font-weight="bold" font-size="9.00">title</text>
</g>
<g id="clust22" class="cluster">
<title>cluster_src/js/director</title>
<path fill="#ffffff" stroke="black" stroke-width="2" d="M335.12,-1094C335.12,-1094 383.62,-1094 383.62,-1094 389.62,-1094 395.62,-1100 395.62,-1106 395.62,-1106 395.62,-1135 395.62,-1135 395.62,-1141 389.62,-1147 383.62,-1147 383.62,-1147 335.12,-1147 335.12,-1147 329.12,-1147 323.12,-1141 323.12,-1135 323.12,-1135 323.12,-1106 323.12,-1106 323.12,-1100 329.12,-1094 335.12,-1094"/>
<text text-anchor="middle" x="359.38" y="-1134.45" font-family="Helvetica,sans-Serif" font-weight="bold" font-size="9.00">director</text>
</g>
<g id="clust23" class="cluster">
<title>cluster_src/js/display</title>
<path fill="#ffffff" stroke="black" stroke-width="2" d="M499.5,-1173C499.5,-1173 709,-1173 709,-1173 715,-1173 721,-1179 721,-1185 721,-1185 721,-1214 721,-1214 721,-1220 715,-1226 709,-1226 709,-1226 499.5,-1226 499.5,-1226 493.5,-1226 487.5,-1220 487.5,-1214 487.5,-1214 487.5,-1185 487.5,-1185 487.5,-1179 493.5,-1173 499.5,-1173"/>
<text text-anchor="middle" x="604.25" y="-1213.45" font-family="Helvetica,sans-Serif" font-weight="bold" font-size="9.00">display</text>
</g>
<g id="clust24" class="cluster">
<title>cluster_src/js/overlay</title>
<path fill="#ffffff" stroke="black" stroke-width="2" d="M335.5,-1234C335.5,-1234 699.62,-1234 699.62,-1234 705.62,-1234 711.62,-1240 711.62,-1246 711.62,-1246 711.62,-1371 711.62,-1371 711.62,-1377 705.62,-1383 699.62,-1383 699.62,-1383 335.5,-1383 335.5,-1383 329.5,-1383 323.5,-1377 323.5,-1371 323.5,-1371 323.5,-1246 323.5,-1246 323.5,-1240 329.5,-1234 335.5,-1234"/>
<text text-anchor="middle" x="517.56" y="-1370.45" font-family="Helvetica,sans-Serif" font-weight="bold" font-size="9.00">overlay</text>
</g>
<g id="clust25" class="cluster">
<title>cluster_src/js/overlay/displayFormat</title>
<path fill="#ffffff" stroke="black" stroke-width="2" d="M469.12,-1242C469.12,-1242 576.88,-1242 576.88,-1242 582.88,-1242 588.88,-1248 588.88,-1254 588.88,-1254 588.88,-1283 588.88,-1283 588.88,-1289 582.88,-1295 576.88,-1295 576.88,-1295 469.12,-1295 469.12,-1295 463.12,-1295 457.12,-1289 457.12,-1283 457.12,-1283 457.12,-1254 457.12,-1254 457.12,-1248 463.12,-1242 469.12,-1242"/>
<text text-anchor="middle" x="523" y="-1282.45" font-family="Helvetica,sans-Serif" font-weight="bold" font-size="9.00">displayFormat</text>
</g>
<g id="clust26" class="cluster">
<title>cluster_src/js/overlay/overlay</title>
<path fill="#ffffff" stroke="black" stroke-width="2" d="M483.38,-1303C483.38,-1303 562.62,-1303 562.62,-1303 568.62,-1303 574.62,-1309 574.62,-1315 574.62,-1315 574.62,-1344 574.62,-1344 574.62,-1350 568.62,-1356 562.62,-1356 562.62,-1356 483.38,-1356 483.38,-1356 477.38,-1356 471.38,-1350 471.38,-1344 471.38,-1344 471.38,-1315 471.38,-1315 471.38,-1309 477.38,-1303 483.38,-1303"/>
<text text-anchor="middle" x="523" y="-1343.45" font-family="Helvetica,sans-Serif" font-weight="bold" font-size="9.00">overlay</text>
</g>
<g id="clust27" class="cluster">
<title>cluster_src/js/render</title>
<path fill="#ffffff" stroke="black" stroke-width="2" d="M319.75,-1173C319.75,-1173 399,-1173 399,-1173 405,-1173 411,-1179 411,-1185 411,-1185 411,-1214 411,-1214 411,-1220 405,-1226 399,-1226 399,-1226 319.75,-1226 319.75,-1226 313.75,-1226 307.75,-1220 307.75,-1214 307.75,-1214 307.75,-1185 307.75,-1185 307.75,-1179 313.75,-1173 319.75,-1173"/>
<text text-anchor="middle" x="359.38" y="-1213.45" font-family="Helvetica,sans-Serif" font-weight="bold" font-size="9.00">render</text>
</g>
<!-- src/js/application/Application.js -->
<g id="node1" class="node">
<title>src/js/application/Application.js</title>
<g id="a_node1"><a xlink:href="src/js/application/Application.js" xlink:title="Application.js">
<path fill="#ffffcc" stroke="black" d="M196.83,-1186.25C196.83,-1186.25 138.42,-1186.25 138.42,-1186.25 135.33,-1186.25 132.25,-1183.17 132.25,-1180.08 132.25,-1180.08 132.25,-1173.92 132.25,-1173.92 132.25,-1170.83 135.33,-1167.75 138.42,-1167.75 138.42,-1167.75 196.83,-1167.75 196.83,-1167.75 199.92,-1167.75 203,-1170.83 203,-1173.92 203,-1173.92 203,-1180.08 203,-1180.08 203,-1183.17 199.92,-1186.25 196.83,-1186.25"/>
<text text-anchor="start" x="140.25" y="-1173.7" font-family="Helvetica,sans-Serif" font-size="9.00">Application.js</text>
</a>
</g>
</g>
<!-- src/js/controller/Controller.js -->
<g id="node2" class="node">
<title>src/js/controller/Controller.js</title>
<g id="a_node2"><a xlink:href="src/js/controller/Controller.js" xlink:title="Controller.js">
<path fill="#ffffcc" stroke="black" d="M285.58,-1186.25C285.58,-1186.25 233.17,-1186.25 233.17,-1186.25 230.08,-1186.25 227,-1183.17 227,-1180.08 227,-1180.08 227,-1173.92 227,-1173.92 227,-1170.83 230.08,-1167.75 233.17,-1167.75 233.17,-1167.75 285.58,-1167.75 285.58,-1167.75 288.67,-1167.75 291.75,-1170.83 291.75,-1173.92 291.75,-1173.92 291.75,-1180.08 291.75,-1180.08 291.75,-1183.17 288.67,-1186.25 285.58,-1186.25"/>
<text text-anchor="start" x="235" y="-1173.7" font-family="Helvetica,sans-Serif" font-size="9.00">Controller.js</text>
</a>
</g>
</g>
<!-- src/js/application/Application.js&#45;&gt;src/js/controller/Controller.js -->
<g id="edge1" class="edge">
<title>src/js/application/Application.js&#45;&gt;src/js/controller/Controller.js</title>
<path fill="none" stroke="#000000" stroke-width="2" stroke-opacity="0.200000" d="M203.32,-1177C208.13,-1177 213.11,-1177 218.01,-1177"/>
<polygon fill="#000000" fill-opacity="0.200000" stroke="#000000" stroke-width="2" stroke-opacity="0.200000" points="217.68,-1179.1 223.68,-1177 217.68,-1174.9 217.68,-1179.1"/>
</g>
<!-- src/js/director/Director.js -->
<g id="node3" class="node">
<title>src/js/director/Director.js</title>
<g id="a_node3"><a xlink:href="src/js/director/Director.js" xlink:title="Director.js">
<path fill="#ffffcc" stroke="black" d="M381.46,-1120.25C381.46,-1120.25 337.29,-1120.25 337.29,-1120.25 334.21,-1120.25 331.12,-1117.17 331.12,-1114.08 331.12,-1114.08 331.12,-1107.92 331.12,-1107.92 331.12,-1104.83 334.21,-1101.75 337.29,-1101.75 337.29,-1101.75 381.46,-1101.75 381.46,-1101.75 384.54,-1101.75 387.62,-1104.83 387.62,-1107.92 387.62,-1107.92 387.62,-1114.08 387.62,-1114.08 387.62,-1117.17 384.54,-1120.25 381.46,-1120.25"/>
<text text-anchor="start" x="339.12" y="-1107.7" font-family="Helvetica,sans-Serif" font-size="9.00">Director.js</text>
</a>
</g>
</g>
<!-- src/js/controller/Controller.js&#45;&gt;src/js/director/Director.js -->
<g id="edge2" class="edge">
<title>src/js/controller/Controller.js&#45;&gt;src/js/director/Director.js</title>
<path fill="none" stroke="#000000" stroke-width="2" stroke-opacity="0.200000" d="M274.84,-1167.26C291.29,-1156.18 318.31,-1137.99 337.15,-1125.3"/>
<polygon fill="#000000" fill-opacity="0.200000" stroke="#000000" stroke-width="2" stroke-opacity="0.200000" points="337.86,-1127.35 341.66,-1122.25 335.51,-1123.86 337.86,-1127.35"/>
</g>
<!-- src/js/display/Display.js -->
<g id="node4" class="node">
<title>src/js/display/Display.js</title>
<g id="a_node4"><a xlink:href="src/js/display/Display.js" xlink:title="Display.js">
<path fill="#ffffcc" stroke="black" d="M544.33,-1199.25C544.33,-1199.25 501.67,-1199.25 501.67,-1199.25 498.58,-1199.25 495.5,-1196.17 495.5,-1193.08 495.5,-1193.08 495.5,-1186.92 495.5,-1186.92 495.5,-1183.83 498.58,-1180.75 501.67,-1180.75 501.67,-1180.75 544.33,-1180.75 544.33,-1180.75 547.42,-1180.75 550.5,-1183.83 550.5,-1186.92 550.5,-1186.92 550.5,-1193.08 550.5,-1193.08 550.5,-1196.17 547.42,-1199.25 544.33,-1199.25"/>
<text text-anchor="start" x="503.5" y="-1186.7" font-family="Helvetica,sans-Serif" font-size="9.00">Display.js</text>
</a>
</g>
</g>
<!-- src/js/controller/Controller.js&#45;&gt;src/js/display/Display.js -->
<g id="edge3" class="edge">
<title>src/js/controller/Controller.js&#45;&gt;src/js/display/Display.js</title>
<path fill="none" stroke="#000000" stroke-width="2" stroke-opacity="0.200000" d="M292.16,-1171.65C297.35,-1170.96 302.69,-1170.37 307.75,-1170 353.52,-1166.64 365.29,-1165.92 411,-1170 436.54,-1172.28 465,-1177.46 486.7,-1181.98"/>
<polygon fill="#000000" fill-opacity="0.200000" stroke="#000000" stroke-width="2" stroke-opacity="0.200000" points="486,-1183.98 492.3,-1183.17 486.87,-1179.87 486,-1183.98"/>
</g>
<!-- src/js/overlay/Overlay.js -->
<g id="node5" class="node">
<title>src/js/overlay/Overlay.js</title>
<g id="a_node5"><a xlink:href="src/js/overlay/Overlay.js" xlink:title="Overlay.js">
<path fill="#ffffcc" stroke="black" d="M381.08,-1268.25C381.08,-1268.25 337.67,-1268.25 337.67,-1268.25 334.58,-1268.25 331.5,-1265.17 331.5,-1262.08 331.5,-1262.08 331.5,-1255.92 331.5,-1255.92 331.5,-1252.83 334.58,-1249.75 337.67,-1249.75 337.67,-1249.75 381.08,-1249.75 381.08,-1249.75 384.17,-1249.75 387.25,-1252.83 387.25,-1255.92 387.25,-1255.92 387.25,-1262.08 387.25,-1262.08 387.25,-1265.17 384.17,-1268.25 381.08,-1268.25"/>
<text text-anchor="start" x="339.5" y="-1255.7" font-family="Helvetica,sans-Serif" font-size="9.00">Overlay.js</text>
</a>
</g>
</g>
<!-- src/js/controller/Controller.js&#45;&gt;src/js/overlay/Overlay.js -->
<g id="edge4" class="edge">
<title>src/js/controller/Controller.js&#45;&gt;src/js/overlay/Overlay.js</title>
<path fill="none" stroke="#000000" stroke-width="2" stroke-opacity="0.200000" d="M267.68,-1186.62C276.41,-1197.7 291.84,-1216.04 307.75,-1229 315,-1234.9 323.53,-1240.42 331.51,-1245.07"/>
<polygon fill="#000000" fill-opacity="0.200000" stroke="#000000" stroke-width="2" stroke-opacity="0.200000" points="330.33,-1246.82 336.59,-1247.93 332.39,-1243.16 330.33,-1246.82"/>
</g>
<!-- src/js/render/RenderSurface.js -->
<g id="node6" class="node">
<title>src/js/render/RenderSurface.js</title>
<g id="a_node6"><a xlink:href="src/js/render/RenderSurface.js" xlink:title="RenderSurface.js">
<path fill="#ffffcc" stroke="black" d="M396.83,-1199.25C396.83,-1199.25 321.92,-1199.25 321.92,-1199.25 318.83,-1199.25 315.75,-1196.17 315.75,-1193.08 315.75,-1193.08 315.75,-1186.92 315.75,-1186.92 315.75,-1183.83 318.83,-1180.75 321.92,-1180.75 321.92,-1180.75 396.83,-1180.75 396.83,-1180.75 399.92,-1180.75 403,-1183.83 403,-1186.92 403,-1186.92 403,-1193.08 403,-1193.08 403,-1196.17 399.92,-1199.25 396.83,-1199.25"/>
<text text-anchor="start" x="323.75" y="-1186.7" font-family="Helvetica,sans-Serif" font-size="9.00">RenderSurface.js</text>
</a>
</g>
</g>
<!-- src/js/controller/Controller.js&#45;&gt;src/js/render/RenderSurface.js -->
<g id="edge5" class="edge">
<title>src/js/controller/Controller.js&#45;&gt;src/js/render/RenderSurface.js</title>
<path fill="none" stroke="#000000" stroke-width="2" stroke-opacity="0.200000" d="M292.19,-1181.22C296.8,-1181.83 301.65,-1182.47 306.53,-1183.12"/>
<polygon fill="#000000" fill-opacity="0.200000" stroke="#000000" stroke-width="2" stroke-opacity="0.200000" points="306.09,-1185.18 312.31,-1183.89 306.64,-1181.02 306.09,-1185.18"/>
</g>
<!-- src/js/director/Director.js&#45;&gt;src/js/display/Display.js -->
<g id="edge31" class="edge">
<title>src/js/director/Director.js&#45;&gt;src/js/display/Display.js</title>
<path fill="none" stroke="#000000" stroke-width="2" stroke-opacity="0.200000" d="M379.05,-1120.73C390.53,-1126.67 405.57,-1134.37 419,-1141 443.97,-1153.33 472.59,-1166.9 493.31,-1176.62"/>
<polygon fill="#000000" fill-opacity="0.200000" stroke="#000000" stroke-width="2" stroke-opacity="0.200000" points="492.33,-1178.48 498.66,-1179.13 494.11,-1174.68 492.33,-1178.48"/>
</g>
<!-- src/js/directable/dotmatrix/DirectableDotMatrix.js -->
<g id="node9" class="node">
<title>src/js/directable/dotmatrix/DirectableDotMatrix.js</title>
<g id="a_node9"><a xlink:href="src/js/directable/dotmatrix/DirectableDotMatrix.js" xlink:title="DirectableDotMatrix.js">
<path fill="#ffffcc" stroke="black" d="M569.83,-387.25C569.83,-387.25 476.17,-387.25 476.17,-387.25 473.08,-387.25 470,-384.17 470,-381.08 470,-381.08 470,-374.92 470,-374.92 470,-371.83 473.08,-368.75 476.17,-368.75 476.17,-368.75 569.83,-368.75 569.83,-368.75 572.92,-368.75 576,-371.83 576,-374.92 576,-374.92 576,-381.08 576,-381.08 576,-384.17 572.92,-387.25 569.83,-387.25"/>
<text text-anchor="start" x="478" y="-374.7" font-family="Helvetica,sans-Serif" font-size="9.00">DirectableDotMatrix.js</text>
</a>
</g>
</g>
<!-- src/js/director/Director.js&#45;&gt;src/js/directable/dotmatrix/DirectableDotMatrix.js -->
<g id="edge29" class="edge">
<title>src/js/director/Director.js&#45;&gt;src/js/directable/dotmatrix/DirectableDotMatrix.js</title>
<path fill="none" stroke="#000000" stroke-width="2" stroke-opacity="0.200000" d="M361.46,-1101.49C366.38,-1059.06 387.73,-882.96 419,-741 448.58,-606.72 498.9,-448.61 516.06,-396.01"/>
<polygon fill="#000000" fill-opacity="0.200000" stroke="#000000" stroke-width="2" stroke-opacity="0.200000" points="517.97,-396.94 517.84,-390.59 513.97,-395.63 517.97,-396.94"/>
</g>
<!-- src/js/directable/title/DirectableTitle.js -->
<g id="node45" class="node">
<title>src/js/directable/title/DirectableTitle.js</title>
<g id="a_node45"><a xlink:href="src/js/directable/title/DirectableTitle.js" xlink:title="DirectableTitle.js">
<path fill="#ffffcc" stroke="black" d="M558.96,-1111.25C558.96,-1111.25 487.04,-1111.25 487.04,-1111.25 483.96,-1111.25 480.88,-1108.17 480.88,-1105.08 480.88,-1105.08 480.88,-1098.92 480.88,-1098.92 480.88,-1095.83 483.96,-1092.75 487.04,-1092.75 487.04,-1092.75 558.96,-1092.75 558.96,-1092.75 562.04,-1092.75 565.12,-1095.83 565.12,-1098.92 565.12,-1098.92 565.12,-1105.08 565.12,-1105.08 565.12,-1108.17 562.04,-1111.25 558.96,-1111.25"/>
<text text-anchor="start" x="488.88" y="-1098.7" font-family="Helvetica,sans-Serif" font-size="9.00">DirectableTitle.js</text>
</a>
</g>
</g>
<!-- src/js/director/Director.js&#45;&gt;src/js/directable/title/DirectableTitle.js -->
<g id="edge30" class="edge">
<title>src/js/director/Director.js&#45;&gt;src/js/directable/title/DirectableTitle.js</title>
<path fill="none" stroke="#000000" stroke-width="2" stroke-opacity="0.200000" d="M387.79,-1109.47C410.71,-1108.2 444,-1106.34 471.69,-1104.8"/>
<polygon fill="#000000" fill-opacity="0.200000" stroke="#000000" stroke-width="2" stroke-opacity="0.200000" points="471.56,-1106.91 477.44,-1104.48 471.33,-1102.72 471.56,-1106.91"/>
</g>
<!-- src/js/display/DisplayFormats.js -->
<g id="node46" class="node">
<title>src/js/display/DisplayFormats.js</title>
<g id="a_node46"><a xlink:href="src/js/display/DisplayFormats.js" xlink:title="DisplayFormats.js">
<path fill="#ffffcc" stroke="black" d="M706.83,-1199.25C706.83,-1199.25 630.42,-1199.25 630.42,-1199.25 627.33,-1199.25 624.25,-1196.17 624.25,-1193.08 624.25,-1193.08 624.25,-1186.92 624.25,-1186.92 624.25,-1183.83 627.33,-1180.75 630.42,-1180.75 630.42,-1180.75 706.83,-1180.75 706.83,-1180.75 709.92,-1180.75 713,-1183.83 713,-1186.92 713,-1186.92 713,-1193.08 713,-1193.08 713,-1196.17 709.92,-1199.25 706.83,-1199.25"/>
<text text-anchor="start" x="632.25" y="-1186.7" font-family="Helvetica,sans-Serif" font-size="9.00">DisplayFormats.js</text>
</a>
</g>
</g>
<!-- src/js/display/Display.js&#45;&gt;src/js/display/DisplayFormats.js -->
<g id="edge32" class="edge">
<title>src/js/display/Display.js&#45;&gt;src/js/display/DisplayFormats.js</title>
<path fill="none" stroke="#000000" stroke-width="2" stroke-opacity="0.200000" d="M550.68,-1190C568.72,-1190 593.15,-1190 615.01,-1190"/>
<polygon fill="#000000" fill-opacity="0.200000" stroke="#000000" stroke-width="2" stroke-opacity="0.200000" points="614.85,-1192.1 620.85,-1190 614.85,-1187.9 614.85,-1192.1"/>
</g>
<!-- src/js/overlay/displayFormat/OverlayDisplayFormat.js -->
<g id="node48" class="node">
<title>src/js/overlay/displayFormat/OverlayDisplayFormat.js</title>
<g id="a_node48"><a xlink:href="src/js/overlay/displayFormat/OverlayDisplayFormat.js" xlink:title="OverlayDisplayFormat.js">
<path fill="#ffffcc" stroke="black" d="M574.71,-1268.25C574.71,-1268.25 471.29,-1268.25 471.29,-1268.25 468.21,-1268.25 465.12,-1265.17 465.12,-1262.08 465.12,-1262.08 465.12,-1255.92 465.12,-1255.92 465.12,-1252.83 468.21,-1249.75 471.29,-1249.75 471.29,-1249.75 574.71,-1249.75 574.71,-1249.75 577.79,-1249.75 580.88,-1252.83 580.88,-1255.92 580.88,-1255.92 580.88,-1262.08 580.88,-1262.08 580.88,-1265.17 577.79,-1268.25 574.71,-1268.25"/>
<text text-anchor="start" x="473.12" y="-1255.7" font-family="Helvetica,sans-Serif" font-size="9.00">OverlayDisplayFormat.js</text>
</a>
</g>
</g>
<!-- src/js/overlay/Overlay.js&#45;&gt;src/js/overlay/displayFormat/OverlayDisplayFormat.js -->
<g id="edge34" class="edge">
<title>src/js/overlay/Overlay.js&#45;&gt;src/js/overlay/displayFormat/OverlayDisplayFormat.js</title>
<path fill="none" stroke="#000000" stroke-width="2" stroke-opacity="0.200000" d="M387.43,-1259C406.16,-1259 431.93,-1259 455.92,-1259"/>
<polygon fill="#000000" fill-opacity="0.200000" stroke="#000000" stroke-width="2" stroke-opacity="0.200000" points="455.63,-1261.1 461.63,-1259 455.63,-1256.9 455.63,-1261.1"/>
</g>
<!-- src/js/overlay/overlay/OverlayOverlay.js -->
<g id="node49" class="node">
<title>src/js/overlay/overlay/OverlayOverlay.js</title>
<g id="a_node49"><a xlink:href="src/js/overlay/overlay/OverlayOverlay.js" xlink:title="OverlayOverlay.js">
<path fill="#ffffcc" stroke="black" d="M560.46,-1329.25C560.46,-1329.25 485.54,-1329.25 485.54,-1329.25 482.46,-1329.25 479.38,-1326.17 479.38,-1323.08 479.38,-1323.08 479.38,-1316.92 479.38,-1316.92 479.38,-1313.83 482.46,-1310.75 485.54,-1310.75 485.54,-1310.75 560.46,-1310.75 560.46,-1310.75 563.54,-1310.75 566.62,-1313.83 566.62,-1316.92 566.62,-1316.92 566.62,-1323.08 566.62,-1323.08 566.62,-1326.17 563.54,-1329.25 560.46,-1329.25"/>
<text text-anchor="start" x="487.38" y="-1316.7" font-family="Helvetica,sans-Serif" font-size="9.00">OverlayOverlay.js</text>
</a>
</g>
</g>
<!-- src/js/overlay/Overlay.js&#45;&gt;src/js/overlay/overlay/OverlayOverlay.js -->
<g id="edge35" class="edge">
<title>src/js/overlay/Overlay.js&#45;&gt;src/js/overlay/overlay/OverlayOverlay.js</title>
<path fill="none" stroke="#000000" stroke-width="2" stroke-opacity="0.200000" d="M371.75,-1268.47C383.04,-1277.4 401.2,-1290.5 419,-1298 435.14,-1304.8 453.63,-1309.59 470.44,-1312.93"/>
<polygon fill="#000000" fill-opacity="0.200000" stroke="#000000" stroke-width="2" stroke-opacity="0.200000" points="469.8,-1314.94 476.09,-1313.98 470.57,-1310.81 469.8,-1314.94"/>
</g>
<!-- src/js/render/RenderSurface.js&#45;&gt;src/js/display/Display.js -->
<g id="edge39" class="edge">
<title>src/js/render/RenderSurface.js&#45;&gt;src/js/display/Display.js</title>
<path fill="none" stroke="#000000" stroke-width="2" stroke-opacity="0.200000" d="M403.26,-1190C429.14,-1190 461.72,-1190 486.2,-1190"/>
<polygon fill="#000000" fill-opacity="0.200000" stroke="#000000" stroke-width="2" stroke-opacity="0.200000" points="486.13,-1192.1 492.13,-1190 486.13,-1187.9 486.13,-1192.1"/>
</g>
<!-- src/js/data/Data.json -->
<g id="node7" class="node">
<title>src/js/data/Data.json</title>
<g id="a_node7"><a xlink:href="src/js/data/Data.json" xlink:title="Data.json">
<path fill="#ffee44" stroke="black" d="M188.96,-594.25C188.96,-594.25 146.29,-594.25 146.29,-594.25 143.21,-594.25 140.12,-591.17 140.12,-588.08 140.12,-588.08 140.12,-581.92 140.12,-581.92 140.12,-578.83 143.21,-575.75 146.29,-575.75 146.29,-575.75 188.96,-575.75 188.96,-575.75 192.04,-575.75 195.12,-578.83 195.12,-581.92 195.12,-581.92 195.12,-588.08 195.12,-588.08 195.12,-591.17 192.04,-594.25 188.96,-594.25"/>
<text text-anchor="start" x="148.12" y="-581.7" font-family="Helvetica,sans-Serif" font-size="9.00">Data.json</text>
</a>
</g>
</g>
<!-- src/js/data/DataController.js -->
<g id="node8" class="node">
<title>src/js/data/DataController.js</title>
<g id="a_node8"><a xlink:href="src/js/data/DataController.js" xlink:title="DataController.js">
<path fill="#ffffcc" stroke="black" d="M110.08,-594.25C110.08,-594.25 38.17,-594.25 38.17,-594.25 35.08,-594.25 32,-591.17 32,-588.08 32,-588.08 32,-581.92 32,-581.92 32,-578.83 35.08,-575.75 38.17,-575.75 38.17,-575.75 110.08,-575.75 110.08,-575.75 113.17,-575.75 116.25,-578.83 116.25,-581.92 116.25,-581.92 116.25,-588.08 116.25,-588.08 116.25,-591.17 113.17,-594.25 110.08,-594.25"/>
<text text-anchor="start" x="40" y="-581.7" font-family="Helvetica,sans-Serif" font-size="9.00">DataController.js</text>
</a>
</g>
</g>
<!-- src/js/data/DataController.js&#45;&gt;src/js/data/Data.json -->
<g id="edge6" class="edge">
<title>src/js/data/DataController.js&#45;&gt;src/js/data/Data.json</title>
<path fill="none" stroke="#000000" stroke-width="2" stroke-opacity="0.200000" d="M116.59,-585C121.37,-585 126.22,-585 130.92,-585"/>
<polygon fill="#000000" fill-opacity="0.200000" stroke="#000000" stroke-width="2" stroke-opacity="0.200000" points="130.69,-587.1 136.69,-585 130.69,-582.9 130.69,-587.1"/>
</g>
<!-- src/js/directable/dotmatrix/view/ViewManager.js -->
<g id="node10" class="node">
<title>src/js/directable/dotmatrix/view/ViewManager.js</title>
<g id="a_node10"><a xlink:href="src/js/directable/dotmatrix/view/ViewManager.js" xlink:title="ViewManager.js">
<path fill="#ffffcc" stroke="black" d="M703.08,-66.25C703.08,-66.25 634.17,-66.25 634.17,-66.25 631.08,-66.25 628,-63.17 628,-60.08 628,-60.08 628,-53.92 628,-53.92 628,-50.83 631.08,-47.75 634.17,-47.75 634.17,-47.75 703.08,-47.75 703.08,-47.75 706.17,-47.75 709.25,-50.83 709.25,-53.92 709.25,-53.92 709.25,-60.08 709.25,-60.08 709.25,-63.17 706.17,-66.25 703.08,-66.25"/>
<text text-anchor="start" x="636" y="-53.7" font-family="Helvetica,sans-Serif" font-size="9.00">ViewManager.js</text>
</a>
</g>
</g>
<!-- src/js/directable/dotmatrix/DirectableDotMatrix.js&#45;&gt;src/js/directable/dotmatrix/view/ViewManager.js -->
<g id="edge7" class="edge">
<title>src/js/directable/dotmatrix/DirectableDotMatrix.js&#45;&gt;src/js/directable/dotmatrix/view/ViewManager.js</title>
<path fill="none" stroke="#000000" stroke-width="2" stroke-opacity="0.200000" d="M524,-368.5C524.55,-327.16 532.25,-161.15 619,-73 619.47,-72.52 619.95,-72.06 620.44,-71.62"/>
<polygon fill="#000000" fill-opacity="0.200000" stroke="#000000" stroke-width="2" stroke-opacity="0.200000" points="621.41,-73.51 625.06,-68.3 618.96,-70.1 621.41,-73.51"/>
</g>
<!-- src/js/directable/dotmatrix/dot/DotManager.js -->
<g id="node12" class="node">
<title>src/js/directable/dotmatrix/dot/DotManager.js</title>
<g id="a_node12"><a xlink:href="src/js/directable/dotmatrix/dot/DotManager.js" xlink:title="DotManager.js">
<path fill="#ffffcc" stroke="black" d="M828.71,-189.25C828.71,-189.25 765.79,-189.25 765.79,-189.25 762.71,-189.25 759.62,-186.17 759.62,-183.08 759.62,-183.08 759.62,-176.92 759.62,-176.92 759.62,-173.83 762.71,-170.75 765.79,-170.75 765.79,-170.75 828.71,-170.75 828.71,-170.75 831.79,-170.75 834.88,-173.83 834.88,-176.92 834.88,-176.92 834.88,-183.08 834.88,-183.08 834.88,-186.17 831.79,-189.25 828.71,-189.25"/>
<text text-anchor="start" x="767.62" y="-176.7" font-family="Helvetica,sans-Serif" font-size="9.00">DotManager.js</text>
</a>
</g>
</g>
<!-- src/js/directable/dotmatrix/view/ViewManager.js&#45;&gt;src/js/directable/dotmatrix/dot/DotManager.js -->
<g id="edge20" class="edge">
<title>src/js/directable/dotmatrix/view/ViewManager.js&#45;&gt;src/js/directable/dotmatrix/dot/DotManager.js</title>
<path fill="none" stroke="#000000" stroke-width="2" stroke-opacity="0.200000" d="M709.48,-61.69C715.9,-64.14 721.87,-67.74 726.25,-73 738.39,-87.58 722.59,-143.03 734.25,-158 738.59,-163.57 744.46,-167.74 750.86,-170.85"/>
<polygon fill="#000000" fill-opacity="0.200000" stroke="#000000" stroke-width="2" stroke-opacity="0.200000" points="750.02,-172.78 756.37,-173.11 751.61,-168.89 750.02,-172.78"/>
</g>
<!-- src/js/directable/dotmatrix/grid/GridData.js -->
<g id="node13" class="node">
<title>src/js/directable/dotmatrix/grid/GridData.js</title>
<g id="a_node13"><a xlink:href="src/js/directable/dotmatrix/grid/GridData.js" xlink:title="GridData.js">
<path fill="#ffffcc" stroke="black" d="M948.96,-128.25C948.96,-128.25 899.54,-128.25 899.54,-128.25 896.46,-128.25 893.38,-125.17 893.38,-122.08 893.38,-122.08 893.38,-115.92 893.38,-115.92 893.38,-112.83 896.46,-109.75 899.54,-109.75 899.54,-109.75 948.96,-109.75 948.96,-109.75 952.04,-109.75 955.12,-112.83 955.12,-115.92 955.12,-115.92 955.12,-122.08 955.12,-122.08 955.12,-125.17 952.04,-128.25 948.96,-128.25"/>
<text text-anchor="start" x="901.38" y="-115.7" font-family="Helvetica,sans-Serif" font-size="9.00">GridData.js</text>
</a>
</g>
</g>
<!-- src/js/directable/dotmatrix/view/ViewManager.js&#45;&gt;src/js/directable/dotmatrix/grid/GridData.js -->
<g id="edge21" class="edge">
<title>src/js/directable/dotmatrix/view/ViewManager.js&#45;&gt;src/js/directable/dotmatrix/grid/GridData.js</title>
<path fill="none" stroke="#000000" stroke-width="2" stroke-opacity="0.200000" d="M709.59,-62.71C715.77,-65.08 721.62,-68.38 726.25,-73 735.42,-82.14 724.3,-92.72 734.25,-101 776.04,-135.75 842.41,-133.2 884.36,-126.99"/>
<polygon fill="#000000" fill-opacity="0.200000" stroke="#000000" stroke-width="2" stroke-opacity="0.200000" points="884.6,-129.08 890.19,-126.05 883.93,-124.93 884.6,-129.08"/>
</g>
<!-- src/js/directable/dotmatrix/shape/ShapeManager.js -->
<g id="node15" class="node">
<title>src/js/directable/dotmatrix/shape/ShapeManager.js</title>
<g id="a_node15"><a xlink:href="src/js/directable/dotmatrix/shape/ShapeManager.js" xlink:title="ShapeManager.js">
<path fill="#ffffcc" stroke="black" d="M835.08,-682.25C835.08,-682.25 759.42,-682.25 759.42,-682.25 756.33,-682.25 753.25,-679.17 753.25,-676.08 753.25,-676.08 753.25,-669.92 753.25,-669.92 753.25,-666.83 756.33,-663.75 759.42,-663.75 759.42,-663.75 835.08,-663.75 835.08,-663.75 838.17,-663.75 841.25,-666.83 841.25,-669.92 841.25,-669.92 841.25,-676.08 841.25,-676.08 841.25,-679.17 838.17,-682.25 835.08,-682.25"/>
<text text-anchor="start" x="761.25" y="-669.7" font-family="Helvetica,sans-Serif" font-size="9.00">ShapeManager.js</text>
</a>
</g>
</g>
<!-- src/js/directable/dotmatrix/view/ViewManager.js&#45;&gt;src/js/directable/dotmatrix/shape/ShapeManager.js -->
<g id="edge22" class="edge">
<title>src/js/directable/dotmatrix/view/ViewManager.js&#45;&gt;src/js/directable/dotmatrix/shape/ShapeManager.js</title>
<path fill="none" stroke="#000000" stroke-width="2" stroke-opacity="0.200000" d="M709.54,-61.3C716.04,-63.78 722.02,-67.49 726.25,-73 746.07,-98.83 713.75,-633.71 734.25,-659 737.17,-662.6 740.81,-665.4 744.84,-667.56"/>
<polygon fill="#000000" fill-opacity="0.200000" stroke="#000000" stroke-width="2" stroke-opacity="0.200000" points="743.87,-669.43 750.22,-669.81 745.49,-665.56 743.87,-669.43"/>
</g>
<!-- src/js/directable/dotmatrix/view/ViewTest.js -->
<g id="node35" class="node">
<title>src/js/directable/dotmatrix/view/ViewTest.js</title>
<g id="a_node35"><a xlink:href="src/js/directable/dotmatrix/view/ViewTest.js" xlink:title="ViewTest.js">
<path fill="#ffffcc" stroke="black" d="M821.96,-95.25C821.96,-95.25 772.54,-95.25 772.54,-95.25 769.46,-95.25 766.38,-92.17 766.38,-89.08 766.38,-89.08 766.38,-82.92 766.38,-82.92 766.38,-79.83 769.46,-76.75 772.54,-76.75 772.54,-76.75 821.96,-76.75 821.96,-76.75 825.04,-76.75 828.12,-79.83 828.12,-82.92 828.12,-82.92 828.12,-89.08 828.12,-89.08 828.12,-92.17 825.04,-95.25 821.96,-95.25"/>
<text text-anchor="start" x="774.38" y="-82.7" font-family="Helvetica,sans-Serif" font-size="9.00">ViewTest.js</text>
</a>
</g>
</g>
<!-- src/js/directable/dotmatrix/view/ViewManager.js&#45;&gt;src/js/directable/dotmatrix/view/ViewTest.js -->
<g id="edge23" class="edge">
<title>src/js/directable/dotmatrix/view/ViewManager.js&#45;&gt;src/js/directable/dotmatrix/view/ViewTest.js</title>
<path fill="none" stroke="#000000" stroke-width="2" stroke-opacity="0.200000" d="M709.69,-66.18C724.95,-69.67 742.31,-73.65 757.45,-77.11"/>
<polygon fill="#000000" fill-opacity="0.200000" stroke="#000000" stroke-width="2" stroke-opacity="0.200000" points="756.81,-79.12 763.13,-78.41 757.75,-75.03 756.81,-79.12"/>
</g>
<!-- src/js/directable/dotmatrix/dot/Dot.js -->
<g id="node11" class="node">
<title>src/js/directable/dotmatrix/dot/Dot.js</title>
<g id="a_node11"><a xlink:href="src/js/directable/dotmatrix/dot/Dot.js" xlink:title="Dot.js">
<path fill="#ffffcc" stroke="black" d="M945.08,-189.25C945.08,-189.25 903.42,-189.25 903.42,-189.25 900.33,-189.25 897.25,-186.17 897.25,-183.08 897.25,-183.08 897.25,-176.92 897.25,-176.92 897.25,-173.83 900.33,-170.75 903.42,-170.75 903.42,-170.75 945.08,-170.75 945.08,-170.75 948.17,-170.75 951.25,-173.83 951.25,-176.92 951.25,-176.92 951.25,-183.08 951.25,-183.08 951.25,-186.17 948.17,-189.25 945.08,-189.25"/>
<text text-anchor="start" x="912.62" y="-176.7" font-family="Helvetica,sans-Serif" font-size="9.00">Dot.js</text>
</a>
</g>
</g>
<!-- src/js/directable/dotmatrix/dot/DotManager.js&#45;&gt;src/js/directable/dotmatrix/dot/Dot.js -->
<g id="edge9" class="edge">
<title>src/js/directable/dotmatrix/dot/DotManager.js&#45;&gt;src/js/directable/dotmatrix/dot/Dot.js</title>
<path fill="none" stroke="#000000" stroke-width="2" stroke-opacity="0.200000" d="M835.08,-180C851.85,-180 871.6,-180 888.16,-180"/>
<polygon fill="#000000" fill-opacity="0.200000" stroke="#000000" stroke-width="2" stroke-opacity="0.200000" points="887.96,-182.1 893.96,-180 887.96,-177.9 887.96,-182.1"/>
</g>
<!-- src/js/directable/dotmatrix/dot/DotManager.js&#45;&gt;src/js/directable/dotmatrix/grid/GridData.js -->
<g id="edge8" class="edge">
<title>src/js/directable/dotmatrix/dot/DotManager.js&#45;&gt;src/js/directable/dotmatrix/grid/GridData.js</title>
<path fill="none" stroke="#000000" stroke-width="2" stroke-opacity="0.200000" d="M823.79,-170.3C832.87,-166.66 843.11,-162.35 852.25,-158 868.28,-150.37 885.76,-140.78 899.37,-133.02"/>
<polygon fill="#000000" fill-opacity="0.200000" stroke="#000000" stroke-width="2" stroke-opacity="0.200000" points="900.11,-135.01 904.27,-130.2 898.02,-131.37 900.11,-135.01"/>
</g>
<!-- src/js/directable/dotmatrix/shape/Shape.js -->
<g id="node14" class="node">
<title>src/js/directable/dotmatrix/shape/Shape.js</title>
<g id="a_node14"><a xlink:href="src/js/directable/dotmatrix/shape/Shape.js" xlink:title="Shape.js">
<path fill="#ffffcc" stroke="black" d="M1060.08,-566.25C1060.08,-566.25 1018.42,-566.25 1018.42,-566.25 1015.33,-566.25 1012.25,-563.17 1012.25,-560.08 1012.25,-560.08 1012.25,-553.92 1012.25,-553.92 1012.25,-550.83 1015.33,-547.75 1018.42,-547.75 1018.42,-547.75 1060.08,-547.75 1060.08,-547.75 1063.17,-547.75 1066.25,-550.83 1066.25,-553.92 1066.25,-553.92 1066.25,-560.08 1066.25,-560.08 1066.25,-563.17 1063.17,-566.25 1060.08,-566.25"/>
<text text-anchor="start" x="1021.25" y="-553.7" font-family="Helvetica,sans-Serif" font-size="9.00">Shape.js</text>
</a>
</g>
</g>
<!-- src/js/directable/dotmatrix/shape/fill/FillStrategyType.js -->
<g id="node16" class="node">
<title>src/js/directable/dotmatrix/shape/fill/FillStrategyType.js</title>
<g id="a_node16"><a xlink:href="src/js/directable/dotmatrix/shape/fill/FillStrategyType.js" xlink:title="FillStrategyType.js">
<path fill="#ffffcc" stroke="black" d="M1172.08,-624.25C1172.08,-624.25 1093.42,-624.25 1093.42,-624.25 1090.33,-624.25 1087.25,-621.17 1087.25,-618.08 1087.25,-618.08 1087.25,-611.92 1087.25,-611.92 1087.25,-608.83 1090.33,-605.75 1093.42,-605.75 1093.42,-605.75 1172.08,-605.75 1172.08,-605.75 1175.17,-605.75 1178.25,-608.83 1178.25,-611.92 1178.25,-611.92 1178.25,-618.08 1178.25,-618.08 1178.25,-621.17 1175.17,-624.25 1172.08,-624.25"/>
<text text-anchor="start" x="1095.25" y="-611.7" font-family="Helvetica,sans-Serif" font-size="9.00">FillStrategyType.js</text>
</a>
</g>
</g>
<!-- src/js/directable/dotmatrix/shape/ShapeManager.js&#45;&gt;src/js/directable/dotmatrix/shape/fill/FillStrategyType.js -->
<g id="edge10" class="edge">
<title>src/js/directable/dotmatrix/shape/ShapeManager.js&#45;&gt;src/js/directable/dotmatrix/shape/fill/FillStrategyType.js</title>
<path fill="none" stroke="#000000" stroke-width="2" stroke-opacity="0.200000" d="M841.65,-667.25C845.69,-665.19 849.35,-662.5 852.25,-659 869.16,-638.59 841.71,-558.94 860.25,-540 926.9,-471.94 990.35,-482.88 1074.25,-528 1101.34,-542.57 1117.79,-576.11 1125.8,-597.03"/>
<polygon fill="#000000" fill-opacity="0.200000" stroke="#000000" stroke-width="2" stroke-opacity="0.200000" points="1123.78,-597.6 1127.78,-602.53 1127.73,-596.18 1123.78,-597.6"/>
</g>
<!-- src/js/directable/dotmatrix/shape/fill/FillType.js -->
<g id="node17" class="node">
<title>src/js/directable/dotmatrix/shape/fill/FillType.js</title>
<g id="a_node17"><a xlink:href="src/js/directable/dotmatrix/shape/fill/FillType.js" xlink:title="FillType.js">
<path fill="#ffffcc" stroke="black" d="M1155.21,-655.25C1155.21,-655.25 1110.29,-655.25 1110.29,-655.25 1107.21,-655.25 1104.12,-652.17 1104.12,-649.08 1104.12,-649.08 1104.12,-642.92 1104.12,-642.92 1104.12,-639.83 1107.21,-636.75 1110.29,-636.75 1110.29,-636.75 1155.21,-636.75 1155.21,-636.75 1158.29,-636.75 1161.38,-639.83 1161.38,-642.92 1161.38,-642.92 1161.38,-649.08 1161.38,-649.08 1161.38,-652.17 1158.29,-655.25 1155.21,-655.25"/>
<text text-anchor="start" x="1112.12" y="-642.7" font-family="Helvetica,sans-Serif" font-size="9.00">FillType.js</text>
</a>
</g>
</g>
<!-- src/js/directable/dotmatrix/shape/ShapeManager.js&#45;&gt;src/js/directable/dotmatrix/shape/fill/FillType.js -->
<g id="edge11" class="edge">
<title>src/js/directable/dotmatrix/shape/ShapeManager.js&#45;&gt;src/js/directable/dotmatrix/shape/fill/FillType.js</title>
<path fill="none" stroke="#000000" stroke-width="2" stroke-opacity="0.200000" d="M841.51,-667.13C845.58,-665.1 849.28,-662.45 852.25,-659 874.14,-633.61 838.94,-609.88 860.25,-584 900.46,-535.16 933.7,-551.44 996.25,-542 1030.53,-536.83 1048.01,-519.35 1074.25,-542 1104.18,-567.83 1062.2,-599.41 1087.25,-630 1089.65,-632.93 1092.63,-635.32 1095.9,-637.28"/>
<polygon fill="#000000" fill-opacity="0.200000" stroke="#000000" stroke-width="2" stroke-opacity="0.200000" points="1094.88,-639.12 1101.2,-639.79 1096.68,-635.32 1094.88,-639.12"/>
</g>
<!-- src/js/directable/dotmatrix/shape/line/ShapeLineHorizontal.js -->
<g id="node18" class="node">
<title>src/js/directable/dotmatrix/shape/line/ShapeLineHorizontal.js</title>
<g id="a_node18"><a xlink:href="src/js/directable/dotmatrix/shape/line/ShapeLineHorizontal.js" xlink:title="ShapeLineHorizontal.js">
<path fill="#ffffcc" stroke="black" d="M974.08,-613.25C974.08,-613.25 874.42,-613.25 874.42,-613.25 871.33,-613.25 868.25,-610.17 868.25,-607.08 868.25,-607.08 868.25,-600.92 868.25,-600.92 868.25,-597.83 871.33,-594.75 874.42,-594.75 874.42,-594.75 974.08,-594.75 974.08,-594.75 977.17,-594.75 980.25,-597.83 980.25,-600.92 980.25,-600.92 980.25,-607.08 980.25,-607.08 980.25,-610.17 977.17,-613.25 974.08,-613.25"/>
<text text-anchor="start" x="876.25" y="-600.7" font-family="Helvetica,sans-Serif" font-size="9.00">ShapeLineHorizontal.js</text>
</a>
</g>
</g>
<!-- src/js/directable/dotmatrix/shape/ShapeManager.js&#45;&gt;src/js/directable/dotmatrix/shape/line/ShapeLineHorizontal.js -->
<g id="edge12" class="edge">
<title>src/js/directable/dotmatrix/shape/ShapeManager.js&#45;&gt;src/js/directable/dotmatrix/shape/line/ShapeLineHorizontal.js</title>
<path fill="none" stroke="#000000" stroke-width="2" stroke-opacity="0.200000" d="M841.71,-666.59C845.63,-664.64 849.25,-662.16 852.25,-659 864.44,-646.17 848.03,-632.8 860.25,-620 860.54,-619.69 860.84,-619.39 861.14,-619.1"/>
<polygon fill="#000000" fill-opacity="0.200000" stroke="#000000" stroke-width="2" stroke-opacity="0.200000" points="862.28,-620.87 865.72,-615.53 859.7,-617.56 862.28,-620.87"/>
</g>
<!-- src/js/directable/dotmatrix/shape/line/ShapeLineHorizontal.js&#45;&gt;src/js/directable/dotmatrix/shape/Shape.js -->
<g id="edge19" class="edge">
<title>src/js/directable/dotmatrix/shape/line/ShapeLineHorizontal.js&#45;&gt;src/js/directable/dotmatrix/shape/Shape.js</title>
<path fill="none" stroke="#000000" stroke-width="2" stroke-opacity="0.200000" d="M980.56,-595.81C983.27,-594.43 985.86,-592.84 988.25,-591 994.55,-586.15 990.47,-580.45 996.25,-575 998.64,-572.74 1001.36,-570.75 1004.24,-568.99"/>
<polygon fill="#000000" fill-opacity="0.200000" stroke="#000000" stroke-width="2" stroke-opacity="0.200000" points="1005.09,-570.91 1009.42,-566.26 1003.13,-567.19 1005.09,-570.91"/>
</g>
<!-- src/js/directable/dotmatrix/shape/line/ShapeLineHorizontal.js&#45;&gt;src/js/directable/dotmatrix/shape/fill/FillStrategyType.js -->
<g id="edge17" class="edge">
<title>src/js/directable/dotmatrix/shape/line/ShapeLineHorizontal.js&#45;&gt;src/js/directable/dotmatrix/shape/fill/FillStrategyType.js</title>
<path fill="none" stroke="#000000" stroke-width="2" stroke-opacity="0.200000" d="M973.45,-594.27C978.45,-593.19 983.46,-592.09 988.25,-591 991.82,-590.19 992.61,-589.45 996.25,-589 1030.66,-584.76 1040.36,-581.69 1074.25,-589 1085.63,-591.45 1097.47,-596.35 1107.42,-601.24"/>
<polygon fill="#000000" fill-opacity="0.200000" stroke="#000000" stroke-width="2" stroke-opacity="0.200000" points="1106.31,-603.02 1112.6,-603.9 1108.23,-599.29 1106.31,-603.02"/>
</g>
<!-- src/js/directable/dotmatrix/shape/line/ShapeLineHorizontal.js&#45;&gt;src/js/directable/dotmatrix/shape/fill/FillType.js -->
<g id="edge18" class="edge">
<title>src/js/directable/dotmatrix/shape/line/ShapeLineHorizontal.js&#45;&gt;src/js/directable/dotmatrix/shape/fill/FillType.js</title>
<path fill="none" stroke="#000000" stroke-width="2" stroke-opacity="0.200000" d="M980.75,-596.07C1016.58,-592.16 1059.22,-590.13 1074.25,-600 1086.4,-607.98 1076.65,-620.06 1087.25,-630 1089.8,-632.4 1092.74,-634.44 1095.87,-636.18"/>
<polygon fill="#000000" fill-opacity="0.200000" stroke="#000000" stroke-width="2" stroke-opacity="0.200000" points="1094.83,-638.01 1101.15,-638.63 1096.6,-634.2 1094.83,-638.01"/>
</g>
<!-- src/js/directable/dotmatrix/shape/fill/Fill.js -->
<g id="node19" class="node">
<title>src/js/directable/dotmatrix/shape/fill/Fill.js</title>
<g id="a_node19"><a xlink:href="src/js/directable/dotmatrix/shape/fill/Fill.js" xlink:title="Fill.js">
<path fill="#ffffcc" stroke="black" d="M1060.08,-655.25C1060.08,-655.25 1018.42,-655.25 1018.42,-655.25 1015.33,-655.25 1012.25,-652.17 1012.25,-649.08 1012.25,-649.08 1012.25,-642.92 1012.25,-642.92 1012.25,-639.83 1015.33,-636.75 1018.42,-636.75 1018.42,-636.75 1060.08,-636.75 1060.08,-636.75 1063.17,-636.75 1066.25,-639.83 1066.25,-642.92 1066.25,-642.92 1066.25,-649.08 1066.25,-649.08 1066.25,-652.17 1063.17,-655.25 1060.08,-655.25"/>
<text text-anchor="start" x="1028.75" y="-642.7" font-family="Helvetica,sans-Serif" font-size="9.00">Fill.js</text>
</a>
</g>
</g>
<!-- src/js/directable/dotmatrix/shape/line/ShapeLineHorizontal.js&#45;&gt;src/js/directable/dotmatrix/shape/fill/Fill.js -->
<g id="edge15" class="edge">
<title>src/js/directable/dotmatrix/shape/line/ShapeLineHorizontal.js&#45;&gt;src/js/directable/dotmatrix/shape/fill/Fill.js</title>
<path fill="none" stroke="#000000" stroke-width="2" stroke-opacity="0.200000" d="M976.01,-613.73C980.31,-615.48 984.46,-617.56 988.25,-620 993.03,-623.08 991.65,-626.65 996.25,-630 998.58,-631.7 1001.12,-633.24 1003.75,-634.64"/>
<polygon fill="#000000" fill-opacity="0.200000" stroke="#000000" stroke-width="2" stroke-opacity="0.200000" points="1002.75,-636.49 1009.08,-637.12 1004.52,-632.68 1002.75,-636.49"/>
</g>
<!-- src/js/directable/dotmatrix/shape/fill/FillStrategy.js -->
<g id="node20" class="node">
<title>src/js/directable/dotmatrix/shape/fill/FillStrategy.js</title>
<g id="a_node20"><a xlink:href="src/js/directable/dotmatrix/shape/fill/FillStrategy.js" xlink:title="FillStrategy.js">
<path fill="#ffffcc" stroke="black" d="M1068.08,-624.25C1068.08,-624.25 1010.42,-624.25 1010.42,-624.25 1007.33,-624.25 1004.25,-621.17 1004.25,-618.08 1004.25,-618.08 1004.25,-611.92 1004.25,-611.92 1004.25,-608.83 1007.33,-605.75 1010.42,-605.75 1010.42,-605.75 1068.08,-605.75 1068.08,-605.75 1071.17,-605.75 1074.25,-608.83 1074.25,-611.92 1074.25,-611.92 1074.25,-618.08 1074.25,-618.08 1074.25,-621.17 1071.17,-624.25 1068.08,-624.25"/>
<text text-anchor="start" x="1012.25" y="-611.7" font-family="Helvetica,sans-Serif" font-size="9.00">FillStrategy.js</text>
</a>
</g>
</g>
<!-- src/js/directable/dotmatrix/shape/line/ShapeLineHorizontal.js&#45;&gt;src/js/directable/dotmatrix/shape/fill/FillStrategy.js -->
<g id="edge16" class="edge">
<title>src/js/directable/dotmatrix/shape/line/ShapeLineHorizontal.js&#45;&gt;src/js/directable/dotmatrix/shape/fill/FillStrategy.js</title>
<path fill="none" stroke="#000000" stroke-width="2" stroke-opacity="0.200000" d="M980.43,-609.37C985.27,-609.84 990.13,-610.32 994.87,-610.78"/>
<polygon fill="#000000" fill-opacity="0.200000" stroke="#000000" stroke-width="2" stroke-opacity="0.200000" points="994.58,-612.86 1000.75,-611.35 994.98,-608.68 994.58,-612.86"/>
</g>
<!-- src/js/directable/dotmatrix/shape/fill/Fill.js&#45;&gt;src/js/directable/dotmatrix/shape/fill/FillType.js -->
<g id="edge13" class="edge">
<title>src/js/directable/dotmatrix/shape/fill/Fill.js&#45;&gt;src/js/directable/dotmatrix/shape/fill/FillType.js</title>
<path fill="none" stroke="#000000" stroke-width="2" stroke-opacity="0.200000" d="M1066.72,-646C1075.52,-646 1085.48,-646 1094.92,-646"/>
<polygon fill="#000000" fill-opacity="0.200000" stroke="#000000" stroke-width="2" stroke-opacity="0.200000" points="1094.72,-648.1 1100.72,-646 1094.72,-643.9 1094.72,-648.1"/>
</g>
<!-- src/js/directable/dotmatrix/shape/fill/FillStrategy.js&#45;&gt;src/js/directable/dotmatrix/shape/fill/FillStrategyType.js -->
<g id="edge14" class="edge">
<title>src/js/directable/dotmatrix/shape/fill/FillStrategy.js&#45;&gt;src/js/directable/dotmatrix/shape/fill/FillStrategyType.js</title>
<path fill="none" stroke="#000000" stroke-width="2" stroke-opacity="0.200000" d="M1074.58,-615C1075.72,-615 1076.87,-615 1078.03,-615"/>
<polygon fill="#000000" fill-opacity="0.200000" stroke="#000000" stroke-width="2" stroke-opacity="0.200000" points="1077.97,-617.1 1083.97,-615 1077.97,-612.9 1077.97,-617.1"/>
</g>
<!-- src/js/directable/dotmatrix/shape/glyph/ShapeGlyph_A.js -->
<g id="node21" class="node">
<title>src/js/directable/dotmatrix/shape/glyph/ShapeGlyph_A.js</title>
<g id="a_node21"><a xlink:href="src/js/directable/dotmatrix/shape/glyph/ShapeGlyph_A.js" xlink:title="ShapeGlyph_A.js">
<path fill="#ccffcc" stroke="black" d="M834.71,-258.25C834.71,-258.25 759.79,-258.25 759.79,-258.25 756.71,-258.25 753.62,-255.17 753.62,-252.08 753.62,-252.08 753.62,-245.92 753.62,-245.92 753.62,-242.83 756.71,-239.75 759.79,-239.75 759.79,-239.75 834.71,-239.75 834.71,-239.75 837.79,-239.75 840.88,-242.83 840.88,-245.92 840.88,-245.92 840.88,-252.08 840.88,-252.08 840.88,-255.17 837.79,-258.25 834.71,-258.25"/>
<text text-anchor="start" x="761.62" y="-245.7" font-family="Helvetica,sans-Serif" font-size="9.00">ShapeGlyph_A.js</text>
</a>
</g>
</g>
<!-- src/js/directable/dotmatrix/shape/glyph/ShapeGlyph_B.js -->
<g id="node22" class="node">
<title>src/js/directable/dotmatrix/shape/glyph/ShapeGlyph_B.js</title>
<g id="a_node22"><a xlink:href="src/js/directable/dotmatrix/shape/glyph/ShapeGlyph_B.js" xlink:title="ShapeGlyph_B.js">
<path fill="#ccffcc" stroke="black" d="M834.71,-289.25C834.71,-289.25 759.79,-289.25 759.79,-289.25 756.71,-289.25 753.62,-286.17 753.62,-283.08 753.62,-283.08 753.62,-276.92 753.62,-276.92 753.62,-273.83 756.71,-270.75 759.79,-270.75 759.79,-270.75 834.71,-270.75 834.71,-270.75 837.79,-270.75 840.88,-273.83 840.88,-276.92 840.88,-276.92 840.88,-283.08 840.88,-283.08 840.88,-286.17 837.79,-289.25 834.71,-289.25"/>
<text text-anchor="start" x="761.62" y="-276.7" font-family="Helvetica,sans-Serif" font-size="9.00">ShapeGlyph_B.js</text>
</a>
</g>
</g>
<!-- src/js/directable/dotmatrix/shape/glyph/ShapeGlyph_C.js -->
<g id="node23" class="node">
<title>src/js/directable/dotmatrix/shape/glyph/ShapeGlyph_C.js</title>
<g id="a_node23"><a xlink:href="src/js/directable/dotmatrix/shape/glyph/ShapeGlyph_C.js" xlink:title="ShapeGlyph_C.js">
<path fill="#ccffcc" stroke="black" d="M835.08,-320.25C835.08,-320.25 759.42,-320.25 759.42,-320.25 756.33,-320.25 753.25,-317.17 753.25,-314.08 753.25,-314.08 753.25,-307.92 753.25,-307.92 753.25,-304.83 756.33,-301.75 759.42,-301.75 759.42,-301.75 835.08,-301.75 835.08,-301.75 838.17,-301.75 841.25,-304.83 841.25,-307.92 841.25,-307.92 841.25,-314.08 841.25,-314.08 841.25,-317.17 838.17,-320.25 835.08,-320.25"/>
<text text-anchor="start" x="761.25" y="-307.7" font-family="Helvetica,sans-Serif" font-size="9.00">ShapeGlyph_C.js</text>
</a>
</g>
</g>
<!-- src/js/directable/dotmatrix/shape/glyph/ShapeGlyph_D.js -->
<g id="node24" class="node">
<title>src/js/directable/dotmatrix/shape/glyph/ShapeGlyph_D.js</title>
<g id="a_node24"><a xlink:href="src/js/directable/dotmatrix/shape/glyph/ShapeGlyph_D.js" xlink:title="ShapeGlyph_D.js">
<path fill="#ccffcc" stroke="black" d="M835.08,-351.25C835.08,-351.25 759.42,-351.25 759.42,-351.25 756.33,-351.25 753.25,-348.17 753.25,-345.08 753.25,-345.08 753.25,-338.92 753.25,-338.92 753.25,-335.83 756.33,-332.75 759.42,-332.75 759.42,-332.75 835.08,-332.75 835.08,-332.75 838.17,-332.75 841.25,-335.83 841.25,-338.92 841.25,-338.92 841.25,-345.08 841.25,-345.08 841.25,-348.17 838.17,-351.25 835.08,-351.25"/>
<text text-anchor="start" x="761.25" y="-338.7" font-family="Helvetica,sans-Serif" font-size="9.00">ShapeGlyph_D.js</text>
</a>
</g>
</g>
<!-- src/js/directable/dotmatrix/shape/glyph/ShapeGlyph_E.js -->
<g id="node25" class="node">
<title>src/js/directable/dotmatrix/shape/glyph/ShapeGlyph_E.js</title>
<g id="a_node25"><a xlink:href="src/js/directable/dotmatrix/shape/glyph/ShapeGlyph_E.js" xlink:title="ShapeGlyph_E.js">
<path fill="#ccffcc" stroke="black" d="M834.71,-382.25C834.71,-382.25 759.79,-382.25 759.79,-382.25 756.71,-382.25 753.62,-379.17 753.62,-376.08 753.62,-376.08 753.62,-369.92 753.62,-369.92 753.62,-366.83 756.71,-363.75 759.79,-363.75 759.79,-363.75 834.71,-363.75 834.71,-363.75 837.79,-363.75 840.88,-366.83 840.88,-369.92 840.88,-369.92 840.88,-376.08 840.88,-376.08 840.88,-379.17 837.79,-382.25 834.71,-382.25"/>
<text text-anchor="start" x="761.62" y="-369.7" font-family="Helvetica,sans-Serif" font-size="9.00">ShapeGlyph_E.js</text>
</a>
</g>
</g>
<!-- src/js/directable/dotmatrix/shape/glyph/ShapeGlyph_F.js -->
<g id="node26" class="node">
<title>src/js/directable/dotmatrix/shape/glyph/ShapeGlyph_F.js</title>
<g id="a_node26"><a xlink:href="src/js/directable/dotmatrix/shape/glyph/ShapeGlyph_F.js" xlink:title="ShapeGlyph_F.js">
<path fill="#ccffcc" stroke="black" d="M833.96,-413.25C833.96,-413.25 760.54,-413.25 760.54,-413.25 757.46,-413.25 754.38,-410.17 754.38,-407.08 754.38,-407.08 754.38,-400.92 754.38,-400.92 754.38,-397.83 757.46,-394.75 760.54,-394.75 760.54,-394.75 833.96,-394.75 833.96,-394.75 837.04,-394.75 840.12,-397.83 840.12,-400.92 840.12,-400.92 840.12,-407.08 840.12,-407.08 840.12,-410.17 837.04,-413.25 833.96,-413.25"/>
<text text-anchor="start" x="762.38" y="-400.7" font-family="Helvetica,sans-Serif" font-size="9.00">ShapeGlyph_F.js</text>
</a>
</g>
</g>
<!-- src/js/directable/dotmatrix/shape/glyph/ShapeGlyph_G.js -->
<g id="node27" class="node">
<title>src/js/directable/dotmatrix/shape/glyph/ShapeGlyph_G.js</title>
<g id="a_node27"><a xlink:href="src/js/directable/dotmatrix/shape/glyph/ShapeGlyph_G.js" xlink:title="ShapeGlyph_G.js">
<path fill="#ccffcc" stroke="black" d="M835.08,-444.25C835.08,-444.25 759.42,-444.25 759.42,-444.25 756.33,-444.25 753.25,-441.17 753.25,-438.08 753.25,-438.08 753.25,-431.92 753.25,-431.92 753.25,-428.83 756.33,-425.75 759.42,-425.75 759.42,-425.75 835.08,-425.75 835.08,-425.75 838.17,-425.75 841.25,-428.83 841.25,-431.92 841.25,-431.92 841.25,-438.08 841.25,-438.08 841.25,-441.17 838.17,-444.25 835.08,-444.25"/>
<text text-anchor="start" x="761.25" y="-431.7" font-family="Helvetica,sans-Serif" font-size="9.00">ShapeGlyph_G.js</text>
</a>
</g>
</g>
<!-- src/js/directable/dotmatrix/shape/glyph/ShapeGlyph_H.js -->
<g id="node28" class="node">
<title>src/js/directable/dotmatrix/shape/glyph/ShapeGlyph_H.js</title>
<g id="a_node28"><a xlink:href="src/js/directable/dotmatrix/shape/glyph/ShapeGlyph_H.js" xlink:title="ShapeGlyph_H.js">
<path fill="#ccffcc" stroke="black" d="M835.08,-475.25C835.08,-475.25 759.42,-475.25 759.42,-475.25 756.33,-475.25 753.25,-472.17 753.25,-469.08 753.25,-469.08 753.25,-462.92 753.25,-462.92 753.25,-459.83 756.33,-456.75 759.42,-456.75 759.42,-456.75 835.08,-456.75 835.08,-456.75 838.17,-456.75 841.25,-459.83 841.25,-462.92 841.25,-462.92 841.25,-469.08 841.25,-469.08 841.25,-472.17 838.17,-475.25 835.08,-475.25"/>
<text text-anchor="start" x="761.25" y="-462.7" font-family="Helvetica,sans-Serif" font-size="9.00">ShapeGlyph_H.js</text>
</a>
</g>
</g>
<!-- src/js/directable/dotmatrix/shape/glyph/ShapeGlyph_I.js -->
<g id="node29" class="node">
<title>src/js/directable/dotmatrix/shape/glyph/ShapeGlyph_I.js</title>
<g id="a_node29"><a xlink:href="src/js/directable/dotmatrix/shape/glyph/ShapeGlyph_I.js" xlink:title="ShapeGlyph_I.js">
<path fill="#ccffcc" stroke="black" d="M832.83,-506.25C832.83,-506.25 761.67,-506.25 761.67,-506.25 758.58,-506.25 755.5,-503.17 755.5,-500.08 755.5,-500.08 755.5,-493.92 755.5,-493.92 755.5,-490.83 758.58,-487.75 761.67,-487.75 761.67,-487.75 832.83,-487.75 832.83,-487.75 835.92,-487.75 839,-490.83 839,-493.92 839,-493.92 839,-500.08 839,-500.08 839,-503.17 835.92,-506.25 832.83,-506.25"/>
<text text-anchor="start" x="763.5" y="-493.7" font-family="Helvetica,sans-Serif" font-size="9.00">ShapeGlyph_I.js</text>
</a>
</g>
</g>
<!-- src/js/directable/dotmatrix/shape/glyph/ShapeGlyph_J.js -->
<g id="node30" class="node">
<title>src/js/directable/dotmatrix/shape/glyph/ShapeGlyph_J.js</title>
<g id="a_node30"><a xlink:href="src/js/directable/dotmatrix/shape/glyph/ShapeGlyph_J.js" xlink:title="ShapeGlyph_J.js">
<path fill="#ccffcc" stroke="black" d="M833.96,-537.25C833.96,-537.25 760.54,-537.25 760.54,-537.25 757.46,-537.25 754.38,-534.17 754.38,-531.08 754.38,-531.08 754.38,-524.92 754.38,-524.92 754.38,-521.83 757.46,-518.75 760.54,-518.75 760.54,-518.75 833.96,-518.75 833.96,-518.75 837.04,-518.75 840.12,-521.83 840.12,-524.92 840.12,-524.92 840.12,-531.08 840.12,-531.08 840.12,-534.17 837.04,-537.25 833.96,-537.25"/>
<text text-anchor="start" x="762.38" y="-524.7" font-family="Helvetica,sans-Serif" font-size="9.00">ShapeGlyph_J.js</text>
</a>
</g>
</g>
<!-- src/js/directable/dotmatrix/shape/glyph/ShapeGlyph_K.js -->
<g id="node31" class="node">
<title>src/js/directable/dotmatrix/shape/glyph/ShapeGlyph_K.js</title>
<g id="a_node31"><a xlink:href="src/js/directable/dotmatrix/shape/glyph/ShapeGlyph_K.js" xlink:title="ShapeGlyph_K.js">
<path fill="#ccffcc" stroke="black" d="M834.71,-568.25C834.71,-568.25 759.79,-568.25 759.79,-568.25 756.71,-568.25 753.62,-565.17 753.62,-562.08 753.62,-562.08 753.62,-555.92 753.62,-555.92 753.62,-552.83 756.71,-549.75 759.79,-549.75 759.79,-549.75 834.71,-549.75 834.71,-549.75 837.79,-549.75 840.88,-552.83 840.88,-555.92 840.88,-555.92 840.88,-562.08 840.88,-562.08 840.88,-565.17 837.79,-568.25 834.71,-568.25"/>
<text text-anchor="start" x="761.62" y="-555.7" font-family="Helvetica,sans-Serif" font-size="9.00">ShapeGlyph_K.js</text>
</a>
</g>
</g>
<!-- src/js/directable/dotmatrix/shape/line/ShapeLineVertical.js -->
<g id="node32" class="node">
<title>src/js/directable/dotmatrix/shape/line/ShapeLineVertical.js</title>
<g id="a_node32"><a xlink:href="src/js/directable/dotmatrix/shape/line/ShapeLineVertical.js" xlink:title="ShapeLineVertical.js">
<path fill="#ccffcc" stroke="black" d="M968.08,-644.25C968.08,-644.25 880.42,-644.25 880.42,-644.25 877.33,-644.25 874.25,-641.17 874.25,-638.08 874.25,-638.08 874.25,-631.92 874.25,-631.92 874.25,-628.83 877.33,-625.75 880.42,-625.75 880.42,-625.75 968.08,-625.75 968.08,-625.75 971.17,-625.75 974.25,-628.83 974.25,-631.92 974.25,-631.92 974.25,-638.08 974.25,-638.08 974.25,-641.17 971.17,-644.25 968.08,-644.25"/>
<text text-anchor="start" x="882.25" y="-631.7" font-family="Helvetica,sans-Serif" font-size="9.00">ShapeLineVertical.js</text>
</a>
</g>
</g>
<!-- src/js/directable/dotmatrix/shape/primative/ShapeRectangle.js -->
<g id="node33" class="node">
<title>src/js/directable/dotmatrix/shape/primative/ShapeRectangle.js</title>
<g id="a_node33"><a xlink:href="src/js/directable/dotmatrix/shape/primative/ShapeRectangle.js" xlink:title="ShapeRectangle.js">
<path fill="#ccffcc" stroke="black" d="M838.08,-629.25C838.08,-629.25 756.42,-629.25 756.42,-629.25 753.33,-629.25 750.25,-626.17 750.25,-623.08 750.25,-623.08 750.25,-616.92 750.25,-616.92 750.25,-613.83 753.33,-610.75 756.42,-610.75 756.42,-610.75 838.08,-610.75 838.08,-610.75 841.17,-610.75 844.25,-613.83 844.25,-616.92 844.25,-616.92 844.25,-623.08 844.25,-623.08 844.25,-626.17 841.17,-629.25 838.08,-629.25"/>
<text text-anchor="start" x="758.25" y="-616.7" font-family="Helvetica,sans-Serif" font-size="9.00">ShapeRectangle.js</text>
</a>
</g>
</g>
<!-- src/js/directable/dotmatrix/view/ViewFloor.js -->
<g id="node34" class="node">
<title>src/js/directable/dotmatrix/view/ViewFloor.js</title>
<g id="a_node34"><a xlink:href="src/js/directable/dotmatrix/view/ViewFloor.js" xlink:title="ViewFloor.js">
<path fill="#ccffcc" stroke="black" d="M695.21,-97.25C695.21,-97.25 642.04,-97.25 642.04,-97.25 638.96,-97.25 635.88,-94.17 635.88,-91.08 635.88,-91.08 635.88,-84.92 635.88,-84.92 635.88,-81.83 638.96,-78.75 642.04,-78.75 642.04,-78.75 695.21,-78.75 695.21,-78.75 698.29,-78.75 701.38,-81.83 701.38,-84.92 701.38,-84.92 701.38,-91.08 701.38,-91.08 701.38,-94.17 698.29,-97.25 695.21,-97.25"/>
<text text-anchor="start" x="643.88" y="-84.7" font-family="Helvetica,sans-Serif" font-size="9.00">ViewFloor.js</text>
</a>
</g>
</g>
<!-- src/js/directable/dotmatrix/view/ViewTest.js&#45;&gt;src/js/directable/dotmatrix/grid/GridData.js -->
<g id="edge24" class="edge">
<title>src/js/directable/dotmatrix/view/ViewTest.js&#45;&gt;src/js/directable/dotmatrix/grid/GridData.js</title>
<path fill="none" stroke="#000000" stroke-width="2" stroke-opacity="0.200000" d="M828.51,-93.99C845.4,-98.45 866.61,-104.05 884.68,-108.82"/>
<polygon fill="#000000" fill-opacity="0.200000" stroke="#000000" stroke-width="2" stroke-opacity="0.200000" points="884.01,-110.81 890.34,-110.31 885.08,-106.75 884.01,-110.81"/>
</g>
<!-- src/js/directable/dotmatrix/view/ViewTest.js&#45;&gt;src/js/directable/dotmatrix/shape/fill/FillStrategyType.js -->
<g id="edge25" class="edge">
<title>src/js/directable/dotmatrix/view/ViewTest.js&#45;&gt;src/js/directable/dotmatrix/shape/fill/FillStrategyType.js</title>
<path fill="none" stroke="#000000" stroke-width="2" stroke-opacity="0.200000" d="M824.33,-76.3C878.57,-58 1004.31,-25.6 1074.25,-89 1112.71,-123.86 1128.08,-507.2 1131.15,-596.49"/>
<polygon fill="#000000" fill-opacity="0.200000" stroke="#000000" stroke-width="2" stroke-opacity="0.200000" points="1129.04,-596.31 1131.34,-602.23 1133.24,-596.17 1129.04,-596.31"/>
</g>
<!-- src/js/directable/dotmatrix/view/ViewTest.js&#45;&gt;src/js/directable/dotmatrix/shape/fill/FillType.js -->
<g id="edge26" class="edge">
<title>src/js/directable/dotmatrix/view/ViewTest.js&#45;&gt;src/js/directable/dotmatrix/shape/fill/FillType.js</title>
<path fill="none" stroke="#000000" stroke-width="2" stroke-opacity="0.200000" d="M828.47,-80.51C867.95,-74.94 937.97,-70.71 988.25,-99 1046.07,-131.53 1053.2,-158.09 1074.25,-221 1088.68,-264.12 1060.51,-593.23 1087.25,-630 1089.59,-633.22 1092.65,-635.8 1096.07,-637.86"/>
<polygon fill="#000000" fill-opacity="0.200000" stroke="#000000" stroke-width="2" stroke-opacity="0.200000" points="1094.91,-639.64 1101.23,-640.3 1096.7,-635.84 1094.91,-639.64"/>
</g>
<!-- src/js/directable/dotmatrix/view/ViewTextTest.js -->
<g id="node36" class="node">
<title>src/js/directable/dotmatrix/view/ViewTextTest.js</title>
<g id="a_node36"><a xlink:href="src/js/directable/dotmatrix/view/ViewTextTest.js" xlink:title="ViewTextTest.js">
<path fill="#ccffcc" stroke="black" d="M701.58,-128.25C701.58,-128.25 635.67,-128.25 635.67,-128.25 632.58,-128.25 629.5,-125.17 629.5,-122.08 629.5,-122.08 629.5,-115.92 629.5,-115.92 629.5,-112.83 632.58,-109.75 635.67,-109.75 635.67,-109.75 701.58,-109.75 701.58,-109.75 704.67,-109.75 707.75,-112.83 707.75,-115.92 707.75,-115.92 707.75,-122.08 707.75,-122.08 707.75,-125.17 704.67,-128.25 701.58,-128.25"/>
<text text-anchor="start" x="637.5" y="-115.7" font-family="Helvetica,sans-Serif" font-size="9.00">ViewTextTest.js</text>
</a>
</g>
</g>
<!-- src/js/directable/frame/DirectableFrame.js -->
<g id="node37" class="node">
<title>src/js/directable/frame/DirectableFrame.js</title>
<g id="a_node37"><a xlink:href="src/js/directable/frame/DirectableFrame.js" xlink:title="DirectableFrame.js">
<path fill="#ffffcc" stroke="black" d="M563.46,-770.25C563.46,-770.25 482.54,-770.25 482.54,-770.25 479.46,-770.25 476.38,-767.17 476.38,-764.08 476.38,-764.08 476.38,-757.92 476.38,-757.92 476.38,-754.83 479.46,-751.75 482.54,-751.75 482.54,-751.75 563.46,-751.75 563.46,-751.75 566.54,-751.75 569.62,-754.83 569.62,-757.92 569.62,-757.92 569.62,-764.08 569.62,-764.08 569.62,-767.17 566.54,-770.25 563.46,-770.25"/>
<text text-anchor="start" x="484.38" y="-757.7" font-family="Helvetica,sans-Serif" font-size="9.00">DirectableFrame.js</text>
</a>
</g>
</g>
<!-- src/js/directable/rhythm/DirectableRhythm.js -->
<g id="node38" class="node">
<title>src/js/directable/rhythm/DirectableRhythm.js</title>
<g id="a_node38"><a xlink:href="src/js/directable/rhythm/DirectableRhythm.js" xlink:title="DirectableRhythm.js">
<path fill="#ffffcc" stroke="black" d="M711.71,-962.25C711.71,-962.25 625.54,-962.25 625.54,-962.25 622.46,-962.25 619.38,-959.17 619.38,-956.08 619.38,-956.08 619.38,-949.92 619.38,-949.92 619.38,-946.83 622.46,-943.75 625.54,-943.75 625.54,-943.75 711.71,-943.75 711.71,-943.75 714.79,-943.75 717.88,-946.83 717.88,-949.92 717.88,-949.92 717.88,-956.08 717.88,-956.08 717.88,-959.17 714.79,-962.25 711.71,-962.25"/>
<text text-anchor="start" x="627.38" y="-949.7" font-family="Helvetica,sans-Serif" font-size="9.00">DirectableRhythm.js</text>
</a>
</g>
</g>
<!-- src/js/directable/rhythm/asdr/ASDRData.js -->
<g id="node39" class="node">
<title>src/js/directable/rhythm/asdr/ASDRData.js</title>
<g id="a_node39"><a xlink:href="src/js/directable/rhythm/asdr/ASDRData.js" xlink:title="ASDRData.js">
<path fill="#ccffcc" stroke="black" d="M551.83,-839.25C551.83,-839.25 494.17,-839.25 494.17,-839.25 491.08,-839.25 488,-836.17 488,-833.08 488,-833.08 488,-826.92 488,-826.92 488,-823.83 491.08,-820.75 494.17,-820.75 494.17,-820.75 551.83,-820.75 551.83,-820.75 554.92,-820.75 558,-823.83 558,-826.92 558,-826.92 558,-833.08 558,-833.08 558,-836.17 554.92,-839.25 551.83,-839.25"/>
<text text-anchor="start" x="496" y="-826.7" font-family="Helvetica,sans-Serif" font-size="9.00">ASDRData.js</text>
</a>
</g>
</g>
<!-- src/js/directable/rhythm/asdr/ASDREnvelope.js -->
<g id="node40" class="node">
<title>src/js/directable/rhythm/asdr/ASDREnvelope.js</title>
<g id="a_node40"><a xlink:href="src/js/directable/rhythm/asdr/ASDREnvelope.js" xlink:title="ASDREnvelope.js">
<path fill="#ffffcc" stroke="black" d="M561.58,-870.25C561.58,-870.25 484.42,-870.25 484.42,-870.25 481.33,-870.25 478.25,-867.17 478.25,-864.08 478.25,-864.08 478.25,-857.92 478.25,-857.92 478.25,-854.83 481.33,-851.75 484.42,-851.75 484.42,-851.75 561.58,-851.75 561.58,-851.75 564.67,-851.75 567.75,-854.83 567.75,-857.92 567.75,-857.92 567.75,-864.08 567.75,-864.08 567.75,-867.17 564.67,-870.25 561.58,-870.25"/>
<text text-anchor="start" x="486.25" y="-857.7" font-family="Helvetica,sans-Serif" font-size="9.00">ASDREnvelope.js</text>
</a>
</g>
</g>
<!-- src/js/directable/rhythm/asdr/DirectableRhythmASDRManager.js -->
<g id="node41" class="node">
<title>src/js/directable/rhythm/asdr/DirectableRhythmASDRManager.js</title>
<g id="a_node41"><a xlink:href="src/js/directable/rhythm/asdr/DirectableRhythmASDRManager.js" xlink:title="DirectableRhythmASDRManager.js">
<path fill="#ffffcc" stroke="black" d="M596.83,-901.25C596.83,-901.25 449.17,-901.25 449.17,-901.25 446.08,-901.25 443,-898.17 443,-895.08 443,-895.08 443,-888.92 443,-888.92 443,-885.83 446.08,-882.75 449.17,-882.75 449.17,-882.75 596.83,-882.75 596.83,-882.75 599.92,-882.75 603,-885.83 603,-888.92 603,-888.92 603,-895.08 603,-895.08 603,-898.17 599.92,-901.25 596.83,-901.25"/>
<text text-anchor="start" x="451" y="-888.7" font-family="Helvetica,sans-Serif" font-size="9.00">DirectableRhythmASDRManager.js</text>
</a>
</g>
</g>
<!-- src/js/directable/rhythm/bpm/DirectableRhythmBPM.js -->
<g id="node42" class="node">
<title>src/js/directable/rhythm/bpm/DirectableRhythmBPM.js</title>
<g id="a_node42"><a xlink:href="src/js/directable/rhythm/bpm/DirectableRhythmBPM.js" xlink:title="DirectableRhythmBPM.js">
<path fill="#ffffcc" stroke="black" d="M575.83,-962.25C575.83,-962.25 470.17,-962.25 470.17,-962.25 467.08,-962.25 464,-959.17 464,-956.08 464,-956.08 464,-949.92 464,-949.92 464,-946.83 467.08,-943.75 470.17,-943.75 470.17,-943.75 575.83,-943.75 575.83,-943.75 578.92,-943.75 582,-946.83 582,-949.92 582,-949.92 582,-956.08 582,-956.08 582,-959.17 578.92,-962.25 575.83,-962.25"/>
<text text-anchor="start" x="472" y="-949.7" font-family="Helvetica,sans-Serif" font-size="9.00">DirectableRhythmBPM.js</text>
</a>
</g>
</g>
<!-- src/js/directable/rhythm/bpm/DirectableRhythmBPM.js&#45;&gt;src/js/directable/rhythm/DirectableRhythm.js -->
<g id="edge27" class="edge">
<title>src/js/directable/rhythm/bpm/DirectableRhythmBPM.js&#45;&gt;src/js/directable/rhythm/DirectableRhythm.js</title>
<path fill="none" stroke="#000000" stroke-width="2" stroke-opacity="0.200000" d="M582.42,-953C591.5,-953 600.89,-953 609.96,-953"/>
<polygon fill="#000000" fill-opacity="0.200000" stroke="#000000" stroke-width="2" stroke-opacity="0.200000" points="609.87,-955.1 615.87,-953 609.87,-950.9 609.87,-955.1"/>
</g>
<!-- src/js/directable/rhythm2/ViewRhythm.js -->
<g id="node43" class="node">
<title>src/js/directable/rhythm2/ViewRhythm.js</title>
<g id="a_node43"><a xlink:href="src/js/directable/rhythm2/ViewRhythm.js" xlink:title="ViewRhythm.js">
<path fill="#ffffcc" stroke="black" d="M555.21,-1050.25C555.21,-1050.25 490.79,-1050.25 490.79,-1050.25 487.71,-1050.25 484.62,-1047.17 484.62,-1044.08 484.62,-1044.08 484.62,-1037.92 484.62,-1037.92 484.62,-1034.83 487.71,-1031.75 490.79,-1031.75 490.79,-1031.75 555.21,-1031.75 555.21,-1031.75 558.29,-1031.75 561.38,-1034.83 561.38,-1037.92 561.38,-1037.92 561.38,-1044.08 561.38,-1044.08 561.38,-1047.17 558.29,-1050.25 555.21,-1050.25"/>
<text text-anchor="start" x="492.62" y="-1037.7" font-family="Helvetica,sans-Serif" font-size="9.00">ViewRhythm.js</text>
</a>
</g>
</g>
<!-- src/js/directable/rhythm2/ViewRhythmTrack.js -->
<g id="node44" class="node">
<title>src/js/directable/rhythm2/ViewRhythmTrack.js</title>
<g id="a_node44"><a xlink:href="src/js/directable/rhythm2/ViewRhythmTrack.js" xlink:title="ViewRhythmTrack.js">
<path fill="#ffffcc" stroke="black" d="M712.08,-1050.25C712.08,-1050.25 625.17,-1050.25 625.17,-1050.25 622.08,-1050.25 619,-1047.17 619,-1044.08 619,-1044.08 619,-1037.92 619,-1037.92 619,-1034.83 622.08,-1031.75 625.17,-1031.75 625.17,-1031.75 712.08,-1031.75 712.08,-1031.75 715.17,-1031.75 718.25,-1034.83 718.25,-1037.92 718.25,-1037.92 718.25,-1044.08 718.25,-1044.08 718.25,-1047.17 715.17,-1050.25 712.08,-1050.25"/>
<text text-anchor="start" x="627" y="-1037.7" font-family="Helvetica,sans-Serif" font-size="9.00">ViewRhythmTrack.js</text>
</a>
</g>
</g>
<!-- src/js/directable/rhythm2/ViewRhythm.js&#45;&gt;src/js/directable/rhythm2/ViewRhythmTrack.js -->
<g id="edge28" class="edge">
<title>src/js/directable/rhythm2/ViewRhythm.js&#45;&gt;src/js/directable/rhythm2/ViewRhythmTrack.js</title>
<path fill="none" stroke="#000000" stroke-width="2" stroke-opacity="0.200000" d="M561.74,-1041C576.39,-1041 593.51,-1041 609.66,-1041"/>
<polygon fill="#000000" fill-opacity="0.200000" stroke="#000000" stroke-width="2" stroke-opacity="0.200000" points="609.49,-1043.1 615.49,-1041 609.49,-1038.9 609.49,-1043.1"/>
</g>
<!-- src/js/index.js -->
<g id="node47" class="node">
<title>src/js/index.js</title>
<g id="a_node47"><a xlink:href="src/js/index.js" xlink:title="index.js">
<path fill="#ffffcc" stroke="black" d="M94.96,-1186.25C94.96,-1186.25 53.29,-1186.25 53.29,-1186.25 50.21,-1186.25 47.12,-1183.17 47.12,-1180.08 47.12,-1180.08 47.12,-1173.92 47.12,-1173.92 47.12,-1170.83 50.21,-1167.75 53.29,-1167.75 53.29,-1167.75 94.96,-1167.75 94.96,-1167.75 98.04,-1167.75 101.12,-1170.83 101.12,-1173.92 101.12,-1173.92 101.12,-1180.08 101.12,-1180.08 101.12,-1183.17 98.04,-1186.25 94.96,-1186.25"/>
<text text-anchor="start" x="58.38" y="-1173.7" font-family="Helvetica,sans-Serif" font-size="9.00">index.js</text>
</a>
</g>
</g>
<!-- src/js/index.js&#45;&gt;src/js/application/Application.js -->
<g id="edge33" class="edge">
<title>src/js/index.js&#45;&gt;src/js/application/Application.js</title>
<path fill="none" stroke="#000000" stroke-width="2" stroke-opacity="0.200000" d="M101.59,-1177C108.42,-1177 115.95,-1177 123.39,-1177"/>
<polygon fill="#000000" fill-opacity="0.200000" stroke="#000000" stroke-width="2" stroke-opacity="0.200000" points="123.01,-1179.1 129.01,-1177 123.01,-1174.9 123.01,-1179.1"/>
</g>
<!-- src/js/overlay/displayFormat/OverlayDisplayFormat.js&#45;&gt;src/js/display/DisplayFormats.js -->
<g id="edge36" class="edge">
<title>src/js/overlay/displayFormat/OverlayDisplayFormat.js&#45;&gt;src/js/display/DisplayFormats.js</title>
<path fill="none" stroke="#000000" stroke-width="2" stroke-opacity="0.200000" d="M559.18,-1249.26C575.38,-1244.18 594.6,-1237.28 611,-1229 624.2,-1222.33 637.89,-1212.98 648.5,-1205.11"/>
<polygon fill="#000000" fill-opacity="0.200000" stroke="#000000" stroke-width="2" stroke-opacity="0.200000" points="649.71,-1206.82 653.22,-1201.52 647.18,-1203.48 649.71,-1206.82"/>
</g>
<!-- src/js/overlay/OverlayUtil.js -->
<g id="node50" class="node">
<title>src/js/overlay/OverlayUtil.js</title>
<g id="a_node50"><a xlink:href="src/js/overlay/OverlayUtil.js" xlink:title="OverlayUtil.js">
<path fill="#ffffcc" stroke="black" d="M697.46,-1298.25C697.46,-1298.25 639.79,-1298.25 639.79,-1298.25 636.71,-1298.25 633.62,-1295.17 633.62,-1292.08 633.62,-1292.08 633.62,-1285.92 633.62,-1285.92 633.62,-1282.83 636.71,-1279.75 639.79,-1279.75 639.79,-1279.75 697.46,-1279.75 697.46,-1279.75 700.54,-1279.75 703.62,-1282.83 703.62,-1285.92 703.62,-1285.92 703.62,-1292.08 703.62,-1292.08 703.62,-1295.17 700.54,-1298.25 697.46,-1298.25"/>
<text text-anchor="start" x="641.62" y="-1285.7" font-family="Helvetica,sans-Serif" font-size="9.00">OverlayUtil.js</text>
</a>
</g>
</g>
<!-- src/js/overlay/displayFormat/OverlayDisplayFormat.js&#45;&gt;src/js/overlay/OverlayUtil.js -->
<g id="edge37" class="edge">
<title>src/js/overlay/displayFormat/OverlayDisplayFormat.js&#45;&gt;src/js/overlay/OverlayUtil.js</title>
<path fill="none" stroke="#000000" stroke-width="2" stroke-opacity="0.200000" d="M570.63,-1268.74C588.07,-1272.38 607.77,-1276.5 624.85,-1280.06"/>
<polygon fill="#000000" fill-opacity="0.200000" stroke="#000000" stroke-width="2" stroke-opacity="0.200000" points="624.24,-1282.08 630.55,-1281.26 625.1,-1277.97 624.24,-1282.08"/>
</g>
<!-- src/js/overlay/overlay/OverlayOverlay.js&#45;&gt;src/js/overlay/OverlayUtil.js -->
<g id="edge38" class="edge">
<title>src/js/overlay/overlay/OverlayOverlay.js&#45;&gt;src/js/overlay/OverlayUtil.js</title>
<path fill="none" stroke="#000000" stroke-width="2" stroke-opacity="0.200000" d="M567.09,-1310.7C585.27,-1306.78 606.39,-1302.22 624.56,-1298.29"/>
<polygon fill="#000000" fill-opacity="0.200000" stroke="#000000" stroke-width="2" stroke-opacity="0.200000" points="624.84,-1300.38 630.26,-1297.06 623.96,-1296.28 624.84,-1300.38"/>
</g>
</g>
</svg>
