<?xml version="1.0" encoding="UTF-8" standalone="no"?>
<!DOCTYPE svg PUBLIC "-//W3C//DTD SVG 1.1//EN"
 "http://www.w3.org/Graphics/SVG/1.1/DTD/svg11.dtd">
<!-- Generated by graphviz version 12.2.1 (20241206.2353)
 -->
<!-- Title: dependency&#45;cruiser output Pages: 1 -->
<svg width="881pt" height="1888pt"
 viewBox="0.00 0.00 880.50 1888.00" xmlns="http://www.w3.org/2000/svg" xmlns:xlink="http://www.w3.org/1999/xlink">
<g id="graph0" class="graph" transform="scale(1 1) rotate(0) translate(4 1884)">
<title>dependency&#45;cruiser output</title>
<polygon fill="white" stroke="none" points="-4,4 -4,-1884 876.5,-1884 876.5,4 -4,4"/>
<g id="clust1" class="cluster">
<title>cluster_src</title>
<path fill="#ffffff" stroke="black" stroke-width="2" d="M20,-8C20,-8 852.5,-8 852.5,-8 858.5,-8 864.5,-14 864.5,-20 864.5,-20 864.5,-1860 864.5,-1860 864.5,-1866 858.5,-1872 852.5,-1872 852.5,-1872 20,-1872 20,-1872 14,-1872 8,-1866 8,-1860 8,-1860 8,-20 8,-20 8,-14 14,-8 20,-8"/>
<text text-anchor="middle" x="436.25" y="-1859.45" font-family="Helvetica,sans-Serif" font-weight="bold" font-size="9.00">src</text>
</g>
<g id="clust2" class="cluster">
<title>cluster_src/js</title>
<path fill="#ffffff" stroke="black" stroke-width="2" d="M28,-16C28,-16 844.5,-16 844.5,-16 850.5,-16 856.5,-22 856.5,-28 856.5,-28 856.5,-1833 856.5,-1833 856.5,-1839 850.5,-1845 844.5,-1845 844.5,-1845 28,-1845 28,-1845 22,-1845 16,-1839 16,-1833 16,-1833 16,-28 16,-28 16,-22 22,-16 28,-16"/>
<text text-anchor="middle" x="436.25" y="-1832.45" font-family="Helvetica,sans-Serif" font-weight="bold" font-size="9.00">js</text>
</g>
<g id="clust3" class="cluster">
<title>cluster_src/js/application</title>
<path fill="#ffffff" stroke="black" stroke-width="2" d="M136.25,-1580C136.25,-1580 199,-1580 199,-1580 205,-1580 211,-1586 211,-1592 211,-1592 211,-1621 211,-1621 211,-1627 205,-1633 199,-1633 199,-1633 136.25,-1633 136.25,-1633 130.25,-1633 124.25,-1627 124.25,-1621 124.25,-1621 124.25,-1592 124.25,-1592 124.25,-1586 130.25,-1580 136.25,-1580"/>
<text text-anchor="middle" x="167.62" y="-1620.45" font-family="Helvetica,sans-Serif" font-weight="bold" font-size="9.00">application</text>
</g>
<g id="clust4" class="cluster">
<title>cluster_src/js/controller</title>
<path fill="#ffffff" stroke="black" stroke-width="2" d="M231,-1580C231,-1580 287.75,-1580 287.75,-1580 293.75,-1580 299.75,-1586 299.75,-1592 299.75,-1592 299.75,-1621 299.75,-1621 299.75,-1627 293.75,-1633 287.75,-1633 287.75,-1633 231,-1633 231,-1633 225,-1633 219,-1627 219,-1621 219,-1621 219,-1592 219,-1592 219,-1586 225,-1580 231,-1580"/>
<text text-anchor="middle" x="259.38" y="-1620.45" font-family="Helvetica,sans-Serif" font-weight="bold" font-size="9.00">controller</text>
</g>
<g id="clust5" class="cluster">
<title>cluster_src/js/data</title>
<path fill="#ffffff" stroke="black" stroke-width="2" d="M36,-787C36,-787 191.12,-787 191.12,-787 197.12,-787 203.12,-793 203.12,-799 203.12,-799 203.12,-828 203.12,-828 203.12,-834 197.12,-840 191.12,-840 191.12,-840 36,-840 36,-840 30,-840 24,-834 24,-828 24,-828 24,-799 24,-799 24,-793 30,-787 36,-787"/>
<text text-anchor="middle" x="113.56" y="-827.45" font-family="Helvetica,sans-Serif" font-weight="bold" font-size="9.00">data</text>
</g>
<g id="clust6" class="cluster">
<title>cluster_src/js/directable</title>
<path fill="#ffffff" stroke="black" stroke-width="2" d="M400.25,-24C400.25,-24 723.75,-24 723.75,-24 729.75,-24 735.75,-30 735.75,-36 735.75,-36 735.75,-1522 735.75,-1522 735.75,-1528 729.75,-1534 723.75,-1534 723.75,-1534 400.25,-1534 400.25,-1534 394.25,-1534 388.25,-1528 388.25,-1522 388.25,-1522 388.25,-36 388.25,-36 388.25,-30 394.25,-24 400.25,-24"/>
<text text-anchor="middle" x="562" y="-1521.45" font-family="Helvetica,sans-Serif" font-weight="bold" font-size="9.00">directable</text>
</g>
<g id="clust7" class="cluster">
<title>cluster_src/js/directable/directables</title>
<path fill="#ffffff" stroke="black" stroke-width="2" d="M408.25,-32C408.25,-32 715.75,-32 715.75,-32 721.75,-32 727.75,-38 727.75,-44 727.75,-44 727.75,-1495 727.75,-1495 727.75,-1501 721.75,-1507 715.75,-1507 715.75,-1507 408.25,-1507 408.25,-1507 402.25,-1507 396.25,-1501 396.25,-1495 396.25,-1495 396.25,-44 396.25,-44 396.25,-38 402.25,-32 408.25,-32"/>
<text text-anchor="middle" x="562" y="-1494.45" font-family="Helvetica,sans-Serif" font-weight="bold" font-size="9.00">directables</text>
</g>
<g id="clust8" class="cluster">
<title>cluster_src/js/directable/directables/dotmatrix</title>
<path fill="#ffffff" stroke="black" stroke-width="2" d="M431.62,-40C431.62,-40 706.75,-40 706.75,-40 712.75,-40 718.75,-46 718.75,-52 718.75,-52 718.75,-1066 718.75,-1066 718.75,-1072 712.75,-1078 706.75,-1078 706.75,-1078 431.62,-1078 431.62,-1078 425.62,-1078 419.62,-1072 419.62,-1066 419.62,-1066 419.62,-52 419.62,-52 419.62,-46 425.62,-40 431.62,-40"/>
<text text-anchor="middle" x="569.19" y="-1065.45" font-family="Helvetica,sans-Serif" font-weight="bold" font-size="9.00">dotmatrix</text>
</g>
<g id="clust9" class="cluster">
<title>cluster_src/js/directable/directables/dotmatrix/dots</title>
<path fill="#ffffff" stroke="black" stroke-width="2" d="M466.62,-48C466.62,-48 533.88,-48 533.88,-48 539.88,-48 545.88,-54 545.88,-60 545.88,-60 545.88,-120 545.88,-120 545.88,-126 539.88,-132 533.88,-132 533.88,-132 466.62,-132 466.62,-132 460.62,-132 454.62,-126 454.62,-120 454.62,-120 454.62,-60 454.62,-60 454.62,-54 460.62,-48 466.62,-48"/>
<text text-anchor="middle" x="500.25" y="-119.45" font-family="Helvetica,sans-Serif" font-weight="bold" font-size="9.00">dots</text>
</g>
<g id="clust10" class="cluster">
<title>cluster_src/js/directable/directables/dotmatrix/grid</title>
<path fill="#ffffff" stroke="black" stroke-width="2" d="M439.62,-140C439.62,-140 560.88,-140 560.88,-140 566.88,-140 572.88,-146 572.88,-152 572.88,-152 572.88,-243 572.88,-243 572.88,-249 566.88,-255 560.88,-255 560.88,-255 439.62,-255 439.62,-255 433.62,-255 427.62,-249 427.62,-243 427.62,-243 427.62,-152 427.62,-152 427.62,-146 433.62,-140 439.62,-140"/>
<text text-anchor="middle" x="500.25" y="-242.45" font-family="Helvetica,sans-Serif" font-weight="bold" font-size="9.00">grid</text>
</g>
<g id="clust11" class="cluster">
<title>cluster_src/js/directable/directables/dotmatrix/shapes</title>
<path fill="#ffffff" stroke="black" stroke-width="2" d="M440.25,-263C440.25,-263 560.25,-263 560.25,-263 566.25,-263 572.25,-269 572.25,-275 572.25,-275 572.25,-1013 572.25,-1013 572.25,-1019 566.25,-1025 560.25,-1025 560.25,-1025 440.25,-1025 440.25,-1025 434.25,-1025 428.25,-1019 428.25,-1013 428.25,-1013 428.25,-275 428.25,-275 428.25,-269 434.25,-263 440.25,-263"/>
<text text-anchor="middle" x="500.25" y="-1012.45" font-family="Helvetica,sans-Serif" font-weight="bold" font-size="9.00">shapes</text>
</g>
<g id="clust12" class="cluster">
<title>cluster_src/js/directable/directables/dotmatrix/shapes/fill</title>
<path fill="#ffffff" stroke="black" stroke-width="2" d="M458.75,-271C458.75,-271 541.75,-271 541.75,-271 547.75,-271 553.75,-277 553.75,-283 553.75,-283 553.75,-405 553.75,-405 553.75,-411 547.75,-417 541.75,-417 541.75,-417 458.75,-417 458.75,-417 452.75,-417 446.75,-411 446.75,-405 446.75,-405 446.75,-283 446.75,-283 446.75,-277 452.75,-271 458.75,-271"/>
<text text-anchor="middle" x="500.25" y="-404.45" font-family="Helvetica,sans-Serif" font-weight="bold" font-size="9.00">fill</text>
</g>
<g id="clust13" class="cluster">
<title>cluster_src/js/directable/directables/dotmatrix/shapes/glyph</title>
<path fill="#ffffff" stroke="black" stroke-width="2" d="M460.25,-425C460.25,-425 540.25,-425 540.25,-425 546.25,-425 552.25,-431 552.25,-437 552.25,-437 552.25,-776 552.25,-776 552.25,-782 546.25,-788 540.25,-788 540.25,-788 460.25,-788 460.25,-788 454.25,-788 448.25,-782 448.25,-776 448.25,-776 448.25,-437 448.25,-437 448.25,-431 454.25,-425 460.25,-425"/>
<text text-anchor="middle" x="500.25" y="-775.45" font-family="Helvetica,sans-Serif" font-weight="bold" font-size="9.00">glyph</text>
</g>
<g id="clust14" class="cluster">
<title>cluster_src/js/directable/directables/dotmatrix/shapes/line</title>
<path fill="#ffffff" stroke="black" stroke-width="2" d="M448.25,-796C448.25,-796 552.25,-796 552.25,-796 558.25,-796 564.25,-802 564.25,-808 564.25,-808 564.25,-868 564.25,-868 564.25,-874 558.25,-880 552.25,-880 552.25,-880 448.25,-880 448.25,-880 442.25,-880 436.25,-874 436.25,-868 436.25,-868 436.25,-808 436.25,-808 436.25,-802 442.25,-796 448.25,-796"/>
<text text-anchor="middle" x="500.25" y="-867.45" font-family="Helvetica,sans-Serif" font-weight="bold" font-size="9.00">line</text>
</g>
<g id="clust15" class="cluster">
<title>cluster_src/js/directable/directables/dotmatrix/shapes/primative</title>
<path fill="#ffffff" stroke="black" stroke-width="2" d="M457.25,-888C457.25,-888 543.25,-888 543.25,-888 549.25,-888 555.25,-894 555.25,-900 555.25,-900 555.25,-929 555.25,-929 555.25,-935 549.25,-941 543.25,-941 543.25,-941 457.25,-941 457.25,-941 451.25,-941 445.25,-935 445.25,-929 445.25,-929 445.25,-900 445.25,-900 445.25,-894 451.25,-888 457.25,-888"/>
<text text-anchor="middle" x="500.25" y="-928.45" font-family="Helvetica,sans-Serif" font-weight="bold" font-size="9.00">primative</text>
</g>
<g id="clust16" class="cluster">
<title>cluster_src/js/directable/directables/dotmatrix/view</title>
<path fill="#ffffff" stroke="black" stroke-width="2" d="M625.5,-874C625.5,-874 698.75,-874 698.75,-874 704.75,-874 710.75,-880 710.75,-886 710.75,-886 710.75,-1039 710.75,-1039 710.75,-1045 704.75,-1051 698.75,-1051 698.75,-1051 625.5,-1051 625.5,-1051 619.5,-1051 613.5,-1045 613.5,-1039 613.5,-1039 613.5,-886 613.5,-886 613.5,-880 619.5,-874 625.5,-874"/>
<text text-anchor="middle" x="662.12" y="-1038.45" font-family="Helvetica,sans-Serif" font-weight="bold" font-size="9.00">view</text>
</g>
<g id="clust17" class="cluster">
<title>cluster_src/js/directable/directables/frame</title>
<path fill="#ffffff" stroke="black" stroke-width="2" d="M457.62,-1086C457.62,-1086 542.88,-1086 542.88,-1086 548.88,-1086 554.88,-1092 554.88,-1098 554.88,-1098 554.88,-1127 554.88,-1127 554.88,-1133 548.88,-1139 542.88,-1139 542.88,-1139 457.62,-1139 457.62,-1139 451.62,-1139 445.62,-1133 445.62,-1127 445.62,-1127 445.62,-1098 445.62,-1098 445.62,-1092 451.62,-1086 457.62,-1086"/>
<text text-anchor="middle" x="500.25" y="-1126.45" font-family="Helvetica,sans-Serif" font-weight="bold" font-size="9.00">frame</text>
</g>
<g id="clust18" class="cluster">
<title>cluster_src/js/directable/directables/rhythm</title>
<path fill="#ffffff" stroke="black" stroke-width="2" d="M416.25,-1147C416.25,-1147 707.38,-1147 707.38,-1147 713.38,-1147 719.38,-1153 719.38,-1159 719.38,-1159 719.38,-1346 719.38,-1346 719.38,-1352 713.38,-1358 707.38,-1358 707.38,-1358 416.25,-1358 416.25,-1358 410.25,-1358 404.25,-1352 404.25,-1346 404.25,-1346 404.25,-1159 404.25,-1159 404.25,-1153 410.25,-1147 416.25,-1147"/>
<text text-anchor="middle" x="561.81" y="-1345.45" font-family="Helvetica,sans-Serif" font-weight="bold" font-size="9.00">rhythm</text>
</g>
<g id="clust19" class="cluster">
<title>cluster_src/js/directable/directables/rhythm/asdr</title>
<path fill="#ffffff" stroke="black" stroke-width="2" d="M424.25,-1155C424.25,-1155 576.25,-1155 576.25,-1155 582.25,-1155 588.25,-1161 588.25,-1167 588.25,-1167 588.25,-1258 588.25,-1258 588.25,-1264 582.25,-1270 576.25,-1270 576.25,-1270 424.25,-1270 424.25,-1270 418.25,-1270 412.25,-1264 412.25,-1258 412.25,-1258 412.25,-1167 412.25,-1167 412.25,-1161 418.25,-1155 424.25,-1155"/>
<text text-anchor="middle" x="500.25" y="-1257.45" font-family="Helvetica,sans-Serif" font-weight="bold" font-size="9.00">asdr</text>
</g>
<g id="clust20" class="cluster">
<title>cluster_src/js/directable/directables/rhythm/bpm</title>
<path fill="#ffffff" stroke="black" stroke-width="2" d="M445.25,-1278C445.25,-1278 555.25,-1278 555.25,-1278 561.25,-1278 567.25,-1284 567.25,-1290 567.25,-1290 567.25,-1319 567.25,-1319 567.25,-1325 561.25,-1331 555.25,-1331 555.25,-1331 445.25,-1331 445.25,-1331 439.25,-1331 433.25,-1325 433.25,-1319 433.25,-1319 433.25,-1290 433.25,-1290 433.25,-1284 439.25,-1278 445.25,-1278"/>
<text text-anchor="middle" x="500.25" y="-1318.45" font-family="Helvetica,sans-Serif" font-weight="bold" font-size="9.00">bpm</text>
</g>
<g id="clust21" class="cluster">
<title>cluster_src/js/directable/directables/rhythm2</title>
<path fill="#ffffff" stroke="black" stroke-width="2" d="M465.88,-1366C465.88,-1366 707.75,-1366 707.75,-1366 713.75,-1366 719.75,-1372 719.75,-1378 719.75,-1378 719.75,-1407 719.75,-1407 719.75,-1413 713.75,-1419 707.75,-1419 707.75,-1419 465.88,-1419 465.88,-1419 459.88,-1419 453.88,-1413 453.88,-1407 453.88,-1407 453.88,-1378 453.88,-1378 453.88,-1372 459.88,-1366 465.88,-1366"/>
<text text-anchor="middle" x="586.81" y="-1406.45" font-family="Helvetica,sans-Serif" font-weight="bold" font-size="9.00">rhythm2</text>
</g>
<g id="clust22" class="cluster">
<title>cluster_src/js/directable/directables/title</title>
<path fill="#ffffff" stroke="black" stroke-width="2" d="M462.12,-1427C462.12,-1427 538.38,-1427 538.38,-1427 544.38,-1427 550.38,-1433 550.38,-1439 550.38,-1439 550.38,-1468 550.38,-1468 550.38,-1474 544.38,-1480 538.38,-1480 538.38,-1480 462.12,-1480 462.12,-1480 456.12,-1480 450.12,-1474 450.12,-1468 450.12,-1468 450.12,-1439 450.12,-1439 450.12,-1433 456.12,-1427 462.12,-1427"/>
<text text-anchor="middle" x="500.25" y="-1467.45" font-family="Helvetica,sans-Serif" font-weight="bold" font-size="9.00">title</text>
</g>
<g id="clust23" class="cluster">
<title>cluster_src/js/director</title>
<path fill="#ffffff" stroke="black" stroke-width="2" d="M319.75,-1353C319.75,-1353 368.25,-1353 368.25,-1353 374.25,-1353 380.25,-1359 380.25,-1365 380.25,-1365 380.25,-1394 380.25,-1394 380.25,-1400 374.25,-1406 368.25,-1406 368.25,-1406 319.75,-1406 319.75,-1406 313.75,-1406 307.75,-1400 307.75,-1394 307.75,-1394 307.75,-1365 307.75,-1365 307.75,-1359 313.75,-1353 319.75,-1353"/>
<text text-anchor="middle" x="344" y="-1393.45" font-family="Helvetica,sans-Serif" font-weight="bold" font-size="9.00">director</text>
</g>
<g id="clust24" class="cluster">
<title>cluster_src/js/enum</title>
<path fill="#ffffff" stroke="black" stroke-width="2" d="M755.75,-1703C755.75,-1703 836.5,-1703 836.5,-1703 842.5,-1703 848.5,-1709 848.5,-1715 848.5,-1715 848.5,-1744 848.5,-1744 848.5,-1750 842.5,-1756 836.5,-1756 836.5,-1756 755.75,-1756 755.75,-1756 749.75,-1756 743.75,-1750 743.75,-1744 743.75,-1744 743.75,-1715 743.75,-1715 743.75,-1709 749.75,-1703 755.75,-1703"/>
<text text-anchor="middle" x="796.12" y="-1743.45" font-family="Helvetica,sans-Serif" font-weight="bold" font-size="9.00">enum</text>
</g>
<g id="clust25" class="cluster">
<title>cluster_src/js/overlay</title>
<path fill="#ffffff" stroke="black" stroke-width="2" d="M476.38,-1542C476.38,-1542 827.12,-1542 827.12,-1542 833.12,-1542 839.12,-1548 839.12,-1554 839.12,-1554 839.12,-1679 839.12,-1679 839.12,-1685 833.12,-1691 827.12,-1691 827.12,-1691 476.38,-1691 476.38,-1691 470.38,-1691 464.38,-1685 464.38,-1679 464.38,-1679 464.38,-1554 464.38,-1554 464.38,-1548 470.38,-1542 476.38,-1542"/>
<text text-anchor="middle" x="651.75" y="-1678.45" font-family="Helvetica,sans-Serif" font-weight="bold" font-size="9.00">overlay</text>
</g>
<g id="clust26" class="cluster">
<title>cluster_src/js/overlay/displayFormat</title>
<path fill="#ffffff" stroke="black" stroke-width="2" d="M608.25,-1611C608.25,-1611 716,-1611 716,-1611 722,-1611 728,-1617 728,-1623 728,-1623 728,-1652 728,-1652 728,-1658 722,-1664 716,-1664 716,-1664 608.25,-1664 608.25,-1664 602.25,-1664 596.25,-1658 596.25,-1652 596.25,-1652 596.25,-1623 596.25,-1623 596.25,-1617 602.25,-1611 608.25,-1611"/>
<text text-anchor="middle" x="662.12" y="-1651.45" font-family="Helvetica,sans-Serif" font-weight="bold" font-size="9.00">displayFormat</text>
</g>
<g id="clust27" class="cluster">
<title>cluster_src/js/overlay/overlay</title>
<path fill="#ffffff" stroke="black" stroke-width="2" d="M622.5,-1550C622.5,-1550 701.75,-1550 701.75,-1550 707.75,-1550 713.75,-1556 713.75,-1562 713.75,-1562 713.75,-1591 713.75,-1591 713.75,-1597 707.75,-1603 701.75,-1603 701.75,-1603 622.5,-1603 622.5,-1603 616.5,-1603 610.5,-1597 610.5,-1591 610.5,-1591 610.5,-1562 610.5,-1562 610.5,-1556 616.5,-1550 622.5,-1550"/>
<text text-anchor="middle" x="662.12" y="-1590.45" font-family="Helvetica,sans-Serif" font-weight="bold" font-size="9.00">overlay</text>
</g>
<g id="clust28" class="cluster">
<title>cluster_src/js/view</title>
<path fill="#ffffff" stroke="black" stroke-width="2" d="M321,-1699C321,-1699 709.75,-1699 709.75,-1699 715.75,-1699 721.75,-1705 721.75,-1711 721.75,-1711 721.75,-1806 721.75,-1806 721.75,-1812 715.75,-1818 709.75,-1818 709.75,-1818 321,-1818 321,-1818 315,-1818 309,-1812 309,-1806 309,-1806 309,-1711 309,-1711 309,-1705 315,-1699 321,-1699"/>
<text text-anchor="middle" x="515.38" y="-1805.45" font-family="Helvetica,sans-Serif" font-weight="bold" font-size="9.00">view</text>
</g>
<g id="clust29" class="cluster">
<title>cluster_src/js/view/render</title>
<path fill="#ffffff" stroke="black" stroke-width="2" d="M456.5,-1707C456.5,-1707 701.75,-1707 701.75,-1707 707.75,-1707 713.75,-1713 713.75,-1719 713.75,-1719 713.75,-1779 713.75,-1779 713.75,-1785 707.75,-1791 701.75,-1791 701.75,-1791 456.5,-1791 456.5,-1791 450.5,-1791 444.5,-1785 444.5,-1779 444.5,-1779 444.5,-1719 444.5,-1719 444.5,-1713 450.5,-1707 456.5,-1707"/>
<text text-anchor="middle" x="579.12" y="-1778.45" font-family="Helvetica,sans-Serif" font-weight="bold" font-size="9.00">render</text>
</g>
<!-- src/js/application/Application.js -->
<g id="node1" class="node">
<title>src/js/application/Application.js</title>
<g id="a_node1"><a xlink:href="src/js/application/Application.js" xlink:title="Application.js">
<path fill="#ffffcc" stroke="black" d="M196.83,-1606.25C196.83,-1606.25 138.42,-1606.25 138.42,-1606.25 135.33,-1606.25 132.25,-1603.17 132.25,-1600.08 132.25,-1600.08 132.25,-1593.92 132.25,-1593.92 132.25,-1590.83 135.33,-1587.75 138.42,-1587.75 138.42,-1587.75 196.83,-1587.75 196.83,-1587.75 199.92,-1587.75 203,-1590.83 203,-1593.92 203,-1593.92 203,-1600.08 203,-1600.08 203,-1603.17 199.92,-1606.25 196.83,-1606.25"/>
<text text-anchor="start" x="140.25" y="-1593.7" font-family="Helvetica,sans-Serif" font-size="9.00">Application.js</text>
</a>
</g>
</g>
<!-- src/js/controller/Controller.js -->
<g id="node2" class="node">
<title>src/js/controller/Controller.js</title>
<g id="a_node2"><a xlink:href="src/js/controller/Controller.js" xlink:title="Controller.js">
<path fill="#ffffcc" stroke="black" d="M285.58,-1606.25C285.58,-1606.25 233.17,-1606.25 233.17,-1606.25 230.08,-1606.25 227,-1603.17 227,-1600.08 227,-1600.08 227,-1593.92 227,-1593.92 227,-1590.83 230.08,-1587.75 233.17,-1587.75 233.17,-1587.75 285.58,-1587.75 285.58,-1587.75 288.67,-1587.75 291.75,-1590.83 291.75,-1593.92 291.75,-1593.92 291.75,-1600.08 291.75,-1600.08 291.75,-1603.17 288.67,-1606.25 285.58,-1606.25"/>
<text text-anchor="start" x="235" y="-1593.7" font-family="Helvetica,sans-Serif" font-size="9.00">Controller.js</text>
</a>
</g>
</g>
<!-- src/js/application/Application.js&#45;&gt;src/js/controller/Controller.js -->
<g id="edge1" class="edge">
<title>src/js/application/Application.js&#45;&gt;src/js/controller/Controller.js</title>
<path fill="none" stroke="#000000" stroke-width="2" stroke-opacity="0.200000" d="M203.32,-1597C208.13,-1597 213.11,-1597 218.01,-1597"/>
<polygon fill="#000000" fill-opacity="0.200000" stroke="#000000" stroke-width="2" stroke-opacity="0.200000" points="217.68,-1599.1 223.68,-1597 217.68,-1594.9 217.68,-1599.1"/>
</g>
<!-- src/js/director/Director.js -->
<g id="node3" class="node">
<title>src/js/director/Director.js</title>
<g id="a_node3"><a xlink:href="src/js/director/Director.js" xlink:title="Director.js">
<path fill="#ffffcc" stroke="black" d="M366.08,-1379.25C366.08,-1379.25 321.92,-1379.25 321.92,-1379.25 318.83,-1379.25 315.75,-1376.17 315.75,-1373.08 315.75,-1373.08 315.75,-1366.92 315.75,-1366.92 315.75,-1363.83 318.83,-1360.75 321.92,-1360.75 321.92,-1360.75 366.08,-1360.75 366.08,-1360.75 369.17,-1360.75 372.25,-1363.83 372.25,-1366.92 372.25,-1366.92 372.25,-1373.08 372.25,-1373.08 372.25,-1376.17 369.17,-1379.25 366.08,-1379.25"/>
<text text-anchor="start" x="323.75" y="-1366.7" font-family="Helvetica,sans-Serif" font-size="9.00">Director.js</text>
</a>
</g>
</g>
<!-- src/js/controller/Controller.js&#45;&gt;src/js/director/Director.js -->
<g id="edge2" class="edge">
<title>src/js/controller/Controller.js&#45;&gt;src/js/director/Director.js</title>
<path fill="none" stroke="#000000" stroke-width="2" stroke-opacity="0.200000" d="M263.82,-1587.54C276.39,-1552.99 319.93,-1433.38 336.52,-1387.82"/>
<polygon fill="#000000" fill-opacity="0.200000" stroke="#000000" stroke-width="2" stroke-opacity="0.200000" points="338.43,-1388.71 338.5,-1382.35 334.48,-1387.27 338.43,-1388.71"/>
</g>
<!-- src/js/overlay/Overlay.js -->
<g id="node4" class="node">
<title>src/js/overlay/Overlay.js</title>
<g id="a_node4"><a xlink:href="src/js/overlay/Overlay.js" xlink:title="Overlay.js">
<path fill="#ffffcc" stroke="black" d="M521.96,-1606.25C521.96,-1606.25 478.54,-1606.25 478.54,-1606.25 475.46,-1606.25 472.38,-1603.17 472.38,-1600.08 472.38,-1600.08 472.38,-1593.92 472.38,-1593.92 472.38,-1590.83 475.46,-1587.75 478.54,-1587.75 478.54,-1587.75 521.96,-1587.75 521.96,-1587.75 525.04,-1587.75 528.12,-1590.83 528.12,-1593.92 528.12,-1593.92 528.12,-1600.08 528.12,-1600.08 528.12,-1603.17 525.04,-1606.25 521.96,-1606.25"/>
<text text-anchor="start" x="480.38" y="-1593.7" font-family="Helvetica,sans-Serif" font-size="9.00">Overlay.js</text>
</a>
</g>
</g>
<!-- src/js/controller/Controller.js&#45;&gt;src/js/overlay/Overlay.js -->
<g id="edge3" class="edge">
<title>src/js/controller/Controller.js&#45;&gt;src/js/overlay/Overlay.js</title>
<path fill="none" stroke="#000000" stroke-width="2" stroke-opacity="0.200000" d="M292.1,-1597C336.48,-1597 416.86,-1597 463.37,-1597"/>
<polygon fill="#000000" fill-opacity="0.200000" stroke="#000000" stroke-width="2" stroke-opacity="0.200000" points="463.18,-1599.1 469.18,-1597 463.18,-1594.9 463.18,-1599.1"/>
</g>
<!-- src/js/view/View.js -->
<g id="node5" class="node">
<title>src/js/view/View.js</title>
<g id="a_node5"><a xlink:href="src/js/view/View.js" xlink:title="View.js">
<path fill="#ffffcc" stroke="black" d="M364.83,-1729.25C364.83,-1729.25 323.17,-1729.25 323.17,-1729.25 320.08,-1729.25 317,-1726.17 317,-1723.08 317,-1723.08 317,-1716.92 317,-1716.92 317,-1713.83 320.08,-1710.75 323.17,-1710.75 323.17,-1710.75 364.83,-1710.75 364.83,-1710.75 367.92,-1710.75 371,-1713.83 371,-1716.92 371,-1716.92 371,-1723.08 371,-1723.08 371,-1726.17 367.92,-1729.25 364.83,-1729.25"/>
<text text-anchor="start" x="329.75" y="-1716.7" font-family="Helvetica,sans-Serif" font-size="9.00">View.js</text>
</a>
</g>
</g>
<!-- src/js/controller/Controller.js&#45;&gt;src/js/view/View.js -->
<g id="edge4" class="edge">
<title>src/js/controller/Controller.js&#45;&gt;src/js/view/View.js</title>
<path fill="none" stroke="#000000" stroke-width="2" stroke-opacity="0.200000" d="M266.86,-1606.65C280.86,-1627.49 314.06,-1676.91 331.63,-1703.08"/>
<polygon fill="#000000" fill-opacity="0.200000" stroke="#000000" stroke-width="2" stroke-opacity="0.200000" points="329.77,-1704.07 334.86,-1707.88 333.26,-1701.73 329.77,-1704.07"/>
</g>
<!-- src/js/directable/directables/dotmatrix/DirectableDotMatrix.js -->
<g id="node8" class="node">
<title>src/js/directable/directables/dotmatrix/DirectableDotMatrix.js</title>
<g id="a_node8"><a xlink:href="src/js/directable/directables/dotmatrix/DirectableDotMatrix.js" xlink:title="DirectableDotMatrix.js">
<path fill="#ffffcc" stroke="black" d="M547.08,-1051.25C547.08,-1051.25 453.42,-1051.25 453.42,-1051.25 450.33,-1051.25 447.25,-1048.17 447.25,-1045.08 447.25,-1045.08 447.25,-1038.92 447.25,-1038.92 447.25,-1035.83 450.33,-1032.75 453.42,-1032.75 453.42,-1032.75 547.08,-1032.75 547.08,-1032.75 550.17,-1032.75 553.25,-1035.83 553.25,-1038.92 553.25,-1038.92 553.25,-1045.08 553.25,-1045.08 553.25,-1048.17 550.17,-1051.25 547.08,-1051.25"/>
<text text-anchor="start" x="455.25" y="-1038.7" font-family="Helvetica,sans-Serif" font-size="9.00">DirectableDotMatrix.js</text>
</a>
</g>
</g>
<!-- src/js/director/Director.js&#45;&gt;src/js/directable/directables/dotmatrix/DirectableDotMatrix.js -->
<g id="edge9" class="edge">
<title>src/js/director/Director.js&#45;&gt;src/js/directable/directables/dotmatrix/DirectableDotMatrix.js</title>
<path fill="none" stroke="#000000" stroke-width="2" stroke-opacity="0.200000" d="M345.17,-1360.33C346.17,-1315.35 352.46,-1126.96 388.25,-1083 400.79,-1067.6 419.69,-1057.98 438.36,-1051.97"/>
<polygon fill="#000000" fill-opacity="0.200000" stroke="#000000" stroke-width="2" stroke-opacity="0.200000" points="438.83,-1054.03 444,-1050.32 437.65,-1050 438.83,-1054.03"/>
</g>
<!-- src/js/directable/directables/rhythm/bpm/DirectableRhythmBPM.js -->
<g id="node44" class="node">
<title>src/js/directable/directables/rhythm/bpm/DirectableRhythmBPM.js</title>
<g id="a_node44"><a xlink:href="src/js/directable/directables/rhythm/bpm/DirectableRhythmBPM.js" xlink:title="DirectableRhythmBPM.js">
<path fill="#ffffcc" stroke="black" d="M553.08,-1304.25C553.08,-1304.25 447.42,-1304.25 447.42,-1304.25 444.33,-1304.25 441.25,-1301.17 441.25,-1298.08 441.25,-1298.08 441.25,-1291.92 441.25,-1291.92 441.25,-1288.83 444.33,-1285.75 447.42,-1285.75 447.42,-1285.75 553.08,-1285.75 553.08,-1285.75 556.17,-1285.75 559.25,-1288.83 559.25,-1291.92 559.25,-1291.92 559.25,-1298.08 559.25,-1298.08 559.25,-1301.17 556.17,-1304.25 553.08,-1304.25"/>
<text text-anchor="start" x="449.25" y="-1291.7" font-family="Helvetica,sans-Serif" font-size="9.00">DirectableRhythmBPM.js</text>
</a>
</g>
</g>
<!-- src/js/director/Director.js&#45;&gt;src/js/directable/directables/rhythm/bpm/DirectableRhythmBPM.js -->
<g id="edge10" class="edge">
<title>src/js/director/Director.js&#45;&gt;src/js/directable/directables/rhythm/bpm/DirectableRhythmBPM.js</title>
<path fill="none" stroke="#000000" stroke-width="2" stroke-opacity="0.200000" d="M364.85,-1360.35C392.04,-1347.13 440.98,-1323.33 471.71,-1308.39"/>
<polygon fill="#000000" fill-opacity="0.200000" stroke="#000000" stroke-width="2" stroke-opacity="0.200000" points="472.28,-1310.45 476.75,-1305.94 470.44,-1306.67 472.28,-1310.45"/>
</g>
<!-- src/js/directable/directables/title/DirectableTitle.js -->
<g id="node47" class="node">
<title>src/js/directable/directables/title/DirectableTitle.js</title>
<g id="a_node47"><a xlink:href="src/js/directable/directables/title/DirectableTitle.js" xlink:title="DirectableTitle.js">
<path fill="#ffffcc" stroke="black" d="M536.21,-1453.25C536.21,-1453.25 464.29,-1453.25 464.29,-1453.25 461.21,-1453.25 458.12,-1450.17 458.12,-1447.08 458.12,-1447.08 458.12,-1440.92 458.12,-1440.92 458.12,-1437.83 461.21,-1434.75 464.29,-1434.75 464.29,-1434.75 536.21,-1434.75 536.21,-1434.75 539.29,-1434.75 542.38,-1437.83 542.38,-1440.92 542.38,-1440.92 542.38,-1447.08 542.38,-1447.08 542.38,-1450.17 539.29,-1453.25 536.21,-1453.25"/>
<text text-anchor="start" x="466.12" y="-1440.7" font-family="Helvetica,sans-Serif" font-size="9.00">DirectableTitle.js</text>
</a>
</g>
</g>
<!-- src/js/director/Director.js&#45;&gt;src/js/directable/directables/title/DirectableTitle.js -->
<g id="edge11" class="edge">
<title>src/js/director/Director.js&#45;&gt;src/js/directable/directables/title/DirectableTitle.js</title>
<path fill="none" stroke="#000000" stroke-width="2" stroke-opacity="0.200000" d="M350.06,-1379.37C357.02,-1391.29 370.69,-1411.56 388.25,-1422 406.49,-1432.84 429.1,-1438.45 449.14,-1441.32"/>
<polygon fill="#000000" fill-opacity="0.200000" stroke="#000000" stroke-width="2" stroke-opacity="0.200000" points="448.63,-1443.37 454.85,-1442.03 449.16,-1439.2 448.63,-1443.37"/>
</g>
<!-- src/js/overlay/displayFormat/OverlayDisplayFormat.js -->
<g id="node50" class="node">
<title>src/js/overlay/displayFormat/OverlayDisplayFormat.js</title>
<g id="a_node50"><a xlink:href="src/js/overlay/displayFormat/OverlayDisplayFormat.js" xlink:title="OverlayDisplayFormat.js">
<path fill="#ffffcc" stroke="black" d="M713.83,-1637.25C713.83,-1637.25 610.42,-1637.25 610.42,-1637.25 607.33,-1637.25 604.25,-1634.17 604.25,-1631.08 604.25,-1631.08 604.25,-1624.92 604.25,-1624.92 604.25,-1621.83 607.33,-1618.75 610.42,-1618.75 610.42,-1618.75 713.83,-1618.75 713.83,-1618.75 716.92,-1618.75 720,-1621.83 720,-1624.92 720,-1624.92 720,-1631.08 720,-1631.08 720,-1634.17 716.92,-1637.25 713.83,-1637.25"/>
<text text-anchor="start" x="612.25" y="-1624.7" font-family="Helvetica,sans-Serif" font-size="9.00">OverlayDisplayFormat.js</text>
</a>
</g>
</g>
<!-- src/js/overlay/Overlay.js&#45;&gt;src/js/overlay/displayFormat/OverlayDisplayFormat.js -->
<g id="edge13" class="edge">
<title>src/js/overlay/Overlay.js&#45;&gt;src/js/overlay/displayFormat/OverlayDisplayFormat.js</title>
<path fill="none" stroke="#000000" stroke-width="2" stroke-opacity="0.200000" d="M528.37,-1602.26C548.53,-1606.17 576.81,-1611.65 602.09,-1616.55"/>
<polygon fill="#000000" fill-opacity="0.200000" stroke="#000000" stroke-width="2" stroke-opacity="0.200000" points="601.62,-1618.6 607.91,-1617.68 602.42,-1614.48 601.62,-1618.6"/>
</g>
<!-- src/js/overlay/overlay/OverlayOverlay.js -->
<g id="node51" class="node">
<title>src/js/overlay/overlay/OverlayOverlay.js</title>
<g id="a_node51"><a xlink:href="src/js/overlay/overlay/OverlayOverlay.js" xlink:title="OverlayOverlay.js">
<path fill="#ffffcc" stroke="black" d="M699.58,-1576.25C699.58,-1576.25 624.67,-1576.25 624.67,-1576.25 621.58,-1576.25 618.5,-1573.17 618.5,-1570.08 618.5,-1570.08 618.5,-1563.92 618.5,-1563.92 618.5,-1560.83 621.58,-1557.75 624.67,-1557.75 624.67,-1557.75 699.58,-1557.75 699.58,-1557.75 702.67,-1557.75 705.75,-1560.83 705.75,-1563.92 705.75,-1563.92 705.75,-1570.08 705.75,-1570.08 705.75,-1573.17 702.67,-1576.25 699.58,-1576.25"/>
<text text-anchor="start" x="626.5" y="-1563.7" font-family="Helvetica,sans-Serif" font-size="9.00">OverlayOverlay.js</text>
</a>
</g>
</g>
<!-- src/js/overlay/Overlay.js&#45;&gt;src/js/overlay/overlay/OverlayOverlay.js -->
<g id="edge14" class="edge">
<title>src/js/overlay/Overlay.js&#45;&gt;src/js/overlay/overlay/OverlayOverlay.js</title>
<path fill="none" stroke="#000000" stroke-width="2" stroke-opacity="0.200000" d="M528.37,-1591.91C550.56,-1587.75 582.57,-1581.74 609.6,-1576.67"/>
<polygon fill="#000000" fill-opacity="0.200000" stroke="#000000" stroke-width="2" stroke-opacity="0.200000" points="609.7,-1578.79 615.21,-1575.62 608.92,-1574.66 609.7,-1578.79"/>
</g>
<!-- src/js/view/render/RenderController.js -->
<g id="node53" class="node">
<title>src/js/view/render/RenderController.js</title>
<g id="a_node53"><a xlink:href="src/js/view/render/RenderController.js" xlink:title="RenderController.js">
<path fill="#ffffcc" stroke="black" d="M541.83,-1733.25C541.83,-1733.25 458.67,-1733.25 458.67,-1733.25 455.58,-1733.25 452.5,-1730.17 452.5,-1727.08 452.5,-1727.08 452.5,-1720.92 452.5,-1720.92 452.5,-1717.83 455.58,-1714.75 458.67,-1714.75 458.67,-1714.75 541.83,-1714.75 541.83,-1714.75 544.92,-1714.75 548,-1717.83 548,-1720.92 548,-1720.92 548,-1727.08 548,-1727.08 548,-1730.17 544.92,-1733.25 541.83,-1733.25"/>
<text text-anchor="start" x="460.5" y="-1720.7" font-family="Helvetica,sans-Serif" font-size="9.00">RenderController.js</text>
</a>
</g>
</g>
<!-- src/js/view/View.js&#45;&gt;src/js/view/render/RenderController.js -->
<g id="edge18" class="edge">
<title>src/js/view/View.js&#45;&gt;src/js/view/render/RenderController.js</title>
<path fill="none" stroke="#000000" stroke-width="2" stroke-opacity="0.200000" d="M371.17,-1720.68C390.84,-1721.19 418.52,-1721.91 443.12,-1722.54"/>
<polygon fill="#000000" fill-opacity="0.200000" stroke="#000000" stroke-width="2" stroke-opacity="0.200000" points="442.94,-1724.64 449,-1722.7 443.05,-1720.44 442.94,-1724.64"/>
</g>
<!-- src/js/data/Data.json -->
<g id="node6" class="node">
<title>src/js/data/Data.json</title>
<g id="a_node6"><a xlink:href="src/js/data/Data.json" xlink:title="Data.json">
<path fill="#ffee44" stroke="black" d="M188.96,-813.25C188.96,-813.25 146.29,-813.25 146.29,-813.25 143.21,-813.25 140.12,-810.17 140.12,-807.08 140.12,-807.08 140.12,-800.92 140.12,-800.92 140.12,-797.83 143.21,-794.75 146.29,-794.75 146.29,-794.75 188.96,-794.75 188.96,-794.75 192.04,-794.75 195.12,-797.83 195.12,-800.92 195.12,-800.92 195.12,-807.08 195.12,-807.08 195.12,-810.17 192.04,-813.25 188.96,-813.25"/>
<text text-anchor="start" x="148.12" y="-800.7" font-family="Helvetica,sans-Serif" font-size="9.00">Data.json</text>
</a>
</g>
</g>
<!-- src/js/data/DataController.js -->
<g id="node7" class="node">
<title>src/js/data/DataController.js</title>
<g id="a_node7"><a xlink:href="src/js/data/DataController.js" xlink:title="DataController.js">
<path fill="#ffffcc" stroke="black" d="M110.08,-813.25C110.08,-813.25 38.17,-813.25 38.17,-813.25 35.08,-813.25 32,-810.17 32,-807.08 32,-807.08 32,-800.92 32,-800.92 32,-797.83 35.08,-794.75 38.17,-794.75 38.17,-794.75 110.08,-794.75 110.08,-794.75 113.17,-794.75 116.25,-797.83 116.25,-800.92 116.25,-800.92 116.25,-807.08 116.25,-807.08 116.25,-810.17 113.17,-813.25 110.08,-813.25"/>
<text text-anchor="start" x="40" y="-800.7" font-family="Helvetica,sans-Serif" font-size="9.00">DataController.js</text>
</a>
</g>
</g>
<!-- src/js/data/DataController.js&#45;&gt;src/js/data/Data.json -->
<g id="edge5" class="edge">
<title>src/js/data/DataController.js&#45;&gt;src/js/data/Data.json</title>
<path fill="none" stroke="#000000" stroke-width="2" stroke-opacity="0.200000" d="M116.59,-804C121.37,-804 126.22,-804 130.92,-804"/>
<polygon fill="#000000" fill-opacity="0.200000" stroke="#000000" stroke-width="2" stroke-opacity="0.200000" points="130.69,-806.1 136.69,-804 130.69,-801.9 130.69,-806.1"/>
</g>
<!-- src/js/directable/directables/dotmatrix/view/ViewManager.js -->
<g id="node9" class="node">
<title>src/js/directable/directables/dotmatrix/view/ViewManager.js</title>
<g id="a_node9"><a xlink:href="src/js/directable/directables/dotmatrix/view/ViewManager.js" xlink:title="ViewManager.js">
<path fill="#ffffcc" stroke="black" d="M696.58,-900.25C696.58,-900.25 627.67,-900.25 627.67,-900.25 624.58,-900.25 621.5,-897.17 621.5,-894.08 621.5,-894.08 621.5,-887.92 621.5,-887.92 621.5,-884.83 624.58,-881.75 627.67,-881.75 627.67,-881.75 696.58,-881.75 696.58,-881.75 699.67,-881.75 702.75,-884.83 702.75,-887.92 702.75,-887.92 702.75,-894.08 702.75,-894.08 702.75,-897.17 699.67,-900.25 696.58,-900.25"/>
<text text-anchor="start" x="629.5" y="-887.7" font-family="Helvetica,sans-Serif" font-size="9.00">ViewManager.js</text>
</a>
</g>
</g>
<!-- src/js/directable/directables/dotmatrix/DirectableDotMatrix.js&#45;&gt;src/js/directable/directables/dotmatrix/view/ViewManager.js -->
<g id="edge6" class="edge">
<title>src/js/directable/directables/dotmatrix/DirectableDotMatrix.js&#45;&gt;src/js/directable/directables/dotmatrix/view/ViewManager.js</title>
<path fill="none" stroke="#000000" stroke-width="2" stroke-opacity="0.200000" d="M553.67,-1044.55C566.67,-1042.5 579.39,-1037.73 588.25,-1028 606.39,-1008.08 578.94,-927.65 596.25,-907 600.65,-901.75 606.47,-898.07 612.83,-895.51"/>
<polygon fill="#000000" fill-opacity="0.200000" stroke="#000000" stroke-width="2" stroke-opacity="0.200000" points="613.15,-897.62 618.22,-893.78 611.86,-893.62 613.15,-897.62"/>
</g>
<!-- src/js/directable/directables/dotmatrix/dots/Dot.js -->
<g id="node10" class="node">
<title>src/js/directable/directables/dotmatrix/dots/Dot.js</title>
<g id="a_node10"><a xlink:href="src/js/directable/directables/dotmatrix/dots/Dot.js" xlink:title="Dot.js">
<path fill="#ccffcc" stroke="black" d="M521.08,-74.25C521.08,-74.25 479.42,-74.25 479.42,-74.25 476.33,-74.25 473.25,-71.17 473.25,-68.08 473.25,-68.08 473.25,-61.92 473.25,-61.92 473.25,-58.83 476.33,-55.75 479.42,-55.75 479.42,-55.75 521.08,-55.75 521.08,-55.75 524.17,-55.75 527.25,-58.83 527.25,-61.92 527.25,-61.92 527.25,-68.08 527.25,-68.08 527.25,-71.17 524.17,-74.25 521.08,-74.25"/>
<text text-anchor="start" x="488.62" y="-61.7" font-family="Helvetica,sans-Serif" font-size="9.00">Dot.js</text>
</a>
</g>
</g>
<!-- src/js/directable/directables/dotmatrix/dots/DotManager.js -->
<g id="node11" class="node">
<title>src/js/directable/directables/dotmatrix/dots/DotManager.js</title>
<g id="a_node11"><a xlink:href="src/js/directable/directables/dotmatrix/dots/DotManager.js" xlink:title="DotManager.js">
<path fill="#ccffcc" stroke="black" d="M531.71,-105.25C531.71,-105.25 468.79,-105.25 468.79,-105.25 465.71,-105.25 462.62,-102.17 462.62,-99.08 462.62,-99.08 462.62,-92.92 462.62,-92.92 462.62,-89.83 465.71,-86.75 468.79,-86.75 468.79,-86.75 531.71,-86.75 531.71,-86.75 534.79,-86.75 537.88,-89.83 537.88,-92.92 537.88,-92.92 537.88,-99.08 537.88,-99.08 537.88,-102.17 534.79,-105.25 531.71,-105.25"/>
<text text-anchor="start" x="470.62" y="-92.7" font-family="Helvetica,sans-Serif" font-size="9.00">DotManager.js</text>
</a>
</g>
</g>
<!-- src/js/directable/directables/dotmatrix/grid/GridData.js -->
<g id="node12" class="node">
<title>src/js/directable/directables/dotmatrix/grid/GridData.js</title>
<g id="a_node12"><a xlink:href="src/js/directable/directables/dotmatrix/grid/GridData.js" xlink:title="GridData.js">
<path fill="#ccffcc" stroke="black" d="M524.96,-166.25C524.96,-166.25 475.54,-166.25 475.54,-166.25 472.46,-166.25 469.38,-163.17 469.38,-160.08 469.38,-160.08 469.38,-153.92 469.38,-153.92 469.38,-150.83 472.46,-147.75 475.54,-147.75 475.54,-147.75 524.96,-147.75 524.96,-147.75 528.04,-147.75 531.12,-150.83 531.12,-153.92 531.12,-153.92 531.12,-160.08 531.12,-160.08 531.12,-163.17 528.04,-166.25 524.96,-166.25"/>
<text text-anchor="start" x="477.38" y="-153.7" font-family="Helvetica,sans-Serif" font-size="9.00">GridData.js</text>
</a>
</g>
</g>
<!-- src/js/directable/directables/dotmatrix/grid/GridRenderer.js -->
<g id="node13" class="node">
<title>src/js/directable/directables/dotmatrix/grid/GridRenderer.js</title>
<g id="a_node13"><a xlink:href="src/js/directable/directables/dotmatrix/grid/GridRenderer.js" xlink:title="GridRenderer.js">
<path fill="#ccffcc" stroke="black" d="M534.33,-197.25C534.33,-197.25 466.17,-197.25 466.17,-197.25 463.08,-197.25 460,-194.17 460,-191.08 460,-191.08 460,-184.92 460,-184.92 460,-181.83 463.08,-178.75 466.17,-178.75 466.17,-178.75 534.33,-178.75 534.33,-178.75 537.42,-178.75 540.5,-181.83 540.5,-184.92 540.5,-184.92 540.5,-191.08 540.5,-191.08 540.5,-194.17 537.42,-197.25 534.33,-197.25"/>
<text text-anchor="start" x="468" y="-184.7" font-family="Helvetica,sans-Serif" font-size="9.00">GridRenderer.js</text>
</a>
</g>
</g>
<!-- src/js/directable/directables/dotmatrix/grid/GridRendererComponent.js -->
<g id="node14" class="node">
<title>src/js/directable/directables/dotmatrix/grid/GridRendererComponent.js</title>
<g id="a_node14"><a xlink:href="src/js/directable/directables/dotmatrix/grid/GridRendererComponent.js" xlink:title="GridRendererComponent.js">
<path fill="#ccffcc" stroke="black" d="M558.71,-228.25C558.71,-228.25 441.79,-228.25 441.79,-228.25 438.71,-228.25 435.62,-225.17 435.62,-222.08 435.62,-222.08 435.62,-215.92 435.62,-215.92 435.62,-212.83 438.71,-209.75 441.79,-209.75 441.79,-209.75 558.71,-209.75 558.71,-209.75 561.79,-209.75 564.88,-212.83 564.88,-215.92 564.88,-215.92 564.88,-222.08 564.88,-222.08 564.88,-225.17 561.79,-228.25 558.71,-228.25"/>
<text text-anchor="start" x="443.62" y="-215.7" font-family="Helvetica,sans-Serif" font-size="9.00">GridRendererComponent.js</text>
</a>
</g>
</g>
<!-- src/js/directable/directables/dotmatrix/shapes/Shape.js -->
<g id="node15" class="node">
<title>src/js/directable/directables/dotmatrix/shapes/Shape.js</title>
<g id="a_node15"><a xlink:href="src/js/directable/directables/dotmatrix/shapes/Shape.js" xlink:title="Shape.js">
<path fill="#ccffcc" stroke="black" d="M521.08,-967.25C521.08,-967.25 479.42,-967.25 479.42,-967.25 476.33,-967.25 473.25,-964.17 473.25,-961.08 473.25,-961.08 473.25,-954.92 473.25,-954.92 473.25,-951.83 476.33,-948.75 479.42,-948.75 479.42,-948.75 521.08,-948.75 521.08,-948.75 524.17,-948.75 527.25,-951.83 527.25,-954.92 527.25,-954.92 527.25,-961.08 527.25,-961.08 527.25,-964.17 524.17,-967.25 521.08,-967.25"/>
<text text-anchor="start" x="482.25" y="-954.7" font-family="Helvetica,sans-Serif" font-size="9.00">Shape.js</text>
</a>
</g>
</g>
<!-- src/js/directable/directables/dotmatrix/shapes/ShapeManager.js -->
<g id="node16" class="node">
<title>src/js/directable/directables/dotmatrix/shapes/ShapeManager.js</title>
<g id="a_node16"><a xlink:href="src/js/directable/directables/dotmatrix/shapes/ShapeManager.js" xlink:title="ShapeManager.js">
<path fill="#ccffcc" stroke="black" d="M538.08,-998.25C538.08,-998.25 462.42,-998.25 462.42,-998.25 459.33,-998.25 456.25,-995.17 456.25,-992.08 456.25,-992.08 456.25,-985.92 456.25,-985.92 456.25,-982.83 459.33,-979.75 462.42,-979.75 462.42,-979.75 538.08,-979.75 538.08,-979.75 541.17,-979.75 544.25,-982.83 544.25,-985.92 544.25,-985.92 544.25,-992.08 544.25,-992.08 544.25,-995.17 541.17,-998.25 538.08,-998.25"/>
<text text-anchor="start" x="464.25" y="-985.7" font-family="Helvetica,sans-Serif" font-size="9.00">ShapeManager.js</text>
</a>
</g>
</g>
<!-- src/js/directable/directables/dotmatrix/shapes/fill/Fill.js -->
<g id="node17" class="node">
<title>src/js/directable/directables/dotmatrix/shapes/fill/Fill.js</title>
<g id="a_node17"><a xlink:href="src/js/directable/directables/dotmatrix/shapes/fill/Fill.js" xlink:title="Fill.js">
<path fill="#ccffcc" stroke="black" d="M521.08,-297.25C521.08,-297.25 479.42,-297.25 479.42,-297.25 476.33,-297.25 473.25,-294.17 473.25,-291.08 473.25,-291.08 473.25,-284.92 473.25,-284.92 473.25,-281.83 476.33,-278.75 479.42,-278.75 479.42,-278.75 521.08,-278.75 521.08,-278.75 524.17,-278.75 527.25,-281.83 527.25,-284.92 527.25,-284.92 527.25,-291.08 527.25,-291.08 527.25,-294.17 524.17,-297.25 521.08,-297.25"/>
<text text-anchor="start" x="489.75" y="-284.7" font-family="Helvetica,sans-Serif" font-size="9.00">Fill.js</text>
</a>
</g>
</g>
<!-- src/js/directable/directables/dotmatrix/shapes/fill/FillStrategy.js -->
<g id="node18" class="node">
<title>src/js/directable/directables/dotmatrix/shapes/fill/FillStrategy.js</title>
<g id="a_node18"><a xlink:href="src/js/directable/directables/dotmatrix/shapes/fill/FillStrategy.js" xlink:title="FillStrategy.js">
<path fill="#ccffcc" stroke="black" d="M529.08,-328.25C529.08,-328.25 471.42,-328.25 471.42,-328.25 468.33,-328.25 465.25,-325.17 465.25,-322.08 465.25,-322.08 465.25,-315.92 465.25,-315.92 465.25,-312.83 468.33,-309.75 471.42,-309.75 471.42,-309.75 529.08,-309.75 529.08,-309.75 532.17,-309.75 535.25,-312.83 535.25,-315.92 535.25,-315.92 535.25,-322.08 535.25,-322.08 535.25,-325.17 532.17,-328.25 529.08,-328.25"/>
<text text-anchor="start" x="473.25" y="-315.7" font-family="Helvetica,sans-Serif" font-size="9.00">FillStrategy.js</text>
</a>
</g>
</g>
<!-- src/js/directable/directables/dotmatrix/shapes/fill/FillStrategyType.js -->
<g id="node19" class="node">
<title>src/js/directable/directables/dotmatrix/shapes/fill/FillStrategyType.js</title>
<g id="a_node19"><a xlink:href="src/js/directable/directables/dotmatrix/shapes/fill/FillStrategyType.js" xlink:title="FillStrategyType.js">
<path fill="#ccffcc" stroke="black" d="M539.58,-359.25C539.58,-359.25 460.92,-359.25 460.92,-359.25 457.83,-359.25 454.75,-356.17 454.75,-353.08 454.75,-353.08 454.75,-346.92 454.75,-346.92 454.75,-343.83 457.83,-340.75 460.92,-340.75 460.92,-340.75 539.58,-340.75 539.58,-340.75 542.67,-340.75 545.75,-343.83 545.75,-346.92 545.75,-346.92 545.75,-353.08 545.75,-353.08 545.75,-356.17 542.67,-359.25 539.58,-359.25"/>
<text text-anchor="start" x="462.75" y="-346.7" font-family="Helvetica,sans-Serif" font-size="9.00">FillStrategyType.js</text>
</a>
</g>
</g>
<!-- src/js/directable/directables/dotmatrix/shapes/fill/FillType.js -->
<g id="node20" class="node">
<title>src/js/directable/directables/dotmatrix/shapes/fill/FillType.js</title>
<g id="a_node20"><a xlink:href="src/js/directable/directables/dotmatrix/shapes/fill/FillType.js" xlink:title="FillType.js">
<path fill="#ccffcc" stroke="black" d="M522.71,-390.25C522.71,-390.25 477.79,-390.25 477.79,-390.25 474.71,-390.25 471.62,-387.17 471.62,-384.08 471.62,-384.08 471.62,-377.92 471.62,-377.92 471.62,-374.83 474.71,-371.75 477.79,-371.75 477.79,-371.75 522.71,-371.75 522.71,-371.75 525.79,-371.75 528.88,-374.83 528.88,-377.92 528.88,-377.92 528.88,-384.08 528.88,-384.08 528.88,-387.17 525.79,-390.25 522.71,-390.25"/>
<text text-anchor="start" x="479.62" y="-377.7" font-family="Helvetica,sans-Serif" font-size="9.00">FillType.js</text>
</a>
</g>
</g>
<!-- src/js/directable/directables/dotmatrix/shapes/glyph/ShapeGlyph_A.js -->
<g id="node21" class="node">
<title>src/js/directable/directables/dotmatrix/shapes/glyph/ShapeGlyph_A.js</title>
<g id="a_node21"><a xlink:href="src/js/directable/directables/dotmatrix/shapes/glyph/ShapeGlyph_A.js" xlink:title="ShapeGlyph_A.js">
<path fill="#ccffcc" stroke="black" d="M537.71,-451.25C537.71,-451.25 462.79,-451.25 462.79,-451.25 459.71,-451.25 456.62,-448.17 456.62,-445.08 456.62,-445.08 456.62,-438.92 456.62,-438.92 456.62,-435.83 459.71,-432.75 462.79,-432.75 462.79,-432.75 537.71,-432.75 537.71,-432.75 540.79,-432.75 543.88,-435.83 543.88,-438.92 543.88,-438.92 543.88,-445.08 543.88,-445.08 543.88,-448.17 540.79,-451.25 537.71,-451.25"/>
<text text-anchor="start" x="464.62" y="-438.7" font-family="Helvetica,sans-Serif" font-size="9.00">ShapeGlyph_A.js</text>
</a>
</g>
</g>
<!-- src/js/directable/directables/dotmatrix/shapes/glyph/ShapeGlyph_B.js -->
<g id="node22" class="node">
<title>src/js/directable/directables/dotmatrix/shapes/glyph/ShapeGlyph_B.js</title>
<g id="a_node22"><a xlink:href="src/js/directable/directables/dotmatrix/shapes/glyph/ShapeGlyph_B.js" xlink:title="ShapeGlyph_B.js">
<path fill="#ccffcc" stroke="black" d="M537.71,-482.25C537.71,-482.25 462.79,-482.25 462.79,-482.25 459.71,-482.25 456.62,-479.17 456.62,-476.08 456.62,-476.08 456.62,-469.92 456.62,-469.92 456.62,-466.83 459.71,-463.75 462.79,-463.75 462.79,-463.75 537.71,-463.75 537.71,-463.75 540.79,-463.75 543.88,-466.83 543.88,-469.92 543.88,-469.92 543.88,-476.08 543.88,-476.08 543.88,-479.17 540.79,-482.25 537.71,-482.25"/>
<text text-anchor="start" x="464.62" y="-469.7" font-family="Helvetica,sans-Serif" font-size="9.00">ShapeGlyph_B.js</text>
</a>
</g>
</g>
<!-- src/js/directable/directables/dotmatrix/shapes/glyph/ShapeGlyph_C.js -->
<g id="node23" class="node">
<title>src/js/directable/directables/dotmatrix/shapes/glyph/ShapeGlyph_C.js</title>
<g id="a_node23"><a xlink:href="src/js/directable/directables/dotmatrix/shapes/glyph/ShapeGlyph_C.js" xlink:title="ShapeGlyph_C.js">
<path fill="#ccffcc" stroke="black" d="M538.08,-513.25C538.08,-513.25 462.42,-513.25 462.42,-513.25 459.33,-513.25 456.25,-510.17 456.25,-507.08 456.25,-507.08 456.25,-500.92 456.25,-500.92 456.25,-497.83 459.33,-494.75 462.42,-494.75 462.42,-494.75 538.08,-494.75 538.08,-494.75 541.17,-494.75 544.25,-497.83 544.25,-500.92 544.25,-500.92 544.25,-507.08 544.25,-507.08 544.25,-510.17 541.17,-513.25 538.08,-513.25"/>
<text text-anchor="start" x="464.25" y="-500.7" font-family="Helvetica,sans-Serif" font-size="9.00">ShapeGlyph_C.js</text>
</a>
</g>
</g>
<!-- src/js/directable/directables/dotmatrix/shapes/glyph/ShapeGlyph_D.js -->
<g id="node24" class="node">
<title>src/js/directable/directables/dotmatrix/shapes/glyph/ShapeGlyph_D.js</title>
<g id="a_node24"><a xlink:href="src/js/directable/directables/dotmatrix/shapes/glyph/ShapeGlyph_D.js" xlink:title="ShapeGlyph_D.js">
<path fill="#ccffcc" stroke="black" d="M538.08,-544.25C538.08,-544.25 462.42,-544.25 462.42,-544.25 459.33,-544.25 456.25,-541.17 456.25,-538.08 456.25,-538.08 456.25,-531.92 456.25,-531.92 456.25,-528.83 459.33,-525.75 462.42,-525.75 462.42,-525.75 538.08,-525.75 538.08,-525.75 541.17,-525.75 544.25,-528.83 544.25,-531.92 544.25,-531.92 544.25,-538.08 544.25,-538.08 544.25,-541.17 541.17,-544.25 538.08,-544.25"/>
<text text-anchor="start" x="464.25" y="-531.7" font-family="Helvetica,sans-Serif" font-size="9.00">ShapeGlyph_D.js</text>
</a>
</g>
</g>
<!-- src/js/directable/directables/dotmatrix/shapes/glyph/ShapeGlyph_E.js -->
<g id="node25" class="node">
<title>src/js/directable/directables/dotmatrix/shapes/glyph/ShapeGlyph_E.js</title>
<g id="a_node25"><a xlink:href="src/js/directable/directables/dotmatrix/shapes/glyph/ShapeGlyph_E.js" xlink:title="ShapeGlyph_E.js">
<path fill="#ccffcc" stroke="black" d="M537.71,-575.25C537.71,-575.25 462.79,-575.25 462.79,-575.25 459.71,-575.25 456.62,-572.17 456.62,-569.08 456.62,-569.08 456.62,-562.92 456.62,-562.92 456.62,-559.83 459.71,-556.75 462.79,-556.75 462.79,-556.75 537.71,-556.75 537.71,-556.75 540.79,-556.75 543.88,-559.83 543.88,-562.92 543.88,-562.92 543.88,-569.08 543.88,-569.08 543.88,-572.17 540.79,-575.25 537.71,-575.25"/>
<text text-anchor="start" x="464.62" y="-562.7" font-family="Helvetica,sans-Serif" font-size="9.00">ShapeGlyph_E.js</text>
</a>
</g>
</g>
<!-- src/js/directable/directables/dotmatrix/shapes/glyph/ShapeGlyph_F.js -->
<g id="node26" class="node">
<title>src/js/directable/directables/dotmatrix/shapes/glyph/ShapeGlyph_F.js</title>
<g id="a_node26"><a xlink:href="src/js/directable/directables/dotmatrix/shapes/glyph/ShapeGlyph_F.js" xlink:title="ShapeGlyph_F.js">
<path fill="#ccffcc" stroke="black" d="M536.96,-606.25C536.96,-606.25 463.54,-606.25 463.54,-606.25 460.46,-606.25 457.38,-603.17 457.38,-600.08 457.38,-600.08 457.38,-593.92 457.38,-593.92 457.38,-590.83 460.46,-587.75 463.54,-587.75 463.54,-587.75 536.96,-587.75 536.96,-587.75 540.04,-587.75 543.12,-590.83 543.12,-593.92 543.12,-593.92 543.12,-600.08 543.12,-600.08 543.12,-603.17 540.04,-606.25 536.96,-606.25"/>
<text text-anchor="start" x="465.38" y="-593.7" font-family="Helvetica,sans-Serif" font-size="9.00">ShapeGlyph_F.js</text>
</a>
</g>
</g>
<!-- src/js/directable/directables/dotmatrix/shapes/glyph/ShapeGlyph_G.js -->
<g id="node27" class="node">
<title>src/js/directable/directables/dotmatrix/shapes/glyph/ShapeGlyph_G.js</title>
<g id="a_node27"><a xlink:href="src/js/directable/directables/dotmatrix/shapes/glyph/ShapeGlyph_G.js" xlink:title="ShapeGlyph_G.js">
<path fill="#ccffcc" stroke="black" d="M538.08,-637.25C538.08,-637.25 462.42,-637.25 462.42,-637.25 459.33,-637.25 456.25,-634.17 456.25,-631.08 456.25,-631.08 456.25,-624.92 456.25,-624.92 456.25,-621.83 459.33,-618.75 462.42,-618.75 462.42,-618.75 538.08,-618.75 538.08,-618.75 541.17,-618.75 544.25,-621.83 544.25,-624.92 544.25,-624.92 544.25,-631.08 544.25,-631.08 544.25,-634.17 541.17,-637.25 538.08,-637.25"/>
<text text-anchor="start" x="464.25" y="-624.7" font-family="Helvetica,sans-Serif" font-size="9.00">ShapeGlyph_G.js</text>
</a>
</g>
</g>
<!-- src/js/directable/directables/dotmatrix/shapes/glyph/ShapeGlyph_H.js -->
<g id="node28" class="node">
<title>src/js/directable/directables/dotmatrix/shapes/glyph/ShapeGlyph_H.js</title>
<g id="a_node28"><a xlink:href="src/js/directable/directables/dotmatrix/shapes/glyph/ShapeGlyph_H.js" xlink:title="ShapeGlyph_H.js">
<path fill="#ccffcc" stroke="black" d="M538.08,-668.25C538.08,-668.25 462.42,-668.25 462.42,-668.25 459.33,-668.25 456.25,-665.17 456.25,-662.08 456.25,-662.08 456.25,-655.92 456.25,-655.92 456.25,-652.83 459.33,-649.75 462.42,-649.75 462.42,-649.75 538.08,-649.75 538.08,-649.75 541.17,-649.75 544.25,-652.83 544.25,-655.92 544.25,-655.92 544.25,-662.08 544.25,-662.08 544.25,-665.17 541.17,-668.25 538.08,-668.25"/>
<text text-anchor="start" x="464.25" y="-655.7" font-family="Helvetica,sans-Serif" font-size="9.00">ShapeGlyph_H.js</text>
</a>
</g>
</g>
<!-- src/js/directable/directables/dotmatrix/shapes/glyph/ShapeGlyph_I.js -->
<g id="node29" class="node">
<title>src/js/directable/directables/dotmatrix/shapes/glyph/ShapeGlyph_I.js</title>
<g id="a_node29"><a xlink:href="src/js/directable/directables/dotmatrix/shapes/glyph/ShapeGlyph_I.js" xlink:title="ShapeGlyph_I.js">
<path fill="#ccffcc" stroke="black" d="M535.83,-699.25C535.83,-699.25 464.67,-699.25 464.67,-699.25 461.58,-699.25 458.5,-696.17 458.5,-693.08 458.5,-693.08 458.5,-686.92 458.5,-686.92 458.5,-683.83 461.58,-680.75 464.67,-680.75 464.67,-680.75 535.83,-680.75 535.83,-680.75 538.92,-680.75 542,-683.83 542,-686.92 542,-686.92 542,-693.08 542,-693.08 542,-696.17 538.92,-699.25 535.83,-699.25"/>
<text text-anchor="start" x="466.5" y="-686.7" font-family="Helvetica,sans-Serif" font-size="9.00">ShapeGlyph_I.js</text>
</a>
</g>
</g>
<!-- src/js/directable/directables/dotmatrix/shapes/glyph/ShapeGlyph_J.js -->
<g id="node30" class="node">
<title>src/js/directable/directables/dotmatrix/shapes/glyph/ShapeGlyph_J.js</title>
<g id="a_node30"><a xlink:href="src/js/directable/directables/dotmatrix/shapes/glyph/ShapeGlyph_J.js" xlink:title="ShapeGlyph_J.js">
<path fill="#ccffcc" stroke="black" d="M536.96,-730.25C536.96,-730.25 463.54,-730.25 463.54,-730.25 460.46,-730.25 457.38,-727.17 457.38,-724.08 457.38,-724.08 457.38,-717.92 457.38,-717.92 457.38,-714.83 460.46,-711.75 463.54,-711.75 463.54,-711.75 536.96,-711.75 536.96,-711.75 540.04,-711.75 543.12,-714.83 543.12,-717.92 543.12,-717.92 543.12,-724.08 543.12,-724.08 543.12,-727.17 540.04,-730.25 536.96,-730.25"/>
<text text-anchor="start" x="465.38" y="-717.7" font-family="Helvetica,sans-Serif" font-size="9.00">ShapeGlyph_J.js</text>
</a>
</g>
</g>
<!-- src/js/directable/directables/dotmatrix/shapes/glyph/ShapeGlyph_K.js -->
<g id="node31" class="node">
<title>src/js/directable/directables/dotmatrix/shapes/glyph/ShapeGlyph_K.js</title>
<g id="a_node31"><a xlink:href="src/js/directable/directables/dotmatrix/shapes/glyph/ShapeGlyph_K.js" xlink:title="ShapeGlyph_K.js">
<path fill="#ccffcc" stroke="black" d="M537.71,-761.25C537.71,-761.25 462.79,-761.25 462.79,-761.25 459.71,-761.25 456.62,-758.17 456.62,-755.08 456.62,-755.08 456.62,-748.92 456.62,-748.92 456.62,-745.83 459.71,-742.75 462.79,-742.75 462.79,-742.75 537.71,-742.75 537.71,-742.75 540.79,-742.75 543.88,-745.83 543.88,-748.92 543.88,-748.92 543.88,-755.08 543.88,-755.08 543.88,-758.17 540.79,-761.25 537.71,-761.25"/>
<text text-anchor="start" x="464.62" y="-748.7" font-family="Helvetica,sans-Serif" font-size="9.00">ShapeGlyph_K.js</text>
</a>
</g>
</g>
<!-- src/js/directable/directables/dotmatrix/shapes/line/ShapeLineHorizontal.js -->
<g id="node32" class="node">
<title>src/js/directable/directables/dotmatrix/shapes/line/ShapeLineHorizontal.js</title>
<g id="a_node32"><a xlink:href="src/js/directable/directables/dotmatrix/shapes/line/ShapeLineHorizontal.js" xlink:title="ShapeLineHorizontal.js">
<path fill="#ccffcc" stroke="black" d="M550.08,-822.25C550.08,-822.25 450.42,-822.25 450.42,-822.25 447.33,-822.25 444.25,-819.17 444.25,-816.08 444.25,-816.08 444.25,-809.92 444.25,-809.92 444.25,-806.83 447.33,-803.75 450.42,-803.75 450.42,-803.75 550.08,-803.75 550.08,-803.75 553.17,-803.75 556.25,-806.83 556.25,-809.92 556.25,-809.92 556.25,-816.08 556.25,-816.08 556.25,-819.17 553.17,-822.25 550.08,-822.25"/>
<text text-anchor="start" x="452.25" y="-809.7" font-family="Helvetica,sans-Serif" font-size="9.00">ShapeLineHorizontal.js</text>
</a>
</g>
</g>
<!-- src/js/directable/directables/dotmatrix/shapes/line/ShapeLineVertical.js -->
<g id="node33" class="node">
<title>src/js/directable/directables/dotmatrix/shapes/line/ShapeLineVertical.js</title>
<g id="a_node33"><a xlink:href="src/js/directable/directables/dotmatrix/shapes/line/ShapeLineVertical.js" xlink:title="ShapeLineVertical.js">
<path fill="#ccffcc" stroke="black" d="M544.08,-853.25C544.08,-853.25 456.42,-853.25 456.42,-853.25 453.33,-853.25 450.25,-850.17 450.25,-847.08 450.25,-847.08 450.25,-840.92 450.25,-840.92 450.25,-837.83 453.33,-834.75 456.42,-834.75 456.42,-834.75 544.08,-834.75 544.08,-834.75 547.17,-834.75 550.25,-837.83 550.25,-840.92 550.25,-840.92 550.25,-847.08 550.25,-847.08 550.25,-850.17 547.17,-853.25 544.08,-853.25"/>
<text text-anchor="start" x="458.25" y="-840.7" font-family="Helvetica,sans-Serif" font-size="9.00">ShapeLineVertical.js</text>
</a>
</g>
</g>
<!-- src/js/directable/directables/dotmatrix/shapes/primative/ShapeRectangle.js -->
<g id="node34" class="node">
<title>src/js/directable/directables/dotmatrix/shapes/primative/ShapeRectangle.js</title>
<g id="a_node34"><a xlink:href="src/js/directable/directables/dotmatrix/shapes/primative/ShapeRectangle.js" xlink:title="ShapeRectangle.js">
<path fill="#ccffcc" stroke="black" d="M541.08,-914.25C541.08,-914.25 459.42,-914.25 459.42,-914.25 456.33,-914.25 453.25,-911.17 453.25,-908.08 453.25,-908.08 453.25,-901.92 453.25,-901.92 453.25,-898.83 456.33,-895.75 459.42,-895.75 459.42,-895.75 541.08,-895.75 541.08,-895.75 544.17,-895.75 547.25,-898.83 547.25,-901.92 547.25,-901.92 547.25,-908.08 547.25,-908.08 547.25,-911.17 544.17,-914.25 541.08,-914.25"/>
<text text-anchor="start" x="461.25" y="-901.7" font-family="Helvetica,sans-Serif" font-size="9.00">ShapeRectangle.js</text>
</a>
</g>
</g>
<!-- src/js/directable/directables/dotmatrix/view/View.js -->
<g id="node35" class="node">
<title>src/js/directable/directables/dotmatrix/view/View.js</title>
<g id="a_node35"><a xlink:href="src/js/directable/directables/dotmatrix/view/View.js" xlink:title="View.js">
<path fill="#ccffcc" stroke="black" d="M682.96,-931.25C682.96,-931.25 641.29,-931.25 641.29,-931.25 638.21,-931.25 635.12,-928.17 635.12,-925.08 635.12,-925.08 635.12,-918.92 635.12,-918.92 635.12,-915.83 638.21,-912.75 641.29,-912.75 641.29,-912.75 682.96,-912.75 682.96,-912.75 686.04,-912.75 689.12,-915.83 689.12,-918.92 689.12,-918.92 689.12,-925.08 689.12,-925.08 689.12,-928.17 686.04,-931.25 682.96,-931.25"/>
<text text-anchor="start" x="647.88" y="-918.7" font-family="Helvetica,sans-Serif" font-size="9.00">View.js</text>
</a>
</g>
</g>
<!-- src/js/directable/directables/dotmatrix/view/ViewFloor.js -->
<g id="node36" class="node">
<title>src/js/directable/directables/dotmatrix/view/ViewFloor.js</title>
<g id="a_node36"><a xlink:href="src/js/directable/directables/dotmatrix/view/ViewFloor.js" xlink:title="ViewFloor.js">
<path fill="#ccffcc" stroke="black" d="M688.71,-962.25C688.71,-962.25 635.54,-962.25 635.54,-962.25 632.46,-962.25 629.38,-959.17 629.38,-956.08 629.38,-956.08 629.38,-949.92 629.38,-949.92 629.38,-946.83 632.46,-943.75 635.54,-943.75 635.54,-943.75 688.71,-943.75 688.71,-943.75 691.79,-943.75 694.88,-946.83 694.88,-949.92 694.88,-949.92 694.88,-956.08 694.88,-956.08 694.88,-959.17 691.79,-962.25 688.71,-962.25"/>
<text text-anchor="start" x="637.38" y="-949.7" font-family="Helvetica,sans-Serif" font-size="9.00">ViewFloor.js</text>
</a>
</g>
</g>
<!-- src/js/directable/directables/dotmatrix/view/ViewTest.js -->
<g id="node37" class="node">
<title>src/js/directable/directables/dotmatrix/view/ViewTest.js</title>
<g id="a_node37"><a xlink:href="src/js/directable/directables/dotmatrix/view/ViewTest.js" xlink:title="ViewTest.js">
<path fill="#ccffcc" stroke="black" d="M686.83,-993.25C686.83,-993.25 637.42,-993.25 637.42,-993.25 634.33,-993.25 631.25,-990.17 631.25,-987.08 631.25,-987.08 631.25,-980.92 631.25,-980.92 631.25,-977.83 634.33,-974.75 637.42,-974.75 637.42,-974.75 686.83,-974.75 686.83,-974.75 689.92,-974.75 693,-977.83 693,-980.92 693,-980.92 693,-987.08 693,-987.08 693,-990.17 689.92,-993.25 686.83,-993.25"/>
<text text-anchor="start" x="639.25" y="-980.7" font-family="Helvetica,sans-Serif" font-size="9.00">ViewTest.js</text>
</a>
</g>
</g>
<!-- src/js/directable/directables/dotmatrix/view/ViewTextTest.js -->
<g id="node38" class="node">
<title>src/js/directable/directables/dotmatrix/view/ViewTextTest.js</title>
<g id="a_node38"><a xlink:href="src/js/directable/directables/dotmatrix/view/ViewTextTest.js" xlink:title="ViewTextTest.js">
<path fill="#ccffcc" stroke="black" d="M695.08,-1024.25C695.08,-1024.25 629.17,-1024.25 629.17,-1024.25 626.08,-1024.25 623,-1021.17 623,-1018.08 623,-1018.08 623,-1011.92 623,-1011.92 623,-1008.83 626.08,-1005.75 629.17,-1005.75 629.17,-1005.75 695.08,-1005.75 695.08,-1005.75 698.17,-1005.75 701.25,-1008.83 701.25,-1011.92 701.25,-1011.92 701.25,-1018.08 701.25,-1018.08 701.25,-1021.17 698.17,-1024.25 695.08,-1024.25"/>
<text text-anchor="start" x="631" y="-1011.7" font-family="Helvetica,sans-Serif" font-size="9.00">ViewTextTest.js</text>
</a>
</g>
</g>
<!-- src/js/directable/directables/frame/DirectableFrame.js -->
<g id="node39" class="node">
<title>src/js/directable/directables/frame/DirectableFrame.js</title>
<g id="a_node39"><a xlink:href="src/js/directable/directables/frame/DirectableFrame.js" xlink:title="DirectableFrame.js">
<path fill="#ffffcc" stroke="black" d="M540.71,-1112.25C540.71,-1112.25 459.79,-1112.25 459.79,-1112.25 456.71,-1112.25 453.62,-1109.17 453.62,-1106.08 453.62,-1106.08 453.62,-1099.92 453.62,-1099.92 453.62,-1096.83 456.71,-1093.75 459.79,-1093.75 459.79,-1093.75 540.71,-1093.75 540.71,-1093.75 543.79,-1093.75 546.88,-1096.83 546.88,-1099.92 546.88,-1099.92 546.88,-1106.08 546.88,-1106.08 546.88,-1109.17 543.79,-1112.25 540.71,-1112.25"/>
<text text-anchor="start" x="461.62" y="-1099.7" font-family="Helvetica,sans-Serif" font-size="9.00">DirectableFrame.js</text>
</a>
</g>
</g>
<!-- src/js/directable/directables/rhythm/DirectableRhythm.js -->
<g id="node40" class="node">
<title>src/js/directable/directables/rhythm/DirectableRhythm.js</title>
<g id="a_node40"><a xlink:href="src/js/directable/directables/rhythm/DirectableRhythm.js" xlink:title="DirectableRhythm.js">
<path fill="#ffffcc" stroke="black" d="M705.21,-1304.25C705.21,-1304.25 619.04,-1304.25 619.04,-1304.25 615.96,-1304.25 612.88,-1301.17 612.88,-1298.08 612.88,-1298.08 612.88,-1291.92 612.88,-1291.92 612.88,-1288.83 615.96,-1285.75 619.04,-1285.75 619.04,-1285.75 705.21,-1285.75 705.21,-1285.75 708.29,-1285.75 711.38,-1288.83 711.38,-1291.92 711.38,-1291.92 711.38,-1298.08 711.38,-1298.08 711.38,-1301.17 708.29,-1304.25 705.21,-1304.25"/>
<text text-anchor="start" x="620.88" y="-1291.7" font-family="Helvetica,sans-Serif" font-size="9.00">DirectableRhythm.js</text>
</a>
</g>
</g>
<!-- src/js/directable/directables/rhythm/asdr/ASDRData.js -->
<g id="node41" class="node">
<title>src/js/directable/directables/rhythm/asdr/ASDRData.js</title>
<g id="a_node41"><a xlink:href="src/js/directable/directables/rhythm/asdr/ASDRData.js" xlink:title="ASDRData.js">
<path fill="#ccffcc" stroke="black" d="M529.08,-1181.25C529.08,-1181.25 471.42,-1181.25 471.42,-1181.25 468.33,-1181.25 465.25,-1178.17 465.25,-1175.08 465.25,-1175.08 465.25,-1168.92 465.25,-1168.92 465.25,-1165.83 468.33,-1162.75 471.42,-1162.75 471.42,-1162.75 529.08,-1162.75 529.08,-1162.75 532.17,-1162.75 535.25,-1165.83 535.25,-1168.92 535.25,-1168.92 535.25,-1175.08 535.25,-1175.08 535.25,-1178.17 532.17,-1181.25 529.08,-1181.25"/>
<text text-anchor="start" x="473.25" y="-1168.7" font-family="Helvetica,sans-Serif" font-size="9.00">ASDRData.js</text>
</a>
</g>
</g>
<!-- src/js/directable/directables/rhythm/asdr/ASDREnvelope.js -->
<g id="node42" class="node">
<title>src/js/directable/directables/rhythm/asdr/ASDREnvelope.js</title>
<g id="a_node42"><a xlink:href="src/js/directable/directables/rhythm/asdr/ASDREnvelope.js" xlink:title="ASDREnvelope.js">
<path fill="#ffffcc" stroke="black" d="M538.83,-1212.25C538.83,-1212.25 461.67,-1212.25 461.67,-1212.25 458.58,-1212.25 455.5,-1209.17 455.5,-1206.08 455.5,-1206.08 455.5,-1199.92 455.5,-1199.92 455.5,-1196.83 458.58,-1193.75 461.67,-1193.75 461.67,-1193.75 538.83,-1193.75 538.83,-1193.75 541.92,-1193.75 545,-1196.83 545,-1199.92 545,-1199.92 545,-1206.08 545,-1206.08 545,-1209.17 541.92,-1212.25 538.83,-1212.25"/>
<text text-anchor="start" x="463.5" y="-1199.7" font-family="Helvetica,sans-Serif" font-size="9.00">ASDREnvelope.js</text>
</a>
</g>
</g>
<!-- src/js/directable/directables/rhythm/asdr/DirectableRhythmASDRManager.js -->
<g id="node43" class="node">
<title>src/js/directable/directables/rhythm/asdr/DirectableRhythmASDRManager.js</title>
<g id="a_node43"><a xlink:href="src/js/directable/directables/rhythm/asdr/DirectableRhythmASDRManager.js" xlink:title="DirectableRhythmASDRManager.js">
<path fill="#ffffcc" stroke="black" d="M574.08,-1243.25C574.08,-1243.25 426.42,-1243.25 426.42,-1243.25 423.33,-1243.25 420.25,-1240.17 420.25,-1237.08 420.25,-1237.08 420.25,-1230.92 420.25,-1230.92 420.25,-1227.83 423.33,-1224.75 426.42,-1224.75 426.42,-1224.75 574.08,-1224.75 574.08,-1224.75 577.17,-1224.75 580.25,-1227.83 580.25,-1230.92 580.25,-1230.92 580.25,-1237.08 580.25,-1237.08 580.25,-1240.17 577.17,-1243.25 574.08,-1243.25"/>
<text text-anchor="start" x="428.25" y="-1230.7" font-family="Helvetica,sans-Serif" font-size="9.00">DirectableRhythmASDRManager.js</text>
</a>
</g>
</g>
<!-- src/js/directable/directables/rhythm/bpm/DirectableRhythmBPM.js&#45;&gt;src/js/directable/directables/rhythm/DirectableRhythm.js -->
<g id="edge7" class="edge">
<title>src/js/directable/directables/rhythm/bpm/DirectableRhythmBPM.js&#45;&gt;src/js/directable/directables/rhythm/DirectableRhythm.js</title>
<path fill="none" stroke="#000000" stroke-width="2" stroke-opacity="0.200000" d="M559.42,-1295C573.84,-1295 589.28,-1295 603.66,-1295"/>
<polygon fill="#000000" fill-opacity="0.200000" stroke="#000000" stroke-width="2" stroke-opacity="0.200000" points="603.44,-1297.1 609.44,-1295 603.44,-1292.9 603.44,-1297.1"/>
</g>
<!-- src/js/directable/directables/rhythm2/ViewRhythm.js -->
<g id="node45" class="node">
<title>src/js/directable/directables/rhythm2/ViewRhythm.js</title>
<g id="a_node45"><a xlink:href="src/js/directable/directables/rhythm2/ViewRhythm.js" xlink:title="ViewRhythm.js">
<path fill="#ffffcc" stroke="black" d="M532.46,-1392.25C532.46,-1392.25 468.04,-1392.25 468.04,-1392.25 464.96,-1392.25 461.88,-1389.17 461.88,-1386.08 461.88,-1386.08 461.88,-1379.92 461.88,-1379.92 461.88,-1376.83 464.96,-1373.75 468.04,-1373.75 468.04,-1373.75 532.46,-1373.75 532.46,-1373.75 535.54,-1373.75 538.62,-1376.83 538.62,-1379.92 538.62,-1379.92 538.62,-1386.08 538.62,-1386.08 538.62,-1389.17 535.54,-1392.25 532.46,-1392.25"/>
<text text-anchor="start" x="469.88" y="-1379.7" font-family="Helvetica,sans-Serif" font-size="9.00">ViewRhythm.js</text>
</a>
</g>
</g>
<!-- src/js/directable/directables/rhythm2/ViewRhythmTrack.js -->
<g id="node46" class="node">
<title>src/js/directable/directables/rhythm2/ViewRhythmTrack.js</title>
<g id="a_node46"><a xlink:href="src/js/directable/directables/rhythm2/ViewRhythmTrack.js" xlink:title="ViewRhythmTrack.js">
<path fill="#ffffcc" stroke="black" d="M705.58,-1392.25C705.58,-1392.25 618.67,-1392.25 618.67,-1392.25 615.58,-1392.25 612.5,-1389.17 612.5,-1386.08 612.5,-1386.08 612.5,-1379.92 612.5,-1379.92 612.5,-1376.83 615.58,-1373.75 618.67,-1373.75 618.67,-1373.75 705.58,-1373.75 705.58,-1373.75 708.67,-1373.75 711.75,-1376.83 711.75,-1379.92 711.75,-1379.92 711.75,-1386.08 711.75,-1386.08 711.75,-1389.17 708.67,-1392.25 705.58,-1392.25"/>
<text text-anchor="start" x="620.5" y="-1379.7" font-family="Helvetica,sans-Serif" font-size="9.00">ViewRhythmTrack.js</text>
</a>
</g>
</g>
<!-- src/js/directable/directables/rhythm2/ViewRhythm.js&#45;&gt;src/js/directable/directables/rhythm2/ViewRhythmTrack.js -->
<g id="edge8" class="edge">
<title>src/js/directable/directables/rhythm2/ViewRhythm.js&#45;&gt;src/js/directable/directables/rhythm2/ViewRhythmTrack.js</title>
<path fill="none" stroke="#000000" stroke-width="2" stroke-opacity="0.200000" d="M538.73,-1383C557.96,-1383 581.8,-1383 603.32,-1383"/>
<polygon fill="#000000" fill-opacity="0.200000" stroke="#000000" stroke-width="2" stroke-opacity="0.200000" points="603.03,-1385.1 609.03,-1383 603.03,-1380.9 603.03,-1385.1"/>
</g>
<!-- src/js/enum/DisplayFormats.js -->
<g id="node48" class="node">
<title>src/js/enum/DisplayFormats.js</title>
<g id="a_node48"><a xlink:href="src/js/enum/DisplayFormats.js" xlink:title="DisplayFormats.js">
<path fill="#ffffcc" stroke="black" d="M834.33,-1729.25C834.33,-1729.25 757.92,-1729.25 757.92,-1729.25 754.83,-1729.25 751.75,-1726.17 751.75,-1723.08 751.75,-1723.08 751.75,-1716.92 751.75,-1716.92 751.75,-1713.83 754.83,-1710.75 757.92,-1710.75 757.92,-1710.75 834.33,-1710.75 834.33,-1710.75 837.42,-1710.75 840.5,-1713.83 840.5,-1716.92 840.5,-1716.92 840.5,-1723.08 840.5,-1723.08 840.5,-1726.17 837.42,-1729.25 834.33,-1729.25"/>
<text text-anchor="start" x="759.75" y="-1716.7" font-family="Helvetica,sans-Serif" font-size="9.00">DisplayFormats.js</text>
</a>
</g>
</g>
<!-- src/js/index.js -->
<g id="node49" class="node">
<title>src/js/index.js</title>
<g id="a_node49"><a xlink:href="src/js/index.js" xlink:title="index.js">
<path fill="#ffffcc" stroke="black" d="M94.96,-1606.25C94.96,-1606.25 53.29,-1606.25 53.29,-1606.25 50.21,-1606.25 47.12,-1603.17 47.12,-1600.08 47.12,-1600.08 47.12,-1593.92 47.12,-1593.92 47.12,-1590.83 50.21,-1587.75 53.29,-1587.75 53.29,-1587.75 94.96,-1587.75 94.96,-1587.75 98.04,-1587.75 101.12,-1590.83 101.12,-1593.92 101.12,-1593.92 101.12,-1600.08 101.12,-1600.08 101.12,-1603.17 98.04,-1606.25 94.96,-1606.25"/>
<text text-anchor="start" x="58.38" y="-1593.7" font-family="Helvetica,sans-Serif" font-size="9.00">index.js</text>
</a>
</g>
</g>
<!-- src/js/index.js&#45;&gt;src/js/application/Application.js -->
<g id="edge12" class="edge">
<title>src/js/index.js&#45;&gt;src/js/application/Application.js</title>
<path fill="none" stroke="#000000" stroke-width="2" stroke-opacity="0.200000" d="M101.59,-1597C108.42,-1597 115.95,-1597 123.39,-1597"/>
<polygon fill="#000000" fill-opacity="0.200000" stroke="#000000" stroke-width="2" stroke-opacity="0.200000" points="123.01,-1599.1 129.01,-1597 123.01,-1594.9 123.01,-1599.1"/>
</g>
<!-- src/js/overlay/displayFormat/OverlayDisplayFormat.js&#45;&gt;src/js/enum/DisplayFormats.js -->
<g id="edge15" class="edge">
<title>src/js/overlay/displayFormat/OverlayDisplayFormat.js&#45;&gt;src/js/enum/DisplayFormats.js</title>
<path fill="none" stroke="#000000" stroke-width="2" stroke-opacity="0.200000" d="M673.01,-1637.3C687.69,-1650.82 716.47,-1676.23 743.75,-1694 750.58,-1698.45 758.27,-1702.7 765.58,-1706.43"/>
<polygon fill="#000000" fill-opacity="0.200000" stroke="#000000" stroke-width="2" stroke-opacity="0.200000" points="764.28,-1708.13 770.59,-1708.91 766.14,-1704.36 764.28,-1708.13"/>
</g>
<!-- src/js/overlay/OverlayUtil.js -->
<g id="node52" class="node">
<title>src/js/overlay/OverlayUtil.js</title>
<g id="a_node52"><a xlink:href="src/js/overlay/OverlayUtil.js" xlink:title="OverlayUtil.js">
<path fill="#ffffcc" stroke="black" d="M824.96,-1606.25C824.96,-1606.25 767.29,-1606.25 767.29,-1606.25 764.21,-1606.25 761.12,-1603.17 761.12,-1600.08 761.12,-1600.08 761.12,-1593.92 761.12,-1593.92 761.12,-1590.83 764.21,-1587.75 767.29,-1587.75 767.29,-1587.75 824.96,-1587.75 824.96,-1587.75 828.04,-1587.75 831.12,-1590.83 831.12,-1593.92 831.12,-1593.92 831.12,-1600.08 831.12,-1600.08 831.12,-1603.17 828.04,-1606.25 824.96,-1606.25"/>
<text text-anchor="start" x="769.12" y="-1593.7" font-family="Helvetica,sans-Serif" font-size="9.00">OverlayUtil.js</text>
</a>
</g>
</g>
<!-- src/js/overlay/displayFormat/OverlayDisplayFormat.js&#45;&gt;src/js/overlay/OverlayUtil.js -->
<g id="edge16" class="edge">
<title>src/js/overlay/displayFormat/OverlayDisplayFormat.js&#45;&gt;src/js/overlay/OverlayUtil.js</title>
<path fill="none" stroke="#000000" stroke-width="2" stroke-opacity="0.200000" d="M704.53,-1618.28C719.7,-1614.71 736.89,-1610.68 752.19,-1607.08"/>
<polygon fill="#000000" fill-opacity="0.200000" stroke="#000000" stroke-width="2" stroke-opacity="0.200000" points="752.64,-1609.13 758,-1605.72 751.68,-1605.05 752.64,-1609.13"/>
</g>
<!-- src/js/overlay/overlay/OverlayOverlay.js&#45;&gt;src/js/overlay/OverlayUtil.js -->
<g id="edge17" class="edge">
<title>src/js/overlay/overlay/OverlayOverlay.js&#45;&gt;src/js/overlay/OverlayUtil.js</title>
<path fill="none" stroke="#000000" stroke-width="2" stroke-opacity="0.200000" d="M705.98,-1576.74C720.83,-1580.12 737.47,-1583.9 752.32,-1587.27"/>
<polygon fill="#000000" fill-opacity="0.200000" stroke="#000000" stroke-width="2" stroke-opacity="0.200000" points="751.56,-1589.25 757.88,-1588.53 752.49,-1585.16 751.56,-1589.25"/>
</g>
<!-- src/js/view/render/RenderResizer.js -->
<g id="node54" class="node">
<title>src/js/view/render/RenderResizer.js</title>
<g id="a_node54"><a xlink:href="src/js/view/render/RenderResizer.js" xlink:title="RenderResizer.js">
<path fill="#ffffcc" stroke="black" d="M699.21,-1733.25C699.21,-1733.25 625.04,-1733.25 625.04,-1733.25 621.96,-1733.25 618.88,-1730.17 618.88,-1727.08 618.88,-1727.08 618.88,-1720.92 618.88,-1720.92 618.88,-1717.83 621.96,-1714.75 625.04,-1714.75 625.04,-1714.75 699.21,-1714.75 699.21,-1714.75 702.29,-1714.75 705.38,-1717.83 705.38,-1720.92 705.38,-1720.92 705.38,-1727.08 705.38,-1727.08 705.38,-1730.17 702.29,-1733.25 699.21,-1733.25"/>
<text text-anchor="start" x="626.88" y="-1720.7" font-family="Helvetica,sans-Serif" font-size="9.00">RenderResizer.js</text>
</a>
</g>
</g>
<!-- src/js/view/render/RenderController.js&#45;&gt;src/js/view/render/RenderResizer.js -->
<g id="edge19" class="edge">
<title>src/js/view/render/RenderController.js&#45;&gt;src/js/view/render/RenderResizer.js</title>
<path fill="none" stroke="#000000" stroke-width="2" stroke-opacity="0.200000" d="M548.35,-1724C567.6,-1724 589.93,-1724 609.61,-1724"/>
<polygon fill="#000000" fill-opacity="0.200000" stroke="#000000" stroke-width="2" stroke-opacity="0.200000" points="609.42,-1726.1 615.42,-1724 609.42,-1721.9 609.42,-1726.1"/>
</g>
<!-- src/js/view/render/RenderSurface.js -->
<g id="node55" class="node">
<title>src/js/view/render/RenderSurface.js</title>
<g id="a_node55"><a xlink:href="src/js/view/render/RenderSurface.js" xlink:title="RenderSurface.js">
<path fill="#ffffcc" stroke="black" d="M699.58,-1764.25C699.58,-1764.25 624.67,-1764.25 624.67,-1764.25 621.58,-1764.25 618.5,-1761.17 618.5,-1758.08 618.5,-1758.08 618.5,-1751.92 618.5,-1751.92 618.5,-1748.83 621.58,-1745.75 624.67,-1745.75 624.67,-1745.75 699.58,-1745.75 699.58,-1745.75 702.67,-1745.75 705.75,-1748.83 705.75,-1751.92 705.75,-1751.92 705.75,-1758.08 705.75,-1758.08 705.75,-1761.17 702.67,-1764.25 699.58,-1764.25"/>
<text text-anchor="start" x="626.5" y="-1751.7" font-family="Helvetica,sans-Serif" font-size="9.00">RenderSurface.js</text>
</a>
</g>
</g>
<!-- src/js/view/render/RenderController.js&#45;&gt;src/js/view/render/RenderSurface.js -->
<g id="edge20" class="edge">
<title>src/js/view/render/RenderController.js&#45;&gt;src/js/view/render/RenderSurface.js</title>
<path fill="none" stroke="#000000" stroke-width="2" stroke-opacity="0.200000" d="M548.35,-1733.13C567.52,-1736.85 589.74,-1741.16 609.36,-1744.96"/>
<polygon fill="#000000" fill-opacity="0.200000" stroke="#000000" stroke-width="2" stroke-opacity="0.200000" points="608.91,-1747.02 615.2,-1746.1 609.71,-1742.89 608.91,-1747.02"/>
</g>
<!-- src/js/view/render/RenderResizer.js&#45;&gt;src/js/enum/DisplayFormats.js -->
<g id="edge21" class="edge">
<title>src/js/view/render/RenderResizer.js&#45;&gt;src/js/enum/DisplayFormats.js</title>
<path fill="none" stroke="#000000" stroke-width="2" stroke-opacity="0.200000" d="M705.62,-1722.71C717.38,-1722.36 730.29,-1721.96 742.56,-1721.59"/>
<polygon fill="#000000" fill-opacity="0.200000" stroke="#000000" stroke-width="2" stroke-opacity="0.200000" points="742.39,-1723.7 748.33,-1721.42 742.26,-1719.5 742.39,-1723.7"/>
</g>
</g>
</svg>
