<?xml version="1.0" encoding="UTF-8" standalone="no"?>
<!DOCTYPE svg PUBLIC "-//W3C//DTD SVG 1.1//EN"
 "http://www.w3.org/Graphics/SVG/1.1/DTD/svg11.dtd">
<!-- Generated by graphviz version 12.2.1 (20241206.2353)
 -->
<!-- Title: dependency&#45;cruiser output Pages: 1 -->
<svg width="1269pt" height="1585pt"
 viewBox="0.00 0.00 1269.25 1585.00" xmlns="http://www.w3.org/2000/svg" xmlns:xlink="http://www.w3.org/1999/xlink">
<g id="graph0" class="graph" transform="scale(1 1) rotate(0) translate(4 1581)">
<title>dependency&#45;cruiser output</title>
<polygon fill="white" stroke="none" points="-4,4 -4,-1581 1265.25,-1581 1265.25,4 -4,4"/>
<g id="clust1" class="cluster">
<title>cluster_src</title>
<path fill="#ffffff" stroke="black" stroke-width="2" d="M20,-8C20,-8 1241.25,-8 1241.25,-8 1247.25,-8 1253.25,-14 1253.25,-20 1253.25,-20 1253.25,-1557 1253.25,-1557 1253.25,-1563 1247.25,-1569 1241.25,-1569 1241.25,-1569 20,-1569 20,-1569 14,-1569 8,-1563 8,-1557 8,-1557 8,-20 8,-20 8,-14 14,-8 20,-8"/>
<text text-anchor="middle" x="630.62" y="-1556.45" font-family="Helvetica,sans-Serif" font-weight="bold" font-size="9.00">src</text>
</g>
<g id="clust2" class="cluster">
<title>cluster_src/js</title>
<path fill="#ffffff" stroke="black" stroke-width="2" d="M28,-16C28,-16 1233.25,-16 1233.25,-16 1239.25,-16 1245.25,-22 1245.25,-28 1245.25,-28 1245.25,-1530 1245.25,-1530 1245.25,-1536 1239.25,-1542 1233.25,-1542 1233.25,-1542 28,-1542 28,-1542 22,-1542 16,-1536 16,-1530 16,-1530 16,-28 16,-28 16,-22 22,-16 28,-16"/>
<text text-anchor="middle" x="630.62" y="-1529.45" font-family="Helvetica,sans-Serif" font-weight="bold" font-size="9.00">js</text>
</g>
<g id="clust3" class="cluster">
<title>cluster_src/js/application</title>
<path fill="#ffffff" stroke="black" stroke-width="2" d="M136.25,-1277C136.25,-1277 199,-1277 199,-1277 205,-1277 211,-1283 211,-1289 211,-1289 211,-1318 211,-1318 211,-1324 205,-1330 199,-1330 199,-1330 136.25,-1330 136.25,-1330 130.25,-1330 124.25,-1324 124.25,-1318 124.25,-1318 124.25,-1289 124.25,-1289 124.25,-1283 130.25,-1277 136.25,-1277"/>
<text text-anchor="middle" x="167.62" y="-1317.45" font-family="Helvetica,sans-Serif" font-weight="bold" font-size="9.00">application</text>
</g>
<g id="clust4" class="cluster">
<title>cluster_src/js/controller</title>
<path fill="#ffffff" stroke="black" stroke-width="2" d="M231,-1277C231,-1277 287.75,-1277 287.75,-1277 293.75,-1277 299.75,-1283 299.75,-1289 299.75,-1289 299.75,-1318 299.75,-1318 299.75,-1324 293.75,-1330 287.75,-1330 287.75,-1330 231,-1330 231,-1330 225,-1330 219,-1324 219,-1318 219,-1318 219,-1289 219,-1289 219,-1283 225,-1277 231,-1277"/>
<text text-anchor="middle" x="259.38" y="-1317.45" font-family="Helvetica,sans-Serif" font-weight="bold" font-size="9.00">controller</text>
</g>
<g id="clust5" class="cluster">
<title>cluster_src/js/data</title>
<path fill="#ffffff" stroke="black" stroke-width="2" d="M36,-635C36,-635 191.12,-635 191.12,-635 197.12,-635 203.12,-641 203.12,-647 203.12,-647 203.12,-676 203.12,-676 203.12,-682 197.12,-688 191.12,-688 191.12,-688 36,-688 36,-688 30,-688 24,-682 24,-676 24,-676 24,-647 24,-647 24,-641 30,-635 36,-635"/>
<text text-anchor="middle" x="113.56" y="-675.45" font-family="Helvetica,sans-Serif" font-weight="bold" font-size="9.00">data</text>
</g>
<g id="clust6" class="cluster">
<title>cluster_src/js/directable</title>
<path fill="#ffffff" stroke="black" stroke-width="2" d="M400.25,-24C400.25,-24 1225.25,-24 1225.25,-24 1231.25,-24 1237.25,-30 1237.25,-36 1237.25,-36 1237.25,-1219 1237.25,-1219 1237.25,-1225 1231.25,-1231 1225.25,-1231 1225.25,-1231 400.25,-1231 400.25,-1231 394.25,-1231 388.25,-1225 388.25,-1219 388.25,-1219 388.25,-36 388.25,-36 388.25,-30 394.25,-24 400.25,-24"/>
<text text-anchor="middle" x="812.75" y="-1218.45" font-family="Helvetica,sans-Serif" font-weight="bold" font-size="9.00">directable</text>
</g>
<g id="clust7" class="cluster">
<title>cluster_src/js/directable/directables</title>
<path fill="#ffffff" stroke="black" stroke-width="2" d="M408.25,-32C408.25,-32 1217.25,-32 1217.25,-32 1223.25,-32 1229.25,-38 1229.25,-44 1229.25,-44 1229.25,-1192 1229.25,-1192 1229.25,-1198 1223.25,-1204 1217.25,-1204 1217.25,-1204 408.25,-1204 408.25,-1204 402.25,-1204 396.25,-1198 396.25,-1192 396.25,-1192 396.25,-44 396.25,-44 396.25,-38 402.25,-32 408.25,-32"/>
<text text-anchor="middle" x="812.75" y="-1191.45" font-family="Helvetica,sans-Serif" font-weight="bold" font-size="9.00">directables</text>
</g>
<g id="clust8" class="cluster">
<title>cluster_src/js/directable/directables/dotmatrix</title>
<path fill="#ffffff" stroke="black" stroke-width="2" d="M451.25,-40C451.25,-40 1209.25,-40 1209.25,-40 1215.25,-40 1221.25,-46 1221.25,-52 1221.25,-52 1221.25,-763 1221.25,-763 1221.25,-769 1215.25,-775 1209.25,-775 1209.25,-775 451.25,-775 451.25,-775 445.25,-775 439.25,-769 439.25,-763 439.25,-763 439.25,-52 439.25,-52 439.25,-46 445.25,-40 451.25,-40"/>
<text text-anchor="middle" x="830.25" y="-762.45" font-family="Helvetica,sans-Serif" font-weight="bold" font-size="9.00">dotmatrix</text>
</g>
<g id="clust9" class="cluster">
<title>cluster_src/js/directable/directables/dotmatrix/dot</title>
<path fill="#ffffff" stroke="black" stroke-width="2" d="M765.38,-202C765.38,-202 957.62,-202 957.62,-202 963.62,-202 969.62,-208 969.62,-214 969.62,-214 969.62,-243 969.62,-243 969.62,-249 963.62,-255 957.62,-255 957.62,-255 765.38,-255 765.38,-255 759.38,-255 753.38,-249 753.38,-243 753.38,-243 753.38,-214 753.38,-214 753.38,-208 759.38,-202 765.38,-202"/>
<text text-anchor="middle" x="861.5" y="-242.45" font-family="Helvetica,sans-Serif" font-weight="bold" font-size="9.00">dot</text>
</g>
<g id="clust10" class="cluster">
<title>cluster_src/js/directable/directables/dotmatrix/grid</title>
<path fill="#ffffff" stroke="black" stroke-width="2" d="M874,-79C874,-79 995.25,-79 995.25,-79 1001.25,-79 1007.25,-85 1007.25,-91 1007.25,-91 1007.25,-182 1007.25,-182 1007.25,-188 1001.25,-194 995.25,-194 995.25,-194 874,-194 874,-194 868,-194 862,-188 862,-182 862,-182 862,-91 862,-91 862,-85 868,-79 874,-79"/>
<text text-anchor="middle" x="934.62" y="-181.45" font-family="Helvetica,sans-Serif" font-weight="bold" font-size="9.00">grid</text>
</g>
<g id="clust11" class="cluster">
<title>cluster_src/js/directable/directables/dotmatrix/shape</title>
<path fill="#ffffff" stroke="black" stroke-width="2" d="M748,-263C748,-263 1201.25,-263 1201.25,-263 1207.25,-263 1213.25,-269 1213.25,-275 1213.25,-275 1213.25,-736 1213.25,-736 1213.25,-742 1207.25,-748 1201.25,-748 1201.25,-748 748,-748 748,-748 742,-748 736,-742 736,-736 736,-736 736,-275 736,-275 736,-269 742,-263 748,-263"/>
<text text-anchor="middle" x="974.62" y="-735.45" font-family="Helvetica,sans-Serif" font-weight="bold" font-size="9.00">shape</text>
</g>
<g id="clust12" class="cluster">
<title>cluster_src/js/directable/directables/dotmatrix/shape/fill</title>
<path fill="#ffffff" stroke="black" stroke-width="2" d="M1027.25,-535C1027.25,-535 1193.25,-535 1193.25,-535 1199.25,-535 1205.25,-541 1205.25,-547 1205.25,-547 1205.25,-638 1205.25,-638 1205.25,-644 1199.25,-650 1193.25,-650 1193.25,-650 1027.25,-650 1027.25,-650 1021.25,-650 1015.25,-644 1015.25,-638 1015.25,-638 1015.25,-547 1015.25,-547 1015.25,-541 1021.25,-535 1027.25,-535"/>
<text text-anchor="middle" x="1110.25" y="-637.45" font-family="Helvetica,sans-Serif" font-weight="bold" font-size="9.00">fill</text>
</g>
<g id="clust13" class="cluster">
<title>cluster_src/js/directable/directables/dotmatrix/shape/glyph</title>
<path fill="#ffffff" stroke="black" stroke-width="2" d="M759,-271C759,-271 839,-271 839,-271 845,-271 851,-277 851,-283 851,-283 851,-622 851,-622 851,-628 845,-634 839,-634 839,-634 759,-634 759,-634 753,-634 747,-628 747,-622 747,-622 747,-283 747,-283 747,-277 753,-271 759,-271"/>
<text text-anchor="middle" x="799" y="-621.45" font-family="Helvetica,sans-Serif" font-weight="bold" font-size="9.00">glyph</text>
</g>
<g id="clust14" class="cluster">
<title>cluster_src/js/directable/directables/dotmatrix/shape/line</title>
<path fill="#ffffff" stroke="black" stroke-width="2" d="M882.62,-619C882.62,-619 986.62,-619 986.62,-619 992.62,-619 998.62,-625 998.62,-631 998.62,-631 998.62,-691 998.62,-691 998.62,-697 992.62,-703 986.62,-703 986.62,-703 882.62,-703 882.62,-703 876.62,-703 870.62,-697 870.62,-691 870.62,-691 870.62,-631 870.62,-631 870.62,-625 876.62,-619 882.62,-619"/>
<text text-anchor="middle" x="934.62" y="-690.45" font-family="Helvetica,sans-Serif" font-weight="bold" font-size="9.00">line</text>
</g>
<g id="clust15" class="cluster">
<title>cluster_src/js/directable/directables/dotmatrix/shape/primative</title>
<path fill="#ffffff" stroke="black" stroke-width="2" d="M756,-642C756,-642 842,-642 842,-642 848,-642 854,-648 854,-654 854,-654 854,-683 854,-683 854,-689 848,-695 842,-695 842,-695 756,-695 756,-695 750,-695 744,-689 744,-683 744,-683 744,-654 744,-654 744,-648 750,-642 756,-642"/>
<text text-anchor="middle" x="799" y="-682.45" font-family="Helvetica,sans-Serif" font-weight="bold" font-size="9.00">primative</text>
</g>
<g id="clust16" class="cluster">
<title>cluster_src/js/directable/directables/dotmatrix/view</title>
<path fill="#ffffff" stroke="black" stroke-width="2" d="M625.5,-48C625.5,-48 825.88,-48 825.88,-48 831.88,-48 837.88,-54 837.88,-60 837.88,-60 837.88,-182 837.88,-182 837.88,-188 831.88,-194 825.88,-194 825.88,-194 625.5,-194 625.5,-194 619.5,-194 613.5,-188 613.5,-182 613.5,-182 613.5,-60 613.5,-60 613.5,-54 619.5,-48 625.5,-48"/>
<text text-anchor="middle" x="725.69" y="-181.45" font-family="Helvetica,sans-Serif" font-weight="bold" font-size="9.00">view</text>
</g>
<g id="clust17" class="cluster">
<title>cluster_src/js/directable/directables/frame</title>
<path fill="#ffffff" stroke="black" stroke-width="2" d="M457.62,-783C457.62,-783 542.88,-783 542.88,-783 548.88,-783 554.88,-789 554.88,-795 554.88,-795 554.88,-824 554.88,-824 554.88,-830 548.88,-836 542.88,-836 542.88,-836 457.62,-836 457.62,-836 451.62,-836 445.62,-830 445.62,-824 445.62,-824 445.62,-795 445.62,-795 445.62,-789 451.62,-783 457.62,-783"/>
<text text-anchor="middle" x="500.25" y="-823.45" font-family="Helvetica,sans-Serif" font-weight="bold" font-size="9.00">frame</text>
</g>
<g id="clust18" class="cluster">
<title>cluster_src/js/directable/directables/rhythm</title>
<path fill="#ffffff" stroke="black" stroke-width="2" d="M416.25,-844C416.25,-844 707.38,-844 707.38,-844 713.38,-844 719.38,-850 719.38,-856 719.38,-856 719.38,-1043 719.38,-1043 719.38,-1049 713.38,-1055 707.38,-1055 707.38,-1055 416.25,-1055 416.25,-1055 410.25,-1055 404.25,-1049 404.25,-1043 404.25,-1043 404.25,-856 404.25,-856 404.25,-850 410.25,-844 416.25,-844"/>
<text text-anchor="middle" x="561.81" y="-1042.45" font-family="Helvetica,sans-Serif" font-weight="bold" font-size="9.00">rhythm</text>
</g>
<g id="clust19" class="cluster">
<title>cluster_src/js/directable/directables/rhythm/asdr</title>
<path fill="#ffffff" stroke="black" stroke-width="2" d="M424.25,-852C424.25,-852 576.25,-852 576.25,-852 582.25,-852 588.25,-858 588.25,-864 588.25,-864 588.25,-955 588.25,-955 588.25,-961 582.25,-967 576.25,-967 576.25,-967 424.25,-967 424.25,-967 418.25,-967 412.25,-961 412.25,-955 412.25,-955 412.25,-864 412.25,-864 412.25,-858 418.25,-852 424.25,-852"/>
<text text-anchor="middle" x="500.25" y="-954.45" font-family="Helvetica,sans-Serif" font-weight="bold" font-size="9.00">asdr</text>
</g>
<g id="clust20" class="cluster">
<title>cluster_src/js/directable/directables/rhythm/bpm</title>
<path fill="#ffffff" stroke="black" stroke-width="2" d="M445.25,-975C445.25,-975 555.25,-975 555.25,-975 561.25,-975 567.25,-981 567.25,-987 567.25,-987 567.25,-1016 567.25,-1016 567.25,-1022 561.25,-1028 555.25,-1028 555.25,-1028 445.25,-1028 445.25,-1028 439.25,-1028 433.25,-1022 433.25,-1016 433.25,-1016 433.25,-987 433.25,-987 433.25,-981 439.25,-975 445.25,-975"/>
<text text-anchor="middle" x="500.25" y="-1015.45" font-family="Helvetica,sans-Serif" font-weight="bold" font-size="9.00">bpm</text>
</g>
<g id="clust21" class="cluster">
<title>cluster_src/js/directable/directables/rhythm2</title>
<path fill="#ffffff" stroke="black" stroke-width="2" d="M465.88,-1063C465.88,-1063 707.75,-1063 707.75,-1063 713.75,-1063 719.75,-1069 719.75,-1075 719.75,-1075 719.75,-1104 719.75,-1104 719.75,-1110 713.75,-1116 707.75,-1116 707.75,-1116 465.88,-1116 465.88,-1116 459.88,-1116 453.88,-1110 453.88,-1104 453.88,-1104 453.88,-1075 453.88,-1075 453.88,-1069 459.88,-1063 465.88,-1063"/>
<text text-anchor="middle" x="586.81" y="-1103.45" font-family="Helvetica,sans-Serif" font-weight="bold" font-size="9.00">rhythm2</text>
</g>
<g id="clust22" class="cluster">
<title>cluster_src/js/directable/directables/title</title>
<path fill="#ffffff" stroke="black" stroke-width="2" d="M462.12,-1124C462.12,-1124 538.38,-1124 538.38,-1124 544.38,-1124 550.38,-1130 550.38,-1136 550.38,-1136 550.38,-1165 550.38,-1165 550.38,-1171 544.38,-1177 538.38,-1177 538.38,-1177 462.12,-1177 462.12,-1177 456.12,-1177 450.12,-1171 450.12,-1165 450.12,-1165 450.12,-1136 450.12,-1136 450.12,-1130 456.12,-1124 462.12,-1124"/>
<text text-anchor="middle" x="500.25" y="-1164.45" font-family="Helvetica,sans-Serif" font-weight="bold" font-size="9.00">title</text>
</g>
<g id="clust23" class="cluster">
<title>cluster_src/js/director</title>
<path fill="#ffffff" stroke="black" stroke-width="2" d="M319.75,-1124C319.75,-1124 368.25,-1124 368.25,-1124 374.25,-1124 380.25,-1130 380.25,-1136 380.25,-1136 380.25,-1165 380.25,-1165 380.25,-1171 374.25,-1177 368.25,-1177 368.25,-1177 319.75,-1177 319.75,-1177 313.75,-1177 307.75,-1171 307.75,-1165 307.75,-1165 307.75,-1136 307.75,-1136 307.75,-1130 313.75,-1124 319.75,-1124"/>
<text text-anchor="middle" x="344" y="-1164.45" font-family="Helvetica,sans-Serif" font-weight="bold" font-size="9.00">director</text>
</g>
<g id="clust24" class="cluster">
<title>cluster_src/js/enum</title>
<path fill="#ffffff" stroke="black" stroke-width="2" d="M758.62,-1400C758.62,-1400 839.38,-1400 839.38,-1400 845.38,-1400 851.38,-1406 851.38,-1412 851.38,-1412 851.38,-1441 851.38,-1441 851.38,-1447 845.38,-1453 839.38,-1453 839.38,-1453 758.62,-1453 758.62,-1453 752.62,-1453 746.62,-1447 746.62,-1441 746.62,-1441 746.62,-1412 746.62,-1412 746.62,-1406 752.62,-1400 758.62,-1400"/>
<text text-anchor="middle" x="799" y="-1440.45" font-family="Helvetica,sans-Serif" font-weight="bold" font-size="9.00">enum</text>
</g>
<g id="clust25" class="cluster">
<title>cluster_src/js/overlay</title>
<path fill="#ffffff" stroke="black" stroke-width="2" d="M476.38,-1239C476.38,-1239 830,-1239 830,-1239 836,-1239 842,-1245 842,-1251 842,-1251 842,-1376 842,-1376 842,-1382 836,-1388 830,-1388 830,-1388 476.38,-1388 476.38,-1388 470.38,-1388 464.38,-1382 464.38,-1376 464.38,-1376 464.38,-1251 464.38,-1251 464.38,-1245 470.38,-1239 476.38,-1239"/>
<text text-anchor="middle" x="653.19" y="-1375.45" font-family="Helvetica,sans-Serif" font-weight="bold" font-size="9.00">overlay</text>
</g>
<g id="clust26" class="cluster">
<title>cluster_src/js/overlay/displayFormat</title>
<path fill="#ffffff" stroke="black" stroke-width="2" d="M608.25,-1308C608.25,-1308 716,-1308 716,-1308 722,-1308 728,-1314 728,-1320 728,-1320 728,-1349 728,-1349 728,-1355 722,-1361 716,-1361 716,-1361 608.25,-1361 608.25,-1361 602.25,-1361 596.25,-1355 596.25,-1349 596.25,-1349 596.25,-1320 596.25,-1320 596.25,-1314 602.25,-1308 608.25,-1308"/>
<text text-anchor="middle" x="662.12" y="-1348.45" font-family="Helvetica,sans-Serif" font-weight="bold" font-size="9.00">displayFormat</text>
</g>
<g id="clust27" class="cluster">
<title>cluster_src/js/overlay/overlay</title>
<path fill="#ffffff" stroke="black" stroke-width="2" d="M622.5,-1247C622.5,-1247 701.75,-1247 701.75,-1247 707.75,-1247 713.75,-1253 713.75,-1259 713.75,-1259 713.75,-1288 713.75,-1288 713.75,-1294 707.75,-1300 701.75,-1300 701.75,-1300 622.5,-1300 622.5,-1300 616.5,-1300 610.5,-1294 610.5,-1288 610.5,-1288 610.5,-1259 610.5,-1259 610.5,-1253 616.5,-1247 622.5,-1247"/>
<text text-anchor="middle" x="662.12" y="-1287.45" font-family="Helvetica,sans-Serif" font-weight="bold" font-size="9.00">overlay</text>
</g>
<g id="clust28" class="cluster">
<title>cluster_src/js/view</title>
<path fill="#ffffff" stroke="black" stroke-width="2" d="M321,-1396C321,-1396 709.75,-1396 709.75,-1396 715.75,-1396 721.75,-1402 721.75,-1408 721.75,-1408 721.75,-1503 721.75,-1503 721.75,-1509 715.75,-1515 709.75,-1515 709.75,-1515 321,-1515 321,-1515 315,-1515 309,-1509 309,-1503 309,-1503 309,-1408 309,-1408 309,-1402 315,-1396 321,-1396"/>
<text text-anchor="middle" x="515.38" y="-1502.45" font-family="Helvetica,sans-Serif" font-weight="bold" font-size="9.00">view</text>
</g>
<g id="clust29" class="cluster">
<title>cluster_src/js/view/render</title>
<path fill="#ffffff" stroke="black" stroke-width="2" d="M456.5,-1404C456.5,-1404 701.75,-1404 701.75,-1404 707.75,-1404 713.75,-1410 713.75,-1416 713.75,-1416 713.75,-1476 713.75,-1476 713.75,-1482 707.75,-1488 701.75,-1488 701.75,-1488 456.5,-1488 456.5,-1488 450.5,-1488 444.5,-1482 444.5,-1476 444.5,-1476 444.5,-1416 444.5,-1416 444.5,-1410 450.5,-1404 456.5,-1404"/>
<text text-anchor="middle" x="579.12" y="-1475.45" font-family="Helvetica,sans-Serif" font-weight="bold" font-size="9.00">render</text>
</g>
<!-- src/js/application/Application.js -->
<g id="node1" class="node">
<title>src/js/application/Application.js</title>
<g id="a_node1"><a xlink:href="src/js/application/Application.js" xlink:title="Application.js">
<path fill="#ffffcc" stroke="black" d="M196.83,-1303.25C196.83,-1303.25 138.42,-1303.25 138.42,-1303.25 135.33,-1303.25 132.25,-1300.17 132.25,-1297.08 132.25,-1297.08 132.25,-1290.92 132.25,-1290.92 132.25,-1287.83 135.33,-1284.75 138.42,-1284.75 138.42,-1284.75 196.83,-1284.75 196.83,-1284.75 199.92,-1284.75 203,-1287.83 203,-1290.92 203,-1290.92 203,-1297.08 203,-1297.08 203,-1300.17 199.92,-1303.25 196.83,-1303.25"/>
<text text-anchor="start" x="140.25" y="-1290.7" font-family="Helvetica,sans-Serif" font-size="9.00">Application.js</text>
</a>
</g>
</g>
<!-- src/js/controller/Controller.js -->
<g id="node2" class="node">
<title>src/js/controller/Controller.js</title>
<g id="a_node2"><a xlink:href="src/js/controller/Controller.js" xlink:title="Controller.js">
<path fill="#ffffcc" stroke="black" d="M285.58,-1303.25C285.58,-1303.25 233.17,-1303.25 233.17,-1303.25 230.08,-1303.25 227,-1300.17 227,-1297.08 227,-1297.08 227,-1290.92 227,-1290.92 227,-1287.83 230.08,-1284.75 233.17,-1284.75 233.17,-1284.75 285.58,-1284.75 285.58,-1284.75 288.67,-1284.75 291.75,-1287.83 291.75,-1290.92 291.75,-1290.92 291.75,-1297.08 291.75,-1297.08 291.75,-1300.17 288.67,-1303.25 285.58,-1303.25"/>
<text text-anchor="start" x="235" y="-1290.7" font-family="Helvetica,sans-Serif" font-size="9.00">Controller.js</text>
</a>
</g>
</g>
<!-- src/js/application/Application.js&#45;&gt;src/js/controller/Controller.js -->
<g id="edge1" class="edge">
<title>src/js/application/Application.js&#45;&gt;src/js/controller/Controller.js</title>
<path fill="none" stroke="#000000" stroke-width="2" stroke-opacity="0.200000" d="M203.32,-1294C208.13,-1294 213.11,-1294 218.01,-1294"/>
<polygon fill="#000000" fill-opacity="0.200000" stroke="#000000" stroke-width="2" stroke-opacity="0.200000" points="217.68,-1296.1 223.68,-1294 217.68,-1291.9 217.68,-1296.1"/>
</g>
<!-- src/js/director/Director.js -->
<g id="node3" class="node">
<title>src/js/director/Director.js</title>
<g id="a_node3"><a xlink:href="src/js/director/Director.js" xlink:title="Director.js">
<path fill="#ffffcc" stroke="black" d="M366.08,-1150.25C366.08,-1150.25 321.92,-1150.25 321.92,-1150.25 318.83,-1150.25 315.75,-1147.17 315.75,-1144.08 315.75,-1144.08 315.75,-1137.92 315.75,-1137.92 315.75,-1134.83 318.83,-1131.75 321.92,-1131.75 321.92,-1131.75 366.08,-1131.75 366.08,-1131.75 369.17,-1131.75 372.25,-1134.83 372.25,-1137.92 372.25,-1137.92 372.25,-1144.08 372.25,-1144.08 372.25,-1147.17 369.17,-1150.25 366.08,-1150.25"/>
<text text-anchor="start" x="323.75" y="-1137.7" font-family="Helvetica,sans-Serif" font-size="9.00">Director.js</text>
</a>
</g>
</g>
<!-- src/js/controller/Controller.js&#45;&gt;src/js/director/Director.js -->
<g id="edge2" class="edge">
<title>src/js/controller/Controller.js&#45;&gt;src/js/director/Director.js</title>
<path fill="none" stroke="#000000" stroke-width="2" stroke-opacity="0.200000" d="M265.54,-1284.43C279.16,-1259.21 316.19,-1190.64 333.65,-1158.31"/>
<polygon fill="#000000" fill-opacity="0.200000" stroke="#000000" stroke-width="2" stroke-opacity="0.200000" points="335.39,-1159.51 336.39,-1153.23 331.7,-1157.51 335.39,-1159.51"/>
</g>
<!-- src/js/overlay/Overlay.js -->
<g id="node4" class="node">
<title>src/js/overlay/Overlay.js</title>
<g id="a_node4"><a xlink:href="src/js/overlay/Overlay.js" xlink:title="Overlay.js">
<path fill="#ffffcc" stroke="black" d="M521.96,-1303.25C521.96,-1303.25 478.54,-1303.25 478.54,-1303.25 475.46,-1303.25 472.38,-1300.17 472.38,-1297.08 472.38,-1297.08 472.38,-1290.92 472.38,-1290.92 472.38,-1287.83 475.46,-1284.75 478.54,-1284.75 478.54,-1284.75 521.96,-1284.75 521.96,-1284.75 525.04,-1284.75 528.12,-1287.83 528.12,-1290.92 528.12,-1290.92 528.12,-1297.08 528.12,-1297.08 528.12,-1300.17 525.04,-1303.25 521.96,-1303.25"/>
<text text-anchor="start" x="480.38" y="-1290.7" font-family="Helvetica,sans-Serif" font-size="9.00">Overlay.js</text>
</a>
</g>
</g>
<!-- src/js/controller/Controller.js&#45;&gt;src/js/overlay/Overlay.js -->
<g id="edge3" class="edge">
<title>src/js/controller/Controller.js&#45;&gt;src/js/overlay/Overlay.js</title>
<path fill="none" stroke="#000000" stroke-width="2" stroke-opacity="0.200000" d="M292.1,-1294C336.48,-1294 416.86,-1294 463.37,-1294"/>
<polygon fill="#000000" fill-opacity="0.200000" stroke="#000000" stroke-width="2" stroke-opacity="0.200000" points="463.18,-1296.1 469.18,-1294 463.18,-1291.9 463.18,-1296.1"/>
</g>
<!-- src/js/view/View.js -->
<g id="node5" class="node">
<title>src/js/view/View.js</title>
<g id="a_node5"><a xlink:href="src/js/view/View.js" xlink:title="View.js">
<path fill="#ffffcc" stroke="black" d="M364.83,-1426.25C364.83,-1426.25 323.17,-1426.25 323.17,-1426.25 320.08,-1426.25 317,-1423.17 317,-1420.08 317,-1420.08 317,-1413.92 317,-1413.92 317,-1410.83 320.08,-1407.75 323.17,-1407.75 323.17,-1407.75 364.83,-1407.75 364.83,-1407.75 367.92,-1407.75 371,-1410.83 371,-1413.92 371,-1413.92 371,-1420.08 371,-1420.08 371,-1423.17 367.92,-1426.25 364.83,-1426.25"/>
<text text-anchor="start" x="329.75" y="-1413.7" font-family="Helvetica,sans-Serif" font-size="9.00">View.js</text>
</a>
</g>
</g>
<!-- src/js/controller/Controller.js&#45;&gt;src/js/view/View.js -->
<g id="edge4" class="edge">
<title>src/js/controller/Controller.js&#45;&gt;src/js/view/View.js</title>
<path fill="none" stroke="#000000" stroke-width="2" stroke-opacity="0.200000" d="M266.86,-1303.65C280.86,-1324.49 314.06,-1373.91 331.63,-1400.08"/>
<polygon fill="#000000" fill-opacity="0.200000" stroke="#000000" stroke-width="2" stroke-opacity="0.200000" points="329.77,-1401.07 334.86,-1404.88 333.26,-1398.73 329.77,-1401.07"/>
</g>
<!-- src/js/directable/directables/dotmatrix/DirectableDotMatrix.js -->
<g id="node8" class="node">
<title>src/js/directable/directables/dotmatrix/DirectableDotMatrix.js</title>
<g id="a_node8"><a xlink:href="src/js/directable/directables/dotmatrix/DirectableDotMatrix.js" xlink:title="DirectableDotMatrix.js">
<path fill="#ffffcc" stroke="black" d="M547.08,-411.25C547.08,-411.25 453.42,-411.25 453.42,-411.25 450.33,-411.25 447.25,-408.17 447.25,-405.08 447.25,-405.08 447.25,-398.92 447.25,-398.92 447.25,-395.83 450.33,-392.75 453.42,-392.75 453.42,-392.75 547.08,-392.75 547.08,-392.75 550.17,-392.75 553.25,-395.83 553.25,-398.92 553.25,-398.92 553.25,-405.08 553.25,-405.08 553.25,-408.17 550.17,-411.25 547.08,-411.25"/>
<text text-anchor="start" x="455.25" y="-398.7" font-family="Helvetica,sans-Serif" font-size="9.00">DirectableDotMatrix.js</text>
</a>
</g>
</g>
<!-- src/js/director/Director.js&#45;&gt;src/js/directable/directables/dotmatrix/DirectableDotMatrix.js -->
<g id="edge25" class="edge">
<title>src/js/director/Director.js&#45;&gt;src/js/directable/directables/dotmatrix/DirectableDotMatrix.js</title>
<path fill="none" stroke="#000000" stroke-width="2" stroke-opacity="0.200000" d="M345.56,-1131.42C348.14,-1089.48 359.95,-917.89 388.25,-780 417.24,-638.74 473.77,-473.76 492.81,-419.95"/>
<polygon fill="#000000" fill-opacity="0.200000" stroke="#000000" stroke-width="2" stroke-opacity="0.200000" points="494.78,-420.7 494.81,-414.34 490.82,-419.29 494.78,-420.7"/>
</g>
<!-- src/js/directable/directables/title/DirectableTitle.js -->
<g id="node47" class="node">
<title>src/js/directable/directables/title/DirectableTitle.js</title>
<g id="a_node47"><a xlink:href="src/js/directable/directables/title/DirectableTitle.js" xlink:title="DirectableTitle.js">
<path fill="#ffffcc" stroke="black" d="M536.21,-1150.25C536.21,-1150.25 464.29,-1150.25 464.29,-1150.25 461.21,-1150.25 458.12,-1147.17 458.12,-1144.08 458.12,-1144.08 458.12,-1137.92 458.12,-1137.92 458.12,-1134.83 461.21,-1131.75 464.29,-1131.75 464.29,-1131.75 536.21,-1131.75 536.21,-1131.75 539.29,-1131.75 542.38,-1134.83 542.38,-1137.92 542.38,-1137.92 542.38,-1144.08 542.38,-1144.08 542.38,-1147.17 539.29,-1150.25 536.21,-1150.25"/>
<text text-anchor="start" x="466.12" y="-1137.7" font-family="Helvetica,sans-Serif" font-size="9.00">DirectableTitle.js</text>
</a>
</g>
</g>
<!-- src/js/director/Director.js&#45;&gt;src/js/directable/directables/title/DirectableTitle.js -->
<g id="edge26" class="edge">
<title>src/js/director/Director.js&#45;&gt;src/js/directable/directables/title/DirectableTitle.js</title>
<path fill="none" stroke="#000000" stroke-width="2" stroke-opacity="0.200000" d="M372.58,-1141C393.74,-1141 423.53,-1141 448.91,-1141"/>
<polygon fill="#000000" fill-opacity="0.200000" stroke="#000000" stroke-width="2" stroke-opacity="0.200000" points="448.65,-1143.1 454.65,-1141 448.65,-1138.9 448.65,-1143.1"/>
</g>
<!-- src/js/overlay/displayFormat/OverlayDisplayFormat.js -->
<g id="node50" class="node">
<title>src/js/overlay/displayFormat/OverlayDisplayFormat.js</title>
<g id="a_node50"><a xlink:href="src/js/overlay/displayFormat/OverlayDisplayFormat.js" xlink:title="OverlayDisplayFormat.js">
<path fill="#ffffcc" stroke="black" d="M713.83,-1334.25C713.83,-1334.25 610.42,-1334.25 610.42,-1334.25 607.33,-1334.25 604.25,-1331.17 604.25,-1328.08 604.25,-1328.08 604.25,-1321.92 604.25,-1321.92 604.25,-1318.83 607.33,-1315.75 610.42,-1315.75 610.42,-1315.75 713.83,-1315.75 713.83,-1315.75 716.92,-1315.75 720,-1318.83 720,-1321.92 720,-1321.92 720,-1328.08 720,-1328.08 720,-1331.17 716.92,-1334.25 713.83,-1334.25"/>
<text text-anchor="start" x="612.25" y="-1321.7" font-family="Helvetica,sans-Serif" font-size="9.00">OverlayDisplayFormat.js</text>
</a>
</g>
</g>
<!-- src/js/overlay/Overlay.js&#45;&gt;src/js/overlay/displayFormat/OverlayDisplayFormat.js -->
<g id="edge28" class="edge">
<title>src/js/overlay/Overlay.js&#45;&gt;src/js/overlay/displayFormat/OverlayDisplayFormat.js</title>
<path fill="none" stroke="#000000" stroke-width="2" stroke-opacity="0.200000" d="M528.37,-1299.26C548.53,-1303.17 576.81,-1308.65 602.09,-1313.55"/>
<polygon fill="#000000" fill-opacity="0.200000" stroke="#000000" stroke-width="2" stroke-opacity="0.200000" points="601.62,-1315.6 607.91,-1314.68 602.42,-1311.48 601.62,-1315.6"/>
</g>
<!-- src/js/overlay/overlay/OverlayOverlay.js -->
<g id="node51" class="node">
<title>src/js/overlay/overlay/OverlayOverlay.js</title>
<g id="a_node51"><a xlink:href="src/js/overlay/overlay/OverlayOverlay.js" xlink:title="OverlayOverlay.js">
<path fill="#ffffcc" stroke="black" d="M699.58,-1273.25C699.58,-1273.25 624.67,-1273.25 624.67,-1273.25 621.58,-1273.25 618.5,-1270.17 618.5,-1267.08 618.5,-1267.08 618.5,-1260.92 618.5,-1260.92 618.5,-1257.83 621.58,-1254.75 624.67,-1254.75 624.67,-1254.75 699.58,-1254.75 699.58,-1254.75 702.67,-1254.75 705.75,-1257.83 705.75,-1260.92 705.75,-1260.92 705.75,-1267.08 705.75,-1267.08 705.75,-1270.17 702.67,-1273.25 699.58,-1273.25"/>
<text text-anchor="start" x="626.5" y="-1260.7" font-family="Helvetica,sans-Serif" font-size="9.00">OverlayOverlay.js</text>
</a>
</g>
</g>
<!-- src/js/overlay/Overlay.js&#45;&gt;src/js/overlay/overlay/OverlayOverlay.js -->
<g id="edge29" class="edge">
<title>src/js/overlay/Overlay.js&#45;&gt;src/js/overlay/overlay/OverlayOverlay.js</title>
<path fill="none" stroke="#000000" stroke-width="2" stroke-opacity="0.200000" d="M528.37,-1288.91C550.56,-1284.75 582.57,-1278.74 609.6,-1273.67"/>
<polygon fill="#000000" fill-opacity="0.200000" stroke="#000000" stroke-width="2" stroke-opacity="0.200000" points="609.7,-1275.79 615.21,-1272.62 608.92,-1271.66 609.7,-1275.79"/>
</g>
<!-- src/js/view/render/RenderController.js -->
<g id="node53" class="node">
<title>src/js/view/render/RenderController.js</title>
<g id="a_node53"><a xlink:href="src/js/view/render/RenderController.js" xlink:title="RenderController.js">
<path fill="#ffffcc" stroke="black" d="M541.83,-1430.25C541.83,-1430.25 458.67,-1430.25 458.67,-1430.25 455.58,-1430.25 452.5,-1427.17 452.5,-1424.08 452.5,-1424.08 452.5,-1417.92 452.5,-1417.92 452.5,-1414.83 455.58,-1411.75 458.67,-1411.75 458.67,-1411.75 541.83,-1411.75 541.83,-1411.75 544.92,-1411.75 548,-1414.83 548,-1417.92 548,-1417.92 548,-1424.08 548,-1424.08 548,-1427.17 544.92,-1430.25 541.83,-1430.25"/>
<text text-anchor="start" x="460.5" y="-1417.7" font-family="Helvetica,sans-Serif" font-size="9.00">RenderController.js</text>
</a>
</g>
</g>
<!-- src/js/view/View.js&#45;&gt;src/js/view/render/RenderController.js -->
<g id="edge33" class="edge">
<title>src/js/view/View.js&#45;&gt;src/js/view/render/RenderController.js</title>
<path fill="none" stroke="#000000" stroke-width="2" stroke-opacity="0.200000" d="M371.17,-1417.68C390.84,-1418.19 418.52,-1418.91 443.12,-1419.54"/>
<polygon fill="#000000" fill-opacity="0.200000" stroke="#000000" stroke-width="2" stroke-opacity="0.200000" points="442.94,-1421.64 449,-1419.7 443.05,-1417.44 442.94,-1421.64"/>
</g>
<!-- src/js/data/Data.json -->
<g id="node6" class="node">
<title>src/js/data/Data.json</title>
<g id="a_node6"><a xlink:href="src/js/data/Data.json" xlink:title="Data.json">
<path fill="#ffee44" stroke="black" d="M188.96,-661.25C188.96,-661.25 146.29,-661.25 146.29,-661.25 143.21,-661.25 140.12,-658.17 140.12,-655.08 140.12,-655.08 140.12,-648.92 140.12,-648.92 140.12,-645.83 143.21,-642.75 146.29,-642.75 146.29,-642.75 188.96,-642.75 188.96,-642.75 192.04,-642.75 195.12,-645.83 195.12,-648.92 195.12,-648.92 195.12,-655.08 195.12,-655.08 195.12,-658.17 192.04,-661.25 188.96,-661.25"/>
<text text-anchor="start" x="148.12" y="-648.7" font-family="Helvetica,sans-Serif" font-size="9.00">Data.json</text>
</a>
</g>
</g>
<!-- src/js/data/DataController.js -->
<g id="node7" class="node">
<title>src/js/data/DataController.js</title>
<g id="a_node7"><a xlink:href="src/js/data/DataController.js" xlink:title="DataController.js">
<path fill="#ffffcc" stroke="black" d="M110.08,-661.25C110.08,-661.25 38.17,-661.25 38.17,-661.25 35.08,-661.25 32,-658.17 32,-655.08 32,-655.08 32,-648.92 32,-648.92 32,-645.83 35.08,-642.75 38.17,-642.75 38.17,-642.75 110.08,-642.75 110.08,-642.75 113.17,-642.75 116.25,-645.83 116.25,-648.92 116.25,-648.92 116.25,-655.08 116.25,-655.08 116.25,-658.17 113.17,-661.25 110.08,-661.25"/>
<text text-anchor="start" x="40" y="-648.7" font-family="Helvetica,sans-Serif" font-size="9.00">DataController.js</text>
</a>
</g>
</g>
<!-- src/js/data/DataController.js&#45;&gt;src/js/data/Data.json -->
<g id="edge5" class="edge">
<title>src/js/data/DataController.js&#45;&gt;src/js/data/Data.json</title>
<path fill="none" stroke="#000000" stroke-width="2" stroke-opacity="0.200000" d="M116.59,-652C121.37,-652 126.22,-652 130.92,-652"/>
<polygon fill="#000000" fill-opacity="0.200000" stroke="#000000" stroke-width="2" stroke-opacity="0.200000" points="130.69,-654.1 136.69,-652 130.69,-649.9 130.69,-654.1"/>
</g>
<!-- src/js/directable/directables/dotmatrix/view/ViewManager.js -->
<g id="node9" class="node">
<title>src/js/directable/directables/dotmatrix/view/ViewManager.js</title>
<g id="a_node9"><a xlink:href="src/js/directable/directables/dotmatrix/view/ViewManager.js" xlink:title="ViewManager.js">
<path fill="#ffffcc" stroke="black" d="M696.58,-74.25C696.58,-74.25 627.67,-74.25 627.67,-74.25 624.58,-74.25 621.5,-71.17 621.5,-68.08 621.5,-68.08 621.5,-61.92 621.5,-61.92 621.5,-58.83 624.58,-55.75 627.67,-55.75 627.67,-55.75 696.58,-55.75 696.58,-55.75 699.67,-55.75 702.75,-58.83 702.75,-61.92 702.75,-61.92 702.75,-68.08 702.75,-68.08 702.75,-71.17 699.67,-74.25 696.58,-74.25"/>
<text text-anchor="start" x="629.5" y="-61.7" font-family="Helvetica,sans-Serif" font-size="9.00">ViewManager.js</text>
</a>
</g>
</g>
<!-- src/js/directable/directables/dotmatrix/DirectableDotMatrix.js&#45;&gt;src/js/directable/directables/dotmatrix/view/ViewManager.js -->
<g id="edge6" class="edge">
<title>src/js/directable/directables/dotmatrix/DirectableDotMatrix.js&#45;&gt;src/js/directable/directables/dotmatrix/view/ViewManager.js</title>
<path fill="none" stroke="#000000" stroke-width="2" stroke-opacity="0.200000" d="M500.92,-392.42C499.98,-349.24 502.11,-170.92 596.25,-81 600.92,-76.54 606.63,-73.26 612.7,-70.86"/>
<polygon fill="#000000" fill-opacity="0.200000" stroke="#000000" stroke-width="2" stroke-opacity="0.200000" points="613.22,-72.9 618.27,-69.05 611.92,-68.91 613.22,-72.9"/>
</g>
<!-- src/js/directable/directables/dotmatrix/dot/DotManager.js -->
<g id="node11" class="node">
<title>src/js/directable/directables/dotmatrix/dot/DotManager.js</title>
<g id="a_node11"><a xlink:href="src/js/directable/directables/dotmatrix/dot/DotManager.js" xlink:title="DotManager.js">
<path fill="#ffffcc" stroke="black" d="M830.46,-228.25C830.46,-228.25 767.54,-228.25 767.54,-228.25 764.46,-228.25 761.38,-225.17 761.38,-222.08 761.38,-222.08 761.38,-215.92 761.38,-215.92 761.38,-212.83 764.46,-209.75 767.54,-209.75 767.54,-209.75 830.46,-209.75 830.46,-209.75 833.54,-209.75 836.62,-212.83 836.62,-215.92 836.62,-215.92 836.62,-222.08 836.62,-222.08 836.62,-225.17 833.54,-228.25 830.46,-228.25"/>
<text text-anchor="start" x="769.38" y="-215.7" font-family="Helvetica,sans-Serif" font-size="9.00">DotManager.js</text>
</a>
</g>
</g>
<!-- src/js/directable/directables/dotmatrix/view/ViewManager.js&#45;&gt;src/js/directable/directables/dotmatrix/dot/DotManager.js -->
<g id="edge16" class="edge">
<title>src/js/directable/directables/dotmatrix/view/ViewManager.js&#45;&gt;src/js/directable/directables/dotmatrix/dot/DotManager.js</title>
<path fill="none" stroke="#000000" stroke-width="2" stroke-opacity="0.200000" d="M703.14,-66.86C712.59,-69.25 721.73,-73.54 728,-81 744.62,-100.78 720.38,-176.42 736,-197 740.42,-202.82 746.5,-207.1 753.14,-210.26"/>
<polygon fill="#000000" fill-opacity="0.200000" stroke="#000000" stroke-width="2" stroke-opacity="0.200000" points="751.96,-212.05 758.31,-212.34 753.52,-208.15 751.96,-212.05"/>
</g>
<!-- src/js/directable/directables/dotmatrix/grid/GridData.js -->
<g id="node12" class="node">
<title>src/js/directable/directables/dotmatrix/grid/GridData.js</title>
<g id="a_node12"><a xlink:href="src/js/directable/directables/dotmatrix/grid/GridData.js" xlink:title="GridData.js">
<path fill="#ffffcc" stroke="black" d="M959.33,-105.25C959.33,-105.25 909.92,-105.25 909.92,-105.25 906.83,-105.25 903.75,-102.17 903.75,-99.08 903.75,-99.08 903.75,-92.92 903.75,-92.92 903.75,-89.83 906.83,-86.75 909.92,-86.75 909.92,-86.75 959.33,-86.75 959.33,-86.75 962.42,-86.75 965.5,-89.83 965.5,-92.92 965.5,-92.92 965.5,-99.08 965.5,-99.08 965.5,-102.17 962.42,-105.25 959.33,-105.25"/>
<text text-anchor="start" x="911.75" y="-92.7" font-family="Helvetica,sans-Serif" font-size="9.00">GridData.js</text>
</a>
</g>
</g>
<!-- src/js/directable/directables/dotmatrix/view/ViewManager.js&#45;&gt;src/js/directable/directables/dotmatrix/grid/GridData.js -->
<g id="edge17" class="edge">
<title>src/js/directable/directables/dotmatrix/view/ViewManager.js&#45;&gt;src/js/directable/directables/dotmatrix/grid/GridData.js</title>
<path fill="none" stroke="#000000" stroke-width="2" stroke-opacity="0.200000" d="M702.58,-74.71C710.97,-76.78 719.78,-78.96 728,-81 731.56,-81.88 732.38,-82.43 736,-83 790.52,-91.54 854.36,-94.48 894.4,-95.49"/>
<polygon fill="#000000" fill-opacity="0.200000" stroke="#000000" stroke-width="2" stroke-opacity="0.200000" points="894.23,-97.58 900.28,-95.62 894.33,-93.38 894.23,-97.58"/>
</g>
<!-- src/js/directable/directables/dotmatrix/shape/ShapeManager.js -->
<g id="node16" class="node">
<title>src/js/directable/directables/dotmatrix/shape/ShapeManager.js</title>
<g id="a_node16"><a xlink:href="src/js/directable/directables/dotmatrix/shape/ShapeManager.js" xlink:title="ShapeManager.js">
<path fill="#ffffcc" stroke="black" d="M836.83,-721.25C836.83,-721.25 761.17,-721.25 761.17,-721.25 758.08,-721.25 755,-718.17 755,-715.08 755,-715.08 755,-708.92 755,-708.92 755,-705.83 758.08,-702.75 761.17,-702.75 761.17,-702.75 836.83,-702.75 836.83,-702.75 839.92,-702.75 843,-705.83 843,-708.92 843,-708.92 843,-715.08 843,-715.08 843,-718.17 839.92,-721.25 836.83,-721.25"/>
<text text-anchor="start" x="763" y="-708.7" font-family="Helvetica,sans-Serif" font-size="9.00">ShapeManager.js</text>
</a>
</g>
</g>
<!-- src/js/directable/directables/dotmatrix/view/ViewManager.js&#45;&gt;src/js/directable/directables/dotmatrix/shape/ShapeManager.js -->
<g id="edge18" class="edge">
<title>src/js/directable/directables/dotmatrix/view/ViewManager.js&#45;&gt;src/js/directable/directables/dotmatrix/shape/ShapeManager.js</title>
<path fill="none" stroke="#000000" stroke-width="2" stroke-opacity="0.200000" d="M703.09,-66.54C712.66,-68.92 721.87,-73.28 728,-81 749.31,-107.85 714.42,-671.36 736,-698 738.92,-701.61 742.55,-704.4 746.59,-706.56"/>
<polygon fill="#000000" fill-opacity="0.200000" stroke="#000000" stroke-width="2" stroke-opacity="0.200000" points="745.62,-708.43 751.96,-708.81 747.23,-704.56 745.62,-708.43"/>
</g>
<!-- src/js/directable/directables/dotmatrix/view/ViewTest.js -->
<g id="node37" class="node">
<title>src/js/directable/directables/dotmatrix/view/ViewTest.js</title>
<g id="a_node37"><a xlink:href="src/js/directable/directables/dotmatrix/view/ViewTest.js" xlink:title="ViewTest.js">
<path fill="#ffffcc" stroke="black" d="M823.71,-77.25C823.71,-77.25 774.29,-77.25 774.29,-77.25 771.21,-77.25 768.12,-74.17 768.12,-71.08 768.12,-71.08 768.12,-64.92 768.12,-64.92 768.12,-61.83 771.21,-58.75 774.29,-58.75 774.29,-58.75 823.71,-58.75 823.71,-58.75 826.79,-58.75 829.88,-61.83 829.88,-64.92 829.88,-64.92 829.88,-71.08 829.88,-71.08 829.88,-74.17 826.79,-77.25 823.71,-77.25"/>
<text text-anchor="start" x="776.12" y="-64.7" font-family="Helvetica,sans-Serif" font-size="9.00">ViewTest.js</text>
</a>
</g>
</g>
<!-- src/js/directable/directables/dotmatrix/view/ViewManager.js&#45;&gt;src/js/directable/directables/dotmatrix/view/ViewTest.js -->
<g id="edge19" class="edge">
<title>src/js/directable/directables/dotmatrix/view/ViewManager.js&#45;&gt;src/js/directable/directables/dotmatrix/view/ViewTest.js</title>
<path fill="none" stroke="#000000" stroke-width="2" stroke-opacity="0.200000" d="M703.23,-65.89C720.82,-66.28 741.39,-66.74 758.87,-67.13"/>
<polygon fill="#000000" fill-opacity="0.200000" stroke="#000000" stroke-width="2" stroke-opacity="0.200000" points="758.62,-69.22 764.67,-67.26 758.72,-65.03 758.62,-69.22"/>
</g>
<!-- src/js/directable/directables/dotmatrix/dot/Dot.js -->
<g id="node10" class="node">
<title>src/js/directable/directables/dotmatrix/dot/Dot.js</title>
<g id="a_node10"><a xlink:href="src/js/directable/directables/dotmatrix/dot/Dot.js" xlink:title="Dot.js">
<path fill="#ffffcc" stroke="black" d="M955.46,-228.25C955.46,-228.25 913.79,-228.25 913.79,-228.25 910.71,-228.25 907.62,-225.17 907.62,-222.08 907.62,-222.08 907.62,-215.92 907.62,-215.92 907.62,-212.83 910.71,-209.75 913.79,-209.75 913.79,-209.75 955.46,-209.75 955.46,-209.75 958.54,-209.75 961.62,-212.83 961.62,-215.92 961.62,-215.92 961.62,-222.08 961.62,-222.08 961.62,-225.17 958.54,-228.25 955.46,-228.25"/>
<text text-anchor="start" x="923" y="-215.7" font-family="Helvetica,sans-Serif" font-size="9.00">Dot.js</text>
</a>
</g>
</g>
<!-- src/js/directable/directables/dotmatrix/dot/DotManager.js&#45;&gt;src/js/directable/directables/dotmatrix/dot/Dot.js -->
<g id="edge8" class="edge">
<title>src/js/directable/directables/dotmatrix/dot/DotManager.js&#45;&gt;src/js/directable/directables/dotmatrix/dot/Dot.js</title>
<path fill="none" stroke="#000000" stroke-width="2" stroke-opacity="0.200000" d="M836.87,-219C856.12,-219 879.55,-219 898.54,-219"/>
<polygon fill="#000000" fill-opacity="0.200000" stroke="#000000" stroke-width="2" stroke-opacity="0.200000" points="898.44,-221.1 904.44,-219 898.44,-216.9 898.44,-221.1"/>
</g>
<!-- src/js/directable/directables/dotmatrix/dot/DotManager.js&#45;&gt;src/js/directable/directables/dotmatrix/grid/GridData.js -->
<g id="edge7" class="edge">
<title>src/js/directable/directables/dotmatrix/dot/DotManager.js&#45;&gt;src/js/directable/directables/dotmatrix/grid/GridData.js</title>
<path fill="none" stroke="#000000" stroke-width="2" stroke-opacity="0.200000" d="M836.85,-210.31C843.48,-207.15 849.65,-202.85 854,-197 865.31,-181.77 849.46,-126.23 862,-112 870.2,-102.69 882.53,-98.15 894.65,-96.1"/>
<polygon fill="#000000" fill-opacity="0.200000" stroke="#000000" stroke-width="2" stroke-opacity="0.200000" points="894.68,-98.21 900.38,-95.38 894.16,-94.04 894.68,-98.21"/>
</g>
<!-- src/js/directable/directables/dotmatrix/grid/GridRenderer.js -->
<g id="node13" class="node">
<title>src/js/directable/directables/dotmatrix/grid/GridRenderer.js</title>
<g id="a_node13"><a xlink:href="src/js/directable/directables/dotmatrix/grid/GridRenderer.js" xlink:title="GridRenderer.js">
<path fill="#ccffcc" stroke="black" d="M968.71,-136.25C968.71,-136.25 900.54,-136.25 900.54,-136.25 897.46,-136.25 894.38,-133.17 894.38,-130.08 894.38,-130.08 894.38,-123.92 894.38,-123.92 894.38,-120.83 897.46,-117.75 900.54,-117.75 900.54,-117.75 968.71,-117.75 968.71,-117.75 971.79,-117.75 974.88,-120.83 974.88,-123.92 974.88,-123.92 974.88,-130.08 974.88,-130.08 974.88,-133.17 971.79,-136.25 968.71,-136.25"/>
<text text-anchor="start" x="902.38" y="-123.7" font-family="Helvetica,sans-Serif" font-size="9.00">GridRenderer.js</text>
</a>
</g>
</g>
<!-- src/js/directable/directables/dotmatrix/grid/GridRendererComponent.js -->
<g id="node14" class="node">
<title>src/js/directable/directables/dotmatrix/grid/GridRendererComponent.js</title>
<g id="a_node14"><a xlink:href="src/js/directable/directables/dotmatrix/grid/GridRendererComponent.js" xlink:title="GridRendererComponent.js">
<path fill="#ccffcc" stroke="black" d="M993.08,-167.25C993.08,-167.25 876.17,-167.25 876.17,-167.25 873.08,-167.25 870,-164.17 870,-161.08 870,-161.08 870,-154.92 870,-154.92 870,-151.83 873.08,-148.75 876.17,-148.75 876.17,-148.75 993.08,-148.75 993.08,-148.75 996.17,-148.75 999.25,-151.83 999.25,-154.92 999.25,-154.92 999.25,-161.08 999.25,-161.08 999.25,-164.17 996.17,-167.25 993.08,-167.25"/>
<text text-anchor="start" x="878" y="-154.7" font-family="Helvetica,sans-Serif" font-size="9.00">GridRendererComponent.js</text>
</a>
</g>
</g>
<!-- src/js/directable/directables/dotmatrix/shape/Shape.js -->
<g id="node15" class="node">
<title>src/js/directable/directables/dotmatrix/shape/Shape.js</title>
<g id="a_node15"><a xlink:href="src/js/directable/directables/dotmatrix/shape/Shape.js" xlink:title="Shape.js">
<path fill="#ffffcc" stroke="black" d="M1079.08,-676.25C1079.08,-676.25 1037.42,-676.25 1037.42,-676.25 1034.33,-676.25 1031.25,-673.17 1031.25,-670.08 1031.25,-670.08 1031.25,-663.92 1031.25,-663.92 1031.25,-660.83 1034.33,-657.75 1037.42,-657.75 1037.42,-657.75 1079.08,-657.75 1079.08,-657.75 1082.17,-657.75 1085.25,-660.83 1085.25,-663.92 1085.25,-663.92 1085.25,-670.08 1085.25,-670.08 1085.25,-673.17 1082.17,-676.25 1079.08,-676.25"/>
<text text-anchor="start" x="1040.25" y="-663.7" font-family="Helvetica,sans-Serif" font-size="9.00">Shape.js</text>
</a>
</g>
</g>
<!-- src/js/directable/directables/dotmatrix/shape/fill/FillStrategyType.js -->
<g id="node17" class="node">
<title>src/js/directable/directables/dotmatrix/shape/fill/FillStrategyType.js</title>
<g id="a_node17"><a xlink:href="src/js/directable/directables/dotmatrix/shape/fill/FillStrategyType.js" xlink:title="FillStrategyType.js">
<path fill="#ffffcc" stroke="black" d="M1191.08,-623.25C1191.08,-623.25 1112.42,-623.25 1112.42,-623.25 1109.33,-623.25 1106.25,-620.17 1106.25,-617.08 1106.25,-617.08 1106.25,-610.92 1106.25,-610.92 1106.25,-607.83 1109.33,-604.75 1112.42,-604.75 1112.42,-604.75 1191.08,-604.75 1191.08,-604.75 1194.17,-604.75 1197.25,-607.83 1197.25,-610.92 1197.25,-610.92 1197.25,-617.08 1197.25,-617.08 1197.25,-620.17 1194.17,-623.25 1191.08,-623.25"/>
<text text-anchor="start" x="1114.25" y="-610.7" font-family="Helvetica,sans-Serif" font-size="9.00">FillStrategyType.js</text>
</a>
</g>
</g>
<!-- src/js/directable/directables/dotmatrix/shape/ShapeManager.js&#45;&gt;src/js/directable/directables/dotmatrix/shape/fill/FillStrategyType.js -->
<g id="edge9" class="edge">
<title>src/js/directable/directables/dotmatrix/shape/ShapeManager.js&#45;&gt;src/js/directable/directables/dotmatrix/shape/fill/FillStrategyType.js</title>
<path fill="none" stroke="#000000" stroke-width="2" stroke-opacity="0.200000" d="M843.47,-719.01C904.44,-726.47 1016.47,-731.27 1093.25,-682 1113.64,-668.92 1130.61,-646.38 1140.71,-630.85"/>
<polygon fill="#000000" fill-opacity="0.200000" stroke="#000000" stroke-width="2" stroke-opacity="0.200000" points="1142.33,-632.23 1143.74,-626.03 1138.77,-630 1142.33,-632.23"/>
</g>
<!-- src/js/directable/directables/dotmatrix/shape/fill/FillType.js -->
<g id="node18" class="node">
<title>src/js/directable/directables/dotmatrix/shape/fill/FillType.js</title>
<g id="a_node18"><a xlink:href="src/js/directable/directables/dotmatrix/shape/fill/FillType.js" xlink:title="FillType.js">
<path fill="#ffffcc" stroke="black" d="M1080.71,-561.25C1080.71,-561.25 1035.79,-561.25 1035.79,-561.25 1032.71,-561.25 1029.62,-558.17 1029.62,-555.08 1029.62,-555.08 1029.62,-548.92 1029.62,-548.92 1029.62,-545.83 1032.71,-542.75 1035.79,-542.75 1035.79,-542.75 1080.71,-542.75 1080.71,-542.75 1083.79,-542.75 1086.88,-545.83 1086.88,-548.92 1086.88,-548.92 1086.88,-555.08 1086.88,-555.08 1086.88,-558.17 1083.79,-561.25 1080.71,-561.25"/>
<text text-anchor="start" x="1037.62" y="-548.7" font-family="Helvetica,sans-Serif" font-size="9.00">FillType.js</text>
</a>
</g>
</g>
<!-- src/js/directable/directables/dotmatrix/shape/ShapeManager.js&#45;&gt;src/js/directable/directables/dotmatrix/shape/fill/FillType.js -->
<g id="edge10" class="edge">
<title>src/js/directable/directables/dotmatrix/shape/ShapeManager.js&#45;&gt;src/js/directable/directables/dotmatrix/shape/fill/FillType.js</title>
<path fill="none" stroke="#000000" stroke-width="2" stroke-opacity="0.200000" d="M843.29,-706.16C847.35,-704.12 851.04,-701.46 854,-698 865.9,-684.08 850.55,-630.29 862,-616 900.4,-568.08 975.44,-555.67 1020.48,-552.68"/>
<polygon fill="#000000" fill-opacity="0.200000" stroke="#000000" stroke-width="2" stroke-opacity="0.200000" points="1020.45,-554.78 1026.32,-552.35 1020.22,-550.59 1020.45,-554.78"/>
</g>
<!-- src/js/directable/directables/dotmatrix/shape/line/ShapeLineHorizontal.js -->
<g id="node19" class="node">
<title>src/js/directable/directables/dotmatrix/shape/line/ShapeLineHorizontal.js</title>
<g id="a_node19"><a xlink:href="src/js/directable/directables/dotmatrix/shape/line/ShapeLineHorizontal.js" xlink:title="ShapeLineHorizontal.js">
<path fill="#ffffcc" stroke="black" d="M984.46,-645.25C984.46,-645.25 884.79,-645.25 884.79,-645.25 881.71,-645.25 878.62,-642.17 878.62,-639.08 878.62,-639.08 878.62,-632.92 878.62,-632.92 878.62,-629.83 881.71,-626.75 884.79,-626.75 884.79,-626.75 984.46,-626.75 984.46,-626.75 987.54,-626.75 990.62,-629.83 990.62,-632.92 990.62,-632.92 990.62,-639.08 990.62,-639.08 990.62,-642.17 987.54,-645.25 984.46,-645.25"/>
<text text-anchor="start" x="886.62" y="-632.7" font-family="Helvetica,sans-Serif" font-size="9.00">ShapeLineHorizontal.js</text>
</a>
</g>
</g>
<!-- src/js/directable/directables/dotmatrix/shape/ShapeManager.js&#45;&gt;src/js/directable/directables/dotmatrix/shape/line/ShapeLineHorizontal.js -->
<g id="edge11" class="edge">
<title>src/js/directable/directables/dotmatrix/shape/ShapeManager.js&#45;&gt;src/js/directable/directables/dotmatrix/shape/line/ShapeLineHorizontal.js</title>
<path fill="none" stroke="#000000" stroke-width="2" stroke-opacity="0.200000" d="M843.3,-705.81C847.3,-703.83 850.98,-701.28 854,-698 868.06,-682.74 847.68,-667.02 862,-652 864.5,-649.38 867.33,-647.14 870.38,-645.24"/>
<polygon fill="#000000" fill-opacity="0.200000" stroke="#000000" stroke-width="2" stroke-opacity="0.200000" points="871.29,-647.13 875.68,-642.53 869.38,-643.39 871.29,-647.13"/>
</g>
<!-- src/js/directable/directables/dotmatrix/shape/line/ShapeLineHorizontal.js&#45;&gt;src/js/directable/directables/dotmatrix/shape/Shape.js -->
<g id="edge15" class="edge">
<title>src/js/directable/directables/dotmatrix/shape/line/ShapeLineHorizontal.js&#45;&gt;src/js/directable/directables/dotmatrix/shape/Shape.js</title>
<path fill="none" stroke="#000000" stroke-width="2" stroke-opacity="0.200000" d="M981.21,-645.67C989.88,-647.65 998.87,-649.81 1007.25,-652 1012.19,-653.29 1017.38,-654.74 1022.47,-656.22"/>
<polygon fill="#000000" fill-opacity="0.200000" stroke="#000000" stroke-width="2" stroke-opacity="0.200000" points="1021.63,-658.16 1027.98,-657.85 1022.82,-654.13 1021.63,-658.16"/>
</g>
<!-- src/js/directable/directables/dotmatrix/shape/line/ShapeLineHorizontal.js&#45;&gt;src/js/directable/directables/dotmatrix/shape/fill/FillStrategyType.js -->
<g id="edge13" class="edge">
<title>src/js/directable/directables/dotmatrix/shape/line/ShapeLineHorizontal.js&#45;&gt;src/js/directable/directables/dotmatrix/shape/fill/FillStrategyType.js</title>
<path fill="none" stroke="#000000" stroke-width="2" stroke-opacity="0.200000" d="M990.98,-636.38C1021.33,-635.88 1059.53,-634.09 1093.25,-629 1098.67,-628.18 1104.32,-627.06 1109.87,-625.79"/>
<polygon fill="#000000" fill-opacity="0.200000" stroke="#000000" stroke-width="2" stroke-opacity="0.200000" points="1110.19,-627.87 1115.52,-624.41 1109.19,-623.79 1110.19,-627.87"/>
</g>
<!-- src/js/directable/directables/dotmatrix/shape/line/ShapeLineHorizontal.js&#45;&gt;src/js/directable/directables/dotmatrix/shape/fill/FillType.js -->
<g id="edge14" class="edge">
<title>src/js/directable/directables/dotmatrix/shape/line/ShapeLineHorizontal.js&#45;&gt;src/js/directable/directables/dotmatrix/shape/fill/FillType.js</title>
<path fill="none" stroke="#000000" stroke-width="2" stroke-opacity="0.200000" d="M990.89,-633.4C997.02,-631.07 1002.69,-627.73 1007.25,-623 1024.41,-605.23 999.8,-587.28 1015.25,-568 1017.06,-565.75 1019.22,-563.81 1021.59,-562.15"/>
<polygon fill="#000000" fill-opacity="0.200000" stroke="#000000" stroke-width="2" stroke-opacity="0.200000" points="1022.34,-564.13 1026.58,-559.39 1020.31,-560.46 1022.34,-564.13"/>
</g>
<!-- src/js/directable/directables/dotmatrix/shape/fill/Fill.js -->
<g id="node20" class="node">
<title>src/js/directable/directables/dotmatrix/shape/fill/Fill.js</title>
<g id="a_node20"><a xlink:href="src/js/directable/directables/dotmatrix/shape/fill/Fill.js" xlink:title="Fill.js">
<path fill="#ccffcc" stroke="black" d="M1079.08,-592.25C1079.08,-592.25 1037.42,-592.25 1037.42,-592.25 1034.33,-592.25 1031.25,-589.17 1031.25,-586.08 1031.25,-586.08 1031.25,-579.92 1031.25,-579.92 1031.25,-576.83 1034.33,-573.75 1037.42,-573.75 1037.42,-573.75 1079.08,-573.75 1079.08,-573.75 1082.17,-573.75 1085.25,-576.83 1085.25,-579.92 1085.25,-579.92 1085.25,-586.08 1085.25,-586.08 1085.25,-589.17 1082.17,-592.25 1079.08,-592.25"/>
<text text-anchor="start" x="1047.75" y="-579.7" font-family="Helvetica,sans-Serif" font-size="9.00">Fill.js</text>
</a>
</g>
</g>
<!-- src/js/directable/directables/dotmatrix/shape/fill/FillStrategy.js -->
<g id="node21" class="node">
<title>src/js/directable/directables/dotmatrix/shape/fill/FillStrategy.js</title>
<g id="a_node21"><a xlink:href="src/js/directable/directables/dotmatrix/shape/fill/FillStrategy.js" xlink:title="FillStrategy.js">
<path fill="#ffffcc" stroke="black" d="M1087.08,-623.25C1087.08,-623.25 1029.42,-623.25 1029.42,-623.25 1026.33,-623.25 1023.25,-620.17 1023.25,-617.08 1023.25,-617.08 1023.25,-610.92 1023.25,-610.92 1023.25,-607.83 1026.33,-604.75 1029.42,-604.75 1029.42,-604.75 1087.08,-604.75 1087.08,-604.75 1090.17,-604.75 1093.25,-607.83 1093.25,-610.92 1093.25,-610.92 1093.25,-617.08 1093.25,-617.08 1093.25,-620.17 1090.17,-623.25 1087.08,-623.25"/>
<text text-anchor="start" x="1031.25" y="-610.7" font-family="Helvetica,sans-Serif" font-size="9.00">FillStrategy.js</text>
</a>
</g>
</g>
<!-- src/js/directable/directables/dotmatrix/shape/fill/FillStrategy.js&#45;&gt;src/js/directable/directables/dotmatrix/shape/fill/FillStrategyType.js -->
<g id="edge12" class="edge">
<title>src/js/directable/directables/dotmatrix/shape/fill/FillStrategy.js&#45;&gt;src/js/directable/directables/dotmatrix/shape/fill/FillStrategyType.js</title>
<path fill="none" stroke="#000000" stroke-width="2" stroke-opacity="0.200000" d="M1093.58,-614C1094.72,-614 1095.87,-614 1097.03,-614"/>
<polygon fill="#000000" fill-opacity="0.200000" stroke="#000000" stroke-width="2" stroke-opacity="0.200000" points="1096.97,-616.1 1102.97,-614 1096.97,-611.9 1096.97,-616.1"/>
</g>
<!-- src/js/directable/directables/dotmatrix/shape/glyph/ShapeGlyph_A.js -->
<g id="node22" class="node">
<title>src/js/directable/directables/dotmatrix/shape/glyph/ShapeGlyph_A.js</title>
<g id="a_node22"><a xlink:href="src/js/directable/directables/dotmatrix/shape/glyph/ShapeGlyph_A.js" xlink:title="ShapeGlyph_A.js">
<path fill="#ccffcc" stroke="black" d="M836.46,-297.25C836.46,-297.25 761.54,-297.25 761.54,-297.25 758.46,-297.25 755.38,-294.17 755.38,-291.08 755.38,-291.08 755.38,-284.92 755.38,-284.92 755.38,-281.83 758.46,-278.75 761.54,-278.75 761.54,-278.75 836.46,-278.75 836.46,-278.75 839.54,-278.75 842.62,-281.83 842.62,-284.92 842.62,-284.92 842.62,-291.08 842.62,-291.08 842.62,-294.17 839.54,-297.25 836.46,-297.25"/>
<text text-anchor="start" x="763.38" y="-284.7" font-family="Helvetica,sans-Serif" font-size="9.00">ShapeGlyph_A.js</text>
</a>
</g>
</g>
<!-- src/js/directable/directables/dotmatrix/shape/glyph/ShapeGlyph_B.js -->
<g id="node23" class="node">
<title>src/js/directable/directables/dotmatrix/shape/glyph/ShapeGlyph_B.js</title>
<g id="a_node23"><a xlink:href="src/js/directable/directables/dotmatrix/shape/glyph/ShapeGlyph_B.js" xlink:title="ShapeGlyph_B.js">
<path fill="#ccffcc" stroke="black" d="M836.46,-328.25C836.46,-328.25 761.54,-328.25 761.54,-328.25 758.46,-328.25 755.38,-325.17 755.38,-322.08 755.38,-322.08 755.38,-315.92 755.38,-315.92 755.38,-312.83 758.46,-309.75 761.54,-309.75 761.54,-309.75 836.46,-309.75 836.46,-309.75 839.54,-309.75 842.62,-312.83 842.62,-315.92 842.62,-315.92 842.62,-322.08 842.62,-322.08 842.62,-325.17 839.54,-328.25 836.46,-328.25"/>
<text text-anchor="start" x="763.38" y="-315.7" font-family="Helvetica,sans-Serif" font-size="9.00">ShapeGlyph_B.js</text>
</a>
</g>
</g>
<!-- src/js/directable/directables/dotmatrix/shape/glyph/ShapeGlyph_C.js -->
<g id="node24" class="node">
<title>src/js/directable/directables/dotmatrix/shape/glyph/ShapeGlyph_C.js</title>
<g id="a_node24"><a xlink:href="src/js/directable/directables/dotmatrix/shape/glyph/ShapeGlyph_C.js" xlink:title="ShapeGlyph_C.js">
<path fill="#ccffcc" stroke="black" d="M836.83,-359.25C836.83,-359.25 761.17,-359.25 761.17,-359.25 758.08,-359.25 755,-356.17 755,-353.08 755,-353.08 755,-346.92 755,-346.92 755,-343.83 758.08,-340.75 761.17,-340.75 761.17,-340.75 836.83,-340.75 836.83,-340.75 839.92,-340.75 843,-343.83 843,-346.92 843,-346.92 843,-353.08 843,-353.08 843,-356.17 839.92,-359.25 836.83,-359.25"/>
<text text-anchor="start" x="763" y="-346.7" font-family="Helvetica,sans-Serif" font-size="9.00">ShapeGlyph_C.js</text>
</a>
</g>
</g>
<!-- src/js/directable/directables/dotmatrix/shape/glyph/ShapeGlyph_D.js -->
<g id="node25" class="node">
<title>src/js/directable/directables/dotmatrix/shape/glyph/ShapeGlyph_D.js</title>
<g id="a_node25"><a xlink:href="src/js/directable/directables/dotmatrix/shape/glyph/ShapeGlyph_D.js" xlink:title="ShapeGlyph_D.js">
<path fill="#ccffcc" stroke="black" d="M836.83,-390.25C836.83,-390.25 761.17,-390.25 761.17,-390.25 758.08,-390.25 755,-387.17 755,-384.08 755,-384.08 755,-377.92 755,-377.92 755,-374.83 758.08,-371.75 761.17,-371.75 761.17,-371.75 836.83,-371.75 836.83,-371.75 839.92,-371.75 843,-374.83 843,-377.92 843,-377.92 843,-384.08 843,-384.08 843,-387.17 839.92,-390.25 836.83,-390.25"/>
<text text-anchor="start" x="763" y="-377.7" font-family="Helvetica,sans-Serif" font-size="9.00">ShapeGlyph_D.js</text>
</a>
</g>
</g>
<!-- src/js/directable/directables/dotmatrix/shape/glyph/ShapeGlyph_E.js -->
<g id="node26" class="node">
<title>src/js/directable/directables/dotmatrix/shape/glyph/ShapeGlyph_E.js</title>
<g id="a_node26"><a xlink:href="src/js/directable/directables/dotmatrix/shape/glyph/ShapeGlyph_E.js" xlink:title="ShapeGlyph_E.js">
<path fill="#ccffcc" stroke="black" d="M836.46,-421.25C836.46,-421.25 761.54,-421.25 761.54,-421.25 758.46,-421.25 755.38,-418.17 755.38,-415.08 755.38,-415.08 755.38,-408.92 755.38,-408.92 755.38,-405.83 758.46,-402.75 761.54,-402.75 761.54,-402.75 836.46,-402.75 836.46,-402.75 839.54,-402.75 842.62,-405.83 842.62,-408.92 842.62,-408.92 842.62,-415.08 842.62,-415.08 842.62,-418.17 839.54,-421.25 836.46,-421.25"/>
<text text-anchor="start" x="763.38" y="-408.7" font-family="Helvetica,sans-Serif" font-size="9.00">ShapeGlyph_E.js</text>
</a>
</g>
</g>
<!-- src/js/directable/directables/dotmatrix/shape/glyph/ShapeGlyph_F.js -->
<g id="node27" class="node">
<title>src/js/directable/directables/dotmatrix/shape/glyph/ShapeGlyph_F.js</title>
<g id="a_node27"><a xlink:href="src/js/directable/directables/dotmatrix/shape/glyph/ShapeGlyph_F.js" xlink:title="ShapeGlyph_F.js">
<path fill="#ccffcc" stroke="black" d="M835.71,-452.25C835.71,-452.25 762.29,-452.25 762.29,-452.25 759.21,-452.25 756.12,-449.17 756.12,-446.08 756.12,-446.08 756.12,-439.92 756.12,-439.92 756.12,-436.83 759.21,-433.75 762.29,-433.75 762.29,-433.75 835.71,-433.75 835.71,-433.75 838.79,-433.75 841.88,-436.83 841.88,-439.92 841.88,-439.92 841.88,-446.08 841.88,-446.08 841.88,-449.17 838.79,-452.25 835.71,-452.25"/>
<text text-anchor="start" x="764.12" y="-439.7" font-family="Helvetica,sans-Serif" font-size="9.00">ShapeGlyph_F.js</text>
</a>
</g>
</g>
<!-- src/js/directable/directables/dotmatrix/shape/glyph/ShapeGlyph_G.js -->
<g id="node28" class="node">
<title>src/js/directable/directables/dotmatrix/shape/glyph/ShapeGlyph_G.js</title>
<g id="a_node28"><a xlink:href="src/js/directable/directables/dotmatrix/shape/glyph/ShapeGlyph_G.js" xlink:title="ShapeGlyph_G.js">
<path fill="#ccffcc" stroke="black" d="M836.83,-483.25C836.83,-483.25 761.17,-483.25 761.17,-483.25 758.08,-483.25 755,-480.17 755,-477.08 755,-477.08 755,-470.92 755,-470.92 755,-467.83 758.08,-464.75 761.17,-464.75 761.17,-464.75 836.83,-464.75 836.83,-464.75 839.92,-464.75 843,-467.83 843,-470.92 843,-470.92 843,-477.08 843,-477.08 843,-480.17 839.92,-483.25 836.83,-483.25"/>
<text text-anchor="start" x="763" y="-470.7" font-family="Helvetica,sans-Serif" font-size="9.00">ShapeGlyph_G.js</text>
</a>
</g>
</g>
<!-- src/js/directable/directables/dotmatrix/shape/glyph/ShapeGlyph_H.js -->
<g id="node29" class="node">
<title>src/js/directable/directables/dotmatrix/shape/glyph/ShapeGlyph_H.js</title>
<g id="a_node29"><a xlink:href="src/js/directable/directables/dotmatrix/shape/glyph/ShapeGlyph_H.js" xlink:title="ShapeGlyph_H.js">
<path fill="#ccffcc" stroke="black" d="M836.83,-514.25C836.83,-514.25 761.17,-514.25 761.17,-514.25 758.08,-514.25 755,-511.17 755,-508.08 755,-508.08 755,-501.92 755,-501.92 755,-498.83 758.08,-495.75 761.17,-495.75 761.17,-495.75 836.83,-495.75 836.83,-495.75 839.92,-495.75 843,-498.83 843,-501.92 843,-501.92 843,-508.08 843,-508.08 843,-511.17 839.92,-514.25 836.83,-514.25"/>
<text text-anchor="start" x="763" y="-501.7" font-family="Helvetica,sans-Serif" font-size="9.00">ShapeGlyph_H.js</text>
</a>
</g>
</g>
<!-- src/js/directable/directables/dotmatrix/shape/glyph/ShapeGlyph_I.js -->
<g id="node30" class="node">
<title>src/js/directable/directables/dotmatrix/shape/glyph/ShapeGlyph_I.js</title>
<g id="a_node30"><a xlink:href="src/js/directable/directables/dotmatrix/shape/glyph/ShapeGlyph_I.js" xlink:title="ShapeGlyph_I.js">
<path fill="#ccffcc" stroke="black" d="M834.58,-545.25C834.58,-545.25 763.42,-545.25 763.42,-545.25 760.33,-545.25 757.25,-542.17 757.25,-539.08 757.25,-539.08 757.25,-532.92 757.25,-532.92 757.25,-529.83 760.33,-526.75 763.42,-526.75 763.42,-526.75 834.58,-526.75 834.58,-526.75 837.67,-526.75 840.75,-529.83 840.75,-532.92 840.75,-532.92 840.75,-539.08 840.75,-539.08 840.75,-542.17 837.67,-545.25 834.58,-545.25"/>
<text text-anchor="start" x="765.25" y="-532.7" font-family="Helvetica,sans-Serif" font-size="9.00">ShapeGlyph_I.js</text>
</a>
</g>
</g>
<!-- src/js/directable/directables/dotmatrix/shape/glyph/ShapeGlyph_J.js -->
<g id="node31" class="node">
<title>src/js/directable/directables/dotmatrix/shape/glyph/ShapeGlyph_J.js</title>
<g id="a_node31"><a xlink:href="src/js/directable/directables/dotmatrix/shape/glyph/ShapeGlyph_J.js" xlink:title="ShapeGlyph_J.js">
<path fill="#ccffcc" stroke="black" d="M835.71,-576.25C835.71,-576.25 762.29,-576.25 762.29,-576.25 759.21,-576.25 756.12,-573.17 756.12,-570.08 756.12,-570.08 756.12,-563.92 756.12,-563.92 756.12,-560.83 759.21,-557.75 762.29,-557.75 762.29,-557.75 835.71,-557.75 835.71,-557.75 838.79,-557.75 841.88,-560.83 841.88,-563.92 841.88,-563.92 841.88,-570.08 841.88,-570.08 841.88,-573.17 838.79,-576.25 835.71,-576.25"/>
<text text-anchor="start" x="764.12" y="-563.7" font-family="Helvetica,sans-Serif" font-size="9.00">ShapeGlyph_J.js</text>
</a>
</g>
</g>
<!-- src/js/directable/directables/dotmatrix/shape/glyph/ShapeGlyph_K.js -->
<g id="node32" class="node">
<title>src/js/directable/directables/dotmatrix/shape/glyph/ShapeGlyph_K.js</title>
<g id="a_node32"><a xlink:href="src/js/directable/directables/dotmatrix/shape/glyph/ShapeGlyph_K.js" xlink:title="ShapeGlyph_K.js">
<path fill="#ccffcc" stroke="black" d="M836.46,-607.25C836.46,-607.25 761.54,-607.25 761.54,-607.25 758.46,-607.25 755.38,-604.17 755.38,-601.08 755.38,-601.08 755.38,-594.92 755.38,-594.92 755.38,-591.83 758.46,-588.75 761.54,-588.75 761.54,-588.75 836.46,-588.75 836.46,-588.75 839.54,-588.75 842.62,-591.83 842.62,-594.92 842.62,-594.92 842.62,-601.08 842.62,-601.08 842.62,-604.17 839.54,-607.25 836.46,-607.25"/>
<text text-anchor="start" x="763.38" y="-594.7" font-family="Helvetica,sans-Serif" font-size="9.00">ShapeGlyph_K.js</text>
</a>
</g>
</g>
<!-- src/js/directable/directables/dotmatrix/shape/line/ShapeLineVertical.js -->
<g id="node33" class="node">
<title>src/js/directable/directables/dotmatrix/shape/line/ShapeLineVertical.js</title>
<g id="a_node33"><a xlink:href="src/js/directable/directables/dotmatrix/shape/line/ShapeLineVertical.js" xlink:title="ShapeLineVertical.js">
<path fill="#ccffcc" stroke="black" d="M978.46,-676.25C978.46,-676.25 890.79,-676.25 890.79,-676.25 887.71,-676.25 884.62,-673.17 884.62,-670.08 884.62,-670.08 884.62,-663.92 884.62,-663.92 884.62,-660.83 887.71,-657.75 890.79,-657.75 890.79,-657.75 978.46,-657.75 978.46,-657.75 981.54,-657.75 984.62,-660.83 984.62,-663.92 984.62,-663.92 984.62,-670.08 984.62,-670.08 984.62,-673.17 981.54,-676.25 978.46,-676.25"/>
<text text-anchor="start" x="892.62" y="-663.7" font-family="Helvetica,sans-Serif" font-size="9.00">ShapeLineVertical.js</text>
</a>
</g>
</g>
<!-- src/js/directable/directables/dotmatrix/shape/primative/ShapeRectangle.js -->
<g id="node34" class="node">
<title>src/js/directable/directables/dotmatrix/shape/primative/ShapeRectangle.js</title>
<g id="a_node34"><a xlink:href="src/js/directable/directables/dotmatrix/shape/primative/ShapeRectangle.js" xlink:title="ShapeRectangle.js">
<path fill="#ccffcc" stroke="black" d="M839.83,-668.25C839.83,-668.25 758.17,-668.25 758.17,-668.25 755.08,-668.25 752,-665.17 752,-662.08 752,-662.08 752,-655.92 752,-655.92 752,-652.83 755.08,-649.75 758.17,-649.75 758.17,-649.75 839.83,-649.75 839.83,-649.75 842.92,-649.75 846,-652.83 846,-655.92 846,-655.92 846,-662.08 846,-662.08 846,-665.17 842.92,-668.25 839.83,-668.25"/>
<text text-anchor="start" x="760" y="-655.7" font-family="Helvetica,sans-Serif" font-size="9.00">ShapeRectangle.js</text>
</a>
</g>
</g>
<!-- src/js/directable/directables/dotmatrix/view/View.js -->
<g id="node35" class="node">
<title>src/js/directable/directables/dotmatrix/view/View.js</title>
<g id="a_node35"><a xlink:href="src/js/directable/directables/dotmatrix/view/View.js" xlink:title="View.js">
<path fill="#ffffcc" stroke="black" d="M682.96,-105.25C682.96,-105.25 641.29,-105.25 641.29,-105.25 638.21,-105.25 635.12,-102.17 635.12,-99.08 635.12,-99.08 635.12,-92.92 635.12,-92.92 635.12,-89.83 638.21,-86.75 641.29,-86.75 641.29,-86.75 682.96,-86.75 682.96,-86.75 686.04,-86.75 689.12,-89.83 689.12,-92.92 689.12,-92.92 689.12,-99.08 689.12,-99.08 689.12,-102.17 686.04,-105.25 682.96,-105.25"/>
<text text-anchor="start" x="647.88" y="-92.7" font-family="Helvetica,sans-Serif" font-size="9.00">View.js</text>
</a>
</g>
</g>
<!-- src/js/directable/directables/dotmatrix/view/ViewFloor.js -->
<g id="node36" class="node">
<title>src/js/directable/directables/dotmatrix/view/ViewFloor.js</title>
<g id="a_node36"><a xlink:href="src/js/directable/directables/dotmatrix/view/ViewFloor.js" xlink:title="ViewFloor.js">
<path fill="#ccffcc" stroke="black" d="M688.71,-136.25C688.71,-136.25 635.54,-136.25 635.54,-136.25 632.46,-136.25 629.38,-133.17 629.38,-130.08 629.38,-130.08 629.38,-123.92 629.38,-123.92 629.38,-120.83 632.46,-117.75 635.54,-117.75 635.54,-117.75 688.71,-117.75 688.71,-117.75 691.79,-117.75 694.88,-120.83 694.88,-123.92 694.88,-123.92 694.88,-130.08 694.88,-130.08 694.88,-133.17 691.79,-136.25 688.71,-136.25"/>
<text text-anchor="start" x="637.38" y="-123.7" font-family="Helvetica,sans-Serif" font-size="9.00">ViewFloor.js</text>
</a>
</g>
</g>
<!-- src/js/directable/directables/dotmatrix/view/ViewTest.js&#45;&gt;src/js/directable/directables/dotmatrix/grid/GridData.js -->
<g id="edge20" class="edge">
<title>src/js/directable/directables/dotmatrix/view/ViewTest.js&#45;&gt;src/js/directable/directables/dotmatrix/grid/GridData.js</title>
<path fill="none" stroke="#000000" stroke-width="2" stroke-opacity="0.200000" d="M830.32,-74.35C849.37,-78.35 874.13,-83.53 894.63,-87.83"/>
<polygon fill="#000000" fill-opacity="0.200000" stroke="#000000" stroke-width="2" stroke-opacity="0.200000" points="894.16,-89.88 900.46,-89.05 895.02,-85.76 894.16,-89.88"/>
</g>
<!-- src/js/directable/directables/dotmatrix/view/ViewTest.js&#45;&gt;src/js/directable/directables/dotmatrix/shape/fill/FillStrategyType.js -->
<g id="edge21" class="edge">
<title>src/js/directable/directables/dotmatrix/view/ViewTest.js&#45;&gt;src/js/directable/directables/dotmatrix/shape/fill/FillStrategyType.js</title>
<path fill="none" stroke="#000000" stroke-width="2" stroke-opacity="0.200000" d="M825.11,-58.25C867.5,-43.6 953.86,-21.73 1007.25,-63 1095.55,-131.25 1139.72,-507.76 1148.92,-595.65"/>
<polygon fill="#000000" fill-opacity="0.200000" stroke="#000000" stroke-width="2" stroke-opacity="0.200000" points="1146.81,-595.73 1149.51,-601.48 1150.99,-595.3 1146.81,-595.73"/>
</g>
<!-- src/js/directable/directables/dotmatrix/view/ViewTest.js&#45;&gt;src/js/directable/directables/dotmatrix/shape/fill/FillType.js -->
<g id="edge22" class="edge">
<title>src/js/directable/directables/dotmatrix/view/ViewTest.js&#45;&gt;src/js/directable/directables/dotmatrix/shape/fill/FillType.js</title>
<path fill="none" stroke="#000000" stroke-width="2" stroke-opacity="0.200000" d="M830.02,-67.04C884.36,-65.59 994.63,-64.19 1007.25,-76 1041.28,-107.85 1054.07,-449.54 1056.71,-533.46"/>
<polygon fill="#000000" fill-opacity="0.200000" stroke="#000000" stroke-width="2" stroke-opacity="0.200000" points="1054.61,-533.42 1056.89,-539.36 1058.8,-533.3 1054.61,-533.42"/>
</g>
<!-- src/js/directable/directables/dotmatrix/view/ViewTextTest.js -->
<g id="node38" class="node">
<title>src/js/directable/directables/dotmatrix/view/ViewTextTest.js</title>
<g id="a_node38"><a xlink:href="src/js/directable/directables/dotmatrix/view/ViewTextTest.js" xlink:title="ViewTextTest.js">
<path fill="#ccffcc" stroke="black" d="M695.08,-167.25C695.08,-167.25 629.17,-167.25 629.17,-167.25 626.08,-167.25 623,-164.17 623,-161.08 623,-161.08 623,-154.92 623,-154.92 623,-151.83 626.08,-148.75 629.17,-148.75 629.17,-148.75 695.08,-148.75 695.08,-148.75 698.17,-148.75 701.25,-151.83 701.25,-154.92 701.25,-154.92 701.25,-161.08 701.25,-161.08 701.25,-164.17 698.17,-167.25 695.08,-167.25"/>
<text text-anchor="start" x="631" y="-154.7" font-family="Helvetica,sans-Serif" font-size="9.00">ViewTextTest.js</text>
</a>
</g>
</g>
<!-- src/js/directable/directables/frame/DirectableFrame.js -->
<g id="node39" class="node">
<title>src/js/directable/directables/frame/DirectableFrame.js</title>
<g id="a_node39"><a xlink:href="src/js/directable/directables/frame/DirectableFrame.js" xlink:title="DirectableFrame.js">
<path fill="#ffffcc" stroke="black" d="M540.71,-809.25C540.71,-809.25 459.79,-809.25 459.79,-809.25 456.71,-809.25 453.62,-806.17 453.62,-803.08 453.62,-803.08 453.62,-796.92 453.62,-796.92 453.62,-793.83 456.71,-790.75 459.79,-790.75 459.79,-790.75 540.71,-790.75 540.71,-790.75 543.79,-790.75 546.88,-793.83 546.88,-796.92 546.88,-796.92 546.88,-803.08 546.88,-803.08 546.88,-806.17 543.79,-809.25 540.71,-809.25"/>
<text text-anchor="start" x="461.62" y="-796.7" font-family="Helvetica,sans-Serif" font-size="9.00">DirectableFrame.js</text>
</a>
</g>
</g>
<!-- src/js/directable/directables/rhythm/DirectableRhythm.js -->
<g id="node40" class="node">
<title>src/js/directable/directables/rhythm/DirectableRhythm.js</title>
<g id="a_node40"><a xlink:href="src/js/directable/directables/rhythm/DirectableRhythm.js" xlink:title="DirectableRhythm.js">
<path fill="#ffffcc" stroke="black" d="M705.21,-1001.25C705.21,-1001.25 619.04,-1001.25 619.04,-1001.25 615.96,-1001.25 612.88,-998.17 612.88,-995.08 612.88,-995.08 612.88,-988.92 612.88,-988.92 612.88,-985.83 615.96,-982.75 619.04,-982.75 619.04,-982.75 705.21,-982.75 705.21,-982.75 708.29,-982.75 711.38,-985.83 711.38,-988.92 711.38,-988.92 711.38,-995.08 711.38,-995.08 711.38,-998.17 708.29,-1001.25 705.21,-1001.25"/>
<text text-anchor="start" x="620.88" y="-988.7" font-family="Helvetica,sans-Serif" font-size="9.00">DirectableRhythm.js</text>
</a>
</g>
</g>
<!-- src/js/directable/directables/rhythm/asdr/ASDRData.js -->
<g id="node41" class="node">
<title>src/js/directable/directables/rhythm/asdr/ASDRData.js</title>
<g id="a_node41"><a xlink:href="src/js/directable/directables/rhythm/asdr/ASDRData.js" xlink:title="ASDRData.js">
<path fill="#ccffcc" stroke="black" d="M529.08,-878.25C529.08,-878.25 471.42,-878.25 471.42,-878.25 468.33,-878.25 465.25,-875.17 465.25,-872.08 465.25,-872.08 465.25,-865.92 465.25,-865.92 465.25,-862.83 468.33,-859.75 471.42,-859.75 471.42,-859.75 529.08,-859.75 529.08,-859.75 532.17,-859.75 535.25,-862.83 535.25,-865.92 535.25,-865.92 535.25,-872.08 535.25,-872.08 535.25,-875.17 532.17,-878.25 529.08,-878.25"/>
<text text-anchor="start" x="473.25" y="-865.7" font-family="Helvetica,sans-Serif" font-size="9.00">ASDRData.js</text>
</a>
</g>
</g>
<!-- src/js/directable/directables/rhythm/asdr/ASDREnvelope.js -->
<g id="node42" class="node">
<title>src/js/directable/directables/rhythm/asdr/ASDREnvelope.js</title>
<g id="a_node42"><a xlink:href="src/js/directable/directables/rhythm/asdr/ASDREnvelope.js" xlink:title="ASDREnvelope.js">
<path fill="#ffffcc" stroke="black" d="M538.83,-909.25C538.83,-909.25 461.67,-909.25 461.67,-909.25 458.58,-909.25 455.5,-906.17 455.5,-903.08 455.5,-903.08 455.5,-896.92 455.5,-896.92 455.5,-893.83 458.58,-890.75 461.67,-890.75 461.67,-890.75 538.83,-890.75 538.83,-890.75 541.92,-890.75 545,-893.83 545,-896.92 545,-896.92 545,-903.08 545,-903.08 545,-906.17 541.92,-909.25 538.83,-909.25"/>
<text text-anchor="start" x="463.5" y="-896.7" font-family="Helvetica,sans-Serif" font-size="9.00">ASDREnvelope.js</text>
</a>
</g>
</g>
<!-- src/js/directable/directables/rhythm/asdr/DirectableRhythmASDRManager.js -->
<g id="node43" class="node">
<title>src/js/directable/directables/rhythm/asdr/DirectableRhythmASDRManager.js</title>
<g id="a_node43"><a xlink:href="src/js/directable/directables/rhythm/asdr/DirectableRhythmASDRManager.js" xlink:title="DirectableRhythmASDRManager.js">
<path fill="#ffffcc" stroke="black" d="M574.08,-940.25C574.08,-940.25 426.42,-940.25 426.42,-940.25 423.33,-940.25 420.25,-937.17 420.25,-934.08 420.25,-934.08 420.25,-927.92 420.25,-927.92 420.25,-924.83 423.33,-921.75 426.42,-921.75 426.42,-921.75 574.08,-921.75 574.08,-921.75 577.17,-921.75 580.25,-924.83 580.25,-927.92 580.25,-927.92 580.25,-934.08 580.25,-934.08 580.25,-937.17 577.17,-940.25 574.08,-940.25"/>
<text text-anchor="start" x="428.25" y="-927.7" font-family="Helvetica,sans-Serif" font-size="9.00">DirectableRhythmASDRManager.js</text>
</a>
</g>
</g>
<!-- src/js/directable/directables/rhythm/bpm/DirectableRhythmBPM.js -->
<g id="node44" class="node">
<title>src/js/directable/directables/rhythm/bpm/DirectableRhythmBPM.js</title>
<g id="a_node44"><a xlink:href="src/js/directable/directables/rhythm/bpm/DirectableRhythmBPM.js" xlink:title="DirectableRhythmBPM.js">
<path fill="#ffffcc" stroke="black" d="M553.08,-1001.25C553.08,-1001.25 447.42,-1001.25 447.42,-1001.25 444.33,-1001.25 441.25,-998.17 441.25,-995.08 441.25,-995.08 441.25,-988.92 441.25,-988.92 441.25,-985.83 444.33,-982.75 447.42,-982.75 447.42,-982.75 553.08,-982.75 553.08,-982.75 556.17,-982.75 559.25,-985.83 559.25,-988.92 559.25,-988.92 559.25,-995.08 559.25,-995.08 559.25,-998.17 556.17,-1001.25 553.08,-1001.25"/>
<text text-anchor="start" x="449.25" y="-988.7" font-family="Helvetica,sans-Serif" font-size="9.00">DirectableRhythmBPM.js</text>
</a>
</g>
</g>
<!-- src/js/directable/directables/rhythm/bpm/DirectableRhythmBPM.js&#45;&gt;src/js/directable/directables/rhythm/DirectableRhythm.js -->
<g id="edge23" class="edge">
<title>src/js/directable/directables/rhythm/bpm/DirectableRhythmBPM.js&#45;&gt;src/js/directable/directables/rhythm/DirectableRhythm.js</title>
<path fill="none" stroke="#000000" stroke-width="2" stroke-opacity="0.200000" d="M559.42,-992C573.84,-992 589.28,-992 603.66,-992"/>
<polygon fill="#000000" fill-opacity="0.200000" stroke="#000000" stroke-width="2" stroke-opacity="0.200000" points="603.44,-994.1 609.44,-992 603.44,-989.9 603.44,-994.1"/>
</g>
<!-- src/js/directable/directables/rhythm2/ViewRhythm.js -->
<g id="node45" class="node">
<title>src/js/directable/directables/rhythm2/ViewRhythm.js</title>
<g id="a_node45"><a xlink:href="src/js/directable/directables/rhythm2/ViewRhythm.js" xlink:title="ViewRhythm.js">
<path fill="#ffffcc" stroke="black" d="M532.46,-1089.25C532.46,-1089.25 468.04,-1089.25 468.04,-1089.25 464.96,-1089.25 461.88,-1086.17 461.88,-1083.08 461.88,-1083.08 461.88,-1076.92 461.88,-1076.92 461.88,-1073.83 464.96,-1070.75 468.04,-1070.75 468.04,-1070.75 532.46,-1070.75 532.46,-1070.75 535.54,-1070.75 538.62,-1073.83 538.62,-1076.92 538.62,-1076.92 538.62,-1083.08 538.62,-1083.08 538.62,-1086.17 535.54,-1089.25 532.46,-1089.25"/>
<text text-anchor="start" x="469.88" y="-1076.7" font-family="Helvetica,sans-Serif" font-size="9.00">ViewRhythm.js</text>
</a>
</g>
</g>
<!-- src/js/directable/directables/rhythm2/ViewRhythmTrack.js -->
<g id="node46" class="node">
<title>src/js/directable/directables/rhythm2/ViewRhythmTrack.js</title>
<g id="a_node46"><a xlink:href="src/js/directable/directables/rhythm2/ViewRhythmTrack.js" xlink:title="ViewRhythmTrack.js">
<path fill="#ffffcc" stroke="black" d="M705.58,-1089.25C705.58,-1089.25 618.67,-1089.25 618.67,-1089.25 615.58,-1089.25 612.5,-1086.17 612.5,-1083.08 612.5,-1083.08 612.5,-1076.92 612.5,-1076.92 612.5,-1073.83 615.58,-1070.75 618.67,-1070.75 618.67,-1070.75 705.58,-1070.75 705.58,-1070.75 708.67,-1070.75 711.75,-1073.83 711.75,-1076.92 711.75,-1076.92 711.75,-1083.08 711.75,-1083.08 711.75,-1086.17 708.67,-1089.25 705.58,-1089.25"/>
<text text-anchor="start" x="620.5" y="-1076.7" font-family="Helvetica,sans-Serif" font-size="9.00">ViewRhythmTrack.js</text>
</a>
</g>
</g>
<!-- src/js/directable/directables/rhythm2/ViewRhythm.js&#45;&gt;src/js/directable/directables/rhythm2/ViewRhythmTrack.js -->
<g id="edge24" class="edge">
<title>src/js/directable/directables/rhythm2/ViewRhythm.js&#45;&gt;src/js/directable/directables/rhythm2/ViewRhythmTrack.js</title>
<path fill="none" stroke="#000000" stroke-width="2" stroke-opacity="0.200000" d="M538.73,-1080C557.96,-1080 581.8,-1080 603.32,-1080"/>
<polygon fill="#000000" fill-opacity="0.200000" stroke="#000000" stroke-width="2" stroke-opacity="0.200000" points="603.03,-1082.1 609.03,-1080 603.03,-1077.9 603.03,-1082.1"/>
</g>
<!-- src/js/enum/DisplayFormats.js -->
<g id="node48" class="node">
<title>src/js/enum/DisplayFormats.js</title>
<g id="a_node48"><a xlink:href="src/js/enum/DisplayFormats.js" xlink:title="DisplayFormats.js">
<path fill="#ffffcc" stroke="black" d="M837.21,-1426.25C837.21,-1426.25 760.79,-1426.25 760.79,-1426.25 757.71,-1426.25 754.62,-1423.17 754.62,-1420.08 754.62,-1420.08 754.62,-1413.92 754.62,-1413.92 754.62,-1410.83 757.71,-1407.75 760.79,-1407.75 760.79,-1407.75 837.21,-1407.75 837.21,-1407.75 840.29,-1407.75 843.38,-1410.83 843.38,-1413.92 843.38,-1413.92 843.38,-1420.08 843.38,-1420.08 843.38,-1423.17 840.29,-1426.25 837.21,-1426.25"/>
<text text-anchor="start" x="762.62" y="-1413.7" font-family="Helvetica,sans-Serif" font-size="9.00">DisplayFormats.js</text>
</a>
</g>
</g>
<!-- src/js/index.js -->
<g id="node49" class="node">
<title>src/js/index.js</title>
<g id="a_node49"><a xlink:href="src/js/index.js" xlink:title="index.js">
<path fill="#ffffcc" stroke="black" d="M94.96,-1303.25C94.96,-1303.25 53.29,-1303.25 53.29,-1303.25 50.21,-1303.25 47.12,-1300.17 47.12,-1297.08 47.12,-1297.08 47.12,-1290.92 47.12,-1290.92 47.12,-1287.83 50.21,-1284.75 53.29,-1284.75 53.29,-1284.75 94.96,-1284.75 94.96,-1284.75 98.04,-1284.75 101.12,-1287.83 101.12,-1290.92 101.12,-1290.92 101.12,-1297.08 101.12,-1297.08 101.12,-1300.17 98.04,-1303.25 94.96,-1303.25"/>
<text text-anchor="start" x="58.38" y="-1290.7" font-family="Helvetica,sans-Serif" font-size="9.00">index.js</text>
</a>
</g>
</g>
<!-- src/js/index.js&#45;&gt;src/js/application/Application.js -->
<g id="edge27" class="edge">
<title>src/js/index.js&#45;&gt;src/js/application/Application.js</title>
<path fill="none" stroke="#000000" stroke-width="2" stroke-opacity="0.200000" d="M101.59,-1294C108.42,-1294 115.95,-1294 123.39,-1294"/>
<polygon fill="#000000" fill-opacity="0.200000" stroke="#000000" stroke-width="2" stroke-opacity="0.200000" points="123.01,-1296.1 129.01,-1294 123.01,-1291.9 123.01,-1296.1"/>
</g>
<!-- src/js/overlay/displayFormat/OverlayDisplayFormat.js&#45;&gt;src/js/enum/DisplayFormats.js -->
<g id="edge30" class="edge">
<title>src/js/overlay/displayFormat/OverlayDisplayFormat.js&#45;&gt;src/js/enum/DisplayFormats.js</title>
<path fill="none" stroke="#000000" stroke-width="2" stroke-opacity="0.200000" d="M671.73,-1334.64C684.58,-1348.58 710.07,-1374.51 736,-1391 743.68,-1395.89 752.44,-1400.21 760.9,-1403.86"/>
<polygon fill="#000000" fill-opacity="0.200000" stroke="#000000" stroke-width="2" stroke-opacity="0.200000" points="760.07,-1405.79 766.42,-1406.13 761.67,-1401.9 760.07,-1405.79"/>
</g>
<!-- src/js/overlay/OverlayUtil.js -->
<g id="node52" class="node">
<title>src/js/overlay/OverlayUtil.js</title>
<g id="a_node52"><a xlink:href="src/js/overlay/OverlayUtil.js" xlink:title="OverlayUtil.js">
<path fill="#ffffcc" stroke="black" d="M827.83,-1303.25C827.83,-1303.25 770.17,-1303.25 770.17,-1303.25 767.08,-1303.25 764,-1300.17 764,-1297.08 764,-1297.08 764,-1290.92 764,-1290.92 764,-1287.83 767.08,-1284.75 770.17,-1284.75 770.17,-1284.75 827.83,-1284.75 827.83,-1284.75 830.92,-1284.75 834,-1287.83 834,-1290.92 834,-1290.92 834,-1297.08 834,-1297.08 834,-1300.17 830.92,-1303.25 827.83,-1303.25"/>
<text text-anchor="start" x="772" y="-1290.7" font-family="Helvetica,sans-Serif" font-size="9.00">OverlayUtil.js</text>
</a>
</g>
</g>
<!-- src/js/overlay/displayFormat/OverlayDisplayFormat.js&#45;&gt;src/js/overlay/OverlayUtil.js -->
<g id="edge31" class="edge">
<title>src/js/overlay/displayFormat/OverlayDisplayFormat.js&#45;&gt;src/js/overlay/OverlayUtil.js</title>
<path fill="none" stroke="#000000" stroke-width="2" stroke-opacity="0.200000" d="M705.43,-1315.28C721.2,-1311.65 739.12,-1307.53 754.96,-1303.89"/>
<polygon fill="#000000" fill-opacity="0.200000" stroke="#000000" stroke-width="2" stroke-opacity="0.200000" points="755.19,-1305.99 760.57,-1302.6 754.25,-1301.9 755.19,-1305.99"/>
</g>
<!-- src/js/overlay/overlay/OverlayOverlay.js&#45;&gt;src/js/overlay/OverlayUtil.js -->
<g id="edge32" class="edge">
<title>src/js/overlay/overlay/OverlayOverlay.js&#45;&gt;src/js/overlay/OverlayUtil.js</title>
<path fill="none" stroke="#000000" stroke-width="2" stroke-opacity="0.200000" d="M706.17,-1273.57C721.91,-1277.08 739.7,-1281.03 755.41,-1284.53"/>
<polygon fill="#000000" fill-opacity="0.200000" stroke="#000000" stroke-width="2" stroke-opacity="0.200000" points="754.62,-1286.5 760.93,-1285.76 755.53,-1282.4 754.62,-1286.5"/>
</g>
<!-- src/js/view/render/RenderResizer.js -->
<g id="node54" class="node">
<title>src/js/view/render/RenderResizer.js</title>
<g id="a_node54"><a xlink:href="src/js/view/render/RenderResizer.js" xlink:title="RenderResizer.js">
<path fill="#ffffcc" stroke="black" d="M699.21,-1430.25C699.21,-1430.25 625.04,-1430.25 625.04,-1430.25 621.96,-1430.25 618.88,-1427.17 618.88,-1424.08 618.88,-1424.08 618.88,-1417.92 618.88,-1417.92 618.88,-1414.83 621.96,-1411.75 625.04,-1411.75 625.04,-1411.75 699.21,-1411.75 699.21,-1411.75 702.29,-1411.75 705.38,-1414.83 705.38,-1417.92 705.38,-1417.92 705.38,-1424.08 705.38,-1424.08 705.38,-1427.17 702.29,-1430.25 699.21,-1430.25"/>
<text text-anchor="start" x="626.88" y="-1417.7" font-family="Helvetica,sans-Serif" font-size="9.00">RenderResizer.js</text>
</a>
</g>
</g>
<!-- src/js/view/render/RenderController.js&#45;&gt;src/js/view/render/RenderResizer.js -->
<g id="edge34" class="edge">
<title>src/js/view/render/RenderController.js&#45;&gt;src/js/view/render/RenderResizer.js</title>
<path fill="none" stroke="#000000" stroke-width="2" stroke-opacity="0.200000" d="M548.35,-1421C567.6,-1421 589.93,-1421 609.61,-1421"/>
<polygon fill="#000000" fill-opacity="0.200000" stroke="#000000" stroke-width="2" stroke-opacity="0.200000" points="609.42,-1423.1 615.42,-1421 609.42,-1418.9 609.42,-1423.1"/>
</g>
<!-- src/js/view/render/RenderSurface.js -->
<g id="node55" class="node">
<title>src/js/view/render/RenderSurface.js</title>
<g id="a_node55"><a xlink:href="src/js/view/render/RenderSurface.js" xlink:title="RenderSurface.js">
<path fill="#ffffcc" stroke="black" d="M699.58,-1461.25C699.58,-1461.25 624.67,-1461.25 624.67,-1461.25 621.58,-1461.25 618.5,-1458.17 618.5,-1455.08 618.5,-1455.08 618.5,-1448.92 618.5,-1448.92 618.5,-1445.83 621.58,-1442.75 624.67,-1442.75 624.67,-1442.75 699.58,-1442.75 699.58,-1442.75 702.67,-1442.75 705.75,-1445.83 705.75,-1448.92 705.75,-1448.92 705.75,-1455.08 705.75,-1455.08 705.75,-1458.17 702.67,-1461.25 699.58,-1461.25"/>
<text text-anchor="start" x="626.5" y="-1448.7" font-family="Helvetica,sans-Serif" font-size="9.00">RenderSurface.js</text>
</a>
</g>
</g>
<!-- src/js/view/render/RenderController.js&#45;&gt;src/js/view/render/RenderSurface.js -->
<g id="edge35" class="edge">
<title>src/js/view/render/RenderController.js&#45;&gt;src/js/view/render/RenderSurface.js</title>
<path fill="none" stroke="#000000" stroke-width="2" stroke-opacity="0.200000" d="M548.35,-1430.13C567.52,-1433.85 589.74,-1438.16 609.36,-1441.96"/>
<polygon fill="#000000" fill-opacity="0.200000" stroke="#000000" stroke-width="2" stroke-opacity="0.200000" points="608.91,-1444.02 615.2,-1443.1 609.71,-1439.89 608.91,-1444.02"/>
</g>
<!-- src/js/view/render/RenderResizer.js&#45;&gt;src/js/enum/DisplayFormats.js -->
<g id="edge36" class="edge">
<title>src/js/view/render/RenderResizer.js&#45;&gt;src/js/enum/DisplayFormats.js</title>
<path fill="none" stroke="#000000" stroke-width="2" stroke-opacity="0.200000" d="M705.8,-1419.73C718.34,-1419.36 732.21,-1418.95 745.3,-1418.56"/>
<polygon fill="#000000" fill-opacity="0.200000" stroke="#000000" stroke-width="2" stroke-opacity="0.200000" points="745.25,-1420.67 751.18,-1418.39 745.12,-1416.47 745.25,-1420.67"/>
</g>
</g>
</svg>
