<?xml version="1.0" encoding="UTF-8" standalone="no"?>
<!DOCTYPE svg PUBLIC "-//W3C//DTD SVG 1.1//EN"
 "http://www.w3.org/Graphics/SVG/1.1/DTD/svg11.dtd">
<!-- Generated by graphviz version 12.2.1 (20241206.2353)
 -->
<!-- Title: dependency&#45;cruiser output Pages: 1 -->
<svg width="243pt" height="234pt"
 viewBox="0.00 0.00 243.00 234.00" xmlns="http://www.w3.org/2000/svg" xmlns:xlink="http://www.w3.org/1999/xlink">
<g id="graph0" class="graph" transform="scale(1 1) rotate(0) translate(4 230)">
<title>dependency&#45;cruiser output</title>
<polygon fill="white" stroke="none" points="-4,4 -4,-230 239,-230 239,4 -4,4"/>
<g id="clust1" class="cluster">
<title>cluster_src</title>
<path fill="#ffffff" stroke="black" stroke-width="2" d="M20,-8C20,-8 215,-8 215,-8 221,-8 227,-14 227,-20 227,-20 227,-206 227,-206 227,-212 221,-218 215,-218 215,-218 20,-218 20,-218 14,-218 8,-212 8,-206 8,-206 8,-20 8,-20 8,-14 14,-8 20,-8"/>
<text text-anchor="middle" x="117.5" y="-205.45" font-family="Helvetica,sans-Serif" font-weight="bold" font-size="9.00">src</text>
</g>
<g id="clust2" class="cluster">
<title>cluster_src/js</title>
<path fill="#ffffff" stroke="black" stroke-width="2" d="M28,-16C28,-16 207,-16 207,-16 213,-16 219,-22 219,-28 219,-28 219,-179 219,-179 219,-185 213,-191 207,-191 207,-191 28,-191 28,-191 22,-191 16,-185 16,-179 16,-179 16,-28 16,-28 16,-22 22,-16 28,-16"/>
<text text-anchor="middle" x="117.5" y="-178.45" font-family="Helvetica,sans-Serif" font-weight="bold" font-size="9.00">js</text>
</g>
<g id="clust3" class="cluster">
<title>cluster_src/js/application</title>
<path fill="#ffffff" stroke="black" stroke-width="2" d="M136.25,-111C136.25,-111 199,-111 199,-111 205,-111 211,-117 211,-123 211,-123 211,-152 211,-152 211,-158 205,-164 199,-164 199,-164 136.25,-164 136.25,-164 130.25,-164 124.25,-158 124.25,-152 124.25,-152 124.25,-123 124.25,-123 124.25,-117 130.25,-111 136.25,-111"/>
<text text-anchor="middle" x="167.62" y="-151.45" font-family="Helvetica,sans-Serif" font-weight="bold" font-size="9.00">application</text>
</g>
<g id="clust4" class="cluster">
<title>cluster_src/js/data</title>
<path fill="#ffffff" stroke="black" stroke-width="2" d="M36,-24C36,-24 191.12,-24 191.12,-24 197.12,-24 203.12,-30 203.12,-36 203.12,-36 203.12,-65 203.12,-65 203.12,-71 197.12,-77 191.12,-77 191.12,-77 36,-77 36,-77 30,-77 24,-71 24,-65 24,-65 24,-36 24,-36 24,-30 30,-24 36,-24"/>
<text text-anchor="middle" x="113.56" y="-64.45" font-family="Helvetica,sans-Serif" font-weight="bold" font-size="9.00">data</text>
</g>
<g id="clust5" class="cluster">
<title>cluster_src/js/view</title>
<path fill="#ffffff" stroke="black" stroke-width="2" d="M51.12,-85C51.12,-85 97.12,-85 97.12,-85 103.12,-85 109.12,-91 109.12,-97 109.12,-97 109.12,-126 109.12,-126 109.12,-132 103.12,-138 97.12,-138 97.12,-138 51.13,-138 51.13,-138 45.12,-138 39.12,-132 39.12,-126 39.12,-126 39.12,-97 39.12,-97 39.12,-91 45.12,-85 51.12,-85"/>
<text text-anchor="middle" x="74.12" y="-125.45" font-family="Helvetica,sans-Serif" font-weight="bold" font-size="9.00">view</text>
</g>
<!-- src/js/application/Application.js -->
<g id="node1" class="node">
<title>src/js/application/Application.js</title>
<g id="a_node1"><a xlink:href="src/js/application/Application.js" xlink:title="Application.js">
<path fill="#ffffcc" stroke="black" d="M196.83,-137.25C196.83,-137.25 138.42,-137.25 138.42,-137.25 135.33,-137.25 132.25,-134.17 132.25,-131.08 132.25,-131.08 132.25,-124.92 132.25,-124.92 132.25,-121.83 135.33,-118.75 138.42,-118.75 138.42,-118.75 196.83,-118.75 196.83,-118.75 199.92,-118.75 203,-121.83 203,-124.92 203,-124.92 203,-131.08 203,-131.08 203,-134.17 199.92,-137.25 196.83,-137.25"/>
<text text-anchor="start" x="140.25" y="-124.7" font-family="Helvetica,sans-Serif" font-size="9.00">Application.js</text>
</a>
</g>
</g>
<!-- src/js/data/Data.json -->
<g id="node2" class="node">
<title>src/js/data/Data.json</title>
<g id="a_node2"><a xlink:href="src/js/data/Data.json" xlink:title="Data.json">
<path fill="#ffee44" stroke="black" d="M188.96,-50.25C188.96,-50.25 146.29,-50.25 146.29,-50.25 143.21,-50.25 140.12,-47.17 140.12,-44.08 140.12,-44.08 140.12,-37.92 140.12,-37.92 140.12,-34.83 143.21,-31.75 146.29,-31.75 146.29,-31.75 188.96,-31.75 188.96,-31.75 192.04,-31.75 195.12,-34.83 195.12,-37.92 195.12,-37.92 195.12,-44.08 195.12,-44.08 195.12,-47.17 192.04,-50.25 188.96,-50.25"/>
<text text-anchor="start" x="148.12" y="-37.7" font-family="Helvetica,sans-Serif" font-size="9.00">Data.json</text>
</a>
</g>
</g>
<!-- src/js/data/DataController.js -->
<g id="node3" class="node">
<title>src/js/data/DataController.js</title>
<g id="a_node3"><a xlink:href="src/js/data/DataController.js" xlink:title="DataController.js">
<path fill="#ffffcc" stroke="black" d="M110.08,-50.25C110.08,-50.25 38.17,-50.25 38.17,-50.25 35.08,-50.25 32,-47.17 32,-44.08 32,-44.08 32,-37.92 32,-37.92 32,-34.83 35.08,-31.75 38.17,-31.75 38.17,-31.75 110.08,-31.75 110.08,-31.75 113.17,-31.75 116.25,-34.83 116.25,-37.92 116.25,-37.92 116.25,-44.08 116.25,-44.08 116.25,-47.17 113.17,-50.25 110.08,-50.25"/>
<text text-anchor="start" x="40" y="-37.7" font-family="Helvetica,sans-Serif" font-size="9.00">DataController.js</text>
</a>
</g>
</g>
<!-- src/js/data/DataController.js&#45;&gt;src/js/data/Data.json -->
<g id="edge1" class="edge">
<title>src/js/data/DataController.js&#45;&gt;src/js/data/Data.json</title>
<path fill="none" stroke="#000000" stroke-width="2" stroke-opacity="0.200000" d="M116.59,-41C121.37,-41 126.22,-41 130.92,-41"/>
<polygon fill="#000000" fill-opacity="0.200000" stroke="#000000" stroke-width="2" stroke-opacity="0.200000" points="130.69,-43.1 136.69,-41 130.69,-38.9 130.69,-43.1"/>
</g>
<!-- src/js/index.js -->
<g id="node4" class="node">
<title>src/js/index.js</title>
<g id="a_node4"><a xlink:href="src/js/index.js" xlink:title="index.js">
<path fill="#ffffcc" stroke="black" d="M94.96,-164.25C94.96,-164.25 53.29,-164.25 53.29,-164.25 50.21,-164.25 47.12,-161.17 47.12,-158.08 47.12,-158.08 47.12,-151.92 47.12,-151.92 47.12,-148.83 50.21,-145.75 53.29,-145.75 53.29,-145.75 94.96,-145.75 94.96,-145.75 98.04,-145.75 101.12,-148.83 101.12,-151.92 101.12,-151.92 101.12,-158.08 101.12,-158.08 101.12,-161.17 98.04,-164.25 94.96,-164.25"/>
<text text-anchor="start" x="58.38" y="-151.7" font-family="Helvetica,sans-Serif" font-size="9.00">index.js</text>
</a>
</g>
</g>
<!-- src/js/index.js&#45;&gt;src/js/application/Application.js -->
<g id="edge2" class="edge">
<title>src/js/index.js&#45;&gt;src/js/application/Application.js</title>
<path fill="none" stroke="#000000" stroke-width="2" stroke-opacity="0.200000" d="M101.59,-147.19C108.96,-145.02 117.14,-142.6 125.14,-140.24"/>
<polygon fill="#000000" fill-opacity="0.200000" stroke="#000000" stroke-width="2" stroke-opacity="0.200000" points="125.65,-142.28 130.81,-138.57 124.46,-138.25 125.65,-142.28"/>
</g>
<!-- src/js/view/View.js -->
<g id="node5" class="node">
<title>src/js/view/View.js</title>
<g id="a_node5"><a xlink:href="src/js/view/View.js" xlink:title="View.js">
<path fill="#ccffcc" stroke="black" d="M94.96,-111.25C94.96,-111.25 53.29,-111.25 53.29,-111.25 50.21,-111.25 47.12,-108.17 47.12,-105.08 47.12,-105.08 47.12,-98.92 47.12,-98.92 47.12,-95.83 50.21,-92.75 53.29,-92.75 53.29,-92.75 94.96,-92.75 94.96,-92.75 98.04,-92.75 101.12,-95.83 101.12,-98.92 101.12,-98.92 101.12,-105.08 101.12,-105.08 101.12,-108.17 98.04,-111.25 94.96,-111.25"/>
<text text-anchor="start" x="59.88" y="-98.7" font-family="Helvetica,sans-Serif" font-size="9.00">View.js</text>
</a>
</g>
</g>
</g>
</svg>
