<?xml version="1.0" encoding="UTF-8" standalone="no"?>
<!DOCTYPE svg PUBLIC "-//W3C//DTD SVG 1.1//EN"
 "http://www.w3.org/Graphics/SVG/1.1/DTD/svg11.dtd">
<!-- Generated by graphviz version 12.2.1 (20241206.2353)
 -->
<!-- Title: dependency&#45;cruiser output Pages: 1 -->
<svg width="1337pt" height="1426pt"
 viewBox="0.00 0.00 1336.50 1426.00" xmlns="http://www.w3.org/2000/svg" xmlns:xlink="http://www.w3.org/1999/xlink">
<g id="graph0" class="graph" transform="scale(1 1) rotate(0) translate(4 1422)">
<title>dependency&#45;cruiser output</title>
<polygon fill="white" stroke="none" points="-4,4 -4,-1422 1332.5,-1422 1332.5,4 -4,4"/>
<g id="clust1" class="cluster">
<title>cluster_src</title>
<path fill="#ffffff" stroke="black" stroke-width="2" d="M20,-8C20,-8 1308.5,-8 1308.5,-8 1314.5,-8 1320.5,-14 1320.5,-20 1320.5,-20 1320.5,-1398 1320.5,-1398 1320.5,-1404 1314.5,-1410 1308.5,-1410 1308.5,-1410 20,-1410 20,-1410 14,-1410 8,-1404 8,-1398 8,-1398 8,-20 8,-20 8,-14 14,-8 20,-8"/>
<text text-anchor="middle" x="664.25" y="-1397.45" font-family="Helvetica,sans-Serif" font-weight="bold" font-size="9.00">src</text>
</g>
<g id="clust2" class="cluster">
<title>cluster_src/js</title>
<path fill="#ffffff" stroke="black" stroke-width="2" d="M28,-16C28,-16 1300.5,-16 1300.5,-16 1306.5,-16 1312.5,-22 1312.5,-28 1312.5,-28 1312.5,-1371 1312.5,-1371 1312.5,-1377 1306.5,-1383 1300.5,-1383 1300.5,-1383 28,-1383 28,-1383 22,-1383 16,-1377 16,-1371 16,-1371 16,-28 16,-28 16,-22 22,-16 28,-16"/>
<text text-anchor="middle" x="664.25" y="-1370.45" font-family="Helvetica,sans-Serif" font-weight="bold" font-size="9.00">js</text>
</g>
<g id="clust3" class="cluster">
<title>cluster_src/js/application</title>
<path fill="#ffffff" stroke="black" stroke-width="2" d="M136.25,-1188C136.25,-1188 199,-1188 199,-1188 205,-1188 211,-1194 211,-1200 211,-1200 211,-1229 211,-1229 211,-1235 205,-1241 199,-1241 199,-1241 136.25,-1241 136.25,-1241 130.25,-1241 124.25,-1235 124.25,-1229 124.25,-1229 124.25,-1200 124.25,-1200 124.25,-1194 130.25,-1188 136.25,-1188"/>
<text text-anchor="middle" x="167.62" y="-1228.45" font-family="Helvetica,sans-Serif" font-weight="bold" font-size="9.00">application</text>
</g>
<g id="clust4" class="cluster">
<title>cluster_src/js/controller</title>
<path fill="#ffffff" stroke="black" stroke-width="2" d="M231,-1188C231,-1188 287.75,-1188 287.75,-1188 293.75,-1188 299.75,-1194 299.75,-1200 299.75,-1200 299.75,-1229 299.75,-1229 299.75,-1235 293.75,-1241 287.75,-1241 287.75,-1241 231,-1241 231,-1241 225,-1241 219,-1235 219,-1229 219,-1229 219,-1200 219,-1200 219,-1194 225,-1188 231,-1188"/>
<text text-anchor="middle" x="259.38" y="-1228.45" font-family="Helvetica,sans-Serif" font-weight="bold" font-size="9.00">controller</text>
</g>
<g id="clust5" class="cluster">
<title>cluster_src/js/data</title>
<path fill="#ffffff" stroke="black" stroke-width="2" d="M36,-584C36,-584 191.12,-584 191.12,-584 197.12,-584 203.12,-590 203.12,-596 203.12,-596 203.12,-625 203.12,-625 203.12,-631 197.12,-637 191.12,-637 191.12,-637 36,-637 36,-637 30,-637 24,-631 24,-625 24,-625 24,-596 24,-596 24,-590 30,-584 36,-584"/>
<text text-anchor="middle" x="113.56" y="-624.45" font-family="Helvetica,sans-Serif" font-weight="bold" font-size="9.00">data</text>
</g>
<g id="clust6" class="cluster">
<title>cluster_src/js/directable</title>
<path fill="#ffffff" stroke="black" stroke-width="2" d="M400.25,-24C400.25,-24 1187.75,-24 1187.75,-24 1193.75,-24 1199.75,-30 1199.75,-36 1199.75,-36 1199.75,-1153 1199.75,-1153 1199.75,-1159 1193.75,-1165 1187.75,-1165 1187.75,-1165 400.25,-1165 400.25,-1165 394.25,-1165 388.25,-1159 388.25,-1153 388.25,-1153 388.25,-36 388.25,-36 388.25,-30 394.25,-24 400.25,-24"/>
<text text-anchor="middle" x="794" y="-1152.45" font-family="Helvetica,sans-Serif" font-weight="bold" font-size="9.00">directable</text>
</g>
<g id="clust7" class="cluster">
<title>cluster_src/js/directable/dotmatrix</title>
<path fill="#ffffff" stroke="black" stroke-width="2" d="M443.25,-32C443.25,-32 1179.75,-32 1179.75,-32 1185.75,-32 1191.75,-38 1191.75,-44 1191.75,-44 1191.75,-724 1191.75,-724 1191.75,-730 1185.75,-736 1179.75,-736 1179.75,-736 443.25,-736 443.25,-736 437.25,-736 431.25,-730 431.25,-724 431.25,-724 431.25,-44 431.25,-44 431.25,-38 437.25,-32 443.25,-32"/>
<text text-anchor="middle" x="811.5" y="-723.45" font-family="Helvetica,sans-Serif" font-weight="bold" font-size="9.00">dotmatrix</text>
</g>
<g id="clust8" class="cluster">
<title>cluster_src/js/directable/dotmatrix/dot</title>
<path fill="#ffffff" stroke="black" stroke-width="2" d="M732.88,-656C732.88,-656 916.5,-656 916.5,-656 922.5,-656 928.5,-662 928.5,-668 928.5,-668 928.5,-697 928.5,-697 928.5,-703 922.5,-709 916.5,-709 916.5,-709 732.88,-709 732.88,-709 726.88,-709 720.88,-703 720.88,-697 720.88,-697 720.88,-668 720.88,-668 720.88,-662 726.88,-656 732.88,-656"/>
<text text-anchor="middle" x="824.69" y="-696.45" font-family="Helvetica,sans-Serif" font-weight="bold" font-size="9.00">dot</text>
</g>
<g id="clust9" class="cluster">
<title>cluster_src/js/directable/dotmatrix/grid</title>
<path fill="#ffffff" stroke="black" stroke-width="2" d="M990.25,-578C990.25,-578 1044,-578 1044,-578 1050,-578 1056,-584 1056,-590 1056,-590 1056,-619 1056,-619 1056,-625 1050,-631 1044,-631 1044,-631 990.25,-631 990.25,-631 984.25,-631 978.25,-625 978.25,-619 978.25,-619 978.25,-590 978.25,-590 978.25,-584 984.25,-578 990.25,-578"/>
<text text-anchor="middle" x="1017.12" y="-618.45" font-family="Helvetica,sans-Serif" font-weight="bold" font-size="9.00">grid</text>
</g>
<g id="clust10" class="cluster">
<title>cluster_src/js/directable/dotmatrix/shape</title>
<path fill="#ffffff" stroke="black" stroke-width="2" d="M715.5,-40C715.5,-40 1171.75,-40 1171.75,-40 1177.75,-40 1183.75,-46 1183.75,-52 1183.75,-52 1183.75,-513 1183.75,-513 1183.75,-519 1177.75,-525 1171.75,-525 1171.75,-525 715.5,-525 715.5,-525 709.5,-525 703.5,-519 703.5,-513 703.5,-513 703.5,-52 703.5,-52 703.5,-46 709.5,-40 715.5,-40"/>
<text text-anchor="middle" x="943.62" y="-512.45" font-family="Helvetica,sans-Serif" font-weight="bold" font-size="9.00">shape</text>
</g>
<g id="clust11" class="cluster">
<title>cluster_src/js/directable/dotmatrix/shape/fill</title>
<path fill="#ffffff" stroke="black" stroke-width="2" d="M986.12,-413C986.12,-413 1163.75,-413 1163.75,-413 1169.75,-413 1175.75,-419 1175.75,-425 1175.75,-425 1175.75,-485 1175.75,-485 1175.75,-491 1169.75,-497 1163.75,-497 1163.75,-497 986.12,-497 986.12,-497 980.12,-497 974.12,-491 974.12,-485 974.12,-485 974.12,-425 974.12,-425 974.12,-419 980.12,-413 986.12,-413"/>
<text text-anchor="middle" x="1074.94" y="-484.45" font-family="Helvetica,sans-Serif" font-weight="bold" font-size="9.00">fill</text>
</g>
<g id="clust12" class="cluster">
<title>cluster_src/js/directable/dotmatrix/shape/glyph</title>
<path fill="#ffffff" stroke="black" stroke-width="2" d="M726.5,-48C726.5,-48 806.5,-48 806.5,-48 812.5,-48 818.5,-54 818.5,-60 818.5,-60 818.5,-399 818.5,-399 818.5,-405 812.5,-411 806.5,-411 806.5,-411 726.5,-411 726.5,-411 720.5,-411 714.5,-405 714.5,-399 714.5,-399 714.5,-60 714.5,-60 714.5,-54 720.5,-48 726.5,-48"/>
<text text-anchor="middle" x="766.5" y="-398.45" font-family="Helvetica,sans-Serif" font-weight="bold" font-size="9.00">glyph</text>
</g>
<g id="clust13" class="cluster">
<title>cluster_src/js/directable/dotmatrix/shape/line</title>
<path fill="#ffffff" stroke="black" stroke-width="2" d="M841.5,-390C841.5,-390 945.5,-390 945.5,-390 951.5,-390 957.5,-396 957.5,-402 957.5,-402 957.5,-462 957.5,-462 957.5,-468 951.5,-474 945.5,-474 945.5,-474 841.5,-474 841.5,-474 835.5,-474 829.5,-468 829.5,-462 829.5,-462 829.5,-402 829.5,-402 829.5,-396 835.5,-390 841.5,-390"/>
<text text-anchor="middle" x="893.5" y="-461.45" font-family="Helvetica,sans-Serif" font-weight="bold" font-size="9.00">line</text>
</g>
<g id="clust14" class="cluster">
<title>cluster_src/js/directable/dotmatrix/shape/primative</title>
<path fill="#ffffff" stroke="black" stroke-width="2" d="M723.5,-419C723.5,-419 809.5,-419 809.5,-419 815.5,-419 821.5,-425 821.5,-431 821.5,-431 821.5,-460 821.5,-460 821.5,-466 815.5,-472 809.5,-472 809.5,-472 723.5,-472 723.5,-472 717.5,-472 711.5,-466 711.5,-460 711.5,-460 711.5,-431 711.5,-431 711.5,-425 717.5,-419 723.5,-419"/>
<text text-anchor="middle" x="766.5" y="-459.45" font-family="Helvetica,sans-Serif" font-weight="bold" font-size="9.00">primative</text>
</g>
<g id="clust15" class="cluster">
<title>cluster_src/js/directable/dotmatrix/view</title>
<path fill="#ffffff" stroke="black" stroke-width="2" d="M601.25,-533C601.25,-533 793.38,-533 793.38,-533 799.38,-533 805.38,-539 805.38,-545 805.38,-545 805.38,-636 805.38,-636 805.38,-642 799.38,-648 793.38,-648 793.38,-648 601.25,-648 601.25,-648 595.25,-648 589.25,-642 589.25,-636 589.25,-636 589.25,-545 589.25,-545 589.25,-539 595.25,-533 601.25,-533"/>
<text text-anchor="middle" x="697.31" y="-635.45" font-family="Helvetica,sans-Serif" font-weight="bold" font-size="9.00">view</text>
</g>
<g id="clust16" class="cluster">
<title>cluster_src/js/directable/frame</title>
<path fill="#ffffff" stroke="black" stroke-width="2" d="M449.62,-744C449.62,-744 534.88,-744 534.88,-744 540.88,-744 546.88,-750 546.88,-756 546.88,-756 546.88,-785 546.88,-785 546.88,-791 540.88,-797 534.88,-797 534.88,-797 449.62,-797 449.62,-797 443.62,-797 437.62,-791 437.62,-785 437.62,-785 437.62,-756 437.62,-756 437.62,-750 443.62,-744 449.62,-744"/>
<text text-anchor="middle" x="492.25" y="-784.45" font-family="Helvetica,sans-Serif" font-weight="bold" font-size="9.00">frame</text>
</g>
<g id="clust17" class="cluster">
<title>cluster_src/js/directable/rhythm</title>
<path fill="#ffffff" stroke="black" stroke-width="2" d="M408.25,-805C408.25,-805 683.12,-805 683.12,-805 689.12,-805 695.12,-811 695.12,-817 695.12,-817 695.12,-1004 695.12,-1004 695.12,-1010 689.12,-1016 683.12,-1016 683.12,-1016 408.25,-1016 408.25,-1016 402.25,-1016 396.25,-1010 396.25,-1004 396.25,-1004 396.25,-817 396.25,-817 396.25,-811 402.25,-805 408.25,-805"/>
<text text-anchor="middle" x="545.69" y="-1003.45" font-family="Helvetica,sans-Serif" font-weight="bold" font-size="9.00">rhythm</text>
</g>
<g id="clust18" class="cluster">
<title>cluster_src/js/directable/rhythm/asdr</title>
<path fill="#ffffff" stroke="black" stroke-width="2" d="M416.25,-813C416.25,-813 568.25,-813 568.25,-813 574.25,-813 580.25,-819 580.25,-825 580.25,-825 580.25,-916 580.25,-916 580.25,-922 574.25,-928 568.25,-928 568.25,-928 416.25,-928 416.25,-928 410.25,-928 404.25,-922 404.25,-916 404.25,-916 404.25,-825 404.25,-825 404.25,-819 410.25,-813 416.25,-813"/>
<text text-anchor="middle" x="492.25" y="-915.45" font-family="Helvetica,sans-Serif" font-weight="bold" font-size="9.00">asdr</text>
</g>
<g id="clust19" class="cluster">
<title>cluster_src/js/directable/rhythm/bpm</title>
<path fill="#ffffff" stroke="black" stroke-width="2" d="M437.25,-936C437.25,-936 547.25,-936 547.25,-936 553.25,-936 559.25,-942 559.25,-948 559.25,-948 559.25,-977 559.25,-977 559.25,-983 553.25,-989 547.25,-989 547.25,-989 437.25,-989 437.25,-989 431.25,-989 425.25,-983 425.25,-977 425.25,-977 425.25,-948 425.25,-948 425.25,-942 431.25,-936 437.25,-936"/>
<text text-anchor="middle" x="492.25" y="-976.45" font-family="Helvetica,sans-Serif" font-weight="bold" font-size="9.00">bpm</text>
</g>
<g id="clust20" class="cluster">
<title>cluster_src/js/directable/rhythm2</title>
<path fill="#ffffff" stroke="black" stroke-width="2" d="M457.88,-1024C457.88,-1024 683.5,-1024 683.5,-1024 689.5,-1024 695.5,-1030 695.5,-1036 695.5,-1036 695.5,-1065 695.5,-1065 695.5,-1071 689.5,-1077 683.5,-1077 683.5,-1077 457.88,-1077 457.88,-1077 451.88,-1077 445.88,-1071 445.88,-1065 445.88,-1065 445.88,-1036 445.88,-1036 445.88,-1030 451.88,-1024 457.88,-1024"/>
<text text-anchor="middle" x="570.69" y="-1064.45" font-family="Helvetica,sans-Serif" font-weight="bold" font-size="9.00">rhythm2</text>
</g>
<g id="clust21" class="cluster">
<title>cluster_src/js/directable/title</title>
<path fill="#ffffff" stroke="black" stroke-width="2" d="M454.12,-1085C454.12,-1085 530.38,-1085 530.38,-1085 536.38,-1085 542.38,-1091 542.38,-1097 542.38,-1097 542.38,-1126 542.38,-1126 542.38,-1132 536.38,-1138 530.38,-1138 530.38,-1138 454.12,-1138 454.12,-1138 448.12,-1138 442.12,-1132 442.12,-1126 442.12,-1126 442.12,-1097 442.12,-1097 442.12,-1091 448.12,-1085 454.12,-1085"/>
<text text-anchor="middle" x="492.25" y="-1125.45" font-family="Helvetica,sans-Serif" font-weight="bold" font-size="9.00">title</text>
</g>
<g id="clust22" class="cluster">
<title>cluster_src/js/director</title>
<path fill="#ffffff" stroke="black" stroke-width="2" d="M319.75,-1106C319.75,-1106 368.25,-1106 368.25,-1106 374.25,-1106 380.25,-1112 380.25,-1118 380.25,-1118 380.25,-1147 380.25,-1147 380.25,-1153 374.25,-1159 368.25,-1159 368.25,-1159 319.75,-1159 319.75,-1159 313.75,-1159 307.75,-1153 307.75,-1147 307.75,-1147 307.75,-1118 307.75,-1118 307.75,-1112 313.75,-1106 319.75,-1106"/>
<text text-anchor="middle" x="344" y="-1146.45" font-family="Helvetica,sans-Serif" font-weight="bold" font-size="9.00">director</text>
</g>
<g id="clust23" class="cluster">
<title>cluster_src/js/display</title>
<path fill="#ffffff" stroke="black" stroke-width="2" d="M1098.75,-1242C1098.75,-1242 1292.5,-1242 1292.5,-1242 1298.5,-1242 1304.5,-1248 1304.5,-1254 1304.5,-1254 1304.5,-1283 1304.5,-1283 1304.5,-1289 1298.5,-1295 1292.5,-1295 1292.5,-1295 1098.75,-1295 1098.75,-1295 1092.75,-1295 1086.75,-1289 1086.75,-1283 1086.75,-1283 1086.75,-1254 1086.75,-1254 1086.75,-1248 1092.75,-1242 1098.75,-1242"/>
<text text-anchor="middle" x="1195.62" y="-1282.45" font-family="Helvetica,sans-Serif" font-weight="bold" font-size="9.00">display</text>
</g>
<g id="clust24" class="cluster">
<title>cluster_src/js/overlay</title>
<path fill="#ffffff" stroke="black" stroke-width="2" d="M320.12,-1197C320.12,-1197 668.88,-1197 668.88,-1197 674.88,-1197 680.88,-1203 680.88,-1209 680.88,-1209 680.88,-1334 680.88,-1334 680.88,-1340 674.88,-1346 668.88,-1346 668.88,-1346 320.12,-1346 320.12,-1346 314.12,-1346 308.12,-1340 308.12,-1334 308.12,-1334 308.12,-1209 308.12,-1209 308.12,-1203 314.12,-1197 320.12,-1197"/>
<text text-anchor="middle" x="494.5" y="-1333.45" font-family="Helvetica,sans-Serif" font-weight="bold" font-size="9.00">overlay</text>
</g>
<g id="clust25" class="cluster">
<title>cluster_src/js/overlay/displayFormat</title>
<path fill="#ffffff" stroke="black" stroke-width="2" d="M438.38,-1266C438.38,-1266 546.12,-1266 546.12,-1266 552.12,-1266 558.12,-1272 558.12,-1278 558.12,-1278 558.12,-1307 558.12,-1307 558.12,-1313 552.12,-1319 546.12,-1319 546.12,-1319 438.38,-1319 438.38,-1319 432.38,-1319 426.38,-1313 426.38,-1307 426.38,-1307 426.38,-1278 426.38,-1278 426.38,-1272 432.38,-1266 438.38,-1266"/>
<text text-anchor="middle" x="492.25" y="-1306.45" font-family="Helvetica,sans-Serif" font-weight="bold" font-size="9.00">displayFormat</text>
</g>
<g id="clust26" class="cluster">
<title>cluster_src/js/overlay/overlay</title>
<path fill="#ffffff" stroke="black" stroke-width="2" d="M452.62,-1205C452.62,-1205 531.88,-1205 531.88,-1205 537.88,-1205 543.88,-1211 543.88,-1217 543.88,-1217 543.88,-1246 543.88,-1246 543.88,-1252 537.88,-1258 531.88,-1258 531.88,-1258 452.62,-1258 452.62,-1258 446.62,-1258 440.62,-1252 440.62,-1246 440.62,-1246 440.62,-1217 440.62,-1217 440.62,-1211 446.62,-1205 452.62,-1205"/>
<text text-anchor="middle" x="492.25" y="-1245.45" font-family="Helvetica,sans-Serif" font-weight="bold" font-size="9.00">overlay</text>
</g>
<g id="clust27" class="cluster">
<title>cluster_src/js/render</title>
<path fill="#ffffff" stroke="black" stroke-width="2" d="M977.5,-1183C977.5,-1183 1056.75,-1183 1056.75,-1183 1062.75,-1183 1068.75,-1189 1068.75,-1195 1068.75,-1195 1068.75,-1224 1068.75,-1224 1068.75,-1230 1062.75,-1236 1056.75,-1236 1056.75,-1236 977.5,-1236 977.5,-1236 971.5,-1236 965.5,-1230 965.5,-1224 965.5,-1224 965.5,-1195 965.5,-1195 965.5,-1189 971.5,-1183 977.5,-1183"/>
<text text-anchor="middle" x="1017.12" y="-1223.45" font-family="Helvetica,sans-Serif" font-weight="bold" font-size="9.00">render</text>
</g>
<!-- src/js/application/Application.js -->
<g id="node1" class="node">
<title>src/js/application/Application.js</title>
<g id="a_node1"><a xlink:href="src/js/application/Application.js" xlink:title="Application.js">
<path fill="#ffffcc" stroke="black" d="M196.83,-1214.25C196.83,-1214.25 138.42,-1214.25 138.42,-1214.25 135.33,-1214.25 132.25,-1211.17 132.25,-1208.08 132.25,-1208.08 132.25,-1201.92 132.25,-1201.92 132.25,-1198.83 135.33,-1195.75 138.42,-1195.75 138.42,-1195.75 196.83,-1195.75 196.83,-1195.75 199.92,-1195.75 203,-1198.83 203,-1201.92 203,-1201.92 203,-1208.08 203,-1208.08 203,-1211.17 199.92,-1214.25 196.83,-1214.25"/>
<text text-anchor="start" x="140.25" y="-1201.7" font-family="Helvetica,sans-Serif" font-size="9.00">Application.js</text>
</a>
</g>
</g>
<!-- src/js/controller/Controller.js -->
<g id="node2" class="node">
<title>src/js/controller/Controller.js</title>
<g id="a_node2"><a xlink:href="src/js/controller/Controller.js" xlink:title="Controller.js">
<path fill="#ffffcc" stroke="black" d="M285.58,-1214.25C285.58,-1214.25 233.17,-1214.25 233.17,-1214.25 230.08,-1214.25 227,-1211.17 227,-1208.08 227,-1208.08 227,-1201.92 227,-1201.92 227,-1198.83 230.08,-1195.75 233.17,-1195.75 233.17,-1195.75 285.58,-1195.75 285.58,-1195.75 288.67,-1195.75 291.75,-1198.83 291.75,-1201.92 291.75,-1201.92 291.75,-1208.08 291.75,-1208.08 291.75,-1211.17 288.67,-1214.25 285.58,-1214.25"/>
<text text-anchor="start" x="235" y="-1201.7" font-family="Helvetica,sans-Serif" font-size="9.00">Controller.js</text>
</a>
</g>
</g>
<!-- src/js/application/Application.js&#45;&gt;src/js/controller/Controller.js -->
<g id="edge1" class="edge">
<title>src/js/application/Application.js&#45;&gt;src/js/controller/Controller.js</title>
<path fill="none" stroke="#000000" stroke-width="2" stroke-opacity="0.200000" d="M203.32,-1205C208.13,-1205 213.11,-1205 218.01,-1205"/>
<polygon fill="#000000" fill-opacity="0.200000" stroke="#000000" stroke-width="2" stroke-opacity="0.200000" points="217.68,-1207.1 223.68,-1205 217.68,-1202.9 217.68,-1207.1"/>
</g>
<!-- src/js/director/Director.js -->
<g id="node3" class="node">
<title>src/js/director/Director.js</title>
<g id="a_node3"><a xlink:href="src/js/director/Director.js" xlink:title="Director.js">
<path fill="#ffffcc" stroke="black" d="M366.08,-1132.25C366.08,-1132.25 321.92,-1132.25 321.92,-1132.25 318.83,-1132.25 315.75,-1129.17 315.75,-1126.08 315.75,-1126.08 315.75,-1119.92 315.75,-1119.92 315.75,-1116.83 318.83,-1113.75 321.92,-1113.75 321.92,-1113.75 366.08,-1113.75 366.08,-1113.75 369.17,-1113.75 372.25,-1116.83 372.25,-1119.92 372.25,-1119.92 372.25,-1126.08 372.25,-1126.08 372.25,-1129.17 369.17,-1132.25 366.08,-1132.25"/>
<text text-anchor="start" x="323.75" y="-1119.7" font-family="Helvetica,sans-Serif" font-size="9.00">Director.js</text>
</a>
</g>
</g>
<!-- src/js/controller/Controller.js&#45;&gt;src/js/director/Director.js -->
<g id="edge2" class="edge">
<title>src/js/controller/Controller.js&#45;&gt;src/js/director/Director.js</title>
<path fill="none" stroke="#000000" stroke-width="2" stroke-opacity="0.200000" d="M270.18,-1195.27C284.22,-1181.34 310.21,-1155.55 327.04,-1138.84"/>
<polygon fill="#000000" fill-opacity="0.200000" stroke="#000000" stroke-width="2" stroke-opacity="0.200000" points="328.28,-1140.57 331.06,-1134.85 325.32,-1137.58 328.28,-1140.57"/>
</g>
<!-- src/js/display/Display.js -->
<g id="node4" class="node">
<title>src/js/display/Display.js</title>
<g id="a_node4"><a xlink:href="src/js/display/Display.js" xlink:title="Display.js">
<path fill="#ffffcc" stroke="black" d="M1143.58,-1268.25C1143.58,-1268.25 1100.92,-1268.25 1100.92,-1268.25 1097.83,-1268.25 1094.75,-1265.17 1094.75,-1262.08 1094.75,-1262.08 1094.75,-1255.92 1094.75,-1255.92 1094.75,-1252.83 1097.83,-1249.75 1100.92,-1249.75 1100.92,-1249.75 1143.58,-1249.75 1143.58,-1249.75 1146.67,-1249.75 1149.75,-1252.83 1149.75,-1255.92 1149.75,-1255.92 1149.75,-1262.08 1149.75,-1262.08 1149.75,-1265.17 1146.67,-1268.25 1143.58,-1268.25"/>
<text text-anchor="start" x="1102.75" y="-1255.7" font-family="Helvetica,sans-Serif" font-size="9.00">Display.js</text>
</a>
</g>
</g>
<!-- src/js/controller/Controller.js&#45;&gt;src/js/display/Display.js -->
<g id="edge3" class="edge">
<title>src/js/controller/Controller.js&#45;&gt;src/js/display/Display.js</title>
<path fill="none" stroke="#000000" stroke-width="2" stroke-opacity="0.200000" d="M260.13,-1214.44C260.01,-1240.91 263.72,-1316.03 307.75,-1349 373.06,-1397.92 409.65,-1355 491.25,-1355 491.25,-1355 491.25,-1355 638.88,-1355 809.41,-1355 1007.46,-1296.57 1086.29,-1270.88"/>
<polygon fill="#000000" fill-opacity="0.200000" stroke="#000000" stroke-width="2" stroke-opacity="0.200000" points="1086.5,-1273.02 1091.55,-1269.15 1085.19,-1269.03 1086.5,-1273.02"/>
</g>
<!-- src/js/overlay/Overlay.js -->
<g id="node5" class="node">
<title>src/js/overlay/Overlay.js</title>
<g id="a_node5"><a xlink:href="src/js/overlay/Overlay.js" xlink:title="Overlay.js">
<path fill="#ffffcc" stroke="black" d="M365.71,-1231.25C365.71,-1231.25 322.29,-1231.25 322.29,-1231.25 319.21,-1231.25 316.12,-1228.17 316.12,-1225.08 316.12,-1225.08 316.12,-1218.92 316.12,-1218.92 316.12,-1215.83 319.21,-1212.75 322.29,-1212.75 322.29,-1212.75 365.71,-1212.75 365.71,-1212.75 368.79,-1212.75 371.88,-1215.83 371.88,-1218.92 371.88,-1218.92 371.88,-1225.08 371.88,-1225.08 371.88,-1228.17 368.79,-1231.25 365.71,-1231.25"/>
<text text-anchor="start" x="324.12" y="-1218.7" font-family="Helvetica,sans-Serif" font-size="9.00">Overlay.js</text>
</a>
</g>
</g>
<!-- src/js/controller/Controller.js&#45;&gt;src/js/overlay/Overlay.js -->
<g id="edge4" class="edge">
<title>src/js/controller/Controller.js&#45;&gt;src/js/overlay/Overlay.js</title>
<path fill="none" stroke="#000000" stroke-width="2" stroke-opacity="0.200000" d="M292.08,-1211.52C296.98,-1212.53 302.06,-1213.58 307.04,-1214.6"/>
<polygon fill="#000000" fill-opacity="0.200000" stroke="#000000" stroke-width="2" stroke-opacity="0.200000" points="306.55,-1216.64 312.85,-1215.8 307.4,-1212.53 306.55,-1216.64"/>
</g>
<!-- src/js/render/RenderSurface.js -->
<g id="node6" class="node">
<title>src/js/render/RenderSurface.js</title>
<g id="a_node6"><a xlink:href="src/js/render/RenderSurface.js" xlink:title="RenderSurface.js">
<path fill="#ffffcc" stroke="black" d="M1054.58,-1209.25C1054.58,-1209.25 979.67,-1209.25 979.67,-1209.25 976.58,-1209.25 973.5,-1206.17 973.5,-1203.08 973.5,-1203.08 973.5,-1196.92 973.5,-1196.92 973.5,-1193.83 976.58,-1190.75 979.67,-1190.75 979.67,-1190.75 1054.58,-1190.75 1054.58,-1190.75 1057.67,-1190.75 1060.75,-1193.83 1060.75,-1196.92 1060.75,-1196.92 1060.75,-1203.08 1060.75,-1203.08 1060.75,-1206.17 1057.67,-1209.25 1054.58,-1209.25"/>
<text text-anchor="start" x="981.5" y="-1196.7" font-family="Helvetica,sans-Serif" font-size="9.00">RenderSurface.js</text>
</a>
</g>
</g>
<!-- src/js/controller/Controller.js&#45;&gt;src/js/render/RenderSurface.js -->
<g id="edge5" class="edge">
<title>src/js/controller/Controller.js&#45;&gt;src/js/render/RenderSurface.js</title>
<path fill="none" stroke="#000000" stroke-width="2" stroke-opacity="0.200000" d="M292.07,-1196.74C297.28,-1195.64 302.64,-1194.67 307.75,-1194 388.66,-1183.39 409.65,-1188 491.25,-1188 491.25,-1188 491.25,-1188 767.5,-1188 835.58,-1188 914.02,-1192.54 964.29,-1196.04"/>
<polygon fill="#000000" fill-opacity="0.200000" stroke="#000000" stroke-width="2" stroke-opacity="0.200000" points="963.88,-1198.12 970.02,-1196.44 964.18,-1193.93 963.88,-1198.12"/>
</g>
<!-- src/js/director/Director.js&#45;&gt;src/js/display/Display.js -->
<g id="edge33" class="edge">
<title>src/js/director/Director.js&#45;&gt;src/js/display/Display.js</title>
<path fill="none" stroke="#000000" stroke-width="2" stroke-opacity="0.200000" d="M365.29,-1132.74C372.41,-1135.8 380.55,-1138.93 388.25,-1141 495.88,-1170 525.41,-1174 636.88,-1174 636.88,-1174 636.88,-1174 894.5,-1174 971.99,-1174 1001.1,-1142.22 1068.75,-1180 1092.35,-1193.18 1107.27,-1221.94 1114.94,-1240.88"/>
<polygon fill="#000000" fill-opacity="0.200000" stroke="#000000" stroke-width="2" stroke-opacity="0.200000" points="1112.96,-1241.58 1117.05,-1246.44 1116.89,-1240.09 1112.96,-1241.58"/>
</g>
<!-- src/js/directable/dotmatrix/DirectableDotMatrix.js -->
<g id="node9" class="node">
<title>src/js/directable/dotmatrix/DirectableDotMatrix.js</title>
<g id="a_node9"><a xlink:href="src/js/directable/dotmatrix/DirectableDotMatrix.js" xlink:title="DirectableDotMatrix.js">
<path fill="#ffffcc" stroke="black" d="M539.08,-634.25C539.08,-634.25 445.42,-634.25 445.42,-634.25 442.33,-634.25 439.25,-631.17 439.25,-628.08 439.25,-628.08 439.25,-621.92 439.25,-621.92 439.25,-618.83 442.33,-615.75 445.42,-615.75 445.42,-615.75 539.08,-615.75 539.08,-615.75 542.17,-615.75 545.25,-618.83 545.25,-621.92 545.25,-621.92 545.25,-628.08 545.25,-628.08 545.25,-631.17 542.17,-634.25 539.08,-634.25"/>
<text text-anchor="start" x="447.25" y="-621.7" font-family="Helvetica,sans-Serif" font-size="9.00">DirectableDotMatrix.js</text>
</a>
</g>
</g>
<!-- src/js/director/Director.js&#45;&gt;src/js/directable/dotmatrix/DirectableDotMatrix.js -->
<g id="edge31" class="edge">
<title>src/js/director/Director.js&#45;&gt;src/js/directable/dotmatrix/DirectableDotMatrix.js</title>
<path fill="none" stroke="#000000" stroke-width="2" stroke-opacity="0.200000" d="M345.3,-1113.48C347.08,-1061.39 357.13,-810.8 388.25,-741 407.23,-698.42 447.64,-660.39 471.81,-640.22"/>
<polygon fill="#000000" fill-opacity="0.200000" stroke="#000000" stroke-width="2" stroke-opacity="0.200000" points="473.09,-641.89 476.41,-636.47 470.43,-638.64 473.09,-641.89"/>
</g>
<!-- src/js/directable/title/DirectableTitle.js -->
<g id="node45" class="node">
<title>src/js/directable/title/DirectableTitle.js</title>
<g id="a_node45"><a xlink:href="src/js/directable/title/DirectableTitle.js" xlink:title="DirectableTitle.js">
<path fill="#ffffcc" stroke="black" d="M528.21,-1111.25C528.21,-1111.25 456.29,-1111.25 456.29,-1111.25 453.21,-1111.25 450.12,-1108.17 450.12,-1105.08 450.12,-1105.08 450.12,-1098.92 450.12,-1098.92 450.12,-1095.83 453.21,-1092.75 456.29,-1092.75 456.29,-1092.75 528.21,-1092.75 528.21,-1092.75 531.29,-1092.75 534.38,-1095.83 534.38,-1098.92 534.38,-1098.92 534.38,-1105.08 534.38,-1105.08 534.38,-1108.17 531.29,-1111.25 528.21,-1111.25"/>
<text text-anchor="start" x="458.12" y="-1098.7" font-family="Helvetica,sans-Serif" font-size="9.00">DirectableTitle.js</text>
</a>
</g>
</g>
<!-- src/js/director/Director.js&#45;&gt;src/js/directable/title/DirectableTitle.js -->
<g id="edge32" class="edge">
<title>src/js/director/Director.js&#45;&gt;src/js/directable/title/DirectableTitle.js</title>
<path fill="none" stroke="#000000" stroke-width="2" stroke-opacity="0.200000" d="M372.51,-1119.05C391.72,-1116.29 417.93,-1112.53 440.83,-1109.24"/>
<polygon fill="#000000" fill-opacity="0.200000" stroke="#000000" stroke-width="2" stroke-opacity="0.200000" points="441.12,-1111.32 446.76,-1108.39 440.52,-1107.16 441.12,-1111.32"/>
</g>
<!-- src/js/display/DisplayFormats.js -->
<g id="node46" class="node">
<title>src/js/display/DisplayFormats.js</title>
<g id="a_node46"><a xlink:href="src/js/display/DisplayFormats.js" xlink:title="DisplayFormats.js">
<path fill="#ffffcc" stroke="black" d="M1290.33,-1268.25C1290.33,-1268.25 1213.92,-1268.25 1213.92,-1268.25 1210.83,-1268.25 1207.75,-1265.17 1207.75,-1262.08 1207.75,-1262.08 1207.75,-1255.92 1207.75,-1255.92 1207.75,-1252.83 1210.83,-1249.75 1213.92,-1249.75 1213.92,-1249.75 1290.33,-1249.75 1290.33,-1249.75 1293.42,-1249.75 1296.5,-1252.83 1296.5,-1255.92 1296.5,-1255.92 1296.5,-1262.08 1296.5,-1262.08 1296.5,-1265.17 1293.42,-1268.25 1290.33,-1268.25"/>
<text text-anchor="start" x="1215.75" y="-1255.7" font-family="Helvetica,sans-Serif" font-size="9.00">DisplayFormats.js</text>
</a>
</g>
</g>
<!-- src/js/display/Display.js&#45;&gt;src/js/display/DisplayFormats.js -->
<g id="edge34" class="edge">
<title>src/js/display/Display.js&#45;&gt;src/js/display/DisplayFormats.js</title>
<path fill="none" stroke="#000000" stroke-width="2" stroke-opacity="0.200000" d="M1150.06,-1259C1164.21,-1259 1182.09,-1259 1198.85,-1259"/>
<polygon fill="#000000" fill-opacity="0.200000" stroke="#000000" stroke-width="2" stroke-opacity="0.200000" points="1198.47,-1261.1 1204.47,-1259 1198.47,-1256.9 1198.47,-1261.1"/>
</g>
<!-- src/js/overlay/displayFormat/OverlayDisplayFormat.js -->
<g id="node48" class="node">
<title>src/js/overlay/displayFormat/OverlayDisplayFormat.js</title>
<g id="a_node48"><a xlink:href="src/js/overlay/displayFormat/OverlayDisplayFormat.js" xlink:title="OverlayDisplayFormat.js">
<path fill="#ffffcc" stroke="black" d="M543.96,-1292.25C543.96,-1292.25 440.54,-1292.25 440.54,-1292.25 437.46,-1292.25 434.38,-1289.17 434.38,-1286.08 434.38,-1286.08 434.38,-1279.92 434.38,-1279.92 434.38,-1276.83 437.46,-1273.75 440.54,-1273.75 440.54,-1273.75 543.96,-1273.75 543.96,-1273.75 547.04,-1273.75 550.12,-1276.83 550.12,-1279.92 550.12,-1279.92 550.12,-1286.08 550.12,-1286.08 550.12,-1289.17 547.04,-1292.25 543.96,-1292.25"/>
<text text-anchor="start" x="442.38" y="-1279.7" font-family="Helvetica,sans-Serif" font-size="9.00">OverlayDisplayFormat.js</text>
</a>
</g>
</g>
<!-- src/js/overlay/Overlay.js&#45;&gt;src/js/overlay/displayFormat/OverlayDisplayFormat.js -->
<g id="edge36" class="edge">
<title>src/js/overlay/Overlay.js&#45;&gt;src/js/overlay/displayFormat/OverlayDisplayFormat.js</title>
<path fill="none" stroke="#000000" stroke-width="2" stroke-opacity="0.200000" d="M352.91,-1231.58C360.88,-1240.58 374.02,-1253.74 388.25,-1261 399.7,-1266.84 412.62,-1271.14 425.35,-1274.29"/>
<polygon fill="#000000" fill-opacity="0.200000" stroke="#000000" stroke-width="2" stroke-opacity="0.200000" points="424.84,-1276.33 431.16,-1275.62 425.78,-1272.24 424.84,-1276.33"/>
</g>
<!-- src/js/overlay/overlay/OverlayOverlay.js -->
<g id="node49" class="node">
<title>src/js/overlay/overlay/OverlayOverlay.js</title>
<g id="a_node49"><a xlink:href="src/js/overlay/overlay/OverlayOverlay.js" xlink:title="OverlayOverlay.js">
<path fill="#ffffcc" stroke="black" d="M529.71,-1231.25C529.71,-1231.25 454.79,-1231.25 454.79,-1231.25 451.71,-1231.25 448.62,-1228.17 448.62,-1225.08 448.62,-1225.08 448.62,-1218.92 448.62,-1218.92 448.62,-1215.83 451.71,-1212.75 454.79,-1212.75 454.79,-1212.75 529.71,-1212.75 529.71,-1212.75 532.79,-1212.75 535.88,-1215.83 535.88,-1218.92 535.88,-1218.92 535.88,-1225.08 535.88,-1225.08 535.88,-1228.17 532.79,-1231.25 529.71,-1231.25"/>
<text text-anchor="start" x="456.62" y="-1218.7" font-family="Helvetica,sans-Serif" font-size="9.00">OverlayOverlay.js</text>
</a>
</g>
</g>
<!-- src/js/overlay/Overlay.js&#45;&gt;src/js/overlay/overlay/OverlayOverlay.js -->
<g id="edge37" class="edge">
<title>src/js/overlay/Overlay.js&#45;&gt;src/js/overlay/overlay/OverlayOverlay.js</title>
<path fill="none" stroke="#000000" stroke-width="2" stroke-opacity="0.200000" d="M372.17,-1222C390.98,-1222 416.62,-1222 439.29,-1222"/>
<polygon fill="#000000" fill-opacity="0.200000" stroke="#000000" stroke-width="2" stroke-opacity="0.200000" points="439.11,-1224.1 445.11,-1222 439.11,-1219.9 439.11,-1224.1"/>
</g>
<!-- src/js/render/RenderSurface.js&#45;&gt;src/js/display/Display.js -->
<g id="edge41" class="edge">
<title>src/js/render/RenderSurface.js&#45;&gt;src/js/display/Display.js</title>
<path fill="none" stroke="#000000" stroke-width="2" stroke-opacity="0.200000" d="M1035.15,-1209.74C1051.97,-1219.37 1077.86,-1234.18 1096.86,-1245.05"/>
<polygon fill="#000000" fill-opacity="0.200000" stroke="#000000" stroke-width="2" stroke-opacity="0.200000" points="1095.66,-1246.78 1101.91,-1247.94 1097.75,-1243.13 1095.66,-1246.78"/>
</g>
<!-- src/js/data/Data.json -->
<g id="node7" class="node">
<title>src/js/data/Data.json</title>
<g id="a_node7"><a xlink:href="src/js/data/Data.json" xlink:title="Data.json">
<path fill="#ffee44" stroke="black" d="M188.96,-610.25C188.96,-610.25 146.29,-610.25 146.29,-610.25 143.21,-610.25 140.12,-607.17 140.12,-604.08 140.12,-604.08 140.12,-597.92 140.12,-597.92 140.12,-594.83 143.21,-591.75 146.29,-591.75 146.29,-591.75 188.96,-591.75 188.96,-591.75 192.04,-591.75 195.12,-594.83 195.12,-597.92 195.12,-597.92 195.12,-604.08 195.12,-604.08 195.12,-607.17 192.04,-610.25 188.96,-610.25"/>
<text text-anchor="start" x="148.12" y="-597.7" font-family="Helvetica,sans-Serif" font-size="9.00">Data.json</text>
</a>
</g>
</g>
<!-- src/js/data/DataController.js -->
<g id="node8" class="node">
<title>src/js/data/DataController.js</title>
<g id="a_node8"><a xlink:href="src/js/data/DataController.js" xlink:title="DataController.js">
<path fill="#ffffcc" stroke="black" d="M110.08,-610.25C110.08,-610.25 38.17,-610.25 38.17,-610.25 35.08,-610.25 32,-607.17 32,-604.08 32,-604.08 32,-597.92 32,-597.92 32,-594.83 35.08,-591.75 38.17,-591.75 38.17,-591.75 110.08,-591.75 110.08,-591.75 113.17,-591.75 116.25,-594.83 116.25,-597.92 116.25,-597.92 116.25,-604.08 116.25,-604.08 116.25,-607.17 113.17,-610.25 110.08,-610.25"/>
<text text-anchor="start" x="40" y="-597.7" font-family="Helvetica,sans-Serif" font-size="9.00">DataController.js</text>
</a>
</g>
</g>
<!-- src/js/data/DataController.js&#45;&gt;src/js/data/Data.json -->
<g id="edge6" class="edge">
<title>src/js/data/DataController.js&#45;&gt;src/js/data/Data.json</title>
<path fill="none" stroke="#000000" stroke-width="2" stroke-opacity="0.200000" d="M116.59,-601C121.37,-601 126.22,-601 130.92,-601"/>
<polygon fill="#000000" fill-opacity="0.200000" stroke="#000000" stroke-width="2" stroke-opacity="0.200000" points="130.69,-603.1 136.69,-601 130.69,-598.9 130.69,-603.1"/>
</g>
<!-- src/js/directable/dotmatrix/view/ViewManager.js -->
<g id="node10" class="node">
<title>src/js/directable/dotmatrix/view/ViewManager.js</title>
<g id="a_node10"><a xlink:href="src/js/directable/dotmatrix/view/ViewManager.js" xlink:title="ViewManager.js">
<path fill="#ffffcc" stroke="black" d="M672.33,-559.25C672.33,-559.25 603.42,-559.25 603.42,-559.25 600.33,-559.25 597.25,-556.17 597.25,-553.08 597.25,-553.08 597.25,-546.92 597.25,-546.92 597.25,-543.83 600.33,-540.75 603.42,-540.75 603.42,-540.75 672.33,-540.75 672.33,-540.75 675.42,-540.75 678.5,-543.83 678.5,-546.92 678.5,-546.92 678.5,-553.08 678.5,-553.08 678.5,-556.17 675.42,-559.25 672.33,-559.25"/>
<text text-anchor="start" x="605.25" y="-546.7" font-family="Helvetica,sans-Serif" font-size="9.00">ViewManager.js</text>
</a>
</g>
</g>
<!-- src/js/directable/dotmatrix/DirectableDotMatrix.js&#45;&gt;src/js/directable/dotmatrix/view/ViewManager.js -->
<g id="edge7" class="edge">
<title>src/js/directable/dotmatrix/DirectableDotMatrix.js&#45;&gt;src/js/directable/dotmatrix/view/ViewManager.js</title>
<path fill="none" stroke="#000000" stroke-width="2" stroke-opacity="0.200000" d="M506.52,-615.33C524.37,-602.67 557.46,-580.37 588.25,-566 590.55,-564.92 592.95,-563.89 595.39,-562.9"/>
<polygon fill="#000000" fill-opacity="0.200000" stroke="#000000" stroke-width="2" stroke-opacity="0.200000" points="596.07,-564.89 600.94,-560.79 594.58,-560.96 596.07,-564.89"/>
</g>
<!-- src/js/directable/dotmatrix/grid/GridData.js -->
<g id="node12" class="node">
<title>src/js/directable/dotmatrix/grid/GridData.js</title>
<g id="a_node12"><a xlink:href="src/js/directable/dotmatrix/grid/GridData.js" xlink:title="GridData.js">
<path fill="#ffffcc" stroke="black" d="M1041.83,-604.25C1041.83,-604.25 992.42,-604.25 992.42,-604.25 989.33,-604.25 986.25,-601.17 986.25,-598.08 986.25,-598.08 986.25,-591.92 986.25,-591.92 986.25,-588.83 989.33,-585.75 992.42,-585.75 992.42,-585.75 1041.83,-585.75 1041.83,-585.75 1044.92,-585.75 1048,-588.83 1048,-591.92 1048,-591.92 1048,-598.08 1048,-598.08 1048,-601.17 1044.92,-604.25 1041.83,-604.25"/>
<text text-anchor="start" x="994.25" y="-591.7" font-family="Helvetica,sans-Serif" font-size="9.00">GridData.js</text>
</a>
</g>
</g>
<!-- src/js/directable/dotmatrix/view/ViewManager.js&#45;&gt;src/js/directable/dotmatrix/grid/GridData.js -->
<g id="edge23" class="edge">
<title>src/js/directable/dotmatrix/view/ViewManager.js&#45;&gt;src/js/directable/dotmatrix/grid/GridData.js</title>
<path fill="none" stroke="#000000" stroke-width="2" stroke-opacity="0.200000" d="M676.98,-559.73C685.66,-561.69 694.86,-563.59 703.5,-565 801.26,-580.96 917.71,-589.38 977.09,-592.92"/>
<polygon fill="#000000" fill-opacity="0.200000" stroke="#000000" stroke-width="2" stroke-opacity="0.200000" points="976.64,-595 982.75,-593.25 976.89,-590.8 976.64,-595"/>
</g>
<!-- src/js/directable/dotmatrix/dot/DotManager.js -->
<g id="node13" class="node">
<title>src/js/directable/dotmatrix/dot/DotManager.js</title>
<g id="a_node13"><a xlink:href="src/js/directable/dotmatrix/dot/DotManager.js" xlink:title="DotManager.js">
<path fill="#ffffcc" stroke="black" d="M797.96,-682.25C797.96,-682.25 735.04,-682.25 735.04,-682.25 731.96,-682.25 728.88,-679.17 728.88,-676.08 728.88,-676.08 728.88,-669.92 728.88,-669.92 728.88,-666.83 731.96,-663.75 735.04,-663.75 735.04,-663.75 797.96,-663.75 797.96,-663.75 801.04,-663.75 804.12,-666.83 804.12,-669.92 804.12,-669.92 804.12,-676.08 804.12,-676.08 804.12,-679.17 801.04,-682.25 797.96,-682.25"/>
<text text-anchor="start" x="736.88" y="-669.7" font-family="Helvetica,sans-Serif" font-size="9.00">DotManager.js</text>
</a>
</g>
</g>
<!-- src/js/directable/dotmatrix/view/ViewManager.js&#45;&gt;src/js/directable/dotmatrix/dot/DotManager.js -->
<g id="edge22" class="edge">
<title>src/js/directable/dotmatrix/view/ViewManager.js&#45;&gt;src/js/directable/dotmatrix/dot/DotManager.js</title>
<path fill="none" stroke="#000000" stroke-width="2" stroke-opacity="0.200000" d="M678.73,-554.69C685.15,-557.14 691.12,-560.74 695.5,-566 707.64,-580.58 691.84,-636.03 703.5,-651 707.84,-656.57 713.71,-660.74 720.11,-663.85"/>
<polygon fill="#000000" fill-opacity="0.200000" stroke="#000000" stroke-width="2" stroke-opacity="0.200000" points="719.27,-665.78 725.62,-666.11 720.86,-661.89 719.27,-665.78"/>
</g>
<!-- src/js/directable/dotmatrix/shape/ShapeManager.js -->
<g id="node15" class="node">
<title>src/js/directable/dotmatrix/shape/ShapeManager.js</title>
<g id="a_node15"><a xlink:href="src/js/directable/dotmatrix/shape/ShapeManager.js" xlink:title="ShapeManager.js">
<path fill="#ffffcc" stroke="black" d="M804.33,-498.25C804.33,-498.25 728.67,-498.25 728.67,-498.25 725.58,-498.25 722.5,-495.17 722.5,-492.08 722.5,-492.08 722.5,-485.92 722.5,-485.92 722.5,-482.83 725.58,-479.75 728.67,-479.75 728.67,-479.75 804.33,-479.75 804.33,-479.75 807.42,-479.75 810.5,-482.83 810.5,-485.92 810.5,-485.92 810.5,-492.08 810.5,-492.08 810.5,-495.17 807.42,-498.25 804.33,-498.25"/>
<text text-anchor="start" x="730.5" y="-485.7" font-family="Helvetica,sans-Serif" font-size="9.00">ShapeManager.js</text>
</a>
</g>
</g>
<!-- src/js/directable/dotmatrix/view/ViewManager.js&#45;&gt;src/js/directable/dotmatrix/shape/ShapeManager.js -->
<g id="edge24" class="edge">
<title>src/js/directable/dotmatrix/view/ViewManager.js&#45;&gt;src/js/directable/dotmatrix/shape/ShapeManager.js</title>
<path fill="none" stroke="#000000" stroke-width="2" stroke-opacity="0.200000" d="M658.94,-540.33C680.15,-530.12 713.76,-513.92 737.56,-502.46"/>
<polygon fill="#000000" fill-opacity="0.200000" stroke="#000000" stroke-width="2" stroke-opacity="0.200000" points="738.31,-504.43 742.8,-499.93 736.49,-500.65 738.31,-504.43"/>
</g>
<!-- src/js/directable/dotmatrix/view/ViewTest.js -->
<g id="node35" class="node">
<title>src/js/directable/dotmatrix/view/ViewTest.js</title>
<g id="a_node35"><a xlink:href="src/js/directable/dotmatrix/view/ViewTest.js" xlink:title="ViewTest.js">
<path fill="#ffffcc" stroke="black" d="M791.21,-559.25C791.21,-559.25 741.79,-559.25 741.79,-559.25 738.71,-559.25 735.62,-556.17 735.62,-553.08 735.62,-553.08 735.62,-546.92 735.62,-546.92 735.62,-543.83 738.71,-540.75 741.79,-540.75 741.79,-540.75 791.21,-540.75 791.21,-540.75 794.29,-540.75 797.38,-543.83 797.38,-546.92 797.38,-546.92 797.38,-553.08 797.38,-553.08 797.38,-556.17 794.29,-559.25 791.21,-559.25"/>
<text text-anchor="start" x="743.62" y="-546.7" font-family="Helvetica,sans-Serif" font-size="9.00">ViewTest.js</text>
</a>
</g>
</g>
<!-- src/js/directable/dotmatrix/view/ViewManager.js&#45;&gt;src/js/directable/dotmatrix/view/ViewTest.js -->
<g id="edge25" class="edge">
<title>src/js/directable/dotmatrix/view/ViewManager.js&#45;&gt;src/js/directable/dotmatrix/view/ViewTest.js</title>
<path fill="none" stroke="#000000" stroke-width="2" stroke-opacity="0.200000" d="M678.94,-550C694.2,-550 711.56,-550 726.7,-550"/>
<polygon fill="#000000" fill-opacity="0.200000" stroke="#000000" stroke-width="2" stroke-opacity="0.200000" points="726.3,-552.1 732.3,-550 726.3,-547.9 726.3,-552.1"/>
</g>
<!-- src/js/directable/dotmatrix/dot/Dot.js -->
<g id="node11" class="node">
<title>src/js/directable/dotmatrix/dot/Dot.js</title>
<g id="a_node11"><a xlink:href="src/js/directable/dotmatrix/dot/Dot.js" xlink:title="Dot.js">
<path fill="#ffffcc" stroke="black" d="M914.33,-682.25C914.33,-682.25 872.67,-682.25 872.67,-682.25 869.58,-682.25 866.5,-679.17 866.5,-676.08 866.5,-676.08 866.5,-669.92 866.5,-669.92 866.5,-666.83 869.58,-663.75 872.67,-663.75 872.67,-663.75 914.33,-663.75 914.33,-663.75 917.42,-663.75 920.5,-666.83 920.5,-669.92 920.5,-669.92 920.5,-676.08 920.5,-676.08 920.5,-679.17 917.42,-682.25 914.33,-682.25"/>
<text text-anchor="start" x="881.88" y="-669.7" font-family="Helvetica,sans-Serif" font-size="9.00">Dot.js</text>
</a>
</g>
</g>
<!-- src/js/directable/dotmatrix/dot/Dot.js&#45;&gt;src/js/render/RenderSurface.js -->
<g id="edge8" class="edge">
<title>src/js/directable/dotmatrix/dot/Dot.js&#45;&gt;src/js/render/RenderSurface.js</title>
<path fill="none" stroke="#000000" stroke-width="2" stroke-opacity="0.200000" d="M896.71,-682.6C911.21,-745.4 992.53,-1097.76 1011.96,-1181.94"/>
<polygon fill="#000000" fill-opacity="0.200000" stroke="#000000" stroke-width="2" stroke-opacity="0.200000" points="1009.89,-1182.32 1013.28,-1187.69 1013.98,-1181.37 1009.89,-1182.32"/>
</g>
<!-- src/js/directable/dotmatrix/dot/Dot.js&#45;&gt;src/js/directable/dotmatrix/grid/GridData.js -->
<g id="edge9" class="edge">
<title>src/js/directable/dotmatrix/dot/Dot.js&#45;&gt;src/js/directable/dotmatrix/grid/GridData.js</title>
<path fill="none" stroke="#000000" stroke-width="2" stroke-opacity="0.200000" d="M913.33,-663.34C926.04,-656.62 943.07,-647.25 957.5,-638 971.1,-629.28 985.75,-618.54 997.01,-609.97"/>
<polygon fill="#000000" fill-opacity="0.200000" stroke="#000000" stroke-width="2" stroke-opacity="0.200000" points="997.99,-611.86 1001.47,-606.54 995.43,-608.53 997.99,-611.86"/>
</g>
<!-- src/js/directable/dotmatrix/dot/DotManager.js&#45;&gt;src/js/directable/dotmatrix/dot/Dot.js -->
<g id="edge11" class="edge">
<title>src/js/directable/dotmatrix/dot/DotManager.js&#45;&gt;src/js/directable/dotmatrix/dot/Dot.js</title>
<path fill="none" stroke="#000000" stroke-width="2" stroke-opacity="0.200000" d="M804.33,-673C821.1,-673 840.85,-673 857.41,-673"/>
<polygon fill="#000000" fill-opacity="0.200000" stroke="#000000" stroke-width="2" stroke-opacity="0.200000" points="857.21,-675.1 863.21,-673 857.21,-670.9 857.21,-675.1"/>
</g>
<!-- src/js/directable/dotmatrix/dot/DotManager.js&#45;&gt;src/js/directable/dotmatrix/grid/GridData.js -->
<g id="edge10" class="edge">
<title>src/js/directable/dotmatrix/dot/DotManager.js&#45;&gt;src/js/directable/dotmatrix/grid/GridData.js</title>
<path fill="none" stroke="#000000" stroke-width="2" stroke-opacity="0.200000" d="M798.49,-663.28C843.8,-649.06 928.1,-622.62 977.43,-607.14"/>
<polygon fill="#000000" fill-opacity="0.200000" stroke="#000000" stroke-width="2" stroke-opacity="0.200000" points="977.93,-609.18 983.03,-605.38 976.68,-605.18 977.93,-609.18"/>
</g>
<!-- src/js/directable/dotmatrix/shape/Shape.js -->
<g id="node14" class="node">
<title>src/js/directable/dotmatrix/shape/Shape.js</title>
<g id="a_node14"><a xlink:href="src/js/directable/dotmatrix/shape/Shape.js" xlink:title="Shape.js">
<path fill="#ffffcc" stroke="black" d="M1037.96,-381.25C1037.96,-381.25 996.29,-381.25 996.29,-381.25 993.21,-381.25 990.12,-378.17 990.12,-375.08 990.12,-375.08 990.12,-368.92 990.12,-368.92 990.12,-365.83 993.21,-362.75 996.29,-362.75 996.29,-362.75 1037.96,-362.75 1037.96,-362.75 1041.04,-362.75 1044.12,-365.83 1044.12,-368.92 1044.12,-368.92 1044.12,-375.08 1044.12,-375.08 1044.12,-378.17 1041.04,-381.25 1037.96,-381.25"/>
<text text-anchor="start" x="999.12" y="-368.7" font-family="Helvetica,sans-Serif" font-size="9.00">Shape.js</text>
</a>
</g>
</g>
<!-- src/js/directable/dotmatrix/shape/fill/FillStrategyType.js -->
<g id="node16" class="node">
<title>src/js/directable/dotmatrix/shape/fill/FillStrategyType.js</title>
<g id="a_node16"><a xlink:href="src/js/directable/dotmatrix/shape/fill/FillStrategyType.js" xlink:title="FillStrategyType.js">
<path fill="#ffffcc" stroke="black" d="M1161.58,-439.25C1161.58,-439.25 1082.92,-439.25 1082.92,-439.25 1079.83,-439.25 1076.75,-436.17 1076.75,-433.08 1076.75,-433.08 1076.75,-426.92 1076.75,-426.92 1076.75,-423.83 1079.83,-420.75 1082.92,-420.75 1082.92,-420.75 1161.58,-420.75 1161.58,-420.75 1164.67,-420.75 1167.75,-423.83 1167.75,-426.92 1167.75,-426.92 1167.75,-433.08 1167.75,-433.08 1167.75,-436.17 1164.67,-439.25 1161.58,-439.25"/>
<text text-anchor="start" x="1084.75" y="-426.7" font-family="Helvetica,sans-Serif" font-size="9.00">FillStrategyType.js</text>
</a>
</g>
</g>
<!-- src/js/directable/dotmatrix/shape/ShapeManager.js&#45;&gt;src/js/directable/dotmatrix/shape/fill/FillStrategyType.js -->
<g id="edge12" class="edge">
<title>src/js/directable/dotmatrix/shape/ShapeManager.js&#45;&gt;src/js/directable/dotmatrix/shape/fill/FillStrategyType.js</title>
<path fill="none" stroke="#000000" stroke-width="2" stroke-opacity="0.200000" d="M810.83,-488.47C891.82,-487.3 1058.88,-483.93 1068.75,-476 1079.51,-467.36 1067.41,-456.16 1076.75,-446 1077.19,-445.52 1077.64,-445.06 1078.11,-444.61"/>
<polygon fill="#000000" fill-opacity="0.200000" stroke="#000000" stroke-width="2" stroke-opacity="0.200000" points="1078.9,-446.64 1082.43,-441.35 1076.37,-443.29 1078.9,-446.64"/>
</g>
<!-- src/js/directable/dotmatrix/shape/fill/FillType.js -->
<g id="node17" class="node">
<title>src/js/directable/dotmatrix/shape/fill/FillType.js</title>
<g id="a_node17"><a xlink:href="src/js/directable/dotmatrix/shape/fill/FillType.js" xlink:title="FillType.js">
<path fill="#ffffcc" stroke="black" d="M1144.71,-470.25C1144.71,-470.25 1099.79,-470.25 1099.79,-470.25 1096.71,-470.25 1093.62,-467.17 1093.62,-464.08 1093.62,-464.08 1093.62,-457.92 1093.62,-457.92 1093.62,-454.83 1096.71,-451.75 1099.79,-451.75 1099.79,-451.75 1144.71,-451.75 1144.71,-451.75 1147.79,-451.75 1150.88,-454.83 1150.88,-457.92 1150.88,-457.92 1150.88,-464.08 1150.88,-464.08 1150.88,-467.17 1147.79,-470.25 1144.71,-470.25"/>
<text text-anchor="start" x="1101.62" y="-457.7" font-family="Helvetica,sans-Serif" font-size="9.00">FillType.js</text>
</a>
</g>
</g>
<!-- src/js/directable/dotmatrix/shape/ShapeManager.js&#45;&gt;src/js/directable/dotmatrix/shape/fill/FillType.js -->
<g id="edge13" class="edge">
<title>src/js/directable/dotmatrix/shape/ShapeManager.js&#45;&gt;src/js/directable/dotmatrix/shape/fill/FillType.js</title>
<path fill="none" stroke="#000000" stroke-width="2" stroke-opacity="0.200000" d="M810.88,-494.74C870.08,-501.22 979.06,-508.31 1068.75,-487 1079.05,-484.55 1089.66,-479.79 1098.62,-475.01"/>
<polygon fill="#000000" fill-opacity="0.200000" stroke="#000000" stroke-width="2" stroke-opacity="0.200000" points="1099.49,-476.93 1103.69,-472.16 1097.43,-473.27 1099.49,-476.93"/>
</g>
<!-- src/js/directable/dotmatrix/shape/line/ShapeLineHorizontal.js -->
<g id="node18" class="node">
<title>src/js/directable/dotmatrix/shape/line/ShapeLineHorizontal.js</title>
<g id="a_node18"><a xlink:href="src/js/directable/dotmatrix/shape/line/ShapeLineHorizontal.js" xlink:title="ShapeLineHorizontal.js">
<path fill="#ffffcc" stroke="black" d="M943.33,-416.25C943.33,-416.25 843.67,-416.25 843.67,-416.25 840.58,-416.25 837.5,-413.17 837.5,-410.08 837.5,-410.08 837.5,-403.92 837.5,-403.92 837.5,-400.83 840.58,-397.75 843.67,-397.75 843.67,-397.75 943.33,-397.75 943.33,-397.75 946.42,-397.75 949.5,-400.83 949.5,-403.92 949.5,-403.92 949.5,-410.08 949.5,-410.08 949.5,-413.17 946.42,-416.25 943.33,-416.25"/>
<text text-anchor="start" x="845.5" y="-403.7" font-family="Helvetica,sans-Serif" font-size="9.00">ShapeLineHorizontal.js</text>
</a>
</g>
</g>
<!-- src/js/directable/dotmatrix/shape/ShapeManager.js&#45;&gt;src/js/directable/dotmatrix/shape/line/ShapeLineHorizontal.js -->
<g id="edge14" class="edge">
<title>src/js/directable/dotmatrix/shape/ShapeManager.js&#45;&gt;src/js/directable/dotmatrix/shape/line/ShapeLineHorizontal.js</title>
<path fill="none" stroke="#000000" stroke-width="2" stroke-opacity="0.200000" d="M810.87,-482.87C814.86,-480.87 818.51,-478.31 821.5,-475 837.18,-457.65 813.78,-440.31 829.5,-423 829.78,-422.69 830.07,-422.38 830.37,-422.08"/>
<polygon fill="#000000" fill-opacity="0.200000" stroke="#000000" stroke-width="2" stroke-opacity="0.200000" points="831.52,-423.85 834.86,-418.44 828.88,-420.58 831.52,-423.85"/>
</g>
<!-- src/js/directable/dotmatrix/shape/line/ShapeLineHorizontal.js&#45;&gt;src/js/directable/dotmatrix/shape/Shape.js -->
<g id="edge21" class="edge">
<title>src/js/directable/dotmatrix/shape/line/ShapeLineHorizontal.js&#45;&gt;src/js/directable/dotmatrix/shape/Shape.js</title>
<path fill="none" stroke="#000000" stroke-width="2" stroke-opacity="0.200000" d="M928.38,-397.25C944.9,-392.5 964.74,-386.79 981.38,-382"/>
<polygon fill="#000000" fill-opacity="0.200000" stroke="#000000" stroke-width="2" stroke-opacity="0.200000" points="981.65,-384.11 986.84,-380.43 980.49,-380.07 981.65,-384.11"/>
</g>
<!-- src/js/directable/dotmatrix/shape/line/ShapeLineHorizontal.js&#45;&gt;src/js/directable/dotmatrix/shape/fill/FillStrategyType.js -->
<g id="edge19" class="edge">
<title>src/js/directable/dotmatrix/shape/line/ShapeLineHorizontal.js&#45;&gt;src/js/directable/dotmatrix/shape/fill/FillStrategyType.js</title>
<path fill="none" stroke="#000000" stroke-width="2" stroke-opacity="0.200000" d="M949.78,-399.2C984.41,-395.99 1029.72,-394.86 1068.75,-404 1079.06,-406.41 1089.67,-411.17 1098.63,-415.95"/>
<polygon fill="#000000" fill-opacity="0.200000" stroke="#000000" stroke-width="2" stroke-opacity="0.200000" points="1097.44,-417.69 1103.7,-418.81 1099.5,-414.03 1097.44,-417.69"/>
</g>
<!-- src/js/directable/dotmatrix/shape/line/ShapeLineHorizontal.js&#45;&gt;src/js/directable/dotmatrix/shape/fill/FillType.js -->
<g id="edge20" class="edge">
<title>src/js/directable/dotmatrix/shape/line/ShapeLineHorizontal.js&#45;&gt;src/js/directable/dotmatrix/shape/fill/FillType.js</title>
<path fill="none" stroke="#000000" stroke-width="2" stroke-opacity="0.200000" d="M949.74,-406.32C997.26,-406.25 1059.58,-407.62 1068.75,-415 1079.5,-423.66 1067.41,-434.84 1076.75,-445 1079.25,-447.72 1082.25,-449.98 1085.49,-451.85"/>
<polygon fill="#000000" fill-opacity="0.200000" stroke="#000000" stroke-width="2" stroke-opacity="0.200000" points="1084.31,-453.62 1090.63,-454.28 1086.1,-449.82 1084.31,-453.62"/>
</g>
<!-- src/js/directable/dotmatrix/shape/fill/Fill.js -->
<g id="node19" class="node">
<title>src/js/directable/dotmatrix/shape/fill/Fill.js</title>
<g id="a_node19"><a xlink:href="src/js/directable/dotmatrix/shape/fill/Fill.js" xlink:title="Fill.js">
<path fill="#ffffcc" stroke="black" d="M1037.96,-470.25C1037.96,-470.25 996.29,-470.25 996.29,-470.25 993.21,-470.25 990.12,-467.17 990.12,-464.08 990.12,-464.08 990.12,-457.92 990.12,-457.92 990.12,-454.83 993.21,-451.75 996.29,-451.75 996.29,-451.75 1037.96,-451.75 1037.96,-451.75 1041.04,-451.75 1044.12,-454.83 1044.12,-457.92 1044.12,-457.92 1044.12,-464.08 1044.12,-464.08 1044.12,-467.17 1041.04,-470.25 1037.96,-470.25"/>
<text text-anchor="start" x="1006.62" y="-457.7" font-family="Helvetica,sans-Serif" font-size="9.00">Fill.js</text>
</a>
</g>
</g>
<!-- src/js/directable/dotmatrix/shape/line/ShapeLineHorizontal.js&#45;&gt;src/js/directable/dotmatrix/shape/fill/Fill.js -->
<g id="edge17" class="edge">
<title>src/js/directable/dotmatrix/shape/line/ShapeLineHorizontal.js&#45;&gt;src/js/directable/dotmatrix/shape/fill/Fill.js</title>
<path fill="none" stroke="#000000" stroke-width="2" stroke-opacity="0.200000" d="M948.64,-416.75C951.83,-418.51 954.82,-420.58 957.5,-423 965.22,-429.98 957.99,-437.8 965.5,-445 969.93,-449.24 975.47,-452.36 981.25,-454.65"/>
<polygon fill="#000000" fill-opacity="0.200000" stroke="#000000" stroke-width="2" stroke-opacity="0.200000" points="980.56,-456.63 986.92,-456.51 981.87,-452.64 980.56,-456.63"/>
</g>
<!-- src/js/directable/dotmatrix/shape/fill/FillStrategy.js -->
<g id="node20" class="node">
<title>src/js/directable/dotmatrix/shape/fill/FillStrategy.js</title>
<g id="a_node20"><a xlink:href="src/js/directable/dotmatrix/shape/fill/FillStrategy.js" xlink:title="FillStrategy.js">
<path fill="#ffffcc" stroke="black" d="M1045.96,-439.25C1045.96,-439.25 988.29,-439.25 988.29,-439.25 985.21,-439.25 982.12,-436.17 982.12,-433.08 982.12,-433.08 982.12,-426.92 982.12,-426.92 982.12,-423.83 985.21,-420.75 988.29,-420.75 988.29,-420.75 1045.96,-420.75 1045.96,-420.75 1049.04,-420.75 1052.12,-423.83 1052.12,-426.92 1052.12,-426.92 1052.12,-433.08 1052.12,-433.08 1052.12,-436.17 1049.04,-439.25 1045.96,-439.25"/>
<text text-anchor="start" x="990.12" y="-426.7" font-family="Helvetica,sans-Serif" font-size="9.00">FillStrategy.js</text>
</a>
</g>
</g>
<!-- src/js/directable/dotmatrix/shape/line/ShapeLineHorizontal.js&#45;&gt;src/js/directable/dotmatrix/shape/fill/FillStrategy.js -->
<g id="edge18" class="edge">
<title>src/js/directable/dotmatrix/shape/line/ShapeLineHorizontal.js&#45;&gt;src/js/directable/dotmatrix/shape/fill/FillStrategy.js</title>
<path fill="none" stroke="#000000" stroke-width="2" stroke-opacity="0.200000" d="M945.73,-416.69C954.88,-418.42 964.33,-420.21 973.22,-421.89"/>
<polygon fill="#000000" fill-opacity="0.200000" stroke="#000000" stroke-width="2" stroke-opacity="0.200000" points="972.63,-423.91 978.92,-422.96 973.41,-419.79 972.63,-423.91"/>
</g>
<!-- src/js/directable/dotmatrix/shape/fill/Fill.js&#45;&gt;src/js/directable/dotmatrix/shape/fill/FillType.js -->
<g id="edge15" class="edge">
<title>src/js/directable/dotmatrix/shape/fill/Fill.js&#45;&gt;src/js/directable/dotmatrix/shape/fill/FillType.js</title>
<path fill="none" stroke="#000000" stroke-width="2" stroke-opacity="0.200000" d="M1044.41,-461C1056.54,-461 1071.13,-461 1084.33,-461"/>
<polygon fill="#000000" fill-opacity="0.200000" stroke="#000000" stroke-width="2" stroke-opacity="0.200000" points="1084.17,-463.1 1090.17,-461 1084.17,-458.9 1084.17,-463.1"/>
</g>
<!-- src/js/directable/dotmatrix/shape/fill/FillStrategy.js&#45;&gt;src/js/directable/dotmatrix/shape/fill/FillStrategyType.js -->
<g id="edge16" class="edge">
<title>src/js/directable/dotmatrix/shape/fill/FillStrategy.js&#45;&gt;src/js/directable/dotmatrix/shape/fill/FillStrategyType.js</title>
<path fill="none" stroke="#000000" stroke-width="2" stroke-opacity="0.200000" d="M1052.46,-430C1057.42,-430 1062.61,-430 1067.83,-430"/>
<polygon fill="#000000" fill-opacity="0.200000" stroke="#000000" stroke-width="2" stroke-opacity="0.200000" points="1067.58,-432.1 1073.58,-430 1067.58,-427.9 1067.58,-432.1"/>
</g>
<!-- src/js/directable/dotmatrix/shape/glyph/ShapeGlyph_A.js -->
<g id="node21" class="node">
<title>src/js/directable/dotmatrix/shape/glyph/ShapeGlyph_A.js</title>
<g id="a_node21"><a xlink:href="src/js/directable/dotmatrix/shape/glyph/ShapeGlyph_A.js" xlink:title="ShapeGlyph_A.js">
<path fill="#ccffcc" stroke="black" d="M803.96,-74.25C803.96,-74.25 729.04,-74.25 729.04,-74.25 725.96,-74.25 722.88,-71.17 722.88,-68.08 722.88,-68.08 722.88,-61.92 722.88,-61.92 722.88,-58.83 725.96,-55.75 729.04,-55.75 729.04,-55.75 803.96,-55.75 803.96,-55.75 807.04,-55.75 810.12,-58.83 810.12,-61.92 810.12,-61.92 810.12,-68.08 810.12,-68.08 810.12,-71.17 807.04,-74.25 803.96,-74.25"/>
<text text-anchor="start" x="730.88" y="-61.7" font-family="Helvetica,sans-Serif" font-size="9.00">ShapeGlyph_A.js</text>
</a>
</g>
</g>
<!-- src/js/directable/dotmatrix/shape/glyph/ShapeGlyph_B.js -->
<g id="node22" class="node">
<title>src/js/directable/dotmatrix/shape/glyph/ShapeGlyph_B.js</title>
<g id="a_node22"><a xlink:href="src/js/directable/dotmatrix/shape/glyph/ShapeGlyph_B.js" xlink:title="ShapeGlyph_B.js">
<path fill="#ccffcc" stroke="black" d="M803.96,-105.25C803.96,-105.25 729.04,-105.25 729.04,-105.25 725.96,-105.25 722.88,-102.17 722.88,-99.08 722.88,-99.08 722.88,-92.92 722.88,-92.92 722.88,-89.83 725.96,-86.75 729.04,-86.75 729.04,-86.75 803.96,-86.75 803.96,-86.75 807.04,-86.75 810.12,-89.83 810.12,-92.92 810.12,-92.92 810.12,-99.08 810.12,-99.08 810.12,-102.17 807.04,-105.25 803.96,-105.25"/>
<text text-anchor="start" x="730.88" y="-92.7" font-family="Helvetica,sans-Serif" font-size="9.00">ShapeGlyph_B.js</text>
</a>
</g>
</g>
<!-- src/js/directable/dotmatrix/shape/glyph/ShapeGlyph_C.js -->
<g id="node23" class="node">
<title>src/js/directable/dotmatrix/shape/glyph/ShapeGlyph_C.js</title>
<g id="a_node23"><a xlink:href="src/js/directable/dotmatrix/shape/glyph/ShapeGlyph_C.js" xlink:title="ShapeGlyph_C.js">
<path fill="#ccffcc" stroke="black" d="M804.33,-136.25C804.33,-136.25 728.67,-136.25 728.67,-136.25 725.58,-136.25 722.5,-133.17 722.5,-130.08 722.5,-130.08 722.5,-123.92 722.5,-123.92 722.5,-120.83 725.58,-117.75 728.67,-117.75 728.67,-117.75 804.33,-117.75 804.33,-117.75 807.42,-117.75 810.5,-120.83 810.5,-123.92 810.5,-123.92 810.5,-130.08 810.5,-130.08 810.5,-133.17 807.42,-136.25 804.33,-136.25"/>
<text text-anchor="start" x="730.5" y="-123.7" font-family="Helvetica,sans-Serif" font-size="9.00">ShapeGlyph_C.js</text>
</a>
</g>
</g>
<!-- src/js/directable/dotmatrix/shape/glyph/ShapeGlyph_D.js -->
<g id="node24" class="node">
<title>src/js/directable/dotmatrix/shape/glyph/ShapeGlyph_D.js</title>
<g id="a_node24"><a xlink:href="src/js/directable/dotmatrix/shape/glyph/ShapeGlyph_D.js" xlink:title="ShapeGlyph_D.js">
<path fill="#ccffcc" stroke="black" d="M804.33,-167.25C804.33,-167.25 728.67,-167.25 728.67,-167.25 725.58,-167.25 722.5,-164.17 722.5,-161.08 722.5,-161.08 722.5,-154.92 722.5,-154.92 722.5,-151.83 725.58,-148.75 728.67,-148.75 728.67,-148.75 804.33,-148.75 804.33,-148.75 807.42,-148.75 810.5,-151.83 810.5,-154.92 810.5,-154.92 810.5,-161.08 810.5,-161.08 810.5,-164.17 807.42,-167.25 804.33,-167.25"/>
<text text-anchor="start" x="730.5" y="-154.7" font-family="Helvetica,sans-Serif" font-size="9.00">ShapeGlyph_D.js</text>
</a>
</g>
</g>
<!-- src/js/directable/dotmatrix/shape/glyph/ShapeGlyph_E.js -->
<g id="node25" class="node">
<title>src/js/directable/dotmatrix/shape/glyph/ShapeGlyph_E.js</title>
<g id="a_node25"><a xlink:href="src/js/directable/dotmatrix/shape/glyph/ShapeGlyph_E.js" xlink:title="ShapeGlyph_E.js">
<path fill="#ccffcc" stroke="black" d="M803.96,-198.25C803.96,-198.25 729.04,-198.25 729.04,-198.25 725.96,-198.25 722.88,-195.17 722.88,-192.08 722.88,-192.08 722.88,-185.92 722.88,-185.92 722.88,-182.83 725.96,-179.75 729.04,-179.75 729.04,-179.75 803.96,-179.75 803.96,-179.75 807.04,-179.75 810.12,-182.83 810.12,-185.92 810.12,-185.92 810.12,-192.08 810.12,-192.08 810.12,-195.17 807.04,-198.25 803.96,-198.25"/>
<text text-anchor="start" x="730.88" y="-185.7" font-family="Helvetica,sans-Serif" font-size="9.00">ShapeGlyph_E.js</text>
</a>
</g>
</g>
<!-- src/js/directable/dotmatrix/shape/glyph/ShapeGlyph_F.js -->
<g id="node26" class="node">
<title>src/js/directable/dotmatrix/shape/glyph/ShapeGlyph_F.js</title>
<g id="a_node26"><a xlink:href="src/js/directable/dotmatrix/shape/glyph/ShapeGlyph_F.js" xlink:title="ShapeGlyph_F.js">
<path fill="#ccffcc" stroke="black" d="M803.21,-229.25C803.21,-229.25 729.79,-229.25 729.79,-229.25 726.71,-229.25 723.62,-226.17 723.62,-223.08 723.62,-223.08 723.62,-216.92 723.62,-216.92 723.62,-213.83 726.71,-210.75 729.79,-210.75 729.79,-210.75 803.21,-210.75 803.21,-210.75 806.29,-210.75 809.38,-213.83 809.38,-216.92 809.38,-216.92 809.38,-223.08 809.38,-223.08 809.38,-226.17 806.29,-229.25 803.21,-229.25"/>
<text text-anchor="start" x="731.62" y="-216.7" font-family="Helvetica,sans-Serif" font-size="9.00">ShapeGlyph_F.js</text>
</a>
</g>
</g>
<!-- src/js/directable/dotmatrix/shape/glyph/ShapeGlyph_G.js -->
<g id="node27" class="node">
<title>src/js/directable/dotmatrix/shape/glyph/ShapeGlyph_G.js</title>
<g id="a_node27"><a xlink:href="src/js/directable/dotmatrix/shape/glyph/ShapeGlyph_G.js" xlink:title="ShapeGlyph_G.js">
<path fill="#ccffcc" stroke="black" d="M804.33,-260.25C804.33,-260.25 728.67,-260.25 728.67,-260.25 725.58,-260.25 722.5,-257.17 722.5,-254.08 722.5,-254.08 722.5,-247.92 722.5,-247.92 722.5,-244.83 725.58,-241.75 728.67,-241.75 728.67,-241.75 804.33,-241.75 804.33,-241.75 807.42,-241.75 810.5,-244.83 810.5,-247.92 810.5,-247.92 810.5,-254.08 810.5,-254.08 810.5,-257.17 807.42,-260.25 804.33,-260.25"/>
<text text-anchor="start" x="730.5" y="-247.7" font-family="Helvetica,sans-Serif" font-size="9.00">ShapeGlyph_G.js</text>
</a>
</g>
</g>
<!-- src/js/directable/dotmatrix/shape/glyph/ShapeGlyph_H.js -->
<g id="node28" class="node">
<title>src/js/directable/dotmatrix/shape/glyph/ShapeGlyph_H.js</title>
<g id="a_node28"><a xlink:href="src/js/directable/dotmatrix/shape/glyph/ShapeGlyph_H.js" xlink:title="ShapeGlyph_H.js">
<path fill="#ccffcc" stroke="black" d="M804.33,-291.25C804.33,-291.25 728.67,-291.25 728.67,-291.25 725.58,-291.25 722.5,-288.17 722.5,-285.08 722.5,-285.08 722.5,-278.92 722.5,-278.92 722.5,-275.83 725.58,-272.75 728.67,-272.75 728.67,-272.75 804.33,-272.75 804.33,-272.75 807.42,-272.75 810.5,-275.83 810.5,-278.92 810.5,-278.92 810.5,-285.08 810.5,-285.08 810.5,-288.17 807.42,-291.25 804.33,-291.25"/>
<text text-anchor="start" x="730.5" y="-278.7" font-family="Helvetica,sans-Serif" font-size="9.00">ShapeGlyph_H.js</text>
</a>
</g>
</g>
<!-- src/js/directable/dotmatrix/shape/glyph/ShapeGlyph_I.js -->
<g id="node29" class="node">
<title>src/js/directable/dotmatrix/shape/glyph/ShapeGlyph_I.js</title>
<g id="a_node29"><a xlink:href="src/js/directable/dotmatrix/shape/glyph/ShapeGlyph_I.js" xlink:title="ShapeGlyph_I.js">
<path fill="#ccffcc" stroke="black" d="M802.08,-322.25C802.08,-322.25 730.92,-322.25 730.92,-322.25 727.83,-322.25 724.75,-319.17 724.75,-316.08 724.75,-316.08 724.75,-309.92 724.75,-309.92 724.75,-306.83 727.83,-303.75 730.92,-303.75 730.92,-303.75 802.08,-303.75 802.08,-303.75 805.17,-303.75 808.25,-306.83 808.25,-309.92 808.25,-309.92 808.25,-316.08 808.25,-316.08 808.25,-319.17 805.17,-322.25 802.08,-322.25"/>
<text text-anchor="start" x="732.75" y="-309.7" font-family="Helvetica,sans-Serif" font-size="9.00">ShapeGlyph_I.js</text>
</a>
</g>
</g>
<!-- src/js/directable/dotmatrix/shape/glyph/ShapeGlyph_J.js -->
<g id="node30" class="node">
<title>src/js/directable/dotmatrix/shape/glyph/ShapeGlyph_J.js</title>
<g id="a_node30"><a xlink:href="src/js/directable/dotmatrix/shape/glyph/ShapeGlyph_J.js" xlink:title="ShapeGlyph_J.js">
<path fill="#ccffcc" stroke="black" d="M803.21,-353.25C803.21,-353.25 729.79,-353.25 729.79,-353.25 726.71,-353.25 723.62,-350.17 723.62,-347.08 723.62,-347.08 723.62,-340.92 723.62,-340.92 723.62,-337.83 726.71,-334.75 729.79,-334.75 729.79,-334.75 803.21,-334.75 803.21,-334.75 806.29,-334.75 809.38,-337.83 809.38,-340.92 809.38,-340.92 809.38,-347.08 809.38,-347.08 809.38,-350.17 806.29,-353.25 803.21,-353.25"/>
<text text-anchor="start" x="731.62" y="-340.7" font-family="Helvetica,sans-Serif" font-size="9.00">ShapeGlyph_J.js</text>
</a>
</g>
</g>
<!-- src/js/directable/dotmatrix/shape/glyph/ShapeGlyph_K.js -->
<g id="node31" class="node">
<title>src/js/directable/dotmatrix/shape/glyph/ShapeGlyph_K.js</title>
<g id="a_node31"><a xlink:href="src/js/directable/dotmatrix/shape/glyph/ShapeGlyph_K.js" xlink:title="ShapeGlyph_K.js">
<path fill="#ccffcc" stroke="black" d="M803.96,-384.25C803.96,-384.25 729.04,-384.25 729.04,-384.25 725.96,-384.25 722.88,-381.17 722.88,-378.08 722.88,-378.08 722.88,-371.92 722.88,-371.92 722.88,-368.83 725.96,-365.75 729.04,-365.75 729.04,-365.75 803.96,-365.75 803.96,-365.75 807.04,-365.75 810.12,-368.83 810.12,-371.92 810.12,-371.92 810.12,-378.08 810.12,-378.08 810.12,-381.17 807.04,-384.25 803.96,-384.25"/>
<text text-anchor="start" x="730.88" y="-371.7" font-family="Helvetica,sans-Serif" font-size="9.00">ShapeGlyph_K.js</text>
</a>
</g>
</g>
<!-- src/js/directable/dotmatrix/shape/line/ShapeLineVertical.js -->
<g id="node32" class="node">
<title>src/js/directable/dotmatrix/shape/line/ShapeLineVertical.js</title>
<g id="a_node32"><a xlink:href="src/js/directable/dotmatrix/shape/line/ShapeLineVertical.js" xlink:title="ShapeLineVertical.js">
<path fill="#ccffcc" stroke="black" d="M937.33,-447.25C937.33,-447.25 849.67,-447.25 849.67,-447.25 846.58,-447.25 843.5,-444.17 843.5,-441.08 843.5,-441.08 843.5,-434.92 843.5,-434.92 843.5,-431.83 846.58,-428.75 849.67,-428.75 849.67,-428.75 937.33,-428.75 937.33,-428.75 940.42,-428.75 943.5,-431.83 943.5,-434.92 943.5,-434.92 943.5,-441.08 943.5,-441.08 943.5,-444.17 940.42,-447.25 937.33,-447.25"/>
<text text-anchor="start" x="851.5" y="-434.7" font-family="Helvetica,sans-Serif" font-size="9.00">ShapeLineVertical.js</text>
</a>
</g>
</g>
<!-- src/js/directable/dotmatrix/shape/primative/ShapeRectangle.js -->
<g id="node33" class="node">
<title>src/js/directable/dotmatrix/shape/primative/ShapeRectangle.js</title>
<g id="a_node33"><a xlink:href="src/js/directable/dotmatrix/shape/primative/ShapeRectangle.js" xlink:title="ShapeRectangle.js">
<path fill="#ccffcc" stroke="black" d="M807.33,-445.25C807.33,-445.25 725.67,-445.25 725.67,-445.25 722.58,-445.25 719.5,-442.17 719.5,-439.08 719.5,-439.08 719.5,-432.92 719.5,-432.92 719.5,-429.83 722.58,-426.75 725.67,-426.75 725.67,-426.75 807.33,-426.75 807.33,-426.75 810.42,-426.75 813.5,-429.83 813.5,-432.92 813.5,-432.92 813.5,-439.08 813.5,-439.08 813.5,-442.17 810.42,-445.25 807.33,-445.25"/>
<text text-anchor="start" x="727.5" y="-432.7" font-family="Helvetica,sans-Serif" font-size="9.00">ShapeRectangle.js</text>
</a>
</g>
</g>
<!-- src/js/directable/dotmatrix/view/ViewFloor.js -->
<g id="node34" class="node">
<title>src/js/directable/dotmatrix/view/ViewFloor.js</title>
<g id="a_node34"><a xlink:href="src/js/directable/dotmatrix/view/ViewFloor.js" xlink:title="ViewFloor.js">
<path fill="#ccffcc" stroke="black" d="M664.46,-590.25C664.46,-590.25 611.29,-590.25 611.29,-590.25 608.21,-590.25 605.12,-587.17 605.12,-584.08 605.12,-584.08 605.12,-577.92 605.12,-577.92 605.12,-574.83 608.21,-571.75 611.29,-571.75 611.29,-571.75 664.46,-571.75 664.46,-571.75 667.54,-571.75 670.62,-574.83 670.62,-577.92 670.62,-577.92 670.62,-584.08 670.62,-584.08 670.62,-587.17 667.54,-590.25 664.46,-590.25"/>
<text text-anchor="start" x="613.12" y="-577.7" font-family="Helvetica,sans-Serif" font-size="9.00">ViewFloor.js</text>
</a>
</g>
</g>
<!-- src/js/directable/dotmatrix/view/ViewTest.js&#45;&gt;src/js/directable/dotmatrix/grid/GridData.js -->
<g id="edge26" class="edge">
<title>src/js/directable/dotmatrix/view/ViewTest.js&#45;&gt;src/js/directable/dotmatrix/grid/GridData.js</title>
<path fill="none" stroke="#000000" stroke-width="2" stroke-opacity="0.200000" d="M797.79,-555.34C835.3,-561.97 901.14,-573.67 957.5,-584 963.87,-585.17 970.63,-586.42 977.21,-587.65"/>
<polygon fill="#000000" fill-opacity="0.200000" stroke="#000000" stroke-width="2" stroke-opacity="0.200000" points="976.75,-589.7 983.03,-588.74 977.52,-585.57 976.75,-589.7"/>
</g>
<!-- src/js/directable/dotmatrix/view/ViewTest.js&#45;&gt;src/js/directable/dotmatrix/shape/fill/FillStrategyType.js -->
<g id="edge27" class="edge">
<title>src/js/directable/dotmatrix/view/ViewTest.js&#45;&gt;src/js/directable/dotmatrix/shape/fill/FillStrategyType.js</title>
<path fill="none" stroke="#000000" stroke-width="2" stroke-opacity="0.200000" d="M797.63,-545.12C836.39,-538.95 905.84,-528.25 965.5,-521 988.38,-518.22 1052.24,-527.09 1068.75,-511 1089.6,-490.69 1058.58,-468.74 1076.75,-446 1076.87,-445.85 1076.99,-445.7 1077.12,-445.55"/>
<polygon fill="#000000" fill-opacity="0.200000" stroke="#000000" stroke-width="2" stroke-opacity="0.200000" points="1078.29,-447.32 1081.38,-441.76 1075.5,-444.18 1078.29,-447.32"/>
</g>
<!-- src/js/directable/dotmatrix/view/ViewTest.js&#45;&gt;src/js/directable/dotmatrix/shape/fill/FillType.js -->
<g id="edge28" class="edge">
<title>src/js/directable/dotmatrix/view/ViewTest.js&#45;&gt;src/js/directable/dotmatrix/shape/fill/FillType.js</title>
<path fill="none" stroke="#000000" stroke-width="2" stroke-opacity="0.200000" d="M797.71,-553.91C854.34,-559.79 978.84,-565.83 1068.75,-520 1087.13,-510.63 1102.04,-491.89 1111.21,-478.04"/>
<polygon fill="#000000" fill-opacity="0.200000" stroke="#000000" stroke-width="2" stroke-opacity="0.200000" points="1112.89,-479.31 1114.32,-473.11 1109.34,-477.07 1112.89,-479.31"/>
</g>
<!-- src/js/directable/dotmatrix/view/ViewTextTest.js -->
<g id="node36" class="node">
<title>src/js/directable/dotmatrix/view/ViewTextTest.js</title>
<g id="a_node36"><a xlink:href="src/js/directable/dotmatrix/view/ViewTextTest.js" xlink:title="ViewTextTest.js">
<path fill="#ccffcc" stroke="black" d="M670.83,-621.25C670.83,-621.25 604.92,-621.25 604.92,-621.25 601.83,-621.25 598.75,-618.17 598.75,-615.08 598.75,-615.08 598.75,-608.92 598.75,-608.92 598.75,-605.83 601.83,-602.75 604.92,-602.75 604.92,-602.75 670.83,-602.75 670.83,-602.75 673.92,-602.75 677,-605.83 677,-608.92 677,-608.92 677,-615.08 677,-615.08 677,-618.17 673.92,-621.25 670.83,-621.25"/>
<text text-anchor="start" x="606.75" y="-608.7" font-family="Helvetica,sans-Serif" font-size="9.00">ViewTextTest.js</text>
</a>
</g>
</g>
<!-- src/js/directable/frame/DirectableFrame.js -->
<g id="node37" class="node">
<title>src/js/directable/frame/DirectableFrame.js</title>
<g id="a_node37"><a xlink:href="src/js/directable/frame/DirectableFrame.js" xlink:title="DirectableFrame.js">
<path fill="#ffffcc" stroke="black" d="M532.71,-770.25C532.71,-770.25 451.79,-770.25 451.79,-770.25 448.71,-770.25 445.62,-767.17 445.62,-764.08 445.62,-764.08 445.62,-757.92 445.62,-757.92 445.62,-754.83 448.71,-751.75 451.79,-751.75 451.79,-751.75 532.71,-751.75 532.71,-751.75 535.79,-751.75 538.88,-754.83 538.88,-757.92 538.88,-757.92 538.88,-764.08 538.88,-764.08 538.88,-767.17 535.79,-770.25 532.71,-770.25"/>
<text text-anchor="start" x="453.62" y="-757.7" font-family="Helvetica,sans-Serif" font-size="9.00">DirectableFrame.js</text>
</a>
</g>
</g>
<!-- src/js/directable/rhythm/DirectableRhythm.js -->
<g id="node38" class="node">
<title>src/js/directable/rhythm/DirectableRhythm.js</title>
<g id="a_node38"><a xlink:href="src/js/directable/rhythm/DirectableRhythm.js" xlink:title="DirectableRhythm.js">
<path fill="#ffffcc" stroke="black" d="M680.96,-962.25C680.96,-962.25 594.79,-962.25 594.79,-962.25 591.71,-962.25 588.62,-959.17 588.62,-956.08 588.62,-956.08 588.62,-949.92 588.62,-949.92 588.62,-946.83 591.71,-943.75 594.79,-943.75 594.79,-943.75 680.96,-943.75 680.96,-943.75 684.04,-943.75 687.12,-946.83 687.12,-949.92 687.12,-949.92 687.12,-956.08 687.12,-956.08 687.12,-959.17 684.04,-962.25 680.96,-962.25"/>
<text text-anchor="start" x="596.62" y="-949.7" font-family="Helvetica,sans-Serif" font-size="9.00">DirectableRhythm.js</text>
</a>
</g>
</g>
<!-- src/js/directable/rhythm/asdr/ASDRData.js -->
<g id="node39" class="node">
<title>src/js/directable/rhythm/asdr/ASDRData.js</title>
<g id="a_node39"><a xlink:href="src/js/directable/rhythm/asdr/ASDRData.js" xlink:title="ASDRData.js">
<path fill="#ccffcc" stroke="black" d="M521.08,-839.25C521.08,-839.25 463.42,-839.25 463.42,-839.25 460.33,-839.25 457.25,-836.17 457.25,-833.08 457.25,-833.08 457.25,-826.92 457.25,-826.92 457.25,-823.83 460.33,-820.75 463.42,-820.75 463.42,-820.75 521.08,-820.75 521.08,-820.75 524.17,-820.75 527.25,-823.83 527.25,-826.92 527.25,-826.92 527.25,-833.08 527.25,-833.08 527.25,-836.17 524.17,-839.25 521.08,-839.25"/>
<text text-anchor="start" x="465.25" y="-826.7" font-family="Helvetica,sans-Serif" font-size="9.00">ASDRData.js</text>
</a>
</g>
</g>
<!-- src/js/directable/rhythm/asdr/ASDREnvelope.js -->
<g id="node40" class="node">
<title>src/js/directable/rhythm/asdr/ASDREnvelope.js</title>
<g id="a_node40"><a xlink:href="src/js/directable/rhythm/asdr/ASDREnvelope.js" xlink:title="ASDREnvelope.js">
<path fill="#ffffcc" stroke="black" d="M530.83,-870.25C530.83,-870.25 453.67,-870.25 453.67,-870.25 450.58,-870.25 447.5,-867.17 447.5,-864.08 447.5,-864.08 447.5,-857.92 447.5,-857.92 447.5,-854.83 450.58,-851.75 453.67,-851.75 453.67,-851.75 530.83,-851.75 530.83,-851.75 533.92,-851.75 537,-854.83 537,-857.92 537,-857.92 537,-864.08 537,-864.08 537,-867.17 533.92,-870.25 530.83,-870.25"/>
<text text-anchor="start" x="455.5" y="-857.7" font-family="Helvetica,sans-Serif" font-size="9.00">ASDREnvelope.js</text>
</a>
</g>
</g>
<!-- src/js/directable/rhythm/asdr/DirectableRhythmASDRManager.js -->
<g id="node41" class="node">
<title>src/js/directable/rhythm/asdr/DirectableRhythmASDRManager.js</title>
<g id="a_node41"><a xlink:href="src/js/directable/rhythm/asdr/DirectableRhythmASDRManager.js" xlink:title="DirectableRhythmASDRManager.js">
<path fill="#ffffcc" stroke="black" d="M566.08,-901.25C566.08,-901.25 418.42,-901.25 418.42,-901.25 415.33,-901.25 412.25,-898.17 412.25,-895.08 412.25,-895.08 412.25,-888.92 412.25,-888.92 412.25,-885.83 415.33,-882.75 418.42,-882.75 418.42,-882.75 566.08,-882.75 566.08,-882.75 569.17,-882.75 572.25,-885.83 572.25,-888.92 572.25,-888.92 572.25,-895.08 572.25,-895.08 572.25,-898.17 569.17,-901.25 566.08,-901.25"/>
<text text-anchor="start" x="420.25" y="-888.7" font-family="Helvetica,sans-Serif" font-size="9.00">DirectableRhythmASDRManager.js</text>
</a>
</g>
</g>
<!-- src/js/directable/rhythm/bpm/DirectableRhythmBPM.js -->
<g id="node42" class="node">
<title>src/js/directable/rhythm/bpm/DirectableRhythmBPM.js</title>
<g id="a_node42"><a xlink:href="src/js/directable/rhythm/bpm/DirectableRhythmBPM.js" xlink:title="DirectableRhythmBPM.js">
<path fill="#ffffcc" stroke="black" d="M545.08,-962.25C545.08,-962.25 439.42,-962.25 439.42,-962.25 436.33,-962.25 433.25,-959.17 433.25,-956.08 433.25,-956.08 433.25,-949.92 433.25,-949.92 433.25,-946.83 436.33,-943.75 439.42,-943.75 439.42,-943.75 545.08,-943.75 545.08,-943.75 548.17,-943.75 551.25,-946.83 551.25,-949.92 551.25,-949.92 551.25,-956.08 551.25,-956.08 551.25,-959.17 548.17,-962.25 545.08,-962.25"/>
<text text-anchor="start" x="441.25" y="-949.7" font-family="Helvetica,sans-Serif" font-size="9.00">DirectableRhythmBPM.js</text>
</a>
</g>
</g>
<!-- src/js/directable/rhythm/bpm/DirectableRhythmBPM.js&#45;&gt;src/js/directable/rhythm/DirectableRhythm.js -->
<g id="edge29" class="edge">
<title>src/js/directable/rhythm/bpm/DirectableRhythmBPM.js&#45;&gt;src/js/directable/rhythm/DirectableRhythm.js</title>
<path fill="none" stroke="#000000" stroke-width="2" stroke-opacity="0.200000" d="M551.67,-953C560.75,-953 570.14,-953 579.21,-953"/>
<polygon fill="#000000" fill-opacity="0.200000" stroke="#000000" stroke-width="2" stroke-opacity="0.200000" points="579.12,-955.1 585.12,-953 579.12,-950.9 579.12,-955.1"/>
</g>
<!-- src/js/directable/rhythm2/ViewRhythm.js -->
<g id="node43" class="node">
<title>src/js/directable/rhythm2/ViewRhythm.js</title>
<g id="a_node43"><a xlink:href="src/js/directable/rhythm2/ViewRhythm.js" xlink:title="ViewRhythm.js">
<path fill="#ffffcc" stroke="black" d="M524.46,-1050.25C524.46,-1050.25 460.04,-1050.25 460.04,-1050.25 456.96,-1050.25 453.88,-1047.17 453.88,-1044.08 453.88,-1044.08 453.88,-1037.92 453.88,-1037.92 453.88,-1034.83 456.96,-1031.75 460.04,-1031.75 460.04,-1031.75 524.46,-1031.75 524.46,-1031.75 527.54,-1031.75 530.62,-1034.83 530.62,-1037.92 530.62,-1037.92 530.62,-1044.08 530.62,-1044.08 530.62,-1047.17 527.54,-1050.25 524.46,-1050.25"/>
<text text-anchor="start" x="461.88" y="-1037.7" font-family="Helvetica,sans-Serif" font-size="9.00">ViewRhythm.js</text>
</a>
</g>
</g>
<!-- src/js/directable/rhythm2/ViewRhythmTrack.js -->
<g id="node44" class="node">
<title>src/js/directable/rhythm2/ViewRhythmTrack.js</title>
<g id="a_node44"><a xlink:href="src/js/directable/rhythm2/ViewRhythmTrack.js" xlink:title="ViewRhythmTrack.js">
<path fill="#ffffcc" stroke="black" d="M681.33,-1050.25C681.33,-1050.25 594.42,-1050.25 594.42,-1050.25 591.33,-1050.25 588.25,-1047.17 588.25,-1044.08 588.25,-1044.08 588.25,-1037.92 588.25,-1037.92 588.25,-1034.83 591.33,-1031.75 594.42,-1031.75 594.42,-1031.75 681.33,-1031.75 681.33,-1031.75 684.42,-1031.75 687.5,-1034.83 687.5,-1037.92 687.5,-1037.92 687.5,-1044.08 687.5,-1044.08 687.5,-1047.17 684.42,-1050.25 681.33,-1050.25"/>
<text text-anchor="start" x="596.25" y="-1037.7" font-family="Helvetica,sans-Serif" font-size="9.00">ViewRhythmTrack.js</text>
</a>
</g>
</g>
<!-- src/js/directable/rhythm2/ViewRhythm.js&#45;&gt;src/js/directable/rhythm2/ViewRhythmTrack.js -->
<g id="edge30" class="edge">
<title>src/js/directable/rhythm2/ViewRhythm.js&#45;&gt;src/js/directable/rhythm2/ViewRhythmTrack.js</title>
<path fill="none" stroke="#000000" stroke-width="2" stroke-opacity="0.200000" d="M530.99,-1041C545.64,-1041 562.76,-1041 578.91,-1041"/>
<polygon fill="#000000" fill-opacity="0.200000" stroke="#000000" stroke-width="2" stroke-opacity="0.200000" points="578.74,-1043.1 584.74,-1041 578.74,-1038.9 578.74,-1043.1"/>
</g>
<!-- src/js/index.js -->
<g id="node47" class="node">
<title>src/js/index.js</title>
<g id="a_node47"><a xlink:href="src/js/index.js" xlink:title="index.js">
<path fill="#ffffcc" stroke="black" d="M94.96,-1214.25C94.96,-1214.25 53.29,-1214.25 53.29,-1214.25 50.21,-1214.25 47.12,-1211.17 47.12,-1208.08 47.12,-1208.08 47.12,-1201.92 47.12,-1201.92 47.12,-1198.83 50.21,-1195.75 53.29,-1195.75 53.29,-1195.75 94.96,-1195.75 94.96,-1195.75 98.04,-1195.75 101.12,-1198.83 101.12,-1201.92 101.12,-1201.92 101.12,-1208.08 101.12,-1208.08 101.12,-1211.17 98.04,-1214.25 94.96,-1214.25"/>
<text text-anchor="start" x="58.38" y="-1201.7" font-family="Helvetica,sans-Serif" font-size="9.00">index.js</text>
</a>
</g>
</g>
<!-- src/js/index.js&#45;&gt;src/js/application/Application.js -->
<g id="edge35" class="edge">
<title>src/js/index.js&#45;&gt;src/js/application/Application.js</title>
<path fill="none" stroke="#000000" stroke-width="2" stroke-opacity="0.200000" d="M101.59,-1205C108.42,-1205 115.95,-1205 123.39,-1205"/>
<polygon fill="#000000" fill-opacity="0.200000" stroke="#000000" stroke-width="2" stroke-opacity="0.200000" points="123.01,-1207.1 129.01,-1205 123.01,-1202.9 123.01,-1207.1"/>
</g>
<!-- src/js/overlay/displayFormat/OverlayDisplayFormat.js&#45;&gt;src/js/display/DisplayFormats.js -->
<g id="edge38" class="edge">
<title>src/js/overlay/displayFormat/OverlayDisplayFormat.js&#45;&gt;src/js/display/DisplayFormats.js</title>
<path fill="none" stroke="#000000" stroke-width="2" stroke-opacity="0.200000" d="M505.89,-1292.71C523.32,-1305.44 556.2,-1327.18 588.25,-1336 664.23,-1356.91 686.69,-1341 765.5,-1341 765.5,-1341 765.5,-1341 1018.12,-1341 1098.76,-1341 1186.66,-1296.76 1227.63,-1273.27"/>
<polygon fill="#000000" fill-opacity="0.200000" stroke="#000000" stroke-width="2" stroke-opacity="0.200000" points="1228.68,-1275.09 1232.8,-1270.25 1226.56,-1271.46 1228.68,-1275.09"/>
</g>
<!-- src/js/overlay/OverlayUtil.js -->
<g id="node50" class="node">
<title>src/js/overlay/OverlayUtil.js</title>
<g id="a_node50"><a xlink:href="src/js/overlay/OverlayUtil.js" xlink:title="OverlayUtil.js">
<path fill="#ffffcc" stroke="black" d="M666.71,-1261.25C666.71,-1261.25 609.04,-1261.25 609.04,-1261.25 605.96,-1261.25 602.88,-1258.17 602.88,-1255.08 602.88,-1255.08 602.88,-1248.92 602.88,-1248.92 602.88,-1245.83 605.96,-1242.75 609.04,-1242.75 609.04,-1242.75 666.71,-1242.75 666.71,-1242.75 669.79,-1242.75 672.88,-1245.83 672.88,-1248.92 672.88,-1248.92 672.88,-1255.08 672.88,-1255.08 672.88,-1258.17 669.79,-1261.25 666.71,-1261.25"/>
<text text-anchor="start" x="610.88" y="-1248.7" font-family="Helvetica,sans-Serif" font-size="9.00">OverlayUtil.js</text>
</a>
</g>
</g>
<!-- src/js/overlay/displayFormat/OverlayDisplayFormat.js&#45;&gt;src/js/overlay/OverlayUtil.js -->
<g id="edge39" class="edge">
<title>src/js/overlay/displayFormat/OverlayDisplayFormat.js&#45;&gt;src/js/overlay/OverlayUtil.js</title>
<path fill="none" stroke="#000000" stroke-width="2" stroke-opacity="0.200000" d="M538.3,-1273.28C556.12,-1269.43 576.5,-1265.03 594.08,-1261.24"/>
<polygon fill="#000000" fill-opacity="0.200000" stroke="#000000" stroke-width="2" stroke-opacity="0.200000" points="594.09,-1263.38 599.51,-1260.06 593.2,-1259.28 594.09,-1263.38"/>
</g>
<!-- src/js/overlay/overlay/OverlayOverlay.js&#45;&gt;src/js/overlay/OverlayUtil.js -->
<g id="edge40" class="edge">
<title>src/js/overlay/overlay/OverlayOverlay.js&#45;&gt;src/js/overlay/OverlayUtil.js</title>
<path fill="none" stroke="#000000" stroke-width="2" stroke-opacity="0.200000" d="M536.34,-1231C554.52,-1234.8 575.64,-1239.21 593.81,-1243.01"/>
<polygon fill="#000000" fill-opacity="0.200000" stroke="#000000" stroke-width="2" stroke-opacity="0.200000" points="593.21,-1245.02 599.51,-1244.2 594.07,-1240.91 593.21,-1245.02"/>
</g>
</g>
</svg>
