<?xml version="1.0" encoding="UTF-8" standalone="no"?>
<!DOCTYPE svg PUBLIC "-//W3C//DTD SVG 1.1//EN"
 "http://www.w3.org/Graphics/SVG/1.1/DTD/svg11.dtd">
<!-- Generated by graphviz version 12.2.1 (20241206.2353)
 -->
<!-- Title: dependency&#45;cruiser output Pages: 1 -->
<svg width="846pt" height="1317pt"
 viewBox="0.00 0.00 845.50 1317.00" xmlns="http://www.w3.org/2000/svg" xmlns:xlink="http://www.w3.org/1999/xlink">
<g id="graph0" class="graph" transform="scale(1 1) rotate(0) translate(4 1313)">
<title>dependency&#45;cruiser output</title>
<polygon fill="white" stroke="none" points="-4,4 -4,-1313 841.5,-1313 841.5,4 -4,4"/>
<g id="clust1" class="cluster">
<title>cluster_src</title>
<path fill="#ffffff" stroke="black" stroke-width="2" d="M20,-8C20,-8 817.5,-8 817.5,-8 823.5,-8 829.5,-14 829.5,-20 829.5,-20 829.5,-1289 829.5,-1289 829.5,-1295 823.5,-1301 817.5,-1301 817.5,-1301 20,-1301 20,-1301 14,-1301 8,-1295 8,-1289 8,-1289 8,-20 8,-20 8,-14 14,-8 20,-8"/>
<text text-anchor="middle" x="418.75" y="-1288.45" font-family="Helvetica,sans-Serif" font-weight="bold" font-size="9.00">src</text>
</g>
<g id="clust2" class="cluster">
<title>cluster_src/js</title>
<path fill="#ffffff" stroke="black" stroke-width="2" d="M28,-16C28,-16 809.5,-16 809.5,-16 815.5,-16 821.5,-22 821.5,-28 821.5,-28 821.5,-1262 821.5,-1262 821.5,-1268 815.5,-1274 809.5,-1274 809.5,-1274 28,-1274 28,-1274 22,-1274 16,-1268 16,-1262 16,-1262 16,-28 16,-28 16,-22 22,-16 28,-16"/>
<text text-anchor="middle" x="418.75" y="-1261.45" font-family="Helvetica,sans-Serif" font-weight="bold" font-size="9.00">js</text>
</g>
<g id="clust3" class="cluster">
<title>cluster_src/js/application</title>
<path fill="#ffffff" stroke="black" stroke-width="2" d="M426.62,-584C426.62,-584 653.5,-584 653.5,-584 659.5,-584 665.5,-590 665.5,-596 665.5,-596 665.5,-656 665.5,-656 665.5,-662 659.5,-668 653.5,-668 653.5,-668 426.62,-668 426.62,-668 420.62,-668 414.62,-662 414.62,-656 414.62,-656 414.62,-596 414.62,-596 414.62,-590 420.62,-584 426.62,-584"/>
<text text-anchor="middle" x="540.06" y="-655.45" font-family="Helvetica,sans-Serif" font-weight="bold" font-size="9.00">application</text>
</g>
<g id="clust4" class="cluster">
<title>cluster_src/js/controller</title>
<path fill="#ffffff" stroke="black" stroke-width="2" d="M80.75,-382C80.75,-382 137.5,-382 137.5,-382 143.5,-382 149.5,-388 149.5,-394 149.5,-394 149.5,-423 149.5,-423 149.5,-429 143.5,-435 137.5,-435 137.5,-435 80.75,-435 80.75,-435 74.75,-435 68.75,-429 68.75,-423 68.75,-423 68.75,-394 68.75,-394 68.75,-388 74.75,-382 80.75,-382"/>
<text text-anchor="middle" x="109.12" y="-422.45" font-family="Helvetica,sans-Serif" font-weight="bold" font-size="9.00">controller</text>
</g>
<g id="clust5" class="cluster">
<title>cluster_src/js/data</title>
<path fill="#ffffff" stroke="black" stroke-width="2" d="M71,-539C71,-539 329.75,-539 329.75,-539 335.75,-539 341.75,-545 341.75,-551 341.75,-551 341.75,-580 341.75,-580 341.75,-586 335.75,-592 329.75,-592 329.75,-592 71,-592 71,-592 65,-592 59,-586 59,-580 59,-580 59,-551 59,-551 59,-545 65,-539 71,-539"/>
<text text-anchor="middle" x="200.38" y="-579.45" font-family="Helvetica,sans-Serif" font-weight="bold" font-size="9.00">data</text>
</g>
<g id="clust6" class="cluster">
<title>cluster_src/js/directable</title>
<path fill="#ffffff" stroke="black" stroke-width="2" d="M206.25,-722C206.25,-722 623.88,-722 623.88,-722 629.88,-722 635.88,-728 635.88,-734 635.88,-734 635.88,-1113 635.88,-1113 635.88,-1119 629.88,-1125 623.88,-1125 623.88,-1125 206.25,-1125 206.25,-1125 200.25,-1125 194.25,-1119 194.25,-1113 194.25,-1113 194.25,-734 194.25,-734 194.25,-728 200.25,-722 206.25,-722"/>
<text text-anchor="middle" x="415.06" y="-1112.45" font-family="Helvetica,sans-Serif" font-weight="bold" font-size="9.00">directable</text>
</g>
<g id="clust7" class="cluster">
<title>cluster_src/js/directable/directables</title>
<path fill="#ffffff" stroke="black" stroke-width="2" d="M214.25,-730C214.25,-730 511.25,-730 511.25,-730 517.25,-730 523.25,-736 523.25,-742 523.25,-742 523.25,-1086 523.25,-1086 523.25,-1092 517.25,-1098 511.25,-1098 511.25,-1098 214.25,-1098 214.25,-1098 208.25,-1098 202.25,-1092 202.25,-1086 202.25,-1086 202.25,-742 202.25,-742 202.25,-736 208.25,-730 214.25,-730"/>
<text text-anchor="middle" x="362.75" y="-1085.45" font-family="Helvetica,sans-Serif" font-weight="bold" font-size="9.00">directables</text>
</g>
<g id="clust8" class="cluster">
<title>cluster_src/js/directable/directables/frame</title>
<path fill="#ffffff" stroke="black" stroke-width="2" d="M263.62,-738C263.62,-738 348.88,-738 348.88,-738 354.88,-738 360.88,-744 360.88,-750 360.88,-750 360.88,-779 360.88,-779 360.88,-785 354.88,-791 348.88,-791 348.88,-791 263.62,-791 263.62,-791 257.62,-791 251.62,-785 251.62,-779 251.62,-779 251.62,-750 251.62,-750 251.62,-744 257.62,-738 263.62,-738"/>
<text text-anchor="middle" x="306.25" y="-778.45" font-family="Helvetica,sans-Serif" font-weight="bold" font-size="9.00">frame</text>
</g>
<g id="clust9" class="cluster">
<title>cluster_src/js/directable/directables/rhythm</title>
<path fill="#ffffff" stroke="black" stroke-width="2" d="M222.25,-799C222.25,-799 503.25,-799 503.25,-799 509.25,-799 515.25,-805 515.25,-811 515.25,-811 515.25,-998 515.25,-998 515.25,-1004 509.25,-1010 503.25,-1010 503.25,-1010 222.25,-1010 222.25,-1010 216.25,-1010 210.25,-1004 210.25,-998 210.25,-998 210.25,-811 210.25,-811 210.25,-805 216.25,-799 222.25,-799"/>
<text text-anchor="middle" x="362.75" y="-997.45" font-family="Helvetica,sans-Serif" font-weight="bold" font-size="9.00">rhythm</text>
</g>
<g id="clust10" class="cluster">
<title>cluster_src/js/directable/directables/rhythm/asdr</title>
<path fill="#ffffff" stroke="black" stroke-width="2" d="M230.25,-807C230.25,-807 382.25,-807 382.25,-807 388.25,-807 394.25,-813 394.25,-819 394.25,-819 394.25,-910 394.25,-910 394.25,-916 388.25,-922 382.25,-922 382.25,-922 230.25,-922 230.25,-922 224.25,-922 218.25,-916 218.25,-910 218.25,-910 218.25,-819 218.25,-819 218.25,-813 224.25,-807 230.25,-807"/>
<text text-anchor="middle" x="306.25" y="-909.45" font-family="Helvetica,sans-Serif" font-weight="bold" font-size="9.00">asdr</text>
</g>
<g id="clust11" class="cluster">
<title>cluster_src/js/directable/directables/rhythm/bpm</title>
<path fill="#ffffff" stroke="black" stroke-width="2" d="M251.25,-930C251.25,-930 361.25,-930 361.25,-930 367.25,-930 373.25,-936 373.25,-942 373.25,-942 373.25,-971 373.25,-971 373.25,-977 367.25,-983 361.25,-983 361.25,-983 251.25,-983 251.25,-983 245.25,-983 239.25,-977 239.25,-971 239.25,-971 239.25,-942 239.25,-942 239.25,-936 245.25,-930 251.25,-930"/>
<text text-anchor="middle" x="306.25" y="-970.45" font-family="Helvetica,sans-Serif" font-weight="bold" font-size="9.00">bpm</text>
</g>
<g id="clust12" class="cluster">
<title>cluster_src/js/directable/directables/title</title>
<path fill="#ffffff" stroke="black" stroke-width="2" d="M268.12,-1018C268.12,-1018 344.38,-1018 344.38,-1018 350.38,-1018 356.38,-1024 356.38,-1030 356.38,-1030 356.38,-1059 356.38,-1059 356.38,-1065 350.38,-1071 344.38,-1071 344.38,-1071 268.12,-1071 268.12,-1071 262.12,-1071 256.12,-1065 256.12,-1059 256.12,-1059 256.12,-1030 256.12,-1030 256.12,-1024 262.12,-1018 268.12,-1018"/>
<text text-anchor="middle" x="306.25" y="-1058.45" font-family="Helvetica,sans-Serif" font-weight="bold" font-size="9.00">title</text>
</g>
<g id="clust13" class="cluster">
<title>cluster_src/js/director</title>
<path fill="#ffffff" stroke="black" stroke-width="2" d="M36,-626C36,-626 330.5,-626 330.5,-626 336.5,-626 342.5,-632 342.5,-638 342.5,-638 342.5,-702 342.5,-702 342.5,-708 336.5,-714 330.5,-714 330.5,-714 36,-714 36,-714 30,-714 24,-708 24,-702 24,-702 24,-638 24,-638 24,-632 30,-626 36,-626"/>
<text text-anchor="middle" x="183.25" y="-701.45" font-family="Helvetica,sans-Serif" font-weight="bold" font-size="9.00">director</text>
</g>
<g id="clust14" class="cluster">
<title>cluster_src/js/director/directors</title>
<path fill="#ffffff" stroke="black" stroke-width="2" d="M44,-634C44,-634 174.25,-634 174.25,-634 180.25,-634 186.25,-640 186.25,-646 186.25,-646 186.25,-675 186.25,-675 186.25,-681 180.25,-687 174.25,-687 174.25,-687 44,-687 44,-687 38,-687 32,-681 32,-675 32,-675 32,-646 32,-646 32,-640 38,-634 44,-634"/>
<text text-anchor="middle" x="109.12" y="-674.45" font-family="Helvetica,sans-Serif" font-weight="bold" font-size="9.00">directors</text>
</g>
<g id="clust15" class="cluster">
<title>cluster_src/js/dispatcher</title>
<path fill="#ffffff" stroke="black" stroke-width="2" d="M56,-1133C56,-1133 349.25,-1133 349.25,-1133 355.25,-1133 361.25,-1139 361.25,-1145 361.25,-1145 361.25,-1174 361.25,-1174 361.25,-1180 355.25,-1186 349.25,-1186 349.25,-1186 56,-1186 56,-1186 50,-1186 44,-1180 44,-1174 44,-1174 44,-1145 44,-1145 44,-1139 50,-1133 56,-1133"/>
<text text-anchor="middle" x="202.62" y="-1173.45" font-family="Helvetica,sans-Serif" font-weight="bold" font-size="9.00">dispatcher</text>
</g>
<g id="clust16" class="cluster">
<title>cluster_src/js/overlay</title>
<path fill="#ffffff" stroke="black" stroke-width="2" d="M85.25,-24C85.25,-24 801.5,-24 801.5,-24 807.5,-24 813.5,-30 813.5,-36 813.5,-36 813.5,-354 813.5,-354 813.5,-360 807.5,-366 801.5,-366 801.5,-366 85.25,-366 85.25,-366 79.25,-366 73.25,-360 73.25,-354 73.25,-354 73.25,-36 73.25,-36 73.25,-30 79.25,-24 85.25,-24"/>
<text text-anchor="middle" x="443.38" y="-353.45" font-family="Helvetica,sans-Serif" font-weight="bold" font-size="9.00">overlay</text>
</g>
<g id="clust17" class="cluster">
<title>cluster_src/js/overlay/capture</title>
<path fill="#ffffff" stroke="black" stroke-width="2" d="M265.5,-164C265.5,-164 347,-164 347,-164 353,-164 359,-170 359,-176 359,-176 359,-205 359,-205 359,-211 353,-217 347,-217 347,-217 265.5,-217 265.5,-217 259.5,-217 253.5,-211 253.5,-205 253.5,-205 253.5,-176 253.5,-176 253.5,-170 259.5,-164 265.5,-164"/>
<text text-anchor="middle" x="306.25" y="-204.45" font-family="Helvetica,sans-Serif" font-weight="bold" font-size="9.00">capture</text>
</g>
<g id="clust18" class="cluster">
<title>cluster_src/js/overlay/dispatcher</title>
<path fill="#ffffff" stroke="black" stroke-width="2" d="M548.38,-255C548.38,-255 793.5,-255 793.5,-255 799.5,-255 805.5,-261 805.5,-267 805.5,-267 805.5,-296 805.5,-296 805.5,-302 799.5,-308 793.5,-308 793.5,-308 548.38,-308 548.38,-308 542.38,-308 536.38,-302 536.38,-296 536.38,-296 536.38,-267 536.38,-267 536.38,-261 542.38,-255 548.38,-255"/>
<text text-anchor="middle" x="670.94" y="-295.45" font-family="Helvetica,sans-Serif" font-weight="bold" font-size="9.00">dispatcher</text>
</g>
<g id="clust19" class="cluster">
<title>cluster_src/js/overlay/format</title>
<path fill="#ffffff" stroke="black" stroke-width="2" d="M267.75,-225C267.75,-225 344.75,-225 344.75,-225 350.75,-225 356.75,-231 356.75,-237 356.75,-237 356.75,-266 356.75,-266 356.75,-272 350.75,-278 344.75,-278 344.75,-278 267.75,-278 267.75,-278 261.75,-278 255.75,-272 255.75,-266 255.75,-266 255.75,-237 255.75,-237 255.75,-231 261.75,-225 267.75,-225"/>
<text text-anchor="middle" x="306.25" y="-265.45" font-family="Helvetica,sans-Serif" font-weight="bold" font-size="9.00">format</text>
</g>
<g id="clust20" class="cluster">
<title>cluster_src/js/overlay/media</title>
<path fill="#ffffff" stroke="black" stroke-width="2" d="M269.25,-286C269.25,-286 343.25,-286 343.25,-286 349.25,-286 355.25,-292 355.25,-298 355.25,-298 355.25,-327 355.25,-327 355.25,-333 349.25,-339 343.25,-339 343.25,-339 269.25,-339 269.25,-339 263.25,-339 257.25,-333 257.25,-327 257.25,-327 257.25,-298 257.25,-298 257.25,-292 263.25,-286 269.25,-286"/>
<text text-anchor="middle" x="306.25" y="-326.45" font-family="Helvetica,sans-Serif" font-weight="bold" font-size="9.00">media</text>
</g>
<g id="clust21" class="cluster">
<title>cluster_src/js/overlay/overlay</title>
<path fill="#ffffff" stroke="black" stroke-width="2" d="M266.62,-103C266.62,-103 345.88,-103 345.88,-103 351.88,-103 357.88,-109 357.88,-115 357.88,-115 357.88,-144 357.88,-144 357.88,-150 351.88,-156 345.88,-156 345.88,-156 266.62,-156 266.62,-156 260.62,-156 254.62,-150 254.62,-144 254.62,-144 254.62,-115 254.62,-115 254.62,-109 260.62,-103 266.62,-103"/>
<text text-anchor="middle" x="306.25" y="-143.45" font-family="Helvetica,sans-Serif" font-weight="bold" font-size="9.00">overlay</text>
</g>
<g id="clust22" class="cluster">
<title>cluster_src/js/overlay/rhythm</title>
<path fill="#ffffff" stroke="black" stroke-width="2" d="M266.25,-42C266.25,-42 346.25,-42 346.25,-42 352.25,-42 358.25,-48 358.25,-54 358.25,-54 358.25,-83 358.25,-83 358.25,-89 352.25,-95 346.25,-95 346.25,-95 266.25,-95 266.25,-95 260.25,-95 254.25,-89 254.25,-83 254.25,-83 254.25,-54 254.25,-54 254.25,-48 260.25,-42 266.25,-42"/>
<text text-anchor="middle" x="306.25" y="-82.45" font-family="Helvetica,sans-Serif" font-weight="bold" font-size="9.00">rhythm</text>
</g>
<g id="clust23" class="cluster">
<title>cluster_src/js/rhythm</title>
<path fill="#ffffff" stroke="black" stroke-width="2" d="M74.75,-1194C74.75,-1194 351.88,-1194 351.88,-1194 357.88,-1194 363.88,-1200 363.88,-1206 363.88,-1206 363.88,-1235 363.88,-1235 363.88,-1241 357.88,-1247 351.88,-1247 351.88,-1247 74.75,-1247 74.75,-1247 68.75,-1247 62.75,-1241 62.75,-1235 62.75,-1235 62.75,-1206 62.75,-1206 62.75,-1200 68.75,-1194 74.75,-1194"/>
<text text-anchor="middle" x="213.31" y="-1234.45" font-family="Helvetica,sans-Serif" font-weight="bold" font-size="9.00">rhythm</text>
</g>
<g id="clust24" class="cluster">
<title>cluster_src/js/view</title>
<path fill="#ffffff" stroke="black" stroke-width="2" d="M283.25,-374C283.25,-374 642,-374 642,-374 648,-374 654,-380 654,-386 654,-386 654,-481 654,-481 654,-487 648,-493 642,-493 642,-493 283.25,-493 283.25,-493 277.25,-493 271.25,-487 271.25,-481 271.25,-481 271.25,-386 271.25,-386 271.25,-380 277.25,-374 283.25,-374"/>
<text text-anchor="middle" x="462.62" y="-480.45" font-family="Helvetica,sans-Serif" font-weight="bold" font-size="9.00">view</text>
</g>
<g id="clust25" class="cluster">
<title>cluster_src/js/view/render</title>
<path fill="#ffffff" stroke="black" stroke-width="2" d="M414.25,-382C414.25,-382 634,-382 634,-382 640,-382 646,-388 646,-394 646,-394 646,-454 646,-454 646,-460 640,-466 634,-466 634,-466 414.25,-466 414.25,-466 408.25,-466 402.25,-460 402.25,-454 402.25,-454 402.25,-394 402.25,-394 402.25,-388 408.25,-382 414.25,-382"/>
<text text-anchor="middle" x="524.12" y="-453.45" font-family="Helvetica,sans-Serif" font-weight="bold" font-size="9.00">render</text>
</g>
<!-- src/js/application/Application.js -->
<g id="node1" class="node">
<title>src/js/application/Application.js</title>
<g id="a_node1"><a xlink:href="src/js/application/Application.js" xlink:title="Application.js">
<path fill="#ffffcc" stroke="black" d="M487.21,-615.25C487.21,-615.25 428.79,-615.25 428.79,-615.25 425.71,-615.25 422.62,-612.17 422.62,-609.08 422.62,-609.08 422.62,-602.92 422.62,-602.92 422.62,-599.83 425.71,-596.75 428.79,-596.75 428.79,-596.75 487.21,-596.75 487.21,-596.75 490.29,-596.75 493.38,-599.83 493.38,-602.92 493.38,-602.92 493.38,-609.08 493.38,-609.08 493.38,-612.17 490.29,-615.25 487.21,-615.25"/>
<text text-anchor="start" x="430.62" y="-602.7" font-family="Helvetica,sans-Serif" font-size="9.00">Application.js</text>
</a>
</g>
</g>
<!-- src/js/controller/Controller.js -->
<g id="node2" class="node">
<title>src/js/controller/Controller.js</title>
<g id="a_node2"><a xlink:href="src/js/controller/Controller.js" xlink:title="Controller.js">
<path fill="#ffffcc" stroke="black" d="M135.33,-408.25C135.33,-408.25 82.92,-408.25 82.92,-408.25 79.83,-408.25 76.75,-405.17 76.75,-402.08 76.75,-402.08 76.75,-395.92 76.75,-395.92 76.75,-392.83 79.83,-389.75 82.92,-389.75 82.92,-389.75 135.33,-389.75 135.33,-389.75 138.42,-389.75 141.5,-392.83 141.5,-395.92 141.5,-395.92 141.5,-402.08 141.5,-402.08 141.5,-405.17 138.42,-408.25 135.33,-408.25"/>
<text text-anchor="start" x="84.75" y="-395.7" font-family="Helvetica,sans-Serif" font-size="9.00">Controller.js</text>
</a>
</g>
</g>
<!-- src/js/application/Application.js&#45;&gt;src/js/controller/Controller.js -->
<g id="edge1" class="edge">
<title>src/js/application/Application.js&#45;&gt;src/js/controller/Controller.js</title>
<path fill="none" stroke="#000000" stroke-width="2" stroke-opacity="0.200000" d="M451.74,-596.44C442.48,-580.65 421.6,-549.55 394.25,-536 314.34,-496.42 271.57,-564.43 194.25,-520 153.59,-496.64 128.03,-444.71 116.79,-417.09"/>
<polygon fill="#000000" fill-opacity="0.200000" stroke="#000000" stroke-width="2" stroke-opacity="0.200000" points="118.77,-416.37 114.63,-411.55 114.85,-417.9 118.77,-416.37"/>
</g>
<!-- src/js/application/ApplicationConfiguration.js -->
<g id="node3" class="node">
<title>src/js/application/ApplicationConfiguration.js</title>
<g id="a_node3"><a xlink:href="src/js/application/ApplicationConfiguration.js" xlink:title="ApplicationConfiguration.js">
<path fill="#ffffcc" stroke="black" d="M651.33,-610.25C651.33,-610.25 537.42,-610.25 537.42,-610.25 534.33,-610.25 531.25,-607.17 531.25,-604.08 531.25,-604.08 531.25,-597.92 531.25,-597.92 531.25,-594.83 534.33,-591.75 537.42,-591.75 537.42,-591.75 651.33,-591.75 651.33,-591.75 654.42,-591.75 657.5,-594.83 657.5,-597.92 657.5,-597.92 657.5,-604.08 657.5,-604.08 657.5,-607.17 654.42,-610.25 651.33,-610.25"/>
<text text-anchor="start" x="539.25" y="-597.7" font-family="Helvetica,sans-Serif" font-size="9.00">ApplicationConfiguration.js</text>
</a>
</g>
</g>
<!-- src/js/application/Application.js&#45;&gt;src/js/application/ApplicationConfiguration.js -->
<g id="edge2" class="edge">
<title>src/js/application/Application.js&#45;&gt;src/js/application/ApplicationConfiguration.js</title>
<path fill="none" stroke="#000000" stroke-width="2" stroke-opacity="0.200000" d="M493.6,-604.71C502.45,-604.38 512.28,-604.02 522.23,-603.65"/>
<polygon fill="#000000" fill-opacity="0.200000" stroke="#000000" stroke-width="2" stroke-opacity="0.200000" points="522.04,-605.76 527.96,-603.43 521.88,-601.56 522.04,-605.76"/>
</g>
<!-- src/js/application/ApplicationLogger.js -->
<g id="node4" class="node">
<title>src/js/application/ApplicationLogger.js</title>
<g id="a_node4"><a xlink:href="src/js/application/ApplicationLogger.js" xlink:title="ApplicationLogger.js">
<path fill="#ffffcc" stroke="black" d="M637.83,-641.25C637.83,-641.25 550.92,-641.25 550.92,-641.25 547.83,-641.25 544.75,-638.17 544.75,-635.08 544.75,-635.08 544.75,-628.92 544.75,-628.92 544.75,-625.83 547.83,-622.75 550.92,-622.75 550.92,-622.75 637.83,-622.75 637.83,-622.75 640.92,-622.75 644,-625.83 644,-628.92 644,-628.92 644,-635.08 644,-635.08 644,-638.17 640.92,-641.25 637.83,-641.25"/>
<text text-anchor="start" x="552.75" y="-628.7" font-family="Helvetica,sans-Serif" font-size="9.00">ApplicationLogger.js</text>
</a>
</g>
</g>
<!-- src/js/application/Application.js&#45;&gt;src/js/application/ApplicationLogger.js -->
<g id="edge3" class="edge">
<title>src/js/application/Application.js&#45;&gt;src/js/application/ApplicationLogger.js</title>
<path fill="none" stroke="#000000" stroke-width="2" stroke-opacity="0.200000" d="M493.6,-612.7C506.42,-615.18 521.32,-618.06 535.64,-620.83"/>
<polygon fill="#000000" fill-opacity="0.200000" stroke="#000000" stroke-width="2" stroke-opacity="0.200000" points="535.19,-622.88 541.48,-621.96 535.99,-618.76 535.19,-622.88"/>
</g>
<!-- src/js/overlay/Overlay.js -->
<g id="node5" class="node">
<title>src/js/overlay/Overlay.js</title>
<g id="a_node5"><a xlink:href="src/js/overlay/Overlay.js" xlink:title="Overlay.js">
<path fill="#ffffcc" stroke="black" d="M130.83,-339.25C130.83,-339.25 87.42,-339.25 87.42,-339.25 84.33,-339.25 81.25,-336.17 81.25,-333.08 81.25,-333.08 81.25,-326.92 81.25,-326.92 81.25,-323.83 84.33,-320.75 87.42,-320.75 87.42,-320.75 130.83,-320.75 130.83,-320.75 133.92,-320.75 137,-323.83 137,-326.92 137,-326.92 137,-333.08 137,-333.08 137,-336.17 133.92,-339.25 130.83,-339.25"/>
<text text-anchor="start" x="89.25" y="-326.7" font-family="Helvetica,sans-Serif" font-size="9.00">Overlay.js</text>
</a>
</g>
</g>
<!-- src/js/controller/Controller.js&#45;&gt;src/js/overlay/Overlay.js -->
<g id="edge4" class="edge">
<title>src/js/controller/Controller.js&#45;&gt;src/js/overlay/Overlay.js</title>
<path fill="none" stroke="#000000" stroke-width="2" stroke-opacity="0.200000" d="M109.12,-389.27C109.12,-375.72 109.12,-362.16 109.12,-348.61"/>
<polygon fill="#000000" fill-opacity="0.200000" stroke="#000000" stroke-width="2" stroke-opacity="0.200000" points="111.23,-348.73 109.13,-342.73 107.03,-348.73 111.23,-348.73"/>
</g>
<!-- src/js/view/View.js -->
<g id="node6" class="node">
<title>src/js/view/View.js</title>
<g id="a_node6"><a xlink:href="src/js/view/View.js" xlink:title="View.js">
<path fill="#ffffcc" stroke="black" d="M327.08,-408.25C327.08,-408.25 285.42,-408.25 285.42,-408.25 282.33,-408.25 279.25,-405.17 279.25,-402.08 279.25,-402.08 279.25,-395.92 279.25,-395.92 279.25,-392.83 282.33,-389.75 285.42,-389.75 285.42,-389.75 327.08,-389.75 327.08,-389.75 330.17,-389.75 333.25,-392.83 333.25,-395.92 333.25,-395.92 333.25,-402.08 333.25,-402.08 333.25,-405.17 330.17,-408.25 327.08,-408.25"/>
<text text-anchor="start" x="292" y="-395.7" font-family="Helvetica,sans-Serif" font-size="9.00">View.js</text>
</a>
</g>
</g>
<!-- src/js/controller/Controller.js&#45;&gt;src/js/view/View.js -->
<g id="edge5" class="edge">
<title>src/js/controller/Controller.js&#45;&gt;src/js/view/View.js</title>
<path fill="none" stroke="#000000" stroke-width="2" stroke-opacity="0.200000" d="M141.91,-399C177.05,-399 233.51,-399 269.99,-399"/>
<polygon fill="#000000" fill-opacity="0.200000" stroke="#000000" stroke-width="2" stroke-opacity="0.200000" points="269.78,-401.1 275.78,-399 269.78,-396.9 269.78,-401.1"/>
</g>
<!-- src/js/overlay/Overlay.js&#45;&gt;src/js/application/ApplicationConfiguration.js -->
<g id="edge23" class="edge">
<title>src/js/overlay/Overlay.js&#45;&gt;src/js/application/ApplicationConfiguration.js</title>
<path fill="none" stroke="#000000" stroke-width="2" stroke-opacity="0.200000" d="M136.7,-339.73C153.96,-347.55 175.22,-360.33 186.25,-379 199.5,-401.44 175.64,-477.75 194.25,-496 220.38,-521.62 490.72,-495.23 523.25,-512 553.37,-527.53 574.71,-562.46 585.44,-583.65"/>
<polygon fill="#000000" fill-opacity="0.200000" stroke="#000000" stroke-width="2" stroke-opacity="0.200000" points="583.44,-584.33 587.95,-588.81 587.22,-582.5 583.44,-584.33"/>
</g>
<!-- src/js/overlay/Overlay.js&#45;&gt;src/js/application/ApplicationLogger.js -->
<g id="edge24" class="edge">
<title>src/js/overlay/Overlay.js&#45;&gt;src/js/application/ApplicationLogger.js</title>
<path fill="none" stroke="#000000" stroke-width="2" stroke-opacity="0.200000" d="M136.74,-339.71C154.01,-347.52 175.27,-360.3 186.25,-379 200.57,-403.39 174.37,-485.89 194.25,-506 209.91,-521.85 372.87,-514.71 394.25,-521 456.83,-539.4 481.64,-540.76 523.25,-591 530.69,-599.99 522.77,-607.99 531.25,-616 532.92,-617.57 534.71,-618.99 536.61,-620.28"/>
<polygon fill="#000000" fill-opacity="0.200000" stroke="#000000" stroke-width="2" stroke-opacity="0.200000" points="535.47,-622.05 541.73,-623.13 537.51,-618.38 535.47,-622.05"/>
</g>
<!-- src/js/overlay/dispatcher/OverlayDispatcher.js -->
<g id="node22" class="node">
<title>src/js/overlay/dispatcher/OverlayDispatcher.js</title>
<g id="a_node22"><a xlink:href="src/js/overlay/dispatcher/OverlayDispatcher.js" xlink:title="OverlayDispatcher.js">
<path fill="#ffffcc" stroke="black" d="M638.21,-281.25C638.21,-281.25 550.54,-281.25 550.54,-281.25 547.46,-281.25 544.38,-278.17 544.38,-275.08 544.38,-275.08 544.38,-268.92 544.38,-268.92 544.38,-265.83 547.46,-262.75 550.54,-262.75 550.54,-262.75 638.21,-262.75 638.21,-262.75 641.29,-262.75 644.38,-265.83 644.38,-268.92 644.38,-268.92 644.38,-275.08 644.38,-275.08 644.38,-278.17 641.29,-281.25 638.21,-281.25"/>
<text text-anchor="start" x="552.38" y="-268.7" font-family="Helvetica,sans-Serif" font-size="9.00">OverlayDispatcher.js</text>
</a>
</g>
</g>
<!-- src/js/overlay/Overlay.js&#45;&gt;src/js/overlay/dispatcher/OverlayDispatcher.js -->
<g id="edge25" class="edge">
<title>src/js/overlay/Overlay.js&#45;&gt;src/js/overlay/dispatcher/OverlayDispatcher.js</title>
<path fill="none" stroke="#000000" stroke-width="2" stroke-opacity="0.200000" d="M111.36,-320.42C117.55,-274.16 146.75,-74.71 194.25,-39 265.3,14.42 313.52,-1.8 394.25,-39 494.13,-85.03 562.53,-208.6 585.17,-254.51"/>
<polygon fill="#000000" fill-opacity="0.200000" stroke="#000000" stroke-width="2" stroke-opacity="0.200000" points="583.16,-255.17 587.66,-259.65 586.94,-253.34 583.16,-255.17"/>
</g>
<!-- src/js/overlay/overlay/OverlayOverlay.js -->
<g id="node23" class="node">
<title>src/js/overlay/overlay/OverlayOverlay.js</title>
<g id="a_node23"><a xlink:href="src/js/overlay/overlay/OverlayOverlay.js" xlink:title="OverlayOverlay.js">
<path fill="#ffffcc" stroke="black" d="M343.71,-129.25C343.71,-129.25 268.79,-129.25 268.79,-129.25 265.71,-129.25 262.62,-126.17 262.62,-123.08 262.62,-123.08 262.62,-116.92 262.62,-116.92 262.62,-113.83 265.71,-110.75 268.79,-110.75 268.79,-110.75 343.71,-110.75 343.71,-110.75 346.79,-110.75 349.88,-113.83 349.88,-116.92 349.88,-116.92 349.88,-123.08 349.88,-123.08 349.88,-126.17 346.79,-129.25 343.71,-129.25"/>
<text text-anchor="start" x="270.62" y="-116.7" font-family="Helvetica,sans-Serif" font-size="9.00">OverlayOverlay.js</text>
</a>
</g>
</g>
<!-- src/js/overlay/Overlay.js&#45;&gt;src/js/overlay/overlay/OverlayOverlay.js -->
<g id="edge26" class="edge">
<title>src/js/overlay/Overlay.js&#45;&gt;src/js/overlay/overlay/OverlayOverlay.js</title>
<path fill="none" stroke="#000000" stroke-width="2" stroke-opacity="0.200000" d="M112.24,-320.45C119.01,-292.05 142.78,-207.19 194.25,-161 210.84,-146.11 233.31,-136.48 253.69,-130.32"/>
<polygon fill="#000000" fill-opacity="0.200000" stroke="#000000" stroke-width="2" stroke-opacity="0.200000" points="254.16,-132.37 259.36,-128.72 253.01,-128.33 254.16,-132.37"/>
</g>
<!-- src/js/view/render/RenderController.js -->
<g id="node32" class="node">
<title>src/js/view/render/RenderController.js</title>
<g id="a_node32"><a xlink:href="src/js/view/render/RenderController.js" xlink:title="RenderController.js">
<path fill="#ffffcc" stroke="black" d="M499.58,-408.25C499.58,-408.25 416.42,-408.25 416.42,-408.25 413.33,-408.25 410.25,-405.17 410.25,-402.08 410.25,-402.08 410.25,-395.92 410.25,-395.92 410.25,-392.83 413.33,-389.75 416.42,-389.75 416.42,-389.75 499.58,-389.75 499.58,-389.75 502.67,-389.75 505.75,-392.83 505.75,-395.92 505.75,-395.92 505.75,-402.08 505.75,-402.08 505.75,-405.17 502.67,-408.25 499.58,-408.25"/>
<text text-anchor="start" x="418.25" y="-395.7" font-family="Helvetica,sans-Serif" font-size="9.00">RenderController.js</text>
</a>
</g>
</g>
<!-- src/js/view/View.js&#45;&gt;src/js/view/render/RenderController.js -->
<g id="edge37" class="edge">
<title>src/js/view/View.js&#45;&gt;src/js/view/render/RenderController.js</title>
<path fill="none" stroke="#000000" stroke-width="2" stroke-opacity="0.200000" d="M333.68,-399C352.28,-399 377.88,-399 400.94,-399"/>
<polygon fill="#000000" fill-opacity="0.200000" stroke="#000000" stroke-width="2" stroke-opacity="0.200000" points="400.94,-401.1 406.94,-399 400.94,-396.9 400.94,-401.1"/>
</g>
<!-- src/js/data/Data.json -->
<g id="node7" class="node">
<title>src/js/data/Data.json</title>
<g id="a_node7"><a xlink:href="src/js/data/Data.json" xlink:title="Data.json">
<path fill="#ffee44" stroke="black" d="M327.58,-565.25C327.58,-565.25 284.92,-565.25 284.92,-565.25 281.83,-565.25 278.75,-562.17 278.75,-559.08 278.75,-559.08 278.75,-552.92 278.75,-552.92 278.75,-549.83 281.83,-546.75 284.92,-546.75 284.92,-546.75 327.58,-546.75 327.58,-546.75 330.67,-546.75 333.75,-549.83 333.75,-552.92 333.75,-552.92 333.75,-559.08 333.75,-559.08 333.75,-562.17 330.67,-565.25 327.58,-565.25"/>
<text text-anchor="start" x="286.75" y="-552.7" font-family="Helvetica,sans-Serif" font-size="9.00">Data.json</text>
</a>
</g>
</g>
<!-- src/js/data/DataController.js -->
<g id="node8" class="node">
<title>src/js/data/DataController.js</title>
<g id="a_node8"><a xlink:href="src/js/data/DataController.js" xlink:title="DataController.js">
<path fill="#ffffcc" stroke="black" d="M145.08,-565.25C145.08,-565.25 73.17,-565.25 73.17,-565.25 70.08,-565.25 67,-562.17 67,-559.08 67,-559.08 67,-552.92 67,-552.92 67,-549.83 70.08,-546.75 73.17,-546.75 73.17,-546.75 145.08,-546.75 145.08,-546.75 148.17,-546.75 151.25,-549.83 151.25,-552.92 151.25,-552.92 151.25,-559.08 151.25,-559.08 151.25,-562.17 148.17,-565.25 145.08,-565.25"/>
<text text-anchor="start" x="75" y="-552.7" font-family="Helvetica,sans-Serif" font-size="9.00">DataController.js</text>
</a>
</g>
</g>
<!-- src/js/data/DataController.js&#45;&gt;src/js/data/Data.json -->
<g id="edge6" class="edge">
<title>src/js/data/DataController.js&#45;&gt;src/js/data/Data.json</title>
<path fill="none" stroke="#000000" stroke-width="2" stroke-opacity="0.200000" d="M151.51,-556C186.48,-556 236.06,-556 269.37,-556"/>
<polygon fill="#000000" fill-opacity="0.200000" stroke="#000000" stroke-width="2" stroke-opacity="0.200000" points="269.28,-558.1 275.28,-556 269.28,-553.9 269.28,-558.1"/>
</g>
<!-- src/js/directable/Directable.js -->
<g id="node9" class="node">
<title>src/js/directable/Directable.js</title>
<g id="a_node9"><a xlink:href="src/js/directable/Directable.js" xlink:title="Directable.js">
<path fill="#ffffcc" stroke="black" d="M621.71,-1028.25C621.71,-1028.25 567.04,-1028.25 567.04,-1028.25 563.96,-1028.25 560.88,-1025.17 560.88,-1022.08 560.88,-1022.08 560.88,-1015.92 560.88,-1015.92 560.88,-1012.83 563.96,-1009.75 567.04,-1009.75 567.04,-1009.75 621.71,-1009.75 621.71,-1009.75 624.79,-1009.75 627.88,-1012.83 627.88,-1015.92 627.88,-1015.92 627.88,-1022.08 627.88,-1022.08 627.88,-1025.17 624.79,-1028.25 621.71,-1028.25"/>
<text text-anchor="start" x="568.88" y="-1015.7" font-family="Helvetica,sans-Serif" font-size="9.00">Directable.js</text>
</a>
</g>
</g>
<!-- src/js/directable/directables/frame/DirectableFrame.js -->
<g id="node10" class="node">
<title>src/js/directable/directables/frame/DirectableFrame.js</title>
<g id="a_node10"><a xlink:href="src/js/directable/directables/frame/DirectableFrame.js" xlink:title="DirectableFrame.js">
<path fill="#ffffcc" stroke="black" d="M346.71,-764.25C346.71,-764.25 265.79,-764.25 265.79,-764.25 262.71,-764.25 259.62,-761.17 259.62,-758.08 259.62,-758.08 259.62,-751.92 259.62,-751.92 259.62,-748.83 262.71,-745.75 265.79,-745.75 265.79,-745.75 346.71,-745.75 346.71,-745.75 349.79,-745.75 352.88,-748.83 352.88,-751.92 352.88,-751.92 352.88,-758.08 352.88,-758.08 352.88,-761.17 349.79,-764.25 346.71,-764.25"/>
<text text-anchor="start" x="267.62" y="-751.7" font-family="Helvetica,sans-Serif" font-size="9.00">DirectableFrame.js</text>
</a>
</g>
</g>
<!-- src/js/directable/directables/frame/DirectableFrame.js&#45;&gt;src/js/application/ApplicationLogger.js -->
<g id="edge7" class="edge">
<title>src/js/directable/directables/frame/DirectableFrame.js&#45;&gt;src/js/application/ApplicationLogger.js</title>
<path fill="none" stroke="#000000" stroke-width="2" stroke-opacity="0.200000" d="M329.7,-745.35C380.68,-723.43 505.22,-669.9 563,-645.06"/>
<polygon fill="#000000" fill-opacity="0.200000" stroke="#000000" stroke-width="2" stroke-opacity="0.200000" points="563.56,-647.1 568.25,-642.8 561.9,-643.24 563.56,-647.1"/>
</g>
<!-- src/js/directable/directables/frame/DirectableFrame.js&#45;&gt;src/js/directable/Directable.js -->
<g id="edge8" class="edge">
<title>src/js/directable/directables/frame/DirectableFrame.js&#45;&gt;src/js/directable/Directable.js</title>
<path fill="none" stroke="#000000" stroke-width="2" stroke-opacity="0.200000" d="M340.32,-764.6C359.57,-772.05 382.33,-784.47 394.25,-804 406.36,-823.84 385.76,-996.62 402.25,-1013 412.6,-1023.28 498.9,-1022.27 551.93,-1020.63"/>
<polygon fill="#000000" fill-opacity="0.200000" stroke="#000000" stroke-width="2" stroke-opacity="0.200000" points="551.82,-1022.73 557.75,-1020.44 551.69,-1018.54 551.82,-1022.73"/>
</g>
<!-- src/js/directable/directables/rhythm/DirectableRhythm.js -->
<g id="node11" class="node">
<title>src/js/directable/directables/rhythm/DirectableRhythm.js</title>
<g id="a_node11"><a xlink:href="src/js/directable/directables/rhythm/DirectableRhythm.js" xlink:title="DirectableRhythm.js">
<path fill="#ffffcc" stroke="black" d="M501.08,-956.25C501.08,-956.25 414.92,-956.25 414.92,-956.25 411.83,-956.25 408.75,-953.17 408.75,-950.08 408.75,-950.08 408.75,-943.92 408.75,-943.92 408.75,-940.83 411.83,-937.75 414.92,-937.75 414.92,-937.75 501.08,-937.75 501.08,-937.75 504.17,-937.75 507.25,-940.83 507.25,-943.92 507.25,-943.92 507.25,-950.08 507.25,-950.08 507.25,-953.17 504.17,-956.25 501.08,-956.25"/>
<text text-anchor="start" x="416.75" y="-943.7" font-family="Helvetica,sans-Serif" font-size="9.00">DirectableRhythm.js</text>
</a>
</g>
</g>
<!-- src/js/directable/directables/rhythm/DirectableRhythm.js&#45;&gt;src/js/application/ApplicationLogger.js -->
<g id="edge9" class="edge">
<title>src/js/directable/directables/rhythm/DirectableRhythm.js&#45;&gt;src/js/application/ApplicationLogger.js</title>
<path fill="none" stroke="#000000" stroke-width="2" stroke-opacity="0.200000" d="M464.05,-937.54C476.45,-913.81 508.49,-849.56 523.25,-792 531.36,-760.38 519.61,-749.49 531.25,-719 541.79,-691.39 563.26,-664.46 577.98,-648.05"/>
<polygon fill="#000000" fill-opacity="0.200000" stroke="#000000" stroke-width="2" stroke-opacity="0.200000" points="579.26,-649.76 581.77,-643.92 576.17,-646.92 579.26,-649.76"/>
</g>
<!-- src/js/directable/directables/rhythm/DirectableRhythm.js&#45;&gt;src/js/directable/Directable.js -->
<g id="edge10" class="edge">
<title>src/js/directable/directables/rhythm/DirectableRhythm.js&#45;&gt;src/js/directable/Directable.js</title>
<path fill="none" stroke="#000000" stroke-width="2" stroke-opacity="0.200000" d="M507.58,-954.1C513,-955.69 518.33,-957.63 523.25,-960 544.97,-970.48 565.55,-989.23 578.73,-1002.79"/>
<polygon fill="#000000" fill-opacity="0.200000" stroke="#000000" stroke-width="2" stroke-opacity="0.200000" points="577.19,-1004.21 582.84,-1007.13 580.24,-1001.33 577.19,-1004.21"/>
</g>
<!-- src/js/directable/directables/rhythm/asdr/ASDRData.js -->
<g id="node12" class="node">
<title>src/js/directable/directables/rhythm/asdr/ASDRData.js</title>
<g id="a_node12"><a xlink:href="src/js/directable/directables/rhythm/asdr/ASDRData.js" xlink:title="ASDRData.js">
<path fill="#ccffcc" stroke="black" d="M335.08,-833.25C335.08,-833.25 277.42,-833.25 277.42,-833.25 274.33,-833.25 271.25,-830.17 271.25,-827.08 271.25,-827.08 271.25,-820.92 271.25,-820.92 271.25,-817.83 274.33,-814.75 277.42,-814.75 277.42,-814.75 335.08,-814.75 335.08,-814.75 338.17,-814.75 341.25,-817.83 341.25,-820.92 341.25,-820.92 341.25,-827.08 341.25,-827.08 341.25,-830.17 338.17,-833.25 335.08,-833.25"/>
<text text-anchor="start" x="279.25" y="-820.7" font-family="Helvetica,sans-Serif" font-size="9.00">ASDRData.js</text>
</a>
</g>
</g>
<!-- src/js/directable/directables/rhythm/asdr/ASDREnvelope.js -->
<g id="node13" class="node">
<title>src/js/directable/directables/rhythm/asdr/ASDREnvelope.js</title>
<g id="a_node13"><a xlink:href="src/js/directable/directables/rhythm/asdr/ASDREnvelope.js" xlink:title="ASDREnvelope.js">
<path fill="#ffffcc" stroke="black" d="M344.83,-864.25C344.83,-864.25 267.67,-864.25 267.67,-864.25 264.58,-864.25 261.5,-861.17 261.5,-858.08 261.5,-858.08 261.5,-851.92 261.5,-851.92 261.5,-848.83 264.58,-845.75 267.67,-845.75 267.67,-845.75 344.83,-845.75 344.83,-845.75 347.92,-845.75 351,-848.83 351,-851.92 351,-851.92 351,-858.08 351,-858.08 351,-861.17 347.92,-864.25 344.83,-864.25"/>
<text text-anchor="start" x="269.5" y="-851.7" font-family="Helvetica,sans-Serif" font-size="9.00">ASDREnvelope.js</text>
</a>
</g>
</g>
<!-- src/js/directable/directables/rhythm/asdr/ASDREnvelope.js&#45;&gt;src/js/application/ApplicationLogger.js -->
<g id="edge11" class="edge">
<title>src/js/directable/directables/rhythm/asdr/ASDREnvelope.js&#45;&gt;src/js/application/ApplicationLogger.js</title>
<path fill="none" stroke="#000000" stroke-width="2" stroke-opacity="0.200000" d="M351.48,-857.28C367.13,-855.67 383.51,-850.82 394.25,-839 408.05,-823.82 390.4,-763.76 402.25,-747 436.35,-698.77 473.43,-723.74 523.25,-692 543.5,-679.1 564.08,-660.74 577.66,-647.73"/>
<polygon fill="#000000" fill-opacity="0.200000" stroke="#000000" stroke-width="2" stroke-opacity="0.200000" points="579.08,-649.28 581.91,-643.59 576.15,-646.27 579.08,-649.28"/>
</g>
<!-- src/js/directable/directables/rhythm/asdr/DirectableRhythmASDRManager.js -->
<g id="node14" class="node">
<title>src/js/directable/directables/rhythm/asdr/DirectableRhythmASDRManager.js</title>
<g id="a_node14"><a xlink:href="src/js/directable/directables/rhythm/asdr/DirectableRhythmASDRManager.js" xlink:title="DirectableRhythmASDRManager.js">
<path fill="#ffffcc" stroke="black" d="M380.08,-895.25C380.08,-895.25 232.42,-895.25 232.42,-895.25 229.33,-895.25 226.25,-892.17 226.25,-889.08 226.25,-889.08 226.25,-882.92 226.25,-882.92 226.25,-879.83 229.33,-876.75 232.42,-876.75 232.42,-876.75 380.08,-876.75 380.08,-876.75 383.17,-876.75 386.25,-879.83 386.25,-882.92 386.25,-882.92 386.25,-889.08 386.25,-889.08 386.25,-892.17 383.17,-895.25 380.08,-895.25"/>
<text text-anchor="start" x="234.25" y="-882.7" font-family="Helvetica,sans-Serif" font-size="9.00">DirectableRhythmASDRManager.js</text>
</a>
</g>
</g>
<!-- src/js/directable/directables/rhythm/asdr/DirectableRhythmASDRManager.js&#45;&gt;src/js/application/ApplicationLogger.js -->
<g id="edge12" class="edge">
<title>src/js/directable/directables/rhythm/asdr/DirectableRhythmASDRManager.js&#45;&gt;src/js/application/ApplicationLogger.js</title>
<path fill="none" stroke="#000000" stroke-width="2" stroke-opacity="0.200000" d="M386.39,-876.89C389.24,-874.91 391.89,-872.62 394.25,-870 409.61,-852.94 388.29,-785.23 402.25,-767 436.95,-721.68 477.15,-757.65 523.25,-724 550.79,-703.9 572.64,-670.01 584.24,-649.45"/>
<polygon fill="#000000" fill-opacity="0.200000" stroke="#000000" stroke-width="2" stroke-opacity="0.200000" points="586.08,-650.46 587.11,-644.19 582.39,-648.45 586.08,-650.46"/>
</g>
<!-- src/js/directable/directables/rhythm/bpm/DirectableRhythmBPM.js -->
<g id="node15" class="node">
<title>src/js/directable/directables/rhythm/bpm/DirectableRhythmBPM.js</title>
<g id="a_node15"><a xlink:href="src/js/directable/directables/rhythm/bpm/DirectableRhythmBPM.js" xlink:title="DirectableRhythmBPM.js">
<path fill="#ffffcc" stroke="black" d="M359.08,-956.25C359.08,-956.25 253.42,-956.25 253.42,-956.25 250.33,-956.25 247.25,-953.17 247.25,-950.08 247.25,-950.08 247.25,-943.92 247.25,-943.92 247.25,-940.83 250.33,-937.75 253.42,-937.75 253.42,-937.75 359.08,-937.75 359.08,-937.75 362.17,-937.75 365.25,-940.83 365.25,-943.92 365.25,-943.92 365.25,-950.08 365.25,-950.08 365.25,-953.17 362.17,-956.25 359.08,-956.25"/>
<text text-anchor="start" x="255.25" y="-943.7" font-family="Helvetica,sans-Serif" font-size="9.00">DirectableRhythmBPM.js</text>
</a>
</g>
</g>
<!-- src/js/directable/directables/rhythm/bpm/DirectableRhythmBPM.js&#45;&gt;src/js/application/ApplicationLogger.js -->
<g id="edge13" class="edge">
<title>src/js/directable/directables/rhythm/bpm/DirectableRhythmBPM.js&#45;&gt;src/js/application/ApplicationLogger.js</title>
<path fill="none" stroke="#000000" stroke-width="2" stroke-opacity="0.200000" d="M365.52,-942.94C376.55,-939.48 386.91,-933.89 394.25,-925 414.22,-900.79 382.59,-808.47 402.25,-784 437.23,-740.45 484.18,-789.92 523.25,-750 533.2,-739.83 525.24,-731.9 531.25,-719 543.81,-692.07 564.96,-664.79 579.05,-648.13"/>
<polygon fill="#000000" fill-opacity="0.200000" stroke="#000000" stroke-width="2" stroke-opacity="0.200000" points="580.3,-649.89 582.63,-643.97 577.12,-647.15 580.3,-649.89"/>
</g>
<!-- src/js/directable/directables/rhythm/bpm/DirectableRhythmBPM.js&#45;&gt;src/js/directable/directables/rhythm/DirectableRhythm.js -->
<g id="edge14" class="edge">
<title>src/js/directable/directables/rhythm/bpm/DirectableRhythmBPM.js&#45;&gt;src/js/directable/directables/rhythm/DirectableRhythm.js</title>
<path fill="none" stroke="#000000" stroke-width="2" stroke-opacity="0.200000" d="M365.58,-947C376.72,-947 388.38,-947 399.5,-947"/>
<polygon fill="#000000" fill-opacity="0.200000" stroke="#000000" stroke-width="2" stroke-opacity="0.200000" points="399.26,-949.1 405.26,-947 399.26,-944.9 399.26,-949.1"/>
</g>
<!-- src/js/directable/directables/title/DirectableTitle.js -->
<g id="node16" class="node">
<title>src/js/directable/directables/title/DirectableTitle.js</title>
<g id="a_node16"><a xlink:href="src/js/directable/directables/title/DirectableTitle.js" xlink:title="DirectableTitle.js">
<path fill="#ffffcc" stroke="black" d="M342.21,-1044.25C342.21,-1044.25 270.29,-1044.25 270.29,-1044.25 267.21,-1044.25 264.12,-1041.17 264.12,-1038.08 264.12,-1038.08 264.12,-1031.92 264.12,-1031.92 264.12,-1028.83 267.21,-1025.75 270.29,-1025.75 270.29,-1025.75 342.21,-1025.75 342.21,-1025.75 345.29,-1025.75 348.38,-1028.83 348.38,-1031.92 348.38,-1031.92 348.38,-1038.08 348.38,-1038.08 348.38,-1041.17 345.29,-1044.25 342.21,-1044.25"/>
<text text-anchor="start" x="272.12" y="-1031.7" font-family="Helvetica,sans-Serif" font-size="9.00">DirectableTitle.js</text>
</a>
</g>
</g>
<!-- src/js/directable/directables/title/DirectableTitle.js&#45;&gt;src/js/application/ApplicationLogger.js -->
<g id="edge15" class="edge">
<title>src/js/directable/directables/title/DirectableTitle.js&#45;&gt;src/js/application/ApplicationLogger.js</title>
<path fill="none" stroke="#000000" stroke-width="2" stroke-opacity="0.200000" d="M340.29,-1025.38C359.53,-1017.93 382.29,-1005.51 394.25,-986 405.29,-967.99 388.56,-812.1 402.25,-796 437.82,-754.16 485.42,-810.81 523.25,-771 539.36,-754.05 522.44,-740.66 531.25,-719 542.45,-691.47 563.94,-664.34 578.47,-647.88"/>
<polygon fill="#000000" fill-opacity="0.200000" stroke="#000000" stroke-width="2" stroke-opacity="0.200000" points="579.73,-649.62 582.2,-643.76 576.62,-646.81 579.73,-649.62"/>
</g>
<!-- src/js/directable/directables/title/DirectableTitle.js&#45;&gt;src/js/directable/Directable.js -->
<g id="edge16" class="edge">
<title>src/js/directable/directables/title/DirectableTitle.js&#45;&gt;src/js/directable/Directable.js</title>
<path fill="none" stroke="#000000" stroke-width="2" stroke-opacity="0.200000" d="M348.66,-1032.72C392.14,-1030.32 462.5,-1026.42 523.25,-1023 532.48,-1022.48 542.39,-1021.92 551.76,-1021.38"/>
<polygon fill="#000000" fill-opacity="0.200000" stroke="#000000" stroke-width="2" stroke-opacity="0.200000" points="551.66,-1023.49 557.53,-1021.05 551.42,-1019.3 551.66,-1023.49"/>
</g>
<!-- src/js/director/Director.js -->
<g id="node17" class="node">
<title>src/js/director/Director.js</title>
<g id="a_node17"><a xlink:href="src/js/director/Director.js" xlink:title="Director.js">
<path fill="#ffffcc" stroke="black" d="M328.33,-663.25C328.33,-663.25 284.17,-663.25 284.17,-663.25 281.08,-663.25 278,-660.17 278,-657.08 278,-657.08 278,-650.92 278,-650.92 278,-647.83 281.08,-644.75 284.17,-644.75 284.17,-644.75 328.33,-644.75 328.33,-644.75 331.42,-644.75 334.5,-647.83 334.5,-650.92 334.5,-650.92 334.5,-657.08 334.5,-657.08 334.5,-660.17 331.42,-663.25 328.33,-663.25"/>
<text text-anchor="start" x="286" y="-650.7" font-family="Helvetica,sans-Serif" font-size="9.00">Director.js</text>
</a>
</g>
</g>
<!-- src/js/director/directors/DirectorDanceRabbitDance.js -->
<g id="node18" class="node">
<title>src/js/director/directors/DirectorDanceRabbitDance.js</title>
<g id="a_node18"><a xlink:href="src/js/director/directors/DirectorDanceRabbitDance.js" xlink:title="DirectorDanceRabbitDance.js">
<path fill="#ffffcc" stroke="black" d="M172.08,-660.25C172.08,-660.25 46.17,-660.25 46.17,-660.25 43.08,-660.25 40,-657.17 40,-654.08 40,-654.08 40,-647.92 40,-647.92 40,-644.83 43.08,-641.75 46.17,-641.75 46.17,-641.75 172.08,-641.75 172.08,-641.75 175.17,-641.75 178.25,-644.83 178.25,-647.92 178.25,-647.92 178.25,-654.08 178.25,-654.08 178.25,-657.17 175.17,-660.25 172.08,-660.25"/>
<text text-anchor="start" x="48" y="-647.7" font-family="Helvetica,sans-Serif" font-size="9.00">DirectorDanceRabbitDance.js</text>
</a>
</g>
</g>
<!-- src/js/director/directors/DirectorDanceRabbitDance.js&#45;&gt;src/js/application/ApplicationLogger.js -->
<g id="edge17" class="edge">
<title>src/js/director/directors/DirectorDanceRabbitDance.js&#45;&gt;src/js/application/ApplicationLogger.js</title>
<path fill="none" stroke="#000000" stroke-width="2" stroke-opacity="0.200000" d="M160.68,-641.31C171.7,-639.55 183.34,-637.97 194.25,-637 315.38,-626.23 457.99,-627.87 535.72,-629.98"/>
<polygon fill="#000000" fill-opacity="0.200000" stroke="#000000" stroke-width="2" stroke-opacity="0.200000" points="535.33,-632.07 541.38,-630.13 535.44,-627.87 535.33,-632.07"/>
</g>
<!-- src/js/director/directors/DirectorDanceRabbitDance.js&#45;&gt;src/js/directable/directables/rhythm/bpm/DirectableRhythmBPM.js -->
<g id="edge18" class="edge">
<title>src/js/director/directors/DirectorDanceRabbitDance.js&#45;&gt;src/js/directable/directables/rhythm/bpm/DirectableRhythmBPM.js</title>
<path fill="none" stroke="#000000" stroke-width="2" stroke-opacity="0.200000" d="M109.84,-660.56C109.22,-699.97 112.43,-851.15 194.25,-925 206.31,-935.88 222.16,-942.03 238.09,-945.37"/>
<polygon fill="#000000" fill-opacity="0.200000" stroke="#000000" stroke-width="2" stroke-opacity="0.200000" points="237.67,-947.43 243.95,-946.41 238.41,-943.29 237.67,-947.43"/>
</g>
<!-- src/js/director/directors/DirectorDanceRabbitDance.js&#45;&gt;src/js/directable/directables/title/DirectableTitle.js -->
<g id="edge19" class="edge">
<title>src/js/director/directors/DirectorDanceRabbitDance.js&#45;&gt;src/js/directable/directables/title/DirectableTitle.js</title>
<path fill="none" stroke="#000000" stroke-width="2" stroke-opacity="0.200000" d="M109.68,-660.58C108.19,-703.84 107.66,-883.31 194.25,-986 209.83,-1004.48 233.75,-1016.24 255.4,-1023.59"/>
<polygon fill="#000000" fill-opacity="0.200000" stroke="#000000" stroke-width="2" stroke-opacity="0.200000" points="254.64,-1025.55 261,-1025.37 255.92,-1021.55 254.64,-1025.55"/>
</g>
<!-- src/js/director/directors/DirectorDanceRabbitDance.js&#45;&gt;src/js/director/Director.js -->
<g id="edge20" class="edge">
<title>src/js/director/directors/DirectorDanceRabbitDance.js&#45;&gt;src/js/director/Director.js</title>
<path fill="none" stroke="#000000" stroke-width="2" stroke-opacity="0.200000" d="M178.64,-652.05C208.96,-652.52 243.4,-653.05 268.69,-653.44"/>
<polygon fill="#000000" fill-opacity="0.200000" stroke="#000000" stroke-width="2" stroke-opacity="0.200000" points="268.52,-655.54 274.55,-653.53 268.58,-651.34 268.52,-655.54"/>
</g>
<!-- src/js/dispatcher/ApplicationDispatcher.js -->
<g id="node19" class="node">
<title>src/js/dispatcher/ApplicationDispatcher.js</title>
<g id="a_node19"><a xlink:href="src/js/dispatcher/ApplicationDispatcher.js" xlink:title="ApplicationDispatcher.js">
<path fill="#ffffcc" stroke="black" d="M160.08,-1159.25C160.08,-1159.25 58.17,-1159.25 58.17,-1159.25 55.08,-1159.25 52,-1156.17 52,-1153.08 52,-1153.08 52,-1146.92 52,-1146.92 52,-1143.83 55.08,-1140.75 58.17,-1140.75 58.17,-1140.75 160.08,-1140.75 160.08,-1140.75 163.17,-1140.75 166.25,-1143.83 166.25,-1146.92 166.25,-1146.92 166.25,-1153.08 166.25,-1153.08 166.25,-1156.17 163.17,-1159.25 160.08,-1159.25"/>
<text text-anchor="start" x="60" y="-1146.7" font-family="Helvetica,sans-Serif" font-size="9.00">ApplicationDispatcher.js</text>
</a>
</g>
</g>
<!-- src/js/dispatcher/ApplicationEvent.js -->
<g id="node20" class="node">
<title>src/js/dispatcher/ApplicationEvent.js</title>
<g id="a_node20"><a xlink:href="src/js/dispatcher/ApplicationEvent.js" xlink:title="ApplicationEvent.js">
<path fill="#ffffcc" stroke="black" d="M347.08,-1159.25C347.08,-1159.25 265.42,-1159.25 265.42,-1159.25 262.33,-1159.25 259.25,-1156.17 259.25,-1153.08 259.25,-1153.08 259.25,-1146.92 259.25,-1146.92 259.25,-1143.83 262.33,-1140.75 265.42,-1140.75 265.42,-1140.75 347.08,-1140.75 347.08,-1140.75 350.17,-1140.75 353.25,-1143.83 353.25,-1146.92 353.25,-1146.92 353.25,-1153.08 353.25,-1153.08 353.25,-1156.17 350.17,-1159.25 347.08,-1159.25"/>
<text text-anchor="start" x="267.25" y="-1146.7" font-family="Helvetica,sans-Serif" font-size="9.00">ApplicationEvent.js</text>
</a>
</g>
</g>
<!-- src/js/dispatcher/ApplicationDispatcher.js&#45;&gt;src/js/dispatcher/ApplicationEvent.js -->
<g id="edge21" class="edge">
<title>src/js/dispatcher/ApplicationDispatcher.js&#45;&gt;src/js/dispatcher/ApplicationEvent.js</title>
<path fill="none" stroke="#000000" stroke-width="2" stroke-opacity="0.200000" d="M166.56,-1150C192.74,-1150 223.75,-1150 249.81,-1150"/>
<polygon fill="#000000" fill-opacity="0.200000" stroke="#000000" stroke-width="2" stroke-opacity="0.200000" points="249.77,-1152.1 255.77,-1150 249.77,-1147.9 249.77,-1152.1"/>
</g>
<!-- src/js/index.js -->
<g id="node21" class="node">
<title>src/js/index.js</title>
<g id="a_node21"><a xlink:href="src/js/index.js" xlink:title="index.js">
<path fill="#ffffcc" stroke="black" d="M327.08,-618.25C327.08,-618.25 285.42,-618.25 285.42,-618.25 282.33,-618.25 279.25,-615.17 279.25,-612.08 279.25,-612.08 279.25,-605.92 279.25,-605.92 279.25,-602.83 282.33,-599.75 285.42,-599.75 285.42,-599.75 327.08,-599.75 327.08,-599.75 330.17,-599.75 333.25,-602.83 333.25,-605.92 333.25,-605.92 333.25,-612.08 333.25,-612.08 333.25,-615.17 330.17,-618.25 327.08,-618.25"/>
<text text-anchor="start" x="290.5" y="-605.7" font-family="Helvetica,sans-Serif" font-size="9.00">index.js</text>
</a>
</g>
</g>
<!-- src/js/index.js&#45;&gt;src/js/application/Application.js -->
<g id="edge22" class="edge">
<title>src/js/index.js&#45;&gt;src/js/application/Application.js</title>
<path fill="none" stroke="#000000" stroke-width="2" stroke-opacity="0.200000" d="M333.68,-608.47C355.76,-608.03 387.69,-607.39 413.53,-606.87"/>
<polygon fill="#000000" fill-opacity="0.200000" stroke="#000000" stroke-width="2" stroke-opacity="0.200000" points="413.41,-608.97 419.37,-606.75 413.33,-604.77 413.41,-608.97"/>
</g>
<!-- src/js/overlay/dispatcher/OverlayDispatcher.js&#45;&gt;src/js/application/ApplicationLogger.js -->
<g id="edge30" class="edge">
<title>src/js/overlay/dispatcher/OverlayDispatcher.js&#45;&gt;src/js/application/ApplicationLogger.js</title>
<path fill="none" stroke="#000000" stroke-width="2" stroke-opacity="0.200000" d="M586.06,-281.73C570.81,-300.31 538.85,-342.75 527.25,-385 523.94,-397.05 523.63,-598.04 527.25,-610 528.95,-615.62 532.37,-619.91 536.8,-623.17"/>
<polygon fill="#000000" fill-opacity="0.200000" stroke="#000000" stroke-width="2" stroke-opacity="0.200000" points="535.59,-624.9 541.85,-626 537.64,-621.24 535.59,-624.9"/>
</g>
<!-- src/js/overlay/dispatcher/OverlayDispatcherEvent.js -->
<g id="node26" class="node">
<title>src/js/overlay/dispatcher/OverlayDispatcherEvent.js</title>
<g id="a_node26"><a xlink:href="src/js/overlay/dispatcher/OverlayDispatcherEvent.js" xlink:title="OverlayDispatcherEvent.js">
<path fill="#ffffcc" stroke="black" d="M791.33,-281.25C791.33,-281.25 679.67,-281.25 679.67,-281.25 676.58,-281.25 673.5,-278.17 673.5,-275.08 673.5,-275.08 673.5,-268.92 673.5,-268.92 673.5,-265.83 676.58,-262.75 679.67,-262.75 679.67,-262.75 791.33,-262.75 791.33,-262.75 794.42,-262.75 797.5,-265.83 797.5,-268.92 797.5,-268.92 797.5,-275.08 797.5,-275.08 797.5,-278.17 794.42,-281.25 791.33,-281.25"/>
<text text-anchor="start" x="681.5" y="-268.7" font-family="Helvetica,sans-Serif" font-size="9.00">OverlayDispatcherEvent.js</text>
</a>
</g>
</g>
<!-- src/js/overlay/dispatcher/OverlayDispatcher.js&#45;&gt;src/js/overlay/dispatcher/OverlayDispatcherEvent.js -->
<g id="edge31" class="edge">
<title>src/js/overlay/dispatcher/OverlayDispatcher.js&#45;&gt;src/js/overlay/dispatcher/OverlayDispatcherEvent.js</title>
<path fill="none" stroke="#000000" stroke-width="2" stroke-opacity="0.200000" d="M644.82,-272C651.15,-272 657.73,-272 664.32,-272"/>
<polygon fill="#000000" fill-opacity="0.200000" stroke="#000000" stroke-width="2" stroke-opacity="0.200000" points="664.26,-274.1 670.26,-272 664.26,-269.9 664.26,-274.1"/>
</g>
<!-- src/js/overlay/OverlayUtil.js -->
<g id="node24" class="node">
<title>src/js/overlay/OverlayUtil.js</title>
<g id="a_node24"><a xlink:href="src/js/overlay/OverlayUtil.js" xlink:title="OverlayUtil.js">
<path fill="#ffffcc" stroke="black" d="M486.83,-251.25C486.83,-251.25 429.17,-251.25 429.17,-251.25 426.08,-251.25 423,-248.17 423,-245.08 423,-245.08 423,-238.92 423,-238.92 423,-235.83 426.08,-232.75 429.17,-232.75 429.17,-232.75 486.83,-232.75 486.83,-232.75 489.92,-232.75 493,-235.83 493,-238.92 493,-238.92 493,-245.08 493,-245.08 493,-248.17 489.92,-251.25 486.83,-251.25"/>
<text text-anchor="start" x="431" y="-238.7" font-family="Helvetica,sans-Serif" font-size="9.00">OverlayUtil.js</text>
</a>
</g>
</g>
<!-- src/js/overlay/overlay/OverlayOverlay.js&#45;&gt;src/js/overlay/OverlayUtil.js -->
<g id="edge34" class="edge">
<title>src/js/overlay/overlay/OverlayOverlay.js&#45;&gt;src/js/overlay/OverlayUtil.js</title>
<path fill="none" stroke="#000000" stroke-width="2" stroke-opacity="0.200000" d="M336.21,-129.68C354.12,-136.58 376.93,-147.1 394.25,-161 416.87,-179.15 436.13,-207.03 447.13,-224.89"/>
<polygon fill="#000000" fill-opacity="0.200000" stroke="#000000" stroke-width="2" stroke-opacity="0.200000" points="445.15,-225.66 450.03,-229.72 448.75,-223.5 445.15,-225.66"/>
</g>
<!-- src/js/overlay/OverlayUtil.js&#45;&gt;src/js/application/ApplicationLogger.js -->
<g id="edge27" class="edge">
<title>src/js/overlay/OverlayUtil.js&#45;&gt;src/js/application/ApplicationLogger.js</title>
<path fill="none" stroke="#000000" stroke-width="2" stroke-opacity="0.200000" d="M465.11,-251.47C478.66,-273.03 510.96,-327.92 523.25,-379 526.33,-391.81 523,-605.73 531.25,-616 532.92,-618.08 534.81,-619.9 536.88,-621.51"/>
<polygon fill="#000000" fill-opacity="0.200000" stroke="#000000" stroke-width="2" stroke-opacity="0.200000" points="535.71,-623.26 541.92,-624.59 537.9,-619.67 535.71,-623.26"/>
</g>
<!-- src/js/overlay/OverlayUtil.js&#45;&gt;src/js/overlay/dispatcher/OverlayDispatcher.js -->
<g id="edge28" class="edge">
<title>src/js/overlay/OverlayUtil.js&#45;&gt;src/js/overlay/dispatcher/OverlayDispatcher.js</title>
<path fill="none" stroke="#000000" stroke-width="2" stroke-opacity="0.200000" d="M493.26,-249.65C507.82,-252.9 525.13,-256.76 541.22,-260.36"/>
<polygon fill="#000000" fill-opacity="0.200000" stroke="#000000" stroke-width="2" stroke-opacity="0.200000" points="540.75,-262.4 547.06,-261.66 541.66,-258.3 540.75,-262.4"/>
</g>
<!-- src/js/overlay/capture/OverlayCapture.js -->
<g id="node25" class="node">
<title>src/js/overlay/capture/OverlayCapture.js</title>
<g id="a_node25"><a xlink:href="src/js/overlay/capture/OverlayCapture.js" xlink:title="OverlayCapture.js">
<path fill="#ffffcc" stroke="black" d="M344.83,-190.25C344.83,-190.25 267.67,-190.25 267.67,-190.25 264.58,-190.25 261.5,-187.17 261.5,-184.08 261.5,-184.08 261.5,-177.92 261.5,-177.92 261.5,-174.83 264.58,-171.75 267.67,-171.75 267.67,-171.75 344.83,-171.75 344.83,-171.75 347.92,-171.75 351,-174.83 351,-177.92 351,-177.92 351,-184.08 351,-184.08 351,-187.17 347.92,-190.25 344.83,-190.25"/>
<text text-anchor="start" x="269.5" y="-177.7" font-family="Helvetica,sans-Serif" font-size="9.00">OverlayCapture.js</text>
</a>
</g>
</g>
<!-- src/js/overlay/capture/OverlayCapture.js&#45;&gt;src/js/overlay/OverlayUtil.js -->
<g id="edge29" class="edge">
<title>src/js/overlay/capture/OverlayCapture.js&#45;&gt;src/js/overlay/OverlayUtil.js</title>
<path fill="none" stroke="#000000" stroke-width="2" stroke-opacity="0.200000" d="M330.98,-190.67C356.39,-201.02 396.86,-217.5 425.06,-228.99"/>
<polygon fill="#000000" fill-opacity="0.200000" stroke="#000000" stroke-width="2" stroke-opacity="0.200000" points="424.23,-230.92 430.58,-231.24 425.81,-227.03 424.23,-230.92"/>
</g>
<!-- src/js/overlay/format/OverlayFormat.js -->
<g id="node27" class="node">
<title>src/js/overlay/format/OverlayFormat.js</title>
<g id="a_node27"><a xlink:href="src/js/overlay/format/OverlayFormat.js" xlink:title="OverlayFormat.js">
<path fill="#ffffcc" stroke="black" d="M342.58,-251.25C342.58,-251.25 269.92,-251.25 269.92,-251.25 266.83,-251.25 263.75,-248.17 263.75,-245.08 263.75,-245.08 263.75,-238.92 263.75,-238.92 263.75,-235.83 266.83,-232.75 269.92,-232.75 269.92,-232.75 342.58,-232.75 342.58,-232.75 345.67,-232.75 348.75,-235.83 348.75,-238.92 348.75,-238.92 348.75,-245.08 348.75,-245.08 348.75,-248.17 345.67,-251.25 342.58,-251.25"/>
<text text-anchor="start" x="271.75" y="-238.7" font-family="Helvetica,sans-Serif" font-size="9.00">OverlayFormat.js</text>
</a>
</g>
</g>
<!-- src/js/overlay/format/OverlayFormat.js&#45;&gt;src/js/overlay/OverlayUtil.js -->
<g id="edge32" class="edge">
<title>src/js/overlay/format/OverlayFormat.js&#45;&gt;src/js/overlay/OverlayUtil.js</title>
<path fill="none" stroke="#000000" stroke-width="2" stroke-opacity="0.200000" d="M348.96,-242C369.17,-242 393.41,-242 413.8,-242"/>
<polygon fill="#000000" fill-opacity="0.200000" stroke="#000000" stroke-width="2" stroke-opacity="0.200000" points="413.55,-244.1 419.55,-242 413.55,-239.9 413.55,-244.1"/>
</g>
<!-- src/js/overlay/media/OverlayMedia.js -->
<g id="node28" class="node">
<title>src/js/overlay/media/OverlayMedia.js</title>
<g id="a_node28"><a xlink:href="src/js/overlay/media/OverlayMedia.js" xlink:title="OverlayMedia.js">
<path fill="#ffffcc" stroke="black" d="M341.08,-312.25C341.08,-312.25 271.42,-312.25 271.42,-312.25 268.33,-312.25 265.25,-309.17 265.25,-306.08 265.25,-306.08 265.25,-299.92 265.25,-299.92 265.25,-296.83 268.33,-293.75 271.42,-293.75 271.42,-293.75 341.08,-293.75 341.08,-293.75 344.17,-293.75 347.25,-296.83 347.25,-299.92 347.25,-299.92 347.25,-306.08 347.25,-306.08 347.25,-309.17 344.17,-312.25 341.08,-312.25"/>
<text text-anchor="start" x="273.25" y="-299.7" font-family="Helvetica,sans-Serif" font-size="9.00">OverlayMedia.js</text>
</a>
</g>
</g>
<!-- src/js/overlay/media/OverlayMedia.js&#45;&gt;src/js/overlay/OverlayUtil.js -->
<g id="edge33" class="edge">
<title>src/js/overlay/media/OverlayMedia.js&#45;&gt;src/js/overlay/OverlayUtil.js</title>
<path fill="none" stroke="#000000" stroke-width="2" stroke-opacity="0.200000" d="M347.51,-295.54C362.51,-292.06 379.48,-287.28 394.25,-281 409.36,-274.58 425.04,-264.83 436.95,-256.69"/>
<polygon fill="#000000" fill-opacity="0.200000" stroke="#000000" stroke-width="2" stroke-opacity="0.200000" points="438,-258.52 441.71,-253.36 435.59,-255.08 438,-258.52"/>
</g>
<!-- src/js/overlay/rhythm/OverlayRhythm.js -->
<g id="node29" class="node">
<title>src/js/overlay/rhythm/OverlayRhythm.js</title>
<g id="a_node29"><a xlink:href="src/js/overlay/rhythm/OverlayRhythm.js" xlink:title="OverlayRhythm.js">
<path fill="#ffffcc" stroke="black" d="M344.08,-68.25C344.08,-68.25 268.42,-68.25 268.42,-68.25 265.33,-68.25 262.25,-65.17 262.25,-62.08 262.25,-62.08 262.25,-55.92 262.25,-55.92 262.25,-52.83 265.33,-49.75 268.42,-49.75 268.42,-49.75 344.08,-49.75 344.08,-49.75 347.17,-49.75 350.25,-52.83 350.25,-55.92 350.25,-55.92 350.25,-62.08 350.25,-62.08 350.25,-65.17 347.17,-68.25 344.08,-68.25"/>
<text text-anchor="start" x="270.25" y="-55.7" font-family="Helvetica,sans-Serif" font-size="9.00">OverlayRhythm.js</text>
</a>
</g>
</g>
<!-- src/js/overlay/rhythm/OverlayRhythm.js&#45;&gt;src/js/overlay/OverlayUtil.js -->
<g id="edge35" class="edge">
<title>src/js/overlay/rhythm/OverlayRhythm.js&#45;&gt;src/js/overlay/OverlayUtil.js</title>
<path fill="none" stroke="#000000" stroke-width="2" stroke-opacity="0.200000" d="M341.25,-68.64C358.92,-75.1 379.79,-85.18 394.25,-100 429.24,-135.85 446.5,-194.51 453.33,-223.95"/>
<polygon fill="#000000" fill-opacity="0.200000" stroke="#000000" stroke-width="2" stroke-opacity="0.200000" points="451.2,-224.05 454.54,-229.46 455.31,-223.15 451.2,-224.05"/>
</g>
<!-- src/js/rhythm/ViewRhythm.js -->
<g id="node30" class="node">
<title>src/js/rhythm/ViewRhythm.js</title>
<g id="a_node30"><a xlink:href="src/js/rhythm/ViewRhythm.js" xlink:title="ViewRhythm.js">
<path fill="#ffffcc" stroke="black" d="M141.33,-1220.25C141.33,-1220.25 76.92,-1220.25 76.92,-1220.25 73.83,-1220.25 70.75,-1217.17 70.75,-1214.08 70.75,-1214.08 70.75,-1207.92 70.75,-1207.92 70.75,-1204.83 73.83,-1201.75 76.92,-1201.75 76.92,-1201.75 141.33,-1201.75 141.33,-1201.75 144.42,-1201.75 147.5,-1204.83 147.5,-1207.92 147.5,-1207.92 147.5,-1214.08 147.5,-1214.08 147.5,-1217.17 144.42,-1220.25 141.33,-1220.25"/>
<text text-anchor="start" x="78.75" y="-1207.7" font-family="Helvetica,sans-Serif" font-size="9.00">ViewRhythm.js</text>
</a>
</g>
</g>
<!-- src/js/rhythm/ViewRhythmTrack.js -->
<g id="node31" class="node">
<title>src/js/rhythm/ViewRhythmTrack.js</title>
<g id="a_node31"><a xlink:href="src/js/rhythm/ViewRhythmTrack.js" xlink:title="ViewRhythmTrack.js">
<path fill="#ffffcc" stroke="black" d="M349.71,-1220.25C349.71,-1220.25 262.79,-1220.25 262.79,-1220.25 259.71,-1220.25 256.62,-1217.17 256.62,-1214.08 256.62,-1214.08 256.62,-1207.92 256.62,-1207.92 256.62,-1204.83 259.71,-1201.75 262.79,-1201.75 262.79,-1201.75 349.71,-1201.75 349.71,-1201.75 352.79,-1201.75 355.88,-1204.83 355.88,-1207.92 355.88,-1207.92 355.88,-1214.08 355.88,-1214.08 355.88,-1217.17 352.79,-1220.25 349.71,-1220.25"/>
<text text-anchor="start" x="264.62" y="-1207.7" font-family="Helvetica,sans-Serif" font-size="9.00">ViewRhythmTrack.js</text>
</a>
</g>
</g>
<!-- src/js/rhythm/ViewRhythm.js&#45;&gt;src/js/rhythm/ViewRhythmTrack.js -->
<g id="edge36" class="edge">
<title>src/js/rhythm/ViewRhythm.js&#45;&gt;src/js/rhythm/ViewRhythmTrack.js</title>
<path fill="none" stroke="#000000" stroke-width="2" stroke-opacity="0.200000" d="M147.75,-1211C175.99,-1211 215.17,-1211 247.39,-1211"/>
<polygon fill="#000000" fill-opacity="0.200000" stroke="#000000" stroke-width="2" stroke-opacity="0.200000" points="247.25,-1213.1 253.25,-1211 247.25,-1208.9 247.25,-1213.1"/>
</g>
<!-- src/js/view/render/RenderSurface.js -->
<g id="node33" class="node">
<title>src/js/view/render/RenderSurface.js</title>
<g id="a_node33"><a xlink:href="src/js/view/render/RenderSurface.js" xlink:title="RenderSurface.js">
<path fill="#ffffcc" stroke="black" d="M631.83,-408.25C631.83,-408.25 556.92,-408.25 556.92,-408.25 553.83,-408.25 550.75,-405.17 550.75,-402.08 550.75,-402.08 550.75,-395.92 550.75,-395.92 550.75,-392.83 553.83,-389.75 556.92,-389.75 556.92,-389.75 631.83,-389.75 631.83,-389.75 634.92,-389.75 638,-392.83 638,-395.92 638,-395.92 638,-402.08 638,-402.08 638,-405.17 634.92,-408.25 631.83,-408.25"/>
<text text-anchor="start" x="558.75" y="-395.7" font-family="Helvetica,sans-Serif" font-size="9.00">RenderSurface.js</text>
</a>
</g>
</g>
<!-- src/js/view/render/RenderController.js&#45;&gt;src/js/view/render/RenderSurface.js -->
<g id="edge38" class="edge">
<title>src/js/view/render/RenderController.js&#45;&gt;src/js/view/render/RenderSurface.js</title>
<path fill="none" stroke="#000000" stroke-width="2" stroke-opacity="0.200000" d="M506,-399C517.58,-399 530.04,-399 541.82,-399"/>
<polygon fill="#000000" fill-opacity="0.200000" stroke="#000000" stroke-width="2" stroke-opacity="0.200000" points="541.65,-401.1 547.65,-399 541.65,-396.9 541.65,-401.1"/>
</g>
<!-- src/js/view/render/RenderResizer.js -->
<g id="node34" class="node">
<title>src/js/view/render/RenderResizer.js</title>
<g id="a_node34"><a xlink:href="src/js/view/render/RenderResizer.js" xlink:title="RenderResizer.js">
<path fill="#ffffcc" stroke="black" d="M495.08,-439.25C495.08,-439.25 420.92,-439.25 420.92,-439.25 417.83,-439.25 414.75,-436.17 414.75,-433.08 414.75,-433.08 414.75,-426.92 414.75,-426.92 414.75,-423.83 417.83,-420.75 420.92,-420.75 420.92,-420.75 495.08,-420.75 495.08,-420.75 498.17,-420.75 501.25,-423.83 501.25,-426.92 501.25,-426.92 501.25,-433.08 501.25,-433.08 501.25,-436.17 498.17,-439.25 495.08,-439.25"/>
<text text-anchor="start" x="422.75" y="-426.7" font-family="Helvetica,sans-Serif" font-size="9.00">RenderResizer.js</text>
</a>
</g>
</g>
<!-- src/js/view/render/RenderResizer.js&#45;&gt;src/js/application/ApplicationConfiguration.js -->
<g id="edge39" class="edge">
<title>src/js/view/render/RenderResizer.js&#45;&gt;src/js/application/ApplicationConfiguration.js</title>
<path fill="none" stroke="#000000" stroke-width="2" stroke-opacity="0.200000" d="M469.1,-439.68C482.22,-452.48 505.54,-475.98 523.25,-498 546.35,-526.72 569.77,-562.84 582.84,-583.78"/>
<polygon fill="#000000" fill-opacity="0.200000" stroke="#000000" stroke-width="2" stroke-opacity="0.200000" points="580.94,-584.7 585.89,-588.69 584.51,-582.49 580.94,-584.7"/>
</g>
<!-- src/js/view/render/RenderResizer.js&#45;&gt;src/js/application/ApplicationLogger.js -->
<g id="edge40" class="edge">
<title>src/js/view/render/RenderResizer.js&#45;&gt;src/js/application/ApplicationLogger.js</title>
<path fill="none" stroke="#000000" stroke-width="2" stroke-opacity="0.200000" d="M469.76,-439.6C484.78,-453.76 511.52,-481.83 523.25,-512 531.65,-533.6 516.36,-598.24 531.25,-616 532.93,-618 534.82,-619.77 536.87,-621.33"/>
<polygon fill="#000000" fill-opacity="0.200000" stroke="#000000" stroke-width="2" stroke-opacity="0.200000" points="535.58,-623 541.8,-624.31 537.75,-619.41 535.58,-623"/>
</g>
<!-- src/js/view/render/RenderResizer.js&#45;&gt;src/js/overlay/dispatcher/OverlayDispatcher.js -->
<g id="edge41" class="edge">
<title>src/js/view/render/RenderResizer.js&#45;&gt;src/js/overlay/dispatcher/OverlayDispatcher.js</title>
<path fill="none" stroke="#000000" stroke-width="2" stroke-opacity="0.200000" d="M501.55,-426.35C509.62,-423.87 517.37,-419.99 523.25,-414 534.42,-402.61 525.4,-393.85 531.25,-379 544.6,-345.13 567.51,-309.2 581.46,-288.79"/>
<polygon fill="#000000" fill-opacity="0.200000" stroke="#000000" stroke-width="2" stroke-opacity="0.200000" points="583.08,-290.14 584.78,-284.01 579.63,-287.74 583.08,-290.14"/>
</g>
</g>
</svg>
