<?xml version="1.0" encoding="UTF-8" standalone="no"?>
<!DOCTYPE svg PUBLIC "-//W3C//DTD SVG 1.1//EN"
 "http://www.w3.org/Graphics/SVG/1.1/DTD/svg11.dtd">
<!-- Generated by graphviz version 12.2.1 (20241206.2353)
 -->
<!-- Title: dependency&#45;cruiser output Pages: 1 -->
<svg width="980pt" height="1396pt"
 viewBox="0.00 0.00 980.38 1396.00" xmlns="http://www.w3.org/2000/svg" xmlns:xlink="http://www.w3.org/1999/xlink">
<g id="graph0" class="graph" transform="scale(1 1) rotate(0) translate(4 1392)">
<title>dependency&#45;cruiser output</title>
<polygon fill="white" stroke="none" points="-4,4 -4,-1392 976.38,-1392 976.38,4 -4,4"/>
<g id="clust1" class="cluster">
<title>cluster_src</title>
<path fill="#ffffff" stroke="black" stroke-width="2" d="M20,-8C20,-8 952.38,-8 952.38,-8 958.38,-8 964.38,-14 964.38,-20 964.38,-20 964.38,-1368 964.38,-1368 964.38,-1374 958.38,-1380 952.38,-1380 952.38,-1380 20,-1380 20,-1380 14,-1380 8,-1374 8,-1368 8,-1368 8,-20 8,-20 8,-14 14,-8 20,-8"/>
<text text-anchor="middle" x="486.19" y="-1367.45" font-family="Helvetica,sans-Serif" font-weight="bold" font-size="9.00">src</text>
</g>
<g id="clust2" class="cluster">
<title>cluster_src/js</title>
<path fill="#ffffff" stroke="black" stroke-width="2" d="M28,-16C28,-16 944.38,-16 944.38,-16 950.38,-16 956.38,-22 956.38,-28 956.38,-28 956.38,-1341 956.38,-1341 956.38,-1347 950.38,-1353 944.38,-1353 944.38,-1353 28,-1353 28,-1353 22,-1353 16,-1347 16,-1341 16,-1341 16,-28 16,-28 16,-22 22,-16 28,-16"/>
<text text-anchor="middle" x="486.19" y="-1340.45" font-family="Helvetica,sans-Serif" font-weight="bold" font-size="9.00">js</text>
</g>
<g id="clust3" class="cluster">
<title>cluster_src/js/application</title>
<path fill="#ffffff" stroke="black" stroke-width="2" d="M702.62,-435C702.62,-435 929.5,-435 929.5,-435 935.5,-435 941.5,-441 941.5,-447 941.5,-447 941.5,-507 941.5,-507 941.5,-513 935.5,-519 929.5,-519 929.5,-519 702.62,-519 702.62,-519 696.62,-519 690.62,-513 690.62,-507 690.62,-507 690.62,-447 690.62,-447 690.62,-441 696.62,-435 702.62,-435"/>
<text text-anchor="middle" x="816.06" y="-506.45" font-family="Helvetica,sans-Serif" font-weight="bold" font-size="9.00">application</text>
</g>
<g id="clust4" class="cluster">
<title>cluster_src/js/controller</title>
<path fill="#ffffff" stroke="black" stroke-width="2" d="M72.38,-788C72.38,-788 129.12,-788 129.12,-788 135.12,-788 141.12,-794 141.12,-800 141.12,-800 141.12,-829 141.12,-829 141.12,-835 135.12,-841 129.12,-841 129.12,-841 72.38,-841 72.38,-841 66.38,-841 60.38,-835 60.38,-829 60.38,-829 60.38,-800 60.38,-800 60.38,-794 66.38,-788 72.38,-788"/>
<text text-anchor="middle" x="100.75" y="-828.45" font-family="Helvetica,sans-Serif" font-weight="bold" font-size="9.00">controller</text>
</g>
<g id="clust5" class="cluster">
<title>cluster_src/js/data</title>
<path fill="#ffffff" stroke="black" stroke-width="2" d="M62.62,-1090C62.62,-1090 255.62,-1090 255.62,-1090 261.62,-1090 267.62,-1096 267.62,-1102 267.62,-1102 267.62,-1131 267.62,-1131 267.62,-1137 261.62,-1143 255.62,-1143 255.62,-1143 62.62,-1143 62.62,-1143 56.62,-1143 50.62,-1137 50.62,-1131 50.62,-1131 50.62,-1102 50.62,-1102 50.62,-1096 56.62,-1090 62.62,-1090"/>
<text text-anchor="middle" x="159.12" y="-1130.45" font-family="Helvetica,sans-Serif" font-weight="bold" font-size="9.00">data</text>
</g>
<g id="clust6" class="cluster">
<title>cluster_src/js/directable</title>
<path fill="#ffffff" stroke="black" stroke-width="2" d="M480,-24C480,-24 899.88,-24 899.88,-24 905.88,-24 911.88,-30 911.88,-36 911.88,-36 911.88,-415 911.88,-415 911.88,-421 905.88,-427 899.88,-427 899.88,-427 480,-427 480,-427 474,-427 468,-421 468,-415 468,-415 468,-36 468,-36 468,-30 474,-24 480,-24"/>
<text text-anchor="middle" x="689.94" y="-414.45" font-family="Helvetica,sans-Serif" font-weight="bold" font-size="9.00">directable</text>
</g>
<g id="clust7" class="cluster">
<title>cluster_src/js/directable/directables</title>
<path fill="#ffffff" stroke="black" stroke-width="2" d="M488,-32C488,-32 787.25,-32 787.25,-32 793.25,-32 799.25,-38 799.25,-44 799.25,-44 799.25,-388 799.25,-388 799.25,-394 793.25,-400 787.25,-400 787.25,-400 488,-400 488,-400 482,-400 476,-394 476,-388 476,-388 476,-44 476,-44 476,-38 482,-32 488,-32"/>
<text text-anchor="middle" x="637.62" y="-387.45" font-family="Helvetica,sans-Serif" font-weight="bold" font-size="9.00">directables</text>
</g>
<g id="clust8" class="cluster">
<title>cluster_src/js/directable/directables/frame</title>
<path fill="#ffffff" stroke="black" stroke-width="2" d="M537.38,-320C537.38,-320 622.62,-320 622.62,-320 628.62,-320 634.62,-326 634.62,-332 634.62,-332 634.62,-361 634.62,-361 634.62,-367 628.62,-373 622.62,-373 622.62,-373 537.38,-373 537.38,-373 531.38,-373 525.38,-367 525.38,-361 525.38,-361 525.38,-332 525.38,-332 525.38,-326 531.38,-320 537.38,-320"/>
<text text-anchor="middle" x="580" y="-360.45" font-family="Helvetica,sans-Serif" font-weight="bold" font-size="9.00">frame</text>
</g>
<g id="clust9" class="cluster">
<title>cluster_src/js/directable/directables/rhythm</title>
<path fill="#ffffff" stroke="black" stroke-width="2" d="M496,-101C496,-101 779.25,-101 779.25,-101 785.25,-101 791.25,-107 791.25,-113 791.25,-113 791.25,-300 791.25,-300 791.25,-306 785.25,-312 779.25,-312 779.25,-312 496,-312 496,-312 490,-312 484,-306 484,-300 484,-300 484,-113 484,-113 484,-107 490,-101 496,-101"/>
<text text-anchor="middle" x="637.62" y="-299.45" font-family="Helvetica,sans-Serif" font-weight="bold" font-size="9.00">rhythm</text>
</g>
<g id="clust10" class="cluster">
<title>cluster_src/js/directable/directables/rhythm/asdr</title>
<path fill="#ffffff" stroke="black" stroke-width="2" d="M504,-109C504,-109 656,-109 656,-109 662,-109 668,-115 668,-121 668,-121 668,-212 668,-212 668,-218 662,-224 656,-224 656,-224 504,-224 504,-224 498,-224 492,-218 492,-212 492,-212 492,-121 492,-121 492,-115 498,-109 504,-109"/>
<text text-anchor="middle" x="580" y="-211.45" font-family="Helvetica,sans-Serif" font-weight="bold" font-size="9.00">asdr</text>
</g>
<g id="clust11" class="cluster">
<title>cluster_src/js/directable/directables/rhythm/bpm</title>
<path fill="#ffffff" stroke="black" stroke-width="2" d="M525,-232C525,-232 635,-232 635,-232 641,-232 647,-238 647,-244 647,-244 647,-273 647,-273 647,-279 641,-285 635,-285 635,-285 525,-285 525,-285 519,-285 513,-279 513,-273 513,-273 513,-244 513,-244 513,-238 519,-232 525,-232"/>
<text text-anchor="middle" x="580" y="-272.45" font-family="Helvetica,sans-Serif" font-weight="bold" font-size="9.00">bpm</text>
</g>
<g id="clust12" class="cluster">
<title>cluster_src/js/directable/directables/title</title>
<path fill="#ffffff" stroke="black" stroke-width="2" d="M541.88,-40C541.88,-40 618.12,-40 618.12,-40 624.12,-40 630.12,-46 630.12,-52 630.12,-52 630.12,-81 630.12,-81 630.12,-87 624.12,-93 618.12,-93 618.12,-93 541.88,-93 541.88,-93 535.88,-93 529.88,-87 529.88,-81 529.88,-81 529.88,-52 529.88,-52 529.88,-46 535.88,-40 541.88,-40"/>
<text text-anchor="middle" x="580" y="-80.45" font-family="Helvetica,sans-Serif" font-weight="bold" font-size="9.00">title</text>
</g>
<g id="clust13" class="cluster">
<title>cluster_src/js/director</title>
<path fill="#ffffff" stroke="black" stroke-width="2" d="M309.75,-461C309.75,-461 604.25,-461 604.25,-461 610.25,-461 616.25,-467 616.25,-473 616.25,-473 616.25,-537 616.25,-537 616.25,-543 610.25,-549 604.25,-549 604.25,-549 309.75,-549 309.75,-549 303.75,-549 297.75,-543 297.75,-537 297.75,-537 297.75,-473 297.75,-473 297.75,-467 303.75,-461 309.75,-461"/>
<text text-anchor="middle" x="457" y="-536.45" font-family="Helvetica,sans-Serif" font-weight="bold" font-size="9.00">director</text>
</g>
<g id="clust14" class="cluster">
<title>cluster_src/js/director/directors</title>
<path fill="#ffffff" stroke="black" stroke-width="2" d="M317.75,-469C317.75,-469 448,-469 448,-469 454,-469 460,-475 460,-481 460,-481 460,-510 460,-510 460,-516 454,-522 448,-522 448,-522 317.75,-522 317.75,-522 311.75,-522 305.75,-516 305.75,-510 305.75,-510 305.75,-481 305.75,-481 305.75,-475 311.75,-469 317.75,-469"/>
<text text-anchor="middle" x="382.88" y="-509.45" font-family="Helvetica,sans-Serif" font-weight="bold" font-size="9.00">directors</text>
</g>
<g id="clust15" class="cluster">
<title>cluster_src/js/event</title>
<path fill="#ffffff" stroke="black" stroke-width="2" d="M36,-1151C36,-1151 275.12,-1151 275.12,-1151 281.12,-1151 287.12,-1157 287.12,-1163 287.12,-1163 287.12,-1192 287.12,-1192 287.12,-1198 281.12,-1204 275.12,-1204 275.12,-1204 36,-1204 36,-1204 30,-1204 24,-1198 24,-1192 24,-1192 24,-1163 24,-1163 24,-1157 30,-1151 36,-1151"/>
<text text-anchor="middle" x="155.56" y="-1191.45" font-family="Helvetica,sans-Serif" font-weight="bold" font-size="9.00">event</text>
</g>
<g id="clust16" class="cluster">
<title>cluster_src/js/overlay</title>
<path fill="#ffffff" stroke="black" stroke-width="2" d="M208.25,-618C208.25,-618 936.38,-618 936.38,-618 942.38,-618 948.38,-624 948.38,-630 948.38,-630 948.38,-1070 948.38,-1070 948.38,-1076 942.38,-1082 936.38,-1082 936.38,-1082 208.25,-1082 208.25,-1082 202.25,-1082 196.25,-1076 196.25,-1070 196.25,-1070 196.25,-630 196.25,-630 196.25,-624 202.25,-618 208.25,-618"/>
<text text-anchor="middle" x="572.31" y="-1069.45" font-family="Helvetica,sans-Serif" font-weight="bold" font-size="9.00">overlay</text>
</g>
<g id="clust17" class="cluster">
<title>cluster_src/js/overlay/capture</title>
<path fill="#ffffff" stroke="black" stroke-width="2" d="M342.12,-697C342.12,-697 423.62,-697 423.62,-697 429.62,-697 435.62,-703 435.62,-709 435.62,-709 435.62,-738 435.62,-738 435.62,-744 429.62,-750 423.62,-750 423.62,-750 342.12,-750 342.12,-750 336.12,-750 330.12,-744 330.12,-738 330.12,-738 330.12,-709 330.12,-709 330.12,-703 336.12,-697 342.12,-697"/>
<text text-anchor="middle" x="382.88" y="-737.45" font-family="Helvetica,sans-Serif" font-weight="bold" font-size="9.00">capture</text>
</g>
<g id="clust18" class="cluster">
<title>cluster_src/js/overlay/dispatcher</title>
<path fill="#ffffff" stroke="black" stroke-width="2" d="M688,-642C688,-642 928.38,-642 928.38,-642 934.38,-642 940.38,-648 940.38,-654 940.38,-654 940.38,-683 940.38,-683 940.38,-689 934.38,-695 928.38,-695 928.38,-695 688,-695 688,-695 682,-695 676,-689 676,-683 676,-683 676,-654 676,-654 676,-648 682,-642 688,-642"/>
<text text-anchor="middle" x="808.19" y="-682.45" font-family="Helvetica,sans-Serif" font-weight="bold" font-size="9.00">dispatcher</text>
</g>
<g id="clust19" class="cluster">
<title>cluster_src/js/overlay/format</title>
<path fill="#ffffff" stroke="black" stroke-width="2" d="M344.38,-758C344.38,-758 421.38,-758 421.38,-758 427.38,-758 433.38,-764 433.38,-770 433.38,-770 433.38,-799 433.38,-799 433.38,-805 427.38,-811 421.38,-811 421.38,-811 344.38,-811 344.38,-811 338.38,-811 332.38,-805 332.38,-799 332.38,-799 332.38,-770 332.38,-770 332.38,-764 338.38,-758 344.38,-758"/>
<text text-anchor="middle" x="382.88" y="-798.45" font-family="Helvetica,sans-Serif" font-weight="bold" font-size="9.00">format</text>
</g>
<g id="clust20" class="cluster">
<title>cluster_src/js/overlay/media</title>
<path fill="#ffffff" stroke="black" stroke-width="2" d="M345.88,-636C345.88,-636 419.88,-636 419.88,-636 425.88,-636 431.88,-642 431.88,-648 431.88,-648 431.88,-677 431.88,-677 431.88,-683 425.88,-689 419.88,-689 419.88,-689 345.88,-689 345.88,-689 339.88,-689 333.88,-683 333.88,-677 333.88,-677 333.88,-648 333.88,-648 333.88,-642 339.88,-636 345.88,-636"/>
<text text-anchor="middle" x="382.88" y="-676.45" font-family="Helvetica,sans-Serif" font-weight="bold" font-size="9.00">media</text>
</g>
<g id="clust21" class="cluster">
<title>cluster_src/js/overlay/overlay</title>
<path fill="#ffffff" stroke="black" stroke-width="2" d="M343.25,-819C343.25,-819 422.5,-819 422.5,-819 428.5,-819 434.5,-825 434.5,-831 434.5,-831 434.5,-860 434.5,-860 434.5,-866 428.5,-872 422.5,-872 422.5,-872 343.25,-872 343.25,-872 337.25,-872 331.25,-866 331.25,-860 331.25,-860 331.25,-831 331.25,-831 331.25,-825 337.25,-819 343.25,-819"/>
<text text-anchor="middle" x="382.88" y="-859.45" font-family="Helvetica,sans-Serif" font-weight="bold" font-size="9.00">overlay</text>
</g>
<g id="clust22" class="cluster">
<title>cluster_src/js/overlay/pathtracer</title>
<path fill="#ffffff" stroke="black" stroke-width="2" d="M336.5,-880C336.5,-880 429.25,-880 429.25,-880 435.25,-880 441.25,-886 441.25,-892 441.25,-892 441.25,-921 441.25,-921 441.25,-927 435.25,-933 429.25,-933 429.25,-933 336.5,-933 336.5,-933 330.5,-933 324.5,-927 324.5,-921 324.5,-921 324.5,-892 324.5,-892 324.5,-886 330.5,-880 336.5,-880"/>
<text text-anchor="middle" x="382.88" y="-920.45" font-family="Helvetica,sans-Serif" font-weight="bold" font-size="9.00">pathtracer</text>
</g>
<g id="clust23" class="cluster">
<title>cluster_src/js/overlay/rhythm</title>
<path fill="#ffffff" stroke="black" stroke-width="2" d="M342.88,-941C342.88,-941 422.88,-941 422.88,-941 428.88,-941 434.88,-947 434.88,-953 434.88,-953 434.88,-982 434.88,-982 434.88,-988 428.88,-994 422.88,-994 422.88,-994 342.88,-994 342.88,-994 336.88,-994 330.88,-988 330.88,-982 330.88,-982 330.88,-953 330.88,-953 330.88,-947 336.88,-941 342.88,-941"/>
<text text-anchor="middle" x="382.88" y="-981.45" font-family="Helvetica,sans-Serif" font-weight="bold" font-size="9.00">rhythm</text>
</g>
<g id="clust24" class="cluster">
<title>cluster_src/js/overlay/teleprompt</title>
<path fill="#ffffff" stroke="black" stroke-width="2" d="M335.75,-1002C335.75,-1002 430,-1002 430,-1002 436,-1002 442,-1008 442,-1014 442,-1014 442,-1043 442,-1043 442,-1049 436,-1055 430,-1055 430,-1055 335.75,-1055 335.75,-1055 329.75,-1055 323.75,-1049 323.75,-1043 323.75,-1043 323.75,-1014 323.75,-1014 323.75,-1008 329.75,-1002 335.75,-1002"/>
<text text-anchor="middle" x="382.88" y="-1042.45" font-family="Helvetica,sans-Serif" font-weight="bold" font-size="9.00">teleprompt</text>
</g>
<g id="clust25" class="cluster">
<title>cluster_src/js/renderer</title>
<path fill="#ffffff" stroke="black" stroke-width="2" d="M536.62,-557C536.62,-557 623.38,-557 623.38,-557 629.38,-557 635.38,-563 635.38,-569 635.38,-569 635.38,-598 635.38,-598 635.38,-604 629.38,-610 623.38,-610 623.38,-610 536.62,-610 536.62,-610 530.62,-610 524.62,-604 524.62,-598 524.62,-598 524.62,-569 524.62,-569 524.62,-563 530.62,-557 536.62,-557"/>
<text text-anchor="middle" x="580" y="-597.45" font-family="Helvetica,sans-Serif" font-weight="bold" font-size="9.00">renderer</text>
</g>
<g id="clust26" class="cluster">
<title>cluster_src/js/rhythm</title>
<path fill="#ffffff" stroke="black" stroke-width="2" d="M66.38,-1212C66.38,-1212 277.75,-1212 277.75,-1212 283.75,-1212 289.75,-1218 289.75,-1224 289.75,-1224 289.75,-1253 289.75,-1253 289.75,-1259 283.75,-1265 277.75,-1265 277.75,-1265 66.38,-1265 66.38,-1265 60.38,-1265 54.38,-1259 54.38,-1253 54.38,-1253 54.38,-1224 54.38,-1224 54.38,-1218 60.38,-1212 66.38,-1212"/>
<text text-anchor="middle" x="172.06" y="-1252.45" font-family="Helvetica,sans-Serif" font-weight="bold" font-size="9.00">rhythm</text>
</g>
<g id="clust27" class="cluster">
<title>cluster_src/js/view</title>
<path fill="#ffffff" stroke="black" stroke-width="2" d="M77.75,-1273C77.75,-1273 123.75,-1273 123.75,-1273 129.75,-1273 135.75,-1279 135.75,-1285 135.75,-1285 135.75,-1314 135.75,-1314 135.75,-1320 129.75,-1326 123.75,-1326 123.75,-1326 77.75,-1326 77.75,-1326 71.75,-1326 65.75,-1320 65.75,-1314 65.75,-1314 65.75,-1285 65.75,-1285 65.75,-1279 71.75,-1273 77.75,-1273"/>
<text text-anchor="middle" x="100.75" y="-1313.45" font-family="Helvetica,sans-Serif" font-weight="bold" font-size="9.00">view</text>
</g>
<!-- src/js/application/Application.js -->
<g id="node1" class="node">
<title>src/js/application/Application.js</title>
<g id="a_node1"><a xlink:href="src/js/application/Application.js" xlink:title="Application.js">
<path fill="#ffffcc" stroke="black" d="M763.21,-461.25C763.21,-461.25 704.79,-461.25 704.79,-461.25 701.71,-461.25 698.62,-458.17 698.62,-455.08 698.62,-455.08 698.62,-448.92 698.62,-448.92 698.62,-445.83 701.71,-442.75 704.79,-442.75 704.79,-442.75 763.21,-442.75 763.21,-442.75 766.29,-442.75 769.38,-445.83 769.38,-448.92 769.38,-448.92 769.38,-455.08 769.38,-455.08 769.38,-458.17 766.29,-461.25 763.21,-461.25"/>
<text text-anchor="start" x="706.62" y="-448.7" font-family="Helvetica,sans-Serif" font-size="9.00">Application.js</text>
</a>
</g>
</g>
<!-- src/js/application/ApplicationConfiguration.js -->
<g id="node2" class="node">
<title>src/js/application/ApplicationConfiguration.js</title>
<g id="a_node2"><a xlink:href="src/js/application/ApplicationConfiguration.js" xlink:title="ApplicationConfiguration.js">
<path fill="#ffffcc" stroke="black" d="M927.33,-492.25C927.33,-492.25 813.42,-492.25 813.42,-492.25 810.33,-492.25 807.25,-489.17 807.25,-486.08 807.25,-486.08 807.25,-479.92 807.25,-479.92 807.25,-476.83 810.33,-473.75 813.42,-473.75 813.42,-473.75 927.33,-473.75 927.33,-473.75 930.42,-473.75 933.5,-476.83 933.5,-479.92 933.5,-479.92 933.5,-486.08 933.5,-486.08 933.5,-489.17 930.42,-492.25 927.33,-492.25"/>
<text text-anchor="start" x="815.25" y="-479.7" font-family="Helvetica,sans-Serif" font-size="9.00">ApplicationConfiguration.js</text>
</a>
</g>
</g>
<!-- src/js/application/Application.js&#45;&gt;src/js/application/ApplicationConfiguration.js -->
<g id="edge1" class="edge">
<title>src/js/application/Application.js&#45;&gt;src/js/application/ApplicationConfiguration.js</title>
<path fill="none" stroke="#000000" stroke-width="2" stroke-opacity="0.200000" d="M769.6,-459.98C784.57,-463.44 802.38,-467.54 818.79,-471.33"/>
<polygon fill="#000000" fill-opacity="0.200000" stroke="#000000" stroke-width="2" stroke-opacity="0.200000" points="817.94,-473.29 824.26,-472.59 818.89,-469.2 817.94,-473.29"/>
</g>
<!-- src/js/application/ApplicationLogger.js -->
<g id="node3" class="node">
<title>src/js/application/ApplicationLogger.js</title>
<g id="a_node3"><a xlink:href="src/js/application/ApplicationLogger.js" xlink:title="ApplicationLogger.js">
<path fill="#ffffcc" stroke="black" d="M913.83,-461.25C913.83,-461.25 826.92,-461.25 826.92,-461.25 823.83,-461.25 820.75,-458.17 820.75,-455.08 820.75,-455.08 820.75,-448.92 820.75,-448.92 820.75,-445.83 823.83,-442.75 826.92,-442.75 826.92,-442.75 913.83,-442.75 913.83,-442.75 916.92,-442.75 920,-445.83 920,-448.92 920,-448.92 920,-455.08 920,-455.08 920,-458.17 916.92,-461.25 913.83,-461.25"/>
<text text-anchor="start" x="828.75" y="-448.7" font-family="Helvetica,sans-Serif" font-size="9.00">ApplicationLogger.js</text>
</a>
</g>
</g>
<!-- src/js/application/Application.js&#45;&gt;src/js/application/ApplicationLogger.js -->
<g id="edge2" class="edge">
<title>src/js/application/Application.js&#45;&gt;src/js/application/ApplicationLogger.js</title>
<path fill="none" stroke="#000000" stroke-width="2" stroke-opacity="0.200000" d="M769.6,-452C782.42,-452 797.32,-452 811.64,-452"/>
<polygon fill="#000000" fill-opacity="0.200000" stroke="#000000" stroke-width="2" stroke-opacity="0.200000" points="811.43,-454.1 817.43,-452 811.43,-449.9 811.43,-454.1"/>
</g>
<!-- src/js/controller/Controller.js -->
<g id="node4" class="node">
<title>src/js/controller/Controller.js</title>
<g id="a_node4"><a xlink:href="src/js/controller/Controller.js" xlink:title="Controller.js">
<path fill="#ffffcc" stroke="black" d="M126.96,-814.25C126.96,-814.25 74.54,-814.25 74.54,-814.25 71.46,-814.25 68.38,-811.17 68.38,-808.08 68.38,-808.08 68.38,-801.92 68.38,-801.92 68.38,-798.83 71.46,-795.75 74.54,-795.75 74.54,-795.75 126.96,-795.75 126.96,-795.75 130.04,-795.75 133.12,-798.83 133.12,-801.92 133.12,-801.92 133.12,-808.08 133.12,-808.08 133.12,-811.17 130.04,-814.25 126.96,-814.25"/>
<text text-anchor="start" x="76.38" y="-801.7" font-family="Helvetica,sans-Serif" font-size="9.00">Controller.js</text>
</a>
</g>
</g>
<!-- src/js/overlay/Overlay.js -->
<g id="node5" class="node">
<title>src/js/overlay/Overlay.js</title>
<g id="a_node5"><a xlink:href="src/js/overlay/Overlay.js" xlink:title="Overlay.js">
<path fill="#ffffcc" stroke="black" d="M253.83,-814.25C253.83,-814.25 210.42,-814.25 210.42,-814.25 207.33,-814.25 204.25,-811.17 204.25,-808.08 204.25,-808.08 204.25,-801.92 204.25,-801.92 204.25,-798.83 207.33,-795.75 210.42,-795.75 210.42,-795.75 253.83,-795.75 253.83,-795.75 256.92,-795.75 260,-798.83 260,-801.92 260,-801.92 260,-808.08 260,-808.08 260,-811.17 256.92,-814.25 253.83,-814.25"/>
<text text-anchor="start" x="212.25" y="-801.7" font-family="Helvetica,sans-Serif" font-size="9.00">Overlay.js</text>
</a>
</g>
</g>
<!-- src/js/controller/Controller.js&#45;&gt;src/js/overlay/Overlay.js -->
<g id="edge3" class="edge">
<title>src/js/controller/Controller.js&#45;&gt;src/js/overlay/Overlay.js</title>
<path fill="none" stroke="#000000" stroke-width="2" stroke-opacity="0.200000" d="M133.4,-805C152.13,-805 175.91,-805 195.32,-805"/>
<polygon fill="#000000" fill-opacity="0.200000" stroke="#000000" stroke-width="2" stroke-opacity="0.200000" points="195.15,-807.1 201.15,-805 195.15,-802.9 195.15,-807.1"/>
</g>
<!-- src/js/overlay/Overlay.js&#45;&gt;src/js/application/ApplicationConfiguration.js -->
<g id="edge21" class="edge">
<title>src/js/overlay/Overlay.js&#45;&gt;src/js/application/ApplicationConfiguration.js</title>
<path fill="none" stroke="#000000" stroke-width="2" stroke-opacity="0.200000" d="M234.05,-814.7C238.33,-857.27 257.74,-1026.92 297.75,-1058 354.7,-1102.23 393.79,-1086.58 460,-1058 661.84,-970.86 704.56,-896.41 799.25,-698 810.65,-674.12 800.53,-664.59 807.25,-639 820.94,-586.87 847.26,-528.68 860.82,-500.36"/>
<polygon fill="#000000" fill-opacity="0.200000" stroke="#000000" stroke-width="2" stroke-opacity="0.200000" points="862.55,-501.61 863.28,-495.3 858.77,-499.78 862.55,-501.61"/>
</g>
<!-- src/js/overlay/Overlay.js&#45;&gt;src/js/application/ApplicationLogger.js -->
<g id="edge22" class="edge">
<title>src/js/overlay/Overlay.js&#45;&gt;src/js/application/ApplicationLogger.js</title>
<path fill="none" stroke="#000000" stroke-width="2" stroke-opacity="0.200000" d="M233.06,-795.26C233.44,-763.78 239.39,-664.35 297.75,-622 331.05,-597.83 629.63,-627.87 668,-613 740.04,-585.08 758.6,-564.7 799.25,-499 806.74,-486.9 797.19,-478.06 807.25,-468 809.02,-466.23 810.96,-464.64 813.03,-463.23"/>
<polygon fill="#000000" fill-opacity="0.200000" stroke="#000000" stroke-width="2" stroke-opacity="0.200000" points="813.64,-465.3 817.83,-460.52 811.58,-461.64 813.64,-465.3"/>
</g>
<!-- src/js/overlay/capture/OverlayCapture.js -->
<g id="node21" class="node">
<title>src/js/overlay/capture/OverlayCapture.js</title>
<g id="a_node21"><a xlink:href="src/js/overlay/capture/OverlayCapture.js" xlink:title="OverlayCapture.js">
<path fill="#ffffcc" stroke="black" d="M421.46,-723.25C421.46,-723.25 344.29,-723.25 344.29,-723.25 341.21,-723.25 338.12,-720.17 338.12,-717.08 338.12,-717.08 338.12,-710.92 338.12,-710.92 338.12,-707.83 341.21,-704.75 344.29,-704.75 344.29,-704.75 421.46,-704.75 421.46,-704.75 424.54,-704.75 427.62,-707.83 427.62,-710.92 427.62,-710.92 427.62,-717.08 427.62,-717.08 427.62,-720.17 424.54,-723.25 421.46,-723.25"/>
<text text-anchor="start" x="346.12" y="-710.7" font-family="Helvetica,sans-Serif" font-size="9.00">OverlayCapture.js</text>
</a>
</g>
</g>
<!-- src/js/overlay/Overlay.js&#45;&gt;src/js/overlay/capture/OverlayCapture.js -->
<g id="edge23" class="edge">
<title>src/js/overlay/Overlay.js&#45;&gt;src/js/overlay/capture/OverlayCapture.js</title>
<path fill="none" stroke="#000000" stroke-width="2" stroke-opacity="0.200000" d="M244.05,-795.41C256.51,-784.76 277.75,-767.43 297.75,-755 314.55,-744.56 334.41,-734.77 350.61,-727.38"/>
<polygon fill="#000000" fill-opacity="0.200000" stroke="#000000" stroke-width="2" stroke-opacity="0.200000" points="351.33,-729.36 355.95,-724.99 349.61,-725.53 351.33,-729.36"/>
</g>
<!-- src/js/overlay/dispatcher/OverlayDispatcher.js -->
<g id="node22" class="node">
<title>src/js/overlay/dispatcher/OverlayDispatcher.js</title>
<g id="a_node22"><a xlink:href="src/js/overlay/dispatcher/OverlayDispatcher.js" xlink:title="OverlayDispatcher.js">
<path fill="#ffffcc" stroke="black" d="M777.83,-668.25C777.83,-668.25 690.17,-668.25 690.17,-668.25 687.08,-668.25 684,-665.17 684,-662.08 684,-662.08 684,-655.92 684,-655.92 684,-652.83 687.08,-649.75 690.17,-649.75 690.17,-649.75 777.83,-649.75 777.83,-649.75 780.92,-649.75 784,-652.83 784,-655.92 784,-655.92 784,-662.08 784,-662.08 784,-665.17 780.92,-668.25 777.83,-668.25"/>
<text text-anchor="start" x="692" y="-655.7" font-family="Helvetica,sans-Serif" font-size="9.00">OverlayDispatcher.js</text>
</a>
</g>
</g>
<!-- src/js/overlay/Overlay.js&#45;&gt;src/js/overlay/dispatcher/OverlayDispatcher.js -->
<g id="edge24" class="edge">
<title>src/js/overlay/Overlay.js&#45;&gt;src/js/overlay/dispatcher/OverlayDispatcher.js</title>
<path fill="none" stroke="#000000" stroke-width="2" stroke-opacity="0.200000" d="M233.25,-795.35C234.25,-765.07 241.89,-671.68 297.75,-633 328.01,-612.05 563.49,-637.93 674.92,-651.59"/>
<polygon fill="#000000" fill-opacity="0.200000" stroke="#000000" stroke-width="2" stroke-opacity="0.200000" points="674.48,-653.65 680.69,-652.3 674.99,-649.48 674.48,-653.65"/>
</g>
<!-- src/js/overlay/format/OverlayFormat.js -->
<g id="node23" class="node">
<title>src/js/overlay/format/OverlayFormat.js</title>
<g id="a_node23"><a xlink:href="src/js/overlay/format/OverlayFormat.js" xlink:title="OverlayFormat.js">
<path fill="#ffffcc" stroke="black" d="M419.21,-784.25C419.21,-784.25 346.54,-784.25 346.54,-784.25 343.46,-784.25 340.38,-781.17 340.38,-778.08 340.38,-778.08 340.38,-771.92 340.38,-771.92 340.38,-768.83 343.46,-765.75 346.54,-765.75 346.54,-765.75 419.21,-765.75 419.21,-765.75 422.29,-765.75 425.38,-768.83 425.38,-771.92 425.38,-771.92 425.38,-778.08 425.38,-778.08 425.38,-781.17 422.29,-784.25 419.21,-784.25"/>
<text text-anchor="start" x="348.38" y="-771.7" font-family="Helvetica,sans-Serif" font-size="9.00">OverlayFormat.js</text>
</a>
</g>
</g>
<!-- src/js/overlay/Overlay.js&#45;&gt;src/js/overlay/format/OverlayFormat.js -->
<g id="edge25" class="edge">
<title>src/js/overlay/Overlay.js&#45;&gt;src/js/overlay/format/OverlayFormat.js</title>
<path fill="none" stroke="#000000" stroke-width="2" stroke-opacity="0.200000" d="M260.41,-799.5C280.28,-795.49 307.77,-789.95 331.57,-785.15"/>
<polygon fill="#000000" fill-opacity="0.200000" stroke="#000000" stroke-width="2" stroke-opacity="0.200000" points="331.72,-787.26 337.18,-784.01 330.89,-783.14 331.72,-787.26"/>
</g>
<!-- src/js/overlay/media/OverlayMedia.js -->
<g id="node24" class="node">
<title>src/js/overlay/media/OverlayMedia.js</title>
<g id="a_node24"><a xlink:href="src/js/overlay/media/OverlayMedia.js" xlink:title="OverlayMedia.js">
<path fill="#ffffcc" stroke="black" d="M417.71,-662.25C417.71,-662.25 348.04,-662.25 348.04,-662.25 344.96,-662.25 341.88,-659.17 341.88,-656.08 341.88,-656.08 341.88,-649.92 341.88,-649.92 341.88,-646.83 344.96,-643.75 348.04,-643.75 348.04,-643.75 417.71,-643.75 417.71,-643.75 420.79,-643.75 423.88,-646.83 423.88,-649.92 423.88,-649.92 423.88,-656.08 423.88,-656.08 423.88,-659.17 420.79,-662.25 417.71,-662.25"/>
<text text-anchor="start" x="349.88" y="-649.7" font-family="Helvetica,sans-Serif" font-size="9.00">OverlayMedia.js</text>
</a>
</g>
</g>
<!-- src/js/overlay/Overlay.js&#45;&gt;src/js/overlay/media/OverlayMedia.js -->
<g id="edge26" class="edge">
<title>src/js/overlay/Overlay.js&#45;&gt;src/js/overlay/media/OverlayMedia.js</title>
<path fill="none" stroke="#000000" stroke-width="2" stroke-opacity="0.200000" d="M236.47,-795.43C244.22,-774.52 265.24,-724.2 297.75,-694 310.83,-681.85 328.17,-672.58 343.71,-665.95"/>
<polygon fill="#000000" fill-opacity="0.200000" stroke="#000000" stroke-width="2" stroke-opacity="0.200000" points="344.07,-668.07 348.84,-663.87 342.49,-664.18 344.07,-668.07"/>
</g>
<!-- src/js/overlay/overlay/OverlayOverlay.js -->
<g id="node25" class="node">
<title>src/js/overlay/overlay/OverlayOverlay.js</title>
<g id="a_node25"><a xlink:href="src/js/overlay/overlay/OverlayOverlay.js" xlink:title="OverlayOverlay.js">
<path fill="#ffffcc" stroke="black" d="M420.33,-845.25C420.33,-845.25 345.42,-845.25 345.42,-845.25 342.33,-845.25 339.25,-842.17 339.25,-839.08 339.25,-839.08 339.25,-832.92 339.25,-832.92 339.25,-829.83 342.33,-826.75 345.42,-826.75 345.42,-826.75 420.33,-826.75 420.33,-826.75 423.42,-826.75 426.5,-829.83 426.5,-832.92 426.5,-832.92 426.5,-839.08 426.5,-839.08 426.5,-842.17 423.42,-845.25 420.33,-845.25"/>
<text text-anchor="start" x="347.25" y="-832.7" font-family="Helvetica,sans-Serif" font-size="9.00">OverlayOverlay.js</text>
</a>
</g>
</g>
<!-- src/js/overlay/Overlay.js&#45;&gt;src/js/overlay/overlay/OverlayOverlay.js -->
<g id="edge27" class="edge">
<title>src/js/overlay/Overlay.js&#45;&gt;src/js/overlay/overlay/OverlayOverlay.js</title>
<path fill="none" stroke="#000000" stroke-width="2" stroke-opacity="0.200000" d="M260.41,-810.69C279.89,-814.75 306.7,-820.33 330.18,-825.23"/>
<polygon fill="#000000" fill-opacity="0.200000" stroke="#000000" stroke-width="2" stroke-opacity="0.200000" points="329.73,-827.28 336.03,-826.45 330.59,-823.17 329.73,-827.28"/>
</g>
<!-- src/js/overlay/pathtracer/OverlayPathTracer.js -->
<g id="node26" class="node">
<title>src/js/overlay/pathtracer/OverlayPathTracer.js</title>
<g id="a_node26"><a xlink:href="src/js/overlay/pathtracer/OverlayPathTracer.js" xlink:title="OverlayPathTracer.js">
<path fill="#ffffcc" stroke="black" d="M427.08,-906.25C427.08,-906.25 338.67,-906.25 338.67,-906.25 335.58,-906.25 332.5,-903.17 332.5,-900.08 332.5,-900.08 332.5,-893.92 332.5,-893.92 332.5,-890.83 335.58,-887.75 338.67,-887.75 338.67,-887.75 427.08,-887.75 427.08,-887.75 430.17,-887.75 433.25,-890.83 433.25,-893.92 433.25,-893.92 433.25,-900.08 433.25,-900.08 433.25,-903.17 430.17,-906.25 427.08,-906.25"/>
<text text-anchor="start" x="340.5" y="-893.7" font-family="Helvetica,sans-Serif" font-size="9.00">OverlayPathTracer.js</text>
</a>
</g>
</g>
<!-- src/js/overlay/Overlay.js&#45;&gt;src/js/overlay/pathtracer/OverlayPathTracer.js -->
<g id="edge28" class="edge">
<title>src/js/overlay/Overlay.js&#45;&gt;src/js/overlay/pathtracer/OverlayPathTracer.js</title>
<path fill="none" stroke="#000000" stroke-width="2" stroke-opacity="0.200000" d="M239.06,-814.29C249.21,-829.39 271.37,-859.17 297.75,-875 305.78,-879.82 314.85,-883.59 324,-886.55"/>
<polygon fill="#000000" fill-opacity="0.200000" stroke="#000000" stroke-width="2" stroke-opacity="0.200000" points="323.13,-888.48 329.48,-888.17 324.33,-884.45 323.13,-888.48"/>
</g>
<!-- src/js/overlay/rhythm/OverlayRhythm.js -->
<g id="node27" class="node">
<title>src/js/overlay/rhythm/OverlayRhythm.js</title>
<g id="a_node27"><a xlink:href="src/js/overlay/rhythm/OverlayRhythm.js" xlink:title="OverlayRhythm.js">
<path fill="#ffffcc" stroke="black" d="M420.71,-967.25C420.71,-967.25 345.04,-967.25 345.04,-967.25 341.96,-967.25 338.88,-964.17 338.88,-961.08 338.88,-961.08 338.88,-954.92 338.88,-954.92 338.88,-951.83 341.96,-948.75 345.04,-948.75 345.04,-948.75 420.71,-948.75 420.71,-948.75 423.79,-948.75 426.88,-951.83 426.88,-954.92 426.88,-954.92 426.88,-961.08 426.88,-961.08 426.88,-964.17 423.79,-967.25 420.71,-967.25"/>
<text text-anchor="start" x="346.88" y="-954.7" font-family="Helvetica,sans-Serif" font-size="9.00">OverlayRhythm.js</text>
</a>
</g>
</g>
<!-- src/js/overlay/Overlay.js&#45;&gt;src/js/overlay/rhythm/OverlayRhythm.js -->
<g id="edge29" class="edge">
<title>src/js/overlay/Overlay.js&#45;&gt;src/js/overlay/rhythm/OverlayRhythm.js</title>
<path fill="none" stroke="#000000" stroke-width="2" stroke-opacity="0.200000" d="M235,-814.61C240.26,-838.9 257.46,-903.14 297.75,-936 306.89,-943.45 318.28,-948.4 329.7,-951.69"/>
<polygon fill="#000000" fill-opacity="0.200000" stroke="#000000" stroke-width="2" stroke-opacity="0.200000" points="329.13,-953.71 335.46,-953.15 330.16,-949.64 329.13,-953.71"/>
</g>
<!-- src/js/overlay/teleprompt/OverlayTeleprompt.js -->
<g id="node28" class="node">
<title>src/js/overlay/teleprompt/OverlayTeleprompt.js</title>
<g id="a_node28"><a xlink:href="src/js/overlay/teleprompt/OverlayTeleprompt.js" xlink:title="OverlayTeleprompt.js">
<path fill="#ffffcc" stroke="black" d="M427.83,-1028.25C427.83,-1028.25 337.92,-1028.25 337.92,-1028.25 334.83,-1028.25 331.75,-1025.17 331.75,-1022.08 331.75,-1022.08 331.75,-1015.92 331.75,-1015.92 331.75,-1012.83 334.83,-1009.75 337.92,-1009.75 337.92,-1009.75 427.83,-1009.75 427.83,-1009.75 430.92,-1009.75 434,-1012.83 434,-1015.92 434,-1015.92 434,-1022.08 434,-1022.08 434,-1025.17 430.92,-1028.25 427.83,-1028.25"/>
<text text-anchor="start" x="339.75" y="-1015.7" font-family="Helvetica,sans-Serif" font-size="9.00">OverlayTeleprompt.js</text>
</a>
</g>
</g>
<!-- src/js/overlay/Overlay.js&#45;&gt;src/js/overlay/teleprompt/OverlayTeleprompt.js -->
<g id="edge30" class="edge">
<title>src/js/overlay/Overlay.js&#45;&gt;src/js/overlay/teleprompt/OverlayTeleprompt.js</title>
<path fill="none" stroke="#000000" stroke-width="2" stroke-opacity="0.200000" d="M233.33,-814.66C234.54,-845.98 242.73,-945.64 297.75,-997 304.85,-1003.62 313.69,-1008.31 322.95,-1011.61"/>
<polygon fill="#000000" fill-opacity="0.200000" stroke="#000000" stroke-width="2" stroke-opacity="0.200000" points="322.29,-1013.6 328.64,-1013.37 323.53,-1009.59 322.29,-1013.6"/>
</g>
<!-- src/js/data/Data.json -->
<g id="node6" class="node">
<title>src/js/data/Data.json</title>
<g id="a_node6"><a xlink:href="src/js/data/Data.json" xlink:title="Data.json">
<path fill="#ffee44" stroke="black" d="M253.46,-1116.25C253.46,-1116.25 210.79,-1116.25 210.79,-1116.25 207.71,-1116.25 204.62,-1113.17 204.62,-1110.08 204.62,-1110.08 204.62,-1103.92 204.62,-1103.92 204.62,-1100.83 207.71,-1097.75 210.79,-1097.75 210.79,-1097.75 253.46,-1097.75 253.46,-1097.75 256.54,-1097.75 259.62,-1100.83 259.62,-1103.92 259.62,-1103.92 259.62,-1110.08 259.62,-1110.08 259.62,-1113.17 256.54,-1116.25 253.46,-1116.25"/>
<text text-anchor="start" x="212.62" y="-1103.7" font-family="Helvetica,sans-Serif" font-size="9.00">Data.json</text>
</a>
</g>
</g>
<!-- src/js/data/DataController.js -->
<g id="node7" class="node">
<title>src/js/data/DataController.js</title>
<g id="a_node7"><a xlink:href="src/js/data/DataController.js" xlink:title="DataController.js">
<path fill="#ffffcc" stroke="black" d="M136.71,-1116.25C136.71,-1116.25 64.79,-1116.25 64.79,-1116.25 61.71,-1116.25 58.62,-1113.17 58.62,-1110.08 58.62,-1110.08 58.62,-1103.92 58.62,-1103.92 58.62,-1100.83 61.71,-1097.75 64.79,-1097.75 64.79,-1097.75 136.71,-1097.75 136.71,-1097.75 139.79,-1097.75 142.88,-1100.83 142.88,-1103.92 142.88,-1103.92 142.88,-1110.08 142.88,-1110.08 142.88,-1113.17 139.79,-1116.25 136.71,-1116.25"/>
<text text-anchor="start" x="66.62" y="-1103.7" font-family="Helvetica,sans-Serif" font-size="9.00">DataController.js</text>
</a>
</g>
</g>
<!-- src/js/data/DataController.js&#45;&gt;src/js/data/Data.json -->
<g id="edge4" class="edge">
<title>src/js/data/DataController.js&#45;&gt;src/js/data/Data.json</title>
<path fill="none" stroke="#000000" stroke-width="2" stroke-opacity="0.200000" d="M143.04,-1107C160.01,-1107 179.47,-1107 195.77,-1107"/>
<polygon fill="#000000" fill-opacity="0.200000" stroke="#000000" stroke-width="2" stroke-opacity="0.200000" points="195.44,-1109.1 201.44,-1107 195.44,-1104.9 195.44,-1109.1"/>
</g>
<!-- src/js/directable/Directable.js -->
<g id="node8" class="node">
<title>src/js/directable/Directable.js</title>
<g id="a_node8"><a xlink:href="src/js/directable/Directable.js" xlink:title="Directable.js">
<path fill="#ffffcc" stroke="black" d="M897.71,-101.25C897.71,-101.25 843.04,-101.25 843.04,-101.25 839.96,-101.25 836.88,-98.17 836.88,-95.08 836.88,-95.08 836.88,-88.92 836.88,-88.92 836.88,-85.83 839.96,-82.75 843.04,-82.75 843.04,-82.75 897.71,-82.75 897.71,-82.75 900.79,-82.75 903.88,-85.83 903.88,-88.92 903.88,-88.92 903.88,-95.08 903.88,-95.08 903.88,-98.17 900.79,-101.25 897.71,-101.25"/>
<text text-anchor="start" x="844.88" y="-88.7" font-family="Helvetica,sans-Serif" font-size="9.00">Directable.js</text>
</a>
</g>
</g>
<!-- src/js/directable/directables/frame/DirectableFrame.js -->
<g id="node9" class="node">
<title>src/js/directable/directables/frame/DirectableFrame.js</title>
<g id="a_node9"><a xlink:href="src/js/directable/directables/frame/DirectableFrame.js" xlink:title="DirectableFrame.js">
<path fill="#ffffcc" stroke="black" d="M620.46,-346.25C620.46,-346.25 539.54,-346.25 539.54,-346.25 536.46,-346.25 533.38,-343.17 533.38,-340.08 533.38,-340.08 533.38,-333.92 533.38,-333.92 533.38,-330.83 536.46,-327.75 539.54,-327.75 539.54,-327.75 620.46,-327.75 620.46,-327.75 623.54,-327.75 626.62,-330.83 626.62,-333.92 626.62,-333.92 626.62,-340.08 626.62,-340.08 626.62,-343.17 623.54,-346.25 620.46,-346.25"/>
<text text-anchor="start" x="541.38" y="-333.7" font-family="Helvetica,sans-Serif" font-size="9.00">DirectableFrame.js</text>
</a>
</g>
</g>
<!-- src/js/directable/directables/frame/DirectableFrame.js&#45;&gt;src/js/application/ApplicationLogger.js -->
<g id="edge5" class="edge">
<title>src/js/directable/directables/frame/DirectableFrame.js&#45;&gt;src/js/application/ApplicationLogger.js</title>
<path fill="none" stroke="#000000" stroke-width="2" stroke-opacity="0.200000" d="M626.68,-333.4C641.75,-334.67 657.35,-339.05 668,-350 688.6,-371.18 655.62,-394.61 676,-416 695.17,-436.11 771.97,-431.76 799.25,-437 804.92,-438.09 810.83,-439.27 816.72,-440.49"/>
<polygon fill="#000000" fill-opacity="0.200000" stroke="#000000" stroke-width="2" stroke-opacity="0.200000" points="816.03,-442.49 822.33,-441.66 816.88,-438.38 816.03,-442.49"/>
</g>
<!-- src/js/directable/directables/frame/DirectableFrame.js&#45;&gt;src/js/directable/Directable.js -->
<g id="edge6" class="edge">
<title>src/js/directable/directables/frame/DirectableFrame.js&#45;&gt;src/js/directable/Directable.js</title>
<path fill="none" stroke="#000000" stroke-width="2" stroke-opacity="0.200000" d="M614.04,-327.38C633.28,-319.93 656.04,-307.51 668,-288 679.04,-269.99 660.98,-112.86 676,-98 696.61,-77.61 777.36,-81.99 827.77,-87.01"/>
<polygon fill="#000000" fill-opacity="0.200000" stroke="#000000" stroke-width="2" stroke-opacity="0.200000" points="827.31,-89.07 833.49,-87.6 827.74,-84.89 827.31,-89.07"/>
</g>
<!-- src/js/directable/directables/rhythm/DirectableRhythm.js -->
<g id="node10" class="node">
<title>src/js/directable/directables/rhythm/DirectableRhythm.js</title>
<g id="a_node10"><a xlink:href="src/js/directable/directables/rhythm/DirectableRhythm.js" xlink:title="DirectableRhythm.js">
<path fill="#ffffcc" stroke="black" d="M777.08,-258.25C777.08,-258.25 690.92,-258.25 690.92,-258.25 687.83,-258.25 684.75,-255.17 684.75,-252.08 684.75,-252.08 684.75,-245.92 684.75,-245.92 684.75,-242.83 687.83,-239.75 690.92,-239.75 690.92,-239.75 777.08,-239.75 777.08,-239.75 780.17,-239.75 783.25,-242.83 783.25,-245.92 783.25,-245.92 783.25,-252.08 783.25,-252.08 783.25,-255.17 780.17,-258.25 777.08,-258.25"/>
<text text-anchor="start" x="692.75" y="-245.7" font-family="Helvetica,sans-Serif" font-size="9.00">DirectableRhythm.js</text>
</a>
</g>
</g>
<!-- src/js/directable/directables/rhythm/DirectableRhythm.js&#45;&gt;src/js/application/ApplicationLogger.js -->
<g id="edge7" class="edge">
<title>src/js/directable/directables/rhythm/DirectableRhythm.js&#45;&gt;src/js/application/ApplicationLogger.js</title>
<path fill="none" stroke="#000000" stroke-width="2" stroke-opacity="0.200000" d="M744.23,-258.74C758.82,-274.83 786.86,-308.59 799.25,-343 805.83,-361.27 795.33,-414.68 807.25,-430 809.54,-432.95 812.26,-435.5 815.25,-437.71"/>
<polygon fill="#000000" fill-opacity="0.200000" stroke="#000000" stroke-width="2" stroke-opacity="0.200000" points="813.89,-439.34 820.1,-440.69 816.09,-435.76 813.89,-439.34"/>
</g>
<!-- src/js/directable/directables/rhythm/DirectableRhythm.js&#45;&gt;src/js/directable/Directable.js -->
<g id="edge8" class="edge">
<title>src/js/directable/directables/rhythm/DirectableRhythm.js&#45;&gt;src/js/directable/Directable.js</title>
<path fill="none" stroke="#000000" stroke-width="2" stroke-opacity="0.200000" d="M783.46,-244.29C789.14,-242.31 794.57,-239.62 799.25,-236 840.7,-203.92 859.13,-141.01 865.97,-110.06"/>
<polygon fill="#000000" fill-opacity="0.200000" stroke="#000000" stroke-width="2" stroke-opacity="0.200000" points="867.95,-110.82 867.11,-104.52 863.84,-109.97 867.95,-110.82"/>
</g>
<!-- src/js/directable/directables/rhythm/asdr/ASDRData.js -->
<g id="node11" class="node">
<title>src/js/directable/directables/rhythm/asdr/ASDRData.js</title>
<g id="a_node11"><a xlink:href="src/js/directable/directables/rhythm/asdr/ASDRData.js" xlink:title="ASDRData.js">
<path fill="#ccffcc" stroke="black" d="M608.83,-135.25C608.83,-135.25 551.17,-135.25 551.17,-135.25 548.08,-135.25 545,-132.17 545,-129.08 545,-129.08 545,-122.92 545,-122.92 545,-119.83 548.08,-116.75 551.17,-116.75 551.17,-116.75 608.83,-116.75 608.83,-116.75 611.92,-116.75 615,-119.83 615,-122.92 615,-122.92 615,-129.08 615,-129.08 615,-132.17 611.92,-135.25 608.83,-135.25"/>
<text text-anchor="start" x="553" y="-122.7" font-family="Helvetica,sans-Serif" font-size="9.00">ASDRData.js</text>
</a>
</g>
</g>
<!-- src/js/directable/directables/rhythm/asdr/ASDREnvelope.js -->
<g id="node12" class="node">
<title>src/js/directable/directables/rhythm/asdr/ASDREnvelope.js</title>
<g id="a_node12"><a xlink:href="src/js/directable/directables/rhythm/asdr/ASDREnvelope.js" xlink:title="ASDREnvelope.js">
<path fill="#ffffcc" stroke="black" d="M618.58,-166.25C618.58,-166.25 541.42,-166.25 541.42,-166.25 538.33,-166.25 535.25,-163.17 535.25,-160.08 535.25,-160.08 535.25,-153.92 535.25,-153.92 535.25,-150.83 538.33,-147.75 541.42,-147.75 541.42,-147.75 618.58,-147.75 618.58,-147.75 621.67,-147.75 624.75,-150.83 624.75,-153.92 624.75,-153.92 624.75,-160.08 624.75,-160.08 624.75,-163.17 621.67,-166.25 618.58,-166.25"/>
<text text-anchor="start" x="543.25" y="-153.7" font-family="Helvetica,sans-Serif" font-size="9.00">ASDREnvelope.js</text>
</a>
</g>
</g>
<!-- src/js/directable/directables/rhythm/asdr/ASDREnvelope.js&#45;&gt;src/js/application/ApplicationLogger.js -->
<g id="edge9" class="edge">
<title>src/js/directable/directables/rhythm/asdr/ASDREnvelope.js&#45;&gt;src/js/application/ApplicationLogger.js</title>
<path fill="none" stroke="#000000" stroke-width="2" stroke-opacity="0.200000" d="M625.04,-154.45C640.86,-155.97 657.4,-160.84 668,-173 681.01,-187.92 663.3,-335.81 676,-351 712.02,-394.1 760.9,-337.96 799.25,-379 814.91,-395.76 792.59,-412.35 807.25,-430 809.79,-433.05 812.77,-435.68 816.05,-437.95"/>
<polygon fill="#000000" fill-opacity="0.200000" stroke="#000000" stroke-width="2" stroke-opacity="0.200000" points="814.74,-439.62 820.99,-440.82 816.86,-435.99 814.74,-439.62"/>
</g>
<!-- src/js/directable/directables/rhythm/asdr/DirectableRhythmASDRManager.js -->
<g id="node13" class="node">
<title>src/js/directable/directables/rhythm/asdr/DirectableRhythmASDRManager.js</title>
<g id="a_node13"><a xlink:href="src/js/directable/directables/rhythm/asdr/DirectableRhythmASDRManager.js" xlink:title="DirectableRhythmASDRManager.js">
<path fill="#ffffcc" stroke="black" d="M653.83,-197.25C653.83,-197.25 506.17,-197.25 506.17,-197.25 503.08,-197.25 500,-194.17 500,-191.08 500,-191.08 500,-184.92 500,-184.92 500,-181.83 503.08,-178.75 506.17,-178.75 506.17,-178.75 653.83,-178.75 653.83,-178.75 656.92,-178.75 660,-181.83 660,-184.92 660,-184.92 660,-191.08 660,-191.08 660,-194.17 656.92,-197.25 653.83,-197.25"/>
<text text-anchor="start" x="508" y="-184.7" font-family="Helvetica,sans-Serif" font-size="9.00">DirectableRhythmASDRManager.js</text>
</a>
</g>
</g>
<!-- src/js/directable/directables/rhythm/asdr/DirectableRhythmASDRManager.js&#45;&gt;src/js/application/ApplicationLogger.js -->
<g id="edge10" class="edge">
<title>src/js/directable/directables/rhythm/asdr/DirectableRhythmASDRManager.js&#45;&gt;src/js/application/ApplicationLogger.js</title>
<path fill="none" stroke="#000000" stroke-width="2" stroke-opacity="0.200000" d="M622.71,-197.59C639.61,-203.69 657.56,-213.48 668,-229 686.5,-256.52 654.04,-353.16 676,-378 712.85,-419.69 758.29,-362.34 799.25,-400 809.41,-409.34 797.89,-419.86 807.25,-430 810.15,-433.14 813.53,-435.84 817.19,-438.15"/>
<polygon fill="#000000" fill-opacity="0.200000" stroke="#000000" stroke-width="2" stroke-opacity="0.200000" points="816.08,-439.94 822.36,-440.94 818.07,-436.24 816.08,-439.94"/>
</g>
<!-- src/js/directable/directables/rhythm/bpm/DirectableRhythmBPM.js -->
<g id="node14" class="node">
<title>src/js/directable/directables/rhythm/bpm/DirectableRhythmBPM.js</title>
<g id="a_node14"><a xlink:href="src/js/directable/directables/rhythm/bpm/DirectableRhythmBPM.js" xlink:title="DirectableRhythmBPM.js">
<path fill="#ffffcc" stroke="black" d="M632.83,-258.25C632.83,-258.25 527.17,-258.25 527.17,-258.25 524.08,-258.25 521,-255.17 521,-252.08 521,-252.08 521,-245.92 521,-245.92 521,-242.83 524.08,-239.75 527.17,-239.75 527.17,-239.75 632.83,-239.75 632.83,-239.75 635.92,-239.75 639,-242.83 639,-245.92 639,-245.92 639,-252.08 639,-252.08 639,-255.17 635.92,-258.25 632.83,-258.25"/>
<text text-anchor="start" x="529" y="-245.7" font-family="Helvetica,sans-Serif" font-size="9.00">DirectableRhythmBPM.js</text>
</a>
</g>
</g>
<!-- src/js/directable/directables/rhythm/bpm/DirectableRhythmBPM.js&#45;&gt;src/js/application/ApplicationLogger.js -->
<g id="edge11" class="edge">
<title>src/js/directable/directables/rhythm/bpm/DirectableRhythmBPM.js&#45;&gt;src/js/application/ApplicationLogger.js</title>
<path fill="none" stroke="#000000" stroke-width="2" stroke-opacity="0.200000" d="M601.15,-258.56C621.8,-269.53 652.96,-289.61 668,-317 676.81,-333.05 663.37,-385.75 676,-399 714.2,-439.07 753.01,-386.57 799.25,-417 804.92,-420.73 801.97,-425.74 807.25,-430 811.45,-433.4 816.22,-436.29 821.21,-438.75"/>
<polygon fill="#000000" fill-opacity="0.200000" stroke="#000000" stroke-width="2" stroke-opacity="0.200000" points="820.05,-440.54 826.39,-441.04 821.75,-436.7 820.05,-440.54"/>
</g>
<!-- src/js/directable/directables/rhythm/bpm/DirectableRhythmBPM.js&#45;&gt;src/js/directable/directables/rhythm/DirectableRhythm.js -->
<g id="edge12" class="edge">
<title>src/js/directable/directables/rhythm/bpm/DirectableRhythmBPM.js&#45;&gt;src/js/directable/directables/rhythm/DirectableRhythm.js</title>
<path fill="none" stroke="#000000" stroke-width="2" stroke-opacity="0.200000" d="M639.33,-249C651.21,-249 663.69,-249 675.54,-249"/>
<polygon fill="#000000" fill-opacity="0.200000" stroke="#000000" stroke-width="2" stroke-opacity="0.200000" points="675.42,-251.1 681.42,-249 675.42,-246.9 675.42,-251.1"/>
</g>
<!-- src/js/directable/directables/title/DirectableTitle.js -->
<g id="node15" class="node">
<title>src/js/directable/directables/title/DirectableTitle.js</title>
<g id="a_node15"><a xlink:href="src/js/directable/directables/title/DirectableTitle.js" xlink:title="DirectableTitle.js">
<path fill="#ffffcc" stroke="black" d="M615.96,-66.25C615.96,-66.25 544.04,-66.25 544.04,-66.25 540.96,-66.25 537.88,-63.17 537.88,-60.08 537.88,-60.08 537.88,-53.92 537.88,-53.92 537.88,-50.83 540.96,-47.75 544.04,-47.75 544.04,-47.75 615.96,-47.75 615.96,-47.75 619.04,-47.75 622.12,-50.83 622.12,-53.92 622.12,-53.92 622.12,-60.08 622.12,-60.08 622.12,-63.17 619.04,-66.25 615.96,-66.25"/>
<text text-anchor="start" x="545.88" y="-53.7" font-family="Helvetica,sans-Serif" font-size="9.00">DirectableTitle.js</text>
</a>
</g>
</g>
<!-- src/js/directable/directables/title/DirectableTitle.js&#45;&gt;src/js/application/ApplicationLogger.js -->
<g id="edge13" class="edge">
<title>src/js/directable/directables/title/DirectableTitle.js&#45;&gt;src/js/application/ApplicationLogger.js</title>
<path fill="none" stroke="#000000" stroke-width="2" stroke-opacity="0.200000" d="M614.07,-66.6C633.32,-74.05 656.08,-86.47 668,-106 680.11,-125.84 661.78,-296.62 676,-315 711.01,-360.23 762.81,-307.91 799.25,-352 821.45,-378.86 785.71,-402.61 807.25,-430 809.6,-432.99 812.38,-435.57 815.45,-437.8"/>
<polygon fill="#000000" fill-opacity="0.200000" stroke="#000000" stroke-width="2" stroke-opacity="0.200000" points="814.23,-439.52 820.45,-440.83 816.41,-435.92 814.23,-439.52"/>
</g>
<!-- src/js/directable/directables/title/DirectableTitle.js&#45;&gt;src/js/directable/Directable.js -->
<g id="edge14" class="edge">
<title>src/js/directable/directables/title/DirectableTitle.js&#45;&gt;src/js/directable/Directable.js</title>
<path fill="none" stroke="#000000" stroke-width="2" stroke-opacity="0.200000" d="M622.62,-62.05C677.44,-68.7 773.26,-80.33 827.97,-86.97"/>
<polygon fill="#000000" fill-opacity="0.200000" stroke="#000000" stroke-width="2" stroke-opacity="0.200000" points="827.49,-89.03 833.7,-87.67 828,-84.86 827.49,-89.03"/>
</g>
<!-- src/js/director/Director.js -->
<g id="node16" class="node">
<title>src/js/director/Director.js</title>
<g id="a_node16"><a xlink:href="src/js/director/Director.js" xlink:title="Director.js">
<path fill="#ffffcc" stroke="black" d="M602.08,-505.25C602.08,-505.25 557.92,-505.25 557.92,-505.25 554.83,-505.25 551.75,-502.17 551.75,-499.08 551.75,-499.08 551.75,-492.92 551.75,-492.92 551.75,-489.83 554.83,-486.75 557.92,-486.75 557.92,-486.75 602.08,-486.75 602.08,-486.75 605.17,-486.75 608.25,-489.83 608.25,-492.92 608.25,-492.92 608.25,-499.08 608.25,-499.08 608.25,-502.17 605.17,-505.25 602.08,-505.25"/>
<text text-anchor="start" x="559.75" y="-492.7" font-family="Helvetica,sans-Serif" font-size="9.00">Director.js</text>
</a>
</g>
</g>
<!-- src/js/director/directors/DirectorDanceRabbitDance.js -->
<g id="node17" class="node">
<title>src/js/director/directors/DirectorDanceRabbitDance.js</title>
<g id="a_node17"><a xlink:href="src/js/director/directors/DirectorDanceRabbitDance.js" xlink:title="DirectorDanceRabbitDance.js">
<path fill="#ffffcc" stroke="black" d="M445.83,-495.25C445.83,-495.25 319.92,-495.25 319.92,-495.25 316.83,-495.25 313.75,-492.17 313.75,-489.08 313.75,-489.08 313.75,-482.92 313.75,-482.92 313.75,-479.83 316.83,-476.75 319.92,-476.75 319.92,-476.75 445.83,-476.75 445.83,-476.75 448.92,-476.75 452,-479.83 452,-482.92 452,-482.92 452,-489.08 452,-489.08 452,-492.17 448.92,-495.25 445.83,-495.25"/>
<text text-anchor="start" x="321.75" y="-482.7" font-family="Helvetica,sans-Serif" font-size="9.00">DirectorDanceRabbitDance.js</text>
</a>
</g>
</g>
<!-- src/js/director/directors/DirectorDanceRabbitDance.js&#45;&gt;src/js/application/ApplicationLogger.js -->
<g id="edge15" class="edge">
<title>src/js/director/directors/DirectorDanceRabbitDance.js&#45;&gt;src/js/application/ApplicationLogger.js</title>
<path fill="none" stroke="#000000" stroke-width="2" stroke-opacity="0.200000" d="M452.26,-480.04C457.59,-479.66 462.88,-479.31 468,-479 615.06,-470.22 653.05,-485.14 799.25,-467 806.44,-466.11 813.99,-464.84 821.36,-463.43"/>
<polygon fill="#000000" fill-opacity="0.200000" stroke="#000000" stroke-width="2" stroke-opacity="0.200000" points="821.47,-465.55 826.93,-462.3 820.63,-461.43 821.47,-465.55"/>
</g>
<!-- src/js/director/directors/DirectorDanceRabbitDance.js&#45;&gt;src/js/directable/directables/rhythm/bpm/DirectableRhythmBPM.js -->
<g id="edge16" class="edge">
<title>src/js/director/directors/DirectorDanceRabbitDance.js&#45;&gt;src/js/directable/directables/rhythm/bpm/DirectableRhythmBPM.js</title>
<path fill="none" stroke="#000000" stroke-width="2" stroke-opacity="0.200000" d="M386.54,-476.51C394.69,-448.96 421.51,-367.76 468,-317 490.26,-292.7 523.17,-274.02 547.38,-262.44"/>
<polygon fill="#000000" fill-opacity="0.200000" stroke="#000000" stroke-width="2" stroke-opacity="0.200000" points="548.25,-264.36 552.8,-259.92 546.48,-260.55 548.25,-264.36"/>
</g>
<!-- src/js/director/directors/DirectorDanceRabbitDance.js&#45;&gt;src/js/directable/directables/title/DirectableTitle.js -->
<g id="edge17" class="edge">
<title>src/js/director/directors/DirectorDanceRabbitDance.js&#45;&gt;src/js/directable/directables/title/DirectableTitle.js</title>
<path fill="none" stroke="#000000" stroke-width="2" stroke-opacity="0.200000" d="M384.81,-476.56C390.22,-423.82 418.86,-165.97 468,-106 483.32,-87.3 507.22,-75.52 528.91,-68.21"/>
<polygon fill="#000000" fill-opacity="0.200000" stroke="#000000" stroke-width="2" stroke-opacity="0.200000" points="529.44,-70.25 534.53,-66.44 528.17,-66.24 529.44,-70.25"/>
</g>
<!-- src/js/director/directors/DirectorDanceRabbitDance.js&#45;&gt;src/js/director/Director.js -->
<g id="edge18" class="edge">
<title>src/js/director/directors/DirectorDanceRabbitDance.js&#45;&gt;src/js/director/Director.js</title>
<path fill="none" stroke="#000000" stroke-width="2" stroke-opacity="0.200000" d="M452.39,-489.51C482.71,-491.07 517.15,-492.83 542.44,-494.13"/>
<polygon fill="#000000" fill-opacity="0.200000" stroke="#000000" stroke-width="2" stroke-opacity="0.200000" points="542.2,-496.22 548.3,-494.43 542.42,-492.02 542.2,-496.22"/>
</g>
<!-- src/js/event/ApplicationEvent.js -->
<g id="node18" class="node">
<title>src/js/event/ApplicationEvent.js</title>
<g id="a_node18"><a xlink:href="src/js/event/ApplicationEvent.js" xlink:title="ApplicationEvent.js">
<path fill="#ffffcc" stroke="black" d="M272.96,-1177.25C272.96,-1177.25 191.29,-1177.25 191.29,-1177.25 188.21,-1177.25 185.12,-1174.17 185.12,-1171.08 185.12,-1171.08 185.12,-1164.92 185.12,-1164.92 185.12,-1161.83 188.21,-1158.75 191.29,-1158.75 191.29,-1158.75 272.96,-1158.75 272.96,-1158.75 276.04,-1158.75 279.12,-1161.83 279.12,-1164.92 279.12,-1164.92 279.12,-1171.08 279.12,-1171.08 279.12,-1174.17 276.04,-1177.25 272.96,-1177.25"/>
<text text-anchor="start" x="193.12" y="-1164.7" font-family="Helvetica,sans-Serif" font-size="9.00">ApplicationEvent.js</text>
</a>
</g>
</g>
<!-- src/js/event/ApplicationEventDispatcher.js -->
<g id="node19" class="node">
<title>src/js/event/ApplicationEventDispatcher.js</title>
<g id="a_node19"><a xlink:href="src/js/event/ApplicationEventDispatcher.js" xlink:title="ApplicationEventDispatcher.js">
<path fill="#ffffcc" stroke="black" d="M163.33,-1177.25C163.33,-1177.25 38.17,-1177.25 38.17,-1177.25 35.08,-1177.25 32,-1174.17 32,-1171.08 32,-1171.08 32,-1164.92 32,-1164.92 32,-1161.83 35.08,-1158.75 38.17,-1158.75 38.17,-1158.75 163.33,-1158.75 163.33,-1158.75 166.42,-1158.75 169.5,-1161.83 169.5,-1164.92 169.5,-1164.92 169.5,-1171.08 169.5,-1171.08 169.5,-1174.17 166.42,-1177.25 163.33,-1177.25"/>
<text text-anchor="start" x="40" y="-1164.7" font-family="Helvetica,sans-Serif" font-size="9.00">ApplicationEventDispatcher.js</text>
</a>
</g>
</g>
<!-- src/js/event/ApplicationEventDispatcher.js&#45;&gt;src/js/event/ApplicationEvent.js -->
<g id="edge19" class="edge">
<title>src/js/event/ApplicationEventDispatcher.js&#45;&gt;src/js/event/ApplicationEvent.js</title>
<path fill="none" stroke="#000000" stroke-width="2" stroke-opacity="0.200000" d="M169.85,-1168C171.92,-1168 174,-1168 176.06,-1168"/>
<polygon fill="#000000" fill-opacity="0.200000" stroke="#000000" stroke-width="2" stroke-opacity="0.200000" points="175.95,-1170.1 181.95,-1168 175.95,-1165.9 175.95,-1170.1"/>
</g>
<!-- src/js/index.js -->
<g id="node20" class="node">
<title>src/js/index.js</title>
<g id="a_node20"><a xlink:href="src/js/index.js" xlink:title="index.js">
<path fill="#ffffcc" stroke="black" d="M600.83,-453.25C600.83,-453.25 559.17,-453.25 559.17,-453.25 556.08,-453.25 553,-450.17 553,-447.08 553,-447.08 553,-440.92 553,-440.92 553,-437.83 556.08,-434.75 559.17,-434.75 559.17,-434.75 600.83,-434.75 600.83,-434.75 603.92,-434.75 607,-437.83 607,-440.92 607,-440.92 607,-447.08 607,-447.08 607,-450.17 603.92,-453.25 600.83,-453.25"/>
<text text-anchor="start" x="564.25" y="-440.7" font-family="Helvetica,sans-Serif" font-size="9.00">index.js</text>
</a>
</g>
</g>
<!-- src/js/index.js&#45;&gt;src/js/application/Application.js -->
<g id="edge20" class="edge">
<title>src/js/index.js&#45;&gt;src/js/application/Application.js</title>
<path fill="none" stroke="#000000" stroke-width="2" stroke-opacity="0.200000" d="M607.48,-445.39C630.1,-446.58 663.08,-448.32 689.56,-449.71"/>
<polygon fill="#000000" fill-opacity="0.200000" stroke="#000000" stroke-width="2" stroke-opacity="0.200000" points="689.15,-451.79 695.25,-450.01 689.37,-447.6 689.15,-451.79"/>
</g>
<!-- src/js/overlay/OverlayUtil.js -->
<g id="node29" class="node">
<title>src/js/overlay/OverlayUtil.js</title>
<g id="a_node29"><a xlink:href="src/js/overlay/OverlayUtil.js" xlink:title="OverlayUtil.js">
<path fill="#ffffcc" stroke="black" d="M608.83,-753.25C608.83,-753.25 551.17,-753.25 551.17,-753.25 548.08,-753.25 545,-750.17 545,-747.08 545,-747.08 545,-740.92 545,-740.92 545,-737.83 548.08,-734.75 551.17,-734.75 551.17,-734.75 608.83,-734.75 608.83,-734.75 611.92,-734.75 615,-737.83 615,-740.92 615,-740.92 615,-747.08 615,-747.08 615,-750.17 611.92,-753.25 608.83,-753.25"/>
<text text-anchor="start" x="553" y="-740.7" font-family="Helvetica,sans-Serif" font-size="9.00">OverlayUtil.js</text>
</a>
</g>
</g>
<!-- src/js/overlay/capture/OverlayCapture.js&#45;&gt;src/js/overlay/OverlayUtil.js -->
<g id="edge33" class="edge">
<title>src/js/overlay/capture/OverlayCapture.js&#45;&gt;src/js/overlay/OverlayUtil.js</title>
<path fill="none" stroke="#000000" stroke-width="2" stroke-opacity="0.200000" d="M427.66,-720.73C460.02,-725.71 503.84,-732.44 536,-737.39"/>
<polygon fill="#000000" fill-opacity="0.200000" stroke="#000000" stroke-width="2" stroke-opacity="0.200000" points="535.51,-739.44 541.76,-738.27 536.14,-735.29 535.51,-739.44"/>
</g>
<!-- src/js/overlay/dispatcher/OverlayDispatcher.js&#45;&gt;src/js/application/ApplicationLogger.js -->
<g id="edge34" class="edge">
<title>src/js/overlay/dispatcher/OverlayDispatcher.js&#45;&gt;src/js/application/ApplicationLogger.js</title>
<path fill="none" stroke="#000000" stroke-width="2" stroke-opacity="0.200000" d="M784.41,-656.21C790.08,-653.95 795.25,-650.67 799.25,-646 812.13,-630.96 794.77,-483.37 807.25,-468 808.9,-465.97 810.76,-464.18 812.79,-462.6"/>
<polygon fill="#000000" fill-opacity="0.200000" stroke="#000000" stroke-width="2" stroke-opacity="0.200000" points="813.67,-464.53 817.67,-459.6 811.46,-460.95 813.67,-464.53"/>
</g>
<!-- src/js/overlay/dispatcher/OverlayDispatcherEvent.js -->
<g id="node30" class="node">
<title>src/js/overlay/dispatcher/OverlayDispatcherEvent.js</title>
<g id="a_node30"><a xlink:href="src/js/overlay/dispatcher/OverlayDispatcherEvent.js" xlink:title="OverlayDispatcherEvent.js">
<path fill="#ffffcc" stroke="black" d="M926.21,-668.25C926.21,-668.25 814.54,-668.25 814.54,-668.25 811.46,-668.25 808.38,-665.17 808.38,-662.08 808.38,-662.08 808.38,-655.92 808.38,-655.92 808.38,-652.83 811.46,-649.75 814.54,-649.75 814.54,-649.75 926.21,-649.75 926.21,-649.75 929.29,-649.75 932.38,-652.83 932.38,-655.92 932.38,-655.92 932.38,-662.08 932.38,-662.08 932.38,-665.17 929.29,-668.25 926.21,-668.25"/>
<text text-anchor="start" x="816.38" y="-655.7" font-family="Helvetica,sans-Serif" font-size="9.00">OverlayDispatcherEvent.js</text>
</a>
</g>
</g>
<!-- src/js/overlay/dispatcher/OverlayDispatcher.js&#45;&gt;src/js/overlay/dispatcher/OverlayDispatcherEvent.js -->
<g id="edge35" class="edge">
<title>src/js/overlay/dispatcher/OverlayDispatcher.js&#45;&gt;src/js/overlay/dispatcher/OverlayDispatcherEvent.js</title>
<path fill="none" stroke="#000000" stroke-width="2" stroke-opacity="0.200000" d="M784.27,-659C789.26,-659 794.4,-659 799.55,-659"/>
<polygon fill="#000000" fill-opacity="0.200000" stroke="#000000" stroke-width="2" stroke-opacity="0.200000" points="799.19,-661.1 805.19,-659 799.19,-656.9 799.19,-661.1"/>
</g>
<!-- src/js/overlay/format/OverlayFormat.js&#45;&gt;src/js/overlay/OverlayUtil.js -->
<g id="edge36" class="edge">
<title>src/js/overlay/format/OverlayFormat.js&#45;&gt;src/js/overlay/OverlayUtil.js</title>
<path fill="none" stroke="#000000" stroke-width="2" stroke-opacity="0.200000" d="M425.73,-768.35C458.18,-763.19 502.99,-756.08 535.78,-750.87"/>
<polygon fill="#000000" fill-opacity="0.200000" stroke="#000000" stroke-width="2" stroke-opacity="0.200000" points="536.1,-752.94 541.7,-749.93 535.44,-748.79 536.1,-752.94"/>
</g>
<!-- src/js/overlay/media/OverlayMedia.js&#45;&gt;src/js/overlay/OverlayUtil.js -->
<g id="edge37" class="edge">
<title>src/js/overlay/media/OverlayMedia.js&#45;&gt;src/js/overlay/OverlayUtil.js</title>
<path fill="none" stroke="#000000" stroke-width="2" stroke-opacity="0.200000" d="M404.76,-662.74C439.82,-679.09 510.58,-712.09 550.29,-730.61"/>
<polygon fill="#000000" fill-opacity="0.200000" stroke="#000000" stroke-width="2" stroke-opacity="0.200000" points="549.2,-732.42 555.52,-733.05 550.97,-728.61 549.2,-732.42"/>
</g>
<!-- src/js/overlay/pathtracer/OverlayPathTracer.js&#45;&gt;src/js/overlay/OverlayUtil.js -->
<g id="edge38" class="edge">
<title>src/js/overlay/pathtracer/OverlayPathTracer.js&#45;&gt;src/js/overlay/OverlayUtil.js</title>
<path fill="none" stroke="#000000" stroke-width="2" stroke-opacity="0.200000" d="M432.29,-887.36C441.89,-884.27 451.59,-880.24 460,-875 508.65,-844.68 549.6,-788.97 568.23,-760.98"/>
<polygon fill="#000000" fill-opacity="0.200000" stroke="#000000" stroke-width="2" stroke-opacity="0.200000" points="569.9,-762.27 571.42,-756.09 566.38,-759.97 569.9,-762.27"/>
</g>
<!-- src/js/overlay/rhythm/OverlayRhythm.js&#45;&gt;src/js/overlay/OverlayUtil.js -->
<g id="edge39" class="edge">
<title>src/js/overlay/rhythm/OverlayRhythm.js&#45;&gt;src/js/overlay/OverlayUtil.js</title>
<path fill="none" stroke="#000000" stroke-width="2" stroke-opacity="0.200000" d="M427.13,-951.35C438.62,-948.09 450.46,-943.23 460,-936 521.92,-889.06 559.27,-799.78 573,-761.81"/>
<polygon fill="#000000" fill-opacity="0.200000" stroke="#000000" stroke-width="2" stroke-opacity="0.200000" points="574.83,-762.93 574.84,-756.57 570.87,-761.53 574.83,-762.93"/>
</g>
<!-- src/js/overlay/teleprompt/OverlayTeleprompt.js&#45;&gt;src/js/overlay/OverlayUtil.js -->
<g id="edge40" class="edge">
<title>src/js/overlay/teleprompt/OverlayTeleprompt.js&#45;&gt;src/js/overlay/OverlayUtil.js</title>
<path fill="none" stroke="#000000" stroke-width="2" stroke-opacity="0.200000" d="M434.43,-1010.93C443.66,-1007.73 452.67,-1003.25 460,-997 535.68,-932.45 566.45,-809.13 575.72,-762.49"/>
<polygon fill="#000000" fill-opacity="0.200000" stroke="#000000" stroke-width="2" stroke-opacity="0.200000" points="577.76,-763.01 576.81,-756.72 573.63,-762.22 577.76,-763.01"/>
</g>
<!-- src/js/overlay/OverlayUtil.js&#45;&gt;src/js/application/ApplicationLogger.js -->
<g id="edge31" class="edge">
<title>src/js/overlay/OverlayUtil.js&#45;&gt;src/js/application/ApplicationLogger.js</title>
<path fill="none" stroke="#000000" stroke-width="2" stroke-opacity="0.200000" d="M586.4,-734.4C598.96,-713.06 632.44,-661.8 676,-639 700.47,-626.19 780.49,-643.27 799.25,-623 810.96,-610.34 796.34,-481.35 807.25,-468 808.9,-465.98 810.77,-464.19 812.81,-462.62"/>
<polygon fill="#000000" fill-opacity="0.200000" stroke="#000000" stroke-width="2" stroke-opacity="0.200000" points="813.68,-464.54 817.7,-459.61 811.49,-460.96 813.68,-464.54"/>
</g>
<!-- src/js/overlay/OverlayUtil.js&#45;&gt;src/js/overlay/dispatcher/OverlayDispatcher.js -->
<g id="edge32" class="edge">
<title>src/js/overlay/OverlayUtil.js&#45;&gt;src/js/overlay/dispatcher/OverlayDispatcher.js</title>
<path fill="none" stroke="#000000" stroke-width="2" stroke-opacity="0.200000" d="M590.6,-734.44C605.76,-719.88 636.89,-692.04 676.08,-672.5"/>
<polygon fill="#000000" fill-opacity="0.200000" stroke="#000000" stroke-width="2" stroke-opacity="0.200000" points="676.78,-674.49 681.29,-670.01 674.97,-670.7 676.78,-674.49"/>
</g>
<!-- src/js/renderer/RendererResizer.js -->
<g id="node31" class="node">
<title>src/js/renderer/RendererResizer.js</title>
<g id="a_node31"><a xlink:href="src/js/renderer/RendererResizer.js" xlink:title="RendererResizer.js">
<path fill="#ffffcc" stroke="black" d="M621.21,-583.25C621.21,-583.25 538.79,-583.25 538.79,-583.25 535.71,-583.25 532.62,-580.17 532.62,-577.08 532.62,-577.08 532.62,-570.92 532.62,-570.92 532.62,-567.83 535.71,-564.75 538.79,-564.75 538.79,-564.75 621.21,-564.75 621.21,-564.75 624.29,-564.75 627.38,-567.83 627.38,-570.92 627.38,-570.92 627.38,-577.08 627.38,-577.08 627.38,-580.17 624.29,-583.25 621.21,-583.25"/>
<text text-anchor="start" x="540.62" y="-570.7" font-family="Helvetica,sans-Serif" font-size="9.00">RendererResizer.js</text>
</a>
</g>
</g>
<!-- src/js/renderer/RendererResizer.js&#45;&gt;src/js/application/ApplicationConfiguration.js -->
<g id="edge41" class="edge">
<title>src/js/renderer/RendererResizer.js&#45;&gt;src/js/application/ApplicationConfiguration.js</title>
<path fill="none" stroke="#000000" stroke-width="2" stroke-opacity="0.200000" d="M621.42,-564.33C636.14,-560.67 652.87,-556.33 668,-552 726.88,-535.15 741.48,-530.35 799.25,-510 811.63,-505.64 825.1,-500.54 836.91,-495.95"/>
<polygon fill="#000000" fill-opacity="0.200000" stroke="#000000" stroke-width="2" stroke-opacity="0.200000" points="837.52,-497.96 842.34,-493.82 835.99,-494.05 837.52,-497.96"/>
</g>
<!-- src/js/renderer/RendererResizer.js&#45;&gt;src/js/application/ApplicationLogger.js -->
<g id="edge42" class="edge">
<title>src/js/renderer/RendererResizer.js&#45;&gt;src/js/application/ApplicationLogger.js</title>
<path fill="none" stroke="#000000" stroke-width="2" stroke-opacity="0.200000" d="M627.52,-571.88C642.3,-568.91 657.5,-563.09 668,-552 680.76,-538.52 663.33,-524.57 676,-511 714.69,-469.54 751.78,-509.02 799.25,-478 804.01,-474.89 802.47,-471.09 807.25,-468 808.88,-466.94 810.58,-465.96 812.33,-465.03"/>
<polygon fill="#000000" fill-opacity="0.200000" stroke="#000000" stroke-width="2" stroke-opacity="0.200000" points="812.94,-467.07 817.52,-462.66 811.19,-463.25 812.94,-467.07"/>
</g>
<!-- src/js/renderer/RendererResizer.js&#45;&gt;src/js/overlay/dispatcher/OverlayDispatcher.js -->
<g id="edge43" class="edge">
<title>src/js/renderer/RendererResizer.js&#45;&gt;src/js/overlay/dispatcher/OverlayDispatcher.js</title>
<path fill="none" stroke="#000000" stroke-width="2" stroke-opacity="0.200000" d="M604.02,-583.68C621.84,-591.46 646.96,-603.02 668,-615 683.49,-623.82 700.13,-635.12 712.69,-644.06"/>
<polygon fill="#000000" fill-opacity="0.200000" stroke="#000000" stroke-width="2" stroke-opacity="0.200000" points="711.39,-645.71 717.48,-647.51 713.84,-642.3 711.39,-645.71"/>
</g>
<!-- src/js/rhythm/ViewRhythm.js -->
<g id="node32" class="node">
<title>src/js/rhythm/ViewRhythm.js</title>
<g id="a_node32"><a xlink:href="src/js/rhythm/ViewRhythm.js" xlink:title="ViewRhythm.js">
<path fill="#ffffcc" stroke="black" d="M132.96,-1238.25C132.96,-1238.25 68.54,-1238.25 68.54,-1238.25 65.46,-1238.25 62.38,-1235.17 62.38,-1232.08 62.38,-1232.08 62.38,-1225.92 62.38,-1225.92 62.38,-1222.83 65.46,-1219.75 68.54,-1219.75 68.54,-1219.75 132.96,-1219.75 132.96,-1219.75 136.04,-1219.75 139.12,-1222.83 139.12,-1225.92 139.12,-1225.92 139.12,-1232.08 139.12,-1232.08 139.12,-1235.17 136.04,-1238.25 132.96,-1238.25"/>
<text text-anchor="start" x="70.38" y="-1225.7" font-family="Helvetica,sans-Serif" font-size="9.00">ViewRhythm.js</text>
</a>
</g>
</g>
<!-- src/js/rhythm/ViewRhythmTrack.js -->
<g id="node33" class="node">
<title>src/js/rhythm/ViewRhythmTrack.js</title>
<g id="a_node33"><a xlink:href="src/js/rhythm/ViewRhythmTrack.js" xlink:title="ViewRhythmTrack.js">
<path fill="#ffffcc" stroke="black" d="M275.58,-1238.25C275.58,-1238.25 188.67,-1238.25 188.67,-1238.25 185.58,-1238.25 182.5,-1235.17 182.5,-1232.08 182.5,-1232.08 182.5,-1225.92 182.5,-1225.92 182.5,-1222.83 185.58,-1219.75 188.67,-1219.75 188.67,-1219.75 275.58,-1219.75 275.58,-1219.75 278.67,-1219.75 281.75,-1222.83 281.75,-1225.92 281.75,-1225.92 281.75,-1232.08 281.75,-1232.08 281.75,-1235.17 278.67,-1238.25 275.58,-1238.25"/>
<text text-anchor="start" x="190.5" y="-1225.7" font-family="Helvetica,sans-Serif" font-size="9.00">ViewRhythmTrack.js</text>
</a>
</g>
</g>
<!-- src/js/rhythm/ViewRhythm.js&#45;&gt;src/js/rhythm/ViewRhythmTrack.js -->
<g id="edge44" class="edge">
<title>src/js/rhythm/ViewRhythm.js&#45;&gt;src/js/rhythm/ViewRhythmTrack.js</title>
<path fill="none" stroke="#000000" stroke-width="2" stroke-opacity="0.200000" d="M139.52,-1229C150.22,-1229 162.11,-1229 173.69,-1229"/>
<polygon fill="#000000" fill-opacity="0.200000" stroke="#000000" stroke-width="2" stroke-opacity="0.200000" points="173.43,-1231.1 179.43,-1229 173.43,-1226.9 173.43,-1231.1"/>
</g>
<!-- src/js/view/View.js -->
<g id="node34" class="node">
<title>src/js/view/View.js</title>
<g id="a_node34"><a xlink:href="src/js/view/View.js" xlink:title="View.js">
<path fill="#ccffcc" stroke="black" d="M121.58,-1299.25C121.58,-1299.25 79.92,-1299.25 79.92,-1299.25 76.83,-1299.25 73.75,-1296.17 73.75,-1293.08 73.75,-1293.08 73.75,-1286.92 73.75,-1286.92 73.75,-1283.83 76.83,-1280.75 79.92,-1280.75 79.92,-1280.75 121.58,-1280.75 121.58,-1280.75 124.67,-1280.75 127.75,-1283.83 127.75,-1286.92 127.75,-1286.92 127.75,-1293.08 127.75,-1293.08 127.75,-1296.17 124.67,-1299.25 121.58,-1299.25"/>
<text text-anchor="start" x="86.5" y="-1286.7" font-family="Helvetica,sans-Serif" font-size="9.00">View.js</text>
</a>
</g>
</g>
</g>
</svg>
