<?xml version="1.0" encoding="UTF-8" standalone="no"?>
<!DOCTYPE svg PUBLIC "-//W3C//DTD SVG 1.1//EN"
 "http://www.w3.org/Graphics/SVG/1.1/DTD/svg11.dtd">
<!-- Generated by graphviz version 12.2.1 (20241206.2353)
 -->
<!-- Title: dependency&#45;cruiser output Pages: 1 -->
<svg width="999pt" height="1279pt"
 viewBox="0.00 0.00 998.62 1279.00" xmlns="http://www.w3.org/2000/svg" xmlns:xlink="http://www.w3.org/1999/xlink">
<g id="graph0" class="graph" transform="scale(1 1) rotate(0) translate(4 1275)">
<title>dependency&#45;cruiser output</title>
<polygon fill="white" stroke="none" points="-4,4 -4,-1275 994.62,-1275 994.62,4 -4,4"/>
<g id="clust1" class="cluster">
<title>cluster_src</title>
<path fill="#ffffff" stroke="black" stroke-width="2" d="M20,-8C20,-8 970.62,-8 970.62,-8 976.62,-8 982.62,-14 982.62,-20 982.62,-20 982.62,-1251 982.62,-1251 982.62,-1257 976.62,-1263 970.62,-1263 970.62,-1263 20,-1263 20,-1263 14,-1263 8,-1257 8,-1251 8,-1251 8,-20 8,-20 8,-14 14,-8 20,-8"/>
<text text-anchor="middle" x="495.31" y="-1250.45" font-family="Helvetica,sans-Serif" font-weight="bold" font-size="9.00">src</text>
</g>
<g id="clust2" class="cluster">
<title>cluster_src/js</title>
<path fill="#ffffff" stroke="black" stroke-width="2" d="M28,-16C28,-16 962.62,-16 962.62,-16 968.62,-16 974.62,-22 974.62,-28 974.62,-28 974.62,-1224 974.62,-1224 974.62,-1230 968.62,-1236 962.62,-1236 962.62,-1236 28,-1236 28,-1236 22,-1236 16,-1230 16,-1224 16,-1224 16,-28 16,-28 16,-22 22,-16 28,-16"/>
<text text-anchor="middle" x="495.31" y="-1223.45" font-family="Helvetica,sans-Serif" font-weight="bold" font-size="9.00">js</text>
</g>
<g id="clust3" class="cluster">
<title>cluster_src/js/application</title>
<path fill="#ffffff" stroke="black" stroke-width="2" d="M579.75,-435C579.75,-435 806.62,-435 806.62,-435 812.62,-435 818.62,-441 818.62,-447 818.62,-447 818.62,-507 818.62,-507 818.62,-513 812.62,-519 806.62,-519 806.62,-519 579.75,-519 579.75,-519 573.75,-519 567.75,-513 567.75,-507 567.75,-507 567.75,-447 567.75,-447 567.75,-441 573.75,-435 579.75,-435"/>
<text text-anchor="middle" x="693.19" y="-506.45" font-family="Helvetica,sans-Serif" font-weight="bold" font-size="9.00">application</text>
</g>
<g id="clust4" class="cluster">
<title>cluster_src/js/controller</title>
<path fill="#ffffff" stroke="black" stroke-width="2" d="M72.38,-351C72.38,-351 129.12,-351 129.12,-351 135.12,-351 141.12,-357 141.12,-363 141.12,-363 141.12,-392 141.12,-392 141.12,-398 135.12,-404 129.12,-404 129.12,-404 72.38,-404 72.38,-404 66.38,-404 60.38,-398 60.38,-392 60.38,-392 60.38,-363 60.38,-363 60.38,-357 66.38,-351 72.38,-351"/>
<text text-anchor="middle" x="100.75" y="-391.45" font-family="Helvetica,sans-Serif" font-weight="bold" font-size="9.00">controller</text>
</g>
<g id="clust5" class="cluster">
<title>cluster_src/js/data</title>
<path fill="#ffffff" stroke="black" stroke-width="2" d="M62.62,-690C62.62,-690 286.12,-690 286.12,-690 292.12,-690 298.12,-696 298.12,-702 298.12,-702 298.12,-731 298.12,-731 298.12,-737 292.12,-743 286.12,-743 286.12,-743 62.62,-743 62.62,-743 56.62,-743 50.62,-737 50.62,-731 50.62,-731 50.62,-702 50.62,-702 50.62,-696 56.62,-690 62.62,-690"/>
<text text-anchor="middle" x="174.38" y="-730.45" font-family="Helvetica,sans-Serif" font-weight="bold" font-size="9.00">data</text>
</g>
<g id="clust6" class="cluster">
<title>cluster_src/js/directable</title>
<path fill="#ffffff" stroke="black" stroke-width="2" d="M359.75,-527C359.75,-527 777,-527 777,-527 783,-527 789,-533 789,-539 789,-539 789,-918 789,-918 789,-924 783,-930 777,-930 777,-930 359.75,-930 359.75,-930 353.75,-930 347.75,-924 347.75,-918 347.75,-918 347.75,-539 347.75,-539 347.75,-533 353.75,-527 359.75,-527"/>
<text text-anchor="middle" x="568.38" y="-917.45" font-family="Helvetica,sans-Serif" font-weight="bold" font-size="9.00">directable</text>
</g>
<g id="clust7" class="cluster">
<title>cluster_src/js/directable/directables</title>
<path fill="#ffffff" stroke="black" stroke-width="2" d="M367.75,-535C367.75,-535 664.38,-535 664.38,-535 670.38,-535 676.38,-541 676.38,-547 676.38,-547 676.38,-891 676.38,-891 676.38,-897 670.38,-903 664.38,-903 664.38,-903 367.75,-903 367.75,-903 361.75,-903 355.75,-897 355.75,-891 355.75,-891 355.75,-547 355.75,-547 355.75,-541 361.75,-535 367.75,-535"/>
<text text-anchor="middle" x="516.06" y="-890.45" font-family="Helvetica,sans-Serif" font-weight="bold" font-size="9.00">directables</text>
</g>
<g id="clust8" class="cluster">
<title>cluster_src/js/directable/directables/frame</title>
<path fill="#ffffff" stroke="black" stroke-width="2" d="M417.12,-823C417.12,-823 502.38,-823 502.38,-823 508.38,-823 514.38,-829 514.38,-835 514.38,-835 514.38,-864 514.38,-864 514.38,-870 508.38,-876 502.38,-876 502.38,-876 417.12,-876 417.12,-876 411.12,-876 405.12,-870 405.12,-864 405.12,-864 405.12,-835 405.12,-835 405.12,-829 411.12,-823 417.12,-823"/>
<text text-anchor="middle" x="459.75" y="-863.45" font-family="Helvetica,sans-Serif" font-weight="bold" font-size="9.00">frame</text>
</g>
<g id="clust9" class="cluster">
<title>cluster_src/js/directable/directables/rhythm</title>
<path fill="#ffffff" stroke="black" stroke-width="2" d="M375.75,-604C375.75,-604 656.38,-604 656.38,-604 662.38,-604 668.38,-610 668.38,-616 668.38,-616 668.38,-803 668.38,-803 668.38,-809 662.38,-815 656.38,-815 656.38,-815 375.75,-815 375.75,-815 369.75,-815 363.75,-809 363.75,-803 363.75,-803 363.75,-616 363.75,-616 363.75,-610 369.75,-604 375.75,-604"/>
<text text-anchor="middle" x="516.06" y="-802.45" font-family="Helvetica,sans-Serif" font-weight="bold" font-size="9.00">rhythm</text>
</g>
<g id="clust10" class="cluster">
<title>cluster_src/js/directable/directables/rhythm/asdr</title>
<path fill="#ffffff" stroke="black" stroke-width="2" d="M383.75,-612C383.75,-612 535.75,-612 535.75,-612 541.75,-612 547.75,-618 547.75,-624 547.75,-624 547.75,-715 547.75,-715 547.75,-721 541.75,-727 535.75,-727 535.75,-727 383.75,-727 383.75,-727 377.75,-727 371.75,-721 371.75,-715 371.75,-715 371.75,-624 371.75,-624 371.75,-618 377.75,-612 383.75,-612"/>
<text text-anchor="middle" x="459.75" y="-714.45" font-family="Helvetica,sans-Serif" font-weight="bold" font-size="9.00">asdr</text>
</g>
<g id="clust11" class="cluster">
<title>cluster_src/js/directable/directables/rhythm/bpm</title>
<path fill="#ffffff" stroke="black" stroke-width="2" d="M404.75,-735C404.75,-735 514.75,-735 514.75,-735 520.75,-735 526.75,-741 526.75,-747 526.75,-747 526.75,-776 526.75,-776 526.75,-782 520.75,-788 514.75,-788 514.75,-788 404.75,-788 404.75,-788 398.75,-788 392.75,-782 392.75,-776 392.75,-776 392.75,-747 392.75,-747 392.75,-741 398.75,-735 404.75,-735"/>
<text text-anchor="middle" x="459.75" y="-775.45" font-family="Helvetica,sans-Serif" font-weight="bold" font-size="9.00">bpm</text>
</g>
<g id="clust12" class="cluster">
<title>cluster_src/js/directable/directables/title</title>
<path fill="#ffffff" stroke="black" stroke-width="2" d="M421.62,-543C421.62,-543 497.88,-543 497.88,-543 503.88,-543 509.88,-549 509.88,-555 509.88,-555 509.88,-584 509.88,-584 509.88,-590 503.88,-596 497.88,-596 497.88,-596 421.62,-596 421.62,-596 415.62,-596 409.62,-590 409.62,-584 409.62,-584 409.62,-555 409.62,-555 409.62,-549 415.62,-543 421.62,-543"/>
<text text-anchor="middle" x="459.75" y="-583.45" font-family="Helvetica,sans-Serif" font-weight="bold" font-size="9.00">title</text>
</g>
<g id="clust13" class="cluster">
<title>cluster_src/js/director</title>
<path fill="#ffffff" stroke="black" stroke-width="2" d="M189.5,-938C189.5,-938 484,-938 484,-938 490,-938 496,-944 496,-950 496,-950 496,-1014 496,-1014 496,-1020 490,-1026 484,-1026 484,-1026 189.5,-1026 189.5,-1026 183.5,-1026 177.5,-1020 177.5,-1014 177.5,-1014 177.5,-950 177.5,-950 177.5,-944 183.5,-938 189.5,-938"/>
<text text-anchor="middle" x="336.75" y="-1013.45" font-family="Helvetica,sans-Serif" font-weight="bold" font-size="9.00">director</text>
</g>
<g id="clust14" class="cluster">
<title>cluster_src/js/director/directors</title>
<path fill="#ffffff" stroke="black" stroke-width="2" d="M197.5,-946C197.5,-946 327.75,-946 327.75,-946 333.75,-946 339.75,-952 339.75,-958 339.75,-958 339.75,-987 339.75,-987 339.75,-993 333.75,-999 327.75,-999 327.75,-999 197.5,-999 197.5,-999 191.5,-999 185.5,-993 185.5,-987 185.5,-987 185.5,-958 185.5,-958 185.5,-952 191.5,-946 197.5,-946"/>
<text text-anchor="middle" x="262.62" y="-986.45" font-family="Helvetica,sans-Serif" font-weight="bold" font-size="9.00">directors</text>
</g>
<g id="clust15" class="cluster">
<title>cluster_src/js/event</title>
<path fill="#ffffff" stroke="black" stroke-width="2" d="M36,-1034C36,-1034 305.62,-1034 305.62,-1034 311.62,-1034 317.62,-1040 317.62,-1046 317.62,-1046 317.62,-1075 317.62,-1075 317.62,-1081 311.62,-1087 305.62,-1087 305.62,-1087 36,-1087 36,-1087 30,-1087 24,-1081 24,-1075 24,-1075 24,-1046 24,-1046 24,-1040 30,-1034 36,-1034"/>
<text text-anchor="middle" x="170.81" y="-1074.45" font-family="Helvetica,sans-Serif" font-weight="bold" font-size="9.00">event</text>
</g>
<g id="clust16" class="cluster">
<title>cluster_src/js/overlay</title>
<path fill="#ffffff" stroke="black" stroke-width="2" d="M238.75,-24C238.75,-24 954.62,-24 954.62,-24 960.62,-24 966.62,-30 966.62,-36 966.62,-36 966.62,-354 966.62,-354 966.62,-360 960.62,-366 954.62,-366 954.62,-366 238.75,-366 238.75,-366 232.75,-366 226.75,-360 226.75,-354 226.75,-354 226.75,-36 226.75,-36 226.75,-30 232.75,-24 238.75,-24"/>
<text text-anchor="middle" x="596.69" y="-353.45" font-family="Helvetica,sans-Serif" font-weight="bold" font-size="9.00">overlay</text>
</g>
<g id="clust17" class="cluster">
<title>cluster_src/js/overlay/capture</title>
<path fill="#ffffff" stroke="black" stroke-width="2" d="M419,-42C419,-42 500.5,-42 500.5,-42 506.5,-42 512.5,-48 512.5,-54 512.5,-54 512.5,-83 512.5,-83 512.5,-89 506.5,-95 500.5,-95 500.5,-95 419,-95 419,-95 413,-95 407,-89 407,-83 407,-83 407,-54 407,-54 407,-48 413,-42 419,-42"/>
<text text-anchor="middle" x="459.75" y="-82.45" font-family="Helvetica,sans-Serif" font-weight="bold" font-size="9.00">capture</text>
</g>
<g id="clust18" class="cluster">
<title>cluster_src/js/overlay/dispatcher</title>
<path fill="#ffffff" stroke="black" stroke-width="2" d="M701.5,-255C701.5,-255 946.62,-255 946.62,-255 952.62,-255 958.62,-261 958.62,-267 958.62,-267 958.62,-296 958.62,-296 958.62,-302 952.62,-308 946.62,-308 946.62,-308 701.5,-308 701.5,-308 695.5,-308 689.5,-302 689.5,-296 689.5,-296 689.5,-267 689.5,-267 689.5,-261 695.5,-255 701.5,-255"/>
<text text-anchor="middle" x="824.06" y="-295.45" font-family="Helvetica,sans-Serif" font-weight="bold" font-size="9.00">dispatcher</text>
</g>
<g id="clust19" class="cluster">
<title>cluster_src/js/overlay/format</title>
<path fill="#ffffff" stroke="black" stroke-width="2" d="M421.25,-103C421.25,-103 498.25,-103 498.25,-103 504.25,-103 510.25,-109 510.25,-115 510.25,-115 510.25,-144 510.25,-144 510.25,-150 504.25,-156 498.25,-156 498.25,-156 421.25,-156 421.25,-156 415.25,-156 409.25,-150 409.25,-144 409.25,-144 409.25,-115 409.25,-115 409.25,-109 415.25,-103 421.25,-103"/>
<text text-anchor="middle" x="459.75" y="-143.45" font-family="Helvetica,sans-Serif" font-weight="bold" font-size="9.00">format</text>
</g>
<g id="clust20" class="cluster">
<title>cluster_src/js/overlay/media</title>
<path fill="#ffffff" stroke="black" stroke-width="2" d="M422.75,-164C422.75,-164 496.75,-164 496.75,-164 502.75,-164 508.75,-170 508.75,-176 508.75,-176 508.75,-205 508.75,-205 508.75,-211 502.75,-217 496.75,-217 496.75,-217 422.75,-217 422.75,-217 416.75,-217 410.75,-211 410.75,-205 410.75,-205 410.75,-176 410.75,-176 410.75,-170 416.75,-164 422.75,-164"/>
<text text-anchor="middle" x="459.75" y="-204.45" font-family="Helvetica,sans-Serif" font-weight="bold" font-size="9.00">media</text>
</g>
<g id="clust21" class="cluster">
<title>cluster_src/js/overlay/overlay</title>
<path fill="#ffffff" stroke="black" stroke-width="2" d="M420.12,-225C420.12,-225 499.38,-225 499.38,-225 505.38,-225 511.38,-231 511.38,-237 511.38,-237 511.38,-266 511.38,-266 511.38,-272 505.38,-278 499.38,-278 499.38,-278 420.12,-278 420.12,-278 414.12,-278 408.12,-272 408.12,-266 408.12,-266 408.12,-237 408.12,-237 408.12,-231 414.12,-225 420.12,-225"/>
<text text-anchor="middle" x="459.75" y="-265.45" font-family="Helvetica,sans-Serif" font-weight="bold" font-size="9.00">overlay</text>
</g>
<g id="clust22" class="cluster">
<title>cluster_src/js/overlay/rhythm</title>
<path fill="#ffffff" stroke="black" stroke-width="2" d="M419.75,-286C419.75,-286 499.75,-286 499.75,-286 505.75,-286 511.75,-292 511.75,-298 511.75,-298 511.75,-327 511.75,-327 511.75,-333 505.75,-339 499.75,-339 499.75,-339 419.75,-339 419.75,-339 413.75,-339 407.75,-333 407.75,-327 407.75,-327 407.75,-298 407.75,-298 407.75,-292 413.75,-286 419.75,-286"/>
<text text-anchor="middle" x="459.75" y="-326.45" font-family="Helvetica,sans-Serif" font-weight="bold" font-size="9.00">rhythm</text>
</g>
<g id="clust23" class="cluster">
<title>cluster_src/js/renderer</title>
<path fill="#ffffff" stroke="black" stroke-width="2" d="M567.75,-374C567.75,-374 654.5,-374 654.5,-374 660.5,-374 666.5,-380 666.5,-386 666.5,-386 666.5,-415 666.5,-415 666.5,-421 660.5,-427 654.5,-427 654.5,-427 567.75,-427 567.75,-427 561.75,-427 555.75,-421 555.75,-415 555.75,-415 555.75,-386 555.75,-386 555.75,-380 561.75,-374 567.75,-374"/>
<text text-anchor="middle" x="611.12" y="-414.45" font-family="Helvetica,sans-Serif" font-weight="bold" font-size="9.00">renderer</text>
</g>
<g id="clust24" class="cluster">
<title>cluster_src/js/rhythm</title>
<path fill="#ffffff" stroke="black" stroke-width="2" d="M66.38,-1095C66.38,-1095 308.25,-1095 308.25,-1095 314.25,-1095 320.25,-1101 320.25,-1107 320.25,-1107 320.25,-1136 320.25,-1136 320.25,-1142 314.25,-1148 308.25,-1148 308.25,-1148 66.38,-1148 66.38,-1148 60.38,-1148 54.38,-1142 54.38,-1136 54.38,-1136 54.38,-1107 54.38,-1107 54.38,-1101 60.38,-1095 66.38,-1095"/>
<text text-anchor="middle" x="187.31" y="-1135.45" font-family="Helvetica,sans-Serif" font-weight="bold" font-size="9.00">rhythm</text>
</g>
<g id="clust25" class="cluster">
<title>cluster_src/js/view</title>
<path fill="#ffffff" stroke="black" stroke-width="2" d="M77.75,-1156C77.75,-1156 123.75,-1156 123.75,-1156 129.75,-1156 135.75,-1162 135.75,-1168 135.75,-1168 135.75,-1197 135.75,-1197 135.75,-1203 129.75,-1209 123.75,-1209 123.75,-1209 77.75,-1209 77.75,-1209 71.75,-1209 65.75,-1203 65.75,-1197 65.75,-1197 65.75,-1168 65.75,-1168 65.75,-1162 71.75,-1156 77.75,-1156"/>
<text text-anchor="middle" x="100.75" y="-1196.45" font-family="Helvetica,sans-Serif" font-weight="bold" font-size="9.00">view</text>
</g>
<!-- src/js/application/Application.js -->
<g id="node1" class="node">
<title>src/js/application/Application.js</title>
<g id="a_node1"><a xlink:href="src/js/application/Application.js" xlink:title="Application.js">
<path fill="#ffffcc" stroke="black" d="M640.33,-487.25C640.33,-487.25 581.92,-487.25 581.92,-487.25 578.83,-487.25 575.75,-484.17 575.75,-481.08 575.75,-481.08 575.75,-474.92 575.75,-474.92 575.75,-471.83 578.83,-468.75 581.92,-468.75 581.92,-468.75 640.33,-468.75 640.33,-468.75 643.42,-468.75 646.5,-471.83 646.5,-474.92 646.5,-474.92 646.5,-481.08 646.5,-481.08 646.5,-484.17 643.42,-487.25 640.33,-487.25"/>
<text text-anchor="start" x="583.75" y="-474.7" font-family="Helvetica,sans-Serif" font-size="9.00">Application.js</text>
</a>
</g>
</g>
<!-- src/js/controller/Controller.js -->
<g id="node2" class="node">
<title>src/js/controller/Controller.js</title>
<g id="a_node2"><a xlink:href="src/js/controller/Controller.js" xlink:title="Controller.js">
<path fill="#ffffcc" stroke="black" d="M126.96,-377.25C126.96,-377.25 74.54,-377.25 74.54,-377.25 71.46,-377.25 68.38,-374.17 68.38,-371.08 68.38,-371.08 68.38,-364.92 68.38,-364.92 68.38,-361.83 71.46,-358.75 74.54,-358.75 74.54,-358.75 126.96,-358.75 126.96,-358.75 130.04,-358.75 133.12,-361.83 133.12,-364.92 133.12,-364.92 133.12,-371.08 133.12,-371.08 133.12,-374.17 130.04,-377.25 126.96,-377.25"/>
<text text-anchor="start" x="76.38" y="-364.7" font-family="Helvetica,sans-Serif" font-size="9.00">Controller.js</text>
</a>
</g>
</g>
<!-- src/js/application/Application.js&#45;&gt;src/js/controller/Controller.js -->
<g id="edge1" class="edge">
<title>src/js/application/Application.js&#45;&gt;src/js/controller/Controller.js</title>
<path fill="none" stroke="#000000" stroke-width="2" stroke-opacity="0.200000" d="M575.62,-485.25C524.92,-494.6 427.68,-507.59 347.75,-489 258.25,-468.18 163.84,-409.95 122.82,-382.57"/>
<polygon fill="#000000" fill-opacity="0.200000" stroke="#000000" stroke-width="2" stroke-opacity="0.200000" points="124.23,-380.99 118.08,-379.37 121.88,-384.47 124.23,-380.99"/>
</g>
<!-- src/js/application/ApplicationConfiguration.js -->
<g id="node3" class="node">
<title>src/js/application/ApplicationConfiguration.js</title>
<g id="a_node3"><a xlink:href="src/js/application/ApplicationConfiguration.js" xlink:title="ApplicationConfiguration.js">
<path fill="#ffffcc" stroke="black" d="M804.46,-461.25C804.46,-461.25 690.54,-461.25 690.54,-461.25 687.46,-461.25 684.38,-458.17 684.38,-455.08 684.38,-455.08 684.38,-448.92 684.38,-448.92 684.38,-445.83 687.46,-442.75 690.54,-442.75 690.54,-442.75 804.46,-442.75 804.46,-442.75 807.54,-442.75 810.62,-445.83 810.62,-448.92 810.62,-448.92 810.62,-455.08 810.62,-455.08 810.62,-458.17 807.54,-461.25 804.46,-461.25"/>
<text text-anchor="start" x="692.38" y="-448.7" font-family="Helvetica,sans-Serif" font-size="9.00">ApplicationConfiguration.js</text>
</a>
</g>
</g>
<!-- src/js/application/Application.js&#45;&gt;src/js/application/ApplicationConfiguration.js -->
<g id="edge2" class="edge">
<title>src/js/application/Application.js&#45;&gt;src/js/application/ApplicationConfiguration.js</title>
<path fill="none" stroke="#000000" stroke-width="2" stroke-opacity="0.200000" d="M646.73,-471.3C659.22,-468.89 673.7,-466.09 687.68,-463.38"/>
<polygon fill="#000000" fill-opacity="0.200000" stroke="#000000" stroke-width="2" stroke-opacity="0.200000" points="687.84,-465.49 693.33,-462.29 687.04,-461.37 687.84,-465.49"/>
</g>
<!-- src/js/application/ApplicationLogger.js -->
<g id="node4" class="node">
<title>src/js/application/ApplicationLogger.js</title>
<g id="a_node4"><a xlink:href="src/js/application/ApplicationLogger.js" xlink:title="ApplicationLogger.js">
<path fill="#ffffcc" stroke="black" d="M790.96,-492.25C790.96,-492.25 704.04,-492.25 704.04,-492.25 700.96,-492.25 697.88,-489.17 697.88,-486.08 697.88,-486.08 697.88,-479.92 697.88,-479.92 697.88,-476.83 700.96,-473.75 704.04,-473.75 704.04,-473.75 790.96,-473.75 790.96,-473.75 794.04,-473.75 797.12,-476.83 797.12,-479.92 797.12,-479.92 797.12,-486.08 797.12,-486.08 797.12,-489.17 794.04,-492.25 790.96,-492.25"/>
<text text-anchor="start" x="705.88" y="-479.7" font-family="Helvetica,sans-Serif" font-size="9.00">ApplicationLogger.js</text>
</a>
</g>
</g>
<!-- src/js/application/Application.js&#45;&gt;src/js/application/ApplicationLogger.js -->
<g id="edge3" class="edge">
<title>src/js/application/Application.js&#45;&gt;src/js/application/ApplicationLogger.js</title>
<path fill="none" stroke="#000000" stroke-width="2" stroke-opacity="0.200000" d="M646.73,-479.29C659.54,-479.76 674.45,-480.32 688.76,-480.85"/>
<polygon fill="#000000" fill-opacity="0.200000" stroke="#000000" stroke-width="2" stroke-opacity="0.200000" points="688.48,-482.94 694.55,-481.07 688.64,-478.75 688.48,-482.94"/>
</g>
<!-- src/js/overlay/Overlay.js -->
<g id="node5" class="node">
<title>src/js/overlay/Overlay.js</title>
<g id="a_node5"><a xlink:href="src/js/overlay/Overlay.js" xlink:title="Overlay.js">
<path fill="#ffffcc" stroke="black" d="M284.33,-251.25C284.33,-251.25 240.92,-251.25 240.92,-251.25 237.83,-251.25 234.75,-248.17 234.75,-245.08 234.75,-245.08 234.75,-238.92 234.75,-238.92 234.75,-235.83 237.83,-232.75 240.92,-232.75 240.92,-232.75 284.33,-232.75 284.33,-232.75 287.42,-232.75 290.5,-235.83 290.5,-238.92 290.5,-238.92 290.5,-245.08 290.5,-245.08 290.5,-248.17 287.42,-251.25 284.33,-251.25"/>
<text text-anchor="start" x="242.75" y="-238.7" font-family="Helvetica,sans-Serif" font-size="9.00">Overlay.js</text>
</a>
</g>
</g>
<!-- src/js/controller/Controller.js&#45;&gt;src/js/overlay/Overlay.js -->
<g id="edge4" class="edge">
<title>src/js/controller/Controller.js&#45;&gt;src/js/overlay/Overlay.js</title>
<path fill="none" stroke="#000000" stroke-width="2" stroke-opacity="0.200000" d="M114.03,-358.32C141.76,-336.46 209.41,-283.15 242.61,-256.98"/>
<polygon fill="#000000" fill-opacity="0.200000" stroke="#000000" stroke-width="2" stroke-opacity="0.200000" points="243.73,-258.78 247.14,-253.41 241.13,-255.48 243.73,-258.78"/>
</g>
<!-- src/js/overlay/Overlay.js&#45;&gt;src/js/application/ApplicationConfiguration.js -->
<g id="edge22" class="edge">
<title>src/js/overlay/Overlay.js&#45;&gt;src/js/application/ApplicationConfiguration.js</title>
<path fill="none" stroke="#000000" stroke-width="2" stroke-opacity="0.200000" d="M269.43,-251.55C281.67,-271 311.97,-315.59 347.75,-342 428.51,-401.61 458.68,-404.43 555.75,-430 567.34,-433.05 626.15,-439.62 675.44,-444.79"/>
<polygon fill="#000000" fill-opacity="0.200000" stroke="#000000" stroke-width="2" stroke-opacity="0.200000" points="675,-446.86 681.19,-445.39 675.44,-442.68 675,-446.86"/>
</g>
<!-- src/js/overlay/Overlay.js&#45;&gt;src/js/application/ApplicationLogger.js -->
<g id="edge23" class="edge">
<title>src/js/overlay/Overlay.js&#45;&gt;src/js/application/ApplicationLogger.js</title>
<path fill="none" stroke="#000000" stroke-width="2" stroke-opacity="0.200000" d="M266.25,-251.67C273.93,-278.11 298.99,-352.08 347.75,-389 467.12,-479.36 534.36,-415.62 676.38,-463 680.15,-464.26 680.65,-465.61 684.38,-467 687.99,-468.35 691.77,-469.63 695.6,-470.84"/>
<polygon fill="#000000" fill-opacity="0.200000" stroke="#000000" stroke-width="2" stroke-opacity="0.200000" points="694.77,-472.78 701.12,-472.48 695.97,-468.75 694.77,-472.78"/>
</g>
<!-- src/js/overlay/capture/OverlayCapture.js -->
<g id="node21" class="node">
<title>src/js/overlay/capture/OverlayCapture.js</title>
<g id="a_node21"><a xlink:href="src/js/overlay/capture/OverlayCapture.js" xlink:title="OverlayCapture.js">
<path fill="#ffffcc" stroke="black" d="M498.33,-68.25C498.33,-68.25 421.17,-68.25 421.17,-68.25 418.08,-68.25 415,-65.17 415,-62.08 415,-62.08 415,-55.92 415,-55.92 415,-52.83 418.08,-49.75 421.17,-49.75 421.17,-49.75 498.33,-49.75 498.33,-49.75 501.42,-49.75 504.5,-52.83 504.5,-55.92 504.5,-55.92 504.5,-62.08 504.5,-62.08 504.5,-65.17 501.42,-68.25 498.33,-68.25"/>
<text text-anchor="start" x="423" y="-55.7" font-family="Helvetica,sans-Serif" font-size="9.00">OverlayCapture.js</text>
</a>
</g>
</g>
<!-- src/js/overlay/Overlay.js&#45;&gt;src/js/overlay/capture/OverlayCapture.js -->
<g id="edge24" class="edge">
<title>src/js/overlay/Overlay.js&#45;&gt;src/js/overlay/capture/OverlayCapture.js</title>
<path fill="none" stroke="#000000" stroke-width="2" stroke-opacity="0.200000" d="M266.68,-232.56C275.31,-207.38 302.19,-137.98 347.75,-100 364.46,-86.07 386.33,-76.65 406.24,-70.39"/>
<polygon fill="#000000" fill-opacity="0.200000" stroke="#000000" stroke-width="2" stroke-opacity="0.200000" points="406.58,-72.49 411.73,-68.76 405.38,-68.46 406.58,-72.49"/>
</g>
<!-- src/js/overlay/dispatcher/OverlayDispatcher.js -->
<g id="node22" class="node">
<title>src/js/overlay/dispatcher/OverlayDispatcher.js</title>
<g id="a_node22"><a xlink:href="src/js/overlay/dispatcher/OverlayDispatcher.js" xlink:title="OverlayDispatcher.js">
<path fill="#ffffcc" stroke="black" d="M791.33,-281.25C791.33,-281.25 703.67,-281.25 703.67,-281.25 700.58,-281.25 697.5,-278.17 697.5,-275.08 697.5,-275.08 697.5,-268.92 697.5,-268.92 697.5,-265.83 700.58,-262.75 703.67,-262.75 703.67,-262.75 791.33,-262.75 791.33,-262.75 794.42,-262.75 797.5,-265.83 797.5,-268.92 797.5,-268.92 797.5,-275.08 797.5,-275.08 797.5,-278.17 794.42,-281.25 791.33,-281.25"/>
<text text-anchor="start" x="705.5" y="-268.7" font-family="Helvetica,sans-Serif" font-size="9.00">OverlayDispatcher.js</text>
</a>
</g>
</g>
<!-- src/js/overlay/Overlay.js&#45;&gt;src/js/overlay/dispatcher/OverlayDispatcher.js -->
<g id="edge25" class="edge">
<title>src/js/overlay/Overlay.js&#45;&gt;src/js/overlay/dispatcher/OverlayDispatcher.js</title>
<path fill="none" stroke="#000000" stroke-width="2" stroke-opacity="0.200000" d="M264.09,-232.5C266.33,-198.87 278.91,-84.99 347.75,-39 421.66,10.38 467.04,-1.76 547.75,-39 647.53,-85.04 715.74,-208.61 738.32,-254.51"/>
<polygon fill="#000000" fill-opacity="0.200000" stroke="#000000" stroke-width="2" stroke-opacity="0.200000" points="736.3,-255.16 740.8,-259.65 740.09,-253.34 736.3,-255.16"/>
</g>
<!-- src/js/overlay/format/OverlayFormat.js -->
<g id="node23" class="node">
<title>src/js/overlay/format/OverlayFormat.js</title>
<g id="a_node23"><a xlink:href="src/js/overlay/format/OverlayFormat.js" xlink:title="OverlayFormat.js">
<path fill="#ffffcc" stroke="black" d="M496.08,-129.25C496.08,-129.25 423.42,-129.25 423.42,-129.25 420.33,-129.25 417.25,-126.17 417.25,-123.08 417.25,-123.08 417.25,-116.92 417.25,-116.92 417.25,-113.83 420.33,-110.75 423.42,-110.75 423.42,-110.75 496.08,-110.75 496.08,-110.75 499.17,-110.75 502.25,-113.83 502.25,-116.92 502.25,-116.92 502.25,-123.08 502.25,-123.08 502.25,-126.17 499.17,-129.25 496.08,-129.25"/>
<text text-anchor="start" x="425.25" y="-116.7" font-family="Helvetica,sans-Serif" font-size="9.00">OverlayFormat.js</text>
</a>
</g>
</g>
<!-- src/js/overlay/Overlay.js&#45;&gt;src/js/overlay/format/OverlayFormat.js -->
<g id="edge26" class="edge">
<title>src/js/overlay/Overlay.js&#45;&gt;src/js/overlay/format/OverlayFormat.js</title>
<path fill="none" stroke="#000000" stroke-width="2" stroke-opacity="0.200000" d="M271.22,-232.44C284.9,-215.81 315.29,-181.36 347.75,-161 367.64,-148.53 391.88,-139.02 412.63,-132.32"/>
<polygon fill="#000000" fill-opacity="0.200000" stroke="#000000" stroke-width="2" stroke-opacity="0.200000" points="413,-134.4 418.1,-130.61 411.75,-130.4 413,-134.4"/>
</g>
<!-- src/js/overlay/media/OverlayMedia.js -->
<g id="node24" class="node">
<title>src/js/overlay/media/OverlayMedia.js</title>
<g id="a_node24"><a xlink:href="src/js/overlay/media/OverlayMedia.js" xlink:title="OverlayMedia.js">
<path fill="#ffffcc" stroke="black" d="M494.58,-190.25C494.58,-190.25 424.92,-190.25 424.92,-190.25 421.83,-190.25 418.75,-187.17 418.75,-184.08 418.75,-184.08 418.75,-177.92 418.75,-177.92 418.75,-174.83 421.83,-171.75 424.92,-171.75 424.92,-171.75 494.58,-171.75 494.58,-171.75 497.67,-171.75 500.75,-174.83 500.75,-177.92 500.75,-177.92 500.75,-184.08 500.75,-184.08 500.75,-187.17 497.67,-190.25 494.58,-190.25"/>
<text text-anchor="start" x="426.75" y="-177.7" font-family="Helvetica,sans-Serif" font-size="9.00">OverlayMedia.js</text>
</a>
</g>
</g>
<!-- src/js/overlay/Overlay.js&#45;&gt;src/js/overlay/media/OverlayMedia.js -->
<g id="edge27" class="edge">
<title>src/js/overlay/Overlay.js&#45;&gt;src/js/overlay/media/OverlayMedia.js</title>
<path fill="none" stroke="#000000" stroke-width="2" stroke-opacity="0.200000" d="M290.76,-233.52C324.15,-223.08 381.11,-205.27 419.33,-193.32"/>
<polygon fill="#000000" fill-opacity="0.200000" stroke="#000000" stroke-width="2" stroke-opacity="0.200000" points="419.67,-195.42 424.77,-191.62 418.42,-191.41 419.67,-195.42"/>
</g>
<!-- src/js/overlay/overlay/OverlayOverlay.js -->
<g id="node25" class="node">
<title>src/js/overlay/overlay/OverlayOverlay.js</title>
<g id="a_node25"><a xlink:href="src/js/overlay/overlay/OverlayOverlay.js" xlink:title="OverlayOverlay.js">
<path fill="#ffffcc" stroke="black" d="M497.21,-251.25C497.21,-251.25 422.29,-251.25 422.29,-251.25 419.21,-251.25 416.12,-248.17 416.12,-245.08 416.12,-245.08 416.12,-238.92 416.12,-238.92 416.12,-235.83 419.21,-232.75 422.29,-232.75 422.29,-232.75 497.21,-232.75 497.21,-232.75 500.29,-232.75 503.38,-235.83 503.38,-238.92 503.38,-238.92 503.38,-245.08 503.38,-245.08 503.38,-248.17 500.29,-251.25 497.21,-251.25"/>
<text text-anchor="start" x="424.12" y="-238.7" font-family="Helvetica,sans-Serif" font-size="9.00">OverlayOverlay.js</text>
</a>
</g>
</g>
<!-- src/js/overlay/Overlay.js&#45;&gt;src/js/overlay/overlay/OverlayOverlay.js -->
<g id="edge28" class="edge">
<title>src/js/overlay/Overlay.js&#45;&gt;src/js/overlay/overlay/OverlayOverlay.js</title>
<path fill="none" stroke="#000000" stroke-width="2" stroke-opacity="0.200000" d="M290.76,-242C320.71,-242 369.64,-242 406.98,-242"/>
<polygon fill="#000000" fill-opacity="0.200000" stroke="#000000" stroke-width="2" stroke-opacity="0.200000" points="406.7,-244.1 412.7,-242 406.7,-239.9 406.7,-244.1"/>
</g>
<!-- src/js/overlay/rhythm/OverlayRhythm.js -->
<g id="node26" class="node">
<title>src/js/overlay/rhythm/OverlayRhythm.js</title>
<g id="a_node26"><a xlink:href="src/js/overlay/rhythm/OverlayRhythm.js" xlink:title="OverlayRhythm.js">
<path fill="#ffffcc" stroke="black" d="M497.58,-312.25C497.58,-312.25 421.92,-312.25 421.92,-312.25 418.83,-312.25 415.75,-309.17 415.75,-306.08 415.75,-306.08 415.75,-299.92 415.75,-299.92 415.75,-296.83 418.83,-293.75 421.92,-293.75 421.92,-293.75 497.58,-293.75 497.58,-293.75 500.67,-293.75 503.75,-296.83 503.75,-299.92 503.75,-299.92 503.75,-306.08 503.75,-306.08 503.75,-309.17 500.67,-312.25 497.58,-312.25"/>
<text text-anchor="start" x="423.75" y="-299.7" font-family="Helvetica,sans-Serif" font-size="9.00">OverlayRhythm.js</text>
</a>
</g>
</g>
<!-- src/js/overlay/Overlay.js&#45;&gt;src/js/overlay/rhythm/OverlayRhythm.js -->
<g id="edge29" class="edge">
<title>src/js/overlay/Overlay.js&#45;&gt;src/js/overlay/rhythm/OverlayRhythm.js</title>
<path fill="none" stroke="#000000" stroke-width="2" stroke-opacity="0.200000" d="M281.18,-251.64C297.86,-260.44 323.87,-273.22 347.75,-281 366.62,-287.15 387.88,-291.87 406.7,-295.33"/>
<polygon fill="#000000" fill-opacity="0.200000" stroke="#000000" stroke-width="2" stroke-opacity="0.200000" points="406.19,-297.37 412.46,-296.35 406.92,-293.24 406.19,-297.37"/>
</g>
<!-- src/js/data/Data.json -->
<g id="node6" class="node">
<title>src/js/data/Data.json</title>
<g id="a_node6"><a xlink:href="src/js/data/Data.json" xlink:title="Data.json">
<path fill="#ffee44" stroke="black" d="M283.96,-716.25C283.96,-716.25 241.29,-716.25 241.29,-716.25 238.21,-716.25 235.12,-713.17 235.12,-710.08 235.12,-710.08 235.12,-703.92 235.12,-703.92 235.12,-700.83 238.21,-697.75 241.29,-697.75 241.29,-697.75 283.96,-697.75 283.96,-697.75 287.04,-697.75 290.12,-700.83 290.12,-703.92 290.12,-703.92 290.12,-710.08 290.12,-710.08 290.12,-713.17 287.04,-716.25 283.96,-716.25"/>
<text text-anchor="start" x="243.12" y="-703.7" font-family="Helvetica,sans-Serif" font-size="9.00">Data.json</text>
</a>
</g>
</g>
<!-- src/js/data/DataController.js -->
<g id="node7" class="node">
<title>src/js/data/DataController.js</title>
<g id="a_node7"><a xlink:href="src/js/data/DataController.js" xlink:title="DataController.js">
<path fill="#ffffcc" stroke="black" d="M136.71,-716.25C136.71,-716.25 64.79,-716.25 64.79,-716.25 61.71,-716.25 58.62,-713.17 58.62,-710.08 58.62,-710.08 58.62,-703.92 58.62,-703.92 58.62,-700.83 61.71,-697.75 64.79,-697.75 64.79,-697.75 136.71,-697.75 136.71,-697.75 139.79,-697.75 142.88,-700.83 142.88,-703.92 142.88,-703.92 142.88,-710.08 142.88,-710.08 142.88,-713.17 139.79,-716.25 136.71,-716.25"/>
<text text-anchor="start" x="66.62" y="-703.7" font-family="Helvetica,sans-Serif" font-size="9.00">DataController.js</text>
</a>
</g>
</g>
<!-- src/js/data/DataController.js&#45;&gt;src/js/data/Data.json -->
<g id="edge5" class="edge">
<title>src/js/data/DataController.js&#45;&gt;src/js/data/Data.json</title>
<path fill="none" stroke="#000000" stroke-width="2" stroke-opacity="0.200000" d="M143.34,-707C168.93,-707 201.41,-707 225.85,-707"/>
<polygon fill="#000000" fill-opacity="0.200000" stroke="#000000" stroke-width="2" stroke-opacity="0.200000" points="225.77,-709.1 231.77,-707 225.77,-704.9 225.77,-709.1"/>
</g>
<!-- src/js/directable/Directable.js -->
<g id="node8" class="node">
<title>src/js/directable/Directable.js</title>
<g id="a_node8"><a xlink:href="src/js/directable/Directable.js" xlink:title="Directable.js">
<path fill="#ffffcc" stroke="black" d="M774.83,-833.25C774.83,-833.25 720.17,-833.25 720.17,-833.25 717.08,-833.25 714,-830.17 714,-827.08 714,-827.08 714,-820.92 714,-820.92 714,-817.83 717.08,-814.75 720.17,-814.75 720.17,-814.75 774.83,-814.75 774.83,-814.75 777.92,-814.75 781,-817.83 781,-820.92 781,-820.92 781,-827.08 781,-827.08 781,-830.17 777.92,-833.25 774.83,-833.25"/>
<text text-anchor="start" x="722" y="-820.7" font-family="Helvetica,sans-Serif" font-size="9.00">Directable.js</text>
</a>
</g>
</g>
<!-- src/js/directable/directables/frame/DirectableFrame.js -->
<g id="node9" class="node">
<title>src/js/directable/directables/frame/DirectableFrame.js</title>
<g id="a_node9"><a xlink:href="src/js/directable/directables/frame/DirectableFrame.js" xlink:title="DirectableFrame.js">
<path fill="#ffffcc" stroke="black" d="M500.21,-849.25C500.21,-849.25 419.29,-849.25 419.29,-849.25 416.21,-849.25 413.12,-846.17 413.12,-843.08 413.12,-843.08 413.12,-836.92 413.12,-836.92 413.12,-833.83 416.21,-830.75 419.29,-830.75 419.29,-830.75 500.21,-830.75 500.21,-830.75 503.29,-830.75 506.38,-833.83 506.38,-836.92 506.38,-836.92 506.38,-843.08 506.38,-843.08 506.38,-846.17 503.29,-849.25 500.21,-849.25"/>
<text text-anchor="start" x="421.12" y="-836.7" font-family="Helvetica,sans-Serif" font-size="9.00">DirectableFrame.js</text>
</a>
</g>
</g>
<!-- src/js/directable/directables/frame/DirectableFrame.js&#45;&gt;src/js/application/ApplicationLogger.js -->
<g id="edge6" class="edge">
<title>src/js/directable/directables/frame/DirectableFrame.js&#45;&gt;src/js/application/ApplicationLogger.js</title>
<path fill="none" stroke="#000000" stroke-width="2" stroke-opacity="0.200000" d="M493.79,-830.38C513.03,-822.93 535.79,-810.51 547.75,-791 558.79,-772.99 541.62,-616.71 555.75,-601 591.99,-560.69 638.3,-621.58 676.38,-583 694.96,-564.16 670.29,-546.4 684.38,-524 691.64,-512.44 703.48,-503.44 714.89,-496.86"/>
<polygon fill="#000000" fill-opacity="0.200000" stroke="#000000" stroke-width="2" stroke-opacity="0.200000" points="715.71,-498.81 720,-494.12 713.72,-495.11 715.71,-498.81"/>
</g>
<!-- src/js/directable/directables/frame/DirectableFrame.js&#45;&gt;src/js/directable/Directable.js -->
<g id="edge7" class="edge">
<title>src/js/directable/directables/frame/DirectableFrame.js&#45;&gt;src/js/directable/Directable.js</title>
<path fill="none" stroke="#000000" stroke-width="2" stroke-opacity="0.200000" d="M506.6,-837.47C550.25,-835.05 617.79,-831.3 676.38,-828 685.6,-827.48 695.51,-826.92 704.89,-826.38"/>
<polygon fill="#000000" fill-opacity="0.200000" stroke="#000000" stroke-width="2" stroke-opacity="0.200000" points="704.79,-828.49 710.66,-826.05 704.55,-824.3 704.79,-828.49"/>
</g>
<!-- src/js/directable/directables/rhythm/DirectableRhythm.js -->
<g id="node10" class="node">
<title>src/js/directable/directables/rhythm/DirectableRhythm.js</title>
<g id="a_node10"><a xlink:href="src/js/directable/directables/rhythm/DirectableRhythm.js" xlink:title="DirectableRhythm.js">
<path fill="#ffffcc" stroke="black" d="M654.21,-761.25C654.21,-761.25 568.04,-761.25 568.04,-761.25 564.96,-761.25 561.88,-758.17 561.88,-755.08 561.88,-755.08 561.88,-748.92 561.88,-748.92 561.88,-745.83 564.96,-742.75 568.04,-742.75 568.04,-742.75 654.21,-742.75 654.21,-742.75 657.29,-742.75 660.38,-745.83 660.38,-748.92 660.38,-748.92 660.38,-755.08 660.38,-755.08 660.38,-758.17 657.29,-761.25 654.21,-761.25"/>
<text text-anchor="start" x="569.88" y="-748.7" font-family="Helvetica,sans-Serif" font-size="9.00">DirectableRhythm.js</text>
</a>
</g>
</g>
<!-- src/js/directable/directables/rhythm/DirectableRhythm.js&#45;&gt;src/js/application/ApplicationLogger.js -->
<g id="edge8" class="edge">
<title>src/js/directable/directables/rhythm/DirectableRhythm.js&#45;&gt;src/js/application/ApplicationLogger.js</title>
<path fill="none" stroke="#000000" stroke-width="2" stroke-opacity="0.200000" d="M617.36,-742.25C629.92,-718.42 661.74,-654.96 676.38,-598 684.61,-565.96 667.15,-552.24 684.38,-524 691.48,-512.35 703.3,-503.33 714.73,-496.76"/>
<polygon fill="#000000" fill-opacity="0.200000" stroke="#000000" stroke-width="2" stroke-opacity="0.200000" points="715.55,-498.7 719.85,-494.02 713.57,-495 715.55,-498.7"/>
</g>
<!-- src/js/directable/directables/rhythm/DirectableRhythm.js&#45;&gt;src/js/directable/Directable.js -->
<g id="edge9" class="edge">
<title>src/js/directable/directables/rhythm/DirectableRhythm.js&#45;&gt;src/js/directable/Directable.js</title>
<path fill="none" stroke="#000000" stroke-width="2" stroke-opacity="0.200000" d="M660.7,-759.1C666.12,-760.69 671.46,-762.63 676.38,-765 698.1,-775.48 718.68,-794.23 731.86,-807.79"/>
<polygon fill="#000000" fill-opacity="0.200000" stroke="#000000" stroke-width="2" stroke-opacity="0.200000" points="730.31,-809.21 735.96,-812.13 733.37,-806.33 730.31,-809.21"/>
</g>
<!-- src/js/directable/directables/rhythm/asdr/ASDRData.js -->
<g id="node11" class="node">
<title>src/js/directable/directables/rhythm/asdr/ASDRData.js</title>
<g id="a_node11"><a xlink:href="src/js/directable/directables/rhythm/asdr/ASDRData.js" xlink:title="ASDRData.js">
<path fill="#ccffcc" stroke="black" d="M488.58,-638.25C488.58,-638.25 430.92,-638.25 430.92,-638.25 427.83,-638.25 424.75,-635.17 424.75,-632.08 424.75,-632.08 424.75,-625.92 424.75,-625.92 424.75,-622.83 427.83,-619.75 430.92,-619.75 430.92,-619.75 488.58,-619.75 488.58,-619.75 491.67,-619.75 494.75,-622.83 494.75,-625.92 494.75,-625.92 494.75,-632.08 494.75,-632.08 494.75,-635.17 491.67,-638.25 488.58,-638.25"/>
<text text-anchor="start" x="432.75" y="-625.7" font-family="Helvetica,sans-Serif" font-size="9.00">ASDRData.js</text>
</a>
</g>
</g>
<!-- src/js/directable/directables/rhythm/asdr/ASDREnvelope.js -->
<g id="node12" class="node">
<title>src/js/directable/directables/rhythm/asdr/ASDREnvelope.js</title>
<g id="a_node12"><a xlink:href="src/js/directable/directables/rhythm/asdr/ASDREnvelope.js" xlink:title="ASDREnvelope.js">
<path fill="#ffffcc" stroke="black" d="M498.33,-700.25C498.33,-700.25 421.17,-700.25 421.17,-700.25 418.08,-700.25 415,-697.17 415,-694.08 415,-694.08 415,-687.92 415,-687.92 415,-684.83 418.08,-681.75 421.17,-681.75 421.17,-681.75 498.33,-681.75 498.33,-681.75 501.42,-681.75 504.5,-684.83 504.5,-687.92 504.5,-687.92 504.5,-694.08 504.5,-694.08 504.5,-697.17 501.42,-700.25 498.33,-700.25"/>
<text text-anchor="start" x="423" y="-687.7" font-family="Helvetica,sans-Serif" font-size="9.00">ASDREnvelope.js</text>
</a>
</g>
</g>
<!-- src/js/directable/directables/rhythm/asdr/ASDREnvelope.js&#45;&gt;src/js/application/ApplicationLogger.js -->
<g id="edge10" class="edge">
<title>src/js/directable/directables/rhythm/asdr/ASDREnvelope.js&#45;&gt;src/js/application/ApplicationLogger.js</title>
<path fill="none" stroke="#000000" stroke-width="2" stroke-opacity="0.200000" d="M504.56,-693.36C520.36,-691.81 536.94,-686.96 547.75,-675 562.55,-658.62 541.07,-592.48 555.75,-576 592.1,-535.18 636.17,-589.04 676.38,-552 685.89,-543.23 676.72,-534.44 684.38,-524 692.63,-512.74 704.99,-503.68 716.51,-496.97"/>
<polygon fill="#000000" fill-opacity="0.200000" stroke="#000000" stroke-width="2" stroke-opacity="0.200000" points="717.39,-498.88 721.64,-494.16 715.37,-495.2 717.39,-498.88"/>
</g>
<!-- src/js/directable/directables/rhythm/asdr/DirectableRhythmASDRManager.js -->
<g id="node13" class="node">
<title>src/js/directable/directables/rhythm/asdr/DirectableRhythmASDRManager.js</title>
<g id="a_node13"><a xlink:href="src/js/directable/directables/rhythm/asdr/DirectableRhythmASDRManager.js" xlink:title="DirectableRhythmASDRManager.js">
<path fill="#ffffcc" stroke="black" d="M533.58,-669.25C533.58,-669.25 385.92,-669.25 385.92,-669.25 382.83,-669.25 379.75,-666.17 379.75,-663.08 379.75,-663.08 379.75,-656.92 379.75,-656.92 379.75,-653.83 382.83,-650.75 385.92,-650.75 385.92,-650.75 533.58,-650.75 533.58,-650.75 536.67,-650.75 539.75,-653.83 539.75,-656.92 539.75,-656.92 539.75,-663.08 539.75,-663.08 539.75,-666.17 536.67,-669.25 533.58,-669.25"/>
<text text-anchor="start" x="387.75" y="-656.7" font-family="Helvetica,sans-Serif" font-size="9.00">DirectableRhythmASDRManager.js</text>
</a>
</g>
</g>
<!-- src/js/directable/directables/rhythm/asdr/DirectableRhythmASDRManager.js&#45;&gt;src/js/application/ApplicationLogger.js -->
<g id="edge11" class="edge">
<title>src/js/directable/directables/rhythm/asdr/DirectableRhythmASDRManager.js&#45;&gt;src/js/application/ApplicationLogger.js</title>
<path fill="none" stroke="#000000" stroke-width="2" stroke-opacity="0.200000" d="M540.21,-650.57C542.93,-648.67 545.47,-646.49 547.75,-644 560.28,-630.35 543.49,-574.89 555.75,-561 592.11,-519.82 629.77,-563.1 676.38,-534 681.2,-530.99 680.17,-527.84 684.38,-524 695.57,-513.78 709.55,-504.32 721.41,-497.07"/>
<polygon fill="#000000" fill-opacity="0.200000" stroke="#000000" stroke-width="2" stroke-opacity="0.200000" points="722.17,-499.06 726.25,-494.18 720.02,-495.45 722.17,-499.06"/>
</g>
<!-- src/js/directable/directables/rhythm/bpm/DirectableRhythmBPM.js -->
<g id="node14" class="node">
<title>src/js/directable/directables/rhythm/bpm/DirectableRhythmBPM.js</title>
<g id="a_node14"><a xlink:href="src/js/directable/directables/rhythm/bpm/DirectableRhythmBPM.js" xlink:title="DirectableRhythmBPM.js">
<path fill="#ffffcc" stroke="black" d="M512.58,-761.25C512.58,-761.25 406.92,-761.25 406.92,-761.25 403.83,-761.25 400.75,-758.17 400.75,-755.08 400.75,-755.08 400.75,-748.92 400.75,-748.92 400.75,-745.83 403.83,-742.75 406.92,-742.75 406.92,-742.75 512.58,-742.75 512.58,-742.75 515.67,-742.75 518.75,-745.83 518.75,-748.92 518.75,-748.92 518.75,-755.08 518.75,-755.08 518.75,-758.17 515.67,-761.25 512.58,-761.25"/>
<text text-anchor="start" x="408.75" y="-748.7" font-family="Helvetica,sans-Serif" font-size="9.00">DirectableRhythmBPM.js</text>
</a>
</g>
</g>
<!-- src/js/directable/directables/rhythm/bpm/DirectableRhythmBPM.js&#45;&gt;src/js/application/ApplicationLogger.js -->
<g id="edge12" class="edge">
<title>src/js/directable/directables/rhythm/bpm/DirectableRhythmBPM.js&#45;&gt;src/js/application/ApplicationLogger.js</title>
<path fill="none" stroke="#000000" stroke-width="2" stroke-opacity="0.200000" d="M519.02,-747.93C530.04,-744.48 540.41,-738.89 547.75,-730 567.59,-705.97 535.11,-613.35 555.75,-590 591.84,-549.16 637.85,-606.54 676.38,-568 690.43,-553.94 673.42,-540.59 684.38,-524 691.95,-512.52 703.97,-503.5 715.42,-496.88"/>
<polygon fill="#000000" fill-opacity="0.200000" stroke="#000000" stroke-width="2" stroke-opacity="0.200000" points="716.26,-498.81 720.54,-494.11 714.26,-495.12 716.26,-498.81"/>
</g>
<!-- src/js/directable/directables/rhythm/bpm/DirectableRhythmBPM.js&#45;&gt;src/js/directable/directables/rhythm/DirectableRhythm.js -->
<g id="edge13" class="edge">
<title>src/js/directable/directables/rhythm/bpm/DirectableRhythmBPM.js&#45;&gt;src/js/directable/directables/rhythm/DirectableRhythm.js</title>
<path fill="none" stroke="#000000" stroke-width="2" stroke-opacity="0.200000" d="M518.93,-752C530.05,-752 541.68,-752 552.77,-752"/>
<polygon fill="#000000" fill-opacity="0.200000" stroke="#000000" stroke-width="2" stroke-opacity="0.200000" points="552.5,-754.1 558.5,-752 552.5,-749.9 552.5,-754.1"/>
</g>
<!-- src/js/directable/directables/title/DirectableTitle.js -->
<g id="node15" class="node">
<title>src/js/directable/directables/title/DirectableTitle.js</title>
<g id="a_node15"><a xlink:href="src/js/directable/directables/title/DirectableTitle.js" xlink:title="DirectableTitle.js">
<path fill="#ffffcc" stroke="black" d="M495.71,-569.25C495.71,-569.25 423.79,-569.25 423.79,-569.25 420.71,-569.25 417.62,-566.17 417.62,-563.08 417.62,-563.08 417.62,-556.92 417.62,-556.92 417.62,-553.83 420.71,-550.75 423.79,-550.75 423.79,-550.75 495.71,-550.75 495.71,-550.75 498.79,-550.75 501.88,-553.83 501.88,-556.92 501.88,-556.92 501.88,-563.08 501.88,-563.08 501.88,-566.17 498.79,-569.25 495.71,-569.25"/>
<text text-anchor="start" x="425.62" y="-556.7" font-family="Helvetica,sans-Serif" font-size="9.00">DirectableTitle.js</text>
</a>
</g>
</g>
<!-- src/js/directable/directables/title/DirectableTitle.js&#45;&gt;src/js/application/ApplicationLogger.js -->
<g id="edge14" class="edge">
<title>src/js/directable/directables/title/DirectableTitle.js&#45;&gt;src/js/application/ApplicationLogger.js</title>
<path fill="none" stroke="#000000" stroke-width="2" stroke-opacity="0.200000" d="M502.34,-553C555.58,-543.83 644.71,-527.64 676.38,-517 692.09,-511.72 708.84,-503.7 722.02,-496.78"/>
<polygon fill="#000000" fill-opacity="0.200000" stroke="#000000" stroke-width="2" stroke-opacity="0.200000" points="722.76,-498.76 727.06,-494.07 720.78,-495.06 722.76,-498.76"/>
</g>
<!-- src/js/directable/directables/title/DirectableTitle.js&#45;&gt;src/js/directable/Directable.js -->
<g id="edge15" class="edge">
<title>src/js/directable/directables/title/DirectableTitle.js&#45;&gt;src/js/directable/Directable.js</title>
<path fill="none" stroke="#000000" stroke-width="2" stroke-opacity="0.200000" d="M493.82,-569.6C513.07,-577.05 535.83,-589.47 547.75,-609 559.86,-628.84 539.26,-801.62 555.75,-818 566.06,-828.24 651.74,-827.26 704.71,-825.64"/>
<polygon fill="#000000" fill-opacity="0.200000" stroke="#000000" stroke-width="2" stroke-opacity="0.200000" points="704.59,-827.74 710.52,-825.45 704.46,-823.54 704.59,-827.74"/>
</g>
<!-- src/js/director/Director.js -->
<g id="node16" class="node">
<title>src/js/director/Director.js</title>
<g id="a_node16"><a xlink:href="src/js/director/Director.js" xlink:title="Director.js">
<path fill="#ffffcc" stroke="black" d="M481.83,-972.25C481.83,-972.25 437.67,-972.25 437.67,-972.25 434.58,-972.25 431.5,-969.17 431.5,-966.08 431.5,-966.08 431.5,-959.92 431.5,-959.92 431.5,-956.83 434.58,-953.75 437.67,-953.75 437.67,-953.75 481.83,-953.75 481.83,-953.75 484.92,-953.75 488,-956.83 488,-959.92 488,-959.92 488,-966.08 488,-966.08 488,-969.17 484.92,-972.25 481.83,-972.25"/>
<text text-anchor="start" x="439.5" y="-959.7" font-family="Helvetica,sans-Serif" font-size="9.00">Director.js</text>
</a>
</g>
</g>
<!-- src/js/director/directors/DirectorDanceRabbitDance.js -->
<g id="node17" class="node">
<title>src/js/director/directors/DirectorDanceRabbitDance.js</title>
<g id="a_node17"><a xlink:href="src/js/director/directors/DirectorDanceRabbitDance.js" xlink:title="DirectorDanceRabbitDance.js">
<path fill="#ffffcc" stroke="black" d="M325.58,-972.25C325.58,-972.25 199.67,-972.25 199.67,-972.25 196.58,-972.25 193.5,-969.17 193.5,-966.08 193.5,-966.08 193.5,-959.92 193.5,-959.92 193.5,-956.83 196.58,-953.75 199.67,-953.75 199.67,-953.75 325.58,-953.75 325.58,-953.75 328.67,-953.75 331.75,-956.83 331.75,-959.92 331.75,-959.92 331.75,-966.08 331.75,-966.08 331.75,-969.17 328.67,-972.25 325.58,-972.25"/>
<text text-anchor="start" x="201.5" y="-959.7" font-family="Helvetica,sans-Serif" font-size="9.00">DirectorDanceRabbitDance.js</text>
</a>
</g>
</g>
<!-- src/js/director/directors/DirectorDanceRabbitDance.js&#45;&gt;src/js/application/ApplicationLogger.js -->
<g id="edge16" class="edge">
<title>src/js/director/directors/DirectorDanceRabbitDance.js&#45;&gt;src/js/application/ApplicationLogger.js</title>
<path fill="none" stroke="#000000" stroke-width="2" stroke-opacity="0.200000" d="M268.2,-953.34C282.1,-923.4 323.92,-829.15 339.75,-746 341.89,-734.75 340.08,-548.51 347.75,-540 347.75,-540 578.46,-507.02 688.9,-491.23"/>
<polygon fill="#000000" fill-opacity="0.200000" stroke="#000000" stroke-width="2" stroke-opacity="0.200000" points="688.97,-493.35 694.61,-490.42 688.37,-489.19 688.97,-493.35"/>
</g>
<!-- src/js/director/directors/DirectorDanceRabbitDance.js&#45;&gt;src/js/directable/directables/rhythm/bpm/DirectableRhythmBPM.js -->
<g id="edge17" class="edge">
<title>src/js/director/directors/DirectorDanceRabbitDance.js&#45;&gt;src/js/directable/directables/rhythm/bpm/DirectableRhythmBPM.js</title>
<path fill="none" stroke="#000000" stroke-width="2" stroke-opacity="0.200000" d="M267.38,-953.25C277.32,-928.48 306.37,-862.12 347.75,-820 371.12,-796.2 404.44,-777.24 428.47,-765.45"/>
<polygon fill="#000000" fill-opacity="0.200000" stroke="#000000" stroke-width="2" stroke-opacity="0.200000" points="429.31,-767.38 433.82,-762.89 427.5,-763.59 429.31,-767.38"/>
</g>
<!-- src/js/director/directors/DirectorDanceRabbitDance.js&#45;&gt;src/js/directable/directables/title/DirectableTitle.js -->
<g id="edge18" class="edge">
<title>src/js/director/directors/DirectorDanceRabbitDance.js&#45;&gt;src/js/directable/directables/title/DirectableTitle.js</title>
<path fill="none" stroke="#000000" stroke-width="2" stroke-opacity="0.200000" d="M268.12,-953.33C281.82,-923.34 323.11,-828.99 339.75,-746 342.75,-731.05 339.06,-621.53 347.75,-609 361.86,-588.67 386.4,-576.68 408.82,-569.65"/>
<polygon fill="#000000" fill-opacity="0.200000" stroke="#000000" stroke-width="2" stroke-opacity="0.200000" points="409.2,-571.73 414.38,-568.04 408.03,-567.7 409.2,-571.73"/>
</g>
<!-- src/js/director/directors/DirectorDanceRabbitDance.js&#45;&gt;src/js/director/Director.js -->
<g id="edge19" class="edge">
<title>src/js/director/directors/DirectorDanceRabbitDance.js&#45;&gt;src/js/director/Director.js</title>
<path fill="none" stroke="#000000" stroke-width="2" stroke-opacity="0.200000" d="M332.14,-963C362.46,-963 396.9,-963 422.19,-963"/>
<polygon fill="#000000" fill-opacity="0.200000" stroke="#000000" stroke-width="2" stroke-opacity="0.200000" points="422.05,-965.1 428.05,-963 422.05,-960.9 422.05,-965.1"/>
</g>
<!-- src/js/event/ApplicationEvent.js -->
<g id="node18" class="node">
<title>src/js/event/ApplicationEvent.js</title>
<g id="a_node18"><a xlink:href="src/js/event/ApplicationEvent.js" xlink:title="ApplicationEvent.js">
<path fill="#ffffcc" stroke="black" d="M303.46,-1060.25C303.46,-1060.25 221.79,-1060.25 221.79,-1060.25 218.71,-1060.25 215.62,-1057.17 215.62,-1054.08 215.62,-1054.08 215.62,-1047.92 215.62,-1047.92 215.62,-1044.83 218.71,-1041.75 221.79,-1041.75 221.79,-1041.75 303.46,-1041.75 303.46,-1041.75 306.54,-1041.75 309.62,-1044.83 309.62,-1047.92 309.62,-1047.92 309.62,-1054.08 309.62,-1054.08 309.62,-1057.17 306.54,-1060.25 303.46,-1060.25"/>
<text text-anchor="start" x="223.62" y="-1047.7" font-family="Helvetica,sans-Serif" font-size="9.00">ApplicationEvent.js</text>
</a>
</g>
</g>
<!-- src/js/event/ApplicationEventDispatcher.js -->
<g id="node19" class="node">
<title>src/js/event/ApplicationEventDispatcher.js</title>
<g id="a_node19"><a xlink:href="src/js/event/ApplicationEventDispatcher.js" xlink:title="ApplicationEventDispatcher.js">
<path fill="#ffffcc" stroke="black" d="M163.33,-1060.25C163.33,-1060.25 38.17,-1060.25 38.17,-1060.25 35.08,-1060.25 32,-1057.17 32,-1054.08 32,-1054.08 32,-1047.92 32,-1047.92 32,-1044.83 35.08,-1041.75 38.17,-1041.75 38.17,-1041.75 163.33,-1041.75 163.33,-1041.75 166.42,-1041.75 169.5,-1044.83 169.5,-1047.92 169.5,-1047.92 169.5,-1054.08 169.5,-1054.08 169.5,-1057.17 166.42,-1060.25 163.33,-1060.25"/>
<text text-anchor="start" x="40" y="-1047.7" font-family="Helvetica,sans-Serif" font-size="9.00">ApplicationEventDispatcher.js</text>
</a>
</g>
</g>
<!-- src/js/event/ApplicationEventDispatcher.js&#45;&gt;src/js/event/ApplicationEvent.js -->
<g id="edge20" class="edge">
<title>src/js/event/ApplicationEventDispatcher.js&#45;&gt;src/js/event/ApplicationEvent.js</title>
<path fill="none" stroke="#000000" stroke-width="2" stroke-opacity="0.200000" d="M169.55,-1051C181.89,-1051 194.63,-1051 206.55,-1051"/>
<polygon fill="#000000" fill-opacity="0.200000" stroke="#000000" stroke-width="2" stroke-opacity="0.200000" points="206.46,-1053.1 212.46,-1051 206.46,-1048.9 206.46,-1053.1"/>
</g>
<!-- src/js/index.js -->
<g id="node20" class="node">
<title>src/js/index.js</title>
<g id="a_node20"><a xlink:href="src/js/index.js" xlink:title="index.js">
<path fill="#ffffcc" stroke="black" d="M480.58,-481.25C480.58,-481.25 438.92,-481.25 438.92,-481.25 435.83,-481.25 432.75,-478.17 432.75,-475.08 432.75,-475.08 432.75,-468.92 432.75,-468.92 432.75,-465.83 435.83,-462.75 438.92,-462.75 438.92,-462.75 480.58,-462.75 480.58,-462.75 483.67,-462.75 486.75,-465.83 486.75,-468.92 486.75,-468.92 486.75,-475.08 486.75,-475.08 486.75,-478.17 483.67,-481.25 480.58,-481.25"/>
<text text-anchor="start" x="444" y="-468.7" font-family="Helvetica,sans-Serif" font-size="9.00">index.js</text>
</a>
</g>
</g>
<!-- src/js/index.js&#45;&gt;src/js/application/Application.js -->
<g id="edge21" class="edge">
<title>src/js/index.js&#45;&gt;src/js/application/Application.js</title>
<path fill="none" stroke="#000000" stroke-width="2" stroke-opacity="0.200000" d="M487.11,-473.06C509.06,-473.94 540.78,-475.21 566.5,-476.25"/>
<polygon fill="#000000" fill-opacity="0.200000" stroke="#000000" stroke-width="2" stroke-opacity="0.200000" points="566.23,-478.34 572.3,-476.48 566.39,-474.14 566.23,-478.34"/>
</g>
<!-- src/js/overlay/OverlayUtil.js -->
<g id="node27" class="node">
<title>src/js/overlay/OverlayUtil.js</title>
<g id="a_node27"><a xlink:href="src/js/overlay/OverlayUtil.js" xlink:title="OverlayUtil.js">
<path fill="#ffffcc" stroke="black" d="M639.96,-251.25C639.96,-251.25 582.29,-251.25 582.29,-251.25 579.21,-251.25 576.12,-248.17 576.12,-245.08 576.12,-245.08 576.12,-238.92 576.12,-238.92 576.12,-235.83 579.21,-232.75 582.29,-232.75 582.29,-232.75 639.96,-232.75 639.96,-232.75 643.04,-232.75 646.12,-235.83 646.12,-238.92 646.12,-238.92 646.12,-245.08 646.12,-245.08 646.12,-248.17 643.04,-251.25 639.96,-251.25"/>
<text text-anchor="start" x="584.12" y="-238.7" font-family="Helvetica,sans-Serif" font-size="9.00">OverlayUtil.js</text>
</a>
</g>
</g>
<!-- src/js/overlay/capture/OverlayCapture.js&#45;&gt;src/js/overlay/OverlayUtil.js -->
<g id="edge32" class="edge">
<title>src/js/overlay/capture/OverlayCapture.js&#45;&gt;src/js/overlay/OverlayUtil.js</title>
<path fill="none" stroke="#000000" stroke-width="2" stroke-opacity="0.200000" d="M494.77,-68.63C512.44,-75.08 533.3,-85.17 547.75,-100 582.67,-135.86 599.76,-194.51 606.51,-223.95"/>
<polygon fill="#000000" fill-opacity="0.200000" stroke="#000000" stroke-width="2" stroke-opacity="0.200000" points="604.38,-224.04 607.7,-229.45 608.48,-223.15 604.38,-224.04"/>
</g>
<!-- src/js/overlay/dispatcher/OverlayDispatcher.js&#45;&gt;src/js/application/ApplicationLogger.js -->
<g id="edge33" class="edge">
<title>src/js/overlay/dispatcher/OverlayDispatcher.js&#45;&gt;src/js/application/ApplicationLogger.js</title>
<path fill="none" stroke="#000000" stroke-width="2" stroke-opacity="0.200000" d="M742.54,-281.31C725.27,-314.18 669.43,-424.84 680.38,-461 682.08,-466.62 685.49,-470.91 689.92,-474.17"/>
<polygon fill="#000000" fill-opacity="0.200000" stroke="#000000" stroke-width="2" stroke-opacity="0.200000" points="688.71,-475.9 694.97,-477 690.77,-472.24 688.71,-475.9"/>
</g>
<!-- src/js/overlay/dispatcher/OverlayDispatcherEvent.js -->
<g id="node28" class="node">
<title>src/js/overlay/dispatcher/OverlayDispatcherEvent.js</title>
<g id="a_node28"><a xlink:href="src/js/overlay/dispatcher/OverlayDispatcherEvent.js" xlink:title="OverlayDispatcherEvent.js">
<path fill="#ffffcc" stroke="black" d="M944.46,-281.25C944.46,-281.25 832.79,-281.25 832.79,-281.25 829.71,-281.25 826.62,-278.17 826.62,-275.08 826.62,-275.08 826.62,-268.92 826.62,-268.92 826.62,-265.83 829.71,-262.75 832.79,-262.75 832.79,-262.75 944.46,-262.75 944.46,-262.75 947.54,-262.75 950.62,-265.83 950.62,-268.92 950.62,-268.92 950.62,-275.08 950.62,-275.08 950.62,-278.17 947.54,-281.25 944.46,-281.25"/>
<text text-anchor="start" x="834.62" y="-268.7" font-family="Helvetica,sans-Serif" font-size="9.00">OverlayDispatcherEvent.js</text>
</a>
</g>
</g>
<!-- src/js/overlay/dispatcher/OverlayDispatcher.js&#45;&gt;src/js/overlay/dispatcher/OverlayDispatcherEvent.js -->
<g id="edge34" class="edge">
<title>src/js/overlay/dispatcher/OverlayDispatcher.js&#45;&gt;src/js/overlay/dispatcher/OverlayDispatcherEvent.js</title>
<path fill="none" stroke="#000000" stroke-width="2" stroke-opacity="0.200000" d="M797.94,-272C804.28,-272 810.86,-272 817.44,-272"/>
<polygon fill="#000000" fill-opacity="0.200000" stroke="#000000" stroke-width="2" stroke-opacity="0.200000" points="817.38,-274.1 823.38,-272 817.38,-269.9 817.38,-274.1"/>
</g>
<!-- src/js/overlay/format/OverlayFormat.js&#45;&gt;src/js/overlay/OverlayUtil.js -->
<g id="edge35" class="edge">
<title>src/js/overlay/format/OverlayFormat.js&#45;&gt;src/js/overlay/OverlayUtil.js</title>
<path fill="none" stroke="#000000" stroke-width="2" stroke-opacity="0.200000" d="M489.72,-129.66C507.64,-136.56 530.45,-147.08 547.75,-161 570.3,-179.14 589.42,-207.03 600.34,-224.89"/>
<polygon fill="#000000" fill-opacity="0.200000" stroke="#000000" stroke-width="2" stroke-opacity="0.200000" points="598.34,-225.63 603.22,-229.72 601.95,-223.49 598.34,-225.63"/>
</g>
<!-- src/js/overlay/media/OverlayMedia.js&#45;&gt;src/js/overlay/OverlayUtil.js -->
<g id="edge36" class="edge">
<title>src/js/overlay/media/OverlayMedia.js&#45;&gt;src/js/overlay/OverlayUtil.js</title>
<path fill="none" stroke="#000000" stroke-width="2" stroke-opacity="0.200000" d="M484.42,-190.67C509.77,-201.02 550.13,-217.5 578.26,-228.99"/>
<polygon fill="#000000" fill-opacity="0.200000" stroke="#000000" stroke-width="2" stroke-opacity="0.200000" points="577.42,-230.91 583.76,-231.24 579,-227.02 577.42,-230.91"/>
</g>
<!-- src/js/overlay/rhythm/OverlayRhythm.js&#45;&gt;src/js/overlay/OverlayUtil.js -->
<g id="edge37" class="edge">
<title>src/js/overlay/rhythm/OverlayRhythm.js&#45;&gt;src/js/overlay/OverlayUtil.js</title>
<path fill="none" stroke="#000000" stroke-width="2" stroke-opacity="0.200000" d="M504.1,-294.84C518.32,-291.43 533.99,-286.87 547.75,-281 562.78,-274.59 578.37,-264.84 590.21,-256.69"/>
<polygon fill="#000000" fill-opacity="0.200000" stroke="#000000" stroke-width="2" stroke-opacity="0.200000" points="591.23,-258.54 594.92,-253.37 588.81,-255.11 591.23,-258.54"/>
</g>
<!-- src/js/overlay/OverlayUtil.js&#45;&gt;src/js/application/ApplicationLogger.js -->
<g id="edge30" class="edge">
<title>src/js/overlay/OverlayUtil.js&#45;&gt;src/js/application/ApplicationLogger.js</title>
<path fill="none" stroke="#000000" stroke-width="2" stroke-opacity="0.200000" d="M618.47,-251.52C631.9,-272.21 663.04,-323.29 676.38,-371 682.14,-391.62 670.57,-450.64 684.38,-467 686.06,-468.99 687.95,-470.76 690.01,-472.32"/>
<polygon fill="#000000" fill-opacity="0.200000" stroke="#000000" stroke-width="2" stroke-opacity="0.200000" points="688.72,-473.99 694.94,-475.3 690.89,-470.4 688.72,-473.99"/>
</g>
<!-- src/js/overlay/OverlayUtil.js&#45;&gt;src/js/overlay/dispatcher/OverlayDispatcher.js -->
<g id="edge31" class="edge">
<title>src/js/overlay/OverlayUtil.js&#45;&gt;src/js/overlay/dispatcher/OverlayDispatcher.js</title>
<path fill="none" stroke="#000000" stroke-width="2" stroke-opacity="0.200000" d="M646.38,-249.65C660.95,-252.9 678.25,-256.76 694.35,-260.36"/>
<polygon fill="#000000" fill-opacity="0.200000" stroke="#000000" stroke-width="2" stroke-opacity="0.200000" points="693.87,-262.4 700.19,-261.66 694.79,-258.3 693.87,-262.4"/>
</g>
<!-- src/js/renderer/RendererResizer.js -->
<g id="node29" class="node">
<title>src/js/renderer/RendererResizer.js</title>
<g id="a_node29"><a xlink:href="src/js/renderer/RendererResizer.js" xlink:title="RendererResizer.js">
<path fill="#ffffcc" stroke="black" d="M652.33,-400.25C652.33,-400.25 569.92,-400.25 569.92,-400.25 566.83,-400.25 563.75,-397.17 563.75,-394.08 563.75,-394.08 563.75,-387.92 563.75,-387.92 563.75,-384.83 566.83,-381.75 569.92,-381.75 569.92,-381.75 652.33,-381.75 652.33,-381.75 655.42,-381.75 658.5,-384.83 658.5,-387.92 658.5,-387.92 658.5,-394.08 658.5,-394.08 658.5,-397.17 655.42,-400.25 652.33,-400.25"/>
<text text-anchor="start" x="571.75" y="-387.7" font-family="Helvetica,sans-Serif" font-size="9.00">RendererResizer.js</text>
</a>
</g>
</g>
<!-- src/js/renderer/RendererResizer.js&#45;&gt;src/js/application/ApplicationConfiguration.js -->
<g id="edge38" class="edge">
<title>src/js/renderer/RendererResizer.js&#45;&gt;src/js/application/ApplicationConfiguration.js</title>
<path fill="none" stroke="#000000" stroke-width="2" stroke-opacity="0.200000" d="M633.42,-400.67C656.02,-410.93 691.91,-427.22 717.18,-438.69"/>
<polygon fill="#000000" fill-opacity="0.200000" stroke="#000000" stroke-width="2" stroke-opacity="0.200000" points="716.22,-440.56 722.55,-441.13 717.96,-436.74 716.22,-440.56"/>
</g>
<!-- src/js/renderer/RendererResizer.js&#45;&gt;src/js/application/ApplicationLogger.js -->
<g id="edge39" class="edge">
<title>src/js/renderer/RendererResizer.js&#45;&gt;src/js/application/ApplicationLogger.js</title>
<path fill="none" stroke="#000000" stroke-width="2" stroke-opacity="0.200000" d="M635.98,-400.64C649.8,-407.43 666.39,-417.83 676.38,-432 685.57,-445.04 673.25,-455.56 684.38,-467 686.01,-468.68 687.79,-470.19 689.68,-471.54"/>
<polygon fill="#000000" fill-opacity="0.200000" stroke="#000000" stroke-width="2" stroke-opacity="0.200000" points="688.63,-473.36 694.87,-474.55 690.73,-469.72 688.63,-473.36"/>
</g>
<!-- src/js/renderer/RendererResizer.js&#45;&gt;src/js/overlay/dispatcher/OverlayDispatcher.js -->
<g id="edge40" class="edge">
<title>src/js/renderer/RendererResizer.js&#45;&gt;src/js/overlay/dispatcher/OverlayDispatcher.js</title>
<path fill="none" stroke="#000000" stroke-width="2" stroke-opacity="0.200000" d="M652.74,-381.32C661.04,-378.22 669.36,-374.19 676.38,-369 705.14,-347.7 726.95,-311.14 738.13,-289.51"/>
<polygon fill="#000000" fill-opacity="0.200000" stroke="#000000" stroke-width="2" stroke-opacity="0.200000" points="739.98,-290.51 740.79,-284.2 736.23,-288.63 739.98,-290.51"/>
</g>
<!-- src/js/rhythm/ViewRhythm.js -->
<g id="node30" class="node">
<title>src/js/rhythm/ViewRhythm.js</title>
<g id="a_node30"><a xlink:href="src/js/rhythm/ViewRhythm.js" xlink:title="ViewRhythm.js">
<path fill="#ffffcc" stroke="black" d="M132.96,-1121.25C132.96,-1121.25 68.54,-1121.25 68.54,-1121.25 65.46,-1121.25 62.38,-1118.17 62.38,-1115.08 62.38,-1115.08 62.38,-1108.92 62.38,-1108.92 62.38,-1105.83 65.46,-1102.75 68.54,-1102.75 68.54,-1102.75 132.96,-1102.75 132.96,-1102.75 136.04,-1102.75 139.12,-1105.83 139.12,-1108.92 139.12,-1108.92 139.12,-1115.08 139.12,-1115.08 139.12,-1118.17 136.04,-1121.25 132.96,-1121.25"/>
<text text-anchor="start" x="70.38" y="-1108.7" font-family="Helvetica,sans-Serif" font-size="9.00">ViewRhythm.js</text>
</a>
</g>
</g>
<!-- src/js/rhythm/ViewRhythmTrack.js -->
<g id="node31" class="node">
<title>src/js/rhythm/ViewRhythmTrack.js</title>
<g id="a_node31"><a xlink:href="src/js/rhythm/ViewRhythmTrack.js" xlink:title="ViewRhythmTrack.js">
<path fill="#ffffcc" stroke="black" d="M306.08,-1121.25C306.08,-1121.25 219.17,-1121.25 219.17,-1121.25 216.08,-1121.25 213,-1118.17 213,-1115.08 213,-1115.08 213,-1108.92 213,-1108.92 213,-1105.83 216.08,-1102.75 219.17,-1102.75 219.17,-1102.75 306.08,-1102.75 306.08,-1102.75 309.17,-1102.75 312.25,-1105.83 312.25,-1108.92 312.25,-1108.92 312.25,-1115.08 312.25,-1115.08 312.25,-1118.17 309.17,-1121.25 306.08,-1121.25"/>
<text text-anchor="start" x="221" y="-1108.7" font-family="Helvetica,sans-Serif" font-size="9.00">ViewRhythmTrack.js</text>
</a>
</g>
</g>
<!-- src/js/rhythm/ViewRhythm.js&#45;&gt;src/js/rhythm/ViewRhythmTrack.js -->
<g id="edge41" class="edge">
<title>src/js/rhythm/ViewRhythm.js&#45;&gt;src/js/rhythm/ViewRhythmTrack.js</title>
<path fill="none" stroke="#000000" stroke-width="2" stroke-opacity="0.200000" d="M139.23,-1112C158.46,-1112 182.3,-1112 203.82,-1112"/>
<polygon fill="#000000" fill-opacity="0.200000" stroke="#000000" stroke-width="2" stroke-opacity="0.200000" points="203.53,-1114.1 209.53,-1112 203.53,-1109.9 203.53,-1114.1"/>
</g>
<!-- src/js/view/View.js -->
<g id="node32" class="node">
<title>src/js/view/View.js</title>
<g id="a_node32"><a xlink:href="src/js/view/View.js" xlink:title="View.js">
<path fill="#ccffcc" stroke="black" d="M121.58,-1182.25C121.58,-1182.25 79.92,-1182.25 79.92,-1182.25 76.83,-1182.25 73.75,-1179.17 73.75,-1176.08 73.75,-1176.08 73.75,-1169.92 73.75,-1169.92 73.75,-1166.83 76.83,-1163.75 79.92,-1163.75 79.92,-1163.75 121.58,-1163.75 121.58,-1163.75 124.67,-1163.75 127.75,-1166.83 127.75,-1169.92 127.75,-1169.92 127.75,-1176.08 127.75,-1176.08 127.75,-1179.17 124.67,-1182.25 121.58,-1182.25"/>
<text text-anchor="start" x="86.5" y="-1169.7" font-family="Helvetica,sans-Serif" font-size="9.00">View.js</text>
</a>
</g>
</g>
</g>
</svg>
