<?xml version="1.0" encoding="UTF-8" standalone="no"?>
<!DOCTYPE svg PUBLIC "-//W3C//DTD SVG 1.1//EN"
 "http://www.w3.org/Graphics/SVG/1.1/DTD/svg11.dtd">
<!-- Generated by graphviz version 12.2.1 (20241206.2353)
 -->
<!-- Title: dependency&#45;cruiser output Pages: 1 -->
<svg width="873pt" height="1888pt"
 viewBox="0.00 0.00 872.75 1888.00" xmlns="http://www.w3.org/2000/svg" xmlns:xlink="http://www.w3.org/1999/xlink">
<g id="graph0" class="graph" transform="scale(1 1) rotate(0) translate(4 1884)">
<title>dependency&#45;cruiser output</title>
<polygon fill="white" stroke="none" points="-4,4 -4,-1884 868.75,-1884 868.75,4 -4,4"/>
<g id="clust1" class="cluster">
<title>cluster_src</title>
<path fill="#ffffff" stroke="black" stroke-width="2" d="M20,-8C20,-8 844.75,-8 844.75,-8 850.75,-8 856.75,-14 856.75,-20 856.75,-20 856.75,-1860 856.75,-1860 856.75,-1866 850.75,-1872 844.75,-1872 844.75,-1872 20,-1872 20,-1872 14,-1872 8,-1866 8,-1860 8,-1860 8,-20 8,-20 8,-14 14,-8 20,-8"/>
<text text-anchor="middle" x="432.38" y="-1859.45" font-family="Helvetica,sans-Serif" font-weight="bold" font-size="9.00">src</text>
</g>
<g id="clust2" class="cluster">
<title>cluster_src/js</title>
<path fill="#ffffff" stroke="black" stroke-width="2" d="M28,-16C28,-16 836.75,-16 836.75,-16 842.75,-16 848.75,-22 848.75,-28 848.75,-28 848.75,-1833 848.75,-1833 848.75,-1839 842.75,-1845 836.75,-1845 836.75,-1845 28,-1845 28,-1845 22,-1845 16,-1839 16,-1833 16,-1833 16,-28 16,-28 16,-22 22,-16 28,-16"/>
<text text-anchor="middle" x="432.38" y="-1832.45" font-family="Helvetica,sans-Serif" font-weight="bold" font-size="9.00">js</text>
</g>
<g id="clust3" class="cluster">
<title>cluster_src/js/application</title>
<path fill="#ffffff" stroke="black" stroke-width="2" d="M136.25,-1580C136.25,-1580 199,-1580 199,-1580 205,-1580 211,-1586 211,-1592 211,-1592 211,-1621 211,-1621 211,-1627 205,-1633 199,-1633 199,-1633 136.25,-1633 136.25,-1633 130.25,-1633 124.25,-1627 124.25,-1621 124.25,-1621 124.25,-1592 124.25,-1592 124.25,-1586 130.25,-1580 136.25,-1580"/>
<text text-anchor="middle" x="167.62" y="-1620.45" font-family="Helvetica,sans-Serif" font-weight="bold" font-size="9.00">application</text>
</g>
<g id="clust4" class="cluster">
<title>cluster_src/js/controller</title>
<path fill="#ffffff" stroke="black" stroke-width="2" d="M231,-1580C231,-1580 287.75,-1580 287.75,-1580 293.75,-1580 299.75,-1586 299.75,-1592 299.75,-1592 299.75,-1621 299.75,-1621 299.75,-1627 293.75,-1633 287.75,-1633 287.75,-1633 231,-1633 231,-1633 225,-1633 219,-1627 219,-1621 219,-1621 219,-1592 219,-1592 219,-1586 225,-1580 231,-1580"/>
<text text-anchor="middle" x="259.38" y="-1620.45" font-family="Helvetica,sans-Serif" font-weight="bold" font-size="9.00">controller</text>
</g>
<g id="clust5" class="cluster">
<title>cluster_src/js/data</title>
<path fill="#ffffff" stroke="black" stroke-width="2" d="M36,-787C36,-787 191.12,-787 191.12,-787 197.12,-787 203.12,-793 203.12,-799 203.12,-799 203.12,-828 203.12,-828 203.12,-834 197.12,-840 191.12,-840 191.12,-840 36,-840 36,-840 30,-840 24,-834 24,-828 24,-828 24,-799 24,-799 24,-793 30,-787 36,-787"/>
<text text-anchor="middle" x="113.56" y="-827.45" font-family="Helvetica,sans-Serif" font-weight="bold" font-size="9.00">data</text>
</g>
<g id="clust6" class="cluster">
<title>cluster_src/js/directable</title>
<path fill="#ffffff" stroke="black" stroke-width="2" d="M400.25,-24C400.25,-24 817.88,-24 817.88,-24 823.88,-24 829.88,-30 829.88,-36 829.88,-36 829.88,-1522 829.88,-1522 829.88,-1528 823.88,-1534 817.88,-1534 817.88,-1534 400.25,-1534 400.25,-1534 394.25,-1534 388.25,-1528 388.25,-1522 388.25,-1522 388.25,-36 388.25,-36 388.25,-30 394.25,-24 400.25,-24"/>
<text text-anchor="middle" x="609.06" y="-1521.45" font-family="Helvetica,sans-Serif" font-weight="bold" font-size="9.00">directable</text>
</g>
<g id="clust7" class="cluster">
<title>cluster_src/js/directable/directables</title>
<path fill="#ffffff" stroke="black" stroke-width="2" d="M408.25,-32C408.25,-32 715.75,-32 715.75,-32 721.75,-32 727.75,-38 727.75,-44 727.75,-44 727.75,-1495 727.75,-1495 727.75,-1501 721.75,-1507 715.75,-1507 715.75,-1507 408.25,-1507 408.25,-1507 402.25,-1507 396.25,-1501 396.25,-1495 396.25,-1495 396.25,-44 396.25,-44 396.25,-38 402.25,-32 408.25,-32"/>
<text text-anchor="middle" x="562" y="-1494.45" font-family="Helvetica,sans-Serif" font-weight="bold" font-size="9.00">directables</text>
</g>
<g id="clust8" class="cluster">
<title>cluster_src/js/directable/directables/dotmatrix</title>
<path fill="#ffffff" stroke="black" stroke-width="2" d="M431.62,-259C431.62,-259 706.75,-259 706.75,-259 712.75,-259 718.75,-265 718.75,-271 718.75,-271 718.75,-1285 718.75,-1285 718.75,-1291 712.75,-1297 706.75,-1297 706.75,-1297 431.62,-1297 431.62,-1297 425.62,-1297 419.62,-1291 419.62,-1285 419.62,-1285 419.62,-271 419.62,-271 419.62,-265 425.62,-259 431.62,-259"/>
<text text-anchor="middle" x="569.19" y="-1284.45" font-family="Helvetica,sans-Serif" font-weight="bold" font-size="9.00">dotmatrix</text>
</g>
<g id="clust9" class="cluster">
<title>cluster_src/js/directable/directables/dotmatrix/dots</title>
<path fill="#ffffff" stroke="black" stroke-width="2" d="M466.62,-267C466.62,-267 533.88,-267 533.88,-267 539.88,-267 545.88,-273 545.88,-279 545.88,-279 545.88,-339 545.88,-339 545.88,-345 539.88,-351 533.88,-351 533.88,-351 466.62,-351 466.62,-351 460.62,-351 454.62,-345 454.62,-339 454.62,-339 454.62,-279 454.62,-279 454.62,-273 460.62,-267 466.62,-267"/>
<text text-anchor="middle" x="500.25" y="-338.45" font-family="Helvetica,sans-Serif" font-weight="bold" font-size="9.00">dots</text>
</g>
<g id="clust10" class="cluster">
<title>cluster_src/js/directable/directables/dotmatrix/grid</title>
<path fill="#ffffff" stroke="black" stroke-width="2" d="M439.62,-359C439.62,-359 560.88,-359 560.88,-359 566.88,-359 572.88,-365 572.88,-371 572.88,-371 572.88,-462 572.88,-462 572.88,-468 566.88,-474 560.88,-474 560.88,-474 439.62,-474 439.62,-474 433.62,-474 427.62,-468 427.62,-462 427.62,-462 427.62,-371 427.62,-371 427.62,-365 433.62,-359 439.62,-359"/>
<text text-anchor="middle" x="500.25" y="-461.45" font-family="Helvetica,sans-Serif" font-weight="bold" font-size="9.00">grid</text>
</g>
<g id="clust11" class="cluster">
<title>cluster_src/js/directable/directables/dotmatrix/shapes</title>
<path fill="#ffffff" stroke="black" stroke-width="2" d="M440.25,-482C440.25,-482 560.25,-482 560.25,-482 566.25,-482 572.25,-488 572.25,-494 572.25,-494 572.25,-1232 572.25,-1232 572.25,-1238 566.25,-1244 560.25,-1244 560.25,-1244 440.25,-1244 440.25,-1244 434.25,-1244 428.25,-1238 428.25,-1232 428.25,-1232 428.25,-494 428.25,-494 428.25,-488 434.25,-482 440.25,-482"/>
<text text-anchor="middle" x="500.25" y="-1231.45" font-family="Helvetica,sans-Serif" font-weight="bold" font-size="9.00">shapes</text>
</g>
<g id="clust12" class="cluster">
<title>cluster_src/js/directable/directables/dotmatrix/shapes/fill</title>
<path fill="#ffffff" stroke="black" stroke-width="2" d="M458.75,-490C458.75,-490 541.75,-490 541.75,-490 547.75,-490 553.75,-496 553.75,-502 553.75,-502 553.75,-624 553.75,-624 553.75,-630 547.75,-636 541.75,-636 541.75,-636 458.75,-636 458.75,-636 452.75,-636 446.75,-630 446.75,-624 446.75,-624 446.75,-502 446.75,-502 446.75,-496 452.75,-490 458.75,-490"/>
<text text-anchor="middle" x="500.25" y="-623.45" font-family="Helvetica,sans-Serif" font-weight="bold" font-size="9.00">fill</text>
</g>
<g id="clust13" class="cluster">
<title>cluster_src/js/directable/directables/dotmatrix/shapes/glyph</title>
<path fill="#ffffff" stroke="black" stroke-width="2" d="M460.25,-644C460.25,-644 540.25,-644 540.25,-644 546.25,-644 552.25,-650 552.25,-656 552.25,-656 552.25,-995 552.25,-995 552.25,-1001 546.25,-1007 540.25,-1007 540.25,-1007 460.25,-1007 460.25,-1007 454.25,-1007 448.25,-1001 448.25,-995 448.25,-995 448.25,-656 448.25,-656 448.25,-650 454.25,-644 460.25,-644"/>
<text text-anchor="middle" x="500.25" y="-994.45" font-family="Helvetica,sans-Serif" font-weight="bold" font-size="9.00">glyph</text>
</g>
<g id="clust14" class="cluster">
<title>cluster_src/js/directable/directables/dotmatrix/shapes/line</title>
<path fill="#ffffff" stroke="black" stroke-width="2" d="M448.25,-1015C448.25,-1015 552.25,-1015 552.25,-1015 558.25,-1015 564.25,-1021 564.25,-1027 564.25,-1027 564.25,-1087 564.25,-1087 564.25,-1093 558.25,-1099 552.25,-1099 552.25,-1099 448.25,-1099 448.25,-1099 442.25,-1099 436.25,-1093 436.25,-1087 436.25,-1087 436.25,-1027 436.25,-1027 436.25,-1021 442.25,-1015 448.25,-1015"/>
<text text-anchor="middle" x="500.25" y="-1086.45" font-family="Helvetica,sans-Serif" font-weight="bold" font-size="9.00">line</text>
</g>
<g id="clust15" class="cluster">
<title>cluster_src/js/directable/directables/dotmatrix/shapes/primative</title>
<path fill="#ffffff" stroke="black" stroke-width="2" d="M457.25,-1107C457.25,-1107 543.25,-1107 543.25,-1107 549.25,-1107 555.25,-1113 555.25,-1119 555.25,-1119 555.25,-1148 555.25,-1148 555.25,-1154 549.25,-1160 543.25,-1160 543.25,-1160 457.25,-1160 457.25,-1160 451.25,-1160 445.25,-1154 445.25,-1148 445.25,-1148 445.25,-1119 445.25,-1119 445.25,-1113 451.25,-1107 457.25,-1107"/>
<text text-anchor="middle" x="500.25" y="-1147.45" font-family="Helvetica,sans-Serif" font-weight="bold" font-size="9.00">primative</text>
</g>
<g id="clust16" class="cluster">
<title>cluster_src/js/directable/directables/dotmatrix/view</title>
<path fill="#ffffff" stroke="black" stroke-width="2" d="M625.5,-1093C625.5,-1093 698.75,-1093 698.75,-1093 704.75,-1093 710.75,-1099 710.75,-1105 710.75,-1105 710.75,-1258 710.75,-1258 710.75,-1264 704.75,-1270 698.75,-1270 698.75,-1270 625.5,-1270 625.5,-1270 619.5,-1270 613.5,-1264 613.5,-1258 613.5,-1258 613.5,-1105 613.5,-1105 613.5,-1099 619.5,-1093 625.5,-1093"/>
<text text-anchor="middle" x="662.12" y="-1257.45" font-family="Helvetica,sans-Serif" font-weight="bold" font-size="9.00">view</text>
</g>
<g id="clust17" class="cluster">
<title>cluster_src/js/directable/directables/frame</title>
<path fill="#ffffff" stroke="black" stroke-width="2" d="M457.62,-1366C457.62,-1366 542.88,-1366 542.88,-1366 548.88,-1366 554.88,-1372 554.88,-1378 554.88,-1378 554.88,-1407 554.88,-1407 554.88,-1413 548.88,-1419 542.88,-1419 542.88,-1419 457.62,-1419 457.62,-1419 451.62,-1419 445.62,-1413 445.62,-1407 445.62,-1407 445.62,-1378 445.62,-1378 445.62,-1372 451.62,-1366 457.62,-1366"/>
<text text-anchor="middle" x="500.25" y="-1406.45" font-family="Helvetica,sans-Serif" font-weight="bold" font-size="9.00">frame</text>
</g>
<g id="clust18" class="cluster">
<title>cluster_src/js/directable/directables/rhythm</title>
<path fill="#ffffff" stroke="black" stroke-width="2" d="M416.25,-40C416.25,-40 707.38,-40 707.38,-40 713.38,-40 719.38,-46 719.38,-52 719.38,-52 719.38,-239 719.38,-239 719.38,-245 713.38,-251 707.38,-251 707.38,-251 416.25,-251 416.25,-251 410.25,-251 404.25,-245 404.25,-239 404.25,-239 404.25,-52 404.25,-52 404.25,-46 410.25,-40 416.25,-40"/>
<text text-anchor="middle" x="561.81" y="-238.45" font-family="Helvetica,sans-Serif" font-weight="bold" font-size="9.00">rhythm</text>
</g>
<g id="clust19" class="cluster">
<title>cluster_src/js/directable/directables/rhythm/asdr</title>
<path fill="#ffffff" stroke="black" stroke-width="2" d="M424.25,-48C424.25,-48 576.25,-48 576.25,-48 582.25,-48 588.25,-54 588.25,-60 588.25,-60 588.25,-151 588.25,-151 588.25,-157 582.25,-163 576.25,-163 576.25,-163 424.25,-163 424.25,-163 418.25,-163 412.25,-157 412.25,-151 412.25,-151 412.25,-60 412.25,-60 412.25,-54 418.25,-48 424.25,-48"/>
<text text-anchor="middle" x="500.25" y="-150.45" font-family="Helvetica,sans-Serif" font-weight="bold" font-size="9.00">asdr</text>
</g>
<g id="clust20" class="cluster">
<title>cluster_src/js/directable/directables/rhythm/bpm</title>
<path fill="#ffffff" stroke="black" stroke-width="2" d="M445.25,-171C445.25,-171 555.25,-171 555.25,-171 561.25,-171 567.25,-177 567.25,-183 567.25,-183 567.25,-212 567.25,-212 567.25,-218 561.25,-224 555.25,-224 555.25,-224 445.25,-224 445.25,-224 439.25,-224 433.25,-218 433.25,-212 433.25,-212 433.25,-183 433.25,-183 433.25,-177 439.25,-171 445.25,-171"/>
<text text-anchor="middle" x="500.25" y="-211.45" font-family="Helvetica,sans-Serif" font-weight="bold" font-size="9.00">bpm</text>
</g>
<g id="clust21" class="cluster">
<title>cluster_src/js/directable/directables/rhythm2</title>
<path fill="#ffffff" stroke="black" stroke-width="2" d="M465.88,-1305C465.88,-1305 707.75,-1305 707.75,-1305 713.75,-1305 719.75,-1311 719.75,-1317 719.75,-1317 719.75,-1346 719.75,-1346 719.75,-1352 713.75,-1358 707.75,-1358 707.75,-1358 465.88,-1358 465.88,-1358 459.88,-1358 453.88,-1352 453.88,-1346 453.88,-1346 453.88,-1317 453.88,-1317 453.88,-1311 459.88,-1305 465.88,-1305"/>
<text text-anchor="middle" x="586.81" y="-1345.45" font-family="Helvetica,sans-Serif" font-weight="bold" font-size="9.00">rhythm2</text>
</g>
<g id="clust22" class="cluster">
<title>cluster_src/js/directable/directables/title</title>
<path fill="#ffffff" stroke="black" stroke-width="2" d="M462.12,-1427C462.12,-1427 538.38,-1427 538.38,-1427 544.38,-1427 550.38,-1433 550.38,-1439 550.38,-1439 550.38,-1468 550.38,-1468 550.38,-1474 544.38,-1480 538.38,-1480 538.38,-1480 462.12,-1480 462.12,-1480 456.12,-1480 450.12,-1474 450.12,-1468 450.12,-1468 450.12,-1439 450.12,-1439 450.12,-1433 456.12,-1427 462.12,-1427"/>
<text text-anchor="middle" x="500.25" y="-1467.45" font-family="Helvetica,sans-Serif" font-weight="bold" font-size="9.00">title</text>
</g>
<g id="clust23" class="cluster">
<title>cluster_src/js/director</title>
<path fill="#ffffff" stroke="black" stroke-width="2" d="M319.75,-1336C319.75,-1336 368.25,-1336 368.25,-1336 374.25,-1336 380.25,-1342 380.25,-1348 380.25,-1348 380.25,-1377 380.25,-1377 380.25,-1383 374.25,-1389 368.25,-1389 368.25,-1389 319.75,-1389 319.75,-1389 313.75,-1389 307.75,-1383 307.75,-1377 307.75,-1377 307.75,-1348 307.75,-1348 307.75,-1342 313.75,-1336 319.75,-1336"/>
<text text-anchor="middle" x="344" y="-1376.45" font-family="Helvetica,sans-Serif" font-weight="bold" font-size="9.00">director</text>
</g>
<g id="clust24" class="cluster">
<title>cluster_src/js/enum</title>
<path fill="#ffffff" stroke="black" stroke-width="2" d="M748,-1703C748,-1703 828.75,-1703 828.75,-1703 834.75,-1703 840.75,-1709 840.75,-1715 840.75,-1715 840.75,-1744 840.75,-1744 840.75,-1750 834.75,-1756 828.75,-1756 828.75,-1756 748,-1756 748,-1756 742,-1756 736,-1750 736,-1744 736,-1744 736,-1715 736,-1715 736,-1709 742,-1703 748,-1703"/>
<text text-anchor="middle" x="788.38" y="-1743.45" font-family="Helvetica,sans-Serif" font-weight="bold" font-size="9.00">enum</text>
</g>
<g id="clust25" class="cluster">
<title>cluster_src/js/overlay</title>
<path fill="#ffffff" stroke="black" stroke-width="2" d="M476.38,-1542C476.38,-1542 819.38,-1542 819.38,-1542 825.38,-1542 831.38,-1548 831.38,-1554 831.38,-1554 831.38,-1679 831.38,-1679 831.38,-1685 825.38,-1691 819.38,-1691 819.38,-1691 476.38,-1691 476.38,-1691 470.38,-1691 464.38,-1685 464.38,-1679 464.38,-1679 464.38,-1554 464.38,-1554 464.38,-1548 470.38,-1542 476.38,-1542"/>
<text text-anchor="middle" x="647.88" y="-1678.45" font-family="Helvetica,sans-Serif" font-weight="bold" font-size="9.00">overlay</text>
</g>
<g id="clust26" class="cluster">
<title>cluster_src/js/overlay/displayFormat</title>
<path fill="#ffffff" stroke="black" stroke-width="2" d="M608.25,-1611C608.25,-1611 716,-1611 716,-1611 722,-1611 728,-1617 728,-1623 728,-1623 728,-1652 728,-1652 728,-1658 722,-1664 716,-1664 716,-1664 608.25,-1664 608.25,-1664 602.25,-1664 596.25,-1658 596.25,-1652 596.25,-1652 596.25,-1623 596.25,-1623 596.25,-1617 602.25,-1611 608.25,-1611"/>
<text text-anchor="middle" x="662.12" y="-1651.45" font-family="Helvetica,sans-Serif" font-weight="bold" font-size="9.00">displayFormat</text>
</g>
<g id="clust27" class="cluster">
<title>cluster_src/js/overlay/overlay</title>
<path fill="#ffffff" stroke="black" stroke-width="2" d="M622.5,-1550C622.5,-1550 701.75,-1550 701.75,-1550 707.75,-1550 713.75,-1556 713.75,-1562 713.75,-1562 713.75,-1591 713.75,-1591 713.75,-1597 707.75,-1603 701.75,-1603 701.75,-1603 622.5,-1603 622.5,-1603 616.5,-1603 610.5,-1597 610.5,-1591 610.5,-1591 610.5,-1562 610.5,-1562 610.5,-1556 616.5,-1550 622.5,-1550"/>
<text text-anchor="middle" x="662.12" y="-1590.45" font-family="Helvetica,sans-Serif" font-weight="bold" font-size="9.00">overlay</text>
</g>
<g id="clust28" class="cluster">
<title>cluster_src/js/view</title>
<path fill="#ffffff" stroke="black" stroke-width="2" d="M321,-1699C321,-1699 709.75,-1699 709.75,-1699 715.75,-1699 721.75,-1705 721.75,-1711 721.75,-1711 721.75,-1806 721.75,-1806 721.75,-1812 715.75,-1818 709.75,-1818 709.75,-1818 321,-1818 321,-1818 315,-1818 309,-1812 309,-1806 309,-1806 309,-1711 309,-1711 309,-1705 315,-1699 321,-1699"/>
<text text-anchor="middle" x="515.38" y="-1805.45" font-family="Helvetica,sans-Serif" font-weight="bold" font-size="9.00">view</text>
</g>
<g id="clust29" class="cluster">
<title>cluster_src/js/view/render</title>
<path fill="#ffffff" stroke="black" stroke-width="2" d="M456.5,-1707C456.5,-1707 701.75,-1707 701.75,-1707 707.75,-1707 713.75,-1713 713.75,-1719 713.75,-1719 713.75,-1779 713.75,-1779 713.75,-1785 707.75,-1791 701.75,-1791 701.75,-1791 456.5,-1791 456.5,-1791 450.5,-1791 444.5,-1785 444.5,-1779 444.5,-1779 444.5,-1719 444.5,-1719 444.5,-1713 450.5,-1707 456.5,-1707"/>
<text text-anchor="middle" x="579.12" y="-1778.45" font-family="Helvetica,sans-Serif" font-weight="bold" font-size="9.00">render</text>
</g>
<!-- src/js/application/Application.js -->
<g id="node1" class="node">
<title>src/js/application/Application.js</title>
<g id="a_node1"><a xlink:href="src/js/application/Application.js" xlink:title="Application.js">
<path fill="#ffffcc" stroke="black" d="M196.83,-1606.25C196.83,-1606.25 138.42,-1606.25 138.42,-1606.25 135.33,-1606.25 132.25,-1603.17 132.25,-1600.08 132.25,-1600.08 132.25,-1593.92 132.25,-1593.92 132.25,-1590.83 135.33,-1587.75 138.42,-1587.75 138.42,-1587.75 196.83,-1587.75 196.83,-1587.75 199.92,-1587.75 203,-1590.83 203,-1593.92 203,-1593.92 203,-1600.08 203,-1600.08 203,-1603.17 199.92,-1606.25 196.83,-1606.25"/>
<text text-anchor="start" x="140.25" y="-1593.7" font-family="Helvetica,sans-Serif" font-size="9.00">Application.js</text>
</a>
</g>
</g>
<!-- src/js/controller/Controller.js -->
<g id="node2" class="node">
<title>src/js/controller/Controller.js</title>
<g id="a_node2"><a xlink:href="src/js/controller/Controller.js" xlink:title="Controller.js">
<path fill="#ffffcc" stroke="black" d="M285.58,-1606.25C285.58,-1606.25 233.17,-1606.25 233.17,-1606.25 230.08,-1606.25 227,-1603.17 227,-1600.08 227,-1600.08 227,-1593.92 227,-1593.92 227,-1590.83 230.08,-1587.75 233.17,-1587.75 233.17,-1587.75 285.58,-1587.75 285.58,-1587.75 288.67,-1587.75 291.75,-1590.83 291.75,-1593.92 291.75,-1593.92 291.75,-1600.08 291.75,-1600.08 291.75,-1603.17 288.67,-1606.25 285.58,-1606.25"/>
<text text-anchor="start" x="235" y="-1593.7" font-family="Helvetica,sans-Serif" font-size="9.00">Controller.js</text>
</a>
</g>
</g>
<!-- src/js/application/Application.js&#45;&gt;src/js/controller/Controller.js -->
<g id="edge1" class="edge">
<title>src/js/application/Application.js&#45;&gt;src/js/controller/Controller.js</title>
<path fill="none" stroke="#000000" stroke-width="2" stroke-opacity="0.200000" d="M203.32,-1597C208.13,-1597 213.11,-1597 218.01,-1597"/>
<polygon fill="#000000" fill-opacity="0.200000" stroke="#000000" stroke-width="2" stroke-opacity="0.200000" points="217.68,-1599.1 223.68,-1597 217.68,-1594.9 217.68,-1599.1"/>
</g>
<!-- src/js/director/Director.js -->
<g id="node3" class="node">
<title>src/js/director/Director.js</title>
<g id="a_node3"><a xlink:href="src/js/director/Director.js" xlink:title="Director.js">
<path fill="#ffffcc" stroke="black" d="M366.08,-1362.25C366.08,-1362.25 321.92,-1362.25 321.92,-1362.25 318.83,-1362.25 315.75,-1359.17 315.75,-1356.08 315.75,-1356.08 315.75,-1349.92 315.75,-1349.92 315.75,-1346.83 318.83,-1343.75 321.92,-1343.75 321.92,-1343.75 366.08,-1343.75 366.08,-1343.75 369.17,-1343.75 372.25,-1346.83 372.25,-1349.92 372.25,-1349.92 372.25,-1356.08 372.25,-1356.08 372.25,-1359.17 369.17,-1362.25 366.08,-1362.25"/>
<text text-anchor="start" x="323.75" y="-1349.7" font-family="Helvetica,sans-Serif" font-size="9.00">Director.js</text>
</a>
</g>
</g>
<!-- src/js/controller/Controller.js&#45;&gt;src/js/director/Director.js -->
<g id="edge2" class="edge">
<title>src/js/controller/Controller.js&#45;&gt;src/js/director/Director.js</title>
<path fill="none" stroke="#000000" stroke-width="2" stroke-opacity="0.200000" d="M263.61,-1587.43C276.01,-1550.84 320.53,-1419.36 336.9,-1371.01"/>
<polygon fill="#000000" fill-opacity="0.200000" stroke="#000000" stroke-width="2" stroke-opacity="0.200000" points="338.88,-1371.72 338.81,-1365.37 334.9,-1370.38 338.88,-1371.72"/>
</g>
<!-- src/js/overlay/Overlay.js -->
<g id="node4" class="node">
<title>src/js/overlay/Overlay.js</title>
<g id="a_node4"><a xlink:href="src/js/overlay/Overlay.js" xlink:title="Overlay.js">
<path fill="#ffffcc" stroke="black" d="M521.96,-1606.25C521.96,-1606.25 478.54,-1606.25 478.54,-1606.25 475.46,-1606.25 472.38,-1603.17 472.38,-1600.08 472.38,-1600.08 472.38,-1593.92 472.38,-1593.92 472.38,-1590.83 475.46,-1587.75 478.54,-1587.75 478.54,-1587.75 521.96,-1587.75 521.96,-1587.75 525.04,-1587.75 528.12,-1590.83 528.12,-1593.92 528.12,-1593.92 528.12,-1600.08 528.12,-1600.08 528.12,-1603.17 525.04,-1606.25 521.96,-1606.25"/>
<text text-anchor="start" x="480.38" y="-1593.7" font-family="Helvetica,sans-Serif" font-size="9.00">Overlay.js</text>
</a>
</g>
</g>
<!-- src/js/controller/Controller.js&#45;&gt;src/js/overlay/Overlay.js -->
<g id="edge3" class="edge">
<title>src/js/controller/Controller.js&#45;&gt;src/js/overlay/Overlay.js</title>
<path fill="none" stroke="#000000" stroke-width="2" stroke-opacity="0.200000" d="M292.1,-1597C336.48,-1597 416.86,-1597 463.37,-1597"/>
<polygon fill="#000000" fill-opacity="0.200000" stroke="#000000" stroke-width="2" stroke-opacity="0.200000" points="463.18,-1599.1 469.18,-1597 463.18,-1594.9 463.18,-1599.1"/>
</g>
<!-- src/js/view/View.js -->
<g id="node5" class="node">
<title>src/js/view/View.js</title>
<g id="a_node5"><a xlink:href="src/js/view/View.js" xlink:title="View.js">
<path fill="#ffffcc" stroke="black" d="M364.83,-1729.25C364.83,-1729.25 323.17,-1729.25 323.17,-1729.25 320.08,-1729.25 317,-1726.17 317,-1723.08 317,-1723.08 317,-1716.92 317,-1716.92 317,-1713.83 320.08,-1710.75 323.17,-1710.75 323.17,-1710.75 364.83,-1710.75 364.83,-1710.75 367.92,-1710.75 371,-1713.83 371,-1716.92 371,-1716.92 371,-1723.08 371,-1723.08 371,-1726.17 367.92,-1729.25 364.83,-1729.25"/>
<text text-anchor="start" x="329.75" y="-1716.7" font-family="Helvetica,sans-Serif" font-size="9.00">View.js</text>
</a>
</g>
</g>
<!-- src/js/controller/Controller.js&#45;&gt;src/js/view/View.js -->
<g id="edge4" class="edge">
<title>src/js/controller/Controller.js&#45;&gt;src/js/view/View.js</title>
<path fill="none" stroke="#000000" stroke-width="2" stroke-opacity="0.200000" d="M266.86,-1606.65C280.86,-1627.49 314.06,-1676.91 331.63,-1703.08"/>
<polygon fill="#000000" fill-opacity="0.200000" stroke="#000000" stroke-width="2" stroke-opacity="0.200000" points="329.77,-1704.07 334.86,-1707.88 333.26,-1701.73 329.77,-1704.07"/>
</g>
<!-- src/js/directable/directables/dotmatrix/DirectableDotMatrix.js -->
<g id="node9" class="node">
<title>src/js/directable/directables/dotmatrix/DirectableDotMatrix.js</title>
<g id="a_node9"><a xlink:href="src/js/directable/directables/dotmatrix/DirectableDotMatrix.js" xlink:title="DirectableDotMatrix.js">
<path fill="#ffffcc" stroke="black" d="M547.08,-1270.25C547.08,-1270.25 453.42,-1270.25 453.42,-1270.25 450.33,-1270.25 447.25,-1267.17 447.25,-1264.08 447.25,-1264.08 447.25,-1257.92 447.25,-1257.92 447.25,-1254.83 450.33,-1251.75 453.42,-1251.75 453.42,-1251.75 547.08,-1251.75 547.08,-1251.75 550.17,-1251.75 553.25,-1254.83 553.25,-1257.92 553.25,-1257.92 553.25,-1264.08 553.25,-1264.08 553.25,-1267.17 550.17,-1270.25 547.08,-1270.25"/>
<text text-anchor="start" x="455.25" y="-1257.7" font-family="Helvetica,sans-Serif" font-size="9.00">DirectableDotMatrix.js</text>
</a>
</g>
</g>
<!-- src/js/director/Director.js&#45;&gt;src/js/directable/directables/dotmatrix/DirectableDotMatrix.js -->
<g id="edge13" class="edge">
<title>src/js/director/Director.js&#45;&gt;src/js/directable/directables/dotmatrix/DirectableDotMatrix.js</title>
<path fill="none" stroke="#000000" stroke-width="2" stroke-opacity="0.200000" d="M350.89,-1343.43C358.31,-1332.09 372.08,-1313.32 388.25,-1302 406.59,-1289.17 429.42,-1279.83 449.6,-1273.34"/>
<polygon fill="#000000" fill-opacity="0.200000" stroke="#000000" stroke-width="2" stroke-opacity="0.200000" points="450.05,-1275.4 455.17,-1271.62 448.82,-1271.38 450.05,-1275.4"/>
</g>
<!-- src/js/directable/directables/rhythm/bpm/DirectableRhythmBPM.js -->
<g id="node45" class="node">
<title>src/js/directable/directables/rhythm/bpm/DirectableRhythmBPM.js</title>
<g id="a_node45"><a xlink:href="src/js/directable/directables/rhythm/bpm/DirectableRhythmBPM.js" xlink:title="DirectableRhythmBPM.js">
<path fill="#ffffcc" stroke="black" d="M553.08,-197.25C553.08,-197.25 447.42,-197.25 447.42,-197.25 444.33,-197.25 441.25,-194.17 441.25,-191.08 441.25,-191.08 441.25,-184.92 441.25,-184.92 441.25,-181.83 444.33,-178.75 447.42,-178.75 447.42,-178.75 553.08,-178.75 553.08,-178.75 556.17,-178.75 559.25,-181.83 559.25,-184.92 559.25,-184.92 559.25,-191.08 559.25,-191.08 559.25,-194.17 556.17,-197.25 553.08,-197.25"/>
<text text-anchor="start" x="449.25" y="-184.7" font-family="Helvetica,sans-Serif" font-size="9.00">DirectableRhythmBPM.js</text>
</a>
</g>
</g>
<!-- src/js/director/Director.js&#45;&gt;src/js/directable/directables/rhythm/bpm/DirectableRhythmBPM.js -->
<g id="edge14" class="edge">
<title>src/js/director/Director.js&#45;&gt;src/js/directable/directables/rhythm/bpm/DirectableRhythmBPM.js</title>
<path fill="none" stroke="#000000" stroke-width="2" stroke-opacity="0.200000" d="M345.13,-1343.4C346.63,-1238.79 360.61,-313.99 388.25,-264 404.87,-233.94 439.03,-213.33 465.09,-201.24"/>
<polygon fill="#000000" fill-opacity="0.200000" stroke="#000000" stroke-width="2" stroke-opacity="0.200000" points="465.85,-203.2 470.47,-198.84 464.14,-199.37 465.85,-203.2"/>
</g>
<!-- src/js/directable/directables/title/DirectableTitle.js -->
<g id="node48" class="node">
<title>src/js/directable/directables/title/DirectableTitle.js</title>
<g id="a_node48"><a xlink:href="src/js/directable/directables/title/DirectableTitle.js" xlink:title="DirectableTitle.js">
<path fill="#ffffcc" stroke="black" d="M536.21,-1453.25C536.21,-1453.25 464.29,-1453.25 464.29,-1453.25 461.21,-1453.25 458.12,-1450.17 458.12,-1447.08 458.12,-1447.08 458.12,-1440.92 458.12,-1440.92 458.12,-1437.83 461.21,-1434.75 464.29,-1434.75 464.29,-1434.75 536.21,-1434.75 536.21,-1434.75 539.29,-1434.75 542.38,-1437.83 542.38,-1440.92 542.38,-1440.92 542.38,-1447.08 542.38,-1447.08 542.38,-1450.17 539.29,-1453.25 536.21,-1453.25"/>
<text text-anchor="start" x="466.12" y="-1440.7" font-family="Helvetica,sans-Serif" font-size="9.00">DirectableTitle.js</text>
</a>
</g>
</g>
<!-- src/js/director/Director.js&#45;&gt;src/js/directable/directables/title/DirectableTitle.js -->
<g id="edge15" class="edge">
<title>src/js/director/Director.js&#45;&gt;src/js/directable/directables/title/DirectableTitle.js</title>
<path fill="none" stroke="#000000" stroke-width="2" stroke-opacity="0.200000" d="M348.08,-1362.31C353.58,-1377.42 366.6,-1407.08 388.25,-1422 405.87,-1434.14 428.58,-1439.93 448.86,-1442.58"/>
<polygon fill="#000000" fill-opacity="0.200000" stroke="#000000" stroke-width="2" stroke-opacity="0.200000" points="448.48,-1444.65 454.68,-1443.22 448.95,-1440.47 448.48,-1444.65"/>
</g>
<!-- src/js/overlay/displayFormat/OverlayDisplayFormat.js -->
<g id="node51" class="node">
<title>src/js/overlay/displayFormat/OverlayDisplayFormat.js</title>
<g id="a_node51"><a xlink:href="src/js/overlay/displayFormat/OverlayDisplayFormat.js" xlink:title="OverlayDisplayFormat.js">
<path fill="#ffffcc" stroke="black" d="M713.83,-1637.25C713.83,-1637.25 610.42,-1637.25 610.42,-1637.25 607.33,-1637.25 604.25,-1634.17 604.25,-1631.08 604.25,-1631.08 604.25,-1624.92 604.25,-1624.92 604.25,-1621.83 607.33,-1618.75 610.42,-1618.75 610.42,-1618.75 713.83,-1618.75 713.83,-1618.75 716.92,-1618.75 720,-1621.83 720,-1624.92 720,-1624.92 720,-1631.08 720,-1631.08 720,-1634.17 716.92,-1637.25 713.83,-1637.25"/>
<text text-anchor="start" x="612.25" y="-1624.7" font-family="Helvetica,sans-Serif" font-size="9.00">OverlayDisplayFormat.js</text>
</a>
</g>
</g>
<!-- src/js/overlay/Overlay.js&#45;&gt;src/js/overlay/displayFormat/OverlayDisplayFormat.js -->
<g id="edge17" class="edge">
<title>src/js/overlay/Overlay.js&#45;&gt;src/js/overlay/displayFormat/OverlayDisplayFormat.js</title>
<path fill="none" stroke="#000000" stroke-width="2" stroke-opacity="0.200000" d="M528.37,-1602.26C548.53,-1606.17 576.81,-1611.65 602.09,-1616.55"/>
<polygon fill="#000000" fill-opacity="0.200000" stroke="#000000" stroke-width="2" stroke-opacity="0.200000" points="601.62,-1618.6 607.91,-1617.68 602.42,-1614.48 601.62,-1618.6"/>
</g>
<!-- src/js/overlay/overlay/OverlayOverlay.js -->
<g id="node52" class="node">
<title>src/js/overlay/overlay/OverlayOverlay.js</title>
<g id="a_node52"><a xlink:href="src/js/overlay/overlay/OverlayOverlay.js" xlink:title="OverlayOverlay.js">
<path fill="#ffffcc" stroke="black" d="M699.58,-1576.25C699.58,-1576.25 624.67,-1576.25 624.67,-1576.25 621.58,-1576.25 618.5,-1573.17 618.5,-1570.08 618.5,-1570.08 618.5,-1563.92 618.5,-1563.92 618.5,-1560.83 621.58,-1557.75 624.67,-1557.75 624.67,-1557.75 699.58,-1557.75 699.58,-1557.75 702.67,-1557.75 705.75,-1560.83 705.75,-1563.92 705.75,-1563.92 705.75,-1570.08 705.75,-1570.08 705.75,-1573.17 702.67,-1576.25 699.58,-1576.25"/>
<text text-anchor="start" x="626.5" y="-1563.7" font-family="Helvetica,sans-Serif" font-size="9.00">OverlayOverlay.js</text>
</a>
</g>
</g>
<!-- src/js/overlay/Overlay.js&#45;&gt;src/js/overlay/overlay/OverlayOverlay.js -->
<g id="edge18" class="edge">
<title>src/js/overlay/Overlay.js&#45;&gt;src/js/overlay/overlay/OverlayOverlay.js</title>
<path fill="none" stroke="#000000" stroke-width="2" stroke-opacity="0.200000" d="M528.37,-1591.91C550.56,-1587.75 582.57,-1581.74 609.6,-1576.67"/>
<polygon fill="#000000" fill-opacity="0.200000" stroke="#000000" stroke-width="2" stroke-opacity="0.200000" points="609.7,-1578.79 615.21,-1575.62 608.92,-1574.66 609.7,-1578.79"/>
</g>
<!-- src/js/view/render/RenderController.js -->
<g id="node54" class="node">
<title>src/js/view/render/RenderController.js</title>
<g id="a_node54"><a xlink:href="src/js/view/render/RenderController.js" xlink:title="RenderController.js">
<path fill="#ffffcc" stroke="black" d="M541.83,-1733.25C541.83,-1733.25 458.67,-1733.25 458.67,-1733.25 455.58,-1733.25 452.5,-1730.17 452.5,-1727.08 452.5,-1727.08 452.5,-1720.92 452.5,-1720.92 452.5,-1717.83 455.58,-1714.75 458.67,-1714.75 458.67,-1714.75 541.83,-1714.75 541.83,-1714.75 544.92,-1714.75 548,-1717.83 548,-1720.92 548,-1720.92 548,-1727.08 548,-1727.08 548,-1730.17 544.92,-1733.25 541.83,-1733.25"/>
<text text-anchor="start" x="460.5" y="-1720.7" font-family="Helvetica,sans-Serif" font-size="9.00">RenderController.js</text>
</a>
</g>
</g>
<!-- src/js/view/View.js&#45;&gt;src/js/view/render/RenderController.js -->
<g id="edge22" class="edge">
<title>src/js/view/View.js&#45;&gt;src/js/view/render/RenderController.js</title>
<path fill="none" stroke="#000000" stroke-width="2" stroke-opacity="0.200000" d="M371.17,-1720.68C390.84,-1721.19 418.52,-1721.91 443.12,-1722.54"/>
<polygon fill="#000000" fill-opacity="0.200000" stroke="#000000" stroke-width="2" stroke-opacity="0.200000" points="442.94,-1724.64 449,-1722.7 443.05,-1720.44 442.94,-1724.64"/>
</g>
<!-- src/js/data/Data.json -->
<g id="node6" class="node">
<title>src/js/data/Data.json</title>
<g id="a_node6"><a xlink:href="src/js/data/Data.json" xlink:title="Data.json">
<path fill="#ffee44" stroke="black" d="M188.96,-813.25C188.96,-813.25 146.29,-813.25 146.29,-813.25 143.21,-813.25 140.12,-810.17 140.12,-807.08 140.12,-807.08 140.12,-800.92 140.12,-800.92 140.12,-797.83 143.21,-794.75 146.29,-794.75 146.29,-794.75 188.96,-794.75 188.96,-794.75 192.04,-794.75 195.12,-797.83 195.12,-800.92 195.12,-800.92 195.12,-807.08 195.12,-807.08 195.12,-810.17 192.04,-813.25 188.96,-813.25"/>
<text text-anchor="start" x="148.12" y="-800.7" font-family="Helvetica,sans-Serif" font-size="9.00">Data.json</text>
</a>
</g>
</g>
<!-- src/js/data/DataController.js -->
<g id="node7" class="node">
<title>src/js/data/DataController.js</title>
<g id="a_node7"><a xlink:href="src/js/data/DataController.js" xlink:title="DataController.js">
<path fill="#ffffcc" stroke="black" d="M110.08,-813.25C110.08,-813.25 38.17,-813.25 38.17,-813.25 35.08,-813.25 32,-810.17 32,-807.08 32,-807.08 32,-800.92 32,-800.92 32,-797.83 35.08,-794.75 38.17,-794.75 38.17,-794.75 110.08,-794.75 110.08,-794.75 113.17,-794.75 116.25,-797.83 116.25,-800.92 116.25,-800.92 116.25,-807.08 116.25,-807.08 116.25,-810.17 113.17,-813.25 110.08,-813.25"/>
<text text-anchor="start" x="40" y="-800.7" font-family="Helvetica,sans-Serif" font-size="9.00">DataController.js</text>
</a>
</g>
</g>
<!-- src/js/data/DataController.js&#45;&gt;src/js/data/Data.json -->
<g id="edge5" class="edge">
<title>src/js/data/DataController.js&#45;&gt;src/js/data/Data.json</title>
<path fill="none" stroke="#000000" stroke-width="2" stroke-opacity="0.200000" d="M116.59,-804C121.37,-804 126.22,-804 130.92,-804"/>
<polygon fill="#000000" fill-opacity="0.200000" stroke="#000000" stroke-width="2" stroke-opacity="0.200000" points="130.69,-806.1 136.69,-804 130.69,-801.9 130.69,-806.1"/>
</g>
<!-- src/js/directable/Directable.js -->
<g id="node8" class="node">
<title>src/js/directable/Directable.js</title>
<g id="a_node8"><a xlink:href="src/js/directable/Directable.js" xlink:title="Directable.js">
<path fill="#ffffcc" stroke="black" d="M815.71,-1384.25C815.71,-1384.25 761.04,-1384.25 761.04,-1384.25 757.96,-1384.25 754.88,-1381.17 754.88,-1378.08 754.88,-1378.08 754.88,-1371.92 754.88,-1371.92 754.88,-1368.83 757.96,-1365.75 761.04,-1365.75 761.04,-1365.75 815.71,-1365.75 815.71,-1365.75 818.79,-1365.75 821.88,-1368.83 821.88,-1371.92 821.88,-1371.92 821.88,-1378.08 821.88,-1378.08 821.88,-1381.17 818.79,-1384.25 815.71,-1384.25"/>
<text text-anchor="start" x="762.88" y="-1371.7" font-family="Helvetica,sans-Serif" font-size="9.00">Directable.js</text>
</a>
</g>
</g>
<!-- src/js/directable/directables/dotmatrix/DirectableDotMatrix.js&#45;&gt;src/js/directable/Directable.js -->
<g id="edge6" class="edge">
<title>src/js/directable/directables/dotmatrix/DirectableDotMatrix.js&#45;&gt;src/js/directable/Directable.js</title>
<path fill="none" stroke="#000000" stroke-width="2" stroke-opacity="0.200000" d="M541.47,-1270.68C558.51,-1276.84 577,-1286.65 588.25,-1302 603.9,-1323.34 576.97,-1342.87 596.25,-1361 601.62,-1366.05 691.07,-1370.81 745.67,-1373.27"/>
<polygon fill="#000000" fill-opacity="0.200000" stroke="#000000" stroke-width="2" stroke-opacity="0.200000" points="745.33,-1375.36 751.42,-1373.52 745.52,-1371.16 745.33,-1375.36"/>
</g>
<!-- src/js/directable/directables/dotmatrix/view/ViewManager.js -->
<g id="node10" class="node">
<title>src/js/directable/directables/dotmatrix/view/ViewManager.js</title>
<g id="a_node10"><a xlink:href="src/js/directable/directables/dotmatrix/view/ViewManager.js" xlink:title="ViewManager.js">
<path fill="#ffffcc" stroke="black" d="M696.58,-1119.25C696.58,-1119.25 627.67,-1119.25 627.67,-1119.25 624.58,-1119.25 621.5,-1116.17 621.5,-1113.08 621.5,-1113.08 621.5,-1106.92 621.5,-1106.92 621.5,-1103.83 624.58,-1100.75 627.67,-1100.75 627.67,-1100.75 696.58,-1100.75 696.58,-1100.75 699.67,-1100.75 702.75,-1103.83 702.75,-1106.92 702.75,-1106.92 702.75,-1113.08 702.75,-1113.08 702.75,-1116.17 699.67,-1119.25 696.58,-1119.25"/>
<text text-anchor="start" x="629.5" y="-1106.7" font-family="Helvetica,sans-Serif" font-size="9.00">ViewManager.js</text>
</a>
</g>
</g>
<!-- src/js/directable/directables/dotmatrix/DirectableDotMatrix.js&#45;&gt;src/js/directable/directables/dotmatrix/view/ViewManager.js -->
<g id="edge7" class="edge">
<title>src/js/directable/directables/dotmatrix/DirectableDotMatrix.js&#45;&gt;src/js/directable/directables/dotmatrix/view/ViewManager.js</title>
<path fill="none" stroke="#000000" stroke-width="2" stroke-opacity="0.200000" d="M553.67,-1263.55C566.67,-1261.5 579.39,-1256.73 588.25,-1247 606.39,-1227.08 578.94,-1146.65 596.25,-1126 600.65,-1120.75 606.47,-1117.07 612.83,-1114.51"/>
<polygon fill="#000000" fill-opacity="0.200000" stroke="#000000" stroke-width="2" stroke-opacity="0.200000" points="613.15,-1116.62 618.22,-1112.78 611.86,-1112.62 613.15,-1116.62"/>
</g>
<!-- src/js/directable/directables/dotmatrix/dots/Dot.js -->
<g id="node11" class="node">
<title>src/js/directable/directables/dotmatrix/dots/Dot.js</title>
<g id="a_node11"><a xlink:href="src/js/directable/directables/dotmatrix/dots/Dot.js" xlink:title="Dot.js">
<path fill="#ccffcc" stroke="black" d="M521.08,-293.25C521.08,-293.25 479.42,-293.25 479.42,-293.25 476.33,-293.25 473.25,-290.17 473.25,-287.08 473.25,-287.08 473.25,-280.92 473.25,-280.92 473.25,-277.83 476.33,-274.75 479.42,-274.75 479.42,-274.75 521.08,-274.75 521.08,-274.75 524.17,-274.75 527.25,-277.83 527.25,-280.92 527.25,-280.92 527.25,-287.08 527.25,-287.08 527.25,-290.17 524.17,-293.25 521.08,-293.25"/>
<text text-anchor="start" x="488.62" y="-280.7" font-family="Helvetica,sans-Serif" font-size="9.00">Dot.js</text>
</a>
</g>
</g>
<!-- src/js/directable/directables/dotmatrix/dots/DotManager.js -->
<g id="node12" class="node">
<title>src/js/directable/directables/dotmatrix/dots/DotManager.js</title>
<g id="a_node12"><a xlink:href="src/js/directable/directables/dotmatrix/dots/DotManager.js" xlink:title="DotManager.js">
<path fill="#ccffcc" stroke="black" d="M531.71,-324.25C531.71,-324.25 468.79,-324.25 468.79,-324.25 465.71,-324.25 462.62,-321.17 462.62,-318.08 462.62,-318.08 462.62,-311.92 462.62,-311.92 462.62,-308.83 465.71,-305.75 468.79,-305.75 468.79,-305.75 531.71,-305.75 531.71,-305.75 534.79,-305.75 537.88,-308.83 537.88,-311.92 537.88,-311.92 537.88,-318.08 537.88,-318.08 537.88,-321.17 534.79,-324.25 531.71,-324.25"/>
<text text-anchor="start" x="470.62" y="-311.7" font-family="Helvetica,sans-Serif" font-size="9.00">DotManager.js</text>
</a>
</g>
</g>
<!-- src/js/directable/directables/dotmatrix/grid/GridData.js -->
<g id="node13" class="node">
<title>src/js/directable/directables/dotmatrix/grid/GridData.js</title>
<g id="a_node13"><a xlink:href="src/js/directable/directables/dotmatrix/grid/GridData.js" xlink:title="GridData.js">
<path fill="#ccffcc" stroke="black" d="M524.96,-385.25C524.96,-385.25 475.54,-385.25 475.54,-385.25 472.46,-385.25 469.38,-382.17 469.38,-379.08 469.38,-379.08 469.38,-372.92 469.38,-372.92 469.38,-369.83 472.46,-366.75 475.54,-366.75 475.54,-366.75 524.96,-366.75 524.96,-366.75 528.04,-366.75 531.12,-369.83 531.12,-372.92 531.12,-372.92 531.12,-379.08 531.12,-379.08 531.12,-382.17 528.04,-385.25 524.96,-385.25"/>
<text text-anchor="start" x="477.38" y="-372.7" font-family="Helvetica,sans-Serif" font-size="9.00">GridData.js</text>
</a>
</g>
</g>
<!-- src/js/directable/directables/dotmatrix/grid/GridRenderer.js -->
<g id="node14" class="node">
<title>src/js/directable/directables/dotmatrix/grid/GridRenderer.js</title>
<g id="a_node14"><a xlink:href="src/js/directable/directables/dotmatrix/grid/GridRenderer.js" xlink:title="GridRenderer.js">
<path fill="#ccffcc" stroke="black" d="M534.33,-416.25C534.33,-416.25 466.17,-416.25 466.17,-416.25 463.08,-416.25 460,-413.17 460,-410.08 460,-410.08 460,-403.92 460,-403.92 460,-400.83 463.08,-397.75 466.17,-397.75 466.17,-397.75 534.33,-397.75 534.33,-397.75 537.42,-397.75 540.5,-400.83 540.5,-403.92 540.5,-403.92 540.5,-410.08 540.5,-410.08 540.5,-413.17 537.42,-416.25 534.33,-416.25"/>
<text text-anchor="start" x="468" y="-403.7" font-family="Helvetica,sans-Serif" font-size="9.00">GridRenderer.js</text>
</a>
</g>
</g>
<!-- src/js/directable/directables/dotmatrix/grid/GridRendererComponent.js -->
<g id="node15" class="node">
<title>src/js/directable/directables/dotmatrix/grid/GridRendererComponent.js</title>
<g id="a_node15"><a xlink:href="src/js/directable/directables/dotmatrix/grid/GridRendererComponent.js" xlink:title="GridRendererComponent.js">
<path fill="#ccffcc" stroke="black" d="M558.71,-447.25C558.71,-447.25 441.79,-447.25 441.79,-447.25 438.71,-447.25 435.62,-444.17 435.62,-441.08 435.62,-441.08 435.62,-434.92 435.62,-434.92 435.62,-431.83 438.71,-428.75 441.79,-428.75 441.79,-428.75 558.71,-428.75 558.71,-428.75 561.79,-428.75 564.88,-431.83 564.88,-434.92 564.88,-434.92 564.88,-441.08 564.88,-441.08 564.88,-444.17 561.79,-447.25 558.71,-447.25"/>
<text text-anchor="start" x="443.62" y="-434.7" font-family="Helvetica,sans-Serif" font-size="9.00">GridRendererComponent.js</text>
</a>
</g>
</g>
<!-- src/js/directable/directables/dotmatrix/shapes/Shape.js -->
<g id="node16" class="node">
<title>src/js/directable/directables/dotmatrix/shapes/Shape.js</title>
<g id="a_node16"><a xlink:href="src/js/directable/directables/dotmatrix/shapes/Shape.js" xlink:title="Shape.js">
<path fill="#ccffcc" stroke="black" d="M521.08,-1186.25C521.08,-1186.25 479.42,-1186.25 479.42,-1186.25 476.33,-1186.25 473.25,-1183.17 473.25,-1180.08 473.25,-1180.08 473.25,-1173.92 473.25,-1173.92 473.25,-1170.83 476.33,-1167.75 479.42,-1167.75 479.42,-1167.75 521.08,-1167.75 521.08,-1167.75 524.17,-1167.75 527.25,-1170.83 527.25,-1173.92 527.25,-1173.92 527.25,-1180.08 527.25,-1180.08 527.25,-1183.17 524.17,-1186.25 521.08,-1186.25"/>
<text text-anchor="start" x="482.25" y="-1173.7" font-family="Helvetica,sans-Serif" font-size="9.00">Shape.js</text>
</a>
</g>
</g>
<!-- src/js/directable/directables/dotmatrix/shapes/ShapeManager.js -->
<g id="node17" class="node">
<title>src/js/directable/directables/dotmatrix/shapes/ShapeManager.js</title>
<g id="a_node17"><a xlink:href="src/js/directable/directables/dotmatrix/shapes/ShapeManager.js" xlink:title="ShapeManager.js">
<path fill="#ccffcc" stroke="black" d="M538.08,-1217.25C538.08,-1217.25 462.42,-1217.25 462.42,-1217.25 459.33,-1217.25 456.25,-1214.17 456.25,-1211.08 456.25,-1211.08 456.25,-1204.92 456.25,-1204.92 456.25,-1201.83 459.33,-1198.75 462.42,-1198.75 462.42,-1198.75 538.08,-1198.75 538.08,-1198.75 541.17,-1198.75 544.25,-1201.83 544.25,-1204.92 544.25,-1204.92 544.25,-1211.08 544.25,-1211.08 544.25,-1214.17 541.17,-1217.25 538.08,-1217.25"/>
<text text-anchor="start" x="464.25" y="-1204.7" font-family="Helvetica,sans-Serif" font-size="9.00">ShapeManager.js</text>
</a>
</g>
</g>
<!-- src/js/directable/directables/dotmatrix/shapes/fill/Fill.js -->
<g id="node18" class="node">
<title>src/js/directable/directables/dotmatrix/shapes/fill/Fill.js</title>
<g id="a_node18"><a xlink:href="src/js/directable/directables/dotmatrix/shapes/fill/Fill.js" xlink:title="Fill.js">
<path fill="#ccffcc" stroke="black" d="M521.08,-516.25C521.08,-516.25 479.42,-516.25 479.42,-516.25 476.33,-516.25 473.25,-513.17 473.25,-510.08 473.25,-510.08 473.25,-503.92 473.25,-503.92 473.25,-500.83 476.33,-497.75 479.42,-497.75 479.42,-497.75 521.08,-497.75 521.08,-497.75 524.17,-497.75 527.25,-500.83 527.25,-503.92 527.25,-503.92 527.25,-510.08 527.25,-510.08 527.25,-513.17 524.17,-516.25 521.08,-516.25"/>
<text text-anchor="start" x="489.75" y="-503.7" font-family="Helvetica,sans-Serif" font-size="9.00">Fill.js</text>
</a>
</g>
</g>
<!-- src/js/directable/directables/dotmatrix/shapes/fill/FillStrategy.js -->
<g id="node19" class="node">
<title>src/js/directable/directables/dotmatrix/shapes/fill/FillStrategy.js</title>
<g id="a_node19"><a xlink:href="src/js/directable/directables/dotmatrix/shapes/fill/FillStrategy.js" xlink:title="FillStrategy.js">
<path fill="#ccffcc" stroke="black" d="M529.08,-547.25C529.08,-547.25 471.42,-547.25 471.42,-547.25 468.33,-547.25 465.25,-544.17 465.25,-541.08 465.25,-541.08 465.25,-534.92 465.25,-534.92 465.25,-531.83 468.33,-528.75 471.42,-528.75 471.42,-528.75 529.08,-528.75 529.08,-528.75 532.17,-528.75 535.25,-531.83 535.25,-534.92 535.25,-534.92 535.25,-541.08 535.25,-541.08 535.25,-544.17 532.17,-547.25 529.08,-547.25"/>
<text text-anchor="start" x="473.25" y="-534.7" font-family="Helvetica,sans-Serif" font-size="9.00">FillStrategy.js</text>
</a>
</g>
</g>
<!-- src/js/directable/directables/dotmatrix/shapes/fill/FillStrategyType.js -->
<g id="node20" class="node">
<title>src/js/directable/directables/dotmatrix/shapes/fill/FillStrategyType.js</title>
<g id="a_node20"><a xlink:href="src/js/directable/directables/dotmatrix/shapes/fill/FillStrategyType.js" xlink:title="FillStrategyType.js">
<path fill="#ccffcc" stroke="black" d="M539.58,-578.25C539.58,-578.25 460.92,-578.25 460.92,-578.25 457.83,-578.25 454.75,-575.17 454.75,-572.08 454.75,-572.08 454.75,-565.92 454.75,-565.92 454.75,-562.83 457.83,-559.75 460.92,-559.75 460.92,-559.75 539.58,-559.75 539.58,-559.75 542.67,-559.75 545.75,-562.83 545.75,-565.92 545.75,-565.92 545.75,-572.08 545.75,-572.08 545.75,-575.17 542.67,-578.25 539.58,-578.25"/>
<text text-anchor="start" x="462.75" y="-565.7" font-family="Helvetica,sans-Serif" font-size="9.00">FillStrategyType.js</text>
</a>
</g>
</g>
<!-- src/js/directable/directables/dotmatrix/shapes/fill/FillType.js -->
<g id="node21" class="node">
<title>src/js/directable/directables/dotmatrix/shapes/fill/FillType.js</title>
<g id="a_node21"><a xlink:href="src/js/directable/directables/dotmatrix/shapes/fill/FillType.js" xlink:title="FillType.js">
<path fill="#ccffcc" stroke="black" d="M522.71,-609.25C522.71,-609.25 477.79,-609.25 477.79,-609.25 474.71,-609.25 471.62,-606.17 471.62,-603.08 471.62,-603.08 471.62,-596.92 471.62,-596.92 471.62,-593.83 474.71,-590.75 477.79,-590.75 477.79,-590.75 522.71,-590.75 522.71,-590.75 525.79,-590.75 528.88,-593.83 528.88,-596.92 528.88,-596.92 528.88,-603.08 528.88,-603.08 528.88,-606.17 525.79,-609.25 522.71,-609.25"/>
<text text-anchor="start" x="479.62" y="-596.7" font-family="Helvetica,sans-Serif" font-size="9.00">FillType.js</text>
</a>
</g>
</g>
<!-- src/js/directable/directables/dotmatrix/shapes/glyph/ShapeGlyph_A.js -->
<g id="node22" class="node">
<title>src/js/directable/directables/dotmatrix/shapes/glyph/ShapeGlyph_A.js</title>
<g id="a_node22"><a xlink:href="src/js/directable/directables/dotmatrix/shapes/glyph/ShapeGlyph_A.js" xlink:title="ShapeGlyph_A.js">
<path fill="#ccffcc" stroke="black" d="M537.71,-670.25C537.71,-670.25 462.79,-670.25 462.79,-670.25 459.71,-670.25 456.62,-667.17 456.62,-664.08 456.62,-664.08 456.62,-657.92 456.62,-657.92 456.62,-654.83 459.71,-651.75 462.79,-651.75 462.79,-651.75 537.71,-651.75 537.71,-651.75 540.79,-651.75 543.88,-654.83 543.88,-657.92 543.88,-657.92 543.88,-664.08 543.88,-664.08 543.88,-667.17 540.79,-670.25 537.71,-670.25"/>
<text text-anchor="start" x="464.62" y="-657.7" font-family="Helvetica,sans-Serif" font-size="9.00">ShapeGlyph_A.js</text>
</a>
</g>
</g>
<!-- src/js/directable/directables/dotmatrix/shapes/glyph/ShapeGlyph_B.js -->
<g id="node23" class="node">
<title>src/js/directable/directables/dotmatrix/shapes/glyph/ShapeGlyph_B.js</title>
<g id="a_node23"><a xlink:href="src/js/directable/directables/dotmatrix/shapes/glyph/ShapeGlyph_B.js" xlink:title="ShapeGlyph_B.js">
<path fill="#ccffcc" stroke="black" d="M537.71,-701.25C537.71,-701.25 462.79,-701.25 462.79,-701.25 459.71,-701.25 456.62,-698.17 456.62,-695.08 456.62,-695.08 456.62,-688.92 456.62,-688.92 456.62,-685.83 459.71,-682.75 462.79,-682.75 462.79,-682.75 537.71,-682.75 537.71,-682.75 540.79,-682.75 543.88,-685.83 543.88,-688.92 543.88,-688.92 543.88,-695.08 543.88,-695.08 543.88,-698.17 540.79,-701.25 537.71,-701.25"/>
<text text-anchor="start" x="464.62" y="-688.7" font-family="Helvetica,sans-Serif" font-size="9.00">ShapeGlyph_B.js</text>
</a>
</g>
</g>
<!-- src/js/directable/directables/dotmatrix/shapes/glyph/ShapeGlyph_C.js -->
<g id="node24" class="node">
<title>src/js/directable/directables/dotmatrix/shapes/glyph/ShapeGlyph_C.js</title>
<g id="a_node24"><a xlink:href="src/js/directable/directables/dotmatrix/shapes/glyph/ShapeGlyph_C.js" xlink:title="ShapeGlyph_C.js">
<path fill="#ccffcc" stroke="black" d="M538.08,-732.25C538.08,-732.25 462.42,-732.25 462.42,-732.25 459.33,-732.25 456.25,-729.17 456.25,-726.08 456.25,-726.08 456.25,-719.92 456.25,-719.92 456.25,-716.83 459.33,-713.75 462.42,-713.75 462.42,-713.75 538.08,-713.75 538.08,-713.75 541.17,-713.75 544.25,-716.83 544.25,-719.92 544.25,-719.92 544.25,-726.08 544.25,-726.08 544.25,-729.17 541.17,-732.25 538.08,-732.25"/>
<text text-anchor="start" x="464.25" y="-719.7" font-family="Helvetica,sans-Serif" font-size="9.00">ShapeGlyph_C.js</text>
</a>
</g>
</g>
<!-- src/js/directable/directables/dotmatrix/shapes/glyph/ShapeGlyph_D.js -->
<g id="node25" class="node">
<title>src/js/directable/directables/dotmatrix/shapes/glyph/ShapeGlyph_D.js</title>
<g id="a_node25"><a xlink:href="src/js/directable/directables/dotmatrix/shapes/glyph/ShapeGlyph_D.js" xlink:title="ShapeGlyph_D.js">
<path fill="#ccffcc" stroke="black" d="M538.08,-763.25C538.08,-763.25 462.42,-763.25 462.42,-763.25 459.33,-763.25 456.25,-760.17 456.25,-757.08 456.25,-757.08 456.25,-750.92 456.25,-750.92 456.25,-747.83 459.33,-744.75 462.42,-744.75 462.42,-744.75 538.08,-744.75 538.08,-744.75 541.17,-744.75 544.25,-747.83 544.25,-750.92 544.25,-750.92 544.25,-757.08 544.25,-757.08 544.25,-760.17 541.17,-763.25 538.08,-763.25"/>
<text text-anchor="start" x="464.25" y="-750.7" font-family="Helvetica,sans-Serif" font-size="9.00">ShapeGlyph_D.js</text>
</a>
</g>
</g>
<!-- src/js/directable/directables/dotmatrix/shapes/glyph/ShapeGlyph_E.js -->
<g id="node26" class="node">
<title>src/js/directable/directables/dotmatrix/shapes/glyph/ShapeGlyph_E.js</title>
<g id="a_node26"><a xlink:href="src/js/directable/directables/dotmatrix/shapes/glyph/ShapeGlyph_E.js" xlink:title="ShapeGlyph_E.js">
<path fill="#ccffcc" stroke="black" d="M537.71,-794.25C537.71,-794.25 462.79,-794.25 462.79,-794.25 459.71,-794.25 456.62,-791.17 456.62,-788.08 456.62,-788.08 456.62,-781.92 456.62,-781.92 456.62,-778.83 459.71,-775.75 462.79,-775.75 462.79,-775.75 537.71,-775.75 537.71,-775.75 540.79,-775.75 543.88,-778.83 543.88,-781.92 543.88,-781.92 543.88,-788.08 543.88,-788.08 543.88,-791.17 540.79,-794.25 537.71,-794.25"/>
<text text-anchor="start" x="464.62" y="-781.7" font-family="Helvetica,sans-Serif" font-size="9.00">ShapeGlyph_E.js</text>
</a>
</g>
</g>
<!-- src/js/directable/directables/dotmatrix/shapes/glyph/ShapeGlyph_F.js -->
<g id="node27" class="node">
<title>src/js/directable/directables/dotmatrix/shapes/glyph/ShapeGlyph_F.js</title>
<g id="a_node27"><a xlink:href="src/js/directable/directables/dotmatrix/shapes/glyph/ShapeGlyph_F.js" xlink:title="ShapeGlyph_F.js">
<path fill="#ccffcc" stroke="black" d="M536.96,-825.25C536.96,-825.25 463.54,-825.25 463.54,-825.25 460.46,-825.25 457.38,-822.17 457.38,-819.08 457.38,-819.08 457.38,-812.92 457.38,-812.92 457.38,-809.83 460.46,-806.75 463.54,-806.75 463.54,-806.75 536.96,-806.75 536.96,-806.75 540.04,-806.75 543.12,-809.83 543.12,-812.92 543.12,-812.92 543.12,-819.08 543.12,-819.08 543.12,-822.17 540.04,-825.25 536.96,-825.25"/>
<text text-anchor="start" x="465.38" y="-812.7" font-family="Helvetica,sans-Serif" font-size="9.00">ShapeGlyph_F.js</text>
</a>
</g>
</g>
<!-- src/js/directable/directables/dotmatrix/shapes/glyph/ShapeGlyph_G.js -->
<g id="node28" class="node">
<title>src/js/directable/directables/dotmatrix/shapes/glyph/ShapeGlyph_G.js</title>
<g id="a_node28"><a xlink:href="src/js/directable/directables/dotmatrix/shapes/glyph/ShapeGlyph_G.js" xlink:title="ShapeGlyph_G.js">
<path fill="#ccffcc" stroke="black" d="M538.08,-856.25C538.08,-856.25 462.42,-856.25 462.42,-856.25 459.33,-856.25 456.25,-853.17 456.25,-850.08 456.25,-850.08 456.25,-843.92 456.25,-843.92 456.25,-840.83 459.33,-837.75 462.42,-837.75 462.42,-837.75 538.08,-837.75 538.08,-837.75 541.17,-837.75 544.25,-840.83 544.25,-843.92 544.25,-843.92 544.25,-850.08 544.25,-850.08 544.25,-853.17 541.17,-856.25 538.08,-856.25"/>
<text text-anchor="start" x="464.25" y="-843.7" font-family="Helvetica,sans-Serif" font-size="9.00">ShapeGlyph_G.js</text>
</a>
</g>
</g>
<!-- src/js/directable/directables/dotmatrix/shapes/glyph/ShapeGlyph_H.js -->
<g id="node29" class="node">
<title>src/js/directable/directables/dotmatrix/shapes/glyph/ShapeGlyph_H.js</title>
<g id="a_node29"><a xlink:href="src/js/directable/directables/dotmatrix/shapes/glyph/ShapeGlyph_H.js" xlink:title="ShapeGlyph_H.js">
<path fill="#ccffcc" stroke="black" d="M538.08,-887.25C538.08,-887.25 462.42,-887.25 462.42,-887.25 459.33,-887.25 456.25,-884.17 456.25,-881.08 456.25,-881.08 456.25,-874.92 456.25,-874.92 456.25,-871.83 459.33,-868.75 462.42,-868.75 462.42,-868.75 538.08,-868.75 538.08,-868.75 541.17,-868.75 544.25,-871.83 544.25,-874.92 544.25,-874.92 544.25,-881.08 544.25,-881.08 544.25,-884.17 541.17,-887.25 538.08,-887.25"/>
<text text-anchor="start" x="464.25" y="-874.7" font-family="Helvetica,sans-Serif" font-size="9.00">ShapeGlyph_H.js</text>
</a>
</g>
</g>
<!-- src/js/directable/directables/dotmatrix/shapes/glyph/ShapeGlyph_I.js -->
<g id="node30" class="node">
<title>src/js/directable/directables/dotmatrix/shapes/glyph/ShapeGlyph_I.js</title>
<g id="a_node30"><a xlink:href="src/js/directable/directables/dotmatrix/shapes/glyph/ShapeGlyph_I.js" xlink:title="ShapeGlyph_I.js">
<path fill="#ccffcc" stroke="black" d="M535.83,-918.25C535.83,-918.25 464.67,-918.25 464.67,-918.25 461.58,-918.25 458.5,-915.17 458.5,-912.08 458.5,-912.08 458.5,-905.92 458.5,-905.92 458.5,-902.83 461.58,-899.75 464.67,-899.75 464.67,-899.75 535.83,-899.75 535.83,-899.75 538.92,-899.75 542,-902.83 542,-905.92 542,-905.92 542,-912.08 542,-912.08 542,-915.17 538.92,-918.25 535.83,-918.25"/>
<text text-anchor="start" x="466.5" y="-905.7" font-family="Helvetica,sans-Serif" font-size="9.00">ShapeGlyph_I.js</text>
</a>
</g>
</g>
<!-- src/js/directable/directables/dotmatrix/shapes/glyph/ShapeGlyph_J.js -->
<g id="node31" class="node">
<title>src/js/directable/directables/dotmatrix/shapes/glyph/ShapeGlyph_J.js</title>
<g id="a_node31"><a xlink:href="src/js/directable/directables/dotmatrix/shapes/glyph/ShapeGlyph_J.js" xlink:title="ShapeGlyph_J.js">
<path fill="#ccffcc" stroke="black" d="M536.96,-949.25C536.96,-949.25 463.54,-949.25 463.54,-949.25 460.46,-949.25 457.38,-946.17 457.38,-943.08 457.38,-943.08 457.38,-936.92 457.38,-936.92 457.38,-933.83 460.46,-930.75 463.54,-930.75 463.54,-930.75 536.96,-930.75 536.96,-930.75 540.04,-930.75 543.12,-933.83 543.12,-936.92 543.12,-936.92 543.12,-943.08 543.12,-943.08 543.12,-946.17 540.04,-949.25 536.96,-949.25"/>
<text text-anchor="start" x="465.38" y="-936.7" font-family="Helvetica,sans-Serif" font-size="9.00">ShapeGlyph_J.js</text>
</a>
</g>
</g>
<!-- src/js/directable/directables/dotmatrix/shapes/glyph/ShapeGlyph_K.js -->
<g id="node32" class="node">
<title>src/js/directable/directables/dotmatrix/shapes/glyph/ShapeGlyph_K.js</title>
<g id="a_node32"><a xlink:href="src/js/directable/directables/dotmatrix/shapes/glyph/ShapeGlyph_K.js" xlink:title="ShapeGlyph_K.js">
<path fill="#ccffcc" stroke="black" d="M537.71,-980.25C537.71,-980.25 462.79,-980.25 462.79,-980.25 459.71,-980.25 456.62,-977.17 456.62,-974.08 456.62,-974.08 456.62,-967.92 456.62,-967.92 456.62,-964.83 459.71,-961.75 462.79,-961.75 462.79,-961.75 537.71,-961.75 537.71,-961.75 540.79,-961.75 543.88,-964.83 543.88,-967.92 543.88,-967.92 543.88,-974.08 543.88,-974.08 543.88,-977.17 540.79,-980.25 537.71,-980.25"/>
<text text-anchor="start" x="464.62" y="-967.7" font-family="Helvetica,sans-Serif" font-size="9.00">ShapeGlyph_K.js</text>
</a>
</g>
</g>
<!-- src/js/directable/directables/dotmatrix/shapes/line/ShapeLineHorizontal.js -->
<g id="node33" class="node">
<title>src/js/directable/directables/dotmatrix/shapes/line/ShapeLineHorizontal.js</title>
<g id="a_node33"><a xlink:href="src/js/directable/directables/dotmatrix/shapes/line/ShapeLineHorizontal.js" xlink:title="ShapeLineHorizontal.js">
<path fill="#ccffcc" stroke="black" d="M550.08,-1041.25C550.08,-1041.25 450.42,-1041.25 450.42,-1041.25 447.33,-1041.25 444.25,-1038.17 444.25,-1035.08 444.25,-1035.08 444.25,-1028.92 444.25,-1028.92 444.25,-1025.83 447.33,-1022.75 450.42,-1022.75 450.42,-1022.75 550.08,-1022.75 550.08,-1022.75 553.17,-1022.75 556.25,-1025.83 556.25,-1028.92 556.25,-1028.92 556.25,-1035.08 556.25,-1035.08 556.25,-1038.17 553.17,-1041.25 550.08,-1041.25"/>
<text text-anchor="start" x="452.25" y="-1028.7" font-family="Helvetica,sans-Serif" font-size="9.00">ShapeLineHorizontal.js</text>
</a>
</g>
</g>
<!-- src/js/directable/directables/dotmatrix/shapes/line/ShapeLineVertical.js -->
<g id="node34" class="node">
<title>src/js/directable/directables/dotmatrix/shapes/line/ShapeLineVertical.js</title>
<g id="a_node34"><a xlink:href="src/js/directable/directables/dotmatrix/shapes/line/ShapeLineVertical.js" xlink:title="ShapeLineVertical.js">
<path fill="#ccffcc" stroke="black" d="M544.08,-1072.25C544.08,-1072.25 456.42,-1072.25 456.42,-1072.25 453.33,-1072.25 450.25,-1069.17 450.25,-1066.08 450.25,-1066.08 450.25,-1059.92 450.25,-1059.92 450.25,-1056.83 453.33,-1053.75 456.42,-1053.75 456.42,-1053.75 544.08,-1053.75 544.08,-1053.75 547.17,-1053.75 550.25,-1056.83 550.25,-1059.92 550.25,-1059.92 550.25,-1066.08 550.25,-1066.08 550.25,-1069.17 547.17,-1072.25 544.08,-1072.25"/>
<text text-anchor="start" x="458.25" y="-1059.7" font-family="Helvetica,sans-Serif" font-size="9.00">ShapeLineVertical.js</text>
</a>
</g>
</g>
<!-- src/js/directable/directables/dotmatrix/shapes/primative/ShapeRectangle.js -->
<g id="node35" class="node">
<title>src/js/directable/directables/dotmatrix/shapes/primative/ShapeRectangle.js</title>
<g id="a_node35"><a xlink:href="src/js/directable/directables/dotmatrix/shapes/primative/ShapeRectangle.js" xlink:title="ShapeRectangle.js">
<path fill="#ccffcc" stroke="black" d="M541.08,-1133.25C541.08,-1133.25 459.42,-1133.25 459.42,-1133.25 456.33,-1133.25 453.25,-1130.17 453.25,-1127.08 453.25,-1127.08 453.25,-1120.92 453.25,-1120.92 453.25,-1117.83 456.33,-1114.75 459.42,-1114.75 459.42,-1114.75 541.08,-1114.75 541.08,-1114.75 544.17,-1114.75 547.25,-1117.83 547.25,-1120.92 547.25,-1120.92 547.25,-1127.08 547.25,-1127.08 547.25,-1130.17 544.17,-1133.25 541.08,-1133.25"/>
<text text-anchor="start" x="461.25" y="-1120.7" font-family="Helvetica,sans-Serif" font-size="9.00">ShapeRectangle.js</text>
</a>
</g>
</g>
<!-- src/js/directable/directables/dotmatrix/view/View.js -->
<g id="node36" class="node">
<title>src/js/directable/directables/dotmatrix/view/View.js</title>
<g id="a_node36"><a xlink:href="src/js/directable/directables/dotmatrix/view/View.js" xlink:title="View.js">
<path fill="#ccffcc" stroke="black" d="M682.96,-1150.25C682.96,-1150.25 641.29,-1150.25 641.29,-1150.25 638.21,-1150.25 635.12,-1147.17 635.12,-1144.08 635.12,-1144.08 635.12,-1137.92 635.12,-1137.92 635.12,-1134.83 638.21,-1131.75 641.29,-1131.75 641.29,-1131.75 682.96,-1131.75 682.96,-1131.75 686.04,-1131.75 689.12,-1134.83 689.12,-1137.92 689.12,-1137.92 689.12,-1144.08 689.12,-1144.08 689.12,-1147.17 686.04,-1150.25 682.96,-1150.25"/>
<text text-anchor="start" x="647.88" y="-1137.7" font-family="Helvetica,sans-Serif" font-size="9.00">View.js</text>
</a>
</g>
</g>
<!-- src/js/directable/directables/dotmatrix/view/ViewFloor.js -->
<g id="node37" class="node">
<title>src/js/directable/directables/dotmatrix/view/ViewFloor.js</title>
<g id="a_node37"><a xlink:href="src/js/directable/directables/dotmatrix/view/ViewFloor.js" xlink:title="ViewFloor.js">
<path fill="#ccffcc" stroke="black" d="M688.71,-1181.25C688.71,-1181.25 635.54,-1181.25 635.54,-1181.25 632.46,-1181.25 629.38,-1178.17 629.38,-1175.08 629.38,-1175.08 629.38,-1168.92 629.38,-1168.92 629.38,-1165.83 632.46,-1162.75 635.54,-1162.75 635.54,-1162.75 688.71,-1162.75 688.71,-1162.75 691.79,-1162.75 694.88,-1165.83 694.88,-1168.92 694.88,-1168.92 694.88,-1175.08 694.88,-1175.08 694.88,-1178.17 691.79,-1181.25 688.71,-1181.25"/>
<text text-anchor="start" x="637.38" y="-1168.7" font-family="Helvetica,sans-Serif" font-size="9.00">ViewFloor.js</text>
</a>
</g>
</g>
<!-- src/js/directable/directables/dotmatrix/view/ViewTest.js -->
<g id="node38" class="node">
<title>src/js/directable/directables/dotmatrix/view/ViewTest.js</title>
<g id="a_node38"><a xlink:href="src/js/directable/directables/dotmatrix/view/ViewTest.js" xlink:title="ViewTest.js">
<path fill="#ccffcc" stroke="black" d="M686.83,-1212.25C686.83,-1212.25 637.42,-1212.25 637.42,-1212.25 634.33,-1212.25 631.25,-1209.17 631.25,-1206.08 631.25,-1206.08 631.25,-1199.92 631.25,-1199.92 631.25,-1196.83 634.33,-1193.75 637.42,-1193.75 637.42,-1193.75 686.83,-1193.75 686.83,-1193.75 689.92,-1193.75 693,-1196.83 693,-1199.92 693,-1199.92 693,-1206.08 693,-1206.08 693,-1209.17 689.92,-1212.25 686.83,-1212.25"/>
<text text-anchor="start" x="639.25" y="-1199.7" font-family="Helvetica,sans-Serif" font-size="9.00">ViewTest.js</text>
</a>
</g>
</g>
<!-- src/js/directable/directables/dotmatrix/view/ViewTextTest.js -->
<g id="node39" class="node">
<title>src/js/directable/directables/dotmatrix/view/ViewTextTest.js</title>
<g id="a_node39"><a xlink:href="src/js/directable/directables/dotmatrix/view/ViewTextTest.js" xlink:title="ViewTextTest.js">
<path fill="#ccffcc" stroke="black" d="M695.08,-1243.25C695.08,-1243.25 629.17,-1243.25 629.17,-1243.25 626.08,-1243.25 623,-1240.17 623,-1237.08 623,-1237.08 623,-1230.92 623,-1230.92 623,-1227.83 626.08,-1224.75 629.17,-1224.75 629.17,-1224.75 695.08,-1224.75 695.08,-1224.75 698.17,-1224.75 701.25,-1227.83 701.25,-1230.92 701.25,-1230.92 701.25,-1237.08 701.25,-1237.08 701.25,-1240.17 698.17,-1243.25 695.08,-1243.25"/>
<text text-anchor="start" x="631" y="-1230.7" font-family="Helvetica,sans-Serif" font-size="9.00">ViewTextTest.js</text>
</a>
</g>
</g>
<!-- src/js/directable/directables/frame/DirectableFrame.js -->
<g id="node40" class="node">
<title>src/js/directable/directables/frame/DirectableFrame.js</title>
<g id="a_node40"><a xlink:href="src/js/directable/directables/frame/DirectableFrame.js" xlink:title="DirectableFrame.js">
<path fill="#ffffcc" stroke="black" d="M540.71,-1392.25C540.71,-1392.25 459.79,-1392.25 459.79,-1392.25 456.71,-1392.25 453.62,-1389.17 453.62,-1386.08 453.62,-1386.08 453.62,-1379.92 453.62,-1379.92 453.62,-1376.83 456.71,-1373.75 459.79,-1373.75 459.79,-1373.75 540.71,-1373.75 540.71,-1373.75 543.79,-1373.75 546.88,-1376.83 546.88,-1379.92 546.88,-1379.92 546.88,-1386.08 546.88,-1386.08 546.88,-1389.17 543.79,-1392.25 540.71,-1392.25"/>
<text text-anchor="start" x="461.62" y="-1379.7" font-family="Helvetica,sans-Serif" font-size="9.00">DirectableFrame.js</text>
</a>
</g>
</g>
<!-- src/js/directable/directables/frame/DirectableFrame.js&#45;&gt;src/js/directable/Directable.js -->
<g id="edge8" class="edge">
<title>src/js/directable/directables/frame/DirectableFrame.js&#45;&gt;src/js/directable/Directable.js</title>
<path fill="none" stroke="#000000" stroke-width="2" stroke-opacity="0.200000" d="M547.22,-1381.71C602.03,-1380.18 692.82,-1377.64 745.67,-1376.17"/>
<polygon fill="#000000" fill-opacity="0.200000" stroke="#000000" stroke-width="2" stroke-opacity="0.200000" points="745.49,-1378.27 751.42,-1376.01 745.37,-1374.07 745.49,-1378.27"/>
</g>
<!-- src/js/directable/directables/rhythm/DirectableRhythm.js -->
<g id="node41" class="node">
<title>src/js/directable/directables/rhythm/DirectableRhythm.js</title>
<g id="a_node41"><a xlink:href="src/js/directable/directables/rhythm/DirectableRhythm.js" xlink:title="DirectableRhythm.js">
<path fill="#ffffcc" stroke="black" d="M705.21,-210.25C705.21,-210.25 619.04,-210.25 619.04,-210.25 615.96,-210.25 612.88,-207.17 612.88,-204.08 612.88,-204.08 612.88,-197.92 612.88,-197.92 612.88,-194.83 615.96,-191.75 619.04,-191.75 619.04,-191.75 705.21,-191.75 705.21,-191.75 708.29,-191.75 711.38,-194.83 711.38,-197.92 711.38,-197.92 711.38,-204.08 711.38,-204.08 711.38,-207.17 708.29,-210.25 705.21,-210.25"/>
<text text-anchor="start" x="620.88" y="-197.7" font-family="Helvetica,sans-Serif" font-size="9.00">DirectableRhythm.js</text>
</a>
</g>
</g>
<!-- src/js/directable/directables/rhythm/DirectableRhythm.js&#45;&gt;src/js/directable/Directable.js -->
<g id="edge9" class="edge">
<title>src/js/directable/directables/rhythm/DirectableRhythm.js&#45;&gt;src/js/directable/Directable.js</title>
<path fill="none" stroke="#000000" stroke-width="2" stroke-opacity="0.200000" d="M664.13,-210.45C674.97,-312.91 770.63,-1216.79 785.45,-1356.81"/>
<polygon fill="#000000" fill-opacity="0.200000" stroke="#000000" stroke-width="2" stroke-opacity="0.200000" points="783.34,-1356.8 786.06,-1362.54 787.51,-1356.35 783.34,-1356.8"/>
</g>
<!-- src/js/directable/directables/rhythm/asdr/ASDRData.js -->
<g id="node42" class="node">
<title>src/js/directable/directables/rhythm/asdr/ASDRData.js</title>
<g id="a_node42"><a xlink:href="src/js/directable/directables/rhythm/asdr/ASDRData.js" xlink:title="ASDRData.js">
<path fill="#ccffcc" stroke="black" d="M529.08,-74.25C529.08,-74.25 471.42,-74.25 471.42,-74.25 468.33,-74.25 465.25,-71.17 465.25,-68.08 465.25,-68.08 465.25,-61.92 465.25,-61.92 465.25,-58.83 468.33,-55.75 471.42,-55.75 471.42,-55.75 529.08,-55.75 529.08,-55.75 532.17,-55.75 535.25,-58.83 535.25,-61.92 535.25,-61.92 535.25,-68.08 535.25,-68.08 535.25,-71.17 532.17,-74.25 529.08,-74.25"/>
<text text-anchor="start" x="473.25" y="-61.7" font-family="Helvetica,sans-Serif" font-size="9.00">ASDRData.js</text>
</a>
</g>
</g>
<!-- src/js/directable/directables/rhythm/asdr/ASDREnvelope.js -->
<g id="node43" class="node">
<title>src/js/directable/directables/rhythm/asdr/ASDREnvelope.js</title>
<g id="a_node43"><a xlink:href="src/js/directable/directables/rhythm/asdr/ASDREnvelope.js" xlink:title="ASDREnvelope.js">
<path fill="#ffffcc" stroke="black" d="M538.83,-105.25C538.83,-105.25 461.67,-105.25 461.67,-105.25 458.58,-105.25 455.5,-102.17 455.5,-99.08 455.5,-99.08 455.5,-92.92 455.5,-92.92 455.5,-89.83 458.58,-86.75 461.67,-86.75 461.67,-86.75 538.83,-86.75 538.83,-86.75 541.92,-86.75 545,-89.83 545,-92.92 545,-92.92 545,-99.08 545,-99.08 545,-102.17 541.92,-105.25 538.83,-105.25"/>
<text text-anchor="start" x="463.5" y="-92.7" font-family="Helvetica,sans-Serif" font-size="9.00">ASDREnvelope.js</text>
</a>
</g>
</g>
<!-- src/js/directable/directables/rhythm/asdr/DirectableRhythmASDRManager.js -->
<g id="node44" class="node">
<title>src/js/directable/directables/rhythm/asdr/DirectableRhythmASDRManager.js</title>
<g id="a_node44"><a xlink:href="src/js/directable/directables/rhythm/asdr/DirectableRhythmASDRManager.js" xlink:title="DirectableRhythmASDRManager.js">
<path fill="#ffffcc" stroke="black" d="M574.08,-136.25C574.08,-136.25 426.42,-136.25 426.42,-136.25 423.33,-136.25 420.25,-133.17 420.25,-130.08 420.25,-130.08 420.25,-123.92 420.25,-123.92 420.25,-120.83 423.33,-117.75 426.42,-117.75 426.42,-117.75 574.08,-117.75 574.08,-117.75 577.17,-117.75 580.25,-120.83 580.25,-123.92 580.25,-123.92 580.25,-130.08 580.25,-130.08 580.25,-133.17 577.17,-136.25 574.08,-136.25"/>
<text text-anchor="start" x="428.25" y="-123.7" font-family="Helvetica,sans-Serif" font-size="9.00">DirectableRhythmASDRManager.js</text>
</a>
</g>
</g>
<!-- src/js/directable/directables/rhythm/bpm/DirectableRhythmBPM.js&#45;&gt;src/js/directable/directables/rhythm/DirectableRhythm.js -->
<g id="edge10" class="edge">
<title>src/js/directable/directables/rhythm/bpm/DirectableRhythmBPM.js&#45;&gt;src/js/directable/directables/rhythm/DirectableRhythm.js</title>
<path fill="none" stroke="#000000" stroke-width="2" stroke-opacity="0.200000" d="M559.42,-192.73C573.84,-193.9 589.28,-195.16 603.66,-196.33"/>
<polygon fill="#000000" fill-opacity="0.200000" stroke="#000000" stroke-width="2" stroke-opacity="0.200000" points="603.3,-198.4 609.45,-196.8 603.64,-194.22 603.3,-198.4"/>
</g>
<!-- src/js/directable/directables/rhythm2/ViewRhythm.js -->
<g id="node46" class="node">
<title>src/js/directable/directables/rhythm2/ViewRhythm.js</title>
<g id="a_node46"><a xlink:href="src/js/directable/directables/rhythm2/ViewRhythm.js" xlink:title="ViewRhythm.js">
<path fill="#ffffcc" stroke="black" d="M532.46,-1331.25C532.46,-1331.25 468.04,-1331.25 468.04,-1331.25 464.96,-1331.25 461.88,-1328.17 461.88,-1325.08 461.88,-1325.08 461.88,-1318.92 461.88,-1318.92 461.88,-1315.83 464.96,-1312.75 468.04,-1312.75 468.04,-1312.75 532.46,-1312.75 532.46,-1312.75 535.54,-1312.75 538.62,-1315.83 538.62,-1318.92 538.62,-1318.92 538.62,-1325.08 538.62,-1325.08 538.62,-1328.17 535.54,-1331.25 532.46,-1331.25"/>
<text text-anchor="start" x="469.88" y="-1318.7" font-family="Helvetica,sans-Serif" font-size="9.00">ViewRhythm.js</text>
</a>
</g>
</g>
<!-- src/js/directable/directables/rhythm2/ViewRhythmTrack.js -->
<g id="node47" class="node">
<title>src/js/directable/directables/rhythm2/ViewRhythmTrack.js</title>
<g id="a_node47"><a xlink:href="src/js/directable/directables/rhythm2/ViewRhythmTrack.js" xlink:title="ViewRhythmTrack.js">
<path fill="#ffffcc" stroke="black" d="M705.58,-1331.25C705.58,-1331.25 618.67,-1331.25 618.67,-1331.25 615.58,-1331.25 612.5,-1328.17 612.5,-1325.08 612.5,-1325.08 612.5,-1318.92 612.5,-1318.92 612.5,-1315.83 615.58,-1312.75 618.67,-1312.75 618.67,-1312.75 705.58,-1312.75 705.58,-1312.75 708.67,-1312.75 711.75,-1315.83 711.75,-1318.92 711.75,-1318.92 711.75,-1325.08 711.75,-1325.08 711.75,-1328.17 708.67,-1331.25 705.58,-1331.25"/>
<text text-anchor="start" x="620.5" y="-1318.7" font-family="Helvetica,sans-Serif" font-size="9.00">ViewRhythmTrack.js</text>
</a>
</g>
</g>
<!-- src/js/directable/directables/rhythm2/ViewRhythm.js&#45;&gt;src/js/directable/directables/rhythm2/ViewRhythmTrack.js -->
<g id="edge11" class="edge">
<title>src/js/directable/directables/rhythm2/ViewRhythm.js&#45;&gt;src/js/directable/directables/rhythm2/ViewRhythmTrack.js</title>
<path fill="none" stroke="#000000" stroke-width="2" stroke-opacity="0.200000" d="M538.73,-1322C557.96,-1322 581.8,-1322 603.32,-1322"/>
<polygon fill="#000000" fill-opacity="0.200000" stroke="#000000" stroke-width="2" stroke-opacity="0.200000" points="603.03,-1324.1 609.03,-1322 603.03,-1319.9 603.03,-1324.1"/>
</g>
<!-- src/js/directable/directables/title/DirectableTitle.js&#45;&gt;src/js/directable/Directable.js -->
<g id="edge12" class="edge">
<title>src/js/directable/directables/title/DirectableTitle.js&#45;&gt;src/js/directable/Directable.js</title>
<path fill="none" stroke="#000000" stroke-width="2" stroke-opacity="0.200000" d="M541.64,-1434.26C595.77,-1421.21 691.37,-1398.15 746,-1384.98"/>
<polygon fill="#000000" fill-opacity="0.200000" stroke="#000000" stroke-width="2" stroke-opacity="0.200000" points="746.45,-1387.03 751.79,-1383.58 745.46,-1382.95 746.45,-1387.03"/>
</g>
<!-- src/js/enum/DisplayFormats.js -->
<g id="node49" class="node">
<title>src/js/enum/DisplayFormats.js</title>
<g id="a_node49"><a xlink:href="src/js/enum/DisplayFormats.js" xlink:title="DisplayFormats.js">
<path fill="#ffffcc" stroke="black" d="M826.58,-1729.25C826.58,-1729.25 750.17,-1729.25 750.17,-1729.25 747.08,-1729.25 744,-1726.17 744,-1723.08 744,-1723.08 744,-1716.92 744,-1716.92 744,-1713.83 747.08,-1710.75 750.17,-1710.75 750.17,-1710.75 826.58,-1710.75 826.58,-1710.75 829.67,-1710.75 832.75,-1713.83 832.75,-1716.92 832.75,-1716.92 832.75,-1723.08 832.75,-1723.08 832.75,-1726.17 829.67,-1729.25 826.58,-1729.25"/>
<text text-anchor="start" x="752" y="-1716.7" font-family="Helvetica,sans-Serif" font-size="9.00">DisplayFormats.js</text>
</a>
</g>
</g>
<!-- src/js/index.js -->
<g id="node50" class="node">
<title>src/js/index.js</title>
<g id="a_node50"><a xlink:href="src/js/index.js" xlink:title="index.js">
<path fill="#ffffcc" stroke="black" d="M94.96,-1606.25C94.96,-1606.25 53.29,-1606.25 53.29,-1606.25 50.21,-1606.25 47.12,-1603.17 47.12,-1600.08 47.12,-1600.08 47.12,-1593.92 47.12,-1593.92 47.12,-1590.83 50.21,-1587.75 53.29,-1587.75 53.29,-1587.75 94.96,-1587.75 94.96,-1587.75 98.04,-1587.75 101.12,-1590.83 101.12,-1593.92 101.12,-1593.92 101.12,-1600.08 101.12,-1600.08 101.12,-1603.17 98.04,-1606.25 94.96,-1606.25"/>
<text text-anchor="start" x="58.38" y="-1593.7" font-family="Helvetica,sans-Serif" font-size="9.00">index.js</text>
</a>
</g>
</g>
<!-- src/js/index.js&#45;&gt;src/js/application/Application.js -->
<g id="edge16" class="edge">
<title>src/js/index.js&#45;&gt;src/js/application/Application.js</title>
<path fill="none" stroke="#000000" stroke-width="2" stroke-opacity="0.200000" d="M101.59,-1597C108.42,-1597 115.95,-1597 123.39,-1597"/>
<polygon fill="#000000" fill-opacity="0.200000" stroke="#000000" stroke-width="2" stroke-opacity="0.200000" points="123.01,-1599.1 129.01,-1597 123.01,-1594.9 123.01,-1599.1"/>
</g>
<!-- src/js/overlay/displayFormat/OverlayDisplayFormat.js&#45;&gt;src/js/enum/DisplayFormats.js -->
<g id="edge19" class="edge">
<title>src/js/overlay/displayFormat/OverlayDisplayFormat.js&#45;&gt;src/js/enum/DisplayFormats.js</title>
<path fill="none" stroke="#000000" stroke-width="2" stroke-opacity="0.200000" d="M671.89,-1637.4C684.94,-1651.04 710.68,-1676.6 736,-1694 742.65,-1698.57 750.23,-1702.85 757.47,-1706.56"/>
<polygon fill="#000000" fill-opacity="0.200000" stroke="#000000" stroke-width="2" stroke-opacity="0.200000" points="756.12,-1708.24 762.43,-1709.01 757.98,-1704.47 756.12,-1708.24"/>
</g>
<!-- src/js/overlay/OverlayUtil.js -->
<g id="node53" class="node">
<title>src/js/overlay/OverlayUtil.js</title>
<g id="a_node53"><a xlink:href="src/js/overlay/OverlayUtil.js" xlink:title="OverlayUtil.js">
<path fill="#ffffcc" stroke="black" d="M817.21,-1606.25C817.21,-1606.25 759.54,-1606.25 759.54,-1606.25 756.46,-1606.25 753.38,-1603.17 753.38,-1600.08 753.38,-1600.08 753.38,-1593.92 753.38,-1593.92 753.38,-1590.83 756.46,-1587.75 759.54,-1587.75 759.54,-1587.75 817.21,-1587.75 817.21,-1587.75 820.29,-1587.75 823.38,-1590.83 823.38,-1593.92 823.38,-1593.92 823.38,-1600.08 823.38,-1600.08 823.38,-1603.17 820.29,-1606.25 817.21,-1606.25"/>
<text text-anchor="start" x="761.38" y="-1593.7" font-family="Helvetica,sans-Serif" font-size="9.00">OverlayUtil.js</text>
</a>
</g>
</g>
<!-- src/js/overlay/displayFormat/OverlayDisplayFormat.js&#45;&gt;src/js/overlay/OverlayUtil.js -->
<g id="edge20" class="edge">
<title>src/js/overlay/displayFormat/OverlayDisplayFormat.js&#45;&gt;src/js/overlay/OverlayUtil.js</title>
<path fill="none" stroke="#000000" stroke-width="2" stroke-opacity="0.200000" d="M702.1,-1618.28C715.65,-1614.89 730.92,-1611.08 744.76,-1607.63"/>
<polygon fill="#000000" fill-opacity="0.200000" stroke="#000000" stroke-width="2" stroke-opacity="0.200000" points="744.91,-1609.76 750.22,-1606.27 743.89,-1605.68 744.91,-1609.76"/>
</g>
<!-- src/js/overlay/overlay/OverlayOverlay.js&#45;&gt;src/js/overlay/OverlayUtil.js -->
<g id="edge21" class="edge">
<title>src/js/overlay/overlay/OverlayOverlay.js&#45;&gt;src/js/overlay/OverlayUtil.js</title>
<path fill="none" stroke="#000000" stroke-width="2" stroke-opacity="0.200000" d="M703.47,-1576.74C716.6,-1579.91 731.23,-1583.44 744.54,-1586.66"/>
<polygon fill="#000000" fill-opacity="0.200000" stroke="#000000" stroke-width="2" stroke-opacity="0.200000" points="743.8,-1588.64 750.13,-1588.01 744.79,-1584.56 743.8,-1588.64"/>
</g>
<!-- src/js/view/render/RenderResizer.js -->
<g id="node55" class="node">
<title>src/js/view/render/RenderResizer.js</title>
<g id="a_node55"><a xlink:href="src/js/view/render/RenderResizer.js" xlink:title="RenderResizer.js">
<path fill="#ffffcc" stroke="black" d="M699.21,-1733.25C699.21,-1733.25 625.04,-1733.25 625.04,-1733.25 621.96,-1733.25 618.88,-1730.17 618.88,-1727.08 618.88,-1727.08 618.88,-1720.92 618.88,-1720.92 618.88,-1717.83 621.96,-1714.75 625.04,-1714.75 625.04,-1714.75 699.21,-1714.75 699.21,-1714.75 702.29,-1714.75 705.38,-1717.83 705.38,-1720.92 705.38,-1720.92 705.38,-1727.08 705.38,-1727.08 705.38,-1730.17 702.29,-1733.25 699.21,-1733.25"/>
<text text-anchor="start" x="626.88" y="-1720.7" font-family="Helvetica,sans-Serif" font-size="9.00">RenderResizer.js</text>
</a>
</g>
</g>
<!-- src/js/view/render/RenderController.js&#45;&gt;src/js/view/render/RenderResizer.js -->
<g id="edge23" class="edge">
<title>src/js/view/render/RenderController.js&#45;&gt;src/js/view/render/RenderResizer.js</title>
<path fill="none" stroke="#000000" stroke-width="2" stroke-opacity="0.200000" d="M548.35,-1724C567.6,-1724 589.93,-1724 609.61,-1724"/>
<polygon fill="#000000" fill-opacity="0.200000" stroke="#000000" stroke-width="2" stroke-opacity="0.200000" points="609.42,-1726.1 615.42,-1724 609.42,-1721.9 609.42,-1726.1"/>
</g>
<!-- src/js/view/render/RenderSurface.js -->
<g id="node56" class="node">
<title>src/js/view/render/RenderSurface.js</title>
<g id="a_node56"><a xlink:href="src/js/view/render/RenderSurface.js" xlink:title="RenderSurface.js">
<path fill="#ffffcc" stroke="black" d="M699.58,-1764.25C699.58,-1764.25 624.67,-1764.25 624.67,-1764.25 621.58,-1764.25 618.5,-1761.17 618.5,-1758.08 618.5,-1758.08 618.5,-1751.92 618.5,-1751.92 618.5,-1748.83 621.58,-1745.75 624.67,-1745.75 624.67,-1745.75 699.58,-1745.75 699.58,-1745.75 702.67,-1745.75 705.75,-1748.83 705.75,-1751.92 705.75,-1751.92 705.75,-1758.08 705.75,-1758.08 705.75,-1761.17 702.67,-1764.25 699.58,-1764.25"/>
<text text-anchor="start" x="626.5" y="-1751.7" font-family="Helvetica,sans-Serif" font-size="9.00">RenderSurface.js</text>
</a>
</g>
</g>
<!-- src/js/view/render/RenderController.js&#45;&gt;src/js/view/render/RenderSurface.js -->
<g id="edge24" class="edge">
<title>src/js/view/render/RenderController.js&#45;&gt;src/js/view/render/RenderSurface.js</title>
<path fill="none" stroke="#000000" stroke-width="2" stroke-opacity="0.200000" d="M548.35,-1733.13C567.52,-1736.85 589.74,-1741.16 609.36,-1744.96"/>
<polygon fill="#000000" fill-opacity="0.200000" stroke="#000000" stroke-width="2" stroke-opacity="0.200000" points="608.91,-1747.02 615.2,-1746.1 609.71,-1742.89 608.91,-1747.02"/>
</g>
<!-- src/js/view/render/RenderResizer.js&#45;&gt;src/js/enum/DisplayFormats.js -->
<g id="edge25" class="edge">
<title>src/js/view/render/RenderResizer.js&#45;&gt;src/js/enum/DisplayFormats.js</title>
<path fill="none" stroke="#000000" stroke-width="2" stroke-opacity="0.200000" d="M705.54,-1722.63C715.01,-1722.33 725.17,-1722 734.99,-1721.69"/>
<polygon fill="#000000" fill-opacity="0.200000" stroke="#000000" stroke-width="2" stroke-opacity="0.200000" points="734.93,-1723.79 740.86,-1721.5 734.8,-1719.59 734.93,-1723.79"/>
</g>
</g>
</svg>
