<?xml version="1.0" encoding="UTF-8" standalone="no"?>
<!DOCTYPE svg PUBLIC "-//W3C//DTD SVG 1.1//EN"
 "http://www.w3.org/Graphics/SVG/1.1/DTD/svg11.dtd">
<!-- Generated by graphviz version 12.2.1 (20241206.2353)
 -->
<!-- Title: dependency&#45;cruiser output Pages: 1 -->
<svg width="927pt" height="1003pt"
 viewBox="0.00 0.00 927.38 1003.46" xmlns="http://www.w3.org/2000/svg" xmlns:xlink="http://www.w3.org/1999/xlink">
<g id="graph0" class="graph" transform="scale(1 1) rotate(0) translate(4 999.46)">
<title>dependency&#45;cruiser output</title>
<polygon fill="white" stroke="none" points="-4,4 -4,-999.46 923.38,-999.46 923.38,4 -4,4"/>
<g id="clust1" class="cluster">
<title>cluster_src</title>
<path fill="#ffffff" stroke="black" stroke-width="2" d="M20,-64.46C20,-64.46 899.38,-64.46 899.38,-64.46 905.38,-64.46 911.38,-70.46 911.38,-76.46 911.38,-76.46 911.38,-975.46 911.38,-975.46 911.38,-981.46 905.38,-987.46 899.38,-987.46 899.38,-987.46 20,-987.46 20,-987.46 14,-987.46 8,-981.46 8,-975.46 8,-975.46 8,-76.46 8,-76.46 8,-70.46 14,-64.46 20,-64.46"/>
<text text-anchor="middle" x="459.69" y="-974.91" font-family="Helvetica,sans-Serif" font-weight="bold" font-size="9.00">src</text>
</g>
<g id="clust2" class="cluster">
<title>cluster_src/js</title>
<path fill="#ffffff" stroke="black" stroke-width="2" d="M28,-72.46C28,-72.46 891.38,-72.46 891.38,-72.46 897.38,-72.46 903.38,-78.46 903.38,-84.46 903.38,-84.46 903.38,-948.46 903.38,-948.46 903.38,-954.46 897.38,-960.46 891.38,-960.46 891.38,-960.46 28,-960.46 28,-960.46 22,-960.46 16,-954.46 16,-948.46 16,-948.46 16,-84.46 16,-84.46 16,-78.46 22,-72.46 28,-72.46"/>
<text text-anchor="middle" x="459.69" y="-947.91" font-family="Helvetica,sans-Serif" font-weight="bold" font-size="9.00">js</text>
</g>
<g id="clust3" class="cluster">
<title>cluster_src/js/application</title>
<path fill="#ffffff" stroke="black" stroke-width="2" d="M634.75,-192.46C634.75,-192.46 883.38,-192.46 883.38,-192.46 889.38,-192.46 895.38,-198.46 895.38,-204.46 895.38,-204.46 895.38,-295.46 895.38,-295.46 895.38,-301.46 889.38,-307.46 883.38,-307.46 883.38,-307.46 634.75,-307.46 634.75,-307.46 628.75,-307.46 622.75,-301.46 622.75,-295.46 622.75,-295.46 622.75,-204.46 622.75,-204.46 622.75,-198.46 628.75,-192.46 634.75,-192.46"/>
<text text-anchor="middle" x="759.06" y="-294.91" font-family="Helvetica,sans-Serif" font-weight="bold" font-size="9.00">application</text>
</g>
<g id="clust4" class="cluster">
<title>cluster_src/js/controller</title>
<path fill="#ffffff" stroke="black" stroke-width="2" d="M45.75,-237.46C45.75,-237.46 102.5,-237.46 102.5,-237.46 108.5,-237.46 114.5,-243.46 114.5,-249.46 114.5,-249.46 114.5,-278.46 114.5,-278.46 114.5,-284.46 108.5,-290.46 102.5,-290.46 102.5,-290.46 45.75,-290.46 45.75,-290.46 39.75,-290.46 33.75,-284.46 33.75,-278.46 33.75,-278.46 33.75,-249.46 33.75,-249.46 33.75,-243.46 39.75,-237.46 45.75,-237.46"/>
<text text-anchor="middle" x="74.12" y="-277.91" font-family="Helvetica,sans-Serif" font-weight="bold" font-size="9.00">controller</text>
</g>
<g id="clust5" class="cluster">
<title>cluster_src/js/data</title>
<path fill="#ffffff" stroke="black" stroke-width="2" d="M36,-626.46C36,-626.46 202.38,-626.46 202.38,-626.46 208.38,-626.46 214.38,-632.46 214.38,-638.46 214.38,-638.46 214.38,-667.46 214.38,-667.46 214.38,-673.46 208.38,-679.46 202.38,-679.46 202.38,-679.46 36,-679.46 36,-679.46 30,-679.46 24,-673.46 24,-667.46 24,-667.46 24,-638.46 24,-638.46 24,-632.46 30,-626.46 36,-626.46"/>
<text text-anchor="middle" x="119.19" y="-666.91" font-family="Helvetica,sans-Serif" font-weight="bold" font-size="9.00">data</text>
</g>
<g id="clust6" class="cluster">
<title>cluster_src/js/directable</title>
<path fill="#ffffff" stroke="black" stroke-width="2" d="M426.75,-530.46C426.75,-530.46 853.75,-530.46 853.75,-530.46 859.75,-530.46 865.75,-536.46 865.75,-542.46 865.75,-542.46 865.75,-921.46 865.75,-921.46 865.75,-927.46 859.75,-933.46 853.75,-933.46 853.75,-933.46 426.75,-933.46 426.75,-933.46 420.75,-933.46 414.75,-927.46 414.75,-921.46 414.75,-921.46 414.75,-542.46 414.75,-542.46 414.75,-536.46 420.75,-530.46 426.75,-530.46"/>
<text text-anchor="middle" x="640.25" y="-920.91" font-family="Helvetica,sans-Serif" font-weight="bold" font-size="9.00">directable</text>
</g>
<g id="clust7" class="cluster">
<title>cluster_src/js/directable/directables</title>
<path fill="#ffffff" stroke="black" stroke-width="2" d="M434.75,-538.46C434.75,-538.46 741.12,-538.46 741.12,-538.46 747.12,-538.46 753.12,-544.46 753.12,-550.46 753.12,-550.46 753.12,-894.46 753.12,-894.46 753.12,-900.46 747.12,-906.46 741.12,-906.46 741.12,-906.46 434.75,-906.46 434.75,-906.46 428.75,-906.46 422.75,-900.46 422.75,-894.46 422.75,-894.46 422.75,-550.46 422.75,-550.46 422.75,-544.46 428.75,-538.46 434.75,-538.46"/>
<text text-anchor="middle" x="587.94" y="-893.91" font-family="Helvetica,sans-Serif" font-weight="bold" font-size="9.00">directables</text>
</g>
<g id="clust8" class="cluster">
<title>cluster_src/js/directable/directables/frame</title>
<path fill="#ffffff" stroke="black" stroke-width="2" d="M484.12,-765.46C484.12,-765.46 569.38,-765.46 569.38,-765.46 575.38,-765.46 581.38,-771.46 581.38,-777.46 581.38,-777.46 581.38,-806.46 581.38,-806.46 581.38,-812.46 575.38,-818.46 569.38,-818.46 569.38,-818.46 484.12,-818.46 484.12,-818.46 478.12,-818.46 472.12,-812.46 472.12,-806.46 472.12,-806.46 472.12,-777.46 472.12,-777.46 472.12,-771.46 478.12,-765.46 484.12,-765.46"/>
<text text-anchor="middle" x="526.75" y="-805.91" font-family="Helvetica,sans-Serif" font-weight="bold" font-size="9.00">frame</text>
</g>
<g id="clust9" class="cluster">
<title>cluster_src/js/directable/directables/rhythm</title>
<path fill="#ffffff" stroke="black" stroke-width="2" d="M442.75,-546.46C442.75,-546.46 733.12,-546.46 733.12,-546.46 739.12,-546.46 745.12,-552.46 745.12,-558.46 745.12,-558.46 745.12,-745.46 745.12,-745.46 745.12,-751.46 739.12,-757.46 733.12,-757.46 733.12,-757.46 442.75,-757.46 442.75,-757.46 436.75,-757.46 430.75,-751.46 430.75,-745.46 430.75,-745.46 430.75,-558.46 430.75,-558.46 430.75,-552.46 436.75,-546.46 442.75,-546.46"/>
<text text-anchor="middle" x="587.94" y="-744.91" font-family="Helvetica,sans-Serif" font-weight="bold" font-size="9.00">rhythm</text>
</g>
<g id="clust10" class="cluster">
<title>cluster_src/js/directable/directables/rhythm/asdr</title>
<path fill="#ffffff" stroke="black" stroke-width="2" d="M450.75,-554.46C450.75,-554.46 602.75,-554.46 602.75,-554.46 608.75,-554.46 614.75,-560.46 614.75,-566.46 614.75,-566.46 614.75,-657.46 614.75,-657.46 614.75,-663.46 608.75,-669.46 602.75,-669.46 602.75,-669.46 450.75,-669.46 450.75,-669.46 444.75,-669.46 438.75,-663.46 438.75,-657.46 438.75,-657.46 438.75,-566.46 438.75,-566.46 438.75,-560.46 444.75,-554.46 450.75,-554.46"/>
<text text-anchor="middle" x="526.75" y="-656.91" font-family="Helvetica,sans-Serif" font-weight="bold" font-size="9.00">asdr</text>
</g>
<g id="clust11" class="cluster">
<title>cluster_src/js/directable/directables/rhythm/bpm</title>
<path fill="#ffffff" stroke="black" stroke-width="2" d="M471.75,-677.46C471.75,-677.46 581.75,-677.46 581.75,-677.46 587.75,-677.46 593.75,-683.46 593.75,-689.46 593.75,-689.46 593.75,-718.46 593.75,-718.46 593.75,-724.46 587.75,-730.46 581.75,-730.46 581.75,-730.46 471.75,-730.46 471.75,-730.46 465.75,-730.46 459.75,-724.46 459.75,-718.46 459.75,-718.46 459.75,-689.46 459.75,-689.46 459.75,-683.46 465.75,-677.46 471.75,-677.46"/>
<text text-anchor="middle" x="526.75" y="-717.91" font-family="Helvetica,sans-Serif" font-weight="bold" font-size="9.00">bpm</text>
</g>
<g id="clust12" class="cluster">
<title>cluster_src/js/directable/directables/title</title>
<path fill="#ffffff" stroke="black" stroke-width="2" d="M488.62,-826.46C488.62,-826.46 564.88,-826.46 564.88,-826.46 570.88,-826.46 576.88,-832.46 576.88,-838.46 576.88,-838.46 576.88,-867.46 576.88,-867.46 576.88,-873.46 570.88,-879.46 564.88,-879.46 564.88,-879.46 488.62,-879.46 488.62,-879.46 482.62,-879.46 476.62,-873.46 476.62,-867.46 476.62,-867.46 476.62,-838.46 476.62,-838.46 476.62,-832.46 482.62,-826.46 488.62,-826.46"/>
<text text-anchor="middle" x="526.75" y="-866.91" font-family="Helvetica,sans-Serif" font-weight="bold" font-size="9.00">title</text>
</g>
<g id="clust13" class="cluster">
<title>cluster_src/js/director</title>
<path fill="#ffffff" stroke="black" stroke-width="2" d="M256.5,-434.46C256.5,-434.46 551,-434.46 551,-434.46 557,-434.46 563,-440.46 563,-446.46 563,-446.46 563,-510.46 563,-510.46 563,-516.46 557,-522.46 551,-522.46 551,-522.46 256.5,-522.46 256.5,-522.46 250.5,-522.46 244.5,-516.46 244.5,-510.46 244.5,-510.46 244.5,-446.46 244.5,-446.46 244.5,-440.46 250.5,-434.46 256.5,-434.46"/>
<text text-anchor="middle" x="403.75" y="-509.91" font-family="Helvetica,sans-Serif" font-weight="bold" font-size="9.00">director</text>
</g>
<g id="clust14" class="cluster">
<title>cluster_src/js/director/directors</title>
<path fill="#ffffff" stroke="black" stroke-width="2" d="M264.5,-442.46C264.5,-442.46 394.75,-442.46 394.75,-442.46 400.75,-442.46 406.75,-448.46 406.75,-454.46 406.75,-454.46 406.75,-483.46 406.75,-483.46 406.75,-489.46 400.75,-495.46 394.75,-495.46 394.75,-495.46 264.5,-495.46 264.5,-495.46 258.5,-495.46 252.5,-489.46 252.5,-483.46 252.5,-483.46 252.5,-454.46 252.5,-454.46 252.5,-448.46 258.5,-442.46 264.5,-442.46"/>
<text text-anchor="middle" x="329.62" y="-482.91" font-family="Helvetica,sans-Serif" font-weight="bold" font-size="9.00">directors</text>
</g>
<g id="clust15" class="cluster">
<title>cluster_src/js/enum</title>
<path fill="#ffffff" stroke="black" stroke-width="2" d="M647.5,-315.46C647.5,-315.46 728.25,-315.46 728.25,-315.46 734.25,-315.46 740.25,-321.46 740.25,-327.46 740.25,-327.46 740.25,-356.46 740.25,-356.46 740.25,-362.46 734.25,-368.46 728.25,-368.46 728.25,-368.46 647.5,-368.46 647.5,-368.46 641.5,-368.46 635.5,-362.46 635.5,-356.46 635.5,-356.46 635.5,-327.46 635.5,-327.46 635.5,-321.46 641.5,-315.46 647.5,-315.46"/>
<text text-anchor="middle" x="687.88" y="-355.91" font-family="Helvetica,sans-Serif" font-weight="bold" font-size="9.00">enum</text>
</g>
<g id="clust16" class="cluster">
<title>cluster_src/js/overlay</title>
<path fill="#ffffff" stroke="black" stroke-width="2" d="M155,-96.46C155,-96.46 557.75,-96.46 557.75,-96.46 563.75,-96.46 569.75,-102.46 569.75,-108.46 569.75,-108.46 569.75,-233.46 569.75,-233.46 569.75,-239.46 563.75,-245.46 557.75,-245.46 557.75,-245.46 155,-245.46 155,-245.46 149,-245.46 143,-239.46 143,-233.46 143,-233.46 143,-108.46 143,-108.46 143,-102.46 149,-96.46 155,-96.46"/>
<text text-anchor="middle" x="356.38" y="-232.91" font-family="Helvetica,sans-Serif" font-weight="bold" font-size="9.00">overlay</text>
</g>
<g id="clust17" class="cluster">
<title>cluster_src/js/overlay/displayFormat</title>
<path fill="#ffffff" stroke="black" stroke-width="2" d="M275.75,-165.46C275.75,-165.46 383.5,-165.46 383.5,-165.46 389.5,-165.46 395.5,-171.46 395.5,-177.46 395.5,-177.46 395.5,-206.46 395.5,-206.46 395.5,-212.46 389.5,-218.46 383.5,-218.46 383.5,-218.46 275.75,-218.46 275.75,-218.46 269.75,-218.46 263.75,-212.46 263.75,-206.46 263.75,-206.46 263.75,-177.46 263.75,-177.46 263.75,-171.46 269.75,-165.46 275.75,-165.46"/>
<text text-anchor="middle" x="329.62" y="-205.91" font-family="Helvetica,sans-Serif" font-weight="bold" font-size="9.00">displayFormat</text>
</g>
<g id="clust18" class="cluster">
<title>cluster_src/js/overlay/overlay</title>
<path fill="#ffffff" stroke="black" stroke-width="2" d="M290,-104.46C290,-104.46 369.25,-104.46 369.25,-104.46 375.25,-104.46 381.25,-110.46 381.25,-116.46 381.25,-116.46 381.25,-145.46 381.25,-145.46 381.25,-151.46 375.25,-157.46 369.25,-157.46 369.25,-157.46 290,-157.46 290,-157.46 284,-157.46 278,-151.46 278,-145.46 278,-145.46 278,-116.46 278,-116.46 278,-110.46 284,-104.46 290,-104.46"/>
<text text-anchor="middle" x="329.62" y="-144.91" font-family="Helvetica,sans-Serif" font-weight="bold" font-size="9.00">overlay</text>
</g>
<g id="clust19" class="cluster">
<title>cluster_src/js/rhythm</title>
<path fill="#ffffff" stroke="black" stroke-width="2" d="M39.75,-783.46C39.75,-783.46 224.5,-783.46 224.5,-783.46 230.5,-783.46 236.5,-789.46 236.5,-795.46 236.5,-795.46 236.5,-824.46 236.5,-824.46 236.5,-830.46 230.5,-836.46 224.5,-836.46 224.5,-836.46 39.75,-836.46 39.75,-836.46 33.75,-836.46 27.75,-830.46 27.75,-824.46 27.75,-824.46 27.75,-795.46 27.75,-795.46 27.75,-789.46 33.75,-783.46 39.75,-783.46"/>
<text text-anchor="middle" x="132.12" y="-823.91" font-family="Helvetica,sans-Serif" font-weight="bold" font-size="9.00">rhythm</text>
</g>
<g id="clust20" class="cluster">
<title>cluster_src/js/view</title>
<path fill="#ffffff" stroke="black" stroke-width="2" d="M155.88,-307.46C155.88,-307.46 574.38,-307.46 574.38,-307.46 580.38,-307.46 586.38,-313.46 586.38,-319.46 586.38,-319.46 586.38,-414.46 586.38,-414.46 586.38,-420.46 580.38,-426.46 574.38,-426.46 574.38,-426.46 155.88,-426.46 155.88,-426.46 149.88,-426.46 143.88,-420.46 143.88,-414.46 143.88,-414.46 143.88,-319.46 143.88,-319.46 143.88,-313.46 149.88,-307.46 155.88,-307.46"/>
<text text-anchor="middle" x="365.12" y="-413.91" font-family="Helvetica,sans-Serif" font-weight="bold" font-size="9.00">view</text>
</g>
<g id="clust21" class="cluster">
<title>cluster_src/js/view/render</title>
<path fill="#ffffff" stroke="black" stroke-width="2" d="M285.88,-315.46C285.88,-315.46 566.38,-315.46 566.38,-315.46 572.38,-315.46 578.38,-321.46 578.38,-327.46 578.38,-327.46 578.38,-387.46 578.38,-387.46 578.38,-393.46 572.38,-399.46 566.38,-399.46 566.38,-399.46 285.88,-399.46 285.88,-399.46 279.88,-399.46 273.88,-393.46 273.88,-387.46 273.88,-387.46 273.88,-327.46 273.88,-327.46 273.88,-321.46 279.88,-315.46 285.88,-315.46"/>
<text text-anchor="middle" x="426.12" y="-386.91" font-family="Helvetica,sans-Serif" font-weight="bold" font-size="9.00">render</text>
</g>
<!-- src/js/application/Application.js -->
<g id="node1" class="node">
<title>src/js/application/Application.js</title>
<g id="a_node1"><a xlink:href="src/js/application/Application.js" xlink:title="Application.js">
<path fill="#ffffcc" stroke="black" d="M717.08,-272.71C717.08,-272.71 658.67,-272.71 658.67,-272.71 655.58,-272.71 652.5,-269.62 652.5,-266.54 652.5,-266.54 652.5,-260.37 652.5,-260.37 652.5,-257.29 655.58,-254.21 658.67,-254.21 658.67,-254.21 717.08,-254.21 717.08,-254.21 720.17,-254.21 723.25,-257.29 723.25,-260.37 723.25,-260.37 723.25,-266.54 723.25,-266.54 723.25,-269.62 720.17,-272.71 717.08,-272.71"/>
<text text-anchor="start" x="660.5" y="-260.16" font-family="Helvetica,sans-Serif" font-size="9.00">Application.js</text>
</a>
</g>
</g>
<!-- src/js/controller/Controller.js -->
<g id="node2" class="node">
<title>src/js/controller/Controller.js</title>
<g id="a_node2"><a xlink:href="src/js/controller/Controller.js" xlink:title="Controller.js">
<path fill="#ffffcc" stroke="black" d="M100.33,-263.71C100.33,-263.71 47.92,-263.71 47.92,-263.71 44.83,-263.71 41.75,-260.62 41.75,-257.54 41.75,-257.54 41.75,-251.37 41.75,-251.37 41.75,-248.29 44.83,-245.21 47.92,-245.21 47.92,-245.21 100.33,-245.21 100.33,-245.21 103.42,-245.21 106.5,-248.29 106.5,-251.37 106.5,-251.37 106.5,-257.54 106.5,-257.54 106.5,-260.62 103.42,-263.71 100.33,-263.71"/>
<text text-anchor="start" x="49.75" y="-251.16" font-family="Helvetica,sans-Serif" font-size="9.00">Controller.js</text>
</a>
</g>
</g>
<!-- src/js/application/Application.js&#45;&gt;src/js/controller/Controller.js -->
<g id="edge1" class="edge">
<title>src/js/application/Application.js&#45;&gt;src/js/controller/Controller.js</title>
<path fill="none" stroke="#000000" stroke-width="2" stroke-opacity="0.200000" d="M652.04,-261.2C640.21,-260.52 626.91,-259.85 614.75,-259.46 428.26,-253.42 205.33,-253.75 115.54,-254.19"/>
<polygon fill="#000000" fill-opacity="0.200000" stroke="#000000" stroke-width="2" stroke-opacity="0.200000" points="115.78,-252.09 109.79,-254.22 115.8,-256.29 115.78,-252.09"/>
</g>
<!-- src/js/application/ApplicationConfiguration.js -->
<g id="node3" class="node">
<title>src/js/application/ApplicationConfiguration.js</title>
<g id="a_node3"><a xlink:href="src/js/application/ApplicationConfiguration.js" xlink:title="ApplicationConfiguration.js">
<path fill="#ffffcc" stroke="black" d="M881.21,-249.71C881.21,-249.71 767.29,-249.71 767.29,-249.71 764.21,-249.71 761.12,-246.62 761.12,-243.54 761.12,-243.54 761.12,-237.37 761.12,-237.37 761.12,-234.29 764.21,-231.21 767.29,-231.21 767.29,-231.21 881.21,-231.21 881.21,-231.21 884.29,-231.21 887.38,-234.29 887.38,-237.37 887.38,-237.37 887.38,-243.54 887.38,-243.54 887.38,-246.62 884.29,-249.71 881.21,-249.71"/>
<text text-anchor="start" x="769.12" y="-237.16" font-family="Helvetica,sans-Serif" font-size="9.00">ApplicationConfiguration.js</text>
</a>
</g>
</g>
<!-- src/js/application/Application.js&#45;&gt;src/js/application/ApplicationConfiguration.js -->
<g id="edge2" class="edge">
<title>src/js/application/Application.js&#45;&gt;src/js/application/ApplicationConfiguration.js</title>
<path fill="none" stroke="#000000" stroke-width="2" stroke-opacity="0.200000" d="M723.48,-257.53C733.99,-255.73 745.91,-253.69 757.76,-251.67"/>
<polygon fill="#000000" fill-opacity="0.200000" stroke="#000000" stroke-width="2" stroke-opacity="0.200000" points="757.8,-253.79 763.36,-250.71 757.1,-249.65 757.8,-253.79"/>
</g>
<!-- src/js/application/ApplicationLogger.js -->
<g id="node4" class="node">
<title>src/js/application/ApplicationLogger.js</title>
<g id="a_node4"><a xlink:href="src/js/application/ApplicationLogger.js" xlink:title="ApplicationLogger.js">
<path fill="#ffffcc" stroke="black" d="M867.71,-280.71C867.71,-280.71 780.79,-280.71 780.79,-280.71 777.71,-280.71 774.62,-277.62 774.62,-274.54 774.62,-274.54 774.62,-268.37 774.62,-268.37 774.62,-265.29 777.71,-262.21 780.79,-262.21 780.79,-262.21 867.71,-262.21 867.71,-262.21 870.79,-262.21 873.88,-265.29 873.88,-268.37 873.88,-268.37 873.88,-274.54 873.88,-274.54 873.88,-277.62 870.79,-280.71 867.71,-280.71"/>
<text text-anchor="start" x="782.62" y="-268.16" font-family="Helvetica,sans-Serif" font-size="9.00">ApplicationLogger.js</text>
</a>
</g>
</g>
<!-- src/js/application/Application.js&#45;&gt;src/js/application/ApplicationLogger.js -->
<g id="edge3" class="edge">
<title>src/js/application/Application.js&#45;&gt;src/js/application/ApplicationLogger.js</title>
<path fill="none" stroke="#000000" stroke-width="2" stroke-opacity="0.200000" d="M723.48,-265.52C736.29,-266.28 751.2,-267.17 765.51,-268.02"/>
<polygon fill="#000000" fill-opacity="0.200000" stroke="#000000" stroke-width="2" stroke-opacity="0.200000" points="765.19,-270.1 771.31,-268.36 765.44,-265.91 765.19,-270.1"/>
</g>
<!-- src/js/overlay/Overlay.js -->
<g id="node7" class="node">
<title>src/js/overlay/Overlay.js</title>
<g id="a_node7"><a xlink:href="src/js/overlay/Overlay.js" xlink:title="Overlay.js">
<path fill="#ffffcc" stroke="black" d="M200.58,-161.71C200.58,-161.71 157.17,-161.71 157.17,-161.71 154.08,-161.71 151,-158.62 151,-155.54 151,-155.54 151,-149.37 151,-149.37 151,-146.29 154.08,-143.21 157.17,-143.21 157.17,-143.21 200.58,-143.21 200.58,-143.21 203.67,-143.21 206.75,-146.29 206.75,-149.37 206.75,-149.37 206.75,-155.54 206.75,-155.54 206.75,-158.62 203.67,-161.71 200.58,-161.71"/>
<text text-anchor="start" x="159" y="-149.16" font-family="Helvetica,sans-Serif" font-size="9.00">Overlay.js</text>
</a>
</g>
</g>
<!-- src/js/controller/Controller.js&#45;&gt;src/js/overlay/Overlay.js -->
<g id="edge5" class="edge">
<title>src/js/controller/Controller.js&#45;&gt;src/js/overlay/Overlay.js</title>
<path fill="none" stroke="#000000" stroke-width="2" stroke-opacity="0.200000" d="M84.61,-245.04C102.26,-227.52 140.32,-189.74 161.96,-168.25"/>
<polygon fill="#000000" fill-opacity="0.200000" stroke="#000000" stroke-width="2" stroke-opacity="0.200000" points="163.19,-169.99 165.97,-164.28 160.23,-167.01 163.19,-169.99"/>
</g>
<!-- src/js/view/View.js -->
<g id="node8" class="node">
<title>src/js/view/View.js</title>
<g id="a_node8"><a xlink:href="src/js/view/View.js" xlink:title="View.js">
<path fill="#ffffcc" stroke="black" d="M199.71,-337.71C199.71,-337.71 158.04,-337.71 158.04,-337.71 154.96,-337.71 151.88,-334.62 151.88,-331.54 151.88,-331.54 151.88,-325.37 151.88,-325.37 151.88,-322.29 154.96,-319.21 158.04,-319.21 158.04,-319.21 199.71,-319.21 199.71,-319.21 202.79,-319.21 205.88,-322.29 205.88,-325.37 205.88,-325.37 205.88,-331.54 205.88,-331.54 205.88,-334.62 202.79,-337.71 199.71,-337.71"/>
<text text-anchor="start" x="164.62" y="-325.16" font-family="Helvetica,sans-Serif" font-size="9.00">View.js</text>
</a>
</g>
</g>
<!-- src/js/controller/Controller.js&#45;&gt;src/js/view/View.js -->
<g id="edge6" class="edge">
<title>src/js/controller/Controller.js&#45;&gt;src/js/view/View.js</title>
<path fill="none" stroke="#000000" stroke-width="2" stroke-opacity="0.200000" d="M88.56,-264.13C106.02,-276.71 136.69,-298.8 157.15,-313.53"/>
<polygon fill="#000000" fill-opacity="0.200000" stroke="#000000" stroke-width="2" stroke-opacity="0.200000" points="155.89,-315.21 161.98,-317.01 158.34,-311.8 155.89,-315.21"/>
</g>
<!-- src/js/application/ApplicationDispatcher.js -->
<g id="node5" class="node">
<title>src/js/application/ApplicationDispatcher.js</title>
<g id="a_node5"><a xlink:href="src/js/application/ApplicationDispatcher.js" xlink:title="ApplicationDispatcher.js">
<path fill="#ffffcc" stroke="black" d="M738.83,-227.71C738.83,-227.71 636.92,-227.71 636.92,-227.71 633.83,-227.71 630.75,-224.62 630.75,-221.54 630.75,-221.54 630.75,-215.37 630.75,-215.37 630.75,-212.29 633.83,-209.21 636.92,-209.21 636.92,-209.21 738.83,-209.21 738.83,-209.21 741.92,-209.21 745,-212.29 745,-215.37 745,-215.37 745,-221.54 745,-221.54 745,-224.62 741.92,-227.71 738.83,-227.71"/>
<text text-anchor="start" x="638.75" y="-215.16" font-family="Helvetica,sans-Serif" font-size="9.00">ApplicationDispatcher.js</text>
</a>
</g>
</g>
<!-- src/js/application/ApplicationEvent.js -->
<g id="node6" class="node">
<title>src/js/application/ApplicationEvent.js</title>
<g id="a_node6"><a xlink:href="src/js/application/ApplicationEvent.js" xlink:title="ApplicationEvent.js">
<path fill="#ffffcc" stroke="black" d="M865.08,-218.71C865.08,-218.71 783.42,-218.71 783.42,-218.71 780.33,-218.71 777.25,-215.62 777.25,-212.54 777.25,-212.54 777.25,-206.37 777.25,-206.37 777.25,-203.29 780.33,-200.21 783.42,-200.21 783.42,-200.21 865.08,-200.21 865.08,-200.21 868.17,-200.21 871.25,-203.29 871.25,-206.37 871.25,-206.37 871.25,-212.54 871.25,-212.54 871.25,-215.62 868.17,-218.71 865.08,-218.71"/>
<text text-anchor="start" x="785.25" y="-206.16" font-family="Helvetica,sans-Serif" font-size="9.00">ApplicationEvent.js</text>
</a>
</g>
</g>
<!-- src/js/application/ApplicationDispatcher.js&#45;&gt;src/js/application/ApplicationEvent.js -->
<g id="edge4" class="edge">
<title>src/js/application/ApplicationDispatcher.js&#45;&gt;src/js/application/ApplicationEvent.js</title>
<path fill="none" stroke="#000000" stroke-width="2" stroke-opacity="0.200000" d="M745.47,-214.67C753,-214.16 760.71,-213.65 768.21,-213.14"/>
<polygon fill="#000000" fill-opacity="0.200000" stroke="#000000" stroke-width="2" stroke-opacity="0.200000" points="768.03,-215.26 773.87,-212.76 767.75,-211.07 768.03,-215.26"/>
</g>
<!-- src/js/overlay/Overlay.js&#45;&gt;src/js/application/ApplicationConfiguration.js -->
<g id="edge23" class="edge">
<title>src/js/overlay/Overlay.js&#45;&gt;src/js/application/ApplicationConfiguration.js</title>
<path fill="none" stroke="#000000" stroke-width="2" stroke-opacity="0.200000" d="M186.41,-142.71C196.75,-128.28 218.41,-101.83 244.5,-91.46 454.57,-7.97 588.55,63.52 753.12,-91.46 774.68,-111.75 742.29,-201.61 761.12,-224.46 761.25,-224.61 761.37,-224.76 761.5,-224.9"/>
<polygon fill="#000000" fill-opacity="0.200000" stroke="#000000" stroke-width="2" stroke-opacity="0.200000" points="759.81,-226.21 765.67,-228.68 762.63,-223.1 759.81,-226.21"/>
</g>
<!-- src/js/overlay/Overlay.js&#45;&gt;src/js/application/ApplicationLogger.js -->
<g id="edge25" class="edge">
<title>src/js/overlay/Overlay.js&#45;&gt;src/js/application/ApplicationLogger.js</title>
<path fill="none" stroke="#000000" stroke-width="2" stroke-opacity="0.200000" d="M187.9,-143.04C199.1,-130.72 220.74,-109.7 244.5,-101.46 312.62,-77.81 334.95,-94.78 406.75,-101.46 562.71,-115.96 647.8,-50.52 753.12,-166.46 766.48,-181.15 748.27,-240.32 761.12,-255.46 762.81,-257.45 764.72,-259.21 766.78,-260.76"/>
<polygon fill="#000000" fill-opacity="0.200000" stroke="#000000" stroke-width="2" stroke-opacity="0.200000" points="765.49,-262.44 771.72,-263.73 767.66,-258.84 765.49,-262.44"/>
</g>
<!-- src/js/overlay/Overlay.js&#45;&gt;src/js/application/ApplicationDispatcher.js -->
<g id="edge24" class="edge">
<title>src/js/overlay/Overlay.js&#45;&gt;src/js/application/ApplicationDispatcher.js</title>
<path fill="none" stroke="#000000" stroke-width="2" stroke-opacity="0.200000" d="M185.29,-162.13C194.84,-178.06 216.34,-209.25 244.5,-221.46 310.3,-249.98 515.51,-235.29 621.72,-225.26"/>
<polygon fill="#000000" fill-opacity="0.200000" stroke="#000000" stroke-width="2" stroke-opacity="0.200000" points="621.65,-227.37 627.42,-224.71 621.25,-223.19 621.65,-227.37"/>
</g>
<!-- src/js/overlay/displayFormat/OverlayDisplayFormat.js -->
<g id="node23" class="node">
<title>src/js/overlay/displayFormat/OverlayDisplayFormat.js</title>
<g id="a_node23"><a xlink:href="src/js/overlay/displayFormat/OverlayDisplayFormat.js" xlink:title="OverlayDisplayFormat.js">
<path fill="#ffffcc" stroke="black" d="M381.33,-191.71C381.33,-191.71 277.92,-191.71 277.92,-191.71 274.83,-191.71 271.75,-188.62 271.75,-185.54 271.75,-185.54 271.75,-179.37 271.75,-179.37 271.75,-176.29 274.83,-173.21 277.92,-173.21 277.92,-173.21 381.33,-173.21 381.33,-173.21 384.42,-173.21 387.5,-176.29 387.5,-179.37 387.5,-179.37 387.5,-185.54 387.5,-185.54 387.5,-188.62 384.42,-191.71 381.33,-191.71"/>
<text text-anchor="start" x="279.75" y="-179.16" font-family="Helvetica,sans-Serif" font-size="9.00">OverlayDisplayFormat.js</text>
</a>
</g>
</g>
<!-- src/js/overlay/Overlay.js&#45;&gt;src/js/overlay/displayFormat/OverlayDisplayFormat.js -->
<g id="edge26" class="edge">
<title>src/js/overlay/Overlay.js&#45;&gt;src/js/overlay/displayFormat/OverlayDisplayFormat.js</title>
<path fill="none" stroke="#000000" stroke-width="2" stroke-opacity="0.200000" d="M207.16,-157.96C225.22,-161.6 249.59,-166.52 271.75,-170.99"/>
<polygon fill="#000000" fill-opacity="0.200000" stroke="#000000" stroke-width="2" stroke-opacity="0.200000" points="271.18,-173.01 277.48,-172.14 272.01,-168.9 271.18,-173.01"/>
</g>
<!-- src/js/overlay/overlay/OverlayOverlay.js -->
<g id="node24" class="node">
<title>src/js/overlay/overlay/OverlayOverlay.js</title>
<g id="a_node24"><a xlink:href="src/js/overlay/overlay/OverlayOverlay.js" xlink:title="OverlayOverlay.js">
<path fill="#ffffcc" stroke="black" d="M367.08,-130.71C367.08,-130.71 292.17,-130.71 292.17,-130.71 289.08,-130.71 286,-127.62 286,-124.54 286,-124.54 286,-118.37 286,-118.37 286,-115.29 289.08,-112.21 292.17,-112.21 292.17,-112.21 367.08,-112.21 367.08,-112.21 370.17,-112.21 373.25,-115.29 373.25,-118.37 373.25,-118.37 373.25,-124.54 373.25,-124.54 373.25,-127.62 370.17,-130.71 367.08,-130.71"/>
<text text-anchor="start" x="294" y="-118.16" font-family="Helvetica,sans-Serif" font-size="9.00">OverlayOverlay.js</text>
</a>
</g>
</g>
<!-- src/js/overlay/Overlay.js&#45;&gt;src/js/overlay/overlay/OverlayOverlay.js -->
<g id="edge27" class="edge">
<title>src/js/overlay/Overlay.js&#45;&gt;src/js/overlay/overlay/OverlayOverlay.js</title>
<path fill="none" stroke="#000000" stroke-width="2" stroke-opacity="0.200000" d="M207.16,-146.77C226.64,-142.71 253.45,-137.12 276.93,-132.23"/>
<polygon fill="#000000" fill-opacity="0.200000" stroke="#000000" stroke-width="2" stroke-opacity="0.200000" points="277.34,-134.29 282.78,-131.01 276.48,-130.18 277.34,-134.29"/>
</g>
<!-- src/js/view/render/RenderController.js -->
<g id="node28" class="node">
<title>src/js/view/render/RenderController.js</title>
<g id="a_node28"><a xlink:href="src/js/view/render/RenderController.js" xlink:title="RenderController.js">
<path fill="#ffffcc" stroke="black" d="M371.21,-356.71C371.21,-356.71 288.04,-356.71 288.04,-356.71 284.96,-356.71 281.88,-353.62 281.88,-350.54 281.88,-350.54 281.88,-344.37 281.88,-344.37 281.88,-341.29 284.96,-338.21 288.04,-338.21 288.04,-338.21 371.21,-338.21 371.21,-338.21 374.29,-338.21 377.38,-341.29 377.38,-344.37 377.38,-344.37 377.38,-350.54 377.38,-350.54 377.38,-353.62 374.29,-356.71 371.21,-356.71"/>
<text text-anchor="start" x="289.88" y="-344.16" font-family="Helvetica,sans-Serif" font-size="9.00">RenderController.js</text>
</a>
</g>
</g>
<!-- src/js/view/View.js&#45;&gt;src/js/view/render/RenderController.js -->
<g id="edge34" class="edge">
<title>src/js/view/View.js&#45;&gt;src/js/view/render/RenderController.js</title>
<path fill="none" stroke="#000000" stroke-width="2" stroke-opacity="0.200000" d="M206.13,-331.81C224.53,-334.16 249.83,-337.39 272.66,-340.31"/>
<polygon fill="#000000" fill-opacity="0.200000" stroke="#000000" stroke-width="2" stroke-opacity="0.200000" points="272.38,-342.39 278.6,-341.07 272.91,-338.22 272.38,-342.39"/>
</g>
<!-- src/js/data/Data.json -->
<g id="node9" class="node">
<title>src/js/data/Data.json</title>
<g id="a_node9"><a xlink:href="src/js/data/Data.json" xlink:title="Data.json">
<path fill="#ffee44" stroke="black" d="M200.21,-652.71C200.21,-652.71 157.54,-652.71 157.54,-652.71 154.46,-652.71 151.38,-649.62 151.38,-646.54 151.38,-646.54 151.38,-640.37 151.38,-640.37 151.38,-637.29 154.46,-634.21 157.54,-634.21 157.54,-634.21 200.21,-634.21 200.21,-634.21 203.29,-634.21 206.38,-637.29 206.38,-640.37 206.38,-640.37 206.38,-646.54 206.38,-646.54 206.38,-649.62 203.29,-652.71 200.21,-652.71"/>
<text text-anchor="start" x="159.38" y="-640.16" font-family="Helvetica,sans-Serif" font-size="9.00">Data.json</text>
</a>
</g>
</g>
<!-- src/js/data/DataController.js -->
<g id="node10" class="node">
<title>src/js/data/DataController.js</title>
<g id="a_node10"><a xlink:href="src/js/data/DataController.js" xlink:title="DataController.js">
<path fill="#ffffcc" stroke="black" d="M110.08,-652.71C110.08,-652.71 38.17,-652.71 38.17,-652.71 35.08,-652.71 32,-649.62 32,-646.54 32,-646.54 32,-640.37 32,-640.37 32,-637.29 35.08,-634.21 38.17,-634.21 38.17,-634.21 110.08,-634.21 110.08,-634.21 113.17,-634.21 116.25,-637.29 116.25,-640.37 116.25,-640.37 116.25,-646.54 116.25,-646.54 116.25,-649.62 113.17,-652.71 110.08,-652.71"/>
<text text-anchor="start" x="40" y="-640.16" font-family="Helvetica,sans-Serif" font-size="9.00">DataController.js</text>
</a>
</g>
</g>
<!-- src/js/data/DataController.js&#45;&gt;src/js/data/Data.json -->
<g id="edge7" class="edge">
<title>src/js/data/DataController.js&#45;&gt;src/js/data/Data.json</title>
<path fill="none" stroke="#000000" stroke-width="2" stroke-opacity="0.200000" d="M116.62,-643.46C125.04,-643.46 133.82,-643.46 142.03,-643.46"/>
<polygon fill="#000000" fill-opacity="0.200000" stroke="#000000" stroke-width="2" stroke-opacity="0.200000" points="141.96,-645.56 147.96,-643.46 141.96,-641.36 141.96,-645.56"/>
</g>
<!-- src/js/directable/Directable.js -->
<g id="node11" class="node">
<title>src/js/directable/Directable.js</title>
<g id="a_node11"><a xlink:href="src/js/directable/Directable.js" xlink:title="Directable.js">
<path fill="#ffffcc" stroke="black" d="M851.58,-791.71C851.58,-791.71 796.92,-791.71 796.92,-791.71 793.83,-791.71 790.75,-788.62 790.75,-785.54 790.75,-785.54 790.75,-779.37 790.75,-779.37 790.75,-776.29 793.83,-773.21 796.92,-773.21 796.92,-773.21 851.58,-773.21 851.58,-773.21 854.67,-773.21 857.75,-776.29 857.75,-779.37 857.75,-779.37 857.75,-785.54 857.75,-785.54 857.75,-788.62 854.67,-791.71 851.58,-791.71"/>
<text text-anchor="start" x="798.75" y="-779.16" font-family="Helvetica,sans-Serif" font-size="9.00">Directable.js</text>
</a>
</g>
</g>
<!-- src/js/directable/directables/frame/DirectableFrame.js -->
<g id="node12" class="node">
<title>src/js/directable/directables/frame/DirectableFrame.js</title>
<g id="a_node12"><a xlink:href="src/js/directable/directables/frame/DirectableFrame.js" xlink:title="DirectableFrame.js">
<path fill="#ffffcc" stroke="black" d="M567.21,-791.71C567.21,-791.71 486.29,-791.71 486.29,-791.71 483.21,-791.71 480.12,-788.62 480.12,-785.54 480.12,-785.54 480.12,-779.37 480.12,-779.37 480.12,-776.29 483.21,-773.21 486.29,-773.21 486.29,-773.21 567.21,-773.21 567.21,-773.21 570.29,-773.21 573.38,-776.29 573.38,-779.37 573.38,-779.37 573.38,-785.54 573.38,-785.54 573.38,-788.62 570.29,-791.71 567.21,-791.71"/>
<text text-anchor="start" x="488.12" y="-779.16" font-family="Helvetica,sans-Serif" font-size="9.00">DirectableFrame.js</text>
</a>
</g>
</g>
<!-- src/js/directable/directables/frame/DirectableFrame.js&#45;&gt;src/js/application/ApplicationLogger.js -->
<g id="edge8" class="edge">
<title>src/js/directable/directables/frame/DirectableFrame.js&#45;&gt;src/js/application/ApplicationLogger.js</title>
<path fill="none" stroke="#000000" stroke-width="2" stroke-opacity="0.200000" d="M560.81,-772.85C580.06,-765.4 602.81,-752.98 614.75,-733.46 626.47,-714.29 608.1,-548.48 622.75,-531.46 661.23,-486.73 709.36,-546.03 753.12,-506.46 817.42,-448.32 823.8,-334.01 823.72,-289.65"/>
<polygon fill="#000000" fill-opacity="0.200000" stroke="#000000" stroke-width="2" stroke-opacity="0.200000" points="825.82,-289.85 823.65,-283.87 821.62,-289.9 825.82,-289.85"/>
</g>
<!-- src/js/directable/directables/frame/DirectableFrame.js&#45;&gt;src/js/directable/Directable.js -->
<g id="edge9" class="edge">
<title>src/js/directable/directables/frame/DirectableFrame.js&#45;&gt;src/js/directable/Directable.js</title>
<path fill="none" stroke="#000000" stroke-width="2" stroke-opacity="0.200000" d="M573.6,-782.46C630.57,-782.46 726.95,-782.46 781.8,-782.46"/>
<polygon fill="#000000" fill-opacity="0.200000" stroke="#000000" stroke-width="2" stroke-opacity="0.200000" points="781.53,-784.56 787.53,-782.46 781.53,-780.36 781.53,-784.56"/>
</g>
<!-- src/js/directable/directables/rhythm/DirectableRhythm.js -->
<g id="node13" class="node">
<title>src/js/directable/directables/rhythm/DirectableRhythm.js</title>
<g id="a_node13"><a xlink:href="src/js/directable/directables/rhythm/DirectableRhythm.js" xlink:title="DirectableRhythm.js">
<path fill="#ffffcc" stroke="black" d="M730.96,-703.71C730.96,-703.71 644.79,-703.71 644.79,-703.71 641.71,-703.71 638.62,-700.62 638.62,-697.54 638.62,-697.54 638.62,-691.37 638.62,-691.37 638.62,-688.29 641.71,-685.21 644.79,-685.21 644.79,-685.21 730.96,-685.21 730.96,-685.21 734.04,-685.21 737.12,-688.29 737.12,-691.37 737.12,-691.37 737.12,-697.54 737.12,-697.54 737.12,-700.62 734.04,-703.71 730.96,-703.71"/>
<text text-anchor="start" x="646.62" y="-691.16" font-family="Helvetica,sans-Serif" font-size="9.00">DirectableRhythm.js</text>
</a>
</g>
</g>
<!-- src/js/directable/directables/rhythm/DirectableRhythm.js&#45;&gt;src/js/application/ApplicationLogger.js -->
<g id="edge10" class="edge">
<title>src/js/directable/directables/rhythm/DirectableRhythm.js&#45;&gt;src/js/application/ApplicationLogger.js</title>
<path fill="none" stroke="#000000" stroke-width="2" stroke-opacity="0.200000" d="M693.41,-684.84C704.63,-660.77 734.18,-595.78 753.12,-539.46 784.2,-447.07 810.02,-332.99 819.43,-289.47"/>
<polygon fill="#000000" fill-opacity="0.200000" stroke="#000000" stroke-width="2" stroke-opacity="0.200000" points="821.44,-290.12 820.65,-283.81 817.34,-289.24 821.44,-290.12"/>
</g>
<!-- src/js/directable/directables/rhythm/DirectableRhythm.js&#45;&gt;src/js/directable/Directable.js -->
<g id="edge11" class="edge">
<title>src/js/directable/directables/rhythm/DirectableRhythm.js&#45;&gt;src/js/directable/Directable.js</title>
<path fill="none" stroke="#000000" stroke-width="2" stroke-opacity="0.200000" d="M737.41,-700.88C742.9,-702.58 748.26,-704.74 753.12,-707.46 778.5,-721.63 799.99,-748.17 812.26,-765.57"/>
<polygon fill="#000000" fill-opacity="0.200000" stroke="#000000" stroke-width="2" stroke-opacity="0.200000" points="810.41,-766.58 815.52,-770.35 813.87,-764.21 810.41,-766.58"/>
</g>
<!-- src/js/directable/directables/rhythm/asdr/ASDRData.js -->
<g id="node14" class="node">
<title>src/js/directable/directables/rhythm/asdr/ASDRData.js</title>
<g id="a_node14"><a xlink:href="src/js/directable/directables/rhythm/asdr/ASDRData.js" xlink:title="ASDRData.js">
<path fill="#ccffcc" stroke="black" d="M555.58,-580.71C555.58,-580.71 497.92,-580.71 497.92,-580.71 494.83,-580.71 491.75,-577.62 491.75,-574.54 491.75,-574.54 491.75,-568.37 491.75,-568.37 491.75,-565.29 494.83,-562.21 497.92,-562.21 497.92,-562.21 555.58,-562.21 555.58,-562.21 558.67,-562.21 561.75,-565.29 561.75,-568.37 561.75,-568.37 561.75,-574.54 561.75,-574.54 561.75,-577.62 558.67,-580.71 555.58,-580.71"/>
<text text-anchor="start" x="499.75" y="-568.16" font-family="Helvetica,sans-Serif" font-size="9.00">ASDRData.js</text>
</a>
</g>
</g>
<!-- src/js/directable/directables/rhythm/asdr/ASDREnvelope.js -->
<g id="node15" class="node">
<title>src/js/directable/directables/rhythm/asdr/ASDREnvelope.js</title>
<g id="a_node15"><a xlink:href="src/js/directable/directables/rhythm/asdr/ASDREnvelope.js" xlink:title="ASDREnvelope.js">
<path fill="#ffffcc" stroke="black" d="M565.33,-642.71C565.33,-642.71 488.17,-642.71 488.17,-642.71 485.08,-642.71 482,-639.62 482,-636.54 482,-636.54 482,-630.37 482,-630.37 482,-627.29 485.08,-624.21 488.17,-624.21 488.17,-624.21 565.33,-624.21 565.33,-624.21 568.42,-624.21 571.5,-627.29 571.5,-630.37 571.5,-630.37 571.5,-636.54 571.5,-636.54 571.5,-639.62 568.42,-642.71 565.33,-642.71"/>
<text text-anchor="start" x="490" y="-630.16" font-family="Helvetica,sans-Serif" font-size="9.00">ASDREnvelope.js</text>
</a>
</g>
</g>
<!-- src/js/directable/directables/rhythm/asdr/ASDREnvelope.js&#45;&gt;src/js/application/ApplicationLogger.js -->
<g id="edge12" class="edge">
<title>src/js/directable/directables/rhythm/asdr/ASDREnvelope.js&#45;&gt;src/js/application/ApplicationLogger.js</title>
<path fill="none" stroke="#000000" stroke-width="2" stroke-opacity="0.200000" d="M571.64,-635.88C587.45,-634.34 604.01,-629.49 614.75,-617.46 632.1,-598.01 606.19,-520.58 622.75,-500.46 660.87,-454.12 708.95,-506.05 753.12,-465.46 805.39,-417.43 818.76,-327.48 822.13,-289.31"/>
<polygon fill="#000000" fill-opacity="0.200000" stroke="#000000" stroke-width="2" stroke-opacity="0.200000" points="824.19,-289.94 822.56,-283.8 820,-289.62 824.19,-289.94"/>
</g>
<!-- src/js/directable/directables/rhythm/asdr/DirectableRhythmASDRManager.js -->
<g id="node16" class="node">
<title>src/js/directable/directables/rhythm/asdr/DirectableRhythmASDRManager.js</title>
<g id="a_node16"><a xlink:href="src/js/directable/directables/rhythm/asdr/DirectableRhythmASDRManager.js" xlink:title="DirectableRhythmASDRManager.js">
<path fill="#ffffcc" stroke="black" d="M600.58,-611.71C600.58,-611.71 452.92,-611.71 452.92,-611.71 449.83,-611.71 446.75,-608.62 446.75,-605.54 446.75,-605.54 446.75,-599.37 446.75,-599.37 446.75,-596.29 449.83,-593.21 452.92,-593.21 452.92,-593.21 600.58,-593.21 600.58,-593.21 603.67,-593.21 606.75,-596.29 606.75,-599.37 606.75,-599.37 606.75,-605.54 606.75,-605.54 606.75,-608.62 603.67,-611.71 600.58,-611.71"/>
<text text-anchor="start" x="454.75" y="-599.16" font-family="Helvetica,sans-Serif" font-size="9.00">DirectableRhythmASDRManager.js</text>
</a>
</g>
</g>
<!-- src/js/directable/directables/rhythm/asdr/DirectableRhythmASDRManager.js&#45;&gt;src/js/application/ApplicationLogger.js -->
<g id="edge13" class="edge">
<title>src/js/directable/directables/rhythm/asdr/DirectableRhythmASDRManager.js&#45;&gt;src/js/application/ApplicationLogger.js</title>
<path fill="none" stroke="#000000" stroke-width="2" stroke-opacity="0.200000" d="M606.9,-593.35C609.75,-591.36 612.39,-589.08 614.75,-586.46 630.26,-569.23 608.39,-500.65 622.75,-482.46 660.46,-434.66 708.36,-481.71 753.12,-440.46 798.18,-398.94 815.15,-324.06 820.78,-289.65"/>
<polygon fill="#000000" fill-opacity="0.200000" stroke="#000000" stroke-width="2" stroke-opacity="0.200000" points="822.8,-290.32 821.63,-284.07 818.65,-289.69 822.8,-290.32"/>
</g>
<!-- src/js/directable/directables/rhythm/bpm/DirectableRhythmBPM.js -->
<g id="node17" class="node">
<title>src/js/directable/directables/rhythm/bpm/DirectableRhythmBPM.js</title>
<g id="a_node17"><a xlink:href="src/js/directable/directables/rhythm/bpm/DirectableRhythmBPM.js" xlink:title="DirectableRhythmBPM.js">
<path fill="#ffffcc" stroke="black" d="M579.58,-703.71C579.58,-703.71 473.92,-703.71 473.92,-703.71 470.83,-703.71 467.75,-700.62 467.75,-697.54 467.75,-697.54 467.75,-691.37 467.75,-691.37 467.75,-688.29 470.83,-685.21 473.92,-685.21 473.92,-685.21 579.58,-685.21 579.58,-685.21 582.67,-685.21 585.75,-688.29 585.75,-691.37 585.75,-691.37 585.75,-697.54 585.75,-697.54 585.75,-700.62 582.67,-703.71 579.58,-703.71"/>
<text text-anchor="start" x="475.75" y="-691.16" font-family="Helvetica,sans-Serif" font-size="9.00">DirectableRhythmBPM.js</text>
</a>
</g>
</g>
<!-- src/js/directable/directables/rhythm/bpm/DirectableRhythmBPM.js&#45;&gt;src/js/application/ApplicationLogger.js -->
<g id="edge14" class="edge">
<title>src/js/directable/directables/rhythm/bpm/DirectableRhythmBPM.js&#45;&gt;src/js/application/ApplicationLogger.js</title>
<path fill="none" stroke="#000000" stroke-width="2" stroke-opacity="0.200000" d="M586.05,-690.42C597.08,-686.97 607.44,-681.37 614.75,-672.46 636.77,-645.62 600.35,-542.97 622.75,-516.46 661.06,-471.12 709.2,-527.39 753.12,-487.46 811.73,-434.17 821.54,-331.5 823.05,-289.77"/>
<polygon fill="#000000" fill-opacity="0.200000" stroke="#000000" stroke-width="2" stroke-opacity="0.200000" points="825.14,-290.04 823.19,-283.99 820.94,-289.93 825.14,-290.04"/>
</g>
<!-- src/js/directable/directables/rhythm/bpm/DirectableRhythmBPM.js&#45;&gt;src/js/directable/directables/rhythm/DirectableRhythm.js -->
<g id="edge15" class="edge">
<title>src/js/directable/directables/rhythm/bpm/DirectableRhythmBPM.js&#45;&gt;src/js/directable/directables/rhythm/DirectableRhythm.js</title>
<path fill="none" stroke="#000000" stroke-width="2" stroke-opacity="0.200000" d="M586.1,-694.46C600.28,-694.46 615.42,-694.46 629.55,-694.46"/>
<polygon fill="#000000" fill-opacity="0.200000" stroke="#000000" stroke-width="2" stroke-opacity="0.200000" points="629.17,-696.56 635.17,-694.46 629.17,-692.36 629.17,-696.56"/>
</g>
<!-- src/js/directable/directables/title/DirectableTitle.js -->
<g id="node18" class="node">
<title>src/js/directable/directables/title/DirectableTitle.js</title>
<g id="a_node18"><a xlink:href="src/js/directable/directables/title/DirectableTitle.js" xlink:title="DirectableTitle.js">
<path fill="#ffffcc" stroke="black" d="M562.71,-852.71C562.71,-852.71 490.79,-852.71 490.79,-852.71 487.71,-852.71 484.62,-849.62 484.62,-846.54 484.62,-846.54 484.62,-840.37 484.62,-840.37 484.62,-837.29 487.71,-834.21 490.79,-834.21 490.79,-834.21 562.71,-834.21 562.71,-834.21 565.79,-834.21 568.88,-837.29 568.88,-840.37 568.88,-840.37 568.88,-846.54 568.88,-846.54 568.88,-849.62 565.79,-852.71 562.71,-852.71"/>
<text text-anchor="start" x="492.62" y="-840.16" font-family="Helvetica,sans-Serif" font-size="9.00">DirectableTitle.js</text>
</a>
</g>
</g>
<!-- src/js/directable/directables/title/DirectableTitle.js&#45;&gt;src/js/application/ApplicationLogger.js -->
<g id="edge16" class="edge">
<title>src/js/directable/directables/title/DirectableTitle.js&#45;&gt;src/js/application/ApplicationLogger.js</title>
<path fill="none" stroke="#000000" stroke-width="2" stroke-opacity="0.200000" d="M569,-843.33C585.82,-840.98 603.83,-835.07 614.75,-821.46 634.08,-797.35 602.29,-566.61 622.75,-543.46 661.57,-499.53 709.28,-562.37 753.12,-523.46 788.78,-491.81 813.12,-342.55 820.72,-289.9"/>
<polygon fill="#000000" fill-opacity="0.200000" stroke="#000000" stroke-width="2" stroke-opacity="0.200000" points="822.8,-290.21 821.56,-283.98 818.64,-289.63 822.8,-290.21"/>
</g>
<!-- src/js/directable/directables/title/DirectableTitle.js&#45;&gt;src/js/directable/Directable.js -->
<g id="edge17" class="edge">
<title>src/js/directable/directables/title/DirectableTitle.js&#45;&gt;src/js/directable/Directable.js</title>
<path fill="none" stroke="#000000" stroke-width="2" stroke-opacity="0.200000" d="M569.15,-834.91C625.39,-823.3 725.36,-802.66 781.68,-791.04"/>
<polygon fill="#000000" fill-opacity="0.200000" stroke="#000000" stroke-width="2" stroke-opacity="0.200000" points="781.92,-793.13 787.37,-789.86 781.07,-789.02 781.92,-793.13"/>
</g>
<!-- src/js/director/Director.js -->
<g id="node19" class="node">
<title>src/js/director/Director.js</title>
<g id="a_node19"><a xlink:href="src/js/director/Director.js" xlink:title="Director.js">
<path fill="#ffffcc" stroke="black" d="M548.83,-468.71C548.83,-468.71 504.67,-468.71 504.67,-468.71 501.58,-468.71 498.5,-465.62 498.5,-462.54 498.5,-462.54 498.5,-456.37 498.5,-456.37 498.5,-453.29 501.58,-450.21 504.67,-450.21 504.67,-450.21 548.83,-450.21 548.83,-450.21 551.92,-450.21 555,-453.29 555,-456.37 555,-456.37 555,-462.54 555,-462.54 555,-465.62 551.92,-468.71 548.83,-468.71"/>
<text text-anchor="start" x="506.5" y="-456.16" font-family="Helvetica,sans-Serif" font-size="9.00">Director.js</text>
</a>
</g>
</g>
<!-- src/js/director/directors/DirectorDanceRabbitDance.js -->
<g id="node20" class="node">
<title>src/js/director/directors/DirectorDanceRabbitDance.js</title>
<g id="a_node20"><a xlink:href="src/js/director/directors/DirectorDanceRabbitDance.js" xlink:title="DirectorDanceRabbitDance.js">
<path fill="#ffffcc" stroke="black" d="M392.58,-468.71C392.58,-468.71 266.67,-468.71 266.67,-468.71 263.58,-468.71 260.5,-465.62 260.5,-462.54 260.5,-462.54 260.5,-456.37 260.5,-456.37 260.5,-453.29 263.58,-450.21 266.67,-450.21 266.67,-450.21 392.58,-450.21 392.58,-450.21 395.67,-450.21 398.75,-453.29 398.75,-456.37 398.75,-456.37 398.75,-462.54 398.75,-462.54 398.75,-465.62 395.67,-468.71 392.58,-468.71"/>
<text text-anchor="start" x="268.5" y="-456.16" font-family="Helvetica,sans-Serif" font-size="9.00">DirectorDanceRabbitDance.js</text>
</a>
</g>
</g>
<!-- src/js/director/directors/DirectorDanceRabbitDance.js&#45;&gt;src/js/application/ApplicationLogger.js -->
<g id="edge18" class="edge">
<title>src/js/director/directors/DirectorDanceRabbitDance.js&#45;&gt;src/js/application/ApplicationLogger.js</title>
<path fill="none" stroke="#000000" stroke-width="2" stroke-opacity="0.200000" d="M371.1,-449.8C384.88,-446.78 400.43,-443.66 414.75,-441.46 489.4,-429.98 690.68,-451.95 753.12,-409.46 794.83,-381.08 813.07,-320.14 819.84,-289.63"/>
<polygon fill="#000000" fill-opacity="0.200000" stroke="#000000" stroke-width="2" stroke-opacity="0.200000" points="821.88,-290.14 821.04,-283.84 817.77,-289.29 821.88,-290.14"/>
</g>
<!-- src/js/director/directors/DirectorDanceRabbitDance.js&#45;&gt;src/js/directable/directables/rhythm/bpm/DirectableRhythmBPM.js -->
<g id="edge19" class="edge">
<title>src/js/director/directors/DirectorDanceRabbitDance.js&#45;&gt;src/js/directable/directables/rhythm/bpm/DirectableRhythmBPM.js</title>
<path fill="none" stroke="#000000" stroke-width="2" stroke-opacity="0.200000" d="M331.27,-468.93C334.12,-502.57 348.49,-617.2 414.75,-672.46 427.1,-682.76 442.9,-688.72 458.68,-692.06"/>
<polygon fill="#000000" fill-opacity="0.200000" stroke="#000000" stroke-width="2" stroke-opacity="0.200000" points="458.16,-694.1 464.44,-693.12 458.92,-689.97 458.16,-694.1"/>
</g>
<!-- src/js/director/directors/DirectorDanceRabbitDance.js&#45;&gt;src/js/directable/directables/title/DirectableTitle.js -->
<g id="edge20" class="edge">
<title>src/js/director/directors/DirectorDanceRabbitDance.js&#45;&gt;src/js/directable/directables/title/DirectableTitle.js</title>
<path fill="none" stroke="#000000" stroke-width="2" stroke-opacity="0.200000" d="M331.46,-468.97C336.24,-520.95 361.66,-770.08 414.75,-821.46 430.68,-836.88 454.15,-842.98 475.4,-844.98"/>
<polygon fill="#000000" fill-opacity="0.200000" stroke="#000000" stroke-width="2" stroke-opacity="0.200000" points="475.19,-847.07 481.33,-845.39 475.49,-842.88 475.19,-847.07"/>
</g>
<!-- src/js/director/directors/DirectorDanceRabbitDance.js&#45;&gt;src/js/director/Director.js -->
<g id="edge21" class="edge">
<title>src/js/director/directors/DirectorDanceRabbitDance.js&#45;&gt;src/js/director/Director.js</title>
<path fill="none" stroke="#000000" stroke-width="2" stroke-opacity="0.200000" d="M399.14,-459.46C429.46,-459.46 463.9,-459.46 489.19,-459.46"/>
<polygon fill="#000000" fill-opacity="0.200000" stroke="#000000" stroke-width="2" stroke-opacity="0.200000" points="489.05,-461.56 495.05,-459.46 489.05,-457.36 489.05,-461.56"/>
</g>
<!-- src/js/enum/DisplayFormats.js -->
<g id="node21" class="node">
<title>src/js/enum/DisplayFormats.js</title>
<g id="a_node21"><a xlink:href="src/js/enum/DisplayFormats.js" xlink:title="DisplayFormats.js">
<path fill="#ffffcc" stroke="black" d="M726.08,-341.71C726.08,-341.71 649.67,-341.71 649.67,-341.71 646.58,-341.71 643.5,-338.62 643.5,-335.54 643.5,-335.54 643.5,-329.37 643.5,-329.37 643.5,-326.29 646.58,-323.21 649.67,-323.21 649.67,-323.21 726.08,-323.21 726.08,-323.21 729.17,-323.21 732.25,-326.29 732.25,-329.37 732.25,-329.37 732.25,-335.54 732.25,-335.54 732.25,-338.62 729.17,-341.71 726.08,-341.71"/>
<text text-anchor="start" x="651.5" y="-329.16" font-family="Helvetica,sans-Serif" font-size="9.00">DisplayFormats.js</text>
</a>
</g>
</g>
<!-- src/js/index.js -->
<g id="node22" class="node">
<title>src/js/index.js</title>
<g id="a_node22"><a xlink:href="src/js/index.js" xlink:title="index.js">
<path fill="#ffffcc" stroke="black" d="M547.58,-285.71C547.58,-285.71 505.92,-285.71 505.92,-285.71 502.83,-285.71 499.75,-282.62 499.75,-279.54 499.75,-279.54 499.75,-273.37 499.75,-273.37 499.75,-270.29 502.83,-267.21 505.92,-267.21 505.92,-267.21 547.58,-267.21 547.58,-267.21 550.67,-267.21 553.75,-270.29 553.75,-273.37 553.75,-273.37 553.75,-279.54 553.75,-279.54 553.75,-282.62 550.67,-285.71 547.58,-285.71"/>
<text text-anchor="start" x="511" y="-273.16" font-family="Helvetica,sans-Serif" font-size="9.00">index.js</text>
</a>
</g>
</g>
<!-- src/js/index.js&#45;&gt;src/js/application/Application.js -->
<g id="edge22" class="edge">
<title>src/js/index.js&#45;&gt;src/js/application/Application.js</title>
<path fill="none" stroke="#000000" stroke-width="2" stroke-opacity="0.200000" d="M554.03,-274.31C578.24,-272.33 614.64,-269.36 643.22,-267.02"/>
<polygon fill="#000000" fill-opacity="0.200000" stroke="#000000" stroke-width="2" stroke-opacity="0.200000" points="643.37,-269.12 649.18,-266.54 643.03,-264.93 643.37,-269.12"/>
</g>
<!-- src/js/overlay/displayFormat/OverlayDisplayFormat.js&#45;&gt;src/js/enum/DisplayFormats.js -->
<g id="edge30" class="edge">
<title>src/js/overlay/displayFormat/OverlayDisplayFormat.js&#45;&gt;src/js/enum/DisplayFormats.js</title>
<path fill="none" stroke="#000000" stroke-width="2" stroke-opacity="0.200000" d="M334.58,-192.02C344.37,-214.31 372.09,-269.68 414.75,-293.46 453.75,-315.19 570.85,-304.35 614.75,-312.46 625.74,-314.49 637.49,-317.41 648.24,-320.4"/>
<polygon fill="#000000" fill-opacity="0.200000" stroke="#000000" stroke-width="2" stroke-opacity="0.200000" points="647.36,-322.33 653.71,-321.96 648.52,-318.29 647.36,-322.33"/>
</g>
<!-- src/js/overlay/OverlayUtil.js -->
<g id="node25" class="node">
<title>src/js/overlay/OverlayUtil.js</title>
<g id="a_node25"><a xlink:href="src/js/overlay/OverlayUtil.js" xlink:title="OverlayUtil.js">
<path fill="#ffffcc" stroke="black" d="M555.58,-198.71C555.58,-198.71 497.92,-198.71 497.92,-198.71 494.83,-198.71 491.75,-195.62 491.75,-192.54 491.75,-192.54 491.75,-186.37 491.75,-186.37 491.75,-183.29 494.83,-180.21 497.92,-180.21 497.92,-180.21 555.58,-180.21 555.58,-180.21 558.67,-180.21 561.75,-183.29 561.75,-186.37 561.75,-186.37 561.75,-192.54 561.75,-192.54 561.75,-195.62 558.67,-198.71 555.58,-198.71"/>
<text text-anchor="start" x="499.75" y="-186.16" font-family="Helvetica,sans-Serif" font-size="9.00">OverlayUtil.js</text>
</a>
</g>
</g>
<!-- src/js/overlay/displayFormat/OverlayDisplayFormat.js&#45;&gt;src/js/overlay/OverlayUtil.js -->
<g id="edge31" class="edge">
<title>src/js/overlay/displayFormat/OverlayDisplayFormat.js&#45;&gt;src/js/overlay/OverlayUtil.js</title>
<path fill="none" stroke="#000000" stroke-width="2" stroke-opacity="0.200000" d="M387.85,-184.51C418.19,-185.6 454.85,-186.91 482.74,-187.91"/>
<polygon fill="#000000" fill-opacity="0.200000" stroke="#000000" stroke-width="2" stroke-opacity="0.200000" points="482.37,-190 488.44,-188.12 482.52,-185.8 482.37,-190"/>
</g>
<!-- src/js/overlay/overlay/OverlayOverlay.js&#45;&gt;src/js/overlay/OverlayUtil.js -->
<g id="edge32" class="edge">
<title>src/js/overlay/overlay/OverlayOverlay.js&#45;&gt;src/js/overlay/OverlayUtil.js</title>
<path fill="none" stroke="#000000" stroke-width="2" stroke-opacity="0.200000" d="M358.58,-131.2C393.07,-143.22 451.76,-163.67 489.63,-176.87"/>
<polygon fill="#000000" fill-opacity="0.200000" stroke="#000000" stroke-width="2" stroke-opacity="0.200000" points="488.63,-178.74 494.99,-178.74 490.01,-174.78 488.63,-178.74"/>
</g>
<!-- src/js/overlay/OverlayUtil.js&#45;&gt;src/js/application/ApplicationLogger.js -->
<g id="edge29" class="edge">
<title>src/js/overlay/OverlayUtil.js&#45;&gt;src/js/application/ApplicationLogger.js</title>
<path fill="none" stroke="#000000" stroke-width="2" stroke-opacity="0.200000" d="M562.18,-179.75C611.27,-168.21 701.16,-156 753.12,-203.46 770.39,-219.23 745.43,-238.12 761.12,-255.46 762.84,-257.35 764.75,-259.04 766.8,-260.53"/>
<polygon fill="#000000" fill-opacity="0.200000" stroke="#000000" stroke-width="2" stroke-opacity="0.200000" points="765.42,-262.16 771.66,-263.39 767.55,-258.54 765.42,-262.16"/>
</g>
<!-- src/js/overlay/OverlayUtil.js&#45;&gt;src/js/application/ApplicationDispatcher.js -->
<g id="edge28" class="edge">
<title>src/js/overlay/OverlayUtil.js&#45;&gt;src/js/application/ApplicationDispatcher.js</title>
<path fill="none" stroke="#000000" stroke-width="2" stroke-opacity="0.200000" d="M561.89,-195.68C580.19,-199.01 603.31,-203.23 624.67,-207.12"/>
<polygon fill="#000000" fill-opacity="0.200000" stroke="#000000" stroke-width="2" stroke-opacity="0.200000" points="624.13,-209.16 630.41,-208.17 624.88,-205.02 624.13,-209.16"/>
</g>
<!-- src/js/rhythm/ViewRhythm.js -->
<g id="node26" class="node">
<title>src/js/rhythm/ViewRhythm.js</title>
<g id="a_node26"><a xlink:href="src/js/rhythm/ViewRhythm.js" xlink:title="ViewRhythm.js">
<path fill="#ffffcc" stroke="black" d="M106.33,-809.71C106.33,-809.71 41.92,-809.71 41.92,-809.71 38.83,-809.71 35.75,-806.62 35.75,-803.54 35.75,-803.54 35.75,-797.37 35.75,-797.37 35.75,-794.29 38.83,-791.21 41.92,-791.21 41.92,-791.21 106.33,-791.21 106.33,-791.21 109.42,-791.21 112.5,-794.29 112.5,-797.37 112.5,-797.37 112.5,-803.54 112.5,-803.54 112.5,-806.62 109.42,-809.71 106.33,-809.71"/>
<text text-anchor="start" x="43.75" y="-797.16" font-family="Helvetica,sans-Serif" font-size="9.00">ViewRhythm.js</text>
</a>
</g>
</g>
<!-- src/js/rhythm/ViewRhythmTrack.js -->
<g id="node27" class="node">
<title>src/js/rhythm/ViewRhythmTrack.js</title>
<g id="a_node27"><a xlink:href="src/js/rhythm/ViewRhythmTrack.js" xlink:title="ViewRhythmTrack.js">
<path fill="#ffffcc" stroke="black" d="M222.33,-809.71C222.33,-809.71 135.42,-809.71 135.42,-809.71 132.33,-809.71 129.25,-806.62 129.25,-803.54 129.25,-803.54 129.25,-797.37 129.25,-797.37 129.25,-794.29 132.33,-791.21 135.42,-791.21 135.42,-791.21 222.33,-791.21 222.33,-791.21 225.42,-791.21 228.5,-794.29 228.5,-797.37 228.5,-797.37 228.5,-803.54 228.5,-803.54 228.5,-806.62 225.42,-809.71 222.33,-809.71"/>
<text text-anchor="start" x="137.25" y="-797.16" font-family="Helvetica,sans-Serif" font-size="9.00">ViewRhythmTrack.js</text>
</a>
</g>
</g>
<!-- src/js/rhythm/ViewRhythm.js&#45;&gt;src/js/rhythm/ViewRhythmTrack.js -->
<g id="edge33" class="edge">
<title>src/js/rhythm/ViewRhythm.js&#45;&gt;src/js/rhythm/ViewRhythmTrack.js</title>
<path fill="none" stroke="#000000" stroke-width="2" stroke-opacity="0.200000" d="M112.8,-800.46C115.19,-800.46 117.62,-800.46 120.07,-800.46"/>
<polygon fill="#000000" fill-opacity="0.200000" stroke="#000000" stroke-width="2" stroke-opacity="0.200000" points="119.96,-802.56 125.96,-800.46 119.96,-798.36 119.96,-802.56"/>
</g>
<!-- src/js/view/render/RenderController.js&#45;&gt;src/js/application/ApplicationConfiguration.js -->
<g id="edge35" class="edge">
<title>src/js/view/render/RenderController.js&#45;&gt;src/js/application/ApplicationConfiguration.js</title>
<path fill="none" stroke="#000000" stroke-width="2" stroke-opacity="0.200000" d="M348.5,-357.03C413.04,-390.14 636.4,-492.01 753.12,-382.46 773.58,-363.26 743.24,-278.08 761.12,-256.46 761.25,-256.31 761.37,-256.16 761.5,-256.01"/>
<polygon fill="#000000" fill-opacity="0.200000" stroke="#000000" stroke-width="2" stroke-opacity="0.200000" points="762.63,-257.82 765.68,-252.24 759.82,-254.7 762.63,-257.82"/>
</g>
<!-- src/js/view/render/RenderResizer.js -->
<g id="node29" class="node">
<title>src/js/view/render/RenderResizer.js</title>
<g id="a_node29"><a xlink:href="src/js/view/render/RenderResizer.js" xlink:title="RenderResizer.js">
<path fill="#ffffcc" stroke="black" d="M563.83,-341.71C563.83,-341.71 489.67,-341.71 489.67,-341.71 486.58,-341.71 483.5,-338.62 483.5,-335.54 483.5,-335.54 483.5,-329.37 483.5,-329.37 483.5,-326.29 486.58,-323.21 489.67,-323.21 489.67,-323.21 563.83,-323.21 563.83,-323.21 566.92,-323.21 570,-326.29 570,-329.37 570,-329.37 570,-335.54 570,-335.54 570,-338.62 566.92,-341.71 563.83,-341.71"/>
<text text-anchor="start" x="491.5" y="-329.16" font-family="Helvetica,sans-Serif" font-size="9.00">RenderResizer.js</text>
</a>
</g>
</g>
<!-- src/js/view/render/RenderController.js&#45;&gt;src/js/view/render/RenderResizer.js -->
<g id="edge36" class="edge">
<title>src/js/view/render/RenderController.js&#45;&gt;src/js/view/render/RenderResizer.js</title>
<path fill="none" stroke="#000000" stroke-width="2" stroke-opacity="0.200000" d="M377.86,-343.83C407.12,-341.58 444.69,-338.69 474.64,-336.39"/>
<polygon fill="#000000" fill-opacity="0.200000" stroke="#000000" stroke-width="2" stroke-opacity="0.200000" points="474.43,-338.51 480.25,-335.95 474.11,-334.32 474.43,-338.51"/>
</g>
<!-- src/js/view/render/RenderSurface.js -->
<g id="node30" class="node">
<title>src/js/view/render/RenderSurface.js</title>
<g id="a_node30"><a xlink:href="src/js/view/render/RenderSurface.js" xlink:title="RenderSurface.js">
<path fill="#ffffcc" stroke="black" d="M564.21,-372.71C564.21,-372.71 489.29,-372.71 489.29,-372.71 486.21,-372.71 483.12,-369.62 483.12,-366.54 483.12,-366.54 483.12,-360.37 483.12,-360.37 483.12,-357.29 486.21,-354.21 489.29,-354.21 489.29,-354.21 564.21,-354.21 564.21,-354.21 567.29,-354.21 570.38,-357.29 570.38,-360.37 570.38,-360.37 570.38,-366.54 570.38,-366.54 570.38,-369.62 567.29,-372.71 564.21,-372.71"/>
<text text-anchor="start" x="491.12" y="-360.16" font-family="Helvetica,sans-Serif" font-size="9.00">RenderSurface.js</text>
</a>
</g>
</g>
<!-- src/js/view/render/RenderController.js&#45;&gt;src/js/view/render/RenderSurface.js -->
<g id="edge37" class="edge">
<title>src/js/view/render/RenderController.js&#45;&gt;src/js/view/render/RenderSurface.js</title>
<path fill="none" stroke="#000000" stroke-width="2" stroke-opacity="0.200000" d="M377.86,-351.33C407.01,-353.72 444.42,-356.79 474.32,-359.24"/>
<polygon fill="#000000" fill-opacity="0.200000" stroke="#000000" stroke-width="2" stroke-opacity="0.200000" points="473.78,-361.3 479.93,-359.7 474.12,-357.12 473.78,-361.3"/>
</g>
<!-- src/js/view/render/RenderResizer.js&#45;&gt;src/js/application/ApplicationConfiguration.js -->
<g id="edge38" class="edge">
<title>src/js/view/render/RenderResizer.js&#45;&gt;src/js/application/ApplicationConfiguration.js</title>
<path fill="none" stroke="#000000" stroke-width="2" stroke-opacity="0.200000" d="M570.07,-331.63C585.68,-333.38 602.51,-337.96 614.75,-348.46 622.96,-355.5 613.93,-365.19 622.75,-371.46 646.36,-388.24 731.94,-391.22 753.12,-371.46 771.86,-353.98 744.74,-276.15 761.12,-256.46 761.25,-256.3 761.38,-256.15 761.52,-256"/>
<polygon fill="#000000" fill-opacity="0.200000" stroke="#000000" stroke-width="2" stroke-opacity="0.200000" points="762.87,-257.6 765.95,-252.04 760.07,-254.47 762.87,-257.6"/>
</g>
<!-- src/js/view/render/RenderResizer.js&#45;&gt;src/js/application/ApplicationLogger.js -->
<g id="edge40" class="edge">
<title>src/js/view/render/RenderResizer.js&#45;&gt;src/js/application/ApplicationLogger.js</title>
<path fill="none" stroke="#000000" stroke-width="2" stroke-opacity="0.200000" d="M570.17,-330.98C585.97,-332.61 602.92,-337.27 614.75,-348.46 625.72,-358.83 610.89,-372.13 622.75,-381.46 668.29,-417.28 702.32,-409.32 753.12,-381.46 788.85,-361.86 809,-315.48 817.82,-289.64"/>
<polygon fill="#000000" fill-opacity="0.200000" stroke="#000000" stroke-width="2" stroke-opacity="0.200000" points="819.79,-290.37 819.63,-284.02 815.79,-289.08 819.79,-290.37"/>
</g>
<!-- src/js/view/render/RenderResizer.js&#45;&gt;src/js/application/ApplicationDispatcher.js -->
<g id="edge39" class="edge">
<title>src/js/view/render/RenderResizer.js&#45;&gt;src/js/application/ApplicationDispatcher.js</title>
<path fill="none" stroke="#000000" stroke-width="2" stroke-opacity="0.200000" d="M570.33,-336.32C586.35,-335.42 603.41,-331.22 614.75,-319.46 636.8,-296.6 604.23,-274.25 622.75,-248.46 627.75,-241.49 634.79,-236.1 642.38,-231.93"/>
<polygon fill="#000000" fill-opacity="0.200000" stroke="#000000" stroke-width="2" stroke-opacity="0.200000" points="642.91,-234.01 647.38,-229.49 641.06,-230.23 642.91,-234.01"/>
</g>
<!-- src/js/view/render/RenderResizer.js&#45;&gt;src/js/enum/DisplayFormats.js -->
<g id="edge41" class="edge">
<title>src/js/view/render/RenderResizer.js&#45;&gt;src/js/enum/DisplayFormats.js</title>
<path fill="none" stroke="#000000" stroke-width="2" stroke-opacity="0.200000" d="M570.39,-332.46C589.96,-332.46 613.35,-332.46 634.03,-332.46"/>
<polygon fill="#000000" fill-opacity="0.200000" stroke="#000000" stroke-width="2" stroke-opacity="0.200000" points="633.98,-334.56 639.98,-332.46 633.98,-330.36 633.98,-334.56"/>
</g>
<!-- src/js/view/render/RenderSurface.js&#45;&gt;src/js/application/ApplicationLogger.js -->
<g id="edge42" class="edge">
<title>src/js/view/render/RenderSurface.js&#45;&gt;src/js/application/ApplicationLogger.js</title>
<path fill="none" stroke="#000000" stroke-width="2" stroke-opacity="0.200000" d="M544.99,-373.07C584.73,-393.82 684.56,-437.77 753.12,-397.46 793.07,-373.97 811.91,-318.59 819.28,-289.7"/>
<polygon fill="#000000" fill-opacity="0.200000" stroke="#000000" stroke-width="2" stroke-opacity="0.200000" points="821.3,-290.28 820.65,-283.95 817.22,-289.3 821.3,-290.28"/>
</g>
</g>
</svg>
