<?xml version="1.0" encoding="UTF-8" standalone="no"?>
<!DOCTYPE svg PUBLIC "-//W3C//DTD SVG 1.1//EN"
 "http://www.w3.org/Graphics/SVG/1.1/DTD/svg11.dtd">
<!-- Generated by graphviz version 12.2.1 (20241206.2353)
 -->
<!-- Title: dependency&#45;cruiser output Pages: 1 -->
<svg width="860pt" height="1298pt"
 viewBox="0.00 0.00 860.12 1298.00" xmlns="http://www.w3.org/2000/svg" xmlns:xlink="http://www.w3.org/1999/xlink">
<g id="graph0" class="graph" transform="scale(1 1) rotate(0) translate(4 1294)">
<title>dependency&#45;cruiser output</title>
<polygon fill="white" stroke="none" points="-4,4 -4,-1294 856.12,-1294 856.12,4 -4,4"/>
<g id="clust1" class="cluster">
<title>cluster_src</title>
<path fill="#ffffff" stroke="black" stroke-width="2" d="M20,-8C20,-8 832.12,-8 832.12,-8 838.12,-8 844.12,-14 844.12,-20 844.12,-20 844.12,-1270 844.12,-1270 844.12,-1276 838.12,-1282 832.12,-1282 832.12,-1282 20,-1282 20,-1282 14,-1282 8,-1276 8,-1270 8,-1270 8,-20 8,-20 8,-14 14,-8 20,-8"/>
<text text-anchor="middle" x="426.06" y="-1269.45" font-family="Helvetica,sans-Serif" font-weight="bold" font-size="9.00">src</text>
</g>
<g id="clust2" class="cluster">
<title>cluster_src/js</title>
<path fill="#ffffff" stroke="black" stroke-width="2" d="M28,-16C28,-16 824.12,-16 824.12,-16 830.12,-16 836.12,-22 836.12,-28 836.12,-28 836.12,-1243 836.12,-1243 836.12,-1249 830.12,-1255 824.12,-1255 824.12,-1255 28,-1255 28,-1255 22,-1255 16,-1249 16,-1243 16,-1243 16,-28 16,-28 16,-22 22,-16 28,-16"/>
<text text-anchor="middle" x="426.06" y="-1242.45" font-family="Helvetica,sans-Serif" font-weight="bold" font-size="9.00">js</text>
</g>
<g id="clust3" class="cluster">
<title>cluster_src/js/application</title>
<path fill="#ffffff" stroke="black" stroke-width="2" d="M582.38,-548C582.38,-548 809.25,-548 809.25,-548 815.25,-548 821.25,-554 821.25,-560 821.25,-560 821.25,-620 821.25,-620 821.25,-626 815.25,-632 809.25,-632 809.25,-632 582.38,-632 582.38,-632 576.38,-632 570.38,-626 570.38,-620 570.38,-620 570.38,-560 570.38,-560 570.38,-554 576.38,-548 582.38,-548"/>
<text text-anchor="middle" x="695.81" y="-619.45" font-family="Helvetica,sans-Serif" font-weight="bold" font-size="9.00">application</text>
</g>
<g id="clust4" class="cluster">
<title>cluster_src/js/data</title>
<path fill="#ffffff" stroke="black" stroke-width="2" d="M62.62,-199C62.62,-199 286.12,-199 286.12,-199 292.12,-199 298.12,-205 298.12,-211 298.12,-211 298.12,-240 298.12,-240 298.12,-246 292.12,-252 286.12,-252 286.12,-252 62.62,-252 62.62,-252 56.62,-252 50.62,-246 50.62,-240 50.62,-240 50.62,-211 50.62,-211 50.62,-205 56.62,-199 62.62,-199"/>
<text text-anchor="middle" x="174.38" y="-239.45" font-family="Helvetica,sans-Serif" font-weight="bold" font-size="9.00">data</text>
</g>
<g id="clust5" class="cluster">
<title>cluster_src/js/directable</title>
<path fill="#ffffff" stroke="black" stroke-width="2" d="M359.75,-24C359.75,-24 779.62,-24 779.62,-24 785.62,-24 791.62,-30 791.62,-36 791.62,-36 791.62,-415 791.62,-415 791.62,-421 785.62,-427 779.62,-427 779.62,-427 359.75,-427 359.75,-427 353.75,-427 347.75,-421 347.75,-415 347.75,-415 347.75,-36 347.75,-36 347.75,-30 353.75,-24 359.75,-24"/>
<text text-anchor="middle" x="569.69" y="-414.45" font-family="Helvetica,sans-Serif" font-weight="bold" font-size="9.00">directable</text>
</g>
<g id="clust6" class="cluster">
<title>cluster_src/js/directable/directables</title>
<path fill="#ffffff" stroke="black" stroke-width="2" d="M367.75,-32C367.75,-32 667,-32 667,-32 673,-32 679,-38 679,-44 679,-44 679,-388 679,-388 679,-394 673,-400 667,-400 667,-400 367.75,-400 367.75,-400 361.75,-400 355.75,-394 355.75,-388 355.75,-388 355.75,-44 355.75,-44 355.75,-38 361.75,-32 367.75,-32"/>
<text text-anchor="middle" x="517.38" y="-387.45" font-family="Helvetica,sans-Serif" font-weight="bold" font-size="9.00">directables</text>
</g>
<g id="clust7" class="cluster">
<title>cluster_src/js/directable/directables/frame</title>
<path fill="#ffffff" stroke="black" stroke-width="2" d="M417.12,-40C417.12,-40 502.38,-40 502.38,-40 508.38,-40 514.38,-46 514.38,-52 514.38,-52 514.38,-81 514.38,-81 514.38,-87 508.38,-93 502.38,-93 502.38,-93 417.12,-93 417.12,-93 411.12,-93 405.12,-87 405.12,-81 405.12,-81 405.12,-52 405.12,-52 405.12,-46 411.12,-40 417.12,-40"/>
<text text-anchor="middle" x="459.75" y="-80.45" font-family="Helvetica,sans-Serif" font-weight="bold" font-size="9.00">frame</text>
</g>
<g id="clust8" class="cluster">
<title>cluster_src/js/directable/directables/rhythm</title>
<path fill="#ffffff" stroke="black" stroke-width="2" d="M375.75,-162C375.75,-162 659,-162 659,-162 665,-162 671,-168 671,-174 671,-174 671,-361 671,-361 671,-367 665,-373 659,-373 659,-373 375.75,-373 375.75,-373 369.75,-373 363.75,-367 363.75,-361 363.75,-361 363.75,-174 363.75,-174 363.75,-168 369.75,-162 375.75,-162"/>
<text text-anchor="middle" x="517.38" y="-360.45" font-family="Helvetica,sans-Serif" font-weight="bold" font-size="9.00">rhythm</text>
</g>
<g id="clust9" class="cluster">
<title>cluster_src/js/directable/directables/rhythm/asdr</title>
<path fill="#ffffff" stroke="black" stroke-width="2" d="M383.75,-231C383.75,-231 535.75,-231 535.75,-231 541.75,-231 547.75,-237 547.75,-243 547.75,-243 547.75,-334 547.75,-334 547.75,-340 541.75,-346 535.75,-346 535.75,-346 383.75,-346 383.75,-346 377.75,-346 371.75,-340 371.75,-334 371.75,-334 371.75,-243 371.75,-243 371.75,-237 377.75,-231 383.75,-231"/>
<text text-anchor="middle" x="459.75" y="-333.45" font-family="Helvetica,sans-Serif" font-weight="bold" font-size="9.00">asdr</text>
</g>
<g id="clust10" class="cluster">
<title>cluster_src/js/directable/directables/rhythm/bpm</title>
<path fill="#ffffff" stroke="black" stroke-width="2" d="M404.75,-170C404.75,-170 514.75,-170 514.75,-170 520.75,-170 526.75,-176 526.75,-182 526.75,-182 526.75,-211 526.75,-211 526.75,-217 520.75,-223 514.75,-223 514.75,-223 404.75,-223 404.75,-223 398.75,-223 392.75,-217 392.75,-211 392.75,-211 392.75,-182 392.75,-182 392.75,-176 398.75,-170 404.75,-170"/>
<text text-anchor="middle" x="459.75" y="-210.45" font-family="Helvetica,sans-Serif" font-weight="bold" font-size="9.00">bpm</text>
</g>
<g id="clust11" class="cluster">
<title>cluster_src/js/directable/directables/title</title>
<path fill="#ffffff" stroke="black" stroke-width="2" d="M421.62,-101C421.62,-101 497.88,-101 497.88,-101 503.88,-101 509.88,-107 509.88,-113 509.88,-113 509.88,-142 509.88,-142 509.88,-148 503.88,-154 497.88,-154 497.88,-154 421.62,-154 421.62,-154 415.62,-154 409.62,-148 409.62,-142 409.62,-142 409.62,-113 409.62,-113 409.62,-107 415.62,-101 421.62,-101"/>
<text text-anchor="middle" x="459.75" y="-141.45" font-family="Helvetica,sans-Serif" font-weight="bold" font-size="9.00">title</text>
</g>
<g id="clust12" class="cluster">
<title>cluster_src/js/director</title>
<path fill="#ffffff" stroke="black" stroke-width="2" d="M189.5,-435C189.5,-435 484,-435 484,-435 490,-435 496,-441 496,-447 496,-447 496,-511 496,-511 496,-517 490,-523 484,-523 484,-523 189.5,-523 189.5,-523 183.5,-523 177.5,-517 177.5,-511 177.5,-511 177.5,-447 177.5,-447 177.5,-441 183.5,-435 189.5,-435"/>
<text text-anchor="middle" x="336.75" y="-510.45" font-family="Helvetica,sans-Serif" font-weight="bold" font-size="9.00">director</text>
</g>
<g id="clust13" class="cluster">
<title>cluster_src/js/director/directors</title>
<path fill="#ffffff" stroke="black" stroke-width="2" d="M197.5,-443C197.5,-443 327.75,-443 327.75,-443 333.75,-443 339.75,-449 339.75,-455 339.75,-455 339.75,-484 339.75,-484 339.75,-490 333.75,-496 327.75,-496 327.75,-496 197.5,-496 197.5,-496 191.5,-496 185.5,-490 185.5,-484 185.5,-484 185.5,-455 185.5,-455 185.5,-449 191.5,-443 197.5,-443"/>
<text text-anchor="middle" x="262.62" y="-483.45" font-family="Helvetica,sans-Serif" font-weight="bold" font-size="9.00">directors</text>
</g>
<g id="clust14" class="cluster">
<title>cluster_src/js/event</title>
<path fill="#ffffff" stroke="black" stroke-width="2" d="M36,-531C36,-531 305.62,-531 305.62,-531 311.62,-531 317.62,-537 317.62,-543 317.62,-543 317.62,-572 317.62,-572 317.62,-578 311.62,-584 305.62,-584 305.62,-584 36,-584 36,-584 30,-584 24,-578 24,-572 24,-572 24,-543 24,-543 24,-537 30,-531 36,-531"/>
<text text-anchor="middle" x="170.81" y="-571.45" font-family="Helvetica,sans-Serif" font-weight="bold" font-size="9.00">event</text>
</g>
<g id="clust15" class="cluster">
<title>cluster_src/js/overlay</title>
<path fill="#ffffff" stroke="black" stroke-width="2" d="M76.88,-642C76.88,-642 816.12,-642 816.12,-642 822.12,-642 828.12,-648 828.12,-654 828.12,-654 828.12,-1094 828.12,-1094 828.12,-1100 822.12,-1106 816.12,-1106 816.12,-1106 76.88,-1106 76.88,-1106 70.88,-1106 64.88,-1100 64.88,-1094 64.88,-1094 64.88,-654 64.88,-654 64.88,-648 70.88,-642 76.88,-642"/>
<text text-anchor="middle" x="446.5" y="-1093.45" font-family="Helvetica,sans-Serif" font-weight="bold" font-size="9.00">overlay</text>
</g>
<g id="clust16" class="cluster">
<title>cluster_src/js/overlay/capture</title>
<path fill="#ffffff" stroke="black" stroke-width="2" d="M221.88,-721C221.88,-721 303.38,-721 303.38,-721 309.38,-721 315.38,-727 315.38,-733 315.38,-733 315.38,-762 315.38,-762 315.38,-768 309.38,-774 303.38,-774 303.38,-774 221.88,-774 221.88,-774 215.88,-774 209.88,-768 209.88,-762 209.88,-762 209.88,-733 209.88,-733 209.88,-727 215.88,-721 221.88,-721"/>
<text text-anchor="middle" x="262.62" y="-761.45" font-family="Helvetica,sans-Serif" font-weight="bold" font-size="9.00">capture</text>
</g>
<g id="clust17" class="cluster">
<title>cluster_src/js/overlay/dispatcher</title>
<path fill="#ffffff" stroke="black" stroke-width="2" d="M567.75,-650C567.75,-650 808.12,-650 808.12,-650 814.12,-650 820.12,-656 820.12,-662 820.12,-662 820.12,-691 820.12,-691 820.12,-697 814.12,-703 808.12,-703 808.12,-703 567.75,-703 567.75,-703 561.75,-703 555.75,-697 555.75,-691 555.75,-691 555.75,-662 555.75,-662 555.75,-656 561.75,-650 567.75,-650"/>
<text text-anchor="middle" x="687.94" y="-690.45" font-family="Helvetica,sans-Serif" font-weight="bold" font-size="9.00">dispatcher</text>
</g>
<g id="clust18" class="cluster">
<title>cluster_src/js/overlay/format</title>
<path fill="#ffffff" stroke="black" stroke-width="2" d="M224.12,-782C224.12,-782 301.12,-782 301.12,-782 307.12,-782 313.12,-788 313.12,-794 313.12,-794 313.12,-823 313.12,-823 313.12,-829 307.12,-835 301.12,-835 301.12,-835 224.12,-835 224.12,-835 218.12,-835 212.12,-829 212.12,-823 212.12,-823 212.12,-794 212.12,-794 212.12,-788 218.12,-782 224.12,-782"/>
<text text-anchor="middle" x="262.62" y="-822.45" font-family="Helvetica,sans-Serif" font-weight="bold" font-size="9.00">format</text>
</g>
<g id="clust19" class="cluster">
<title>cluster_src/js/overlay/media</title>
<path fill="#ffffff" stroke="black" stroke-width="2" d="M225.62,-660C225.62,-660 299.62,-660 299.62,-660 305.62,-660 311.62,-666 311.62,-672 311.62,-672 311.62,-701 311.62,-701 311.62,-707 305.62,-713 299.62,-713 299.62,-713 225.62,-713 225.62,-713 219.62,-713 213.62,-707 213.62,-701 213.62,-701 213.62,-672 213.62,-672 213.62,-666 219.62,-660 225.62,-660"/>
<text text-anchor="middle" x="262.62" y="-700.45" font-family="Helvetica,sans-Serif" font-weight="bold" font-size="9.00">media</text>
</g>
<g id="clust20" class="cluster">
<title>cluster_src/js/overlay/overlay</title>
<path fill="#ffffff" stroke="black" stroke-width="2" d="M223,-843C223,-843 302.25,-843 302.25,-843 308.25,-843 314.25,-849 314.25,-855 314.25,-855 314.25,-884 314.25,-884 314.25,-890 308.25,-896 302.25,-896 302.25,-896 223,-896 223,-896 217,-896 211,-890 211,-884 211,-884 211,-855 211,-855 211,-849 217,-843 223,-843"/>
<text text-anchor="middle" x="262.62" y="-883.45" font-family="Helvetica,sans-Serif" font-weight="bold" font-size="9.00">overlay</text>
</g>
<g id="clust21" class="cluster">
<title>cluster_src/js/overlay/pathtracer</title>
<path fill="#ffffff" stroke="black" stroke-width="2" d="M216.25,-904C216.25,-904 309,-904 309,-904 315,-904 321,-910 321,-916 321,-916 321,-945 321,-945 321,-951 315,-957 309,-957 309,-957 216.25,-957 216.25,-957 210.25,-957 204.25,-951 204.25,-945 204.25,-945 204.25,-916 204.25,-916 204.25,-910 210.25,-904 216.25,-904"/>
<text text-anchor="middle" x="262.62" y="-944.45" font-family="Helvetica,sans-Serif" font-weight="bold" font-size="9.00">pathtracer</text>
</g>
<g id="clust22" class="cluster">
<title>cluster_src/js/overlay/rhythm</title>
<path fill="#ffffff" stroke="black" stroke-width="2" d="M222.62,-965C222.62,-965 302.62,-965 302.62,-965 308.62,-965 314.62,-971 314.62,-977 314.62,-977 314.62,-1006 314.62,-1006 314.62,-1012 308.62,-1018 302.62,-1018 302.62,-1018 222.62,-1018 222.62,-1018 216.62,-1018 210.62,-1012 210.62,-1006 210.62,-1006 210.62,-977 210.62,-977 210.62,-971 216.62,-965 222.62,-965"/>
<text text-anchor="middle" x="262.62" y="-1005.45" font-family="Helvetica,sans-Serif" font-weight="bold" font-size="9.00">rhythm</text>
</g>
<g id="clust23" class="cluster">
<title>cluster_src/js/overlay/teleprompt</title>
<path fill="#ffffff" stroke="black" stroke-width="2" d="M215.5,-1026C215.5,-1026 309.75,-1026 309.75,-1026 315.75,-1026 321.75,-1032 321.75,-1038 321.75,-1038 321.75,-1067 321.75,-1067 321.75,-1073 315.75,-1079 309.75,-1079 309.75,-1079 215.5,-1079 215.5,-1079 209.5,-1079 203.5,-1073 203.5,-1067 203.5,-1067 203.5,-1038 203.5,-1038 203.5,-1032 209.5,-1026 215.5,-1026"/>
<text text-anchor="middle" x="262.62" y="-1066.45" font-family="Helvetica,sans-Serif" font-weight="bold" font-size="9.00">teleprompt</text>
</g>
<g id="clust24" class="cluster">
<title>cluster_src/js/renderer</title>
<path fill="#ffffff" stroke="black" stroke-width="2" d="M416.38,-555C416.38,-555 503.12,-555 503.12,-555 509.12,-555 515.12,-561 515.12,-567 515.12,-567 515.12,-596 515.12,-596 515.12,-602 509.12,-608 503.12,-608 503.12,-608 416.38,-608 416.38,-608 410.38,-608 404.38,-602 404.38,-596 404.38,-596 404.38,-567 404.38,-567 404.38,-561 410.38,-555 416.38,-555"/>
<text text-anchor="middle" x="459.75" y="-595.45" font-family="Helvetica,sans-Serif" font-weight="bold" font-size="9.00">renderer</text>
</g>
<g id="clust25" class="cluster">
<title>cluster_src/js/rhythm</title>
<path fill="#ffffff" stroke="black" stroke-width="2" d="M66.38,-1114C66.38,-1114 308.25,-1114 308.25,-1114 314.25,-1114 320.25,-1120 320.25,-1126 320.25,-1126 320.25,-1155 320.25,-1155 320.25,-1161 314.25,-1167 308.25,-1167 308.25,-1167 66.38,-1167 66.38,-1167 60.38,-1167 54.38,-1161 54.38,-1155 54.38,-1155 54.38,-1126 54.38,-1126 54.38,-1120 60.38,-1114 66.38,-1114"/>
<text text-anchor="middle" x="187.31" y="-1154.45" font-family="Helvetica,sans-Serif" font-weight="bold" font-size="9.00">rhythm</text>
</g>
<g id="clust26" class="cluster">
<title>cluster_src/js/view</title>
<path fill="#ffffff" stroke="black" stroke-width="2" d="M77.75,-1175C77.75,-1175 123.75,-1175 123.75,-1175 129.75,-1175 135.75,-1181 135.75,-1187 135.75,-1187 135.75,-1216 135.75,-1216 135.75,-1222 129.75,-1228 123.75,-1228 123.75,-1228 77.75,-1228 77.75,-1228 71.75,-1228 65.75,-1222 65.75,-1216 65.75,-1216 65.75,-1187 65.75,-1187 65.75,-1181 71.75,-1175 77.75,-1175"/>
<text text-anchor="middle" x="100.75" y="-1215.45" font-family="Helvetica,sans-Serif" font-weight="bold" font-size="9.00">view</text>
</g>
<!-- src/js/application/Application.js -->
<g id="node1" class="node">
<title>src/js/application/Application.js</title>
<g id="a_node1"><a xlink:href="src/js/application/Application.js" xlink:title="Application.js">
<path fill="#ffffcc" stroke="black" d="M642.96,-605.25C642.96,-605.25 584.54,-605.25 584.54,-605.25 581.46,-605.25 578.38,-602.17 578.38,-599.08 578.38,-599.08 578.38,-592.92 578.38,-592.92 578.38,-589.83 581.46,-586.75 584.54,-586.75 584.54,-586.75 642.96,-586.75 642.96,-586.75 646.04,-586.75 649.12,-589.83 649.12,-592.92 649.12,-592.92 649.12,-599.08 649.12,-599.08 649.12,-602.17 646.04,-605.25 642.96,-605.25"/>
<text text-anchor="start" x="586.38" y="-592.7" font-family="Helvetica,sans-Serif" font-size="9.00">Application.js</text>
</a>
</g>
</g>
<!-- src/js/application/ApplicationConfiguration.js -->
<g id="node2" class="node">
<title>src/js/application/ApplicationConfiguration.js</title>
<g id="a_node2"><a xlink:href="src/js/application/ApplicationConfiguration.js" xlink:title="ApplicationConfiguration.js">
<path fill="#ffffcc" stroke="black" d="M807.08,-605.25C807.08,-605.25 693.17,-605.25 693.17,-605.25 690.08,-605.25 687,-602.17 687,-599.08 687,-599.08 687,-592.92 687,-592.92 687,-589.83 690.08,-586.75 693.17,-586.75 693.17,-586.75 807.08,-586.75 807.08,-586.75 810.17,-586.75 813.25,-589.83 813.25,-592.92 813.25,-592.92 813.25,-599.08 813.25,-599.08 813.25,-602.17 810.17,-605.25 807.08,-605.25"/>
<text text-anchor="start" x="695" y="-592.7" font-family="Helvetica,sans-Serif" font-size="9.00">ApplicationConfiguration.js</text>
</a>
</g>
</g>
<!-- src/js/application/Application.js&#45;&gt;src/js/application/ApplicationConfiguration.js -->
<g id="edge1" class="edge">
<title>src/js/application/Application.js&#45;&gt;src/js/application/ApplicationConfiguration.js</title>
<path fill="none" stroke="#000000" stroke-width="2" stroke-opacity="0.200000" d="M649.35,-596C658.2,-596 668.03,-596 677.98,-596"/>
<polygon fill="#000000" fill-opacity="0.200000" stroke="#000000" stroke-width="2" stroke-opacity="0.200000" points="677.71,-598.1 683.71,-596 677.71,-593.9 677.71,-598.1"/>
</g>
<!-- src/js/application/ApplicationLogger.js -->
<g id="node3" class="node">
<title>src/js/application/ApplicationLogger.js</title>
<g id="a_node3"><a xlink:href="src/js/application/ApplicationLogger.js" xlink:title="ApplicationLogger.js">
<path fill="#ffffcc" stroke="black" d="M793.58,-574.25C793.58,-574.25 706.67,-574.25 706.67,-574.25 703.58,-574.25 700.5,-571.17 700.5,-568.08 700.5,-568.08 700.5,-561.92 700.5,-561.92 700.5,-558.83 703.58,-555.75 706.67,-555.75 706.67,-555.75 793.58,-555.75 793.58,-555.75 796.67,-555.75 799.75,-558.83 799.75,-561.92 799.75,-561.92 799.75,-568.08 799.75,-568.08 799.75,-571.17 796.67,-574.25 793.58,-574.25"/>
<text text-anchor="start" x="708.5" y="-561.7" font-family="Helvetica,sans-Serif" font-size="9.00">ApplicationLogger.js</text>
</a>
</g>
</g>
<!-- src/js/application/Application.js&#45;&gt;src/js/application/ApplicationLogger.js -->
<g id="edge2" class="edge">
<title>src/js/application/Application.js&#45;&gt;src/js/application/ApplicationLogger.js</title>
<path fill="none" stroke="#000000" stroke-width="2" stroke-opacity="0.200000" d="M649.35,-588.02C664.32,-584.56 682.13,-580.46 698.54,-576.67"/>
<polygon fill="#000000" fill-opacity="0.200000" stroke="#000000" stroke-width="2" stroke-opacity="0.200000" points="698.64,-578.8 704.01,-575.41 697.69,-574.71 698.64,-578.8"/>
</g>
<!-- src/js/data/Data.json -->
<g id="node4" class="node">
<title>src/js/data/Data.json</title>
<g id="a_node4"><a xlink:href="src/js/data/Data.json" xlink:title="Data.json">
<path fill="#ffee44" stroke="black" d="M283.96,-225.25C283.96,-225.25 241.29,-225.25 241.29,-225.25 238.21,-225.25 235.12,-222.17 235.12,-219.08 235.12,-219.08 235.12,-212.92 235.12,-212.92 235.12,-209.83 238.21,-206.75 241.29,-206.75 241.29,-206.75 283.96,-206.75 283.96,-206.75 287.04,-206.75 290.12,-209.83 290.12,-212.92 290.12,-212.92 290.12,-219.08 290.12,-219.08 290.12,-222.17 287.04,-225.25 283.96,-225.25"/>
<text text-anchor="start" x="243.12" y="-212.7" font-family="Helvetica,sans-Serif" font-size="9.00">Data.json</text>
</a>
</g>
</g>
<!-- src/js/data/DataController.js -->
<g id="node5" class="node">
<title>src/js/data/DataController.js</title>
<g id="a_node5"><a xlink:href="src/js/data/DataController.js" xlink:title="DataController.js">
<path fill="#ffffcc" stroke="black" d="M136.71,-225.25C136.71,-225.25 64.79,-225.25 64.79,-225.25 61.71,-225.25 58.62,-222.17 58.62,-219.08 58.62,-219.08 58.62,-212.92 58.62,-212.92 58.62,-209.83 61.71,-206.75 64.79,-206.75 64.79,-206.75 136.71,-206.75 136.71,-206.75 139.79,-206.75 142.88,-209.83 142.88,-212.92 142.88,-212.92 142.88,-219.08 142.88,-219.08 142.88,-222.17 139.79,-225.25 136.71,-225.25"/>
<text text-anchor="start" x="66.62" y="-212.7" font-family="Helvetica,sans-Serif" font-size="9.00">DataController.js</text>
</a>
</g>
</g>
<!-- src/js/data/DataController.js&#45;&gt;src/js/data/Data.json -->
<g id="edge3" class="edge">
<title>src/js/data/DataController.js&#45;&gt;src/js/data/Data.json</title>
<path fill="none" stroke="#000000" stroke-width="2" stroke-opacity="0.200000" d="M143.34,-216C168.93,-216 201.41,-216 225.85,-216"/>
<polygon fill="#000000" fill-opacity="0.200000" stroke="#000000" stroke-width="2" stroke-opacity="0.200000" points="225.77,-218.1 231.77,-216 225.77,-213.9 225.77,-218.1"/>
</g>
<!-- src/js/directable/Directable.js -->
<g id="node6" class="node">
<title>src/js/directable/Directable.js</title>
<g id="a_node6"><a xlink:href="src/js/directable/Directable.js" xlink:title="Directable.js">
<path fill="#ffffcc" stroke="black" d="M777.46,-127.25C777.46,-127.25 722.79,-127.25 722.79,-127.25 719.71,-127.25 716.62,-124.17 716.62,-121.08 716.62,-121.08 716.62,-114.92 716.62,-114.92 716.62,-111.83 719.71,-108.75 722.79,-108.75 722.79,-108.75 777.46,-108.75 777.46,-108.75 780.54,-108.75 783.62,-111.83 783.62,-114.92 783.62,-114.92 783.62,-121.08 783.62,-121.08 783.62,-124.17 780.54,-127.25 777.46,-127.25"/>
<text text-anchor="start" x="724.62" y="-114.7" font-family="Helvetica,sans-Serif" font-size="9.00">Directable.js</text>
</a>
</g>
</g>
<!-- src/js/directable/directables/frame/DirectableFrame.js -->
<g id="node7" class="node">
<title>src/js/directable/directables/frame/DirectableFrame.js</title>
<g id="a_node7"><a xlink:href="src/js/directable/directables/frame/DirectableFrame.js" xlink:title="DirectableFrame.js">
<path fill="#ffffcc" stroke="black" d="M500.21,-66.25C500.21,-66.25 419.29,-66.25 419.29,-66.25 416.21,-66.25 413.12,-63.17 413.12,-60.08 413.12,-60.08 413.12,-53.92 413.12,-53.92 413.12,-50.83 416.21,-47.75 419.29,-47.75 419.29,-47.75 500.21,-47.75 500.21,-47.75 503.29,-47.75 506.38,-50.83 506.38,-53.92 506.38,-53.92 506.38,-60.08 506.38,-60.08 506.38,-63.17 503.29,-66.25 500.21,-66.25"/>
<text text-anchor="start" x="421.12" y="-53.7" font-family="Helvetica,sans-Serif" font-size="9.00">DirectableFrame.js</text>
</a>
</g>
</g>
<!-- src/js/directable/directables/frame/DirectableFrame.js&#45;&gt;src/js/application/ApplicationLogger.js -->
<g id="edge4" class="edge">
<title>src/js/directable/directables/frame/DirectableFrame.js&#45;&gt;src/js/application/ApplicationLogger.js</title>
<path fill="none" stroke="#000000" stroke-width="2" stroke-opacity="0.200000" d="M503.1,-66.64C519.89,-72.72 537.6,-82.49 547.75,-98 564.67,-123.86 536.31,-351.98 555.75,-376 591.22,-419.82 637.52,-367.82 679,-406 687.27,-413.61 682.87,-419.54 687,-430 703.97,-472.92 727.56,-521.79 740.23,-547.32"/>
<polygon fill="#000000" fill-opacity="0.200000" stroke="#000000" stroke-width="2" stroke-opacity="0.200000" points="738.32,-548.19 742.88,-552.63 742.08,-546.32 738.32,-548.19"/>
</g>
<!-- src/js/directable/directables/frame/DirectableFrame.js&#45;&gt;src/js/directable/Directable.js -->
<g id="edge5" class="edge">
<title>src/js/directable/directables/frame/DirectableFrame.js&#45;&gt;src/js/directable/Directable.js</title>
<path fill="none" stroke="#000000" stroke-width="2" stroke-opacity="0.200000" d="M506.76,-66.73C562.19,-78.46 654.49,-97.98 707.76,-109.25"/>
<polygon fill="#000000" fill-opacity="0.200000" stroke="#000000" stroke-width="2" stroke-opacity="0.200000" points="707.02,-111.24 713.32,-110.43 707.88,-107.13 707.02,-111.24"/>
</g>
<!-- src/js/directable/directables/rhythm/DirectableRhythm.js -->
<g id="node8" class="node">
<title>src/js/directable/directables/rhythm/DirectableRhythm.js</title>
<g id="a_node8"><a xlink:href="src/js/directable/directables/rhythm/DirectableRhythm.js" xlink:title="DirectableRhythm.js">
<path fill="#ffffcc" stroke="black" d="M656.83,-196.25C656.83,-196.25 570.67,-196.25 570.67,-196.25 567.58,-196.25 564.5,-193.17 564.5,-190.08 564.5,-190.08 564.5,-183.92 564.5,-183.92 564.5,-180.83 567.58,-177.75 570.67,-177.75 570.67,-177.75 656.83,-177.75 656.83,-177.75 659.92,-177.75 663,-180.83 663,-183.92 663,-183.92 663,-190.08 663,-190.08 663,-193.17 659.92,-196.25 656.83,-196.25"/>
<text text-anchor="start" x="572.5" y="-183.7" font-family="Helvetica,sans-Serif" font-size="9.00">DirectableRhythm.js</text>
</a>
</g>
</g>
<!-- src/js/directable/directables/rhythm/DirectableRhythm.js&#45;&gt;src/js/application/ApplicationLogger.js -->
<g id="edge6" class="edge">
<title>src/js/directable/directables/rhythm/DirectableRhythm.js&#45;&gt;src/js/application/ApplicationLogger.js</title>
<path fill="none" stroke="#000000" stroke-width="2" stroke-opacity="0.200000" d="M617.9,-196.57C627.6,-226.19 657.65,-319.04 679,-397 682.99,-411.56 682.04,-415.75 687,-430 702.16,-473.6 726.47,-522.19 739.74,-547.51"/>
<polygon fill="#000000" fill-opacity="0.200000" stroke="#000000" stroke-width="2" stroke-opacity="0.200000" points="737.86,-548.45 742.52,-552.77 741.57,-546.48 737.86,-548.45"/>
</g>
<!-- src/js/directable/directables/rhythm/DirectableRhythm.js&#45;&gt;src/js/directable/Directable.js -->
<g id="edge7" class="edge">
<title>src/js/directable/directables/rhythm/DirectableRhythm.js&#45;&gt;src/js/directable/Directable.js</title>
<path fill="none" stroke="#000000" stroke-width="2" stroke-opacity="0.200000" d="M663.27,-179.78C668.7,-178.21 674.05,-176.31 679,-174 700.16,-164.12 720.58,-146.62 733.87,-133.8"/>
<polygon fill="#000000" fill-opacity="0.200000" stroke="#000000" stroke-width="2" stroke-opacity="0.200000" points="735.2,-135.44 737.99,-129.72 732.25,-132.45 735.2,-135.44"/>
</g>
<!-- src/js/directable/directables/rhythm/asdr/ASDRData.js -->
<g id="node9" class="node">
<title>src/js/directable/directables/rhythm/asdr/ASDRData.js</title>
<g id="a_node9"><a xlink:href="src/js/directable/directables/rhythm/asdr/ASDRData.js" xlink:title="ASDRData.js">
<path fill="#ccffcc" stroke="black" d="M488.58,-257.25C488.58,-257.25 430.92,-257.25 430.92,-257.25 427.83,-257.25 424.75,-254.17 424.75,-251.08 424.75,-251.08 424.75,-244.92 424.75,-244.92 424.75,-241.83 427.83,-238.75 430.92,-238.75 430.92,-238.75 488.58,-238.75 488.58,-238.75 491.67,-238.75 494.75,-241.83 494.75,-244.92 494.75,-244.92 494.75,-251.08 494.75,-251.08 494.75,-254.17 491.67,-257.25 488.58,-257.25"/>
<text text-anchor="start" x="432.75" y="-244.7" font-family="Helvetica,sans-Serif" font-size="9.00">ASDRData.js</text>
</a>
</g>
</g>
<!-- src/js/directable/directables/rhythm/asdr/ASDREnvelope.js -->
<g id="node10" class="node">
<title>src/js/directable/directables/rhythm/asdr/ASDREnvelope.js</title>
<g id="a_node10"><a xlink:href="src/js/directable/directables/rhythm/asdr/ASDREnvelope.js" xlink:title="ASDREnvelope.js">
<path fill="#ffffcc" stroke="black" d="M498.33,-319.25C498.33,-319.25 421.17,-319.25 421.17,-319.25 418.08,-319.25 415,-316.17 415,-313.08 415,-313.08 415,-306.92 415,-306.92 415,-303.83 418.08,-300.75 421.17,-300.75 421.17,-300.75 498.33,-300.75 498.33,-300.75 501.42,-300.75 504.5,-303.83 504.5,-306.92 504.5,-306.92 504.5,-313.08 504.5,-313.08 504.5,-316.17 501.42,-319.25 498.33,-319.25"/>
<text text-anchor="start" x="423" y="-306.7" font-family="Helvetica,sans-Serif" font-size="9.00">ASDREnvelope.js</text>
</a>
</g>
</g>
<!-- src/js/directable/directables/rhythm/asdr/ASDREnvelope.js&#45;&gt;src/js/application/ApplicationLogger.js -->
<g id="edge8" class="edge">
<title>src/js/directable/directables/rhythm/asdr/ASDREnvelope.js&#45;&gt;src/js/application/ApplicationLogger.js</title>
<path fill="none" stroke="#000000" stroke-width="2" stroke-opacity="0.200000" d="M469.8,-319.54C487.72,-339 527.71,-385.4 547.75,-432 555.08,-449.06 542.57,-459.93 555.75,-473 595.31,-512.24 629.6,-470.22 679,-496 703.2,-508.63 724.52,-532.39 737.12,-548.45"/>
<polygon fill="#000000" fill-opacity="0.200000" stroke="#000000" stroke-width="2" stroke-opacity="0.200000" points="735.45,-549.72 740.75,-553.23 738.79,-547.18 735.45,-549.72"/>
</g>
<!-- src/js/directable/directables/rhythm/asdr/DirectableRhythmASDRManager.js -->
<g id="node11" class="node">
<title>src/js/directable/directables/rhythm/asdr/DirectableRhythmASDRManager.js</title>
<g id="a_node11"><a xlink:href="src/js/directable/directables/rhythm/asdr/DirectableRhythmASDRManager.js" xlink:title="DirectableRhythmASDRManager.js">
<path fill="#ffffcc" stroke="black" d="M533.58,-288.25C533.58,-288.25 385.92,-288.25 385.92,-288.25 382.83,-288.25 379.75,-285.17 379.75,-282.08 379.75,-282.08 379.75,-275.92 379.75,-275.92 379.75,-272.83 382.83,-269.75 385.92,-269.75 385.92,-269.75 533.58,-269.75 533.58,-269.75 536.67,-269.75 539.75,-272.83 539.75,-275.92 539.75,-275.92 539.75,-282.08 539.75,-282.08 539.75,-285.17 536.67,-288.25 533.58,-288.25"/>
<text text-anchor="start" x="387.75" y="-275.7" font-family="Helvetica,sans-Serif" font-size="9.00">DirectableRhythmASDRManager.js</text>
</a>
</g>
</g>
<!-- src/js/directable/directables/rhythm/asdr/DirectableRhythmASDRManager.js&#45;&gt;src/js/application/ApplicationLogger.js -->
<g id="edge9" class="edge">
<title>src/js/directable/directables/rhythm/asdr/DirectableRhythmASDRManager.js&#45;&gt;src/js/application/ApplicationLogger.js</title>
<path fill="none" stroke="#000000" stroke-width="2" stroke-opacity="0.200000" d="M539.98,-288.03C542.81,-290.03 545.42,-292.34 547.75,-295 559.48,-308.39 543.83,-441.78 555.75,-455 592.87,-496.16 631.28,-445.81 679,-474 708.43,-491.39 729.89,-526.28 740.85,-547.45"/>
<polygon fill="#000000" fill-opacity="0.200000" stroke="#000000" stroke-width="2" stroke-opacity="0.200000" points="738.88,-548.19 743.43,-552.62 742.64,-546.32 738.88,-548.19"/>
</g>
<!-- src/js/directable/directables/rhythm/bpm/DirectableRhythmBPM.js -->
<g id="node12" class="node">
<title>src/js/directable/directables/rhythm/bpm/DirectableRhythmBPM.js</title>
<g id="a_node12"><a xlink:href="src/js/directable/directables/rhythm/bpm/DirectableRhythmBPM.js" xlink:title="DirectableRhythmBPM.js">
<path fill="#ffffcc" stroke="black" d="M512.58,-196.25C512.58,-196.25 406.92,-196.25 406.92,-196.25 403.83,-196.25 400.75,-193.17 400.75,-190.08 400.75,-190.08 400.75,-183.92 400.75,-183.92 400.75,-180.83 403.83,-177.75 406.92,-177.75 406.92,-177.75 512.58,-177.75 512.58,-177.75 515.67,-177.75 518.75,-180.83 518.75,-183.92 518.75,-183.92 518.75,-190.08 518.75,-190.08 518.75,-193.17 515.67,-196.25 512.58,-196.25"/>
<text text-anchor="start" x="408.75" y="-183.7" font-family="Helvetica,sans-Serif" font-size="9.00">DirectableRhythmBPM.js</text>
</a>
</g>
</g>
<!-- src/js/directable/directables/rhythm/bpm/DirectableRhythmBPM.js&#45;&gt;src/js/application/ApplicationLogger.js -->
<g id="edge10" class="edge">
<title>src/js/directable/directables/rhythm/bpm/DirectableRhythmBPM.js&#45;&gt;src/js/application/ApplicationLogger.js</title>
<path fill="none" stroke="#000000" stroke-width="2" stroke-opacity="0.200000" d="M503.02,-196.68C519.81,-202.78 537.52,-212.54 547.75,-228 560.39,-247.1 540.71,-416.73 555.75,-434 592.29,-475.96 632.7,-425.14 679,-456 712.37,-478.24 733.27,-522.35 742.88,-547.09"/>
<polygon fill="#000000" fill-opacity="0.200000" stroke="#000000" stroke-width="2" stroke-opacity="0.200000" points="740.91,-547.81 744.96,-552.7 744.85,-546.35 740.91,-547.81"/>
</g>
<!-- src/js/directable/directables/rhythm/bpm/DirectableRhythmBPM.js&#45;&gt;src/js/directable/directables/rhythm/DirectableRhythm.js -->
<g id="edge11" class="edge">
<title>src/js/directable/directables/rhythm/bpm/DirectableRhythmBPM.js&#45;&gt;src/js/directable/directables/rhythm/DirectableRhythm.js</title>
<path fill="none" stroke="#000000" stroke-width="2" stroke-opacity="0.200000" d="M519.08,-187C530.96,-187 543.44,-187 555.29,-187"/>
<polygon fill="#000000" fill-opacity="0.200000" stroke="#000000" stroke-width="2" stroke-opacity="0.200000" points="555.17,-189.1 561.17,-187 555.17,-184.9 555.17,-189.1"/>
</g>
<!-- src/js/directable/directables/title/DirectableTitle.js -->
<g id="node13" class="node">
<title>src/js/directable/directables/title/DirectableTitle.js</title>
<g id="a_node13"><a xlink:href="src/js/directable/directables/title/DirectableTitle.js" xlink:title="DirectableTitle.js">
<path fill="#ffffcc" stroke="black" d="M495.71,-127.25C495.71,-127.25 423.79,-127.25 423.79,-127.25 420.71,-127.25 417.62,-124.17 417.62,-121.08 417.62,-121.08 417.62,-114.92 417.62,-114.92 417.62,-111.83 420.71,-108.75 423.79,-108.75 423.79,-108.75 495.71,-108.75 495.71,-108.75 498.79,-108.75 501.88,-111.83 501.88,-114.92 501.88,-114.92 501.88,-121.08 501.88,-121.08 501.88,-124.17 498.79,-127.25 495.71,-127.25"/>
<text text-anchor="start" x="425.62" y="-114.7" font-family="Helvetica,sans-Serif" font-size="9.00">DirectableTitle.js</text>
</a>
</g>
</g>
<!-- src/js/directable/directables/title/DirectableTitle.js&#45;&gt;src/js/application/ApplicationLogger.js -->
<g id="edge12" class="edge">
<title>src/js/directable/directables/title/DirectableTitle.js&#45;&gt;src/js/application/ApplicationLogger.js</title>
<path fill="none" stroke="#000000" stroke-width="2" stroke-opacity="0.200000" d="M493.85,-127.59C513.11,-135.03 535.87,-147.44 547.75,-167 561.48,-189.62 539.05,-384.47 555.75,-405 591.32,-448.74 634.37,-400.55 679,-435 716.39,-463.86 736.27,-518.48 744.49,-546.86"/>
<polygon fill="#000000" fill-opacity="0.200000" stroke="#000000" stroke-width="2" stroke-opacity="0.200000" points="742.42,-547.25 746.04,-552.48 746.47,-546.14 742.42,-547.25"/>
</g>
<!-- src/js/directable/directables/title/DirectableTitle.js&#45;&gt;src/js/directable/Directable.js -->
<g id="edge13" class="edge">
<title>src/js/directable/directables/title/DirectableTitle.js&#45;&gt;src/js/directable/Directable.js</title>
<path fill="none" stroke="#000000" stroke-width="2" stroke-opacity="0.200000" d="M502.37,-118C557.19,-118 653.01,-118 707.72,-118"/>
<polygon fill="#000000" fill-opacity="0.200000" stroke="#000000" stroke-width="2" stroke-opacity="0.200000" points="707.43,-120.1 713.43,-118 707.43,-115.9 707.43,-120.1"/>
</g>
<!-- src/js/director/Director.js -->
<g id="node14" class="node">
<title>src/js/director/Director.js</title>
<g id="a_node14"><a xlink:href="src/js/director/Director.js" xlink:title="Director.js">
<path fill="#ffffcc" stroke="black" d="M481.83,-469.25C481.83,-469.25 437.67,-469.25 437.67,-469.25 434.58,-469.25 431.5,-466.17 431.5,-463.08 431.5,-463.08 431.5,-456.92 431.5,-456.92 431.5,-453.83 434.58,-450.75 437.67,-450.75 437.67,-450.75 481.83,-450.75 481.83,-450.75 484.92,-450.75 488,-453.83 488,-456.92 488,-456.92 488,-463.08 488,-463.08 488,-466.17 484.92,-469.25 481.83,-469.25"/>
<text text-anchor="start" x="439.5" y="-456.7" font-family="Helvetica,sans-Serif" font-size="9.00">Director.js</text>
</a>
</g>
</g>
<!-- src/js/director/directors/DirectorDanceRabbitDance.js -->
<g id="node15" class="node">
<title>src/js/director/directors/DirectorDanceRabbitDance.js</title>
<g id="a_node15"><a xlink:href="src/js/director/directors/DirectorDanceRabbitDance.js" xlink:title="DirectorDanceRabbitDance.js">
<path fill="#ffffcc" stroke="black" d="M325.58,-469.25C325.58,-469.25 199.67,-469.25 199.67,-469.25 196.58,-469.25 193.5,-466.17 193.5,-463.08 193.5,-463.08 193.5,-456.92 193.5,-456.92 193.5,-453.83 196.58,-450.75 199.67,-450.75 199.67,-450.75 325.58,-450.75 325.58,-450.75 328.67,-450.75 331.75,-453.83 331.75,-456.92 331.75,-456.92 331.75,-463.08 331.75,-463.08 331.75,-466.17 328.67,-469.25 325.58,-469.25"/>
<text text-anchor="start" x="201.5" y="-456.7" font-family="Helvetica,sans-Serif" font-size="9.00">DirectorDanceRabbitDance.js</text>
</a>
</g>
</g>
<!-- src/js/director/directors/DirectorDanceRabbitDance.js&#45;&gt;src/js/application/ApplicationLogger.js -->
<g id="edge14" class="edge">
<title>src/js/director/directors/DirectorDanceRabbitDance.js&#45;&gt;src/js/application/ApplicationLogger.js</title>
<path fill="none" stroke="#000000" stroke-width="2" stroke-opacity="0.200000" d="M282.45,-469.73C299.15,-477.89 324.43,-489.13 347.75,-495 491.22,-531.14 537.33,-485.35 679,-528 696.19,-533.17 714.06,-542.68 727.46,-550.76"/>
<polygon fill="#000000" fill-opacity="0.200000" stroke="#000000" stroke-width="2" stroke-opacity="0.200000" points="726.02,-552.33 732.22,-553.71 728.23,-548.76 726.02,-552.33"/>
</g>
<!-- src/js/director/directors/DirectorDanceRabbitDance.js&#45;&gt;src/js/directable/directables/rhythm/bpm/DirectableRhythmBPM.js -->
<g id="edge15" class="edge">
<title>src/js/director/directors/DirectorDanceRabbitDance.js&#45;&gt;src/js/directable/directables/rhythm/bpm/DirectableRhythmBPM.js</title>
<path fill="none" stroke="#000000" stroke-width="2" stroke-opacity="0.200000" d="M267.51,-450.27C279.13,-420.98 314.41,-330.99 339.75,-255 343.71,-243.13 339.2,-237.14 347.75,-228 360.3,-214.6 377.62,-205.56 394.84,-199.46"/>
<polygon fill="#000000" fill-opacity="0.200000" stroke="#000000" stroke-width="2" stroke-opacity="0.200000" points="395.34,-201.51 400.39,-197.65 394.04,-197.52 395.34,-201.51"/>
</g>
<!-- src/js/director/directors/DirectorDanceRabbitDance.js&#45;&gt;src/js/directable/directables/title/DirectableTitle.js -->
<g id="edge16" class="edge">
<title>src/js/director/directors/DirectorDanceRabbitDance.js&#45;&gt;src/js/directable/directables/title/DirectableTitle.js</title>
<path fill="none" stroke="#000000" stroke-width="2" stroke-opacity="0.200000" d="M268.21,-450.47C281.8,-421.73 322.03,-333.12 339.75,-255 344.09,-235.85 336.29,-182.95 347.75,-167 362.13,-146.97 386.57,-135.02 408.86,-127.94"/>
<polygon fill="#000000" fill-opacity="0.200000" stroke="#000000" stroke-width="2" stroke-opacity="0.200000" points="409.2,-130.02 414.36,-126.31 408.02,-126 409.2,-130.02"/>
</g>
<!-- src/js/director/directors/DirectorDanceRabbitDance.js&#45;&gt;src/js/director/Director.js -->
<g id="edge17" class="edge">
<title>src/js/director/directors/DirectorDanceRabbitDance.js&#45;&gt;src/js/director/Director.js</title>
<path fill="none" stroke="#000000" stroke-width="2" stroke-opacity="0.200000" d="M332.14,-460C362.46,-460 396.9,-460 422.19,-460"/>
<polygon fill="#000000" fill-opacity="0.200000" stroke="#000000" stroke-width="2" stroke-opacity="0.200000" points="422.05,-462.1 428.05,-460 422.05,-457.9 422.05,-462.1"/>
</g>
<!-- src/js/event/ApplicationEvent.js -->
<g id="node16" class="node">
<title>src/js/event/ApplicationEvent.js</title>
<g id="a_node16"><a xlink:href="src/js/event/ApplicationEvent.js" xlink:title="ApplicationEvent.js">
<path fill="#ffffcc" stroke="black" d="M303.46,-557.25C303.46,-557.25 221.79,-557.25 221.79,-557.25 218.71,-557.25 215.62,-554.17 215.62,-551.08 215.62,-551.08 215.62,-544.92 215.62,-544.92 215.62,-541.83 218.71,-538.75 221.79,-538.75 221.79,-538.75 303.46,-538.75 303.46,-538.75 306.54,-538.75 309.62,-541.83 309.62,-544.92 309.62,-544.92 309.62,-551.08 309.62,-551.08 309.62,-554.17 306.54,-557.25 303.46,-557.25"/>
<text text-anchor="start" x="223.62" y="-544.7" font-family="Helvetica,sans-Serif" font-size="9.00">ApplicationEvent.js</text>
</a>
</g>
</g>
<!-- src/js/event/ApplicationEventDispatcher.js -->
<g id="node17" class="node">
<title>src/js/event/ApplicationEventDispatcher.js</title>
<g id="a_node17"><a xlink:href="src/js/event/ApplicationEventDispatcher.js" xlink:title="ApplicationEventDispatcher.js">
<path fill="#ffffcc" stroke="black" d="M163.33,-557.25C163.33,-557.25 38.17,-557.25 38.17,-557.25 35.08,-557.25 32,-554.17 32,-551.08 32,-551.08 32,-544.92 32,-544.92 32,-541.83 35.08,-538.75 38.17,-538.75 38.17,-538.75 163.33,-538.75 163.33,-538.75 166.42,-538.75 169.5,-541.83 169.5,-544.92 169.5,-544.92 169.5,-551.08 169.5,-551.08 169.5,-554.17 166.42,-557.25 163.33,-557.25"/>
<text text-anchor="start" x="40" y="-544.7" font-family="Helvetica,sans-Serif" font-size="9.00">ApplicationEventDispatcher.js</text>
</a>
</g>
</g>
<!-- src/js/event/ApplicationEventDispatcher.js&#45;&gt;src/js/event/ApplicationEvent.js -->
<g id="edge18" class="edge">
<title>src/js/event/ApplicationEventDispatcher.js&#45;&gt;src/js/event/ApplicationEvent.js</title>
<path fill="none" stroke="#000000" stroke-width="2" stroke-opacity="0.200000" d="M169.55,-548C181.89,-548 194.63,-548 206.55,-548"/>
<polygon fill="#000000" fill-opacity="0.200000" stroke="#000000" stroke-width="2" stroke-opacity="0.200000" points="206.46,-550.1 212.46,-548 206.46,-545.9 206.46,-550.1"/>
</g>
<!-- src/js/index.js -->
<g id="node18" class="node">
<title>src/js/index.js</title>
<g id="a_node18"><a xlink:href="src/js/index.js" xlink:title="index.js">
<path fill="#ffffcc" stroke="black" d="M480.58,-634.25C480.58,-634.25 438.92,-634.25 438.92,-634.25 435.83,-634.25 432.75,-631.17 432.75,-628.08 432.75,-628.08 432.75,-621.92 432.75,-621.92 432.75,-618.83 435.83,-615.75 438.92,-615.75 438.92,-615.75 480.58,-615.75 480.58,-615.75 483.67,-615.75 486.75,-618.83 486.75,-621.92 486.75,-621.92 486.75,-628.08 486.75,-628.08 486.75,-631.17 483.67,-634.25 480.58,-634.25"/>
<text text-anchor="start" x="444" y="-621.7" font-family="Helvetica,sans-Serif" font-size="9.00">index.js</text>
</a>
</g>
</g>
<!-- src/js/index.js&#45;&gt;src/js/application/Application.js -->
<g id="edge19" class="edge">
<title>src/js/index.js&#45;&gt;src/js/application/Application.js</title>
<path fill="none" stroke="#000000" stroke-width="2" stroke-opacity="0.200000" d="M487.1,-621.23C504.4,-618.64 527.48,-614.96 547.75,-611 554.86,-609.61 562.37,-608 569.67,-606.37"/>
<polygon fill="#000000" fill-opacity="0.200000" stroke="#000000" stroke-width="2" stroke-opacity="0.200000" points="569.76,-608.5 575.15,-605.12 568.83,-604.41 569.76,-608.5"/>
</g>
<!-- src/js/overlay/Overlay.js -->
<g id="node19" class="node">
<title>src/js/overlay/Overlay.js</title>
<g id="a_node19"><a xlink:href="src/js/overlay/Overlay.js" xlink:title="Overlay.js">
<path fill="#ffffcc" stroke="black" d="M122.46,-777.25C122.46,-777.25 79.04,-777.25 79.04,-777.25 75.96,-777.25 72.88,-774.17 72.88,-771.08 72.88,-771.08 72.88,-764.92 72.88,-764.92 72.88,-761.83 75.96,-758.75 79.04,-758.75 79.04,-758.75 122.46,-758.75 122.46,-758.75 125.54,-758.75 128.62,-761.83 128.62,-764.92 128.62,-764.92 128.62,-771.08 128.62,-771.08 128.62,-774.17 125.54,-777.25 122.46,-777.25"/>
<text text-anchor="start" x="80.88" y="-764.7" font-family="Helvetica,sans-Serif" font-size="9.00">Overlay.js</text>
</a>
</g>
</g>
<!-- src/js/overlay/Overlay.js&#45;&gt;src/js/application/ApplicationConfiguration.js -->
<g id="edge20" class="edge">
<title>src/js/overlay/Overlay.js&#45;&gt;src/js/application/ApplicationConfiguration.js</title>
<path fill="none" stroke="#000000" stroke-width="2" stroke-opacity="0.200000" d="M104.98,-758.44C113.24,-735.47 137.34,-676.8 177.5,-646 237.27,-600.16 289.7,-653.3 339.75,-597 353.25,-581.82 332.18,-565.05 347.75,-552 376,-528.33 646.94,-551.81 679,-570 683.95,-572.81 682.22,-576.91 687,-580 688.44,-580.93 689.93,-581.81 691.46,-582.63"/>
<polygon fill="#000000" fill-opacity="0.200000" stroke="#000000" stroke-width="2" stroke-opacity="0.200000" points="690.32,-584.42 696.64,-585.06 692.1,-580.61 690.32,-584.42"/>
</g>
<!-- src/js/overlay/Overlay.js&#45;&gt;src/js/application/ApplicationLogger.js -->
<g id="edge21" class="edge">
<title>src/js/overlay/Overlay.js&#45;&gt;src/js/application/ApplicationLogger.js</title>
<path fill="none" stroke="#000000" stroke-width="2" stroke-opacity="0.200000" d="M102.67,-758.56C106.11,-728.93 121.08,-637.41 177.5,-598 207.13,-577.31 312.98,-611.28 339.75,-587 355.77,-572.47 331.25,-552.98 347.75,-539 403.93,-491.41 606.3,-534.35 679,-546 689.21,-547.64 700.07,-550.17 710.12,-552.87"/>
<polygon fill="#000000" fill-opacity="0.200000" stroke="#000000" stroke-width="2" stroke-opacity="0.200000" points="709.45,-554.86 715.79,-554.44 710.58,-550.81 709.45,-554.86"/>
</g>
<!-- src/js/overlay/capture/OverlayCapture.js -->
<g id="node20" class="node">
<title>src/js/overlay/capture/OverlayCapture.js</title>
<g id="a_node20"><a xlink:href="src/js/overlay/capture/OverlayCapture.js" xlink:title="OverlayCapture.js">
<path fill="#ffffcc" stroke="black" d="M301.21,-747.25C301.21,-747.25 224.04,-747.25 224.04,-747.25 220.96,-747.25 217.88,-744.17 217.88,-741.08 217.88,-741.08 217.88,-734.92 217.88,-734.92 217.88,-731.83 220.96,-728.75 224.04,-728.75 224.04,-728.75 301.21,-728.75 301.21,-728.75 304.29,-728.75 307.38,-731.83 307.38,-734.92 307.38,-734.92 307.38,-741.08 307.38,-741.08 307.38,-744.17 304.29,-747.25 301.21,-747.25"/>
<text text-anchor="start" x="225.88" y="-734.7" font-family="Helvetica,sans-Serif" font-size="9.00">OverlayCapture.js</text>
</a>
</g>
</g>
<!-- src/js/overlay/Overlay.js&#45;&gt;src/js/overlay/capture/OverlayCapture.js -->
<g id="edge22" class="edge">
<title>src/js/overlay/Overlay.js&#45;&gt;src/js/overlay/capture/OverlayCapture.js</title>
<path fill="none" stroke="#000000" stroke-width="2" stroke-opacity="0.200000" d="M128.87,-762.91C150.64,-758.83 181.87,-752.97 208.57,-747.95"/>
<polygon fill="#000000" fill-opacity="0.200000" stroke="#000000" stroke-width="2" stroke-opacity="0.200000" points="208.95,-750.02 214.46,-746.85 208.18,-745.89 208.95,-750.02"/>
</g>
<!-- src/js/overlay/dispatcher/OverlayDispatcher.js -->
<g id="node21" class="node">
<title>src/js/overlay/dispatcher/OverlayDispatcher.js</title>
<g id="a_node21"><a xlink:href="src/js/overlay/dispatcher/OverlayDispatcher.js" xlink:title="OverlayDispatcher.js">
<path fill="#ffffcc" stroke="black" d="M657.58,-676.25C657.58,-676.25 569.92,-676.25 569.92,-676.25 566.83,-676.25 563.75,-673.17 563.75,-670.08 563.75,-670.08 563.75,-663.92 563.75,-663.92 563.75,-660.83 566.83,-657.75 569.92,-657.75 569.92,-657.75 657.58,-657.75 657.58,-657.75 660.67,-657.75 663.75,-660.83 663.75,-663.92 663.75,-663.92 663.75,-670.08 663.75,-670.08 663.75,-673.17 660.67,-676.25 657.58,-676.25"/>
<text text-anchor="start" x="571.75" y="-663.7" font-family="Helvetica,sans-Serif" font-size="9.00">OverlayDispatcher.js</text>
</a>
</g>
</g>
<!-- src/js/overlay/Overlay.js&#45;&gt;src/js/overlay/dispatcher/OverlayDispatcher.js -->
<g id="edge23" class="edge">
<title>src/js/overlay/Overlay.js&#45;&gt;src/js/overlay/dispatcher/OverlayDispatcher.js</title>
<path fill="none" stroke="#000000" stroke-width="2" stroke-opacity="0.200000" d="M104.76,-758.54C112.53,-735.96 135.62,-679.12 177.5,-657 209.95,-639.86 443.73,-654.49 554.64,-662.54"/>
<polygon fill="#000000" fill-opacity="0.200000" stroke="#000000" stroke-width="2" stroke-opacity="0.200000" points="554.22,-664.62 560.36,-662.96 554.53,-660.43 554.22,-664.62"/>
</g>
<!-- src/js/overlay/format/OverlayFormat.js -->
<g id="node22" class="node">
<title>src/js/overlay/format/OverlayFormat.js</title>
<g id="a_node22"><a xlink:href="src/js/overlay/format/OverlayFormat.js" xlink:title="OverlayFormat.js">
<path fill="#ffffcc" stroke="black" d="M298.96,-808.25C298.96,-808.25 226.29,-808.25 226.29,-808.25 223.21,-808.25 220.12,-805.17 220.12,-802.08 220.12,-802.08 220.12,-795.92 220.12,-795.92 220.12,-792.83 223.21,-789.75 226.29,-789.75 226.29,-789.75 298.96,-789.75 298.96,-789.75 302.04,-789.75 305.12,-792.83 305.12,-795.92 305.12,-795.92 305.12,-802.08 305.12,-802.08 305.12,-805.17 302.04,-808.25 298.96,-808.25"/>
<text text-anchor="start" x="228.12" y="-795.7" font-family="Helvetica,sans-Serif" font-size="9.00">OverlayFormat.js</text>
</a>
</g>
</g>
<!-- src/js/overlay/Overlay.js&#45;&gt;src/js/overlay/format/OverlayFormat.js -->
<g id="edge24" class="edge">
<title>src/js/overlay/Overlay.js&#45;&gt;src/js/overlay/format/OverlayFormat.js</title>
<path fill="none" stroke="#000000" stroke-width="2" stroke-opacity="0.200000" d="M128.87,-773.26C151.38,-777.62 184,-783.95 211.27,-789.24"/>
<polygon fill="#000000" fill-opacity="0.200000" stroke="#000000" stroke-width="2" stroke-opacity="0.200000" points="210.66,-791.26 216.95,-790.34 211.46,-787.13 210.66,-791.26"/>
</g>
<!-- src/js/overlay/media/OverlayMedia.js -->
<g id="node23" class="node">
<title>src/js/overlay/media/OverlayMedia.js</title>
<g id="a_node23"><a xlink:href="src/js/overlay/media/OverlayMedia.js" xlink:title="OverlayMedia.js">
<path fill="#ffffcc" stroke="black" d="M297.46,-686.25C297.46,-686.25 227.79,-686.25 227.79,-686.25 224.71,-686.25 221.62,-683.17 221.62,-680.08 221.62,-680.08 221.62,-673.92 221.62,-673.92 221.62,-670.83 224.71,-667.75 227.79,-667.75 227.79,-667.75 297.46,-667.75 297.46,-667.75 300.54,-667.75 303.62,-670.83 303.62,-673.92 303.62,-673.92 303.62,-680.08 303.62,-680.08 303.62,-683.17 300.54,-686.25 297.46,-686.25"/>
<text text-anchor="start" x="229.62" y="-673.7" font-family="Helvetica,sans-Serif" font-size="9.00">OverlayMedia.js</text>
</a>
</g>
</g>
<!-- src/js/overlay/Overlay.js&#45;&gt;src/js/overlay/media/OverlayMedia.js -->
<g id="edge25" class="edge">
<title>src/js/overlay/Overlay.js&#45;&gt;src/js/overlay/media/OverlayMedia.js</title>
<path fill="none" stroke="#000000" stroke-width="2" stroke-opacity="0.200000" d="M115.1,-758.42C129.98,-747.93 154.92,-730.88 177.5,-718 195.05,-707.99 215.39,-698.03 231.68,-690.44"/>
<polygon fill="#000000" fill-opacity="0.200000" stroke="#000000" stroke-width="2" stroke-opacity="0.200000" points="232.47,-692.38 237.04,-687.96 230.71,-688.57 232.47,-692.38"/>
</g>
<!-- src/js/overlay/overlay/OverlayOverlay.js -->
<g id="node24" class="node">
<title>src/js/overlay/overlay/OverlayOverlay.js</title>
<g id="a_node24"><a xlink:href="src/js/overlay/overlay/OverlayOverlay.js" xlink:title="OverlayOverlay.js">
<path fill="#ffffcc" stroke="black" d="M300.08,-869.25C300.08,-869.25 225.17,-869.25 225.17,-869.25 222.08,-869.25 219,-866.17 219,-863.08 219,-863.08 219,-856.92 219,-856.92 219,-853.83 222.08,-850.75 225.17,-850.75 225.17,-850.75 300.08,-850.75 300.08,-850.75 303.17,-850.75 306.25,-853.83 306.25,-856.92 306.25,-856.92 306.25,-863.08 306.25,-863.08 306.25,-866.17 303.17,-869.25 300.08,-869.25"/>
<text text-anchor="start" x="227" y="-856.7" font-family="Helvetica,sans-Serif" font-size="9.00">OverlayOverlay.js</text>
</a>
</g>
</g>
<!-- src/js/overlay/Overlay.js&#45;&gt;src/js/overlay/overlay/OverlayOverlay.js -->
<g id="edge26" class="edge">
<title>src/js/overlay/Overlay.js&#45;&gt;src/js/overlay/overlay/OverlayOverlay.js</title>
<path fill="none" stroke="#000000" stroke-width="2" stroke-opacity="0.200000" d="M109.5,-777.74C122.11,-792.94 148.6,-822.18 177.5,-838 187.52,-843.49 198.98,-847.65 210.14,-850.8"/>
<polygon fill="#000000" fill-opacity="0.200000" stroke="#000000" stroke-width="2" stroke-opacity="0.200000" points="209.32,-852.76 215.65,-852.25 210.38,-848.69 209.32,-852.76"/>
</g>
<!-- src/js/overlay/pathtracer/OverlayPathTracer.js -->
<g id="node25" class="node">
<title>src/js/overlay/pathtracer/OverlayPathTracer.js</title>
<g id="a_node25"><a xlink:href="src/js/overlay/pathtracer/OverlayPathTracer.js" xlink:title="OverlayPathTracer.js">
<path fill="#ffffcc" stroke="black" d="M306.83,-930.25C306.83,-930.25 218.42,-930.25 218.42,-930.25 215.33,-930.25 212.25,-927.17 212.25,-924.08 212.25,-924.08 212.25,-917.92 212.25,-917.92 212.25,-914.83 215.33,-911.75 218.42,-911.75 218.42,-911.75 306.83,-911.75 306.83,-911.75 309.92,-911.75 313,-914.83 313,-917.92 313,-917.92 313,-924.08 313,-924.08 313,-927.17 309.92,-930.25 306.83,-930.25"/>
<text text-anchor="start" x="220.25" y="-917.7" font-family="Helvetica,sans-Serif" font-size="9.00">OverlayPathTracer.js</text>
</a>
</g>
</g>
<!-- src/js/overlay/Overlay.js&#45;&gt;src/js/overlay/pathtracer/OverlayPathTracer.js -->
<g id="edge27" class="edge">
<title>src/js/overlay/Overlay.js&#45;&gt;src/js/overlay/pathtracer/OverlayPathTracer.js</title>
<path fill="none" stroke="#000000" stroke-width="2" stroke-opacity="0.200000" d="M104.47,-777.64C111.86,-801.99 134.66,-866.36 177.5,-899 185.13,-904.81 194.16,-909.1 203.41,-912.25"/>
<polygon fill="#000000" fill-opacity="0.200000" stroke="#000000" stroke-width="2" stroke-opacity="0.200000" points="202.7,-914.23 209.05,-913.96 203.92,-910.21 202.7,-914.23"/>
</g>
<!-- src/js/overlay/rhythm/OverlayRhythm.js -->
<g id="node26" class="node">
<title>src/js/overlay/rhythm/OverlayRhythm.js</title>
<g id="a_node26"><a xlink:href="src/js/overlay/rhythm/OverlayRhythm.js" xlink:title="OverlayRhythm.js">
<path fill="#ffffcc" stroke="black" d="M300.46,-991.25C300.46,-991.25 224.79,-991.25 224.79,-991.25 221.71,-991.25 218.62,-988.17 218.62,-985.08 218.62,-985.08 218.62,-978.92 218.62,-978.92 218.62,-975.83 221.71,-972.75 224.79,-972.75 224.79,-972.75 300.46,-972.75 300.46,-972.75 303.54,-972.75 306.62,-975.83 306.62,-978.92 306.62,-978.92 306.62,-985.08 306.62,-985.08 306.62,-988.17 303.54,-991.25 300.46,-991.25"/>
<text text-anchor="start" x="226.62" y="-978.7" font-family="Helvetica,sans-Serif" font-size="9.00">OverlayRhythm.js</text>
</a>
</g>
</g>
<!-- src/js/overlay/Overlay.js&#45;&gt;src/js/overlay/rhythm/OverlayRhythm.js -->
<g id="edge28" class="edge">
<title>src/js/overlay/Overlay.js&#45;&gt;src/js/overlay/rhythm/OverlayRhythm.js</title>
<path fill="none" stroke="#000000" stroke-width="2" stroke-opacity="0.200000" d="M102.56,-777.7C105.74,-809.14 120.12,-909.12 177.5,-960 186.5,-967.98 198.04,-973.12 209.68,-976.42"/>
<polygon fill="#000000" fill-opacity="0.200000" stroke="#000000" stroke-width="2" stroke-opacity="0.200000" points="208.86,-978.38 215.19,-977.79 209.87,-974.31 208.86,-978.38"/>
</g>
<!-- src/js/overlay/teleprompt/OverlayTeleprompt.js -->
<g id="node27" class="node">
<title>src/js/overlay/teleprompt/OverlayTeleprompt.js</title>
<g id="a_node27"><a xlink:href="src/js/overlay/teleprompt/OverlayTeleprompt.js" xlink:title="OverlayTeleprompt.js">
<path fill="#ffffcc" stroke="black" d="M307.58,-1052.25C307.58,-1052.25 217.67,-1052.25 217.67,-1052.25 214.58,-1052.25 211.5,-1049.17 211.5,-1046.08 211.5,-1046.08 211.5,-1039.92 211.5,-1039.92 211.5,-1036.83 214.58,-1033.75 217.67,-1033.75 217.67,-1033.75 307.58,-1033.75 307.58,-1033.75 310.67,-1033.75 313.75,-1036.83 313.75,-1039.92 313.75,-1039.92 313.75,-1046.08 313.75,-1046.08 313.75,-1049.17 310.67,-1052.25 307.58,-1052.25"/>
<text text-anchor="start" x="219.5" y="-1039.7" font-family="Helvetica,sans-Serif" font-size="9.00">OverlayTeleprompt.js</text>
</a>
</g>
</g>
<!-- src/js/overlay/Overlay.js&#45;&gt;src/js/overlay/teleprompt/OverlayTeleprompt.js -->
<g id="edge29" class="edge">
<title>src/js/overlay/Overlay.js&#45;&gt;src/js/overlay/teleprompt/OverlayTeleprompt.js</title>
<path fill="none" stroke="#000000" stroke-width="2" stroke-opacity="0.200000" d="M101.52,-777.7C101.16,-815.07 105.1,-951.1 177.5,-1021 184.48,-1027.74 193.27,-1032.49 202.51,-1035.81"/>
<polygon fill="#000000" fill-opacity="0.200000" stroke="#000000" stroke-width="2" stroke-opacity="0.200000" points="201.84,-1037.8 208.19,-1037.58 203.09,-1033.79 201.84,-1037.8"/>
</g>
<!-- src/js/overlay/OverlayUtil.js -->
<g id="node28" class="node">
<title>src/js/overlay/OverlayUtil.js</title>
<g id="a_node28"><a xlink:href="src/js/overlay/OverlayUtil.js" xlink:title="OverlayUtil.js">
<path fill="#ffffcc" stroke="black" d="M488.58,-777.25C488.58,-777.25 430.92,-777.25 430.92,-777.25 427.83,-777.25 424.75,-774.17 424.75,-771.08 424.75,-771.08 424.75,-764.92 424.75,-764.92 424.75,-761.83 427.83,-758.75 430.92,-758.75 430.92,-758.75 488.58,-758.75 488.58,-758.75 491.67,-758.75 494.75,-761.83 494.75,-764.92 494.75,-764.92 494.75,-771.08 494.75,-771.08 494.75,-774.17 491.67,-777.25 488.58,-777.25"/>
<text text-anchor="start" x="432.75" y="-764.7" font-family="Helvetica,sans-Serif" font-size="9.00">OverlayUtil.js</text>
</a>
</g>
</g>
<!-- src/js/overlay/capture/OverlayCapture.js&#45;&gt;src/js/overlay/OverlayUtil.js -->
<g id="edge32" class="edge">
<title>src/js/overlay/capture/OverlayCapture.js&#45;&gt;src/js/overlay/OverlayUtil.js</title>
<path fill="none" stroke="#000000" stroke-width="2" stroke-opacity="0.200000" d="M307.41,-744.73C339.77,-749.71 383.59,-756.44 415.75,-761.39"/>
<polygon fill="#000000" fill-opacity="0.200000" stroke="#000000" stroke-width="2" stroke-opacity="0.200000" points="415.26,-763.44 421.51,-762.27 415.89,-759.29 415.26,-763.44"/>
</g>
<!-- src/js/overlay/dispatcher/OverlayDispatcher.js&#45;&gt;src/js/application/ApplicationLogger.js -->
<g id="edge33" class="edge">
<title>src/js/overlay/dispatcher/OverlayDispatcher.js&#45;&gt;src/js/application/ApplicationLogger.js</title>
<path fill="none" stroke="#000000" stroke-width="2" stroke-opacity="0.200000" d="M648.42,-657.36C659.82,-652.46 671.53,-645.29 679,-635 693.25,-615.37 670.77,-599.03 687,-581 688.71,-579.1 690.62,-577.41 692.67,-575.91"/>
<polygon fill="#000000" fill-opacity="0.200000" stroke="#000000" stroke-width="2" stroke-opacity="0.200000" points="693.41,-577.91 697.51,-573.05 691.28,-574.29 693.41,-577.91"/>
</g>
<!-- src/js/overlay/dispatcher/OverlayDispatcherEvent.js -->
<g id="node29" class="node">
<title>src/js/overlay/dispatcher/OverlayDispatcherEvent.js</title>
<g id="a_node29"><a xlink:href="src/js/overlay/dispatcher/OverlayDispatcherEvent.js" xlink:title="OverlayDispatcherEvent.js">
<path fill="#ffffcc" stroke="black" d="M805.96,-676.25C805.96,-676.25 694.29,-676.25 694.29,-676.25 691.21,-676.25 688.12,-673.17 688.12,-670.08 688.12,-670.08 688.12,-663.92 688.12,-663.92 688.12,-660.83 691.21,-657.75 694.29,-657.75 694.29,-657.75 805.96,-657.75 805.96,-657.75 809.04,-657.75 812.12,-660.83 812.12,-663.92 812.12,-663.92 812.12,-670.08 812.12,-670.08 812.12,-673.17 809.04,-676.25 805.96,-676.25"/>
<text text-anchor="start" x="696.12" y="-663.7" font-family="Helvetica,sans-Serif" font-size="9.00">OverlayDispatcherEvent.js</text>
</a>
</g>
</g>
<!-- src/js/overlay/dispatcher/OverlayDispatcher.js&#45;&gt;src/js/overlay/dispatcher/OverlayDispatcherEvent.js -->
<g id="edge34" class="edge">
<title>src/js/overlay/dispatcher/OverlayDispatcher.js&#45;&gt;src/js/overlay/dispatcher/OverlayDispatcherEvent.js</title>
<path fill="none" stroke="#000000" stroke-width="2" stroke-opacity="0.200000" d="M664.02,-667C669.01,-667 674.15,-667 679.3,-667"/>
<polygon fill="#000000" fill-opacity="0.200000" stroke="#000000" stroke-width="2" stroke-opacity="0.200000" points="678.94,-669.1 684.94,-667 678.94,-664.9 678.94,-669.1"/>
</g>
<!-- src/js/overlay/format/OverlayFormat.js&#45;&gt;src/js/overlay/OverlayUtil.js -->
<g id="edge35" class="edge">
<title>src/js/overlay/format/OverlayFormat.js&#45;&gt;src/js/overlay/OverlayUtil.js</title>
<path fill="none" stroke="#000000" stroke-width="2" stroke-opacity="0.200000" d="M305.48,-792.35C337.93,-787.19 382.74,-780.08 415.53,-774.87"/>
<polygon fill="#000000" fill-opacity="0.200000" stroke="#000000" stroke-width="2" stroke-opacity="0.200000" points="415.85,-776.94 421.45,-773.93 415.19,-772.79 415.85,-776.94"/>
</g>
<!-- src/js/overlay/media/OverlayMedia.js&#45;&gt;src/js/overlay/OverlayUtil.js -->
<g id="edge36" class="edge">
<title>src/js/overlay/media/OverlayMedia.js&#45;&gt;src/js/overlay/OverlayUtil.js</title>
<path fill="none" stroke="#000000" stroke-width="2" stroke-opacity="0.200000" d="M284.51,-686.74C319.57,-703.09 390.33,-736.09 430.04,-754.61"/>
<polygon fill="#000000" fill-opacity="0.200000" stroke="#000000" stroke-width="2" stroke-opacity="0.200000" points="428.95,-756.42 435.27,-757.05 430.72,-752.61 428.95,-756.42"/>
</g>
<!-- src/js/overlay/pathtracer/OverlayPathTracer.js&#45;&gt;src/js/overlay/OverlayUtil.js -->
<g id="edge37" class="edge">
<title>src/js/overlay/pathtracer/OverlayPathTracer.js&#45;&gt;src/js/overlay/OverlayUtil.js</title>
<path fill="none" stroke="#000000" stroke-width="2" stroke-opacity="0.200000" d="M312.04,-911.36C321.64,-908.27 331.34,-904.24 339.75,-899 388.4,-868.68 429.35,-812.97 447.98,-784.98"/>
<polygon fill="#000000" fill-opacity="0.200000" stroke="#000000" stroke-width="2" stroke-opacity="0.200000" points="449.65,-786.27 451.17,-780.09 446.13,-783.97 449.65,-786.27"/>
</g>
<!-- src/js/overlay/rhythm/OverlayRhythm.js&#45;&gt;src/js/overlay/OverlayUtil.js -->
<g id="edge38" class="edge">
<title>src/js/overlay/rhythm/OverlayRhythm.js&#45;&gt;src/js/overlay/OverlayUtil.js</title>
<path fill="none" stroke="#000000" stroke-width="2" stroke-opacity="0.200000" d="M306.88,-975.35C318.37,-972.09 330.21,-967.23 339.75,-960 401.67,-913.06 439.02,-823.78 452.75,-785.81"/>
<polygon fill="#000000" fill-opacity="0.200000" stroke="#000000" stroke-width="2" stroke-opacity="0.200000" points="454.58,-786.93 454.59,-780.57 450.62,-785.53 454.58,-786.93"/>
</g>
<!-- src/js/overlay/teleprompt/OverlayTeleprompt.js&#45;&gt;src/js/overlay/OverlayUtil.js -->
<g id="edge39" class="edge">
<title>src/js/overlay/teleprompt/OverlayTeleprompt.js&#45;&gt;src/js/overlay/OverlayUtil.js</title>
<path fill="none" stroke="#000000" stroke-width="2" stroke-opacity="0.200000" d="M314.18,-1034.93C323.41,-1031.73 332.42,-1027.25 339.75,-1021 415.43,-956.45 446.2,-833.13 455.47,-786.49"/>
<polygon fill="#000000" fill-opacity="0.200000" stroke="#000000" stroke-width="2" stroke-opacity="0.200000" points="457.51,-787.01 456.56,-780.72 453.38,-786.22 457.51,-787.01"/>
</g>
<!-- src/js/overlay/OverlayUtil.js&#45;&gt;src/js/application/ApplicationLogger.js -->
<g id="edge30" class="edge">
<title>src/js/overlay/OverlayUtil.js&#45;&gt;src/js/application/ApplicationLogger.js</title>
<path fill="none" stroke="#000000" stroke-width="2" stroke-opacity="0.200000" d="M495.14,-772.26C513.38,-772.47 534.66,-769.1 547.75,-755 564.12,-737.36 540.61,-665.71 555.75,-647 591.65,-602.64 639.13,-651.83 679,-611 688.64,-601.13 677.2,-590.72 687,-581 688.78,-579.24 690.73,-577.66 692.8,-576.25"/>
<polygon fill="#000000" fill-opacity="0.200000" stroke="#000000" stroke-width="2" stroke-opacity="0.200000" points="693.4,-578.31 697.61,-573.55 691.35,-574.65 693.4,-578.31"/>
</g>
<!-- src/js/overlay/OverlayUtil.js&#45;&gt;src/js/overlay/dispatcher/OverlayDispatcher.js -->
<g id="edge31" class="edge">
<title>src/js/overlay/OverlayUtil.js&#45;&gt;src/js/overlay/dispatcher/OverlayDispatcher.js</title>
<path fill="none" stroke="#000000" stroke-width="2" stroke-opacity="0.200000" d="M475.32,-758.32C502.18,-740.47 559.58,-702.33 591.04,-681.43"/>
<polygon fill="#000000" fill-opacity="0.200000" stroke="#000000" stroke-width="2" stroke-opacity="0.200000" points="592.09,-683.25 595.92,-678.18 589.76,-679.75 592.09,-683.25"/>
</g>
<!-- src/js/renderer/RendererResizer.js -->
<g id="node30" class="node">
<title>src/js/renderer/RendererResizer.js</title>
<g id="a_node30"><a xlink:href="src/js/renderer/RendererResizer.js" xlink:title="RendererResizer.js">
<path fill="#ffffcc" stroke="black" d="M500.96,-581.25C500.96,-581.25 418.54,-581.25 418.54,-581.25 415.46,-581.25 412.38,-578.17 412.38,-575.08 412.38,-575.08 412.38,-568.92 412.38,-568.92 412.38,-565.83 415.46,-562.75 418.54,-562.75 418.54,-562.75 500.96,-562.75 500.96,-562.75 504.04,-562.75 507.12,-565.83 507.12,-568.92 507.12,-568.92 507.12,-575.08 507.12,-575.08 507.12,-578.17 504.04,-581.25 500.96,-581.25"/>
<text text-anchor="start" x="420.38" y="-568.7" font-family="Helvetica,sans-Serif" font-size="9.00">RendererResizer.js</text>
</a>
</g>
</g>
<!-- src/js/renderer/RendererResizer.js&#45;&gt;src/js/application/ApplicationConfiguration.js -->
<g id="edge40" class="edge">
<title>src/js/renderer/RendererResizer.js&#45;&gt;src/js/application/ApplicationConfiguration.js</title>
<path fill="none" stroke="#000000" stroke-width="2" stroke-opacity="0.200000" d="M507.35,-571.64C551.67,-571.84 620.12,-573.54 679,-581 686.1,-581.9 693.55,-583.15 700.83,-584.55"/>
<polygon fill="#000000" fill-opacity="0.200000" stroke="#000000" stroke-width="2" stroke-opacity="0.200000" points="700.01,-586.53 706.31,-585.66 700.84,-582.41 700.01,-586.53"/>
</g>
<!-- src/js/renderer/RendererResizer.js&#45;&gt;src/js/application/ApplicationLogger.js -->
<g id="edge41" class="edge">
<title>src/js/renderer/RendererResizer.js&#45;&gt;src/js/application/ApplicationLogger.js</title>
<path fill="none" stroke="#000000" stroke-width="2" stroke-opacity="0.200000" d="M507.4,-570.87C557.54,-569.65 637.28,-567.71 691.35,-566.4"/>
<polygon fill="#000000" fill-opacity="0.200000" stroke="#000000" stroke-width="2" stroke-opacity="0.200000" points="691.15,-568.51 697.1,-566.26 691.05,-564.31 691.15,-568.51"/>
</g>
<!-- src/js/renderer/RendererResizer.js&#45;&gt;src/js/overlay/dispatcher/OverlayDispatcher.js -->
<g id="edge42" class="edge">
<title>src/js/renderer/RendererResizer.js&#45;&gt;src/js/overlay/dispatcher/OverlayDispatcher.js</title>
<path fill="none" stroke="#000000" stroke-width="2" stroke-opacity="0.200000" d="M507.56,-568.76C522.18,-570.19 537.22,-574.58 547.75,-585 563.75,-600.83 542.88,-616.54 555.75,-635 561.06,-642.62 568.8,-648.64 576.88,-653.3"/>
<polygon fill="#000000" fill-opacity="0.200000" stroke="#000000" stroke-width="2" stroke-opacity="0.200000" points="575.68,-655.04 581.97,-655.96 577.63,-651.32 575.68,-655.04"/>
</g>
<!-- src/js/rhythm/ViewRhythm.js -->
<g id="node31" class="node">
<title>src/js/rhythm/ViewRhythm.js</title>
<g id="a_node31"><a xlink:href="src/js/rhythm/ViewRhythm.js" xlink:title="ViewRhythm.js">
<path fill="#ffffcc" stroke="black" d="M132.96,-1140.25C132.96,-1140.25 68.54,-1140.25 68.54,-1140.25 65.46,-1140.25 62.38,-1137.17 62.38,-1134.08 62.38,-1134.08 62.38,-1127.92 62.38,-1127.92 62.38,-1124.83 65.46,-1121.75 68.54,-1121.75 68.54,-1121.75 132.96,-1121.75 132.96,-1121.75 136.04,-1121.75 139.12,-1124.83 139.12,-1127.92 139.12,-1127.92 139.12,-1134.08 139.12,-1134.08 139.12,-1137.17 136.04,-1140.25 132.96,-1140.25"/>
<text text-anchor="start" x="70.38" y="-1127.7" font-family="Helvetica,sans-Serif" font-size="9.00">ViewRhythm.js</text>
</a>
</g>
</g>
<!-- src/js/rhythm/ViewRhythmTrack.js -->
<g id="node32" class="node">
<title>src/js/rhythm/ViewRhythmTrack.js</title>
<g id="a_node32"><a xlink:href="src/js/rhythm/ViewRhythmTrack.js" xlink:title="ViewRhythmTrack.js">
<path fill="#ffffcc" stroke="black" d="M306.08,-1140.25C306.08,-1140.25 219.17,-1140.25 219.17,-1140.25 216.08,-1140.25 213,-1137.17 213,-1134.08 213,-1134.08 213,-1127.92 213,-1127.92 213,-1124.83 216.08,-1121.75 219.17,-1121.75 219.17,-1121.75 306.08,-1121.75 306.08,-1121.75 309.17,-1121.75 312.25,-1124.83 312.25,-1127.92 312.25,-1127.92 312.25,-1134.08 312.25,-1134.08 312.25,-1137.17 309.17,-1140.25 306.08,-1140.25"/>
<text text-anchor="start" x="221" y="-1127.7" font-family="Helvetica,sans-Serif" font-size="9.00">ViewRhythmTrack.js</text>
</a>
</g>
</g>
<!-- src/js/rhythm/ViewRhythm.js&#45;&gt;src/js/rhythm/ViewRhythmTrack.js -->
<g id="edge43" class="edge">
<title>src/js/rhythm/ViewRhythm.js&#45;&gt;src/js/rhythm/ViewRhythmTrack.js</title>
<path fill="none" stroke="#000000" stroke-width="2" stroke-opacity="0.200000" d="M139.23,-1131C158.46,-1131 182.3,-1131 203.82,-1131"/>
<polygon fill="#000000" fill-opacity="0.200000" stroke="#000000" stroke-width="2" stroke-opacity="0.200000" points="203.53,-1133.1 209.53,-1131 203.53,-1128.9 203.53,-1133.1"/>
</g>
<!-- src/js/view/View.js -->
<g id="node33" class="node">
<title>src/js/view/View.js</title>
<g id="a_node33"><a xlink:href="src/js/view/View.js" xlink:title="View.js">
<path fill="#ccffcc" stroke="black" d="M121.58,-1201.25C121.58,-1201.25 79.92,-1201.25 79.92,-1201.25 76.83,-1201.25 73.75,-1198.17 73.75,-1195.08 73.75,-1195.08 73.75,-1188.92 73.75,-1188.92 73.75,-1185.83 76.83,-1182.75 79.92,-1182.75 79.92,-1182.75 121.58,-1182.75 121.58,-1182.75 124.67,-1182.75 127.75,-1185.83 127.75,-1188.92 127.75,-1188.92 127.75,-1195.08 127.75,-1195.08 127.75,-1198.17 124.67,-1201.25 121.58,-1201.25"/>
<text text-anchor="start" x="86.5" y="-1188.7" font-family="Helvetica,sans-Serif" font-size="9.00">View.js</text>
</a>
</g>
</g>
</g>
</svg>
