<?xml version="1.0" encoding="UTF-8" standalone="no"?>
<!DOCTYPE svg PUBLIC "-//W3C//DTD SVG 1.1//EN"
 "http://www.w3.org/Graphics/SVG/1.1/DTD/svg11.dtd">
<!-- Generated by graphviz version 12.2.1 (20241206.2353)
 -->
<!-- Title: dependency&#45;cruiser output Pages: 1 -->
<svg width="854pt" height="1254pt"
 viewBox="0.00 0.00 853.50 1254.00" xmlns="http://www.w3.org/2000/svg" xmlns:xlink="http://www.w3.org/1999/xlink">
<g id="graph0" class="graph" transform="scale(1 1) rotate(0) translate(4 1250)">
<title>dependency&#45;cruiser output</title>
<polygon fill="white" stroke="none" points="-4,4 -4,-1250 849.5,-1250 849.5,4 -4,4"/>
<g id="clust1" class="cluster">
<title>cluster_src</title>
<path fill="#ffffff" stroke="black" stroke-width="2" d="M20,-8C20,-8 825.5,-8 825.5,-8 831.5,-8 837.5,-14 837.5,-20 837.5,-20 837.5,-1226 837.5,-1226 837.5,-1232 831.5,-1238 825.5,-1238 825.5,-1238 20,-1238 20,-1238 14,-1238 8,-1232 8,-1226 8,-1226 8,-20 8,-20 8,-14 14,-8 20,-8"/>
<text text-anchor="middle" x="422.75" y="-1225.45" font-family="Helvetica,sans-Serif" font-weight="bold" font-size="9.00">src</text>
</g>
<g id="clust2" class="cluster">
<title>cluster_src/js</title>
<path fill="#ffffff" stroke="black" stroke-width="2" d="M28,-16C28,-16 817.5,-16 817.5,-16 823.5,-16 829.5,-22 829.5,-28 829.5,-28 829.5,-1199 829.5,-1199 829.5,-1205 823.5,-1211 817.5,-1211 817.5,-1211 28,-1211 28,-1211 22,-1211 16,-1205 16,-1199 16,-1199 16,-28 16,-28 16,-22 22,-16 28,-16"/>
<text text-anchor="middle" x="422.75" y="-1198.45" font-family="Helvetica,sans-Serif" font-weight="bold" font-size="9.00">js</text>
</g>
<g id="clust3" class="cluster">
<title>cluster_src/js/application</title>
<path fill="#ffffff" stroke="black" stroke-width="2" d="M434.62,-597C434.62,-597 661.5,-597 661.5,-597 667.5,-597 673.5,-603 673.5,-609 673.5,-609 673.5,-669 673.5,-669 673.5,-675 667.5,-681 661.5,-681 661.5,-681 434.62,-681 434.62,-681 428.62,-681 422.62,-675 422.62,-669 422.62,-669 422.62,-609 422.62,-609 422.62,-603 428.62,-597 434.62,-597"/>
<text text-anchor="middle" x="548.06" y="-668.45" font-family="Helvetica,sans-Serif" font-weight="bold" font-size="9.00">application</text>
</g>
<g id="clust4" class="cluster">
<title>cluster_src/js/controller</title>
<path fill="#ffffff" stroke="black" stroke-width="2" d="M277.88,-781C277.88,-781 334.62,-781 334.62,-781 340.62,-781 346.62,-787 346.62,-793 346.62,-793 346.62,-822 346.62,-822 346.62,-828 340.62,-834 334.62,-834 334.62,-834 277.88,-834 277.88,-834 271.88,-834 265.88,-828 265.88,-822 265.88,-822 265.88,-793 265.88,-793 265.88,-787 271.88,-781 277.88,-781"/>
<text text-anchor="middle" x="306.25" y="-821.45" font-family="Helvetica,sans-Serif" font-weight="bold" font-size="9.00">controller</text>
</g>
<g id="clust5" class="cluster">
<title>cluster_src/js/data</title>
<path fill="#ffffff" stroke="black" stroke-width="2" d="M71,-24C71,-24 329.75,-24 329.75,-24 335.75,-24 341.75,-30 341.75,-36 341.75,-36 341.75,-65 341.75,-65 341.75,-71 335.75,-77 329.75,-77 329.75,-77 71,-77 71,-77 65,-77 59,-71 59,-65 59,-65 59,-36 59,-36 59,-30 65,-24 71,-24"/>
<text text-anchor="middle" x="200.38" y="-64.45" font-family="Helvetica,sans-Serif" font-weight="bold" font-size="9.00">data</text>
</g>
<g id="clust6" class="cluster">
<title>cluster_src/js/directable</title>
<path fill="#ffffff" stroke="black" stroke-width="2" d="M206.25,-181C206.25,-181 631.88,-181 631.88,-181 637.88,-181 643.88,-187 643.88,-193 643.88,-193 643.88,-572 643.88,-572 643.88,-578 637.88,-584 631.88,-584 631.88,-584 206.25,-584 206.25,-584 200.25,-584 194.25,-578 194.25,-572 194.25,-572 194.25,-193 194.25,-193 194.25,-187 200.25,-181 206.25,-181"/>
<text text-anchor="middle" x="419.06" y="-571.45" font-family="Helvetica,sans-Serif" font-weight="bold" font-size="9.00">directable</text>
</g>
<g id="clust7" class="cluster">
<title>cluster_src/js/directable/directables</title>
<path fill="#ffffff" stroke="black" stroke-width="2" d="M214.25,-189C214.25,-189 519.25,-189 519.25,-189 525.25,-189 531.25,-195 531.25,-201 531.25,-201 531.25,-545 531.25,-545 531.25,-551 525.25,-557 519.25,-557 519.25,-557 214.25,-557 214.25,-557 208.25,-557 202.25,-551 202.25,-545 202.25,-545 202.25,-201 202.25,-201 202.25,-195 208.25,-189 214.25,-189"/>
<text text-anchor="middle" x="366.75" y="-544.45" font-family="Helvetica,sans-Serif" font-weight="bold" font-size="9.00">directables</text>
</g>
<g id="clust8" class="cluster">
<title>cluster_src/js/directable/directables/frame</title>
<path fill="#ffffff" stroke="black" stroke-width="2" d="M263.62,-197C263.62,-197 348.88,-197 348.88,-197 354.88,-197 360.88,-203 360.88,-209 360.88,-209 360.88,-238 360.88,-238 360.88,-244 354.88,-250 348.88,-250 348.88,-250 263.62,-250 263.62,-250 257.62,-250 251.62,-244 251.62,-238 251.62,-238 251.62,-209 251.62,-209 251.62,-203 257.62,-197 263.62,-197"/>
<text text-anchor="middle" x="306.25" y="-237.45" font-family="Helvetica,sans-Serif" font-weight="bold" font-size="9.00">frame</text>
</g>
<g id="clust9" class="cluster">
<title>cluster_src/js/directable/directables/rhythm</title>
<path fill="#ffffff" stroke="black" stroke-width="2" d="M222.25,-319C222.25,-319 511.25,-319 511.25,-319 517.25,-319 523.25,-325 523.25,-331 523.25,-331 523.25,-518 523.25,-518 523.25,-524 517.25,-530 511.25,-530 511.25,-530 222.25,-530 222.25,-530 216.25,-530 210.25,-524 210.25,-518 210.25,-518 210.25,-331 210.25,-331 210.25,-325 216.25,-319 222.25,-319"/>
<text text-anchor="middle" x="366.75" y="-517.45" font-family="Helvetica,sans-Serif" font-weight="bold" font-size="9.00">rhythm</text>
</g>
<g id="clust10" class="cluster">
<title>cluster_src/js/directable/directables/rhythm/asdr</title>
<path fill="#ffffff" stroke="black" stroke-width="2" d="M230.25,-388C230.25,-388 382.25,-388 382.25,-388 388.25,-388 394.25,-394 394.25,-400 394.25,-400 394.25,-491 394.25,-491 394.25,-497 388.25,-503 382.25,-503 382.25,-503 230.25,-503 230.25,-503 224.25,-503 218.25,-497 218.25,-491 218.25,-491 218.25,-400 218.25,-400 218.25,-394 224.25,-388 230.25,-388"/>
<text text-anchor="middle" x="306.25" y="-490.45" font-family="Helvetica,sans-Serif" font-weight="bold" font-size="9.00">asdr</text>
</g>
<g id="clust11" class="cluster">
<title>cluster_src/js/directable/directables/rhythm/bpm</title>
<path fill="#ffffff" stroke="black" stroke-width="2" d="M251.25,-327C251.25,-327 361.25,-327 361.25,-327 367.25,-327 373.25,-333 373.25,-339 373.25,-339 373.25,-368 373.25,-368 373.25,-374 367.25,-380 361.25,-380 361.25,-380 251.25,-380 251.25,-380 245.25,-380 239.25,-374 239.25,-368 239.25,-368 239.25,-339 239.25,-339 239.25,-333 245.25,-327 251.25,-327"/>
<text text-anchor="middle" x="306.25" y="-367.45" font-family="Helvetica,sans-Serif" font-weight="bold" font-size="9.00">bpm</text>
</g>
<g id="clust12" class="cluster">
<title>cluster_src/js/directable/directables/title</title>
<path fill="#ffffff" stroke="black" stroke-width="2" d="M268.12,-258C268.12,-258 344.38,-258 344.38,-258 350.38,-258 356.38,-264 356.38,-270 356.38,-270 356.38,-299 356.38,-299 356.38,-305 350.38,-311 344.38,-311 344.38,-311 268.12,-311 268.12,-311 262.12,-311 256.12,-305 256.12,-299 256.12,-299 256.12,-270 256.12,-270 256.12,-264 262.12,-258 268.12,-258"/>
<text text-anchor="middle" x="306.25" y="-298.45" font-family="Helvetica,sans-Serif" font-weight="bold" font-size="9.00">title</text>
</g>
<g id="clust13" class="cluster">
<title>cluster_src/js/director</title>
<path fill="#ffffff" stroke="black" stroke-width="2" d="M36,-85C36,-85 330.5,-85 330.5,-85 336.5,-85 342.5,-91 342.5,-97 342.5,-97 342.5,-161 342.5,-161 342.5,-167 336.5,-173 330.5,-173 330.5,-173 36,-173 36,-173 30,-173 24,-167 24,-161 24,-161 24,-97 24,-97 24,-91 30,-85 36,-85"/>
<text text-anchor="middle" x="183.25" y="-160.45" font-family="Helvetica,sans-Serif" font-weight="bold" font-size="9.00">director</text>
</g>
<g id="clust14" class="cluster">
<title>cluster_src/js/director/directors</title>
<path fill="#ffffff" stroke="black" stroke-width="2" d="M44,-93C44,-93 174.25,-93 174.25,-93 180.25,-93 186.25,-99 186.25,-105 186.25,-105 186.25,-134 186.25,-134 186.25,-140 180.25,-146 174.25,-146 174.25,-146 44,-146 44,-146 38,-146 32,-140 32,-134 32,-134 32,-105 32,-105 32,-99 38,-93 44,-93"/>
<text text-anchor="middle" x="109.12" y="-133.45" font-family="Helvetica,sans-Serif" font-weight="bold" font-size="9.00">directors</text>
</g>
<g id="clust15" class="cluster">
<title>cluster_src/js/event</title>
<path fill="#ffffff" stroke="black" stroke-width="2" d="M44.38,-592C44.38,-592 349.25,-592 349.25,-592 355.25,-592 361.25,-598 361.25,-604 361.25,-604 361.25,-633 361.25,-633 361.25,-639 355.25,-645 349.25,-645 349.25,-645 44.38,-645 44.38,-645 38.38,-645 32.38,-639 32.38,-633 32.38,-633 32.38,-604 32.38,-604 32.38,-598 38.38,-592 44.38,-592"/>
<text text-anchor="middle" x="196.81" y="-632.45" font-family="Helvetica,sans-Serif" font-weight="bold" font-size="9.00">event</text>
</g>
<g id="clust16" class="cluster">
<title>cluster_src/js/overlay</title>
<path fill="#ffffff" stroke="black" stroke-width="2" d="M85.25,-842C85.25,-842 809.5,-842 809.5,-842 815.5,-842 821.5,-848 821.5,-854 821.5,-854 821.5,-1172 821.5,-1172 821.5,-1178 815.5,-1184 809.5,-1184 809.5,-1184 85.25,-1184 85.25,-1184 79.25,-1184 73.25,-1178 73.25,-1172 73.25,-1172 73.25,-854 73.25,-854 73.25,-848 79.25,-842 85.25,-842"/>
<text text-anchor="middle" x="447.38" y="-1171.45" font-family="Helvetica,sans-Serif" font-weight="bold" font-size="9.00">overlay</text>
</g>
<g id="clust17" class="cluster">
<title>cluster_src/js/overlay/capture</title>
<path fill="#ffffff" stroke="black" stroke-width="2" d="M265.5,-972C265.5,-972 347,-972 347,-972 353,-972 359,-978 359,-984 359,-984 359,-1013 359,-1013 359,-1019 353,-1025 347,-1025 347,-1025 265.5,-1025 265.5,-1025 259.5,-1025 253.5,-1019 253.5,-1013 253.5,-1013 253.5,-984 253.5,-984 253.5,-978 259.5,-972 265.5,-972"/>
<text text-anchor="middle" x="306.25" y="-1012.45" font-family="Helvetica,sans-Serif" font-weight="bold" font-size="9.00">capture</text>
</g>
<g id="clust18" class="cluster">
<title>cluster_src/js/overlay/dispatcher</title>
<path fill="#ffffff" stroke="black" stroke-width="2" d="M556.38,-881C556.38,-881 801.5,-881 801.5,-881 807.5,-881 813.5,-887 813.5,-893 813.5,-893 813.5,-922 813.5,-922 813.5,-928 807.5,-934 801.5,-934 801.5,-934 556.38,-934 556.38,-934 550.38,-934 544.38,-928 544.38,-922 544.38,-922 544.38,-893 544.38,-893 544.38,-887 550.38,-881 556.38,-881"/>
<text text-anchor="middle" x="678.94" y="-921.45" font-family="Helvetica,sans-Serif" font-weight="bold" font-size="9.00">dispatcher</text>
</g>
<g id="clust19" class="cluster">
<title>cluster_src/js/overlay/format</title>
<path fill="#ffffff" stroke="black" stroke-width="2" d="M267.75,-1033C267.75,-1033 344.75,-1033 344.75,-1033 350.75,-1033 356.75,-1039 356.75,-1045 356.75,-1045 356.75,-1074 356.75,-1074 356.75,-1080 350.75,-1086 344.75,-1086 344.75,-1086 267.75,-1086 267.75,-1086 261.75,-1086 255.75,-1080 255.75,-1074 255.75,-1074 255.75,-1045 255.75,-1045 255.75,-1039 261.75,-1033 267.75,-1033"/>
<text text-anchor="middle" x="306.25" y="-1073.45" font-family="Helvetica,sans-Serif" font-weight="bold" font-size="9.00">format</text>
</g>
<g id="clust20" class="cluster">
<title>cluster_src/js/overlay/media</title>
<path fill="#ffffff" stroke="black" stroke-width="2" d="M269.25,-850C269.25,-850 343.25,-850 343.25,-850 349.25,-850 355.25,-856 355.25,-862 355.25,-862 355.25,-891 355.25,-891 355.25,-897 349.25,-903 343.25,-903 343.25,-903 269.25,-903 269.25,-903 263.25,-903 257.25,-897 257.25,-891 257.25,-891 257.25,-862 257.25,-862 257.25,-856 263.25,-850 269.25,-850"/>
<text text-anchor="middle" x="306.25" y="-890.45" font-family="Helvetica,sans-Serif" font-weight="bold" font-size="9.00">media</text>
</g>
<g id="clust21" class="cluster">
<title>cluster_src/js/overlay/overlay</title>
<path fill="#ffffff" stroke="black" stroke-width="2" d="M266.62,-1094C266.62,-1094 345.88,-1094 345.88,-1094 351.88,-1094 357.88,-1100 357.88,-1106 357.88,-1106 357.88,-1135 357.88,-1135 357.88,-1141 351.88,-1147 345.88,-1147 345.88,-1147 266.62,-1147 266.62,-1147 260.62,-1147 254.62,-1141 254.62,-1135 254.62,-1135 254.62,-1106 254.62,-1106 254.62,-1100 260.62,-1094 266.62,-1094"/>
<text text-anchor="middle" x="306.25" y="-1134.45" font-family="Helvetica,sans-Serif" font-weight="bold" font-size="9.00">overlay</text>
</g>
<g id="clust22" class="cluster">
<title>cluster_src/js/overlay/rhythm</title>
<path fill="#ffffff" stroke="black" stroke-width="2" d="M266.25,-911C266.25,-911 346.25,-911 346.25,-911 352.25,-911 358.25,-917 358.25,-923 358.25,-923 358.25,-952 358.25,-952 358.25,-958 352.25,-964 346.25,-964 346.25,-964 266.25,-964 266.25,-964 260.25,-964 254.25,-958 254.25,-952 254.25,-952 254.25,-923 254.25,-923 254.25,-917 260.25,-911 266.25,-911"/>
<text text-anchor="middle" x="306.25" y="-951.45" font-family="Helvetica,sans-Serif" font-weight="bold" font-size="9.00">rhythm</text>
</g>
<g id="clust23" class="cluster">
<title>cluster_src/js/rhythm</title>
<path fill="#ffffff" stroke="black" stroke-width="2" d="M74.75,-653C74.75,-653 351.88,-653 351.88,-653 357.88,-653 363.88,-659 363.88,-665 363.88,-665 363.88,-694 363.88,-694 363.88,-700 357.88,-706 351.88,-706 351.88,-706 74.75,-706 74.75,-706 68.75,-706 62.75,-700 62.75,-694 62.75,-694 62.75,-665 62.75,-665 62.75,-659 68.75,-653 74.75,-653"/>
<text text-anchor="middle" x="213.31" y="-693.45" font-family="Helvetica,sans-Serif" font-weight="bold" font-size="9.00">rhythm</text>
</g>
<g id="clust24" class="cluster">
<title>cluster_src/js/view</title>
<path fill="#ffffff" stroke="black" stroke-width="2" d="M414.25,-689C414.25,-689 517.75,-689 517.75,-689 523.75,-689 529.75,-695 529.75,-701 529.75,-701 529.75,-822 529.75,-822 529.75,-828 523.75,-834 517.75,-834 517.75,-834 414.25,-834 414.25,-834 408.25,-834 402.25,-828 402.25,-822 402.25,-822 402.25,-701 402.25,-701 402.25,-695 408.25,-689 414.25,-689"/>
<text text-anchor="middle" x="466" y="-821.45" font-family="Helvetica,sans-Serif" font-weight="bold" font-size="9.00">view</text>
</g>
<g id="clust25" class="cluster">
<title>cluster_src/js/view/render</title>
<path fill="#ffffff" stroke="black" stroke-width="2" d="M422.25,-697C422.25,-697 509.75,-697 509.75,-697 515.75,-697 521.75,-703 521.75,-709 521.75,-709 521.75,-769 521.75,-769 521.75,-775 515.75,-781 509.75,-781 509.75,-781 422.25,-781 422.25,-781 416.25,-781 410.25,-775 410.25,-769 410.25,-769 410.25,-709 410.25,-709 410.25,-703 416.25,-697 422.25,-697"/>
<text text-anchor="middle" x="466" y="-768.45" font-family="Helvetica,sans-Serif" font-weight="bold" font-size="9.00">render</text>
</g>
<!-- src/js/application/Application.js -->
<g id="node1" class="node">
<title>src/js/application/Application.js</title>
<g id="a_node1"><a xlink:href="src/js/application/Application.js" xlink:title="Application.js">
<path fill="#ffffcc" stroke="black" d="M495.21,-654.25C495.21,-654.25 436.79,-654.25 436.79,-654.25 433.71,-654.25 430.62,-651.17 430.62,-648.08 430.62,-648.08 430.62,-641.92 430.62,-641.92 430.62,-638.83 433.71,-635.75 436.79,-635.75 436.79,-635.75 495.21,-635.75 495.21,-635.75 498.29,-635.75 501.38,-638.83 501.38,-641.92 501.38,-641.92 501.38,-648.08 501.38,-648.08 501.38,-651.17 498.29,-654.25 495.21,-654.25"/>
<text text-anchor="start" x="438.62" y="-641.7" font-family="Helvetica,sans-Serif" font-size="9.00">Application.js</text>
</a>
</g>
</g>
<!-- src/js/controller/Controller.js -->
<g id="node2" class="node">
<title>src/js/controller/Controller.js</title>
<g id="a_node2"><a xlink:href="src/js/controller/Controller.js" xlink:title="Controller.js">
<path fill="#ffffcc" stroke="black" d="M332.46,-807.25C332.46,-807.25 280.04,-807.25 280.04,-807.25 276.96,-807.25 273.88,-804.17 273.88,-801.08 273.88,-801.08 273.88,-794.92 273.88,-794.92 273.88,-791.83 276.96,-788.75 280.04,-788.75 280.04,-788.75 332.46,-788.75 332.46,-788.75 335.54,-788.75 338.62,-791.83 338.62,-794.92 338.62,-794.92 338.62,-801.08 338.62,-801.08 338.62,-804.17 335.54,-807.25 332.46,-807.25"/>
<text text-anchor="start" x="281.88" y="-794.7" font-family="Helvetica,sans-Serif" font-size="9.00">Controller.js</text>
</a>
</g>
</g>
<!-- src/js/application/Application.js&#45;&gt;src/js/controller/Controller.js -->
<g id="edge1" class="edge">
<title>src/js/application/Application.js&#45;&gt;src/js/controller/Controller.js</title>
<path fill="none" stroke="#000000" stroke-width="2" stroke-opacity="0.200000" d="M445.24,-654.72C430.68,-663.01 411.82,-676.39 402.25,-694 392.56,-711.84 408.16,-770.22 394.25,-785 382.49,-797.5 364.28,-801.53 347.56,-802.12"/>
<polygon fill="#000000" fill-opacity="0.200000" stroke="#000000" stroke-width="2" stroke-opacity="0.200000" points="348.01,-800.02 342.01,-802.13 348.02,-804.22 348.01,-800.02"/>
</g>
<!-- src/js/application/ApplicationConfiguration.js -->
<g id="node3" class="node">
<title>src/js/application/ApplicationConfiguration.js</title>
<g id="a_node3"><a xlink:href="src/js/application/ApplicationConfiguration.js" xlink:title="ApplicationConfiguration.js">
<path fill="#ffffcc" stroke="black" d="M659.33,-654.25C659.33,-654.25 545.42,-654.25 545.42,-654.25 542.33,-654.25 539.25,-651.17 539.25,-648.08 539.25,-648.08 539.25,-641.92 539.25,-641.92 539.25,-638.83 542.33,-635.75 545.42,-635.75 545.42,-635.75 659.33,-635.75 659.33,-635.75 662.42,-635.75 665.5,-638.83 665.5,-641.92 665.5,-641.92 665.5,-648.08 665.5,-648.08 665.5,-651.17 662.42,-654.25 659.33,-654.25"/>
<text text-anchor="start" x="547.25" y="-641.7" font-family="Helvetica,sans-Serif" font-size="9.00">ApplicationConfiguration.js</text>
</a>
</g>
</g>
<!-- src/js/application/Application.js&#45;&gt;src/js/application/ApplicationConfiguration.js -->
<g id="edge2" class="edge">
<title>src/js/application/Application.js&#45;&gt;src/js/application/ApplicationConfiguration.js</title>
<path fill="none" stroke="#000000" stroke-width="2" stroke-opacity="0.200000" d="M501.6,-645C510.45,-645 520.28,-645 530.23,-645"/>
<polygon fill="#000000" fill-opacity="0.200000" stroke="#000000" stroke-width="2" stroke-opacity="0.200000" points="529.96,-647.1 535.96,-645 529.96,-642.9 529.96,-647.1"/>
</g>
<!-- src/js/application/ApplicationLogger.js -->
<g id="node4" class="node">
<title>src/js/application/ApplicationLogger.js</title>
<g id="a_node4"><a xlink:href="src/js/application/ApplicationLogger.js" xlink:title="ApplicationLogger.js">
<path fill="#ffffcc" stroke="black" d="M645.83,-623.25C645.83,-623.25 558.92,-623.25 558.92,-623.25 555.83,-623.25 552.75,-620.17 552.75,-617.08 552.75,-617.08 552.75,-610.92 552.75,-610.92 552.75,-607.83 555.83,-604.75 558.92,-604.75 558.92,-604.75 645.83,-604.75 645.83,-604.75 648.92,-604.75 652,-607.83 652,-610.92 652,-610.92 652,-617.08 652,-617.08 652,-620.17 648.92,-623.25 645.83,-623.25"/>
<text text-anchor="start" x="560.75" y="-610.7" font-family="Helvetica,sans-Serif" font-size="9.00">ApplicationLogger.js</text>
</a>
</g>
</g>
<!-- src/js/application/Application.js&#45;&gt;src/js/application/ApplicationLogger.js -->
<g id="edge3" class="edge">
<title>src/js/application/Application.js&#45;&gt;src/js/application/ApplicationLogger.js</title>
<path fill="none" stroke="#000000" stroke-width="2" stroke-opacity="0.200000" d="M501.6,-637.02C516.57,-633.56 534.38,-629.46 550.79,-625.67"/>
<polygon fill="#000000" fill-opacity="0.200000" stroke="#000000" stroke-width="2" stroke-opacity="0.200000" points="550.89,-627.8 556.26,-624.41 549.94,-623.71 550.89,-627.8"/>
</g>
<!-- src/js/overlay/Overlay.js -->
<g id="node5" class="node">
<title>src/js/overlay/Overlay.js</title>
<g id="a_node5"><a xlink:href="src/js/overlay/Overlay.js" xlink:title="Overlay.js">
<path fill="#ffffcc" stroke="black" d="M130.83,-868.25C130.83,-868.25 87.42,-868.25 87.42,-868.25 84.33,-868.25 81.25,-865.17 81.25,-862.08 81.25,-862.08 81.25,-855.92 81.25,-855.92 81.25,-852.83 84.33,-849.75 87.42,-849.75 87.42,-849.75 130.83,-849.75 130.83,-849.75 133.92,-849.75 137,-852.83 137,-855.92 137,-855.92 137,-862.08 137,-862.08 137,-865.17 133.92,-868.25 130.83,-868.25"/>
<text text-anchor="start" x="89.25" y="-855.7" font-family="Helvetica,sans-Serif" font-size="9.00">Overlay.js</text>
</a>
</g>
</g>
<!-- src/js/controller/Controller.js&#45;&gt;src/js/overlay/Overlay.js -->
<g id="edge4" class="edge">
<title>src/js/controller/Controller.js&#45;&gt;src/js/overlay/Overlay.js</title>
<path fill="none" stroke="#000000" stroke-width="2" stroke-opacity="0.200000" d="M274.16,-807.72C239.17,-818.66 182.41,-836.4 145.68,-847.88"/>
<polygon fill="#000000" fill-opacity="0.200000" stroke="#000000" stroke-width="2" stroke-opacity="0.200000" points="145.25,-845.82 140.15,-849.61 146.5,-849.83 145.25,-845.82"/>
</g>
<!-- src/js/view/View.js -->
<g id="node6" class="node">
<title>src/js/view/View.js</title>
<g id="a_node6"><a xlink:href="src/js/view/View.js" xlink:title="View.js">
<path fill="#ffffcc" stroke="black" d="M486.83,-807.25C486.83,-807.25 445.17,-807.25 445.17,-807.25 442.08,-807.25 439,-804.17 439,-801.08 439,-801.08 439,-794.92 439,-794.92 439,-791.83 442.08,-788.75 445.17,-788.75 445.17,-788.75 486.83,-788.75 486.83,-788.75 489.92,-788.75 493,-791.83 493,-794.92 493,-794.92 493,-801.08 493,-801.08 493,-804.17 489.92,-807.25 486.83,-807.25"/>
<text text-anchor="start" x="451.75" y="-794.7" font-family="Helvetica,sans-Serif" font-size="9.00">View.js</text>
</a>
</g>
</g>
<!-- src/js/controller/Controller.js&#45;&gt;src/js/view/View.js -->
<g id="edge5" class="edge">
<title>src/js/controller/Controller.js&#45;&gt;src/js/view/View.js</title>
<path fill="none" stroke="#000000" stroke-width="2" stroke-opacity="0.200000" d="M338.79,-798C365.13,-798 402.63,-798 429.91,-798"/>
<polygon fill="#000000" fill-opacity="0.200000" stroke="#000000" stroke-width="2" stroke-opacity="0.200000" points="429.71,-800.1 435.71,-798 429.71,-795.9 429.71,-800.1"/>
</g>
<!-- src/js/overlay/Overlay.js&#45;&gt;src/js/application/ApplicationConfiguration.js -->
<g id="edge23" class="edge">
<title>src/js/overlay/Overlay.js&#45;&gt;src/js/application/ApplicationConfiguration.js</title>
<path fill="none" stroke="#000000" stroke-width="2" stroke-opacity="0.200000" d="M113.29,-849.3C121.83,-824.9 147.89,-760.95 194.25,-734 232.78,-711.6 362.5,-750.28 394.25,-719 408.39,-705.06 387.59,-643.4 402.25,-630 423.42,-610.65 500.38,-622.57 552.19,-633.43"/>
<polygon fill="#000000" fill-opacity="0.200000" stroke="#000000" stroke-width="2" stroke-opacity="0.200000" points="551.64,-635.46 557.95,-634.66 552.52,-631.35 551.64,-635.46"/>
</g>
<!-- src/js/overlay/Overlay.js&#45;&gt;src/js/application/ApplicationLogger.js -->
<g id="edge24" class="edge">
<title>src/js/overlay/Overlay.js&#45;&gt;src/js/application/ApplicationLogger.js</title>
<path fill="none" stroke="#000000" stroke-width="2" stroke-opacity="0.200000" d="M112.58,-849.36C119.85,-823.09 143.95,-750.2 194.25,-720 213.33,-708.54 378.26,-724.49 394.25,-709 408.99,-694.72 387.23,-630.98 402.25,-617 422.11,-598.52 492.44,-601.57 543.91,-606.7"/>
<polygon fill="#000000" fill-opacity="0.200000" stroke="#000000" stroke-width="2" stroke-opacity="0.200000" points="543.44,-608.76 549.62,-607.29 543.87,-604.58 543.44,-608.76"/>
</g>
<!-- src/js/overlay/dispatcher/OverlayDispatcher.js -->
<g id="node22" class="node">
<title>src/js/overlay/dispatcher/OverlayDispatcher.js</title>
<g id="a_node22"><a xlink:href="src/js/overlay/dispatcher/OverlayDispatcher.js" xlink:title="OverlayDispatcher.js">
<path fill="#ffffcc" stroke="black" d="M646.21,-907.25C646.21,-907.25 558.54,-907.25 558.54,-907.25 555.46,-907.25 552.38,-904.17 552.38,-901.08 552.38,-901.08 552.38,-894.92 552.38,-894.92 552.38,-891.83 555.46,-888.75 558.54,-888.75 558.54,-888.75 646.21,-888.75 646.21,-888.75 649.29,-888.75 652.38,-891.83 652.38,-894.92 652.38,-894.92 652.38,-901.08 652.38,-901.08 652.38,-904.17 649.29,-907.25 646.21,-907.25"/>
<text text-anchor="start" x="560.38" y="-894.7" font-family="Helvetica,sans-Serif" font-size="9.00">OverlayDispatcher.js</text>
</a>
</g>
</g>
<!-- src/js/overlay/Overlay.js&#45;&gt;src/js/overlay/dispatcher/OverlayDispatcher.js -->
<g id="edge25" class="edge">
<title>src/js/overlay/Overlay.js&#45;&gt;src/js/overlay/dispatcher/OverlayDispatcher.js</title>
<path fill="none" stroke="#000000" stroke-width="2" stroke-opacity="0.200000" d="M111.36,-868.58C117.55,-914.84 146.75,-1114.29 194.25,-1150 265.3,-1203.42 313.88,-1187.98 394.25,-1150 501.02,-1099.55 571.28,-964.09 593.66,-915.58"/>
<polygon fill="#000000" fill-opacity="0.200000" stroke="#000000" stroke-width="2" stroke-opacity="0.200000" points="595.48,-916.67 596.04,-910.33 591.65,-914.94 595.48,-916.67"/>
</g>
<!-- src/js/overlay/overlay/OverlayOverlay.js -->
<g id="node23" class="node">
<title>src/js/overlay/overlay/OverlayOverlay.js</title>
<g id="a_node23"><a xlink:href="src/js/overlay/overlay/OverlayOverlay.js" xlink:title="OverlayOverlay.js">
<path fill="#ffffcc" stroke="black" d="M343.71,-1120.25C343.71,-1120.25 268.79,-1120.25 268.79,-1120.25 265.71,-1120.25 262.62,-1117.17 262.62,-1114.08 262.62,-1114.08 262.62,-1107.92 262.62,-1107.92 262.62,-1104.83 265.71,-1101.75 268.79,-1101.75 268.79,-1101.75 343.71,-1101.75 343.71,-1101.75 346.79,-1101.75 349.88,-1104.83 349.88,-1107.92 349.88,-1107.92 349.88,-1114.08 349.88,-1114.08 349.88,-1117.17 346.79,-1120.25 343.71,-1120.25"/>
<text text-anchor="start" x="270.62" y="-1107.7" font-family="Helvetica,sans-Serif" font-size="9.00">OverlayOverlay.js</text>
</a>
</g>
</g>
<!-- src/js/overlay/Overlay.js&#45;&gt;src/js/overlay/overlay/OverlayOverlay.js -->
<g id="edge26" class="edge">
<title>src/js/overlay/Overlay.js&#45;&gt;src/js/overlay/overlay/OverlayOverlay.js</title>
<path fill="none" stroke="#000000" stroke-width="2" stroke-opacity="0.200000" d="M110.48,-868.71C112.34,-904.32 123.83,-1028.73 194.25,-1089 210.44,-1102.85 232.83,-1108.92 253.27,-1111.31"/>
<polygon fill="#000000" fill-opacity="0.200000" stroke="#000000" stroke-width="2" stroke-opacity="0.200000" points="253,-1113.39 259.17,-1111.86 253.39,-1109.21 253,-1113.39"/>
</g>
<!-- src/js/data/Data.json -->
<g id="node7" class="node">
<title>src/js/data/Data.json</title>
<g id="a_node7"><a xlink:href="src/js/data/Data.json" xlink:title="Data.json">
<path fill="#ffee44" stroke="black" d="M327.58,-50.25C327.58,-50.25 284.92,-50.25 284.92,-50.25 281.83,-50.25 278.75,-47.17 278.75,-44.08 278.75,-44.08 278.75,-37.92 278.75,-37.92 278.75,-34.83 281.83,-31.75 284.92,-31.75 284.92,-31.75 327.58,-31.75 327.58,-31.75 330.67,-31.75 333.75,-34.83 333.75,-37.92 333.75,-37.92 333.75,-44.08 333.75,-44.08 333.75,-47.17 330.67,-50.25 327.58,-50.25"/>
<text text-anchor="start" x="286.75" y="-37.7" font-family="Helvetica,sans-Serif" font-size="9.00">Data.json</text>
</a>
</g>
</g>
<!-- src/js/data/DataController.js -->
<g id="node8" class="node">
<title>src/js/data/DataController.js</title>
<g id="a_node8"><a xlink:href="src/js/data/DataController.js" xlink:title="DataController.js">
<path fill="#ffffcc" stroke="black" d="M145.08,-50.25C145.08,-50.25 73.17,-50.25 73.17,-50.25 70.08,-50.25 67,-47.17 67,-44.08 67,-44.08 67,-37.92 67,-37.92 67,-34.83 70.08,-31.75 73.17,-31.75 73.17,-31.75 145.08,-31.75 145.08,-31.75 148.17,-31.75 151.25,-34.83 151.25,-37.92 151.25,-37.92 151.25,-44.08 151.25,-44.08 151.25,-47.17 148.17,-50.25 145.08,-50.25"/>
<text text-anchor="start" x="75" y="-37.7" font-family="Helvetica,sans-Serif" font-size="9.00">DataController.js</text>
</a>
</g>
</g>
<!-- src/js/data/DataController.js&#45;&gt;src/js/data/Data.json -->
<g id="edge6" class="edge">
<title>src/js/data/DataController.js&#45;&gt;src/js/data/Data.json</title>
<path fill="none" stroke="#000000" stroke-width="2" stroke-opacity="0.200000" d="M151.51,-41C186.48,-41 236.06,-41 269.37,-41"/>
<polygon fill="#000000" fill-opacity="0.200000" stroke="#000000" stroke-width="2" stroke-opacity="0.200000" points="269.28,-43.1 275.28,-41 269.28,-38.9 269.28,-43.1"/>
</g>
<!-- src/js/directable/Directable.js -->
<g id="node9" class="node">
<title>src/js/directable/Directable.js</title>
<g id="a_node9"><a xlink:href="src/js/directable/Directable.js" xlink:title="Directable.js">
<path fill="#ffffcc" stroke="black" d="M629.71,-284.25C629.71,-284.25 575.04,-284.25 575.04,-284.25 571.96,-284.25 568.88,-281.17 568.88,-278.08 568.88,-278.08 568.88,-271.92 568.88,-271.92 568.88,-268.83 571.96,-265.75 575.04,-265.75 575.04,-265.75 629.71,-265.75 629.71,-265.75 632.79,-265.75 635.88,-268.83 635.88,-271.92 635.88,-271.92 635.88,-278.08 635.88,-278.08 635.88,-281.17 632.79,-284.25 629.71,-284.25"/>
<text text-anchor="start" x="576.88" y="-271.7" font-family="Helvetica,sans-Serif" font-size="9.00">Directable.js</text>
</a>
</g>
</g>
<!-- src/js/directable/directables/frame/DirectableFrame.js -->
<g id="node10" class="node">
<title>src/js/directable/directables/frame/DirectableFrame.js</title>
<g id="a_node10"><a xlink:href="src/js/directable/directables/frame/DirectableFrame.js" xlink:title="DirectableFrame.js">
<path fill="#ffffcc" stroke="black" d="M346.71,-223.25C346.71,-223.25 265.79,-223.25 265.79,-223.25 262.71,-223.25 259.62,-220.17 259.62,-217.08 259.62,-217.08 259.62,-210.92 259.62,-210.92 259.62,-207.83 262.71,-204.75 265.79,-204.75 265.79,-204.75 346.71,-204.75 346.71,-204.75 349.79,-204.75 352.88,-207.83 352.88,-210.92 352.88,-210.92 352.88,-217.08 352.88,-217.08 352.88,-220.17 349.79,-223.25 346.71,-223.25"/>
<text text-anchor="start" x="267.62" y="-210.7" font-family="Helvetica,sans-Serif" font-size="9.00">DirectableFrame.js</text>
</a>
</g>
</g>
<!-- src/js/directable/directables/frame/DirectableFrame.js&#45;&gt;src/js/application/ApplicationLogger.js -->
<g id="edge7" class="edge">
<title>src/js/directable/directables/frame/DirectableFrame.js&#45;&gt;src/js/application/ApplicationLogger.js</title>
<path fill="none" stroke="#000000" stroke-width="2" stroke-opacity="0.200000" d="M349.6,-223.64C366.39,-229.72 384.1,-239.49 394.25,-255 411.17,-280.86 381.02,-510.54 402.25,-533 422.01,-553.91 509.93,-524.69 531.25,-544 545.66,-557.05 527.14,-571.79 539.25,-587 543.58,-592.43 549.21,-596.8 555.33,-600.3"/>
<polygon fill="#000000" fill-opacity="0.200000" stroke="#000000" stroke-width="2" stroke-opacity="0.200000" points="554.25,-602.11 560.55,-602.92 556.13,-598.35 554.25,-602.11"/>
</g>
<!-- src/js/directable/directables/frame/DirectableFrame.js&#45;&gt;src/js/directable/Directable.js -->
<g id="edge8" class="edge">
<title>src/js/directable/directables/frame/DirectableFrame.js&#45;&gt;src/js/directable/Directable.js</title>
<path fill="none" stroke="#000000" stroke-width="2" stroke-opacity="0.200000" d="M353.21,-223.53C409.83,-235.28 505.23,-255.06 559.77,-266.37"/>
<polygon fill="#000000" fill-opacity="0.200000" stroke="#000000" stroke-width="2" stroke-opacity="0.200000" points="559.23,-268.4 565.53,-267.57 560.08,-264.29 559.23,-268.4"/>
</g>
<!-- src/js/directable/directables/rhythm/DirectableRhythm.js -->
<g id="node11" class="node">
<title>src/js/directable/directables/rhythm/DirectableRhythm.js</title>
<g id="a_node11"><a xlink:href="src/js/directable/directables/rhythm/DirectableRhythm.js" xlink:title="DirectableRhythm.js">
<path fill="#ffffcc" stroke="black" d="M509.08,-353.25C509.08,-353.25 422.92,-353.25 422.92,-353.25 419.83,-353.25 416.75,-350.17 416.75,-347.08 416.75,-347.08 416.75,-340.92 416.75,-340.92 416.75,-337.83 419.83,-334.75 422.92,-334.75 422.92,-334.75 509.08,-334.75 509.08,-334.75 512.17,-334.75 515.25,-337.83 515.25,-340.92 515.25,-340.92 515.25,-347.08 515.25,-347.08 515.25,-350.17 512.17,-353.25 509.08,-353.25"/>
<text text-anchor="start" x="424.75" y="-340.7" font-family="Helvetica,sans-Serif" font-size="9.00">DirectableRhythm.js</text>
</a>
</g>
</g>
<!-- src/js/directable/directables/rhythm/DirectableRhythm.js&#45;&gt;src/js/application/ApplicationLogger.js -->
<g id="edge9" class="edge">
<title>src/js/directable/directables/rhythm/DirectableRhythm.js&#45;&gt;src/js/application/ApplicationLogger.js</title>
<path fill="none" stroke="#000000" stroke-width="2" stroke-opacity="0.200000" d="M470.8,-353.37C481.78,-380.82 513.89,-463.61 531.25,-535 536.78,-557.72 524.97,-568.48 539.25,-587 543.44,-592.44 548.95,-596.8 554.96,-600.29"/>
<polygon fill="#000000" fill-opacity="0.200000" stroke="#000000" stroke-width="2" stroke-opacity="0.200000" points="553.77,-602.04 560.07,-602.89 555.68,-598.3 553.77,-602.04"/>
</g>
<!-- src/js/directable/directables/rhythm/DirectableRhythm.js&#45;&gt;src/js/directable/Directable.js -->
<g id="edge10" class="edge">
<title>src/js/directable/directables/rhythm/DirectableRhythm.js&#45;&gt;src/js/directable/Directable.js</title>
<path fill="none" stroke="#000000" stroke-width="2" stroke-opacity="0.200000" d="M515.52,-336.78C520.95,-335.21 526.3,-333.31 531.25,-331 552.41,-321.12 572.83,-303.62 586.12,-290.8"/>
<polygon fill="#000000" fill-opacity="0.200000" stroke="#000000" stroke-width="2" stroke-opacity="0.200000" points="587.45,-292.44 590.24,-286.72 584.5,-289.45 587.45,-292.44"/>
</g>
<!-- src/js/directable/directables/rhythm/asdr/ASDRData.js -->
<g id="node12" class="node">
<title>src/js/directable/directables/rhythm/asdr/ASDRData.js</title>
<g id="a_node12"><a xlink:href="src/js/directable/directables/rhythm/asdr/ASDRData.js" xlink:title="ASDRData.js">
<path fill="#ccffcc" stroke="black" d="M335.08,-414.25C335.08,-414.25 277.42,-414.25 277.42,-414.25 274.33,-414.25 271.25,-411.17 271.25,-408.08 271.25,-408.08 271.25,-401.92 271.25,-401.92 271.25,-398.83 274.33,-395.75 277.42,-395.75 277.42,-395.75 335.08,-395.75 335.08,-395.75 338.17,-395.75 341.25,-398.83 341.25,-401.92 341.25,-401.92 341.25,-408.08 341.25,-408.08 341.25,-411.17 338.17,-414.25 335.08,-414.25"/>
<text text-anchor="start" x="279.25" y="-401.7" font-family="Helvetica,sans-Serif" font-size="9.00">ASDRData.js</text>
</a>
</g>
</g>
<!-- src/js/directable/directables/rhythm/asdr/ASDREnvelope.js -->
<g id="node13" class="node">
<title>src/js/directable/directables/rhythm/asdr/ASDREnvelope.js</title>
<g id="a_node13"><a xlink:href="src/js/directable/directables/rhythm/asdr/ASDREnvelope.js" xlink:title="ASDREnvelope.js">
<path fill="#ffffcc" stroke="black" d="M344.83,-445.25C344.83,-445.25 267.67,-445.25 267.67,-445.25 264.58,-445.25 261.5,-442.17 261.5,-439.08 261.5,-439.08 261.5,-432.92 261.5,-432.92 261.5,-429.83 264.58,-426.75 267.67,-426.75 267.67,-426.75 344.83,-426.75 344.83,-426.75 347.92,-426.75 351,-429.83 351,-432.92 351,-432.92 351,-439.08 351,-439.08 351,-442.17 347.92,-445.25 344.83,-445.25"/>
<text text-anchor="start" x="269.5" y="-432.7" font-family="Helvetica,sans-Serif" font-size="9.00">ASDREnvelope.js</text>
</a>
</g>
</g>
<!-- src/js/directable/directables/rhythm/asdr/ASDREnvelope.js&#45;&gt;src/js/application/ApplicationLogger.js -->
<g id="edge11" class="edge">
<title>src/js/directable/directables/rhythm/asdr/ASDREnvelope.js&#45;&gt;src/js/application/ApplicationLogger.js</title>
<path fill="none" stroke="#000000" stroke-width="2" stroke-opacity="0.200000" d="M351.15,-433.57C366.96,-435.11 383.52,-439.96 394.25,-452 411.89,-471.79 383.97,-551.81 402.25,-571 422.15,-591.9 503.27,-578.92 531.25,-586 545.4,-589.58 560.5,-595.34 573.05,-600.71"/>
<polygon fill="#000000" fill-opacity="0.200000" stroke="#000000" stroke-width="2" stroke-opacity="0.200000" points="572.18,-602.62 578.52,-603.11 573.87,-598.77 572.18,-602.62"/>
</g>
<!-- src/js/directable/directables/rhythm/asdr/DirectableRhythmASDRManager.js -->
<g id="node14" class="node">
<title>src/js/directable/directables/rhythm/asdr/DirectableRhythmASDRManager.js</title>
<g id="a_node14"><a xlink:href="src/js/directable/directables/rhythm/asdr/DirectableRhythmASDRManager.js" xlink:title="DirectableRhythmASDRManager.js">
<path fill="#ffffcc" stroke="black" d="M380.08,-476.25C380.08,-476.25 232.42,-476.25 232.42,-476.25 229.33,-476.25 226.25,-473.17 226.25,-470.08 226.25,-470.08 226.25,-463.92 226.25,-463.92 226.25,-460.83 229.33,-457.75 232.42,-457.75 232.42,-457.75 380.08,-457.75 380.08,-457.75 383.17,-457.75 386.25,-460.83 386.25,-463.92 386.25,-463.92 386.25,-470.08 386.25,-470.08 386.25,-473.17 383.17,-476.25 380.08,-476.25"/>
<text text-anchor="start" x="234.25" y="-463.7" font-family="Helvetica,sans-Serif" font-size="9.00">DirectableRhythmASDRManager.js</text>
</a>
</g>
</g>
<!-- src/js/directable/directables/rhythm/asdr/DirectableRhythmASDRManager.js&#45;&gt;src/js/application/ApplicationLogger.js -->
<g id="edge12" class="edge">
<title>src/js/directable/directables/rhythm/asdr/DirectableRhythmASDRManager.js&#45;&gt;src/js/application/ApplicationLogger.js</title>
<path fill="none" stroke="#000000" stroke-width="2" stroke-opacity="0.200000" d="M311.82,-476.67C323.32,-499.84 355.89,-558.53 402.25,-585 405.36,-586.77 486.05,-598.16 543.74,-606.12"/>
<polygon fill="#000000" fill-opacity="0.200000" stroke="#000000" stroke-width="2" stroke-opacity="0.200000" points="543.2,-608.17 549.43,-606.9 543.78,-604.01 543.2,-608.17"/>
</g>
<!-- src/js/directable/directables/rhythm/bpm/DirectableRhythmBPM.js -->
<g id="node15" class="node">
<title>src/js/directable/directables/rhythm/bpm/DirectableRhythmBPM.js</title>
<g id="a_node15"><a xlink:href="src/js/directable/directables/rhythm/bpm/DirectableRhythmBPM.js" xlink:title="DirectableRhythmBPM.js">
<path fill="#ffffcc" stroke="black" d="M359.08,-353.25C359.08,-353.25 253.42,-353.25 253.42,-353.25 250.33,-353.25 247.25,-350.17 247.25,-347.08 247.25,-347.08 247.25,-340.92 247.25,-340.92 247.25,-337.83 250.33,-334.75 253.42,-334.75 253.42,-334.75 359.08,-334.75 359.08,-334.75 362.17,-334.75 365.25,-337.83 365.25,-340.92 365.25,-340.92 365.25,-347.08 365.25,-347.08 365.25,-350.17 362.17,-353.25 359.08,-353.25"/>
<text text-anchor="start" x="255.25" y="-340.7" font-family="Helvetica,sans-Serif" font-size="9.00">DirectableRhythmBPM.js</text>
</a>
</g>
</g>
<!-- src/js/directable/directables/rhythm/bpm/DirectableRhythmBPM.js&#45;&gt;src/js/application/ApplicationLogger.js -->
<g id="edge13" class="edge">
<title>src/js/directable/directables/rhythm/bpm/DirectableRhythmBPM.js&#45;&gt;src/js/application/ApplicationLogger.js</title>
<path fill="none" stroke="#000000" stroke-width="2" stroke-opacity="0.200000" d="M349.46,-353.72C366.24,-359.83 383.96,-369.58 394.25,-385 404.87,-400.91 389.2,-543.01 402.25,-557 421.94,-578.1 507.4,-555.75 531.25,-572 537.49,-576.26 533.7,-581.88 539.25,-587 545.22,-592.51 552.48,-597.01 559.91,-600.64"/>
<polygon fill="#000000" fill-opacity="0.200000" stroke="#000000" stroke-width="2" stroke-opacity="0.200000" points="558.89,-602.49 565.22,-603.02 560.6,-598.65 558.89,-602.49"/>
</g>
<!-- src/js/directable/directables/rhythm/bpm/DirectableRhythmBPM.js&#45;&gt;src/js/directable/directables/rhythm/DirectableRhythm.js -->
<g id="edge14" class="edge">
<title>src/js/directable/directables/rhythm/bpm/DirectableRhythmBPM.js&#45;&gt;src/js/directable/directables/rhythm/DirectableRhythm.js</title>
<path fill="none" stroke="#000000" stroke-width="2" stroke-opacity="0.200000" d="M365.54,-344C379.22,-344 393.79,-344 407.44,-344"/>
<polygon fill="#000000" fill-opacity="0.200000" stroke="#000000" stroke-width="2" stroke-opacity="0.200000" points="407.23,-346.1 413.23,-344 407.23,-341.9 407.23,-346.1"/>
</g>
<!-- src/js/directable/directables/title/DirectableTitle.js -->
<g id="node16" class="node">
<title>src/js/directable/directables/title/DirectableTitle.js</title>
<g id="a_node16"><a xlink:href="src/js/directable/directables/title/DirectableTitle.js" xlink:title="DirectableTitle.js">
<path fill="#ffffcc" stroke="black" d="M342.21,-284.25C342.21,-284.25 270.29,-284.25 270.29,-284.25 267.21,-284.25 264.12,-281.17 264.12,-278.08 264.12,-278.08 264.12,-271.92 264.12,-271.92 264.12,-268.83 267.21,-265.75 270.29,-265.75 270.29,-265.75 342.21,-265.75 342.21,-265.75 345.29,-265.75 348.38,-268.83 348.38,-271.92 348.38,-271.92 348.38,-278.08 348.38,-278.08 348.38,-281.17 345.29,-284.25 342.21,-284.25"/>
<text text-anchor="start" x="272.12" y="-271.7" font-family="Helvetica,sans-Serif" font-size="9.00">DirectableTitle.js</text>
</a>
</g>
</g>
<!-- src/js/directable/directables/title/DirectableTitle.js&#45;&gt;src/js/application/ApplicationLogger.js -->
<g id="edge15" class="edge">
<title>src/js/directable/directables/title/DirectableTitle.js&#45;&gt;src/js/application/ApplicationLogger.js</title>
<path fill="none" stroke="#000000" stroke-width="2" stroke-opacity="0.200000" d="M340.33,-284.6C359.59,-292.04 382.34,-304.46 394.25,-324 406.92,-344.79 385.73,-525.11 402.25,-543 441.42,-585.4 487.43,-520.43 531.25,-558 541.4,-566.7 530.48,-576.9 539.25,-587 544.07,-592.55 550.24,-597 556.82,-600.56"/>
<polygon fill="#000000" fill-opacity="0.200000" stroke="#000000" stroke-width="2" stroke-opacity="0.200000" points="555.62,-602.31 561.94,-603.02 557.44,-598.53 555.62,-602.31"/>
</g>
<!-- src/js/directable/directables/title/DirectableTitle.js&#45;&gt;src/js/directable/Directable.js -->
<g id="edge16" class="edge">
<title>src/js/directable/directables/title/DirectableTitle.js&#45;&gt;src/js/directable/Directable.js</title>
<path fill="none" stroke="#000000" stroke-width="2" stroke-opacity="0.200000" d="M348.77,-275C404.72,-275 503.75,-275 559.75,-275"/>
<polygon fill="#000000" fill-opacity="0.200000" stroke="#000000" stroke-width="2" stroke-opacity="0.200000" points="559.66,-277.1 565.66,-275 559.66,-272.9 559.66,-277.1"/>
</g>
<!-- src/js/director/Director.js -->
<g id="node17" class="node">
<title>src/js/director/Director.js</title>
<g id="a_node17"><a xlink:href="src/js/director/Director.js" xlink:title="Director.js">
<path fill="#ffffcc" stroke="black" d="M328.33,-141.25C328.33,-141.25 284.17,-141.25 284.17,-141.25 281.08,-141.25 278,-138.17 278,-135.08 278,-135.08 278,-128.92 278,-128.92 278,-125.83 281.08,-122.75 284.17,-122.75 284.17,-122.75 328.33,-122.75 328.33,-122.75 331.42,-122.75 334.5,-125.83 334.5,-128.92 334.5,-128.92 334.5,-135.08 334.5,-135.08 334.5,-138.17 331.42,-141.25 328.33,-141.25"/>
<text text-anchor="start" x="286" y="-128.7" font-family="Helvetica,sans-Serif" font-size="9.00">Director.js</text>
</a>
</g>
</g>
<!-- src/js/director/directors/DirectorDanceRabbitDance.js -->
<g id="node18" class="node">
<title>src/js/director/directors/DirectorDanceRabbitDance.js</title>
<g id="a_node18"><a xlink:href="src/js/director/directors/DirectorDanceRabbitDance.js" xlink:title="DirectorDanceRabbitDance.js">
<path fill="#ffffcc" stroke="black" d="M172.08,-119.25C172.08,-119.25 46.17,-119.25 46.17,-119.25 43.08,-119.25 40,-116.17 40,-113.08 40,-113.08 40,-106.92 40,-106.92 40,-103.83 43.08,-100.75 46.17,-100.75 46.17,-100.75 172.08,-100.75 172.08,-100.75 175.17,-100.75 178.25,-103.83 178.25,-106.92 178.25,-106.92 178.25,-113.08 178.25,-113.08 178.25,-116.17 175.17,-119.25 172.08,-119.25"/>
<text text-anchor="start" x="48" y="-106.7" font-family="Helvetica,sans-Serif" font-size="9.00">DirectorDanceRabbitDance.js</text>
</a>
</g>
</g>
<!-- src/js/director/directors/DirectorDanceRabbitDance.js&#45;&gt;src/js/application/ApplicationLogger.js -->
<g id="edge17" class="edge">
<title>src/js/director/directors/DirectorDanceRabbitDance.js&#45;&gt;src/js/application/ApplicationLogger.js</title>
<path fill="none" stroke="#000000" stroke-width="2" stroke-opacity="0.200000" d="M147.82,-100.32C204.97,-87.81 315.24,-72.34 394.25,-115 489.38,-166.36 497.87,-213.17 531.25,-316 540.55,-344.65 522.36,-562.06 539.25,-587 542.88,-592.36 547.81,-596.66 553.33,-600.11"/>
<polygon fill="#000000" fill-opacity="0.200000" stroke="#000000" stroke-width="2" stroke-opacity="0.200000" points="552.19,-601.88 558.47,-602.88 554.18,-598.18 552.19,-601.88"/>
</g>
<!-- src/js/director/directors/DirectorDanceRabbitDance.js&#45;&gt;src/js/directable/directables/rhythm/bpm/DirectableRhythmBPM.js -->
<g id="edge18" class="edge">
<title>src/js/director/directors/DirectorDanceRabbitDance.js&#45;&gt;src/js/directable/directables/rhythm/bpm/DirectableRhythmBPM.js</title>
<path fill="none" stroke="#000000" stroke-width="2" stroke-opacity="0.200000" d="M111.1,-119.38C114.95,-151.68 132.14,-259.32 194.25,-314 206.51,-324.8 222.28,-331.75 238.06,-336.23"/>
<polygon fill="#000000" fill-opacity="0.200000" stroke="#000000" stroke-width="2" stroke-opacity="0.200000" points="237.54,-338.26 243.87,-337.71 238.58,-334.19 237.54,-338.26"/>
</g>
<!-- src/js/director/directors/DirectorDanceRabbitDance.js&#45;&gt;src/js/directable/directables/title/DirectableTitle.js -->
<g id="edge19" class="edge">
<title>src/js/director/directors/DirectorDanceRabbitDance.js&#45;&gt;src/js/directable/directables/title/DirectableTitle.js</title>
<path fill="none" stroke="#000000" stroke-width="2" stroke-opacity="0.200000" d="M112.74,-119.54C120.39,-145.59 145.4,-218.32 194.25,-253 211.76,-265.43 234.56,-271.26 254.94,-273.85"/>
<polygon fill="#000000" fill-opacity="0.200000" stroke="#000000" stroke-width="2" stroke-opacity="0.200000" points="254.6,-275.93 260.79,-274.48 255.05,-271.75 254.6,-275.93"/>
</g>
<!-- src/js/director/directors/DirectorDanceRabbitDance.js&#45;&gt;src/js/director/Director.js -->
<g id="edge20" class="edge">
<title>src/js/director/directors/DirectorDanceRabbitDance.js&#45;&gt;src/js/director/Director.js</title>
<path fill="none" stroke="#000000" stroke-width="2" stroke-opacity="0.200000" d="M178.64,-117.73C208.96,-121.14 243.4,-125.03 268.69,-127.88"/>
<polygon fill="#000000" fill-opacity="0.200000" stroke="#000000" stroke-width="2" stroke-opacity="0.200000" points="268.37,-129.96 274.57,-128.54 268.84,-125.78 268.37,-129.96"/>
</g>
<!-- src/js/event/ApplicationEvent.js -->
<g id="node19" class="node">
<title>src/js/event/ApplicationEvent.js</title>
<g id="a_node19"><a xlink:href="src/js/event/ApplicationEvent.js" xlink:title="ApplicationEvent.js">
<path fill="#ffffcc" stroke="black" d="M347.08,-618.25C347.08,-618.25 265.42,-618.25 265.42,-618.25 262.33,-618.25 259.25,-615.17 259.25,-612.08 259.25,-612.08 259.25,-605.92 259.25,-605.92 259.25,-602.83 262.33,-599.75 265.42,-599.75 265.42,-599.75 347.08,-599.75 347.08,-599.75 350.17,-599.75 353.25,-602.83 353.25,-605.92 353.25,-605.92 353.25,-612.08 353.25,-612.08 353.25,-615.17 350.17,-618.25 347.08,-618.25"/>
<text text-anchor="start" x="267.25" y="-605.7" font-family="Helvetica,sans-Serif" font-size="9.00">ApplicationEvent.js</text>
</a>
</g>
</g>
<!-- src/js/event/ApplicationEventDispatcher.js -->
<g id="node20" class="node">
<title>src/js/event/ApplicationEventDispatcher.js</title>
<g id="a_node20"><a xlink:href="src/js/event/ApplicationEventDispatcher.js" xlink:title="ApplicationEventDispatcher.js">
<path fill="#ffffcc" stroke="black" d="M171.71,-618.25C171.71,-618.25 46.54,-618.25 46.54,-618.25 43.46,-618.25 40.38,-615.17 40.38,-612.08 40.38,-612.08 40.38,-605.92 40.38,-605.92 40.38,-602.83 43.46,-599.75 46.54,-599.75 46.54,-599.75 171.71,-599.75 171.71,-599.75 174.79,-599.75 177.88,-602.83 177.88,-605.92 177.88,-605.92 177.88,-612.08 177.88,-612.08 177.88,-615.17 174.79,-618.25 171.71,-618.25"/>
<text text-anchor="start" x="48.38" y="-605.7" font-family="Helvetica,sans-Serif" font-size="9.00">ApplicationEventDispatcher.js</text>
</a>
</g>
</g>
<!-- src/js/event/ApplicationEventDispatcher.js&#45;&gt;src/js/event/ApplicationEvent.js -->
<g id="edge21" class="edge">
<title>src/js/event/ApplicationEventDispatcher.js&#45;&gt;src/js/event/ApplicationEvent.js</title>
<path fill="none" stroke="#000000" stroke-width="2" stroke-opacity="0.200000" d="M178.37,-609C201.75,-609 227.6,-609 249.83,-609"/>
<polygon fill="#000000" fill-opacity="0.200000" stroke="#000000" stroke-width="2" stroke-opacity="0.200000" points="249.77,-611.1 255.77,-609 249.77,-606.9 249.77,-611.1"/>
</g>
<!-- src/js/index.js -->
<g id="node21" class="node">
<title>src/js/index.js</title>
<g id="a_node21"><a xlink:href="src/js/index.js" xlink:title="index.js">
<path fill="#ffffcc" stroke="black" d="M327.08,-760.25C327.08,-760.25 285.42,-760.25 285.42,-760.25 282.33,-760.25 279.25,-757.17 279.25,-754.08 279.25,-754.08 279.25,-747.92 279.25,-747.92 279.25,-744.83 282.33,-741.75 285.42,-741.75 285.42,-741.75 327.08,-741.75 327.08,-741.75 330.17,-741.75 333.25,-744.83 333.25,-747.92 333.25,-747.92 333.25,-754.08 333.25,-754.08 333.25,-757.17 330.17,-760.25 327.08,-760.25"/>
<text text-anchor="start" x="290.5" y="-747.7" font-family="Helvetica,sans-Serif" font-size="9.00">index.js</text>
</a>
</g>
</g>
<!-- src/js/index.js&#45;&gt;src/js/application/Application.js -->
<g id="edge22" class="edge">
<title>src/js/index.js&#45;&gt;src/js/application/Application.js</title>
<path fill="none" stroke="#000000" stroke-width="2" stroke-opacity="0.200000" d="M333.63,-752.7C352.99,-752.45 378.56,-748.72 394.25,-733 406.75,-720.48 392.93,-709.04 402.25,-694 411.2,-679.57 426.02,-667.7 439.01,-659.26"/>
<polygon fill="#000000" fill-opacity="0.200000" stroke="#000000" stroke-width="2" stroke-opacity="0.200000" points="439.81,-661.23 443.81,-656.29 437.6,-657.66 439.81,-661.23"/>
</g>
<!-- src/js/overlay/dispatcher/OverlayDispatcher.js&#45;&gt;src/js/application/ApplicationLogger.js -->
<g id="edge30" class="edge">
<title>src/js/overlay/dispatcher/OverlayDispatcher.js&#45;&gt;src/js/application/ApplicationLogger.js</title>
<path fill="none" stroke="#000000" stroke-width="2" stroke-opacity="0.200000" d="M598.45,-888.28C581.99,-847 520.11,-686 535.25,-636 536.95,-630.38 540.37,-626.09 544.8,-622.83"/>
<polygon fill="#000000" fill-opacity="0.200000" stroke="#000000" stroke-width="2" stroke-opacity="0.200000" points="545.64,-624.76 549.85,-620 543.59,-621.1 545.64,-624.76"/>
</g>
<!-- src/js/overlay/dispatcher/OverlayDispatcherEvent.js -->
<g id="node26" class="node">
<title>src/js/overlay/dispatcher/OverlayDispatcherEvent.js</title>
<g id="a_node26"><a xlink:href="src/js/overlay/dispatcher/OverlayDispatcherEvent.js" xlink:title="OverlayDispatcherEvent.js">
<path fill="#ffffcc" stroke="black" d="M799.33,-907.25C799.33,-907.25 687.67,-907.25 687.67,-907.25 684.58,-907.25 681.5,-904.17 681.5,-901.08 681.5,-901.08 681.5,-894.92 681.5,-894.92 681.5,-891.83 684.58,-888.75 687.67,-888.75 687.67,-888.75 799.33,-888.75 799.33,-888.75 802.42,-888.75 805.5,-891.83 805.5,-894.92 805.5,-894.92 805.5,-901.08 805.5,-901.08 805.5,-904.17 802.42,-907.25 799.33,-907.25"/>
<text text-anchor="start" x="689.5" y="-894.7" font-family="Helvetica,sans-Serif" font-size="9.00">OverlayDispatcherEvent.js</text>
</a>
</g>
</g>
<!-- src/js/overlay/dispatcher/OverlayDispatcher.js&#45;&gt;src/js/overlay/dispatcher/OverlayDispatcherEvent.js -->
<g id="edge31" class="edge">
<title>src/js/overlay/dispatcher/OverlayDispatcher.js&#45;&gt;src/js/overlay/dispatcher/OverlayDispatcherEvent.js</title>
<path fill="none" stroke="#000000" stroke-width="2" stroke-opacity="0.200000" d="M652.82,-898C659.15,-898 665.73,-898 672.32,-898"/>
<polygon fill="#000000" fill-opacity="0.200000" stroke="#000000" stroke-width="2" stroke-opacity="0.200000" points="672.26,-900.1 678.26,-898 672.26,-895.9 672.26,-900.1"/>
</g>
<!-- src/js/overlay/OverlayUtil.js -->
<g id="node24" class="node">
<title>src/js/overlay/OverlayUtil.js</title>
<g id="a_node24"><a xlink:href="src/js/overlay/OverlayUtil.js" xlink:title="OverlayUtil.js">
<path fill="#ffffcc" stroke="black" d="M494.83,-937.25C494.83,-937.25 437.17,-937.25 437.17,-937.25 434.08,-937.25 431,-934.17 431,-931.08 431,-931.08 431,-924.92 431,-924.92 431,-921.83 434.08,-918.75 437.17,-918.75 437.17,-918.75 494.83,-918.75 494.83,-918.75 497.92,-918.75 501,-921.83 501,-924.92 501,-924.92 501,-931.08 501,-931.08 501,-934.17 497.92,-937.25 494.83,-937.25"/>
<text text-anchor="start" x="439" y="-924.7" font-family="Helvetica,sans-Serif" font-size="9.00">OverlayUtil.js</text>
</a>
</g>
</g>
<!-- src/js/overlay/overlay/OverlayOverlay.js&#45;&gt;src/js/overlay/OverlayUtil.js -->
<g id="edge34" class="edge">
<title>src/js/overlay/overlay/OverlayOverlay.js&#45;&gt;src/js/overlay/OverlayUtil.js</title>
<path fill="none" stroke="#000000" stroke-width="2" stroke-opacity="0.200000" d="M350.2,-1107.93C365.52,-1104.95 382,-1099.36 394.25,-1089 438.8,-1051.31 456.26,-980.15 462.26,-946.51"/>
<polygon fill="#000000" fill-opacity="0.200000" stroke="#000000" stroke-width="2" stroke-opacity="0.200000" points="464.31,-946.96 463.22,-940.7 460.17,-946.28 464.31,-946.96"/>
</g>
<!-- src/js/overlay/OverlayUtil.js&#45;&gt;src/js/application/ApplicationLogger.js -->
<g id="edge27" class="edge">
<title>src/js/overlay/OverlayUtil.js&#45;&gt;src/js/application/ApplicationLogger.js</title>
<path fill="none" stroke="#000000" stroke-width="2" stroke-opacity="0.200000" d="M476.68,-918.45C491.63,-902.97 519.83,-870.7 531.25,-837 538.64,-815.2 524.8,-647.92 539.25,-630 540.92,-627.93 542.82,-626.1 544.9,-624.5"/>
<polygon fill="#000000" fill-opacity="0.200000" stroke="#000000" stroke-width="2" stroke-opacity="0.200000" points="545.91,-626.34 549.94,-621.42 543.72,-622.75 545.91,-626.34"/>
</g>
<!-- src/js/overlay/OverlayUtil.js&#45;&gt;src/js/overlay/dispatcher/OverlayDispatcher.js -->
<g id="edge28" class="edge">
<title>src/js/overlay/OverlayUtil.js&#45;&gt;src/js/overlay/dispatcher/OverlayDispatcher.js</title>
<path fill="none" stroke="#000000" stroke-width="2" stroke-opacity="0.200000" d="M501.26,-920.35C515.82,-917.1 533.13,-913.24 549.22,-909.64"/>
<polygon fill="#000000" fill-opacity="0.200000" stroke="#000000" stroke-width="2" stroke-opacity="0.200000" points="549.66,-911.7 555.06,-908.34 548.75,-907.6 549.66,-911.7"/>
</g>
<!-- src/js/overlay/capture/OverlayCapture.js -->
<g id="node25" class="node">
<title>src/js/overlay/capture/OverlayCapture.js</title>
<g id="a_node25"><a xlink:href="src/js/overlay/capture/OverlayCapture.js" xlink:title="OverlayCapture.js">
<path fill="#ffffcc" stroke="black" d="M344.83,-998.25C344.83,-998.25 267.67,-998.25 267.67,-998.25 264.58,-998.25 261.5,-995.17 261.5,-992.08 261.5,-992.08 261.5,-985.92 261.5,-985.92 261.5,-982.83 264.58,-979.75 267.67,-979.75 267.67,-979.75 344.83,-979.75 344.83,-979.75 347.92,-979.75 351,-982.83 351,-985.92 351,-985.92 351,-992.08 351,-992.08 351,-995.17 347.92,-998.25 344.83,-998.25"/>
<text text-anchor="start" x="269.5" y="-985.7" font-family="Helvetica,sans-Serif" font-size="9.00">OverlayCapture.js</text>
</a>
</g>
</g>
<!-- src/js/overlay/capture/OverlayCapture.js&#45;&gt;src/js/overlay/OverlayUtil.js -->
<g id="edge29" class="edge">
<title>src/js/overlay/capture/OverlayCapture.js&#45;&gt;src/js/overlay/OverlayUtil.js</title>
<path fill="none" stroke="#000000" stroke-width="2" stroke-opacity="0.200000" d="M351.31,-980.18C365.28,-976.77 380.63,-972.37 394.25,-967 411.16,-960.33 429.07,-950.42 442.65,-942.26"/>
<polygon fill="#000000" fill-opacity="0.200000" stroke="#000000" stroke-width="2" stroke-opacity="0.200000" points="443.5,-944.2 447.51,-939.28 441.3,-940.62 443.5,-944.2"/>
</g>
<!-- src/js/overlay/format/OverlayFormat.js -->
<g id="node27" class="node">
<title>src/js/overlay/format/OverlayFormat.js</title>
<g id="a_node27"><a xlink:href="src/js/overlay/format/OverlayFormat.js" xlink:title="OverlayFormat.js">
<path fill="#ffffcc" stroke="black" d="M342.58,-1059.25C342.58,-1059.25 269.92,-1059.25 269.92,-1059.25 266.83,-1059.25 263.75,-1056.17 263.75,-1053.08 263.75,-1053.08 263.75,-1046.92 263.75,-1046.92 263.75,-1043.83 266.83,-1040.75 269.92,-1040.75 269.92,-1040.75 342.58,-1040.75 342.58,-1040.75 345.67,-1040.75 348.75,-1043.83 348.75,-1046.92 348.75,-1046.92 348.75,-1053.08 348.75,-1053.08 348.75,-1056.17 345.67,-1059.25 342.58,-1059.25"/>
<text text-anchor="start" x="271.75" y="-1046.7" font-family="Helvetica,sans-Serif" font-size="9.00">OverlayFormat.js</text>
</a>
</g>
</g>
<!-- src/js/overlay/format/OverlayFormat.js&#45;&gt;src/js/overlay/OverlayUtil.js -->
<g id="edge32" class="edge">
<title>src/js/overlay/format/OverlayFormat.js&#45;&gt;src/js/overlay/OverlayUtil.js</title>
<path fill="none" stroke="#000000" stroke-width="2" stroke-opacity="0.200000" d="M349.15,-1045.55C364.35,-1042.41 381.02,-1037.08 394.25,-1028 424.75,-1007.07 446.46,-968.43 457.25,-945.8"/>
<polygon fill="#000000" fill-opacity="0.200000" stroke="#000000" stroke-width="2" stroke-opacity="0.200000" points="459.1,-946.79 459.7,-940.46 455.29,-945.04 459.1,-946.79"/>
</g>
<!-- src/js/overlay/media/OverlayMedia.js -->
<g id="node28" class="node">
<title>src/js/overlay/media/OverlayMedia.js</title>
<g id="a_node28"><a xlink:href="src/js/overlay/media/OverlayMedia.js" xlink:title="OverlayMedia.js">
<path fill="#ffffcc" stroke="black" d="M341.08,-876.25C341.08,-876.25 271.42,-876.25 271.42,-876.25 268.33,-876.25 265.25,-873.17 265.25,-870.08 265.25,-870.08 265.25,-863.92 265.25,-863.92 265.25,-860.83 268.33,-857.75 271.42,-857.75 271.42,-857.75 341.08,-857.75 341.08,-857.75 344.17,-857.75 347.25,-860.83 347.25,-863.92 347.25,-863.92 347.25,-870.08 347.25,-870.08 347.25,-873.17 344.17,-876.25 341.08,-876.25"/>
<text text-anchor="start" x="273.25" y="-863.7" font-family="Helvetica,sans-Serif" font-size="9.00">OverlayMedia.js</text>
</a>
</g>
</g>
<!-- src/js/overlay/media/OverlayMedia.js&#45;&gt;src/js/overlay/OverlayUtil.js -->
<g id="edge33" class="edge">
<title>src/js/overlay/media/OverlayMedia.js&#45;&gt;src/js/overlay/OverlayUtil.js</title>
<path fill="none" stroke="#000000" stroke-width="2" stroke-opacity="0.200000" d="M332.25,-876.67C359.05,-887.03 401.76,-903.55 431.47,-915.03"/>
<polygon fill="#000000" fill-opacity="0.200000" stroke="#000000" stroke-width="2" stroke-opacity="0.200000" points="430.68,-916.98 437.04,-917.19 432.2,-913.06 430.68,-916.98"/>
</g>
<!-- src/js/overlay/rhythm/OverlayRhythm.js -->
<g id="node29" class="node">
<title>src/js/overlay/rhythm/OverlayRhythm.js</title>
<g id="a_node29"><a xlink:href="src/js/overlay/rhythm/OverlayRhythm.js" xlink:title="OverlayRhythm.js">
<path fill="#ffffcc" stroke="black" d="M344.08,-937.25C344.08,-937.25 268.42,-937.25 268.42,-937.25 265.33,-937.25 262.25,-934.17 262.25,-931.08 262.25,-931.08 262.25,-924.92 262.25,-924.92 262.25,-921.83 265.33,-918.75 268.42,-918.75 268.42,-918.75 344.08,-918.75 344.08,-918.75 347.17,-918.75 350.25,-921.83 350.25,-924.92 350.25,-924.92 350.25,-931.08 350.25,-931.08 350.25,-934.17 347.17,-937.25 344.08,-937.25"/>
<text text-anchor="start" x="270.25" y="-924.7" font-family="Helvetica,sans-Serif" font-size="9.00">OverlayRhythm.js</text>
</a>
</g>
</g>
<!-- src/js/overlay/rhythm/OverlayRhythm.js&#45;&gt;src/js/overlay/OverlayUtil.js -->
<g id="edge35" class="edge">
<title>src/js/overlay/rhythm/OverlayRhythm.js&#45;&gt;src/js/overlay/OverlayUtil.js</title>
<path fill="none" stroke="#000000" stroke-width="2" stroke-opacity="0.200000" d="M350.36,-928C372.57,-928 399.57,-928 421.8,-928"/>
<polygon fill="#000000" fill-opacity="0.200000" stroke="#000000" stroke-width="2" stroke-opacity="0.200000" points="421.66,-930.1 427.66,-928 421.66,-925.9 421.66,-930.1"/>
</g>
<!-- src/js/rhythm/ViewRhythm.js -->
<g id="node30" class="node">
<title>src/js/rhythm/ViewRhythm.js</title>
<g id="a_node30"><a xlink:href="src/js/rhythm/ViewRhythm.js" xlink:title="ViewRhythm.js">
<path fill="#ffffcc" stroke="black" d="M141.33,-679.25C141.33,-679.25 76.92,-679.25 76.92,-679.25 73.83,-679.25 70.75,-676.17 70.75,-673.08 70.75,-673.08 70.75,-666.92 70.75,-666.92 70.75,-663.83 73.83,-660.75 76.92,-660.75 76.92,-660.75 141.33,-660.75 141.33,-660.75 144.42,-660.75 147.5,-663.83 147.5,-666.92 147.5,-666.92 147.5,-673.08 147.5,-673.08 147.5,-676.17 144.42,-679.25 141.33,-679.25"/>
<text text-anchor="start" x="78.75" y="-666.7" font-family="Helvetica,sans-Serif" font-size="9.00">ViewRhythm.js</text>
</a>
</g>
</g>
<!-- src/js/rhythm/ViewRhythmTrack.js -->
<g id="node31" class="node">
<title>src/js/rhythm/ViewRhythmTrack.js</title>
<g id="a_node31"><a xlink:href="src/js/rhythm/ViewRhythmTrack.js" xlink:title="ViewRhythmTrack.js">
<path fill="#ffffcc" stroke="black" d="M349.71,-679.25C349.71,-679.25 262.79,-679.25 262.79,-679.25 259.71,-679.25 256.62,-676.17 256.62,-673.08 256.62,-673.08 256.62,-666.92 256.62,-666.92 256.62,-663.83 259.71,-660.75 262.79,-660.75 262.79,-660.75 349.71,-660.75 349.71,-660.75 352.79,-660.75 355.88,-663.83 355.88,-666.92 355.88,-666.92 355.88,-673.08 355.88,-673.08 355.88,-676.17 352.79,-679.25 349.71,-679.25"/>
<text text-anchor="start" x="264.62" y="-666.7" font-family="Helvetica,sans-Serif" font-size="9.00">ViewRhythmTrack.js</text>
</a>
</g>
</g>
<!-- src/js/rhythm/ViewRhythm.js&#45;&gt;src/js/rhythm/ViewRhythmTrack.js -->
<g id="edge36" class="edge">
<title>src/js/rhythm/ViewRhythm.js&#45;&gt;src/js/rhythm/ViewRhythmTrack.js</title>
<path fill="none" stroke="#000000" stroke-width="2" stroke-opacity="0.200000" d="M147.75,-670C175.99,-670 215.17,-670 247.39,-670"/>
<polygon fill="#000000" fill-opacity="0.200000" stroke="#000000" stroke-width="2" stroke-opacity="0.200000" points="247.25,-672.1 253.25,-670 247.25,-667.9 247.25,-672.1"/>
</g>
<!-- src/js/view/render/RenderController.js -->
<g id="node32" class="node">
<title>src/js/view/render/RenderController.js</title>
<g id="a_node32"><a xlink:href="src/js/view/render/RenderController.js" xlink:title="RenderController.js">
<path fill="#ccffcc" stroke="black" d="M507.58,-723.25C507.58,-723.25 424.42,-723.25 424.42,-723.25 421.33,-723.25 418.25,-720.17 418.25,-717.08 418.25,-717.08 418.25,-710.92 418.25,-710.92 418.25,-707.83 421.33,-704.75 424.42,-704.75 424.42,-704.75 507.58,-704.75 507.58,-704.75 510.67,-704.75 513.75,-707.83 513.75,-710.92 513.75,-710.92 513.75,-717.08 513.75,-717.08 513.75,-720.17 510.67,-723.25 507.58,-723.25"/>
<text text-anchor="start" x="426.25" y="-710.7" font-family="Helvetica,sans-Serif" font-size="9.00">RenderController.js</text>
</a>
</g>
</g>
<!-- src/js/view/render/RenderResizer.js -->
<g id="node33" class="node">
<title>src/js/view/render/RenderResizer.js</title>
<g id="a_node33"><a xlink:href="src/js/view/render/RenderResizer.js" xlink:title="RenderResizer.js">
<path fill="#ffffcc" stroke="black" d="M503.08,-754.25C503.08,-754.25 428.92,-754.25 428.92,-754.25 425.83,-754.25 422.75,-751.17 422.75,-748.08 422.75,-748.08 422.75,-741.92 422.75,-741.92 422.75,-738.83 425.83,-735.75 428.92,-735.75 428.92,-735.75 503.08,-735.75 503.08,-735.75 506.17,-735.75 509.25,-738.83 509.25,-741.92 509.25,-741.92 509.25,-748.08 509.25,-748.08 509.25,-751.17 506.17,-754.25 503.08,-754.25"/>
<text text-anchor="start" x="430.75" y="-741.7" font-family="Helvetica,sans-Serif" font-size="9.00">RenderResizer.js</text>
</a>
</g>
</g>
<!-- src/js/view/render/RenderResizer.js&#45;&gt;src/js/application/ApplicationConfiguration.js -->
<g id="edge37" class="edge">
<title>src/js/view/render/RenderResizer.js&#45;&gt;src/js/application/ApplicationConfiguration.js</title>
<path fill="none" stroke="#000000" stroke-width="2" stroke-opacity="0.200000" d="M509.68,-738.4C517.21,-736.13 524.72,-733.09 531.25,-729 558.18,-712.13 579.85,-681.45 591.64,-662.21"/>
<polygon fill="#000000" fill-opacity="0.200000" stroke="#000000" stroke-width="2" stroke-opacity="0.200000" points="593.42,-663.33 594.67,-657.1 589.8,-661.19 593.42,-663.33"/>
</g>
<!-- src/js/view/render/RenderResizer.js&#45;&gt;src/js/application/ApplicationLogger.js -->
<g id="edge38" class="edge">
<title>src/js/view/render/RenderResizer.js&#45;&gt;src/js/application/ApplicationLogger.js</title>
<path fill="none" stroke="#000000" stroke-width="2" stroke-opacity="0.200000" d="M509.57,-742.17C517.85,-739.67 525.67,-735.57 531.25,-729 545.53,-712.17 525.04,-646.89 539.25,-630 540.93,-628 542.82,-626.24 544.88,-624.68"/>
<polygon fill="#000000" fill-opacity="0.200000" stroke="#000000" stroke-width="2" stroke-opacity="0.200000" points="545.76,-626.6 549.81,-621.7 543.59,-623 545.76,-626.6"/>
</g>
<!-- src/js/view/render/RenderResizer.js&#45;&gt;src/js/overlay/dispatcher/OverlayDispatcher.js -->
<g id="edge39" class="edge">
<title>src/js/view/render/RenderResizer.js&#45;&gt;src/js/overlay/dispatcher/OverlayDispatcher.js</title>
<path fill="none" stroke="#000000" stroke-width="2" stroke-opacity="0.200000" d="M509.45,-747.95C517.25,-749.99 524.92,-753.16 531.25,-758 571.58,-788.85 590.39,-849.21 597.61,-879.6"/>
<polygon fill="#000000" fill-opacity="0.200000" stroke="#000000" stroke-width="2" stroke-opacity="0.200000" points="595.55,-879.98 598.9,-885.38 599.65,-879.07 595.55,-879.98"/>
</g>
</g>
</svg>
