<?xml version="1.0" encoding="UTF-8" standalone="no"?>
<!DOCTYPE svg PUBLIC "-//W3C//DTD SVG 1.1//EN"
 "http://www.w3.org/Graphics/SVG/1.1/DTD/svg11.dtd">
<!-- Generated by graphviz version 12.2.1 (20241206.2353)
 -->
<!-- Title: dependency&#45;cruiser output Pages: 1 -->
<svg width="862pt" height="1121pt"
 viewBox="0.00 0.00 861.88 1121.00" xmlns="http://www.w3.org/2000/svg" xmlns:xlink="http://www.w3.org/1999/xlink">
<g id="graph0" class="graph" transform="scale(1 1) rotate(0) translate(4 1117)">
<title>dependency&#45;cruiser output</title>
<polygon fill="white" stroke="none" points="-4,4 -4,-1117 857.88,-1117 857.88,4 -4,4"/>
<g id="clust1" class="cluster">
<title>cluster_src</title>
<path fill="#ffffff" stroke="black" stroke-width="2" d="M20,-8C20,-8 833.88,-8 833.88,-8 839.88,-8 845.88,-14 845.88,-20 845.88,-20 845.88,-1093 845.88,-1093 845.88,-1099 839.88,-1105 833.88,-1105 833.88,-1105 20,-1105 20,-1105 14,-1105 8,-1099 8,-1093 8,-1093 8,-20 8,-20 8,-14 14,-8 20,-8"/>
<text text-anchor="middle" x="426.94" y="-1092.45" font-family="Helvetica,sans-Serif" font-weight="bold" font-size="9.00">src</text>
</g>
<g id="clust2" class="cluster">
<title>cluster_src/js</title>
<path fill="#ffffff" stroke="black" stroke-width="2" d="M28,-16C28,-16 825.88,-16 825.88,-16 831.88,-16 837.88,-22 837.88,-28 837.88,-28 837.88,-1066 837.88,-1066 837.88,-1072 831.88,-1078 825.88,-1078 825.88,-1078 28,-1078 28,-1078 22,-1078 16,-1072 16,-1066 16,-1066 16,-28 16,-28 16,-22 22,-16 28,-16"/>
<text text-anchor="middle" x="426.94" y="-1065.45" font-family="Helvetica,sans-Serif" font-weight="bold" font-size="9.00">js</text>
</g>
<g id="clust3" class="cluster">
<title>cluster_src/js/application</title>
<path fill="#ffffff" stroke="black" stroke-width="2" d="M274.88,-903C274.88,-903 337.62,-903 337.62,-903 343.62,-903 349.62,-909 349.62,-915 349.62,-915 349.62,-944 349.62,-944 349.62,-950 343.62,-956 337.62,-956 337.62,-956 274.88,-956 274.88,-956 268.88,-956 262.88,-950 262.88,-944 262.88,-944 262.88,-915 262.88,-915 262.88,-909 268.88,-903 274.88,-903"/>
<text text-anchor="middle" x="306.25" y="-943.45" font-family="Helvetica,sans-Serif" font-weight="bold" font-size="9.00">application</text>
</g>
<g id="clust4" class="cluster">
<title>cluster_src/js/controller</title>
<path fill="#ffffff" stroke="black" stroke-width="2" d="M423.12,-903C423.12,-903 479.88,-903 479.88,-903 485.88,-903 491.88,-909 491.88,-915 491.88,-915 491.88,-944 491.88,-944 491.88,-950 485.88,-956 479.88,-956 479.88,-956 423.12,-956 423.12,-956 417.12,-956 411.12,-950 411.12,-944 411.12,-944 411.12,-915 411.12,-915 411.12,-909 417.12,-903 423.12,-903"/>
<text text-anchor="middle" x="451.5" y="-943.45" font-family="Helvetica,sans-Serif" font-weight="bold" font-size="9.00">controller</text>
</g>
<g id="clust5" class="cluster">
<title>cluster_src/js/data</title>
<path fill="#ffffff" stroke="black" stroke-width="2" d="M71,-24C71,-24 329.75,-24 329.75,-24 335.75,-24 341.75,-30 341.75,-36 341.75,-36 341.75,-65 341.75,-65 341.75,-71 335.75,-77 329.75,-77 329.75,-77 71,-77 71,-77 65,-77 59,-71 59,-65 59,-65 59,-36 59,-36 59,-30 65,-24 71,-24"/>
<text text-anchor="middle" x="200.38" y="-64.45" font-family="Helvetica,sans-Serif" font-weight="bold" font-size="9.00">data</text>
</g>
<g id="clust6" class="cluster">
<title>cluster_src/js/directable</title>
<path fill="#ffffff" stroke="black" stroke-width="2" d="M206.25,-181C206.25,-181 590.12,-181 590.12,-181 596.12,-181 602.12,-187 602.12,-193 602.12,-193 602.12,-572 602.12,-572 602.12,-578 596.12,-584 590.12,-584 590.12,-584 206.25,-584 206.25,-584 200.25,-584 194.25,-578 194.25,-572 194.25,-572 194.25,-193 194.25,-193 194.25,-187 200.25,-181 206.25,-181"/>
<text text-anchor="middle" x="398.19" y="-571.45" font-family="Helvetica,sans-Serif" font-weight="bold" font-size="9.00">directable</text>
</g>
<g id="clust7" class="cluster">
<title>cluster_src/js/directable/directables</title>
<path fill="#ffffff" stroke="black" stroke-width="2" d="M214.25,-189C214.25,-189 504.75,-189 504.75,-189 510.75,-189 516.75,-195 516.75,-201 516.75,-201 516.75,-545 516.75,-545 516.75,-551 510.75,-557 504.75,-557 504.75,-557 214.25,-557 214.25,-557 208.25,-557 202.25,-551 202.25,-545 202.25,-545 202.25,-201 202.25,-201 202.25,-195 208.25,-189 214.25,-189"/>
<text text-anchor="middle" x="359.5" y="-544.45" font-family="Helvetica,sans-Serif" font-weight="bold" font-size="9.00">directables</text>
</g>
<g id="clust8" class="cluster">
<title>cluster_src/js/directable/directables/frame</title>
<path fill="#ffffff" stroke="black" stroke-width="2" d="M263.62,-416C263.62,-416 348.88,-416 348.88,-416 354.88,-416 360.88,-422 360.88,-428 360.88,-428 360.88,-457 360.88,-457 360.88,-463 354.88,-469 348.88,-469 348.88,-469 263.62,-469 263.62,-469 257.62,-469 251.62,-463 251.62,-457 251.62,-457 251.62,-428 251.62,-428 251.62,-422 257.62,-416 263.62,-416"/>
<text text-anchor="middle" x="306.25" y="-456.45" font-family="Helvetica,sans-Serif" font-weight="bold" font-size="9.00">frame</text>
</g>
<g id="clust9" class="cluster">
<title>cluster_src/js/directable/directables/rhythm</title>
<path fill="#ffffff" stroke="black" stroke-width="2" d="M222.25,-197C222.25,-197 496.75,-197 496.75,-197 502.75,-197 508.75,-203 508.75,-209 508.75,-209 508.75,-396 508.75,-396 508.75,-402 502.75,-408 496.75,-408 496.75,-408 222.25,-408 222.25,-408 216.25,-408 210.25,-402 210.25,-396 210.25,-396 210.25,-209 210.25,-209 210.25,-203 216.25,-197 222.25,-197"/>
<text text-anchor="middle" x="359.5" y="-395.45" font-family="Helvetica,sans-Serif" font-weight="bold" font-size="9.00">rhythm</text>
</g>
<g id="clust10" class="cluster">
<title>cluster_src/js/directable/directables/rhythm/asdr</title>
<path fill="#ffffff" stroke="black" stroke-width="2" d="M230.25,-205C230.25,-205 382.25,-205 382.25,-205 388.25,-205 394.25,-211 394.25,-217 394.25,-217 394.25,-308 394.25,-308 394.25,-314 388.25,-320 382.25,-320 382.25,-320 230.25,-320 230.25,-320 224.25,-320 218.25,-314 218.25,-308 218.25,-308 218.25,-217 218.25,-217 218.25,-211 224.25,-205 230.25,-205"/>
<text text-anchor="middle" x="306.25" y="-307.45" font-family="Helvetica,sans-Serif" font-weight="bold" font-size="9.00">asdr</text>
</g>
<g id="clust11" class="cluster">
<title>cluster_src/js/directable/directables/rhythm/bpm</title>
<path fill="#ffffff" stroke="black" stroke-width="2" d="M251.25,-328C251.25,-328 361.25,-328 361.25,-328 367.25,-328 373.25,-334 373.25,-340 373.25,-340 373.25,-369 373.25,-369 373.25,-375 367.25,-381 361.25,-381 361.25,-381 251.25,-381 251.25,-381 245.25,-381 239.25,-375 239.25,-369 239.25,-369 239.25,-340 239.25,-340 239.25,-334 245.25,-328 251.25,-328"/>
<text text-anchor="middle" x="306.25" y="-368.45" font-family="Helvetica,sans-Serif" font-weight="bold" font-size="9.00">bpm</text>
</g>
<g id="clust12" class="cluster">
<title>cluster_src/js/directable/directables/title</title>
<path fill="#ffffff" stroke="black" stroke-width="2" d="M268.12,-477C268.12,-477 344.38,-477 344.38,-477 350.38,-477 356.38,-483 356.38,-489 356.38,-489 356.38,-518 356.38,-518 356.38,-524 350.38,-530 344.38,-530 344.38,-530 268.12,-530 268.12,-530 262.12,-530 256.12,-524 256.12,-518 256.12,-518 256.12,-489 256.12,-489 256.12,-483 262.12,-477 268.12,-477"/>
<text text-anchor="middle" x="306.25" y="-517.45" font-family="Helvetica,sans-Serif" font-weight="bold" font-size="9.00">title</text>
</g>
<g id="clust13" class="cluster">
<title>cluster_src/js/director</title>
<path fill="#ffffff" stroke="black" stroke-width="2" d="M36,-85C36,-85 330.5,-85 330.5,-85 336.5,-85 342.5,-91 342.5,-97 342.5,-97 342.5,-161 342.5,-161 342.5,-167 336.5,-173 330.5,-173 330.5,-173 36,-173 36,-173 30,-173 24,-167 24,-161 24,-161 24,-97 24,-97 24,-91 30,-85 36,-85"/>
<text text-anchor="middle" x="183.25" y="-160.45" font-family="Helvetica,sans-Serif" font-weight="bold" font-size="9.00">director</text>
</g>
<g id="clust14" class="cluster">
<title>cluster_src/js/director/directors</title>
<path fill="#ffffff" stroke="black" stroke-width="2" d="M44,-93C44,-93 174.25,-93 174.25,-93 180.25,-93 186.25,-99 186.25,-105 186.25,-105 186.25,-134 186.25,-134 186.25,-140 180.25,-146 174.25,-146 174.25,-146 44,-146 44,-146 38,-146 32,-140 32,-134 32,-134 32,-105 32,-105 32,-99 38,-93 44,-93"/>
<text text-anchor="middle" x="109.12" y="-133.45" font-family="Helvetica,sans-Serif" font-weight="bold" font-size="9.00">directors</text>
</g>
<g id="clust15" class="cluster">
<title>cluster_src/js/overlay</title>
<path fill="#ffffff" stroke="black" stroke-width="2" d="M536.75,-592C536.75,-592 801.25,-592 801.25,-592 807.25,-592 813.25,-598 813.25,-604 813.25,-604 813.25,-912 813.25,-912 813.25,-918 807.25,-924 801.25,-924 801.25,-924 536.75,-924 536.75,-924 530.75,-924 524.75,-918 524.75,-912 524.75,-912 524.75,-604 524.75,-604 524.75,-598 530.75,-592 536.75,-592"/>
<text text-anchor="middle" x="669" y="-911.45" font-family="Helvetica,sans-Serif" font-weight="bold" font-size="9.00">overlay</text>
</g>
<g id="clust16" class="cluster">
<title>cluster_src/js/overlay/capture</title>
<path fill="#ffffff" stroke="black" stroke-width="2" d="M625.12,-600C625.12,-600 706.62,-600 706.62,-600 712.62,-600 718.62,-606 718.62,-612 718.62,-612 718.62,-641 718.62,-641 718.62,-647 712.62,-653 706.62,-653 706.62,-653 625.12,-653 625.12,-653 619.12,-653 613.12,-647 613.12,-641 613.12,-641 613.12,-612 613.12,-612 613.12,-606 619.12,-600 625.12,-600"/>
<text text-anchor="middle" x="665.88" y="-640.45" font-family="Helvetica,sans-Serif" font-weight="bold" font-size="9.00">capture</text>
</g>
<g id="clust17" class="cluster">
<title>cluster_src/js/overlay/format</title>
<path fill="#ffffff" stroke="black" stroke-width="2" d="M627.38,-661C627.38,-661 704.38,-661 704.38,-661 710.38,-661 716.38,-667 716.38,-673 716.38,-673 716.38,-702 716.38,-702 716.38,-708 710.38,-714 704.38,-714 704.38,-714 627.38,-714 627.38,-714 621.38,-714 615.38,-708 615.38,-702 615.38,-702 615.38,-673 615.38,-673 615.38,-667 621.38,-661 627.38,-661"/>
<text text-anchor="middle" x="665.88" y="-701.45" font-family="Helvetica,sans-Serif" font-weight="bold" font-size="9.00">format</text>
</g>
<g id="clust18" class="cluster">
<title>cluster_src/js/overlay/media</title>
<path fill="#ffffff" stroke="black" stroke-width="2" d="M628.88,-722C628.88,-722 702.88,-722 702.88,-722 708.88,-722 714.88,-728 714.88,-734 714.88,-734 714.88,-763 714.88,-763 714.88,-769 708.88,-775 702.88,-775 702.88,-775 628.88,-775 628.88,-775 622.88,-775 616.88,-769 616.88,-763 616.88,-763 616.88,-734 616.88,-734 616.88,-728 622.88,-722 628.88,-722"/>
<text text-anchor="middle" x="665.88" y="-762.45" font-family="Helvetica,sans-Serif" font-weight="bold" font-size="9.00">media</text>
</g>
<g id="clust19" class="cluster">
<title>cluster_src/js/overlay/overlay</title>
<path fill="#ffffff" stroke="black" stroke-width="2" d="M626.25,-844C626.25,-844 705.5,-844 705.5,-844 711.5,-844 717.5,-850 717.5,-856 717.5,-856 717.5,-885 717.5,-885 717.5,-891 711.5,-897 705.5,-897 705.5,-897 626.25,-897 626.25,-897 620.25,-897 614.25,-891 614.25,-885 614.25,-885 614.25,-856 614.25,-856 614.25,-850 620.25,-844 626.25,-844"/>
<text text-anchor="middle" x="665.88" y="-884.45" font-family="Helvetica,sans-Serif" font-weight="bold" font-size="9.00">overlay</text>
</g>
<g id="clust20" class="cluster">
<title>cluster_src/js/overlay/rhythm</title>
<path fill="#ffffff" stroke="black" stroke-width="2" d="M625.88,-783C625.88,-783 705.88,-783 705.88,-783 711.88,-783 717.88,-789 717.88,-795 717.88,-795 717.88,-824 717.88,-824 717.88,-830 711.88,-836 705.88,-836 705.88,-836 625.88,-836 625.88,-836 619.88,-836 613.88,-830 613.88,-824 613.88,-824 613.88,-795 613.88,-795 613.88,-789 619.88,-783 625.88,-783"/>
<text text-anchor="middle" x="665.88" y="-823.45" font-family="Helvetica,sans-Serif" font-weight="bold" font-size="9.00">rhythm</text>
</g>
<g id="clust21" class="cluster">
<title>cluster_src/js/rhythm</title>
<path fill="#ffffff" stroke="black" stroke-width="2" d="M74.75,-747C74.75,-747 351.88,-747 351.88,-747 357.88,-747 363.88,-753 363.88,-759 363.88,-759 363.88,-788 363.88,-788 363.88,-794 357.88,-800 351.88,-800 351.88,-800 74.75,-800 74.75,-800 68.75,-800 62.75,-794 62.75,-788 62.75,-788 62.75,-759 62.75,-759 62.75,-753 68.75,-747 74.75,-747"/>
<text text-anchor="middle" x="213.31" y="-787.45" font-family="Helvetica,sans-Serif" font-weight="bold" font-size="9.00">rhythm</text>
</g>
<g id="clust22" class="cluster">
<title>cluster_src/js/view</title>
<path fill="#ffffff" stroke="black" stroke-width="2" d="M537.62,-932C537.62,-932 817.88,-932 817.88,-932 823.88,-932 829.88,-938 829.88,-944 829.88,-944 829.88,-1039 829.88,-1039 829.88,-1045 823.88,-1051 817.88,-1051 817.88,-1051 537.62,-1051 537.62,-1051 531.62,-1051 525.62,-1045 525.62,-1039 525.62,-1039 525.62,-944 525.62,-944 525.62,-938 531.62,-932 537.62,-932"/>
<text text-anchor="middle" x="677.75" y="-1038.45" font-family="Helvetica,sans-Serif" font-weight="bold" font-size="9.00">view</text>
</g>
<g id="clust23" class="cluster">
<title>cluster_src/js/view/render</title>
<path fill="#ffffff" stroke="black" stroke-width="2" d="M622.12,-940C622.12,-940 809.88,-940 809.88,-940 815.88,-940 821.88,-946 821.88,-952 821.88,-952 821.88,-1012 821.88,-1012 821.88,-1018 815.88,-1024 809.88,-1024 809.88,-1024 622.12,-1024 622.12,-1024 616.12,-1024 610.12,-1018 610.12,-1012 610.12,-1012 610.12,-952 610.12,-952 610.12,-946 616.12,-940 622.12,-940"/>
<text text-anchor="middle" x="716" y="-1011.45" font-family="Helvetica,sans-Serif" font-weight="bold" font-size="9.00">render</text>
</g>
<!-- src/js/application/Application.js -->
<g id="node1" class="node">
<title>src/js/application/Application.js</title>
<g id="a_node1"><a xlink:href="src/js/application/Application.js" xlink:title="Application.js">
<path fill="#ffffcc" stroke="black" d="M335.46,-929.25C335.46,-929.25 277.04,-929.25 277.04,-929.25 273.96,-929.25 270.88,-926.17 270.88,-923.08 270.88,-923.08 270.88,-916.92 270.88,-916.92 270.88,-913.83 273.96,-910.75 277.04,-910.75 277.04,-910.75 335.46,-910.75 335.46,-910.75 338.54,-910.75 341.62,-913.83 341.62,-916.92 341.62,-916.92 341.62,-923.08 341.62,-923.08 341.62,-926.17 338.54,-929.25 335.46,-929.25"/>
<text text-anchor="start" x="278.88" y="-916.7" font-family="Helvetica,sans-Serif" font-size="9.00">Application.js</text>
</a>
</g>
</g>
<!-- src/js/controller/Controller.js -->
<g id="node2" class="node">
<title>src/js/controller/Controller.js</title>
<g id="a_node2"><a xlink:href="src/js/controller/Controller.js" xlink:title="Controller.js">
<path fill="#ffffcc" stroke="black" d="M477.71,-929.25C477.71,-929.25 425.29,-929.25 425.29,-929.25 422.21,-929.25 419.12,-926.17 419.12,-923.08 419.12,-923.08 419.12,-916.92 419.12,-916.92 419.12,-913.83 422.21,-910.75 425.29,-910.75 425.29,-910.75 477.71,-910.75 477.71,-910.75 480.79,-910.75 483.88,-913.83 483.88,-916.92 483.88,-916.92 483.88,-923.08 483.88,-923.08 483.88,-926.17 480.79,-929.25 477.71,-929.25"/>
<text text-anchor="start" x="427.12" y="-916.7" font-family="Helvetica,sans-Serif" font-size="9.00">Controller.js</text>
</a>
</g>
</g>
<!-- src/js/application/Application.js&#45;&gt;src/js/controller/Controller.js -->
<g id="edge1" class="edge">
<title>src/js/application/Application.js&#45;&gt;src/js/controller/Controller.js</title>
<path fill="none" stroke="#000000" stroke-width="2" stroke-opacity="0.200000" d="M341.93,-920C362.5,-920 388.68,-920 410.18,-920"/>
<polygon fill="#000000" fill-opacity="0.200000" stroke="#000000" stroke-width="2" stroke-opacity="0.200000" points="410.05,-922.1 416.05,-920 410.05,-917.9 410.05,-922.1"/>
</g>
<!-- src/js/overlay/Overlay.js -->
<g id="node3" class="node">
<title>src/js/overlay/Overlay.js</title>
<g id="a_node3"><a xlink:href="src/js/overlay/Overlay.js" xlink:title="Overlay.js">
<path fill="#ffffcc" stroke="black" d="M582.33,-883.25C582.33,-883.25 538.92,-883.25 538.92,-883.25 535.83,-883.25 532.75,-880.17 532.75,-877.08 532.75,-877.08 532.75,-870.92 532.75,-870.92 532.75,-867.83 535.83,-864.75 538.92,-864.75 538.92,-864.75 582.33,-864.75 582.33,-864.75 585.42,-864.75 588.5,-867.83 588.5,-870.92 588.5,-870.92 588.5,-877.08 588.5,-877.08 588.5,-880.17 585.42,-883.25 582.33,-883.25"/>
<text text-anchor="start" x="540.75" y="-870.7" font-family="Helvetica,sans-Serif" font-size="9.00">Overlay.js</text>
</a>
</g>
</g>
<!-- src/js/controller/Controller.js&#45;&gt;src/js/overlay/Overlay.js -->
<g id="edge2" class="edge">
<title>src/js/controller/Controller.js&#45;&gt;src/js/overlay/Overlay.js</title>
<path fill="none" stroke="#000000" stroke-width="2" stroke-opacity="0.200000" d="M474.96,-910.36C490.67,-903.61 511.85,-894.52 529.09,-887.11"/>
<polygon fill="#000000" fill-opacity="0.200000" stroke="#000000" stroke-width="2" stroke-opacity="0.200000" points="529.73,-889.12 534.42,-884.82 528.07,-885.26 529.73,-889.12"/>
</g>
<!-- src/js/view/View.js -->
<g id="node4" class="node">
<title>src/js/view/View.js</title>
<g id="a_node4"><a xlink:href="src/js/view/View.js" xlink:title="View.js">
<path fill="#ffffcc" stroke="black" d="M581.46,-962.25C581.46,-962.25 539.79,-962.25 539.79,-962.25 536.71,-962.25 533.62,-959.17 533.62,-956.08 533.62,-956.08 533.62,-949.92 533.62,-949.92 533.62,-946.83 536.71,-943.75 539.79,-943.75 539.79,-943.75 581.46,-943.75 581.46,-943.75 584.54,-943.75 587.62,-946.83 587.62,-949.92 587.62,-949.92 587.62,-956.08 587.62,-956.08 587.62,-959.17 584.54,-962.25 581.46,-962.25"/>
<text text-anchor="start" x="546.38" y="-949.7" font-family="Helvetica,sans-Serif" font-size="9.00">View.js</text>
</a>
</g>
</g>
<!-- src/js/controller/Controller.js&#45;&gt;src/js/view/View.js -->
<g id="edge3" class="edge">
<title>src/js/controller/Controller.js&#45;&gt;src/js/view/View.js</title>
<path fill="none" stroke="#000000" stroke-width="2" stroke-opacity="0.200000" d="M484.06,-929.72C496.92,-933.68 511.83,-938.28 524.99,-942.33"/>
<polygon fill="#000000" fill-opacity="0.200000" stroke="#000000" stroke-width="2" stroke-opacity="0.200000" points="524.1,-944.25 530.45,-944.01 525.33,-940.24 524.1,-944.25"/>
</g>
<!-- src/js/overlay/overlay/OverlayOverlay.js -->
<g id="node18" class="node">
<title>src/js/overlay/overlay/OverlayOverlay.js</title>
<g id="a_node18"><a xlink:href="src/js/overlay/overlay/OverlayOverlay.js" xlink:title="OverlayOverlay.js">
<path fill="#ffffcc" stroke="black" d="M703.33,-870.25C703.33,-870.25 628.42,-870.25 628.42,-870.25 625.33,-870.25 622.25,-867.17 622.25,-864.08 622.25,-864.08 622.25,-857.92 622.25,-857.92 622.25,-854.83 625.33,-851.75 628.42,-851.75 628.42,-851.75 703.33,-851.75 703.33,-851.75 706.42,-851.75 709.5,-854.83 709.5,-857.92 709.5,-857.92 709.5,-864.08 709.5,-864.08 709.5,-867.17 706.42,-870.25 703.33,-870.25"/>
<text text-anchor="start" x="630.25" y="-857.7" font-family="Helvetica,sans-Serif" font-size="9.00">OverlayOverlay.js</text>
</a>
</g>
</g>
<!-- src/js/overlay/Overlay.js&#45;&gt;src/js/overlay/overlay/OverlayOverlay.js -->
<g id="edge13" class="edge">
<title>src/js/overlay/Overlay.js&#45;&gt;src/js/overlay/overlay/OverlayOverlay.js</title>
<path fill="none" stroke="#000000" stroke-width="2" stroke-opacity="0.200000" d="M588.75,-870.58C596.29,-869.64 604.74,-868.57 613.19,-867.51"/>
<polygon fill="#000000" fill-opacity="0.200000" stroke="#000000" stroke-width="2" stroke-opacity="0.200000" points="613.26,-869.62 618.95,-866.78 612.73,-865.45 613.26,-869.62"/>
</g>
<!-- src/js/view/render/RenderController.js -->
<g id="node26" class="node">
<title>src/js/view/render/RenderController.js</title>
<g id="a_node26"><a xlink:href="src/js/view/render/RenderController.js" xlink:title="RenderController.js">
<path fill="#ffffcc" stroke="black" d="M707.46,-966.25C707.46,-966.25 624.29,-966.25 624.29,-966.25 621.21,-966.25 618.12,-963.17 618.12,-960.08 618.12,-960.08 618.12,-953.92 618.12,-953.92 618.12,-950.83 621.21,-947.75 624.29,-947.75 624.29,-947.75 707.46,-947.75 707.46,-947.75 710.54,-947.75 713.62,-950.83 713.62,-953.92 713.62,-953.92 713.62,-960.08 713.62,-960.08 713.62,-963.17 710.54,-966.25 707.46,-966.25"/>
<text text-anchor="start" x="626.12" y="-953.7" font-family="Helvetica,sans-Serif" font-size="9.00">RenderController.js</text>
</a>
</g>
</g>
<!-- src/js/view/View.js&#45;&gt;src/js/view/render/RenderController.js -->
<g id="edge20" class="edge">
<title>src/js/view/View.js&#45;&gt;src/js/view/render/RenderController.js</title>
<path fill="none" stroke="#000000" stroke-width="2" stroke-opacity="0.200000" d="M587.95,-954.02C594.47,-954.27 601.72,-954.55 609.08,-954.84"/>
<polygon fill="#000000" fill-opacity="0.200000" stroke="#000000" stroke-width="2" stroke-opacity="0.200000" points="608.63,-956.92 614.71,-955.06 608.79,-952.73 608.63,-956.92"/>
</g>
<!-- src/js/data/Data.json -->
<g id="node5" class="node">
<title>src/js/data/Data.json</title>
<g id="a_node5"><a xlink:href="src/js/data/Data.json" xlink:title="Data.json">
<path fill="#ffee44" stroke="black" d="M327.58,-50.25C327.58,-50.25 284.92,-50.25 284.92,-50.25 281.83,-50.25 278.75,-47.17 278.75,-44.08 278.75,-44.08 278.75,-37.92 278.75,-37.92 278.75,-34.83 281.83,-31.75 284.92,-31.75 284.92,-31.75 327.58,-31.75 327.58,-31.75 330.67,-31.75 333.75,-34.83 333.75,-37.92 333.75,-37.92 333.75,-44.08 333.75,-44.08 333.75,-47.17 330.67,-50.25 327.58,-50.25"/>
<text text-anchor="start" x="286.75" y="-37.7" font-family="Helvetica,sans-Serif" font-size="9.00">Data.json</text>
</a>
</g>
</g>
<!-- src/js/data/DataController.js -->
<g id="node6" class="node">
<title>src/js/data/DataController.js</title>
<g id="a_node6"><a xlink:href="src/js/data/DataController.js" xlink:title="DataController.js">
<path fill="#ffffcc" stroke="black" d="M145.08,-50.25C145.08,-50.25 73.17,-50.25 73.17,-50.25 70.08,-50.25 67,-47.17 67,-44.08 67,-44.08 67,-37.92 67,-37.92 67,-34.83 70.08,-31.75 73.17,-31.75 73.17,-31.75 145.08,-31.75 145.08,-31.75 148.17,-31.75 151.25,-34.83 151.25,-37.92 151.25,-37.92 151.25,-44.08 151.25,-44.08 151.25,-47.17 148.17,-50.25 145.08,-50.25"/>
<text text-anchor="start" x="75" y="-37.7" font-family="Helvetica,sans-Serif" font-size="9.00">DataController.js</text>
</a>
</g>
</g>
<!-- src/js/data/DataController.js&#45;&gt;src/js/data/Data.json -->
<g id="edge4" class="edge">
<title>src/js/data/DataController.js&#45;&gt;src/js/data/Data.json</title>
<path fill="none" stroke="#000000" stroke-width="2" stroke-opacity="0.200000" d="M151.51,-41C186.48,-41 236.06,-41 269.37,-41"/>
<polygon fill="#000000" fill-opacity="0.200000" stroke="#000000" stroke-width="2" stroke-opacity="0.200000" points="269.28,-43.1 275.28,-41 269.28,-38.9 269.28,-43.1"/>
</g>
<!-- src/js/directable/Directable.js -->
<g id="node7" class="node">
<title>src/js/directable/Directable.js</title>
<g id="a_node7"><a xlink:href="src/js/directable/Directable.js" xlink:title="Directable.js">
<path fill="#ffffcc" stroke="black" d="M587.96,-442.25C587.96,-442.25 533.29,-442.25 533.29,-442.25 530.21,-442.25 527.12,-439.17 527.12,-436.08 527.12,-436.08 527.12,-429.92 527.12,-429.92 527.12,-426.83 530.21,-423.75 533.29,-423.75 533.29,-423.75 587.96,-423.75 587.96,-423.75 591.04,-423.75 594.12,-426.83 594.12,-429.92 594.12,-429.92 594.12,-436.08 594.12,-436.08 594.12,-439.17 591.04,-442.25 587.96,-442.25"/>
<text text-anchor="start" x="535.12" y="-429.7" font-family="Helvetica,sans-Serif" font-size="9.00">Directable.js</text>
</a>
</g>
</g>
<!-- src/js/directable/directables/frame/DirectableFrame.js -->
<g id="node8" class="node">
<title>src/js/directable/directables/frame/DirectableFrame.js</title>
<g id="a_node8"><a xlink:href="src/js/directable/directables/frame/DirectableFrame.js" xlink:title="DirectableFrame.js">
<path fill="#ffffcc" stroke="black" d="M346.71,-442.25C346.71,-442.25 265.79,-442.25 265.79,-442.25 262.71,-442.25 259.62,-439.17 259.62,-436.08 259.62,-436.08 259.62,-429.92 259.62,-429.92 259.62,-426.83 262.71,-423.75 265.79,-423.75 265.79,-423.75 346.71,-423.75 346.71,-423.75 349.79,-423.75 352.88,-426.83 352.88,-429.92 352.88,-429.92 352.88,-436.08 352.88,-436.08 352.88,-439.17 349.79,-442.25 346.71,-442.25"/>
<text text-anchor="start" x="267.62" y="-429.7" font-family="Helvetica,sans-Serif" font-size="9.00">DirectableFrame.js</text>
</a>
</g>
</g>
<!-- src/js/directable/directables/frame/DirectableFrame.js&#45;&gt;src/js/directable/Directable.js -->
<g id="edge5" class="edge">
<title>src/js/directable/directables/frame/DirectableFrame.js&#45;&gt;src/js/directable/Directable.js</title>
<path fill="none" stroke="#000000" stroke-width="2" stroke-opacity="0.200000" d="M353.25,-433C400.2,-433 472.44,-433 517.82,-433"/>
<polygon fill="#000000" fill-opacity="0.200000" stroke="#000000" stroke-width="2" stroke-opacity="0.200000" points="517.77,-435.1 523.77,-433 517.77,-430.9 517.77,-435.1"/>
</g>
<!-- src/js/directable/directables/rhythm/DirectableRhythm.js -->
<g id="node9" class="node">
<title>src/js/directable/directables/rhythm/DirectableRhythm.js</title>
<g id="a_node9"><a xlink:href="src/js/directable/directables/rhythm/DirectableRhythm.js" xlink:title="DirectableRhythm.js">
<path fill="#ffffcc" stroke="black" d="M494.58,-368.25C494.58,-368.25 408.42,-368.25 408.42,-368.25 405.33,-368.25 402.25,-365.17 402.25,-362.08 402.25,-362.08 402.25,-355.92 402.25,-355.92 402.25,-352.83 405.33,-349.75 408.42,-349.75 408.42,-349.75 494.58,-349.75 494.58,-349.75 497.67,-349.75 500.75,-352.83 500.75,-355.92 500.75,-355.92 500.75,-362.08 500.75,-362.08 500.75,-365.17 497.67,-368.25 494.58,-368.25"/>
<text text-anchor="start" x="410.25" y="-355.7" font-family="Helvetica,sans-Serif" font-size="9.00">DirectableRhythm.js</text>
</a>
</g>
</g>
<!-- src/js/directable/directables/rhythm/DirectableRhythm.js&#45;&gt;src/js/directable/Directable.js -->
<g id="edge6" class="edge">
<title>src/js/directable/directables/rhythm/DirectableRhythm.js&#45;&gt;src/js/directable/Directable.js</title>
<path fill="none" stroke="#000000" stroke-width="2" stroke-opacity="0.200000" d="M501.1,-364.66C506.63,-366.49 511.99,-368.89 516.75,-372 532.9,-382.56 544.78,-401.5 551.89,-415.49"/>
<polygon fill="#000000" fill-opacity="0.200000" stroke="#000000" stroke-width="2" stroke-opacity="0.200000" points="549.9,-416.2 554.38,-420.7 553.69,-414.38 549.9,-416.2"/>
</g>
<!-- src/js/directable/directables/rhythm/asdr/ASDRData.js -->
<g id="node10" class="node">
<title>src/js/directable/directables/rhythm/asdr/ASDRData.js</title>
<g id="a_node10"><a xlink:href="src/js/directable/directables/rhythm/asdr/ASDRData.js" xlink:title="ASDRData.js">
<path fill="#ccffcc" stroke="black" d="M335.08,-231.25C335.08,-231.25 277.42,-231.25 277.42,-231.25 274.33,-231.25 271.25,-228.17 271.25,-225.08 271.25,-225.08 271.25,-218.92 271.25,-218.92 271.25,-215.83 274.33,-212.75 277.42,-212.75 277.42,-212.75 335.08,-212.75 335.08,-212.75 338.17,-212.75 341.25,-215.83 341.25,-218.92 341.25,-218.92 341.25,-225.08 341.25,-225.08 341.25,-228.17 338.17,-231.25 335.08,-231.25"/>
<text text-anchor="start" x="279.25" y="-218.7" font-family="Helvetica,sans-Serif" font-size="9.00">ASDRData.js</text>
</a>
</g>
</g>
<!-- src/js/directable/directables/rhythm/asdr/ASDREnvelope.js -->
<g id="node11" class="node">
<title>src/js/directable/directables/rhythm/asdr/ASDREnvelope.js</title>
<g id="a_node11"><a xlink:href="src/js/directable/directables/rhythm/asdr/ASDREnvelope.js" xlink:title="ASDREnvelope.js">
<path fill="#ffffcc" stroke="black" d="M344.83,-262.25C344.83,-262.25 267.67,-262.25 267.67,-262.25 264.58,-262.25 261.5,-259.17 261.5,-256.08 261.5,-256.08 261.5,-249.92 261.5,-249.92 261.5,-246.83 264.58,-243.75 267.67,-243.75 267.67,-243.75 344.83,-243.75 344.83,-243.75 347.92,-243.75 351,-246.83 351,-249.92 351,-249.92 351,-256.08 351,-256.08 351,-259.17 347.92,-262.25 344.83,-262.25"/>
<text text-anchor="start" x="269.5" y="-249.7" font-family="Helvetica,sans-Serif" font-size="9.00">ASDREnvelope.js</text>
</a>
</g>
</g>
<!-- src/js/directable/directables/rhythm/asdr/DirectableRhythmASDRManager.js -->
<g id="node12" class="node">
<title>src/js/directable/directables/rhythm/asdr/DirectableRhythmASDRManager.js</title>
<g id="a_node12"><a xlink:href="src/js/directable/directables/rhythm/asdr/DirectableRhythmASDRManager.js" xlink:title="DirectableRhythmASDRManager.js">
<path fill="#ffffcc" stroke="black" d="M380.08,-293.25C380.08,-293.25 232.42,-293.25 232.42,-293.25 229.33,-293.25 226.25,-290.17 226.25,-287.08 226.25,-287.08 226.25,-280.92 226.25,-280.92 226.25,-277.83 229.33,-274.75 232.42,-274.75 232.42,-274.75 380.08,-274.75 380.08,-274.75 383.17,-274.75 386.25,-277.83 386.25,-280.92 386.25,-280.92 386.25,-287.08 386.25,-287.08 386.25,-290.17 383.17,-293.25 380.08,-293.25"/>
<text text-anchor="start" x="234.25" y="-280.7" font-family="Helvetica,sans-Serif" font-size="9.00">DirectableRhythmASDRManager.js</text>
</a>
</g>
</g>
<!-- src/js/directable/directables/rhythm/bpm/DirectableRhythmBPM.js -->
<g id="node13" class="node">
<title>src/js/directable/directables/rhythm/bpm/DirectableRhythmBPM.js</title>
<g id="a_node13"><a xlink:href="src/js/directable/directables/rhythm/bpm/DirectableRhythmBPM.js" xlink:title="DirectableRhythmBPM.js">
<path fill="#ffffcc" stroke="black" d="M359.08,-354.25C359.08,-354.25 253.42,-354.25 253.42,-354.25 250.33,-354.25 247.25,-351.17 247.25,-348.08 247.25,-348.08 247.25,-341.92 247.25,-341.92 247.25,-338.83 250.33,-335.75 253.42,-335.75 253.42,-335.75 359.08,-335.75 359.08,-335.75 362.17,-335.75 365.25,-338.83 365.25,-341.92 365.25,-341.92 365.25,-348.08 365.25,-348.08 365.25,-351.17 362.17,-354.25 359.08,-354.25"/>
<text text-anchor="start" x="255.25" y="-341.7" font-family="Helvetica,sans-Serif" font-size="9.00">DirectableRhythmBPM.js</text>
</a>
</g>
</g>
<!-- src/js/directable/directables/rhythm/bpm/DirectableRhythmBPM.js&#45;&gt;src/js/directable/directables/rhythm/DirectableRhythm.js -->
<g id="edge7" class="edge">
<title>src/js/directable/directables/rhythm/bpm/DirectableRhythmBPM.js&#45;&gt;src/js/directable/directables/rhythm/DirectableRhythm.js</title>
<path fill="none" stroke="#000000" stroke-width="2" stroke-opacity="0.200000" d="M365.52,-350.69C374.58,-351.58 383.94,-352.49 392.98,-353.38"/>
<polygon fill="#000000" fill-opacity="0.200000" stroke="#000000" stroke-width="2" stroke-opacity="0.200000" points="392.71,-355.46 398.89,-353.96 393.12,-351.28 392.71,-355.46"/>
</g>
<!-- src/js/directable/directables/title/DirectableTitle.js -->
<g id="node14" class="node">
<title>src/js/directable/directables/title/DirectableTitle.js</title>
<g id="a_node14"><a xlink:href="src/js/directable/directables/title/DirectableTitle.js" xlink:title="DirectableTitle.js">
<path fill="#ffffcc" stroke="black" d="M342.21,-503.25C342.21,-503.25 270.29,-503.25 270.29,-503.25 267.21,-503.25 264.12,-500.17 264.12,-497.08 264.12,-497.08 264.12,-490.92 264.12,-490.92 264.12,-487.83 267.21,-484.75 270.29,-484.75 270.29,-484.75 342.21,-484.75 342.21,-484.75 345.29,-484.75 348.38,-487.83 348.38,-490.92 348.38,-490.92 348.38,-497.08 348.38,-497.08 348.38,-500.17 345.29,-503.25 342.21,-503.25"/>
<text text-anchor="start" x="272.12" y="-490.7" font-family="Helvetica,sans-Serif" font-size="9.00">DirectableTitle.js</text>
</a>
</g>
</g>
<!-- src/js/directable/directables/title/DirectableTitle.js&#45;&gt;src/js/directable/Directable.js -->
<g id="edge8" class="edge">
<title>src/js/directable/directables/title/DirectableTitle.js&#45;&gt;src/js/directable/Directable.js</title>
<path fill="none" stroke="#000000" stroke-width="2" stroke-opacity="0.200000" d="M347.52,-484.27C394.19,-472.99 470.73,-454.49 517.98,-443.07"/>
<polygon fill="#000000" fill-opacity="0.200000" stroke="#000000" stroke-width="2" stroke-opacity="0.200000" points="518.46,-445.11 523.79,-441.66 517.47,-441.03 518.46,-445.11"/>
</g>
<!-- src/js/director/Director.js -->
<g id="node15" class="node">
<title>src/js/director/Director.js</title>
<g id="a_node15"><a xlink:href="src/js/director/Director.js" xlink:title="Director.js">
<path fill="#ffffcc" stroke="black" d="M328.33,-119.25C328.33,-119.25 284.17,-119.25 284.17,-119.25 281.08,-119.25 278,-116.17 278,-113.08 278,-113.08 278,-106.92 278,-106.92 278,-103.83 281.08,-100.75 284.17,-100.75 284.17,-100.75 328.33,-100.75 328.33,-100.75 331.42,-100.75 334.5,-103.83 334.5,-106.92 334.5,-106.92 334.5,-113.08 334.5,-113.08 334.5,-116.17 331.42,-119.25 328.33,-119.25"/>
<text text-anchor="start" x="286" y="-106.7" font-family="Helvetica,sans-Serif" font-size="9.00">Director.js</text>
</a>
</g>
</g>
<!-- src/js/director/directors/DirectorDanceRabbitDance.js -->
<g id="node16" class="node">
<title>src/js/director/directors/DirectorDanceRabbitDance.js</title>
<g id="a_node16"><a xlink:href="src/js/director/directors/DirectorDanceRabbitDance.js" xlink:title="DirectorDanceRabbitDance.js">
<path fill="#ffffcc" stroke="black" d="M172.08,-119.25C172.08,-119.25 46.17,-119.25 46.17,-119.25 43.08,-119.25 40,-116.17 40,-113.08 40,-113.08 40,-106.92 40,-106.92 40,-103.83 43.08,-100.75 46.17,-100.75 46.17,-100.75 172.08,-100.75 172.08,-100.75 175.17,-100.75 178.25,-103.83 178.25,-106.92 178.25,-106.92 178.25,-113.08 178.25,-113.08 178.25,-116.17 175.17,-119.25 172.08,-119.25"/>
<text text-anchor="start" x="48" y="-106.7" font-family="Helvetica,sans-Serif" font-size="9.00">DirectorDanceRabbitDance.js</text>
</a>
</g>
</g>
<!-- src/js/director/directors/DirectorDanceRabbitDance.js&#45;&gt;src/js/directable/directables/rhythm/bpm/DirectableRhythmBPM.js -->
<g id="edge9" class="edge">
<title>src/js/director/directors/DirectorDanceRabbitDance.js&#45;&gt;src/js/directable/directables/rhythm/bpm/DirectableRhythmBPM.js</title>
<path fill="none" stroke="#000000" stroke-width="2" stroke-opacity="0.200000" d="M110.77,-119.48C113.62,-153.12 127.99,-267.74 194.25,-323 206.6,-333.3 222.4,-339.26 238.18,-342.61"/>
<polygon fill="#000000" fill-opacity="0.200000" stroke="#000000" stroke-width="2" stroke-opacity="0.200000" points="237.66,-344.65 243.94,-343.66 238.42,-340.52 237.66,-344.65"/>
</g>
<!-- src/js/director/directors/DirectorDanceRabbitDance.js&#45;&gt;src/js/directable/directables/title/DirectableTitle.js -->
<g id="edge10" class="edge">
<title>src/js/director/directors/DirectorDanceRabbitDance.js&#45;&gt;src/js/directable/directables/title/DirectableTitle.js</title>
<path fill="none" stroke="#000000" stroke-width="2" stroke-opacity="0.200000" d="M110.96,-119.52C115.74,-171.49 141.16,-420.62 194.25,-472 210.18,-487.42 233.65,-493.52 254.9,-495.52"/>
<polygon fill="#000000" fill-opacity="0.200000" stroke="#000000" stroke-width="2" stroke-opacity="0.200000" points="254.69,-497.61 260.83,-495.93 254.99,-493.42 254.69,-497.61"/>
</g>
<!-- src/js/director/directors/DirectorDanceRabbitDance.js&#45;&gt;src/js/director/Director.js -->
<g id="edge11" class="edge">
<title>src/js/director/directors/DirectorDanceRabbitDance.js&#45;&gt;src/js/director/Director.js</title>
<path fill="none" stroke="#000000" stroke-width="2" stroke-opacity="0.200000" d="M178.64,-110C208.96,-110 243.4,-110 268.69,-110"/>
<polygon fill="#000000" fill-opacity="0.200000" stroke="#000000" stroke-width="2" stroke-opacity="0.200000" points="268.55,-112.1 274.55,-110 268.55,-107.9 268.55,-112.1"/>
</g>
<!-- src/js/index.js -->
<g id="node17" class="node">
<title>src/js/index.js</title>
<g id="a_node17"><a xlink:href="src/js/index.js" xlink:title="index.js">
<path fill="#ffffcc" stroke="black" d="M129.96,-929.25C129.96,-929.25 88.29,-929.25 88.29,-929.25 85.21,-929.25 82.12,-926.17 82.12,-923.08 82.12,-923.08 82.12,-916.92 82.12,-916.92 82.12,-913.83 85.21,-910.75 88.29,-910.75 88.29,-910.75 129.96,-910.75 129.96,-910.75 133.04,-910.75 136.12,-913.83 136.12,-916.92 136.12,-916.92 136.12,-923.08 136.12,-923.08 136.12,-926.17 133.04,-929.25 129.96,-929.25"/>
<text text-anchor="start" x="93.38" y="-916.7" font-family="Helvetica,sans-Serif" font-size="9.00">index.js</text>
</a>
</g>
</g>
<!-- src/js/index.js&#45;&gt;src/js/application/Application.js -->
<g id="edge12" class="edge">
<title>src/js/index.js&#45;&gt;src/js/application/Application.js</title>
<path fill="none" stroke="#000000" stroke-width="2" stroke-opacity="0.200000" d="M136.44,-920C168.51,-920 223.16,-920 261.57,-920"/>
<polygon fill="#000000" fill-opacity="0.200000" stroke="#000000" stroke-width="2" stroke-opacity="0.200000" points="261.45,-922.1 267.45,-920 261.45,-917.9 261.45,-922.1"/>
</g>
<!-- src/js/overlay/OverlayUtil.js -->
<g id="node19" class="node">
<title>src/js/overlay/OverlayUtil.js</title>
<g id="a_node19"><a xlink:href="src/js/overlay/OverlayUtil.js" xlink:title="OverlayUtil.js">
<path fill="#ffffcc" stroke="black" d="M799.08,-748.25C799.08,-748.25 741.42,-748.25 741.42,-748.25 738.33,-748.25 735.25,-745.17 735.25,-742.08 735.25,-742.08 735.25,-735.92 735.25,-735.92 735.25,-732.83 738.33,-729.75 741.42,-729.75 741.42,-729.75 799.08,-729.75 799.08,-729.75 802.17,-729.75 805.25,-732.83 805.25,-735.92 805.25,-735.92 805.25,-742.08 805.25,-742.08 805.25,-745.17 802.17,-748.25 799.08,-748.25"/>
<text text-anchor="start" x="743.25" y="-735.7" font-family="Helvetica,sans-Serif" font-size="9.00">OverlayUtil.js</text>
</a>
</g>
</g>
<!-- src/js/overlay/overlay/OverlayOverlay.js&#45;&gt;src/js/overlay/OverlayUtil.js -->
<g id="edge17" class="edge">
<title>src/js/overlay/overlay/OverlayOverlay.js&#45;&gt;src/js/overlay/OverlayUtil.js</title>
<path fill="none" stroke="#000000" stroke-width="2" stroke-opacity="0.200000" d="M699.34,-851.31C706.27,-848.17 713.14,-844.14 718.62,-839 743,-816.2 757.43,-779.07 764.31,-757.04"/>
<polygon fill="#000000" fill-opacity="0.200000" stroke="#000000" stroke-width="2" stroke-opacity="0.200000" points="766.26,-757.86 765.94,-751.51 762.23,-756.67 766.26,-757.86"/>
</g>
<!-- src/js/overlay/capture/OverlayCapture.js -->
<g id="node20" class="node">
<title>src/js/overlay/capture/OverlayCapture.js</title>
<g id="a_node20"><a xlink:href="src/js/overlay/capture/OverlayCapture.js" xlink:title="OverlayCapture.js">
<path fill="#ffffcc" stroke="black" d="M704.46,-626.25C704.46,-626.25 627.29,-626.25 627.29,-626.25 624.21,-626.25 621.12,-623.17 621.12,-620.08 621.12,-620.08 621.12,-613.92 621.12,-613.92 621.12,-610.83 624.21,-607.75 627.29,-607.75 627.29,-607.75 704.46,-607.75 704.46,-607.75 707.54,-607.75 710.62,-610.83 710.62,-613.92 710.62,-613.92 710.62,-620.08 710.62,-620.08 710.62,-623.17 707.54,-626.25 704.46,-626.25"/>
<text text-anchor="start" x="629.12" y="-613.7" font-family="Helvetica,sans-Serif" font-size="9.00">OverlayCapture.js</text>
</a>
</g>
</g>
<!-- src/js/overlay/capture/OverlayCapture.js&#45;&gt;src/js/overlay/OverlayUtil.js -->
<g id="edge14" class="edge">
<title>src/js/overlay/capture/OverlayCapture.js&#45;&gt;src/js/overlay/OverlayUtil.js</title>
<path fill="none" stroke="#000000" stroke-width="2" stroke-opacity="0.200000" d="M681.61,-626.61C692.62,-634.26 707.62,-645.7 718.62,-658 736.3,-677.76 751.64,-704.42 760.67,-721.66"/>
<polygon fill="#000000" fill-opacity="0.200000" stroke="#000000" stroke-width="2" stroke-opacity="0.200000" points="758.59,-722.22 763.2,-726.61 762.33,-720.31 758.59,-722.22"/>
</g>
<!-- src/js/overlay/format/OverlayFormat.js -->
<g id="node21" class="node">
<title>src/js/overlay/format/OverlayFormat.js</title>
<g id="a_node21"><a xlink:href="src/js/overlay/format/OverlayFormat.js" xlink:title="OverlayFormat.js">
<path fill="#ffffcc" stroke="black" d="M702.21,-687.25C702.21,-687.25 629.54,-687.25 629.54,-687.25 626.46,-687.25 623.38,-684.17 623.38,-681.08 623.38,-681.08 623.38,-674.92 623.38,-674.92 623.38,-671.83 626.46,-668.75 629.54,-668.75 629.54,-668.75 702.21,-668.75 702.21,-668.75 705.29,-668.75 708.38,-671.83 708.38,-674.92 708.38,-674.92 708.38,-681.08 708.38,-681.08 708.38,-684.17 705.29,-687.25 702.21,-687.25"/>
<text text-anchor="start" x="631.38" y="-674.7" font-family="Helvetica,sans-Serif" font-size="9.00">OverlayFormat.js</text>
</a>
</g>
</g>
<!-- src/js/overlay/format/OverlayFormat.js&#45;&gt;src/js/overlay/OverlayUtil.js -->
<g id="edge15" class="edge">
<title>src/js/overlay/format/OverlayFormat.js&#45;&gt;src/js/overlay/OverlayUtil.js</title>
<path fill="none" stroke="#000000" stroke-width="2" stroke-opacity="0.200000" d="M682.87,-687.53C699.6,-697.5 726.05,-713.26 745.28,-724.72"/>
<polygon fill="#000000" fill-opacity="0.200000" stroke="#000000" stroke-width="2" stroke-opacity="0.200000" points="744.2,-726.52 750.43,-727.78 746.35,-722.91 744.2,-726.52"/>
</g>
<!-- src/js/overlay/media/OverlayMedia.js -->
<g id="node22" class="node">
<title>src/js/overlay/media/OverlayMedia.js</title>
<g id="a_node22"><a xlink:href="src/js/overlay/media/OverlayMedia.js" xlink:title="OverlayMedia.js">
<path fill="#ffffcc" stroke="black" d="M700.71,-748.25C700.71,-748.25 631.04,-748.25 631.04,-748.25 627.96,-748.25 624.88,-745.17 624.88,-742.08 624.88,-742.08 624.88,-735.92 624.88,-735.92 624.88,-732.83 627.96,-729.75 631.04,-729.75 631.04,-729.75 700.71,-729.75 700.71,-729.75 703.79,-729.75 706.88,-732.83 706.88,-735.92 706.88,-735.92 706.88,-742.08 706.88,-742.08 706.88,-745.17 703.79,-748.25 700.71,-748.25"/>
<text text-anchor="start" x="632.88" y="-735.7" font-family="Helvetica,sans-Serif" font-size="9.00">OverlayMedia.js</text>
</a>
</g>
</g>
<!-- src/js/overlay/media/OverlayMedia.js&#45;&gt;src/js/overlay/OverlayUtil.js -->
<g id="edge16" class="edge">
<title>src/js/overlay/media/OverlayMedia.js&#45;&gt;src/js/overlay/OverlayUtil.js</title>
<path fill="none" stroke="#000000" stroke-width="2" stroke-opacity="0.200000" d="M707.34,-739C713.49,-739 719.87,-739 726.08,-739"/>
<polygon fill="#000000" fill-opacity="0.200000" stroke="#000000" stroke-width="2" stroke-opacity="0.200000" points="726,-741.1 732,-739 726,-736.9 726,-741.1"/>
</g>
<!-- src/js/overlay/rhythm/OverlayRhythm.js -->
<g id="node23" class="node">
<title>src/js/overlay/rhythm/OverlayRhythm.js</title>
<g id="a_node23"><a xlink:href="src/js/overlay/rhythm/OverlayRhythm.js" xlink:title="OverlayRhythm.js">
<path fill="#ffffcc" stroke="black" d="M703.71,-809.25C703.71,-809.25 628.04,-809.25 628.04,-809.25 624.96,-809.25 621.88,-806.17 621.88,-803.08 621.88,-803.08 621.88,-796.92 621.88,-796.92 621.88,-793.83 624.96,-790.75 628.04,-790.75 628.04,-790.75 703.71,-790.75 703.71,-790.75 706.79,-790.75 709.88,-793.83 709.88,-796.92 709.88,-796.92 709.88,-803.08 709.88,-803.08 709.88,-806.17 706.79,-809.25 703.71,-809.25"/>
<text text-anchor="start" x="629.88" y="-796.7" font-family="Helvetica,sans-Serif" font-size="9.00">OverlayRhythm.js</text>
</a>
</g>
</g>
<!-- src/js/overlay/rhythm/OverlayRhythm.js&#45;&gt;src/js/overlay/OverlayUtil.js -->
<g id="edge18" class="edge">
<title>src/js/overlay/rhythm/OverlayRhythm.js&#45;&gt;src/js/overlay/OverlayUtil.js</title>
<path fill="none" stroke="#000000" stroke-width="2" stroke-opacity="0.200000" d="M693.3,-790.29C701.62,-786.83 710.7,-782.63 718.62,-778 730.38,-771.13 742.5,-761.88 751.93,-754.12"/>
<polygon fill="#000000" fill-opacity="0.200000" stroke="#000000" stroke-width="2" stroke-opacity="0.200000" points="753.01,-755.95 756.25,-750.48 750.31,-752.74 753.01,-755.95"/>
</g>
<!-- src/js/rhythm/ViewRhythm.js -->
<g id="node24" class="node">
<title>src/js/rhythm/ViewRhythm.js</title>
<g id="a_node24"><a xlink:href="src/js/rhythm/ViewRhythm.js" xlink:title="ViewRhythm.js">
<path fill="#ffffcc" stroke="black" d="M141.33,-773.25C141.33,-773.25 76.92,-773.25 76.92,-773.25 73.83,-773.25 70.75,-770.17 70.75,-767.08 70.75,-767.08 70.75,-760.92 70.75,-760.92 70.75,-757.83 73.83,-754.75 76.92,-754.75 76.92,-754.75 141.33,-754.75 141.33,-754.75 144.42,-754.75 147.5,-757.83 147.5,-760.92 147.5,-760.92 147.5,-767.08 147.5,-767.08 147.5,-770.17 144.42,-773.25 141.33,-773.25"/>
<text text-anchor="start" x="78.75" y="-760.7" font-family="Helvetica,sans-Serif" font-size="9.00">ViewRhythm.js</text>
</a>
</g>
</g>
<!-- src/js/rhythm/ViewRhythmTrack.js -->
<g id="node25" class="node">
<title>src/js/rhythm/ViewRhythmTrack.js</title>
<g id="a_node25"><a xlink:href="src/js/rhythm/ViewRhythmTrack.js" xlink:title="ViewRhythmTrack.js">
<path fill="#ffffcc" stroke="black" d="M349.71,-773.25C349.71,-773.25 262.79,-773.25 262.79,-773.25 259.71,-773.25 256.62,-770.17 256.62,-767.08 256.62,-767.08 256.62,-760.92 256.62,-760.92 256.62,-757.83 259.71,-754.75 262.79,-754.75 262.79,-754.75 349.71,-754.75 349.71,-754.75 352.79,-754.75 355.88,-757.83 355.88,-760.92 355.88,-760.92 355.88,-767.08 355.88,-767.08 355.88,-770.17 352.79,-773.25 349.71,-773.25"/>
<text text-anchor="start" x="264.62" y="-760.7" font-family="Helvetica,sans-Serif" font-size="9.00">ViewRhythmTrack.js</text>
</a>
</g>
</g>
<!-- src/js/rhythm/ViewRhythm.js&#45;&gt;src/js/rhythm/ViewRhythmTrack.js -->
<g id="edge19" class="edge">
<title>src/js/rhythm/ViewRhythm.js&#45;&gt;src/js/rhythm/ViewRhythmTrack.js</title>
<path fill="none" stroke="#000000" stroke-width="2" stroke-opacity="0.200000" d="M147.75,-764C175.99,-764 215.17,-764 247.39,-764"/>
<polygon fill="#000000" fill-opacity="0.200000" stroke="#000000" stroke-width="2" stroke-opacity="0.200000" points="247.25,-766.1 253.25,-764 247.25,-761.9 247.25,-766.1"/>
</g>
<!-- src/js/view/render/RenderSurface.js -->
<g id="node27" class="node">
<title>src/js/view/render/RenderSurface.js</title>
<g id="a_node27"><a xlink:href="src/js/view/render/RenderSurface.js" xlink:title="RenderSurface.js">
<path fill="#ffffcc" stroke="black" d="M807.71,-966.25C807.71,-966.25 732.79,-966.25 732.79,-966.25 729.71,-966.25 726.62,-963.17 726.62,-960.08 726.62,-960.08 726.62,-953.92 726.62,-953.92 726.62,-950.83 729.71,-947.75 732.79,-947.75 732.79,-947.75 807.71,-947.75 807.71,-947.75 810.79,-947.75 813.88,-950.83 813.88,-953.92 813.88,-953.92 813.88,-960.08 813.88,-960.08 813.88,-963.17 810.79,-966.25 807.71,-966.25"/>
<text text-anchor="start" x="734.62" y="-953.7" font-family="Helvetica,sans-Serif" font-size="9.00">RenderSurface.js</text>
</a>
</g>
</g>
<!-- src/js/view/render/RenderController.js&#45;&gt;src/js/view/render/RenderSurface.js -->
<g id="edge21" class="edge">
<title>src/js/view/render/RenderController.js&#45;&gt;src/js/view/render/RenderSurface.js</title>
<path fill="none" stroke="#000000" stroke-width="2" stroke-opacity="0.200000" d="M713.87,-957C715.02,-957 716.18,-957 717.33,-957"/>
<polygon fill="#000000" fill-opacity="0.200000" stroke="#000000" stroke-width="2" stroke-opacity="0.200000" points="717.14,-959.1 723.14,-957 717.14,-954.9 717.14,-959.1"/>
</g>
<!-- src/js/view/render/RenderResizer.js -->
<g id="node28" class="node">
<title>src/js/view/render/RenderResizer.js</title>
<g id="a_node28"><a xlink:href="src/js/view/render/RenderResizer.js" xlink:title="RenderResizer.js">
<path fill="#ffffcc" stroke="black" d="M702.96,-997.25C702.96,-997.25 628.79,-997.25 628.79,-997.25 625.71,-997.25 622.62,-994.17 622.62,-991.08 622.62,-991.08 622.62,-984.92 622.62,-984.92 622.62,-981.83 625.71,-978.75 628.79,-978.75 628.79,-978.75 702.96,-978.75 702.96,-978.75 706.04,-978.75 709.12,-981.83 709.12,-984.92 709.12,-984.92 709.12,-991.08 709.12,-991.08 709.12,-994.17 706.04,-997.25 702.96,-997.25"/>
<text text-anchor="start" x="630.62" y="-984.7" font-family="Helvetica,sans-Serif" font-size="9.00">RenderResizer.js</text>
</a>
</g>
</g>
</g>
</svg>
