<?xml version="1.0" encoding="UTF-8" standalone="no"?>
<!DOCTYPE svg PUBLIC "-//W3C//DTD SVG 1.1//EN"
 "http://www.w3.org/Graphics/SVG/1.1/DTD/svg11.dtd">
<!-- Generated by graphviz version 12.2.1 (20241206.2353)
 -->
<!-- Title: dependency&#45;cruiser output Pages: 1 -->
<svg width="720pt" height="2013pt"
 viewBox="0.00 0.00 720.12 2013.00" xmlns="http://www.w3.org/2000/svg" xmlns:xlink="http://www.w3.org/1999/xlink">
<g id="graph0" class="graph" transform="scale(1 1) rotate(0) translate(4 2009)">
<title>dependency&#45;cruiser output</title>
<polygon fill="white" stroke="none" points="-4,4 -4,-2009 716.12,-2009 716.12,4 -4,4"/>
<g id="clust1" class="cluster">
<title>cluster_src</title>
<path fill="#ffffff" stroke="black" stroke-width="2" d="M20,-8C20,-8 692.12,-8 692.12,-8 698.12,-8 704.12,-14 704.12,-20 704.12,-20 704.12,-1985 704.12,-1985 704.12,-1991 698.12,-1997 692.12,-1997 692.12,-1997 20,-1997 20,-1997 14,-1997 8,-1991 8,-1985 8,-1985 8,-20 8,-20 8,-14 14,-8 20,-8"/>
<text text-anchor="middle" x="356.06" y="-1984.45" font-family="Helvetica,sans-Serif" font-weight="bold" font-size="9.00">src</text>
</g>
<g id="clust2" class="cluster">
<title>cluster_src/js</title>
<path fill="#ffffff" stroke="black" stroke-width="2" d="M28,-16C28,-16 684.12,-16 684.12,-16 690.12,-16 696.12,-22 696.12,-28 696.12,-28 696.12,-1958 696.12,-1958 696.12,-1964 690.12,-1970 684.12,-1970 684.12,-1970 28,-1970 28,-1970 22,-1970 16,-1964 16,-1958 16,-1958 16,-28 16,-28 16,-22 22,-16 28,-16"/>
<text text-anchor="middle" x="356.06" y="-1957.45" font-family="Helvetica,sans-Serif" font-weight="bold" font-size="9.00">js</text>
</g>
<g id="clust3" class="cluster">
<title>cluster_src/js/application</title>
<path fill="#ffffff" stroke="black" stroke-width="2" d="M402.25,-310C402.25,-310 673.62,-310 673.62,-310 679.62,-310 685.62,-316 685.62,-322 685.62,-322 685.62,-413 685.62,-413 685.62,-419 679.62,-425 673.62,-425 673.62,-425 402.25,-425 402.25,-425 396.25,-425 390.25,-419 390.25,-413 390.25,-413 390.25,-322 390.25,-322 390.25,-316 396.25,-310 402.25,-310"/>
<text text-anchor="middle" x="537.94" y="-412.45" font-family="Helvetica,sans-Serif" font-weight="bold" font-size="9.00">application</text>
</g>
<g id="clust4" class="cluster">
<title>cluster_src/js/controller</title>
<path fill="#ffffff" stroke="black" stroke-width="2" d="M45.75,-350C45.75,-350 102.5,-350 102.5,-350 108.5,-350 114.5,-356 114.5,-362 114.5,-362 114.5,-391 114.5,-391 114.5,-397 108.5,-403 102.5,-403 102.5,-403 45.75,-403 45.75,-403 39.75,-403 33.75,-397 33.75,-391 33.75,-391 33.75,-362 33.75,-362 33.75,-356 39.75,-350 45.75,-350"/>
<text text-anchor="middle" x="74.12" y="-390.45" font-family="Helvetica,sans-Serif" font-weight="bold" font-size="9.00">controller</text>
</g>
<g id="clust5" class="cluster">
<title>cluster_src/js/data</title>
<path fill="#ffffff" stroke="black" stroke-width="2" d="M36,-1185C36,-1185 183.62,-1185 183.62,-1185 189.62,-1185 195.62,-1191 195.62,-1197 195.62,-1197 195.62,-1226 195.62,-1226 195.62,-1232 189.62,-1238 183.62,-1238 183.62,-1238 36,-1238 36,-1238 30,-1238 24,-1232 24,-1226 24,-1226 24,-1197 24,-1197 24,-1191 30,-1185 36,-1185"/>
<text text-anchor="middle" x="109.81" y="-1225.45" font-family="Helvetica,sans-Serif" font-weight="bold" font-size="9.00">data</text>
</g>
<g id="clust6" class="cluster">
<title>cluster_src/js/directable</title>
<path fill="#ffffff" stroke="black" stroke-width="2" d="M355.38,-433C355.38,-433 676.12,-433 676.12,-433 682.12,-433 688.12,-439 688.12,-445 688.12,-445 688.12,-1931 688.12,-1931 688.12,-1937 682.12,-1943 676.12,-1943 676.12,-1943 355.38,-1943 355.38,-1943 349.38,-1943 343.38,-1937 343.38,-1931 343.38,-1931 343.38,-445 343.38,-445 343.38,-439 349.38,-433 355.38,-433"/>
<text text-anchor="middle" x="515.75" y="-1930.45" font-family="Helvetica,sans-Serif" font-weight="bold" font-size="9.00">directable</text>
</g>
<g id="clust7" class="cluster">
<title>cluster_src/js/directable/directables</title>
<path fill="#ffffff" stroke="black" stroke-width="2" d="M363.38,-441C363.38,-441 668.12,-441 668.12,-441 674.12,-441 680.12,-447 680.12,-453 680.12,-453 680.12,-1904 680.12,-1904 680.12,-1910 674.12,-1916 668.12,-1916 668.12,-1916 363.38,-1916 363.38,-1916 357.38,-1916 351.38,-1910 351.38,-1904 351.38,-1904 351.38,-453 351.38,-453 351.38,-447 357.38,-441 363.38,-441"/>
<text text-anchor="middle" x="515.75" y="-1903.45" font-family="Helvetica,sans-Serif" font-weight="bold" font-size="9.00">directables</text>
</g>
<g id="clust8" class="cluster">
<title>cluster_src/js/directable/directables/dotmatrix</title>
<path fill="#ffffff" stroke="black" stroke-width="2" d="M386.75,-790C386.75,-790 659.12,-790 659.12,-790 665.12,-790 671.12,-796 671.12,-802 671.12,-802 671.12,-1816 671.12,-1816 671.12,-1822 665.12,-1828 659.12,-1828 659.12,-1828 386.75,-1828 386.75,-1828 380.75,-1828 374.75,-1822 374.75,-1816 374.75,-1816 374.75,-802 374.75,-802 374.75,-796 380.75,-790 386.75,-790"/>
<text text-anchor="middle" x="522.94" y="-1815.45" font-family="Helvetica,sans-Serif" font-weight="bold" font-size="9.00">dotmatrix</text>
</g>
<g id="clust9" class="cluster">
<title>cluster_src/js/directable/directables/dotmatrix/dots</title>
<path fill="#ffffff" stroke="black" stroke-width="2" d="M421.75,-798C421.75,-798 489,-798 489,-798 495,-798 501,-804 501,-810 501,-810 501,-870 501,-870 501,-876 495,-882 489,-882 489,-882 421.75,-882 421.75,-882 415.75,-882 409.75,-876 409.75,-870 409.75,-870 409.75,-810 409.75,-810 409.75,-804 415.75,-798 421.75,-798"/>
<text text-anchor="middle" x="455.38" y="-869.45" font-family="Helvetica,sans-Serif" font-weight="bold" font-size="9.00">dots</text>
</g>
<g id="clust10" class="cluster">
<title>cluster_src/js/directable/directables/dotmatrix/grid</title>
<path fill="#ffffff" stroke="black" stroke-width="2" d="M394.75,-890C394.75,-890 516,-890 516,-890 522,-890 528,-896 528,-902 528,-902 528,-993 528,-993 528,-999 522,-1005 516,-1005 516,-1005 394.75,-1005 394.75,-1005 388.75,-1005 382.75,-999 382.75,-993 382.75,-993 382.75,-902 382.75,-902 382.75,-896 388.75,-890 394.75,-890"/>
<text text-anchor="middle" x="455.38" y="-992.45" font-family="Helvetica,sans-Serif" font-weight="bold" font-size="9.00">grid</text>
</g>
<g id="clust11" class="cluster">
<title>cluster_src/js/directable/directables/dotmatrix/shapes</title>
<path fill="#ffffff" stroke="black" stroke-width="2" d="M395.38,-1013C395.38,-1013 515.38,-1013 515.38,-1013 521.38,-1013 527.38,-1019 527.38,-1025 527.38,-1025 527.38,-1763 527.38,-1763 527.38,-1769 521.38,-1775 515.38,-1775 515.38,-1775 395.38,-1775 395.38,-1775 389.38,-1775 383.38,-1769 383.38,-1763 383.38,-1763 383.38,-1025 383.38,-1025 383.38,-1019 389.38,-1013 395.38,-1013"/>
<text text-anchor="middle" x="455.38" y="-1762.45" font-family="Helvetica,sans-Serif" font-weight="bold" font-size="9.00">shapes</text>
</g>
<g id="clust12" class="cluster">
<title>cluster_src/js/directable/directables/dotmatrix/shapes/fill</title>
<path fill="#ffffff" stroke="black" stroke-width="2" d="M413.88,-1021C413.88,-1021 496.88,-1021 496.88,-1021 502.88,-1021 508.88,-1027 508.88,-1033 508.88,-1033 508.88,-1155 508.88,-1155 508.88,-1161 502.88,-1167 496.88,-1167 496.88,-1167 413.88,-1167 413.88,-1167 407.88,-1167 401.88,-1161 401.88,-1155 401.88,-1155 401.88,-1033 401.88,-1033 401.88,-1027 407.88,-1021 413.88,-1021"/>
<text text-anchor="middle" x="455.38" y="-1154.45" font-family="Helvetica,sans-Serif" font-weight="bold" font-size="9.00">fill</text>
</g>
<g id="clust13" class="cluster">
<title>cluster_src/js/directable/directables/dotmatrix/shapes/glyph</title>
<path fill="#ffffff" stroke="black" stroke-width="2" d="M415.38,-1175C415.38,-1175 495.38,-1175 495.38,-1175 501.38,-1175 507.38,-1181 507.38,-1187 507.38,-1187 507.38,-1526 507.38,-1526 507.38,-1532 501.38,-1538 495.38,-1538 495.38,-1538 415.38,-1538 415.38,-1538 409.38,-1538 403.38,-1532 403.38,-1526 403.38,-1526 403.38,-1187 403.38,-1187 403.38,-1181 409.38,-1175 415.38,-1175"/>
<text text-anchor="middle" x="455.38" y="-1525.45" font-family="Helvetica,sans-Serif" font-weight="bold" font-size="9.00">glyph</text>
</g>
<g id="clust14" class="cluster">
<title>cluster_src/js/directable/directables/dotmatrix/shapes/line</title>
<path fill="#ffffff" stroke="black" stroke-width="2" d="M403.38,-1546C403.38,-1546 507.38,-1546 507.38,-1546 513.38,-1546 519.38,-1552 519.38,-1558 519.38,-1558 519.38,-1618 519.38,-1618 519.38,-1624 513.38,-1630 507.38,-1630 507.38,-1630 403.38,-1630 403.38,-1630 397.38,-1630 391.38,-1624 391.38,-1618 391.38,-1618 391.38,-1558 391.38,-1558 391.38,-1552 397.38,-1546 403.38,-1546"/>
<text text-anchor="middle" x="455.38" y="-1617.45" font-family="Helvetica,sans-Serif" font-weight="bold" font-size="9.00">line</text>
</g>
<g id="clust15" class="cluster">
<title>cluster_src/js/directable/directables/dotmatrix/shapes/primative</title>
<path fill="#ffffff" stroke="black" stroke-width="2" d="M412.38,-1638C412.38,-1638 498.38,-1638 498.38,-1638 504.38,-1638 510.38,-1644 510.38,-1650 510.38,-1650 510.38,-1679 510.38,-1679 510.38,-1685 504.38,-1691 498.38,-1691 498.38,-1691 412.38,-1691 412.38,-1691 406.38,-1691 400.38,-1685 400.38,-1679 400.38,-1679 400.38,-1650 400.38,-1650 400.38,-1644 406.38,-1638 412.38,-1638"/>
<text text-anchor="middle" x="455.38" y="-1678.45" font-family="Helvetica,sans-Serif" font-weight="bold" font-size="9.00">primative</text>
</g>
<g id="clust16" class="cluster">
<title>cluster_src/js/directable/directables/dotmatrix/view</title>
<path fill="#ffffff" stroke="black" stroke-width="2" d="M577.88,-1624C577.88,-1624 651.12,-1624 651.12,-1624 657.12,-1624 663.12,-1630 663.12,-1636 663.12,-1636 663.12,-1789 663.12,-1789 663.12,-1795 657.12,-1801 651.12,-1801 651.12,-1801 577.88,-1801 577.88,-1801 571.88,-1801 565.88,-1795 565.88,-1789 565.88,-1789 565.88,-1636 565.88,-1636 565.88,-1630 571.88,-1624 577.88,-1624"/>
<text text-anchor="middle" x="614.5" y="-1788.45" font-family="Helvetica,sans-Serif" font-weight="bold" font-size="9.00">view</text>
</g>
<g id="clust17" class="cluster">
<title>cluster_src/js/directable/directables/frame</title>
<path fill="#ffffff" stroke="black" stroke-width="2" d="M412.75,-449C412.75,-449 498,-449 498,-449 504,-449 510,-455 510,-461 510,-461 510,-490 510,-490 510,-496 504,-502 498,-502 498,-502 412.75,-502 412.75,-502 406.75,-502 400.75,-496 400.75,-490 400.75,-490 400.75,-461 400.75,-461 400.75,-455 406.75,-449 412.75,-449"/>
<text text-anchor="middle" x="455.38" y="-489.45" font-family="Helvetica,sans-Serif" font-weight="bold" font-size="9.00">frame</text>
</g>
<g id="clust18" class="cluster">
<title>cluster_src/js/directable/directables/rhythm</title>
<path fill="#ffffff" stroke="black" stroke-width="2" d="M371.38,-571C371.38,-571 659.75,-571 659.75,-571 665.75,-571 671.75,-577 671.75,-583 671.75,-583 671.75,-770 671.75,-770 671.75,-776 665.75,-782 659.75,-782 659.75,-782 371.38,-782 371.38,-782 365.38,-782 359.38,-776 359.38,-770 359.38,-770 359.38,-583 359.38,-583 359.38,-577 365.38,-571 371.38,-571"/>
<text text-anchor="middle" x="515.56" y="-769.45" font-family="Helvetica,sans-Serif" font-weight="bold" font-size="9.00">rhythm</text>
</g>
<g id="clust19" class="cluster">
<title>cluster_src/js/directable/directables/rhythm/asdr</title>
<path fill="#ffffff" stroke="black" stroke-width="2" d="M379.38,-579C379.38,-579 531.38,-579 531.38,-579 537.38,-579 543.38,-585 543.38,-591 543.38,-591 543.38,-682 543.38,-682 543.38,-688 537.38,-694 531.38,-694 531.38,-694 379.38,-694 379.38,-694 373.38,-694 367.38,-688 367.38,-682 367.38,-682 367.38,-591 367.38,-591 367.38,-585 373.38,-579 379.38,-579"/>
<text text-anchor="middle" x="455.38" y="-681.45" font-family="Helvetica,sans-Serif" font-weight="bold" font-size="9.00">asdr</text>
</g>
<g id="clust20" class="cluster">
<title>cluster_src/js/directable/directables/rhythm/bpm</title>
<path fill="#ffffff" stroke="black" stroke-width="2" d="M400.38,-702C400.38,-702 510.38,-702 510.38,-702 516.38,-702 522.38,-708 522.38,-714 522.38,-714 522.38,-743 522.38,-743 522.38,-749 516.38,-755 510.38,-755 510.38,-755 400.38,-755 400.38,-755 394.38,-755 388.38,-749 388.38,-743 388.38,-743 388.38,-714 388.38,-714 388.38,-708 394.38,-702 400.38,-702"/>
<text text-anchor="middle" x="455.38" y="-742.45" font-family="Helvetica,sans-Serif" font-weight="bold" font-size="9.00">bpm</text>
</g>
<g id="clust21" class="cluster">
<title>cluster_src/js/directable/directables/rhythm2</title>
<path fill="#ffffff" stroke="black" stroke-width="2" d="M421,-1836C421,-1836 660.12,-1836 660.12,-1836 666.12,-1836 672.12,-1842 672.12,-1848 672.12,-1848 672.12,-1877 672.12,-1877 672.12,-1883 666.12,-1889 660.12,-1889 660.12,-1889 421,-1889 421,-1889 415,-1889 409,-1883 409,-1877 409,-1877 409,-1848 409,-1848 409,-1842 415,-1836 421,-1836"/>
<text text-anchor="middle" x="540.56" y="-1876.45" font-family="Helvetica,sans-Serif" font-weight="bold" font-size="9.00">rhythm2</text>
</g>
<g id="clust22" class="cluster">
<title>cluster_src/js/directable/directables/title</title>
<path fill="#ffffff" stroke="black" stroke-width="2" d="M417.25,-510C417.25,-510 493.5,-510 493.5,-510 499.5,-510 505.5,-516 505.5,-522 505.5,-522 505.5,-551 505.5,-551 505.5,-557 499.5,-563 493.5,-563 493.5,-563 417.25,-563 417.25,-563 411.25,-563 405.25,-557 405.25,-551 405.25,-551 405.25,-522 405.25,-522 405.25,-516 411.25,-510 417.25,-510"/>
<text text-anchor="middle" x="455.38" y="-550.45" font-family="Helvetica,sans-Serif" font-weight="bold" font-size="9.00">title</text>
</g>
<g id="clust23" class="cluster">
<title>cluster_src/js/director</title>
<path fill="#ffffff" stroke="black" stroke-width="2" d="M245.25,-510C245.25,-510 293.75,-510 293.75,-510 299.75,-510 305.75,-516 305.75,-522 305.75,-522 305.75,-551 305.75,-551 305.75,-557 299.75,-563 293.75,-563 293.75,-563 245.25,-563 245.25,-563 239.25,-563 233.25,-557 233.25,-551 233.25,-551 233.25,-522 233.25,-522 233.25,-516 239.25,-510 245.25,-510"/>
<text text-anchor="middle" x="269.5" y="-550.45" font-family="Helvetica,sans-Serif" font-weight="bold" font-size="9.00">director</text>
</g>
<g id="clust24" class="cluster">
<title>cluster_src/js/enum</title>
<path fill="#ffffff" stroke="black" stroke-width="2" d="M574.12,-93C574.12,-93 654.88,-93 654.88,-93 660.88,-93 666.88,-99 666.88,-105 666.88,-105 666.88,-134 666.88,-134 666.88,-140 660.88,-146 654.88,-146 654.88,-146 574.12,-146 574.12,-146 568.12,-146 562.12,-140 562.12,-134 562.12,-134 562.12,-105 562.12,-105 562.12,-99 568.12,-93 574.12,-93"/>
<text text-anchor="middle" x="614.5" y="-133.45" font-family="Helvetica,sans-Serif" font-weight="bold" font-size="9.00">enum</text>
</g>
<g id="clust25" class="cluster">
<title>cluster_src/js/overlay</title>
<path fill="#ffffff" stroke="black" stroke-width="2" d="M136.25,-153C136.25,-153 486.38,-153 486.38,-153 492.38,-153 498.38,-159 498.38,-165 498.38,-165 498.38,-290 498.38,-290 498.38,-296 492.38,-302 486.38,-302 486.38,-302 136.25,-302 136.25,-302 130.25,-302 124.25,-296 124.25,-290 124.25,-290 124.25,-165 124.25,-165 124.25,-159 130.25,-153 136.25,-153"/>
<text text-anchor="middle" x="311.31" y="-289.45" font-family="Helvetica,sans-Serif" font-weight="bold" font-size="9.00">overlay</text>
</g>
<g id="clust26" class="cluster">
<title>cluster_src/js/overlay/displayFormat</title>
<path fill="#ffffff" stroke="black" stroke-width="2" d="M215.62,-161C215.62,-161 323.38,-161 323.38,-161 329.38,-161 335.38,-167 335.38,-173 335.38,-173 335.38,-202 335.38,-202 335.38,-208 329.38,-214 323.38,-214 323.38,-214 215.62,-214 215.62,-214 209.62,-214 203.62,-208 203.62,-202 203.62,-202 203.62,-173 203.62,-173 203.62,-167 209.62,-161 215.62,-161"/>
<text text-anchor="middle" x="269.5" y="-201.45" font-family="Helvetica,sans-Serif" font-weight="bold" font-size="9.00">displayFormat</text>
</g>
<g id="clust27" class="cluster">
<title>cluster_src/js/overlay/overlay</title>
<path fill="#ffffff" stroke="black" stroke-width="2" d="M229.88,-222C229.88,-222 309.12,-222 309.12,-222 315.12,-222 321.12,-228 321.12,-234 321.12,-234 321.12,-263 321.12,-263 321.12,-269 315.12,-275 309.12,-275 309.12,-275 229.88,-275 229.88,-275 223.88,-275 217.88,-269 217.88,-263 217.88,-263 217.88,-234 217.88,-234 217.88,-228 223.88,-222 229.88,-222"/>
<text text-anchor="middle" x="269.5" y="-262.45" font-family="Helvetica,sans-Serif" font-weight="bold" font-size="9.00">overlay</text>
</g>
<g id="clust28" class="cluster">
<title>cluster_src/js/view</title>
<path fill="#ffffff" stroke="black" stroke-width="2" d="M137.12,-24C137.12,-24 503,-24 503,-24 509,-24 515,-30 515,-36 515,-36 515,-131 515,-131 515,-137 509,-143 503,-143 503,-143 137.12,-143 137.12,-143 131.12,-143 125.12,-137 125.12,-131 125.12,-131 125.12,-36 125.12,-36 125.12,-30 131.12,-24 137.12,-24"/>
<text text-anchor="middle" x="320.06" y="-130.45" font-family="Helvetica,sans-Serif" font-weight="bold" font-size="9.00">view</text>
</g>
<g id="clust29" class="cluster">
<title>cluster_src/js/view/render</title>
<path fill="#ffffff" stroke="black" stroke-width="2" d="M225.75,-32C225.75,-32 495,-32 495,-32 501,-32 507,-38 507,-44 507,-44 507,-104 507,-104 507,-110 501,-116 495,-116 495,-116 225.75,-116 225.75,-116 219.75,-116 213.75,-110 213.75,-104 213.75,-104 213.75,-44 213.75,-44 213.75,-38 219.75,-32 225.75,-32"/>
<text text-anchor="middle" x="360.38" y="-103.45" font-family="Helvetica,sans-Serif" font-weight="bold" font-size="9.00">render</text>
</g>
<!-- src/js/application/Application.js -->
<g id="node1" class="node">
<title>src/js/application/Application.js</title>
<g id="a_node1"><a xlink:href="src/js/application/Application.js" xlink:title="Application.js">
<path fill="#ffffcc" stroke="black" d="M484.58,-371.25C484.58,-371.25 426.17,-371.25 426.17,-371.25 423.08,-371.25 420,-368.17 420,-365.08 420,-365.08 420,-358.92 420,-358.92 420,-355.83 423.08,-352.75 426.17,-352.75 426.17,-352.75 484.58,-352.75 484.58,-352.75 487.67,-352.75 490.75,-355.83 490.75,-358.92 490.75,-358.92 490.75,-365.08 490.75,-365.08 490.75,-368.17 487.67,-371.25 484.58,-371.25"/>
<text text-anchor="start" x="428" y="-358.7" font-family="Helvetica,sans-Serif" font-size="9.00">Application.js</text>
</a>
</g>
</g>
<!-- src/js/controller/Controller.js -->
<g id="node2" class="node">
<title>src/js/controller/Controller.js</title>
<g id="a_node2"><a xlink:href="src/js/controller/Controller.js" xlink:title="Controller.js">
<path fill="#ffffcc" stroke="black" d="M100.33,-376.25C100.33,-376.25 47.92,-376.25 47.92,-376.25 44.83,-376.25 41.75,-373.17 41.75,-370.08 41.75,-370.08 41.75,-363.92 41.75,-363.92 41.75,-360.83 44.83,-357.75 47.92,-357.75 47.92,-357.75 100.33,-357.75 100.33,-357.75 103.42,-357.75 106.5,-360.83 106.5,-363.92 106.5,-363.92 106.5,-370.08 106.5,-370.08 106.5,-373.17 103.42,-376.25 100.33,-376.25"/>
<text text-anchor="start" x="49.75" y="-363.7" font-family="Helvetica,sans-Serif" font-size="9.00">Controller.js</text>
</a>
</g>
</g>
<!-- src/js/application/Application.js&#45;&gt;src/js/controller/Controller.js -->
<g id="edge1" class="edge">
<title>src/js/application/Application.js&#45;&gt;src/js/controller/Controller.js</title>
<path fill="none" stroke="#000000" stroke-width="2" stroke-opacity="0.200000" d="M419.52,-362.46C349.1,-363.39 190.28,-365.48 115.5,-366.47"/>
<polygon fill="#000000" fill-opacity="0.200000" stroke="#000000" stroke-width="2" stroke-opacity="0.200000" points="115.81,-364.36 109.83,-366.54 115.86,-368.56 115.81,-364.36"/>
</g>
<!-- src/js/application/ApplicationConfiguration.js -->
<g id="node3" class="node">
<title>src/js/application/ApplicationConfiguration.js</title>
<g id="a_node3"><a xlink:href="src/js/application/ApplicationConfiguration.js" xlink:title="ApplicationConfiguration.js">
<path fill="#ffffcc" stroke="black" d="M671.46,-336.25C671.46,-336.25 557.54,-336.25 557.54,-336.25 554.46,-336.25 551.38,-333.17 551.38,-330.08 551.38,-330.08 551.38,-323.92 551.38,-323.92 551.38,-320.83 554.46,-317.75 557.54,-317.75 557.54,-317.75 671.46,-317.75 671.46,-317.75 674.54,-317.75 677.62,-320.83 677.62,-323.92 677.62,-323.92 677.62,-330.08 677.62,-330.08 677.62,-333.17 674.54,-336.25 671.46,-336.25"/>
<text text-anchor="start" x="559.38" y="-323.7" font-family="Helvetica,sans-Serif" font-size="9.00">ApplicationConfiguration.js</text>
</a>
</g>
</g>
<!-- src/js/application/Application.js&#45;&gt;src/js/application/ApplicationConfiguration.js -->
<g id="edge2" class="edge">
<title>src/js/application/Application.js&#45;&gt;src/js/application/ApplicationConfiguration.js</title>
<path fill="none" stroke="#000000" stroke-width="2" stroke-opacity="0.200000" d="M491.25,-354.23C511.77,-349.66 538.13,-343.79 561.11,-338.67"/>
<polygon fill="#000000" fill-opacity="0.200000" stroke="#000000" stroke-width="2" stroke-opacity="0.200000" points="561.38,-340.76 566.78,-337.41 560.46,-336.66 561.38,-340.76"/>
</g>
<!-- src/js/application/ApplicationLogger.js -->
<g id="node4" class="node">
<title>src/js/application/ApplicationLogger.js</title>
<g id="a_node4"><a xlink:href="src/js/application/ApplicationLogger.js" xlink:title="ApplicationLogger.js">
<path fill="#ffffcc" stroke="black" d="M657.96,-398.25C657.96,-398.25 571.04,-398.25 571.04,-398.25 567.96,-398.25 564.88,-395.17 564.88,-392.08 564.88,-392.08 564.88,-385.92 564.88,-385.92 564.88,-382.83 567.96,-379.75 571.04,-379.75 571.04,-379.75 657.96,-379.75 657.96,-379.75 661.04,-379.75 664.12,-382.83 664.12,-385.92 664.12,-385.92 664.12,-392.08 664.12,-392.08 664.12,-395.17 661.04,-398.25 657.96,-398.25"/>
<text text-anchor="start" x="572.88" y="-385.7" font-family="Helvetica,sans-Serif" font-size="9.00">ApplicationLogger.js</text>
</a>
</g>
</g>
<!-- src/js/application/Application.js&#45;&gt;src/js/application/ApplicationLogger.js -->
<g id="edge3" class="edge">
<title>src/js/application/Application.js&#45;&gt;src/js/application/ApplicationLogger.js</title>
<path fill="none" stroke="#000000" stroke-width="2" stroke-opacity="0.200000" d="M491.25,-367.99C510.16,-371.24 534.02,-375.34 555.64,-379.06"/>
<polygon fill="#000000" fill-opacity="0.200000" stroke="#000000" stroke-width="2" stroke-opacity="0.200000" points="555.17,-381.11 561.44,-380.05 555.88,-376.97 555.17,-381.11"/>
</g>
<!-- src/js/controller/Controller.js&#45;&gt;src/js/application/ApplicationLogger.js -->
<g id="edge5" class="edge">
<title>src/js/controller/Controller.js&#45;&gt;src/js/application/ApplicationLogger.js</title>
<path fill="none" stroke="#000000" stroke-width="2" stroke-opacity="0.200000" d="M106.83,-369.04C112.62,-369.38 118.62,-369.72 124.25,-370 280.15,-377.79 464.13,-384.18 555.69,-387.17"/>
<polygon fill="#000000" fill-opacity="0.200000" stroke="#000000" stroke-width="2" stroke-opacity="0.200000" points="555.44,-389.26 561.5,-387.36 555.57,-385.07 555.44,-389.26"/>
</g>
<!-- src/js/director/Director.js -->
<g id="node7" class="node">
<title>src/js/director/Director.js</title>
<g id="a_node7"><a xlink:href="src/js/director/Director.js" xlink:title="Director.js">
<path fill="#ffffcc" stroke="black" d="M291.58,-536.25C291.58,-536.25 247.42,-536.25 247.42,-536.25 244.33,-536.25 241.25,-533.17 241.25,-530.08 241.25,-530.08 241.25,-523.92 241.25,-523.92 241.25,-520.83 244.33,-517.75 247.42,-517.75 247.42,-517.75 291.58,-517.75 291.58,-517.75 294.67,-517.75 297.75,-520.83 297.75,-523.92 297.75,-523.92 297.75,-530.08 297.75,-530.08 297.75,-533.17 294.67,-536.25 291.58,-536.25"/>
<text text-anchor="start" x="249.25" y="-523.7" font-family="Helvetica,sans-Serif" font-size="9.00">Director.js</text>
</a>
</g>
</g>
<!-- src/js/controller/Controller.js&#45;&gt;src/js/director/Director.js -->
<g id="edge6" class="edge">
<title>src/js/controller/Controller.js&#45;&gt;src/js/director/Director.js</title>
<path fill="none" stroke="#000000" stroke-width="2" stroke-opacity="0.200000" d="M86.64,-376.53C118.94,-403.26 210.61,-479.1 250.06,-511.75"/>
<polygon fill="#000000" fill-opacity="0.200000" stroke="#000000" stroke-width="2" stroke-opacity="0.200000" points="248.5,-513.18 254.47,-515.39 251.18,-509.95 248.5,-513.18"/>
</g>
<!-- src/js/overlay/Overlay.js -->
<g id="node8" class="node">
<title>src/js/overlay/Overlay.js</title>
<g id="a_node8"><a xlink:href="src/js/overlay/Overlay.js" xlink:title="Overlay.js">
<path fill="#ffffcc" stroke="black" d="M181.83,-262.25C181.83,-262.25 138.42,-262.25 138.42,-262.25 135.33,-262.25 132.25,-259.17 132.25,-256.08 132.25,-256.08 132.25,-249.92 132.25,-249.92 132.25,-246.83 135.33,-243.75 138.42,-243.75 138.42,-243.75 181.83,-243.75 181.83,-243.75 184.92,-243.75 188,-246.83 188,-249.92 188,-249.92 188,-256.08 188,-256.08 188,-259.17 184.92,-262.25 181.83,-262.25"/>
<text text-anchor="start" x="140.25" y="-249.7" font-family="Helvetica,sans-Serif" font-size="9.00">Overlay.js</text>
</a>
</g>
</g>
<!-- src/js/controller/Controller.js&#45;&gt;src/js/overlay/Overlay.js -->
<g id="edge7" class="edge">
<title>src/js/controller/Controller.js&#45;&gt;src/js/overlay/Overlay.js</title>
<path fill="none" stroke="#000000" stroke-width="2" stroke-opacity="0.200000" d="M82.29,-357.28C96.61,-337.85 128.92,-293.99 146.75,-269.8"/>
<polygon fill="#000000" fill-opacity="0.200000" stroke="#000000" stroke-width="2" stroke-opacity="0.200000" points="148.32,-271.21 150.19,-265.13 144.94,-268.72 148.32,-271.21"/>
</g>
<!-- src/js/view/View.js -->
<g id="node9" class="node">
<title>src/js/view/View.js</title>
<g id="a_node9"><a xlink:href="src/js/view/View.js" xlink:title="View.js">
<path fill="#ffffcc" stroke="black" d="M180.96,-103.25C180.96,-103.25 139.29,-103.25 139.29,-103.25 136.21,-103.25 133.12,-100.17 133.12,-97.08 133.12,-97.08 133.12,-90.92 133.12,-90.92 133.12,-87.83 136.21,-84.75 139.29,-84.75 139.29,-84.75 180.96,-84.75 180.96,-84.75 184.04,-84.75 187.12,-87.83 187.12,-90.92 187.12,-90.92 187.12,-97.08 187.12,-97.08 187.12,-100.17 184.04,-103.25 180.96,-103.25"/>
<text text-anchor="start" x="145.88" y="-90.7" font-family="Helvetica,sans-Serif" font-size="9.00">View.js</text>
</a>
</g>
</g>
<!-- src/js/controller/Controller.js&#45;&gt;src/js/view/View.js -->
<g id="edge8" class="edge">
<title>src/js/controller/Controller.js&#45;&gt;src/js/view/View.js</title>
<path fill="none" stroke="#000000" stroke-width="2" stroke-opacity="0.200000" d="M76.12,-357.57C79.61,-326.73 92.84,-226.46 124.25,-150 130.06,-135.85 139.31,-121.22 146.82,-110.46"/>
<polygon fill="#000000" fill-opacity="0.200000" stroke="#000000" stroke-width="2" stroke-opacity="0.200000" points="148.34,-111.93 150.14,-105.84 144.93,-109.48 148.34,-111.93"/>
</g>
<!-- src/js/application/ApplicationDispatcher.js -->
<g id="node5" class="node">
<title>src/js/application/ApplicationDispatcher.js</title>
<g id="a_node5"><a xlink:href="src/js/application/ApplicationDispatcher.js" xlink:title="ApplicationDispatcher.js">
<path fill="#ffffcc" stroke="black" d="M506.33,-336.25C506.33,-336.25 404.42,-336.25 404.42,-336.25 401.33,-336.25 398.25,-333.17 398.25,-330.08 398.25,-330.08 398.25,-323.92 398.25,-323.92 398.25,-320.83 401.33,-317.75 404.42,-317.75 404.42,-317.75 506.33,-317.75 506.33,-317.75 509.42,-317.75 512.5,-320.83 512.5,-323.92 512.5,-323.92 512.5,-330.08 512.5,-330.08 512.5,-333.17 509.42,-336.25 506.33,-336.25"/>
<text text-anchor="start" x="406.25" y="-323.7" font-family="Helvetica,sans-Serif" font-size="9.00">ApplicationDispatcher.js</text>
</a>
</g>
</g>
<!-- src/js/application/ApplicationEvent.js -->
<g id="node6" class="node">
<title>src/js/application/ApplicationEvent.js</title>
<g id="a_node6"><a xlink:href="src/js/application/ApplicationEvent.js" xlink:title="ApplicationEvent.js">
<path fill="#ffffcc" stroke="black" d="M655.33,-367.25C655.33,-367.25 573.67,-367.25 573.67,-367.25 570.58,-367.25 567.5,-364.17 567.5,-361.08 567.5,-361.08 567.5,-354.92 567.5,-354.92 567.5,-351.83 570.58,-348.75 573.67,-348.75 573.67,-348.75 655.33,-348.75 655.33,-348.75 658.42,-348.75 661.5,-351.83 661.5,-354.92 661.5,-354.92 661.5,-361.08 661.5,-361.08 661.5,-364.17 658.42,-367.25 655.33,-367.25"/>
<text text-anchor="start" x="575.5" y="-354.7" font-family="Helvetica,sans-Serif" font-size="9.00">ApplicationEvent.js</text>
</a>
</g>
</g>
<!-- src/js/application/ApplicationDispatcher.js&#45;&gt;src/js/application/ApplicationEvent.js -->
<g id="edge4" class="edge">
<title>src/js/application/ApplicationDispatcher.js&#45;&gt;src/js/application/ApplicationEvent.js</title>
<path fill="none" stroke="#000000" stroke-width="2" stroke-opacity="0.200000" d="M505.66,-336.72C522.37,-340.02 541.14,-343.72 558.28,-347.1"/>
<polygon fill="#000000" fill-opacity="0.200000" stroke="#000000" stroke-width="2" stroke-opacity="0.200000" points="557.81,-349.15 564.1,-348.25 558.62,-345.03 557.81,-349.15"/>
</g>
<!-- src/js/director/Director.js&#45;&gt;src/js/application/ApplicationLogger.js -->
<g id="edge19" class="edge">
<title>src/js/director/Director.js&#45;&gt;src/js/application/ApplicationLogger.js</title>
<path fill="none" stroke="#000000" stroke-width="2" stroke-opacity="0.200000" d="M276.16,-517.48C286.91,-500.25 312.08,-464.05 343.38,-446 409.59,-407.82 498.13,-395.09 555.49,-390.92"/>
<polygon fill="#000000" fill-opacity="0.200000" stroke="#000000" stroke-width="2" stroke-opacity="0.200000" points="555.55,-393.02 561.39,-390.52 555.27,-388.83 555.55,-393.02"/>
</g>
<!-- src/js/directable/directables/dotmatrix/DirectableDotMatrix.js -->
<g id="node12" class="node">
<title>src/js/directable/directables/dotmatrix/DirectableDotMatrix.js</title>
<g id="a_node12"><a xlink:href="src/js/directable/directables/dotmatrix/DirectableDotMatrix.js" xlink:title="DirectableDotMatrix.js">
<path fill="#ffffcc" stroke="black" d="M502.21,-1801.25C502.21,-1801.25 408.54,-1801.25 408.54,-1801.25 405.46,-1801.25 402.38,-1798.17 402.38,-1795.08 402.38,-1795.08 402.38,-1788.92 402.38,-1788.92 402.38,-1785.83 405.46,-1782.75 408.54,-1782.75 408.54,-1782.75 502.21,-1782.75 502.21,-1782.75 505.29,-1782.75 508.38,-1785.83 508.38,-1788.92 508.38,-1788.92 508.38,-1795.08 508.38,-1795.08 508.38,-1798.17 505.29,-1801.25 502.21,-1801.25"/>
<text text-anchor="start" x="410.38" y="-1788.7" font-family="Helvetica,sans-Serif" font-size="9.00">DirectableDotMatrix.js</text>
</a>
</g>
</g>
<!-- src/js/director/Director.js&#45;&gt;src/js/directable/directables/dotmatrix/DirectableDotMatrix.js -->
<g id="edge20" class="edge">
<title>src/js/director/Director.js&#45;&gt;src/js/directable/directables/dotmatrix/DirectableDotMatrix.js</title>
<path fill="none" stroke="#000000" stroke-width="2" stroke-opacity="0.200000" d="M270.71,-536.67C273.23,-650.38 298.34,-1729.83 343.38,-1778 356.03,-1791.53 374.66,-1796.93 393.07,-1798.36"/>
<polygon fill="#000000" fill-opacity="0.200000" stroke="#000000" stroke-width="2" stroke-opacity="0.200000" points="392.94,-1800.46 399.03,-1798.63 393.13,-1796.27 392.94,-1800.46"/>
</g>
<!-- src/js/directable/directables/rhythm/bpm/DirectableRhythmBPM.js -->
<g id="node48" class="node">
<title>src/js/directable/directables/rhythm/bpm/DirectableRhythmBPM.js</title>
<g id="a_node48"><a xlink:href="src/js/directable/directables/rhythm/bpm/DirectableRhythmBPM.js" xlink:title="DirectableRhythmBPM.js">
<path fill="#ffffcc" stroke="black" d="M508.21,-728.25C508.21,-728.25 402.54,-728.25 402.54,-728.25 399.46,-728.25 396.38,-725.17 396.38,-722.08 396.38,-722.08 396.38,-715.92 396.38,-715.92 396.38,-712.83 399.46,-709.75 402.54,-709.75 402.54,-709.75 508.21,-709.75 508.21,-709.75 511.29,-709.75 514.38,-712.83 514.38,-715.92 514.38,-715.92 514.38,-722.08 514.38,-722.08 514.38,-725.17 511.29,-728.25 508.21,-728.25"/>
<text text-anchor="start" x="404.38" y="-715.7" font-family="Helvetica,sans-Serif" font-size="9.00">DirectableRhythmBPM.js</text>
</a>
</g>
</g>
<!-- src/js/director/Director.js&#45;&gt;src/js/directable/directables/rhythm/bpm/DirectableRhythmBPM.js -->
<g id="edge21" class="edge">
<title>src/js/director/Director.js&#45;&gt;src/js/directable/directables/rhythm/bpm/DirectableRhythmBPM.js</title>
<path fill="none" stroke="#000000" stroke-width="2" stroke-opacity="0.200000" d="M271.53,-536.54C275.21,-565.69 290.47,-654.16 343.38,-697 355.81,-707.07 371.56,-712.96 387.26,-716.31"/>
<polygon fill="#000000" fill-opacity="0.200000" stroke="#000000" stroke-width="2" stroke-opacity="0.200000" points="386.7,-718.34 392.98,-717.37 387.46,-714.21 386.7,-718.34"/>
</g>
<!-- src/js/directable/directables/title/DirectableTitle.js -->
<g id="node51" class="node">
<title>src/js/directable/directables/title/DirectableTitle.js</title>
<g id="a_node51"><a xlink:href="src/js/directable/directables/title/DirectableTitle.js" xlink:title="DirectableTitle.js">
<path fill="#ffffcc" stroke="black" d="M491.33,-536.25C491.33,-536.25 419.42,-536.25 419.42,-536.25 416.33,-536.25 413.25,-533.17 413.25,-530.08 413.25,-530.08 413.25,-523.92 413.25,-523.92 413.25,-520.83 416.33,-517.75 419.42,-517.75 419.42,-517.75 491.33,-517.75 491.33,-517.75 494.42,-517.75 497.5,-520.83 497.5,-523.92 497.5,-523.92 497.5,-530.08 497.5,-530.08 497.5,-533.17 494.42,-536.25 491.33,-536.25"/>
<text text-anchor="start" x="421.25" y="-523.7" font-family="Helvetica,sans-Serif" font-size="9.00">DirectableTitle.js</text>
</a>
</g>
</g>
<!-- src/js/director/Director.js&#45;&gt;src/js/directable/directables/title/DirectableTitle.js -->
<g id="edge22" class="edge">
<title>src/js/director/Director.js&#45;&gt;src/js/directable/directables/title/DirectableTitle.js</title>
<path fill="none" stroke="#000000" stroke-width="2" stroke-opacity="0.200000" d="M298.03,-527C325.99,-527 369.91,-527 404.1,-527"/>
<polygon fill="#000000" fill-opacity="0.200000" stroke="#000000" stroke-width="2" stroke-opacity="0.200000" points="403.98,-529.1 409.98,-527 403.98,-524.9 403.98,-529.1"/>
</g>
<!-- src/js/overlay/Overlay.js&#45;&gt;src/js/application/ApplicationConfiguration.js -->
<g id="edge24" class="edge">
<title>src/js/overlay/Overlay.js&#45;&gt;src/js/application/ApplicationConfiguration.js</title>
<path fill="none" stroke="#000000" stroke-width="2" stroke-opacity="0.200000" d="M162.1,-243.27C164.69,-223.18 173.76,-177.36 203.62,-158 252.76,-126.15 277.78,-147.43 335.38,-158 432.64,-175.85 463.82,-178.27 543.38,-237 570.29,-256.87 592.21,-289.69 604.01,-309.73"/>
<polygon fill="#000000" fill-opacity="0.200000" stroke="#000000" stroke-width="2" stroke-opacity="0.200000" points="602.13,-310.66 606.93,-314.83 605.78,-308.58 602.13,-310.66"/>
</g>
<!-- src/js/overlay/Overlay.js&#45;&gt;src/js/application/ApplicationLogger.js -->
<g id="edge26" class="edge">
<title>src/js/overlay/Overlay.js&#45;&gt;src/js/application/ApplicationLogger.js</title>
<path fill="none" stroke="#000000" stroke-width="2" stroke-opacity="0.200000" d="M174.19,-262.7C182.25,-268.15 193.05,-274.54 203.62,-278 275.75,-301.56 488.91,-259.18 543.38,-312 563,-331.04 533.25,-352.53 551.38,-373 553.07,-374.92 554.96,-376.62 557,-378.12"/>
<polygon fill="#000000" fill-opacity="0.200000" stroke="#000000" stroke-width="2" stroke-opacity="0.200000" points="555.6,-379.73 561.83,-381 557.75,-376.13 555.6,-379.73"/>
</g>
<!-- src/js/overlay/Overlay.js&#45;&gt;src/js/application/ApplicationDispatcher.js -->
<g id="edge25" class="edge">
<title>src/js/overlay/Overlay.js&#45;&gt;src/js/application/ApplicationDispatcher.js</title>
<path fill="none" stroke="#000000" stroke-width="2" stroke-opacity="0.200000" d="M167.66,-262.73C175.08,-272.89 188.18,-288.4 203.62,-296 235.25,-311.56 325.97,-319.8 389.14,-323.78"/>
<polygon fill="#000000" fill-opacity="0.200000" stroke="#000000" stroke-width="2" stroke-opacity="0.200000" points="388.72,-325.86 394.84,-324.13 388.98,-321.66 388.72,-325.86"/>
</g>
<!-- src/js/overlay/displayFormat/OverlayDisplayFormat.js -->
<g id="node54" class="node">
<title>src/js/overlay/displayFormat/OverlayDisplayFormat.js</title>
<g id="a_node54"><a xlink:href="src/js/overlay/displayFormat/OverlayDisplayFormat.js" xlink:title="OverlayDisplayFormat.js">
<path fill="#ffffcc" stroke="black" d="M321.21,-187.25C321.21,-187.25 217.79,-187.25 217.79,-187.25 214.71,-187.25 211.62,-184.17 211.62,-181.08 211.62,-181.08 211.62,-174.92 211.62,-174.92 211.62,-171.83 214.71,-168.75 217.79,-168.75 217.79,-168.75 321.21,-168.75 321.21,-168.75 324.29,-168.75 327.38,-171.83 327.38,-174.92 327.38,-174.92 327.38,-181.08 327.38,-181.08 327.38,-184.17 324.29,-187.25 321.21,-187.25"/>
<text text-anchor="start" x="219.62" y="-174.7" font-family="Helvetica,sans-Serif" font-size="9.00">OverlayDisplayFormat.js</text>
</a>
</g>
</g>
<!-- src/js/overlay/Overlay.js&#45;&gt;src/js/overlay/displayFormat/OverlayDisplayFormat.js -->
<g id="edge27" class="edge">
<title>src/js/overlay/Overlay.js&#45;&gt;src/js/overlay/displayFormat/OverlayDisplayFormat.js</title>
<path fill="none" stroke="#000000" stroke-width="2" stroke-opacity="0.200000" d="M172.4,-243.41C180.82,-236.4 192.7,-226.79 203.62,-219 216.8,-209.61 232.07,-199.91 244.48,-192.3"/>
<polygon fill="#000000" fill-opacity="0.200000" stroke="#000000" stroke-width="2" stroke-opacity="0.200000" points="245.55,-194.1 249.59,-189.2 243.37,-190.52 245.55,-194.1"/>
</g>
<!-- src/js/overlay/overlay/OverlayOverlay.js -->
<g id="node55" class="node">
<title>src/js/overlay/overlay/OverlayOverlay.js</title>
<g id="a_node55"><a xlink:href="src/js/overlay/overlay/OverlayOverlay.js" xlink:title="OverlayOverlay.js">
<path fill="#ffffcc" stroke="black" d="M306.96,-248.25C306.96,-248.25 232.04,-248.25 232.04,-248.25 228.96,-248.25 225.88,-245.17 225.88,-242.08 225.88,-242.08 225.88,-235.92 225.88,-235.92 225.88,-232.83 228.96,-229.75 232.04,-229.75 232.04,-229.75 306.96,-229.75 306.96,-229.75 310.04,-229.75 313.12,-232.83 313.12,-235.92 313.12,-235.92 313.12,-242.08 313.12,-242.08 313.12,-245.17 310.04,-248.25 306.96,-248.25"/>
<text text-anchor="start" x="233.88" y="-235.7" font-family="Helvetica,sans-Serif" font-size="9.00">OverlayOverlay.js</text>
</a>
</g>
</g>
<!-- src/js/overlay/Overlay.js&#45;&gt;src/js/overlay/overlay/OverlayOverlay.js -->
<g id="edge28" class="edge">
<title>src/js/overlay/Overlay.js&#45;&gt;src/js/overlay/overlay/OverlayOverlay.js</title>
<path fill="none" stroke="#000000" stroke-width="2" stroke-opacity="0.200000" d="M188.5,-249.43C197.16,-248.3 207.03,-247.02 216.81,-245.74"/>
<polygon fill="#000000" fill-opacity="0.200000" stroke="#000000" stroke-width="2" stroke-opacity="0.200000" points="217.05,-247.83 222.73,-244.97 216.51,-243.66 217.05,-247.83"/>
</g>
<!-- src/js/view/render/RenderController.js -->
<g id="node57" class="node">
<title>src/js/view/render/RenderController.js</title>
<g id="a_node57"><a xlink:href="src/js/view/render/RenderController.js" xlink:title="RenderController.js">
<path fill="#ffffcc" stroke="black" d="M311.08,-89.25C311.08,-89.25 227.92,-89.25 227.92,-89.25 224.83,-89.25 221.75,-86.17 221.75,-83.08 221.75,-83.08 221.75,-76.92 221.75,-76.92 221.75,-73.83 224.83,-70.75 227.92,-70.75 227.92,-70.75 311.08,-70.75 311.08,-70.75 314.17,-70.75 317.25,-73.83 317.25,-76.92 317.25,-76.92 317.25,-83.08 317.25,-83.08 317.25,-86.17 314.17,-89.25 311.08,-89.25"/>
<text text-anchor="start" x="229.75" y="-76.7" font-family="Helvetica,sans-Serif" font-size="9.00">RenderController.js</text>
</a>
</g>
</g>
<!-- src/js/view/View.js&#45;&gt;src/js/view/render/RenderController.js -->
<g id="edge34" class="edge">
<title>src/js/view/View.js&#45;&gt;src/js/view/render/RenderController.js</title>
<path fill="none" stroke="#000000" stroke-width="2" stroke-opacity="0.200000" d="M187.39,-90.58C195.12,-89.57 203.89,-88.42 212.73,-87.27"/>
<polygon fill="#000000" fill-opacity="0.200000" stroke="#000000" stroke-width="2" stroke-opacity="0.200000" points="212.88,-89.37 218.56,-86.51 212.34,-85.2 212.88,-89.37"/>
</g>
<!-- src/js/data/Data.json -->
<g id="node10" class="node">
<title>src/js/data/Data.json</title>
<g id="a_node10"><a xlink:href="src/js/data/Data.json" xlink:title="Data.json">
<path fill="#ffee44" stroke="black" d="M181.46,-1211.25C181.46,-1211.25 138.79,-1211.25 138.79,-1211.25 135.71,-1211.25 132.62,-1208.17 132.62,-1205.08 132.62,-1205.08 132.62,-1198.92 132.62,-1198.92 132.62,-1195.83 135.71,-1192.75 138.79,-1192.75 138.79,-1192.75 181.46,-1192.75 181.46,-1192.75 184.54,-1192.75 187.62,-1195.83 187.62,-1198.92 187.62,-1198.92 187.62,-1205.08 187.62,-1205.08 187.62,-1208.17 184.54,-1211.25 181.46,-1211.25"/>
<text text-anchor="start" x="140.62" y="-1198.7" font-family="Helvetica,sans-Serif" font-size="9.00">Data.json</text>
</a>
</g>
</g>
<!-- src/js/data/DataController.js -->
<g id="node11" class="node">
<title>src/js/data/DataController.js</title>
<g id="a_node11"><a xlink:href="src/js/data/DataController.js" xlink:title="DataController.js">
<path fill="#ffffcc" stroke="black" d="M110.08,-1211.25C110.08,-1211.25 38.17,-1211.25 38.17,-1211.25 35.08,-1211.25 32,-1208.17 32,-1205.08 32,-1205.08 32,-1198.92 32,-1198.92 32,-1195.83 35.08,-1192.75 38.17,-1192.75 38.17,-1192.75 110.08,-1192.75 110.08,-1192.75 113.17,-1192.75 116.25,-1195.83 116.25,-1198.92 116.25,-1198.92 116.25,-1205.08 116.25,-1205.08 116.25,-1208.17 113.17,-1211.25 110.08,-1211.25"/>
<text text-anchor="start" x="40" y="-1198.7" font-family="Helvetica,sans-Serif" font-size="9.00">DataController.js</text>
</a>
</g>
</g>
<!-- src/js/data/DataController.js&#45;&gt;src/js/data/Data.json -->
<g id="edge9" class="edge">
<title>src/js/data/DataController.js&#45;&gt;src/js/data/Data.json</title>
<path fill="none" stroke="#000000" stroke-width="2" stroke-opacity="0.200000" d="M116.63,-1202C118.95,-1202 121.26,-1202 123.55,-1202"/>
<polygon fill="#000000" fill-opacity="0.200000" stroke="#000000" stroke-width="2" stroke-opacity="0.200000" points="123.17,-1204.1 129.17,-1202 123.17,-1199.9 123.17,-1204.1"/>
</g>
<!-- src/js/directable/directables/dotmatrix/DirectableDotMatrix.js&#45;&gt;src/js/application/ApplicationLogger.js -->
<g id="edge10" class="edge">
<title>src/js/directable/directables/dotmatrix/DirectableDotMatrix.js&#45;&gt;src/js/application/ApplicationLogger.js</title>
<path fill="none" stroke="#000000" stroke-width="2" stroke-opacity="0.200000" d="M508.73,-1794.96C521.89,-1792.96 534.71,-1788.1 543.38,-1778 554.32,-1765.24 548.53,-584.56 551.38,-568 561.98,-506.36 591.1,-437.55 605.38,-406.21"/>
<polygon fill="#000000" fill-opacity="0.200000" stroke="#000000" stroke-width="2" stroke-opacity="0.200000" points="607.11,-407.48 607.72,-401.15 603.3,-405.72 607.11,-407.48"/>
</g>
<!-- src/js/directable/directables/dotmatrix/view/ViewManager.js -->
<g id="node13" class="node">
<title>src/js/directable/directables/dotmatrix/view/ViewManager.js</title>
<g id="a_node13"><a xlink:href="src/js/directable/directables/dotmatrix/view/ViewManager.js" xlink:title="ViewManager.js">
<path fill="#ffffcc" stroke="black" d="M648.96,-1650.25C648.96,-1650.25 580.04,-1650.25 580.04,-1650.25 576.96,-1650.25 573.88,-1647.17 573.88,-1644.08 573.88,-1644.08 573.88,-1637.92 573.88,-1637.92 573.88,-1634.83 576.96,-1631.75 580.04,-1631.75 580.04,-1631.75 648.96,-1631.75 648.96,-1631.75 652.04,-1631.75 655.12,-1634.83 655.12,-1637.92 655.12,-1637.92 655.12,-1644.08 655.12,-1644.08 655.12,-1647.17 652.04,-1650.25 648.96,-1650.25"/>
<text text-anchor="start" x="581.88" y="-1637.7" font-family="Helvetica,sans-Serif" font-size="9.00">ViewManager.js</text>
</a>
</g>
</g>
<!-- src/js/directable/directables/dotmatrix/DirectableDotMatrix.js&#45;&gt;src/js/directable/directables/dotmatrix/view/ViewManager.js -->
<g id="edge11" class="edge">
<title>src/js/directable/directables/dotmatrix/DirectableDotMatrix.js&#45;&gt;src/js/directable/directables/dotmatrix/view/ViewManager.js</title>
<path fill="none" stroke="#000000" stroke-width="2" stroke-opacity="0.200000" d="M508.8,-1794.55C521.79,-1792.5 534.52,-1787.73 543.38,-1778 561.52,-1758.08 534.17,-1677.74 551.38,-1657 555.15,-1652.45 560.03,-1649.1 565.39,-1646.64"/>
<polygon fill="#000000" fill-opacity="0.200000" stroke="#000000" stroke-width="2" stroke-opacity="0.200000" points="565.78,-1648.74 570.69,-1644.7 564.33,-1644.8 565.78,-1648.74"/>
</g>
<!-- src/js/directable/directables/dotmatrix/dots/Dot.js -->
<g id="node14" class="node">
<title>src/js/directable/directables/dotmatrix/dots/Dot.js</title>
<g id="a_node14"><a xlink:href="src/js/directable/directables/dotmatrix/dots/Dot.js" xlink:title="Dot.js">
<path fill="#ccffcc" stroke="black" d="M476.21,-824.25C476.21,-824.25 434.54,-824.25 434.54,-824.25 431.46,-824.25 428.38,-821.17 428.38,-818.08 428.38,-818.08 428.38,-811.92 428.38,-811.92 428.38,-808.83 431.46,-805.75 434.54,-805.75 434.54,-805.75 476.21,-805.75 476.21,-805.75 479.29,-805.75 482.38,-808.83 482.38,-811.92 482.38,-811.92 482.38,-818.08 482.38,-818.08 482.38,-821.17 479.29,-824.25 476.21,-824.25"/>
<text text-anchor="start" x="443.75" y="-811.7" font-family="Helvetica,sans-Serif" font-size="9.00">Dot.js</text>
</a>
</g>
</g>
<!-- src/js/directable/directables/dotmatrix/dots/DotManager.js -->
<g id="node15" class="node">
<title>src/js/directable/directables/dotmatrix/dots/DotManager.js</title>
<g id="a_node15"><a xlink:href="src/js/directable/directables/dotmatrix/dots/DotManager.js" xlink:title="DotManager.js">
<path fill="#ccffcc" stroke="black" d="M486.83,-855.25C486.83,-855.25 423.92,-855.25 423.92,-855.25 420.83,-855.25 417.75,-852.17 417.75,-849.08 417.75,-849.08 417.75,-842.92 417.75,-842.92 417.75,-839.83 420.83,-836.75 423.92,-836.75 423.92,-836.75 486.83,-836.75 486.83,-836.75 489.92,-836.75 493,-839.83 493,-842.92 493,-842.92 493,-849.08 493,-849.08 493,-852.17 489.92,-855.25 486.83,-855.25"/>
<text text-anchor="start" x="425.75" y="-842.7" font-family="Helvetica,sans-Serif" font-size="9.00">DotManager.js</text>
</a>
</g>
</g>
<!-- src/js/directable/directables/dotmatrix/grid/GridData.js -->
<g id="node16" class="node">
<title>src/js/directable/directables/dotmatrix/grid/GridData.js</title>
<g id="a_node16"><a xlink:href="src/js/directable/directables/dotmatrix/grid/GridData.js" xlink:title="GridData.js">
<path fill="#ccffcc" stroke="black" d="M480.08,-916.25C480.08,-916.25 430.67,-916.25 430.67,-916.25 427.58,-916.25 424.5,-913.17 424.5,-910.08 424.5,-910.08 424.5,-903.92 424.5,-903.92 424.5,-900.83 427.58,-897.75 430.67,-897.75 430.67,-897.75 480.08,-897.75 480.08,-897.75 483.17,-897.75 486.25,-900.83 486.25,-903.92 486.25,-903.92 486.25,-910.08 486.25,-910.08 486.25,-913.17 483.17,-916.25 480.08,-916.25"/>
<text text-anchor="start" x="432.5" y="-903.7" font-family="Helvetica,sans-Serif" font-size="9.00">GridData.js</text>
</a>
</g>
</g>
<!-- src/js/directable/directables/dotmatrix/grid/GridRenderer.js -->
<g id="node17" class="node">
<title>src/js/directable/directables/dotmatrix/grid/GridRenderer.js</title>
<g id="a_node17"><a xlink:href="src/js/directable/directables/dotmatrix/grid/GridRenderer.js" xlink:title="GridRenderer.js">
<path fill="#ccffcc" stroke="black" d="M489.46,-947.25C489.46,-947.25 421.29,-947.25 421.29,-947.25 418.21,-947.25 415.12,-944.17 415.12,-941.08 415.12,-941.08 415.12,-934.92 415.12,-934.92 415.12,-931.83 418.21,-928.75 421.29,-928.75 421.29,-928.75 489.46,-928.75 489.46,-928.75 492.54,-928.75 495.62,-931.83 495.62,-934.92 495.62,-934.92 495.62,-941.08 495.62,-941.08 495.62,-944.17 492.54,-947.25 489.46,-947.25"/>
<text text-anchor="start" x="423.12" y="-934.7" font-family="Helvetica,sans-Serif" font-size="9.00">GridRenderer.js</text>
</a>
</g>
</g>
<!-- src/js/directable/directables/dotmatrix/grid/GridRendererComponent.js -->
<g id="node18" class="node">
<title>src/js/directable/directables/dotmatrix/grid/GridRendererComponent.js</title>
<g id="a_node18"><a xlink:href="src/js/directable/directables/dotmatrix/grid/GridRendererComponent.js" xlink:title="GridRendererComponent.js">
<path fill="#ccffcc" stroke="black" d="M513.83,-978.25C513.83,-978.25 396.92,-978.25 396.92,-978.25 393.83,-978.25 390.75,-975.17 390.75,-972.08 390.75,-972.08 390.75,-965.92 390.75,-965.92 390.75,-962.83 393.83,-959.75 396.92,-959.75 396.92,-959.75 513.83,-959.75 513.83,-959.75 516.92,-959.75 520,-962.83 520,-965.92 520,-965.92 520,-972.08 520,-972.08 520,-975.17 516.92,-978.25 513.83,-978.25"/>
<text text-anchor="start" x="398.75" y="-965.7" font-family="Helvetica,sans-Serif" font-size="9.00">GridRendererComponent.js</text>
</a>
</g>
</g>
<!-- src/js/directable/directables/dotmatrix/shapes/Shape.js -->
<g id="node19" class="node">
<title>src/js/directable/directables/dotmatrix/shapes/Shape.js</title>
<g id="a_node19"><a xlink:href="src/js/directable/directables/dotmatrix/shapes/Shape.js" xlink:title="Shape.js">
<path fill="#ccffcc" stroke="black" d="M476.21,-1717.25C476.21,-1717.25 434.54,-1717.25 434.54,-1717.25 431.46,-1717.25 428.38,-1714.17 428.38,-1711.08 428.38,-1711.08 428.38,-1704.92 428.38,-1704.92 428.38,-1701.83 431.46,-1698.75 434.54,-1698.75 434.54,-1698.75 476.21,-1698.75 476.21,-1698.75 479.29,-1698.75 482.38,-1701.83 482.38,-1704.92 482.38,-1704.92 482.38,-1711.08 482.38,-1711.08 482.38,-1714.17 479.29,-1717.25 476.21,-1717.25"/>
<text text-anchor="start" x="437.38" y="-1704.7" font-family="Helvetica,sans-Serif" font-size="9.00">Shape.js</text>
</a>
</g>
</g>
<!-- src/js/directable/directables/dotmatrix/shapes/ShapeManager.js -->
<g id="node20" class="node">
<title>src/js/directable/directables/dotmatrix/shapes/ShapeManager.js</title>
<g id="a_node20"><a xlink:href="src/js/directable/directables/dotmatrix/shapes/ShapeManager.js" xlink:title="ShapeManager.js">
<path fill="#ccffcc" stroke="black" d="M493.21,-1748.25C493.21,-1748.25 417.54,-1748.25 417.54,-1748.25 414.46,-1748.25 411.38,-1745.17 411.38,-1742.08 411.38,-1742.08 411.38,-1735.92 411.38,-1735.92 411.38,-1732.83 414.46,-1729.75 417.54,-1729.75 417.54,-1729.75 493.21,-1729.75 493.21,-1729.75 496.29,-1729.75 499.38,-1732.83 499.38,-1735.92 499.38,-1735.92 499.38,-1742.08 499.38,-1742.08 499.38,-1745.17 496.29,-1748.25 493.21,-1748.25"/>
<text text-anchor="start" x="419.38" y="-1735.7" font-family="Helvetica,sans-Serif" font-size="9.00">ShapeManager.js</text>
</a>
</g>
</g>
<!-- src/js/directable/directables/dotmatrix/shapes/fill/Fill.js -->
<g id="node21" class="node">
<title>src/js/directable/directables/dotmatrix/shapes/fill/Fill.js</title>
<g id="a_node21"><a xlink:href="src/js/directable/directables/dotmatrix/shapes/fill/Fill.js" xlink:title="Fill.js">
<path fill="#ccffcc" stroke="black" d="M476.21,-1047.25C476.21,-1047.25 434.54,-1047.25 434.54,-1047.25 431.46,-1047.25 428.38,-1044.17 428.38,-1041.08 428.38,-1041.08 428.38,-1034.92 428.38,-1034.92 428.38,-1031.83 431.46,-1028.75 434.54,-1028.75 434.54,-1028.75 476.21,-1028.75 476.21,-1028.75 479.29,-1028.75 482.38,-1031.83 482.38,-1034.92 482.38,-1034.92 482.38,-1041.08 482.38,-1041.08 482.38,-1044.17 479.29,-1047.25 476.21,-1047.25"/>
<text text-anchor="start" x="444.88" y="-1034.7" font-family="Helvetica,sans-Serif" font-size="9.00">Fill.js</text>
</a>
</g>
</g>
<!-- src/js/directable/directables/dotmatrix/shapes/fill/FillStrategy.js -->
<g id="node22" class="node">
<title>src/js/directable/directables/dotmatrix/shapes/fill/FillStrategy.js</title>
<g id="a_node22"><a xlink:href="src/js/directable/directables/dotmatrix/shapes/fill/FillStrategy.js" xlink:title="FillStrategy.js">
<path fill="#ccffcc" stroke="black" d="M484.21,-1078.25C484.21,-1078.25 426.54,-1078.25 426.54,-1078.25 423.46,-1078.25 420.38,-1075.17 420.38,-1072.08 420.38,-1072.08 420.38,-1065.92 420.38,-1065.92 420.38,-1062.83 423.46,-1059.75 426.54,-1059.75 426.54,-1059.75 484.21,-1059.75 484.21,-1059.75 487.29,-1059.75 490.38,-1062.83 490.38,-1065.92 490.38,-1065.92 490.38,-1072.08 490.38,-1072.08 490.38,-1075.17 487.29,-1078.25 484.21,-1078.25"/>
<text text-anchor="start" x="428.38" y="-1065.7" font-family="Helvetica,sans-Serif" font-size="9.00">FillStrategy.js</text>
</a>
</g>
</g>
<!-- src/js/directable/directables/dotmatrix/shapes/fill/FillStrategyType.js -->
<g id="node23" class="node">
<title>src/js/directable/directables/dotmatrix/shapes/fill/FillStrategyType.js</title>
<g id="a_node23"><a xlink:href="src/js/directable/directables/dotmatrix/shapes/fill/FillStrategyType.js" xlink:title="FillStrategyType.js">
<path fill="#ccffcc" stroke="black" d="M494.71,-1109.25C494.71,-1109.25 416.04,-1109.25 416.04,-1109.25 412.96,-1109.25 409.88,-1106.17 409.88,-1103.08 409.88,-1103.08 409.88,-1096.92 409.88,-1096.92 409.88,-1093.83 412.96,-1090.75 416.04,-1090.75 416.04,-1090.75 494.71,-1090.75 494.71,-1090.75 497.79,-1090.75 500.88,-1093.83 500.88,-1096.92 500.88,-1096.92 500.88,-1103.08 500.88,-1103.08 500.88,-1106.17 497.79,-1109.25 494.71,-1109.25"/>
<text text-anchor="start" x="417.88" y="-1096.7" font-family="Helvetica,sans-Serif" font-size="9.00">FillStrategyType.js</text>
</a>
</g>
</g>
<!-- src/js/directable/directables/dotmatrix/shapes/fill/FillType.js -->
<g id="node24" class="node">
<title>src/js/directable/directables/dotmatrix/shapes/fill/FillType.js</title>
<g id="a_node24"><a xlink:href="src/js/directable/directables/dotmatrix/shapes/fill/FillType.js" xlink:title="FillType.js">
<path fill="#ccffcc" stroke="black" d="M477.83,-1140.25C477.83,-1140.25 432.92,-1140.25 432.92,-1140.25 429.83,-1140.25 426.75,-1137.17 426.75,-1134.08 426.75,-1134.08 426.75,-1127.92 426.75,-1127.92 426.75,-1124.83 429.83,-1121.75 432.92,-1121.75 432.92,-1121.75 477.83,-1121.75 477.83,-1121.75 480.92,-1121.75 484,-1124.83 484,-1127.92 484,-1127.92 484,-1134.08 484,-1134.08 484,-1137.17 480.92,-1140.25 477.83,-1140.25"/>
<text text-anchor="start" x="434.75" y="-1127.7" font-family="Helvetica,sans-Serif" font-size="9.00">FillType.js</text>
</a>
</g>
</g>
<!-- src/js/directable/directables/dotmatrix/shapes/glyph/ShapeGlyph_A.js -->
<g id="node25" class="node">
<title>src/js/directable/directables/dotmatrix/shapes/glyph/ShapeGlyph_A.js</title>
<g id="a_node25"><a xlink:href="src/js/directable/directables/dotmatrix/shapes/glyph/ShapeGlyph_A.js" xlink:title="ShapeGlyph_A.js">
<path fill="#ccffcc" stroke="black" d="M492.83,-1201.25C492.83,-1201.25 417.92,-1201.25 417.92,-1201.25 414.83,-1201.25 411.75,-1198.17 411.75,-1195.08 411.75,-1195.08 411.75,-1188.92 411.75,-1188.92 411.75,-1185.83 414.83,-1182.75 417.92,-1182.75 417.92,-1182.75 492.83,-1182.75 492.83,-1182.75 495.92,-1182.75 499,-1185.83 499,-1188.92 499,-1188.92 499,-1195.08 499,-1195.08 499,-1198.17 495.92,-1201.25 492.83,-1201.25"/>
<text text-anchor="start" x="419.75" y="-1188.7" font-family="Helvetica,sans-Serif" font-size="9.00">ShapeGlyph_A.js</text>
</a>
</g>
</g>
<!-- src/js/directable/directables/dotmatrix/shapes/glyph/ShapeGlyph_B.js -->
<g id="node26" class="node">
<title>src/js/directable/directables/dotmatrix/shapes/glyph/ShapeGlyph_B.js</title>
<g id="a_node26"><a xlink:href="src/js/directable/directables/dotmatrix/shapes/glyph/ShapeGlyph_B.js" xlink:title="ShapeGlyph_B.js">
<path fill="#ccffcc" stroke="black" d="M492.83,-1232.25C492.83,-1232.25 417.92,-1232.25 417.92,-1232.25 414.83,-1232.25 411.75,-1229.17 411.75,-1226.08 411.75,-1226.08 411.75,-1219.92 411.75,-1219.92 411.75,-1216.83 414.83,-1213.75 417.92,-1213.75 417.92,-1213.75 492.83,-1213.75 492.83,-1213.75 495.92,-1213.75 499,-1216.83 499,-1219.92 499,-1219.92 499,-1226.08 499,-1226.08 499,-1229.17 495.92,-1232.25 492.83,-1232.25"/>
<text text-anchor="start" x="419.75" y="-1219.7" font-family="Helvetica,sans-Serif" font-size="9.00">ShapeGlyph_B.js</text>
</a>
</g>
</g>
<!-- src/js/directable/directables/dotmatrix/shapes/glyph/ShapeGlyph_C.js -->
<g id="node27" class="node">
<title>src/js/directable/directables/dotmatrix/shapes/glyph/ShapeGlyph_C.js</title>
<g id="a_node27"><a xlink:href="src/js/directable/directables/dotmatrix/shapes/glyph/ShapeGlyph_C.js" xlink:title="ShapeGlyph_C.js">
<path fill="#ccffcc" stroke="black" d="M493.21,-1263.25C493.21,-1263.25 417.54,-1263.25 417.54,-1263.25 414.46,-1263.25 411.38,-1260.17 411.38,-1257.08 411.38,-1257.08 411.38,-1250.92 411.38,-1250.92 411.38,-1247.83 414.46,-1244.75 417.54,-1244.75 417.54,-1244.75 493.21,-1244.75 493.21,-1244.75 496.29,-1244.75 499.38,-1247.83 499.38,-1250.92 499.38,-1250.92 499.38,-1257.08 499.38,-1257.08 499.38,-1260.17 496.29,-1263.25 493.21,-1263.25"/>
<text text-anchor="start" x="419.38" y="-1250.7" font-family="Helvetica,sans-Serif" font-size="9.00">ShapeGlyph_C.js</text>
</a>
</g>
</g>
<!-- src/js/directable/directables/dotmatrix/shapes/glyph/ShapeGlyph_D.js -->
<g id="node28" class="node">
<title>src/js/directable/directables/dotmatrix/shapes/glyph/ShapeGlyph_D.js</title>
<g id="a_node28"><a xlink:href="src/js/directable/directables/dotmatrix/shapes/glyph/ShapeGlyph_D.js" xlink:title="ShapeGlyph_D.js">
<path fill="#ccffcc" stroke="black" d="M493.21,-1294.25C493.21,-1294.25 417.54,-1294.25 417.54,-1294.25 414.46,-1294.25 411.38,-1291.17 411.38,-1288.08 411.38,-1288.08 411.38,-1281.92 411.38,-1281.92 411.38,-1278.83 414.46,-1275.75 417.54,-1275.75 417.54,-1275.75 493.21,-1275.75 493.21,-1275.75 496.29,-1275.75 499.38,-1278.83 499.38,-1281.92 499.38,-1281.92 499.38,-1288.08 499.38,-1288.08 499.38,-1291.17 496.29,-1294.25 493.21,-1294.25"/>
<text text-anchor="start" x="419.38" y="-1281.7" font-family="Helvetica,sans-Serif" font-size="9.00">ShapeGlyph_D.js</text>
</a>
</g>
</g>
<!-- src/js/directable/directables/dotmatrix/shapes/glyph/ShapeGlyph_E.js -->
<g id="node29" class="node">
<title>src/js/directable/directables/dotmatrix/shapes/glyph/ShapeGlyph_E.js</title>
<g id="a_node29"><a xlink:href="src/js/directable/directables/dotmatrix/shapes/glyph/ShapeGlyph_E.js" xlink:title="ShapeGlyph_E.js">
<path fill="#ccffcc" stroke="black" d="M492.83,-1325.25C492.83,-1325.25 417.92,-1325.25 417.92,-1325.25 414.83,-1325.25 411.75,-1322.17 411.75,-1319.08 411.75,-1319.08 411.75,-1312.92 411.75,-1312.92 411.75,-1309.83 414.83,-1306.75 417.92,-1306.75 417.92,-1306.75 492.83,-1306.75 492.83,-1306.75 495.92,-1306.75 499,-1309.83 499,-1312.92 499,-1312.92 499,-1319.08 499,-1319.08 499,-1322.17 495.92,-1325.25 492.83,-1325.25"/>
<text text-anchor="start" x="419.75" y="-1312.7" font-family="Helvetica,sans-Serif" font-size="9.00">ShapeGlyph_E.js</text>
</a>
</g>
</g>
<!-- src/js/directable/directables/dotmatrix/shapes/glyph/ShapeGlyph_F.js -->
<g id="node30" class="node">
<title>src/js/directable/directables/dotmatrix/shapes/glyph/ShapeGlyph_F.js</title>
<g id="a_node30"><a xlink:href="src/js/directable/directables/dotmatrix/shapes/glyph/ShapeGlyph_F.js" xlink:title="ShapeGlyph_F.js">
<path fill="#ccffcc" stroke="black" d="M492.08,-1356.25C492.08,-1356.25 418.67,-1356.25 418.67,-1356.25 415.58,-1356.25 412.5,-1353.17 412.5,-1350.08 412.5,-1350.08 412.5,-1343.92 412.5,-1343.92 412.5,-1340.83 415.58,-1337.75 418.67,-1337.75 418.67,-1337.75 492.08,-1337.75 492.08,-1337.75 495.17,-1337.75 498.25,-1340.83 498.25,-1343.92 498.25,-1343.92 498.25,-1350.08 498.25,-1350.08 498.25,-1353.17 495.17,-1356.25 492.08,-1356.25"/>
<text text-anchor="start" x="420.5" y="-1343.7" font-family="Helvetica,sans-Serif" font-size="9.00">ShapeGlyph_F.js</text>
</a>
</g>
</g>
<!-- src/js/directable/directables/dotmatrix/shapes/glyph/ShapeGlyph_G.js -->
<g id="node31" class="node">
<title>src/js/directable/directables/dotmatrix/shapes/glyph/ShapeGlyph_G.js</title>
<g id="a_node31"><a xlink:href="src/js/directable/directables/dotmatrix/shapes/glyph/ShapeGlyph_G.js" xlink:title="ShapeGlyph_G.js">
<path fill="#ccffcc" stroke="black" d="M493.21,-1387.25C493.21,-1387.25 417.54,-1387.25 417.54,-1387.25 414.46,-1387.25 411.38,-1384.17 411.38,-1381.08 411.38,-1381.08 411.38,-1374.92 411.38,-1374.92 411.38,-1371.83 414.46,-1368.75 417.54,-1368.75 417.54,-1368.75 493.21,-1368.75 493.21,-1368.75 496.29,-1368.75 499.38,-1371.83 499.38,-1374.92 499.38,-1374.92 499.38,-1381.08 499.38,-1381.08 499.38,-1384.17 496.29,-1387.25 493.21,-1387.25"/>
<text text-anchor="start" x="419.38" y="-1374.7" font-family="Helvetica,sans-Serif" font-size="9.00">ShapeGlyph_G.js</text>
</a>
</g>
</g>
<!-- src/js/directable/directables/dotmatrix/shapes/glyph/ShapeGlyph_H.js -->
<g id="node32" class="node">
<title>src/js/directable/directables/dotmatrix/shapes/glyph/ShapeGlyph_H.js</title>
<g id="a_node32"><a xlink:href="src/js/directable/directables/dotmatrix/shapes/glyph/ShapeGlyph_H.js" xlink:title="ShapeGlyph_H.js">
<path fill="#ccffcc" stroke="black" d="M493.21,-1418.25C493.21,-1418.25 417.54,-1418.25 417.54,-1418.25 414.46,-1418.25 411.38,-1415.17 411.38,-1412.08 411.38,-1412.08 411.38,-1405.92 411.38,-1405.92 411.38,-1402.83 414.46,-1399.75 417.54,-1399.75 417.54,-1399.75 493.21,-1399.75 493.21,-1399.75 496.29,-1399.75 499.38,-1402.83 499.38,-1405.92 499.38,-1405.92 499.38,-1412.08 499.38,-1412.08 499.38,-1415.17 496.29,-1418.25 493.21,-1418.25"/>
<text text-anchor="start" x="419.38" y="-1405.7" font-family="Helvetica,sans-Serif" font-size="9.00">ShapeGlyph_H.js</text>
</a>
</g>
</g>
<!-- src/js/directable/directables/dotmatrix/shapes/glyph/ShapeGlyph_I.js -->
<g id="node33" class="node">
<title>src/js/directable/directables/dotmatrix/shapes/glyph/ShapeGlyph_I.js</title>
<g id="a_node33"><a xlink:href="src/js/directable/directables/dotmatrix/shapes/glyph/ShapeGlyph_I.js" xlink:title="ShapeGlyph_I.js">
<path fill="#ccffcc" stroke="black" d="M490.96,-1449.25C490.96,-1449.25 419.79,-1449.25 419.79,-1449.25 416.71,-1449.25 413.62,-1446.17 413.62,-1443.08 413.62,-1443.08 413.62,-1436.92 413.62,-1436.92 413.62,-1433.83 416.71,-1430.75 419.79,-1430.75 419.79,-1430.75 490.96,-1430.75 490.96,-1430.75 494.04,-1430.75 497.12,-1433.83 497.12,-1436.92 497.12,-1436.92 497.12,-1443.08 497.12,-1443.08 497.12,-1446.17 494.04,-1449.25 490.96,-1449.25"/>
<text text-anchor="start" x="421.62" y="-1436.7" font-family="Helvetica,sans-Serif" font-size="9.00">ShapeGlyph_I.js</text>
</a>
</g>
</g>
<!-- src/js/directable/directables/dotmatrix/shapes/glyph/ShapeGlyph_J.js -->
<g id="node34" class="node">
<title>src/js/directable/directables/dotmatrix/shapes/glyph/ShapeGlyph_J.js</title>
<g id="a_node34"><a xlink:href="src/js/directable/directables/dotmatrix/shapes/glyph/ShapeGlyph_J.js" xlink:title="ShapeGlyph_J.js">
<path fill="#ccffcc" stroke="black" d="M492.08,-1480.25C492.08,-1480.25 418.67,-1480.25 418.67,-1480.25 415.58,-1480.25 412.5,-1477.17 412.5,-1474.08 412.5,-1474.08 412.5,-1467.92 412.5,-1467.92 412.5,-1464.83 415.58,-1461.75 418.67,-1461.75 418.67,-1461.75 492.08,-1461.75 492.08,-1461.75 495.17,-1461.75 498.25,-1464.83 498.25,-1467.92 498.25,-1467.92 498.25,-1474.08 498.25,-1474.08 498.25,-1477.17 495.17,-1480.25 492.08,-1480.25"/>
<text text-anchor="start" x="420.5" y="-1467.7" font-family="Helvetica,sans-Serif" font-size="9.00">ShapeGlyph_J.js</text>
</a>
</g>
</g>
<!-- src/js/directable/directables/dotmatrix/shapes/glyph/ShapeGlyph_K.js -->
<g id="node35" class="node">
<title>src/js/directable/directables/dotmatrix/shapes/glyph/ShapeGlyph_K.js</title>
<g id="a_node35"><a xlink:href="src/js/directable/directables/dotmatrix/shapes/glyph/ShapeGlyph_K.js" xlink:title="ShapeGlyph_K.js">
<path fill="#ccffcc" stroke="black" d="M492.83,-1511.25C492.83,-1511.25 417.92,-1511.25 417.92,-1511.25 414.83,-1511.25 411.75,-1508.17 411.75,-1505.08 411.75,-1505.08 411.75,-1498.92 411.75,-1498.92 411.75,-1495.83 414.83,-1492.75 417.92,-1492.75 417.92,-1492.75 492.83,-1492.75 492.83,-1492.75 495.92,-1492.75 499,-1495.83 499,-1498.92 499,-1498.92 499,-1505.08 499,-1505.08 499,-1508.17 495.92,-1511.25 492.83,-1511.25"/>
<text text-anchor="start" x="419.75" y="-1498.7" font-family="Helvetica,sans-Serif" font-size="9.00">ShapeGlyph_K.js</text>
</a>
</g>
</g>
<!-- src/js/directable/directables/dotmatrix/shapes/line/ShapeLineHorizontal.js -->
<g id="node36" class="node">
<title>src/js/directable/directables/dotmatrix/shapes/line/ShapeLineHorizontal.js</title>
<g id="a_node36"><a xlink:href="src/js/directable/directables/dotmatrix/shapes/line/ShapeLineHorizontal.js" xlink:title="ShapeLineHorizontal.js">
<path fill="#ccffcc" stroke="black" d="M505.21,-1572.25C505.21,-1572.25 405.54,-1572.25 405.54,-1572.25 402.46,-1572.25 399.38,-1569.17 399.38,-1566.08 399.38,-1566.08 399.38,-1559.92 399.38,-1559.92 399.38,-1556.83 402.46,-1553.75 405.54,-1553.75 405.54,-1553.75 505.21,-1553.75 505.21,-1553.75 508.29,-1553.75 511.38,-1556.83 511.38,-1559.92 511.38,-1559.92 511.38,-1566.08 511.38,-1566.08 511.38,-1569.17 508.29,-1572.25 505.21,-1572.25"/>
<text text-anchor="start" x="407.38" y="-1559.7" font-family="Helvetica,sans-Serif" font-size="9.00">ShapeLineHorizontal.js</text>
</a>
</g>
</g>
<!-- src/js/directable/directables/dotmatrix/shapes/line/ShapeLineVertical.js -->
<g id="node37" class="node">
<title>src/js/directable/directables/dotmatrix/shapes/line/ShapeLineVertical.js</title>
<g id="a_node37"><a xlink:href="src/js/directable/directables/dotmatrix/shapes/line/ShapeLineVertical.js" xlink:title="ShapeLineVertical.js">
<path fill="#ccffcc" stroke="black" d="M499.21,-1603.25C499.21,-1603.25 411.54,-1603.25 411.54,-1603.25 408.46,-1603.25 405.38,-1600.17 405.38,-1597.08 405.38,-1597.08 405.38,-1590.92 405.38,-1590.92 405.38,-1587.83 408.46,-1584.75 411.54,-1584.75 411.54,-1584.75 499.21,-1584.75 499.21,-1584.75 502.29,-1584.75 505.38,-1587.83 505.38,-1590.92 505.38,-1590.92 505.38,-1597.08 505.38,-1597.08 505.38,-1600.17 502.29,-1603.25 499.21,-1603.25"/>
<text text-anchor="start" x="413.38" y="-1590.7" font-family="Helvetica,sans-Serif" font-size="9.00">ShapeLineVertical.js</text>
</a>
</g>
</g>
<!-- src/js/directable/directables/dotmatrix/shapes/primative/ShapeRectangle.js -->
<g id="node38" class="node">
<title>src/js/directable/directables/dotmatrix/shapes/primative/ShapeRectangle.js</title>
<g id="a_node38"><a xlink:href="src/js/directable/directables/dotmatrix/shapes/primative/ShapeRectangle.js" xlink:title="ShapeRectangle.js">
<path fill="#ccffcc" stroke="black" d="M496.21,-1664.25C496.21,-1664.25 414.54,-1664.25 414.54,-1664.25 411.46,-1664.25 408.38,-1661.17 408.38,-1658.08 408.38,-1658.08 408.38,-1651.92 408.38,-1651.92 408.38,-1648.83 411.46,-1645.75 414.54,-1645.75 414.54,-1645.75 496.21,-1645.75 496.21,-1645.75 499.29,-1645.75 502.38,-1648.83 502.38,-1651.92 502.38,-1651.92 502.38,-1658.08 502.38,-1658.08 502.38,-1661.17 499.29,-1664.25 496.21,-1664.25"/>
<text text-anchor="start" x="416.38" y="-1651.7" font-family="Helvetica,sans-Serif" font-size="9.00">ShapeRectangle.js</text>
</a>
</g>
</g>
<!-- src/js/directable/directables/dotmatrix/view/View.js -->
<g id="node39" class="node">
<title>src/js/directable/directables/dotmatrix/view/View.js</title>
<g id="a_node39"><a xlink:href="src/js/directable/directables/dotmatrix/view/View.js" xlink:title="View.js">
<path fill="#ccffcc" stroke="black" d="M635.33,-1681.25C635.33,-1681.25 593.67,-1681.25 593.67,-1681.25 590.58,-1681.25 587.5,-1678.17 587.5,-1675.08 587.5,-1675.08 587.5,-1668.92 587.5,-1668.92 587.5,-1665.83 590.58,-1662.75 593.67,-1662.75 593.67,-1662.75 635.33,-1662.75 635.33,-1662.75 638.42,-1662.75 641.5,-1665.83 641.5,-1668.92 641.5,-1668.92 641.5,-1675.08 641.5,-1675.08 641.5,-1678.17 638.42,-1681.25 635.33,-1681.25"/>
<text text-anchor="start" x="600.25" y="-1668.7" font-family="Helvetica,sans-Serif" font-size="9.00">View.js</text>
</a>
</g>
</g>
<!-- src/js/directable/directables/dotmatrix/view/ViewFloor.js -->
<g id="node40" class="node">
<title>src/js/directable/directables/dotmatrix/view/ViewFloor.js</title>
<g id="a_node40"><a xlink:href="src/js/directable/directables/dotmatrix/view/ViewFloor.js" xlink:title="ViewFloor.js">
<path fill="#ccffcc" stroke="black" d="M641.08,-1712.25C641.08,-1712.25 587.92,-1712.25 587.92,-1712.25 584.83,-1712.25 581.75,-1709.17 581.75,-1706.08 581.75,-1706.08 581.75,-1699.92 581.75,-1699.92 581.75,-1696.83 584.83,-1693.75 587.92,-1693.75 587.92,-1693.75 641.08,-1693.75 641.08,-1693.75 644.17,-1693.75 647.25,-1696.83 647.25,-1699.92 647.25,-1699.92 647.25,-1706.08 647.25,-1706.08 647.25,-1709.17 644.17,-1712.25 641.08,-1712.25"/>
<text text-anchor="start" x="589.75" y="-1699.7" font-family="Helvetica,sans-Serif" font-size="9.00">ViewFloor.js</text>
</a>
</g>
</g>
<!-- src/js/directable/directables/dotmatrix/view/ViewTest.js -->
<g id="node41" class="node">
<title>src/js/directable/directables/dotmatrix/view/ViewTest.js</title>
<g id="a_node41"><a xlink:href="src/js/directable/directables/dotmatrix/view/ViewTest.js" xlink:title="ViewTest.js">
<path fill="#ccffcc" stroke="black" d="M639.21,-1743.25C639.21,-1743.25 589.79,-1743.25 589.79,-1743.25 586.71,-1743.25 583.62,-1740.17 583.62,-1737.08 583.62,-1737.08 583.62,-1730.92 583.62,-1730.92 583.62,-1727.83 586.71,-1724.75 589.79,-1724.75 589.79,-1724.75 639.21,-1724.75 639.21,-1724.75 642.29,-1724.75 645.38,-1727.83 645.38,-1730.92 645.38,-1730.92 645.38,-1737.08 645.38,-1737.08 645.38,-1740.17 642.29,-1743.25 639.21,-1743.25"/>
<text text-anchor="start" x="591.62" y="-1730.7" font-family="Helvetica,sans-Serif" font-size="9.00">ViewTest.js</text>
</a>
</g>
</g>
<!-- src/js/directable/directables/dotmatrix/view/ViewTextTest.js -->
<g id="node42" class="node">
<title>src/js/directable/directables/dotmatrix/view/ViewTextTest.js</title>
<g id="a_node42"><a xlink:href="src/js/directable/directables/dotmatrix/view/ViewTextTest.js" xlink:title="ViewTextTest.js">
<path fill="#ccffcc" stroke="black" d="M647.46,-1774.25C647.46,-1774.25 581.54,-1774.25 581.54,-1774.25 578.46,-1774.25 575.38,-1771.17 575.38,-1768.08 575.38,-1768.08 575.38,-1761.92 575.38,-1761.92 575.38,-1758.83 578.46,-1755.75 581.54,-1755.75 581.54,-1755.75 647.46,-1755.75 647.46,-1755.75 650.54,-1755.75 653.62,-1758.83 653.62,-1761.92 653.62,-1761.92 653.62,-1768.08 653.62,-1768.08 653.62,-1771.17 650.54,-1774.25 647.46,-1774.25"/>
<text text-anchor="start" x="583.38" y="-1761.7" font-family="Helvetica,sans-Serif" font-size="9.00">ViewTextTest.js</text>
</a>
</g>
</g>
<!-- src/js/directable/directables/frame/DirectableFrame.js -->
<g id="node43" class="node">
<title>src/js/directable/directables/frame/DirectableFrame.js</title>
<g id="a_node43"><a xlink:href="src/js/directable/directables/frame/DirectableFrame.js" xlink:title="DirectableFrame.js">
<path fill="#ffffcc" stroke="black" d="M495.83,-475.25C495.83,-475.25 414.92,-475.25 414.92,-475.25 411.83,-475.25 408.75,-472.17 408.75,-469.08 408.75,-469.08 408.75,-462.92 408.75,-462.92 408.75,-459.83 411.83,-456.75 414.92,-456.75 414.92,-456.75 495.83,-456.75 495.83,-456.75 498.92,-456.75 502,-459.83 502,-462.92 502,-462.92 502,-469.08 502,-469.08 502,-472.17 498.92,-475.25 495.83,-475.25"/>
<text text-anchor="start" x="416.75" y="-462.7" font-family="Helvetica,sans-Serif" font-size="9.00">DirectableFrame.js</text>
</a>
</g>
</g>
<!-- src/js/directable/directables/frame/DirectableFrame.js&#45;&gt;src/js/application/ApplicationLogger.js -->
<g id="edge12" class="edge">
<title>src/js/directable/directables/frame/DirectableFrame.js&#45;&gt;src/js/application/ApplicationLogger.js</title>
<path fill="none" stroke="#000000" stroke-width="2" stroke-opacity="0.200000" d="M480.29,-456.28C497.93,-448.94 522.4,-438.38 543.38,-428 559.13,-420.2 576.4,-410.61 589.86,-402.89"/>
<polygon fill="#000000" fill-opacity="0.200000" stroke="#000000" stroke-width="2" stroke-opacity="0.200000" points="590.53,-404.93 594.68,-400.11 588.43,-401.29 590.53,-404.93"/>
</g>
<!-- src/js/directable/directables/rhythm/DirectableRhythm.js -->
<g id="node44" class="node">
<title>src/js/directable/directables/rhythm/DirectableRhythm.js</title>
<g id="a_node44"><a xlink:href="src/js/directable/directables/rhythm/DirectableRhythm.js" xlink:title="DirectableRhythm.js">
<path fill="#ffffcc" stroke="black" d="M657.58,-728.25C657.58,-728.25 571.42,-728.25 571.42,-728.25 568.33,-728.25 565.25,-725.17 565.25,-722.08 565.25,-722.08 565.25,-715.92 565.25,-715.92 565.25,-712.83 568.33,-709.75 571.42,-709.75 571.42,-709.75 657.58,-709.75 657.58,-709.75 660.67,-709.75 663.75,-712.83 663.75,-715.92 663.75,-715.92 663.75,-722.08 663.75,-722.08 663.75,-725.17 660.67,-728.25 657.58,-728.25"/>
<text text-anchor="start" x="573.25" y="-715.7" font-family="Helvetica,sans-Serif" font-size="9.00">DirectableRhythm.js</text>
</a>
</g>
</g>
<!-- src/js/directable/directables/rhythm/asdr/ASDRData.js -->
<g id="node45" class="node">
<title>src/js/directable/directables/rhythm/asdr/ASDRData.js</title>
<g id="a_node45"><a xlink:href="src/js/directable/directables/rhythm/asdr/ASDRData.js" xlink:title="ASDRData.js">
<path fill="#ccffcc" stroke="black" d="M484.21,-605.25C484.21,-605.25 426.54,-605.25 426.54,-605.25 423.46,-605.25 420.38,-602.17 420.38,-599.08 420.38,-599.08 420.38,-592.92 420.38,-592.92 420.38,-589.83 423.46,-586.75 426.54,-586.75 426.54,-586.75 484.21,-586.75 484.21,-586.75 487.29,-586.75 490.38,-589.83 490.38,-592.92 490.38,-592.92 490.38,-599.08 490.38,-599.08 490.38,-602.17 487.29,-605.25 484.21,-605.25"/>
<text text-anchor="start" x="428.38" y="-592.7" font-family="Helvetica,sans-Serif" font-size="9.00">ASDRData.js</text>
</a>
</g>
</g>
<!-- src/js/directable/directables/rhythm/asdr/ASDREnvelope.js -->
<g id="node46" class="node">
<title>src/js/directable/directables/rhythm/asdr/ASDREnvelope.js</title>
<g id="a_node46"><a xlink:href="src/js/directable/directables/rhythm/asdr/ASDREnvelope.js" xlink:title="ASDREnvelope.js">
<path fill="#ffffcc" stroke="black" d="M493.96,-636.25C493.96,-636.25 416.79,-636.25 416.79,-636.25 413.71,-636.25 410.62,-633.17 410.62,-630.08 410.62,-630.08 410.62,-623.92 410.62,-623.92 410.62,-620.83 413.71,-617.75 416.79,-617.75 416.79,-617.75 493.96,-617.75 493.96,-617.75 497.04,-617.75 500.12,-620.83 500.12,-623.92 500.12,-623.92 500.12,-630.08 500.12,-630.08 500.12,-633.17 497.04,-636.25 493.96,-636.25"/>
<text text-anchor="start" x="418.62" y="-623.7" font-family="Helvetica,sans-Serif" font-size="9.00">ASDREnvelope.js</text>
</a>
</g>
</g>
<!-- src/js/directable/directables/rhythm/asdr/ASDREnvelope.js&#45;&gt;src/js/application/ApplicationLogger.js -->
<g id="edge13" class="edge">
<title>src/js/directable/directables/rhythm/asdr/ASDREnvelope.js&#45;&gt;src/js/application/ApplicationLogger.js</title>
<path fill="none" stroke="#000000" stroke-width="2" stroke-opacity="0.200000" d="M500.46,-628.66C515.91,-626.95 532.18,-622.17 543.38,-611 557.13,-597.27 546.4,-586.79 551.38,-568 567.32,-507.8 593.66,-438.75 606.3,-406.86"/>
<polygon fill="#000000" fill-opacity="0.200000" stroke="#000000" stroke-width="2" stroke-opacity="0.200000" points="608.22,-407.71 608.49,-401.35 604.32,-406.15 608.22,-407.71"/>
</g>
<!-- src/js/directable/directables/rhythm/asdr/DirectableRhythmASDRManager.js -->
<g id="node47" class="node">
<title>src/js/directable/directables/rhythm/asdr/DirectableRhythmASDRManager.js</title>
<g id="a_node47"><a xlink:href="src/js/directable/directables/rhythm/asdr/DirectableRhythmASDRManager.js" xlink:title="DirectableRhythmASDRManager.js">
<path fill="#ffffcc" stroke="black" d="M529.21,-667.25C529.21,-667.25 381.54,-667.25 381.54,-667.25 378.46,-667.25 375.38,-664.17 375.38,-661.08 375.38,-661.08 375.38,-654.92 375.38,-654.92 375.38,-651.83 378.46,-648.75 381.54,-648.75 381.54,-648.75 529.21,-648.75 529.21,-648.75 532.29,-648.75 535.38,-651.83 535.38,-654.92 535.38,-654.92 535.38,-661.08 535.38,-661.08 535.38,-664.17 532.29,-667.25 529.21,-667.25"/>
<text text-anchor="start" x="383.38" y="-654.7" font-family="Helvetica,sans-Serif" font-size="9.00">DirectableRhythmASDRManager.js</text>
</a>
</g>
</g>
<!-- src/js/directable/directables/rhythm/asdr/DirectableRhythmASDRManager.js&#45;&gt;src/js/application/ApplicationLogger.js -->
<g id="edge14" class="edge">
<title>src/js/directable/directables/rhythm/asdr/DirectableRhythmASDRManager.js&#45;&gt;src/js/application/ApplicationLogger.js</title>
<path fill="none" stroke="#000000" stroke-width="2" stroke-opacity="0.200000" d="M535.8,-648.54C538.53,-646.64 541.08,-644.48 543.38,-642 554.63,-629.88 547.75,-584.14 551.38,-568 565.02,-507.24 592.46,-438.46 605.83,-406.74"/>
<polygon fill="#000000" fill-opacity="0.200000" stroke="#000000" stroke-width="2" stroke-opacity="0.200000" points="607.74,-407.61 608.16,-401.26 603.88,-405.96 607.74,-407.61"/>
</g>
<!-- src/js/directable/directables/rhythm/bpm/DirectableRhythmBPM.js&#45;&gt;src/js/application/ApplicationLogger.js -->
<g id="edge15" class="edge">
<title>src/js/directable/directables/rhythm/bpm/DirectableRhythmBPM.js&#45;&gt;src/js/application/ApplicationLogger.js</title>
<path fill="none" stroke="#000000" stroke-width="2" stroke-opacity="0.200000" d="M514.61,-714.91C525.64,-711.45 536.01,-705.87 543.38,-697 552.54,-685.95 548.55,-582.08 551.38,-568 563.62,-506.94 591.73,-438.3 605.54,-406.68"/>
<polygon fill="#000000" fill-opacity="0.200000" stroke="#000000" stroke-width="2" stroke-opacity="0.200000" points="607.46,-407.55 607.96,-401.21 603.61,-405.85 607.46,-407.55"/>
</g>
<!-- src/js/directable/directables/rhythm/bpm/DirectableRhythmBPM.js&#45;&gt;src/js/directable/directables/rhythm/DirectableRhythm.js -->
<g id="edge16" class="edge">
<title>src/js/directable/directables/rhythm/bpm/DirectableRhythmBPM.js&#45;&gt;src/js/directable/directables/rhythm/DirectableRhythm.js</title>
<path fill="none" stroke="#000000" stroke-width="2" stroke-opacity="0.200000" d="M514.44,-719C528.06,-719 542.57,-719 556.16,-719"/>
<polygon fill="#000000" fill-opacity="0.200000" stroke="#000000" stroke-width="2" stroke-opacity="0.200000" points="555.92,-721.1 561.92,-719 555.92,-716.9 555.92,-721.1"/>
</g>
<!-- src/js/directable/directables/rhythm2/ViewRhythm.js -->
<g id="node49" class="node">
<title>src/js/directable/directables/rhythm2/ViewRhythm.js</title>
<g id="a_node49"><a xlink:href="src/js/directable/directables/rhythm2/ViewRhythm.js" xlink:title="ViewRhythm.js">
<path fill="#ffffcc" stroke="black" d="M487.58,-1862.25C487.58,-1862.25 423.17,-1862.25 423.17,-1862.25 420.08,-1862.25 417,-1859.17 417,-1856.08 417,-1856.08 417,-1849.92 417,-1849.92 417,-1846.83 420.08,-1843.75 423.17,-1843.75 423.17,-1843.75 487.58,-1843.75 487.58,-1843.75 490.67,-1843.75 493.75,-1846.83 493.75,-1849.92 493.75,-1849.92 493.75,-1856.08 493.75,-1856.08 493.75,-1859.17 490.67,-1862.25 487.58,-1862.25"/>
<text text-anchor="start" x="425" y="-1849.7" font-family="Helvetica,sans-Serif" font-size="9.00">ViewRhythm.js</text>
</a>
</g>
</g>
<!-- src/js/directable/directables/rhythm2/ViewRhythmTrack.js -->
<g id="node50" class="node">
<title>src/js/directable/directables/rhythm2/ViewRhythmTrack.js</title>
<g id="a_node50"><a xlink:href="src/js/directable/directables/rhythm2/ViewRhythmTrack.js" xlink:title="ViewRhythmTrack.js">
<path fill="#ffffcc" stroke="black" d="M657.96,-1862.25C657.96,-1862.25 571.04,-1862.25 571.04,-1862.25 567.96,-1862.25 564.88,-1859.17 564.88,-1856.08 564.88,-1856.08 564.88,-1849.92 564.88,-1849.92 564.88,-1846.83 567.96,-1843.75 571.04,-1843.75 571.04,-1843.75 657.96,-1843.75 657.96,-1843.75 661.04,-1843.75 664.12,-1846.83 664.12,-1849.92 664.12,-1849.92 664.12,-1856.08 664.12,-1856.08 664.12,-1859.17 661.04,-1862.25 657.96,-1862.25"/>
<text text-anchor="start" x="572.88" y="-1849.7" font-family="Helvetica,sans-Serif" font-size="9.00">ViewRhythmTrack.js</text>
</a>
</g>
</g>
<!-- src/js/directable/directables/rhythm2/ViewRhythm.js&#45;&gt;src/js/directable/directables/rhythm2/ViewRhythmTrack.js -->
<g id="edge17" class="edge">
<title>src/js/directable/directables/rhythm2/ViewRhythm.js&#45;&gt;src/js/directable/directables/rhythm2/ViewRhythmTrack.js</title>
<path fill="none" stroke="#000000" stroke-width="2" stroke-opacity="0.200000" d="M494.01,-1853C512.44,-1853 535.03,-1853 555.59,-1853"/>
<polygon fill="#000000" fill-opacity="0.200000" stroke="#000000" stroke-width="2" stroke-opacity="0.200000" points="555.54,-1855.1 561.54,-1853 555.54,-1850.9 555.54,-1855.1"/>
</g>
<!-- src/js/directable/directables/title/DirectableTitle.js&#45;&gt;src/js/application/ApplicationLogger.js -->
<g id="edge18" class="edge">
<title>src/js/directable/directables/title/DirectableTitle.js&#45;&gt;src/js/application/ApplicationLogger.js</title>
<path fill="none" stroke="#000000" stroke-width="2" stroke-opacity="0.200000" d="M497.75,-523.23C513.23,-520.18 530.23,-514.73 543.38,-505 577.4,-479.81 598.23,-432.73 607.61,-406.98"/>
<polygon fill="#000000" fill-opacity="0.200000" stroke="#000000" stroke-width="2" stroke-opacity="0.200000" points="609.57,-407.75 609.56,-401.39 605.6,-406.37 609.57,-407.75"/>
</g>
<!-- src/js/enum/DisplayFormats.js -->
<g id="node52" class="node">
<title>src/js/enum/DisplayFormats.js</title>
<g id="a_node52"><a xlink:href="src/js/enum/DisplayFormats.js" xlink:title="DisplayFormats.js">
<path fill="#ffffcc" stroke="black" d="M652.71,-119.25C652.71,-119.25 576.29,-119.25 576.29,-119.25 573.21,-119.25 570.12,-116.17 570.12,-113.08 570.12,-113.08 570.12,-106.92 570.12,-106.92 570.12,-103.83 573.21,-100.75 576.29,-100.75 576.29,-100.75 652.71,-100.75 652.71,-100.75 655.79,-100.75 658.88,-103.83 658.88,-106.92 658.88,-106.92 658.88,-113.08 658.88,-113.08 658.88,-116.17 655.79,-119.25 652.71,-119.25"/>
<text text-anchor="start" x="578.12" y="-106.7" font-family="Helvetica,sans-Serif" font-size="9.00">DisplayFormats.js</text>
</a>
</g>
</g>
<!-- src/js/index.js -->
<g id="node53" class="node">
<title>src/js/index.js</title>
<g id="a_node53"><a xlink:href="src/js/index.js" xlink:title="index.js">
<path fill="#ffffcc" stroke="black" d="M290.33,-354.25C290.33,-354.25 248.67,-354.25 248.67,-354.25 245.58,-354.25 242.5,-351.17 242.5,-348.08 242.5,-348.08 242.5,-341.92 242.5,-341.92 242.5,-338.83 245.58,-335.75 248.67,-335.75 248.67,-335.75 290.33,-335.75 290.33,-335.75 293.42,-335.75 296.5,-338.83 296.5,-341.92 296.5,-341.92 296.5,-348.08 296.5,-348.08 296.5,-351.17 293.42,-354.25 290.33,-354.25"/>
<text text-anchor="start" x="253.75" y="-341.7" font-family="Helvetica,sans-Serif" font-size="9.00">index.js</text>
</a>
</g>
</g>
<!-- src/js/index.js&#45;&gt;src/js/application/Application.js -->
<g id="edge23" class="edge">
<title>src/js/index.js&#45;&gt;src/js/application/Application.js</title>
<path fill="none" stroke="#000000" stroke-width="2" stroke-opacity="0.200000" d="M296.84,-347.44C326.6,-350.19 375.47,-354.71 410.9,-357.98"/>
<polygon fill="#000000" fill-opacity="0.200000" stroke="#000000" stroke-width="2" stroke-opacity="0.200000" points="410.42,-360.04 416.58,-358.51 410.8,-355.86 410.42,-360.04"/>
</g>
<!-- src/js/overlay/displayFormat/OverlayDisplayFormat.js&#45;&gt;src/js/enum/DisplayFormats.js -->
<g id="edge31" class="edge">
<title>src/js/overlay/displayFormat/OverlayDisplayFormat.js&#45;&gt;src/js/enum/DisplayFormats.js</title>
<path fill="none" stroke="#000000" stroke-width="2" stroke-opacity="0.200000" d="M319.64,-168.26C383.82,-155.53 495.69,-133.36 561.33,-120.34"/>
<polygon fill="#000000" fill-opacity="0.200000" stroke="#000000" stroke-width="2" stroke-opacity="0.200000" points="561.43,-122.46 566.91,-119.24 560.62,-118.34 561.43,-122.46"/>
</g>
<!-- src/js/overlay/OverlayUtil.js -->
<g id="node56" class="node">
<title>src/js/overlay/OverlayUtil.js</title>
<g id="a_node56"><a xlink:href="src/js/overlay/OverlayUtil.js" xlink:title="OverlayUtil.js">
<path fill="#ffffcc" stroke="black" d="M484.21,-261.25C484.21,-261.25 426.54,-261.25 426.54,-261.25 423.46,-261.25 420.38,-258.17 420.38,-255.08 420.38,-255.08 420.38,-248.92 420.38,-248.92 420.38,-245.83 423.46,-242.75 426.54,-242.75 426.54,-242.75 484.21,-242.75 484.21,-242.75 487.29,-242.75 490.38,-245.83 490.38,-248.92 490.38,-248.92 490.38,-255.08 490.38,-255.08 490.38,-258.17 487.29,-261.25 484.21,-261.25"/>
<text text-anchor="start" x="428.38" y="-248.7" font-family="Helvetica,sans-Serif" font-size="9.00">OverlayUtil.js</text>
</a>
</g>
</g>
<!-- src/js/overlay/displayFormat/OverlayDisplayFormat.js&#45;&gt;src/js/overlay/OverlayUtil.js -->
<g id="edge32" class="edge">
<title>src/js/overlay/displayFormat/OverlayDisplayFormat.js&#45;&gt;src/js/overlay/OverlayUtil.js</title>
<path fill="none" stroke="#000000" stroke-width="2" stroke-opacity="0.200000" d="M294.54,-187.67C327.16,-200.8 385.56,-224.31 422.01,-238.98"/>
<polygon fill="#000000" fill-opacity="0.200000" stroke="#000000" stroke-width="2" stroke-opacity="0.200000" points="421.17,-240.9 427.52,-241.19 422.74,-237 421.17,-240.9"/>
</g>
<!-- src/js/overlay/overlay/OverlayOverlay.js&#45;&gt;src/js/overlay/OverlayUtil.js -->
<g id="edge33" class="edge">
<title>src/js/overlay/overlay/OverlayOverlay.js&#45;&gt;src/js/overlay/OverlayUtil.js</title>
<path fill="none" stroke="#000000" stroke-width="2" stroke-opacity="0.200000" d="M313.61,-242.05C343.05,-244.13 381.89,-246.88 411.32,-248.96"/>
<polygon fill="#000000" fill-opacity="0.200000" stroke="#000000" stroke-width="2" stroke-opacity="0.200000" points="410.97,-251.04 417.11,-249.36 411.27,-246.85 410.97,-251.04"/>
</g>
<!-- src/js/overlay/OverlayUtil.js&#45;&gt;src/js/application/ApplicationLogger.js -->
<g id="edge30" class="edge">
<title>src/js/overlay/OverlayUtil.js&#45;&gt;src/js/application/ApplicationLogger.js</title>
<path fill="none" stroke="#000000" stroke-width="2" stroke-opacity="0.200000" d="M490.55,-257.38C509.19,-262.17 530.94,-271.17 543.38,-288 554.65,-303.26 539.06,-358.57 551.38,-373 553.07,-374.99 554.97,-376.74 557.04,-378.29"/>
<polygon fill="#000000" fill-opacity="0.200000" stroke="#000000" stroke-width="2" stroke-opacity="0.200000" points="555.76,-379.98 561.98,-381.26 557.92,-376.38 555.76,-379.98"/>
</g>
<!-- src/js/overlay/OverlayUtil.js&#45;&gt;src/js/application/ApplicationDispatcher.js -->
<g id="edge29" class="edge">
<title>src/js/overlay/OverlayUtil.js&#45;&gt;src/js/application/ApplicationDispatcher.js</title>
<path fill="none" stroke="#000000" stroke-width="2" stroke-opacity="0.200000" d="M455.38,-261.67C455.38,-277.32 455.38,-292.96 455.38,-308.61"/>
<polygon fill="#000000" fill-opacity="0.200000" stroke="#000000" stroke-width="2" stroke-opacity="0.200000" points="453.28,-308.28 455.38,-314.28 457.48,-308.28 453.28,-308.28"/>
</g>
<!-- src/js/view/render/RenderController.js&#45;&gt;src/js/application/ApplicationConfiguration.js -->
<g id="edge35" class="edge">
<title>src/js/view/render/RenderController.js&#45;&gt;src/js/application/ApplicationConfiguration.js</title>
<path fill="none" stroke="#000000" stroke-width="2" stroke-opacity="0.200000" d="M313.82,-89.7C388.57,-106.6 534.66,-140.35 543.38,-148 592.4,-191.07 607.45,-272.77 611.82,-308.96"/>
<polygon fill="#000000" fill-opacity="0.200000" stroke="#000000" stroke-width="2" stroke-opacity="0.200000" points="609.68,-308.77 612.42,-314.51 613.86,-308.32 609.68,-308.77"/>
</g>
<!-- src/js/view/render/RenderResizer.js -->
<g id="node58" class="node">
<title>src/js/view/render/RenderResizer.js</title>
<g id="a_node58"><a xlink:href="src/js/view/render/RenderResizer.js" xlink:title="RenderResizer.js">
<path fill="#ffffcc" stroke="black" d="M492.46,-58.25C492.46,-58.25 418.29,-58.25 418.29,-58.25 415.21,-58.25 412.12,-55.17 412.12,-52.08 412.12,-52.08 412.12,-45.92 412.12,-45.92 412.12,-42.83 415.21,-39.75 418.29,-39.75 418.29,-39.75 492.46,-39.75 492.46,-39.75 495.54,-39.75 498.62,-42.83 498.62,-45.92 498.62,-45.92 498.62,-52.08 498.62,-52.08 498.62,-55.17 495.54,-58.25 492.46,-58.25"/>
<text text-anchor="start" x="420.12" y="-45.7" font-family="Helvetica,sans-Serif" font-size="9.00">RenderResizer.js</text>
</a>
</g>
</g>
<!-- src/js/view/render/RenderController.js&#45;&gt;src/js/view/render/RenderResizer.js -->
<g id="edge36" class="edge">
<title>src/js/view/render/RenderController.js&#45;&gt;src/js/view/render/RenderResizer.js</title>
<path fill="none" stroke="#000000" stroke-width="2" stroke-opacity="0.200000" d="M315.51,-70.3C324.71,-68.44 334.34,-66.58 343.38,-65 362.83,-61.6 384.29,-58.38 403.12,-55.74"/>
<polygon fill="#000000" fill-opacity="0.200000" stroke="#000000" stroke-width="2" stroke-opacity="0.200000" points="403.2,-57.84 408.85,-54.94 402.62,-53.68 403.2,-57.84"/>
</g>
<!-- src/js/view/render/RenderSurface.js -->
<g id="node59" class="node">
<title>src/js/view/render/RenderSurface.js</title>
<g id="a_node59"><a xlink:href="src/js/view/render/RenderSurface.js" xlink:title="RenderSurface.js">
<path fill="#ffffcc" stroke="black" d="M492.83,-89.25C492.83,-89.25 417.92,-89.25 417.92,-89.25 414.83,-89.25 411.75,-86.17 411.75,-83.08 411.75,-83.08 411.75,-76.92 411.75,-76.92 411.75,-73.83 414.83,-70.75 417.92,-70.75 417.92,-70.75 492.83,-70.75 492.83,-70.75 495.92,-70.75 499,-73.83 499,-76.92 499,-76.92 499,-83.08 499,-83.08 499,-86.17 495.92,-89.25 492.83,-89.25"/>
<text text-anchor="start" x="419.75" y="-76.7" font-family="Helvetica,sans-Serif" font-size="9.00">RenderSurface.js</text>
</a>
</g>
</g>
<!-- src/js/view/render/RenderController.js&#45;&gt;src/js/view/render/RenderSurface.js -->
<g id="edge37" class="edge">
<title>src/js/view/render/RenderController.js&#45;&gt;src/js/view/render/RenderSurface.js</title>
<path fill="none" stroke="#000000" stroke-width="2" stroke-opacity="0.200000" d="M317.38,-80C343.38,-80 375.77,-80 402.53,-80"/>
<polygon fill="#000000" fill-opacity="0.200000" stroke="#000000" stroke-width="2" stroke-opacity="0.200000" points="402.34,-82.1 408.34,-80 402.34,-77.9 402.34,-82.1"/>
</g>
<!-- src/js/view/render/RenderResizer.js&#45;&gt;src/js/application/ApplicationConfiguration.js -->
<g id="edge38" class="edge">
<title>src/js/view/render/RenderResizer.js&#45;&gt;src/js/application/ApplicationConfiguration.js</title>
<path fill="none" stroke="#000000" stroke-width="2" stroke-opacity="0.200000" d="M498.75,-46.6C514.93,-48.02 532.17,-52.77 543.38,-65 556.05,-78.82 547.37,-130.68 551.38,-149 564.62,-209.53 592.25,-277.88 605.75,-309.38"/>
<polygon fill="#000000" fill-opacity="0.200000" stroke="#000000" stroke-width="2" stroke-opacity="0.200000" points="603.79,-310.14 608.1,-314.81 607.64,-308.47 603.79,-310.14"/>
</g>
<!-- src/js/view/render/RenderResizer.js&#45;&gt;src/js/application/ApplicationLogger.js -->
<g id="edge40" class="edge">
<title>src/js/view/render/RenderResizer.js&#45;&gt;src/js/application/ApplicationLogger.js</title>
<path fill="none" stroke="#000000" stroke-width="2" stroke-opacity="0.200000" d="M498.73,-46.18C515.11,-47.49 532.5,-52.28 543.38,-65 565.62,-91.02 530.05,-346.22 551.38,-373 553.03,-375.08 554.92,-376.92 556.99,-378.53"/>
<polygon fill="#000000" fill-opacity="0.200000" stroke="#000000" stroke-width="2" stroke-opacity="0.200000" points="555.8,-380.27 562.02,-381.62 558,-376.69 555.8,-380.27"/>
</g>
<!-- src/js/view/render/RenderResizer.js&#45;&gt;src/js/application/ApplicationDispatcher.js -->
<g id="edge39" class="edge">
<title>src/js/view/render/RenderResizer.js&#45;&gt;src/js/application/ApplicationDispatcher.js</title>
<path fill="none" stroke="#000000" stroke-width="2" stroke-opacity="0.200000" d="M411.87,-41.63C382.58,-39.42 347.81,-43.14 339.38,-71 335.7,-83.12 335.7,-286.88 339.38,-299 345.73,-320.01 366.7,-328.42 389.08,-331.07"/>
<polygon fill="#000000" fill-opacity="0.200000" stroke="#000000" stroke-width="2" stroke-opacity="0.200000" points="388.87,-333.16 395.03,-331.58 389.23,-328.97 388.87,-333.16"/>
</g>
<!-- src/js/view/render/RenderResizer.js&#45;&gt;src/js/enum/DisplayFormats.js -->
<g id="edge41" class="edge">
<title>src/js/view/render/RenderResizer.js&#45;&gt;src/js/enum/DisplayFormats.js</title>
<path fill="none" stroke="#000000" stroke-width="2" stroke-opacity="0.200000" d="M498.89,-53.44C513.35,-55.83 529.38,-59.47 543.38,-65 562.22,-72.44 581.43,-85.21 594.97,-95.25"/>
<polygon fill="#000000" fill-opacity="0.200000" stroke="#000000" stroke-width="2" stroke-opacity="0.200000" points="593.42,-96.71 599.46,-98.66 595.96,-93.36 593.42,-96.71"/>
</g>
<!-- src/js/view/render/RenderSurface.js&#45;&gt;src/js/application/ApplicationLogger.js -->
<g id="edge42" class="edge">
<title>src/js/view/render/RenderSurface.js&#45;&gt;src/js/application/ApplicationLogger.js</title>
<path fill="none" stroke="#000000" stroke-width="2" stroke-opacity="0.200000" d="M476.49,-89.61C497.43,-100.84 529.13,-121.58 543.38,-150 554.48,-172.17 535.84,-353.68 551.38,-373 553.04,-375.07 554.94,-376.9 557.01,-378.51"/>
<polygon fill="#000000" fill-opacity="0.200000" stroke="#000000" stroke-width="2" stroke-opacity="0.200000" points="555.84,-380.25 562.05,-381.59 558.03,-376.67 555.84,-380.25"/>
</g>
</g>
</svg>
